<?xml version="1.0" encoding="utf-8"?>
<!-- Generator: Adobe Illustrator 23.0.3, SVG Export Plug-In . SVG Version: 6.00 Build 0)  -->
<svg version="1.1" xmlns="http://www.w3.org/2000/svg" xmlns:xlink="http://www.w3.org/1999/xlink" x="0px" y="0px"
	 viewBox="0 0 76.7 64.8" style="enable-background:new 0 0 76.7 64.8;" xml:space="preserve">
<style type="text/css">
	.st0{enable-background:new    ;}
	.st1{fill:#D9D9D9;}
	.st2{fill:#636363;}
	.st3{fill:#5B1016;}
	.st4{fill:#3B0B0C;}
	.st5{fill:#CDCCCC;}
	.st6{fill:#868686;}
	.st7{fill:#440C0E;}
	.st8{fill:#5A1013;}
	.st9{fill:#4C0E10;}
	.st10{fill:#651215;}
	.st11{fill-rule:evenodd;clip-rule:evenodd;fill:#868686;}
	.st12{fill:#6ABA82;}
	.st13{fill:#035426;}
	.st14{fill:#31AA59;}
	.st15{fill:#006E32;}
	.st16{fill-rule:evenodd;clip-rule:evenodd;fill:#006E32;}
	.st17{fill:#BFC9E8;}
	.st18{fill:#264B8C;}
	.st19{fill:#9FABD8;}
	.st20{fill:#3458A3;}
	.st21{fill-rule:evenodd;clip-rule:evenodd;fill:#3458A3;}
	.st22{fill:#CC5261;}
	.st23{fill:#BD1622;}
	.st24{fill:#751518;}
	.st25{fill-rule:evenodd;clip-rule:evenodd;fill:#751518;}
</style>
<g id="Capa_2">
</g>
<g id="Capa_1">
	<g>
		<g>
			<g class="st0">
				<path class="st17" d="M76.7,26.9c-0.2-7.4-4-14.9-9-20.2c-3.9-4.1-10.6-8.9-16.2-5.6c-7,4.1-1,0.6-4.1,2.4
					c6,1.7,15.6,6.2,19.2,12.2c3.7,6.2,1.7,23.7,1.7,23.7s0.5-0.3,3.2-1.9C75.4,35.3,76.8,31.4,76.7,26.9z"/>
				<g>
					<path class="st18" d="M57.8,4.6C66,9.3,72.5,20.7,72.5,30c0,9.3-6.6,13.1-14.8,8.4C49.6,33.7,43,22.3,43,13
						C43.1,3.6,49.7-0.1,57.8,4.6z"/>
				</g>
			</g>
		</g>
		<g>
			<g class="st0">
				<g>
					<polygon class="st3" points="12.4,25.1 12.7,24.9 14.8,28.5 14.5,28.7 					"/>
				</g>
				<g>
					<polygon class="st4" points="12.4,25.1 47.6,4.6 48,4.5 12.7,24.9 					"/>
				</g>
				<g>
					<polygon class="st19" points="12.7,24.9 48,4.5 50,8.1 14.8,28.5 					"/>
				</g>
			</g>
			<g class="st0">
				<g>
					<polygon class="st3" points="9.5,28.7 9.6,28.3 12.4,31.1 12.2,31.5 					"/>
				</g>
				<g>
					<polygon class="st20" points="9.6,28.3 44.9,7.8 47.6,10.7 12.4,31.1 					"/>
				</g>
				<g>
					<polygon class="st7" points="12.4,31.1 47.6,10.7 47.4,11.1 12.2,31.5 					"/>
				</g>
			</g>
			<g class="st0">
				<g>
					<polygon class="st3" points="11.4,35.3 11.4,35.9 8.5,34.2 8.5,33.6 					"/>
				</g>
				<g>
					<polygon class="st8" points="11.4,35.3 46.7,14.9 46.7,15.4 11.4,35.9 					"/>
				</g>
				<g>
					<polygon class="st20" points="8.5,33.6 43.7,13.2 46.7,14.9 11.4,35.3 					"/>
				</g>
			</g>
			<g class="st0">
				<g>
					<polygon class="st3" points="26.3,55.8 26.7,55.8 27.8,59.6 27.4,59.6 					"/>
				</g>
				<g>
					<polygon class="st9" points="26.3,55.8 61.5,35.3 61.9,35.4 26.7,55.8 					"/>
				</g>
				<g>
					<polygon class="st20" points="26.7,55.8 61.9,35.4 63.1,39.1 27.8,59.6 					"/>
				</g>
			</g>
			<g class="st0">
				<g>
					<polygon class="st3" points="29.8,55.2 30.1,55 32.2,58.6 31.9,58.8 					"/>
				</g>
				<g>
					<polygon class="st4" points="29.8,55.2 65,34.8 65.4,34.6 30.1,55 					"/>
				</g>
				<g>
					<polygon class="st19" points="30.1,55 65.4,34.6 67.4,38.2 32.2,58.6 					"/>
				</g>
			</g>
			<g class="st0">
				<g>
					<polygon class="st3" points="22,57.6 22,54.2 22.5,54.5 22.5,57.9 					"/>
				</g>
				<g>
					<polygon class="st10" points="22,54.2 57.3,33.7 57.7,34 22.5,54.5 					"/>
				</g>
				<g>
					<polygon class="st20" points="22.5,54.5 57.7,34 57.7,37.4 22.5,57.9 					"/>
				</g>
			</g>
			<g class="st0">
				<g>
					<polygon class="st20" points="31.6,52.2 31.6,54.8 29.3,53.5 29.3,50.9 					"/>
				</g>
				<g>
					<polygon class="st19" points="31.6,52.2 50.9,41 50.8,43.6 31.6,54.8 					"/>
				</g>
				<g>
					<polygon class="st17" points="29.3,50.9 48.6,39.7 50.9,41 31.6,52.2 					"/>
				</g>
			</g>
			<g>
				<g class="st0">
					<path class="st20" d="M68.2,27.7c-0.2-5.7-3.1-11.5-7-15.6c-3-3.2-8.2-6.9-12.6-4.3C43.3,10.9,16.2,27,13.8,28.4
						c4.6,1.3,12.1,4.8,14.9,9.5c2.8,4.8,1.3,18.3,1.3,18.3s32-19,34.1-20.2C67.1,34.2,68.3,31.2,68.2,27.7z"/>
					<g>
						<path class="st20" d="M22,29.2c6.3,3.6,11.4,12.4,11.4,19.7c0,7.2-5.1,10.1-11.4,6.5c-6.3-3.6-11.4-12.5-11.4-19.7
							C10.5,28.5,15.7,25.6,22,29.2z"/>
					</g>
				</g>
			</g>
			<g class="st0">
				<g>
					<polygon class="st3" points="37.8,11.9 38.3,11.9 39.4,15.7 39,15.7 					"/>
				</g>
				<g>
					<polygon class="st17" points="37.8,11.9 52,3.7 52.4,3.7 38.3,11.9 					"/>
				</g>
				<g>
					<polygon class="st19" points="38.3,11.9 52.4,3.7 53.6,7.5 39.4,15.7 					"/>
				</g>
			</g>
			<g class="st0">
				<g>
					<polygon class="st3" points="43.3,16.9 43.3,13.5 43.8,13.8 43.8,17.2 					"/>
				</g>
				<g>
					<polygon class="st17" points="43.3,13.5 57.3,5.4 57.8,5.7 43.8,13.8 					"/>
				</g>
				<g>
					<polygon class="st19" points="43.8,13.8 57.8,5.7 57.8,9.1 43.8,17.2 					"/>
				</g>
			</g>
			<g class="st0">
				<g>
					<polygon class="st3" points="29.8,37.2 31.9,36 32.2,36.6 30.2,37.8 					"/>
				</g>
				<g>
					<polygon class="st4" points="29.8,37.2 65.1,16.7 67.2,15.5 31.9,36 					"/>
				</g>
				<g>
					<polygon class="st17" points="31.9,36 67.2,15.5 67.5,16.1 32.2,36.6 					"/>
				</g>
			</g>
			<g class="st0">
				<g>
					<polygon class="st3" points="32.2,52.6 32.4,52.2 35.1,55.1 34.9,55.5 					"/>
				</g>
				<g>
					<polygon class="st19" points="32.4,52.2 67.6,31.8 70.4,34.6 35.1,55.1 					"/>
				</g>
				<g>
					<polygon class="st17" points="35.1,55.1 70.4,34.6 70.2,35 34.9,55.5 					"/>
				</g>
			</g>
			<g class="st0">
				<g>
					<polygon class="st3" points="33.2,47.9 36.1,49.6 36.1,50.1 33.1,48.4 					"/>
				</g>
				<g>
					<polygon class="st19" points="33.2,47.9 68.4,27.4 71.3,29.1 36.1,49.6 					"/>
				</g>
				<g>
					<polygon class="st17" points="36.1,49.6 71.3,29.1 71.3,29.6 36.1,50.1 					"/>
				</g>
			</g>
			<g class="st0">
				<g>
					<polygon class="st3" points="35.2,43.7 32.5,43.4 32.3,42.8 35,43.1 					"/>
				</g>
				<g>
					<polygon class="st19" points="32.3,42.8 67.5,22.3 70.3,22.6 35,43.1 					"/>
				</g>
				<g>
					<polygon class="st17" points="35,43.1 70.3,22.6 70.4,23.2 35.2,43.7 					"/>
				</g>
			</g>
			<g>
				<polygon class="st19" points="24.7,12.7 38.2,5.3 49.7,11.9 36.3,22.4 24.7,12.7 				"/>
				<polygon class="st18" points="36.2,27 36.3,19.5 49.7,11.9 49.6,19.3 				"/>
				<polygon class="st18" points="36.2,27 24.7,20.2 24.7,12.7 36.3,19.5 				"/>
				<g>
					<g>
						<path class="st21" d="M37.8,21c0.4-1.4,1.5-2.2,2.5-1.9c0.1,0,0.3,0.2,0.3,0.2c0,0,0,0,0,0l0.7,0.4l-2.2,4.6l-0.7-0.4
							C37.8,23.3,37.5,22.2,37.8,21z"/>
						
							<ellipse transform="matrix(0.2824 -0.9593 0.9593 0.2824 7.8504 54.4342)" class="st19" cx="40.3" cy="22" rx="2.6" ry="1.9"/>
					</g>
					<g>
						<path class="st20" d="M39.7,23.7c-0.1,0-0.1,0-0.2,0c-0.2-0.1-0.3-0.4-0.2-0.6l1.3-2.7c0.1-0.2,0.4-0.3,0.6-0.2
							c0.2,0.1,0.3,0.4,0.2,0.6l-1.3,2.7C40.1,23.6,39.9,23.7,39.7,23.7z"/>
					</g>
				</g>
				<g>
					<g>
						<path class="st21" d="M44.3,17c0.4-1.4,1.5-2.2,2.5-1.9c0.1,0,0.3,0.2,0.3,0.2c0,0,0,0,0,0l0.7,0.4l-2.2,4.6L45,19.8
							C44.3,19.3,44,18.2,44.3,17z"/>
						
							<ellipse transform="matrix(0.2824 -0.9593 0.9593 0.2824 16.3796 57.7415)" class="st19" cx="46.8" cy="17.9" rx="2.6" ry="1.9"/>
					</g>
					<g>
						<path class="st20" d="M46.2,19.7c-0.1,0-0.1,0-0.2,0c-0.2-0.1-0.3-0.4-0.2-0.6l1.3-2.7c0.1-0.2,0.4-0.3,0.6-0.2
							c0.2,0.1,0.3,0.4,0.2,0.6l-1.3,2.7C46.5,19.6,46.4,19.7,46.2,19.7z"/>
					</g>
				</g>
				<g>
					<polygon class="st17" points="23.8,12.7 38.2,4.8 50.6,11.8 36.2,20 23.8,12.7 					"/>
					<g>
						<polygon class="st19" points="36.2,21.5 36.2,20 50.6,11.8 50.5,13.2 						"/>
						<polygon class="st20" points="36.2,21.5 23.7,14.1 23.8,12.7 36.2,20 						"/>
					</g>
				</g>
			</g>
			<g class="st0">
				<g>
					<polygon class="st3" points="26.4,32.7 27.6,30.3 28,30.7 26.8,33.1 					"/>
				</g>
				<g>
					<polygon class="st17" points="27.6,30.3 62.8,9.8 63.3,10.2 28,30.7 					"/>
				</g>
				<g>
					<polygon class="st19" points="28,30.7 63.3,10.2 62.1,12.7 26.8,33.1 					"/>
				</g>
			</g>
			<g class="st0">
				<g>
					<polygon class="st3" points="16.8,24.2 17.2,24.2 18.3,28 17.9,27.9 					"/>
				</g>
				<g>
					<polygon class="st17" points="16.8,24.2 27.6,17.9 28.1,17.9 17.2,24.2 					"/>
				</g>
				<g>
					<polygon class="st19" points="17.2,24.2 28.1,17.9 29.2,21.7 18.3,28 					"/>
				</g>
			</g>
			<g>
				<g>
					<polygon class="st3" points="22.1,29.3 22.1,25.9 22.6,26.2 22.6,29.5 					"/>
				</g>
				<g>
					<polygon class="st17" points="22.1,25.9 31.6,20.4 32,20.7 22.6,26.2 					"/>
				</g>
				<polygon class="st19" points="22.6,26.2 32,20.7 32,24 22.6,29.5 				"/>
			</g>
		</g>
		<g>
			<g>
				<g>
					<g class="st0">
						<path class="st17" d="M36.5,50.4c-0.2-7.6-4.1-15.3-9.3-20.8c-4-4.3-10.9-9.2-16.7-5.7c-7.2,4.2,0.9-0.5-2.3,1.4
							C14.4,27,24.4,31.6,28,37.8c3.8,6.4,1.7,24.4,1.7,24.4s-1.5,0.8,1.3-0.8C35.2,59,36.7,55,36.5,50.4z"/>
						<g>
							<path class="st20" d="M19.1,26.3c8.4,4.8,15.1,16.6,15.1,26.2c0,9.6-6.8,13.5-15.2,8.7C10.6,56.3,3.8,44.6,3.8,34.9
								C3.9,25.3,10.7,21.4,19.1,26.3z"/>
						</g>
					</g>
				</g>
				<g>
					<g class="st0">
						<path class="st17" d="M34,52c-0.2-7.6-4.1-15.3-9.3-20.8c-4-4.3-10.9-9.2-16.7-5.7c-7.2,4.2,0.9-0.5-2.3,1.4
							c6.2,1.8,16.1,6.4,19.8,12.6c3.8,6.4,1.7,24.4,1.7,24.4s-1.5,0.8,1.3-0.8C32.7,60.6,34.2,56.6,34,52z"/>
						<g>
							<path class="st20" d="M16.6,27.9c8.4,4.8,15.1,16.6,15.1,26.2c0,9.6-6.8,13.5-15.2,8.7C8.1,57.9,1.3,46.2,1.3,36.5
								C1.4,26.9,8.2,23,16.6,27.9z"/>
						</g>
					</g>
				</g>
				<g>
					<g class="st0">
						<path class="st19" d="M24.6,51.3c-0.1-4.9-2.6-9.9-6-13.5c-2.6-2.8-7-5.9-10.8-3.7c-4.6,2.7-0.7,0.6-2.7,1.7
							C9,37,15.4,40,17.8,44c2.5,4.1,1.1,15.8,1.1,15.8s0.3-0.3,2.1-1.4C23.7,56.9,24.6,54.3,24.6,51.3z"/>
						<g>
							<path class="st20" d="M12,36.6c5.4,3.1,9.8,10.7,9.8,17c0,6.2-4.4,8.7-9.8,5.6C6.5,56,2.1,48.4,2.1,42.2
								C2.2,36,6.6,33.4,12,36.6z"/>
						</g>
					</g>
				</g>
				<g>
					<g class="st0">
						<path class="st19" d="M14.8,49.6c-0.1-1.7-0.9-3.4-2.1-4.6c-0.9-1-2.4-2-3.7-1.3c-1.6,0.9-7.4,4.1-8.1,4.5
							c1.4,0.4,3.6,1.4,4.4,2.8c0.8,1.4,0.4,5.4,0.4,5.4s7.2-4,7.8-4.3C14.5,51.5,14.9,50.6,14.8,49.6z"/>
						<g>
							<path class="st20" d="M3.4,48.4c1.9,1.1,3.4,3.7,3.4,5.8c0,2.1-1.5,3-3.4,1.9C1.5,55.1,0,52.5,0,50.3
								C0,48.2,1.5,47.3,3.4,48.4z"/>
						</g>
					</g>
				</g>
			</g>
			<g>
				<g class="st0">
					<path class="st17" d="M8.2,32.2c0-0.6-0.3-1.1-0.7-1.5c-0.3-0.3-0.8-0.7-1.2-0.4c-0.5,0.3-0.2,0.2-0.5,0.3
						C6.3,30.7,7,31,7.3,31.5c0.3,0.5,0.1,1.8,0.1,1.8s0.2-0.1,0.4-0.3C8.1,32.8,8.2,32.5,8.2,32.2z"/>
					<g>
						<path class="st19" d="M6.6,30.6c0.6,0.4,1.1,1.2,1.1,1.9c0,0.7-0.5,1-1.1,0.6C6,32.8,5.5,32,5.5,31.3
							C5.5,30.6,6,30.3,6.6,30.6z"/>
					</g>
				</g>
			</g>
			<g>
				<g class="st0">
					<path class="st17" d="M15.6,31.2c0-0.6-0.3-1.1-0.7-1.5c-0.3-0.3-0.8-0.7-1.2-0.4c-0.5,0.3-0.2,0.2-0.5,0.3
						c0.5,0.1,1.2,0.5,1.5,0.9c0.3,0.5,0.1,1.8,0.1,1.8s0.2-0.1,0.4-0.3C15.5,31.9,15.6,31.6,15.6,31.2z"/>
					<g>
						<path class="st19" d="M14,29.7c0.6,0.4,1.1,1.2,1.1,1.9c0,0.7-0.5,1-1.1,0.6c-0.6-0.4-1.1-1.2-1.1-1.9
							C12.9,29.6,13.4,29.3,14,29.7z"/>
					</g>
				</g>
			</g>
			<g>
				<g class="st0">
					<path class="st17" d="M23.4,37c0-0.6-0.3-1.1-0.7-1.5c-0.3-0.3-0.8-0.7-1.2-0.4c-0.5,0.3-0.2,0.2-0.5,0.3
						c0.5,0.1,1.2,0.5,1.5,0.9c0.3,0.5,0.1,1.8,0.1,1.8s0.2-0.1,0.4-0.3C23.3,37.6,23.4,37.3,23.4,37z"/>
					<g>
						<path class="st19" d="M21.8,35.4c0.6,0.4,1.1,1.2,1.1,1.9c0,0.7-0.5,1-1.1,0.6c-0.6-0.4-1.1-1.2-1.1-1.9
							C20.7,35.3,21.2,35,21.8,35.4z"/>
					</g>
				</g>
			</g>
			<g>
				<g class="st0">
					<path class="st17" d="M28.3,45.6c0-0.6-0.3-1.1-0.7-1.5c-0.3-0.3-0.8-0.7-1.2-0.4c-0.5,0.3-0.2,0.2-0.5,0.3
						c0.5,0.1,1.2,0.5,1.5,0.9c0.3,0.5,0.1,1.8,0.1,1.8s0.2-0.1,0.4-0.3C28.2,46.2,28.3,45.9,28.3,45.6z"/>
					<g>
						<path class="st19" d="M26.7,44c0.6,0.4,1.1,1.2,1.1,1.9c0,0.7-0.5,1-1.1,0.6c-0.6-0.4-1.1-1.2-1.1-1.9
							C25.6,43.9,26.1,43.6,26.7,44z"/>
					</g>
				</g>
			</g>
			<g>
				<g class="st0">
					<path class="st17" d="M29.1,56.3c0-0.6-0.3-1.1-0.7-1.5c-0.3-0.3-0.8-0.7-1.2-0.4c-0.5,0.3-0.2,0.2-0.5,0.3
						c0.5,0.1,1.2,0.5,1.5,0.9c0.3,0.5,0.1,1.8,0.1,1.8s0.2-0.1,0.4-0.3C29,57,29.1,56.7,29.1,56.3z"/>
					<g>
						<path class="st19" d="M27.5,54.8c0.6,0.4,1.1,1.2,1.1,1.9c0,0.7-0.5,1-1.1,0.6c-0.6-0.4-1.1-1.2-1.1-1.9
							C26.4,54.7,26.9,54.4,27.5,54.8z"/>
					</g>
				</g>
			</g>
			<g>
				<g class="st0">
					<path class="st17" d="M24,61.2c0-0.6-0.3-1.1-0.7-1.5c-0.3-0.3-0.8-0.7-1.2-0.4c-0.5,0.3-0.2,0.2-0.5,0.3
						c0.5,0.1,1.2,0.5,1.5,0.9c0.3,0.5,0.1,1.8,0.1,1.8s0.2-0.1,0.4-0.3C23.9,61.9,24,61.6,24,61.2z"/>
					<g>
						<path class="st19" d="M22.4,59.6c0.6,0.4,1.1,1.2,1.1,1.9c0,0.7-0.5,1-1.1,0.6c-0.6-0.4-1.1-1.2-1.1-1.9
							C21.3,59.6,21.8,59.3,22.4,59.6z"/>
					</g>
				</g>
			</g>
		</g>
	</g>
</g>
</svg>
