<?xml version="1.0" encoding="UTF-8" standalone="no"?>
<!-- Generator: Adobe Illustrator 23.0.3, SVG Export Plug-In . SVG Version: 6.00 Build 0)  -->

<svg
   xmlns:dc="http://purl.org/dc/elements/1.1/"
   xmlns:cc="http://creativecommons.org/ns#"
   xmlns:rdf="http://www.w3.org/1999/02/22-rdf-syntax-ns#"
   xmlns:svg="http://www.w3.org/2000/svg"
   xmlns="http://www.w3.org/2000/svg"
   xmlns:sodipodi="http://sodipodi.sourceforge.net/DTD/sodipodi-0.dtd"
   xmlns:inkscape="http://www.inkscape.org/namespaces/inkscape"
   version="1.2"
   id="Capa_1"
   x="0px"
   y="0px"
   viewBox="0 0 7942.7002 7098.5998"
   xml:space="preserve"
   sodipodi:docname="bomba_centrifugadora_izquierda_verde.svg"
   width="7942.7002"
   height="7098.5996"
   inkscape:version="0.92.5 (2060ec1f9f, 2020-04-08)"><metadata
   id="metadata35"><rdf:RDF><cc:Work
       rdf:about=""><dc:format>image/svg+xml</dc:format><dc:type
         rdf:resource="http://purl.org/dc/dcmitype/StillImage" /><dc:title></dc:title></cc:Work></rdf:RDF></metadata><defs
   id="defs33">
	
	
		
	
	
	
	
		
	
	
		
</defs><sodipodi:namedview
   pagecolor="#ffffff"
   bordercolor="#666666"
   borderopacity="1"
   objecttolerance="10"
   gridtolerance="10"
   guidetolerance="10"
   inkscape:pageopacity="0"
   inkscape:pageshadow="2"
   inkscape:window-width="1920"
   inkscape:window-height="1046"
   id="namedview31"
   showgrid="false"
   fit-margin-top="0"
   fit-margin-left="0"
   fit-margin-right="0"
   fit-margin-bottom="0"
   inkscape:zoom="0.01"
   inkscape:cx="35881.584"
   inkscape:cy="34142.998"
   inkscape:window-x="2389"
   inkscape:window-y="-11"
   inkscape:window-maximized="1"
   inkscape:current-layer="Capa_1" />
<g
   id="g3236"
   transform="matrix(0.1,0,0,0.1,2.897594e-5,4.1085877e-7)"><path
     d="M 78136.013,18198.113 C 74476.022,5758.187 64156.047,-2151.7662 55076.07,518.21801 54576.071,668.21712 52946.075,1398.2128 51856.077,1978.2094 l -6049.985,3539.979 19819.952,42029.7516 6419.984,-3819.978 c 6479.984,-4519.973 9209.978,-14939.911 6089.985,-25529.849 z"
     id="path2"
     inkscape:connector-curvature="0"
     style="fill:#6abb83;fill-rule:evenodd;stroke-width:999.99584961" /><ellipse
     transform="matrix(0.95929727,-0.28239821,0.28240002,0.95929674,0,0)"
     cx="46012.559"
     cy="41175.395"
     rx="17130.006"
     ry="23469.939"
     id="ellipse4"
     style="fill:#036e32;stroke-width:999.9989624" /><g
     transform="matrix(999.99756,0,0,999.99408,-3.7960439,-1.7789127)"
     id="g12">
		<g
   id="g10">
			<path
   d="M 66.09,23.42 C 63.41,14.32 55.85,8.52 49.21,10.48 c -0.36,0.11 -1.56,0.65 -2.36,1.07 l -4.43,2.59 14.51,30.77 4.7,-2.8 c 4.74,-3.31 6.74,-10.94 4.46,-18.69 z"
   id="path6"
   inkscape:connector-curvature="0"
   style="fill:#6abb83;fill-rule:evenodd" />
			
				<ellipse
   transform="matrix(0.9593,-0.2824,0.2824,0.9593,-6.3064,15.238)"
   cx="49.709999"
   cy="29.5"
   rx="12.54"
   ry="17.18"
   id="ellipse8"
   style="fill:#6abb83" />
		</g>
	</g><g
     transform="matrix(999.99756,0,0,999.99408,-3.7960439,-1.7789127)"
     id="g18">
		<path
   d="M 63.23,25.4 C 59.96,14.29 50.74,7.22 42.64,9.61 c -0.45,0.13 -2.74,1.23 -2.74,1.23 -0.04,0.03 -0.09,0.05 -0.14,0.08 L 8.41,29.46 26.12,67 57.8,48.2 c 5.78,-4.04 8.22,-13.35 5.43,-22.8 z"
   id="path14"
   inkscape:connector-curvature="0"
   style="fill:#33ab59;fill-rule:evenodd" />
		
			<ellipse
   transform="matrix(0.9593,-0.2824,0.2824,0.9593,-12.9067,6.8489)"
   cx="17.309999"
   cy="48.200001"
   rx="15.3"
   ry="20.959999"
   id="ellipse16"
   style="fill:#33ab59" />
	</g><path
     d="M 40086.106,39647.986 C 36426.115,27208.06 26106.14,19298.107 17036.162,21968.091 c -499.998,149.999 -2129.994,879.995 -3219.992,1459.991 l -6049.985,3539.979 19819.952,42029.752 6409.984,-3819.978 c 6479.984,-4519.973 9209.978,-14939.911 6089.985,-25529.849 z"
     id="path20"
     inkscape:connector-curvature="0"
     style="fill:#6abb83;fill-rule:evenodd;stroke-width:999.99584961" /><ellipse
     transform="matrix(0.95929727,-0.28239821,0.28240002,0.95929674,0,0)"
     cx="3454.6267"
     cy="51009.363"
     rx="17130.006"
     ry="23469.939"
     id="ellipse22"
     style="fill:#036e32;stroke-width:999.9989624" /><path
     d="M 26136.14,44907.955 C 23856.146,37178.001 17446.161,32258.03 11806.175,33918.02 c -309.999,90 -1319.997,549.997 -1999.995,909.995 l -3759.9908,2199.987 12319.9698,26129.845 3989.99,-2369.986 c 4019.991,-2809.983 5719.986,-9299.945 3779.991,-15879.906 z"
     id="path24"
     inkscape:connector-curvature="0"
     style="fill:#6abb83;fill-rule:evenodd;stroke-width:999.99584961" /><ellipse
     transform="matrix(0.95929727,-0.28239821,0.28240002,0.95929674,0,0)"
     cx="-2401.2517"
     cy="51494.375"
     rx="10650.004"
     ry="14589.964"
     id="ellipse26"
     style="fill:#036e32;stroke-width:999.9989624" /></g>
</svg>