<?xml version="1.0" encoding="utf-8"?>
<!-- Generator: Adobe Illustrator 23.0.3, SVG Export Plug-In . SVG Version: 6.00 Build 0)  -->
<svg version="1.2" baseProfile="tiny" id="Capa_1" xmlns="http://www.w3.org/2000/svg" xmlns:xlink="http://www.w3.org/1999/xlink"
	 x="0px" y="0px" viewBox="0 0 79.43 70.99" xml:space="preserve">
<g>
	<path fill-rule="evenodd" fill="#DADADA" d="M78.14,18.2C74.48,5.76,64.16-2.15,55.08,0.52c-0.5,0.15-2.13,0.88-3.22,1.46
		l-6.05,3.54l19.82,42.03l6.42-3.82C78.53,39.21,81.26,28.79,78.14,18.2z"/>
	
		<ellipse transform="matrix(0.9593 -0.2824 0.2824 0.9593 -5.215 16.8259)" fill="#706F6F" cx="55.77" cy="26.51" rx="17.13" ry="23.47"/>
	<g>
		<g>
			<path fill-rule="evenodd" fill="#DADADA" d="M66.09,23.42c-2.68-9.1-10.24-14.9-16.88-12.94c-0.36,0.11-1.56,0.65-2.36,1.07
				l-4.43,2.59l14.51,30.77l4.7-2.8C66.37,38.8,68.37,31.17,66.09,23.42z"/>
			
				<ellipse transform="matrix(0.9593 -0.2824 0.2824 0.9593 -6.3064 15.238)" fill="#DADADA" cx="49.71" cy="29.5" rx="12.54" ry="17.18"/>
		</g>
	</g>
	<g>
		<path fill-rule="evenodd" fill="#B2B2B2" d="M63.23,25.4C59.96,14.29,50.74,7.22,42.64,9.61c-0.45,0.13-2.74,1.23-2.74,1.23
			c-0.04,0.03-0.09,0.05-0.14,0.08L8.41,29.46L26.12,67l31.68-18.8C63.58,44.16,66.02,34.85,63.23,25.4z"/>
		
			<ellipse transform="matrix(0.9593 -0.2824 0.2824 0.9593 -12.9067 6.8489)" fill="#B2B2B2" cx="17.31" cy="48.2" rx="15.3" ry="20.96"/>
	</g>
	<path fill-rule="evenodd" fill="#DADADA" d="M40.09,39.65C36.43,27.21,26.11,19.3,17.04,21.97c-0.5,0.15-2.13,0.88-3.22,1.46
		l-6.05,3.54L27.59,69L34,65.18C40.48,60.66,43.21,50.24,40.09,39.65z"/>
	
		<ellipse transform="matrix(0.9593 -0.2824 0.2824 0.9593 -12.8198 6.9557)" fill="#706F6F" cx="17.72" cy="47.96" rx="17.13" ry="23.47"/>
	<path fill-rule="evenodd" fill="#DADADA" d="M26.14,44.91c-2.28-7.73-8.69-12.65-14.33-10.99c-0.31,0.09-1.32,0.55-2,0.91
		l-3.76,2.2l12.32,26.13l3.99-2.37C26.38,57.98,28.08,51.49,26.14,44.91z"/>
	
		<ellipse transform="matrix(0.9593 -0.2824 0.2824 0.9593 -13.6421 5.4934)" fill="#706F6F" cx="12.24" cy="50.08" rx="10.65" ry="14.59"/>
</g>
</svg>
