<svg width="1450" height="640" xmlns="http://www.w3.org/2000/svg" xmlns:xlink="http://www.w3.org/1999/xlink" preserveAspectRatio="xMidYMid meet">
 <defs>
  <path d="m440.48999,370.109985c-0.220001,-2.599976 -0.440002,-5.079987 -0.660004,-7.399994c-0.019989,-0.22998 -0.039978,-0.459991 -0.089996,-0.819977c-3.470001,-26.030029 -12.069977,-63.560028 -33.389984,-94.540009c-14.76001,-21.450012 -33.089996,-35.930008 -54.550018,-43.12001c-2.209991,-16.709991 -15.629974,-29.610001 -31.799988,-29.610001c-16.170013,0 -29.600006,12.900009 -31.799988,29.62001c-21.460022,7.179993 -39.790009,21.659988 -54.550018,43.110001c-21.319992,30.97998 -29.929993,68.509979 -33.389999,94.540009c0,0.019989 -0.019989,0.179993 -0.029999,0.199982c-0.029999,0.230011 -0.050003,0.450012 -0.059998,0.610016c-0.220001,2.329987 -0.440002,4.809998 -0.660004,7.399994c-1.519989,17.290009 -4.049988,46.22998 -10.860001,57.910004c-0.119995,0.220001 -0.229996,0.429993 -0.399994,0.75c-1.809998,3.48999 -5.449997,6.919983 -9.309998,10.559998c-9.479996,8.919983 -29.229996,27.5 -12.970001,59.919983c3.149994,6.27002 9.229996,10.170013 15.869995,10.170013c27.630005,0 248.690002,0 276.320007,0c6.639984,0 12.709991,-3.890015 15.869995,-10.170013c16.25,-32.419983 -3.480011,-51 -12.959991,-59.919983c-3.869995,-3.640015 -7.51001,-7.070007 -9.279999,-10.470001c-0.130005,-0.279999 -0.290009,-0.559998 -0.5,-0.940002c-6.75,-11.589996 -9.279999,-40.519989 -10.800018,-57.800018l0.000001,-0.000002z" id="bK0p2uvp"/>
  <path d="m278.950012,557.809998c0,0.02002 0.029999,0.22998 0.039978,0.25c3.480011,21.400024 20.710022,36.940002 40.970001,36.940002c20.640015,0 38.350006,-16.530029 41.190002,-38.409973c0.01001,-0.050049 0.059998,-0.330017 0.059998,-0.370056c0.350006,-1.97998 1.170013,-6.639954 -1.889984,-10.609985c-1.100006,-1.419983 -3.580017,-3.799988 -7.940002,-3.799988c-12.77002,0 -57.52002,0 -63.920013,0c-2.630005,0 -5.089996,1.22998 -6.769989,3.380005c-3.149994,4.029968 -2.269989,9.400024 -1.73999,12.619995l-0.000001,0z" id="bNO4NYQjY"/>
  <path d="m45.040001,204.839996c-0.790001,14.110001 9.219997,26.25 22.360001,27.100006c0.489998,0.029999 0.979996,0.039993 1.470001,0.039993c12.509995,0 23.009995,-10.470001 23.769997,-24.050003c1.550003,-27.539993 11.43,-52.939987 28.590004,-73.459991c17.329994,-20.760002 40.029991,-34.099998 65.639992,-38.599998c13,-2.290001 21.809998,-15.450005 19.680008,-29.400002c-2.130005,-13.950001 -14.380005,-23.420002 -27.380005,-21.130001c-35.929993,6.32 -69.110001,25.829998 -93.439995,54.939999c-24.410004,29.220001 -38.480003,65.380005 -40.690002,104.559998l-0.000001,-0.000001z" id="b13TAlwba"/>
  <path d="m247,154.589996c-2.130005,-13.959991 -14.380005,-23.419998 -27.380005,-21.12999c-24.12999,4.23999 -46.419998,17.349991 -62.75,36.899994c-16.169998,19.339996 -25.869995,44.270004 -27.319992,70.220001c-0.800003,14.110001 9.209991,26.240005 22.360001,27.090012c0.48999,0.039978 0.970001,0.049988 1.459991,0.049988c12.5,0 23.01001,-10.470001 23.779999,-24.059998c0.820007,-14.660004 6.080002,-28.190002 15.220001,-39.12001c9.230011,-11.049988 21.320007,-18.159988 34.960007,-20.549988c12.990005,-2.290009 21.800003,-15.450012 19.669998,-29.400009z" id="aoSC4RGgQ"/>
  <path d="m433.450012,66.470001c-2.130005,13.949997 6.679993,27.110001 19.679993,29.400002c25.600006,4.5 48.309998,17.839996 65.640015,38.599998c17.159973,20.529999 27.039978,45.929993 28.589966,73.459991c0.76001,13.580002 11.26001,24.060013 23.77002,24.060013c0.48999,0 0.97998,-0.020004 1.469971,-0.050003c13.140015,-0.850006 23.150024,-12.990005 22.360046,-27.100006c-2.210022,-39.179993 -16.280029,-75.339996 -40.690002,-104.57c-24.330017,-29.099998 -57.51001,-48.609997 -93.440033,-54.929996c-12.97998,-2.290001 -25.25,7.18 -27.379974,21.130001l-0.000002,0z" id="c39Bz9s55"/>
  <path d="m412.670013,183.990005c13.639984,2.389999 25.72998,9.5 34.959991,20.549988c9.139984,10.930008 14.399994,24.460007 15.220001,39.12001c0.769989,13.589996 11.269989,24.059998 23.779999,24.059998c0.47998,0 0.970001,-0.01001 1.459991,-0.049988c13.140015,-0.850006 23.149994,-12.970016 22.360016,-27.090012c-1.450012,-25.940002 -11.160004,-50.880005 -27.320007,-70.220001c-16.330017,-19.550003 -38.619995,-32.660004 -62.75,-36.899994c-13,-2.290009 -25.25,7.169998 -27.380005,21.12999c-2.130005,13.949997 6.679993,27.110001 19.670013,29.400009l0.000001,0z" id="b2Yga5sQsb"/>
 </defs>
 <g>
  <g id="svg_1">
   <use xlink:href="#bK0p2uvp" fill="#B3C8E0" id="svg_4"/>
   <g id="svg_5">
    <use xlink:href="#bK0p2uvp" fill-opacity="0" stroke="#B3C8E0" stroke-opacity="0" id="svg_6"/>
   </g>
   <g id="svg_15">
    <use xlink:href="#bNO4NYQjY" fill="#B3C8E0" id="svg_16"/>
    <g id="svg_17">
     <use xlink:href="#bNO4NYQjY" fill-opacity="0" stroke="#B3C8E0" stroke-opacity="0" id="svg_18"/>
    </g>
   </g>
   <g id="svg_27">
    <use xlink:href="#b13TAlwba" fill="#B3C8E0" id="svg_28"/>
    <g id="svg_29">
     <use xlink:href="#b13TAlwba" fill-opacity="0" stroke="#B3C8E0" stroke-opacity="0" id="svg_30"/>
    </g>
   </g>
   <g id="svg_39">
    <use xlink:href="#aoSC4RGgQ" fill="#B3C8E0" id="svg_40"/>
    <g id="svg_41">
     <use xlink:href="#aoSC4RGgQ" fill-opacity="0" stroke="#B3C8E0" stroke-opacity="0" id="svg_42"/>
    </g>
   </g>
   <g id="svg_51">
    <use xlink:href="#c39Bz9s55" fill="#B3C8E0" id="svg_52"/>
    <g id="svg_53">
     <use xlink:href="#c39Bz9s55" fill-opacity="0" stroke="#B3C8E0" stroke-opacity="0" id="svg_54"/>
    </g>
   </g>
   <use xlink:href="#b2Yga5sQsb" fill="#B3C8E0" id="svg_64"/>
   <g id="svg_65">
    <use xlink:href="#b2Yga5sQsb" fill-opacity="0" stroke="#B3C8E0" stroke-opacity="0" id="svg_66"/>
   </g>
  </g>
  <text font-weight="bold" xml:space="preserve" text-anchor="start" font-family="'Trebuchet MS', Gadget, sans-serif" font-size="180" id="svg_2" y="344" x="730" fill="#B3C8E0">ALLARMES</text>
 </g>
</svg>