<svg width="1450" height="640" xmlns="http://www.w3.org/2000/svg" xmlns:xlink="http://www.w3.org/1999/xlink" preserveAspectRatio="xMidYMid meet">
 <defs>
  <path d="m438.529999,48.389999l0.309998,0.310001l0.300018,0.309998l0.559998,0.620003l0.25,0.309998l0.25,0.330002l0.22998,0.329998l0.220001,0.34l0.209991,0.350002l0.200012,0.360001l0.190002,0.379997l0.179993,0.400002l0.160004,0.41l0.160004,0.43l0.149994,0.459999l0.130005,0.48l0.130005,0.5l0.119995,0.52l0.110016,0.560001l0.099976,0.579998l0.100006,0.610001l0.089996,0.650002l0.080017,0.68l0.069977,0.709999l0.060028,0.75l0.059998,0.790001l0.059998,0.829998l0.039978,0.880001l0.050018,0.91l0.029999,0.959999l0.029999,1.010002l0.029999,1.059998l0.019989,1.099998l0.02002,1.160004l0.019989,1.209999l0.01001,1.269997l0.009979,1.32l0,1.380005l0.01001,1.439995l0.019989,16.310005l3.51001,1.150002l0.160004,0.049995l0.160004,0.060005l0.179993,0.059998l0.179993,0.07l0.200012,0.07l0.209991,0.080002l0.220001,0.079994l0.230011,0.090004l0.23999,0.089996l0.23999,0.100006l0.26001,0.099998l0.269989,0.099998l0.27002,0.110001l0.279999,0.120003l0.290009,0.109993l0.289978,0.120003l0.309998,0.129997l0.300018,0.120003l0.320007,0.129997l0.309998,0.130005l1.319977,0.559998l0.340027,0.139999l0.349976,0.150002l0.339996,0.150002l1.400024,0.599998l0.349976,0.160004l0.350006,0.149994l0.360016,0.160004l0.350006,0.150002l0.349976,0.159996l0.350006,0.150002l0.350006,0.160004l0.339996,0.159996l0.350006,0.150002l8.299988,3.769997l12.779999,-12.799995l1.040009,-1.029999l0.98999,-0.990005l0.950012,-0.939995l0.919983,-0.890007l0.880005,-0.859993l0.839996,-0.810005l0.810028,-0.769997l0.779999,-0.730003l0.75,-0.699997l0.709991,-0.650002l0.690002,-0.610001l0.669983,-0.580002l0.640015,-0.540001l0.609985,-0.509995l0.589996,-0.470001l0.570007,-0.440002l0.550018,-0.409996l0.529999,-0.370003l0.519989,-0.339996l0.48999,-0.310005l0.490021,-0.279999l0.470001,-0.260002l0.459991,-0.219994l0.449982,-0.200005l0.440002,-0.169998l0.430023,-0.150002l0.419983,-0.120003l0.420013,-0.099998l0.419983,-0.07l0.420013,-0.059998l0.410004,-0.029999l0.410004,-0.010002l0.419983,0.010002l0.420013,0.029999l0.429993,0.040001l0.429993,0.07l0.429993,0.080002l0.450012,0.089996l0.459991,0.110001l0.460022,0.120003l0.22998,0.07l0.240021,0.089996l0.25,0.110001l0.269989,0.129997l0.279999,0.150002l0.299988,0.18l0.320007,0.200005l0.339996,0.229996l0.360016,0.260002l0.389984,0.279999l0.410004,0.32l0.440002,0.349998l0.470001,0.380005l0.48999,0.409996l0.529999,0.459999l0.550018,0.480003l0.589996,0.529999l0.630005,0.57l0.660004,0.599998l0.690002,0.650002l0.73996,0.690002l0.77002,0.739998l0.820007,0.779999l0.859985,0.830002l0.900024,0.879997l0.950012,0.920006l1,0.979996l1.039978,1.029999l1.090027,1.090004l1.149963,1.139999l1.190002,1.189995l1.25,1.25l1.309998,1.320007l1.359985,1.369995l1.420044,1.43l1.47998,1.5l1.539978,1.550003l1.600037,1.629997l1.659973,1.690002l1.730042,1.759995l1.179993,1.200005l1.169983,1.190002l1.159973,1.189995l1.150024,1.169998l1.130005,1.160004l1.119995,1.150002l1.109985,1.139999l1.080017,1.120003l1.080017,1.099998l1.049988,1.089996l1.039978,1.07l1.01001,1.050003l1,1.040001l0.970032,1.009995l0.959961,0.990005l0.919983,0.959999l0.910034,0.949997l0.869995,0.910004l0.849976,0.900002l0.830017,0.859993l0.789978,0.840004l0.77002,0.809998l0.72998,0.769997l0.700012,0.75l0.670044,0.710007l0.639954,0.690002l0.600037,0.639999l0.570007,0.619995l0.529968,0.570007l0.5,0.539993l0.450012,0.5l0.419983,0.460007l0.369995,0.419998l0.340027,0.37999l0.289978,0.340012l0.25,0.289993l0.200012,0.25l0.159973,0.210007l0.119995,0.149994l0.060059,0.110001l0.109985,0.220001l0.099976,0.229996l0.090027,0.240005l0.089966,0.25l0.160034,0.520004l0.070007,0.279999l0.059998,0.269989l0.059998,0.290009l0.099976,0.580002l0.039978,0.300003l0.030029,0.309998l0.029968,0.299988l0.02002,0.320007l0.02002,0.309998l0.01001,0.320007l0.01001,0.309998l0,0.319992l-0.02002,0.639999l-0.040039,0.639999l-0.059998,0.639999l-0.039978,0.310013l-0.150024,0.929993l-0.069946,0.300003l-0.059998,0.300003l-0.080017,0.289993l-0.160034,0.559998l-0.089966,0.279999l-0.090027,0.26001l-0.109985,0.259995l-0.099976,0.25l-0.110046,0.25l-0.119995,0.229996l-0.070007,0.12001l-0.079956,0.12999l-0.100037,0.150009l-0.130005,0.179993l-0.139954,0.190002l-0.160034,0.199997l-0.169983,0.230011l-0.200012,0.23999l-0.210022,0.25l-0.219971,0.270004l-0.23999,0.289993l-0.26001,0.300003l-0.27002,0.320007l-0.289978,0.319992l-0.299988,0.350006l-0.309998,0.349991l-0.330017,0.360001l-0.330017,0.380005l-0.359985,0.389999l-0.359985,0.400009l-0.369995,0.409988l-0.380005,0.410004l-0.400024,0.430008l-0.399963,0.439987l-0.420044,0.440002l-0.419983,0.449997l-0.429993,0.460007l-0.440002,0.460007l-0.450012,0.469986l-0.450012,0.480011l-0.459961,0.479996l-0.940002,0.979996l-0.480042,0.490005l-0.47998,0.5l-0.97998,1l-0.5,0.509995l-0.5,0.5l-0.5,0.51001l-12.179993,12.269989l1.889954,3.770004l0.090027,0.160004l0.080017,0.179993l0.089966,0.180008l0.090027,0.199997l0.200012,0.419998l0.099976,0.229996l0.109985,0.240005l0.110046,0.25l0.119995,0.25l0.109985,0.270004l0.119995,0.269989l0.130005,0.280014l0.119995,0.279999l0.26001,0.599991l0.26001,0.62001l0.139954,0.319992l0.130005,0.320007l0.420044,0.98999l0.129944,0.339996l0.150024,0.340012l0.140015,0.349991l0.140015,0.340012l1.119995,2.799988l0.130005,0.350006l0.139954,0.350006l0.390015,1.019989l3.119995,8.180008l18.580017,0.479996l1.429993,0.029999l1.349976,0.040009l1.300049,0.039993l1.219971,0.029999l1.169983,0.040009l1.110046,0.039993l1.059998,0.039993l0.98999,0.040009l0.950012,0.039993l0.889954,0.050003l0.850037,0.050003l0.799988,0.050003l0.76001,0.059998l0.709961,0.059998l0.670044,0.070007l0.630005,0.069992l0.599976,0.080002l0.559998,0.089996l0.530029,0.089996l0.5,0.100006l0.469971,0.100006l0.440002,0.119995l0.419983,0.119995l0.390015,0.130005l0.380005,0.139999l0.349976,0.149994l0.340027,0.160004l0.330017,0.169998l0.309998,0.180008l0.299988,0.190002l0.580017,0.419998l0.279968,0.229996l0.280029,0.240005l0.279968,0.259995l0.280029,0.270004l0.279968,0.279999l0.290039,0.300003l0.299988,0.309998l0.299988,0.330002l2.340027,2.539993l0.25,42.899994l0.019958,3.020004l0.01001,2.880005l0.02002,2.730011l0.01001,2.599976l0.009949,2.470001l0.01001,2.330017l0.01001,2.209991l0.01001,2.089996l0,5.589996l-0.01001,1.640015l0,1.540009l-0.01001,1.439972l-0.01001,1.350006l-0.019958,1.26001l-0.02002,1.169983l-0.02002,1.080017l-0.029968,1.01001l-0.02002,0.929993l-0.039978,0.859985l-0.030029,0.800018l-0.049988,0.720001l-0.039978,0.669983l-0.049988,0.610016l-0.050049,0.559998l-0.059998,0.509979l-0.070007,0.460022l-0.059998,0.419983l-0.079956,0.390015l-0.070007,0.350006l-0.090027,0.319977l-0.089966,0.290009l-0.090027,0.269989l-0.099976,0.26001l-0.100037,0.23999l-0.109985,0.220001l-0.119995,0.220001l-0.130005,0.220001l-0.119995,0.220001l-0.279968,0.440002l-0.26001,0.420013l-0.26001,0.399994l-0.26001,0.380005l-0.25,0.369995l-0.26001,0.339996l-0.26001,0.330017l-0.269958,0.309998l-0.280029,0.289978l-0.279968,0.27002l-0.300049,0.259979l-0.309998,0.25l-0.320007,0.230011l-0.349976,0.209991l-0.359985,0.210022l-0.380005,0.179993l-0.410034,0.179993l-0.439941,0.170013l-0.460022,0.149994l-0.48999,0.139984l-0.52002,0.130005l-0.559998,0.130005l-0.590027,0.110016l-0.629944,0.099976l-0.670044,0.100006l-0.709961,0.089996l-0.75,0.080017l-0.800049,0.079987l-0.849976,0.070007l-0.900024,0.059998l-0.940002,0.059998l-1.009949,0.049988l-1.050049,0.050018l-1.119995,0.049988l-1.169983,0.050018l-1.23999,0.039978l-1.299988,0.040009l-1.369995,0.040009l-1.430054,0.040009l-1.5,0.039978l-18.589966,0.470001l-3.640015,9.160004l-0.450012,1.140015l-0.149963,0.369995l-0.160034,0.380005l-0.299988,0.759979l-0.159973,0.380005l-0.600037,1.480011l-0.450012,1.079987l-0.149963,0.350006l-0.419983,1.019989l-0.140015,0.320007l-0.140015,0.330017l-0.26001,0.619995l-0.130005,0.299988l-0.130005,0.290009l-0.23999,0.559998l-0.109985,0.26001l-0.119995,0.25l-0.099976,0.25l-0.110046,0.22998l-0.099976,0.230011l-0.100037,0.209991l-0.089966,0.200012l-0.080017,0.190002l-0.089966,0.169983l-0.070007,0.170013l-0.080017,0.149994l-0.119995,0.26001l-1.429993,2.789978l12.190002,12.27002l0.5,0.509979l0.5,0.5l0.5,0.51001l0.97998,1l0.47998,0.5l0.480042,0.48999l0.940002,0.980011l0.459961,0.480011l0.450012,0.47998l0.450012,0.470001l0.440002,0.460022l0.429993,0.459991l0.840027,0.899994l0.399963,0.429993l0.390015,0.430023l0.390015,0.419983l0.369995,0.410004l0.359985,0.390015l0.349976,0.389984l0.340027,0.380005l0.330017,0.359985l0.309998,0.360016l0.299988,0.339996l0.289978,0.329987l0.27002,0.309998l0.26001,0.300018l0.23999,0.290009l0.219971,0.269989l0.210022,0.26001l0.200012,0.23999l0.169983,0.220001l0.160034,0.209991l0.139954,0.190002l0.130005,0.170013l0.100037,0.149994l0.079956,0.139984l0.070007,0.110016l0.119995,0.23999l0.110046,0.240021l0.099976,0.25l0.109985,0.259979l0.179993,0.540009l0.080017,0.279999l0.160034,0.579987l0.059998,0.290009l0.069946,0.309998l0.050049,0.300018l0.099976,0.619995l0.039978,0.320007l0.030029,0.309998l0.029968,0.319977l0.040039,0.640015l0.02002,0.639984l0,0.320007l-0.01001,0.320007l-0.01001,0.309998l-0.02002,0.320007l-0.02002,0.309998l-0.029968,0.309998l-0.030029,0.299988l-0.039978,0.300018l-0.049988,0.299988l-0.049988,0.290009l-0.119995,0.559998l-0.070007,0.269989l-0.160034,0.52002l-0.089966,0.25l-0.090027,0.23999l-0.099976,0.230011l-0.109985,0.220001l-0.200012,0.319977l-0.400024,0.51001l-0.580017,0.679993l-0.75,0.850006l-0.899963,1l-1.059998,1.160004l-1.200012,1.290009l-1.330017,1.419983l-1.450012,1.529999l-1.559998,1.649994l-1.659973,1.730011l-1.75,1.830017l-1.840027,1.909973l-1.899963,1.970001l-1.970032,2.029999l-2.019958,2.070007l-2.059998,2.119995l-2.090027,2.140015l-2.119995,2.160004l-2.130005,2.169983l-2.130005,2.160004l-2.130005,2.149994l-2.109985,2.130005l-2.080017,2.100006l-4.049988,4.049988l-1.940002,1.940002l-1.880005,1.869995l-1.799988,1.790009l-1.720032,1.690002l-1.619995,1.589996l-1.519958,1.480011l-1.400024,1.359985l-1.279999,1.220001l-1.139984,1.080017l-1,0.929993l-0.839996,0.769989l-0.690002,0.600006l-0.5,0.410004l-0.330017,0.220001l-0.100006,0.059998l-0.119995,0.049988l-0.119995,0.060028l-0.119995,0.049988l-0.140015,0.059998l-0.129974,0.049988l-0.140015,0.050018l-0.299988,0.100006l-0.480011,0.149994l-0.170013,0.040009l-0.169983,0.049988l-0.179993,0.040009l-0.180023,0.049988l-0.359985,0.080017l-0.190002,0.039978l-0.179993,0.040009l-0.190002,0.029999l-0.200012,0.040009l-0.380005,0.059998l-0.399994,0.059998l-0.190002,0.029999l-0.199982,0.019989l-0.200012,0.029999l-0.190002,0.02002l-0.399994,0.039978l-0.190002,0.01001l-0.200012,0.019989l-0.569977,0.029999l-0.380005,0l-0.179993,0.01001l-4.430023,0l-13.22998,-13.299988l-2.149994,-2.149994l-0.530029,-0.52002l-0.519989,-0.519989l-0.519989,-0.51001l-0.5,-0.48999l-0.5,-0.5l-0.5,-0.480011l-0.480011,-0.470001l-0.480011,-0.459991l-0.469971,-0.450012l-0.460022,-0.440002l-0.449982,-0.439972l-0.440002,-0.410004l-0.430023,-0.410004l-0.409973,-0.399994l-0.410004,-0.380005l-0.390015,-0.369995l-0.380005,-0.350006l-0.369995,-0.339996l-0.350006,-0.330017l-0.339996,-0.309998l-0.329987,-0.290009l-0.309998,-0.279999l-0.290009,-0.269989l-0.279999,-0.23999l-0.269989,-0.230011l-0.240021,-0.209991l-0.22998,-0.200012l-0.210022,-0.169983l-0.199982,-0.160004l-0.170013,-0.130005l-0.149994,-0.119995l-0.139984,-0.100006l-0.120026,-0.070007l-0.089996,-0.059998l-0.070007,-0.029999l-0.059998,-0.01001l-0.039978,0l-0.059998,0.01001l-0.070007,0.01001l-0.070007,0.019989l-0.089996,0.019989l-0.089996,0.029999l-0.220001,0.060028l-0.119995,0.039978l-0.130005,0.040009l-0.140015,0.049988l-0.149994,0.050018l-0.149994,0.059998l-0.160004,0.059998l-0.169983,0.059998l-0.180023,0.059998l-0.179993,0.070007l-0.190002,0.079987l-0.190002,0.070007l-0.199982,0.080017l-0.210022,0.089996l-0.209991,0.079987l-0.209991,0.089996l-0.220001,0.089996l-0.230011,0.089996l-0.459991,0.200012l-0.480011,0.200012l-1,0.440002l-0.259979,0.109985l-0.26001,0.119995l-0.26001,0.110016l-0.519989,0.23999l-0.27002,0.119995l-0.259979,0.130005l-0.27002,0.119995l-0.279999,0.119995l-0.559998,0.26001l-0.869995,0.390015l-1.199982,0.519989l-0.620026,0.26001l-0.299988,0.139984l-0.619995,0.26001l-0.300018,0.130005l-0.309998,0.119995l-0.309998,0.130005l-0.299988,0.129974l-0.899994,0.360016l-0.869995,0.359985l-0.840027,0.330017l-0.269989,0.100006l-0.519989,0.199982l-0.25,0.100006l-0.480011,0.179993l-0.230011,0.089996l-0.22998,0.080017l-0.210022,0.070007l-0.209991,0.079987l-0.190002,0.070007l-4.690002,1.619995l-0.470001,18.950012l-0.039978,1.539978l-0.040009,1.460022l-0.040009,1.389984l-0.039978,1.320007l-0.040009,1.269989l-0.040009,1.190002l-0.049988,1.140015l-0.050018,1.079987l-0.049988,1.019989l-0.059998,0.970001l-0.059998,0.910004l-0.070007,0.860016l-0.079987,0.820007l-0.080017,0.769989l-0.079987,0.720001l-0.100006,0.679993l-0.100006,0.640015l-0.109985,0.609985l-0.120026,0.559998l-0.139984,0.529999l-0.140015,0.5l-0.149994,0.470001l-0.160004,0.440002l-0.169983,0.420013l-0.190002,0.389984l-0.200012,0.369995l-0.209991,0.339996l-0.230011,0.330017l-0.23999,0.320007l-0.26001,0.299988l-0.269989,0.290009l-0.290009,0.269989l-0.299988,0.269989l-0.320007,0.27002l-0.339996,0.26001l-0.360016,0.259979l-0.379974,0.26001l-0.390015,0.26001l-0.419983,0.259979l-0.440002,0.279999l-0.210022,0.119995l-0.209991,0.130005l-0.220001,0.110016l-0.230011,0.109985l-0.23999,0.110016l-0.25,0.100006l-0.269989,0.089996l-0.300018,0.089996l-0.319977,0.089996l-0.350006,0.079987l-0.380005,0.070007l-0.429993,0.070007l-0.460022,0.070007l-0.5,0.059998l-0.559998,0.049988l-0.599976,0.059998l-0.660004,0.050018l-0.720001,0.039978l-0.779999,0.040009l-0.839996,0.040009l-0.910004,0.039978l-0.990021,0.029999l-1.059998,0.030029l-1.149994,0.019989l-1.220001,0.019989l-1.309998,0.029999l-1.410004,0.01001l-1.5,0.019989l-1.589996,0.01001l-1.700012,0.01001l-1.799988,0.009979l-1.910004,0.01001l-2.019989,0.01001l-2.140015,0l-2.259979,0.009979l-4.880005,0l-2.640015,0.01001l-11.419983,0l-2.660004,-0.01001l-7.209991,0l-2.150024,-0.009979l-2.039978,-0.01001l-1.920013,0l-1.809998,-0.01001l-1.700012,-0.019989l-1.599976,-0.01001l-1.5,-0.009979l-1.400024,-0.02002l-1.309998,-0.019989l-1.220001,-0.029999l-1.139984,-0.019989l-1.059998,-0.030029l-0.980011,-0.029999l-0.899994,-0.039978l-0.839996,-0.040009l-0.77002,-0.040009l-0.709991,-0.049988l-0.649994,-0.050018l-0.589996,-0.049988l-0.550018,-0.059998l-0.5,-0.059998l-0.449982,-0.070007l-0.410004,-0.070007l-0.380005,-0.079987l-0.339996,-0.079987l-0.320007,-0.090027l-0.290009,-0.099976l-0.269989,-0.090027l-0.26001,-0.109985l-0.459991,-0.220001l-0.22998,-0.130005l-0.440002,-0.259979l-0.380005,-0.240021l-0.360016,-0.23999l-0.339996,-0.23999l-0.329987,-0.25l-0.309998,-0.25l-0.300018,-0.26001l-0.289978,-0.269989l-0.27002,-0.280029l-0.25,-0.289978l-0.23999,-0.309998l-0.230011,-0.320007l-0.220001,-0.339996l-0.199982,-0.360016l-0.190002,-0.380005l-0.180023,-0.399994l-0.169983,-0.419983l-0.160004,-0.450012l-0.139984,-0.480011l-0.140015,-0.509979l-0.130005,-0.529999l-0.109985,-0.570007l-0.110016,-0.600006l-0.100006,-0.639984l-0.089996,-0.670013l-0.079987,-0.720001l-0.070007,-0.75l-0.070007,-0.790009l-0.059998,-0.839996l-0.049988,-0.880005l-0.050018,-0.929993l-0.039978,-0.97998l-0.029999,-1.029999l-0.029999,-1.070007l-0.02002,-1.140015l-0.019989,-1.179993l-0.019989,-1.23999l-0.01001,-1.300018l-0.01001,-1.359985l0,-20.850006l-4.449982,-1.679993l-0.190002,-0.070007l-0.200012,-0.079987l-0.440002,-0.160004l-0.22998,-0.089996l-0.240021,-0.100006l-0.25,-0.100006l-0.519989,-0.200012l-0.279999,-0.109985l-0.279999,-0.119995l-0.290009,-0.110016l-0.600006,-0.23999l-0.619995,-0.26001l-0.320007,-0.119995l-0.319977,-0.139984l-0.330017,-0.130005l-0.329987,-0.140015l-0.339996,-0.130005l-0.330017,-0.139984l-0.350006,-0.140015l-0.339996,-0.139984l-0.339996,-0.149994l-0.350006,-0.140015l-0.350006,-0.149994l-0.349976,-0.140015l-0.339996,-0.149994l-0.350006,-0.139984l-0.350006,-0.150024l-0.350006,-0.139984l-0.339996,-0.149994l-0.339996,-0.140015l-0.350006,-0.149994l-0.329987,-0.139984l-0.339996,-0.140015l-0.330017,-0.140015l-0.329987,-0.149994l-0.320007,-0.130005l-7.809998,-3.349976l-12.339996,12.389984l-0.51001,0.51001l-0.51001,0.5l-0.5,0.51001l-0.509979,0.5l-0.490021,0.48999l-0.5,0.48999l-0.97998,0.959991l-0.480011,0.470001l-0.480011,0.460022l-0.470001,0.459991l-0.459991,0.450012l-0.459991,0.439972l-0.450012,0.430023l-0.880005,0.839996l-0.839996,0.799988l-0.399994,0.380005l-0.399994,0.369995l-0.390015,0.360016l-0.369995,0.350006l-0.359985,0.329987l-0.360016,0.320007l-0.329987,0.309998l-0.330017,0.299988l-0.309998,0.279999l-0.299988,0.26001l-0.279999,0.25l-0.269989,0.23999l-0.26001,0.220001l-0.230011,0.200012l-0.22998,0.179993l-0.200012,0.170013l-0.190002,0.149994l-0.169983,0.130005l-0.150024,0.109985l-0.130005,0.100006l-0.119995,0.070007l-0.179993,0.099976l-0.089996,0.040009l-0.100006,0.040009l-0.220001,0.079987l-0.119995,0.050018l-0.26001,0.079987l-0.129974,0.029999l-0.280029,0.080017l-0.149994,0.039978l-0.149994,0.029999l-0.160004,0.040009l-0.160004,0.029999l-0.169983,0.029999l-0.160004,0.040009l-0.170013,0.029999l-0.179993,0.029999l-0.169983,0.029999l-0.180023,0.019989l-0.179993,0.029999l-0.190002,0.030029l-0.179993,0.019989l-0.190002,0.029999l-0.179993,0.019989l-0.380005,0.040009l-0.200012,0.019989l-0.190002,0.01001l-0.190002,0.019989l-0.379974,0.02002l-0.190002,0.019989l-0.200012,0l-0.380005,0.019989l-0.369995,0l-0.190002,0.01001l-4.47998,0l-29.780014,-30.139984l-1.539993,-1.559998l-1.490005,-1.51001l-1.449997,-1.470001l-1.410004,-1.440002l-1.369995,-1.390015l-1.320007,-1.359985l-1.289993,-1.309998l-1.240005,-1.279999l-1.199997,-1.230011l-1.160004,-1.199982l-1.130005,-1.170013l-1.080002,-1.119995l-1.039993,-1.080017l-1,-1.049988l-0.970001,-1.019989l-0.919998,-0.970001l-0.889999,-0.940002l-0.839996,-0.899994l-0.809998,-0.870026l-0.780014,-0.829987l-0.729996,-0.799988l-0.699997,-0.76001l-0.660004,-0.730011l-0.619995,-0.690002l-0.589996,-0.659973l-0.550003,-0.620026l-0.509995,-0.589996l-0.480011,-0.559998l-0.440002,-0.519989l-0.409988,-0.5l-0.380005,-0.459991l-0.330002,-0.420013l-0.309998,-0.399994l-0.270004,-0.360016l-0.229996,-0.339996l-0.210007,-0.299988l-0.159988,-0.27002l-0.139999,-0.23999l-0.100006,-0.209991l-0.070007,-0.179993l-0.159988,-0.490021l-0.139999,-0.470001l-0.12001,-0.459991l-0.110001,-0.450012l-0.099991,-0.440002l-0.070007,-0.429993l-0.059998,-0.429993l-0.039993,-0.420013l-0.01001,-0.409973l0,-0.420013l0.029999,-0.410004l0.040009,-0.419983l0.069992,-0.410004l0.100006,-0.430023l0.119995,-0.419983l0.150009,-0.440002l0.169998,-0.440002l0.199997,-0.459991l0.229996,-0.460022l0.26001,-0.47998l0.289993,-0.5l0.330002,-0.51001l0.350006,-0.519989l0.389999,-0.550018l0.419998,-0.569977l0.449997,-0.589996l0.490005,-0.610016l0.529999,-0.639984l0.569992,-0.670013l0.600006,-0.700012l0.639999,-0.720001l0.679993,-0.759979l0.730011,-0.790009l0.759995,-0.820007l0.809998,-0.859985l0.850006,-0.899994l0.889999,-0.940002l0.940002,-0.980011l0.98999,-1.019989l1.029999,-1.059998l13.059998,-13.440002l-3.139999,-7.040009l-0.12999,-0.290009l-0.130005,-0.299988l-0.139999,-0.300018l-0.130005,-0.309998l-0.139999,-0.309998l-0.12999,-0.320007l-0.420013,-0.959991l-0.139999,-0.329987l-0.12999,-0.330017l-0.699997,-1.649994l-0.130005,-0.329987l-0.139999,-0.330017l-0.26001,-0.660004l-0.139999,-0.319977l-0.12999,-0.320007l-0.12001,-0.320007l-0.12999,-0.309998l-0.12001,-0.320007l-0.12999,-0.299988l-0.12001,-0.309998l-0.110001,-0.290009l-0.119995,-0.299988l-0.110001,-0.279999l-0.099991,-0.279999l-0.110001,-0.279999l-0.200012,-0.52002l-0.089996,-0.26001l-0.179993,-0.47998l-0.160004,-0.440002l-0.070007,-0.209991l-1.729996,-4.920013l-18.809998,-0.299988l-1.5,-0.029999l-1.430008,-0.02002l-1.369995,-0.029999l-1.289993,-0.029999l-1.240005,-0.029999l-1.169998,-0.029999l-1.110001,-0.029999l-1.050003,-0.040009l-1,-0.049988l-0.940002,-0.040009l-0.889999,-0.049988l-0.849991,-0.059998l-0.790009,-0.070007l-0.75,-0.059998l-0.709991,-0.080017l-0.660004,-0.089996l-0.630005,-0.089996l-0.580002,-0.100006l-0.559998,-0.109985l-0.509995,-0.119995l-0.490005,-0.130005l-0.459991,-0.140015l-0.430008,-0.149994l-0.410004,-0.160004l-0.37999,-0.169983l-0.360001,-0.190002l-0.339996,-0.200012l-0.330002,-0.209991l-0.309998,-0.230011l-0.300003,-0.23999l-0.279999,-0.26001l-0.279999,-0.269989l-0.270004,-0.290009l-0.270004,-0.309998l-0.259995,-0.320007l-0.26001,-0.339996l-0.269989,-0.349976l-0.270004,-0.380005l-0.270004,-0.400024l-0.279999,-0.409973l-0.110001,-0.180023l-0.119995,-0.190002l-0.100006,-0.189972l-0.099991,-0.210022l-0.100006,-0.22998l-0.089996,-0.240021l-0.080002,-0.269989l-0.080002,-0.299988l-0.080002,-0.320007l-0.069992,-0.360016l-0.070007,-0.389984l-0.069992,-0.440002l-0.060013,-0.480011l-0.049988,-0.519989l-0.059998,-0.580017l-0.040009,-0.629974l-0.050003,-0.680023l-0.039993,-0.75l-0.040009,-0.809998l-0.039993,-0.880005l-0.029999,-0.940002l-0.029999,-1.029999l-0.029999,-1.089996l-0.020004,-1.179993l-0.020004,-1.269989l-0.019989,-1.350006l-0.020004,-1.440002l-0.020004,-1.529999l-0.009995,-1.630005l-0.01001,-1.73999l-0.009995,-1.830017l-0.009995,-1.949982l-0.01001,-2.050018l0,-2.169983l-0.009995,-2.290009l0,-27.209991l0.009995,-2.360001l0,-2.230011l0.01001,-2.099991l0,-1.990005l0.009995,-1.869995l0.009995,-1.75l0.020004,-1.650009l0.009995,-1.539993l0.020004,-1.430008l0.020004,-1.339996l0.020004,-1.25l0.029999,-1.160004l0.029999,-1.069992l0.029999,-0.990005l0.039993,-0.909988l0.040009,-0.840012l0.039993,-0.769989l0.040009,-0.700012l0.059998,-0.649994l0.050003,-0.580002l0.059998,-0.529999l0.059998,-0.479996l0.069992,-0.430008l0.150009,-0.75l0.089996,-0.319992l0.089996,-0.290009l0.090012,-0.269989l0.099991,-0.240005l0.220001,-0.440002l0.119995,-0.199997l0.26001,-0.380005l0.139999,-0.199997l0.289993,-0.389999l0.290009,-0.380005l0.279999,-0.360001l0.289993,-0.349991l0.290009,-0.320007l0.289993,-0.309998l0.300003,-0.300003l0.309998,-0.279999l0.309998,-0.270004l0.330002,-0.25l0.339996,-0.23999l0.350006,-0.220001l0.369995,-0.210007l0.380005,-0.199997l0.410004,-0.190002l0.419998,-0.169998l0.449997,-0.160004l0.470001,-0.149994l0.5,-0.139999l0.529999,-0.130005l0.550003,-0.119995l0.589996,-0.110001l0.619995,-0.100006l0.660004,-0.089996l0.690002,-0.080002l0.729996,-0.080002l0.770004,-0.059998l0.809998,-0.059998l0.850006,-0.059998l0.899994,-0.039993l0.940002,-0.040009l0.990005,-0.029999l1.049988,-0.029999l1.090012,-0.029999l1.149994,-0.01001l1.199997,-0.019989l1.26001,-0.01001l1.319992,-0.009995l20.639999,0l1.729996,-4.990005l0.070007,-0.209991l0.080002,-0.220001l0.089996,-0.229996l0.080002,-0.240005l0.100006,-0.25l0.089996,-0.259995l0.099991,-0.270004l0.110001,-0.270004l0.100006,-0.279999l0.110001,-0.289993l0.240005,-0.600006l0.23999,-0.619995l0.389999,-0.960007l0.130005,-0.330002l0.130005,-0.339996l0.139999,-0.330002l0.279999,-0.679993l0.139999,-0.350006l0.139999,-0.339996l0.149994,-0.339996l0.139999,-0.350006l0.150009,-0.339996l0.139999,-0.350006l0.149994,-0.339996l0.139999,-0.350006l0.150009,-0.339996l0.139999,-0.339996l0.149994,-0.330002l0.149994,-0.339996l0.279999,-0.660004l0.139999,-0.320007l0.150009,-0.319992l0.139999,-0.309998l0.130005,-0.309998l3.339996,-7.430008l-12.710007,-13l-0.529999,-0.529999l-0.520004,-0.539993l-0.509995,-0.529999l-0.509995,-0.520004l-0.51001,-0.529999l-0.5,-0.520004l-0.48999,-0.520004l-0.980011,-1.019989l-0.469986,-0.5l-0.470001,-0.490005l-0.460007,-0.490005l-0.449997,-0.479996l-0.440002,-0.470001l-0.429993,-0.470001l-0.430008,-0.449997l-0.410004,-0.449997l-0.799988,-0.860001l-0.37001,-0.419998l-0.369995,-0.400009l-0.360001,-0.389999l-0.339996,-0.37999l-0.330002,-0.37001l-0.309998,-0.349991l-0.300003,-0.340012l-0.290009,-0.329987l-0.269989,-0.310013l-0.26001,-0.299988l-0.23999,-0.279999l-0.220001,-0.26001l-0.199997,-0.25l-0.190002,-0.229996l-0.169998,-0.210007l-0.150009,-0.199997l-0.139999,-0.169998l-0.110001,-0.160004l-0.089996,-0.139999l-0.080002,-0.110001l-0.179993,-0.360001l-0.220001,-0.519989l-0.100006,-0.270004l-0.089996,-0.26001l-0.089996,-0.269989l-0.070007,-0.270004l-0.119995,-0.539993l-0.050003,-0.279999l-0.039993,-0.270004l-0.030014,-0.279999l-0.039993,-0.559998l0,-0.570007l0.009995,-0.279999l0.020004,-0.289993l0.029999,-0.290009l0.080002,-0.580002l0.119995,-0.599991l0.070007,-0.300003l0.080002,-0.300003l0.089996,-0.300003l0.100006,-0.309998l0.099991,-0.300003l0.240005,-0.619995l0.130005,-0.320007l0.139999,-0.309998l0.149994,-0.319992l0.319992,-0.639999l0.180008,-0.320007l0.179993,-0.330002l0.190002,-0.330002l0.199997,-0.329987l0.210007,-0.330002l0.410004,-0.580002l0.569992,-0.740005l0.730011,-0.889999l0.87999,-1.029999l1.020004,-1.149994l1.149994,-1.279999l1.279999,-1.400009l1.380005,-1.489998l1.5,-1.599998l1.580002,-1.68l1.680008,-1.760002l1.75,-1.82l1.829987,-1.889999l1.880005,-1.940002l1.940002,-1.979996l1.979996,-2.020004l2.020004,-2.049995l2.039993,-2.060005l2.060013,-2.07l4.139999,-4.119995l2.059998,-2.050003l2.039993,-2.010002l2.019989,-1.979996l1.980011,-1.93l1.929993,-1.889999l1.890015,-1.82l1.820007,-1.75l1.75,-1.670006l1.669983,-1.579994l1.589996,-1.490005l1.490021,-1.379997l1.379974,-1.269997l1.27002,-1.139999l1.139984,-1.010002l1.02002,-0.870003l0.869995,-0.729996l0.72998,-0.560005l0.570007,-0.399994l0.399994,-0.230003l0.5,-0.199997l0.490021,-0.200005l0.47998,-0.169998l0.460022,-0.160004l0.449982,-0.139999l0.450012,-0.119995l0.429993,-0.100006l0.429993,-0.079994l0.420013,-0.050003l0.419983,-0.029999l0.420013,-0.010002l0.420013,0.020004l0.419983,0.040001l0.429993,0.07l0.430023,0.099998l0.429993,0.129997l0.449982,0.150002l0.450012,0.190002l0.470001,0.219994l0.480011,0.25l0.48999,0.280006l0.51001,0.32l0.529999,0.360001l0.549988,0.379997l0.570007,0.43l0.589996,0.459999l0.619995,0.5l0.640015,0.540001l0.669983,0.589996l0.700012,0.620003l0.73999,0.660004l0.76001,0.709999l0.799988,0.75l0.830017,0.799995l0.869995,0.840004l0.919983,0.889999l0.950012,0.93l0.98999,0.989998l1.040009,1.029999l1.079987,1.080002l13.290009,13.309998l8.740021,-3.829994l0.719971,-0.32l0.370026,-0.160004l0.359985,-0.150002l1.110016,-0.479996l0.369995,-0.150002l0.369995,-0.160004l0.359985,-0.159996l0.370026,-0.150002l0.359985,-0.150002l0.369995,-0.150002l0.360016,-0.149994l0.349976,-0.150002l0.360016,-0.150002l0.339996,-0.139999l0.350006,-0.139999l0.679993,-0.279999l0.330017,-0.130005l0.639984,-0.259995l0.619995,-0.240005l0.290009,-0.119995l0.290009,-0.110001l0.279999,-0.110001l0.279999,-0.099998l0.259979,-0.110001l0.5,-0.18l0.230011,-0.090004l0.230011,-0.079994l0.209991,-0.080002l0.200012,-0.07l0.190002,-0.07l0.179993,-0.060005l0.160004,-0.059998l0.149994,-0.050003l3.519989,-1.119995l0,-21.110001l0.01001,-1.129997l0,-2.110001l0.01001,-0.980003l0.009979,-0.940002l0,-0.889999l0.01001,-0.849998l0.019989,-0.799999l0.01001,-0.759998l0.019989,-0.730003l0.01001,-0.68l0.019989,-0.649998l0.029999,-0.619999l0.02002,-0.580002l0.029999,-0.549999l0.029999,-0.52l0.029999,-0.490002l0.040009,-0.459999l0.039978,-0.43l0.040009,-0.41l0.049988,-0.389999l0.050018,-0.360001l0.049988,-0.34l0.059998,-0.32l0.059998,-0.309998l0.059998,-0.290001l0.140015,-0.540001l0.160004,-0.48l0.089996,-0.23l0.179993,-0.440002l0.100006,-0.209999l0.110016,-0.200001l0.109985,-0.209999l0.109985,-0.200001l0.120026,-0.209999l0.269989,-0.439999l0.25,-0.420002l0.25,-0.399998l0.25,-0.380001l0.25,-0.349998l0.26001,-0.34l0.269989,-0.32l0.290009,-0.290001l0.320007,-0.280003l0.339996,-0.269997l0.369995,-0.240002l0.410004,-0.23l0.449982,-0.209999l0.5,-0.200001l0.550018,-0.18l0.609985,-0.170002l0.670013,-0.149998l0.72998,-0.139999l0.809998,-0.130001l0.880005,-0.119999l0.960022,-0.100002l1.039978,-0.099998l1.140015,-0.080002l1.22998,-0.079998l1.340027,-0.060001l1.429993,-0.059998l1.549988,-0.050003l1.660004,-0.039997l1.779999,-0.040001l1.899994,-0.029999l2.040009,-0.02l2.160004,-0.02l2.309998,-0.010002l2.440002,-0.009998l2.600006,-0.010002l2.75,-0.009998l54.850006,0l3.319977,3.09l0.320007,0.299999l-0.000015,-0.000018zm-46.049988,110.720001l-1,0.009995l-1.01001,0.020004l-1.029999,0.029999l-1.049988,0.040009l-1.070007,0.039993l-1.059998,0.050003l-1.040009,0.050003l-1.019989,0.059998l-1,0.069992l-0.980011,0.070007l-0.950012,0.080002l-0.949982,0.089996l-0.920013,0.089996l-0.910004,0.110001l-0.889984,0.110001l-0.880005,0.110001l-0.869995,0.130005l-1.700012,0.279999l-0.839996,0.149994l-0.829987,0.169998l-0.820007,0.169998l-0.820007,0.180008l-0.809998,0.199997l-0.820007,0.199997l-0.799988,0.220001l-0.809998,0.230011l-0.809998,0.23999l-0.809998,0.25l-0.809998,0.26001l-0.810028,0.279999l-0.829987,0.289993l-0.820007,0.300003l-0.829987,0.319992l-0.839996,0.330002l-0.860016,0.339996l-0.859985,0.360001l-0.869995,0.380005l-0.880005,0.389999l-0.899994,0.400009l-0.920013,0.419998l-0.929993,0.440002l-0.940002,0.449997l-0.970001,0.459991l-0.98999,0.490005l-1.860016,0.949997l-1.839996,1l-1.809998,1.029999l-1.779999,1.070007l-1.76001,1.110001l-1.720001,1.149994l-1.690002,1.180008l-1.669983,1.219986l-1.630005,1.26001l-1.600006,1.300003l-1.570007,1.330002l-1.529999,1.359985l-1.509979,1.400009l-1.470001,1.429993l-1.440002,1.470001l-1.399994,1.5l-1.370026,1.529999l-1.339996,1.560013l-1.299988,1.589996l-1.26001,1.619995l-1.22998,1.660004l-1.190002,1.679993l-1.160004,1.710007l-1.119995,1.740005l-1.080017,1.769989l-1.049988,1.800003l-1.01001,1.820007l-0.970001,1.849991l-0.919983,1.869995l-0.900024,1.900009l-0.849976,1.929993l-0.810028,1.950012l-0.769989,1.969986l-0.730011,2l-0.679993,2.01001l-0.649994,2.039993l-0.600006,2.070007l-0.570007,2.080002l-0.509979,2.099991l-0.480011,2.130005l-0.169983,0.819992l-0.150024,0.840012l-0.149994,0.869995l-0.130005,0.880005l-0.130005,0.919998l-0.109985,0.929993l-0.109985,0.940002l-0.100006,0.970001l-0.080017,0.979996l-0.079987,1l-0.070007,1.01001l-0.049988,1.019989l-0.050018,1.040009l-0.039978,1.039993l-0.029999,1.050003l-0.02002,1.059998l0,2.130005l0.01001,1.080002l0.019989,1.069992l0.029999,1.070007l0.040009,1.080002l0.040009,1.069992l0.059998,1.069992l0.070007,1.059998l0.079987,1.060028l0.079987,1.049988l0.100006,1.040009l0.100006,1.029999l0.109985,1.029999l0.130005,1.009979l0.130005,0.990021l0.140015,0.97998l0.149994,0.970001l0.160004,0.940002l0.169983,0.930023l0.170013,0.909973l0.190002,0.890015l0.199982,0.859985l0.200012,0.840027l0.690002,2.599976l0.76001,2.559998l0.819977,2.529999l0.880005,2.490021l0.950012,2.449982l1.009979,2.410004l1.070007,2.380005l1.130005,2.330017l1.179993,2.289978l1.25,2.26001l1.300018,2.209991l1.359985,2.170013l1.420013,2.119995l1.470001,2.079987l1.529999,2.029999l1.570007,1.990021l1.629974,1.929993l1.690002,1.889984l1.730011,1.850006l1.779999,1.790009l1.829987,1.73999l1.880005,1.690002l1.920013,1.630005l1.97998,1.580017l2.01001,1.529999l2.059998,1.47998l2.110016,1.420013l2.149994,1.359985l2.190002,1.300018l2.22998,1.25l2.27002,1.179993l2.309998,1.130005l2.350006,1.059998l2.380005,1.009979l2.419983,0.940002l2.459991,0.870026l2.5,0.819977l2.52002,0.75l2.569977,0.680023l2.590027,0.609985l0.829987,0.179993l0.850006,0.160004l0.880005,0.160004l0.899994,0.140015l0.929993,0.139984l0.940002,0.119995l0.970001,0.110016l0.980011,0.100006l1,0.089996l1.009979,0.089996l1.029999,0.070007l1.050018,0.059998l1.049988,0.049988l1.059998,0.029999l1.070007,0.029999l1.079987,0.019989l1.090027,0.01001l1.089996,0l1.089996,-0.01001l1.100006,-0.029999l1.089996,-0.029999l1.100006,-0.039978l1.089996,-0.050018l2.179993,-0.139984l1.079987,-0.080017l1.070007,-0.089996l2.119995,-0.220001l1.040009,-0.119995l1.029999,-0.130005l1.019989,-0.139984l1,-0.150024l0.990021,-0.169983l0.959991,-0.170013l0.950012,-0.179993l0.929993,-0.190002l0.910004,-0.199982l0.880005,-0.200012l0.859985,-0.220001l2.269989,-0.630005l2.240021,-0.690002l2.22998,-0.73999l2.190002,-0.799988l2.170013,-0.850006l2.139984,-0.899994l2.119995,-0.960022l2.080017,-1l2.049988,-1.059998l2.029999,-1.109985l1.990021,-1.149994l1.959991,-1.210022l1.929993,-1.25l1.890015,-1.299988l1.859985,-1.350006l1.820007,-1.389984l1.790009,-1.430023l1.75,-1.47998l1.709991,-1.52002l1.679993,-1.569977l1.630005,-1.600006l1.589996,-1.649994l1.559998,-1.690002l1.51001,-1.720001l1.459991,-1.77002l1.429993,-1.799988l1.380005,-1.839996l1.330017,-1.869995l1.289978,-1.910004l1.25,-1.940002l1.190002,-1.980011l1.150024,-2.01001l1.089996,-2.039978l1.049988,-2.080017l1,-2.099976l0.940002,-2.140015l0.899994,-2.160004l0.830017,-2.190002l0.789978,-2.220001l0.730011,-2.25l0.51001,-1.699982l0.47998,-1.700012l0.450012,-1.700012l0.410004,-1.709991l0.380005,-1.709991l0.349976,-1.709991l0.310028,-1.710022l0.279999,-1.709991l0.25,-1.720001l0.220001,-1.709991l0.179993,-1.720001l0.160004,-1.720001l0.119995,-1.710007l0.079987,-1.720001l0.059998,-1.720001l0.02002,-1.709991l-0.01001,-1.710007l-0.049988,-1.720001l-0.070007,-1.709991l-0.110016,-1.699997l-0.139984,-1.710007l-0.170013,-1.699997l-0.209991,-1.699997l-0.230011,-1.690002l-0.269989,-1.699997l-0.309998,-1.680008l-0.330017,-1.690002l-0.369995,-1.669998l-0.389984,-1.679993l-0.429993,-1.660004l-0.470001,-1.669998l-0.490021,-1.650009l-0.529999,-1.649994l-0.559998,-1.649994l-0.589996,-1.630005l-0.619995,-1.630005l-0.660004,-1.619995l-0.679993,-1.619995l-0.720001,-1.600006l-0.75,-1.600006l-0.820007,-1.659988l-0.839996,-1.630005l-0.869995,-1.610001l-0.890015,-1.589996l-0.919983,-1.570007l-0.940002,-1.539993l-0.970001,-1.51001l-0.990021,-1.48999l-1.009979,-1.470001l-1.040009,-1.440002l-1.059998,-1.419998l-1.089996,-1.389999l-1.110016,-1.369995l-1.129974,-1.340012l-1.160004,-1.309998l-1.180023,-1.289993l-1.199982,-1.270004l-1.220001,-1.240005l-1.25,-1.209991l-1.269989,-1.180008l-1.290009,-1.159988l-1.309998,-1.140015l-1.339996,-1.099991l-1.350006,-1.080002l-1.380005,-1.050003l-1.399994,-1.029999l-1.420013,-0.990005l-1.440002,-0.969986l-1.459991,-0.940002l-1.480011,-0.919998l-1.5,-0.880005l-1.519989,-0.860001l-1.540009,-0.830002l-1.569977,-0.800003l-1.580017,-0.769989l-1.600006,-0.740005l-1.609985,-0.710007l-1.640015,-0.679993l-1.660004,-0.660004l-1.669983,-0.619995l-0.910004,-0.330002l-0.899994,-0.309998l-0.890015,-0.309998l-0.880005,-0.290009l-0.859985,-0.279999l-0.860016,-0.259995l-0.849976,-0.26001l-0.839996,-0.25l-0.840027,-0.229996l-0.829987,-0.229996l-0.820007,-0.210007l-1.639984,-0.399994l-0.820007,-0.180008l-0.809998,-0.169998l-0.820007,-0.160004l-0.809998,-0.149994l-1.640015,-0.279999l-0.819977,-0.119995l-1.660004,-0.220001l-1.679993,-0.180008l-0.850006,-0.069992l-0.860016,-0.070007l-0.869995,-0.059998l-0.880005,-0.050003l-0.889984,-0.039993l-0.899994,-0.029999l-0.920013,-0.029999l-0.929993,-0.020004l-0.940002,-0.009995l-0.959991,0l-0.970001,0.009995l0,-0.000008z" id="a3a8pQoGe"/>
  <path d="m163.720001,371.779999l1.179993,0.01001l1.110001,0l1.050003,0.009979l0.990005,0.01001l0.929993,0.019989l0.880005,0.01001l0.819992,0.019989l0.780014,0.02002l0.719986,0.019989l0.680008,0.029999l0.639999,0.029999l0.589996,0.029999l0.550003,0.029999l0.520004,0.040009l0.479996,0.049988l0.449997,0.040009l0.410004,0.059998l0.389999,0.050018l0.360001,0.059998l0.339996,0.070007l0.309998,0.069977l0.300003,0.080017l0.279999,0.079987l0.26001,0.089996l0.25,0.089996l0.459991,0.200012l0.220001,0.109985l0.220001,0.120026l0.220001,0.129974l0.210007,0.130005l0.439987,0.279999l0.230011,0.160004l0.349991,0.240021l0.339996,0.25l0.330002,0.25l0.62001,0.519989l0.299988,0.269989l0.280014,0.27002l0.279999,0.279999l0.519989,0.579987l0.240005,0.300018l0.460007,0.619995l0.209991,0.319977l0.199997,0.330017l0.200012,0.339996l0.179993,0.350006l0.179993,0.359985l0.170013,0.369995l0.149994,0.370026l0.149994,0.389984l0.139999,0.399994l0.130005,0.410004l0.130005,0.420013l0.110001,0.429993l0.110001,0.440002l0.089996,0.459991l0.089996,0.470001l0.080002,0.480011l0.080002,0.48999l0.059998,0.51001l0.059998,0.519989l0.059998,0.540009l0.040009,0.549988l0.039993,0.559998l0.029999,0.580017l0.020004,0.600006l0.020004,0.609985l0.009995,0.619995l0,2.110016l0.01001,0.440002l0,0.819977l0.009995,0.380005l0.009995,0.360016l0.01001,0.339996l0.019989,0.320007l0.01001,0.309998l0.019989,0.279999l0.020004,0.269989l0.020004,0.26001l0.059998,0.459991l0.029999,0.209991l0.040009,0.200012l0.039993,0.179993l0.050003,0.179993l0.050003,0.160004l0.049988,0.149994l0.060013,0.140015l0.059998,0.130005l0.069992,0.130005l0.070007,0.119995l0.080002,0.100006l0.080002,0.109985l0.189987,0.190002l0.100006,0.079987l0.110001,0.090027l0.110001,0.079987l0.130005,0.079987l0.119995,0.070007l0.139999,0.080017l0.139999,0.069977l0.149994,0.080017l0.160004,0.070007l0.160004,0.079987l0.169998,0.070007l0.149994,0.070007l0.160004,0.059998l0.150009,0.059998l0.279999,0.100006l0.279999,0.059998l0.12999,0.019989l0.139999,0.019989l0.270004,0l0.130005,-0.019989l0.139999,-0.019989l0.139999,-0.040009l0.149994,-0.040009l0.139999,-0.049988l0.160004,-0.070007l0.150009,-0.079987l0.159988,-0.090027l0.169998,-0.099976l0.170013,-0.110016l0.189987,-0.130005l0.180008,-0.139984l0.199997,-0.149994l0.210007,-0.170013l0.209991,-0.179993l0.229996,-0.200012l0.240005,-0.209991l0.25,-0.220001l0.259995,-0.25l0.270004,-0.25l0.290009,-0.279999l0.299988,-0.290009l0.320007,-0.309998l0.330002,-0.320007l0.339996,-0.349976l0.369995,-0.360016l1.240005,-1.23999l0.449997,-0.440002l0.440002,-0.420013l0.430008,-0.410004l0.419998,-0.389984l0.409988,-0.369995l0.400009,-0.350006l0.389999,-0.339996l0.389999,-0.320007l0.380005,-0.299988l0.37999,-0.290009l0.360001,-0.269989l0.37001,-0.25l0.359985,-0.240021l0.350006,-0.22998l0.350006,-0.210022l0.349991,-0.190002l0.350006,-0.179993l0.339996,-0.169983l0.350006,-0.150024l0.339996,-0.139984l0.350006,-0.119995l0.339996,-0.110016l0.349991,-0.100006l0.340012,-0.079987l0.349991,-0.070007l0.360001,-0.059998l0.350006,-0.049988l0.360001,-0.040009l0.369995,-0.019989l0.369995,-0.01001l0.37001,0l0.37999,0.01001l0.389999,0.019989l0.400009,0.029999l0.399994,0.040009l0.419998,0.049988l0.419998,0.059998l0.430008,0.080017l0.440002,0.079987l0.209991,0.040009l0.210007,0.049988l0.220001,0.059998l0.440002,0.160004l0.229996,0.089996l0.229996,0.110016l0.240005,0.109985l0.25,0.130005l0.259995,0.140015l0.26001,0.160004l0.269989,0.169983l0.290009,0.190002l0.289993,0.200012l0.309998,0.220001l0.310013,0.22998l0.329987,0.25l0.350006,0.27002l0.360001,0.289978l0.369995,0.300018l0.389999,0.329987l0.400009,0.339996l0.419998,0.369995l0.440002,0.390015l0.449997,0.399994l0.479996,0.440002l0.490005,0.450012l0.520004,0.47998l0.529999,0.5l0.559998,0.52002l0.580002,0.549988l0.599991,0.580017l0.62001,0.599976l0.649994,0.630005l0.679993,0.660004l0.700012,0.679993l0.720001,0.710022l0.759995,0.75l0.779999,0.769989l0.809998,0.799988l1.169998,1.170013l1.130005,1.119995l2.119995,2.119995l0.990005,1l0.949997,0.960022l0.910004,0.909973l0.860001,0.880005l0.819992,0.850006l0.779999,0.809998l0.740005,0.769989l0.699997,0.740021l0.669998,0.709991l0.630005,0.679993l0.600006,0.650024l0.559998,0.619995l0.529999,0.599976l0.5,0.570007l0.459991,0.550018l0.440002,0.519989l0.410004,0.5l0.380005,0.480011l0.349991,0.470001l0.330002,0.440002l0.309998,0.429993l0.279999,0.410004l0.25,0.399994l0.240005,0.389984l0.210007,0.370026l0.199997,0.369995l0.179993,0.349976l0.160004,0.350006l0.139999,0.339996l0.130005,0.340027l0.110001,0.329987l0.099991,0.329987l0.090012,0.320007l0.080002,0.330017l0.119995,0.659973l0.059998,0.390015l0.100006,0.76001l0.029999,0.369995l0.029999,0.359985l0.019989,0.700012l0,0.339996l-0.009995,0.339996l-0.059998,0.660004l-0.039993,0.329987l-0.12001,0.640015l-0.080002,0.320007l-0.089996,0.320007l-0.100006,0.319977l-0.109985,0.320007l-0.12001,0.320007l-0.139999,0.320007l-0.149994,0.329987l-0.169998,0.320007l-0.169998,0.329987l-0.190002,0.339996l-0.210007,0.339996l-0.220001,0.340027l-0.229996,0.349976l-0.25,0.350006l-0.270004,0.360016l-0.279999,0.369995l-0.289993,0.380005l-0.309998,0.389984l-0.330002,0.390015l-0.340012,0.410004l-0.360001,0.409973l-0.37999,0.430023l-0.389999,0.429993l-0.410004,0.450012l-0.430008,0.459991l-0.449997,0.47998l-0.37999,0.400024l-0.360001,0.379974l-0.350006,0.370026l-0.330002,0.359985l-0.309998,0.330017l-0.300003,0.329987l-0.279999,0.299988l-0.259995,0.300018l-0.25,0.279999l-0.240005,0.269989l-0.220001,0.26001l-0.199997,0.23999l-0.190002,0.230011l-0.179993,0.22998l-0.320007,0.420013l-0.259995,0.380005l-0.220001,0.359985l-0.089996,0.160004l-0.080002,0.160004l-0.059998,0.160004l-0.060013,0.149994l-0.049988,0.149994l-0.040009,0.140015l-0.029999,0.139984l-0.020004,0.279999l-0.009995,0.130005l0.009995,0.140015l0.040009,0.26001l0.059998,0.279999l0.149994,0.419983l0.060013,0.149994l0.069992,0.150024l0.070007,0.159973l0.069992,0.150024l0.070007,0.139984l0.080002,0.130005l0.069992,0.130005l0.160004,0.23999l0.080002,0.110016l0.179993,0.199982l0.199997,0.179993l0.240005,0.160004l0.130005,0.080017l0.12999,0.070007l0.150009,0.059998l0.160004,0.059998l0.169998,0.059998l0.189987,0.049988l0.190002,0.059998l0.210007,0.040009l0.229996,0.049988l0.240005,0.040009l0.25,0.040009l0.270004,0.040009l0.289993,0.029999l0.309998,0.029999l0.320007,0.029999l0.349991,0.029999l0.360001,0.029999l0.389999,0.029999l0.400009,0.019989l0.429993,0.029999l0.449997,0.02002l0.470001,0.019989l0.5,0.019989l0.520004,0.029999l0.550003,0.02002l0.580002,0.019989l0.699997,0.029999l0.679993,0.040009l0.650009,0.039978l0.62999,0.040009l0.610001,0.050018l0.590012,0.059998l0.569992,0.059998l0.540009,0.070007l0.529999,0.069977l0.509995,0.080017l0.490005,0.089996l0.470001,0.089996l0.449997,0.100006l0.440002,0.109985l0.419983,0.119995l0.410004,0.130005l0.390015,0.130005l0.380005,0.149994l0.359985,0.149994l0.350006,0.170013l0.339996,0.170013l0.320007,0.179993l0.320007,0.199982l0.299988,0.200012l0.299988,0.220001l0.279999,0.230011l0.279999,0.23999l0.26001,0.25l0.26001,0.26001l0.259979,0.279999l0.240021,0.289978l0.23999,0.300018l0.23999,0.309998l0.230011,0.329987l0.220001,0.350006l0.230011,0.360016l0.220001,0.369995l0.209991,0.389984l0.220001,0.399994l0.209991,0.420013l0.110016,0.209991l0.099976,0.220001l0.090027,0.220001l0.099976,0.230011l0.080017,0.230011l0.089996,0.25l0.070007,0.25l0.079987,0.269989l0.070007,0.279999l0.070007,0.290009l0.059998,0.309998l0.059998,0.329987l0.059998,0.350006l0.059998,0.359985l0.049988,0.390015l0.040009,0.420013l0.049988,0.429993l0.040009,0.459991l0.040009,0.48999l0.040009,0.52002l0.029999,0.549988l0.029999,0.580017l0.029999,0.619995l0.029999,0.639984l0.019989,0.690002l0.019989,0.720001l0.02002,0.76001l0.019989,0.799988l0.01001,0.839996l0.019989,0.890015l0.01001,0.919983l0.01001,0.980011l0.009979,1.019989l0.01001,1.070007l0,1.119995l0.01001,1.170013l0,8.730011l-0.01001,1.629974l0,1.559998l-0.019989,1.480011l-0.01001,1.399994l-0.019989,1.339996l-0.029999,1.27002l-0.030029,1.209991l-0.039978,1.140015l-0.040009,1.079987l-0.049988,1.019989l-0.059998,0.960022l-0.070007,0.910004l-0.070007,0.859985l-0.089996,0.809998l-0.089996,0.76001l-0.100006,0.709991l-0.109985,0.679993l-0.130005,0.630005l-0.130005,0.589996l-0.149994,0.559998l-0.160004,0.52002l-0.170013,0.5l-0.190002,0.459991l-0.199982,0.440002l-0.210022,0.410004l-0.22998,0.389984l-0.240021,0.369995l-0.259979,0.360016l-0.27002,0.329987l-0.289978,0.330017l-0.309998,0.309998l-0.330017,0.309967l-0.339996,0.300049l-0.359985,0.289978l-0.380005,0.299988l-0.410004,0.290039l-0.420013,0.299988l-0.440002,0.299988l-0.199982,0.130005l-0.190002,0.130005l-0.200012,0.119995l-0.190002,0.119995l-0.380005,0.219971l-0.189972,0.100037l-0.190002,0.099976l-0.380005,0.179993l-0.200012,0.090027l-0.190002,0.080017l-0.199982,0.070007l-0.210022,0.069946l-0.209991,0.070007l-0.209991,0.059998l-0.220001,0.059998l-0.220001,0.059998l-0.229996,0.050049l-0.230011,0.049988l-0.25,0.039978l-0.25,0.049988l-0.259995,0.030029l-0.270004,0.039978l-0.279999,0.030029l-0.279999,0.029968l-0.300003,0.030029l-0.309998,0.02002l-0.330002,0.029968l-0.330002,0.02002l-0.349991,0.01001l-0.360001,0.019958l-0.37001,0.01001l-0.389999,0.01001l-0.399994,0.01001l-0.419998,0.01001l-0.889999,0l-0.460007,0.009949l-2.529999,0l-0.449997,0.01001l-0.429993,0l-0.400009,0.01001l-0.389999,0.01001l-0.360001,0.01001l-0.339996,0.01001l-0.320007,0.019958l-0.309998,0.01001l-0.289993,0.02002l-0.26001,0.029968l-0.259995,0.02002l-0.229996,0.030029l-0.230011,0.039978l-0.199997,0.029968l-0.199997,0.040039l-0.179993,0.049988l-0.170013,0.049988l-0.159988,0.049988l-0.139999,0.059998l-0.139999,0.070007l-0.130005,0.059998l-0.119995,0.080017l-0.110001,0.080017l-0.100006,0.080017l-0.100006,0.089966l-0.179993,0.200012l-0.089996,0.109985l-0.080002,0.119995l-0.070007,0.119995l-0.080002,0.130005l-0.069992,0.140015l-0.080002,0.150024l-0.069992,0.149963l-0.080002,0.160034l-0.070007,0.169983l-0.080002,0.159973l-0.059998,0.160034l-0.069992,0.159973l-0.050003,0.150024l-0.050003,0.140015l-0.050003,0.139954l-0.089996,0.420044l-0.009995,0.130005l-0.01001,0.139954l0,0.130005l0.01001,0.130005l0.019989,0.140015l0.029999,0.140015l0.040009,0.139954l0.039993,0.140015l0.059998,0.150024l0.070007,0.149963l0.069992,0.150024l0.090012,0.159973l0.099991,0.170044l0.110001,0.169983l0.130005,0.179993l0.130005,0.190002l0.149994,0.190002l0.160004,0.210022l0.179993,0.209961l0.180008,0.220032l0.199997,0.23999l0.220001,0.23999l0.229996,0.26001l0.240005,0.26001l0.259995,0.289978l0.270004,0.289978l0.289993,0.310059l0.309998,0.319946l0.320007,0.340027l0.330002,0.349976l0.360001,0.369995l0.209991,0.220032l0.220001,0.22998l0.210007,0.220032l0.220001,0.22998l0.419998,0.460022l0.209991,0.219971l0.210007,0.22998l0.199997,0.230042l0.210007,0.22998l0.199997,0.220032l0.199997,0.22998l0.190002,0.219971l0.199997,0.220032l0.380005,0.440002l0.539993,0.630005l0.169998,0.209961l0.170013,0.200012l0.159988,0.200012l0.160004,0.190002l0.300003,0.380005l0.279999,0.359985l0.130005,0.169983l0.12999,0.160034l0.12001,0.159973l0.110001,0.160034l0.110001,0.139954l0.099991,0.150024l0.100006,0.130005l0.080002,0.130005l0.080002,0.119995l0.069992,0.109985l0.059998,0.109985l0.059998,0.100037l0.050003,0.089966l0.100006,0.220032l0.110001,0.22998l0.089996,0.230042l0.089996,0.23999l0.080002,0.23999l0.080002,0.25l0.070007,0.26001l0.119995,0.519958l0.099991,0.540039l0.040009,0.279968l0.059998,0.559998l0.020004,0.290039l0.019989,0.279968l0.01001,0.290039l0,0.589966l-0.01001,0.299988l-0.009995,0.290039l-0.020004,0.299988l-0.089996,0.899963l-0.149994,0.900024l-0.059998,0.299988l-0.139999,0.600037l-0.080002,0.289978l-0.090012,0.289978l-0.089996,0.300049l-0.089996,0.289978l-0.100006,0.279968l-0.110001,0.290039l-0.23999,0.559998l-0.12001,0.27002l-0.209991,0.379944l-0.300003,0.460022l-0.389999,0.549988l-0.479996,0.630005l-0.570007,0.690002l-0.639999,0.77002l-0.709991,0.820007l-0.779999,0.890015l-0.840012,0.939941l-0.889999,0.980042l-0.949997,1.029968l-1,1.059998l-1.039993,1.100037l-1.080002,1.130005l-1.100006,1.149963l-1.139999,1.170044l-1.160004,1.179993l-1.169998,1.190002l-2.37999,2.380005l-1.190002,1.179993l-1.199997,1.169983l-1.180008,1.159973l-1.169998,1.130005l-1.160004,1.110046l-1.130005,1.069946l-1.099991,1.040039l-1.070007,1l-1.029999,0.950012l-0.98999,0.899963l-0.950012,0.840027l-0.889999,0.789978l-0.829987,0.710022l-0.770004,0.649963l-0.699997,0.559998l-0.630005,0.490051l-0.550003,0.399963l-0.470001,0.309998l-0.37999,0.220032l-0.280014,0.109985l-0.439987,0.109985l-0.440002,0.090027l-0.430008,0.089966l-0.419998,0.070007l-0.410004,0.059998l-0.409988,0.049988l-0.410004,0.030029l-0.400009,0.02002l-0.399994,0.009949l-0.389999,0l-0.389999,-0.019958l-0.389999,-0.030029l-0.380005,-0.039978l-0.37999,-0.049988l-0.380005,-0.070007l-0.380005,-0.090027l-0.37999,-0.099976l-0.380005,-0.109985l-0.380005,-0.119995l-0.369995,-0.140015l-0.380005,-0.160034l-0.37999,-0.169983l-0.380005,-0.179993l-0.380005,-0.200012l-0.389999,-0.219971l-0.380005,-0.230042l-0.389999,-0.23999l-0.399994,-0.27002l-0.389999,-0.269958l-0.399994,-0.299988l-0.410004,-0.309998l-0.410004,-0.320007l-0.839996,-0.700012l-0.419998,-0.380005l-0.440002,-0.390015l-0.440002,-0.409973l-0.449997,-0.429993l-0.460007,-0.440002l-0.459991,-0.470032l-1.51001,-1.51001l-0.339996,-0.329956l-0.319992,-0.309998l-0.310013,-0.300049l-0.289993,-0.279968l-0.279999,-0.26001l-0.259995,-0.25l-0.25,-0.22998l-0.240005,-0.210022l-0.229996,-0.200012l-0.220001,-0.179993l-0.210007,-0.169983l-0.199997,-0.160034l-0.199997,-0.139954l-0.180008,-0.130005l-0.169998,-0.119995l-0.169998,-0.100037l-0.169998,-0.089966l-0.150009,-0.080017l-0.159988,-0.070007l-0.150009,-0.049988l-0.139999,-0.049988l-0.279999,-0.059998l-0.139999,-0.01001l-0.130005,-0.01001l-0.139999,0.01001l-0.12999,0.01001l-0.139999,0.019958l-0.279999,0.059998l-0.279999,0.100037l-0.150009,0.059998l-0.160004,0.059998l-0.149994,0.070007l-0.169998,0.070007l-0.160004,0.079956l-0.160004,0.070007l-0.149994,0.080017l-0.139999,0.070007l-0.139999,0.080017l-0.119995,0.069946l-0.130005,0.080017l-0.110001,0.080017l-0.110001,0.089966l-0.100006,0.080017l-0.189987,0.190002l-0.080002,0.109985l-0.080002,0.100037l-0.070007,0.119995l-0.069992,0.130005l-0.059998,0.130005l-0.060013,0.139954l-0.049988,0.150024l-0.050003,0.159973l-0.050003,0.180054l-0.039993,0.179993l-0.040009,0.200012l-0.029999,0.209961l-0.059998,0.460022l-0.020004,0.26001l-0.020004,0.269958l-0.019989,0.280029l-0.01001,0.309998l-0.019989,0.320007l-0.01001,0.339966l-0.009995,0.360046l0,0.379944l-0.009995,0.400024l0,0.419983l-0.01001,0.440002l0,2.110046l-0.009995,0.619995l-0.020004,0.609985l-0.020004,0.599976l-0.029999,0.580017l-0.039993,0.559998l-0.040009,0.549988l-0.059998,0.540039l-0.050003,0.519958l-0.069992,0.51001l-0.080002,0.48999l-0.080002,0.480042l-0.089996,0.469971l-0.089996,0.460022l-0.110001,0.440002l-0.110001,0.429993l-0.130005,0.419983l-0.130005,0.410034l-0.139999,0.399963l-0.149994,0.390015l-0.149994,0.369995l-0.170013,0.369995l-0.179993,0.359985l-0.179993,0.350037l-0.200012,0.339966l-0.199997,0.330017l-0.209991,0.320007l-0.460007,0.619995l-0.240005,0.299988l-0.519989,0.580017l-0.279999,0.279968l-0.280014,0.27002l-0.299988,0.27002l-0.300003,0.26001l-0.320007,0.259949l-0.330002,0.25l-0.339996,0.25l-0.349991,0.240051l-0.230011,0.159973l-0.439987,0.280029l-0.210007,0.129944l-0.220001,0.130005l-0.220001,0.119995l-0.220001,0.110046l-0.459991,0.199951l-0.25,0.090027l-0.26001,0.090027l-0.279999,0.079956l-0.300003,0.080017l-0.309998,0.070007l-0.339996,0.070007l-0.360001,0.059998l-0.389999,0.049988l-0.410004,0.059998l-0.449997,0.039978l-0.479996,0.050049l-0.520004,0.039978l-0.550003,0.030029l-0.589996,0.029968l-0.639999,0.030029l-0.680008,0.029968l-0.719986,0.02002l-0.780014,0.019958l-0.819992,0.02002l-0.880005,0.01001l-0.929993,0.02002l-0.990005,0.009949l-1.050003,0.01001l-1.110001,0l-1.179993,0.01001l-1.240005,0l-1.309998,0.01001l-10.209991,0l-1.290009,-0.01001l-1.229996,0l-1.180008,-0.01001l-1.119995,0l-1.069992,-0.01001l-1.020004,-0.009949l-0.960007,-0.01001l-0.919998,-0.02002l-0.869995,-0.01001l-0.830002,-0.019958l-0.779999,-0.02002l-0.740005,-0.02002l-0.699997,-0.029968l-0.660004,-0.02002l-0.619995,-0.029968l-0.589996,-0.030029l-0.550003,-0.039978l-0.520004,-0.040039l-0.48999,-0.039978l-0.460007,-0.039978l-0.440002,-0.050049l-0.410004,-0.049988l-0.37999,-0.049988l-0.360001,-0.059998l-0.340012,-0.059998l-0.319992,-0.059998l-0.300003,-0.070007l-0.289993,-0.080017l-0.270004,-0.070007l-0.259995,-0.079956l-0.25,-0.090027l-0.240005,-0.089966l-0.229996,-0.090027l-0.440002,-0.200012l-0.210007,-0.109985l-0.220001,-0.119995l-0.360001,-0.200012l-0.349991,-0.210022l-0.339996,-0.209961l-0.320007,-0.220032l-0.32,-0.22998l-0.599998,-0.47998l-0.279999,-0.25l-0.270004,-0.26001l-0.259995,-0.27002l-0.25,-0.279968l-0.240005,-0.290039l-0.229996,-0.289978l-0.220001,-0.309998l-0.209999,-0.309998l-0.200005,-0.330017l-0.189995,-0.339966l-0.18,-0.350037l-0.169998,-0.359985l-0.160004,-0.369995l-0.150002,-0.390015l-0.139999,-0.400024l-0.129997,-0.409973l-0.130005,-0.419983l-0.119995,-0.440002l-0.200005,-0.920044l-0.089996,-0.47998l-0.090004,-0.5l-0.07,-0.51001l-0.07,-0.529968l-0.059998,-0.540039l-0.050003,-0.569946l-0.039993,-0.570007l-0.040001,-0.600037l-0.030006,-0.609985l-0.029999,-0.630005l-0.009995,-0.649963l-0.010002,-0.660034l0,-1.25l-0.010002,-0.529968l0,-1.450012l-0.010002,-0.429993l0,-0.410034l-0.009995,-0.390015l-0.010002,-0.369995l-0.010002,-0.339966l-0.019997,-0.330017l-0.010002,-0.299988l-0.019997,-0.289978l-0.029999,-0.27002l-0.020004,-0.25l-0.029999,-0.22998l-0.040001,-0.220032l-0.040001,-0.200012l-0.040001,-0.190002l-0.040001,-0.179993l-0.049995,-0.169983l-0.060005,-0.150024l-0.059998,-0.139954l-0.07,-0.130005l-0.07,-0.119995l-0.07,-0.110046l-0.089996,-0.109985l-0.080002,-0.090027l-0.099998,-0.099976l-0.100006,-0.080017l-0.219994,-0.159973l-0.390007,-0.210022l-0.149994,-0.059998l-0.150002,-0.070007l-0.169998,-0.059998l-0.510002,-0.209961l-0.169998,-0.050049l-0.160004,-0.059998l-0.150002,-0.049988l-0.299995,-0.079956l-0.139999,-0.030029l-0.279999,-0.039978l-0.140007,0l-0.139999,-0.01001l-0.129997,0.01001l-0.279999,0.039978l-0.139999,0.030029l-0.139999,0.039978l-0.150002,0.049988l-0.139999,0.059998l-0.150002,0.070007l-0.160004,0.080017l-0.159996,0.089966l-0.160004,0.100037l-0.169998,0.119995l-0.18,0.119995l-0.18,0.130005l-0.189995,0.149963l-0.200005,0.160034l-0.209999,0.169983l-0.220001,0.190002l-0.220001,0.200012l-0.239998,0.209961l-0.25,0.220032l-0.25,0.23999l-0.269997,0.26001l-0.279999,0.27002l-0.300003,0.279968l-0.309998,0.299988l-0.32,0.309998l-0.330002,0.330017l-0.360001,0.350037l-0.209999,0.209961l-0.220001,0.210022l-0.220001,0.219971l-0.659996,0.630005l-0.220001,0.200012l-0.220001,0.210022l-0.220001,0.199951l-0.209999,0.200012l-0.660004,0.600037l-0.419998,0.380005l-0.209999,0.179993l-0.209999,0.190002l-0.199997,0.179993l-0.210007,0.169983l-0.199997,0.169983l-0.190002,0.170044l-0.379997,0.319946l-0.190002,0.150024l-0.18,0.150024l-0.339996,0.279968l-0.169998,0.130005l-0.160004,0.130005l-0.159996,0.119995l-0.150002,0.109985l-0.139999,0.110046l-0.139999,0.099976l-0.260002,0.179993l-0.120003,0.080017l-0.110001,0.070007l-0.199997,0.119995l-0.080002,0.039978l-0.419998,0.200012l-0.220001,0.090027l-0.479996,0.159973l-0.25,0.070007l-0.520004,0.140015l-0.279999,0.049988l-0.270004,0.059998l-0.289993,0.049988l-0.580002,0.080017l-0.599998,0.059998l-0.310005,0.019958l-0.299995,0.02002l-0.620003,0.02002l-0.620003,0l-0.619995,-0.02002l-0.310005,-0.02002l-0.299995,-0.019958l-0.599998,-0.059998l-0.300003,-0.040039l-0.290001,-0.039978l-0.559998,-0.099976l-0.540001,-0.119995l-0.260002,-0.070007l-0.25,-0.080017l-0.239998,-0.070007l-0.459999,-0.179993l-0.209999,-0.090027l-0.209999,-0.099976l-0.260002,-0.159973l-0.360001,-0.26001l-0.440002,-0.360046l-0.529999,-0.439941l-0.599998,-0.52002l-0.669998,-0.600037l-0.740005,-0.669983l-0.799995,-0.73999l-0.860001,-0.799988l-0.910004,-0.859985l-0.949997,-0.910034l-1,-0.960022l-1.029999,-1.009949l-1.07,-1.040039l-1.090004,-1.070007l-1.119995,-1.099976l-1.130005,-1.119995l-2.299995,-2.299988l-1.150002,-1.160034l-1.150002,-1.169983l-1.150002,-1.159973l-1.129997,-1.150024l-1.110001,-1.150024l-1.099998,-1.130005l-1.059998,-1.099976l-1.040001,-1.080017l-0.990005,-1.049988l-0.959999,-1l-0.909996,-0.969971l-0.849998,-0.920044l-0.800003,-0.869995l-0.739998,-0.820007l-0.670002,-0.75l-0.600002,-0.679993l-0.529999,-0.619995l-0.439999,-0.529968l-0.360001,-0.460022l-0.260002,-0.369995l-0.169998,-0.280029l-0.060001,-0.099976l-0.049999,-0.119995l-0.060001,-0.119995l-0.099998,-0.26001l-0.049999,-0.140015l-0.060001,-0.139954l-0.099998,-0.300049l-0.040001,-0.159973l-0.049999,-0.160034l-0.049999,-0.169983l-0.040001,-0.169983l-0.049999,-0.169983l-0.040001,-0.170044l-0.040001,-0.179993l-0.049999,-0.179993l-0.040001,-0.190002l-0.029999,-0.179993l-0.080002,-0.380005l-0.029999,-0.200012l-0.029999,-0.190002l-0.040001,-0.199951l-0.029999,-0.190002l-0.02,-0.200012l-0.030003,-0.200012l-0.019997,-0.190002l-0.030003,-0.200012l-0.039997,-0.399963l-0.02,-0.190002l-0.010002,-0.200012l-0.02,-0.190002l-0.009998,-0.200012l-0.02,-0.380005l0,-0.369995l-0.009998,-0.179993l0.009998,-0.309998l0,-0.570007l0.009998,-0.27002l0.010002,-0.259949l0.040001,-0.5l0.02,-0.230042l0.059998,-0.459961l0.040001,-0.220032l0.049999,-0.210022l0.049999,-0.219971l0.07,-0.210022l0.07,-0.199951l0.070004,-0.210022l0.09,-0.210022l0.199997,-0.419983l0.120003,-0.220032l0.129997,-0.209961l0.130001,-0.22998l0.150002,-0.220032l0.34,-0.47998l0.189999,-0.23999l0.200001,-0.26001l0.219997,-0.26001l0.230003,-0.280029l0.239998,-0.289978l0.260002,-0.299988l0.279999,-0.309998l0.290001,-0.320007l0.309998,-0.340027l0.329998,-0.349976l0.350006,-0.369995l0.360001,-0.390015l0.379997,-0.409973l0.400002,-0.420044l0.839996,-0.880005l0.389999,-0.409973l0.370003,-0.400024l0.360001,-0.369995l0.339996,-0.369995l0.32,-0.339966l0.300003,-0.330017l0.279999,-0.320007l0.270004,-0.299988l0.259995,-0.280029l0.230003,-0.279968l0.229996,-0.26001l0.200005,-0.25l0.189995,-0.23999l0.18,-0.22998l0.160004,-0.210022l0.150002,-0.210022l0.139999,-0.200012l0.119995,-0.190002l0.120003,-0.189941l0.090004,-0.180054l0.089996,-0.169983l0.080002,-0.159973l0.059998,-0.160034l0.059998,-0.159973l0.040001,-0.160034l0.029999,-0.149963l0.030006,-0.140015l0.009995,-0.150024l0.010002,-0.149963l-0.010002,-0.140015l-0.009995,-0.150024l-0.010002,-0.139954l-0.059998,-0.300049l-0.040001,-0.149963l-0.050003,-0.160034l-0.049995,-0.159973l-0.060005,-0.159973l-0.059998,-0.170044l-0.07,-0.179993l-0.059998,-0.169983l-0.070007,-0.160034l-0.059998,-0.159973l-0.07,-0.140015l-0.059998,-0.140015l-0.07,-0.129944l-0.07,-0.120056l-0.160004,-0.219971l-0.080002,-0.099976l-0.089996,-0.100037l-0.090004,-0.089966l-0.219994,-0.160034l-0.120003,-0.070007l-0.129997,-0.059998l-0.139999,-0.059998l-0.150002,-0.059998l-0.160004,-0.049988l-0.18,-0.049988l-0.18,-0.040039l-0.199997,-0.039978l-0.220001,-0.029968l-0.229996,-0.030029l-0.25,-0.029968l-0.270004,-0.02002l-0.279999,-0.02002l-0.300003,-0.02002l-0.32,-0.009949l-0.339996,-0.01001l-0.360001,-0.01001l-0.379997,-0.01001l-0.400002,-0.01001l-0.43,0l-0.450005,-0.01001l-2.049995,0l-0.68,-0.009949l-0.650002,-0.01001l-0.639999,-0.01001l-0.619999,-0.030029l-0.610001,-0.029968l-0.580002,-0.030029l-0.57,-0.049988l-0.560001,-0.049988l-0.529999,-0.059998l-0.52,-0.070007l-0.509998,-0.080017l-0.490002,-0.079956l-0.48,-0.090027l-0.459999,-0.099976l-0.439999,-0.110046l-0.43,-0.119995l-0.420002,-0.130005l-0.41,-0.130005l-0.389999,-0.149963l-0.380001,-0.150024l-0.369999,-0.159973l-0.360001,-0.179993l-0.34,-0.179993l-0.34,-0.190002l-0.32,-0.200012l-0.310001,-0.210022l-0.299999,-0.219971l-0.299999,-0.23999l-0.279999,-0.240051l-0.27,-0.25l-0.27,-0.269958l-0.25,-0.27002l-0.25,-0.290009l-0.240002,-0.289978l-0.23,-0.309998l-0.23,-0.320007l-0.219997,-0.330017l-0.420002,-0.699982l-0.200001,-0.369995l-0.110001,-0.220001l-0.109997,-0.210022l-0.100002,-0.220001l-0.099998,-0.22998l-0.09,-0.230011l-0.09,-0.23999l-0.080002,-0.25l-0.16,-0.540009l-0.07,-0.290009l-0.059998,-0.299988l-0.070004,-0.329987l-0.059998,-0.340027l-0.049999,-0.359985l-0.060001,-0.390015l-0.049999,-0.409973l-0.040001,-0.440002l-0.049999,-0.460022l-0.040001,-0.48999l-0.029999,-0.529999l-0.040001,-0.559998l-0.029999,-0.589996l-0.030003,-0.619995l-0.029999,-0.660004l-0.02,-0.710022l-0.02,-0.73999l-0.02,-0.779999l-0.019997,-0.829987l-0.010002,-0.880005l-0.02,-0.920013l-0.009998,-0.959991l-0.010002,-1.019989l-0.009998,-1.070007l0,-1.130005l-0.010002,-1.179993l0,-1.230011l-0.009998,-1.299988l0,-7.920013l0.009998,-1.699982l0.010002,-1.630005l0.009998,-1.540009l0.010002,-1.470001l0.02,-1.389984l0.029999,-1.320007l0.029999,-1.25l0.030003,-1.179993l0.049999,-1.110016l0.040001,-1.059998l0.059998,-0.98999l0.07,-0.930023l0.07,-0.879974l0.080002,-0.820007l0.09,-0.77002l0.099998,-0.720001l0.120003,-0.679993l0.119999,-0.630005l0.130001,-0.589996l0.149998,-0.559998l0.16,-0.509979l0.170002,-0.480011l0.18,-0.450012l0.199997,-0.419983l0.220001,-0.390015l0.23,-0.369995l0.240002,-0.350006l0.259998,-0.320007l0.279999,-0.309998l0.290001,-0.289978l0.310001,-0.279999l0.329998,-0.27002l0.350002,-0.269989l0.369999,-0.25l0.380001,-0.26001l0.41,-0.25l0.43,-0.25l0.450001,-0.259979l0.209999,-0.120026l0.219997,-0.119995l0.420002,-0.220001l0.419998,-0.199982l0.630001,-0.27002l0.209999,-0.079987l0.220001,-0.080017l0.209999,-0.079987l0.220001,-0.070007l0.23,-0.070007l0.220001,-0.059998l0.23,-0.059998l0.239998,-0.059998l0.240002,-0.049988l0.240002,-0.059998l0.25,-0.040009l0.259998,-0.049988l0.259998,-0.040009l0.27,-0.040009l0.280003,-0.040009l0.279999,-0.029999l0.599998,-0.059998l0.310001,-0.019989l0.32,-0.029999l0.330002,-0.019989l0.329998,-0.01001l0.350002,-0.019989l0.369999,-0.01001l0.369999,-0.019989l0.380001,-0.01001l0.399998,0l0.41,-0.01001l0.420002,0l0.43,-0.01001l2.899998,0l0.419998,-0.009979l0.400002,-0.01001l0.370003,0l0.349998,-0.01001l0.340004,-0.019989l0.309998,-0.01001l0.300003,-0.019989l0.269997,-0.019989l0.260002,-0.02002l0.25,-0.029999l0.229996,-0.029999l0.209999,-0.029999l0.200005,-0.040009l0.18,-0.039978l0.169998,-0.050018l0.159996,-0.049988l0.150002,-0.059998l0.139999,-0.059998l0.130005,-0.059998l0.119995,-0.070007l0.110001,-0.079987l0.099998,-0.080017l0.090004,-0.089996l0.18,-0.200012l0.07,-0.109985l0.080002,-0.110016l0.07,-0.119995l0.07,-0.130005l0.059998,-0.139984l0.07,-0.140015l0.059998,-0.160004l0.070007,-0.159973l0.059998,-0.170013l0.07,-0.170013l0.120003,-0.339996l0.099998,-0.319977l0.040001,-0.150024l0.059998,-0.299988l0.010002,-0.140015l0.009995,-0.149994l0.010002,-0.139984l-0.010002,-0.149994l-0.009995,-0.140015l-0.060005,-0.299988l-0.040001,-0.160004l-0.059998,-0.149994l-0.059998,-0.170013l-0.080002,-0.160004l-0.089996,-0.169983l-0.090004,-0.180023l-0.239998,-0.380005l-0.139999,-0.199982l-0.150002,-0.209991l-0.160004,-0.210022l-0.18,-0.22998l-0.189995,-0.240021l-0.200005,-0.25l-0.229996,-0.259979l-0.230003,-0.27002l-0.259995,-0.289978l-0.270004,-0.300018l-0.279999,-0.320007l-0.300003,-0.329987l-0.32,-0.339996l-0.339996,-0.360016l-0.360001,-0.379974l-0.370003,-0.400024l-0.389999,-0.410004l-0.839996,-0.879974l-0.400002,-0.420013l-0.379997,-0.410004l-0.360001,-0.380005l-0.350006,-0.369995l-0.329998,-0.359985l-0.309998,-0.339996l-0.290001,-0.320007l-0.279999,-0.309998l-0.260002,-0.300018l-0.239998,-0.289978l-0.230003,-0.27002l-0.219997,-0.269989l-0.200001,-0.26001l-0.189999,-0.23999l-0.34,-0.480011l-0.150002,-0.220001l-0.130001,-0.22998l-0.129997,-0.210022l-0.120003,-0.220001l-0.199997,-0.419983l-0.09,-0.209991l-0.070004,-0.200012l-0.139999,-0.420013l-0.049999,-0.220001l-0.049999,-0.209991l-0.040001,-0.220001l-0.029999,-0.220001l-0.029999,-0.22998l-0.040001,-0.480011l-0.02,-0.26001l-0.010002,-0.259979l-0.009998,-0.27002l0,-0.569977l-0.009998,-0.300018l0.009998,-0.190002l0,-0.369995l0.02,-0.380005l0.009998,-0.199982l0.02,-0.190002l0.010002,-0.200012l0.02,-0.190002l0.039997,-0.399994l0.030003,-0.200012l0.019997,-0.190002l0.030003,-0.199982l0.02,-0.200012l0.029999,-0.190002l0.040001,-0.199982l0.059998,-0.380005l0.040001,-0.200012l0.040001,-0.179993l0.029999,-0.190002l0.040001,-0.179993l0.049999,-0.190002l0.040001,-0.179993l0.040001,-0.170013l0.049999,-0.169983l0.040001,-0.170013l0.049999,-0.170013l0.049999,-0.159973l0.040001,-0.160004l0.099998,-0.300018l0.060001,-0.139984l0.049999,-0.140015l0.099998,-0.259979l0.060001,-0.120026l0.049999,-0.109985l0.060001,-0.110016l0.169998,-0.279999l0.260002,-0.369995l0.360001,-0.459991l0.439999,-0.529999l0.529999,-0.619995l0.600002,-0.679993l0.670002,-0.75l0.739998,-0.810028l0.800003,-0.869995l0.849998,-0.929993l0.909996,-0.959991l0.959999,-1.01001l0.990005,-1.049988l1.040001,-1.080017l1.059998,-1.100006l1.099998,-1.129974l1.110001,-1.140015l1.129997,-1.160004l1.150002,-1.160004l1.150002,-1.169983l1.150002,-1.160004l1.159996,-1.149994l1.139999,-1.149994l1.130005,-1.120026l1.119995,-1.099976l1.090004,-1.070007l1.07,-1.040009l1.029999,-1.01001l1,-0.959991l0.949997,-0.910004l0.910004,-0.859985l0.860001,-0.800018l0.799995,-0.73999l0.740005,-0.670013l0.669998,-0.599976l0.599998,-0.52002l0.529999,-0.440002l0.440002,-0.359985l0.360001,-0.26001l0.260002,-0.160004l0.209999,-0.099976l0.209999,-0.090027l0.229996,-0.089996l0.230003,-0.079987l0.239998,-0.080017l0.25,-0.079987l0.260002,-0.059998l0.269997,-0.070007l0.270004,-0.059998l0.559998,-0.100006l0.290001,-0.039978l0.300003,-0.040009l0.599998,-0.059998l0.299995,-0.02002l0.310005,-0.019989l0.619995,-0.019989l0.620003,0l0.620003,0.019989l0.299995,0.019989l0.310005,0.02002l0.599998,0.059998l0.290001,0.040009l0.290001,0.049988l0.289993,0.040009l0.270004,0.059998l0.279999,0.059998l0.260002,0.059998l0.260002,0.070007l0.25,0.069977l0.479996,0.160004l0.220001,0.089996l0.419998,0.200012l0.080002,0.040009l0.199997,0.119995l0.110001,0.079987l0.120003,0.070007l0.260002,0.179993l0.139999,0.100006l0.139999,0.110016l0.150002,0.109985l0.159996,0.119995l0.160004,0.130005l0.169998,0.130005l0.339996,0.279999l0.18,0.149994l0.190002,0.149994l0.379997,0.320007l0.190002,0.170013l0.199997,0.169983l0.210007,0.170013l0.199997,0.179993l0.209999,0.190002l0.209999,0.179993l0.419998,0.380005l0.660004,0.600006l0.209999,0.199982l0.220001,0.200012l0.440002,0.420013l0.219994,0.199982l0.220001,0.210022l0.220001,0.219971l0.440002,0.420013l0.209999,0.209991l0.360001,0.350006l0.330002,0.330017l0.32,0.309998l0.309998,0.299988l0.300003,0.279999l0.279999,0.269989l0.269997,0.26001l0.25,0.23999l0.25,0.220001l0.239998,0.210022l0.220001,0.199982l0.220001,0.190002l0.209999,0.170013l0.200005,0.160004l0.189995,0.149994l0.360001,0.26001l0.169998,0.109985l0.160004,0.100006l0.159996,0.089996l0.160004,0.079987l0.150002,0.070007l0.139999,0.059998l0.150002,0.050018l0.139999,0.039978l0.279999,0.059998l0.139999,0.01001l0.129997,0.01001l0.139999,-0.01001l0.140007,0l0.279999,-0.040009l0.139999,-0.029999l0.299995,-0.079987l0.150002,-0.050018l0.160004,-0.059998l0.169998,-0.049988l0.510002,-0.209991l0.169998,-0.059998l0.150002,-0.070007l0.149994,-0.059998l0.390007,-0.209991l0.219994,-0.160004l0.100006,-0.080017l0.099998,-0.089996l0.080002,-0.100006l0.089996,-0.109985l0.07,-0.110016l0.07,-0.119995l0.07,-0.130005l0.059998,-0.139984l0.060005,-0.149994l0.049995,-0.170013l0.040001,-0.170013l0.040001,-0.189972l0.040001,-0.210022l0.040001,-0.220001l0.029999,-0.22998l0.020004,-0.25l0.029999,-0.27002l0.019997,-0.289978l0.010002,-0.300018l0.019997,-0.329987l0.010002,-0.339996l0.010002,-0.370026l0.009995,-0.389984l0,-0.399994l0.010002,-0.440002l0,-1.450012l0.010002,-0.529999l0,-1.25l0.010002,-0.660004l0.009995,-0.649994l0.029999,-0.630005l0.030006,-0.609985l0.040001,-0.600006l0.039993,-0.570007l0.050003,-0.559998l0.059998,-0.549988l0.07,-0.529999l0.07,-0.51001l0.090004,-0.5l0.089996,-0.480011l0.200005,-0.919983l0.119995,-0.440002l0.130005,-0.420013l0.129997,-0.410004l0.139999,-0.399994l0.150002,-0.389984l0.160004,-0.369995l0.169998,-0.360016l0.18,-0.350006l0.189995,-0.339996l0.200005,-0.320007l0.209999,-0.319977l0.220001,-0.309998l0.229996,-0.290009l0.240005,-0.290009l0.25,-0.279999l0.259995,-0.269989l0.270004,-0.26001l0.279999,-0.25l0.599998,-0.480011l0.32,-0.22998l0.320007,-0.220001l0.339996,-0.209991l0.349991,-0.210022l0.360001,-0.199982l0.220001,-0.119995l0.210007,-0.110016l0.440002,-0.200012l0.229996,-0.089996l0.240005,-0.089996l0.25,-0.089996l0.259995,-0.079987l0.270004,-0.070007l0.289993,-0.080017l0.300003,-0.069977l0.319992,-0.059998l0.340012,-0.059998l0.360001,-0.060028l0.37999,-0.049988l0.410004,-0.049988l0.440002,-0.050018l0.460007,-0.039978l0.48999,-0.040009l0.520004,-0.040009l0.550003,-0.040009l0.589996,-0.029999l0.619995,-0.029999l0.660004,-0.019989l0.699997,-0.029999l0.740005,-0.019989l0.779999,-0.02002l0.830002,-0.019989l0.869995,-0.01001l0.919998,-0.019989l0.960007,-0.01001l1.020004,-0.01001l1.069992,-0.009979l1.119995,0l1.180008,-0.01001l1.229996,0l1.290009,-0.01001l10.209991,0l1.309998,0.01001l1.240005,0l-0.000018,-0.000005zm-13.080002,65.899994l-2.25,0.27002l-2.229996,0.389984l-2.220001,0.51001l-2.210007,0.619995l-2.179993,0.73999l-2.150009,0.860016l-2.119995,0.98999l-2.089996,1.100006l-2.040009,1.230011l-2,1.349976l-1.949997,1.480011l-1.889999,1.600006l-1.839996,1.72998l-1.770004,1.860016l-1.229996,1.410004l-1.160004,1.449982l-1.099998,1.480011l-1.029999,1.519989l-0.959999,1.540009l-0.900002,1.580017l-0.830002,1.599976l-0.759995,1.619995l-0.700005,1.640015l-0.629997,1.660004l-0.560005,1.679993l-0.5,1.700012l-0.429993,1.709991l-0.370003,1.720001l-0.300003,1.730011l-0.229996,1.72998l-0.170006,1.75l-0.109993,1.740021l-0.030006,1.75l0.030006,1.73999l0.089996,1.73999l0.160004,1.740021l0.219994,1.72998l0.290001,1.720001l0.360001,1.709991l0.419998,1.700012l0.490005,1.679993l0.549995,1.660004l0.610001,1.640015l0.68,1.629974l0.75,1.590027l0.810005,1.579987l0.869995,1.540009l0.940002,1.519989l1,1.480011l1.07,1.449982l1.129997,1.420013l1.200005,1.380005l1.259995,1.330017l1.32,1.299988l0.900002,0.820007l0.910004,0.799988l0.909996,0.77002l0.919998,0.73999l0.930008,0.709961l0.929993,0.690002l0.949997,0.650024l0.950012,0.640015l0.959991,0.599976l0.960007,0.570007l0.979996,0.549988l0.979996,0.52002l0.990005,0.48999l1,0.460022l1,0.440002l1.009995,0.409973l1.020004,0.380005l1.029999,0.349976l1.029999,0.330017l1.050003,0.289978l1.039993,0.27002l1.060013,0.23999l1.059998,0.220032l1.080002,0.179993l1.069992,0.159973l1.089996,0.130005l1.090012,0.100037l1.099991,0.079956l1.110001,0.050049l1.119995,0.009949l1.12001,0l1.12999,-0.039978l1.130005,-0.070007l1.150009,-0.089966l1.149994,-0.119995l1.160004,-0.150024l1.159988,-0.169983l1.170013,-0.210022l1.179993,-0.22998l1.180008,-0.26001l1.089996,-0.27002l1.080002,-0.289978l1.069992,-0.330017l1.059998,-0.349976l1.050003,-0.380005l1.040009,-0.410034l1.019989,-0.440002l1.020004,-0.469971l1,-0.48999l1,-0.51001l0.970001,-0.549988l0.970001,-0.559998l0.949997,-0.600037l0.940002,-0.609985l0.919998,-0.650024l0.910004,-0.659973l0.889999,-0.690002l0.880005,-0.710022l0.859985,-0.73999l0.840012,-0.76001l0.830002,-0.779968l0.809998,-0.799988l0.789993,-0.820007l0.770004,-0.840027l0.75,-0.859985l0.729996,-0.880005l0.720001,-0.910004l0.690002,-0.919983l0.669998,-0.940002l0.660004,-0.950012l0.630005,-0.980011l0.599991,-0.98999l0.589996,-1.01001l0.560013,-1.029999l0.539993,-1.039978l0.520004,-1.059998l0.48999,-1.070007l0.470001,-1.089996l0.440002,-1.110016l0.419998,-1.109985l0.199997,-0.589996l0.190002,-0.619995l0.180008,-0.630005l0.169998,-0.660004l0.160004,-0.679993l0.149994,-0.700012l0.139999,-0.720001l0.130005,-0.730011l0.119995,-0.75l0.110001,-0.759979l0.100006,-0.779999l0.089996,-0.779999l0.069992,-0.800018l0.070007,-0.809998l0.059998,-0.809998l0.050003,-0.820007l0.059998,-1.660004l0.020004,-1.659973l-0.01001,-0.840027l-0.009995,-0.829987l-0.059998,-1.660004l-0.050003,-0.820007l-0.059998,-0.809998l-0.070007,-0.809998l-0.069992,-0.799988l-0.089996,-0.779999l-0.100006,-0.779999l-0.110001,-0.76001l-0.119995,-0.75l-0.130005,-0.730011l-0.139999,-0.720001l-0.149994,-0.699982l-0.160004,-0.679993l-0.169998,-0.660004l-0.180008,-0.630005l-0.190002,-0.619995l-0.199997,-0.580017l-0.940002,-2.429993l-1.049988,-2.339996l-1.150009,-2.23999l-1.25,-2.150024l-1.339996,-2.049988l-1.419998,-1.959991l-1.51001,-1.860016l-1.589996,-1.759979l-1.669998,-1.660004l-1.729996,-1.570007l-1.800003,-1.459991l-1.860001,-1.370026l-1.919998,-1.259979l-1.970001,-1.149994l-2.020004,-1.050018l-2.059998,-0.949982l-2.099991,-0.840027l-2.130005,-0.73999l-2.169998,-0.619995l-2.190002,-0.519989l-2.210007,-0.410004l-2.229996,-0.300018l-2.240005,-0.179993l-2.25,-0.070007l-2.259995,0.040009l-2.25,0.149994l0.000002,-0.000003z" id="a3zOd3adNe"/>
 </defs>
 <g>
  <g id="svg_1">
   <use xlink:href="#a3a8pQoGe" fill="#B3C8E0" id="svg_4"/>
   <use xlink:href="#a3zOd3adNe" fill="#B3C8E0" id="svg_8"/>
  </g>
  <text font-weight="bold" xml:space="preserve" text-anchor="start" font-family="'Trebuchet MS', Gadget, sans-serif" font-size="180" id="svg_2" y="384" x="730" stroke-width="null" stroke="#B3C8E0" fill="#B3C8E0">CONFIG.</text>
 </g>
</svg>