<?xml version="1.0" encoding="utf-8"?>
<!-- Generator: Adobe Illustrator 23.0.3, SVG Export Plug-In . SVG Version: 6.00 Build 0)  -->
<svg version="1.1" xmlns="http://www.w3.org/2000/svg" xmlns:xlink="http://www.w3.org/1999/xlink" x="0px" y="0px"
	 viewBox="0 0 76.7 64.8" style="enable-background:new 0 0 76.7 64.8;" xml:space="preserve">
<style type="text/css">
	.st0{enable-background:new    ;}
	.st1{fill:#D9D9D9;}
	.st2{fill:#636363;}
	.st3{fill:#5B1016;}
	.st4{fill:#3B0B0C;}
	.st5{fill:#CDCCCC;}
	.st6{fill:#868686;}
	.st7{fill:#440C0E;}
	.st8{fill:#5A1013;}
	.st9{fill:#4C0E10;}
	.st10{fill:#651215;}
	.st11{fill-rule:evenodd;clip-rule:evenodd;fill:#868686;}
	.st12{fill:#6ABA82;}
	.st13{fill:#035426;}
	.st14{fill:#31AA59;}
	.st15{fill:#006E32;}
	.st16{fill-rule:evenodd;clip-rule:evenodd;fill:#006E32;}
	.st17{fill:#BFC9E8;}
	.st18{fill:#264B8C;}
	.st19{fill:#9FABD8;}
	.st20{fill:#3458A3;}
	.st21{fill-rule:evenodd;clip-rule:evenodd;fill:#3458A3;}
	.st22{fill:#CC5261;}
	.st23{fill:#BD1622;}
	.st24{fill:#751518;}
	.st25{fill-rule:evenodd;clip-rule:evenodd;fill:#751518;}
</style>
<g id="Capa_2">
</g>
<g id="Capa_1">
	<g>
		<g>
			<g class="st0">
				<path class="st12" d="M0,26.9C0.2,19.5,4,12,9,6.7c3.9-4.1,10.6-8.9,16.2-5.6c7,4.1,1,0.6,4.1,2.4c-6,1.7-15.6,6.2-19.2,12.2
					C6.5,22,8.5,39.5,8.5,39.5S8,39.2,5.3,37.6C1.3,35.3-0.1,31.4,0,26.9z"/>
				<g>
					<path class="st13" d="M18.9,4.6C10.7,9.3,4.2,20.7,4.2,30c0,9.3,6.6,13.1,14.8,8.4c8.1-4.7,14.7-16.1,14.7-25.4
						C33.6,3.6,27-0.1,18.9,4.6z"/>
				</g>
			</g>
		</g>
		<g>
			<g class="st0">
				<g>
					<polygon class="st3" points="64.3,25.1 64,24.9 61.9,28.5 62.2,28.7 					"/>
				</g>
				<g>
					<polygon class="st4" points="64.3,25.1 29.1,4.6 28.7,4.5 64,24.9 					"/>
				</g>
				<g>
					<polygon class="st14" points="64,24.9 28.7,4.5 26.7,8.1 61.9,28.5 					"/>
				</g>
			</g>
			<g class="st0">
				<g>
					<polygon class="st3" points="67.2,28.7 67.1,28.3 64.4,31.1 64.5,31.5 					"/>
				</g>
				<g>
					<polygon class="st15" points="67.1,28.3 31.8,7.8 29.1,10.7 64.4,31.1 					"/>
				</g>
				<g>
					<polygon class="st7" points="64.4,31.1 29.1,10.7 29.3,11.1 64.5,31.5 					"/>
				</g>
			</g>
			<g class="st0">
				<g>
					<polygon class="st3" points="65.3,35.3 65.3,35.9 68.2,34.2 68.2,33.6 					"/>
				</g>
				<g>
					<polygon class="st8" points="65.3,35.3 30,14.9 30,15.4 65.3,35.9 					"/>
				</g>
				<g>
					<polygon class="st15" points="68.2,33.6 33,13.2 30,14.9 65.3,35.3 					"/>
				</g>
			</g>
			<g class="st0">
				<g>
					<polygon class="st3" points="50.4,55.8 50,55.8 48.9,59.6 49.3,59.6 					"/>
				</g>
				<g>
					<polygon class="st9" points="50.4,55.8 15.2,35.3 14.8,35.4 50,55.8 					"/>
				</g>
				<g>
					<polygon class="st15" points="50,55.8 14.8,35.4 13.6,39.1 48.9,59.6 					"/>
				</g>
			</g>
			<g class="st0">
				<g>
					<polygon class="st3" points="46.9,55.2 46.6,55 44.5,58.6 44.9,58.8 					"/>
				</g>
				<g>
					<polygon class="st4" points="46.9,55.2 11.7,34.8 11.4,34.6 46.6,55 					"/>
				</g>
				<g>
					<polygon class="st14" points="46.6,55 11.4,34.6 9.3,38.2 44.5,58.6 					"/>
				</g>
			</g>
			<g class="st0">
				<g>
					<polygon class="st3" points="54.7,57.6 54.7,54.2 54.2,54.5 54.2,57.9 					"/>
				</g>
				<g>
					<polygon class="st10" points="54.7,54.2 19.4,33.7 19,34 54.2,54.5 					"/>
				</g>
				<g>
					<polygon class="st15" points="54.2,54.5 19,34 19,37.4 54.2,57.9 					"/>
				</g>
			</g>
			<g class="st0">
				<g>
					<polygon class="st15" points="45.1,52.2 45.1,54.8 47.4,53.5 47.4,50.9 					"/>
				</g>
				<g>
					<polygon class="st14" points="45.1,52.2 25.9,41 25.9,43.6 45.1,54.8 					"/>
				</g>
				<g>
					<polygon class="st12" points="47.4,50.9 28.1,39.7 25.9,41 45.1,52.2 					"/>
				</g>
			</g>
			<g>
				<g class="st0">
					<path class="st15" d="M8.5,27.7c0.2-5.7,3.1-11.5,7-15.6c3-3.2,8.2-6.9,12.6-4.3c5.4,3.2,32.4,19.3,34.8,20.7
						c-4.6,1.3-12.1,4.8-14.9,9.5c-2.8,4.8-1.3,18.3-1.3,18.3s-32-19-34.1-20.2C9.6,34.2,8.4,31.2,8.5,27.7z"/>
					<g>
						<path class="st15" d="M54.8,29.2c-6.3,3.6-11.4,12.4-11.4,19.7c0,7.2,5.1,10.1,11.4,6.5c6.3-3.6,11.4-12.5,11.4-19.7
							C66.2,28.5,61.1,25.6,54.8,29.2z"/>
					</g>
				</g>
			</g>
			<g class="st0">
				<g>
					<polygon class="st3" points="38.9,11.9 38.4,11.9 37.3,15.7 37.7,15.7 					"/>
				</g>
				<g>
					<polygon class="st12" points="38.9,11.9 24.7,3.7 24.3,3.7 38.4,11.9 					"/>
				</g>
				<g>
					<polygon class="st14" points="38.4,11.9 24.3,3.7 23.1,7.5 37.3,15.7 					"/>
				</g>
			</g>
			<g class="st0">
				<g>
					<polygon class="st3" points="33.4,16.9 33.4,13.5 32.9,13.8 32.9,17.2 					"/>
				</g>
				<g>
					<polygon class="st12" points="33.4,13.5 19.4,5.4 18.9,5.7 32.9,13.8 					"/>
				</g>
				<g>
					<polygon class="st14" points="32.9,13.8 18.9,5.7 18.9,9.1 32.9,17.2 					"/>
				</g>
			</g>
			<g class="st0">
				<g>
					<polygon class="st3" points="46.9,37.2 44.8,36 44.5,36.6 46.5,37.8 					"/>
				</g>
				<g>
					<polygon class="st4" points="46.9,37.2 11.6,16.7 9.6,15.5 44.8,36 					"/>
				</g>
				<g>
					<polygon class="st12" points="44.8,36 9.6,15.5 9.2,16.1 44.5,36.6 					"/>
				</g>
			</g>
			<g class="st0">
				<g>
					<polygon class="st3" points="44.5,52.6 44.3,52.2 41.6,55.1 41.8,55.5 					"/>
				</g>
				<g>
					<polygon class="st14" points="44.3,52.2 9.1,31.8 6.3,34.6 41.6,55.1 					"/>
				</g>
				<g>
					<polygon class="st12" points="41.6,55.1 6.3,34.6 6.5,35 41.8,55.5 					"/>
				</g>
			</g>
			<g class="st0">
				<g>
					<polygon class="st3" points="43.6,47.9 40.6,49.6 40.6,50.1 43.6,48.4 					"/>
				</g>
				<g>
					<polygon class="st14" points="43.6,47.9 8.3,27.4 5.4,29.1 40.6,49.6 					"/>
				</g>
				<g>
					<polygon class="st12" points="40.6,49.6 5.4,29.1 5.4,29.6 40.6,50.1 					"/>
				</g>
			</g>
			<g class="st0">
				<g>
					<polygon class="st3" points="41.5,43.7 44.2,43.4 44.4,42.8 41.7,43.1 					"/>
				</g>
				<g>
					<polygon class="st14" points="44.4,42.8 9.2,22.3 6.4,22.6 41.7,43.1 					"/>
				</g>
				<g>
					<polygon class="st12" points="41.7,43.1 6.4,22.6 6.3,23.2 41.5,43.7 					"/>
				</g>
			</g>
			<g>
				<polygon class="st14" points="52,12.7 38.5,5.3 27.1,11.9 40.5,22.4 52,12.7 				"/>
				<polygon class="st13" points="40.6,27 40.5,19.5 27.1,11.9 27.1,19.3 				"/>
				<polygon class="st13" points="40.6,27 52,20.2 52,12.7 40.5,19.5 				"/>
				<g>
					<g>
						<path class="st16" d="M38.9,21c-0.4-1.4-1.5-2.2-2.5-1.9c-0.1,0-0.3,0.2-0.3,0.2c0,0,0,0,0,0l-0.7,0.4l2.2,4.6l0.7-0.4
							C38.9,23.3,39.2,22.2,38.9,21z"/>
						
							<ellipse transform="matrix(0.9593 -0.2824 0.2824 0.9593 -4.7223 11.1728)" class="st14" cx="36.4" cy="22" rx="1.9" ry="2.6"/>
					</g>
					<g>
						<path class="st15" d="M37,23.7c0.1,0,0.1,0,0.2,0c0.2-0.1,0.3-0.4,0.2-0.6l-1.3-2.7c-0.1-0.2-0.4-0.3-0.6-0.2
							c-0.2,0.1-0.3,0.4-0.2,0.6l1.3,2.7C36.6,23.6,36.8,23.7,37,23.7z"/>
					</g>
				</g>
				<g>
					<g>
						<path class="st16" d="M32.4,17c-0.4-1.4-1.5-2.2-2.5-1.9c-0.1,0-0.3,0.2-0.3,0.2c0,0,0,0,0,0l-0.7,0.4l2.2,4.6l0.7-0.4
							C32.5,19.3,32.8,18.2,32.4,17z"/>
						
							<ellipse transform="matrix(0.9593 -0.2824 0.2824 0.9593 -3.843 9.1797)" class="st14" cx="29.9" cy="17.9" rx="1.9" ry="2.6"/>
					</g>
					<g>
						<path class="st15" d="M30.5,19.7c0.1,0,0.1,0,0.2,0c0.2-0.1,0.3-0.4,0.2-0.6l-1.3-2.7c-0.1-0.2-0.4-0.3-0.6-0.2
							c-0.2,0.1-0.3,0.4-0.2,0.6l1.3,2.7C30.2,19.6,30.3,19.7,30.5,19.7z"/>
					</g>
				</g>
				<g>
					<polygon class="st12" points="53,12.7 38.5,4.8 26.1,11.8 40.5,20 53,12.7 					"/>
					<g>
						<polygon class="st14" points="40.5,21.5 40.5,20 26.1,11.8 26.2,13.2 						"/>
						<polygon class="st15" points="40.5,21.5 53,14.1 53,12.7 40.5,20 						"/>
					</g>
				</g>
			</g>
			<g class="st0">
				<g>
					<polygon class="st3" points="50.3,32.7 49.1,30.3 48.7,30.7 49.9,33.1 					"/>
				</g>
				<g>
					<polygon class="st12" points="49.1,30.3 13.9,9.8 13.5,10.2 48.7,30.7 					"/>
				</g>
				<g>
					<polygon class="st14" points="48.7,30.7 13.5,10.2 14.6,12.7 49.9,33.1 					"/>
				</g>
			</g>
			<g class="st0">
				<g>
					<polygon class="st3" points="59.9,24.2 59.5,24.2 58.4,28 58.8,27.9 					"/>
				</g>
				<g>
					<polygon class="st12" points="59.9,24.2 49.1,17.9 48.6,17.9 59.5,24.2 					"/>
				</g>
				<g>
					<polygon class="st14" points="59.5,24.2 48.6,17.9 47.5,21.7 58.4,28 					"/>
				</g>
			</g>
			<g>
				<g>
					<polygon class="st3" points="54.6,29.3 54.6,25.9 54.1,26.2 54.1,29.5 					"/>
				</g>
				<g>
					<polygon class="st12" points="54.6,25.9 45.1,20.4 44.7,20.7 54.1,26.2 					"/>
				</g>
				<polygon class="st14" points="54.1,26.2 44.7,20.7 44.7,24 54.1,29.5 				"/>
			</g>
		</g>
		<g>
			<g>
				<g>
					<g class="st0">
						<path class="st12" d="M40.2,50.4c0.2-7.6,4.1-15.3,9.3-20.8c4-4.3,10.9-9.2,16.7-5.7c7.2,4.2-0.9-0.5,2.3,1.4
							c-6.2,1.8-16.1,6.4-19.8,12.6c-3.8,6.4-1.7,24.4-1.7,24.4s1.5,0.8-1.3-0.8C41.6,59,40,55,40.2,50.4z"/>
						<g>
							<path class="st15" d="M57.6,26.3c-8.4,4.8-15.1,16.6-15.1,26.2c0,9.6,6.8,13.5,15.2,8.7c8.4-4.8,15.2-16.6,15.1-26.2
								C72.8,25.3,66,21.4,57.6,26.3z"/>
						</g>
					</g>
				</g>
				<g>
					<g class="st0">
						<path class="st12" d="M42.7,52c0.2-7.6,4.1-15.3,9.3-20.8c4-4.3,10.9-9.2,16.7-5.7c7.2,4.2-0.9-0.5,2.3,1.4
							c-6.2,1.8-16.1,6.4-19.8,12.6c-3.8,6.4-1.7,24.4-1.7,24.4s1.5,0.8-1.3-0.8C44.1,60.6,42.5,56.6,42.7,52z"/>
						<g>
							<path class="st15" d="M60.1,27.9C51.8,32.7,45,44.4,45,54.1c0,9.6,6.8,13.5,15.2,8.7c8.4-4.8,15.2-16.6,15.1-26.2
								C75.3,26.9,68.5,23,60.1,27.9z"/>
						</g>
					</g>
				</g>
				<g>
					<g class="st0">
						<path class="st14" d="M52.2,51.3c0.1-4.9,2.6-9.9,6-13.5c2.6-2.8,7-5.9,10.8-3.7c4.6,2.7,0.7,0.6,2.7,1.7
							C67.7,37,61.3,40,58.9,44c-2.5,4.1-1.1,15.8-1.1,15.8s-0.3-0.3-2.1-1.4C53,56.9,52.1,54.3,52.2,51.3z"/>
						<g>
							<path class="st15" d="M64.7,36.6c-5.4,3.1-9.8,10.7-9.8,17c0,6.2,4.4,8.7,9.8,5.6c5.4-3.1,9.8-10.7,9.8-16.9
								C74.5,36,70.1,33.4,64.7,36.6z"/>
						</g>
					</g>
				</g>
				<g>
					<g class="st0">
						<path class="st14" d="M61.9,49.6c0.1-1.7,0.9-3.4,2.1-4.6c0.9-1,2.4-2,3.7-1.3c1.6,0.9,7.4,4.1,8.1,4.5
							c-1.4,0.4-3.6,1.4-4.4,2.8c-0.8,1.4-0.4,5.4-0.4,5.4s-7.2-4-7.8-4.3C62.2,51.5,61.8,50.6,61.9,49.6z"/>
						<g>
							<path class="st15" d="M73.3,48.4c-1.9,1.1-3.4,3.7-3.4,5.8c0,2.1,1.5,3,3.4,1.9c1.9-1.1,3.4-3.7,3.4-5.8
								C76.7,48.2,75.2,47.3,73.3,48.4z"/>
						</g>
					</g>
				</g>
			</g>
			<g>
				<g class="st0">
					<path class="st12" d="M68.5,32.2c0-0.6,0.3-1.1,0.7-1.5c0.3-0.3,0.8-0.7,1.2-0.4c0.5,0.3,0.2,0.2,0.5,0.3
						c-0.5,0.1-1.2,0.5-1.5,0.9c-0.3,0.5-0.1,1.8-0.1,1.8s-0.2-0.1-0.4-0.3C68.6,32.8,68.5,32.5,68.5,32.2z"/>
					<g>
						<path class="st14" d="M70.1,30.6C69.5,31,69,31.8,69,32.5c0,0.7,0.5,1,1.1,0.6c0.6-0.4,1.1-1.2,1.1-1.9
							C71.2,30.6,70.7,30.3,70.1,30.6z"/>
					</g>
				</g>
			</g>
			<g>
				<g class="st0">
					<path class="st12" d="M61.1,31.2c0-0.6,0.3-1.1,0.7-1.5c0.3-0.3,0.8-0.7,1.2-0.4c0.5,0.3,0.2,0.2,0.5,0.3
						c-0.5,0.1-1.2,0.5-1.5,0.9c-0.3,0.5-0.1,1.8-0.1,1.8s-0.2-0.1-0.4-0.3C61.2,31.9,61.1,31.6,61.1,31.2z"/>
					<g>
						<path class="st14" d="M62.7,29.7c-0.6,0.4-1.1,1.2-1.1,1.9c0,0.7,0.5,1,1.1,0.6c0.6-0.4,1.1-1.2,1.1-1.9
							C63.8,29.6,63.3,29.3,62.7,29.7z"/>
					</g>
				</g>
			</g>
			<g>
				<g class="st0">
					<path class="st12" d="M53.3,37c0-0.6,0.3-1.1,0.7-1.5c0.3-0.3,0.8-0.7,1.2-0.4c0.5,0.3,0.2,0.2,0.5,0.3
						c-0.5,0.1-1.2,0.5-1.5,0.9C54,36.7,54.1,38,54.1,38s-0.2-0.1-0.4-0.3C53.4,37.6,53.3,37.3,53.3,37z"/>
					<g>
						<path class="st14" d="M54.9,35.4c-0.6,0.4-1.1,1.2-1.1,1.9c0,0.7,0.5,1,1.1,0.6c0.6-0.4,1.1-1.2,1.1-1.9
							C56,35.3,55.5,35,54.9,35.4z"/>
					</g>
				</g>
			</g>
			<g>
				<g class="st0">
					<path class="st12" d="M48.4,45.6c0-0.6,0.3-1.1,0.7-1.5c0.3-0.3,0.8-0.7,1.2-0.4c0.5,0.3,0.2,0.2,0.5,0.3
						c-0.5,0.1-1.2,0.5-1.5,0.9c-0.3,0.5-0.1,1.8-0.1,1.8s-0.2-0.1-0.4-0.3C48.5,46.2,48.4,45.9,48.4,45.6z"/>
					<g>
						<path class="st14" d="M50,44c-0.6,0.4-1.1,1.2-1.1,1.9c0,0.7,0.5,1,1.1,0.6c0.6-0.4,1.1-1.2,1.1-1.9
							C51.2,43.9,50.7,43.6,50,44z"/>
					</g>
				</g>
			</g>
			<g>
				<g class="st0">
					<path class="st12" d="M47.6,56.3c0-0.6,0.3-1.1,0.7-1.5c0.3-0.3,0.8-0.7,1.2-0.4c0.5,0.3,0.2,0.2,0.5,0.3
						c-0.5,0.1-1.2,0.5-1.5,0.9c-0.3,0.5-0.1,1.8-0.1,1.8s-0.2-0.1-0.4-0.3C47.7,57,47.6,56.7,47.6,56.3z"/>
					<g>
						<path class="st14" d="M49.2,54.8c-0.6,0.4-1.1,1.2-1.1,1.9c0,0.7,0.5,1,1.1,0.6c0.6-0.4,1.1-1.2,1.1-1.9
							C50.3,54.7,49.8,54.4,49.2,54.8z"/>
					</g>
				</g>
			</g>
			<g>
				<g class="st0">
					<path class="st12" d="M52.7,61.2c0-0.6,0.3-1.1,0.7-1.5c0.3-0.3,0.8-0.7,1.2-0.4c0.5,0.3,0.2,0.2,0.5,0.3
						c-0.5,0.1-1.2,0.5-1.5,0.9c-0.3,0.5-0.1,1.8-0.1,1.8s-0.2-0.1-0.4-0.3C52.8,61.9,52.7,61.6,52.7,61.2z"/>
					<g>
						<path class="st14" d="M54.3,59.6c-0.6,0.4-1.1,1.2-1.1,1.9c0,0.7,0.5,1,1.1,0.6c0.6-0.4,1.1-1.2,1.1-1.9
							C55.5,59.6,54.9,59.3,54.3,59.6z"/>
					</g>
				</g>
			</g>
		</g>
	</g>
</g>
</svg>
