<svg width="1000" height="1000" xmlns="http://www.w3.org/2000/svg">
  <g stroke="null" id="svg_1">
	<path stroke="null" fill="#ff0000" id="svg_2" d="m209.376854,209.32968c-160.543379,160.543379 -160.543379,420.734373 0,581.277752c160.543379,160.543379 420.734373,160.543379 581.277752,0c160.459501,-160.543379 160.543379,-420.734373 0,-581.277752c-160.543379,-160.459501 -420.734373,-160.459501 -581.277752,0zm487.249995,151.065113l-139.573763,139.573763l139.573763,139.573763c15.769151,15.769151 15.769151,41.268204 0,57.037355c-15.769151,15.769151 -41.268204,15.769151 -57.037355,0l-139.573763,-139.573763l-139.573763,139.573763c-15.769151,15.769151 -41.268204,15.769151 -57.037355,0c-15.769151,-15.769151 -15.769151,-41.268204 0,-57.037355l139.573763,-139.573763l-139.573763,-139.573763c-15.769151,-15.769151 -15.769151,-41.268204 0,-57.037355c15.769151,-15.769151 41.268204,-15.769151 57.037355,0l139.573763,139.573763l139.573763,-139.573763c15.769151,-15.769151 41.268204,-15.769151 57.037355,0c15.769151,15.769151 15.769151,41.268204 0,57.037355z"/>
  </g>
</svg>