<?xml version="1.0" encoding="UTF-8" standalone="no"?>
<svg
   width="1000"
   height="1000"
   version="1.1"
   id="svg4"
   sodipodi:docname="fallo_off.svg"
   inkscape:version="1.1 (c68e22c387, 2021-05-23)"
   xmlns:inkscape="http://www.inkscape.org/namespaces/inkscape"
   xmlns:sodipodi="http://sodipodi.sourceforge.net/DTD/sodipodi-0.dtd"
   xmlns="http://www.w3.org/2000/svg"
   xmlns:svg="http://www.w3.org/2000/svg">
  <defs
     id="defs8" />
  <sodipodi:namedview
     id="namedview6"
     pagecolor="#ffffff"
     bordercolor="#666666"
     borderopacity="1.0"
     inkscape:pageshadow="2"
     inkscape:pageopacity="0.0"
     inkscape:pagecheckerboard="true"
     showgrid="false"
     inkscape:zoom="0.858"
     inkscape:cx="499.41725"
     inkscape:cy="500.58275"
     inkscape:window-width="1920"
     inkscape:window-height="1017"
     inkscape:window-x="-8"
     inkscape:window-y="-8"
     inkscape:window-maximized="1"
     inkscape:current-layer="svg4" />
  <g
     stroke="null"
     id="svg_1"
     style="fill:#ffffff">
    <path
       stroke="null"
       fill="#b3c8e0"
       id="svg_2"
       d="m209.376854,209.32968c-160.543379,160.543379 -160.543379,420.734373 0,581.277752c160.543379,160.543379 420.734373,160.543379 581.277752,0c160.459501,-160.543379 160.543379,-420.734373 0,-581.277752c-160.543379,-160.459501 -420.734373,-160.459501 -581.277752,0zm487.249995,151.065113l-139.573763,139.573763l139.573763,139.573763c15.769151,15.769151 15.769151,41.268204 0,57.037355c-15.769151,15.769151 -41.268204,15.769151 -57.037355,0l-139.573763,-139.573763l-139.573763,139.573763c-15.769151,15.769151 -41.268204,15.769151 -57.037355,0c-15.769151,-15.769151 -15.769151,-41.268204 0,-57.037355l139.573763,-139.573763l-139.573763,-139.573763c-15.769151,-15.769151 -15.769151,-41.268204 0,-57.037355c15.769151,-15.769151 41.268204,-15.769151 57.037355,0l139.573763,139.573763l139.573763,-139.573763c15.769151,-15.769151 41.268204,-15.769151 57.037355,0c15.769151,15.769151 15.769151,41.268204 0,57.037355z"
       style="fill:#ffffff" />
  </g>
</svg>
