<?xml version="1.0" encoding="UTF-8" standalone="no"?>
<svg
   width="1000"
   height="1000"
   version="1.1"
   id="svg6"
   sodipodi:docname="interruptor_off.svg"
   inkscape:version="1.1 (c68e22c387, 2021-05-23)"
   xmlns:inkscape="http://www.inkscape.org/namespaces/inkscape"
   xmlns:sodipodi="http://sodipodi.sourceforge.net/DTD/sodipodi-0.dtd"
   xmlns="http://www.w3.org/2000/svg"
   xmlns:svg="http://www.w3.org/2000/svg">
  <defs
     id="defs10" />
  <sodipodi:namedview
     id="namedview8"
     pagecolor="#ffffff"
     bordercolor="#666666"
     borderopacity="1.0"
     inkscape:pageshadow="2"
     inkscape:pageopacity="0.0"
     inkscape:pagecheckerboard="true"
     showgrid="false"
     inkscape:zoom="0.858"
     inkscape:cx="499.41725"
     inkscape:cy="555.36131"
     inkscape:window-width="1920"
     inkscape:window-height="1017"
     inkscape:window-x="-8"
     inkscape:window-y="-8"
     inkscape:window-maximized="1"
     inkscape:current-layer="svg6" />
  <ellipse
     stroke="null"
     ry="252.499976"
     rx="447.00002"
     id="svg_5"
     cy="499.499998"
     cx="489.500006"
     stroke-opacity="null"
     stroke-width="null"
     fill="#ff0000" />
  <g
     id="svg_2"
     transform="translate(0,511) scale(0.10000000149011612,-0.10000000149011612) "
     style="fill:#ffffff">
    <path
       fill="#b3c8e0"
       id="svg_3"
       d="m2398.7,2724.5c-1067.7,-129.3 -1946,-907.2 -2233.5,-1975c-86.9,-323.2 -86.9,-938.4 0,-1261.6c274.2,-1020.9 1083.3,-1769.9 2110.9,-1957.1c136,-24.5 662,-31.2 2730.6,-31.2c2378.4,0 2576.8,2.2 2759.6,40.1c969.6,196.2 1761,918.4 2028.5,1845.7c260.8,896.1 29,1843.5 -610.8,2525.5c-378.9,399 -811.4,646.4 -1391,786.9c-140.4,33.4 -392.3,37.9 -2697.2,42.3c-1397.5,2.2 -2610.1,-4.5 -2697.1,-15.6zm613,-688.8c724.4,-115.9 1330.8,-635.3 1547,-1333c327.7,-1049.9 -251.9,-2124.3 -1317.4,-2449.8c-173.9,-51.3 -234.1,-57.9 -519.4,-57.9c-383.4,-2.2 -566.2,40.1 -880.5,196.2c-381.2,189.5 -670.9,483.7 -860.4,869.3c-160.5,327.7 -187.3,448 -187.3,858.2c0,410.1 26.8,530.5 187.3,858.2c325.4,659.8 971.9,1067.7 1707.5,1078.9c98.1,-0.1 243,-9 323.2,-20.1zm4491.6,-1036.5c274.2,-71.3 472.6,-236.3 599.6,-501.5c64.6,-133.7 69.1,-162.7 69.1,-378.9c0,-216.2 -4.5,-245.2 -69.1,-378.9c-127.1,-265.3 -325.4,-430.2 -599.6,-501.5c-176.1,-44.6 -312.1,-42.4 -483.7,11.2c-443.6,136 -711.1,559.5 -639.7,1007.5c86.9,537 601.8,875.8 1123.4,742.1z"
       style="fill:#ffffff" />
    <path
       fill="#b3c8e0"
       id="svg_4"
       d="m7102.1,780.7c-144.9,-49 -227.4,-100.3 -323.2,-198.4c-238.5,-249.7 -236.3,-682.1 4.5,-929.5c336.6,-343.3 882.7,-260.8 1105.6,162.7c51.3,98.1 60.2,140.4 60.2,303.2c0,162.7 -8.9,205.1 -60.2,300.9c-75.8,142.6 -200.6,263 -334.4,323.2c-133.8,58 -336.6,75.8 -452.5,37.9z"
       style="fill:#ffffff" />
  </g>
</svg>
