<svg width="1000" height="1000" xmlns="http://www.w3.org/2000/svg">
  <ellipse stroke="null" ry="245.500005" rx="410" id="svg_5" cy="496.500002" cx="531.5" stroke-opacity="null" stroke-width="null" fill="#00ff00"/>
  <g id="svg_2" transform="translate(0,511) scale(0.10000000149011612,-0.10000000149011612) ">
	<path fill="#b3c8e0" id="svg_3" d="m2395.1,2716c-1068.4,-129.4 -1947.2,-907.8 -2234.9,-1976.1c-55.7,-200.8 -60.2,-254.3 -60.2,-631.2c2.2,-374.7 6.7,-432.7 60.2,-631.2c267.7,-1001.5 1052.8,-1744.2 2060.9,-1949.4c182.9,-37.9 383.6,-40.1 2772.4,-40.1c2388.7,0 2589.5,2.2 2772.3,40.1c542,109.3 1041.6,388.1 1416.3,782.9c956.8,1012.6 956.8,2576.1 2.3,3590.9c-379.2,399.2 -811.9,646.8 -1391.8,787.3c-140.5,33.5 -392.5,37.9 -2698.8,42.4c-1398.4,2.2 -2611.8,-4.5 -2698.7,-15.6zm5419.8,-745c836.4,-245.3 1394,-990.3 1394,-1862.4c0,-887.7 -571,-1632.6 -1438.6,-1878c-149.5,-42.4 -229.7,-51.3 -501.8,-49.1c-283.3,2.2 -347.9,8.9 -519.7,60.2c-517.4,158.4 -916.7,475.1 -1170.9,930.1c-285.5,510.7 -314.5,1195.5 -73.6,1726.3c220.8,486.2 635.7,865.4 1139.7,1043.8c347.9,122.8 811.8,136.2 1170.9,29.1zm-5020.6,-996.9c31.2,-42.4 35.7,-162.8 35.7,-867.6c0,-760.6 -2.2,-820.8 -40.1,-867.6c-53.5,-66.9 -151.7,-46.9 -185.1,37.9c-13.4,35.7 -20.1,365.8 -15.6,865.4c6.7,865.4 8.9,881 120.4,881c26.7,-0.1 66.9,-22.4 84.7,-49.1z"/>
  </g>
</svg>