<svg width="680" height="680" xmlns="http://www.w3.org/2000/svg" xmlns:xlink="http://www.w3.org/1999/xlink" preserveAspectRatio="xMidYMid meet">
 <defs>
  <path d="m343.570007,6.91l12.089996,1.23l11.940002,1.71l11.779999,2.17l11.630005,2.629999l11.449982,3.07l11.26001,3.51l11.070007,3.940001l10.869995,4.360001l10.660004,4.76l10.429993,5.16l10.200012,5.549999l9.959991,5.93l9.709991,6.290001l9.440002,6.649998l9.179993,7.009998l8.890015,7.340004l8.599976,7.669998l8.300049,7.989998l7.98999,8.300003l7.679993,8.610001l7.339966,8.889999l7,9.170006l6.660034,9.449997l6.289978,9.709991l5.929993,9.950012l5.540039,10.209991l5.159973,10.430008l4.77002,10.649994l4.349976,10.869995l3.940002,11.070007l3.51001,11.270004l3.080017,11.449997l2.619995,11.619995l2.179993,11.790009l1.700012,11.940002l1.22998,12.089996l0.75,12.220001l0.25,12.350006l-0.25,12.339996l-0.75,12.22998l-1.22998,12.080017l-1.700012,11.940002l-2.179993,11.789978l-2.619995,11.620026l-3.080017,11.449982l-3.51001,11.27002l-3.940002,11.069977l-4.349976,10.869995l-4.77002,10.650024l-5.159973,10.440002l-5.540039,10.199982l-5.929993,9.959991l-6.289978,9.700012l-6.660034,9.450012l-7,9.169983l-7.339966,8.890015l-7.679993,8.609985l-7.98999,8.300018l-8.300049,7.98999l-8.599976,7.669983l-8.890015,7.340027l-9.179993,7.01001l-9.440002,6.649963l-9.709991,6.299988l-9.959991,5.920044l-10.200012,5.549988l-10.429993,5.159973l-10.660004,4.76001l-10.869995,4.359985l-11.070007,3.940002l-11.26001,3.51001l-11.449982,3.070007l-11.630005,2.630005l-11.779999,2.169983l-11.940002,1.710022l-12.089996,1.22998l-12.220001,0.73999l-12.350006,0.25l-12.350006,-0.25l-12.220001,-0.73999l-12.089996,-1.22998l-11.940002,-1.710022l-11.779999,-2.169983l-11.62999,-2.630005l-11.450012,-3.070007l-11.259995,-3.51001l-11.069992,-3.940002l-10.87001,-4.359985l-10.660004,-4.76001l-10.429993,-5.159973l-10.199997,-5.549988l-9.960007,-5.920044l-9.709991,-6.299988l-9.440002,-6.649963l-9.180008,-7.01001l-8.889992,-7.340027l-8.600006,-7.669983l-8.299995,-7.98999l-7.989998,-8.300018l-7.68,-8.609985l-7.340004,-8.890015l-7,-9.169983l-6.659996,-9.450012l-6.290001,-9.700012l-5.93,-9.959991l-5.540001,-10.199982l-5.16,-10.440002l-4.77,-10.650024l-4.350002,-10.869995l-3.939999,-11.069977l-3.51,-11.27002l-3.08,-11.449982l-2.619999,-11.620026l-2.18,-11.789978l-1.700001,-11.940002l-1.23,-12.080017l-0.75,-12.22998l-0.25,-12.339996l0.25,-12.350006l0.75,-12.220001l1.23,-12.089996l1.700001,-11.940002l2.18,-11.790009l2.619999,-11.619995l3.08,-11.449997l3.51,-11.270004l3.939999,-11.070007l4.350002,-10.869995l4.77,-10.649994l5.16,-10.430008l5.540001,-10.209991l5.93,-9.950012l6.290001,-9.709991l6.659996,-9.449997l7,-9.170006l7.340004,-8.889999l7.68,-8.610001l7.989998,-8.300003l8.299995,-7.989998l8.600006,-7.669998l8.889992,-7.340004l9.180008,-7.009998l9.440002,-6.649998l9.709991,-6.290001l9.960007,-5.93l10.199997,-5.549999l10.429993,-5.16l10.660004,-4.76l10.87001,-4.360001l11.069992,-3.940001l11.259995,-3.51l11.450012,-3.07l11.62999,-2.629999l11.779999,-2.17l11.940002,-1.71l12.089996,-1.23l12.220001,-0.74l12.350006,-0.26l12.350006,0.26l12.220001,0.74zm-41.350006,94.820011l-8.25,0.839989l-8.160004,1.169998l-8.049988,1.480003l-7.930023,1.799995l-7.819977,2.100014l-7.690002,2.389992l-7.560013,2.689995l-7.429993,2.980003l-7.270004,3.25l-7.130005,3.519997l-6.959991,3.790001l-6.800003,4.049995l-6.630005,4.300003l-6.449997,4.540009l-6.269989,4.779999l-6.070007,5.019989l-5.869995,5.230011l-5.669998,5.459991l-5.460007,5.669998l-5.240005,5.880005l-5.009995,6.070007l-4.779999,6.259995l-4.550003,6.449997l-4.300003,6.630005l-4.039993,6.800003l-3.790009,6.970001l-3.529999,7.119995l-3.25,7.279999l-2.969994,7.419998l-2.690002,7.559998l-2.400002,7.690002l-2.099998,7.819992l-1.790001,7.940002l-1.489998,8.050018l-1.159996,8.149994l-0.840004,8.26001l-0.510002,8.339996l-0.169998,8.440002l0.169998,8.429993l0.510002,8.339996l0.840004,8.26001l1.159996,8.149994l1.489998,8.049988l1.790001,7.940002l2.099998,7.820007l2.400002,7.690002l2.690002,7.559998l2.969994,7.419983l3.25,7.279999l3.529999,7.120026l3.790009,6.970001l4.039993,6.799988l4.300003,6.630005l4.550003,6.449982l4.779999,6.26001l5.009995,6.070007l5.240005,5.880005l5.460007,5.669983l5.669998,5.460022l5.869995,5.22998l6.070007,5.02002l6.269989,4.779999l6.449997,4.539978l6.630005,4.300018l6.800003,4.049988l6.959991,3.790009l7.130005,3.519989l7.270004,3.25l7.429993,2.980011l7.560013,2.690002l7.690002,2.389984l7.819977,2.100006l7.930023,1.799988l8.049988,1.480011l8.160004,1.170013l8.25,0.839996l8.350006,0.509979l8.429993,0.170013l8.429993,-0.170013l8.350006,-0.509979l8.25,-0.839996l8.160004,-1.170013l8.049988,-1.480011l7.930023,-1.799988l7.819977,-2.100006l7.690002,-2.389984l7.559998,-2.690002l7.430023,-2.980011l7.269989,-3.25l7.130005,-3.519989l6.959991,-3.790009l6.799988,-4.049988l6.630005,-4.300018l6.450012,-4.539978l6.269989,-4.779999l6.070007,-5.02002l5.869995,-5.23999l5.670013,-5.450012l5.459991,-5.669983l5.23999,-5.880005l5.01001,-6.070007l4.779999,-6.26001l4.549988,-6.449982l4.300018,-6.630005l4.040009,-6.799988l3.789978,-6.970001l3.529999,-7.120026l3.25,-7.279999l2.970001,-7.419983l2.690033,-7.559998l2.399963,-7.690002l2.100037,-7.820007l1.789978,-7.940002l1.48999,-8.049988l1.160034,-8.149994l0.839966,-8.26001l0.51001,-8.339996l0.169983,-8.429993l-0.169983,-8.440002l-0.51001,-8.339996l-0.839966,-8.26001l-1.160034,-8.149994l-1.48999,-8.050018l-1.789978,-7.940002l-2.100037,-7.819992l-2.399963,-7.690002l-2.690033,-7.559998l-2.970001,-7.419998l-3.25,-7.279999l-3.529999,-7.119995l-3.789978,-6.970001l-4.040009,-6.800003l-4.300018,-6.630005l-4.549988,-6.449997l-4.779999,-6.259995l-5.01001,-6.070007l-5.23999,-5.880005l-5.459991,-5.669998l-5.670013,-5.459991l-5.869995,-5.230011l-6.070007,-5.019989l-6.269989,-4.779999l-6.450012,-4.540009l-6.630005,-4.300003l-6.799988,-4.049995l-6.959991,-3.790001l-7.130005,-3.519997l-7.269989,-3.25l-7.430023,-2.980003l-7.559998,-2.689995l-7.690002,-2.389999l-7.819977,-2.100006l-7.930023,-1.799995l-8.049988,-1.480003l-8.160004,-1.169998l-8.25,-0.839989l-8.350006,-0.51001l-8.429993,-0.169991l-8.429993,0.169991l-8.350006,0.51001z" id="a1cmvLBBPC"/>
  <path d="m280.01001,187.679993c10.669983,0 19.299988,8.830002 19.299988,19.710007c0,19.710007 0,177.340012 0,197.039993c0,10.890015 -8.630005,19.720001 -19.299988,19.720001c-4.02002,0 -36.220016,0 -40.240005,0c-10.669998,0 -19.300003,-8.829987 -19.300003,-19.720001c0,-19.699982 0,-177.329987 0,-197.039993c0.020004,-10.880005 8.630005,-19.710007 19.300003,-19.710007c0,0 36.219986,0 40.240005,0z" id="bjCgs8ehv"/>
  <path d="m398.230011,187.679993c10.669983,0 19.299988,8.830002 19.299988,19.710007c0,19.710007 0,177.340012 0,197.039993c0,10.890015 -8.630005,19.720001 -19.299988,19.720001c-4.02002,0 -36.220001,0 -40.240021,0c-10.669983,0 -19.299988,-8.829987 -19.299988,-19.720001c0,-19.699982 0,-177.329987 0,-197.039993c0.019989,-10.880005 8.630005,-19.710007 19.299988,-19.710007c0,0 36.220001,0 40.240021,0z" id="d7CKT4tzrz"/>
 </defs>
 <g>
    <use xlink:href="#a1cmvLBBPC" fill="#00ff00" id="svg_4" y="34.089844" x="21"/>
    <use xlink:href="#a1cmvLBBPC" fill-opacity="0" id="svg_6" y="34.089844" x="21"/>
    <use xlink:href="#bjCgs8ehv" fill="#00ff00" id="svg_8" y="35.089844" x="19"/>
    <use xlink:href="#bjCgs8ehv" fill-opacity="0" id="svg_10" y="35.089844" x="19"/>
    <use xlink:href="#d7CKT4tzrz" fill="#00ff00" id="svg_12" y="35.089844" x="19"/>
    <use xlink:href="#d7CKT4tzrz" fill-opacity="0" id="svg_14" y="35.089844" x="19"/>
 </g>
</svg>