<?xml version="1.0" encoding="UTF-8" standalone="no"?>
<svg
   xmlns:dc="http://purl.org/dc/elements/1.1/"
   xmlns:cc="http://creativecommons.org/ns#"
   xmlns:rdf="http://www.w3.org/1999/02/22-rdf-syntax-ns#"
   xmlns:svg="http://www.w3.org/2000/svg"
   xmlns="http://www.w3.org/2000/svg"
   xmlns:xlink="http://www.w3.org/1999/xlink"
   xmlns:sodipodi="http://sodipodi.sourceforge.net/DTD/sodipodi-0.dtd"
   xmlns:inkscape="http://www.inkscape.org/namespaces/inkscape"
   width="680"
   height="680"
   preserveAspectRatio="xMidYMid meet"
   version="1.1"
   id="svg14"
   sodipodi:docname="play_pausa.svg"
   inkscape:version="0.92.5 (2060ec1f9f, 2020-04-08)">
  <metadata
     id="metadata18">
    <rdf:RDF>
      <cc:Work
         rdf:about="">
        <dc:format>image/svg+xml</dc:format>
        <dc:type
           rdf:resource="http://purl.org/dc/dcmitype/StillImage" />
        <dc:title></dc:title>
      </cc:Work>
    </rdf:RDF>
  </metadata>
  <sodipodi:namedview
     pagecolor="#ffffff"
     bordercolor="#666666"
     borderopacity="1"
     objecttolerance="10"
     gridtolerance="10"
     guidetolerance="10"
     inkscape:pageopacity="0"
     inkscape:pageshadow="2"
     inkscape:window-width="1920"
     inkscape:window-height="1057"
     id="namedview16"
     showgrid="false"
     inkscape:zoom="0.34705882"
     inkscape:cx="340"
     inkscape:cy="340"
     inkscape:window-x="-8"
     inkscape:window-y="-8"
     inkscape:window-maximized="1"
     inkscape:current-layer="svg14" />
  <defs
     id="defs5">
    <path
       id="b3xlRC9Z0i"
       d="m640,-1c0,0 0,0 0,0c0,64.75 0,582.710022 0,647.450012c0,0 0,0 0,0c-64.099976,0 -576.900002,0 -641,0c0,0 0,0 0,0c0,-64.73999 0,-582.700012 0,-647.450012c0,0 0,0 0,0c128.199997,0 576.900024,0 641,0z" />
    <path
       id="a4pGd7cuE9"
       d="m344.570007,21l12.089996,1.23l11.940002,1.710001l11.779999,2.17l11.630005,2.629999l11.449982,3.07l11.26001,3.51l11.070007,3.939999l10.869995,4.360001l10.660004,4.760002l10.429993,5.16l10.200012,5.549999l9.959991,5.929996l9.709991,6.290001l9.440002,6.650002l9.179993,7.010002l8.890015,7.339996l8.599976,7.670006l8.300049,7.989998l7.98999,8.299995l7.679993,8.610001l7.339966,8.890007l7,9.169998l6.660034,9.449997l6.289978,9.710007l5.929993,9.949997l5.540039,10.209991l5.159973,10.430008l4.77002,10.649994l4.349976,10.87001l3.940002,11.069992l3.51001,11.270004l3.080017,11.449997l2.619995,11.619995l2.179993,11.790009l1.700012,11.940002l1.22998,12.089996l0.75,12.220001l0.25,12.350006l-0.25,12.339996l-0.75,12.22998l-1.22998,12.080017l-1.700012,11.940002l-2.179993,11.790009l-2.619995,11.619995l-3.080017,11.449982l-3.51001,11.27002l-3.940002,11.069977l-4.349976,10.870026l-4.77002,10.649994l-5.159973,10.440002l-5.540039,10.199982l-5.929993,9.960022l-6.289978,9.699982l-6.660034,9.450012l-7,9.169983l-7.339966,8.890015l-7.679993,8.609985l-7.98999,8.299988l-8.300049,7.990051l-8.599976,7.669983l-8.890015,7.339966l-9.179993,7.01001l-9.440002,6.650024l-9.709991,6.299988l-9.959991,5.919983l-10.200012,5.549988l-10.429993,5.160034l-10.660004,4.76001l-10.869995,4.359985l-11.070007,3.940002l-11.26001,3.51001l-11.449982,3.070007l-11.630005,2.630005l-11.779999,2.169983l-11.940002,1.710022l-12.089996,1.22998l-12.220001,0.73999l-12.350006,0.25l-12.350006,-0.25l-12.220001,-0.73999l-12.089996,-1.22998l-11.940002,-1.710022l-11.779999,-2.169983l-11.62999,-2.630005l-11.450012,-3.070007l-11.259995,-3.51001l-11.069992,-3.940002l-10.87001,-4.359985l-10.660004,-4.76001l-10.429993,-5.160034l-10.199997,-5.549988l-9.960007,-5.919983l-9.709991,-6.299988l-9.440002,-6.650024l-9.180008,-7.01001l-8.889992,-7.339966l-8.600006,-7.669983l-8.299995,-7.990051l-7.989998,-8.299988l-7.68,-8.609985l-7.340004,-8.890015l-7,-9.169983l-6.659996,-9.450012l-6.290001,-9.699982l-5.93,-9.960022l-5.540001,-10.199982l-5.16,-10.440002l-4.77,-10.649994l-4.350002,-10.870026l-3.939999,-11.069977l-3.51,-11.27002l-3.08,-11.449982l-2.619999,-11.619995l-2.18,-11.790009l-1.700001,-11.940002l-1.23,-12.080017l-0.75,-12.22998l-0.25,-12.339996l0.25,-12.350006l0.75,-12.220001l1.23,-12.089996l1.700001,-11.940002l2.18,-11.790009l2.619999,-11.619995l3.08,-11.449997l3.51,-11.270004l3.939999,-11.069992l4.350002,-10.87001l4.77,-10.649994l5.16,-10.430008l5.540001,-10.209991l5.93,-9.949997l6.290001,-9.710007l6.659996,-9.449997l7,-9.169998l7.340004,-8.890007l7.68,-8.610001l7.989998,-8.299995l8.299995,-7.989998l8.600006,-7.670006l8.889992,-7.339996l9.180008,-7.010002l9.440002,-6.650002l9.709991,-6.290001l9.960007,-5.929996l10.199997,-5.549999l10.429993,-5.16l10.660004,-4.760002l10.87001,-4.360001l11.069992,-3.939999l11.259995,-3.51l11.450012,-3.07l11.62999,-2.629999l11.779999,-2.17l11.940002,-1.710001l12.089996,-1.23l12.220001,-0.74l12.350006,-0.26l12.350006,0.26l12.220001,0.74zm-41.350006,94.82l-8.25,0.840004l-8.160004,1.169998l-8.049988,1.479996l-7.930023,1.800003l-7.819977,2.099998l-7.690002,2.389999l-7.560013,2.689995l-7.429993,2.980011l-7.270004,3.25l-7.130005,3.519989l-6.959991,3.790009l-6.800003,4.050003l-6.630005,4.299988l-6.449997,4.540009l-6.269989,4.779999l-6.070007,5.020004l-5.869995,5.229996l-5.669998,5.460007l-5.460007,5.669998l-5.240005,5.87999l-5.009995,6.070007l-4.779999,6.259995l-4.550003,6.449997l-4.300003,6.630005l-4.039993,6.800003l-3.790009,6.970001l-3.529999,7.119995l-3.25,7.279999l-2.970001,7.419998l-2.689995,7.560013l-2.400002,7.690002l-2.099998,7.819977l-1.790001,7.940002l-1.489998,8.050018l-1.159996,8.149994l-0.840004,8.26001l-0.510002,8.339996l-0.169998,8.440002l0.169998,8.429993l0.510002,8.339996l0.840004,8.26001l1.159996,8.149994l1.489998,8.049988l1.790001,7.940002l2.099998,7.820007l2.400002,7.690002l2.689995,7.559998l2.970001,7.420013l3.25,7.279999l3.529999,7.119995l3.790009,6.970001l4.039993,6.799988l4.300003,6.630005l4.550003,6.450012l4.779999,6.259979l5.009995,6.070007l5.240005,5.880005l5.460007,5.669983l5.669998,5.460022l5.869995,5.22998l6.070007,5.02002l6.269989,4.779999l6.449997,4.539978l6.630005,4.300018l6.800003,4.049988l6.959991,3.790009l7.130005,3.519989l7.270004,3.25l7.429993,2.980011l7.560013,2.689972l7.690002,2.390015l7.819977,2.100037l7.930023,1.799988l8.049988,1.47998l8.160004,1.169983l8.25,0.840027l8.350006,0.51001l8.429993,0.169983l8.429993,-0.169983l8.350006,-0.51001l8.25,-0.840027l8.160004,-1.169983l8.049988,-1.47998l7.930023,-1.799988l7.819977,-2.100037l7.690002,-2.390015l7.559998,-2.689972l7.430023,-2.980011l7.269989,-3.25l7.130005,-3.519989l6.959991,-3.790009l6.799988,-4.049988l6.630005,-4.300018l6.450012,-4.539978l6.269989,-4.779999l6.070007,-5.02002l5.869995,-5.23999l5.670013,-5.450012l5.459991,-5.669983l5.23999,-5.880005l5.01001,-6.070007l4.779999,-6.259979l4.549988,-6.450012l4.300018,-6.630005l4.040009,-6.799988l3.789978,-6.970001l3.529999,-7.119995l3.25,-7.279999l2.970001,-7.420013l2.690033,-7.559998l2.399963,-7.690002l2.100037,-7.820007l1.789978,-7.940002l1.48999,-8.049988l1.160034,-8.149994l0.839966,-8.26001l0.51001,-8.339996l0.169983,-8.429993l-0.169983,-8.440002l-0.51001,-8.339996l-0.839966,-8.26001l-1.160034,-8.149994l-1.48999,-8.050018l-1.789978,-7.940002l-2.100037,-7.819977l-2.399963,-7.690002l-2.690033,-7.560013l-2.970001,-7.419998l-3.25,-7.279999l-3.529999,-7.119995l-3.789978,-6.970001l-4.040009,-6.800003l-4.300018,-6.630005l-4.549988,-6.449997l-4.779999,-6.259995l-5.01001,-6.070007l-5.23999,-5.87999l-5.459991,-5.669998l-5.670013,-5.460007l-5.869995,-5.229996l-6.070007,-5.020004l-6.269989,-4.779999l-6.450012,-4.540009l-6.630005,-4.299988l-6.799988,-4.050003l-6.959991,-3.790009l-7.130005,-3.519989l-7.269989,-3.25l-7.430023,-2.980011l-7.559998,-2.689995l-7.690002,-2.389999l-7.819977,-2.099998l-7.930023,-1.800003l-8.049988,-1.479996l-8.160004,-1.169998l-8.25,-0.840004l-8.350006,-0.510002l-8.429993,-0.169998l-8.429993,0.169998l-8.350006,0.510002z" />
    <path
       id="d16cqKKkos"
       d="m214.410004,166.320007c0,29.609985 0,266.440002 0,296.049988c0,16.950012 13.559998,28.51001 27.009995,21.050018c18.289993,-10.160004 232.849991,-134.940002 248.650009,-143.420013c16.529999,-8.820007 20.769989,-25.01001 2,-36.429993c-21.200012,-12.960022 -233.410004,-151.190002 -246.060013,-158.37001c-15.729996,-9.039993 -31.599991,5.740005 -31.599991,21.12001z" />
  </defs>
  <g
     id="g12"
     style="fill:#ffd200;fill-opacity:1">
    <g
       id="svg_5"
       style="fill:#ffd200;fill-opacity:1">
      <g
         id="svg_1"
         style="fill:#ffd200;fill-opacity:1">
        <use
           x="20"
           y="20"
           id="svg_2"
           fill="#ffd200"
           xlink:href="#a4pGd7cuE9"
           style="fill:#ffd200;fill-opacity:1" />
      </g>
      <g
         id="svg_3"
         style="fill:#ffd200;fill-opacity:1">
        <use
           x="20"
           y="20"
           id="svg_4"
           fill="#ffd200"
           xlink:href="#d16cqKKkos"
           style="fill:#ffd200;fill-opacity:1" />
      </g>
    </g>
  </g>
</svg>
