<svg width="640" height="640" xmlns="http://www.w3.org/2000/svg" xmlns:xlink="http://www.w3.org/1999/xlink" preserveAspectRatio="xMidYMid meet">
 <defs>
  <path id="c3KP4hjCD" d="m565.710022,302.23999c-0.070007,0.110016 -0.640015,0.950012 -0.710022,1.059998c-8.570007,-117.159988 -106.630005,-209.859985 -225.940002,-209.859985c-124.929993,0 -226.559998,101.630005 -226.559998,226.559998c0,124.929993 101.630005,226.559998 226.559998,226.559998c17.459991,0 31.619995,-14.150024 31.619995,-31.619995c0,-17.459991 -14.160004,-31.619995 -31.619995,-31.619995c-90.059998,0 -163.319992,-73.26001 -163.319992,-163.320007c0,-90.059998 73.259995,-163.320007 163.319992,-163.320007c83.470001,0 152.5,62.940002 162.160004,143.850006c-7.610016,-9.470001 -21.320007,-11.730011 -31.619995,-4.859985c-10.899994,7.259979 -13.839996,21.98999 -6.570007,32.889984c4.690002,7.040009 42.26001,63.369995 46.950012,70.410004c5.540009,8.309998 14.559967,13.269989 24.119965,13.269989c9.559998,0 18.570007,-4.959991 24.110046,-13.269989c4.699951,-7.040009 42.259949,-63.369995 46.959961,-70.410004c7.26001,-10.899994 4.320007,-25.630005 -6.570007,-32.889984c0,0 0,0 0,0c-17.089966,-2.880005 -28.049988,-0.690002 -32.889954,6.569977z"/>
  <path id="bNUpljnq" d="m310.670013,545.890015c0.099976,-0.070007 0.970001,-0.600037 1.079987,-0.670044c-116.789993,-12.659973 -206.010002,-113.889984 -201.849998,-233.129974c4.360001,-124.849991 109.480003,-222.869995 234.330009,-218.509995c124.849976,4.360001 222.879974,109.479996 218.519989,234.330002c-0.609985,17.449982 -15.25,31.100006 -32.710022,30.48999c-17.449951,-0.609985 -31.099976,-15.25 -30.48999,-32.699982c3.140015,-90.000015 -67.519989,-165.780014 -157.529999,-168.920013c-89.999985,-3.149994 -165.779984,67.520004 -168.919983,157.519989c-2.910004,83.420013 57.579987,154.610016 138.109985,167.080017c-9.199982,-7.929993 -10.97998,-21.720001 -3.759979,-31.77002c7.639984,-10.639984 22.459991,-13.059998 33.099976,-5.419983c6.870026,4.940002 61.860016,44.450012 68.730011,49.380005c8.110016,5.829987 12.76001,15.019989 12.420013,24.570007c-0.330017,9.549988 -5.610016,18.390015 -14.100006,23.630005c-7.200012,4.449951 -64.809998,40.029968 -72.01001,44.47998c-11.149994,6.869995 -25.76001,3.419983 -32.639984,-7.719971c0,0 0,0 0,0c-2.290009,-17.170044 0.289978,-28.050049 7.720001,-32.640015z"/>
 </defs>
   <g transform="rotate(-135.225, 319.771, 281.623)" id="svg_2">
    <use x="-39.683917" y="-59.988383" id="svg_4" fill="#00ff00" xlink:href="#c3KP4hjCD"/>
    <use x="-39.683917" y="-59.988383" id="svg_6" stroke-opacity="0" fill="#00ff00" fill-opacity="0" xlink:href="#c3KP4hjCD"/>
    <use x="-39.683917" y="-59.988383" id="svg_8" fill="#00ff00" xlink:href="#bNUpljnq"/>
    <use x="-39.683917" y="-59.988383" id="svg_10" fill-opacity="0" xlink:href="#bNUpljnq"/>
   </g>
  <g transform="matrix(1.43101, 0, 0, 1.67327, -996.886, -919.651)" id="svg_27">
    <path fill="#00ff00" id="svg_29" d="m920.249512,575.367676c-12.853027,0 -23.27301,10.419983 -23.27301,23.27301l0,99.739014c0,12.852966 10.419983,23.272949 23.27301,23.272949c12.853027,0 23.27301,-10.419983 23.27301,-23.272949l0,-99.739014c0,-12.853027 -10.419983,-23.27301 -23.27301,-23.27301z"/>
  </g>
</svg>