<?xml version="1.0" encoding="UTF-8" standalone="no"?>
<svg
   width="700"
   height="640"
   version="1.1"
   id="svg5"
   sodipodi:docname="reset.svg"
   inkscape:version="1.1.2 (b8e25be833, 2022-02-05)"
   xmlns:inkscape="http://www.inkscape.org/namespaces/inkscape"
   xmlns:sodipodi="http://sodipodi.sourceforge.net/DTD/sodipodi-0.dtd"
   xmlns="http://www.w3.org/2000/svg"
   xmlns:svg="http://www.w3.org/2000/svg">
  <defs
     id="defs9" />
  <sodipodi:namedview
     id="namedview7"
     pagecolor="#ffffff"
     bordercolor="#666666"
     borderopacity="1.0"
     inkscape:pageshadow="2"
     inkscape:pageopacity="0.0"
     inkscape:pagecheckerboard="0"
     showgrid="false"
     inkscape:zoom="1.0171875"
     inkscape:cx="211.85868"
     inkscape:cy="320.49155"
     inkscape:window-width="1600"
     inkscape:window-height="837"
     inkscape:window-x="-8"
     inkscape:window-y="-8"
     inkscape:window-maximized="1"
     inkscape:current-layer="svg5" />
  <g
     id="g3">
    <path
       fill="#00ff00"
       id="path2"
       d="m598.595064,295.668776c-10.897319,-7.269095 -25.622058,-4.325412 -32.886409,6.571907l-0.705092,1.057639c-8.578101,-117.157637 -106.633415,-209.859938 -225.942692,-209.859938c-124.926303,0.001581 -226.560833,101.636111 -226.560833,226.562414s101.63453,226.560833 226.560833,226.560833c17.462902,0 31.618508,-14.155606 31.618508,-31.618508s-14.155606,-31.618508 -31.618508,-31.618508c-90.057414,-0.001581 -163.323818,-73.267987 -163.323818,-163.323818s73.266406,-163.323818 163.323818,-163.323818c83.469697,0 152.503965,62.944543 162.157095,143.857884c-7.608994,-9.471323 -21.32036,-11.733628 -31.618508,-4.866088c-10.897319,7.265933 -13.839421,21.990672 -6.573488,32.886409l46.956645,70.415997c5.541144,8.309344 14.557161,13.270288 24.117017,13.270288c9.559856,0 18.574292,-4.962525 24.112274,-13.270288l46.956645,-70.415997c7.264352,-10.897319 4.32225,-25.620477 -6.573488,-32.886409l0.000003,0.000001z" />
  </g>
  <path
     style="fill:#014898;fill-opacity:1;stroke-width:0.983103"
     d="m 321.47465,545.49707 c -9.86814,-1.00443 -26.15678,-3.60876 -33.842,-5.41087 -23.72686,-5.56373 -53.29409,-18.44267 -73.46106,-31.99825 -78.98302,-53.08984 -116.638364,-148.06096 -95.0396,-239.70085 19.35842,-82.13451 83.37365,-146.97777 165.4763,-167.61674 19.68707,-4.948941 31.75033,-6.347619 54.56222,-6.326235 22.69576,0.02127 33.89734,1.316076 54.1109,6.254745 71.90343,17.56776 131.68935,71.14457 157.85311,141.45915 4.91765,13.21611 10.22111,34.50154 11.67913,46.87424 1.89392,16.07161 1.3983,15.23258 6.21342,10.5186 5.09631,-4.98928 9.93871,-7.07774 16.41072,-7.07774 14.96222,0 26.47461,14.81847 22.27678,28.67413 -1.8238,6.01975 -49.43055,77.55141 -55.27766,83.05761 -10.48539,9.87404 -27.43047,9.5597 -37.68931,-0.69914 -4.22566,-4.22566 -52.16145,-75.97944 -53.81647,-80.55641 -5.25356,-14.52872 6.15603,-30.48308 21.7724,-30.445 5.62857,0.0138 12.43243,2.753 16.54899,6.66271 l 2.78553,2.64558 -0.64428,-3.93242 c -3.28936,-20.07693 -7.04652,-32.38305 -14.85382,-48.65184 -35.71866,-74.4303 -120.35057,-110.41854 -198.96165,-84.60497 -56.55182,18.56996 -98.78496,67.18864 -109.77706,126.37509 -2.57246,13.85129 -2.56824,44.19206 0.008,58.00308 10.91881,58.53341 52.2658,106.72916 107.85218,125.71692 14.27463,4.87607 26.47002,7.29432 42.69489,8.46606 7.5699,0.54669 15.2874,1.25132 17.15001,1.56584 8.69427,1.46814 17.88704,8.97552 22.0244,17.98645 3.09832,6.74795 2.9621,18.55436 -0.29033,25.16382 -3.09422,6.28795 -9.07139,12.23055 -15.28961,15.20118 -4.12719,1.97169 -6.6498,2.38415 -15.72964,2.5719 -5.94777,0.12299 -12.58372,0.0435 -14.74655,-0.17664 z"
     id="path6126" />
</svg>
