<svg width="1000" height="1000" xmlns="http://www.w3.org/2000/svg">
  <g id="svg_1">
   <path fill="#ffffff" id="svg_2" d="m274.8,845.9l384.3,0l0,80.3l-384.3,0l0,-80.3l0,0z"/>
   <path fill="#ffffff" id="svg_3" d="m306.6,511c-0.2,-1.7 -0.5,-3.4 -0.8,-5.1l-81.8,0l0,-25.8l79.5,0c-0.4,-9.9 -0.2,-19.8 0.5,-29.3l-80,0l0,-21.9l82.6,0c1.7,-9.9 3.8,-19.7 6.5,-29.3l-89,0l0,-22.1l96.4,0c8,-20.8 18.8,-40.6 31.6,-58.8l-128.1,0l-14.6,0l0,58.8l0,22.2l0,29.3l0,21.9l0,29.3l0,25.8l0,58.6l14.6,0l97,0c-6.5,-17.1 -11.4,-34.9 -14.4,-53.6z"/>
   <path fill="#ffffff" id="svg_4" d="m986.7,833.4c-17.9,-34.4 -212.6,-202.2 -212.6,-202.2c42.8,-53 63.7,-122.8 52.1,-195c-21.6,-135.1 -148.6,-227.2 -283.9,-205.7c-135.2,21.5 -227.5,148.7 -205.9,284c21.6,135.1 148.8,227.3 284,205.6c26.4,-4.2 51.2,-12.3 73.7,-23.8c0,0 166.3,214.3 190.2,226.3c39.3,19.6 123.4,-48.3 102.4,-89.2zm-381.9,-192.3c-93.4,14.9 -181.4,-48.8 -196.2,-142.3c-14.9,-93.5 48.9,-181.3 142.4,-196.2c93.4,-14.9 181.2,48.9 196.1,142.2c14.9,93.4 -48.8,181.3 -142.3,196.3l0,0z"/>
   <path fill="#ffffff" id="svg_5" d="m694,734.9l-601.5,0l0,-580.7l748.7,0l0,505c26.3,23.2 55.2,49.2 82.4,74.3l0,-586.6c0,-40.4 -32.7,-73 -73.1,-73l-767.5,0c-40.4,0 -73.1,32.7 -73.1,73l0,595.3c0,40.4 32.8,73.2 73.1,73.2l675.6,0c-22.9,-28.3 -45.3,-56.5 -64.6,-80.5z"/>
  </g>
</svg>