<?xml version="1.0" encoding="utf-8"?>
<!-- Generator: Adobe Illustrator 23.0.3, SVG Export Plug-In . SVG Version: 6.00 Build 0)  -->
<svg version="1.1" xmlns="http://www.w3.org/2000/svg" xmlns:xlink="http://www.w3.org/1999/xlink" x="0px" y="0px"
	 viewBox="0 0 75.1 64.6" style="enable-background:new 0 0 75.1 64.6;" xml:space="preserve">
<style type="text/css">
	.st0{enable-background:new    ;}
	.st1{fill:#CDCCCC;}
	.st2{fill:#D9D9D9;}
	.st3{fill:#636363;}
	.st4{fill:#868686;}
	.st5{fill:#50566D;}
	.st6{fill:#31AA59;}
	.st7{fill:#6ABA82;}
	.st8{fill:#035426;}
	.st9{fill:#006E32;}
	.st10{fill:#BD1622;}
	.st11{fill:#CC5261;}
	.st12{fill:#5B1016;}
	.st13{fill:#751518;}
	.st14{fill:#9FABD8;}
	.st15{fill:#BFC9E8;}
	.st16{fill:#264B8C;}
	.st17{fill:#3458A3;}
</style>
<g id="Capa_2">
</g>
<g id="Capa_1">
	<g>
		<g class="st0">
			<path class="st1" d="M10,21.3l-8.1-4.6c-0.7-0.4-0.9-1.3-0.8-2c0-1.1,0.4-2.1,1-3c0.6-0.9,1.3-1.7,2.3-2.1c0.5-0.2,1.1-0.3,1.6,0
				l8.1,4.6L10,21.3z"/>
			<g>
				<path class="st2" d="M12.1,14.5c-1.6,0.9-2.9,3.2-2.9,5c0,1.8,1.3,2.6,2.9,1.7c1.6-0.9,2.9-3.2,2.9-5
					C15,14.3,13.7,13.6,12.1,14.5z"/>
			</g>
		</g>
		<g class="st0">
			<path class="st2" d="M7.1,40.3l-2.6-1.5C0.9,36.7-0.1,32.1,0,28.2c0.2-5.6,2.3-11.1,5.3-15.8c3-4.7,7.2-9.3,12.5-11.4
				c2.7-1.1,6-1.5,8.6,0.1L29,2.5L7.1,40.3z"/>
			<g>
				<path class="st3" d="M18,3.6C9.5,8.5,2.5,20.5,2.6,30.3c0,9.8,7,13.8,15.5,8.9s15.5-16.9,15.4-26.7C33.5,2.6,26.6-1.4,18,3.6z"
					/>
			</g>
		</g>
		<g class="st0">
			<path class="st2" d="M9.9,41.9l-2.6-1.5c-3.7-2.1-4.6-6.7-4.5-10.6c0.2-5.6,2.3-11.1,5.3-15.8c3-4.7,7.2-9.3,12.5-11.4
				c2.7-1.1,6-1.5,8.6,0.1l2.6,1.5L9.9,41.9z"/>
			<g>
				<path class="st3" d="M20.8,5.2C12.2,10.1,5.3,22.1,5.3,31.9c0,9.8,7,13.8,15.5,8.9S36.3,23.9,36.3,14
					C36.3,4.2,29.3,0.2,20.8,5.2z"/>
			</g>
		</g>
		<g class="st0">
			<path class="st4" d="M47.7,59.1L12.9,39.3c-2.9-1.7-3.7-5.4-3.6-8.5c0.1-4.5,1.9-8.9,4.3-12.7c2.4-3.8,5.8-7.4,10-9.1
				c2.2-0.9,4.8-1.2,6.9,0.1l34.8,19.7L47.7,59.1z"/>
			<g>
				<path class="st2" d="M56.4,29.7c-6.9,4-12.4,13.6-12.4,21.4c0,7.9,5.6,11.1,12.5,7.1s12.4-13.6,12.4-21.5
					C68.9,28.9,63.3,25.7,56.4,29.7z"/>
			</g>
		</g>
		<g>
			<g class="st0">
				<g>
					<polygon class="st4" points="66.4,26 64.2,29.7 64.8,30 66.9,26.4 					"/>
				</g>
				<g>
					<polygon class="st2" points="66.4,26 31.9,6 29.7,9.7 64.2,29.7 					"/>
				</g>
				<g>
					<polygon class="st1" points="66.9,26.4 32.4,6.3 31.9,6 66.4,26 					"/>
				</g>
			</g>
			<g class="st0">
				<g>
					<polygon class="st4" points="60.5,24.8 59.3,28.6 60.1,28.5 61.2,24.7 					"/>
				</g>
				<g>
					<polygon class="st2" points="60.5,24.8 26,4.7 24.8,8.6 59.3,28.6 					"/>
				</g>
				<g>
					<polygon class="st1" points="61.2,24.7 26.7,4.6 26,4.7 60.5,24.8 					"/>
				</g>
			</g>
			<g class="st0">
				<g>
					<polygon class="st4" points="54.7,27.5 54.8,30.9 55.6,30.5 55.5,27 					"/>
				</g>
				<g>
					<polygon class="st1" points="54.7,27.5 20.2,7.4 20.2,10.9 54.8,30.9 					"/>
				</g>
				<g>
					<polygon class="st2" points="55.5,27 21,6.9 20.2,7.4 54.7,27.5 					"/>
				</g>
			</g>
			<g>
				<polygon class="st1" points="25.5,11.2 38,4.4 48.6,10.4 36.2,20.2 25.5,11.2 				"/>
				<polygon class="st3" points="36.1,24.4 36.2,17.5 48.6,10.4 48.5,17.3 				"/>
				<polygon class="st3" points="36.1,24.4 25.5,18.1 25.5,11.2 36.2,17.5 				"/>
				<g>
					<polygon class="st2" points="24.6,11.2 38,3.9 49.4,10.4 36.1,18 24.6,11.2 					"/>
					<g>
						<polygon class="st1" points="36.1,19.4 36.1,18 49.4,10.4 49.4,11.7 						"/>
						<polygon class="st4" points="36.1,19.4 24.6,12.6 24.6,11.2 36.1,18 						"/>
					</g>
				</g>
			</g>
			<g class="st0">
				<g>
					<polygon class="st4" points="60.5,24.8 59.3,28.6 60.1,28.5 61.2,24.7 					"/>
				</g>
				<g>
					<polygon class="st2" points="60.5,24.8 45.2,15.9 44.1,19.8 59.3,28.6 					"/>
				</g>
				<g>
					<polygon class="st1" points="61.2,24.7 45.9,15.8 45.2,15.9 60.5,24.8 					"/>
				</g>
			</g>
			<g class="st0">
				<g>
					<polygon class="st4" points="54.7,27.5 54.8,30.9 55.6,30.5 55.5,27 					"/>
				</g>
				<g>
					<polygon class="st1" points="54.7,27.5 39.9,18.9 39.9,22.3 54.8,30.9 					"/>
				</g>
				<g>
					<polygon class="st2" points="55.5,27 40.7,18.4 39.9,18.9 54.7,27.5 					"/>
				</g>
			</g>
			<g class="st0">
				<g>
					<polygon class="st4" points="50.5,31.5 49.8,32.3 51,34.7 51.8,33.9 					"/>
				</g>
				<g>
					<polygon class="st2" points="50.5,31.5 16,11.4 15.3,12.2 49.8,32.3 					"/>
				</g>
				<g>
					<polygon class="st1" points="49.8,32.3 15.3,12.2 16.5,14.7 51,34.7 					"/>
				</g>
			</g>
			<g class="st0">
				<g>
					<polygon class="st4" points="50,58.2 47.8,61.9 48.4,62.2 50.5,58.5 					"/>
				</g>
				<g>
					<polygon class="st2" points="50,58.2 15.5,38.1 13.3,41.8 47.8,61.9 					"/>
				</g>
				<g>
					<polygon class="st5" points="50.5,58.5 16,38.4 15.5,38.1 50,58.2 					"/>
				</g>
			</g>
			<g class="st0">
				<g>
					<polygon class="st4" points="43.9,53.6 41.1,56.6 41.4,57.3 44.2,54.3 					"/>
				</g>
				<g>
					<polygon class="st2" points="43.9,53.6 9.4,33.6 6.6,36.5 41.1,56.6 					"/>
				</g>
				<g>
					<polygon class="st1" points="41.1,56.6 6.6,36.5 6.9,37.2 41.4,57.3 					"/>
				</g>
			</g>
			<g>
				<g>
					<polygon class="st4" points="41,49.3 41,50.2 44,48.5 44,47.6 					"/>
				</g>
				<g>
					<polygon class="st1" points="41,49.3 6.5,29.2 6.5,30.1 41,50.2 					"/>
				</g>
				<g>
					<polygon class="st2" points="44,47.6 9.5,27.5 6.5,29.2 41,49.3 					"/>
				</g>
			</g>
			<g>
				<g>
					<polygon class="st1" points="45.8,42.1 11.3,22 8.5,22.3 43,42.4 					"/>
				</g>
				<g>
					<polygon class="st4" points="43,42.4 42.7,43.4 45.5,43.1 45.8,42.1 					"/>
				</g>
				<g>
					<polygon class="st2" points="43,42.4 8.5,22.3 8.2,23.3 42.7,43.4 					"/>
				</g>
			</g>
			<g>
				<polygon class="st4" points="46.6,36.7 46,37.7 48.2,38.9 48.7,37.9 				"/>
			</g>
			<g>
				<polygon class="st2" points="46.6,36.7 12.1,16.6 11.5,17.6 46,37.7 				"/>
			</g>
			<g>
				<polygon class="st5" points="48.7,37.9 14.2,17.8 12.1,16.6 46.6,36.7 				"/>
			</g>
		</g>
		<g class="st0">
			<path class="st2" d="M49.4,63.6l-4.6-2.8c-3.6-2.1-4.5-6.6-4.4-10.4c0.2-5.5,2.3-10.8,5.2-15.4c2.9-4.6,7-9,12.2-11.1
				c2.7-1.1,5.8-1.4,8.4,0.1l4.6,2.8L49.4,63.6z"/>
			<g>
				<path class="st4" d="M60,27.8c-8.3,4.8-15.1,16.5-15,26c0,9.6,6.8,13.4,15.1,8.6s15.1-16.5,15-26.1C75.1,26.9,68.3,23,60,27.8z"
					/>
			</g>
		</g>
	</g>
</g>
</svg>
