<svg width="470" height="470" xmlns="http://www.w3.org/2000/svg" preserveAspectRatio="xMidYMid meet">
 <metadata>Created by potrace 1.15, written by Peter Selinger 2001-2017</metadata>

 <g>
  <title>background</title>
  <rect fill="none" id="canvas_background" height="472" width="472" y="-1" x="-1"/>
 </g>
 <g>
  <title>Layer 1</title>
  <g id="svg_21">
   <path fill="#ffffff" id="svg_3" d="m154.423828,7.93515c-7.300003,1.900002 -13.199997,6.799995 -15.899994,13.299995c-1.300003,3 -1.600006,8 -1.600006,24.800003l0,21.000008l22.5,0l22.5,0l0,-21.000008c0,-22.900002 -0.5,-25.800003 -5.800003,-31.300003c-5.299988,-5.599998 -14.799988,-8.599998 -21.699997,-6.799995z"/>
   <path fill="#ffffff" id="svg_4" d="m228.223846,8.43515c-6,1.900002 -9.900024,5.099998 -13,10.400002c-2.800018,4.699997 -2.800018,4.799995 -3.100006,26.399994l-0.300018,21.800011l23,0l23.100006,0l0,-20.300011c-0.100006,-21.699997 -0.600006,-24.899994 -5.399994,-31.099998c-4.899994,-6.5 -16.200012,-9.900002 -24.299988,-7.199997z"/>
   <path fill="#ffffff" id="svg_5" d="m305.423828,7.93515c-7.299988,1.900002 -13.199982,6.799995 -15.899994,13.299995c-1.299988,3 -1.600006,8 -1.600006,24.800003l0,21.000008l22.5,0l22.5,0l0,-21.000008c0,-22.900002 -0.5,-25.800003 -5.799988,-31.300003c-5.300018,-5.599998 -14.800018,-8.599998 -21.700012,-6.799995z"/>
   <path fill="#ffffff" id="svg_6" d="m102.423828,91.535156c-5,1.799988 -10,7.099991 -11.399994,12.199997c-0.699997,2.399994 -1.100006,19.300003 -1.100006,46.5l0,42.800003l17.5,0l17.5,0l0,-26.900009c0,-26.199997 0.100006,-26.899994 2.300003,-30.099991c1.199997,-1.800003 3.5,-4.300003 5,-5.400009c2.699997,-2 4.199997,-2.099991 31.800003,-2.399994l28.899994,-0.300003l0,-18.899994l0,-19l-43.199997,0c-34.699997,0.099991 -44.100006,0.399994 -47.300003,1.5z"/>
   <path fill="#ffffff" id="svg_7" d="m208.923828,111.135147c0,19.5 -0.199982,21.400009 -2.100006,24.800003c-4.299988,7.699997 -3.899994,7.600006 -36.599991,7.899994l-29.199997,0.300003l-0.300003,27.400009c-0.300003,25.799988 -0.399994,27.5 -2.399994,30.100006c-5,6.699982 -5.600006,6.899994 -28,7.199982l-20.400009,0.300018l0,26.5l0,26.399994l62.100006,0c43.399994,0 62.700012,-0.300018 64.200012,-1.100006c3.099976,-1.600006 23.599976,-21.899994 25.299988,-25.100006c0.899994,-1.799988 1.399994,-6 1.399994,-13.100006c0,-16.199982 0.600006,-17.5 18.399994,-35.499985c20.700012,-21 19.700012,-20.600006 47.900024,-21l21.699982,-0.400009l0,-37.899994l0,-37.899994l-26.399994,0l-26.399994,0l-0.399994,18.699997c-0.300018,18.199997 -0.400024,19 -3,23.800003c-1.800018,3.399994 -11.5,13.799988 -30.600006,32.899994l-27.899994,27.799988l1.299988,2.800018c3.899994,7.799988 3.5,19.799988 -1,27.399994c-10.600006,17.799988 -33.600006,21.600006 -47.900009,7.799988c-6.799988,-6.5 -9,-11.399994 -9.5,-20.799988c-0.399994,-7.100006 -0.099991,-8.899994 2,-13.600006c3.5,-7.5 7.900009,-12.199997 15,-15.799988c5.100006,-2.5 7.300003,-3 13.199997,-3c4.800018,0 8.5,0.699997 11.200012,1.899994l4.100006,1.899994l28.399994,-28.399994l28.399994,-28.399994l0.300018,-17.5l0.299988,-17.5l-26.5,0l-26.600006,0l0,21.099991z"/>
   <path fill="#ffffff" id="svg_8" d="m346.923828,130.035156c0,37.899994 -0.100006,40.299988 -2,43.899994c-1.100006,2.199997 -3.600006,5 -5.699982,6.199997c-3.600006,2.300003 -4.800018,2.400009 -27.5,2.900009l-23.800018,0.5l-14.199982,14.299988l-14.300018,14.200012l-0.5,12.799988c-0.5,10.200012 -1,13.700012 -2.799988,17.600006c-2.899994,6.5 -24.700012,28.700012 -31.700012,32.399994l-5,2.700012l-64.699997,0.299988l-64.800003,0.300018l0,26.399994l0,26.5l30.900009,0c19.099991,0 32,-0.399994 33.699997,-1c1.5,-0.600006 6,-4.200012 9.899994,-7.899994c10.199997,-9.700012 11.800003,-10.100006 38.399994,-10.100006l21.600006,0l1.800018,-4.399994c4.5,-10.900024 14.299988,-17.700012 26.799988,-18.400024c6.700012,-0.399994 8.299988,-0.099976 13.799988,2.300018c19.300018,8.699982 24.5,31.5 11.100006,48.5c-1.899994,2.5 -5.600006,5.200012 -9.799988,7.200012c-13,6.399994 -26.700012,3.699982 -36.600006,-7.300018c-2.5,-2.699982 -5,-6.5 -5.600006,-8.399994l-1.199982,-3.5l-21.400024,0l-21.399994,0l-8.099991,7.5c-12.600006,11.600006 -12.300003,11.5 -51.400009,11.5l-32.5,0l0,8.899994c0,4.800018 0.5,10.300018 1.100006,12.200012c1.599991,4.5 5.5,8.699982 10.399994,11c3.800003,1.799988 9.100006,1.899994 116.800018,1.899994l112.699982,0l0,-25.399994c0,-14 -0.399994,-26.5 -0.899994,-27.800018c-0.5,-1.299988 -4.799988,-6.399994 -9.5,-11.299988c-11.700012,-12.300018 -12.600006,-14.700012 -12.600006,-35.300018l0,-15.699982l-4.799988,-1.899994c-2.600006,-1.100006 -6.800018,-4.200012 -9.399994,-6.800018c-14.700012,-15.100006 -10.400024,-39.5 8.699982,-48.899994c5.5,-2.700012 7.600006,-3.200012 13.5,-3.100006c12.100006,0 22.600006,6.700012 28,17.700012c3.399994,7 3.5,18.899994 0.100006,25.799988c-3.100006,6.300018 -9.899994,13 -15.600006,15.300018l-4.5,1.899994l0,14.799988c0,10.899994 0.399994,15.5 1.399994,17.5c0.800018,1.5 4.700012,5.800018 8.600006,9.700012c3.899994,3.799988 8.399994,9.199982 9.800018,12l2.699982,5l0.300018,28.200012l0.299988,28.299988l8.200012,0c4.5,0 10,-0.5 12.199982,-1.100006c5.100006,-1.399994 11,-7.299988 12.399994,-12.399994c1.5,-5.600006 1.5,-258.400009 0,-264c-1.399994,-5.100006 -7.299988,-11 -12.399994,-12.400009c-2.199982,-0.599991 -7.699982,-1.099991 -12.199982,-1.099991l-8.300018,0l0,40z"/>
   <path fill="#ffffff" id="svg_9" d="m20.923828,138.635147c-17.900002,7.800003 -17.799995,34.300003 0.200005,41.800003c3,1.300003 8,1.600006 24.799995,1.600006l21,0l0,-22.5l0,-22.5l-21.199997,0c-16.800003,0.099991 -22,0.399994 -24.800003,1.599991z"/>
   <path fill="#ffffff" id="svg_10" d="m402.923828,159.535156l0,22.5l21,0c22.900024,0 25.799988,-0.5 31.299988,-5.800003c11.900024,-11.199997 8.300049,-31.400009 -6.5,-37.600006c-3,-1.300003 -7.999969,-1.599991 -24.799988,-1.599991l-21,0l0,22.5z"/>
   <path fill="#ffffff" id="svg_11" d="m182.423828,195.835144c-5.399994,3.399994 -6.899994,5.899994 -7.199997,12c-0.300003,4.399994 0,6.399994 1.600006,8.899994c5.5,8.800018 19.800003,8.800018 25.099991,0c2.399994,-3.899994 2.600006,-11.799988 0.399994,-15.5c-3.899994,-6.599976 -13.899994,-9.299988 -19.899994,-5.399994z"/>
   <path fill="#ffffff" id="svg_12" d="m22.623833,213.43515c-9.300003,3.399994 -15.100006,11.600006 -15.100006,21.600006c0,10 5.800003,18.199982 15.100006,21.600006c2.699997,0.899994 9.799995,1.299988 24.099998,1.399994l20.199997,0l0,-23l0,-23l-20.199997,0c-14.300003,0.100006 -21.400002,0.5 -24.099998,1.399994z"/>
   <path fill="#ffffff" id="svg_13" d="m402.923828,235.035156l0,23.100006l21.800018,-0.300018l21.699982,-0.299988l4.799988,-2.800018c15,-8.799988 15,-30.599976 0,-39.399994l-4.799988,-2.799988l-21.699982,-0.300018l-21.800018,-0.299988l0,23.100006z"/>
   <path fill="#ffffff" id="svg_14" d="m307.823822,223.335144c-3.899994,2.600006 -6.899994,7.899994 -6.899994,12.200012c0,4.299988 3,9.600006 6.899994,12.199982c7.100006,4.800018 17.5,2 21.300018,-5.699982c5,-9.800018 -2.100006,-21 -13.200012,-21c-3.199982,0 -5.799988,0.699982 -8.100006,2.299988z"/>
   <path fill="#ffffff" id="svg_15" d="m20.923828,289.635162c-17.900002,7.799988 -17.799995,34.299988 0.200005,41.799988c3,1.300018 8,1.600006 24.799995,1.600006l21,0l0,-22.5l0,-22.5l-21.199997,0c-16.800003,0.100006 -22,0.399994 -24.800003,1.600006z"/>
   <path fill="#ffffff" id="svg_16" d="m402.923828,310.535156l0,22.5l21,0c22.900024,0 25.799988,-0.5 31.299988,-5.799988c11.900024,-11.200012 8.300049,-31.400024 -6.5,-37.600006c-3,-1.300018 -7.999969,-1.600006 -24.799988,-1.600006l-21,0l0,22.5z"/>
   <path fill="#ffffff" id="svg_17" d="m247.423828,306.93515c-5.199982,3.200012 -6.799988,5.799988 -7.299988,11.600006c-0.700012,8.700012 3.799988,14.299988 12.799988,16c4.700012,0.799988 11.800018,-2.799988 14.399994,-7.399994c2.5,-4.400024 2.400024,-11.100006 -0.299988,-15.5c-3.899994,-6.200012 -13.399994,-8.5 -19.600006,-4.700012z"/>
   <path fill="#ffffff" id="svg_18" d="m136.923828,424.035156c0,22.900024 0.5,25.799988 5.800003,31.299988c9,9.5 24.399994,9.5 33.399994,0c5.300003,-5.5 5.800003,-8.399963 5.800003,-31.299988l0,-21l-22.5,0l-22.5,0l0,21z"/>
   <path fill="#ffffff" id="svg_19" d="m212.12384,424.735168l0.299988,21.799988l2.800018,4.799988c8.799988,15 30.599976,15 39.399994,0l2.799988,-4.799988l0.300018,-21.799988l0.299988,-21.700012l-23.100006,0l-23.100006,0l0.300018,21.700012z"/>
   <path fill="#ffffff" id="svg_20" d="m287.923828,424.035156c0,22.900024 0.5,25.799988 5.800018,31.299988c9,9.5 24.399994,9.5 33.399994,0c5.299988,-5.5 5.799988,-8.399963 5.799988,-31.299988l0,-21l-22.5,0l-22.5,0l0,21z"/>
  </g>
 </g>
</svg>