<svg width="1450" height="640.0000000000001" xmlns="http://www.w3.org/2000/svg" xmlns:xlink="http://www.w3.org/1999/xlink" preserveAspectRatio="xMidYMid meet">
 <defs>
  <path id="c149dWlyba" d="m501.9,204.03c0,-62.04 0,-96.51 0,-103.4c0,-18.7 -14.11,-33.85 -31.54,-33.85c-17.4,0 -31.51,15.15 -31.51,33.85c0,2.38 0,14.28 0,35.7c-37.24,-40 -57.93,-62.21 -62.06,-66.66c-30.69,-32.93 -84.04,-32.87 -114.66,0.06c-20.84,22.38 -187.57,201.44 -208.42,223.82c-12.3,13.24 -12.3,34.66 0,47.88c12.31,13.23 32.3,13.23 44.6,0c20.84,-22.38 187.56,-201.44 208.4,-223.82c6.79,-7.26 18.76,-7.26 25.51,-0.03c20.85,22.39 187.59,201.46 208.44,223.85c6.18,6.62 14.24,9.91 22.29,9.91c8.07,0 16.14,-3.3 22.31,-9.91c12.3,-13.22 12.3,-34.64 0,-47.88c-11.12,-11.94 -38.9,-41.77 -83.36,-89.52z"/>
  <path id="aoBSW6zR3" d="m308.54,181.86c-18.33,19.68 -164.99,177.14 -183.33,196.82c-2.89,3.1 -4.53,7.35 -4.53,11.77c0,14.36 0,129.2 0,143.55c0,33.69 25.43,61 56.8,61c6.05,0 36.3,0 90.76,0l0,-150.95l102.47,0l0,150.95c54.46,0 84.72,0 90.77,0c31.36,0 56.8,-27.31 56.8,-61c0,-14.35 0,-129.19 0,-143.55c0,-4.42 -1.63,-8.67 -4.54,-11.77c-12.22,-13.12 -73.32,-78.73 -183.3,-196.82c-10.58,-4.33 -17.88,-4.33 -21.9,0z"/>
 </defs>
 <g>
  <title>background</title>
  <rect fill="none" id="canvas_background" height="642" width="1452" y="-1" x="-1"/>
 </g>
 <g>
  <title>Layer 1</title>
  <g id="svg_1">
   <g id="svg_2">
    <g id="svg_3">
     <g id="svg_4">
      <use x="0.514999" y="0" id="svg_5" fill="#ffffff" xlink:href="#c149dWlyba"/>
      <g id="svg_6">
       <use x="0.514999" y="0" id="svg_7" stroke-opacity="0" stroke="#000000" fill-opacity="0" xlink:href="#c149dWlyba"/>
      </g>
     </g>
     <g id="svg_8">
      <use x="0.514999" y="0" id="svg_9" fill="#ffffff" xlink:href="#aoBSW6zR3"/>
      <g id="svg_10">
       <use x="0.514999" y="0" id="svg_11" stroke-opacity="0" stroke="#000000" fill-opacity="0" xlink:href="#aoBSW6zR3"/>
      </g>
     </g>
    </g>
   </g>
  </g>
  <text font-weight="bold" xml:space="preserve" text-anchor="start" font-family="'Trebuchet MS', Gadget, sans-serif" font-size="180" id="svg_12" y="384" x="730" fill="#ffffff">HOME</text>
 </g>
</svg>