<svg width="1450" height="640" xmlns="http://www.w3.org/2000/svg" xmlns:xlink="http://www.w3.org/1999/xlink" preserveAspectRatio="xMidYMid meet">
 <defs>
  <path id="b5cUv1bTt5" d="m418.37,98.41l0,-2.11l24.96,0l0,39.64l3.73,0.52l3.68,0.67l3.63,0.81l3.58,0.95l3.53,1.08l3.48,1.23l3.41,1.35l3.36,1.48l3.3,1.61l3.23,1.74l3.16,1.85l3.09,1.97l3.02,2.09l2.94,2.2l2.87,2.31l2.78,2.41l2.7,2.52l2.62,2.62l2.52,2.72l2.44,2.81l2.34,2.91l2.25,3l2.15,3.08l2.04,3.17l1.94,3.25l1.84,3.33l1.72,3.4l1.62,3.48l1.5,3.55l1.38,3.61l1.27,3.68l1.14,3.74l1.02,3.81l0.89,3.85l0.76,3.92l0.62,3.96l0.5,4.01l0.35,4.05l0.22,4.1l0.07,4.14l0,0.18l27.23,0l0,41.21l-27.23,0l0,226.06l29.68,0l0,33.32l-483.4,0l0,-33.32l28.63,0l0,-151.17l-28.63,0l0,-30.17l28.63,0l0.06,-2.75l0.16,-2.73l0.27,-2.69l0.38,-2.68l0.48,-2.64l0.59,-2.61l0.68,-2.57l0.78,-2.54l0.88,-2.51l0.97,-2.47l1.07,-2.42l1.15,-2.39l1.24,-2.34l1.34,-2.29l1.41,-2.25l1.5,-2.2l1.58,-2.15l1.66,-2.1l1.74,-2.04l1.81,-1.99l1.88,-1.93l1.96,-1.87l2.03,-1.81l2.1,-1.75l2.16,-1.69l2.22,-1.62l2.29,-1.55l2.35,-1.48l2.41,-1.41l2.46,-1.34l2.52,-1.27l2.57,-1.19l2.62,-1.11l2.68,-1.03l2.72,-0.95l2.76,-0.87l2.81,-0.78l2.85,-0.7l2.89,-0.6l2.93,-0.52l0,-158.9l24.44,0l0,2.11l218.04,0zm-217.87,156.26l3.14,0.35l3.1,0.46l3.06,0.56l3.02,0.66l2.97,0.75l2.93,0.85l2.88,0.94l2.83,1.03l2.77,1.12l2.73,1.2l2.66,1.29l2.6,1.38l2.55,1.45l2.48,1.53l2.41,1.61l2.35,1.69l2.27,1.75l2.21,1.83l2.13,1.9l2.05,1.96l1.97,2.03l1.89,2.09l1.81,2.15l1.73,2.21l1.63,2.27l1.55,2.32l1.45,2.38l1.36,2.42l1.27,2.48l1.16,2.52l1.07,2.57l0.96,2.61l0.85,2.65l0.75,2.69l0.64,2.72l0.53,2.76l0.42,2.8l0.3,2.82l0.18,2.86l0.06,2.88l22.87,0l0,30.16l-22.7,0l0,151.53l56.74,0l0,-226.24l-34.04,0l0,-41.21l34.04,0l0,-0.35l0.07,-4.08l0.21,-4.03l0.34,-4l0.48,-3.95l0.61,-3.9l0.74,-3.85l0.86,-3.81l0.99,-3.75l1.1,-3.69l1.23,-3.63l1.34,-3.57l1.46,-3.51l1.57,-3.44l1.67,-3.37l1.78,-3.29l1.89,-3.22l1.99,-3.14l2.09,-3.07l2.18,-2.97l2.28,-2.9l2.37,-2.8l2.46,-2.71l2.54,-2.62l2.63,-2.52l2.71,-2.42l2.79,-2.32l2.87,-2.21l2.94,-2.11l3.02,-2l3.08,-1.88l3.15,-1.77l3.22,-1.65l3.28,-1.53l3.33,-1.4l3.4,-1.28l3.45,-1.16l3.5,-1.02l3.55,-0.88l3.6,-0.75l3.65,-0.61l0,-17.71l-218.05,0l0,136.09z"/>
 </defs>
 <g>
  <title>background</title>
  <rect fill="none" id="canvas_background" height="642" width="1452" y="-1" x="-1"/>
 </g>
 <g>
  <title>Layer 1</title>
  <g stroke="null" id="svg_1">
   <g stroke="null" id="svg_2">
    <g stroke="null" id="svg_3">
     <use stroke="null" transform="matrix(1.0620602661147132,0,0,1.2346941232681274,-2.7927116782457233,-10.561235547065735) " x="-33.300001" y="-52.267786" id="svg_4" fill="#ffffff" xlink:href="#b5cUv1bTt5"/>
     <g stroke="null" id="svg_5">
      <use stroke="#000000" transform="matrix(1.0620602661147132,0,0,1.2346941232681274,-2.7927116782457233,-10.561235547065735) " x="-33.300001" y="-52.267786" id="svg_6" stroke-opacity="0" fill-opacity="0" xlink:href="#b5cUv1bTt5"/>
     </g>
    </g>
   </g>
  </g>
  <text font-weight="bold" xml:space="preserve" text-anchor="start" font-family="'Trebuchet MS', Gadget, sans-serif" font-size="180" id="svg_7" y="384" x="730" fill="#ffffff">ZONE 5</text>
 </g>
</svg>