<svg width="350" height="350" xmlns="http://www.w3.org/2000/svg">
 <g>
	<path fill="#ffffff" id="svg_29" d="m246.78064,125.754761l0,151.683716c0,7.064697 -7.555862,12.882751 -16.730881,12.882751l-129.798828,0c-9.174995,0 -16.730865,-5.818054 -16.730865,-12.882751l0,-151.683716l163.260574,0l0,0zm-42.366806,16.830658l0,130.489594l9.714706,0l0,-130.489594l-9.714706,0l0,0zm-43.985947,0l0,130.489594l9.714722,0l0,-130.489594l-9.714722,0l0,0zm-43.985809,0l0,130.489594l9.714706,0l0,-130.489594l-9.714706,0l0,0zm10.794029,-51.94648l0,-10.804863c0,-6.856956 7.016136,-12.259384 15.921333,-12.259384l44.255722,0c8.905106,0 15.921234,5.402428 15.921234,12.259384l0,10.804863l48.843231,0c9.175034,0 16.730881,5.818001 16.730881,12.882744l0,8.934799l-207.246403,0l0,-9.142586c0,-7.064743 7.555866,-12.882751 16.73077,-12.882751l48.843231,0l0,0.207794zm15.921333,-14.752808c-2.698563,0 -4.857407,1.662308 -4.857407,3.740158l0,10.804855l54.240341,0l0,-10.804855c0,-2.07785 -2.158829,-3.740158 -4.857391,-3.740158l-44.525543,0l0,0z"/>
 </g>
</svg>