<svg width="560" height="560" xmlns="http://www.w3.org/2000/svg" xmlns:xlink="http://www.w3.org/1999/xlink" preserveAspectRatio="xMidYMid meet">
 <defs>
  <path id="b3t5MM4HV" d="m266.670013,180.539993c0.799988,0.980011 1.23999,3.740005 1.329987,6.76001c0,4.809998 -0.179993,5.160004 -1.959991,5.160004c-3.730011,0 -12.630005,4.979996 -16.460007,9.079987c-5.869995,6.490005 -7.650009,10.670013 -8.089996,19.480011c-0.360001,6.5 -0.100006,8.369995 1.769989,12.98999c2.139999,5.25 2.139999,5.340012 0.630005,10.590012c-0.809998,2.849991 -10.770004,36.829987 -22.160004,75.540009c-11.389999,38.609985 -21.619995,73.48999 -22.690002,77.409973c-2.48999,8.980011 -1.959991,10.940002 4.090012,14.150024c3.209991,1.779999 4.279999,2.839996 4.009995,3.909973c-0.270004,0.890015 -6.319992,22.060028 -13.440002,47.160004c-10.229996,36.210022 -12.720001,46 -12.009995,47.330017c1.160004,2.230011 4.099991,2.319977 5.25,0.179993c0.449997,-0.799988 6.5,-21.529999 13.440002,-46c6.849991,-24.470001 12.720001,-44.929993 12.899994,-45.559998c0.270004,-0.799988 1.520004,-0.440002 4.180008,1.070007c4.719986,2.759979 7.119995,2.759979 9.969986,0.179993c1.87001,-1.600006 5.420013,-12.899994 22.770004,-72.25c11.389999,-38.700012 20.909988,-70.730011 21.270004,-71.350006c0.26001,-0.619995 9.869995,30.869995 21.350006,69.839996c11.389984,38.970001 21.359985,71.800018 21.97998,72.869995c1.960022,3.120026 5.25,3.470001 9.960022,1.25c2.22998,-1.069977 4.269989,-1.689972 4.630005,-1.25c0.449982,0.360016 6.409973,20.910004 13.349976,45.650024c7.029999,24.72998 13.170013,45.459991 13.790009,46.169983c1.339996,1.430023 4.540009,0.619995 5.25,-1.329987c0.269989,-0.710022 -5.519989,-22.429993 -12.809998,-48.230011c-7.390015,-25.799988 -13.079987,-46.980011 -12.730011,-47.149994c3.390015,-1.160004 9.26001,-5.880005 9.700012,-7.73999c0.359985,-1.52002 -7.029999,-27.850006 -23.670013,-84.529999c-1.609985,-5.490021 -9.679993,-32.960022 -24.199982,-82.390015c1.22998,-2.779999 1.910004,-4.319992 2.049988,-4.630005c2.850006,-6.399994 2.929993,-17.87999 0.170013,-23.929993c-4.089996,-8.990005 -10.580017,-14.860001 -19.75,-17.619995c-0.330017,-0.110001 -1.990021,-0.639999 -4.980011,-1.600006c-0.160004,-2.880005 -0.25,-4.490005 -0.269989,-4.809998c-0.170013,-3.559998 0.089996,-5.160004 1.160004,-6.050003c1.959991,-1.600006 1.690002,-6.759995 -0.440002,-8.899994c-2.410004,-2.389999 -5.869995,-2.210007 -8.460022,0.449997c-2.48999,2.410004 -2.839996,5.520004 -0.879974,8.099991zm14.669983,42.180008c0,3.380005 -2.660004,7.199997 -5.959991,8.539993c-4,1.690002 -7.380005,0.980011 -10.48999,-2.319992c-4.540009,-4.710007 -2.670013,-12.630005 3.559998,-15.119995c2.569977,-1.070007 3.72998,-1.070007 7.109985,0.349991c3.119995,1.339996 5.779999,5.25 5.779999,8.550003z"/>
  <path id="e2i52PNFkh" d="m400.570007,511.880005l60.509979,0l60.500031,0l0,-170.830017l0,-170.829987l-60.500031,0l-60.509979,0l0,170.829987l0,170.830017zm92.089996,-298.51001l-17.970001,0.270004l-18.059998,0.180008c0,-4.170013 0,-6.480011 0,-6.940002c0,-3.830002 0.26001,-7.300003 0.619995,-7.660004c0.359985,-0.259995 8.450012,-0.440002 17.970001,-0.350006c1.170013,0.020004 6.980011,0.100006 17.440002,0.26001l0,7.119995l0,7.119995zm0,26.700012l-9.080017,0.259995l-9.159973,0.270004l0,-7.210007l0,-7.110001l9.339996,0l9.429993,0l-0.26001,6.850006l-0.269989,6.940002zm0.529999,27.130005l-18.320007,0l-18.23999,0l0,-7.120026l0,-7.109985l18.059998,0.169998l17.970001,0.270004l0.269989,6.850006l0.26001,6.940002zm0,13.619995l-0.26001,6.759979l-0.269989,6.76001l-9.080017,0.269989l-9.159973,0.27002c0,-4.220001 0,-6.570007 0,-7.029999c0,-3.830017 0.269989,-7.300018 0.619995,-7.570007c0.709991,-0.799988 7.299988,-0.799988 13.440002,0c0,0 1.569977,0.179993 4.709991,0.540009zm-0.089996,40.660004l-18.230011,0l-18.23999,0l0,-7.120026l0,-7.119995l18.23999,0l18.230011,0l0,7.119995l0,7.120026zm-0.440002,27.139984l-8.899994,0l-8.900024,0c-0.159973,-3.690002 -0.25,-5.73999 -0.259979,-6.139984c-0.179993,-3.380005 -0.089996,-6.680023 0.169983,-7.390015c0.360016,-0.980011 2.400024,-1.160004 9.170013,-0.980011c0.579987,0.02002 3.48999,0.110016 8.720001,0.27002l0,7.119995l0,0l0,7.119995zm0,26.690002l-17.970001,0.26001l-18.059998,0.179993l0,-7.119995l0,-7.119995l18.23999,0l18.320007,0l-0.26001,6.859985l-0.269989,6.940002zm0.529999,27.130005l-9.429993,0l-9.339996,0l0,-7.119995l0,-7.200012l9.159973,0.27002l9.080017,0.259979l0.269989,6.850006l0.26001,6.940002zm-0.529999,27.139984l-17.970001,0.27002l-18.059998,0.179993c0,-4.170013 0,-6.480011 0,-6.940002c0,-3.829987 0.26001,-7.299988 0.619995,-7.649994c0.359985,-0.269989 8.450012,-0.450012 17.970001,-0.360016c1.170013,0.02002 6.980011,0.110016 17.440002,0.27002l0,7.109985l0,7.119995zm0,26.690002l-9.080017,0.27002l-9.159973,0.269989l0,-7.209991l0,-7.119995l9.339996,0l9.429993,0l-0.26001,6.859985l-0.269989,6.929993zm0.529999,27.140015l-18.320007,0l-18.23999,0l0,-7.119995l0,-7.119995l18.059998,0.179993l17.970001,0.269989l0.269989,6.850006l0.26001,6.940002z"/>
 </defs>
 <g>
    <use x="-71.578125" y="-61.048828" fill="#ffffff" xlink:href="#b3t5MM4HV"/>
    <use x="-71.578125" y="-61.048828" stroke="#ffffff" fill-opacity="0" xlink:href="#b3t5MM4HV"/>
    <use x="-71.578125" y="-61.048828" fill="#ffffff" xlink:href="#e2i52PNFkh"/>
    <use x="-71.578125" y="-61.048828" stroke="#ffffff" fill-opacity="0" xlink:href="#e2i52PNFkh"/>
 </g>
</svg>