<svg width="640" height="640" xmlns="http://www.w3.org/2000/svg" xmlns:xlink="http://www.w3.org/1999/xlink" preserveAspectRatio="xMidYMid meet">
 <defs>
  <path id="b10R7u908V" d="m435.549988,222.070007c-7.449982,0 -67.069977,0 -74.519989,0c6.01001,-11.160004 9.589996,-24.230011 9.589996,-38.210007c0,-40.830002 -29.660004,-74.050003 -66.119995,-74.050003c-36.459991,0 -66.119995,33.220001 -66.119995,74.050003c0,13.979996 3.539993,27 9.589996,38.210007c-7.449997,0 -67.070007,0 -74.520004,0c-10.149994,0 -19.099991,7.299988 -22.229996,18.099991c-7.050003,24.430008 -63.520004,219.889999 -70.57,244.330002c-4.870003,16.920013 6.379997,34.25 22.229996,34.25c40.32,0 362.880013,0 403.199989,0c15.889984,0 27.139984,-17.329987 22.269989,-34.25c0,0 -63.519989,-219.899994 -70.569977,-244.330002c-3.130005,-10.800003 -12.130005,-18.099991 -22.230011,-18.099991zm-96.099976,-38.210007c0,18.720001 -11.76001,34.300003 -27.460022,38.210007c-1.5,0 -13.519989,0 -15.019989,0c-15.660004,-3.860001 -27.420013,-19.490005 -27.420013,-38.210007c0,-21.600006 15.710022,-39.130005 34.950012,-39.130005c19.290009,0 34.950012,17.580002 34.950012,39.130005zm-95.700012,206.37999l0,43.450012l-23.419998,0l0,-107.070007l23.419998,0l0,41.339996l9.639999,0l19.789993,-41.339996l25.160004,0l-25.799988,51.209991l0,0.320007l27.279999,55.589996l-26.230011,0l0,-0.049988l-20.199997,-43.450012l-9.639999,0zm133.440002,40.470001c0,-2.269989 0.139984,-4.47998 0.139984,-4.47998c-0.029999,0 -0.25,0 -0.279999,0c0,0 -9.22998,9.259979 -25.169983,9.259979c-24.470001,0 -46.920013,-20.519989 -46.920013,-55.589996c0,-31.169983 20.990021,-55.139984 50.149994,-55.139984c24.470001,0 36.77002,14.25 36.77002,14.25c-1.130005,1.959991 -10.130005,17.679993 -11.25,19.649994c0,0 -9.77002,-9.880005 -23.27002,-9.880005c-20.069977,0 -28.25,14.399994 -28.25,30.23999c0,20.370026 12.590027,32.5 27.420013,32.5c11.25,0 19.380005,-7.769989 19.380005,-7.769989c0,-0.549988 0,-3.279999 0,-8.220001c-0.899994,0 -5.399994,0 -13.5,0l0,-22.320007l34.25,0l0,60.480011l0.040009,0l-19.51001,0c0,-1.860016 0,-2.850006 0,-2.980011z"/>
  <path id="a24itoydau" d="m408.899994,310.679993c0,0 0,0 0,0c0,86.399994 0,134.390015 0,143.990021c0,0 0,0 0,0c-125.279999,0 -194.87999,0 -208.799988,0c0,0 0,0 0,0c0,-86.390015 0,-134.390015 0,-143.990021c0,0 0,0 0,0c125.279999,0 194.880005,0 208.799988,0z"/>
 </defs>
 <g>
   <use x="15.5" y="5.720703" id="svg_5" fill="#ffffff" xlink:href="#b10R7u908V"/>
   <use x="15.5" y="5.720703" id="svg_7" stroke-opacity="0" stroke="#000000" fill-opacity="0" xlink:href="#b10R7u908V"/>
 </g>
</svg>