<svg width="65" height="60" xmlns="http://www.w3.org/2000/svg" xmlns:xlink="http://www.w3.org/1999/xlink" preserveAspectRatio="xMidYMid meet">
 <defs>
  <path d="m52.529999,42.299999c0,1.110001 -0.699997,1.709999 -0.779999,1.900002c-0.52,0.52 -1.16,0.779999 -1.900002,0.779999c-5.359997,0 -8.329998,0 -8.93,0c-1.109997,0 -1.709999,-0.709999 -1.899998,-0.779999c-0.52,-0.530003 -0.779999,-1.16 -0.779999,-1.900002c0,-5.360001 0,-8.34 0,-8.93c0,-1.119999 0.709999,-1.709999 0.779999,-1.9c0.529999,-0.519999 1.16,-0.779999 1.899998,-0.779999l2.68,0l0,-5.360001l-14.289999,0l0,5.360001c1.610001,0 2.5,0 2.68,0c1.120001,0 1.710001,0.699999 1.9,0.779999c0.52,0.52 0.779999,1.15 0.779999,1.9c0,5.360001 0,8.330002 0,8.93c0,1.110001 -0.699997,1.709999 -0.779999,1.900002c-0.52,0.52 -1.149998,0.779999 -1.9,0.779999c-5.35,0 -8.33,0 -8.93,0c-1.109999,0 -1.699999,-0.709999 -1.889999,-0.779999c-0.52,-0.530003 -0.780001,-1.16 -0.780001,-1.900002c0,-5.360001 0,-8.34 0,-8.93c0,-1.119999 0.700001,-1.709999 0.780001,-1.9c0.52,-0.519999 1.15,-0.779999 1.889999,-0.779999l2.68,0l0,-5.360001l-14.28,0l0,5.360001c1.6,0 2.5,0 2.68,0c1.11,0 1.7,0.699999 1.89,0.779999c0.519999,0.52 0.779999,1.15 0.779999,1.9c0,5.360001 0,8.330002 0,8.93c0,1.110001 -0.699999,1.709999 -0.779999,1.900002c-0.52,0.52 -1.150001,0.779999 -1.89,0.779999c-5.360001,0 -8.34,0 -8.93,0c-1.12,0 -1.71,-0.709999 -1.9,-0.779999c-0.52,-0.530003 -0.78,-1.16 -0.78,-1.900002c0,-5.360001 0,-8.34 0,-8.93c0,-1.119999 0.7,-1.709999 0.78,-1.9c0.52,-0.519999 1.15,-0.779999 1.9,-0.779999l2.68,0c0,-3.210001 0,-5 0,-5.360001c0,-1.450001 0.95,-2.26 1.06,-2.51c0.7,-0.709999 1.54,-1.059999 2.51,-1.059999l14.28,0l0,-5.360001c-1.6,0 -2.5,0 -2.68,0c-1.109999,0 -1.699999,-0.7 -1.889999,-0.78c-0.52,-0.52 -0.780001,-1.15 -0.780001,-1.9c0,-5.35 0,-8.33 0,-8.92c0,-1.12 0.700001,-1.71 0.780001,-1.9c0.52,-0.52 1.15,-0.78 1.889999,-0.78c5.360001,0 8.34,0 8.93,0c1.120001,0 1.710001,0.7 1.9,0.78c0.52,0.52 0.779999,1.15 0.779999,1.9c0,5.349999 0,8.33 0,8.92c0,1.12 -0.699997,1.71 -0.779999,1.9c-0.52,0.52 -1.149998,0.78 -1.9,0.78l-2.68,0l0,5.360001c8.58,0 13.340002,0 14.289999,0c1.450001,0 2.260002,0.959999 2.510002,1.059999c0.709999,0.710001 1.059998,1.550001 1.059998,2.51l0,5.360001c1.610001,0 2.5,0 2.68,0c1.120003,0 1.710003,0.699999 1.900002,0.779999c0.52,0.52 0.779999,1.15 0.779999,1.9c0,5.360001 0,8.330002 0,8.93z" id="ckyJXaJJ9"/>
 </defs>
 <g>
  <g id="svg_1">
   <use xlink:href="#ckyJXaJJ9" fill="#ffffff" id="svg_4" y="6.624724" x="-2.044754" transform="rotate(-90, 25.4836, 30.1754)"/>
  </g>
  <g transform="matrix(0.0316667, 0, 0, 0.0330464, 47.3835, 30.5636)" id="svg_11">
   <path d="m181.142456,-436.123718c-7.246368,0 -14.546021,-2.079712 -20.833313,-6.391357l-102.408272,-70.356201c-15.931335,-10.956665 -19.554504,-32.159912 -8.045593,-47.377502c11.508911,-15.16687 33.780884,-18.616211 49.765503,-7.659485l75.394234,51.790527l147.218506,-168.560303c12.574585,-14.406006 35.059692,-16.384277 50.191772,-4.413086c15.132141,11.97113 17.210144,33.377258 4.635559,47.783264l-168.531372,192.95929c-6.97998,8.014648 -17.15686,12.224854 -27.387024,12.224854z" id="svg_7" fill="#ffffff"/>
  </g>
  <g transform="matrix(0.0316667, 0, 0, 0.0330464, 47.3835, 30.5636)" id="svg_15">
   <path d="m192.222778,94.761963c-7.246368,0 -14.546021,-2.079712 -20.833313,-6.391357l-102.408272,-70.356079c-15.931335,-10.956665 -19.554504,-32.159912 -8.045593,-47.377502c11.508911,-15.16687 33.780884,-18.616211 49.765503,-7.659485l75.394234,51.790527l147.218506,-168.560303c12.574585,-14.406006 35.059692,-16.384277 50.191772,-4.413086c15.132141,11.97113 17.210144,33.377258 4.635559,47.783264l-168.531372,192.959167c-6.97998,8.014648 -17.15686,12.224854 -27.387024,12.224854z" id="svg_14" fill="#ffffff"/>
  </g>
  <g transform="matrix(0.0316667, 0, 0, 0.0330464, 47.3835, 30.5636)" id="svg_18">
   <path d="m181.142456,642.391235c-7.246368,0 -14.546021,-2.079712 -20.833313,-6.391357l-102.408272,-70.356079c-15.931335,-10.956665 -19.554504,-32.159912 -8.045593,-47.377563c11.508911,-15.166809 33.780884,-18.61618 49.765503,-7.659454l75.394234,51.790558l147.218506,-168.560303c12.574585,-14.406006 35.059692,-16.384277 50.191772,-4.413086c15.132141,11.97113 17.210144,33.377258 4.635559,47.783264l-168.531372,192.959167c-6.97998,8.014648 -17.15686,12.224854 -27.387024,12.224854z" id="svg_17" fill="#ffffff"/>
  </g>
 </g>
</svg>