<svg width="350" height="350" xmlns="http://www.w3.org/2000/svg">
   <g id="svg_1">
    <path d="m286.80661,47.963791l-223.612015,0c-4.543442,0 -8.230835,3.90242 -8.230835,8.710815l0,236.651321c0,4.806946 3.687393,8.710785 8.230835,8.710785l223.612045,0c4.541412,0 8.230133,-3.904541 8.230133,-8.710785l0,-236.651321c0,-4.808395 -3.689423,-8.710815 -8.230164,-8.710815zm-185.885513,13.0709l148.15834,0l0,73.316185l-148.15834,0l0,-73.316185zm155.364487,222.491646l-162.562454,0l0,-108.525711l162.562454,0l0,108.525711zm-49.044327,-211.603302l20.581497,0l0,52.27063l-20.581497,0l0,-52.27063zm34.121399,129.937576l-132.72477,0l0,-8.710815l132.72477,0l0,8.710815zm0,30.48819l-132.72477,0l0,-8.7108l132.72477,0l0,8.7108zm0,29.400162l-132.72477,0l0,-8.710785l132.72477,0l0,8.710785z" fill="rgb(255, 255, 255)" id="svg_2"/>
   </g>
</svg>