<svg width="65" height="60" xmlns="http://www.w3.org/2000/svg" xmlns:xlink="http://www.w3.org/1999/xlink" preserveAspectRatio="xMidYMid meet">
 <g>
  <defs>
   <path id="svg_21" d="m244,1.15c-31.300003,3.6 -64.300003,13.7 -93.699997,28.899999c-52.300003,27 -95.200005,70.600002 -121.200003,123.399998c-14.200001,28.800003 -21.7,52.800003 -26.8,86.699997c-2.7,17.5 -2.4,58.600006 0.5,77.399994c8.7,56.5 31.799999,105.400024 69.2,146.700012c8.099998,8.899994 14.800003,12.700012 23.800003,13.5c10.5,1 13.799995,-0.700012 52.300003,-25.700012c19.5,-12.699982 37.099991,-24.699982 39.099991,-26.699982c7.300003,-7.100006 10.5,-20 7.400009,-30.399994c-5.200012,-18 -25.900009,-27.600006 -43,-20c-2.300003,1 -13.900009,8.199982 -25.900009,16c-20.599998,13.399994 -21.899994,14.199982 -23.299995,12.399994c-10.800003,-13.700012 -25.300003,-40.399994 -32,-58.800018c-14.800003,-41.299988 -16.400002,-88.199982 -4.300003,-130.899994c10.200005,-36.099991 29,-67.799988 56,-94.299995c18.200005,-17.799995 33.200005,-28.5 55.400002,-39.400002c31.199997,-15.299995 61.199997,-22.299995 95.5,-22.299995c33.5,0 63.600006,6.900002 93.899994,21.5c21,10.099998 38.200012,22.099998 55.5,38.900002c34.100006,33.099991 54.899994,73.099991 63.300018,121.5c2.699982,16 2.399994,51.099991 -0.600006,67.900009c-5.600006,31.799988 -16.800018,59.699982 -34.200012,85.099976c-3.799988,5.700012 -7.5,10.800018 -8.199982,11.300018c-0.900024,0.699982 -7,-2.800018 -21.700012,-12.5c-26.399994,-17.300018 -29.299988,-18.700012 -39,-18.700012c-9.200012,0 -16.799988,3.100006 -22.799988,9.300018c-6.300018,6.5 -8.600006,12.199982 -8.600006,21.599976c-0.100006,9.800018 2.5,16.200012 8.699982,22.300018c5.900024,5.600006 73.100006,49.199982 78.600006,50.899994c6.800018,2.100006 17.399994,1.200012 23.700012,-2c9.699982,-4.899994 33.600006,-32.799988 47.899994,-55.700012c39.5,-63.899994 51.5,-142.299988 33,-215.999985c-14.799988,-58.5 -50.399994,-113.300003 -96,-147.600002c-38.299988,-28.700001 -80.100006,-46.200001 -127.700012,-53.500001c-12.699982,-1.9 -52.299988,-3.4 -61.799988,-2.3c-1.899994,0.2 -7.800003,0.9 -13,1.5z"/>
   <path id="svg_20" d="m253,110.599998c0.100006,15.900002 16.700012,25.299995 30.200012,17.099998c11.5,-7 13.099976,-22.699997 3.199982,-31.899994c-3.899994,-3.600006 -7.399994,-4.800003 -14.299988,-4.800003c-4.600006,0 -6.600006,0.599998 -10.300018,2.900002c-5.599976,3.599998 -8.799988,9.599998 -8.799988,16.699997z"/>
   <path id="svg_19" d="m175.199997,156.5c7,2.899994 16.100006,1.300003 21.699997,-3.800003c7.900009,-7.199997 7.900009,-22.199997 0,-29.399994c-5.599991,-5.100006 -15,-6.700005 -21.899994,-3.700005c-16.199997,7 -16,30.099998 0.199997,36.900002z"/>
   <path id="svg_18" d="m353.899994,155.699997c11.899994,6.300003 27.600006,-1.599991 28.899994,-14.599991c0.200012,-2.700012 0.100006,-6.600006 -0.199982,-8.600006c-0.800018,-4.300003 -6.800018,-11.300003 -11.300018,-13.199997c-4.5,-1.800003 -12.099976,-1.600006 -16.799988,0.599998c-14.700012,6.699997 -15.100006,28.099998 -0.600006,35.799995z"/>
   <path id="svg_17" d="m104.099998,203.300003c-1.599998,4.300003 -1.299995,11.699997 0.800003,16.199997c6.699997,14.800003 28.099998,15.199997 35.799995,0.600006c5.199997,-9.900009 1.300003,-22 -8.899994,-27.200012c-4.400002,-2.199997 -12.800003,-2.5 -17.300003,-0.5c-3.800003,1.700012 -9,7.200012 -10.400002,10.900009z"/>
   <path id="svg_16" d="m303.5,224.600006c-3,-1.320007 -4.670013,-2.050003 -5,-2.200012c-18.5,-8.5 -41.899994,-6.699997 -58.399994,4.200012c-20.200012,13.399994 -30.400009,37.899994 -25.700012,61.5c5.700012,28.199982 29.300003,48 57.600006,48.199982c5.200012,0.100006 12,-0.5 15,-1.199982c19.600006,-4.700012 36.5,-20.200012 43,-39.600006c0.130005,-0.399994 0.799988,-2.399994 2,-6c30.059998,-19.200012 46.76001,-29.869995 50.100006,-32c32.199982,-20.5 51.100006,-33.199997 52.699982,-35.300003c5.400024,-7.099991 3.700012,-18.399994 -3.5,-23.899994c-6.699982,-5.100006 -8.699982,-4.800003 -71.299988,11.599991c-7.529999,1.960007 -26.369995,6.860001 -56.5,14.700012zm-25.600006,71.5c-5.699982,1.5 -10.299988,0.600006 -16.100006,-3c-6.299988,-4 -9.199982,-10.100006 -8.599991,-18.100006c0.5,-7.700012 4.099991,-13 11.099991,-16.5c6.5,-3.199997 11,-3.199997 17.800018,0.200012c16.899994,8.699982 14.299988,32.5 -4.200012,37.399994z"/>
   <path id="svg_15" d="m423.200012,322.100006c3.299988,1.699982 5.5,2 10.399994,1.699982c11.399994,-0.699982 18.399994,-8 18.399994,-19.299988c0,-7 -1.700012,-11.200012 -6.299988,-15.200012c-6.600006,-5.799988 -14.5,-6.699982 -22.5,-2.699982c-14.5,7.199982 -14.5,28.100006 0,35.5z"/>
   <path id="svg_14" d="m94.5,310.200012c1.400002,5.699982 5.400002,10.299988 11,12.899994c5.599998,2.600006 11.099998,2.399994 17.300003,-0.700012c18.699997,-9.299988 11.800003,-37.600006 -9,-37.299988c-2.900002,0 -6.400002,0.5 -7.700005,1c-9.599998,3.799988 -14.299995,13.699982 -11.599998,24.100006z"/>
  </defs>
   <g transform="matrix(0.0835756, 0, 0, 0.0847985, -0.515347, -3.14748)" id="svg_23">
      <use x="119.310976" y="152.2649" id="svg_28" fill="#ffffff" xlink:href="#svg_21"/>
      <use x="119.310976" y="152.2649" id="svg_32" fill="#ffffff" xlink:href="#svg_20"/>
      <use x="119.310976" y="152.2649" id="svg_36" fill="#ffffff" xlink:href="#svg_19"/>
      <use x="119.310976" y="152.2649" id="svg_40" fill="#ffffff" xlink:href="#svg_18"/>
      <use x="119.310976" y="152.2649" id="svg_45" fill="#ffffff" xlink:href="#svg_17"/>
      <use x="119.310976" y="152.2649" id="svg_49" fill="#ffffff" xlink:href="#svg_16"/>
      <use x="119.310976" y="152.2649" id="svg_53" fill="#ffffff" xlink:href="#svg_15"/>
      <use x="119.310976" y="152.2649" id="svg_57" fill="#ffffff" xlink:href="#svg_14"/>
   </g>
  </g>
</svg>