<svg width="65" height="60" xmlns="http://www.w3.org/2000/svg" xmlns:xlink="http://www.w3.org/1999/xlink" preserveAspectRatio="xMidYMid meet">
 <defs>
	<path d="m52.529999,42.299999c0,1.110001 -0.699997,1.709999 -0.779999,1.900002c-0.52,0.52 -1.16,0.779999 -1.900002,0.779999c-5.359997,0 -8.329998,0 -8.93,0c-1.109997,0 -1.709999,-0.709999 -1.899998,-0.779999c-0.52,-0.530003 -0.779999,-1.16 -0.779999,-1.900002c0,-5.360001 0,-8.34 0,-8.93c0,-1.119999 0.709999,-1.709999 0.779999,-1.9c0.529999,-0.519999 1.16,-0.779999 1.899998,-0.779999l2.68,0l0,-5.360001l-14.289999,0l0,5.360001c1.610001,0 2.5,0 2.68,0c1.120001,0 1.710001,0.699999 1.9,0.779999c0.52,0.52 0.779999,1.15 0.779999,1.9c0,5.360001 0,8.330002 0,8.93c0,1.110001 -0.699997,1.709999 -0.779999,1.900002c-0.52,0.52 -1.149998,0.779999 -1.9,0.779999c-5.35,0 -8.33,0 -8.93,0c-1.109999,0 -1.699999,-0.709999 -1.889999,-0.779999c-0.52,-0.530003 -0.780001,-1.16 -0.780001,-1.900002c0,-5.360001 0,-8.34 0,-8.93c0,-1.119999 0.700001,-1.709999 0.780001,-1.9c0.52,-0.519999 1.15,-0.779999 1.889999,-0.779999l2.68,0l0,-5.360001l-14.28,0l0,5.360001c1.6,0 2.5,0 2.68,0c1.11,0 1.7,0.699999 1.89,0.779999c0.519999,0.52 0.779999,1.15 0.779999,1.9c0,5.360001 0,8.330002 0,8.93c0,1.110001 -0.699999,1.709999 -0.779999,1.900002c-0.52,0.52 -1.150001,0.779999 -1.89,0.779999c-5.360001,0 -8.34,0 -8.93,0c-1.12,0 -1.71,-0.709999 -1.9,-0.779999c-0.52,-0.530003 -0.78,-1.16 -0.78,-1.900002c0,-5.360001 0,-8.34 0,-8.93c0,-1.119999 0.7,-1.709999 0.78,-1.9c0.52,-0.519999 1.15,-0.779999 1.9,-0.779999l2.68,0c0,-3.210001 0,-5 0,-5.360001c0,-1.450001 0.95,-2.26 1.06,-2.51c0.7,-0.709999 1.54,-1.059999 2.51,-1.059999l14.28,0l0,-5.360001c-1.6,0 -2.5,0 -2.68,0c-1.109999,0 -1.699999,-0.7 -1.889999,-0.78c-0.52,-0.52 -0.780001,-1.15 -0.780001,-1.9c0,-5.35 0,-8.33 0,-8.92c0,-1.12 0.700001,-1.71 0.780001,-1.9c0.52,-0.52 1.15,-0.78 1.889999,-0.78c5.360001,0 8.34,0 8.93,0c1.120001,0 1.710001,0.7 1.9,0.78c0.52,0.52 0.779999,1.15 0.779999,1.9c0,5.349999 0,8.33 0,8.92c0,1.12 -0.699997,1.71 -0.779999,1.9c-0.52,0.52 -1.149998,0.78 -1.9,0.78l-2.68,0l0,5.360001c8.58,0 13.340002,0 14.289999,0c1.450001,0 2.260002,0.959999 2.510002,1.059999c0.709999,0.710001 1.059998,1.550001 1.059998,2.51l0,5.360001c1.610001,0 2.5,0 2.68,0c1.120003,0 1.710003,0.699999 1.900002,0.779999c0.52,0.52 0.779999,1.15 0.779999,1.9c0,5.360001 0,8.330002 0,8.93z" id="ckyJXaJJ9"/>
 </defs>
 <g>
  <use xlink:href="#ckyJXaJJ9" fill="#ffffff" id="svg_4" y="6.890691" x="-0.469781" transform="rotate(-90 27.05859375,30.44140625)"/>
  <g transform="rotate(155.814, 54.5549, 22.5017)" id="svg_24">
   <path fill="#ffffff" d="m49.068512,24.813086c0.025745,-0.343277 0.073063,-0.686974 0.142628,-1.029343c0.756596,-3.72332 3.927639,-6.385769 7.601608,-6.738247l-2.158875,-2.113552c-0.359985,-0.352417 -0.359985,-0.923759 0,-1.276176c0.359932,-0.352421 0.943596,-0.352421 1.303581,0l3.839706,3.758991c0.000122,0.000118 0.000244,0.000301 0.000366,0.00042c0.021881,0.021477 0.042648,0.043858 0.062195,0.067322c0.008842,0.010525 0.016342,0.021656 0.024513,0.032486c0.009468,0.012512 0.019424,0.024666 0.028267,0.037659c0.011559,0.016907 0.021698,0.034412 0.031898,0.051857c0.004547,0.007763 0.009651,0.015221 0.014015,0.023102c0.009277,0.017025 0.017204,0.034534 0.025314,0.051979c0.004303,0.009266 0.009155,0.018288 0.013153,0.027676c0.006447,0.015278 0.011673,0.0308 0.017265,0.046261c0.004425,0.012455 0.009338,0.024727 0.013336,0.037361c0.003868,0.012573 0.006699,0.025269 0.010017,0.03796c0.004173,0.016003 0.008728,0.031887 0.011986,0.048187c0.001961,0.00993 0.003067,0.019913 0.00473,0.029842c0.003189,0.01907 0.006508,0.038078 0.008476,0.057453c0.000862,0.00848 0.000862,0.017025 0.001411,0.025505c0.001472,0.020515 0.003014,0.041031 0.003014,0.061787c0.000061,0.013535 -0.001289,0.026951 -0.001846,0.040428c-0.000732,0.015579 -0.000732,0.03104 -0.002266,0.046684c-0.002892,0.029961 -0.007439,0.059738 -0.013397,0.089275c-0.000069,0.00024 -0.000069,0.000542 -0.000122,0.000782c-0.000679,0.003311 -0.001785,0.006439 -0.002525,0.009747c-0.005531,0.02581 -0.011856,0.051437 -0.01973,0.076767c-0.002823,0.009022 -0.006386,0.017685 -0.00946,0.026588c-0.006638,0.019012 -0.013145,0.038021 -0.021011,0.056671c-0.005165,0.012215 -0.011314,0.023766 -0.016907,0.035614c-0.006943,0.014679 -0.013702,0.02948 -0.021507,0.043858c-0.007927,0.014439 -0.016777,0.028095 -0.025375,0.041992c-0.006882,0.011131 -0.013397,0.022499 -0.020836,0.03339c-0.01149,0.016846 -0.024025,0.032726 -0.036499,0.048668c-0.005898,0.007462 -0.011185,0.015221 -0.017273,0.022499c-0.017204,0.020515 -0.035454,0.040009 -0.054382,0.058899c-0.002396,0.002346 -0.004364,0.004993 -0.00676,0.007339l-0.001228,0.001202c-0.000984,0.000904 -0.001846,0.001808 -0.002769,0.002708l-3.835823,3.755264c-0.179993,0.176208 -0.415909,0.264343 -0.651764,0.264343c-0.235855,0 -0.471825,-0.088135 -0.651817,-0.264343c-0.359985,-0.35236 -0.359985,-0.923763 0,-1.27618l2.386543,-2.336384c-2.90686,0.258511 -5.423748,2.358582 -6.021,5.298374c-0.081974,0.403492 -0.124683,0.809395 -0.129601,1.212891c-0.01899,1.54678 0.517483,3.058605 1.52739,4.267647c0.131687,0.157681 0.271492,0.310246 0.419102,0.457035c0.35722,0.355129 0.352612,0.926468 -0.010078,1.276123c-0.157131,0.151482 -0.355625,0.236427 -0.559216,0.255318c-0.029064,0.002708 -0.058254,0.004032 -0.087444,0.004032c-0.238308,0 -0.476498,-0.089939 -0.65686,-0.269279c-1.753532,-1.743202 -2.634201,-4.12368 -2.454144,-6.526482z" id="svg_7"/>
  </g>
  <g transform="rotate(155.814, 54.849, 43.6781)" id="svg_42">
   <path fill="#ffffff" d="m49.362629,45.989555c0.025745,-0.343277 0.073063,-0.686974 0.142628,-1.029343c0.756596,-3.72332 3.927639,-6.385769 7.601608,-6.738247l-2.158875,-2.113552c-0.359985,-0.352417 -0.359985,-0.923759 0,-1.276176c0.359932,-0.352421 0.943596,-0.352421 1.303581,0l3.839706,3.758991c0.000122,0.000118 0.000244,0.000301 0.000366,0.00042c0.021881,0.021477 0.042648,0.043858 0.062195,0.067322c0.008842,0.010525 0.016342,0.021656 0.024513,0.032486c0.009468,0.012512 0.019424,0.024666 0.028267,0.037659c0.011559,0.016907 0.021698,0.034412 0.031898,0.051857c0.004547,0.007763 0.009651,0.015221 0.014015,0.023102c0.009277,0.017025 0.017204,0.034534 0.025314,0.051979c0.004303,0.009266 0.009155,0.018288 0.013153,0.027676c0.006447,0.015278 0.011673,0.0308 0.017265,0.046261c0.004425,0.012455 0.009338,0.024727 0.013336,0.037361c0.003868,0.012573 0.006699,0.025269 0.010017,0.03796c0.004173,0.016003 0.008728,0.031887 0.011986,0.048187c0.001961,0.00993 0.003067,0.019913 0.00473,0.029842c0.003189,0.01907 0.006508,0.038078 0.008476,0.057453c0.000862,0.00848 0.000862,0.017025 0.001411,0.025505c0.001472,0.020515 0.003014,0.041031 0.003014,0.061787c0.000061,0.013535 -0.001289,0.026951 -0.001846,0.040428c-0.000732,0.015579 -0.000732,0.03104 -0.002266,0.046684c-0.002892,0.029961 -0.007439,0.059738 -0.013397,0.089275c-0.000069,0.00024 -0.000069,0.000542 -0.000122,0.000782c-0.000679,0.003311 -0.001785,0.006439 -0.002525,0.009747c-0.005531,0.02581 -0.011856,0.051437 -0.01973,0.076767c-0.002823,0.009022 -0.006386,0.017685 -0.00946,0.026588c-0.006638,0.019012 -0.013145,0.038021 -0.021011,0.056671c-0.005165,0.012215 -0.011314,0.023766 -0.016907,0.035614c-0.006943,0.014679 -0.013702,0.02948 -0.021507,0.043858c-0.007927,0.014439 -0.016777,0.028095 -0.025375,0.041992c-0.006882,0.011131 -0.013397,0.022499 -0.020836,0.03339c-0.01149,0.016846 -0.024025,0.032726 -0.036499,0.048668c-0.005898,0.007462 -0.011185,0.015221 -0.017273,0.022499c-0.017204,0.020515 -0.035454,0.040009 -0.054382,0.058899c-0.002396,0.002346 -0.004364,0.004993 -0.00676,0.007339l-0.001228,0.001202c-0.000984,0.000904 -0.001846,0.001808 -0.002769,0.002708l-3.835823,3.755264c-0.179993,0.176208 -0.415909,0.264343 -0.651764,0.264343c-0.235855,0 -0.471825,-0.088135 -0.651817,-0.264343c-0.359985,-0.35236 -0.359985,-0.923763 0,-1.27618l2.386543,-2.336384c-2.90686,0.258511 -5.423748,2.358582 -6.021,5.298374c-0.081974,0.403492 -0.124683,0.809395 -0.129601,1.212891c-0.01899,1.54678 0.517483,3.058605 1.52739,4.267647c0.131687,0.157681 0.271492,0.310246 0.419102,0.457035c0.35722,0.355129 0.352612,0.926468 -0.010078,1.276123c-0.157131,0.151482 -0.355625,0.236427 -0.559216,0.255318c-0.029064,0.002708 -0.058254,0.004032 -0.087444,0.004032c-0.238308,0 -0.476498,-0.089939 -0.65686,-0.269279c-1.753532,-1.743202 -2.634201,-4.12368 -2.454144,-6.526482z" id="svg_26"/>
  </g>
 </g>
</svg>