<?xml version="1.0" encoding="UTF-8" standalone="no"?>
<svg
   xmlns:dc="http://purl.org/dc/elements/1.1/"
   xmlns:cc="http://creativecommons.org/ns#"
   xmlns:rdf="http://www.w3.org/1999/02/22-rdf-syntax-ns#"
   xmlns:svg="http://www.w3.org/2000/svg"
   xmlns="http://www.w3.org/2000/svg"
   xmlns:xlink="http://www.w3.org/1999/xlink"
   xmlns:sodipodi="http://sodipodi.sourceforge.net/DTD/sodipodi-0.dtd"
   xmlns:inkscape="http://www.inkscape.org/namespaces/inkscape"
   version="1.1"
   preserveAspectRatio="xMidYMid meet"
   viewBox="0 0 640 640"
   width="640"
   height="640"
   id="svg19"
   sodipodi:docname="fp_abajo_inha_blanco_on.svg"
   inkscape:version="0.92.5 (2060ec1f9f, 2020-04-08)">
  <metadata
     id="metadata23">
    <rdf:RDF>
      <cc:Work
         rdf:about="">
        <dc:format>image/svg+xml</dc:format>
        <dc:type
           rdf:resource="http://purl.org/dc/dcmitype/StillImage" />
        <dc:title></dc:title>
      </cc:Work>
    </rdf:RDF>
  </metadata>
  <sodipodi:namedview
     pagecolor="#ffffff"
     bordercolor="#666666"
     borderopacity="1"
     objecttolerance="10"
     gridtolerance="10"
     guidetolerance="10"
     inkscape:pageopacity="0"
     inkscape:pageshadow="2"
     inkscape:window-width="1920"
     inkscape:window-height="1017"
     id="namedview21"
     showgrid="false"
     inkscape:zoom="0.36875"
     inkscape:cx="-200.99883"
     inkscape:cy="320"
     inkscape:window-x="-8"
     inkscape:window-y="-8"
     inkscape:window-maximized="1"
     inkscape:current-layer="svg19" />
  <defs
     id="defs5">
    <path
       d="M640 -1C640 -1 640 -1 640 -1C640 63.75 640 581.71 640 646.45C640 646.45 640 646.45 640 646.45C575.9 646.45 63.1 646.45 -1 646.45C-1 646.45 -1 646.45 -1 646.45C-1 581.71 -1 63.75 -1 -1C-1 -1 -1 -1 -1 -1C127.2 -1 575.9 -1 640 -1Z"
       id="b3xlRC9Z0i" />
    <path
       d="M344.57 21L356.66 22.23L368.6 23.94L380.38 26.11L392.01 28.74L403.46 31.81L414.72 35.32L425.79 39.26L436.66 43.62L447.32 48.38L457.75 53.54L467.95 59.09L477.91 65.02L487.62 71.31L497.06 77.96L506.24 84.97L515.13 92.31L523.73 99.98L532.03 107.97L540.02 116.27L547.7 124.88L555.04 133.77L562.04 142.94L568.7 152.39L574.99 162.1L580.92 172.05L586.46 182.26L591.62 192.69L596.39 203.34L600.74 214.21L604.68 225.28L608.19 236.55L611.27 248L613.89 259.62L616.07 271.41L617.77 283.35L619 295.44L619.75 307.66L620 320.01L619.75 332.35L619 344.58L617.77 356.66L616.07 368.6L613.89 380.39L611.27 392.01L608.19 403.46L604.68 414.73L600.74 425.8L596.39 436.67L591.62 447.32L586.46 457.76L580.92 467.96L574.99 477.92L568.7 487.62L562.04 497.07L555.04 506.24L547.7 515.13L540.02 523.74L532.03 532.04L523.73 540.03L515.13 547.7L506.24 555.04L497.06 562.05L487.62 568.7L477.91 575L467.95 580.92L457.75 586.47L447.32 591.63L436.66 596.39L425.79 600.75L414.72 604.69L403.46 608.2L392.01 611.27L380.38 613.9L368.6 616.07L356.66 617.78L344.57 619.01L332.35 619.75L320 620L307.65 619.75L295.43 619.01L283.34 617.78L271.4 616.07L259.62 613.9L247.99 611.27L236.54 608.2L225.28 604.69L214.21 600.75L203.34 596.39L192.68 591.63L182.25 586.47L172.05 580.92L162.09 575L152.38 568.7L142.94 562.05L133.76 555.04L124.87 547.7L116.27 540.03L107.97 532.04L99.98 523.74L92.3 515.13L84.96 506.24L77.96 497.07L71.3 487.62L65.01 477.92L59.08 467.96L53.54 457.76L48.38 447.32L43.61 436.67L39.26 425.8L35.32 414.73L31.81 403.46L28.73 392.01L26.11 380.39L23.93 368.6L22.23 356.66L21 344.58L20.25 332.35L20 320.01L20.25 307.66L21 295.44L22.23 283.35L23.93 271.41L26.11 259.62L28.73 248L31.81 236.55L35.32 225.28L39.26 214.21L43.61 203.34L48.38 192.69L53.54 182.26L59.08 172.05L65.01 162.1L71.3 152.39L77.96 142.94L84.96 133.77L92.3 124.88L99.98 116.27L107.97 107.97L116.27 99.98L124.87 92.31L133.76 84.97L142.94 77.96L152.38 71.31L162.09 65.02L172.05 59.09L182.25 53.54L192.68 48.38L203.34 43.62L214.21 39.26L225.28 35.32L236.54 31.81L247.99 28.74L259.62 26.11L271.4 23.94L283.34 22.23L295.43 21L307.65 20.26L320 20L332.35 20.26L344.57 21ZM303.22 115.82L294.97 116.66L286.81 117.83L278.76 119.31L270.83 121.11L263.01 123.21L255.32 125.6L247.76 128.29L240.33 131.27L233.06 134.52L225.93 138.04L218.97 141.83L212.17 145.88L205.54 150.18L199.09 154.72L192.82 159.5L186.75 164.52L180.88 169.75L175.21 175.21L169.75 180.88L164.51 186.76L159.5 192.83L154.72 199.09L150.17 205.54L145.87 212.17L141.83 218.97L138.04 225.94L134.51 233.06L131.26 240.34L128.29 247.76L125.6 255.32L123.2 263.01L121.1 270.83L119.31 278.77L117.82 286.82L116.66 294.97L115.82 303.23L115.31 311.57L115.14 320.01L115.31 328.44L115.82 336.78L116.66 345.04L117.82 353.19L119.31 361.24L121.1 369.18L123.2 377L125.6 384.69L128.29 392.25L131.26 399.67L134.51 406.95L138.04 414.07L141.83 421.04L145.87 427.84L150.17 434.47L154.72 440.92L159.5 447.18L164.51 453.25L169.75 459.13L175.21 464.8L180.88 470.26L186.75 475.49L192.82 480.51L199.09 485.29L205.54 489.83L212.17 494.13L218.97 498.18L225.93 501.97L233.06 505.49L240.33 508.74L247.76 511.72L255.32 514.41L263.01 516.8L270.83 518.9L278.76 520.7L286.81 522.18L294.97 523.35L303.22 524.19L311.57 524.7L320 524.87L328.43 524.7L336.78 524.19L345.03 523.35L353.19 522.18L361.24 520.7L369.17 518.9L376.99 516.8L384.68 514.41L392.24 511.72L399.67 508.74L406.94 505.49L414.07 501.97L421.03 498.18L427.83 494.13L434.46 489.83L440.91 485.29L447.18 480.51L453.25 475.49L459.12 470.25L464.79 464.8L470.25 459.13L475.49 453.25L480.5 447.18L485.28 440.92L489.83 434.47L494.13 427.84L498.17 421.04L501.96 414.07L505.49 406.95L508.74 399.67L511.71 392.25L514.4 384.69L516.8 377L518.9 369.18L520.69 361.24L522.18 353.19L523.34 345.04L524.18 336.78L524.69 328.44L524.86 320.01L524.69 311.57L524.18 303.23L523.34 294.97L522.18 286.82L520.69 278.77L518.9 270.83L516.8 263.01L514.4 255.32L511.71 247.76L508.74 240.34L505.49 233.06L501.96 225.94L498.17 218.97L494.13 212.17L489.83 205.54L485.28 199.09L480.5 192.83L475.49 186.76L470.25 180.88L464.79 175.21L459.12 169.75L453.25 164.52L447.18 159.5L440.91 154.72L434.46 150.18L427.83 145.88L421.03 141.83L414.07 138.04L406.94 134.52L399.67 131.27L392.24 128.29L384.68 125.6L376.99 123.21L369.17 121.11L361.24 119.31L353.19 117.83L345.03 116.66L336.78 115.82L328.43 115.31L320 115.14L311.57 115.31L303.22 115.82Z"
       id="a4pGd7cuE9" />
    <path
       d="M214.41 166.32C214.41 195.93 214.41 432.76 214.41 462.37C214.41 479.32 227.97 490.88 241.42 483.42C259.71 473.26 474.27 348.48 490.07 340C506.6 331.18 510.84 314.99 492.07 303.57C470.87 290.61 258.66 152.38 246.01 145.2C230.28 136.16 214.41 150.94 214.41 166.32Z"
       id="d16cqKKkos" />
  </defs>
  <g
     id="g4759"
     transform="rotate(90,319.99998,320)">
    <g
       transform="matrix(0.96666667,0,0,0.96666667,10.666667,10.666667)"
       id="g13">
      <use
         height="100%"
         width="100%"
         y="0"
         x="0"
         style="opacity:1;fill:#00ff00;fill-opacity:1"
         id="use11"
         xlink:href="#d16cqKKkos" />
    </g>
    <g
       style="fill:#7d7d7d;fill-opacity:1"
       transform="matrix(0.96666667,0,0,0.96666667,10.666642,10.666667)"
       id="g9">
      <path
         style="fill:#7d7d7d;fill-opacity:1"
         d="m 344.57,21 12.09,1.23 11.94,1.71 11.78,2.17 11.63,2.63 11.45,3.07 11.26,3.51 11.07,3.94 10.87,4.36 10.66,4.76 10.43,5.16 10.2,5.55 9.96,5.93 9.71,6.29 9.44,6.65 9.18,7.01 8.89,7.34 8.6,7.67 8.3,7.99 7.99,8.3 7.68,8.61 7.34,8.89 7,9.17 6.66,9.45 6.29,9.71 5.93,9.95 5.54,10.21 5.16,10.43 4.77,10.65 4.35,10.87 3.94,11.07 3.51,11.27 3.08,11.45 2.62,11.62 2.18,11.79 1.7,11.94 1.23,12.09 0.75,12.22 0.25,12.35 -0.25,12.34 -0.75,12.23 -1.23,12.08 -1.7,11.94 -2.18,11.79 -2.62,11.62 -3.08,11.45 -3.51,11.27 -3.94,11.07 -4.35,10.87 -4.77,10.65 -5.16,10.44 -5.54,10.2 -5.93,9.96 -6.29,9.7 -6.66,9.45 -7,9.17 -7.34,8.89 -7.68,8.61 -7.99,8.3 -8.3,7.99 -8.6,7.67 -8.89,7.34 -9.18,7.01 -9.44,6.65 -9.71,6.3 -9.96,5.92 -10.2,5.55 -10.43,5.16 -10.66,4.76 -10.87,4.36 -11.07,3.94 -11.26,3.51 -11.45,3.07 -11.63,2.63 -11.78,2.17 -11.94,1.71 -12.09,1.23 -12.22,0.74 -12.35,0.25 -12.35,-0.25 -12.22,-0.74 -12.09,-1.23 -11.94,-1.71 -11.78,-2.17 -11.63,-2.63 -11.45,-3.07 -11.26,-3.51 -11.07,-3.94 -10.87,-4.36 -10.66,-4.76 -10.43,-5.16 -10.2,-5.55 -9.96,-5.92 -9.71,-6.3 -9.44,-6.65 -9.18,-7.01 -8.89,-7.34 -8.6,-7.67 -8.3,-7.99 -7.99,-8.3 -7.68,-8.61 -7.34,-8.89 -7,-9.17 -6.66,-9.45 -6.29,-9.7 -5.93,-9.96 -5.54,-10.2 L 48.38,447.32 43.61,436.67 39.26,425.8 35.32,414.73 31.81,403.46 28.73,392.01 26.11,380.39 23.93,368.6 22.23,356.66 21,344.58 20.25,332.35 20,320.01 20.25,307.66 21,295.44 l 1.23,-12.09 1.7,-11.94 2.18,-11.79 2.62,-11.62 3.08,-11.45 3.51,-11.27 3.94,-11.07 4.35,-10.87 4.77,-10.65 5.16,-10.43 5.54,-10.21 5.93,-9.95 6.29,-9.71 6.66,-9.45 7,-9.17 7.34,-8.89 7.68,-8.61 7.99,-8.3 8.3,-7.99 8.6,-7.67 8.89,-7.34 9.18,-7.01 9.44,-6.65 9.71,-6.29 9.96,-5.93 10.2,-5.55 10.43,-5.16 10.66,-4.76 10.87,-4.36 11.07,-3.94 11.26,-3.51 11.45,-3.07 11.63,-2.63 11.78,-2.17 11.94,-1.71 L 295.43,21 307.65,20.26 320,20 l 12.35,0.26 z m -41.35,94.82 -8.25,0.84 -8.16,1.17 -8.05,1.48 -7.93,1.8 -7.82,2.1 -7.69,2.39 -7.56,2.69 -7.43,2.98 -7.27,3.25 -7.13,3.52 -6.96,3.79 -6.8,4.05 -6.63,4.3 -6.45,4.54 -6.27,4.78 -6.07,5.02 -5.87,5.23 -5.67,5.46 -5.46,5.67 -5.24,5.88 -5.01,6.07 -4.78,6.26 -4.55,6.45 -4.3,6.63 -4.04,6.8 -3.79,6.97 -3.53,7.12 -3.25,7.28 -2.97,7.42 -2.69,7.56 -2.4,7.69 -2.1,7.82 -1.79,7.94 -1.49,8.05 -1.16,8.15 -0.84,8.26 -0.51,8.34 -0.17,8.44 0.17,8.43 0.51,8.34 0.84,8.26 1.16,8.15 1.49,8.05 1.79,7.94 2.1,7.82 2.4,7.69 2.69,7.56 2.97,7.42 3.25,7.28 3.53,7.12 3.79,6.97 4.04,6.8 4.3,6.63 4.55,6.45 4.78,6.26 5.01,6.07 5.24,5.88 5.46,5.67 5.67,5.46 5.87,5.23 6.07,5.02 6.27,4.78 6.45,4.54 6.63,4.3 6.8,4.05 6.96,3.79 7.13,3.52 7.27,3.25 7.43,2.98 7.56,2.69 7.69,2.39 7.82,2.1 7.93,1.8 8.05,1.48 8.16,1.17 8.25,0.84 8.35,0.51 8.43,0.17 8.43,-0.17 8.35,-0.51 8.25,-0.84 8.16,-1.17 8.05,-1.48 7.93,-1.8 7.82,-2.1 7.69,-2.39 7.56,-2.69 7.43,-2.98 7.27,-3.25 7.13,-3.52 6.96,-3.79 6.8,-4.05 6.63,-4.3 6.45,-4.54 6.27,-4.78 6.07,-5.02 5.87,-5.24 5.67,-5.45 5.46,-5.67 5.24,-5.88 5.01,-6.07 4.78,-6.26 4.55,-6.45 4.3,-6.63 4.04,-6.8 3.79,-6.97 3.53,-7.12 3.25,-7.28 2.97,-7.42 2.69,-7.56 2.4,-7.69 2.1,-7.82 1.79,-7.94 1.49,-8.05 1.16,-8.15 0.84,-8.26 0.51,-8.34 0.17,-8.43 -0.17,-8.44 -0.51,-8.34 -0.84,-8.26 -1.16,-8.15 -1.49,-8.05 -1.79,-7.94 -2.1,-7.82 -2.4,-7.69 -2.69,-7.56 -2.97,-7.42 -3.25,-7.28 -3.53,-7.12 -3.79,-6.97 -4.04,-6.8 -4.3,-6.63 -4.55,-6.45 -4.78,-6.26 -5.01,-6.07 -5.24,-5.88 -5.46,-5.67 -5.67,-5.46 -5.87,-5.23 -6.07,-5.02 -6.27,-4.78 -6.45,-4.54 -6.63,-4.3 -6.8,-4.05 -6.96,-3.79 -7.13,-3.52 -7.27,-3.25 -7.43,-2.98 -7.56,-2.69 -7.69,-2.39 -7.82,-2.1 -7.93,-1.8 -8.05,-1.48 -8.16,-1.17 -8.25,-0.84 -8.35,-0.51 -8.43,-0.17 -8.43,0.17 z"
         id="use7"
         inkscape:connector-curvature="0" />
    </g>
    <path
       inkscape:connector-curvature="0"
       id="rect831"
       d="M 4.5070424,4.5070412 V 635.49296 H 635.49291 V 4.5070412 Z M 18.468342,17.306341 H 621.53158 V 622.6919 H 18.468342 Z"
       style="fill:#7d7d7d;fill-opacity:1;fill-rule:nonzero;stroke:#7d7d7d;stroke-width:9.01408482;stroke-linecap:round;stroke-linejoin:round;stroke-miterlimit:4;stroke-dasharray:none;stroke-opacity:1" />
  </g>
</svg>
