<?xml version="1.0" encoding="UTF-8"?>
<svg version="1.1" viewBox="0 0 270.57 270.57" xmlns="http://www.w3.org/2000/svg" xmlns:cc="http://creativecommons.org/ns#" xmlns:dc="http://purl.org/dc/elements/1.1/" xmlns:rdf="http://www.w3.org/1999/02/22-rdf-syntax-ns#" xmlns:xlink="http://www.w3.org/1999/xlink">
<defs>
<filter id="a" color-interpolation-filters="sRGB">
<feGaussianBlur stdDeviation="0.53035713"/>
</filter>
<linearGradient id="e" x1="241.41" x2="315.47" y1="287.49" y2="367.88" gradientUnits="userSpaceOnUse">
<stop stop-color="#fff" offset="0"/>
<stop stop-color="#fff" stop-opacity="0" offset="1"/>
</linearGradient>
<linearGradient id="d" x1="275.61" x2="342" y1="300.86" y2="391.45" gradientUnits="userSpaceOnUse">
<stop stop-color="#ff0000" offset="0"/>
<stop stop-color="#ff0000" offset="1"/>
</linearGradient>
<radialGradient id="b" cx="312.78" cy="386.57" r="53.036" gradientTransform="matrix(-.59327 -.59327 .71505 -.71505 243.27 849.03)" gradientUnits="userSpaceOnUse">
<stop stop-color="#fff" stop-opacity=".40816" offset="0"/>
<stop stop-color="#fff" stop-opacity="0" offset="1"/>
</radialGradient>
<linearGradient id="c" x1="255.32" x2="300.27" y1="286.67" y2="338.82" gradientTransform="matrix(.28738 0 0 .28738 -617.76 -2.3895)" gradientUnits="userSpaceOnUse">
<stop stop-color="#fff" offset="0"/>
<stop stop-color="#fff" stop-opacity="0" offset="1"/>
</linearGradient>
</defs>
<metadata>
<rdf:RDF>
<cc:Work rdf:about="">
<dc:format>image/svg+xml</dc:format>
<dc:type rdf:resource="http://purl.org/dc/dcmitype/StillImage"/>
<dc:title/>
</cc:Work>
</rdf:RDF>
</metadata>
<g transform="translate(-62.468 -687.01)">
<g transform="matrix(8.7102 0 0 8.7102 4845.8 30.152)">
<path transform="matrix(.29286 0 0 .29286 -622.59 -10.416)" d="m356.79 346.11c0 29.291-23.745 53.036-53.036 53.036s-53.036-23.745-53.036-53.036c0-29.291 23.745-53.036 53.036-53.036s53.036 23.745 53.036 53.036z" fill="#999"/>
<path transform="matrix(.28866 0 0 .28866 -621.19 -8.8916)" d="m356.79 346.11c0 29.291-23.745 53.036-53.036 53.036s-53.036-23.745-53.036-53.036c0-29.291 23.745-53.036 53.036-53.036s53.036 23.745 53.036 53.036z" fill="url(#e)"/>
<path transform="matrix(.26278 0 0 .26278 -613.45 -.0052887)" d="m356.79 346.11c0 29.291-23.745 53.036-53.036 53.036s-53.036-23.745-53.036-53.036c0-29.291 23.745-53.036 53.036-53.036s53.036 23.745 53.036 53.036z" fill="#ececec" filter="url(#a)"/>
<path transform="matrix(.2522 0 0 .2522 -610.24 3.6558)" d="m356.79 346.11c0 29.291-23.745 53.036-53.036 53.036s-53.036-23.745-53.036-53.036c0-29.291 23.745-53.036 53.036-53.036s53.036 23.745 53.036 53.036z" fill="#999" filter="url(#a)"/>
<path transform="matrix(.24242 0 0 .24242 -607.26 7.0411)" d="m356.79 346.11c0 29.291-23.745 53.036-53.036 53.036s-53.036-23.745-53.036-53.036c0-29.291 23.745-53.036 53.036-53.036s53.036 23.745 53.036 53.036z" fill="url(#d)"/>
<path transform="matrix(.22809 0 0 .22809 -602.53 12.606)" d="m356.79 346.11c0 29.291-23.745 53.036-53.036 53.036s-53.036-23.745-53.036-53.036c0-29.291 23.745-53.036 53.036-53.036s53.036 23.745 53.036 53.036z" fill="url(#b)"/>
<path d="m-533.93 78.858c-4.01 0.09045-7.8772 2.2134-10.028 5.9386-2.3134 4.0068-2.0197 8.8037 0.34728 12.433 0.25661-7.9811 6.3568-13.992 13.935-13.553 2.4844 0.14411 4.8294 0.96263 6.8763 2.2834-0.97997-2.241-2.6523-4.1973-4.9315-5.5132-1.9513-1.1266-4.0986-1.6362-6.1991-1.5888z" fill="url(#c)" opacity=".31771"/>
</g>
</g>
</svg>
