<?xml version="1.0" encoding="UTF-8" standalone="no"?>
<!-- Created with Inkscape (http://www.inkscape.org/) -->

<svg
   xmlns:dc="http://purl.org/dc/elements/1.1/"
   xmlns:cc="http://creativecommons.org/ns#"
   xmlns:rdf="http://www.w3.org/1999/02/22-rdf-syntax-ns#"
   xmlns:svg="http://www.w3.org/2000/svg"
   xmlns="http://www.w3.org/2000/svg"
   xmlns:sodipodi="http://sodipodi.sourceforge.net/DTD/sodipodi-0.dtd"
   xmlns:inkscape="http://www.inkscape.org/namespaces/inkscape"
   width="379.99997mm"
   height="959.99829mm"
   viewBox="0 0 379.99997 959.99829"
   version="1.1"
   id="svg8"
   inkscape:version="0.92.5 (2060ec1f9f, 2020-04-08)"
   sodipodi:docname="desplegable.svg">
  <defs
     id="defs2" />
  <sodipodi:namedview
     id="base"
     pagecolor="#ffffff"
     bordercolor="#666666"
     borderopacity="1.0"
     inkscape:pageopacity="0.0"
     inkscape:pageshadow="2"
     inkscape:zoom="0.24"
     inkscape:cx="226.37624"
     inkscape:cy="1777.2736"
     inkscape:document-units="mm"
     inkscape:current-layer="layer1"
     showgrid="false"
     inkscape:window-width="1920"
     inkscape:window-height="1057"
     inkscape:window-x="-8"
     inkscape:window-y="-8"
     inkscape:window-maximized="1"
     fit-margin-top="0"
     fit-margin-left="0"
     fit-margin-right="0"
     fit-margin-bottom="0" />
  <metadata
     id="metadata5">
    <rdf:RDF>
      <cc:Work
         rdf:about="">
        <dc:format>image/svg+xml</dc:format>
        <dc:type
           rdf:resource="http://purl.org/dc/dcmitype/StillImage" />
        <dc:title></dc:title>
      </cc:Work>
    </rdf:RDF>
  </metadata>
  <g
     inkscape:label="Capa 1"
     inkscape:groupmode="layer"
     id="layer1"
     transform="translate(-9.9998632,672.90829)">
    <path
       style="fill:#b3c8e0;fill-opacity:1;fill-rule:nonzero;stroke:#014898;stroke-width:3.53250551;stroke-linecap:round;stroke-linejoin:round;stroke-miterlimit:4;stroke-dasharray:none;stroke-opacity:1"
       d="m 41.911138,-671.14062 c -5.723312,0.0317 -18.436354,0.75217 -24.337164,6.24105 -3.540784,3.2936 -5.136764,8.66499 -5.807858,13.73008 v 30.51049 883.18179 c 0.546416,5.81138 2.132869,12.90535 6.403211,16.94616 3.674884,3.47739 9.757665,5.06213 15.244309,5.76275 H 330.59189 c 2e-5,0 19.27145,1.34031 27.23319,-6.19351 4.27033,-4.04084 5.8568,-11.13482 6.40321,-16.94619 v -861.55562 h 11.91165 c 0,0 6.82779,0.45094 9.6713,-2.39324 2.87156,-2.8722 2.39268,-9.7925 2.39268,-9.7925 v -30.68962 c 0,0 -0.35103,-4.54438 -2.53341,-6.72728 -2.81033,-2.81099 -9.38983,-2.534 -9.38983,-2.534 h -12.05239 c -0.67113,-5.06505 -2.26711,-10.43653 -5.80787,-13.7301 -3.81455,-3.54827 -10.47024,-5.09774 -16.24975,-5.76274 H 313.71671 44.807678 c 0,0 -0.685079,-0.0357 -1.849394,-0.0459 -0.315335,-0.003 -0.66559,-0.004 -1.047146,-0.002 z"
       id="rect815"
       inkscape:connector-curvature="0"
       sodipodi:nodetypes="cscccccsccccsccscccccccsc" />
  </g>
</svg>
