<?xml version="1.0" encoding="UTF-8" standalone="no"?>
<!-- Created with Inkscape (http://www.inkscape.org/) -->

<svg
   xmlns:dc="http://purl.org/dc/elements/1.1/"
   xmlns:cc="http://creativecommons.org/ns#"
   xmlns:rdf="http://www.w3.org/1999/02/22-rdf-syntax-ns#"
   xmlns:svg="http://www.w3.org/2000/svg"
   xmlns="http://www.w3.org/2000/svg"
   xmlns:sodipodi="http://sodipodi.sourceforge.net/DTD/sodipodi-0.dtd"
   xmlns:inkscape="http://www.inkscape.org/namespaces/inkscape"
   width="25.492"
   height="24.085"
   version="1.1"
   viewBox="0 0 30.59 28.902"
   id="svg20"
   sodipodi:docname="humedad.svg"
   inkscape:version="0.92.4 (5da689c313, 2019-01-14)">
  <defs
     id="defs24" />
  <sodipodi:namedview
     pagecolor="#ffffff"
     bordercolor="#666666"
     borderopacity="1"
     objecttolerance="10"
     gridtolerance="10"
     guidetolerance="10"
     inkscape:pageopacity="0"
     inkscape:pageshadow="2"
     inkscape:window-width="1920"
     inkscape:window-height="1017"
     id="namedview22"
     showgrid="false"
     inkscape:zoom="9.7986302"
     inkscape:cx="12.746"
     inkscape:cy="12.0425"
     inkscape:window-x="1592"
     inkscape:window-y="-8"
     inkscape:window-maximized="1"
     inkscape:current-layer="svg20" />
  <metadata
     id="metadata2">
    <rdf:RDF>
      <cc:Work
         rdf:about="">
        <dc:format>image/svg+xml</dc:format>
        <dc:type
           rdf:resource="http://purl.org/dc/dcmitype/StillImage" />
        <dc:title></dc:title>
      </cc:Work>
    </rdf:RDF>
  </metadata>
  <path
     style="fill:#ffffff;stroke-width:0.13057999;fill-opacity:1"
     inkscape:connector-curvature="0"
     id="path4"
     d="m 18.801349,18.83998 c -0.74958,-0.14751 -1.9327,-0.69556 -2.5264,-1.1703 l -0.47943,-0.38336 -0.89163,0.41821 c -0.767,0.35975 -1.065,0.42465 -2.1321,0.46425 -1.0039,0.03726 -1.3879,-0.0057 -2.0134,-0.22499 -0.97971,-0.34354 -1.8882,-0.92509 -2.4958,-1.5976 -0.47276,-0.52329 -0.47779,-0.52513 -1.044,-0.38254 -1.4087,0.35471 -3.2869,0.06388 -4.4853,-0.69453 -1.9312,-1.2222 -3.033,-3.6123 -2.6624,-5.7757 0.41397,-2.4167 2.2624,-4.3429 4.5925,-4.7858 0.43788,-0.083216 0.79619,-0.21131 0.79625,-0.28465 2.22e-4,-0.2955 0.82956,-1.8603 1.2723,-2.4006 0.25972,-0.31695 0.82612,-0.80501 1.2587,-1.0846 2.3209,-1.5001 5.2543,-1.1762 7.2247,0.79774 l 0.55001,0.551 0.42932,-0.32195 c 2.5057,-1.879 6.0141,-1.6061 8.2953,0.64532 0.87613,0.86469 1.6355,2.2219 1.8026,3.2218 0.09768,0.58449 0.23155,0.73784 0.64707,0.74118 0.48884,0.00394 1.8264,0.74374 2.3872,1.3204 0.90365,0.92913 1.2556,1.7996 1.2629,3.1235 0.0055,1 -0.03718,1.2002 -0.42306,1.9844 -0.80694,1.6399 -2.0818,2.4627 -3.9623,2.5573 l -1.1271,0.05666 -0.26825,0.47443 c -0.43981,0.77785 -1.5934,1.8338 -2.4383,2.2318 -1.2857,0.6057 -2.3446,0.75957 -3.5692,0.5186 z" />
  <g
     style="fill:#b2c8e0;stroke-width:0.13057999"
     id="g16"
     transform="translate(-0.089651,-0.37202)">
    <path
       inkscape:connector-curvature="0"
       id="path6"
       d="m 24.283,24.959 c -0.21815,-0.06417 -0.57071,-0.29837 -0.78346,-0.52044 -0.32845,-0.34283 -0.38632,-0.50592 -0.38348,-1.0807 0.0027,-0.55259 0.12977,-0.92885 0.69146,-2.048 0.37846,-0.75408 0.76233,-1.4459 0.85304,-1.5373 0.29937,-0.30167 1.7819,2.6688 1.7819,3.5703 0,1.156 -1.0506,1.9423 -2.1594,1.6161 z" />
    <path
       inkscape:connector-curvature="0"
       id="path8"
       d="m 19.041,28.946 c -0.49396,-0.38936 -0.75097,-1.074 -0.62386,-1.6618 0.1003,-0.46389 0.91909,-2.2207 1.4038,-3.012 l 0.30556,-0.49883 0.8145,1.6087 c 0.85552,1.6898 0.97898,2.2326 0.67482,2.9669 -0.37525,0.90594 -1.772,1.2298 -2.5748,0.597 z" />
    <path
       inkscape:connector-curvature="0"
       id="path10"
       d="m 14.901,24.963 c -0.95235,-0.28856 -1.3845,-1.2235 -1.0601,-2.2933 0.23255,-0.76675 1.3939,-2.9564 1.5686,-2.9575 0.18954,-0.0012 1.47,2.4958 1.6371,3.1926 0.12796,0.53339 0.11523,0.68546 -0.09236,1.1031 -0.4053,0.81539 -1.2372,1.2024 -2.0533,0.95513 z" />
    <path
       inkscape:connector-curvature="0"
       id="path12"
       d="M 9.7749,29.008 C 9.54934,28.86349 9.28826,28.56048 9.19471,28.33463 8.88897,27.5965 9.00842,27.07233 9.86582,25.38943 c 0.94424,-1.8533 0.79348,-1.8706 1.8238,0.21001 0.75907,1.5329 0.87133,2.0304 0.60309,2.6724 -0.38522,0.92196 -1.6504,1.2919 -2.5178,0.73616 z" />
    <path
       inkscape:connector-curvature="0"
       id="path14"
       d="M 5.4235,24.928 C 5.16631,24.83859 4.84224,24.57918 4.67268,24.327 4.13046,23.52057 4.30912,22.6039 5.38053,20.6951 5.82617,19.90117 6.02698,19.652 6.14331,19.74851 c 0.31056,0.25774 1.5315,2.9031 1.5854,3.4352 0.12343,1.2175 -1.1181,2.1569 -2.3052,1.7443 z" />
  </g>
</svg>
