<?xml version="1.0" encoding="UTF-8" standalone="no"?>
<svg
   xmlns:dc="http://purl.org/dc/elements/1.1/"
   xmlns:cc="http://creativecommons.org/ns#"
   xmlns:rdf="http://www.w3.org/1999/02/22-rdf-syntax-ns#"
   xmlns:svg="http://www.w3.org/2000/svg"
   xmlns="http://www.w3.org/2000/svg"
   height="7.6500001"
   width="543.13"
   version="1.1"
   viewBox="0 0 543.13 7.65"
   data-name="Capa 1"
   id="Capa_1">
  <metadata
     id="metadata37">
    <rdf:RDF>
      <cc:Work
         rdf:about="">
        <dc:format>image/svg+xml</dc:format>
        <dc:type
           rdf:resource="http://purl.org/dc/dcmitype/StillImage" />
      </cc:Work>
    </rdf:RDF>
  </metadata>
  <defs
     id="defs4">
    <style
       id="style2">.cls-1{fill:none;}.cls-2,.cls-3,.cls-4{fill:#014898;}.cls-2{opacity:0.3;}.cls-3{opacity:0.6;}</style>
  </defs>
  <title
     id="title6">lineas-irc</title>
  <polygon
     style="fill:none"
     id="polygon8"
     points="0,3.04 525.27,3.04 523.87,1.64 0,1.64 "
     class="cls-1" />
  <polygon
     style="fill:none"
     id="polygon10"
     points="0,6.01 528.24,6.01 526.91,4.67 0,4.67 "
     class="cls-1" />
  <polygon
     style="opacity:0.3;fill:#014898"
     id="polygon12"
     points="540.8,7.65 543.13,7.65 535.5,0.07 533.21,0.06 "
     class="cls-2" />
  <polygon
     style="opacity:0.6;fill:#014898"
     id="polygon14"
     points="537.67,7.65 530.04,0.07 527.75,0.06 535.34,7.65 "
     class="cls-3" />
  <polygon
     style="fill:#014898"
     id="polygon16"
     points="524.34,1.64 523.87,1.64 525.27,3.04 526.43,3.04 527.75,4.67 526.91,4.67 528.24,6.01 529.7,6.01 530.43,7.65 532.21,7.65 524.58,0.07 524.34,0.07 "
     class="cls-4" />
  <polygon
     style="fill:#014898"
     id="polygon18"
     points="0,7.65 530.43,7.65 530.43,7.65 529.88,7.65 528.24,6.01 0,6.01 "
     class="cls-4" />
  <polygon
     style="fill:#014898"
     id="polygon20"
     points="530.43,7.65 529.7,6.01 528.24,6.01 529.88,7.65 "
     class="cls-4" />
  <polygon
     style="opacity:0.6;fill:#014898"
     id="polygon22"
     points="0,4.67 526.91,4.67 525.27,3.04 0,3.04 "
     class="cls-3" />
  <polygon
     style="fill:#014898"
     id="polygon24"
     points="525.27,3.04 526.91,4.67 527.75,4.67 526.43,3.04 "
     class="cls-4" />
  <polygon
     style="opacity:0.6;fill:#014898"
     id="polygon26"
     points="525.27,3.04 526.91,4.67 527.75,4.67 526.43,3.04 "
     class="cls-3" />
  <polygon
     style="opacity:0.3;fill:#014898"
     id="polygon28"
     points="524.34,0 0,0 0,1.64 523.87,1.64 522.29,0.06 524.34,0.07 "
     class="cls-2" />
  <polygon
     style="fill:#014898"
     id="polygon30"
     points="524.34,0.07 522.29,0.06 523.87,1.64 524.34,1.64 "
     class="cls-4" />
  <polygon
     style="opacity:0.3;fill:#014898"
     id="polygon32"
     points="524.34,0.07 522.29,0.06 523.87,1.64 524.34,1.64 "
     class="cls-2" />
</svg>
