<?xml version="1.0" encoding="UTF-8" standalone="no"?>
<!-- Created with Inkscape (http://www.inkscape.org/) -->

<svg
   xmlns:dc="http://purl.org/dc/elements/1.1/"
   xmlns:cc="http://creativecommons.org/ns#"
   xmlns:rdf="http://www.w3.org/1999/02/22-rdf-syntax-ns#"
   xmlns:svg="http://www.w3.org/2000/svg"
   xmlns="http://www.w3.org/2000/svg"
   xmlns:sodipodi="http://sodipodi.sourceforge.net/DTD/sodipodi-0.dtd"
   xmlns:inkscape="http://www.inkscape.org/namespaces/inkscape"
   width="464.27"
   height="292.88"
   version="1.1"
   viewBox="0 0 464.27 292.88"
   id="svg24"
   sodipodi:docname="unir.svg"
   inkscape:version="0.92.4 (5da689c313, 2019-01-14)">
  <defs
     id="defs28" />
  <sodipodi:namedview
     pagecolor="#ffffff"
     bordercolor="#666666"
     borderopacity="1"
     objecttolerance="10"
     gridtolerance="10"
     guidetolerance="10"
     inkscape:pageopacity="0"
     inkscape:pageshadow="2"
     inkscape:window-width="1920"
     inkscape:window-height="1017"
     id="namedview26"
     showgrid="false"
     inkscape:zoom="0.75171777"
     inkscape:cx="232.13499"
     inkscape:cy="146.44"
     inkscape:window-x="1592"
     inkscape:window-y="-8"
     inkscape:window-maximized="1"
     inkscape:current-layer="svg24" />
  <metadata
     id="metadata2">
    <rdf:RDF>
      <cc:Work
         rdf:about="">
        <dc:format>image/svg+xml</dc:format>
        <dc:type
           rdf:resource="http://purl.org/dc/dcmitype/StillImage" />
        <dc:title></dc:title>
      </cc:Work>
    </rdf:RDF>
  </metadata>
  <path
     style="fill:#b2c8e0;stroke-width:2.16950011"
     inkscape:connector-curvature="0"
     id="path4"
     d="m 241.903,287.07 c -2.3864,-0.5333 -9.4945,-2.4086 -15.796,-4.1674 -11.174,-3.1189 -11.375,-3.3147 -8.1356,-7.9394 4.5422,-6.4848 4.1605,-20.814 -0.76979,-28.899 -3.7248,-6.1082 -15.924,-13.928 -21.728,-13.928 -1.3112,0 -2.384,-2.5341 -2.384,-5.6314 0,-9.1892 -6.8041,-18.065 -17.788,-23.205 -8.9992,-4.2112 -10.248,-5.6229 -10.326,-11.675 -0.1766,-13.671 -18.358,-26.961 -32.204,-23.54 -3.218,0.79516 -8.3925,3.8623 -11.499,6.8159 l -5.648,5.3701 -7.5233,-7.5233 c -9.8215,-9.8215 -20.749,-12.078 -30.534,-6.305 l -7.118,4.1997 -8.1034,-10.272 c -4.4569,-5.6498 -8.1034,-10.849 -8.1034,-11.554 0,-1.1523 51.542,-93.697 56.104,-100.74 1.5266,-2.3555 3.6071,-2.0267 10.981,1.7353 5.0038,2.5528 15.395,5.8131 23.092,7.2451 l 13.994,2.6037 -8.475,11.932 c -20.304,28.587 -23.897,41.624 -14.155,51.366 5.0189,5.0189 6.8149,5.4851 17.058,4.4279 15.822,-1.633 30.559,-9.7073 44.37,-24.31 6.7459,-7.1327 15.149,-13.592 19.831,-15.244 8.0197,-2.8295 8.457,-2.6844 33.849,11.237 29.583,16.22 57.671,34.542 88.639,57.82 40.163,30.19 44.73,36.277 35.762,47.678 -7.9991,10.169 -14.148,8.3066 -56.946,-17.25 -35.102,-20.961 -39.038,-22.806 -42.11,-19.734 -1.8638,1.8638 -2.7802,4.3733 -2.0365,5.5767 0.74373,1.2034 14.771,10.221 31.172,20.038 42.213,25.269 42.011,25.109 40.442,32.036 -0.7245,3.1987 -3.275,7.5243 -5.6677,9.6124 -8.0994,7.0684 -16.325,4.7339 -48.135,-13.662 -30.075,-17.392 -37.091,-19.683 -37.091,-12.113 0,2.8426 8.4533,8.9149 29.288,21.039 16.108,9.3737 29.613,18.593 30.01,20.488 1.2621,6.0218 -5.6767,13.794 -13.65,15.29 -6.3216,1.1859 -11.616,-0.54721 -32.826,-10.746 -27.607,-13.275 -33.433,-14.626 -33.433,-7.7541 0,3.4344 4.9034,6.8038 22.237,15.28 12.231,5.981 22.237,12.014 22.237,13.406 0,1.392 -3.3173,4.7669 -7.3717,7.4992 -7.0986,4.7838 -17.977,6.0721 -29.51,3.4948 z" />
  <path
     style="fill:#ffffff;stroke-width:2.16950011"
     d="M 15.729,146.14 C 7.0782,140.6758 0,135.185 0,133.938 0,130.5332 73.401,-0.002 75.316,-0.002 c 2.3872,0 35.328,20.717 35.328,22.218 0,0.90986 -5.7018,11.659 -12.671,23.887 -13.451,23.604 -48.27,85.446 -56.797,100.88 -2.802,5.0712 -6.135,9.1907 -7.4069,9.1545 -1.2718,-0.0362 -9.3903,-4.5365 -18.041,-10.001 z"
     id="path6"
     inkscape:connector-curvature="0" />
  <path
     style="fill:#ffffff;stroke-width:2.16950011"
     d="M 361.053,158.78 C 326.434,130.969 280.338,100.776 243.803,81.979 l -17.618,-9.0642 -13.297,4.026 c -7.3133,2.2143 -13.297,4.672 -13.297,5.4615 0,0.7895 -3.5327,5.5627 -7.8505,10.607 -10.694,12.494 -27.606,21.936 -39.336,21.962 -8.6182,0.019 -9.2201,-0.36925 -9.216,-5.9457 0.004,-5.963 10.433,-23.349 29.952,-49.932 13.117,-17.865 19.766,-20.015 66.586,-21.537 31.815,-1.0341 37.05,-0.64167 62.725,4.7017 25.8,5.3692 35.654,5.7987 45.588,1.9867 1.8157,-0.69676 12.751,16.686 31.413,49.934 27.95,49.795 28.545,51.129 25.143,56.322 -4.0858,6.2358 -22.418,20.962 -25.836,20.754 -1.2957,-0.0788 -9.2633,-5.6924 -17.706,-12.475 z"
     id="path8"
     inkscape:connector-curvature="0" />
  <path
     style="fill:#ffffff;stroke-width:2.16950011"
     d="M 408.393,122.04 C 368.247,51.145 353.631,24.515 353.631,22.265 c 0,-2.3288 34.29,-23.493 35.613,-21.98 0.38762,0.44329 9.7836,16.914 20.88,36.603 11.096,19.688 27.82,49.295 37.163,65.794 9.3435,16.498 16.988,30.748 16.988,31.666 0,1.8043 -31.92,21.863 -34.791,21.863 -0.95815,0 -10.449,-15.376 -21.091,-34.169 z"
     id="path10"
     inkscape:connector-curvature="0" />
  <path
     style="fill:#ffffff;stroke-width:2.16950011"
     d="m 171.543,287.17 c -2.473,-3.144 -4.4987,-7.2931 -4.5014,-9.2203 -0.003,-1.9272 4.4943,-10.094 9.9935,-18.148 8.9664,-13.132 10.742,-14.644 17.203,-14.644 7.9473,0 16.198,8.0044 16.198,15.715 0,2.3552 -4.5815,10.522 -10.181,18.148 -8.8737,12.085 -11.082,13.866 -17.198,13.866 -4.9969,0 -8.3119,-1.6458 -11.514,-5.7163 z"
     id="path12"
     inkscape:connector-curvature="0" />
  <path
     style="fill:#ffffff;stroke-width:2.16950011"
     d="m 139.633,270.82 c -4.6309,-2.2423 -9.4678,-10.287 -9.4678,-15.746 0,-1.5911 6.5246,-11.796 14.499,-22.678 12.42,-16.948 15.389,-19.785 20.709,-19.785 7.3134,0 16.86,8.5619 16.86,15.121 0,2.459 -5.049,11.534 -11.22,20.166 -19.082,26.693 -20.879,28.006 -31.38,22.921 z"
     id="path14"
     inkscape:connector-curvature="0" />
  <path
     style="fill:#ffffff;stroke-width:2.16950011"
     d="m 104.923,247 c -4.5996,-2.2687 -9.4678,-10.333 -9.4678,-15.685 0,-4.2275 34.197,-49.917 38.525,-51.471 4.7901,-1.7203 13.426,1.452 17.094,6.279 5.7762,7.6028 3.2129,14.19 -14.951,38.423 -18.218,24.306 -21.97,27.006 -31.2,22.454 z"
     id="path16"
     inkscape:connector-curvature="0" />
  <path
     style="fill:#ffffff;stroke-width:2.16950011"
     d="m 73.596,210.61 c -8.231,-8.231 -7.9949,-12.564 1.351,-24.804 6.091,-7.9771 9.027,-10.075 14.102,-10.075 10.16,0 16.713,8.4515 15.139,19.525 -0.83045,5.8423 -15.364,21.695 -19.889,21.695 -2.3983,0 -7.2143,-2.8537 -10.702,-6.3416 z"
     id="path18"
     inkscape:connector-curvature="0" />
</svg>
