<?xml version="1.0" encoding="utf-8"?>
<!-- Generator: Adobe Illustrator 23.0.3, SVG Export Plug-In . SVG Version: 6.00 Build 0)  -->
<svg version="1.2" baseProfile="tiny" id="Capa_1" xmlns="http://www.w3.org/2000/svg" xmlns:xlink="http://www.w3.org/1999/xlink"
	 x="0px" y="0px" viewBox="0 0 180.97 260.71" xml:space="preserve">
<g>
	<polygon fill="#BE1622" points="142.84,26.46 76.92,221.59 62.57,214.32 128.62,19.18 	"/>
	<path fill="#741518" d="M179.65,4.87l-35.93,20.8c-0.64,0.36-1.13,0.91-1.43,1.56l-65.3,194c-0.03,0.03,0.44-0.18,0.41-0.15
		c-0.1,0.02-0.19,0.04-0.29,0.1l-0.61,0.35v3.64l0.07-0.04c0.03-0.02,0.06-0.04,0.09-0.06c0.14-0.02,0.29-0.09,0.44-0.22l0.56-0.6
		c0.4-0.38,65.65-194.7,65.67-194.72l35.78-20.71c1.14-0.65,1.85-1.87,1.85-3.18C180.97,4.96,180.24,4.54,179.65,4.87z"/>
	<polygon fill="#BE1622" points="128.8,19 142.91,26.09 170.3,10.3 156.22,3 	"/>
	<path fill="#741518" d="M160.05,0.75L156.22,3l14.08,7.3l6.55-3.78L165.28,0.6C163.62-0.25,161.65-0.19,160.05,0.75z"/>
	<path fill="#E57DB0" d="M142.94,25.94L128.8,19c-0.59,0.58-0.97,1.75-0.72,2.55c0.23,0.71,0.93,1.11,0.93,1.11l13.27,6.99
		l0.26,0.07c0.2,0.13,0.71-0.29,0.84-0.58c0.23-0.52,0.3-1.78,0.11-2.45C143.33,26.07,142.94,25.94,142.94,25.94z"/>
	<polyline fill="none" stroke="#EB7186" stroke-linecap="round" stroke-linejoin="round" stroke-miterlimit="10" points="
		154.2,19.44 135.51,22.41 135.51,22.41 139.97,12.16 	"/>
	<polyline fill="none" stroke="#EB7186" stroke-linecap="round" stroke-linejoin="round" stroke-miterlimit="10" points="
		169.23,10.91 150.54,13.88 150.54,13.88 155.01,3.64 	"/>
	<polyline fill="none" stroke="#EB7186" stroke-linecap="round" stroke-linejoin="round" stroke-miterlimit="10" points="
		172.25,4.46 165.12,5.59 165.12,5.59 166.8,1.73 	"/>
	<polyline fill="none" stroke="#EB7186" stroke-linecap="round" stroke-linejoin="round" stroke-miterlimit="10" points="
		128.51,19.49 128.8,40.19 142.29,27.23 	"/>
	<polyline fill="none" stroke="#EB7186" stroke-linecap="round" stroke-linejoin="round" stroke-miterlimit="10" points="
		121.47,38.68 122.32,59.38 135.81,46.42 	"/>
	<polyline fill="none" stroke="#EB7186" stroke-linecap="round" stroke-linejoin="round" stroke-miterlimit="10" points="
		115.05,57.87 115.84,78.57 129.33,65.61 	"/>
	<polyline fill="none" stroke="#EB7186" stroke-linecap="round" stroke-linejoin="round" stroke-miterlimit="10" points="
		108.71,77.12 109.37,97.77 122.86,84.81 	"/>
	<polyline fill="none" stroke="#EB7186" stroke-linecap="round" stroke-linejoin="round" stroke-miterlimit="10" points="
		102.22,96.26 102.89,116.96 116.38,104 	"/>
	<polyline fill="none" stroke="#EB7186" stroke-linecap="round" stroke-linejoin="round" stroke-miterlimit="10" points="
		96.13,115.45 96.41,136.15 109.9,123.19 	"/>
	<polyline fill="none" stroke="#EB7186" stroke-linecap="round" stroke-linejoin="round" stroke-miterlimit="10" points="
		89.2,134.64 89.93,155.35 103.64,142.52 	"/>
	<polyline fill="none" stroke="#EB7186" stroke-linecap="round" stroke-linejoin="round" stroke-miterlimit="10" points="
		82.64,153.84 83.46,174.54 97.35,161.61 	"/>
	<polyline fill="none" stroke="#EB7186" stroke-linecap="round" stroke-linejoin="round" stroke-miterlimit="10" points="
		76.08,173.03 76.98,193.73 90.47,180.77 	"/>
	<polyline fill="none" stroke="#EB7186" stroke-linecap="round" stroke-linejoin="round" stroke-miterlimit="10" points="
		69.82,191.95 70.5,212.92 83.99,199.96 	"/>
	<g>
		<path fill="#741518" d="M144.14,25.93c-0.11-0.06-0.23-0.11-0.36-0.12c-0.76-0.04-1.66,0.86-2.01,2.02
			c-0.29,0.94-0.11,1.76,0.37,2.05c0.11,0.07,0.23,0.12,0.37,0.13c0.76,0.04,1.66-0.86,2.01-2.02
			C144.8,27.04,144.62,26.22,144.14,25.93z"/>
		<path fill="#741518" d="M128.94,18.33c-0.04-0.01-0.08-0.02-0.12-0.03c-0.76-0.04-1.66,0.86-2.01,2.02
			c-0.29,0.96-0.11,1.78,0.39,2.07c0,0,0.01,0.01,0.01,0.01l14.93,7.48c0,0,0-0.01,0-0.01c-0.48-0.3-0.65-1.11-0.37-2.05
			c0.35-1.16,1.25-2.06,2.01-2.02c0.14,0.01,0.26,0.06,0.36,0.12c0,0,0.01,0,0.01,0S128.98,18.32,128.94,18.33z"/>
	</g>
	<g>
		<path fill="#741518" d="M111.03,122.16c-0.11-0.06-0.23-0.11-0.36-0.12c-0.76-0.04-1.66,0.86-2.01,2.02
			c-0.29,0.94-0.11,1.76,0.37,2.05c0.11,0.07,0.23,0.12,0.37,0.13c0.76,0.04,1.66-0.86,2.01-2.02
			C111.69,123.27,111.52,122.45,111.03,122.16z"/>
		<path fill="#741518" d="M95.83,114.56c-0.04-0.01-0.08-0.02-0.12-0.03c-0.76-0.04-1.66,0.86-2.01,2.02
			c-0.29,0.96-0.11,1.78,0.39,2.07c0,0,0.01,0.01,0.01,0.01l14.93,7.48c0,0,0-0.01,0-0.01c-0.48-0.3-0.65-1.11-0.37-2.05
			c0.35-1.16,1.25-2.06,2.01-2.02c0.14,0.01,0.26,0.06,0.36,0.12c0,0,0.01,0,0.01,0S95.87,114.55,95.83,114.56z"/>
	</g>
	<path fill="#E57DB0" d="M15.45,257.24L1.31,250.3c-0.59,0.58-0.97,1.75-0.72,2.55c0.23,0.71,0.93,1.11,0.93,1.11l13.27,6.99
		l0.26,0.07c0.2,0.13,0.71-0.29,0.84-0.58c0.23-0.53,0.3-1.78,0.11-2.45C15.84,257.37,15.45,257.24,15.45,257.24z"/>
	<polygon fill="#BE1622" points="77.02,221.33 15.42,257.39 1.31,250.3 62.8,214.05 	"/>
	<line fill="#F9B033" x1="1.13" y1="250.47" x2="15.36" y2="257.75"/>
	<path fill="#741518" d="M15.85,260.83l60.6-35.56c1.14-0.65,1.85-1.87,1.85-3.18c0-0.68-0.73-1.1-1.32-0.77l-60.76,35.65
		c-0.64,0.36-1.13,0.91-1.43,1.56"/>
	<polyline fill="none" stroke="#EB7186" stroke-linecap="round" stroke-linejoin="round" stroke-miterlimit="10" points="
		73.19,223.55 52.48,227.78 52.48,227.78 60.13,215.87 	"/>
	<polyline fill="none" stroke="#EB7186" stroke-linecap="round" stroke-linejoin="round" stroke-miterlimit="10" points="
		56.01,233.28 37.32,236.24 37.32,236.24 41.78,226 	"/>
	<polyline fill="none" stroke="#EB7186" stroke-linecap="round" stroke-linejoin="round" stroke-miterlimit="10" points="
		42.06,241.73 23.37,244.7 23.37,244.7 27.84,234.45 	"/>
	<polyline fill="none" stroke="#EB7186" stroke-linecap="round" stroke-linejoin="round" stroke-miterlimit="10" points="
		27.61,250.18 8.92,253.15 8.92,253.15 13.39,242.91 	"/>
	<g>
		<path fill="#741518" d="M16.65,257.22c-0.11-0.06-0.23-0.11-0.36-0.12c-0.76-0.04-1.66,0.86-2.01,2.02
			c-0.29,0.94-0.11,1.76,0.37,2.05c0.11,0.07,0.23,0.12,0.37,0.13c0.76,0.04,1.66-0.86,2.01-2.02
			C17.31,258.33,17.14,257.52,16.65,257.22z"/>
		<path fill="#741518" d="M1.45,249.63c-0.04-0.01-0.08-0.02-0.12-0.03c-0.76-0.04-1.66,0.86-2.01,2.02
			c-0.29,0.96-0.11,1.78,0.39,2.07c0,0,0.01,0.01,0.01,0.01l14.93,7.48c0,0,0-0.01,0-0.01c-0.48-0.3-0.65-1.11-0.37-2.05
			c0.35-1.16,1.25-2.06,2.01-2.02c0.14,0.01,0.26,0.06,0.36,0.12c0,0,0.01,0,0.01,0S1.49,249.62,1.45,249.63z"/>
	</g>
</g>
</svg>
