<?xml version="1.0" encoding="utf-8"?>
<!-- Generator: Adobe Illustrator 23.0.3, SVG Export Plug-In . SVG Version: 6.00 Build 0)  -->
<svg version="1.2" baseProfile="tiny" id="Capa_1" xmlns="http://www.w3.org/2000/svg" xmlns:xlink="http://www.w3.org/1999/xlink"
	 x="0px" y="0px" viewBox="0 0 181.78 261.3" xml:space="preserve">
<g>
	<polygon fill="#F9B033" points="143.66,26.46 77.74,221.59 63.39,214.32 129.44,19.18 	"/>
	<path fill="#F29100" d="M180.47,4.87l-35.93,20.8c-0.64,0.36-1.13,0.91-1.43,1.56l-65.3,194c-0.03,0.03,0.44-0.18,0.41-0.15
		c-0.1,0.02-0.19,0.04-0.29,0.1l-0.61,0.35v3.64l0.07-0.04c0.03-0.02,0.06-0.04,0.09-0.06c0.14-0.02,0.29-0.09,0.44-0.22l0.56-0.6
		c0.4-0.38,65.65-194.7,65.67-194.72l35.78-20.71c1.14-0.65,1.85-1.87,1.85-3.18C181.78,4.96,181.05,4.54,180.47,4.87z"/>
	<polygon fill="#F9B033" points="129.62,19 143.72,26.09 171.11,10.3 157.04,3 	"/>
	<path fill="#F29100" d="M160.87,0.75L157.04,3l14.08,7.3l6.55-3.78L166.1,0.6C164.44-0.25,162.47-0.19,160.87,0.75z"/>
	<path fill="#E57DB0" d="M143.76,25.94L129.62,19c-0.59,0.58-0.97,1.75-0.72,2.55c0.23,0.71,0.93,1.11,0.93,1.11l13.27,6.99
		l0.26,0.07c0.2,0.13,0.71-0.29,0.84-0.58c0.23-0.52,0.3-1.78,0.11-2.45C144.14,26.07,143.76,25.94,143.76,25.94z"/>
	<polyline fill="none" stroke="#F3F2F2" stroke-linecap="round" stroke-linejoin="round" stroke-miterlimit="10" points="
		155.01,19.44 136.32,22.41 136.32,22.41 140.79,12.16 	"/>
	<polyline fill="none" stroke="#F3F2F2" stroke-linecap="round" stroke-linejoin="round" stroke-miterlimit="10" points="
		170.05,10.91 151.36,13.88 151.36,13.88 155.83,3.64 	"/>
	<polyline fill="none" stroke="#F3F2F2" stroke-linecap="round" stroke-linejoin="round" stroke-miterlimit="10" points="
		173.06,4.46 165.94,5.59 165.94,5.59 167.62,1.73 	"/>
	<polyline fill="none" stroke="#F3F2F2" stroke-linecap="round" stroke-linejoin="round" stroke-miterlimit="10" points="
		129.33,19.49 129.62,40.19 143.11,27.23 	"/>
	<polyline fill="none" stroke="#F3F2F2" stroke-linecap="round" stroke-linejoin="round" stroke-miterlimit="10" points="
		122.29,38.68 123.14,59.38 136.63,46.42 	"/>
	<polyline fill="none" stroke="#F3F2F2" stroke-linecap="round" stroke-linejoin="round" stroke-miterlimit="10" points="
		115.87,57.87 116.66,78.57 130.15,65.61 	"/>
	<polyline fill="none" stroke="#F3F2F2" stroke-linecap="round" stroke-linejoin="round" stroke-miterlimit="10" points="
		109.53,77.12 110.18,97.77 123.67,84.81 	"/>
	<polyline fill="none" stroke="#F3F2F2" stroke-linecap="round" stroke-linejoin="round" stroke-miterlimit="10" points="
		103.03,96.26 103.71,116.96 117.19,104 	"/>
	<polyline fill="none" stroke="#F3F2F2" stroke-linecap="round" stroke-linejoin="round" stroke-miterlimit="10" points="
		96.94,115.45 97.23,136.15 110.72,123.19 	"/>
	<polyline fill="none" stroke="#F3F2F2" stroke-linecap="round" stroke-linejoin="round" stroke-miterlimit="10" points="
		90.01,134.64 90.75,155.35 104.45,142.52 	"/>
	<polyline fill="none" stroke="#F3F2F2" stroke-linecap="round" stroke-linejoin="round" stroke-miterlimit="10" points="
		83.45,153.84 84.27,174.54 98.16,161.61 	"/>
	<polyline fill="none" stroke="#F3F2F2" stroke-linecap="round" stroke-linejoin="round" stroke-miterlimit="10" points="
		76.89,173.03 77.79,193.73 91.28,180.77 	"/>
	<polyline fill="none" stroke="#F3F2F2" stroke-linecap="round" stroke-linejoin="round" stroke-miterlimit="10" points="
		70.64,191.95 71.32,212.92 84.81,199.96 	"/>
	<g>
		<path fill="#F29100" d="M144.95,25.93c-0.11-0.06-0.23-0.11-0.36-0.12c-0.76-0.04-1.66,0.86-2.01,2.02
			c-0.29,0.94-0.11,1.76,0.37,2.05c0.11,0.07,0.23,0.12,0.37,0.13c0.76,0.04,1.66-0.86,2.01-2.02
			C145.62,27.04,145.44,26.22,144.95,25.93z"/>
		<path fill="#F29100" d="M129.76,18.33c-0.04-0.01-0.08-0.02-0.12-0.03c-0.76-0.04-1.66,0.86-2.01,2.02
			c-0.29,0.96-0.11,1.78,0.39,2.07c0,0,0.01,0.01,0.01,0.01l14.93,7.48c0,0,0-0.01,0-0.01c-0.48-0.3-0.65-1.11-0.37-2.05
			c0.35-1.16,1.25-2.06,2.01-2.02c0.14,0.01,0.26,0.06,0.36,0.12c0,0,0.01,0,0.01,0S129.79,18.32,129.76,18.33z"/>
	</g>
	<g>
		<path fill="#F29100" d="M111.85,122.16c-0.11-0.06-0.23-0.11-0.36-0.12c-0.76-0.04-1.66,0.86-2.01,2.02
			c-0.29,0.94-0.11,1.76,0.37,2.05c0.11,0.07,0.23,0.12,0.37,0.13c0.76,0.04,1.66-0.86,2.01-2.02
			C112.51,123.27,112.33,122.45,111.85,122.16z"/>
		<path fill="#F29100" d="M96.65,114.56c-0.04-0.01-0.08-0.02-0.12-0.03c-0.76-0.04-1.66,0.86-2.01,2.02
			c-0.29,0.96-0.11,1.78,0.39,2.07c0,0,0.01,0.01,0.01,0.01l14.93,7.48c0,0,0-0.01,0-0.01c-0.48-0.3-0.65-1.11-0.37-2.05
			c0.35-1.16,1.25-2.06,2.01-2.02c0.14,0.01,0.26,0.06,0.36,0.12c0,0,0.01,0,0.01,0S96.69,114.55,96.65,114.56z"/>
	</g>
	<path fill="#E57DB0" d="M16.27,257.24L2.13,250.3c-0.59,0.58-0.97,1.75-0.72,2.55c0.23,0.71,0.93,1.11,0.93,1.11l13.27,6.99
		l0.26,0.07c0.2,0.13,0.71-0.29,0.84-0.58c0.23-0.53,0.3-1.78,0.11-2.45C16.66,257.37,16.27,257.24,16.27,257.24z"/>
	<polygon fill="#F9B033" points="77.84,221.33 16.24,257.39 2.13,250.3 63.62,214.05 	"/>
	<line fill="#F9B033" x1="1.95" y1="250.47" x2="16.18" y2="257.75"/>
	<path fill="#F29100" d="M16.67,260.83l60.6-35.56c1.14-0.65,1.85-1.87,1.85-3.18c0-0.68-0.73-1.1-1.32-0.77l-60.76,35.65
		c-0.64,0.36-1.13,0.91-1.43,1.56"/>
	<polyline fill="none" stroke="#F3F2F2" stroke-linecap="round" stroke-linejoin="round" stroke-miterlimit="10" points="74,223.55 
		53.3,227.78 53.3,227.78 60.94,215.87 	"/>
	<polyline fill="none" stroke="#F3F2F2" stroke-linecap="round" stroke-linejoin="round" stroke-miterlimit="10" points="
		56.83,233.28 38.14,236.24 38.14,236.24 42.6,226 	"/>
	<polyline fill="none" stroke="#F3F2F2" stroke-linecap="round" stroke-linejoin="round" stroke-miterlimit="10" points="
		42.88,241.73 24.19,244.7 24.19,244.7 28.65,234.45 	"/>
	<polyline fill="none" stroke="#F3F2F2" stroke-linecap="round" stroke-linejoin="round" stroke-miterlimit="10" points="
		28.43,250.18 9.74,253.15 9.74,253.15 14.2,242.91 	"/>
	<g>
		<path fill="#F29100" d="M17.47,257.22c-0.11-0.06-0.23-0.11-0.36-0.12c-0.76-0.04-1.66,0.86-2.01,2.02
			c-0.29,0.94-0.11,1.76,0.37,2.05c0.11,0.07,0.23,0.12,0.37,0.13c0.76,0.04,1.66-0.86,2.01-2.02
			C18.13,258.33,17.96,257.52,17.47,257.22z"/>
		<path fill="#F29100" d="M2.27,249.63c-0.04-0.01-0.08-0.02-0.12-0.03c-0.76-0.04-1.66,0.86-2.01,2.02
			c-0.29,0.96-0.11,1.78,0.39,2.07c0,0,0.01,0.01,0.01,0.01l14.93,7.48c0,0,0-0.01,0-0.01c-0.48-0.3-0.65-1.11-0.37-2.05
			c0.35-1.16,1.25-2.06,2.01-2.02c0.14,0.01,0.26,0.06,0.36,0.12c0,0,0.01,0,0.01,0S2.31,249.62,2.27,249.63z"/>
	</g>
</g>
</svg>
