<?xml version="1.0" encoding="utf-8"?>
<!-- Generator: Adobe Illustrator 23.0.4, SVG Export Plug-In . SVG Version: 6.00 Build 0)  -->
<svg version="1.1" id="Capa_1" xmlns="http://www.w3.org/2000/svg" xmlns:xlink="http://www.w3.org/1999/xlink" x="0px" y="0px"
	 viewBox="0 0 40.1 50.8" style="enable-background:new 0 0 40.1 50.8;" xml:space="preserve">
<style type="text/css">
	.st0{fill:#C6C6C5;}
	.st1{fill:#D9D9D9;}
	.st2{fill:#E7E6E6;}
	.st3{fill:#88D39C;}
	.st4{fill:#035426;}
	.st5{clip-path:url(#SVGID_2_);}
	.st6{enable-background:new    ;}
	.st7{fill:#31AA59;}
	.st8{fill:#6ABA82;}
	.st9{fill:#CC5261;}
	.st10{fill:#5B1016;}
	.st11{clip-path:url(#SVGID_4_);}
	.st12{fill:#751518;}
	.st13{fill:#BD1622;}
	.st14{fill:#636363;}
	.st15{clip-path:url(#SVGID_6_);}
	.st16{fill:#868686;}
	.st17{fill:#B3B4B3;}
	.st18{fill:#BFC9E8;}
	.st19{fill:#264B8C;}
	.st20{clip-path:url(#SVGID_8_);}
	.st21{fill:#3458A3;}
	.st22{fill:#9FABD8;}
</style>
<g>
	<g>
		<g>
			<polygon class="st0" points="20.1,49.5 20,35.2 17.9,36.4 17.9,50.8 			"/>
			<polygon class="st1" points="15.8,49.5 15.8,35.2 17.9,36.4 17.9,50.8 			"/>
			<polygon class="st2" points="17.9,33.9 20,35.2 17.9,36.4 15.8,35.2 			"/>
		</g>
		<g>
			<polygon class="st0" points="4.3,40.4 4.3,26.1 2.1,27.3 2.1,41.7 			"/>
			<polygon class="st1" points="0,40.4 0,26.1 2.1,27.3 2.2,41.7 			"/>
			<polygon class="st2" points="2.1,24.9 4.3,26.1 2.1,27.3 0,26.1 			"/>
		</g>
		<polygon class="st2" points="17.9,36.4 0,26.1 2.1,24.9 20,35.2 		"/>
		<polygon class="st1" points="15.8,35.2 15.8,38.1 2.1,30.2 2.1,27.3 		"/>
	</g>
	<g>
		<polygon class="st3" points="11.5,32.3 10.2,32.9 4,29.3 3.2,27.5 31.8,0 40.1,4.8 39.3,6.9 12.9,32.4 		"/>
	</g>
	<g>
		<polygon class="st4" points="11.7,30.3 5.8,26.9 32,1.8 37.8,5.2 		"/>
	</g>
	<g>
		<defs>
			<polygon id="SVGID_1_" points="11.7,30.3 5.8,26.9 32,1.8 37.8,5.2 			"/>
		</defs>
		<clipPath id="SVGID_2_">
			<use xlink:href="#SVGID_1_"  style="overflow:visible;"/>
		</clipPath>
		<g class="st5">
			<g>
				<g class="st6">
					<path class="st2" d="M26.5,10.5c0-0.1,0-0.3,0-0.4c0-0.6,0.3-1.3,0.6-1.5l0.7-0.1c-0.4,0.2-0.6,0.6-0.6,1.3c0,0.1,0,0.3,0,0.5
						c0,0,0,0,0,0.1c0,0.1,0.1,0.3,0.1,0.4c0,0,0,0,0,0c0.3,1.1,1.2,2.3,2.3,2.6c0.1,0,0.2,0.1,0.3,0.1c0,0,0,0,0,0
						c0.1,0,0.2,0,0.3,0c0,0,0,0,0,0c0.1,0,0.2-0.1,0.3-0.1c0,0-0.4,0.5-0.4,0.5c-0.1,0.1-0.6,0.2-0.7,0.2
						C28,14,26.7,11.8,26.5,10.5z"/>
					<path class="st2" d="M27.2,7.6c1.6-0.9,3.4,1.1,4.1,2.3c0.5,0.8,0.8,1.8,0.8,2.8c0,1.1-0.5,1.6-1.4,2.1c1-0.7,0.5-3.3-0.2-4.5
						c-0.7-1.2-2.8-3-3.9-2.4C26.8,7.8,27,7.7,27.2,7.6z"/>
					<g>
						<path class="st0" d="M31.5,13c0,1.8-1.3,2.5-2.9,1.6c-1.6-0.9-2.9-3.1-2.8-4.9c0-1.8,1.3-2.5,2.9-1.6
							C30.3,9,31.5,11.2,31.5,13z M28.7,13.6c1.1,0.6,2,0.1,2-1.1c0-1.3-0.9-2.8-2-3.4c-1.1-0.6-2-0.1-2,1.1
							C26.7,11.4,27.6,13,28.7,13.6"/>
					</g>
				</g>
			</g>
			<g>
				<g class="st6">
					<path class="st2" d="M30.6,6.6c0-0.1,0-0.3,0-0.4c0-0.6,0.3-1.3,0.6-1.5l0.7-0.1c-0.4,0.2-0.6,0.6-0.6,1.3c0,0.1,0,0.3,0,0.5
						c0,0,0,0,0,0.1c0,0.1,0.1,0.3,0.1,0.4c0,0,0,0,0,0c0.3,1.1,1.2,2.3,2.3,2.6c0.1,0,0.2,0.1,0.3,0.1c0,0,0,0,0,0
						c0.1,0,0.2,0,0.3,0c0,0,0,0,0,0c0.1,0,0.2-0.1,0.3-0.1c0,0-0.4,0.5-0.4,0.5c-0.1,0.1-0.6,0.2-0.7,0.2
						C32.1,10.1,30.8,7.9,30.6,6.6z"/>
					<path class="st2" d="M31.3,3.6c1.6-0.9,3.4,1.1,4.1,2.3c0.5,0.8,0.8,1.8,0.8,2.8c0,1.1-0.5,1.6-1.4,2.1c1-0.7,0.5-3.3-0.2-4.5
						c-0.7-1.2-2.8-3-3.9-2.4C30.9,3.8,31.1,3.7,31.3,3.6z"/>
					<g>
						<path class="st0" d="M35.6,9c0,1.8-1.3,2.5-2.9,1.6c-1.6-0.9-2.9-3.1-2.8-4.9c0-1.8,1.3-2.5,2.9-1.6C34.4,5,35.6,7.2,35.6,9z
							 M32.8,9.7c1.1,0.6,2,0.1,2-1.1c0-1.3-0.9-2.8-2-3.4c-1.1-0.6-2-0.1-2,1.1C30.8,7.5,31.7,9,32.8,9.7"/>
					</g>
				</g>
			</g>
			<g>
				<g class="st6">
					<path class="st2" d="M22.3,14.5c0-0.1,0-0.3,0-0.4c0-0.6,0.3-1.3,0.6-1.5l0.7-0.1c-0.4,0.2-0.6,0.6-0.6,1.3c0,0.1,0,0.3,0,0.5
						c0,0,0,0,0,0.1c0,0.1,0.1,0.3,0.1,0.4c0,0,0,0,0,0c0.3,1.1,1.2,2.3,2.3,2.6c0.1,0,0.2,0.1,0.3,0.1c0,0,0,0,0,0
						c0.1,0,0.2,0,0.3,0c0,0,0,0,0,0c0.1,0,0.2-0.1,0.3-0.1c0,0-0.4,0.5-0.4,0.5c-0.1,0.1-0.6,0.2-0.7,0.2
						C23.8,18,22.5,15.8,22.3,14.5z"/>
					<path class="st2" d="M23,11.5c1.6-0.9,3.4,1.1,4.1,2.3c0.5,0.8,0.8,1.8,0.8,2.8c0,1.1-0.5,1.6-1.4,2.1c1-0.7,0.5-3.3-0.2-4.5
						c-0.7-1.2-2.8-3-3.9-2.4C22.6,11.7,22.8,11.6,23,11.5z"/>
					<g>
						<path class="st0" d="M27.3,16.9c0,1.8-1.3,2.5-2.9,1.6c-1.6-0.9-2.9-3.1-2.8-4.9c0-1.8,1.3-2.5,2.9-1.6
							C26.1,12.9,27.3,15.1,27.3,16.9z M24.5,17.6c1.1,0.6,2,0.1,2-1.1c0-1.3-0.9-2.8-2-3.4c-1.1-0.6-2-0.1-2,1.1
							C22.5,15.4,23.4,16.9,24.5,17.6"/>
					</g>
				</g>
			</g>
			<g>
				<g class="st6">
					<path class="st2" d="M18.3,18.5c0-0.1,0-0.3,0-0.4c0-0.6,0.3-1.3,0.6-1.5l0.7-0.1c-0.4,0.2-0.6,0.6-0.6,1.3c0,0.1,0,0.3,0,0.5
						c0,0,0,0,0,0.1c0,0.1,0.1,0.3,0.1,0.4c0,0,0,0,0,0c0.3,1.1,1.2,2.3,2.3,2.6c0.1,0,0.2,0.1,0.3,0.1c0,0,0,0,0,0
						c0.1,0,0.2,0,0.3,0c0,0,0,0,0,0c0.1,0,0.2-0.1,0.3-0.1c0,0-0.4,0.5-0.4,0.5c-0.1,0.1-0.6,0.2-0.7,0.2
						C19.8,21.9,18.5,19.8,18.3,18.5z"/>
					<path class="st2" d="M18.9,15.5c1.6-0.9,3.4,1.1,4.1,2.3c0.5,0.8,0.8,1.8,0.8,2.8c0,1.1-0.5,1.6-1.4,2.1c1-0.7,0.5-3.3-0.2-4.5
						c-0.7-1.2-2.8-3-3.9-2.4C18.6,15.7,18.8,15.6,18.9,15.5z"/>
					<g>
						<path class="st0" d="M23.3,20.9c0,1.8-1.3,2.5-2.9,1.6c-1.6-0.9-2.9-3.1-2.8-4.9c0-1.8,1.3-2.5,2.9-1.6
							C22,16.9,23.3,19.1,23.3,20.9z M20.4,21.6c1.1,0.6,2,0.1,2-1.1c0-1.3-0.9-2.8-2-3.4c-1.1-0.6-2-0.1-2,1.1
							C18.4,19.4,19.3,20.9,20.4,21.6"/>
					</g>
				</g>
			</g>
			<g>
				<g class="st6">
					<path class="st2" d="M14,22.5c0-0.1,0-0.3,0-0.4c0-0.6,0.3-1.3,0.6-1.5l0.7-0.1c-0.4,0.2-0.6,0.6-0.6,1.3c0,0.1,0,0.3,0,0.5
						c0,0,0,0,0,0.1c0,0.1,0.1,0.3,0.1,0.4c0,0,0,0,0,0c0.3,1.1,1.2,2.3,2.3,2.6c0.1,0,0.2,0.1,0.3,0.1c0,0,0,0,0,0
						c0.1,0,0.2,0,0.3,0c0,0,0,0,0,0c0.1,0,0.2-0.1,0.3-0.1c0,0-0.4,0.5-0.4,0.5C17.6,25.9,17.1,26,17,26
						C15.5,25.9,14.2,23.8,14,22.5z"/>
					<path class="st2" d="M14.7,19.5c1.6-0.9,3.4,1.1,4.1,2.3c0.5,0.8,0.8,1.8,0.8,2.8c0,1.1-0.5,1.6-1.4,2.1c1-0.7,0.5-3.3-0.2-4.5
						c-0.7-1.2-2.8-3-3.9-2.4C14.3,19.7,14.5,19.6,14.7,19.5z"/>
					<g>
						<path class="st0" d="M19,24.9c0,1.8-1.3,2.5-2.9,1.6c-1.6-0.9-2.9-3.1-2.8-4.9c0-1.8,1.3-2.5,2.9-1.6
							C17.8,20.9,19.1,23.1,19,24.9z M16.2,25.6c1.1,0.6,2,0.1,2-1.1c0-1.3-0.9-2.8-2-3.4c-1.1-0.6-2-0.1-2,1.1
							C14.2,23.4,15.1,24.9,16.2,25.6"/>
					</g>
				</g>
			</g>
			<g>
				<g class="st6">
					<path class="st2" d="M9.8,26.5c0-0.1,0-0.3,0-0.4c0-0.6,0.3-1.3,0.6-1.5l0.7-0.1c-0.4,0.2-0.6,0.6-0.6,1.3c0,0.1,0,0.3,0,0.5
						c0,0,0,0,0,0.1c0,0.1,0.1,0.3,0.1,0.4c0,0,0,0,0,0c0.3,1.1,1.2,2.3,2.3,2.6c0.1,0,0.2,0.1,0.3,0.1c0,0,0,0,0,0
						c0.1,0,0.2,0,0.3,0c0,0,0,0,0,0c0.1,0,0.2-0.1,0.3-0.1c0,0-0.4,0.5-0.4,0.5c-0.1,0.1-0.6,0.2-0.7,0.2
						C11.3,30,9.9,27.8,9.8,26.5z"/>
					<path class="st2" d="M10.4,23.5c1.6-0.9,3.4,1.1,4.1,2.3c0.5,0.8,0.8,1.8,0.8,2.8c0,1.1-0.5,1.6-1.4,2.1c1-0.7,0.5-3.3-0.2-4.5
						c-0.7-1.2-2.8-3-3.9-2.4C10.1,23.7,10.2,23.6,10.4,23.5z"/>
					<g>
						<path class="st0" d="M14.8,28.9c0,1.8-1.3,2.5-2.9,1.6S9,27.5,9.1,25.6c0-1.8,1.3-2.5,2.9-1.6S14.8,27.1,14.8,28.9z
							 M11.9,29.6c1.1,0.6,2,0.1,2-1.1c0-1.3-0.9-2.8-2-3.4c-1.1-0.6-2-0.1-2,1.1C9.9,27.4,10.8,28.9,11.9,29.6"/>
					</g>
				</g>
			</g>
		</g>
	</g>
	<g>
		<path class="st7" d="M40.1,4.8l0,4.9c0,0.5-0.3,1.2-0.7,1.6L13,36.8c-0.1,0.1-0.2,0.2-0.3,0.3c-0.6,0.3-1.1,0.1-1.1-0.6l0-4.1
			L40.1,4.8z"/>
	</g>
	<path class="st8" d="M11.5,36.4l0-4.1l-8.3-4.8l0,4.1c0,0.3,0.1,0.6,0.3,0.7l8.3,4.8C11.7,37,11.5,36.7,11.5,36.4z"/>
</g>
</svg>
