<?xml version="1.0" encoding="UTF-8" standalone="no"?>
<!-- Created with Inkscape (http://www.inkscape.org/) -->

<svg
   xmlns:dc="http://purl.org/dc/elements/1.1/"
   xmlns:cc="http://creativecommons.org/ns#"
   xmlns:rdf="http://www.w3.org/1999/02/22-rdf-syntax-ns#"
   xmlns:svg="http://www.w3.org/2000/svg"
   xmlns="http://www.w3.org/2000/svg"
   xmlns:sodipodi="http://sodipodi.sourceforge.net/DTD/sodipodi-0.dtd"
   xmlns:inkscape="http://www.inkscape.org/namespaces/inkscape"
   width="94.213654mm"
   height="97.281219mm"
   viewBox="0 0 94.213654 97.28122"
   version="1.1"
   id="svg8"
   inkscape:version="0.92.5 (2060ec1f9f, 2020-04-08)"
   sodipodi:docname="2D.svg">
  <defs
     id="defs2" />
  <sodipodi:namedview
     id="base"
     pagecolor="#ffffff"
     bordercolor="#666666"
     borderopacity="1.0"
     inkscape:pageopacity="0.0"
     inkscape:pageshadow="2"
     inkscape:zoom="1.979899"
     inkscape:cx="193.03239"
     inkscape:cy="195.46237"
     inkscape:document-units="mm"
     inkscape:current-layer="layer1"
     showgrid="false"
     inkscape:pagecheckerboard="true"
     showguides="false"
     inkscape:window-width="1920"
     inkscape:window-height="1017"
     inkscape:window-x="-8"
     inkscape:window-y="-8"
     inkscape:window-maximized="1"
     fit-margin-top="5"
     fit-margin-left="10"
     fit-margin-right="10"
     fit-margin-bottom="5" />
  <metadata
     id="metadata5">
    <rdf:RDF>
      <cc:Work
         rdf:about="">
        <dc:format>image/svg+xml</dc:format>
        <dc:type
           rdf:resource="http://purl.org/dc/dcmitype/StillImage" />
        <dc:title></dc:title>
      </cc:Work>
    </rdf:RDF>
  </metadata>
  <g
     inkscape:label="Capa 1"
     inkscape:groupmode="layer"
     id="layer1"
     transform="translate(-47.935888,-62.888662)">
    <path
       style="opacity:1;fill:#ffffff;fill-opacity:1;fill-rule:nonzero;stroke:#ffffff;stroke-width:1.29010212;stroke-linecap:butt;stroke-linejoin:miter;stroke-miterlimit:4;stroke-dasharray:none;stroke-dashoffset:0;stroke-opacity:1"
       d="m 116.82849,70.816483 c -0.17433,0.03272 -0.3234,0.03635 -0.51394,0.08076 -1.24909,0.291068 -2.92698,0.85213 -6.09463,1.929924 -3.62684,1.23404 -7.96434,2.729283 -9.63898,3.322752 l -3.044818,1.079207 -0.199064,6.532825 c -0.07162,2.350044 -0.165135,13.560087 -0.229739,24.897469 -0.0646,11.33739 -0.100761,22.80231 -0.05884,25.66243 0.0013,0.0887 0.01731,0.16055 0.06134,0.21034 0.04403,0.0498 0.116606,0.0772 0.231617,0.077 0.23003,-2.4e-4 0.629852,-0.11108 1.313326,-0.37684 1.366948,-0.53162 3.867098,-1.68223 8.403898,-3.80351 2.30473,-1.07763 4.17144,-1.97147 5.72655,-2.75937 1.55513,-0.78787 2.79839,-1.46964 3.85547,-2.12335 1.0571,-0.65371 1.92808,-1.27983 2.73871,-1.95497 0.81062,-0.67512 1.56113,-1.39957 2.37688,-2.25168 0.55944,-0.58439 1.104,-1.2029 1.63133,-1.85105 0.52733,-0.64816 1.03717,-1.32601 1.52804,-2.02944 0.49086,-0.70347 0.9628,-1.43256 1.41286,-2.18283 0.45004,-0.75029 0.87839,-1.5219 1.28327,-2.31053 0.40488,-0.78863 0.78582,-1.59407 1.14117,-2.41257 0.35537,-0.81849 0.68508,-1.64966 0.98658,-2.48956 0.30148,-0.8399 0.57488,-1.68869 0.81816,-2.54151 0.24327,-0.85282 0.45655,-1.70991 0.63725,-2.56718 0.41397,-1.96395 0.735,-3.877407 0.96528,-5.728427 0.23029,-1.851024 0.36991,-3.639795 0.4213,-5.355348 0.0514,-1.715552 0.0144,-3.357742 -0.1083,-4.91527 -0.12275,-1.557527 -0.33142,-3.030014 -0.62349,-4.406965 -0.14604,-0.688474 -0.31332,-1.353423 -0.50079,-1.992525 -0.18748,-0.639093 -0.39517,-1.252869 -0.62349,-1.839781 -0.22831,-0.586909 -0.47699,-1.147004 -0.74555,-1.678904 -0.26855,-0.5319 -0.55692,-1.035191 -0.86512,-1.509261 -0.3082,-0.474063 -0.63619,-0.918691 -0.98342,-1.332103 -0.34725,-0.413421 -0.71356,-0.79561 -1.09924,-1.145561 -0.38569,-0.349954 -0.79088,-0.667839 -1.21442,-0.951504 -0.42354,-0.283667 -0.86569,-0.533499 -1.32648,-0.748059 -0.58634,-0.27302 -1.08101,-0.418668 -1.64197,-0.534596 z m 0.94023,11.115069 c 0.33295,0.009 0.65476,0.04585 0.96466,0.110173 0.30989,0.06432 0.6081,0.155826 0.89328,0.274809 0.28518,0.11898 0.5575,0.265253 0.81629,0.438192 0.25879,0.172939 0.50355,0.372875 0.73428,0.599073 0.23073,0.226196 0.44754,0.478688 0.64853,0.757446 0.201,0.278758 0.38629,0.58395 0.55588,0.914572 0.30403,0.592715 0.56544,1.279231 0.78499,2.040723 0.21955,0.761501 0.39727,1.597699 0.53334,2.490188 0.13607,0.892487 0.2306,1.841288 0.2842,2.826967 0.0537,0.985681 0.0666,2.008115 0.0388,3.049198 -0.0279,1.041082 -0.0964,2.100686 -0.20469,3.159366 -0.1083,1.058683 -0.25674,2.116491 -0.44445,3.154981 -0.18772,1.03849 -0.41494,2.05742 -0.68108,3.03793 -0.26614,0.9805 -0.57103,1.92284 -0.91457,2.80756 -0.26497,0.68239 -0.54534,1.32683 -0.84446,1.93681 -0.29913,0.60999 -0.61698,1.18528 -0.95651,1.72899 -0.33953,0.5437 -0.70051,1.05574 -1.08672,1.5393 -0.38622,0.48357 -0.79778,0.93886 -1.23695,1.36842 -0.43918,0.42955 -0.90633,0.83337 -1.40472,1.21505 -0.49839,0.38166 -1.02801,0.74115 -1.59189,1.08108 -0.56389,0.33992 -1.1622,0.66034 -1.79785,0.96464 -0.63565,0.30432 -1.30827,0.5928 -2.02195,0.86763 -0.44069,0.16971 -1.64603,0.68687 -2.6786,1.14932 l -1.87796,0.8407 0.13395,-17.31112 c 0.0734,-9.52092 0.22185,-17.398984 0.3299,-17.507037 0.14287,-0.142875 1.85113,-0.812465 3.78223,-1.518024 1.93108,-0.70556 4.08517,-1.447267 5.11808,-1.733992 0.37401,-0.103814 0.73867,-0.178914 1.09298,-0.22598 0.35431,-0.04707 0.69806,-0.06595 1.031,-0.05697 z m -37.379699,0.682329 c -1.476446,0.005 -2.386736,0.03605 -3.173766,0.166513 -0.393515,0.06523 -0.756268,0.155677 -1.143684,0.279815 -0.387412,0.124148 -0.799266,0.281831 -1.291417,0.483266 -1.211954,0.496051 -2.37379,1.083928 -3.479874,1.756527 -1.106084,0.672596 -2.156435,1.430299 -3.147474,2.265455 -0.991038,0.835154 -1.922591,1.748089 -2.789407,2.731816 -0.866827,0.98373 -1.669115,2.037922 -2.40255,3.156239 -0.733434,1.11832 -1.397895,2.300429 -1.988769,3.539351 -0.590869,1.238906 -1.108304,2.534968 -1.547444,3.880507 -0.439139,1.34553 -0.799721,2.74094 -1.077952,4.17909 -0.278232,1.43817 -0.474018,2.91896 -0.582172,4.43577 l -0.225983,3.16813 0.928344,-0.16213 c 0.510667,-0.0893 2.94816,-0.94105 5.416058,-1.893 l 4.487092,-1.73085 0.213464,-1.92743 c 0.07854,-0.70931 0.191944,-1.39338 0.339912,-2.05011 0.147966,-0.65673 0.330453,-1.28624 0.545238,-1.88674 0.214784,-0.60048 0.462179,-1.17211 0.741171,-1.71269 0.27899,-0.5406 0.589632,-1.05038 0.930218,-1.527425 0.340591,-0.477047 0.710932,-0.921641 1.110508,-1.331482 0.399575,-0.409841 0.827949,-0.784673 1.283905,-1.123645 0.455952,-0.338976 0.93944,-0.641962 1.449163,-0.906427 0.509724,-0.264465 1.046031,-0.490396 1.606914,-0.676704 0.642335,-0.213345 1.24156,-0.314712 1.794086,-0.312992 0.276264,8.6e-4 0.54094,0.02738 0.793129,0.07825 0.252189,0.05088 0.492229,0.126854 0.719262,0.22535 0.454066,0.197016 0.856825,0.486338 1.203778,0.858857 0.346951,0.37253 0.637688,0.828257 0.868873,1.356517 0.231185,0.528264 0.402791,1.129221 0.509555,1.79346 0.10677,0.664241 0.149005,1.391751 0.122695,2.172181 -0.02631,0.78045 -0.12117,1.61396 -0.289207,2.49082 -0.16804,0.87686 -0.409606,1.79646 -0.728026,2.74996 -0.242478,0.72611 -0.560479,1.54605 -0.98343,2.51837 -0.422951,0.97231 -0.950427,2.09713 -1.611922,3.43292 -1.322992,2.6716 -3.181082,6.18764 -5.806678,11.01679 -2.156459,3.96627 -5.981874,11.03344 -8.500937,15.70482 -2.519063,4.67138 -4.991733,9.18086 -5.49431,10.02085 -0.459196,0.76747 -0.732893,1.31505 -0.842579,1.72021 -0.05484,0.20257 -0.06848,0.36912 -0.04381,0.51019 0.01233,0.0705 0.06205,0.11895 0.09327,0.17778 h 1.247596 c 0.452694,-0.1917 0.902836,-0.39206 2.211622,-1.0016 1.644893,-0.76606 3.712119,-1.72167 4.593509,-2.12335 0.881393,-0.40167 3.477496,-1.59339 5.769119,-2.64856 8.683312,-3.99817 12.5807,-5.78759 15.063809,-6.91593 1.410228,-0.64081 3.140963,-1.45956 3.846079,-1.81912 l 1.282027,-0.65353 0.08826,-4.83766 c 0.03464,-1.89937 0.03294,-3.12797 -0.02065,-3.91806 -0.0268,-0.39505 -0.0667,-0.68062 -0.121442,-0.88515 -0.05474,-0.20453 -0.12435,-0.32812 -0.210959,-0.4 -0.08581,-0.0712 -0.222707,-0.10091 -0.437566,-0.0795 -0.214858,0.0213 -0.508054,0.094 -0.906433,0.22598 -0.796757,0.26402 -2.01469,0.76699 -3.87237,1.58187 -2.626346,1.15206 -5.752444,2.57368 -6.946604,3.15875 -0.623835,0.30565 -1.118525,0.51688 -1.425378,0.61472 -0.153425,0.0489 -0.259849,0.0697 -0.311742,0.0595 -0.0519,-0.01 -0.04947,-0.0512 0.01502,-0.1252 0.207986,-0.23839 0.650389,-0.94354 1.366535,-2.18219 0.716145,-1.23866 1.706233,-3.01082 3.007879,-5.38351 0.580232,-1.05768 1.664116,-3.00475 2.408807,-4.32684 1.352068,-2.40041 2.499067,-4.60699 3.458591,-6.6743 0.479763,-1.03366 0.912446,-2.03251 1.300806,-3.0035 0.388361,-0.97099 0.732062,-1.9137 1.033508,-2.83574 0.301448,-0.92203 0.560335,-1.82308 0.779358,-2.7099 0.219022,-0.88683 0.398517,-1.75944 0.539602,-2.62477 0.141087,-0.86535 0.244103,-1.72337 0.311743,-2.58096 0.06764,-0.857596 0.0996,-1.714878 0.09828,-2.578459 -0.0013,-0.86233 -0.04099,-1.694864 -0.118314,-2.495187 -0.07732,-0.80031 -0.191918,-1.568507 -0.343669,-2.303637 -0.151751,-0.735132 -0.340656,-1.437165 -0.565268,-2.103953 -0.224612,-0.666778 -0.485333,-1.298336 -0.781235,-1.893616 -0.295902,-0.59528 -0.627199,-1.153911 -0.992819,-1.674522 -0.36562,-0.520612 -0.76563,-1.003253 -1.199395,-1.446036 -0.433766,-0.44278 -0.901251,-0.845746 -1.401591,-1.207531 -0.50034,-0.361788 -1.033435,-0.682637 -1.598777,-0.96027 -0.408512,-0.200621 -0.745809,-0.356361 -1.069816,-0.477003 -0.324007,-0.12064 -0.634589,-0.205957 -0.989063,-0.266047 -0.708948,-0.120179 -1.593651,-0.138785 -3.114297,-0.133334 z"
       id="path4794"
       inkscape:connector-curvature="0" />
  </g>
</svg>
