<?xml version="1.0" encoding="UTF-8" standalone="no"?>
<!-- Created with Inkscape (http://www.inkscape.org/) -->

<svg
   xmlns:dc="http://purl.org/dc/elements/1.1/"
   xmlns:cc="http://creativecommons.org/ns#"
   xmlns:rdf="http://www.w3.org/1999/02/22-rdf-syntax-ns#"
   xmlns:svg="http://www.w3.org/2000/svg"
   xmlns="http://www.w3.org/2000/svg"
   xmlns:sodipodi="http://sodipodi.sourceforge.net/DTD/sodipodi-0.dtd"
   xmlns:inkscape="http://www.inkscape.org/namespaces/inkscape"
   width="94.213654mm"
   height="97.281219mm"
   viewBox="0 0 94.213654 97.28122"
   version="1.1"
   id="svg8"
   inkscape:version="0.92.5 (2060ec1f9f, 2020-04-08)"
   sodipodi:docname="3D.svg">
  <defs
     id="defs2" />
  <sodipodi:namedview
     id="base"
     pagecolor="#ffffff"
     bordercolor="#666666"
     borderopacity="1.0"
     inkscape:pageopacity="0.0"
     inkscape:pageshadow="2"
     inkscape:zoom="0.7"
     inkscape:cx="256.2131"
     inkscape:cy="158.95404"
     inkscape:document-units="mm"
     inkscape:current-layer="layer1"
     showgrid="false"
     inkscape:pagecheckerboard="true"
     showguides="false"
     inkscape:window-width="1920"
     inkscape:window-height="1017"
     inkscape:window-x="-8"
     inkscape:window-y="-8"
     inkscape:window-maximized="1"
     fit-margin-top="5"
     fit-margin-left="10"
     fit-margin-right="10"
     fit-margin-bottom="5" />
  <metadata
     id="metadata5">
    <rdf:RDF>
      <cc:Work
         rdf:about="">
        <dc:format>image/svg+xml</dc:format>
        <dc:type
           rdf:resource="http://purl.org/dc/dcmitype/StillImage" />
        <dc:title></dc:title>
      </cc:Work>
    </rdf:RDF>
  </metadata>
  <g
     inkscape:label="Capa 1"
     inkscape:groupmode="layer"
     id="layer1"
     transform="translate(-47.935888,-62.888662)">
    <path
       style="fill:#ffffff;fill-opacity:1;stroke:#ffffff;stroke-width:0.26458332;stroke-opacity:1"
       d="m 118.97279,81.109962 c -2.37903,-0.06843 -5.09715,0.767004 -10.51925,2.992067 -2.63131,1.07981 -7.52,2.615928 -13.320647,4.184756 -2.943929,0.7962 -3.180961,0.808694 -4.744413,0.248563 -0.79034,-0.28316 -1.564251,-0.462306 -1.719792,-0.397907 -0.155548,0.06441 -0.595291,0.61776 -0.977201,1.2299 -0.381908,0.612129 -2.971517,4.677473 -5.754688,9.034073 -0.59019,0.923849 -1.138772,1.787566 -1.666563,2.619476 -1.443363,2.24354 -2.719252,4.25245 -3.24373,5.15266 -0.01,0.0171 -0.01467,0.0378 -0.01654,0.0605 -0.08175,0.13894 -0.133326,0.23119 -0.133326,0.24288 0,0.0849 0.870834,0.94331 1.935284,1.90738 4.09879,3.71226 6.737501,8.35097 8.43566,14.82803 0.294751,1.1242 0.484598,1.87685 0.611333,2.62982 0.129694,1.08441 0.209778,2.74772 0.246497,4.55786 0.0029,0.52195 0.004,1.09451 0.0052,1.75235 0.0071,3.86803 -0.102338,6.15424 -0.342098,7.14375 -1.08353,4.47195 -2.426949,7.39942 -4.082439,8.89506 -0.561711,0.50747 -0.789419,0.68785 -0.805635,0.82785 l -0.11834,0.0982 c 0.09714,0.0568 0.195781,0.11505 0.293523,0.1726 0.02257,0.0223 0.04201,0.042 0.06821,0.0682 0.421074,0.23592 0.864733,0.49104 1.300697,0.73949 2.527353,1.48841 5.075018,3.00587 7.666199,4.51911 0.0033,3.1e-4 0.02321,-0.008 0.02842,-0.008 0.01298,0.009 0.02577,0.0162 0.03876,0.0248 0.0023,3e-4 0.03776,-0.0164 0.04496,-0.0186 0.181481,-0.0437 1.059376,-0.45725 2.330091,-1.0821 0.04036,-0.0198 0.05908,-0.0278 0.10025,-0.0481 3.619503,-1.72184 10.253398,-5.04094 13.463778,-6.77944 3.70567,-2.00671 5.80297,-3.33984 7.95403,-5.19193 5.4846,-4.44184 9.56117,-10.31084 12.42613,-17.95962 1.15777,-3.091 2.49232,-8.36305 2.87991,-11.37709 2.25595,-17.542826 -1.31836,-28.488191 -10.03038,-30.714401 -0.80526,-0.205771 -1.56085,-0.329104 -2.35386,-0.351917 z m -60.143622,7.160803 c -0.0418,-0.0042 -0.07481,0.003 -0.09509,0.02326 -8.28e-4,8.25e-4 -0.0013,0.01004 -0.0021,0.01137 -0.004,0.0021 -0.01109,0.0018 -0.01395,0.0047 -0.0031,0.0031 -0.0046,0.04332 -0.0072,0.05685 -0.197258,0.06701 -0.276051,0.260739 -0.203089,0.576191 0.06096,0.26357 0.226023,3.574659 0.366903,7.358208 0.85109,22.857906 1.090708,28.637376 1.209228,29.167216 0.03242,0.14492 0.138565,0.31139 0.290422,0.47749 0.101217,0.13238 0.234249,0.24919 0.40876,0.3607 0.130419,0.0944 0.272024,0.1831 0.421164,0.25941 0.876639,0.44853 1.043848,0.70281 1.485696,2.2593 1.21707,4.28726 5.256591,8.57746 9.253699,9.82782 0.581406,0.18187 1.083326,0.28864 1.551326,0.32143 0.239017,0.0287 0.462611,0.0237 0.710036,-0.015 0.430334,-0.0447 0.854141,-0.16089 1.305346,-0.34933 0.05718,-0.0223 0.113969,-0.0452 0.170016,-0.0698 0.0082,-0.004 0.01601,-0.006 0.02429,-0.01 0.0095,-0.004 0.01848,-0.01 0.02791,-0.014 0.263218,-0.11972 0.51407,-0.26549 0.753441,-0.43874 0.01797,-0.0128 0.0359,-0.0257 0.05375,-0.0388 0.03822,-0.0285 0.07605,-0.0579 0.113686,-0.0879 0.929089,-0.72186 1.680427,-1.8202 2.192115,-3.21272 0.21672,-0.49263 0.348271,-0.88888 0.425297,-1.42627 0.259238,-1.10534 0.276738,-2.10782 0.185002,-4.94957 -0.10677,-3.30708 -0.240906,-4.34548 -0.762228,-5.88388 -1.069115,-3.15489 -2.899331,-5.79431 -5.33404,-7.75508 -0.518011,-0.42718 -1.069919,-0.81946 -1.666565,-1.18236 -0.01465,-0.009 -0.02976,-0.0174 -0.04444,-0.0263 -0.173969,-0.10502 -0.350864,-0.20902 -0.532784,-0.30954 -0.153823,-0.0863 -0.310393,-0.16892 -0.467672,-0.25063 -0.03544,-0.0182 -0.0707,-0.0362 -0.106455,-0.0543 -0.105839,-0.054 -0.20941,-0.11133 -0.316775,-0.1633 -1.36216,-0.65936 -3.483462,-1.48718 -4.714441,-1.83968 -1.372346,-0.39298 -2.067981,-0.66722 -2.285648,-0.96273 0.02773,-0.22564 0.211024,-0.66679 0.621668,-1.46813 0.515921,-0.88099 1.340072,-2.32589 2.255676,-3.96358 1.38308,-2.47386 3.304939,-5.858195 4.270539,-7.520474 0.96756,-1.665679 1.654421,-3.123584 1.530141,-3.247864 -0.02837,-0.02837 -0.120145,-0.07833 -0.252183,-0.141594 -0.0755,-0.06546 -0.163851,-0.122116 -0.264067,-0.15348 -0.111157,-0.03481 -0.250455,-0.08393 -0.367935,-0.121954 -0.493993,-0.202996 -1.144857,-0.452186 -1.835031,-0.698667 -3.127568,-1.116959 -8.007691,-3.174275 -9.203571,-3.879866 -0.37425,-0.220813 -0.69306,-0.346921 -0.940511,-0.38499 -0.07999,-0.04407 -0.154832,-0.07807 -0.210323,-0.08372 z m 57.003752,5.266346 c 3.78413,-0.07532 6.19525,2.689719 7.26829,8.320419 0.56428,2.96103 0.33179,11.66157 -0.40669,15.22285 -1.49352,7.20259 -4.62116,12.81653 -8.98602,16.12873 -0.97599,0.74063 -3.80476,2.35399 -6.28591,3.58479 -2.48116,1.23081 -4.71119,2.23759 -4.95577,2.23759 -0.25343,0 -0.5159,-0.28375 -0.6103,-0.65991 -0.0911,-0.36303 -0.0168,-5.7506 0.16536,-11.97239 0.1821,-6.22179 0.40335,-15.1211 0.49145,-19.77606 l 0.16019,-8.463563 0.79375,-0.380855 c 0.86252,-0.413959 6.51921,-2.654607 8.86355,-3.510896 1.27563,-0.465942 2.44255,-0.709615 3.5021,-0.730705 z"
       id="path6363-6"
       inkscape:connector-curvature="0" />
    <path
       style="fill:none;stroke:#ffffff;stroke-width:1.56500006;stroke-linecap:butt;stroke-linejoin:miter;stroke-miterlimit:4;stroke-dasharray:none;stroke-opacity:1"
       d="M 59.184495,91.08333 58.752396,75.929067 91.819182,89.518287"
       id="path6372-3"
       inkscape:connector-curvature="0"
       sodipodi:nodetypes="ccc" />
    <path
       style="fill:none;stroke:#ffffff;stroke-width:1.56500006;stroke-linecap:butt;stroke-linejoin:miter;stroke-miterlimit:4;stroke-dasharray:none;stroke-opacity:1"
       d="m 58.223229,75.3999 21.16668,-6.31426 c 4.24048,-0.91714 5.76348,-0.11044 8.01444,0.26502 l 36.012611,13.617302"
       id="path6374-1"
       inkscape:connector-curvature="0"
       sodipodi:nodetypes="cccc" />
    <path
       style="fill:none;stroke:#ffffff;stroke-width:1.56500006;stroke-linecap:butt;stroke-linejoin:miter;stroke-miterlimit:4;stroke-dasharray:none;stroke-opacity:1"
       d="m 60.616678,121.96611 0.456258,15.132 31.130393,17.38862 v 0"
       id="path6376-4"
       inkscape:connector-curvature="0"
       sodipodi:nodetypes="cccc" />
    <path
       style="fill:#ffffff;fill-opacity:1;stroke:#014898;stroke-width:1.06534803;stroke-linecap:butt;stroke-linejoin:miter;stroke-miterlimit:4;stroke-dasharray:none;stroke-opacity:1"
       d="M 91.673846,154.61499 91.819008,88.789343"
       id="path6378-8"
       inkscape:connector-curvature="0" />
  </g>
</svg>
