<?xml version="1.0" encoding="UTF-8" standalone="no"?>
<!-- Generator: Adobe Illustrator 19.0.0, SVG Export Plug-In . SVG Version: 6.00 Build 0)  -->

<svg
   xmlns:dc="http://purl.org/dc/elements/1.1/"
   xmlns:cc="http://creativecommons.org/ns#"
   xmlns:rdf="http://www.w3.org/1999/02/22-rdf-syntax-ns#"
   xmlns:svg="http://www.w3.org/2000/svg"
   xmlns="http://www.w3.org/2000/svg"
   xmlns:sodipodi="http://sodipodi.sourceforge.net/DTD/sodipodi-0.dtd"
   xmlns:inkscape="http://www.inkscape.org/namespaces/inkscape"
   version="1.1"
   id="Layer_1"
   x="0px"
   y="0px"
   viewBox="0 0 512 512"
   style="enable-background:new 0 0 512 512;"
   xml:space="preserve"
   sodipodi:docname="alarm_historical.svg"
   inkscape:version="0.92.4 (5da689c313, 2019-01-14)"><metadata
   id="metadata51"><rdf:RDF><cc:Work
       rdf:about=""><dc:format>image/svg+xml</dc:format><dc:type
         rdf:resource="http://purl.org/dc/dcmitype/StillImage" /><dc:title></dc:title></cc:Work></rdf:RDF></metadata><defs
   id="defs49" /><sodipodi:namedview
   pagecolor="#ffffff"
   bordercolor="#666666"
   borderopacity="1"
   objecttolerance="10"
   gridtolerance="10"
   guidetolerance="10"
   inkscape:pageopacity="0"
   inkscape:pageshadow="2"
   inkscape:window-width="2400"
   inkscape:window-height="1271"
   id="namedview47"
   showgrid="false"
   inkscape:zoom="1.84375"
   inkscape:cx="237.66079"
   inkscape:cy="238.11011"
   inkscape:window-x="2391"
   inkscape:window-y="-9"
   inkscape:window-maximized="1"
   inkscape:current-layer="Layer_1" />
<g
   id="g14"
   style="fill:#ffffff">
	<g
   id="g12"
   style="fill:#ffffff">
		<g
   id="g10"
   style="fill:#ffffff">
			<path
   d="M510.827,496.533l-128-256c-3.627-7.253-15.467-7.253-19.093,0l-128,256c-2.667,5.227-0.533,11.627,4.8,14.293     c1.493,0.747,3.093,1.173,4.8,1.173h256C507.2,512,512,507.2,512,501.333C512,499.733,511.573,498.027,510.827,496.533z      M262.613,490.667l110.72-221.44l110.72,221.44H262.613z"
   id="path2"
   style="fill:#ffffff" />
			<path
   d="M362.667,350.08v69.44c0,5.333,3.84,10.133,9.067,10.88c6.613,0.96,12.267-4.16,12.267-10.56V350.4     c0-5.333-3.84-10.133-9.067-10.88C368.32,338.56,362.667,343.68,362.667,350.08z"
   id="path4"
   style="fill:#ffffff" />
			<path
   d="M373.333,444.16c-5.867,0-10.667,4.8-10.667,10.667c0,5.867,4.8,10.667,10.667,10.667c5.867,0,10.667-4.8,10.667-10.667     C384,448.96,379.2,444.16,373.333,444.16z"
   id="path6"
   style="fill:#ffffff" />
			<path
   d="M202.667,384h-105.6c4.373-5.653,7.573-12.16,9.28-19.093c0.213-0.853,0.32-1.707,0.32-2.56V128h320v74.347     c0,5.333,3.84,10.133,9.067,10.88c6.613,0.96,12.267-4.16,12.267-10.56v-85.333c0-5.867-4.8-10.667-10.667-10.667h-32V64     c0-5.867-4.8-10.667-10.667-10.667H168.533l-30.72-48.427C135.893,1.813,132.48,0,128.853,0H10.667C4.8,0,0,4.8,0,10.667v351.68     c0,0.853,0.107,1.707,0.32,2.56c5.76,23.147,25.92,38.827,50.453,39.893c0.853,0.32,1.707,0.427,2.56,0.533h149.013     c5.333,0,10.133-3.84,10.88-9.067C214.187,389.653,209.067,384,202.667,384z M85.333,117.333V360.96     c-4.8,16.747-20.16,22.72-32,22.72c-11.84,0-27.2-5.973-32-22.72V21.333H122.88L153.6,69.76c1.92,3.093,5.333,4.907,9.067,4.907     H384v32H96C90.133,106.667,85.333,111.467,85.333,117.333z"
   id="path8"
   style="fill:#ffffff" />
		</g>
	</g>
</g>
<g
   id="g16">
</g>
<g
   id="g18">
</g>
<g
   id="g20">
</g>
<g
   id="g22">
</g>
<g
   id="g24">
</g>
<g
   id="g26">
</g>
<g
   id="g28">
</g>
<g
   id="g30">
</g>
<g
   id="g32">
</g>
<g
   id="g34">
</g>
<g
   id="g36">
</g>
<g
   id="g38">
</g>
<g
   id="g40">
</g>
<g
   id="g42">
</g>
<g
   id="g44">
</g>
</svg>