<?xml version="1.0" encoding="UTF-8" standalone="no"?>
<!-- Generator: Adobe Illustrator 19.0.0, SVG Export Plug-In . SVG Version: 6.00 Build 0)  -->

<svg
   xmlns:dc="http://purl.org/dc/elements/1.1/"
   xmlns:cc="http://creativecommons.org/ns#"
   xmlns:rdf="http://www.w3.org/1999/02/22-rdf-syntax-ns#"
   xmlns:svg="http://www.w3.org/2000/svg"
   xmlns="http://www.w3.org/2000/svg"
   xmlns:sodipodi="http://sodipodi.sourceforge.net/DTD/sodipodi-0.dtd"
   xmlns:inkscape="http://www.inkscape.org/namespaces/inkscape"
   version="1.1"
   id="Layer_1"
   x="0px"
   y="0px"
   viewBox="0 0 501.481 501.481"
   style="enable-background:new 0 0 501.481 501.481;"
   xml:space="preserve"
   sodipodi:docname="alarm_actual.svg"
   inkscape:version="0.92.4 (5da689c313, 2019-01-14)"><metadata
   id="metadata55"><rdf:RDF><cc:Work
       rdf:about=""><dc:format>image/svg+xml</dc:format><dc:type
         rdf:resource="http://purl.org/dc/dcmitype/StillImage" /><dc:title></dc:title></cc:Work></rdf:RDF></metadata><defs
   id="defs53" /><sodipodi:namedview
   pagecolor="#ffffff"
   bordercolor="#666666"
   borderopacity="1"
   objecttolerance="10"
   gridtolerance="10"
   guidetolerance="10"
   inkscape:pageopacity="0"
   inkscape:pageshadow="2"
   inkscape:window-width="2400"
   inkscape:window-height="1271"
   id="namedview51"
   showgrid="false"
   inkscape:zoom="0.47060608"
   inkscape:cx="250.74049"
   inkscape:cy="250.74049"
   inkscape:window-x="2391"
   inkscape:window-y="-9"
   inkscape:window-maximized="1"
   inkscape:current-layer="Layer_1" />
<g
   id="g6"
   style="fill:#ffffff">
	<g
   id="g4"
   style="fill:#ffffff">
		<path
   d="M498.281,468.34L270.014,11.807c-4.267-7.467-10.667-11.733-19.2-11.733s-16,4.267-19.2,11.733L2.281,471.541    c-3.2,6.4-3.2,13.867,1.067,20.267c4.267,5.333,10.667,9.6,18.133,9.6h458.667c11.733,0,21.333-9.6,21.333-21.333    C501.48,475.807,500.414,471.541,498.281,468.34z M54.547,459.807L250.814,67.274l195.2,392.533H54.547z"
   id="path2"
   style="fill:#ffffff" />
	</g>
</g>
<g
   id="g12"
   style="fill:#ffffff">
	<g
   id="g10"
   style="fill:#ffffff">
		<path
   d="M250.814,182.474c-11.733,0-21.333,9.6-21.333,21.333v110.933c0,11.733,9.6,21.333,21.333,21.333    s20.267-9.6,21.333-21.333V203.807C272.147,192.074,262.547,182.474,250.814,182.474z"
   id="path8"
   style="fill:#ffffff" />
	</g>
</g>
<g
   id="g18"
   style="fill:#ffffff">
	<g
   id="g16"
   style="fill:#ffffff">
		<path
   d="M250.814,369.141c-11.733,0-21.333,9.6-21.333,21.333v7.467c0,11.733,9.6,21.333,21.333,21.333s20.267-9.6,21.333-21.333    v-7.467C272.147,378.741,262.547,369.141,250.814,369.141z"
   id="path14"
   style="fill:#ffffff" />
	</g>
</g>
<g
   id="g20">
</g>
<g
   id="g22">
</g>
<g
   id="g24">
</g>
<g
   id="g26">
</g>
<g
   id="g28">
</g>
<g
   id="g30">
</g>
<g
   id="g32">
</g>
<g
   id="g34">
</g>
<g
   id="g36">
</g>
<g
   id="g38">
</g>
<g
   id="g40">
</g>
<g
   id="g42">
</g>
<g
   id="g44">
</g>
<g
   id="g46">
</g>
<g
   id="g48">
</g>
</svg>