<?xml version="1.0" encoding="UTF-8" standalone="no"?>
<!-- Created with Inkscape (http://www.inkscape.org/) -->

<svg
   xmlns:dc="http://purl.org/dc/elements/1.1/"
   xmlns:cc="http://creativecommons.org/ns#"
   xmlns:rdf="http://www.w3.org/1999/02/22-rdf-syntax-ns#"
   xmlns:svg="http://www.w3.org/2000/svg"
   xmlns="http://www.w3.org/2000/svg"
   xmlns:sodipodi="http://sodipodi.sourceforge.net/DTD/sodipodi-0.dtd"
   xmlns:inkscape="http://www.inkscape.org/namespaces/inkscape"
   width="95mm"
   height="95mm"
   viewBox="0 0 95 95"
   version="1.1"
   id="svg57540"
   inkscape:version="0.92.4 (5da689c313, 2019-01-14)"
   sodipodi:docname="alarm_bd_icon.svg">
  <defs
     id="defs57534">
	
	
	
	
	
	
</defs>
  <sodipodi:namedview
     id="base"
     pagecolor="#ffffff"
     bordercolor="#666666"
     borderopacity="1.0"
     inkscape:pageopacity="0.0"
     inkscape:pageshadow="2"
     inkscape:zoom="0.98994949"
     inkscape:cx="155.65604"
     inkscape:cy="135.78519"
     inkscape:document-units="mm"
     inkscape:current-layer="layer1"
     showgrid="false"
     inkscape:pagecheckerboard="true"
     inkscape:window-width="1920"
     inkscape:window-height="1017"
     inkscape:window-x="1912"
     inkscape:window-y="70"
     inkscape:window-maximized="1" />
  <metadata
     id="metadata57537">
    <rdf:RDF>
      <cc:Work
         rdf:about="">
        <dc:format>image/svg+xml</dc:format>
        <dc:type
           rdf:resource="http://purl.org/dc/dcmitype/StillImage" />
        <dc:title></dc:title>
      </cc:Work>
    </rdf:RDF>
  </metadata>
  <g
     inkscape:label="Capa 1"
     inkscape:groupmode="layer"
     id="layer1"
     transform="translate(0,-202)">
    <g
       id="g61982"
       transform="matrix(2.0794046,0,0,1.7337906,39.337135,202.93064)"
       style="stroke-width:0.13934606">
	<path
   id="path61974"
   d="m 14.627,15.954 c -5.494,0 -10.098,-1.614 -11.355,-3.79 -0.221,0.383 -0.35,0.781 -0.35,1.194 v 3.561 c 0,2.751 5.242,4.983 11.705,4.983 6.467,0 11.711,-2.232 11.711,-4.983 v -3.561 c 0,-0.413 -0.131,-0.811 -0.354,-1.194 -1.257,2.175 -5.857,3.79 -11.357,3.79 z"
   inkscape:connector-curvature="0"
   style="fill:#ffffff;stroke-width:0.13934606" />

	<path
   id="path61976"
   d="m 14.627,23.31 c -5.494,0 -10.098,-1.616 -11.355,-3.788 -0.221,0.381 -0.35,0.779 -0.35,1.191 v 3.564 c 0,2.752 5.242,4.983 11.705,4.983 6.467,0 11.711,-2.23 11.711,-4.983 v -3.564 c 0,-0.412 -0.131,-0.81 -0.354,-1.19 -1.257,2.171 -5.857,3.787 -11.357,3.787 z"
   inkscape:connector-curvature="0"
   style="fill:#ffffff;stroke-width:0.13934606" />

	<path
   id="path61978"
   d="M 26.018,5.042 C 25.788,7.058 20.786,8.671 14.627,8.671 8.471,8.671 3.469,7.058 3.24,5.043 3.039,5.409 2.922,5.791 2.922,6.184 v 3.561 c 0,2.752 5.242,4.983 11.705,4.983 6.467,0 11.711,-2.23 11.711,-4.983 V 6.184 c 0,-0.393 -0.119,-0.775 -0.32,-1.142 z"
   inkscape:connector-curvature="0"
   style="fill:#ffffff;stroke-width:0.13934606" />

	<path
   id="path61980"
   d="m 14.627,7.541 c 6.303,0 11.41,-1.687 11.41,-3.771 C 26.037,1.688 20.93,0 14.627,0 8.328,0.001 3.219,1.689 3.219,3.771 c 0,2.083 5.109,3.77 11.408,3.77 z"
   inkscape:connector-curvature="0"
   style="fill:#ffffff;stroke-width:0.13934606" />

</g>
    <path
       inkscape:connector-curvature="0"
       style="fill:#ffffff;stroke-width:0.26458332"
       d="m 70.681561,271.17599 c -0.64267,-0.56303 -1.24962,-1.09484 -1.54305,-1.62269 -0.0233,-0.0426 -0.0487,-0.0857 -0.0847,-0.14525 -1.1229,-1.79705 -1.54438,-6.28174 -1.796,-8.96038 -0.0376,-0.40243 -0.0738,-0.78714 -0.11006,-1.14723 -0.004,-0.0365 -0.008,-0.0725 -0.0153,-0.12753 -0.57705,-4.0349 -2.00977,-9.85335 -5.55889,-14.65739 -2.4556,-3.32396 -5.50625,-5.56869 -9.07945,-6.68417 -0.36803,-2.59186 -2.60138,-4.59131 -5.29325,-4.59131 -2.69187,0 -4.92575,1.99998 -5.29325,4.59184 -3.57294,1.11469 -6.62385,3.35941 -9.07945,6.6839 -3.54912,4.80325 -4.9821,10.62197 -5.55889,14.65686 l -0.004,0.0323 c -0.004,0.0347 -0.008,0.0685 -0.0106,0.0934 -0.0365,0.36221 -0.0728,0.74612 -0.11033,1.14829 -0.25188,2.67996 -0.67336,7.16545 -1.80657,8.97837 -0.0201,0.0331 -0.0389,0.0661 -0.0675,0.11589 -0.30004,0.54001 -0.90699,1.07235 -1.54914,1.63565 -1.5793,1.38377 -4.86516,4.26403 -2.15794,9.29085 0.52361,0.97287 1.53564,1.57718 2.64054,1.57718 h 45.9949 c 1.10411,0 2.11561,-0.60405 2.64028,-1.57692 2.70669,-5.02602 -0.57785,-7.90654 -2.15715,-9.29164 z"
       id="path62262" />
    <path
       inkscape:connector-curvature="0"
       style="fill:#ffffff;stroke-width:0.26458332"
       d="m 52.425311,287.06713 h -10.63995 c -0.43709,0 -0.84799,0.1913 -1.12766,0.52414 -0.5244,0.62495 -0.37756,1.45786 -0.28998,1.95527 l 0.007,0.04 c 0.57891,3.31813 3.44699,5.72664 6.8199,5.72664 3.43535,0 6.38307,-2.56249 6.85588,-5.95604 l 0.0103,-0.0556 c 0.0585,-0.30824 0.195,-1.02976 -0.31459,-1.64544 -0.18229,-0.21987 -0.5961,-0.58897 -1.3208,-0.58897 z"
       id="path62264" />
    <path
       inkscape:connector-curvature="0"
       style="fill:#ffffff;stroke-width:0.26458332"
       d="m 28.316221,213.37248 c -0.35402,-2.16323 -2.39343,-3.63087 -4.55798,-3.27527 -5.98064,0.97922 -11.50382,4.0042 -15.5524728,8.5172 -4.0632068,4.53019 -6.4050338,10.13566 -6.7720108,16.21075 -0.132291,2.18784 1.534319,4.06877 3.722159,4.20079 0.08149,0.005 0.162454,0.007 0.242887,0.007 2.0825361,0 3.8306382,-1.62322 3.9576382,-3.72983 0.2579677,-4.26826 1.9031464,-8.20658 4.7577394,-11.38899 2.88581,-3.21707 6.66406,-5.28637 10.92623,-5.98434 2.16376,-0.35428 3.63008,-2.39475 3.27581,-4.55772 z"
       id="path62266" />
    <path
       inkscape:connector-curvature="0"
       style="fill:#ffffff;stroke-width:0.26458332"
       d="m 23.421951,240.8439 c 0.13732,-2.27304 1.01362,-4.37039 2.53365,-6.06531 1.53697,-1.71318 3.54912,-2.81517 5.81898,-3.18691 2.16297,-0.35428 3.62956,-2.39474 3.27528,-4.55798 -0.35401,-2.16296 -2.39316,-3.63087 -4.55798,-3.27527 -4.0169,0.65749 -7.72636,2.68896 -10.44522,5.72002 -2.69002,2.99879 -4.30503,6.86488 -4.54792,10.88655 -0.13229,2.18784 1.53432,4.06876 3.72216,4.20079 0.0815,0.005 0.16219,0.007 0.24289,0.007 2.08253,2.6e-4 3.8309,-1.62296 3.95816,-3.7293 z"
       id="path62268" />
  </g>
</svg>
