<?xml version="1.0" encoding="utf-8"?>
<!-- Svg Vector Icons : http://www.onlinewebfonts.com/icon -->
<!DOCTYPE svg PUBLIC "-//W3C//DTD SVG 1.1//EN" "http://www.w3.org/Graphics/SVG/1.1/DTD/svg11.dtd">
<svg version="1.1" xmlns="http://www.w3.org/2000/svg" xmlns:xlink="http://www.w3.org/1999/xlink" x="0px" y="0px" viewBox="0 0 1000 1000" enable-background="new 0 0 1000 1000" xml:space="preserve">
<metadata> Svg Vector Icons : http://www.onlinewebfonts.com/icon </metadata>
<g>
	<path fill="#ffffff" d="M493.2,983.2c-14.8,0-29.7-5.6-41-17L27,541c-22.7-22.6-22.7-59.3,0-82L452.2,33.8c22.7-22.7,59.3-22.7,82,0c22.7,22.6,22.7,59.3,0,82L150,500l384.2,384.2c22.7,22.7,22.7,59.3,0,82C522.9,977.5,508,983.2,493.2,983.2L493.2,983.2z"/>
	<path fill="#ffffff" d="M932,983.2c-14.8,0-29.7-5.6-41-17L465.8,541c-22.7-22.6-22.7-59.3,0-82L891,33.8c22.7-22.7,59.3-22.7,82,0c22.7,22.6,22.7,59.3,0,82L588.8,500L973,884.2c22.7,22.7,22.7,59.3,0,82C961.7,977.5,946.9,983.2,932,983.2L932,983.2z"/>
</g>
</svg>
