<?xml version="1.0" encoding="UTF-8" standalone="no"?>
<!-- Svg Vector Icons : http://www.onlinewebfonts.com/icon -->

<svg
   xmlns:dc="http://purl.org/dc/elements/1.1/"
   xmlns:cc="http://creativecommons.org/ns#"
   xmlns:rdf="http://www.w3.org/1999/02/22-rdf-syntax-ns#"
   xmlns:svg="http://www.w3.org/2000/svg"
   xmlns="http://www.w3.org/2000/svg"
   xmlns:sodipodi="http://sodipodi.sourceforge.net/DTD/sodipodi-0.dtd"
   xmlns:inkscape="http://www.inkscape.org/namespaces/inkscape"
   version="1.1"
   x="0px"
   y="0px"
   viewBox="0 0 1000 1000"
   enable-background="new 0 0 1000 1000"
   xml:space="preserve"
   id="svg10"
   sodipodi:docname="borrar.svg"
   inkscape:version="0.92.5 (2060ec1f9f, 2020-04-08)"><defs
   id="defs14" /><sodipodi:namedview
   pagecolor="#ffffff"
   bordercolor="#666666"
   borderopacity="1"
   objecttolerance="10"
   gridtolerance="10"
   guidetolerance="10"
   inkscape:pageopacity="0"
   inkscape:pageshadow="2"
   inkscape:window-width="1920"
   inkscape:window-height="1017"
   id="namedview12"
   showgrid="false"
   inkscape:zoom="0.118"
   inkscape:cx="721.57379"
   inkscape:cy="617.42699"
   inkscape:window-x="-8"
   inkscape:window-y="-8"
   inkscape:window-maximized="1"
   inkscape:current-layer="svg10" />
<metadata
   id="metadata2"> Svg Vector Icons : http://www.onlinewebfonts.com/icon <rdf:RDF><cc:Work
     rdf:about=""><dc:format>image/svg+xml</dc:format><dc:type
       rdf:resource="http://purl.org/dc/dcmitype/StillImage" /><dc:title></dc:title></cc:Work></rdf:RDF></metadata>
<g
   id="g8"
   style="fill:#ffffff;fill-opacity:1"><g
     id="g6"
     style="fill:#ffffff;fill-opacity:1"><path
       d="M336.7,132.5h530.8c33.8,0,62.7,12,86.6,35.9S990,221.2,990,255v490c0,33.8-12,62.7-35.9,86.6s-52.8,35.9-86.6,35.9H336.7L10,500L336.7,132.5z M867.5,214.2H373.4L119.4,500l253.9,285.8h494.1c11.3,0,20.9-4,28.9-12c8-8,12-17.6,12-28.9V255c0-11.3-4-20.9-12-28.9C888.4,218.2,878.8,214.2,867.5,214.2z M785.8,377.5c0,11.5-3.9,21.2-11.8,29L680.2,500l93.8,93.5c7.9,7.9,11.8,17.5,11.8,29c0,11.7-3.9,21.4-11.6,29.2s-17.5,11.6-29.2,11.6c-11.5,0-21.2-3.9-29-11.8l-93.5-93.8L529,651.5c-7.9,7.9-17.5,11.8-29,11.8c-11.3,0-20.9-4-28.9-12c-8-8-12-17.6-12-28.9c0-11.1,3.9-20.7,11.8-29l93.8-93.5L471,406.5c-7.9-8.3-11.8-18-11.8-29c0-11.3,4-20.9,12-28.9c8-8,17.6-12,28.9-12c11.5,0,21.2,3.9,29,11.8l93.5,93.8l93.5-93.8c7.9-7.9,17.5-11.8,29-11.8c11.7,0,21.4,3.9,29.2,11.6C782,356.1,785.8,365.8,785.8,377.5z"
       id="path4"
       style="fill:#ffffff;fill-opacity:1" /></g></g>
</svg>