<svg width="1643.1626" height="592" xmlns="http://www.w3.org/2000/svg">
 <metadata id="metadata11">image/svg+xml</metadata>

 <g>
  <title>background</title>
  <rect fill="none" id="canvas_background" height="602" width="802" y="-1" x="-1"/>
 </g>
 <g>
  <title>Layer 1</title>
  <g id="g4">
   <path fill="#ffffff" id="path2" d="m537.938,470.063l-126.914,-126.91c18.263,-30.165 28.976,-65.391 28.976,-103.153c0,-110.281 -89.719,-200 -200,-200c-110.281,0 -200,89.719 -200,200c0,110.281 89.719,200 200,200c37.762,0 72.984,-10.711 103.148,-28.973l126.914,126.91c9.376,9.376 21.657,14.063 33.938,14.063c12.281,0 24.563,-4.688 33.938,-14.063c18.75,-18.742 18.75,-49.132 0,-67.874zm-433.938,-230.063c0,-74.992 61.016,-136 136,-136c74.984,0 136,61.008 136,136c0,74.992 -61.016,136 -136,136c-74.984,0 -136,-61.008 -136,-136z"/>
  </g>
  <text font-style="normal" font-weight="normal" font-size="40px" font-family="sans-serif" fill="#ffffff" id="text826" y="365.70312" x="784.81354" xml:space="preserve">
   <tspan font-style="normal" font-weight="bold" font-size="192px" font-family="TAHOMA" fill="#ffffff" y="365.70312" x="784.81354" id="tspan824">BUSCAR</tspan>
  </text>
 </g>
</svg>