<?xml version="1.0" encoding="UTF-8" standalone="no"?>
<!-- Created with Inkscape (http://www.inkscape.org/) -->

<svg
   width="55.58392mm"
   height="55.56881mm"
   viewBox="0 0 55.58392 55.56881"
   version="1.1"
   id="svg5"
   inkscape:version="1.1 (c68e22c387, 2021-05-23)"
   sodipodi:docname="cambiar_vista.svg"
   xmlns:inkscape="http://www.inkscape.org/namespaces/inkscape"
   xmlns:sodipodi="http://sodipodi.sourceforge.net/DTD/sodipodi-0.dtd"
   xmlns="http://www.w3.org/2000/svg"
   xmlns:svg="http://www.w3.org/2000/svg">
  <sodipodi:namedview
     id="namedview7"
     pagecolor="#ffffff"
     bordercolor="#666666"
     borderopacity="1.0"
     inkscape:pageshadow="2"
     inkscape:pageopacity="0.0"
     inkscape:pagecheckerboard="true"
     inkscape:document-units="mm"
     showgrid="false"
     inkscape:zoom="0.76435185"
     inkscape:cx="56.910963"
     inkscape:cy="80.460327"
     inkscape:window-width="1920"
     inkscape:window-height="1017"
     inkscape:window-x="1912"
     inkscape:window-y="-8"
     inkscape:window-maximized="1"
     inkscape:current-layer="layer1" />
  <defs
     id="defs2" />
  <g
     inkscape:label="Capa 1"
     inkscape:groupmode="layer"
     id="layer1"
     transform="translate(-90.083376,-127.28937)">
    <g
       id="g21"
       transform="translate(21.115384,3.8076923)"
       style="fill:#ffffff">
      <path
         style="fill:#ffffff;fill-opacity:1;stroke-width:0.264583"
         d="m 82.923971,178.05829 0.153687,-0.99218 0.610421,-1.22231 0.610422,-1.22231 0.872903,-0.73683 0.872904,-0.73683 1.058333,-0.48245 1.058333,-0.48244 2.579688,-0.006 2.579687,-0.006 v -3.43959 -3.43958 l -10.384896,-0.002 -10.384896,-0.002 -0.941082,-0.26143 -0.941082,-0.26143 -0.778709,-0.81248 -0.77871,-0.8127 -0.0714,-18.50653 -0.0714,-18.50654 0.414975,-0.80247 0.414975,-0.80248 0.84705,-0.51647 0.847051,-0.51648 h 25.267709 25.267706 l 0.84705,0.51648 0.84705,0.51647 0.40972,0.79231 0.40972,0.79232 v 18.16325 18.16326 l -0.40115,0.84536 -0.40115,0.84536 -0.85562,0.51755 -0.85562,0.51754 -10.91406,0.0772 -10.91406,0.0772 v 3.42854 3.42855 l 2.57968,0.006 2.57969,0.006 1.19063,0.53895 1.19062,0.53895 0.75228,0.71201 0.75227,0.71201 0.59876,1.19062 0.59876,1.19063 0.15368,0.99219 0.15369,0.99218 H 96.759933 82.770285 l 0.153686,-0.99218 z m 39.000859,-14.9617 0.95553,-0.47578 0.30125,-0.66115 0.30124,-0.66116 v -17.17071 -17.17072 l -0.59531,-0.6832 -0.59532,-0.6832 -1.5875,-0.25606 -1.5875,-0.25606 -22.674994,-0.002 -22.674997,-0.002 -1.355745,0.29076 -1.355745,0.29075 -0.508373,0.83372 -0.508372,0.83373 -9.89e-4,16.87568 -9.89e-4,16.87569 0.364329,0.87197 0.36433,0.87196 0.76015,0.29786 0.760149,0.29785 0.661458,0.11326 0.661459,0.11325 23.680208,-0.0348 23.680211,-0.0348 z m -32.507085,-6.98152 -6.680729,-3.5819 v -6.87359 -6.8736 l 1.918229,1.04339 1.918229,1.04338 4.828646,2.57245 4.828646,2.57244 v 6.85913 6.85913 l -0.06615,-0.0195 -0.06615,-0.0195 -6.680729,-3.58189 z m 8.929688,-3.21316 v -6.88427 l 4.828647,-2.57244 4.82864,-2.57245 1.91823,-1.04338 1.91823,-1.04339 v 6.87672 6.87672 l -5.62239,2.97535 -5.6224,2.97535 -1.124478,0.64803 -1.124479,0.64803 z m -8.27863,-12.0614 -7.088005,-3.79139 -0.13136,-0.13136 -0.131361,-0.13136 7.293643,-3.88353 7.293641,-3.88354 7.267909,3.87285 7.26791,3.87285 v 0.0788 0.0788 l -7.26079,3.86604 -7.260789,3.86605 -0.0814,-0.0114 -0.0814,-0.0114 -7.088005,-3.79138 z"
         id="path31" />
      <path
         style="fill:#ffffff;fill-opacity:1;stroke-width:0.264583"
         d="m 83.065228,177.87541 0.132448,-1.17508 0.701611,-1.19721 0.70161,-1.19721 0.919606,-0.70141 0.919605,-0.70142 0.992725,-0.35427 0.992725,-0.35427 2.455075,-0.0116 2.455075,-0.0116 -0.07382,-3.50573 -0.07382,-3.50573 -10.054167,-0.0543 -10.054167,-0.0543 -0.996073,-0.0119 -0.996073,-0.0119 -0.988302,-0.90562 -0.988302,-0.90562 -0.07004,-18.47511 -0.07004,-18.4751 0.489351,-0.92605 0.489351,-0.92604 0.903603,-0.46261 0.903603,-0.46261 25.007253,-4.1e-4 25.007245,-4.1e-4 0.90148,0.48346 0.90147,0.48347 0.48735,0.9056 0.48736,0.9056 -0.07,18.4751 -0.07,18.47511 -0.9883,0.90562 -0.9883,0.90562 -0.73148,0.0124 -0.73149,0.0124 -10.31875,0.0537 -10.31875,0.0537 -0.0738,3.50573 -0.0738,3.50573 2.45507,0.0116 2.45508,0.0116 0.99272,0.35427 0.99273,0.35427 0.9196,0.70141 0.91961,0.70142 0.70161,1.19721 0.70161,1.19721 0.13245,1.17507 0.13244,1.17507 H 96.759933 82.93278 Z m 38.772012,-14.66247 0.86794,-0.35941 0.38883,-0.75193 0.38884,-0.75192 -0.008,-17.27721 -0.008,-17.2772 -0.34388,-0.45262 -0.34387,-0.45262 -0.77219,-0.34113 -0.77219,-0.34113 -23.415624,-0.0814 -23.415625,-0.0814 -1.397696,0.16762 -1.397696,0.16762 -0.718971,0.61834 -0.718971,0.61834 -0.06879,17.28706 -0.06879,17.28707 0.465667,0.92604 0.465667,0.92604 1.190625,0.31289 1.190625,0.31288 23.812501,-0.0483 23.812498,-0.0483 z m -32.419495,-7.12821 -6.680729,-3.59471 v -6.85325 -6.85324 l 1.124479,0.64803 1.124479,0.64803 5.622396,2.97535 5.622396,2.97535 v 6.85281 6.8528 l -0.06615,-0.0282 -0.06615,-0.0282 z m 8.929688,-3.22943 v -6.82501 l 5.622397,-2.97535 5.62239,-2.97535 1.12448,-0.64803 1.12448,-0.64803 v 6.85252 6.85252 l -6.74687,3.59587 -6.746877,3.59587 z m -7.9375,-11.86716 -6.746875,-3.63035 -0.472363,-0.26992 -0.472364,-0.26992 7.296322,-3.88326 7.296322,-3.88326 7.265945,3.87611 7.26594,3.87612 -0.0685,0.0685 -0.0685,0.0685 -7.21651,3.85696 -7.2165,3.85696 -0.05799,-0.0181 -0.05799,-0.0181 z"
         id="path29" />
      <path
         style="fill:#ffffff;fill-opacity:1;stroke-width:0.264583"
         d="m 83.001599,178.17639 v -0.87409 l 0.682253,-1.3691 0.682253,-1.36911 1.01364,-0.80282 1.01364,-0.80281 1.115497,-0.39357 1.115498,-0.39357 h 2.347985 2.347984 v -3.57188 -3.57188 H 82.243531 71.166712 l -0.729202,-0.57359 -0.729202,-0.57359 -0.364813,-0.87312 -0.364813,-0.87312 V 144.196 126.25785 l 0.483464,-0.90147 0.483464,-0.90147 0.905599,-0.48662 0.905598,-0.48661 25.312596,0.0693 25.312597,0.0693 0.70786,0.66146 0.70785,0.66146 0.37174,0.71446 0.37173,0.71447 v 17.88101 17.88101 l -0.36481,0.87312 -0.36481,0.87312 -0.7292,0.57359 -0.72921,0.57359 h -11.07682 -11.07681 v 3.57188 3.57188 h 2.33411 2.33412 l 1.22809,0.41845 1.22808,0.41845 1.09065,1.05844 1.09065,1.05843 0.50071,1.1028 0.50072,1.1028 0.006,0.8599 0.006,0.85989 H 96.759954 83.00162 v -0.87409 z m 39.040681,-15.04721 0.80838,-0.44318 0.31609,-0.69375 0.3161,-0.69375 v -17.16383 -17.16383 l -0.16435,-0.4283 -0.16436,-0.4283 -0.82783,-0.45323 -0.82784,-0.45324 -23.812496,-0.0802 -23.8125,-0.0802 -1.167494,0.16903 -1.167494,0.16904 -0.750735,0.75073 -0.750735,0.75074 9.89e-4,17.28441 9.9e-4,17.28442 0.504966,0.82812 0.504967,0.82813 1.015398,0.27242 1.015399,0.27243 24.077084,-0.0422 24.077081,-0.0422 0.80839,-0.44318 z m -32.754997,-7.17059 -6.546607,-3.49873 -0.0018,-6.78523 -0.0018,-6.78523 6.746875,3.59587 6.746875,3.59587 v 6.69509 6.69508 l -0.198438,-0.007 -0.198437,-0.007 -6.546608,-3.49873 z m 9.06015,-3.18236 v -6.69509 l 6.746877,-3.59587 6.74687,-3.59587 -0.002,6.78523 -0.002,6.78523 -6.57855,3.50573 -6.578546,3.50572 h -0.166667 -0.166666 v -6.69508 z m -6.085417,-10.81972 -4.894792,-2.64026 -2.304114,-1.24258 -2.304115,-1.24257 7.280182,-3.87132 7.280183,-3.87133 7.19476,3.84184 7.19477,3.84184 0.051,0.0455 0.051,0.0455 -7.17754,3.8296 -7.177541,3.82959 -0.149466,0.0372 -0.149465,0.0372 z"
         id="path27" />
      <path
         style="fill:#ffffff;fill-opacity:1;stroke-width:0.264583"
         d="m 83.003075,178.45517 0.0015,-0.59531 0.283193,-1.01989 0.283193,-1.01989 1.092502,-1.18522 1.092501,-1.18523 1.070226,-0.55869 1.07022,-0.55868 2.711979,-0.11048 2.711979,-0.11048 v -3.54187 -3.54187 l -10.914062,-9.8e-4 -10.914063,-9.9e-4 -0.875817,-0.53397 -0.875818,-0.53397 -0.386308,-0.92457 -0.386308,-0.92457 0.0715,-18.10037 0.0715,-18.10038 0.547975,-0.74687 0.547974,-0.74687 0.907234,-0.46261 0.907234,-0.46261 h 24.738542 24.738539 l 0.90724,0.46261 0.90723,0.46261 0.54798,0.74687 0.54797,0.74687 0.0715,18.10038 0.0715,18.10037 -0.38631,0.92457 -0.3863,0.92457 -0.87582,0.53397 -0.87582,0.53397 -10.91406,0.001 -10.91406,9.2e-4 v 3.54187 3.54187 l 2.71198,0.11048 2.71197,0.11048 1.09226,0.56992 1.09226,0.56993 1.08742,1.23538 1.08742,1.23537 0.26624,0.9585 0.26625,0.9585 0.002,0.59531 0.002,0.59531 H 96.760158 83.001824 l 0.0015,-0.59531 z m 38.467285,-15.10217 1.03022,-0.31099 0.55728,-0.74619 0.55728,-0.74619 0.0756,-16.65243 0.0756,-16.65242 -0.28441,-1.05619 -0.2844,-1.05619 -0.70542,-0.46231 -0.70541,-0.46232 -24.541606,-0.074 -24.541602,-0.074 -0.915764,0.38263 -0.915763,0.38263 -0.483601,0.73778 -0.4836,0.73778 -0.07596,15.97255 -0.07595,15.97254 0.27363,1.4802 0.273631,1.48021 0.442263,0.48869 0.442263,0.4887 0.81527,0.23672 0.81527,0.23672 23.8125,0.004 23.812499,0.004 1.03022,-0.31099 z m -32.178066,-7.40197 -6.541598,-3.49117 -0.0068,-6.68073 -0.0068,-6.68073 h 0.166666 0.166667 l 6.578547,3.50573 6.578547,3.50573 0.0016,6.68073 0.0016,6.68072 -0.198438,-0.0145 -0.198437,-0.0146 -6.541597,-3.49117 z m 9.0568,-3.1384 0.0016,-6.70277 6.578546,-3.50573 6.57855,-3.50573 h 0.16666 0.16667 l -0.006,6.68073 -0.006,6.68073 -6.48394,3.43958 -6.483929,3.43958 -0.256735,0.0882 -0.256739,0.0882 0.0016,-6.70278 z m -8.336036,-12.11799 -6.879167,-3.68183 0.09478,-0.21398 0.09478,-0.21397 6.78439,-3.63122 6.784391,-3.63122 0.396875,-0.003 0.396875,-0.003 6.800208,3.63418 6.80021,3.63417 -0.0158,0.26459 -0.0158,0.26458 -6.78439,3.63122 -6.784388,3.63122 h -0.396875 -0.396875 l -6.879167,-3.68182 z"
         id="path25" />
      <path
         style="fill:#ffffff;fill-opacity:1;stroke-width:0.264583"
         d="m 83.00741,178.32288 0.0058,-0.72761 0.538326,-1.19062 0.538325,-1.19063 0.844926,-0.88308 0.844927,-0.88308 1.058333,-0.54913 1.058333,-0.54914 2.71198,-0.12382 2.711979,-0.12382 v -3.53719 -3.5372 H 82.459293 71.598237 l -0.74132,-0.38335 -0.74132,-0.38335 -0.502312,-0.74113 -0.502311,-0.74112 v -18.40013 -18.40012 l 0.466706,-0.71234 0.466706,-0.71234 0.712283,-0.4667 0.712283,-0.46671 h 25.290981 25.290977 l 0.71229,0.46671 0.71228,0.4667 0.4667,0.71234 0.46671,0.71234 v 18.40012 18.40013 l -0.50231,0.74112 -0.50231,0.74113 -0.74132,0.38335 -0.74132,0.38335 h -10.86106 -10.86105 v 3.5372 3.53719 l 2.71198,0.12382 2.71197,0.12382 1.05834,0.54914 1.05833,0.54913 0.84493,0.88308 0.84492,0.88308 0.53833,1.19063 0.53833,1.19062 0.006,0.72761 0.006,0.7276 H 96.759954 83.00162 l 0.0058,-0.7276 z m 38.59858,-14.96389 0.90125,-0.3158 0.55395,-0.74701 0.55395,-0.747 v -17.46601 -17.46601 l -0.71897,-0.61843 -0.71897,-0.61843 -1.3977,-0.16623 -1.39769,-0.16622 -23.812502,0.08 -23.812501,0.08 -0.579319,0.38439 -0.57932,0.38438 -0.346722,0.64794 -0.346722,0.64794 v 17.13843 17.13842 l 0.553949,0.74696 0.553948,0.74696 0.90126,0.3158 0.90126,0.31579 h 23.944792 23.944787 z m -32.254391,-7.43433 -6.482291,-3.49099 -0.07074,-6.69122 -0.07074,-6.69121 0.245799,0.0897 0.245798,0.0897 6.498045,3.43958 6.498046,3.43959 0.0076,6.68073 0.0076,6.68072 -0.198438,-0.0278 -0.198437,-0.0278 z m 9.003459,-3.13407 0.0076,-6.68073 6.498042,-3.43959 6.49805,-3.43958 0.2458,-0.0897 0.2458,-0.0897 -0.0707,6.6905 -0.0707,6.69051 -6.59883,3.51953 -6.598829,3.51953 h -0.0819 -0.0819 l 0.0076,-6.68072 z m -8.314929,-12.11774 -6.852095,-3.68107 -0.102445,-0.10245 -0.102445,-0.10244 7.020153,-3.73904 7.020153,-3.73904 h 0.265649 0.26565 l 7.020151,3.73904 7.02015,3.73904 -0.10213,0.10213 -0.10214,0.10214 -6.92922,3.69945 -6.929227,3.69945 -0.320053,-0.0181 -0.320056,-0.0181 z"
         id="path23" />
    </g>
  </g>
</svg>
