<?xml version="1.0" encoding="UTF-8" standalone="no"?>
<!-- Generator: Adobe Illustrator 16.0.0, SVG Export Plug-In . SVG Version: 6.00 Build 0)  -->

<svg
   xmlns:dc="http://purl.org/dc/elements/1.1/"
   xmlns:cc="http://creativecommons.org/ns#"
   xmlns:rdf="http://www.w3.org/1999/02/22-rdf-syntax-ns#"
   xmlns:svg="http://www.w3.org/2000/svg"
   xmlns="http://www.w3.org/2000/svg"
   xmlns:sodipodi="http://sodipodi.sourceforge.net/DTD/sodipodi-0.dtd"
   xmlns:inkscape="http://www.inkscape.org/namespaces/inkscape"
   version="1.1"
   id="Capa_1"
   x="0px"
   y="0px"
   width="987.331px"
   height="987.332px"
   viewBox="0 0 987.331 987.332"
   style="enable-background:new 0 0 987.331 987.332;"
   xml:space="preserve"
   sodipodi:docname="check.svg"
   inkscape:version="0.92.4 (5da689c313, 2019-01-14)"><metadata
   id="metadata43"><rdf:RDF><cc:Work
       rdf:about=""><dc:format>image/svg+xml</dc:format><dc:type
         rdf:resource="http://purl.org/dc/dcmitype/StillImage" /><dc:title></dc:title></cc:Work></rdf:RDF></metadata><defs
   id="defs41" /><sodipodi:namedview
   pagecolor="#ffffff"
   bordercolor="#666666"
   borderopacity="1"
   objecttolerance="10"
   gridtolerance="10"
   guidetolerance="10"
   inkscape:pageopacity="0"
   inkscape:pageshadow="2"
   inkscape:window-width="849"
   inkscape:window-height="480"
   id="namedview39"
   showgrid="false"
   inkscape:zoom="0.23902801"
   inkscape:cx="493.6655"
   inkscape:cy="493.66599"
   inkscape:window-x="0"
   inkscape:window-y="0"
   inkscape:window-maximized="0"
   inkscape:current-layer="Capa_1" />
<g
   id="g6"
   style="fill:#ffffff">
	<path
   d="M120,955.166h683.1c66.2,0,120-53.801,120-120v-467.1l-120,120v347.1H120v-683h547.3l96.3-96.3   c9.101-9.1,19.101-17,29.801-23.7H120c-66.2,0-120,53.8-120,120v683.1C0,901.365,53.8,955.166,120,955.166z"
   id="path2"
   style="fill:#ffffff" />
	<path
   d="M958.2,99.465c-19.4-20.1-44.8-30.8-70.5-32.3c-2.101-0.1-4.101-0.2-6.2-0.2c-27.3,0-54.6,10.4-75.5,31.3l-334,334   c-11.3-12.101-81.1-82.4-81.1-82.4c-20.801-20.8-48.2-31.3-75.5-31.3c-27.3,0-54.601,10.4-75.5,31.3c-41.7,41.7-41.7,109.3,0,151   l81.8,81.801l75.5,75.5c20,20,47.2,31.301,75.5,31.301s55.5-11.201,75.5-31.301l406.2-406.2   C996,210.266,999.2,141.766,958.2,99.465z"
   id="path4"
   style="fill:#ffffff" />
</g>
<g
   id="g8">
</g>
<g
   id="g10">
</g>
<g
   id="g12">
</g>
<g
   id="g14">
</g>
<g
   id="g16">
</g>
<g
   id="g18">
</g>
<g
   id="g20">
</g>
<g
   id="g22">
</g>
<g
   id="g24">
</g>
<g
   id="g26">
</g>
<g
   id="g28">
</g>
<g
   id="g30">
</g>
<g
   id="g32">
</g>
<g
   id="g34">
</g>
<g
   id="g36">
</g>
</svg>