<?xml version="1.0" encoding="utf-8"?>
<!-- Svg Vector Icons : http://www.onlinewebfonts.com/icon -->
<!DOCTYPE svg PUBLIC "-//W3C//DTD SVG 1.1//EN" "http://www.w3.org/Graphics/SVG/1.1/DTD/svg11.dtd">
<svg version="1.1" xmlns="http://www.w3.org/2000/svg" xmlns:xlink="http://www.w3.org/1999/xlink" x="0px" y="0px" viewBox="0 0 1000 1000" enable-background="new 0 0 1000 1000" xml:space="preserve">
<metadata> Svg Vector Icons : http://www.onlinewebfonts.com/icon </metadata>
<g>
	<path style="fill:rgb(0, 0, 255);" d="M457.4,570.2c23.5,23.2,61.7,23.2,85.2,0l429.7-423.3c23.5-23.2,23.5-60.9,0-84.1s-61.7-23.2-85.2,0L500,444.1L112.9,62.7c-23.5-23.2-61.7-23.2-85.2,0s-23.5,60.9,0,84.1L457.4,570.2L457.4,570.2z M887.1,429.8L500,811.2L112.9,429.8c-23.5-23.2-61.7-23.2-85.2,0c-23.6,23.2-23.5,60.9,0,84.1l429.7,423.3c23.5,23.2,61.7,23.2,85.2,0l429.7-423.3c23.5-23.2,23.5-60.9,0-84.1C948.8,406.6,910.6,406.6,887.1,429.8L887.1,429.8z"/>
</g>
</svg>