<?xml version="1.0" encoding="utf-8"?>
<!-- Svg Vector Icons : http://www.onlinewebfonts.com/icon -->
<!DOCTYPE svg PUBLIC "-//W3C//DTD SVG 1.1//EN" "http://www.w3.org/Graphics/SVG/1.1/DTD/svg11.dtd">
<svg version="1.1" xmlns="http://www.w3.org/2000/svg" xmlns:xlink="http://www.w3.org/1999/xlink" x="0px" y="0px" viewBox="0 0 1000 1000" enable-background="new 0 0 1000 1000" xml:space="preserve">
<metadata> Svg Vector Icons : http://www.onlinewebfonts.com/icon </metadata>
<g>
	<path style="fill:rgb(255, 0, 0);" d="M542.6,430.6c-23.5-23-61.7-23-85.2,0L27.6,849.1c-23.5,23-23.5,60.2,0,83.2s61.7,23,85.2,0L500,555.3l387.1,377.1c23.5,23,61.7,23,85.2,0c23.5-23,23.5-60.2,0-83.2L542.6,430.6z M112.9,569.4L500,192.4l387.1,377.1c23.5,23,61.7,23,85.2,0c23.5-23,23.5-60.2,0-83.2L542.6,67.6c-23.5-23-61.7-23-85.2,0L27.6,486.2c-23.5,23-23.5,60.2,0,83.2C51.2,592.4,89.3,592.4,112.9,569.4z"/>
</g>
</svg>