<?xml version="1.0" encoding="UTF-8" standalone="no"?>
<!-- Generator: Adobe Illustrator 19.0.0, SVG Export Plug-In . SVG Version: 6.00 Build 0)  -->

<svg
   xmlns:dc="http://purl.org/dc/elements/1.1/"
   xmlns:cc="http://creativecommons.org/ns#"
   xmlns:rdf="http://www.w3.org/1999/02/22-rdf-syntax-ns#"
   xmlns:svg="http://www.w3.org/2000/svg"
   xmlns="http://www.w3.org/2000/svg"
   xmlns:sodipodi="http://sodipodi.sourceforge.net/DTD/sodipodi-0.dtd"
   xmlns:inkscape="http://www.inkscape.org/namespaces/inkscape"
   version="1.1"
   id="Layer_1"
   x="0px"
   y="0px"
   viewBox="0 0 512 512"
   style="enable-background:new 0 0 512 512;"
   xml:space="preserve"
   sodipodi:docname="filtro.svg"
   inkscape:version="0.92.4 (5da689c313, 2019-01-14)"><metadata
   id="metadata43"><rdf:RDF><cc:Work
       rdf:about=""><dc:format>image/svg+xml</dc:format><dc:type
         rdf:resource="http://purl.org/dc/dcmitype/StillImage" /><dc:title></dc:title></cc:Work></rdf:RDF></metadata><defs
   id="defs41" /><sodipodi:namedview
   pagecolor="#ffffff"
   bordercolor="#666666"
   borderopacity="1"
   objecttolerance="10"
   gridtolerance="10"
   guidetolerance="10"
   inkscape:pageopacity="0"
   inkscape:pageshadow="2"
   inkscape:window-width="2400"
   inkscape:window-height="1271"
   id="namedview39"
   showgrid="false"
   inkscape:zoom="1.84375"
   inkscape:cx="147.70221"
   inkscape:cy="328.07641"
   inkscape:window-x="2391"
   inkscape:window-y="-9"
   inkscape:window-maximized="1"
   inkscape:current-layer="Layer_1" />
<g
   id="g6"
   style="fill:#ffffff">
	<g
   id="g4"
   style="fill:#ffffff">
		<path
   d="M480.159,45.81H31.841C14.284,45.81,0,60.093,0,77.65v37.472c0,17.557,14.284,31.841,31.841,31.841h14.907L211.305,311.52    v144.056c0,4.293,2.586,8.163,6.552,9.806c1.313,0.543,2.692,0.808,4.059,0.808c2.763,0,5.478-1.078,7.508-3.109l68.559-68.56    c1.99-1.991,3.109-4.69,3.109-7.505v-75.498l164.554-164.555h14.514c17.557,0,31.841-14.284,31.841-31.841V77.65    C512,60.093,497.716,45.81,480.159,45.81z M282.968,299.621c-2.096,2.096-3.128,4.85-3.104,7.597v75.404l-47.332,47.332V307.156    c0.007-2.727-1.027-5.455-3.107-7.536L76.768,146.963h358.857L282.968,299.621z M490.773,115.122    c0,5.852-4.761,10.614-10.614,10.614H31.841c-5.852,0-10.614-4.761-10.614-10.614V77.65c0-5.852,4.761-10.614,10.614-10.614    h448.319c5.852,0,10.614,4.761,10.614,10.614V115.122z"
   id="path2"
   style="fill:#ffffff" />
	</g>
</g>
<g
   id="g8"
   style="fill:#ffffff">
</g>
<g
   id="g10"
   style="fill:#ffffff">
</g>
<g
   id="g12"
   style="fill:#ffffff">
</g>
<g
   id="g14"
   style="fill:#ffffff">
</g>
<g
   id="g16"
   style="fill:#ffffff">
</g>
<g
   id="g18"
   style="fill:#ffffff">
</g>
<g
   id="g20"
   style="fill:#ffffff">
</g>
<g
   id="g22"
   style="fill:#ffffff">
</g>
<g
   id="g24"
   style="fill:#ffffff">
</g>
<g
   id="g26"
   style="fill:#ffffff">
</g>
<g
   id="g28"
   style="fill:#ffffff">
</g>
<g
   id="g30"
   style="fill:#ffffff">
</g>
<g
   id="g32"
   style="fill:#ffffff">
</g>
<g
   id="g34"
   style="fill:#ffffff">
</g>
<g
   id="g36"
   style="fill:#ffffff">
</g>
<path
   style="fill:#ffffff;stroke:#ffffff;stroke-width:22.997;stroke-linecap:round;stroke-linejoin:miter;stroke-miterlimit:4;stroke-dasharray:none;stroke-opacity:1"
   d="M 53.075816,457.29637 449.70385,29.754471"
   id="path854"
   inkscape:connector-curvature="0" /></svg>