<svg width="1000" height="1000" xmlns="http://www.w3.org/2000/svg">
 <metadata>Svg Vector Icons : http://www.onlinewebfonts.com/icon</metadata>

 <g>
  <title>background</title>
  <rect fill="none" id="canvas_background" height="402" width="582" y="-1" x="-1"/>
 </g>
 <g>
  <title>Layer 1</title>
  <g transform="rotate(90, 500, 500)" id="svg_1">
   <path style="fill:rgb(255, 125, 125);" id="svg_2" d="m784.599976,133.100006l-408.399963,366.699982l413.799988,371.600037l0,0c13.5,12.599976 21.900024,29.700012 21.900024,48.599976c0,38.600037 -34.900024,70 -78,70c-21,0 -40.100037,-7.5 -54.100037,-19.599976l0,0l-467.799988,-420l0,0c-14.699997,-12.799988 -23.899994,-30.599976 -23.899994,-50.399994c0,0 0,-0.100006 0,-0.100006c0,-0.100006 0,-0.100006 0,-0.200012c0,-19.799988 9.099991,-37.600006 23.899994,-50.399994l0,0l467.700012,-419.999998l0.200012,0.199999c14,-12.099998 33,-19.499999 53.899963,-19.499999c43,0 78,31.299998 78,70.000003c0,21.199974 -10.5,40.199974 -27.200012,53.099983z"/>
  </g>
 </g>
</svg>