<?xml version="1.0" encoding="UTF-8" standalone="no"?>
<!-- Svg Vector Icons : http://www.onlinewebfonts.com/icon -->

<svg
   version="1.1"
   x="0px"
   y="0px"
   viewBox="0 0 1500 1500"
   enable-background="new 0 0 1000 1000"
   xml:space="preserve"
   id="svg8"
   sodipodi:docname="intro.svg"
   inkscape:version="1.1 (c68e22c387, 2021-05-23)"
   width="1500"
   height="1500"
   xmlns:inkscape="http://www.inkscape.org/namespaces/inkscape"
   xmlns:sodipodi="http://sodipodi.sourceforge.net/DTD/sodipodi-0.dtd"
   xmlns="http://www.w3.org/2000/svg"
   xmlns:svg="http://www.w3.org/2000/svg"
   xmlns:rdf="http://www.w3.org/1999/02/22-rdf-syntax-ns#"
   xmlns:cc="http://creativecommons.org/ns#"
   xmlns:dc="http://purl.org/dc/elements/1.1/"><defs
   id="defs12" /><sodipodi:namedview
   pagecolor="#ffffff"
   bordercolor="#666666"
   borderopacity="1"
   objecttolerance="10"
   gridtolerance="10"
   guidetolerance="10"
   inkscape:pageopacity="0"
   inkscape:pageshadow="2"
   inkscape:window-width="1920"
   inkscape:window-height="1017"
   id="namedview10"
   showgrid="false"
   inkscape:zoom="0.3337544"
   inkscape:cx="106.36564"
   inkscape:cy="489.88118"
   inkscape:window-x="1912"
   inkscape:window-y="-8"
   inkscape:window-maximized="1"
   inkscape:current-layer="svg8"
   inkscape:pagecheckerboard="true" />
<metadata
   id="metadata2"> Svg Vector Icons : http://www.onlinewebfonts.com/icon <rdf:RDF><cc:Work
     rdf:about=""><dc:format>image/svg+xml</dc:format><dc:type
       rdf:resource="http://purl.org/dc/dcmitype/StillImage" /></cc:Work></rdf:RDF></metadata>
<g
   id="g6"
   style="fill:#ffffff;fill-opacity:1"
   transform="translate(250.0575,250.27762)"><path
     d="m 990,435.3 c 0,40.1 -9.3,79.1 -27.9,116.8 -18.6,37.8 -43.9,71.4 -75.9,101 -32,29.6 -69,53.2 -111,70.9 -42,17.7 -86.4,26.5 -133.3,26.5 h -43.5 c -17.1,0 -35.5,0.2 -55.2,0.5 -19.7,0.3 -39.2,0.5 -58.6,0.5 h -52.4 c -21.6,0 -38.7,2 -51.3,6.1 -12.6,4.1 -18.6,12.9 -17.8,26.5 0,10.2 -0.2,21.9 -0.6,35.2 -0.4,13.3 -0.6,25.3 -0.6,36.2 0,17.7 -5.2,29.1 -15.6,34.2 -10.4,5.1 -24.2,1.5 -41.3,-10.7 -17.8,-12.3 -38.3,-26.7 -61.4,-43.4 -23.1,-16.7 -46.9,-33.8 -71.4,-51.5 -24.5,-17.7 -48.7,-35 -72.5,-52 -23.8,-17 -45,-32.3 -63.6,-45.9 C 19,673.9 10.3,662.4 9.9,651.5 9.5,640.6 17.1,629 32.8,616.8 c 16.4,-12.2 35.5,-26.7 57.4,-43.4 21.9,-16.7 44.8,-33.8 68.6,-51.5 23.8,-17.7 47.2,-35 70.3,-52.1 23.1,-17 43.5,-32.3 61.4,-45.9 19.3,-15 35.5,-20.8 48.5,-17.4 13,3.4 19.5,14.3 19.5,32.7 0,5.4 0.2,12.1 0.6,19.9 0.4,7.8 0.7,16.2 1.1,25 0.4,8.8 0.7,17.4 1.1,25.5 0.4,8.2 0.6,15.3 0.6,21.4 0,12.9 4.3,20.9 12.8,24 8.6,3.1 20.3,4.6 35.1,4.6 33.5,-0.7 71,-1 112.7,-1 h 116 c 17.1,0 34.2,-3.6 51.3,-10.7 17.1,-7.1 32.7,-16.7 46.8,-28.6 14.1,-11.9 25.7,-25.7 34.6,-41.3 8.9,-15.6 13.4,-32.3 13.4,-50 v -71.4 c 0,-27.2 -0.2,-53.6 -0.6,-79.1 -0.4,-25.5 -0.6,-47.8 -0.6,-66.8 V 175 c 0,-15 5,-27.4 15.1,-37.3 10,-9.9 22.7,-17.4 37.9,-22.5 15.2,-5.1 31.8,-7.7 49.6,-7.7 17.8,0 34.4,2.4 49.6,7.1 15.2,4.8 27.9,11.7 37.9,20.9 10,9.2 15.1,20.6 15.1,34.2 v 27.6 48 c 0,17.7 0.2,36.6 0.6,56.6 0.4,20.1 0.6,39.3 0.6,57.7 v 46.9 z"
     id="path4"
     style="fill:#ffffff;fill-opacity:1" /></g>
</svg>
