<svg width="1000" height="1000" xmlns="http://www.w3.org/2000/svg">
 <metadata>Svg Vector Icons : http://www.onlinewebfonts.com/icon</metadata>

 <g>
  <title>background</title>
  <rect fill="none" id="canvas_background" height="402" width="582" y="-1" x="-1"/>
 </g>
 <g>
  <title>Layer 1</title>
  <g transform="rotate(180, 500, 499.988)" id="svg_1">
   <path fill="#ffffff" id="svg_2" d="m493.200012,983.200012c-14.799988,0 -29.700012,-5.599976 -41,-17l-425.200012,-425.200012c-22.7,-22.599976 -22.7,-59.299988 0,-82l425.200012,-425.200001c22.700012,-22.699999 59.299988,-22.699999 82,0c22.700012,22.600002 22.700012,59.299999 0,82.000004l-384.200012,384.199997l384.200012,384.200012c22.700012,22.700012 22.700012,59.299988 0,82c-11.299988,11.299988 -26.200012,17 -41,17l0,0z"/>
   <path fill="#ffffff" id="svg_3" d="m932,983.200012c-14.799988,0 -29.700012,-5.599976 -41,-17l-425.200012,-425.200012c-22.700012,-22.599976 -22.700012,-59.299988 0,-82l425.200012,-425.200001c22.700012,-22.699999 59.299988,-22.699999 82,0c22.700012,22.600002 22.700012,59.299999 0,82.000004l-384.200012,384.199997l384.200012,384.200012c22.700012,22.700012 22.700012,59.299988 0,82c-11.299988,11.299988 -26.099976,17 -41,17l0,0z"/>
  </g>
 </g>
</svg>