<?xml version="1.0" encoding="UTF-8" standalone="no"?>
<!-- Svg Vector Icons : http://www.onlinewebfonts.com/icon -->

<svg
   xmlns:dc="http://purl.org/dc/elements/1.1/"
   xmlns:cc="http://creativecommons.org/ns#"
   xmlns:rdf="http://www.w3.org/1999/02/22-rdf-syntax-ns#"
   xmlns:svg="http://www.w3.org/2000/svg"
   xmlns="http://www.w3.org/2000/svg"
   xmlns:sodipodi="http://sodipodi.sourceforge.net/DTD/sodipodi-0.dtd"
   xmlns:inkscape="http://www.inkscape.org/namespaces/inkscape"
   version="1.1"
   x="0px"
   y="0px"
   viewBox="0 0 1000 1000"
   enable-background="new 0 0 1000 1000"
   xml:space="preserve"
   id="svg38"
   sodipodi:docname="vista_3D.svg"
   inkscape:version="0.92.5 (2060ec1f9f, 2020-04-08)"><defs
   id="defs42" /><sodipodi:namedview
   pagecolor="#ffffff"
   bordercolor="#666666"
   borderopacity="1"
   objecttolerance="10"
   gridtolerance="10"
   guidetolerance="10"
   inkscape:pageopacity="0"
   inkscape:pageshadow="2"
   inkscape:window-width="1920"
   inkscape:window-height="1017"
   id="namedview40"
   showgrid="false"
   inkscape:pagecheckerboard="true"
   inkscape:zoom="0.6675088"
   inkscape:cx="531.41705"
   inkscape:cy="452.08825"
   inkscape:window-x="-8"
   inkscape:window-y="-8"
   inkscape:window-maximized="1"
   inkscape:current-layer="svg38" />
<metadata
   id="metadata2"> Svg Vector Icons : http://www.onlinewebfonts.com/icon <rdf:RDF><cc:Work
     rdf:about=""><dc:format>image/svg+xml</dc:format><dc:type
       rdf:resource="http://purl.org/dc/dcmitype/StillImage" /><dc:title></dc:title></cc:Work></rdf:RDF></metadata>
<path
   d="m 499.41093,62.17097 c -0.62285,0 -1.33397,0.001 -1.95681,0.0904 -0.44488,0.089 -0.98014,0.0883 -1.42503,0.17725 -0.17795,0 -0.35557,0.0887 -0.53352,0.0887 -0.53386,0.089 -1.06807,0.26694 -1.69092,0.44489 -0.0889,0 -0.17725,-3.5e-4 -0.17725,0.0887 -0.53387,0.17795 -1.06842,0.35694 -1.60229,0.62388 -0.089,0 -0.0883,0.0887 -0.17727,0.0887 -0.53385,0.17796 -0.9784,0.44558 -1.42329,0.71251 -0.0889,0.089 -0.17865,0.0883 -0.26762,0.17727 -0.4449,0.26692 -0.80115,0.44558 -1.24603,0.7125 -0.17795,0.089 -0.26694,0.17693 -0.44489,0.2659 l -1.06704,0.80114 c -0.17795,0.089 -0.26693,0.1783 -0.44488,0.35627 -0.44489,0.3559 -0.89012,0.71077 -1.24604,1.15566 l -0.17726,0.179 -67.26661,76.16435 c -7.24689,8.20548 -7.74104,20.19859 0,27.85064 7.74104,7.74105 20.19683,7.74105 27.8489,0 l 33.63418,-42.53191 v 240.23915 c -38.88316,8.98672 -67.8905,43.86624 -67.8905,85.32974 0,13.70252 3.1149,26.6046 8.72048,38.17168 l -208.05427,120.11944 20.0163,-50.39392 c 1.9975,-5.02867 0.5601,-10.59664 -1.9758,-14.98887 -2.5358,-4.39224 -6.722,-7.7296 -11.9928,-9.20709 -10.5746,-2.83342 -21.3632,3.39535 -24.1196,13.92532 l -32.3256,96.33722 -0.066,0.2433 c -0.1628,0.60773 -0.293,1.09292 -0.3788,1.65616 0.012,0.19861 -0.02,0.3217 -0.086,0.5648 l -0.16,1.32423 c 0.013,0.19861 -0.02,0.32103 -0.012,0.51963 -0.012,0.51873 -0.063,0.95944 0,1.43371 -0.032,0.12156 0.012,0.19822 -0.021,0.31977 -0.012,0.51875 0.1043,1.07137 0.096,1.59012 0.045,0.0771 -0.032,0.12106 0.012,0.1981 0.113,0.55131 0.1497,1.14656 0.2624,1.69789 0.045,0.077 0.087,0.15361 0.012,0.1981 0.113,0.55133 0.3033,1.05907 0.4606,1.68745 0.089,0.15411 0.1006,0.35334 0.1894,0.50745 0.1454,0.42978 0.2909,0.85842 0.5579,1.32076 0.2343,0.58388 0.5904,1.20017 0.9018,1.73958 0.3115,0.53939 0.6682,1.15603 1.0567,1.65095 0.2995,0.34079 0.5659,0.8027 0.8654,1.1435 0.089,0.1541 0.2552,0.2647 0.3441,0.41881 0.3441,0.41785 0.7649,0.7904 1.2304,1.24082 0.045,0.077 0.089,0.15397 0.1669,0.10952 0.4211,0.37336 0.8418,0.74685 1.3398,1.07572 0.045,0.0771 0.1205,0.0324 0.1652,0.10952 0.421,0.37335 0.8758,0.62578 1.3294,0.8776 0.1216,0.0325 0.1652,0.1099 0.2867,0.14252 0.4536,0.25181 0.7855,0.47112 1.2391,0.72294 0.166,0.10965 0.2876,0.14237 0.4536,0.25199 l 1.2287,0.52308 c 0.166,0.10965 0.2868,0.1434 0.53,0.20854 0.5307,0.20732 1.0616,0.41471 1.6249,0.50049 l 0.2432,0.0643 99.594,20.17286 c 10.7296,2.17326 21.3614,-3.39536 24.1177,-13.92532 2.8335,-10.57446 -3.3953,-21.3614 -13.9253,-24.11777 l -53.6488,-7.86202 208.05255,-120.11958 c 14.68127,10.94423 39.37392,15.48937 59.03793,15.48937 21.08767,0 45.51058,-6.14675 60.63676,-18.60358 l 208.05433,120.11957 -53.65063,7.86198 c -5.35364,0.78452 -9.45699,4.81312 -11.99284,9.20535 -2.53585,4.39224 -3.33186,9.68711 -1.97592,14.99062 2.83341,10.57445 13.62036,16.80149 24.11776,13.92359 l 99.59393,-20.17113 0.2433,-0.0661 c 0.60773,-0.16284 1.09421,-0.29317 1.62488,-0.5005 0.16604,-0.10964 0.28869,-0.14165 0.53178,-0.2068 l 1.22691,-0.52482 c 0.16603,-0.10965 0.28755,-0.14237 0.45358,-0.25199 0.45362,-0.25182 0.86253,-0.42664 1.23908,-0.72294 0.12157,-0.0325 0.1652,-0.1099 0.28674,-0.1425 0.45362,-0.25181 0.87584,-0.62406 1.32946,-0.87588 0.0445,-0.077 0.12057,-0.0324 0.16509,-0.10952 0.42105,-0.37336 0.91883,-0.70236 1.33988,-1.07572 0.0444,-0.0771 0.0898,-0.15397 0.16684,-0.10952 0.42104,-0.37336 0.76484,-0.79213 1.23038,-1.24256 0.0889,-0.15411 0.25512,-0.26297 0.34409,-0.41708 0.2995,-0.34079 0.59851,-0.68116 0.86546,-1.14351 0.38847,-0.4949 0.74518,-1.11154 1.05659,-1.65095 0.31143,-0.53939 0.66759,-1.15568 0.90194,-1.73957 0.1454,-0.42977 0.41247,-0.89271 0.55785,-1.3225 0.089,-0.1541 0.10045,-0.35333 0.18942,-0.50745 0.18988,-0.50683 0.30323,-1.05732 0.46054,-1.68571 0.0444,-0.077 0.0874,-0.15361 0.01,-0.19811 0.11287,-0.55131 0.22665,-1.10379 0.26241,-1.69961 0.0445,-0.077 -0.0323,-0.12107 0.0124,-0.19812 0.11287,-0.55131 0.10431,-1.06962 0.0956,-1.58837 -0.0325,-0.12157 0.0112,-0.19996 -0.0209,-0.3215 -0.009,-0.51876 0.0142,-0.91498 0.005,-1.43372 0.0124,-0.1986 -0.0205,-0.32101 -0.009,-0.51961 l -0.15989,-1.32424 c 0.0124,-0.19861 -0.02,-0.31998 -0.0852,-0.56306 -0.0858,-0.56325 -0.17152,-1.12723 -0.37884,-1.65791 l -0.0661,-0.24329 -32.32558,-96.33723 c -3.48271,-10.37873 -13.62211,-16.80149 -24.1195,-13.92357 -10.57446,2.83342 -16.80323,13.62035 -13.92532,24.11775 l 20.01645,50.39391 -208.0526,-120.11957 c 4.7158,-10.76628 7.38582,-22.60062 7.38582,-35.05747 0,-41.55247 -29.09632,-76.43199 -67.8905,-85.32973 v -240.2391 l 33.63418,42.53192 c 3.35624,4.24413 8.89706,5.78353 13.96876,5.78353 5.07172,0 10.05376,-1.9575 13.96878,-5.78353 7.74103,-7.74105 7.74103,-20.19858 0,-27.85064 l -67.26662,-76.16437 -0.17726,-0.179 c -0.44488,-0.44488 -0.80115,-0.79975 -1.24603,-1.15566 -0.17795,-0.089 -0.26694,-0.1783 -0.44489,-0.35625 l -1.06704,-0.80115 c -0.17795,-0.089 -0.26693,-0.17691 -0.44488,-0.26589 -0.44489,-0.26694 -0.80114,-0.53457 -1.24604,-0.71252 -0.0889,-0.089 -0.17865,-0.0883 -0.26762,-0.17725 -0.44489,-0.26694 -0.9784,-0.44559 -1.42329,-0.71252 -0.089,0 -0.0883,-0.0887 -0.17727,-0.0887 -0.53386,-0.17795 -1.06841,-0.44593 -1.60228,-0.62388 -0.089,0 -0.17726,3.5e-4 -0.17726,-0.0887 -0.53387,-0.17796 -1.06808,-0.26693 -1.69092,-0.44488 -0.17795,0 -0.35557,-0.0887 -0.53352,-0.0887 -0.44488,-0.089 -0.89116,-0.17727 -1.42503,-0.17727 -0.62284,-0.089 -1.33396,-0.0904 -1.95681,-0.0904 z m -0.17726,344.78767 c 26.60427,0 48.22509,21.62258 48.22509,48.22684 0,26.60425 -21.62082,48.22509 -48.22509,48.22509 -26.60426,0 -48.22683,-21.62084 -48.22683,-48.22509 0,-26.60426 21.62257,-48.22684 48.22683,-48.22684 z"
   id="path4"
   style="fill:#ffffff;fill-opacity:1;stroke-width:0.88977468"
   inkscape:connector-curvature="0" />
<path
   id="path23"
   d="m 259.72651,971.50502 0.1013,-12.7123 9.4053,-20.8016 9.4052,-20.8017 14.7619,-15.4285 14.7619,-15.4285 18.4904,-9.594 18.49031,-9.5942 47.38164,-2.1632 47.38162,-2.1633 v -61.79913 -61.7993 H 250.15021 60.39421 l -12.9518,-6.6976 -12.9518,-6.6976 -8.776,-12.9484 -8.776,-12.9483 V 378.45439 56.981685 l 8.154,-12.4455 8.1539,-12.4455 12.4445,-8.1538 12.4444,-8.154 h 441.86461 441.86457 l 12.4446,8.154 12.4444,8.1538 8.1538,12.4455 8.154,12.4455 v 321.472705 321.473 l -8.776,12.9483 -8.776,12.9484 -12.9517,6.6976 -12.9518,6.6976 H 749.84979 560.09385 v 61.7993 61.79913 l 47.38163,2.1633 47.38146,2.1632 18.49055,9.5942 18.4903,9.594 14.762,15.4285 14.7617,15.4285 9.4053,20.8017 9.4053,20.8016 0.1049,12.71229 0.1048,12.7121 H 500.00039 259.62531 l 0.1014,-12.7121 z m 658.36478,-267.43763 15.7459,-5.5175 9.6782,-13.0511 9.6782,-13.0511 V 373.29499 74.142285 l -12.5613,-10.8048 -12.5613,-10.8047 -24.4195,-2.9042 -24.4194,-2.9041 -400.03375,1.3977 -404.03373,1.3977 -10.1214,6.7158 -10.1215,6.7156 -6.0576,11.3203 -6.0577,11.3203 v 293.429505 293.4293 l 9.6782,13.0503 9.6781,13.0503 15.7462,5.5174 15.7461,5.5173 h 406.34501 402.34497 z"
   style="fill:#ffffff;fill-opacity:1;stroke-width:4.62259102"
   inkscape:connector-curvature="0"
   sodipodi:nodetypes="ccccccccccccccccccccccccccccccccccccccccccccccccccccccccccccccccccccccccccccccc" /></svg>