<svg width="270.57" height="270.57" xmlns="http://www.w3.org/2000/svg">
 <defs>
  <filter color-interpolation-filters="sRGB" id="a">
   <feGaussianBlur stdDeviation="0.530357"/>
  </filter>
  <linearGradient y2="0.705247" y1="-0.052646" x2="0.610456" x1="-0.08776" id="e">
   <stop offset="0" stop-color="#fff"/>
   <stop offset="1" stop-opacity="0" stop-color="#fff"/>
  </linearGradient>
 </defs>
 <g>
  <path id="svg_3" fill="#999" d="m270.57251,135.297867c0,74.717545 -60.570541,135.287857 -135.287735,135.287857s-135.287742,-60.570389 -135.287742,-135.287857c0,-74.71756 60.570021,-135.287859 135.287742,-135.287859s135.287735,60.57038 135.287735,135.287859z"/>
  <path id="svg_4" fill="url(#e)" d="m269.714478,135.913971c0,73.645996 -59.701355,133.347626 -133.347305,133.347626s-133.347831,-59.701691 -133.347831,-133.347626c0,-73.645996 59.701873,-133.347636 133.347831,-133.347636s133.347305,59.701717 133.347305,133.347636z"/>
  <path id="svg_5" filter="url(#a)" fill="#ececec" d="m256.703918,135.295517c0,67.043228 -54.348907,121.392288 -121.392029,121.392288s-121.39257,-54.349136 -121.39257,-121.392288c0,-67.043228 54.349442,-121.392282 121.39257,-121.392282s121.392029,54.349122 121.392029,121.392282z"/>
  <path id="svg_6" filter="url(#a)" fill="#999" d="m251.784241,135.28891c0,64.343948 -52.160736,116.504822 -116.504776,116.504822s-116.504784,-52.16095 -116.504784,-116.504822c0,-64.343933 52.160721,-116.504799 116.504784,-116.504799s116.504776,52.160934 116.504776,116.504799z"/>
  <path id="svg_7" fill="#ff7c00" d="m247.34726,135.291901c0,61.848755 -50.138397,111.986893 -111.987,111.986893s-111.986992,-50.138199 -111.986992,-111.986893c0,-61.848763 50.138405,-111.986893 111.986992,-111.986893s111.987,50.138191 111.987,111.986893z"/>
 </g>
</svg>