<?xml version="1.0" encoding="utf-8"?>
<!-- Generator: Adobe Illustrator 23.0.3, SVG Export Plug-In . SVG Version: 6.00 Build 0)  -->
<svg version="1.1" xmlns="http://www.w3.org/2000/svg" xmlns:xlink="http://www.w3.org/1999/xlink" x="0px" y="0px"
	 viewBox="0 0 75.1 64.6" style="enable-background:new 0 0 75.1 64.6;" xml:space="preserve">
<style type="text/css">
	.st0{enable-background:new    ;}
	.st1{fill:#CDCCCC;}
	.st2{fill:#D9D9D9;}
	.st3{fill:#636363;}
	.st4{fill:#868686;}
	.st5{fill:#50566D;}
	.st6{fill:#31AA59;}
	.st7{fill:#6ABA82;}
	.st8{fill:#035426;}
	.st9{fill:#006E32;}
	.st10{fill:#BD1622;}
	.st11{fill:#CC5261;}
	.st12{fill:#5B1016;}
	.st13{fill:#751518;}
	.st14{fill:#9FABD8;}
	.st15{fill:#BFC9E8;}
	.st16{fill:#264B8C;}
	.st17{fill:#3458A3;}
</style>
<g id="Capa_2">
</g>
<g id="Capa_1">
	<g>
		<g class="st0">
			<path class="st6" d="M65.1,21.3l8.1-4.6c0.7-0.4,0.9-1.3,0.8-2c0-1.1-0.4-2.1-1-3c-0.6-0.9-1.3-1.7-2.3-2.1
				c-0.5-0.2-1.1-0.3-1.6,0L61,14.3L65.1,21.3z"/>
			<g>
				<path class="st7" d="M63.1,14.5c1.6,0.9,2.9,3.2,2.9,5c0,1.8-1.3,2.6-2.9,1.7c-1.6-0.9-2.9-3.2-2.9-5
					C60.2,14.3,61.5,13.6,63.1,14.5z"/>
			</g>
		</g>
		<g class="st0">
			<path class="st7" d="M68,40.3l2.6-1.5c3.7-2.1,4.6-6.7,4.5-10.6c-0.2-5.6-2.3-11.1-5.3-15.8c-3-4.7-7.2-9.3-12.5-11.4
				c-2.7-1.1-6-1.5-8.6,0.1l-2.6,1.5L68,40.3z"/>
			<g>
				<path class="st8" d="M57.1,3.6c8.6,4.9,15.5,16.9,15.4,26.7c0,9.8-7,13.8-15.5,8.9S41.5,22.3,41.6,12.4
					C41.6,2.6,48.5-1.4,57.1,3.6z"/>
			</g>
		</g>
		<g class="st0">
			<path class="st7" d="M65.3,41.9l2.6-1.5c3.7-2.1,4.6-6.7,4.5-10.6c-0.2-5.6-2.3-11.1-5.3-15.8c-3-4.7-7.2-9.3-12.5-11.4
				c-2.7-1.1-6-1.5-8.6,0.1l-2.6,1.5L65.3,41.9z"/>
			<g>
				<path class="st8" d="M54.3,5.2c8.6,4.9,15.5,16.9,15.4,26.7c0,9.8-7,13.8-15.5,8.9S38.8,23.9,38.8,14
					C38.8,4.2,45.8,0.2,54.3,5.2z"/>
			</g>
		</g>
		<g class="st0">
			<path class="st9" d="M27.4,59.1l34.8-19.7c2.9-1.7,3.7-5.4,3.6-8.5c-0.1-4.5-1.9-8.9-4.3-12.7c-2.4-3.8-5.8-7.4-10-9.1
				c-2.2-0.9-4.8-1.2-6.9,0.1L9.8,28.8L27.4,59.1z"/>
			<g>
				<path class="st7" d="M18.7,29.7c6.9,4,12.4,13.6,12.4,21.4c0,7.9-5.6,11.1-12.5,7.1S6.2,44.6,6.2,36.8
					C6.2,28.9,11.8,25.7,18.7,29.7z"/>
			</g>
		</g>
		<g>
			<g class="st0">
				<g>
					<polygon class="st9" points="8.8,26 10.9,29.7 10.3,30 8.2,26.4 					"/>
				</g>
				<g>
					<polygon class="st7" points="8.8,26 43.3,6 45.4,9.7 10.9,29.7 					"/>
				</g>
				<g>
					<polygon class="st6" points="8.2,26.4 42.7,6.3 43.3,6 8.8,26 					"/>
				</g>
			</g>
			<g class="st0">
				<g>
					<polygon class="st9" points="14.7,24.8 15.8,28.6 15.1,28.5 13.9,24.7 					"/>
				</g>
				<g>
					<polygon class="st7" points="14.7,24.8 49.2,4.7 50.3,8.6 15.8,28.6 					"/>
				</g>
				<g>
					<polygon class="st6" points="13.9,24.7 48.4,4.6 49.2,4.7 14.7,24.8 					"/>
				</g>
			</g>
			<g class="st0">
				<g>
					<polygon class="st9" points="20.4,27.5 20.4,30.9 19.6,30.5 19.6,27 					"/>
				</g>
				<g>
					<polygon class="st6" points="20.4,27.5 54.9,7.4 54.9,10.9 20.4,30.9 					"/>
				</g>
				<g>
					<polygon class="st7" points="19.6,27 54.1,6.9 54.9,7.4 20.4,27.5 					"/>
				</g>
			</g>
			<g>
				<polygon class="st6" points="49.6,11.2 37.2,4.4 26.6,10.4 38.9,20.2 49.6,11.2 				"/>
				<polygon class="st8" points="39,24.4 38.9,17.5 26.6,10.4 26.6,17.3 				"/>
				<polygon class="st8" points="39,24.4 49.6,18.1 49.6,11.2 38.9,17.5 				"/>
				<g>
					<polygon class="st7" points="50.5,11.2 37.1,3.9 25.7,10.4 39,18 50.5,11.2 					"/>
					<g>
						<polygon class="st6" points="39,19.4 39,18 25.7,10.4 25.7,11.7 						"/>
						<polygon class="st9" points="39,19.4 50.5,12.6 50.5,11.2 39,18 						"/>
					</g>
				</g>
			</g>
			<g class="st0">
				<g>
					<polygon class="st9" points="14.7,24.8 15.8,28.6 15.1,28.5 13.9,24.7 					"/>
				</g>
				<g>
					<polygon class="st7" points="14.7,24.8 29.9,15.9 31.1,19.8 15.8,28.6 					"/>
				</g>
				<g>
					<polygon class="st6" points="13.9,24.7 29.2,15.8 29.9,15.9 14.7,24.8 					"/>
				</g>
			</g>
			<g class="st0">
				<g>
					<polygon class="st9" points="20.4,27.5 20.4,30.9 19.6,30.5 19.6,27 					"/>
				</g>
				<g>
					<polygon class="st6" points="20.4,27.5 35.2,18.9 35.2,22.3 20.4,30.9 					"/>
				</g>
				<g>
					<polygon class="st7" points="19.6,27 34.4,18.4 35.2,18.9 20.4,27.5 					"/>
				</g>
			</g>
			<g class="st0">
				<g>
					<polygon class="st9" points="24.6,31.5 25.3,32.3 24.1,34.7 23.4,33.9 					"/>
				</g>
				<g>
					<polygon class="st7" points="24.6,31.5 59.1,11.4 59.9,12.2 25.3,32.3 					"/>
				</g>
				<g>
					<polygon class="st6" points="25.3,32.3 59.9,12.2 58.6,14.7 24.1,34.7 					"/>
				</g>
			</g>
			<g class="st0">
				<g>
					<polygon class="st9" points="25.2,58.2 27.3,61.9 26.7,62.2 24.6,58.5 					"/>
				</g>
				<g>
					<polygon class="st7" points="25.2,58.2 59.7,38.1 61.8,41.8 27.3,61.9 					"/>
				</g>
				<g>
					<polygon class="st5" points="24.6,58.5 59.1,38.4 59.7,38.1 25.2,58.2 					"/>
				</g>
			</g>
			<g class="st0">
				<g>
					<polygon class="st9" points="31.2,53.6 34,56.6 33.7,57.3 30.9,54.3 					"/>
				</g>
				<g>
					<polygon class="st7" points="31.2,53.6 65.8,33.6 68.5,36.5 34,56.6 					"/>
				</g>
				<g>
					<polygon class="st6" points="34,56.6 68.5,36.5 68.2,37.2 33.7,57.3 					"/>
				</g>
			</g>
			<g>
				<g>
					<polygon class="st9" points="34.1,49.3 34.1,50.2 31.1,48.5 31.1,47.6 					"/>
				</g>
				<g>
					<polygon class="st6" points="34.1,49.3 68.6,29.2 68.6,30.1 34.1,50.2 					"/>
				</g>
				<g>
					<polygon class="st7" points="31.1,47.6 65.6,27.5 68.6,29.2 34.1,49.3 					"/>
				</g>
			</g>
			<g>
				<g>
					<polygon class="st6" points="29.3,42.1 63.8,22 66.6,22.3 32.1,42.4 					"/>
				</g>
				<g>
					<polygon class="st9" points="32.1,42.4 32.4,43.4 29.6,43.1 29.3,42.1 					"/>
				</g>
				<g>
					<polygon class="st7" points="32.1,42.4 66.6,22.3 66.9,23.3 32.4,43.4 					"/>
				</g>
			</g>
			<g>
				<polygon class="st9" points="28.5,36.7 29.1,37.7 26.9,38.9 26.4,37.9 				"/>
			</g>
			<g>
				<polygon class="st7" points="28.5,36.7 63,16.6 63.6,17.6 29.1,37.7 				"/>
			</g>
			<g>
				<polygon class="st5" points="26.4,37.9 60.9,17.8 63,16.6 28.5,36.7 				"/>
			</g>
		</g>
		<g class="st0">
			<path class="st7" d="M25.8,63.6l4.6-2.8c3.6-2.1,4.5-6.6,4.4-10.4C34.6,45,32.5,39.6,29.6,35c-2.9-4.6-7-9-12.2-11.1
				c-2.7-1.1-5.8-1.4-8.4,0.1l-4.6,2.8L25.8,63.6z"/>
			<g>
				<path class="st9" d="M15.1,27.8c8.3,4.8,15.1,16.5,15,26c0,9.6-6.8,13.4-15.1,8.6S0,46,0,36.5C0,26.9,6.8,23,15.1,27.8z"/>
			</g>
		</g>
	</g>
</g>
</svg>
