<svg width="4000" height="1000" xmlns="http://www.w3.org/2000/svg">
 <metadata>Svg Vector Icons : http://www.onlinewebfonts.com/icon</metadata>

 <g>
  <title>background</title>
  <rect fill="none" id="canvas_background" height="1002" width="4002" y="-1" x="-1"/>
 </g>
 <g>
  <title>Layer 1</title>
  <g stroke="null" id="svg_1">
   <g stroke="null" id="svg_2" transform="matrix(0.6612222194671631,0,0,-0.6612222194671631,3.387777805328369,1019.0251069068909) ">
    <path fill="#ffffff" stroke="#ffffff" id="svg_3" d="m617.966623,376.648029l490,0l0,245l-490,0l0,-245zm571.7,0l81.7,0l0,571.7c0,6 -2.1,14.1 -6.4,24.6c-4.3,10.4 -8.5,17.8 -12.8,22l-179.3,179.3c-4.3,4.3 -11.5,8.5 -21.7,12.8c-10.2,4.3 -18.5,6.4 -24.9,6.4l0,-265.4c0,-17 -6,-31.5 -17.9,-43.4c-11.9,-11.9 -26.4,-17.9 -43.4,-17.9l-367.4,0c-17,0 -31.5,6 -43.4,17.9c-11.9,11.9 -17.9,26.4 -17.9,43.4l0,265.4l-81.6,0l0,-816.8l81.7,0l0,265.4c0,17 6,31.5 17.9,43.4c11.9,11.9 26.4,17.9 43.4,17.9l530.8,0c17,0 31.5,-6 43.4,-17.9c11.9,-11.9 17.9,-26.4 17.9,-43.4l0,-265.4l-0.1,0zm-245,592l0,204.2c0,5.5 -2,10.3 -6.1,14.4c-4,4 -8.8,6.1 -14.4,6.1l-122.4,0c-5.5,0 -10.3,-2 -14.4,-6.1c-4,-4 -6.1,-8.8 -6.1,-14.4l0,-204.2c0,-5.5 2,-10.3 6.1,-14.4c4,-4 8.8,-6.1 14.4,-6.1l122.5,0c5.5,0 10.3,2 14.4,6.1c3.9,4.1 6,8.9 6,14.4zm408.3,-20.4l0,-592.1c0,-17 -6,-31.5 -17.9,-43.4c-11.9,-11.8 -26.3,-17.8 -43.3,-17.8l-857.5,0c-17,0 -31.5,6 -43.4,17.9c-11.9,11.9 -17.9,26.3 -17.9,43.3l0,857.5c0,17 6,31.5 17.9,43.4c11.9,11.9 26.4,17.9 43.4,17.9l592.1,0c17,0 35.7,-4.3 56.1,-12.8c20.4,-8.5 36.6,-18.7 48.5,-30.6l178.6,-178.6c11.9,-11.9 22.1,-28.1 30.6,-48.5c8.5,-20.4 12.8,-39.2 12.8,-56.2z"/>
   </g>
  </g>
  <text stroke="#ffffff" transform="matrix(1.1754799113475654,0,0,1.1754799113475654,-203.32726411420944,-134.5662882400064) " xml:space="preserve" text-anchor="start" font-family="'Tahoma', Gadget, sans-serif" font-size="250" id="svg_4" y="630.016973" x="1300.318565" stroke-width="0" fill="#ffffff">ALMACENAR</text>
 </g>
</svg>