<svg width="3000" height="1000" xmlns="http://www.w3.org/2000/svg">
 <metadata>Svg Vector Icons : http://www.onlinewebfonts.com/icon</metadata>

 <g>
  <title>background</title>
  <rect fill="none" id="canvas_background" height="1002" width="3002" y="-1" x="-1"/>
 </g>
 <g>
  <title>Layer 1</title>
  <g stroke="null" id="svg_1">
   <g stroke="null" id="svg_2" transform="translate(0,511) scale(0.10000000149011612,-0.10000000149011612) ">
    <path fill="#ffffff" stroke="null" id="svg_3" d="m2552.141143,3478.037404c-50.904792,-20.624028 -59.181994,-57.80246 -59.181994,-273.837429l0,-207.757767l-211.896368,0c-188.513273,0 -214.655436,-2.759067 -243.556666,-26.142163l-33.039831,-26.142163l-4.138601,-2778.104861c-1.379534,-1963.559219 1.379534,-2787.761597 12.415803,-2812.524226c6.897668,-20.624028 30.280764,-42.62759 48.145724,-52.284325c24.762629,-11.036269 509.116893,-15.105893 1770.907345,-15.105893l1737.867514,0l24.762629,-44.007123c48.145724,-81.185555 231.140863,-257.283025 337.089047,-326.121755c224.312171,-143.126616 374.267479,-185.754206 654.9336,-185.754206c233.89993,-1.379534 306.87726,13.72636 499.460157,103.189117c433.449472,199.549542 693.491565,606.787875 694.871099,1085.692981c1.379534,345.366249 -123.813145,632.930038 -379.785613,875.10717c-182.995138,174.717937 -345.366249,253.213401 -652.243509,316.465019l-31.660297,5.518135l0,1823.19167l0,1821.812136l-372.887945,355.022984c-204.9987,195.410941 -382.544681,359.161585 -394.891507,364.610743c-34.281411,13.657383 -3361.440665,10.898316 -3397.170586,-2.828044zm3256.940991,-487.113331c0,-255.903492 2.759067,-283.425188 26.142163,-312.326418c26.142163,-33.039831 28.90123,-33.039831 350.884383,-37.109455l324.742221,-4.138601l0,-1758.560518l0,-1759.871075l-77.046954,-9.656736c-290.322856,-35.798898 -569.67842,-188.513273 -765.089361,-416.895069c-134.849414,-156.852976 -272.457896,-473.317995 -272.457896,-627.48088c0,-23.383095 -5.518135,-50.904792 -11.036269,-60.561527c-9.656736,-13.72636 -287.563789,-16.485427 -1345.735074,-13.72636l-1333.319271,4.138601l-4.138601,2639.116846l-2.759067,2637.737313l1554.872375,0l1554.872375,0l0,-280.666121l0.068977,0zm-3316.122984,-2670.777143l0,-2471.296578l34.419365,-33.039831l33.039831,-34.419365l1414.504826,0l1414.504826,0l23.383095,-107.327718c12.415803,-57.80246 27.521696,-119.743521 33.039831,-136.228948l8.277202,-31.660297l-1618.19297,0l-1618.19297,0l0,2641.94489l0,2641.875914l137.608481,0l137.608481,0l0,-2469.848068zm4187.091553,-1535.627881l37.178432,-27.521696l2.759067,-381.165147l4.138601,-381.165147l377.026546,-6.897668l377.026546,-6.897668l27.521696,-37.178432c31.660297,-41.248056 24.762629,-92.221824 -17.864961,-134.849414c-26.142163,-26.142163 -46.766191,-27.521696 -399.030108,-27.521696l-371.508412,0l0,-378.40608c0,-360.472142 -1.379534,-379.785613 -27.521696,-405.927776c-16.485427,-16.485427 -45.386657,-27.521696 -75.667421,-27.521696c-30.280764,0 -59.181994,10.967293 -75.667421,27.521696c-26.142163,26.142163 -27.521696,45.386657 -27.521696,405.927776l0,378.40608l-385.303748,0c-364.610743,0 -386.683282,1.379534 -412.825444,27.521696c-42.62759,42.62759 -49.525258,93.532381 -17.864961,134.849414l27.521696,37.178432l394.891507,4.138601l393.511973,2.759067l0,379.785613l0,378.40608l34.419365,33.039831c41.248056,41.317033 88.014247,44.0761 134.780437,5.518135z"/>
    <path fill="#ffffff" stroke="null" id="svg_4" d="m3339.16509,2146.097667c-71.52882,-8.277202 -96.291449,-64.700128 -48.145724,-112.845852c27.521696,-27.521696 45.386657,-27.521696 1311.31571,-27.521696c1139.287864,0 1286.553081,2.759067 1314.074777,22.003562c34.419365,23.383095 38.488989,57.80246 12.415803,93.532381c-16.485427,23.383095 -88.083223,24.762629 -1282.41448,26.142163c-696.250632,1.44851 -1283.794013,1.44851 -1307.246085,-1.310557z"/>
    <path fill="#ffffff" stroke="null" id="svg_5" d="m3289.639832,1137.451639c-28.90123,-28.90123 -26.142163,-77.046954 6.897668,-97.670982c8.277202,-5.518135 602.718251,-9.656736 1322.351979,-6.897668l1307.177109,2.759067l12.415803,37.178432c10.967293,30.280764 8.277202,44.007123 -12.415803,66.010685c-24.762629,27.521696 -35.798898,27.521696 -1316.833844,27.521696c-1282.41448,0 -1290.691682,0 -1319.592911,-28.90123z"/>
    <path fill="#ffffff" stroke="null" id="svg_6" d="m3285.501231,282.968498c-27.521696,-39.937499 -27.521696,-46.766191 5.518135,-79.806022c27.521696,-27.521696 45.386657,-27.521696 1318.213378,-27.521696c1281.034946,0 1292.071215,0 1316.833844,27.521696c20.624028,22.003562 23.383095,35.798898 12.415803,66.079662l-12.415803,37.178432l-1309.936176,4.138601l-1309.936176,2.759067l-20.693005,-30.34974z"/>
    <path fill="#ffffff" stroke="null" id="svg_7" d="m3289.639832,-623.79897c-28.90123,-28.90123 -26.142163,-77.046954 6.897668,-97.670982c8.277202,-5.518135 602.718251,-9.656736 1322.351979,-6.897668l1307.177109,2.759067l12.415803,37.178432c10.967293,30.280764 8.277202,44.007123 -12.415803,66.079662c-24.762629,27.521696 -35.798898,27.521696 -1316.833844,27.521696c-1282.41448,-0.068977 -1290.691682,-0.068977 -1319.592911,-28.970207z"/>
   </g>
  </g>
  <text xml:space="preserve" text-anchor="start" font-family="'Tahoma', Gadget, sans-serif" font-size="250" id="svg_8" y="588.333333" x="1200" stroke-width="0" stroke="#ffffff" fill="#ffffff">AÑADIR</text>
 </g>
</svg>