<svg width="1400" height="500" xmlns="http://www.w3.org/2000/svg">
 <metadata>Svg Vector Icons : http://www.onlinewebfonts.com/icon</metadata>

 <g>
  <title>background</title>
  <rect fill="none" id="canvas_background" height="502" width="1402" y="-1" x="-1"/>
 </g>
 <g>
  <title>Layer 1</title>
  <g stroke="null" id="svg_1">
   <g stroke="null" id="svg_2" transform="translate(0,511) scale(0.10000000149011612,-0.10000000149011612) ">
    <path fill="#ffffff" stroke="#ffffff" id="svg_3" d="m799.999964,4024.505024c0,-158.040828 6.213878,-202.93879 32.542043,-260.264509c41.844901,-92.956741 99.134701,-151.82695 192.127361,-195.216341l77.475924,-37.175513l694.086581,0l692.542091,0l0,-153.37144l0,-154.91593l-421.394316,-4.669388c-399.699621,-4.63347 -426.063705,-6.17796 -486.478403,-38.720003c-82.109394,-43.389391 -165.763277,-137.890622 -196.760831,-223.088996c-13.936328,-37.175513 -43.389391,-227.758384 -63.539596,-424.519215c-21.694695,-195.216341 -60.414698,-557.740449 -88.323272,-802.52414c-46.514289,-430.733093 -48.058779,-449.338808 -21.730614,-515.931466c13.936328,-38.720003 51.11184,-88.323272 82.109394,-114.651437c113.106947,-92.956741 105.348579,-92.956741 1281.280093,-92.956741c1220.829477,0 1188.323352,-3.08898 1304.519279,117.740417c103.804089,106.893069 106.893069,3.08898 -41.844901,1355.631119c-26.328165,226.213894 -54.236739,435.366562 -65.084086,464.783707c-41.844901,123.954295 -134.801642,216.911036 -258.720019,258.720019c-35.631023,12.391838 -189.002463,18.605716 -460.114319,18.605716l-409.038397,0l0,154.91593l0,153.37144l701.844949,4.63347c769.982097,4.63347 743.653932,1.54449 852.091491,103.804089c91.412252,83.653884 110.017967,144.1045 116.195927,370.282476l6.213878,204.519199l-1760.000128,0l-1760.000128,0l0,-189.002463zm3361.959429,-69.717556c0,-122.409805 -30.997553,-187.457973 -111.562457,-237.025323c-49.567351,-30.997553 -82.109394,-30.997553 -1491.977252,-30.997553s-1442.409901,0 -1491.977252,30.997553c-80.564904,49.567351 -111.562457,114.651437 -111.562457,237.025323l0,103.804089l1603.50379,0l1603.575627,0l0,-103.804089zm-652.24168,-920.264557c74.351026,-44.933881 105.348579,-88.323272 123.954295,-168.888176c13.936328,-54.236739 119.284907,-993.107011 167.307767,-1490.432762c6.17796,-68.173066 3.08898,-97.590211 -17.061226,-130.132254c-57.2898,-85.198374 -41.808983,-83.653884 -1209.982129,-83.653884c-1168.173146,0 -1152.656411,-1.54449 -1208.437639,83.653884c-24.783675,37.175513 -24.783675,60.414698 15.480817,422.938806c142.524092,1326.178056 131.676744,1259.585398 212.241648,1330.847444c74.351026,68.173066 63.503678,66.628576 980.715173,68.173066c866.063737,0.035918 884.633534,0.035918 935.781293,-32.506125z"/>
    <path fill="#ffffff" stroke="#ffffff" id="svg_4" d="m2395.781305,2890.418411c-285.084102,-72.806536 -505.084118,-269.567367 -601.12984,-540.679223c-55.781229,-156.496338 -58.870208,-371.826966 -4.63347,-536.081672c79.020414,-241.694711 288.173082,-450.84738 529.867794,-529.831875c88.287353,-29.453063 148.73797,-37.175513 261.844917,-37.175513c278.870224,0 515.895548,120.829397 675.480866,342.373902c108.437559,153.37144 153.407358,294.351042 153.407358,486.478403c0,113.106947 -7.758368,173.521645 -37.175513,261.844917c-77.475924,237.025323 -286.628592,449.30289 -522.109426,526.742896c-133.293071,44.933881 -336.26778,55.781229 -455.552686,26.328165zm472.542075,-199.84981c153.37144,-72.806536 255.631039,-176.610625 329.982065,-333.106963c54.236739,-114.651437 57.325718,-127.043275 57.325718,-281.959204s-3.08898,-167.307767 -57.325718,-281.959204c-74.351026,-158.040828 -176.610625,-260.264509 -334.651453,-334.651453c-114.651437,-54.236739 -127.043275,-57.325718 -281.959204,-57.325718c-154.91593,0 -167.307767,3.08898 -281.959204,57.325718c-435.366562,207.57226 -534.537182,760.679239 -198.341239,1096.875182c147.19348,145.613072 302.10941,204.519199 514.386976,195.216341c116.195927,-4.63347 151.82695,-12.391838 252.542059,-60.414698z"/>
    <path fill="#ffffff" stroke="#ffffff" id="svg_5" d="m2488.738046,2464.354706c0,-86.742863 -1.54449,-91.412252 -46.478371,-109.982049c-66.628576,-27.872655 -151.82695,-128.587764 -164.218787,-193.671851c-29.417145,-161.129808 29.453063,-291.262062 164.218787,-359.435128c128.587764,-66.628576 281.959204,-29.417145 378.040844,92.956741c44.933881,55.781229 48.022861,69.717556 48.022861,181.280013c0,111.562457 -3.08898,125.498785 -48.022861,181.280013c-24.783675,32.542043 -75.931434,72.806536 -111.562457,89.867762c-63.539596,30.997553 -63.539596,30.997553 -65.084086,120.829397l0,88.287353l-77.475924,0l-77.475924,0l0,-91.412252l0.035918,0zm168.888176,-258.720019c20.150206,-13.936328 44.933881,-49.567351 57.325718,-77.475924c18.605716,-44.933881 18.605716,-60.414698 0,-105.348579c-55.781229,-134.765724 -224.633486,-137.890622 -280.414714,-3.08898c-27.872655,65.048168 -12.391838,125.498785 41.844901,171.977155c52.620412,44.933881 128.551846,51.11184 181.244095,13.936328z"/>
   </g>
  </g>
  <text stroke="#ffffff" xml:space="preserve" text-anchor="start" font-family="'Tahoma', Gadget, sans-serif" font-size="105" id="svg_6" y="292.002604" x="550" stroke-width="0" fill="#ffffff">BÁSCULAS</text>
 </g>
</svg>