<svg width="40" height="40" xmlns="http://www.w3.org/2000/svg">
 <g>
  <path id="svg_27" fill="rgb(255, 255, 255)" d="m20.000011,5.000652c-8.192641,0 -14.824211,6.710005 -14.824211,14.999545c0,8.283411 6.631569,14.996469 14.824211,14.999529c8.186607,-0.003059 14.821198,-6.716118 14.82423,-14.999529c-0.003033,-8.289539 -6.637623,-14.999545 -14.82423,-14.999545zm0,26.469594c-6.25944,-0.012238 -11.326901,-5.139641 -11.339,-11.470049c0.01512,-6.333481 5.079559,-11.46088 11.342029,-11.47312c6.256432,0.012239 11.323891,5.139639 11.335999,11.47312c-0.015129,6.330408 -5.082588,11.4578 -11.339027,11.470049z"/>
  <g id="svg_18" transform="matrix(0.0437848, 0, 0, 0.0445546, 47.2938, 95.7254)">
   <path fill="#ffffff" d="m-473.405609,-1579.612793l-113.786041,0l124.393097,-124.394043c5.85791,-5.856934 5.85791,-15.35498 0,-21.213135l-120.000031,-119.999756c-5.857056,-5.858154 -15.35498,-5.858154 -21.213013,0l-180,179.998779c-2.813965,2.812988 -4.394043,6.628174 -4.394043,10.607178s1.580078,7.793945 4.394043,10.606934l90,90c2.812988,2.812988 6.628052,4.393066 10.605957,4.393066l60,0.000977c0.005981,0 0.010986,-0.000977 0.016968,-0.000977l149.983063,0.000977c8.282959,0 15,-6.716064 15,-15c0,-8.284058 -6.715942,-15 -15,-15zm-120.000031,-233.787109l98.787018,98.787109l-86.787018,86.786865l-98.786987,-98.786865l86.786987,-86.787109z" id="svg_19"/>
  </g>
 </g>
</svg>