<svg width="3000" height="1000" xmlns="http://www.w3.org/2000/svg">
 <g>
  <title>background</title>
  <rect x="-1" y="-1" width="3002" height="1002" id="canvas_background" fill="none"/>
 </g>

 <g>
  <title>Layer 1</title>
  <path stroke="null" id="XMLID_85_" d="m870.090418,755.273067l-242.053667,0l264.617622,-264.619764c12.461559,-12.459449 12.461559,-32.66424 0,-45.125797l-255.272541,-255.272558c-12.459417,-12.46155 -32.66424,-12.46155 -45.125797,0l-382.908803,382.906686c-5.986143,5.984022 -9.347232,14.099566 -9.347232,22.563955s3.361088,16.579932 9.347232,22.563955l191.454397,191.454406c5.984022,5.983988 14.099566,9.345113 22.561844,9.345113l127.636271,0.002142c0.012757,0 0.023404,-0.002142 0.036159,-0.002142l319.054517,0.002142c17.620166,0 31.909068,-14.28676 31.909068,-31.909068c0,-17.622308 -14.28676,-31.909068 -31.909068,-31.909068l-0.000002,-0.000002zm-255.272541,-497.328353l210.14671,210.146744l-184.619456,184.61949l-210.146744,-210.146744l184.61949,-184.61949z" fill="rgb(255, 255, 255)"/>
  <text xml:space="preserve" text-anchor="start" font-family="'Tahoma', Gadget, sans-serif" font-size="250" id="svg_3" y="589.999997" x="1200" stroke-width="0" stroke="#ffffff" fill="#ffffff">BORRAR</text>
  </g>
</svg>