<svg width="2000" height="600" xmlns="http://www.w3.org/2000/svg">
 <metadata>Svg Vector Icons : http://www.onlinewebfonts.com/icon</metadata>

 <g>
  <title>background</title>
  <rect fill="none" id="canvas_background" height="602" width="2002" y="-1" x="-1"/>
 </g>
 <g>
  <title>Layer 1</title>
  <g stroke="null" id="svg_1">
   <path fill="#ffffff" stroke="null" id="svg_2" d="m477.525584,337.646743c-2.899684,-23.000884 -9.190524,-45.117119 -17.348958,-66.692735c-16.562603,-43.888439 -38.973721,-84.680606 -65.021731,-123.556032c-0.245736,-0.393178 -0.589766,-0.737208 -1.277827,-1.621857c-4.030069,32.732028 -7.961845,64.972583 -11.942767,97.163992c-0.147442,0.049147 -0.34403,0.049147 -0.491472,0.098294c-0.294883,-0.688061 -0.589766,-1.425268 -0.884649,-2.113329c-11.647884,-32.977764 -25.261655,-65.120025 -42.856349,-95.44384c-20.936702,-36.074036 -50.228427,-63.596462 -85.958433,-84.680606c-0.884649,-0.540619 -1.818446,-0.982944 -3.096273,-1.621857c0.245736,4.079217 0.491472,7.814403 0.638913,11.549589c0.933797,23.443209 -0.442325,46.640682 -6.487429,69.444978c-3.686039,13.859507 -10.271762,26.39204 -17.004927,38.875426c-16.906633,31.306759 -37.106127,60.3036 -59.861276,87.629437c-0.540619,0.638913 -1.130385,1.277827 -2.211623,2.457359c-4.079217,-20.690966 -8.010992,-40.792167 -12.090208,-61.483133c-0.688061,1.032091 -1.081238,1.523563 -1.376121,2.064182c-22.263676,38.924573 -40.595578,79.471004 -51.997726,122.966266c-4.226658,16.169425 -7.126342,32.535439 -7.814403,49.29463c-0.049147,0.933797 -0.294883,1.867593 -0.442325,2.752243c0,3.047126 0,6.094251 0,9.141377c0.491472,4.816424 0.786355,9.681996 1.425268,14.449273c3.14542,23.394062 12.139356,44.527353 25.212508,63.98964c18.282754,27.178395 41.725963,49.147189 68.806064,67.380796c0.540619,0.34403 1.081238,0.638913 1.965888,1.130385c-1.57271,-4.570689 -3.14542,-8.699052 -4.3741,-12.974858c-9.927732,-33.960707 -8.551611,-67.282501 5.750221,-99.916235c15.481364,-35.385976 30.864434,-70.821099 46.296652,-106.256222c0.34403,-0.786355 0.688061,-1.523563 1.376121,-2.850537c12.139356,20.592672 23.983828,40.792167 36.172331,61.53228c9.534555,-36.909539 18.282754,-73.327605 24.13127,-110.876058c1.032091,0.737208 1.671004,1.081238 2.162476,1.523563c26.686923,24.81933 49.933544,52.341756 67.626532,84.43487c15.923689,28.898547 22.165382,59.95957 21.182438,92.691598c-0.933797,31.11017 -6.929754,61.237397 -17.103222,90.578269c-0.196589,0.540619 -0.34403,1.081238 -0.589766,1.965888c0.589766,-0.245736 0.933797,-0.294883 1.179533,-0.491472c38.433102,-29.19343 70.182185,-64.038787 90.824005,-108.074668c9.239671,-19.658875 14.940745,-40.300695 16.464308,-62.023752c0.049147,-0.835502 0.294883,-1.621857 0.491472,-2.457359c0,-5.701074 0,-11.451295 0,-17.152369c-0.491472,-4.324953 -0.933797,-8.551611 -1.474416,-12.827416z"/>
   <path fill="#ffffff" stroke="null" id="svg_3" d="m329.543399,455.452554c-13.761213,-20.346936 -31.257612,-37.05698 -50.031838,-52.636639c-0.196589,-0.147442 -0.491472,-0.147442 -0.786355,-0.196589c-2.260771,13.712066 -4.472394,27.374984 -6.782312,41.627669c-9.829438,-5.897663 -18.970815,-11.353001 -28.357928,-17.004927c-0.34403,1.130385 -0.589766,1.91674 -0.884649,2.752243c-6.29084,20.346936 -14.596715,39.612634 -29.045989,55.782059c-4.128364,4.619836 -6.63487,10.222615 -7.716109,16.366014c-2.359065,13.269741 1.671004,25.015919 8.7482,35.975742c0.442325,0.638913 1.720152,1.032091 2.653948,1.032091c33.813266,0.049147 67.675679,0.049147 101.488945,0c1.130385,0 2.703095,-0.638913 3.342009,-1.523563c4.128364,-5.553632 8.551611,-11.00897 11.942767,-17.004927c6.63487,-11.795325 9.190524,-24.524447 7.028048,-38.039924c-1.57271,-10.026026 -5.995957,-18.87252 -11.598737,-27.129248z"/>
  </g>
  <text xml:space="preserve" text-anchor="start" font-family="'Tahoma', Gadget, sans-serif" font-size="180" id="svg_4" y="365" x="711.25" stroke-width="0" stroke="#ffffff" fill="#ffffff">CALDERA</text>
 </g>
</svg>