<svg width="1400" height="500" xmlns="http://www.w3.org/2000/svg">
 <metadata>Svg Vector Icons : http://www.onlinewebfonts.com/icon</metadata>

 <g>
  <title>background</title>
  <rect fill="none" id="canvas_background" height="502" width="1402" y="-1" x="-1"/>
 </g>
 <g>
  <title>Layer 1</title>
  <g stroke="null" id="svg_1">
   <g stroke="null" id="svg_2" transform="translate(0,511) scale(0.10000000149011612,-0.10000000149011612) ">
    <path fill="#ffffff" stroke="#ffffff" id="svg_3" d="m1659.737576,4296.079557c-24.910084,-24.008047 -28.483536,-55.162999 -8.88159,-80.975119c8.014247,-9.783626 12.455042,-37.365126 13.357078,-67.618041c0,-48.050788 -1.769379,-51.589547 -19.567252,-51.589547c-37.365126,0 -126.354492,-49.820168 -164.621654,-90.758745c-58.736451,-64.946625 -76.499631,-106.752546 -80.975119,-194.839875c-3.573452,-64.946625 -0.902036,-83.646535 17.797873,-129.89325c21.336632,-52.491583 21.336632,-53.39362 6.210174,-105.885203c-8.014247,-28.483536 -107.654582,-368.343119 -221.554032,-755.386148c-113.89945,-386.140992 -216.211201,-734.916859 -226.896863,-774.086057c-24.910084,-89.856709 -19.567252,-109.423961 40.938578,-141.480949c32.022294,-17.797873 42.707957,-28.483536 40.036541,-39.134505c-2.671416,-8.88159 -63.177246,-220.651996 -134.368739,-471.556906c-102.277057,-362.167639 -127.221835,-460.073288 -120.07493,-473.395673c11.553005,-22.238668 40.938578,-23.140705 52.491583,-1.769379c4.440795,8.014247 64.946625,215.309164 134.368739,460.003901c68.520077,244.694737 127.221835,449.318238 129.025907,455.563106c2.671416,8.014247 15.126458,4.440795 41.805921,-10.685663c47.148752,-27.581499 71.191493,-27.581499 99.640335,-1.769379c18.69991,16.028494 54.260962,129.025907 227.764206,722.461817c113.89945,387.043029 209.09899,707.370053 212.637749,713.580227c2.671416,6.210174 98.772992,-308.739325 213.539785,-698.453769c113.89945,-389.714444 213.539785,-718.021022 219.784653,-728.706685c19.567252,-31.154952 52.491583,-34.69371 99.640335,-12.455042c22.238668,10.685663 42.707957,16.895837 46.281409,12.455042c4.440795,-3.573452 64.079282,-209.09899 133.466702,-456.430449c70.289456,-247.331459 131.697323,-454.661069 137.907497,-461.77328c13.357078,-14.224421 45.379373,-6.210174 52.491583,13.357078c2.671416,7.112211 -55.162999,224.225448 -128.123871,482.242569c-73.862909,258.017121 -130.795287,469.787527 -127.221835,471.556906c33.826367,11.553005 92.528125,58.736451 96.968919,77.401667c3.573452,15.126458 -70.289456,278.48641 -236.68049,845.27755l-242.023321,823.906225l20.469289,46.246715c28.483536,64.079282 29.350879,178.846075 1.769379,239.351905c-40.938578,89.856709 -105.885203,148.59316 -197.511291,176.174659l-49.820168,16.028494l-2.671416,48.050788c-1.769379,35.595746 0.902036,51.589547 11.553005,60.50583c19.567252,16.028494 16.895837,67.618041 -4.440795,88.989366c-24.008047,23.973354 -58.701757,22.169281 -84.513878,-4.510182zm80.073083,-417.295944c31.154952,-13.357078 57.834415,-52.491583 57.834415,-85.415914c0,-33.826367 -26.679463,-72.058836 -59.603794,-85.415914c-40.036541,-16.895837 -73.862909,-9.783626 -104.983166,23.140705c-45.379373,47.148752 -26.679463,126.354492 35.595746,151.264576c25.777427,10.650969 37.365126,10.650969 71.156799,-3.573452z"/>
    <path fill="#ffffff" stroke="#ffffff" id="svg_4" d="m2989.92911,2609.999945l0,-1708.31828l605.023608,0l605.023608,0l0,1708.31828l0,1708.31828l-605.023608,0l-605.023608,0l0,-1708.31828zm920.875144,1347.989408l0,-71.191493l-179.713418,-2.671416l-180.615454,-1.769379l0,69.38742c0,38.267162 2.671416,72.960872 6.244868,76.534324c3.538758,2.671416 84.513878,4.440795 179.713418,3.573452l174.370586,-2.671416l0,-71.191493zm2.671416,-268.737478l-2.671416,-69.38742l-90.758745,-2.671416l-91.626088,-2.671416l0,72.058836l0,71.191493l93.395467,0l94.297504,0l-2.636722,-68.520077zm0,-271.3742l2.671416,-69.38742l-183.28687,0l-182.384833,0l0,71.191493l0,71.191493l180.615454,-1.769379l179.713418,-2.671416l2.671416,-68.554771zm-44.477336,-200.182707l47.148752,-5.342831l-2.671416,-67.618041l-2.671416,-67.618041l-90.758745,-2.671416l-91.626088,-2.671416l0,70.289456c0,38.267162 2.671416,72.960872 6.210174,75.632288c7.112211,8.014247 72.960872,8.014247 134.368739,0zm46.246715,-340.76162l0,-71.191493l-182.384833,0l-182.384833,0l0,71.191493l0,71.191493l182.384833,0l182.384833,0l0,-71.191493zm-4.440795,-271.3742l0,-71.191493l-88.989366,0l-88.989366,0l-2.671416,61.407867c-1.769379,33.791674 -0.902036,66.716004 1.769379,73.862909c3.538758,9.783626 24.008047,11.553005 91.660782,9.783626l87.185293,-2.671416l0,-71.191493l0.034694,0zm2.671416,-268.702784l-2.671416,-69.38742l-179.713418,-2.671416l-180.615454,-1.769379l0,71.156799l0,71.191493l182.384833,0l183.28687,0l-2.671416,-68.520077zm0,-271.3742l2.671416,-69.38742l-94.332197,0l-93.430161,0l0,71.191493l0,72.058836l91.626088,-2.671416l90.758745,-2.671416l2.706109,-68.520077zm-2.671416,-269.60482l0,-71.191493l-179.713418,-2.671416l-180.615454,-1.769379l0,69.38742c0,38.267162 2.671416,72.960872 6.244868,76.534324c3.538758,2.671416 84.513878,4.440795 179.713418,3.538758l174.370586,-2.671416l0,-71.156799zm2.671416,-268.702784l-2.671416,-69.38742l-90.758745,-2.671416l-91.626088,-2.671416l0,72.058836l0,71.191493l93.395467,0l94.297504,0l-2.636722,-68.520077zm0,-271.3742l2.671416,-69.38742l-183.28687,0l-182.384833,0l0,71.191493l0,71.191493l180.615454,-1.769379l179.713418,-2.671416l2.671416,-68.554771z"/>
   </g>
  </g>
  <text xml:space="preserve" text-anchor="start" font-family="'Tahoma', Gadget, sans-serif" font-size="105" id="svg_5" y="292.499986" x="550" stroke-width="0" stroke="#ffffff" fill="#ffffff">CALIBRACIÓN</text>
 </g>
</svg>