<svg width="1400" height="500" xmlns="http://www.w3.org/2000/svg">
 <metadata>Svg Vector Icons : http://www.onlinewebfonts.com/icon</metadata>

 <g>
  <title>background</title>
  <rect fill="none" id="canvas_background" height="502" width="1402" y="-1" x="-1"/>
 </g>
 <g>
  <title>Layer 1</title>
  <g stroke="null" id="svg_1">
   <path fill="#ffffff" stroke="#ffffff" id="svg_2" d="m391.040008,178.188563l0,-47.828573c0,-13.2 -10.697143,-23.931429 -23.931429,-23.931429l-239.245721,0c-13.2,0 -23.931429,10.697143 -23.931429,23.931429l0,47.862858l-23.931429,0l0,-47.862858c0,-26.434286 21.428572,-47.862858 47.862858,-47.862858l239.280007,0c26.400001,0 47.828573,21.428572 47.828573,47.862858l0,47.862858l-23.931429,0l0,-0.034286zm24.960001,83.760002l-336.000009,0l0,-23.931429l336.000009,0l0,23.931429l0,0zm-312.06858,107.657146c0,13.2 10.697143,23.931429 23.931429,23.931429l239.280007,0c13.2,0 23.931429,-10.697143 23.931429,-23.931429l0,-47.828573l23.897144,0l0,47.862858c0,26.434286 -21.428572,47.862858 -47.862858,47.862858l-239.245721,0c-26.434286,-0.034286 -47.862858,-21.462858 -47.862858,-47.897144l0,-47.828573l23.931429,0l0,47.828573l0,0z"/>
  </g>
  <text stroke="#ffffff" xml:space="preserve" text-anchor="start" font-family="'Tahoma', Gadget, sans-serif" font-size="105" id="svg_3" y="293" x="550" stroke-width="0" fill="#ffffff">CÓDIGOS</text>
 </g>
</svg>