<svg width="4500" height="1000" xmlns="http://www.w3.org/2000/svg">
 <metadata>Svg Vector Icons : http://www.onlinewebfonts.com/icon</metadata>

 <g>
  <title>background</title>
  <rect fill="none" id="canvas_background" height="1002" width="4502" y="-1" x="-1"/>
 </g>
 <g>
  <title>Layer 1</title>
  <g stroke="null" id="svg_1">
   <g stroke="null" id="svg_2">
    <path fill="#ffffff" stroke="null" id="svg_3" d="m1048.0346,791.279519l-120.763918,-418.08729c-5.342841,-18.479969 -20.742794,-30.975947 -38.028456,-30.975947l-127.52104,0c10.292826,-19.095968 16.421379,-41.44793 16.421379,-65.383889c0,-69.871881 -50.756988,-126.719785 -113.142513,-126.719785c-62.385524,0 -113.142513,56.847903 -113.142513,126.719785c0,23.935959 6.049982,46.199922 16.421379,65.383889l-127.52104,0c-17.364233,0 -32.685615,12.495979 -38.028456,30.975947l-120.763918,418.08729c-8.328546,28.951951 10.921395,58.6079 38.028456,58.6079l689.933615,0c27.185632,0 46.435573,-29.65595 38.107027,-58.6079zm-442.827224,-514.447126c0,-36.959937 26.871347,-66.967886 59.792675,-66.967886c32.9999,0 59.792675,30.095949 59.792675,66.967886c0,32.031946 -20.114224,58.6959 -46.985571,65.383889l-25.692779,0c-26.792776,-6.599989 -46.907,-33.351943 -46.907,-65.383889zm6.914265,427.503274l-34.571323,-74.359874l-16.49995,0l0,74.359874l-40.071307,0l0,-183.215689l40.071307,0l0,70.75188l16.49995,0l33.864183,-70.75188l43.057012,0l-44.157008,87.647851l0,0.527999l46.671287,95.127838l-44.864149,0l0,-0.088zm210.649359,0l-33.392756,0l0,-5.103991c0,-3.871993 0.235714,-7.655987 0.235714,-7.655987l-0.471427,0c0,0 -15.792809,15.839973 -43.057012,15.839973c-41.878444,0 -80.299756,-35.11194 -80.299756,-95.127838c0,-53.327909 35.907034,-94.33584 85.799739,-94.33584c41.878444,0 62.935523,24.375959 62.935523,24.375959l-19.249941,33.615943c0,0 -16.735663,-16.895971 -39.835593,-16.895971c-34.33561,0 -48.321282,24.639958 -48.321282,51.743912c0,34.847941 21.528506,55.615906 46.907,55.615906c19.249941,0 33.157042,-13.287977 33.157042,-13.287977l0,-14.079976l-23.09993,0l0,-38.191935l58.614107,0l0,103.487824l0.078571,0z"/>
   </g>
   <g stroke="null" id="svg_4"/>
   <g stroke="null" id="svg_5"/>
   <g stroke="null" id="svg_6"/>
   <g stroke="null" id="svg_7"/>
   <g stroke="null" id="svg_8"/>
   <g stroke="null" id="svg_9"/>
   <g stroke="null" id="svg_10"/>
   <g stroke="null" id="svg_11"/>
   <g stroke="null" id="svg_12"/>
   <g stroke="null" id="svg_13"/>
   <g stroke="null" id="svg_14"/>
   <g stroke="null" id="svg_15"/>
   <g stroke="null" id="svg_16"/>
   <g stroke="null" id="svg_17"/>
   <g stroke="null" id="svg_18"/>
  </g>
  <text stroke="#ffffff" transform="matrix(2.293789863586426,0,0,2.293789863586426,-2118.5606861561537,-908.6043626368046) " font-weight="bold" xml:space="preserve" text-anchor="start" font-family="'Tahoma', Gadget, sans-serif" font-size="250" id="svg_19" y="704.555859" x="1500.048804" stroke-width="0" fill="#ffffff">CON PESO</text>
 </g>
</svg>