<svg width="3000" height="1000" xmlns="http://www.w3.org/2000/svg">
 <metadata>Svg Vector Icons : http://www.onlinewebfonts.com/icon</metadata>

 <g>
  <title>background</title>
  <rect fill="none" id="canvas_background" height="1002" width="3002" y="-1" x="-1"/>
 </g>
 <g>
  <title>Layer 1</title>
  <g stroke="null" id="svg_1">
   <path fill="#ffffff" stroke="#ffffff" id="svg_2" d="m328.466167,686.547385l0,0c102.991995,102.991995 270.004101,102.991995 372.996096,0c102.991995,-102.991995 102.991995,-270.004101 0,-372.996096c-102.991995,-102.991995 -270.004101,-102.991995 -372.996096,0c-102.991995,102.991995 -102.991995,269.932329 0,372.996096l0,0zm-62.154054,62.154054l0,0c-137.370507,-137.370507 -137.370507,-360.005468 0,-497.375975c137.370507,-137.370507 360.005468,-137.370507 497.375975,0c137.370507,137.370507 137.370507,360.005468 0,497.375975s-360.005468,137.298736 -497.375975,0l0,0zm435.221921,-497.375975l62.154054,62.154054l-435.221921,435.221921l-62.154054,-62.154054l435.221921,-435.221921z"/>
  </g>
  <text stroke="#ffffff" transform="matrix(1.1909173727035518,0,0,1.1909173727035518,-197.111503014341,-92.00686446204782) " xml:space="preserve" text-anchor="start" font-family="'Tahoma', Gadget, sans-serif" font-size="250" id="svg_3" y="586.666909" x="1000" stroke-width="0" fill="#ffffff">CONDICIONES</text>
 </g>
</svg>