<svg width="5000" height="1000" xmlns="http://www.w3.org/2000/svg">
 <metadata>Svg Vector Icons : http://www.onlinewebfonts.com/icon</metadata>
 <defs>
  <filter height="200%" width="200%" y="-50%" x="-50%" id="svg_6_blur">
   <feGaussianBlur stdDeviation="0" in="SourceGraphic"/>
  </filter>
 </defs>
 <g>
  <title>background</title>
  <rect fill="none" id="canvas_background" height="1002" width="5002" y="-1" x="-1"/>
 </g>
 <g>
  <title>Layer 1</title>
  <g stroke="null" id="svg_1">
   <g stroke="null" id="svg_2" transform="translate(0,511) scale(0.10000000149011612,-0.10000000149011612) ">
    <path stroke="null" fill="#ffffff" id="svg_3" d="m6485.236358,3807.401513c-110.472552,-44.583295 -155.055846,-96.900426 -215.182637,-255.823191c-34.878088,-87.195219 -67.860627,-164.761053 -73.623094,-170.599342c-7.733837,-7.733837 -143.455091,-17.439044 -300.482308,-21.305962l-286.910182,-7.733837l-73.623094,157.027217c-94.929056,203.50606 -157.027217,251.956273 -321.78827,251.956273c-100.767345,-1.97137 -143.455091,-15.467674 -329.522107,-106.605633c-182.200097,-91.13796 -219.049555,-118.206389 -255.899013,-184.171467c-63.993709,-112.443922 -56.18405,-205.47743 27.144251,-381.839238l69.756175,-151.188928l-147.32201,-147.32201c-81.432753,-81.432753 -166.732424,-178.333179 -191.905304,-213.211267c-25.172881,-36.849458 -54.288502,-65.889257 -65.889257,-65.889257c-9.705207,0 -75.594464,21.305962 -143.455091,48.450213c-201.610511,79.461382 -379.94369,54.288502 -461.300621,-65.889257c-62.022339,-89.166589 -178.333179,-428.393903 -178.333179,-519.456041c0,-162.789683 63.993709,-234.517229 288.805731,-323.683818l157.027217,-62.022339l7.733837,-261.66148c3.866918,-141.483721 13.572125,-273.262235 19.410414,-290.777101c9.705207,-23.277332 -17.439044,-44.583295 -127.911596,-93.033508c-240.355517,-106.605633 -337.255944,-246.193806 -288.805731,-410.95486c38.745006,-129.882966 189.933934,-434.15637 236.488599,-476.844116c108.652825,-98.871796 228.830584,-106.681455 397.458556,-27.144251c199.639141,93.033508 191.905304,95.004878 290.777101,-15.467674c48.450213,-52.317132 143.455091,-141.483721 211.239896,-195.772223l122.149129,-96.976248l-56.18405,-157.027217c-62.022339,-172.49489 -69.756175,-240.355517 -29.039799,-333.389025c40.716376,-98.871796 104.710085,-143.455091 327.550737,-226.783392c226.783392,-85.299671 327.626559,-94.929056 434.232192,-44.583295c81.432753,36.849458 122.073307,100.767345 189.933934,286.83436l50.421583,135.721254l226.783392,0c124.044677,0 255.899013,5.838289 290.777101,13.572125l63.993709,15.467674l73.698916,-160.894135c79.461382,-174.46626 137.616803,-234.517229 255.823191,-265.528398c96.900426,-27.144251 141.483721,-13.572125 395.411364,108.577003c242.326888,116.31084 284.938812,160.894135 296.539567,310.111693c7.733837,83.328301 -1.97137,124.044677 -60.050968,251.956273l-69.983641,153.160298l149.29338,155.055846c83.328301,85.299671 172.49489,184.171467 199.639141,217.154007l46.554665,63.993709l151.188928,-58.15542c174.46626,-67.860627 244.222436,-71.727546 354.694988,-21.305962c98.871796,44.583295 137.616803,108.577003 232.621681,381.839238c69.756175,203.50606 73.698916,219.049555 48.450213,298.510938c-34.878088,118.206389 -124.044677,199.639141 -273.262235,250.060724c-69.756175,23.277332 -135.645432,48.450213 -147.32201,56.18405c-13.572125,7.733837 -25.248703,124.044677 -31.011169,306.244774l-11.600755,294.644019l126.016047,54.288502c209.344348,87.195219 296.539567,189.933934 296.539567,341.122862c0,67.860627 -170.599342,461.300621 -226.783392,525.29433c-106.605633,116.31084 -255.823191,124.044677 -463.271991,25.172881l-145.350639,-69.756175l-129.882966,131.778514c-71.727546,73.698916 -168.627972,162.789683 -215.182637,199.639141l-87.195219,69.756175l52.317132,143.455091c62.022339,170.599342 67.860627,292.672649 13.572125,379.94369c-50.421583,83.328301 -100.767345,114.33947 -341.122862,201.610511c-209.42017,77.41419 -273.413879,87.119397 -354.846631,54.21268zm-186.067016,-1230.893208c341.122862,-87.195219 645.472088,-337.255944 802.499305,-657.072844c224.812022,-457.433702 141.483721,-1019.57749 -205.47743,-1385.873233c-240.355517,-255.899013 -505.883916,-381.839238 -841.244311,-401.249652c-366.295743,-21.305962 -690.055383,100.767345 -949.745493,360.533276c-408.983489,410.95486 -482.682405,1033.149615 -180.228727,1535.166613c89.166589,149.217558 317.921352,360.533276 482.682405,447.728495c124.044677,63.993709 279.100524,114.33947 426.422533,137.616803c94.929056,15.543496 343.01841,-3.866918 465.091717,-36.849458z"/>
    <path stroke="null" fill="#ffffff" id="svg_4" d="m3071.884723,-400.715591c-46.478843,-32.906718 -75.594464,-75.594464 -104.634263,-155.055846l-40.716376,-112.443922l-155.055846,0c-85.299671,0 -172.49489,-5.838289 -193.800853,-11.600755c-34.878088,-7.733837 -48.450213,9.705207 -95.004878,108.501182c-89.166589,191.905304 -172.49489,215.182637 -407.012119,104.710085c-106.605633,-48.450213 -158.922765,-85.299671 -186.067016,-129.882966c-50.421583,-81.432753 -48.450213,-118.206389 9.705207,-244.222436l48.450213,-104.710085l-110.472552,-118.206389c-60.050968,-65.889257 -120.177759,-129.882966 -133.749884,-145.350639c-21.305962,-23.277332 -36.849458,-23.277332 -108.577003,3.866918c-207.372978,79.461382 -308.216145,25.248703 -391.544445,-217.078185c-81.432753,-232.621681 -48.450213,-310.111693 158.922765,-381.839238l100.767345,-36.849458l0,-155.055846c0,-85.299671 5.838289,-172.49489 11.600755,-193.800853c7.733837,-34.878088 -9.705207,-48.450213 -108.577003,-94.929056c-191.905304,-89.166589 -215.182637,-172.49489 -104.634263,-407.087941c48.450213,-106.605633 85.299671,-158.922765 129.882966,-186.067016c81.432753,-50.421583 118.206389,-48.450213 244.222436,9.705207l104.634263,48.450213l118.206389,-110.472552c65.889257,-60.050968 129.882966,-120.177759 145.350639,-133.749884c21.305962,-19.410414 19.410414,-40.716376 -13.572125,-135.645432c-67.860627,-197.743593 -17.439044,-277.204975 228.67894,-366.371565c224.812022,-79.461382 308.216145,-44.583295 379.94369,160.894135l36.849458,100.767345l155.055846,0c85.299671,0 172.49489,5.838289 193.800853,11.600755c34.878088,7.733837 48.450213,-9.705207 95.004878,-108.577003c89.166589,-193.800853 172.49489,-213.211267 424.451163,-98.871796c91.13796,42.611925 143.455091,79.461382 168.627972,124.044677c50.421583,81.432753 48.450213,118.28221 -9.705207,244.222436l-48.450213,104.634263l110.472552,118.28221c60.050968,65.889257 120.177759,129.882966 133.749884,145.350639c21.305962,23.277332 36.849458,23.277332 108.577003,-3.866918c131.778514,-50.421583 230.65031,-42.611925 290.777101,21.305962c69.756175,71.727546 157.027217,323.683818 141.483721,405.116571c-13.572125,77.565834 -95.004878,147.32201 -211.239896,180.228727l-89.166589,25.172881l0,157.027217c0,85.299671 -5.838289,174.46626 -11.600755,195.772223c-7.733837,34.878088 9.705207,48.450213 108.577003,95.004878c120.177759,56.18405 174.46626,120.177759 174.46626,205.47743c0,58.15542 -112.443922,310.111693 -160.894135,362.504646c-63.993709,69.756175 -149.217558,75.594464 -277.204975,17.439044l-110.472552,-50.421583l-118.206389,110.472552c-65.889257,60.050968 -129.882966,120.177759 -145.350639,133.749884c-23.277332,21.305962 -23.277332,36.849458 3.866918,108.577003c81.432753,209.344348 27.144251,304.349226 -215.182637,391.544445c-172.49489,62.022339 -193.800853,62.022339 -275.233605,7.733837zm-1.97137,-1042.854822c131.778514,-69.756175 209.344348,-153.084476 277.204975,-290.777101c65.889257,-135.721254 62.022339,-381.839238 -9.705207,-517.560493c-65.889257,-127.911596 -160.894135,-222.916474 -290.777101,-290.777101c-87.195219,-46.478843 -122.149129,-54.288502 -265.528398,-52.317132c-139.588173,0 -180.228727,7.733837 -265.528398,52.317132c-127.911596,65.889257 -224.812022,160.894135 -290.777101,290.777101c-46.554665,87.195219 -54.288502,124.044677 -54.288502,265.528398c0,153.160298 5.838289,174.46626 69.756175,290.777101c168.703794,308.291967 523.398781,414.8976 829.643556,252.032095z"/>
   </g>
  </g>
  <path id="svg_5" d="m1082.915776,745.194255l0,0c0,-0.411452 0.333548,-0.745 0.745,-0.745l0,0c0.197586,0 0.38708,0.078491 0.526794,0.218205c0.139715,0.139715 0.218206,0.329208 0.218206,0.526795l0,0c0,0.411452 -0.333548,0.745 -0.745,0.745l0,0c-0.411452,0 -0.745,-0.333548 -0.745,-0.745zm0.3725,0l0,0c0,0.205726 0.166774,0.3725 0.3725,0.3725c0.205726,0 0.3725,-0.166774 0.3725,-0.3725c0,-0.205726 -0.166774,-0.3725 -0.3725,-0.3725l0,0c-0.205726,0 -0.3725,0.166774 -0.3725,0.3725z" stroke-opacity="null" stroke-width="null" stroke="null" fill="#ffffff"/>
  <text font-weight="bold" filter="url(#svg_6_blur)" stroke="null" transform="matrix(1.3064639568328855,0,0,1.3064639568328855,-554.9483245797455,13.576089736074223) " xml:space="preserve" text-anchor="start" font-family="'Tahoma', Gadget, sans-serif" font-size="250" id="svg_6" y="462.641005" x="1200.992471" stroke-opacity="null" stroke-width="0" fill="#ffffff">CONFIGURAR MODELOS</text>
 </g>
</svg>