<?xml version="1.0" encoding="UTF-8" standalone="no"?>
<svg
   xmlns:dc="http://purl.org/dc/elements/1.1/"
   xmlns:cc="http://creativecommons.org/ns#"
   xmlns:rdf="http://www.w3.org/1999/02/22-rdf-syntax-ns#"
   xmlns:svg="http://www.w3.org/2000/svg"
   xmlns="http://www.w3.org/2000/svg"
   xmlns:sodipodi="http://sodipodi.sourceforge.net/DTD/sodipodi-0.dtd"
   xmlns:inkscape="http://www.inkscape.org/namespaces/inkscape"
   width="1600"
   height="500"
   version="1.1"
   id="svg18"
   sodipodi:docname="consumos_caliente.svg"
   inkscape:version="0.92.5 (2060ec1f9f, 2020-04-08)">
  <metadata
     id="metadata24">
    <rdf:RDF>
      <cc:Work
         rdf:about="">
        <dc:format>image/svg+xml</dc:format>
        <dc:type
           rdf:resource="http://purl.org/dc/dcmitype/StillImage" />
        <dc:title></dc:title>
      </cc:Work>
    </rdf:RDF>
  </metadata>
  <defs
     id="defs22" />
  <sodipodi:namedview
     pagecolor="#ffffff"
     bordercolor="#666666"
     borderopacity="1"
     objecttolerance="10"
     gridtolerance="10"
     guidetolerance="10"
     inkscape:pageopacity="0"
     inkscape:pageshadow="2"
     inkscape:window-width="1920"
     inkscape:window-height="1057"
     id="namedview20"
     showgrid="false"
     inkscape:pagecheckerboard="true"
     inkscape:zoom="0.24928571"
     inkscape:cx="700"
     inkscape:cy="250"
     inkscape:window-x="1592"
     inkscape:window-y="-8"
     inkscape:window-maximized="1"
     inkscape:current-layer="svg18" />
  <g
     id="g5">
    <title
       id="title2">background</title>
    <rect
       id="canvas_background"
       height="502"
       width="1402"
       y="-1"
       x="-1"
       style="fill:none" />
  </g>
  <text
     style="font-size:105px;font-family:Tahoma, Gadget, sans-serif;text-anchor:start;fill:#ffffff;stroke:#ffffff;stroke-width:0"
     x="474"
     y="292.00519"
     id="svg_7"
     font-size="105"
     xml:space="preserve"><tspan
       style="font-style:normal;font-variant:normal;font-weight:normal;font-stretch:normal;font-family:Tahoma;-inkscape-font-specification:Tahoma"
       id="tspan858">CONSUMOS CALIENTE</tspan></text>
  <g
     id="g840"
     transform="matrix(0.4064715,0,0,0.4064715,23.487673,47.772812)"
     style="fill:#ffffff;fill-opacity:1">
    <g
       id="g838"
       transform="matrix(0.1,0,0,-0.1,0,58)"
       style="fill:#ffffff;fill-opacity:1">
      <path
         id="path836"
         d="m 1451.7,243.5 c 0,-135.2 642,-1250.3 1436.2,-2450 L 4341,-4420 2887.9,-6565.9 c -794.2,-1182.8 -1436.2,-2297.9 -1436.2,-2450 0,-287.3 270.4,-304.1 3548.3,-304.1 h 3548.3 v 1148.9 l -16.9,1132.1 -405.5,-473 c -405.6,-456.3 -422.4,-456.3 -2534.5,-456.3 -1165.8,0 -2112.1,33.8 -2112.1,84.5 0,33.8 608.3,963.1 1351.7,2044.4 844.8,1233.6 1301.1,2044.6 1199.6,2162.8 -67.5,101.4 -642.1,895.6 -1267.2,1757.2 L 3648.3,-364.8 h 1808 1824.7 l 625.2,-709.7 625.2,-726.5 16.8,1148.9 V 480 H 5000 C 2009.3,480 1451.7,446.2 1451.7,243.5 Z"
         inkscape:connector-curvature="0"
         style="fill:#ffffff;fill-opacity:1" />
    </g>
  </g>
</svg>
