<?xml version="1.0" encoding="UTF-8" standalone="no"?>
<svg
   xmlns:dc="http://purl.org/dc/elements/1.1/"
   xmlns:cc="http://creativecommons.org/ns#"
   xmlns:rdf="http://www.w3.org/1999/02/22-rdf-syntax-ns#"
   xmlns:svg="http://www.w3.org/2000/svg"
   xmlns="http://www.w3.org/2000/svg"
   xmlns:sodipodi="http://sodipodi.sourceforge.net/DTD/sodipodi-0.dtd"
   xmlns:inkscape="http://www.inkscape.org/namespaces/inkscape"
   width="700"
   height="700"
   version="1.1"
   id="svg853"
   sodipodi:docname="copiar.svg"
   inkscape:version="0.92.5 (2060ec1f9f, 2020-04-08)">
  <defs
     id="defs857" />
  <sodipodi:namedview
     pagecolor="#ffffff"
     bordercolor="#666666"
     borderopacity="1"
     objecttolerance="10"
     gridtolerance="10"
     guidetolerance="10"
     inkscape:pageopacity="0"
     inkscape:pageshadow="2"
     inkscape:window-width="1920"
     inkscape:window-height="1057"
     id="namedview855"
     showgrid="false"
     inkscape:pagecheckerboard="true"
     inkscape:zoom="0.58166667"
     inkscape:cx="724.34729"
     inkscape:cy="325"
     inkscape:window-x="1592"
     inkscape:window-y="-8"
     inkscape:window-maximized="1"
     inkscape:current-layer="svg853" />
  <metadata
     id="metadata837">Svg Vector Icons : http://www.onlinewebfonts.com/icon<rdf:RDF>
  <cc:Work
     rdf:about="">
    <dc:format>image/svg+xml</dc:format>
    <dc:type
       rdf:resource="http://purl.org/dc/dcmitype/StillImage" />
    <dc:title></dc:title>
  </cc:Work>
</rdf:RDF>
</metadata>
  <g
     id="g842"
     transform="translate(0,50)">
    <title
       id="title839">background</title>
    <rect
       id="canvas_background"
       height="652"
       width="2402"
       y="-1"
       x="-1"
       style="fill:none" />
  </g>
  <g
     id="svg_1"
     stroke="null"
     transform="translate(-23.014317,25.000026)">
    <g
       transform="matrix(0.1,0,0,-0.1,0,511)"
       id="svg_2"
       stroke="null">
      <path
         style="fill:#ffffff;stroke:#ffffff"
         inkscape:connector-curvature="0"
         d="m 3277.2026,4254.4199 c -125.068,-29.8179 -240.9991,-126.247 -301.8139,-250.1852 -30.9968,-61.9446 -32.1266,-72.3096 -35.5653,-273.1259 l -4.6176,-210.0024 h 173.3072 173.3072 v 165.251 c 0,159.5036 1.1299,167.5598 27.5582,198.5566 l 27.5583,32.1267 h 469.3736 468.2439 l 5.7474,-459.0086 5.7474,-459.0087 33.2566,-66.5621 c 67.6919,-134.2542 191.6302,-223.7569 340.8178,-247.8765 40.1829,-6.8773 249.0554,-12.6247 467.0649,-12.6247 h 392.4956 V 1764.1604 856.40992 l -33.3056,-33.25652 -33.2565,-33.30563 h -339.688 -339.6881 V 616.58969 444.46144 l 382.1306,3.43864 381.0008,3.43863 75.7482,36.74427 c 91.8116,44.75138 172.1283,127.37687 214.62,219.18842 l 30.9968,65.43232 3.4386,1199.19938 2.3088,1199.1994 -547.5289,547.3816 -548.5114,548.5605 -722.9976,-1.1298 c -397.0641,-1.179 -742.4995,-5.7474 -767.749,-11.4949 z m 1794.8202,-784.9421 441.8154,-441.8155 h -416.566 -416.5661 l -27.5582,28.6881 -28.6881,27.5582 v 414.2572 c 0,227.1956 1.1299,413.1275 3.4387,413.1275 1.1789,0 200.8654,-198.5075 444.1243,-441.8155 z"
         id="svg_3" />
      <path
         style="fill:#ffffff;stroke:#ffffff"
         inkscape:connector-curvature="0"
         d="m 1880.6256,3241.1033 c -115.882,-47.0602 -197.3777,-123.9382 -250.1853,-235.2518 l -29.8178,-64.2533 -3.4387,-1553.8209 c -2.3088,-1395.447241 -1.1298,-1561.82805 16.0634,-1618.0743 36.6951,-128.5067 120.4996,-222.62705 252.4449,-284.62073 l 67.692,-32.12668 h 1125.76 1124.6301 l 87.2431,43.62155 c 99.8187,49.31985 162.9422,112.44336 212.3111,213.44098 l 32.1267,64.25336 3.4387,1199.1994 2.3088,1200.37832 -547.3816,547.4307 -547.4307,547.3816 h -741.3206 -740.1908 z m 1059.1978,-772.3174 3.4387,-456.749 29.8178,-64.2534 c 56.2463,-118.1907 160.6825,-207.6935 284.6208,-244.4378 52.8076,-14.9335 133.1243,-18.3721 491.1844,-18.3721 h 428.061 v -911.18917 -912.319 l -27.5582,-32.12667 -27.5582,-32.12668 H 3058.0142 1994.2479 l -27.5582,32.12668 -27.5582,32.12667 V 1359.0401 2857.7937 l 33.2565,33.2566 33.2565,33.2565 h 465.9351 464.7561 z m 1225.6278,-430.3206 c 0,-5.7475 -183.6231,-9.1861 -408.559,-9.1861 h -408.5098 l -33.2565,33.3056 -33.2565,33.2565 v 417.7451 416.5661 l 441.8154,-441.8155 c 243.2098,-243.308 441.7664,-445.3033 441.7664,-449.8717 z"
         id="svg_4" />
    </g>
  </g>
</svg>
