<svg width="2400" height="650" xmlns="http://www.w3.org/2000/svg">
 <metadata>Svg Vector Icons : http://www.onlinewebfonts.com/icon</metadata>

 <g>
  <title>background</title>
  <rect fill="none" id="canvas_background" height="652" width="2402" y="-1" x="-1"/>
 </g>
 <g>
  <title>Layer 1</title>
  <g stroke="null" id="svg_1">
   <g stroke="null" id="svg_2" transform="translate(0,511) scale(0.10000000149011612,-0.10000000149011612) ">
    <path fill="#ffffff" stroke="#ffffff" id="svg_3" d="m3277.202648,4254.419924c-125.068068,-29.817878 -240.999192,-126.247029 -301.813908,-250.18526c-30.996839,-61.944554 -32.126676,-72.309582 -35.565311,-273.125868l-4.617596,-210.002353l173.307205,0l173.307205,0l0,165.250975c0,159.503542 1.129837,167.559772 27.558204,198.556611l27.558204,32.126676l469.373681,0l468.243843,0l5.747433,-459.008652l5.747433,-459.008652l33.256513,-66.562149c67.691987,-134.254136 191.630218,-223.756893 340.817854,-247.876462c40.182906,-6.87727 249.055422,-12.624703 467.064883,-12.624703l392.495626,0l0,-907.799646l0,-907.750523l-33.305636,-33.256513l-33.256513,-33.305636l-339.688017,0l-339.688017,0l0,-173.258082l0,-172.128245l382.130598,3.438635l381.000761,3.438635l75.748217,36.744271c91.811555,44.751379 172.128245,127.376866 214.619949,219.188421l30.996839,65.432312l3.438635,1199.199403l2.308798,1199.199403l-547.528942,547.381572l-548.51141,548.560533l-722.997575,-1.129837c-397.064098,-1.178961 -742.499548,-5.747433 -767.748954,-11.494866zm1794.820112,-784.942129l441.815477,-441.815477l-416.566071,0l-416.566071,0l-27.558204,28.688041l-28.688041,27.558204l0,414.257274c0,227.195528 1.129837,413.127436 3.438635,413.127436c1.178961,0 200.865409,-198.507488 444.124275,-441.815477z"/>
    <path fill="#ffffff" stroke="#ffffff" id="svg_4" d="m1880.625595,3241.103306c-115.882,-47.060176 -197.37765,-123.938231 -250.18526,-235.251759l-29.817878,-64.253352l-3.438635,-1553.82092c-2.308798,-1395.447216 -1.129837,-1561.828028 16.063338,-1618.074272c36.695148,-128.506703 120.499596,-222.627056 252.444934,-284.620733l67.691987,-32.126676l1125.759983,0l1124.630146,0l87.243083,43.621541c99.818662,49.319851 162.942177,112.443365 212.311151,213.440988l32.126676,64.253352l3.438635,1199.199403l2.308798,1200.378363l-547.381572,547.430696l-547.430696,547.381572l-741.320588,0l-740.19075,0l-64.253352,-27.558204zm1059.197834,-772.317426l3.438635,-456.748978l29.817878,-64.253352c56.246244,-118.190798 160.682502,-207.693555 284.620733,-244.437827c52.807609,-14.933501 133.124299,-18.372136 491.184451,-18.372136l428.060937,0l0,-911.189158l0,-912.318995l-27.558204,-32.126676l-27.558204,-32.126676l-1063.81543,0l-1063.766306,0l-27.558204,32.126676l-27.558204,32.126676l0,1497.574676l0,1498.753637l33.256513,33.256513l33.256513,33.256513l465.935046,0l464.756085,0l3.487758,-455.520894zm1225.627769,-430.320611c0,-5.747433 -183.62311,-9.186068 -408.558964,-9.186068l-408.509841,0l-33.256513,33.305636l-33.256513,33.256513l0,417.745032l0,416.566071l441.815477,-441.815477c243.209743,-243.30799 441.766354,-445.303236 441.766354,-449.871708z"/>
   </g>
  </g>
  <text stroke="#ffffff" transform="matrix(1.2894399166107178,0,0,1.2894399166107178,-227.78469187393785,-136.0412833057344) " xml:space="preserve" text-anchor="start" font-family="'Tahoma', Gadget, sans-serif" font-size="230" id="svg_5" y="446.739369" x="900" stroke-width="0" fill="#ffffff">Copias</text>
 </g>
</svg>