<svg width="2000" height="600" xmlns="http://www.w3.org/2000/svg">
 <metadata>Svg Vector Icons : http://www.onlinewebfonts.com/icon</metadata>

 <g>
  <title>background</title>
  <rect fill="none" id="canvas_background" height="602" width="2002" y="-1" x="-1"/>
 </g>
 <g>
  <title>Layer 1</title>
  <g stroke="null" id="svg_1">
   <g stroke="null" id="svg_2" transform="translate(0,511) scale(0.10000000149011612,-0.10000000149011612) ">
    <path fill="#ffffff" stroke="null" id="svg_3" d="m3165.471614,4220.498944c-397.965438,-41.705325 -655.942784,-120.022194 -967.303315,-289.920986c-237.071001,-130.209755 -412.217507,-267.529578 -608.369676,-477.117406c-377.952951,-402.833112 -599.778707,-886.052443 -677.842304,-1469.926991c-18.075795,-139.389171 -15.245245,-502.533247 5.710759,-651.048774c38.088282,-274.692706 118.982429,-545.246715 237.071001,-793.462377c76.176564,-159.711231 214.227963,-380.441704 287.524318,-458.758574c49.509801,-53.909173 65.698562,-64.096733 109.497603,-74.284294c39.031799,-9.126356 490.330763,-11.195704 1808.920265,-9.126356l1756.530256,3.077492l39.031799,22.391409c54.277043,30.509621 113.321329,103.78577 215.17148,267.529578c377.903292,604.196608 490.281104,1340.67232 313.197906,2045.630267c-62.818353,252.301297 -172.315956,506.618883 -316.078115,736.475711c-380.83316,609.343449 -982.548559,1012.176561 -1679.410175,1125.088688c-118.088571,19.366977 -433.22317,33.640173 -523.651802,23.452613zm374.129225,-492.345686c685.489756,-78.36993 1273.846945,-509.643315 1575.67299,-1155.651368c187.5612,-399.80868 243.725277,-871.779246 157.070711,-1306.183183c-45.686075,-231.926177 -149.472918,-499.455754 -266.568314,-687.660318l-59.044286,-95.614498l-1614.65513,0l-1614.704789,0l-58.100769,94.606354c-214.178305,345.899507 -318.908665,746.663272 -304.606937,1171.887793c18.075795,540.152935 218.995206,1013.184705 595.011465,1399.781393c310.367356,319.422463 698.798308,515.745239 1134.852028,573.740048c124.742848,16.289484 333.210393,18.305772 455.073031,5.09378z"/>
    <path fill="#ffffff" stroke="null" id="svg_4" d="m3192.138377,3402.628871c-648.344991,-55.925461 -1212.915625,-504.549535 -1433.797865,-1139.361884c-53.333526,-153.609307 -82.83084,-313.320539 -93.308842,-511.659603c-4.767243,-96.622642 -6.654276,-191.228996 -3.823726,-210.595973c12.365035,-73.223089 71.409321,-102.724566 120.919122,-61.019241c21.899521,17.297628 24.730071,30.509621 31.434006,108.82649c24.730071,344.838303 160.894437,655.13441 399.852471,912.476427c313.247565,337.728235 706.44576,496.431322 1126.26106,454.725998c505.526349,-49.823537 885.415992,-306.21047 1087.229261,-733.451279c83.774357,-179.025148 127.573398,-362.135932 140.88195,-594.062108c10.478002,-177.00886 0.943517,-168.890648 216.114997,-168.890648c90.428633,0 172.315956,3.024432 180.906924,6.101924c35.208073,15.28134 44.742558,62.027385 38.088282,181.041436c-23.786554,410.951325 -109.497603,724.271863 -275.159283,1006.074637c-211.298096,359.16456 -546.445181,607.380221 -948.184686,702.994719c-185.674167,43.721613 -410.380132,62.027385 -587.413672,46.799105z"/>
    <path fill="#ffffff" stroke="null" id="svg_5" d="m2606.611739,2582.68945c-14.301728,-8.118212 -28.553797,-25.41584 -31.434006,-37.619689c-2.83055,-12.203848 55.22056,-306.21047 128.516915,-653.065062c73.296355,-346.907651 147.585885,-694.770386 163.774646,-773.140316c42.855524,-204.440988 93.308842,-303.132978 198.039202,-385.535484c156.127195,-123.099687 376.065917,-124.107831 531.249595,-2.016288c130.453607,102.724566 198.039202,273.631502 173.259473,441.514005c-21.899521,143.421747 -33.321039,159.711231 -547.438356,770.062824c-490.281104,580.797056 -556.972842,656.089494 -577.879187,656.089494c-6.654276,-1.008144 -23.836213,-7.110068 -38.088282,-16.289484zm792.10715,-1308.199471c56.164077,-30.509621 88.541599,-94.606354 82.83084,-159.711231c-7.647452,-79.378074 -73.296355,-143.421747 -146.642368,-143.421747c-88.541599,0 -145.649193,55.925461 -153.296644,147.507383c-4.767243,63.088589 12.365035,104.793914 57.107593,140.397315c53.383185,42.713469 100.012777,46.746045 160.000579,15.22828z"/>
   </g>
  </g>
  <text xml:space="preserve" text-anchor="start" font-family="'Tahoma', Gadget, sans-serif" font-size="180" id="svg_6" y="365.001657" x="738.327634" stroke-width="0" stroke="#ffffff" fill="#ffffff">DEPRESIONES</text>
 </g>
</svg>