<?xml version="1.0" encoding="utf-8"?>
<!-- Svg Vector Icons : http://www.onlinewebfonts.com/icon -->
<!DOCTYPE svg PUBLIC "-//W3C//DTD SVG 1.1//EN" "http://www.w3.org/Graphics/SVG/1.1/DTD/svg11.dtd">
<svg version="1.1" xmlns="http://www.w3.org/2000/svg" xmlns:xlink="http://www.w3.org/1999/xlink" x="0px" y="0px" viewBox="0 0 1000 1000" enable-background="new 0 0 1000 1000" xml:space="preserve">
<metadata> Svg Vector Icons : http://www.onlinewebfonts.com/icon </metadata>
<g style="fill:rgb(255, 255, 255);" >
	<path style="fill:rgb(255, 255, 255);" d="M40.6,10V990V10z"/>
	<path style="fill:rgb(255, 255, 255);" d="M71.3,10V990V10z"/>
	<path style="fill:rgb(255, 255, 255);" d="M101.9,10V990V10z"/>
	<path d="M132.5,10V990V10z"/>
	<path d="M163.1,10V990V10z"/>
	<path d="M193.7,10V990V10z"/>
	<path d="M224.4,10V990V10z"/>
	<path d="M255,10V990V10z"/>
	<path d="M285.7,10V990V10z"/>
	<path d="M316.2,10V990V10z"/>
	<path d="M346.9,10V990V10z"/>
	<path d="M377.6,10V990V10z"/>
	<path d="M408.1,10V990V10z"/>
	<path d="M438.8,10V990V10z"/>
	<path d="M469.4,10V990V10z"/>
	<path d="M500,10V990V10z"/>
	<path d="M530.6,10V990V10z"/>
	<path d="M561.3,10V990V10z"/>
	<path d="M591.8,10V990V10z"/>
	<path d="M622.4,10V990V10z"/>
	<path d="M653.1,10V990V10z"/>
	<path d="M683.7,10V990V10z"/>
	<path d="M714.3,10V990V10z"/>
	<path d="M745,10V990V10z"/>
	<path d="M775.6,10V990V10z"/>
	<path d="M806.2,10V990V10z"/>
	<path d="M836.8,10V990V10z"/>
	<path d="M867.4,10V990V10z"/>
	<path d="M898,10V990V10z"/>
	<path d="M928.7,10V990V10z"/>
	<path d="M959.3,10V990V10z"/>
	<path d="M10,40.6h979.9H10z"/>
	<path d="M10,71.3h979.9H10z"/>
	<path d="M10,101.9h979.9H10z"/>
	<path d="M10,132.5h979.9H10z"/>
	<path d="M10,163.2h979.9H10z"/>
	<path d="M10,193.8h979.9H10z"/>
	<path d="M10,224.4h979.9H10z"/>
	<path d="M10,255h979.9H10z"/>
	<path d="M10,285.7h979.9H10z"/>
	<path d="M10,316.3h979.9H10z"/>
	<path d="M10,347h979.9H10z"/>
	<path d="M10,377.6h979.9H10z"/>
	<path d="M10,408.1h979.9H10z"/>
	<path d="M10,438.8h979.9H10z"/>
	<path d="M10,469.4h979.9H10z"/>
	<path d="M10,500h979.9H10z"/>
	<path d="M10,530.6h979.9H10z"/>
	<path d="M10,561.3h979.9H10z"/>
	<path d="M10,591.9h979.9H10z"/>
	<path d="M10,622.5h979.9H10z"/>
	<path d="M10,653.1h979.9H10z"/>
	<path d="M10,683.7h979.9H10z"/>
	<path d="M10,714.3h979.9H10z"/>
	<path d="M10,745h979.9H10z"/>
	<path d="M10,775.6h979.9H10z"/>
	<path d="M10,806.2h979.9H10z"/>
	<path d="M10,836.8h979.9H10z"/>
	<path d="M10,867.4h979.9H10z"/>
	<path d="M10,898h979.9H10z"/>
	<path d="M10,928.8h979.9H10z"/>
	<path d="M10,959.3h979.9H10z"/>
	<path d="M928.7,990H71.3C37.4,990,10,962.7,10,928.8V71.3C10,37.4,37.4,10,71.3,10h612.4L561.3,132.5H132.5v734.9h734.9V438.8l122.5-122.5v612.5C989.9,962.7,962.5,990,928.7,990z M255,745V561.3L806.3,10h61.2L990,132.5v61.2L438.8,745H255z M530.6,530.6l336.9-336.8l-61.2-61.2L469.4,469.5L530.6,530.6z M377.6,561.3l-61.3,61.1v61.2h61.3l61.3-61.2L377.6,561.3z"/>
</g>
</svg>