<svg width="1400" height="500" xmlns="http://www.w3.org/2000/svg">

 <g>
  <title>background</title>
  <rect fill="none" id="canvas_background" height="502" width="1402" y="-1" x="-1"/>
 </g>
 <g>
  <title>Layer 1</title>
  <g stroke="null" id="svg_1">
   <g stroke="null" id="svg_2">
    <path id="svg_3" fill="#ffffff" stroke-width="0.26458" d="m127.899066,438.114794c-7.230124,-4.237531 -13.718533,-7.706085 -14.418461,-7.707869c-1.333812,-0.002548 -24.655956,-13.218366 -25.515386,-14.45719c-0.966038,-1.393715 -0.479987,-2.110612 2.550774,-3.762335l3.066738,-1.671291l-1.828322,-1.461262c-1.005582,-0.803707 -3.461929,-2.261121 -5.458265,-3.238727c-4.990967,-2.443861 -6.25578,-4.693873 -6.263169,-11.142534c-0.010192,-9.153588 4.357796,-16.399764 12.293708,-20.392945c4.548129,-2.288486 7.553716,-2.356211 10.667337,-0.240274c1.306014,0.887458 4.25817,2.510771 6.560517,3.607418l4.186062,1.993788l4.719862,-1.477263l0,-7.587859c0,-4.173322 -0.227534,-7.589388 -0.505619,-7.591171c-0.278086,-0.002013 -1.390861,-0.711674 -2.472857,-1.577449l-1.967238,-1.574086l8.173638,-4.493603l0.409357,-3.086103c0.225241,-1.697331 0.398859,-67.490669 0.385992,-146.2077l-0.022932,-143.122106l1.330806,-1.691828c3.711885,-4.718843 9.694522,-7.072404 17.977977,-7.072404c8.771137,0 14.474516,2.002731 18.384124,6.455541l2.127149,2.422713l0,134.132863c0,73.773966 0.209953,134.132863 0.466406,134.132863c0.25653,0 2.523842,-1.222287 5.038359,-2.716138l4.57208,-2.716138l5.393291,3.4046l0.186002,10.075189l0.186002,10.075189l17.304294,-10.055315l2.639953,1.483709c3.17146,1.78251 3.249173,2.234061 0.617424,3.594933l-2.022452,1.045866l0,63.974468l2.022452,1.04584c1.112368,0.57523 2.022452,1.285554 2.022452,1.578494c0,0.756697 -56.592995,33.340207 -58.272108,33.549141c-0.792317,0.099371 -7.038262,-3.136298 -14.535158,-7.530275l-0.00079,0.001249zm14.031679,-68.125114c-0.49716,-0.497135 -1.891257,-1.101361 -3.098079,-1.342705l-2.194084,-0.438812l0.442965,1.154333c0.533036,1.389027 2.765059,2.312412 4.495896,1.859841c1.051089,-0.274875 1.108954,-0.476878 0.3532,-1.232658l0.000102,0z"/>
    <path id="svg_4" fill="#ffffff" stroke-width="0.26458" d="m128.255782,438.165753c-7.415616,-4.269381 -14.032443,-7.76316 -14.703834,-7.764179c-1.310778,-0.001936 -24.740803,-13.241808 -25.566346,-14.446998c-0.701508,-1.024157 -0.632712,-2.408445 0.119755,-2.408445c0.349607,0 1.752928,-0.659237 3.118462,-1.464956l2.482922,-1.464956l-2.275848,-1.924585c-2.877679,-2.433415 -5.687837,-3.980696 -6.235396,-3.433137c-0.232375,0.232375 -0.422556,0.06854 -0.422556,-0.363952c0,-0.432569 -0.427983,-0.786508 -0.951081,-0.786508s-1.622599,-1.387141 -2.443326,-3.082536c-3.090689,-6.384707 -0.774201,-17.023507 4.851083,-22.278698c6.313109,-5.89779 13.27009,-7.556009 17.340984,-4.13281c1.212554,1.019647 2.486183,1.853904 2.830287,1.853904s2.216939,0.770124 4.161857,1.711371c2.4632,1.19217 4.047198,1.567665 5.221303,1.237728c0.926978,-0.260505 1.912915,-0.423906 2.191001,-0.363086c0.278086,0.060897 0.505619,-3.464477 0.505619,-7.833993l0,-7.944575l-2.022452,-1.194693c-2.710277,-1.600992 -2.571668,-2.097592 1.179762,-4.230652c1.761209,-1.001429 3.581429,-2.285658 4.044905,-2.853983c0.668333,-0.819351 0.842691,-31.077608 0.842691,-146.248467l0,-145.213991l1.075218,-1.820194c5.657006,-9.576296 30.853387,-9.908042 37.027122,-0.487249l1.109259,1.692974l-0.075675,134.527799c-0.041532,73.990544 0.108289,134.527799 0.333173,134.527799c0.224731,0 2.486489,-1.213471 5.025874,-2.696518c5.21315,-3.044826 5.390234,-3.081262 8.106626,-1.676693l1.972308,1.019928l0.185238,10.712946l0.185238,10.712946l18.183344,-10.564145l2.537448,1.426125c3.093237,1.73843 3.097059,1.815863 0.185747,3.701438l-2.335038,1.51245l-0.017836,31.373173l-0.017836,31.373173l2.361817,1.393486c1.298981,0.76643 2.350376,1.591055 2.336439,1.832527c-0.026754,0.464189 -56.888559,33.345303 -58.198217,33.653607c-0.420415,0.098861 -6.831621,-3.313127 -14.247237,-7.582254l-0.002803,-0.001121zm41.878459,-9.510558c15.156863,-8.746167 27.793273,-16.126112 28.081194,-16.400273c0.28815,-0.274034 -0.203328,-0.82962 -1.092213,-1.23462l-1.616127,-0.736364l-56.289786,32.489184l1.220504,0.892452c0.671263,0.490841 1.427093,0.892452 1.679597,0.892452s12.860122,-7.155723 28.017494,-15.90189l-0.000662,-0.000943zm-51.835932,-0.010192c-0.165109,-0.165109 -0.841213,-0.092491 -1.502462,0.161287l-1.202311,0.461361l2.548736,1.873167l0.228043,-1.097768c0.12536,-0.603793 0.093001,-1.232861 -0.072108,-1.39797l0.000102,-0.000076zm-0.138355,-2.16068c-0.20766,-0.20766 -0.75155,-0.000433 -1.20886,0.460291c-0.660842,0.66581 -0.583409,0.743243 0.377406,0.37738c0.664842,-0.253268 1.039012,-0.630113 0.831454,-0.837671zm0.314037,-2.92023c0.002548,-0.236707 -1.008793,-0.620813 -2.248126,-0.853316c-1.239308,-0.23263 -6.542936,-2.883794 -11.785897,-5.891929l-9.532471,-5.469221l-2.048747,0.848627c-2.382302,0.986778 -3.401542,2.209524 -1.581832,1.897908c0.701915,-0.120264 1.177239,0.144215 1.086965,0.604812c-0.098861,0.5046 0.266569,0.654548 0.953273,0.391037c0.742173,-0.284787 0.952687,-0.166892 0.631056,0.353607c-0.315362,0.510257 -0.120009,0.641834 0.56356,0.37952c0.575434,-0.220909 1.046223,-0.065738 1.046223,0.344792c0,0.410453 0.472954,0.746275 1.051013,0.746275s0.865673,0.299896 0.639133,0.666447c-0.244605,0.395853 0.057839,0.486178 0.744976,0.222438c0.846971,-0.325045 1.009022,-0.204857 0.60499,0.448953c-0.366857,0.593601 -0.291335,0.731879 0.225241,0.412593c0.916938,-0.56672 3.688953,1.182666 2.986732,1.884887c-0.264428,0.264428 0.090708,0.261498 0.78903,-0.007644c0.951693,-0.365201 1.131554,-0.263588 0.717967,0.405612c-0.366857,0.593601 -0.291335,0.731879 0.225241,0.412568c0.916938,-0.566694 3.688953,1.182692 2.986732,1.884913c-0.264428,0.264428 0.090708,0.261498 0.78903,-0.007644c0.915104,-0.351136 1.125872,-0.254288 0.754505,0.34655c-0.350346,0.566847 -0.115933,0.765411 0.732083,0.620176c0.701941,-0.120264 1.177265,0.144215 1.086965,0.604787c-0.098861,0.504626 0.266594,0.654574 0.953298,0.391063c0.742148,-0.284787 0.952687,-0.166892 0.631031,0.353607c-0.315337,0.510257 -0.120009,0.641834 0.56356,0.37952c0.575434,-0.2204 1.046248,-0.056055 1.046248,0.365405c0,0.44378 1.133032,0.1195 2.691422,-0.770558c1.48027,-0.845341 2.693715,-1.730735 2.696518,-1.967544l0.00028,0.001758zm-4.222244,-19.190047c-0.223967,-0.223967 -0.805465,-0.247918 -1.292127,-0.053253c-0.5378,0.215304 -0.378043,0.374959 0.407293,0.407319c0.71068,0.029302 1.108852,-0.129947 0.884834,-0.354092l0,0.000025zm-1.589985,-2.906726c-4.242373,-2.586701 -6.241001,-3.422435 -6.640268,-2.77627c-0.472012,0.763754 5.45164,3.991907 7.401602,4.033694c1.066734,0.022932 0.90774,-0.239764 -0.761334,-1.257526l0,0.000102zm-7.665572,-1.742226c-0.87082,-0.926952 -1.960231,-1.685381 -2.420853,-1.685381c-0.460648,0 -0.938673,-0.256428 -1.062249,-0.569854s-1.134841,-0.781463 -2.247183,-1.040082c-1.470485,-0.341912 -0.826536,0.267104 2.359524,2.231412c5.176968,3.191844 5.45113,3.278475 3.370711,1.063905l0.000051,0zm11.720414,0.462024c0.405612,-0.656281 -7.716022,-5.572668 -8.45315,-5.117091c-1.013583,0.626419 0.179887,1.992004 3.314656,3.79291c3.346251,1.922394 4.573354,2.238597 5.138494,1.324053l0,0.000127zm-17.154473,-5.904414c-1.130892,-1.362655 -6.034616,-3.87521 -6.552363,-3.357207c-0.543533,0.543508 0.393483,1.335545 3.549579,3.000491c3.197704,1.68691 4.206191,1.806716 3.002784,0.356741l0,-0.000025zm18.504898,-4.885226c0.396159,-0.640968 -7.007941,-5.060781 -7.557538,-4.511438c-0.50911,0.50911 0.710502,1.628256 3.723096,3.41632c2.926345,1.736927 3.361029,1.861038 3.834442,1.09494l0,0.000178zm-24.861832,-5.021287c1.115961,-1.537064 3.331728,-3.788324 4.923955,-5.002687l2.895005,-2.208072l-2.22736,-1.358018c-1.225065,-0.746887 -2.560966,-1.359113 -2.968642,-1.360515c-1.451707,-0.005096 -6.272341,3.753162 -8.602461,6.706261l-2.36783,3.001001l2.485011,1.528477c3.269047,2.010732 3.489702,1.961607 5.862373,-1.306472l-0.000051,0.000025zm4.067072,-6.514399c-0.498562,-0.806688 0.76964,-1.605986 1.667596,-1.051013c0.753919,0.465973 0.258976,1.678578 -0.68515,1.678578c-0.327032,0 -0.769131,-0.282392 -0.982447,-0.627565zm21.207021,6.381649c0,-0.172243 -0.682576,-0.644127 -1.516858,-1.048414l-1.516833,-0.735064l1.308613,1.048414c1.375446,1.101972 1.725079,1.250927 1.725079,0.735064zm27.579243,-10.987617l3.261913,-1.862975l-2.106077,-2.385742c-3.627037,-4.108604 -5.850397,-5.306151 -9.054471,-4.876308c-1.55467,0.208424 -2.82672,0.652306 -2.82672,0.986167c0,2.353816 5.226654,10.001807 6.835188,10.001807c0.345505,0 2.096089,-0.838359 3.890243,-1.862975l-0.000076,0.000025zm22.806128,-13.279008c-0.088669,-0.038984 -0.657071,-0.448316 -1.263361,-0.909651l-1.10238,-0.838767l-1.429743,2.423248l-1.429769,2.423274l2.693206,-1.513622c1.481212,-0.832499 2.620589,-1.545523 2.532123,-1.584482l-0.000076,0zm16.549075,-9.453993c11.790738,-6.774801 13.851792,-8.447799 11.071701,-8.98695c-0.813185,-0.157719 -26.975374,14.233988 -28.743666,15.811947c-0.158229,0.141158 0.296737,0.689277 1.011239,1.217854c1.069103,0.79089 1.537777,0.808191 2.647342,0.097587c0.741562,-0.474865 7.047689,-4.13816 14.013334,-8.140514l0.000051,0.000076zm-17.562913,4.788658l1.169621,-0.888146l-6.838246,-3.721822l1.833444,2.770409c2.021892,3.055273 2.151838,3.117698 3.835207,1.839457l-0.000025,0.000102zm1.195202,-22.065943c6.417066,-3.648695 7.051511,-4.369007 4.42761,-5.027657c-2.508147,-0.629502 -11.174384,4.695147 -11.174384,6.865764c0,2.082635 -0.286163,2.160603 6.746774,-1.838158l0,0.000051z"/>
    <path id="svg_5" fill="#ffffff" stroke-width="0.26458" d="m128.281262,437.783558c-7.691052,-4.430922 -14.250805,-7.891068 -14.5772,-7.689523c-1.005098,0.62117 -25.579086,-13.908102 -25.57399,-15.120172c0.002548,-0.596072 1.216351,-1.775401 2.696518,-2.620843c1.48027,-0.845341 2.691422,-1.792549 2.691422,-2.104879c0,-0.312356 -1.690757,-1.59261 -3.757239,-2.845065c-7.35421,-4.457167 -8.043946,-5.030715 -8.845028,-7.356503c-1.85077,-5.373417 -0.551942,-12.693994 3.27822,-18.47636c4.584056,-6.9208 14.408269,-10.678803 18.839956,-7.206683c0.884274,0.692793 3.731249,2.288792 6.326868,3.546522l4.719098,2.286983l2.190975,-0.652357l2.191001,-0.652332l0,-16.411484l-2.022452,-0.837722c-2.766078,-1.145797 -2.58135,-1.603744 1.617274,-4.005921c2.001865,-1.145339 3.821957,-2.557654 4.044905,-3.138336c0.222948,-0.580708 0.4063,-66.178463 0.407701,-145.774545l0.002497,-144.719685l1.319467,-2.164018c4.219441,-6.920036 18.458525,-9.648913 29.204849,-5.596874c4.422514,1.667775 8.834836,5.673313 8.339001,7.570023c-0.173262,0.662192 -0.115678,1.080799 0.127908,0.930264c0.243586,-0.150585 0.359544,59.91555 0.257855,133.480582c-0.101664,73.565033 0.020384,133.755763 0.269601,133.755763c0.249956,0 2.608358,-1.246519 5.240923,-2.770155l4.786619,-2.770155l2.359524,1.25322l2.359549,1.253245l0.674142,21.190205l8.693679,-5.033263c9.702166,-5.617258 9.240219,-5.467182 11.932405,-3.876739c2.461825,1.454229 2.452423,1.92382 -0.064464,3.225477l-2.022452,1.045866l0,63.974468l2.065462,1.068084c1.135988,0.587435 1.970244,1.346501 1.853904,1.686808c-0.170714,0.499581 -49.532566,29.375563 -55.894851,32.698118l-1.7501,0.91383l-13.983777,-8.056176l0.000229,0.000331zm42.518,-9.230536c15.310251,-8.806044 27.849328,-16.189811 27.862068,-16.408427c0.01274,-0.218616 -0.74704,-0.749231 -1.690757,-1.179227l-1.715855,-0.781794l-56.567515,32.647159l1.516731,0.842461c0.834206,0.463349 1.796116,0.853214 2.13757,0.866336c0.341454,0.01274 13.147533,-7.181203 28.458294,-15.987247l-0.000535,0.000739zm-52.337882,0.836958l0,-1.691089l-2.71945,1.696822l1.151479,0.842665c1.533853,1.122534 1.567945,1.104087 1.567945,-0.848398l0.000025,0zm-1.050911,-2.038173c0.719726,-0.544374 1.005226,-0.989785 0.634445,-0.989785s-1.263029,0.445411 -1.982755,0.989785c-0.719751,0.544374 -1.005251,0.989785 -0.63447,0.989785s1.263029,-0.445411 1.98278,-0.989785zm-1.618854,-1.677635c3.248918,-1.657481 3.364596,-2.402482 0.45782,-2.947748c-1.21658,-0.228298 -6.601285,-2.953609 -11.966293,-6.056273c-9.990596,-5.77829 -10.192396,-5.831797 -13.125111,-3.484861l-1.348285,1.078989l1.348285,-0.187021c0.829059,-0.114914 1.276967,0.156955 1.163073,0.70589c-0.101919,0.491045 0.098352,0.717585 0.444774,0.503428c0.883484,-0.54603 2.845829,0.301756 2.393412,1.033941c-0.205112,0.33195 0.26955,0.603513 1.054886,0.603513c0.78531,0 1.242518,0.299896 1.015978,0.666447c-0.244605,0.395853 0.057839,0.486178 0.744976,0.222438c0.779603,-0.299183 0.999416,-0.189314 0.674142,0.337071c-0.315362,0.510257 -0.120009,0.641809 0.56356,0.379495c0.575434,-0.220909 1.046248,-0.098606 1.046248,0.271716c0,0.370271 0.770812,0.866667 1.71295,1.103119c0.943335,0.236707 1.518718,0.744186 1.280636,1.129414c-0.252504,0.408414 0.086886,0.61057 0.815122,0.485847c0.754327,-0.129182 1.174182,0.139374 1.062173,0.679162c-0.101919,0.491045 0.098352,0.717585 0.444774,0.503428c0.883509,-0.54603 2.845829,0.301731 2.393412,1.033941c-0.205112,0.331924 0.26955,0.603513 1.054886,0.603513c0.907638,0 1.252608,0.283564 0.946852,0.778303c-0.283462,0.458686 -0.186257,0.5962 0.236452,0.334905c0.948253,-0.586059 2.958195,0.20766 2.480858,0.979873c-0.566745,0.917066 0.1753,0.735752 3.104194,-0.75848l0.000229,-0.000051zm-1.071779,-20.798072c-0.744645,-0.682627 -4.348368,-1.61944 -4.348368,-1.130382c0,0.181925 0.985938,0.615335 2.190975,0.963286c2.916408,0.842079 2.891438,0.840143 2.157291,0.167147l0.000102,-0.000051zm-2.075934,-3.401032c-4.106566,-2.504044 -6.245333,-3.415301 -6.614279,-2.818311c-0.524551,0.848729 5.000649,4.052294 7.038516,4.081086l1.685381,0.022932l-2.109644,-1.286394l0.000025,0.000688zm-8.535704,-2.371117c-2.087706,-1.844706 -5.708221,-3.448679 -6.355915,-2.815763c-0.177339,0.173517 8.092357,5.062565 8.574434,5.069189c0.185492,0.002548 -0.81293,-1.011545 -2.218468,-2.253528l-0.000051,0.000102zm12.590546,1.090914c0.405612,-0.656281 -7.716022,-5.572668 -8.45315,-5.117091c-1.013583,0.626419 0.179887,1.992004 3.314656,3.79291c3.346251,1.922394 4.573354,2.238597 5.138494,1.324053l0,0.000127zm-24.162159,-14.99736c2.319138,-3.15923 7.319558,-7.298919 10.082068,-8.346645l1.34831,-0.511352l-2.723272,-1.34487l-2.723272,-1.344896l-2.931951,0.789514c-5.08728,1.36984 -12.021329,9.935815 -13.202824,16.30982l-0.459094,2.476832l5.186906,3.283826l1.513877,-4.024266c0.832626,-2.213397 2.591797,-5.492917 3.909607,-7.287708l-0.000357,-0.000255zm5.025874,-7.334846c0,-0.348919 0.303387,-0.821874 0.674168,-1.051013c0.370781,-0.229063 0.674142,0.05631 0.674142,0.634343c0,0.578058 -0.303361,1.051013 -0.674142,1.051013s-0.674168,-0.285449 -0.674168,-0.634343zm2.359549,16.402566c-2.173471,-1.680591 -6.501149,-3.76157 -6.930482,-3.332237c-0.543533,0.543508 0.393483,1.335545 3.549579,3.000491c3.242039,1.710173 5.442722,1.92619 3.380649,0.331797l0.000255,-0.000051zm-7.419438,-1.615287c-0.673174,-0.743829 -1.402276,-1.17408 -1.620255,-0.956101c-0.218106,0.218106 0.192117,0.826562 0.911206,1.352438c1.847101,1.350629 2.141239,1.186208 0.70905,-0.396337zm25.545962,-3.244842c0.487198,-0.788266 -7.10298,-5.010841 -7.783543,-4.330278c-0.310547,0.310547 1.027266,1.509113 2.972973,2.663395c3.923112,2.327623 4.317792,2.464322 4.81057,1.666756l0,0.000127zm0.412313,-5.111231c0,-0.368131 -4.679095,-3.105468 -5.26309,-3.079224c-0.405459,0.017836 4.6475,3.337078 5.094669,3.346251c0.092746,0.002013 0.168421,-0.118226 0.168421,-0.267027zm32.185976,-13.581707l2.18672,-1.316155l0.005096,-6.281259l0.005096,-6.281259l-1.488958,0.472572c-2.749261,0.872578 -8.926309,1.306931 -13.005356,0.914518c-2.224685,-0.21403 -4.163895,-0.297374 -4.309129,-0.185238c-0.456061,0.352002 1.43331,8.573414 2.426459,10.558284c0.521239,1.041789 2.019267,3.080243 3.328925,4.530039l2.381258,2.635877l3.142413,-1.865497c1.728289,-1.026043 4.12644,-2.457773 5.329082,-3.181652l-0.001605,-0.000229zm-15.032267,-2.019548c-0.912148,-1.843126 -2.031523,-5.320929 -2.487534,-7.728252c-0.677149,-3.575314 -0.869623,-3.972542 -1.050427,-2.168171c-0.271563,2.710022 1.090659,9.588526 1.898876,9.588526c0.323541,0 1.120343,0.900784 1.770687,2.001712c1.805544,3.056547 1.728493,2.064698 -0.131475,-1.693866l-0.000127,0.000051zm32.807681,-8.312502c0.227024,-0.232375 -0.607233,-1.286496 -1.85393,-2.342656l-2.266701,-1.920304l-0.002548,1.583233c-0.00135,0.870769 -0.608124,2.576509 -1.34831,3.790617s-1.345788,2.345637 -1.345788,2.51472c0,0.333071 6.139337,-2.931951 6.817353,-3.625509l-0.000076,-0.000102zm-49.28796,-1.120216c0,-0.826052 -0.272149,-0.889293 -1.34831,-0.31335c-0.741562,0.396872 -1.348285,0.86259 -1.348285,1.034935c0,0.172243 0.606723,0.31335 1.348285,0.31335c0.762786,0 1.34831,-0.449437 1.34831,-1.034935zm67.949304,-9.444821l11.658753,-6.710847l-2.944436,-2.391144l-1.422634,0.911639c-0.782431,0.50139 -7.110879,4.177909 -14.063019,8.170071c-6.95214,3.992162 -12.640232,7.423515 -12.640232,7.625314c0,0.201799 0.530895,0.759321 1.179762,1.239053c1.347597,0.996359 0.005096,1.647213 18.231755,-8.844009l0.000051,-0.000076zm-36.242346,6.325849l1.99947,-0.697023l0,-225.770658l-2.528072,0.53617c-3.313637,0.702756 -13.393157,0.688156 -16.181657,-0.022932l-2.192963,-0.559611l0.170459,113.142674l0.170459,113.142674l3.707808,0.813032c3.949865,0.866132 11.55021,0.566822 14.854419,-0.584989l0.000076,0.000662zm19.345983,-2.178337c1.931923,-1.072645 3.373005,-2.176121 3.202545,-2.452117c-0.170714,-0.276022 -2.740343,-1.878696 -5.710514,-3.561555l-5.400426,-3.059604l0,2.997179c0,2.915899 2.775251,8.749989 3.919545,8.239121c0.261931,-0.116952 2.056901,-1.090252 3.988849,-2.162922l0,-0.000102zm-0.568223,-20.816927l6.328906,-3.721058l-3.739913,-1.959492l-10.603638,6.007607l0,2.022682c0,2.422586 -0.203838,2.482336 8.01439,-2.349612l0.000255,-0.000127zm-19.773533,-204.163859l2.99514,-0.754174l0,-11.940814l-2.191001,0.488752c-2.90112,0.647159 -14.506621,0.626699 -16.853812,-0.029811l-1.85393,-0.518461l0,12.121974l2.191001,0.63261c3.097314,0.894287 12.160958,0.894313 15.712576,0.000051l0.000025,-0.000127zm0.467069,-13.49635l2.528072,-0.632814l0,-39.014539l-1.85393,0.769513c-1.019647,0.423244 -4.887519,0.769513 -8.595327,0.769513c-3.707808,0 -7.575884,-0.346269 -8.595327,-0.769513l-1.85393,-0.769513l0,39.014539l2.528072,0.692666c4.9609,1.359292 10.258898,1.339978 15.842522,-0.057584l-0.000153,-0.002268zm-1.141211,-40.436307l2.99514,-0.754174l0,-17.272189l-3.870878,-0.803605c-3.628057,-0.75318 -10.535862,-0.532144 -14.162645,0.453182l-1.516833,0.412083l0,17.332066l2.190975,0.632636c3.091963,0.892758 10.818942,0.892784 14.364189,0.000025l0.000051,-0.000025z"/>
    <path id="svg_6" fill="#ffffff" stroke-width="0.26458" d="m128.281262,437.783558c-7.691052,-4.430922 -14.253862,-7.889284 -14.584079,-7.685192c-0.929959,0.57472 -3.420142,-1.014067 -2.902394,-1.851789c0.26369,-0.426683 0.153897,-0.555203 -0.257371,-0.301068c-0.895892,0.5537 -2.970425,-0.18804 -2.527893,-0.903791c0.179377,-0.290061 -0.201799,-0.485796 -0.846564,-0.434964c-0.644892,0.050705 -1.100316,-0.275869 -1.012054,-0.726019c0.098861,-0.5046 -0.266594,-0.654548 -0.953298,-0.391037c-0.807044,0.30968 -0.961757,0.181416 -0.561879,-0.465489c0.36357,-0.588276 0.291055,-0.731726 -0.212501,-0.420466c-0.975363,0.602799 -3.65532,-0.797592 -3.135534,-1.638499c0.220909,-0.357328 -0.112366,-0.439449 -0.765844,-0.188805c-0.727981,0.27936 -0.993581,0.179632 -0.716439,-0.268684c0.250466,-0.405229 -0.065228,-0.672715 -0.732083,-0.620176c-0.648484,0.051214 -1.089716,-0.306572 -0.987263,-0.800369c0.101919,-0.49102 -0.098352,-0.717585 -0.444774,-0.503428c-0.831734,0.514028 -2.858569,-0.281423 -2.440473,-0.957808c0.179377,-0.290087 -0.201799,-0.485822 -0.846538,-0.43499c-0.64851,0.051214 -1.089742,-0.306597 -0.987288,-0.800369c0.101919,-0.491045 -0.098352,-0.717585 -0.444774,-0.503428c-0.831709,0.514028 -2.858569,-0.281449 -2.440447,-0.957833c0.179377,-0.290061 -0.201545,-0.485796 -0.846232,-0.434964c-2.439428,0.192372 -1.668667,-2.530645 1.172169,-4.141218c1.491124,-0.845341 2.711042,-1.792549 2.711042,-2.104879c0,-0.312356 -1.690757,-1.59261 -3.757239,-2.845065c-7.35421,-4.457167 -8.043946,-5.030715 -8.845028,-7.356503c-3.901454,-11.327517 6.002002,-26.916771 17.112941,-26.937155c1.924712,-0.002548 3.640542,0.221164 3.813039,0.499199c0.172498,0.278086 -1.103883,0.40528 -2.836147,0.282646c-7.172795,-0.50776 -15.07864,8.57265 -17.349647,19.927175l-0.420568,2.102815l2.743656,1.399754c3.472885,1.771706 3.233376,1.851764 3.645383,-1.218975c0.757257,-5.645795 5.852691,-13.415325 11.05998,-16.864514c4.629155,-3.066229 6.735563,-3.243058 11.43657,-0.961171c3.336314,1.619542 4.303269,1.818971 6.149784,1.268482l2.191001,-0.653198l0,-16.411484l-2.047881,-0.848245c-2.645814,-1.095883 -2.416165,-1.571589 2.050607,-4.250271l3.705005,-2.221908l0.466967,-6.365342c0.256836,-3.500913 0.456138,-69.248769 0.442939,-146.105781l-0.022932,-139.740948l1.090277,-1.663953c4.195235,-6.402798 18.55917,-8.936246 28.78953,-5.077852c4.831718,1.822411 9.165053,5.880209 8.402446,7.867881c-0.21352,0.556426 -0.164089,0.87319 0.109563,0.703903c0.273856,-0.169185 0.414708,59.882426 0.313018,133.447459c-0.101664,73.565033 0.020384,133.755763 0.269601,133.755763c0.249956,0 2.608358,-1.246519 5.240923,-2.770155l4.786619,-2.770155l2.359524,1.25322l2.359549,1.253245l0.674142,21.190205l8.693679,-5.033263c9.702166,-5.617258 9.240219,-5.467182 11.932405,-3.876739c2.461825,1.454229 2.452423,1.92382 -0.064464,3.225477l-2.022452,1.045866l0,63.974468l2.065462,1.068084c1.135988,0.587435 1.970244,1.346501 1.853904,1.686808c-0.170714,0.499581 -49.532566,29.375563 -55.894851,32.698118l-1.7501,0.91383l-13.983777,-8.056176l-0.000917,-0.00028zm42.518,-9.230536c15.310251,-8.806044 27.849328,-16.189811 27.862068,-16.408427c0.01274,-0.218616 -0.74704,-0.749231 -1.690757,-1.179227l-1.715855,-0.781794l-56.567515,32.647159l1.516731,0.842461c0.834206,0.463349 1.796116,0.853214 2.13757,0.866336c0.341454,0.01274 13.147533,-7.181203 28.458294,-15.987247l-0.000535,0.000739zm-33.623032,-20.752209l-0.174791,-34.066379l-17.190909,-10.009706l0,68.385007l8.258485,4.837069c4.542014,2.660337 8.488567,4.855924 8.770118,4.878856c0.281474,0.022932 0.433155,-15.288339 0.337071,-34.025611l0.000025,0.000764zm14.938502,26.208435c18.172133,-10.419929 22.730454,-13.966451 29.327152,-22.81683c16.538883,-22.192577 17.779235,-51.884343 2.352287,-56.31017l-2.091859,-0.599945l-19.181384,11.095397c-10.549621,6.102392 -19.641038,11.095142 -20.203121,11.095142s-1.608687,-0.314037 -2.325865,-0.697864l-1.303975,-0.697864l0,33.057382c0,18.181305 0.202564,33.057382 0.45043,33.057382c0.247663,0 6.087613,-3.232357 12.977328,-7.182986l-0.000994,0.000357zm-33.653607,-4.620491l0,-1.691089l-2.71945,1.696822l1.151479,0.842665c1.533853,1.122534 1.567945,1.104087 1.567945,-0.848398l0.000025,0zm-1.050911,-2.038173c0.719726,-0.544374 1.005226,-0.989785 0.634445,-0.989785s-1.263029,0.445411 -1.982755,0.989785c-0.719751,0.544374 -1.005251,0.989785 -0.63447,0.989785s1.263029,-0.445411 1.98278,-0.989785zm-1.618854,-1.677635c3.248918,-1.657481 3.364596,-2.402482 0.45782,-2.947748c-1.21658,-0.228298 -6.601285,-2.953609 -11.966293,-6.056273c-9.990596,-5.77829 -10.192396,-5.831797 -13.125111,-3.484861l-1.348285,1.078989l1.348285,-0.187021c0.829059,-0.114914 1.276967,0.156955 1.163073,0.70589c-0.101919,0.491045 0.098352,0.717585 0.444774,0.503428c0.883484,-0.54603 2.845829,0.301756 2.393412,1.033941c-0.205112,0.33195 0.26955,0.603513 1.054886,0.603513c0.78531,0 1.242518,0.299896 1.015978,0.666447c-0.244605,0.395853 0.057839,0.486178 0.744976,0.222438c0.779603,-0.299183 0.999416,-0.189314 0.674142,0.337071c-0.315362,0.510257 -0.120009,0.641809 0.56356,0.379495c0.575434,-0.220909 1.046248,-0.098606 1.046248,0.271716c0,0.370271 0.770812,0.866667 1.71295,1.103119c0.943335,0.236707 1.518718,0.744186 1.280636,1.129414c-0.252504,0.408414 0.086886,0.61057 0.815122,0.485847c0.754327,-0.129182 1.174182,0.139374 1.062173,0.679162c-0.101919,0.491045 0.098352,0.717585 0.444774,0.503428c0.883509,-0.54603 2.845829,0.301731 2.393412,1.033941c-0.205112,0.331924 0.26955,0.603513 1.054886,0.603513c0.907638,0 1.252608,0.283564 0.946852,0.778303c-0.283462,0.458686 -0.186257,0.5962 0.236452,0.334905c0.948253,-0.586059 2.958195,0.20766 2.480858,0.979873c-0.566745,0.917066 0.1753,0.735752 3.104194,-0.75848l0.000229,-0.000051zm69.241125,-10.749127l9.606617,-5.554323l-0.061661,-21.772162l-2.207741,5.773958c-3.605634,9.430042 -8.541055,17.449528 -14.863846,24.152222c-1.885575,1.998884 -3.124832,3.481548 -2.754102,3.294527c0.370781,-0.187021 4.997082,-2.839205 10.28081,-5.894222l-0.000076,0zm-66.626906,-3.562829l-0.054527,-8.932424l-1.286012,2.696518c-0.707317,1.483123 -1.481034,3.840812 -1.719371,5.239649c-0.238235,1.398658 -0.668995,2.68862 -0.957018,2.866723c-0.942112,0.582262 2.594345,6.97176 3.902983,7.051766c0.092746,0.005096 0.14396,-4.009233 0.113894,-8.922232l0.000051,0zm-3.686915,-6.485861c-0.744645,-0.682627 -4.348368,-1.61944 -4.348368,-1.130382c0,0.181925 0.985938,0.615335 2.190975,0.963286c2.916408,0.842079 2.891438,0.840143 2.157291,0.167147l0.000102,-0.000051zm-2.075934,-3.401032c-4.106566,-2.504044 -6.245333,-3.415301 -6.614279,-2.818311c-0.524551,0.848729 5.000649,4.052294 7.038516,4.081086l1.685381,0.022932l-2.109644,-1.286394l0.000025,0.000688zm-8.535704,-2.371117c-2.087706,-1.844706 -5.708221,-3.448679 -6.355915,-2.815763c-0.177339,0.173517 8.092357,5.062565 8.574434,5.069189c0.185492,0.002548 -0.81293,-1.011545 -2.218468,-2.253528l-0.000051,0.000102zm12.628001,1.030323c0.354958,-0.574364 -5.981363,-4.561379 -7.856415,-4.943574c-2.10121,-0.428289 -0.574287,1.735041 2.503102,3.546267c3.550343,2.089821 4.734386,2.398839 5.353543,1.397257l-0.000229,0.000051zm-31.982138,-0.630292c0,-0.311286 -0.834257,-0.922926 -1.853904,-1.359241l-1.85393,-0.793285l1.591539,1.359215c1.755603,1.499379 2.116294,1.634575 2.116294,0.793311zm32.359238,-2.412776c0,-0.525927 -1.137618,-1.645123 -2.528072,-2.487075c-1.390428,-0.841977 -3.210699,-1.96339 -4.044905,-2.492044l-1.516833,-0.961197l0,1.36077c0,0.931844 1.115578,2.006782 3.539387,3.41046c4.069875,2.356797 4.550422,2.480323 4.550422,1.169188l0,-0.000102zm-17.190909,-2.8257c-2.173471,-1.680591 -6.501149,-3.76157 -6.930482,-3.332237c-0.543533,0.543508 0.393483,1.335545 3.549579,3.000491c3.242039,1.710173 5.442722,1.92619 3.380649,0.331797l0.000255,-0.000051zm16.406388,-3.297075c-0.495479,-0.46154 -2.341892,-1.665023 -4.102998,-2.674351l-3.202291,-1.835202l0.010192,1.917986l0.010192,1.91796l7.734367,4.275751l0.226769,-1.381459c0.124596,-0.75978 -0.178613,-1.759094 -0.674142,-2.220659l-0.002089,-0.000025zm-23.825827,1.681763c-0.673174,-0.743829 -1.402276,-1.17408 -1.620255,-0.956101c-0.218106,0.218106 0.192117,0.826562 0.911206,1.352438c1.847101,1.350629 2.141239,1.186208 0.70905,-0.396337zm10.15545,-0.606137c-0.508371,-0.822562 -6.162524,-4.108859 -7.069602,-4.108859c-1.664845,0 -0.497033,1.221548 2.783914,2.912077c3.646657,1.878976 4.928541,2.23689 4.285433,1.196604l0.000255,0.000178zm2.994121,0.377686c0,-0.127908 -0.682576,-0.81051 -1.516833,-1.516833l-1.516833,-1.284254l1.284254,1.516833c1.206872,1.425463 1.749412,1.823736 1.749412,1.284254zm12.396646,-3.016543c0.487198,-0.788266 -7.10298,-5.010841 -7.783543,-4.330278c-0.310547,0.310547 1.027266,1.509113 2.972973,2.663395c3.923112,2.327623 4.317792,2.464322 4.81057,1.666756l0,0.000127zm0.412313,-5.111231c0,-0.368131 -4.679095,-3.105468 -5.26309,-3.079224c-0.405459,0.017836 4.6475,3.337078 5.094669,3.346251c0.092746,0.002013 0.168421,-0.118226 0.168421,-0.267027zm35.126335,-15.33624c3.561045,-2.169012 6.648932,-3.94375 6.861687,-3.94375c0.21301,0 2.202925,-1.081665 4.422259,-2.403705l4.035222,-2.403705l-4.925229,-4.513477l-0.795095,2.692696c-0.865342,2.930677 -2.640463,5.279907 -3.989614,5.279907c-0.552375,0 -1.018501,-1.54458 -1.322346,-4.382001c-0.25811,-2.410101 -0.547049,-4.382001 -0.642114,-4.382001c-0.095039,0 -1.65241,0.671161 -3.460655,1.491506l-3.287902,1.491506l-16.662714,0.050959l0.378195,3.201526c0.517595,4.381492 2.724291,9.113839 5.650127,12.116878l2.445059,2.509625l2.40926,-1.431119c1.325098,-0.787119 5.322712,-3.205858 8.883757,-5.374691l0.000102,-0.000153zm-17.971862,-0.265065c-0.912148,-1.843126 -1.979927,-5.176204 -2.372849,-7.406953l-0.714426,-4.055861l-2.875895,-1.405945l-2.875895,-1.405971l-0.61824,1.990985c-0.340027,1.095042 -0.821313,1.886467 -1.069537,1.758712c-0.248172,-0.127653 -1.158308,0.408848 -2.022452,1.192476s-2.140831,1.727474 -2.837166,2.097465c-1.074123,0.570797 0.096059,1.448726 7.723921,5.795106c4.944339,2.817292 9.064154,5.047786 9.155371,4.956824c0.091217,-0.091217 -0.580581,-1.673737 -1.492755,-3.516965l-0.000076,0.000127zm58.888717,-17.787899l-0.200016,-3.940947l-4.943829,2.90163c-5.990281,3.515946 -6.016525,3.540152 -4.422259,4.121089c2.456397,0.894873 6.304955,4.390664 7.828897,7.111134l1.537191,2.74442l0.200016,-4.498189c0.110072,-2.474055 0.110072,-6.271577 0,-8.439136zm-74.018572,8.694953c0,-1.258825 -1.931948,-1.46702 -3.489447,-0.376055l-1.529573,1.071346l2.509523,0c1.380262,0 2.509548,-0.312891 2.509548,-0.69529l-0.000051,0zm66.601427,-9.784465l11.658753,-6.710847l-2.944436,-2.391144l-1.422634,0.911639c-0.782431,0.50139 -7.110879,4.177909 -14.063019,8.170071c-6.95214,3.992162 -12.640232,7.423515 -12.640232,7.625314c0,0.201799 0.530895,0.759321 1.179762,1.239053c1.347597,0.996359 0.005096,1.647213 18.231755,-8.844009l0.000051,-0.000076zm-38.6247,7.038771c1.483123,-0.405331 4.137651,-1.351113 5.898809,-2.10172l3.202291,-1.364719l0,-226.326115l-2.611671,1.361279c-6.008117,3.131712 -17.19524,3.299368 -24.455685,0.366704l-3.943495,-1.59289l0,225.653451l1.731882,1.134765c4.501756,2.949787 14.62128,4.38939 20.177896,2.870799l-0.000025,-0.001554zm20.419953,-1.987188c1.375675,-0.760875 3.658123,-2.082763 5.072247,-2.937556l2.570903,-1.55411l-5.553813,-3.14649c-3.054508,-1.730582 -6.259092,-3.323574 -7.121326,-3.539897l-1.567741,-0.393483l0,3.961586c0,3.129673 0.358958,4.489781 1.709689,6.477453c2.006604,2.953099 1.719244,2.886342 4.890067,1.13265l-0.000025,-0.000153zm7.557283,-15.189477c0,-5.036575 -0.244096,-9.056 -0.54254,-8.932424c-0.298418,0.123577 -3.494543,1.893245 -7.102725,3.932539l-6.560007,3.707808l0.192627,1.983596c0.157719,1.623924 0.604812,2.089693 2.465799,2.56861c1.250239,0.321758 3.070306,1.133134 4.044905,1.803047c2.914115,2.003394 6.45656,4.070639 6.996475,4.082615c0.278086,0.005096 0.505594,-4.109368 0.505594,-9.145944l-0.000127,0.000153zm-6.816843,-6.53147l6.328906,-3.721058l-3.739913,-1.959492l-10.603638,6.007607l0,2.022682c0,2.422586 -0.203838,2.482336 8.01439,-2.349612l0.000255,-0.000127zm-20.256628,-204.10016c2.70671,-0.750072 5.658535,-1.846744 6.559498,-2.437058l1.638014,-1.073282l0,-5.652675c0,-3.109035 -0.11313,-5.652675 -0.251485,-5.652675s-1.730939,0.668256 -3.539387,1.48506c-2.785442,1.258061 -4.524433,1.489519 -11.377712,1.51431l-8.089809,0.029302l-7.752713,-3.628311l0,12.032795l2.790029,1.423424c2.945965,1.502921 9.645856,3.179359 13.065998,3.269557c1.119808,0.029556 4.250526,-0.560095 6.957491,-1.310192l0.000076,-0.000255zm0.256377,-13.367423c2.475864,-0.686525 5.27532,-1.755298 6.221382,-2.375066l1.719753,-1.126815l0,-38.239956l-4.013819,1.621223c-3.29045,1.329124 -5.264364,1.630294 -10.955003,1.671597c-6.78856,0.049176 -7.936931,-0.190079 -14.862572,-3.098333l-1.179762,-0.495428l0,38.438698l2.190975,1.285706c1.930216,1.13265 5.317616,2.236049 9.606617,3.129419c3.099862,0.64558 7.042084,0.361939 11.272226,-0.811045l0.000204,0zm1.526235,-41.218535c5.72147,-1.968486 5.74058,-1.998094 5.74058,-8.887325l0,-6.022131l-3.771507,-1.726658c-5.613691,-2.569884 -13.65305,-2.948258 -19.307254,-0.908224c-6.021111,2.172324 -5.909765,2.000744 -5.909765,9.11333l0,6.238963l3.202291,1.362553c4.366968,1.858108 5.145883,2.006324 11.017938,2.096012c3.531234,0.054017 6.331454,-0.338906 9.027718,-1.26652zm-53.58384,303.412445c0,-0.348919 0.303387,-0.821874 0.674168,-1.051013c0.370781,-0.229063 0.674142,0.05631 0.674142,0.634343c0,0.578058 -0.303361,1.051013 -0.674142,1.051013s-0.674168,-0.285449 -0.674168,-0.634343z"/>
    <path id="svg_7" fill="#ffffff" stroke-width="0.26458" d="m142.065787,445.274594c0,-0.391802 0.258976,-0.712362 0.575485,-0.712362c0.597805,0 55.301173,-31.436872 56.25921,-32.33121c0.298724,-0.278825 -0.37896,-0.888885 -1.505979,-1.355699l-2.049104,-0.84878l-56.768805,32.756721l1.575895,1.298701c1.851331,1.5257 1.231562,1.192094 -13.761084,-7.407208c-9.092691,-5.215443 -11.628177,-6.872389 -8.932424,-5.837912c0.741638,0.284608 1.011239,-0.086886 1.011239,-1.39318l0,-1.78121l-1.34831,0.721586c-0.741562,0.396872 -1.34831,0.965503 -1.34831,1.263641c0,0.655083 -3.474414,0.516831 -4.607242,-0.183454c-0.444366,-0.27462 -0.604455,-0.8286 -0.355722,-1.231052c0.256249,-0.414606 0.141412,-0.539558 -0.265244,-0.288303c-1.017252,0.628686 -2.941378,-0.234668 -2.416471,-1.08406c0.240529,-0.389228 0.118226,-0.510512 -0.271537,-0.26955c-0.900861,0.556757 -10.011999,-4.76114 -9.763572,-5.698538c0.101919,-0.384361 -0.098352,-0.523608 -0.444774,-0.309451c-0.831734,0.514028 -2.858569,-0.281423 -2.440473,-0.957808c0.179377,-0.290087 -0.201799,-0.485822 -0.846538,-0.43499c-0.64851,0.051214 -1.089742,-0.306597 -0.987288,-0.800369c0.101919,-0.491045 -0.116697,-0.70617 -0.485796,-0.47805c-1.084875,0.670473 -4.755534,-1.58359 -4.755534,-2.92023c0,-0.692207 0.804446,-1.567002 1.853904,-2.016057l1.85393,-0.793311l-1.672055,1.424418c-0.953069,0.811937 -1.242951,1.35068 -0.674142,1.252914c0.548833,-0.094275 1.536529,0.063444 2.194848,0.350601c0.993097,0.433206 1.050503,0.699775 0.337071,1.565015l-0.859889,1.042859l1.516833,-0.808242c0.974523,-0.519277 1.516858,-0.558719 1.516858,-0.110327c0,0.383826 0.227534,0.649682 0.505594,0.590824c0.278086,-0.058858 1.044261,0.128163 1.702606,0.415803c0.993072,0.433767 1.050478,0.700488 0.337071,1.565703l-0.859889,1.042885l1.516833,-0.808242c0.974497,-0.519277 1.516833,-0.558745 1.516833,-0.110327c0,0.383826 0.492192,0.697864 1.093768,0.697864l1.093768,0l-0.925219,1.121592l-0.925245,1.121617l1.59819,-0.851787c1.127656,-0.601016 1.455096,-0.620227 1.112113,-0.065228c-0.287844,0.465744 -0.114914,0.724745 0.424263,0.635082c0.500702,-0.083319 1.44898,0.083573 2.107325,0.370704c0.993072,0.433206 1.050478,0.699775 0.337071,1.56499l-0.859889,1.042859l1.685356,-0.894899l1.685381,-0.894899l-1.011213,1.23197l-1.011239,1.23197l1.35789,-0.723165c1.825953,-0.972459 4.093061,0.485898 2.83207,1.821876c-0.66446,0.70403 -0.542922,0.726095 0.643235,0.116697c0.986753,-0.506919 1.538007,-0.524602 1.694732,-0.054272c0.273525,0.820549 6.062134,-2.073667 6.445094,-3.22242c0.141158,-0.423244 -0.845417,-1.073817 -2.192249,-1.445694c-1.346832,-0.371851 -6.681546,-3.135279 -11.854692,-6.140866c-5.173147,-3.005587 -9.749303,-5.252643 -10.168954,-4.99326c-0.447526,0.276582 -0.577574,0.171478 -0.314522,-0.254033c0.46396,-0.750709 -3.721312,-3.872917 -8.37136,-6.245333c-3.621432,-1.847483 -4.937204,-4.626861 -4.937459,-10.428338c-0.000153,-4.84242 1.197954,-9.775293 2.374251,-9.775293c0.363927,0 0.47884,-0.295794 0.255409,-0.657326c-1.092086,-1.767018 8.380023,-9.493742 12.843815,-10.477259c1.332971,-0.293654 0.878923,0.098097 -1.393689,1.202413c-5.752555,2.79538 -10.382984,8.724509 -12.231792,15.662381c-1.329277,4.988419 -1.197878,5.456481 2.040416,7.266305l2.954628,1.651366l0.382858,-2.793341c0.95312,-6.953669 9.588781,-17.737704 15.473066,-19.322287l2.815508,-0.758149l4.32085,2.130665c3.043042,1.500602 4.532077,1.919412 5.035301,1.416214c0.392948,-0.392948 1.260532,-0.714451 1.927948,-0.714451l1.213471,0l0,-8.426906c0,-4.63476 0.227534,-8.422829 0.505594,-8.417733c0.278086,0.005096 4.601127,2.396036 9.606617,5.31354c5.00549,2.917427 9.158938,5.256975 9.230027,5.198881c0.070834,-0.057839 -0.815657,-2.011063 -1.970143,-4.340215c-1.268941,-2.560202 -2.217678,-5.66516 -2.398992,-7.851574c-0.251994,-3.038966 -0.537367,-3.675958 -1.786969,-3.989614c-0.817873,-0.205367 -2.583133,-1.117158 -3.923112,-2.026376l-2.436065,-1.653149l-0.445971,2.141672c-0.99483,4.777192 -5.343861,7.948652 -8.763493,6.390567c-1.911259,-0.87082 -2.112676,-1.572379 -0.616303,-2.14659c0.599945,-0.230337 0.870565,-0.117207 0.634368,0.264938c-0.226515,0.366526 -0.015288,0.700004 0.47061,0.741052c4.790951,0.405127 7.325928,-1.945631 7.208721,-6.685113c-0.043061,-1.740545 -0.20664,-2.557909 -0.363315,-1.816321c-0.156955,0.741562 -0.429843,2.027192 -0.606748,2.85704c-0.195175,0.915129 -1.405971,2.061844 -3.07795,2.914879c-1.515967,0.773386 -2.579312,1.119935 -2.363193,0.770124c0.216323,-0.349811 1.287898,-1.006678 2.381538,-1.459682c1.093666,-0.453004 2.237807,-1.326754 2.542544,-1.941682s0.622138,-57.543388 0.705329,-126.509332c0.083319,-68.965944 0.177848,-133.353184 0.210462,-143.083887s-0.137336,-18.011101 -0.377864,-18.400176c-0.240274,-0.388999 -0.03185,-1.207254 0.463629,-1.81836l0.900733,-1.111119l-1.011239,0.595894c-0.839353,0.494612 -0.869011,0.420135 -0.174281,-0.438226c0.460266,-0.568784 0.611946,-1.282369 0.337071,-1.585806c-0.274875,-0.303412 -0.142177,-0.34683 0.294724,-0.096568c0.490485,0.28099 0.877419,-0.1195 1.011239,-1.046401c0.521621,-3.614043 11.631999,-7.538938 19.681041,-6.952905c7.942537,0.578364 12.059804,2.527893 16.081012,7.614103l1.163455,1.471606l0.02548,134.288289c0.01274,73.858049 0.104467,134.367276 0.202564,134.466647c0.097842,0.097842 2.536353,-1.188833 5.418771,-2.859334l5.240668,-3.037437l4.314735,2.518084l0.057584,20.825081l-0.215049,-9.881543l-0.214794,-9.881543l-7.22936,4.193197c-6.065446,3.518239 -7.263757,4.485704 -7.443134,6.008881c-0.126379,1.074709 0.148547,1.922495 0.674142,2.077463c0.488319,0.14396 1.949631,0.581396 3.24739,0.972026l2.359549,0.710196l-3.043297,-0.354397l-3.043297,-0.354423l0.017836,3.992671c0.015288,3.313892 0.337708,4.411558 1.897857,6.457069c1.033839,1.355419 1.586163,2.464398 1.227409,2.464398s-0.779909,-0.379189 -0.935895,-0.842691c-0.221164,-0.656943 -0.530666,-0.638751 -1.404493,0.082554l-1.120878,0.925245l0,-1.992641c0,-2.906981 -0.552528,-3.052215 -3.282042,-0.863355c-3.685386,2.955392 -7.740228,4.149372 -14.919902,4.393212l-6.404326,0.217597l6.06723,-0.559356c8.888599,-0.819453 12.944969,-2.358173 16.099358,-6.106978l1.765693,-2.098382l0,-225.131117l-2.227284,1.698809c-1.225014,0.934367 -3.370711,2.176554 -4.768019,2.760472c-2.964565,1.238671 -8.618768,2.397743 -8.172109,1.675266c0.168421,-0.272582 1.599744,-0.702425 3.180633,-0.955235c3.818645,-0.610596 8.378495,-2.948258 10.371518,-5.316852l1.615312,-1.919667l0,-11.477083l-2.011955,1.692923c-2.261044,1.90257 -8.719668,4.517553 -10.990675,4.450032c-0.820345,-0.02548 0.152369,-0.486331 2.161419,-1.026501c4.279063,-1.150486 7.581234,-3.056547 9.482021,-5.472533l1.359368,-1.728136l0,-38.296011l-1.516858,1.459198c-3.225987,3.103429 -8.527551,4.915547 -15.268719,5.21901c-7.849536,0.353506 -12.539332,-0.642802 -16.927958,-3.596207l-3.364596,-2.264204l0,37.480661l1.407831,1.789746c1.638091,2.082483 4.322379,3.654046 9.041477,5.293156l3.370711,1.17092l-2.92711,-0.346091c-2.819076,-0.333326 -6.187494,-1.807072 -9.37628,-4.102234l-1.516858,-1.091729l0,5.384628c0,7.528491 1.668692,9.444821 10.786328,12.387218c2.710787,0.874795 3.21605,1.206286 1.879205,1.232785c-2.541194,0.05045 -8.863119,-2.414228 -10.318775,-4.022737c-0.664078,-0.73379 -1.463759,-1.334169 -1.777083,-1.334169s-0.569675,50.602714 -0.569675,112.452174l0,112.452174l2.281505,2.211308c1.254825,1.216223 4.212561,2.928384 6.573002,3.804886c2.663649,0.989123 3.680545,1.60698 2.680721,1.628791l-1.610726,0.035162l0.418453,3.533272c0.481388,4.064524 3.654301,10.953729 6.105704,13.256586l1.675342,1.573907l4.926758,-2.880991c2.709768,-1.584507 8.111977,-4.687248 12.005277,-6.895066c3.8933,-2.207715 7.789913,-4.462262 8.659026,-5.009822l1.580558,-0.995849l-1.527025,-1.625427c-0.839862,-0.894007 -1.399422,-1.738863 -1.243461,-1.877473c0.739192,-0.65702 10.691543,-6.494779 11.072465,-6.494779c0.238745,0 4.405188,-2.31738 9.259074,-5.149705l8.825154,-5.149705l2.248738,1.211025c2.755376,1.483888 2.773722,1.746227 0.22626,3.250957l-2.022452,1.194693l0,63.933701l2.022452,1.04584c1.112342,0.57523 2.013229,1.265577 2.001941,1.534159c-0.010192,0.268556 -11.766787,7.243883 -26.124352,15.50033s-27.393241,15.782135 -28.967888,16.723356c-1.575818,0.941221 -2.865194,1.390759 -2.865194,0.998958l-0.000357,-0.009886zm-4.881404,-37.4934l-0.174791,-34.086763l-17.190909,-9.987029l0,68.407938l8.258485,4.844203c4.542014,2.664414 8.488567,4.858472 8.770118,4.875798c0.281474,0.017836 0.433155,-15.307194 0.337071,-34.053639l0.000025,-0.00051zm15.730157,25.958734c14.630962,-8.47812 18.296983,-11.036793 23.273426,-16.243318c13.806438,-14.44547 21.125741,-35.437187 17.758597,-50.93395c-1.490079,-6.85761 -9.119954,-13.606168 -13.253528,-11.722707c-0.945782,0.430938 -9.823959,5.474572 -19.728943,11.208527c-9.905239,5.7337 -18.445275,10.424771 -18.978056,10.424771s-1.642754,-0.472241 -2.466819,-1.049433l-1.498309,-1.049458l0,33.816678c0,28.287579 0.15033,33.760622 0.919716,33.465058c0.505823,-0.194155 6.794166,-3.756984 13.974095,-7.917312l-0.000178,0.001147zm-34.45367,-7.962666l-0.010192,-1.102227l-0.653504,1.011239c-0.359417,0.556171 -0.658141,0.725713 -0.663823,0.376743c-0.01274,-0.731344 -1.978984,1.71746 -2.011343,2.503917c-0.01274,0.286647 0.737001,0.02548 1.663953,-0.583129c0.926952,-0.60736 1.680718,-1.600304 1.675062,-2.206543l-0.000153,0zm67.595136,-11.209546l9.26952,-5.305641l-0.067776,-12.855026c-0.04994,-9.476925 -0.231865,-12.154843 -0.691927,-10.190867c-2.571158,10.975132 -9.23232,23.01812 -17.702032,32.00507c-2.067042,2.193396 -2.773212,3.257072 -1.762941,2.655496c0.926952,-0.552069 5.856767,-3.39135 10.955003,-6.309542l0.000153,0.00051zm-67.635903,-3.207387c-0.029302,-4.912999 -0.217597,-8.518888 -0.418683,-8.013625c-0.308559,0.775857 -0.467655,0.775857 -1.021609,0c-0.514971,-0.72128 -0.580657,-0.681251 -0.305298,0.186002c0.635795,2.002553 -1.972308,9.034343 -3.261404,8.793559c-0.959974,-0.179377 -0.916123,0.03083 0.27276,1.30688c0.779221,0.836372 1.416749,2.002731 1.416749,2.591797c0,1.305428 1.857165,4.067836 2.734738,4.067836c0.369125,0 0.613577,-3.747302 0.582696,-8.932424l0.000051,-0.000025zm-7.728252,0.889268c0.213265,-0.345148 0.032614,-0.847073 -0.401458,-1.115375c-0.470457,-0.290775 -0.609373,-0.196703 -0.343874,0.232885c0.24486,0.396413 0.064209,0.874387 -0.401433,1.062147c-0.606162,0.24435 -0.618673,0.356589 -0.04408,0.394655c0.441614,0.029302 0.977453,-0.229063 1.190769,-0.574338l0.000076,0.000025zm-5.844537,-2.835383c-0.168421,-0.504906 -0.473897,-0.199251 -0.712285,0.71226c-0.293246,1.121362 -0.205367,1.384568 0.294775,0.884299c0.391751,-0.391751 0.579613,-1.110202 0.417511,-1.596559zm2.839714,1.440445c-0.556171,-0.359417 -1.314575,-0.653504 -1.685356,-0.653504c-0.370806,0 -0.219126,0.294087 0.337071,0.653504c0.556171,0.359442 1.314575,0.653504 1.685381,0.653504c0.370781,0 0.219126,-0.294061 -0.337097,-0.653504zm-4.719098,-1.613248c0,-0.145744 -0.470814,-0.445615 -1.046248,-0.666422c-0.599945,-0.230337 -0.87054,-0.117207 -0.634368,0.264938c0.395904,0.640586 1.680617,0.947489 1.680617,0.401484zm-4.739737,-2.768626c0,-0.370781 -0.294061,-0.219126 -0.653504,0.337071c-0.359417,0.556171 -0.653504,1.3146 -0.653504,1.685381s0.294087,0.219126 0.653504,-0.337071c0.359442,-0.556171 0.653504,-1.3146 0.653504,-1.685381zm16.200258,1.332079c0,-0.780495 -5.033263,-1.550721 -6.00404,-0.918773l-1.074658,0.699724l1.179762,-0.366806c0.648866,-0.201799 1.181138,-0.148802 1.182794,0.117716c0.001682,0.266467 1.063447,0.538743 2.359524,0.605067c1.296077,0.066247 2.356517,0.005096 2.356517,-0.136826l0.000102,-0.000102zm-21.57291,-2.343293c0,-0.370781 -0.133769,-0.674168 -0.297297,-0.674168c-0.16358,0 -0.484777,0.303387 -0.713916,0.674168c-0.229063,0.370781 -0.095294,0.674142 0.297272,0.674142c0.392668,0 0.713942,-0.303361 0.713942,-0.674142zm21.404234,0.109308c1.710937,-0.221674 0.770685,-1.320945 -1.493188,-1.745641c-1.284738,-0.241038 -2.515536,-0.728924 -2.734993,-1.084213c-0.238235,-0.385381 0.340511,-0.364742 1.434432,0.051214c3.439252,1.307619 3.192863,-0.443729 -0.370781,-2.636641c-4.951728,-3.046864 -7.679586,-2.617276 -3.576842,0.563433l1.853904,1.437183l-2.190975,-1.061205c-1.205063,-0.583664 -2.191001,-1.350603 -2.191001,-1.704338c0,-0.762404 -4.902807,-3.367144 -6.337824,-3.367144c-0.549062,0 -1.151861,-0.248427 -1.339545,-0.552171c-0.187785,-0.303693 0.627667,-0.409969 1.811888,-0.236197l2.153163,0.316025l-0.905192,-1.09071c-1.619516,-1.951389 -6.623197,-4.388116 -7.616651,-3.709337c-0.738147,0.504371 -0.676002,0.7768 0.326395,1.430788c2.770409,1.80748 3.391095,2.51495 1.332666,1.519381c-1.18152,-0.571485 -2.337076,-1.34459 -2.567846,-1.718021c-0.230846,-0.373405 -0.780928,-0.6666 -1.222517,-0.651542c-0.441589,0.015288 0.258874,0.975465 1.556632,2.134206l2.359524,2.10679l-1.925986,-1.185724c-1.059294,-0.652153 -2.175815,-0.929984 -2.481164,-0.617373c-0.561038,0.574364 1.933757,3.838519 3.101391,4.057645c0.347416,0.065228 1.238391,0.315974 1.979952,0.55719c0.741562,0.241293 0.134788,-0.341454 -1.348285,-1.294879c-1.483149,-0.953425 -2.454945,-1.735067 -2.159584,-1.736978c0.68887,-0.005096 11.260505,6.082518 11.260505,6.483568c0,0.166128 -0.586798,-0.01274 -1.303975,-0.396082c-1.691853,-0.905447 -1.842056,-0.883993 -1.842056,0.263002c0,0.528475 0.480318,0.94303 1.067396,0.921219c0.587078,-0.022932 1.648079,0.204093 2.357765,0.502001c0.950572,0.399012 1.152932,0.319312 0.768494,-0.30275c-0.342498,-0.554184 0.198742,-0.471757 1.574774,0.239764c1.153161,0.596327 2.096649,1.238798 2.096649,1.427705c0,0.188805 -0.586772,0.029556 -1.303975,-0.354372c-1.761617,-0.9428 -2.094305,-0.879916 -1.637887,0.309477c0.212501,0.554056 0.59676,0.877445 0.853698,0.71863c0.256937,-0.158739 0.848143,-0.053253 1.313785,0.234413c0.724669,0.447882 4.528,0.536475 7.347331,0.171224l-0.000076,0.000459zm-6.404326,-2.202161c-1.946625,-1.134765 -3.539387,-2.212123 -3.539387,-2.394125c0,-0.181925 1.592661,0.564299 3.539387,1.658449c1.946599,1.094175 3.994455,2.154259 4.550422,2.355803l1.011213,0.366398l-1.011213,0.038474c-0.556171,0.020384 -2.604027,-0.890108 -4.550422,-2.024873l0,-0.000127zm-6.404326,-3.685896c-2.520275,-1.367292 -2.366862,-1.936739 0.168421,-0.625629c1.112368,0.575205 2.022452,1.189724 2.022452,1.365611c0,0.433818 -0.072362,0.409332 -2.190975,-0.739982l0.000102,0zm-4.719098,-2.696518c-2.52025,-1.367267 -2.366862,-1.936739 0.168421,-0.625629c1.112342,0.57523 2.022452,1.18975 2.022452,1.365611c0,0.433818 -0.072362,0.409357 -2.191001,-0.739982l0.000127,0zm-9.151549,6.030794c-0.195429,-1.673813 -0.684105,-2.548736 -1.550007,-2.775251c-0.695545,-0.181925 -1.264635,-0.54998 -1.264635,-0.818001s-0.758429,-0.832881 -1.685381,-1.255233l-1.685381,-0.767908l0.022932,1.165315c0.041532,2.03216 1.746099,4.369771 4.101215,5.624647c1.253627,0.667976 2.294244,1.22723 2.312488,1.242773c0.017836,0.015288 -0.095294,-1.071779 -0.252249,-2.416267l0.001019,-0.000076zm9.488646,1.752597c-0.834282,-0.337122 -1.516858,-0.875508 -1.516858,-1.196451s-0.379189,-0.597958 -0.842691,-0.615564c-0.463476,-0.017836 -1.449414,-0.239255 -2.190975,-0.492345c-0.741562,-0.253268 -0.514053,0.022932 0.505619,0.615361c1.019647,0.591639 1.853904,1.303185 1.853904,1.581271c0,0.27806 0.834257,0.553954 1.853904,0.613118l1.85393,0.107524l-1.516833,-0.612915zm6.910099,0.017836c0.229063,-0.370781 0.095294,-0.674142 -0.297297,-0.674142c-0.392668,0 -0.713942,0.303361 -0.713942,0.674142s0.133769,0.674168 0.297297,0.674168c0.16358,0 0.484777,-0.303387 0.713942,-0.674168zm-5.186396,-3.051451c-0.20766,-0.20766 -0.584505,0.166637 -0.837671,0.831454c-0.365863,0.960789 -0.28843,1.038222 0.37738,0.37738c0.460724,-0.45731 0.667849,-1.001276 0.460291,-1.208834zm-5.393291,-2.022452c-0.20766,-0.20766 -0.584505,0.166637 -0.837671,0.831454c-0.365863,0.960789 -0.28843,1.038222 0.37738,0.37738c0.460724,-0.45731 0.667874,-1.001276 0.460291,-1.208834zm23.742253,-0.025989c0.361608,-0.951107 0.657453,-2.099962 0.657453,-2.553067c0,-0.914773 -8.674059,-6.144688 -9.244805,-5.573942c-0.875152,0.875126 0.679722,2.458614 4.448758,4.530803c2.236304,1.229396 3.951904,2.349535 3.812275,2.489164s-2.07596,-0.755499 -4.303014,-1.98915c-3.975855,-2.202416 -5.372398,-2.291161 -4.605458,-0.29266c0.361888,0.943055 6.909079,5.097981 8.055157,5.11174c0.287258,0.002548 0.818154,-0.771832 1.179762,-1.722938l-0.000127,0.000051zm-17.544567,0.74174c0,-0.976128 -2.805826,-1.707345 -3.885402,-1.012538c-0.912148,0.587053 -0.933908,0.681608 -0.098352,0.427957c0.589779,-0.179122 1.499889,-0.055036 2.022452,0.275843c1.037916,0.657045 1.961301,0.802407 1.961301,0.308738zm18.191752,-6.933795c-0.015288,-1.782128 -0.662676,-2.425516 -4.790696,-4.763687c-4.543798,-2.573451 -4.637053,-2.583898 -4.637053,-0.522589c0,1.286828 0.874617,2.121568 4.213326,4.021463c4.86688,2.76939 5.228183,2.85704 5.214424,1.264737l0,0.000076zm-10.101943,-0.505619c0,-0.556171 -0.119245,-1.011213 -0.264938,-1.011213c-0.145744,0 -0.439576,0.455042 -0.652994,1.011213c-0.21352,0.556197 -0.094275,1.011239 0.264938,1.011239c0.359162,0 0.652994,-0.455042 0.652994,-1.011239zm-4.726997,-0.842665c-0.005096,-0.278086 -1.824602,-1.503456 -4.044905,-2.723017c-2.790793,-1.532962 -4.037006,-1.932127 -4.037006,-1.293121c0,0.508346 1.441005,1.726327 3.202291,2.70671c3.224968,1.795046 4.894398,2.24303 4.87962,1.30953l0,-0.000102zm2.294244,-0.453488c-0.202309,-0.527532 -0.858463,-1.147301 -1.457873,-1.377331c-0.895357,-0.343568 -0.867406,-0.172498 0.1567,0.959107c1.468447,1.622599 1.804958,1.730761 1.301275,0.418224l-0.000102,0zm13.051984,-2.580076c-0.153897,-0.463476 -1.850541,-1.740545 -3.770488,-2.837931l-3.490976,-1.99524l1.508909,-0.807554c1.200681,-0.642598 1.883741,-0.613704 3.343703,0.141412c3.24051,1.675801 3.768195,0.595563 0.618087,-1.265297c-2.099962,-1.24048 -3.748321,-1.534185 -3.14649,-0.560681c0.202564,0.327746 -0.507556,0.9587 -1.578035,1.402123c-2.671803,1.106711 -2.237119,2.666197 1.352489,4.851593c3.193627,1.94423 5.619296,2.447785 5.1627,1.071702l0.000102,-0.000127zm-22.262391,-2.935263c-0.223967,-0.223967 -0.805465,-0.247918 -1.292127,-0.053253c-0.5378,0.215304 -0.378043,0.374959 0.407293,0.407319c0.71068,0.029302 1.108852,-0.130201 0.884834,-0.354092l0,0.000025zm20.407213,-0.266849c-0.832626,-0.538081 -0.842563,-0.655338 -0.056055,-0.663823c0.525264,-0.005096 0.796216,-0.169185 0.602111,-0.363264c-0.194155,-0.194155 -0.876859,-0.151859 -1.51719,0.093765c-0.922773,0.354092 -0.977733,0.564987 -0.26504,1.016768c0.494561,0.313502 1.202592,0.570007 1.573372,0.570007s0.219126,-0.294061 -0.337071,-0.653504l-0.000127,0.000051zm78.589633,-38.9381c-0.178103,-0.178103 -2.913351,1.129388 -6.077931,2.905707l-5.753829,3.229809l3.362558,1.920406c3.348289,1.912278 6.074874,5.326789 7.643405,9.5712c0.655924,1.775146 0.803579,0.608761 0.96242,-7.603147c0.103193,-5.334943 0.041787,-9.845617 -0.136316,-10.023975l-0.000306,0zm-10.560577,4.463282c7.81947,-4.500227 14.217171,-8.433276 14.217171,-8.740307s-0.621374,-0.890745 -1.380873,-1.297198l-1.380873,-0.739039l-28.822653,16.599015l1.065307,1.179762c0.585932,0.648866 1.29465,1.179762 1.574927,1.179762s6.907296,-3.681819 14.726766,-8.182046l0.000229,0.000051zm-15.337005,-17.901793c3.648186,-2.110332 6.633134,-4.033439 6.633134,-4.273713c0,-0.240274 -0.772621,-0.788826 -1.716925,-1.219102l-1.716925,-0.782278l-10.723393,6.185201l0,1.963467c0,1.079881 0.200271,1.963441 0.445334,1.963441c0.24486,0 3.430334,-1.726633 7.07852,-3.83699l0.000255,-0.000025zm-17.834272,-258.746505c1.974984,-0.594518 4.549148,-2.036797 5.886833,-3.298349c1.307415,-1.233065 2.550265,-2.068774 2.762001,-1.857165c0.211736,0.211736 0.165618,-0.186766 -0.102428,-0.885038c-0.316203,-0.824014 -0.235942,-1.114483 0.228553,-0.827377c0.90825,0.561318 -0.135042,-4.385314 -1.33794,-6.344194c-0.458788,-0.747091 -2.799711,-2.329534 -5.201939,-3.516455l-4.367733,-2.158157l-14.185576,0l-3.768959,1.7674c-5.90951,2.771174 -8.4027,7.945339 -5.693187,11.814179c0.543075,0.775348 0.770608,1.626549 0.505619,1.891563c-0.264989,0.264989 -0.178358,0.39519 0.192372,0.289348c0.370781,-0.105741 1.963645,0.481872 3.539642,1.306065c6.784738,3.547795 13.823255,4.141982 21.542589,1.818334l0.000153,-0.000153zm-53.397838,303.030249c-0.229063,-0.370781 -0.095294,-0.674142 0.297272,-0.674142c0.392668,0 0.713942,0.303361 0.713942,0.674142s-0.133769,0.674142 -0.297297,0.674142c-0.16358,0 -0.484777,-0.303361 -0.713916,-0.674142zm0.842665,-4.491309c0.463501,-0.187021 1.221905,-0.187021 1.685381,0s0.084338,0.340027 -0.842691,0.340027c-0.926952,0 -1.306167,-0.152878 -0.842691,-0.340027zm42.479781,-242.72486c0.838588,-0.161287 2.05206,-0.155171 2.696518,0.01274c0.64456,0.168676 -0.041532,0.300661 -1.524681,0.29317c-1.483149,-0.007644 -2.010502,-0.145489 -1.171914,-0.306776l0.000076,0.000866zm-1.009812,-13.48998c1.024743,-0.154917 2.541576,-0.15084 3.370711,0.010192c0.829161,0.160013 -0.010192,0.286825 -1.863179,0.281755c-1.853904,-0.005096 -2.532327,-0.136062 -1.507558,-0.290953l0.000025,-0.000994z"/>
    <path id="svg_8" fill="#ffffff" stroke-width="0.26458" d="m142.065787,445.60583c0,-0.185492 0.606748,-0.661785 1.34831,-1.058657s1.34831,-0.569905 1.34831,-0.384514c0,0.185492 -0.606748,0.661785 -1.34831,1.058657s-1.34831,0.569905 -1.34831,0.384514zm-2.865194,-1.444241l-1.853904,-1.005786l0,-70.0259l1.179762,0.430684c1.480881,0.540603 4.60393,2.905197 3.798771,2.876405c-0.328077,-0.01274 -1.185393,-0.466839 -1.905144,-1.011239c-0.719726,-0.544374 -1.554008,-0.989785 -1.853904,-0.989785c-0.299922,0 -0.545317,15.338024 -0.545317,34.084215c0,23.100674 0.222693,33.946624 0.690857,33.658703c0.379979,-0.234923 0.607513,-0.122557 0.505619,0.249701c-0.101919,0.372182 0.421485,1.143504 1.163073,1.714046c1.703599,1.310727 1.214159,1.319238 -1.179787,0.020384l-0.000025,-0.001427zm15.674101,-5.971426c0,-0.185492 0.606723,-0.66181 1.348285,-1.058682c0.741587,-0.396872 1.34831,-0.569905 1.34831,-0.384514c0,0.185492 -0.606723,0.66181 -1.34831,1.058682c-0.741562,0.396872 -1.348285,0.569905 -1.348285,0.384514zm4.719098,-2.696518c0,-0.185492 0.606748,-0.661785 1.34831,-1.058657s1.348285,-0.569905 1.348285,-0.384514c0,0.185492 -0.606723,0.661785 -1.348285,1.058657s-1.34831,0.569905 -1.34831,0.384514zm-42.174024,-4.094081c-1.003519,-0.776724 -1.04477,-0.921397 -0.177084,-0.620507l1.131605,0.392362l0,-3.920054c0,-2.274014 -0.333631,-4.1323 -0.794534,-4.425317c-0.595537,-0.37873 -0.58346,-0.507887 0.048157,-0.515633c0.638725,-0.007644 0.842691,-2.630526 0.842691,-10.836523c0,-6.716198 -0.24486,-10.674981 -0.644713,-10.427828c-0.354601,0.219126 -0.454711,0.893574 -0.222438,1.498691c0.263104,0.685634 0.151604,0.932991 -0.29587,0.656434c-0.394936,-0.244096 -0.898084,0.02548 -1.118075,0.598569c-0.272862,0.711088 -0.134533,0.878821 0.434964,0.527812c0.459246,-0.283003 0.297093,0.307973 -0.360334,1.313301c-0.657402,1.005302 -0.989607,1.827838 -0.738198,1.827838c0.251485,0 -0.062171,0.573829 -0.696921,1.275158c-1.25615,1.388033 -3.452756,1.208554 -4.043376,-0.33037c-0.199506,-0.519633 -0.068795,-0.944788 0.290443,-0.944788c0.359162,0 0.652994,0.274952 0.652994,0.611029s0.599487,0.454278 1.332207,0.26267c1.072874,-0.280583 1.199483,-0.596353 0.650421,-1.622268c-0.374959,-0.700641 -1.068161,-1.273884 -1.540402,-1.273884c-0.472267,0 -1.447554,-0.444417 -2.167279,-0.987594c-0.896173,-0.676334 -0.20129,-0.574083 2.204683,0.324433c2.875386,1.073792 3.443583,1.130713 3.130183,0.313451c-0.210717,-0.549241 -0.863788,-0.998601 -1.451146,-0.998601l-1.067957,0l2.334579,-1.70709l-3.795713,-2.180121c-3.865273,-2.220149 -5.696755,-2.707475 -5.696755,-1.515916c0,1.083882 -4.129243,-1.756164 -4.962684,-3.413263c-0.422199,-0.83948 -2.170133,-2.386583 -3.884383,-3.437978l-3.116679,-1.911667l-1.807837,0.937934l-1.807837,0.937908l2.227895,1.831609c1.225319,1.007366 1.772802,1.602954 1.216631,1.323493c-0.556171,-0.279487 -1.504628,-0.930137 -2.107682,-1.445923l-1.096469,-0.937781l-0.422556,1.101157c-0.482917,1.258418 0.000586,2.327801 1.05244,2.327801c0.436824,0 0.372513,-0.414963 -0.164599,-1.062122c-0.584989,-0.704845 -0.045863,-0.569064 1.602827,0.403675c2.627468,1.550211 3.47951,2.586955 1.063625,1.29386c-1.077996,-0.576912 -1.606496,-0.55877 -2.191001,0.075165c-0.583919,0.633349 -0.566414,0.720388 0.072362,0.359748c0.47456,-0.267945 0.842691,-0.114914 0.842691,0.350524c0,0.454456 0.191607,0.634725 0.425715,0.400567c0.695112,-0.695087 3.023933,0.876171 2.516249,1.697688c-0.304075,0.492013 -0.07593,0.60499 0.655262,0.324408c0.616991,-0.236707 1.121821,-0.20129 1.121821,0.078987c0,0.280251 0.613297,0.555738 1.362884,0.612176c0.774966,0.058349 1.179176,-0.19441 0.937017,-0.586365c-0.234159,-0.37896 0.517646,-0.201035 1.670807,0.39519c1.153161,0.596327 2.096649,1.238798 2.096649,1.427705c0,0.188805 -0.586798,0.029556 -1.303975,-0.354397c-1.640996,-0.878209 -2.264815,-0.889522 -1.734481,-0.03134c0.231611,0.374679 -0.022932,0.499351 -0.582645,0.284787c-0.609475,-0.233904 -1.313581,0.226005 -1.818487,1.187482l-0.823963,1.569117l1.277859,-1.051624c1.319085,-1.085563 3.023423,-1.168398 5.264873,-0.255842c0.947005,0.385559 1.151505,0.300686 0.768494,-0.319032c-0.342498,-0.554184 0.198742,-0.471757 1.574774,0.239764c1.153161,0.596302 2.096649,1.238773 2.096649,1.427679c0,0.188805 -0.586772,0.029556 -1.303975,-0.354372c-1.640996,-0.878235 -2.26479,-0.889548 -1.734455,-0.03134c0.236197,0.382145 -0.034398,0.495147 -0.634368,0.264938c-0.575434,-0.220909 -1.046248,-0.120774 -1.046248,0.222183c0,0.343033 0.834257,0.64028 1.853904,0.660536c1.019673,0.020384 2.434587,0.278646 3.144197,0.574185c0.956942,0.398554 1.153671,0.316229 0.761334,-0.318573c-0.402197,-0.650777 -0.226769,-0.700081 0.732109,-0.205621c0.693609,0.357659 1.716161,0.844805 2.272332,1.082506c0.556171,0.237726 0.151604,0.266543 -0.899154,0.064209c-1.403244,-0.270391 -1.774382,-0.148037 -1.398021,0.460928c0.456775,0.739065 0.892249,5.292392 0.506129,5.292392c-0.772672,0 -4.950454,-2.99565 -4.950454,-3.549834c0,-1.257883 -0.922009,0.147782 -1.026425,1.564913c-0.068031,0.924735 0.119755,1.138612 0.588581,0.669836c0.46875,-0.46875 1.645964,-0.127653 3.686915,1.068415c1.648996,0.966395 2.804297,1.44312 2.567081,1.059396c-0.237216,-0.383725 -0.050195,-0.851354 0.415702,-1.039114c0.672996,-0.271333 0.673862,-0.352359 0.005096,-0.394655c-0.463476,-0.029302 -0.838053,-0.584122 -0.832371,-1.232989c0.005096,-0.666218 0.226005,-0.886312 0.505619,-0.505619c0.586186,0.797897 2.179178,0.850487 3.36052,0.110837c1.014984,-0.635464 1.040209,-0.381151 0.185238,1.867612c-0.361608,0.951107 -1.137924,1.729283 -1.725181,1.729283c-0.587231,0 -0.880197,0.303361 -0.651032,0.674142c0.229063,0.370781 -0.190079,0.674142 -0.931666,0.674142c-0.741562,0 -1.508577,0.259358 -1.704491,0.576351c-0.195939,0.316993 0.514767,0.544527 1.579309,0.505619c1.064542,-0.038984 1.795759,-0.298266 1.624943,-0.576351c-0.170714,-0.278086 0.132749,-0.505619 0.674474,-0.505619c0.541775,0 1.302319,0.91011 1.690095,2.022452c0.571918,1.640613 0.520729,2.022452 -0.27113,2.022452c-0.536883,0 -0.976153,0.309145 -0.976153,0.68701c0,0.387801 0.701966,0.510792 1.611847,0.282443c0.955617,-0.239764 1.821417,-0.065483 2.126613,0.42839c0.330981,0.535558 0.236961,0.661199 -0.263537,0.351926c-0.461183,-0.285042 -0.778303,-0.052743 -0.778303,0.569981c0,0.578058 -0.321274,1.051013 -0.713942,1.051013s-0.527685,-0.301349 -0.300075,-0.669658c0.234413,-0.379444 -0.259562,-0.618877 -1.139962,-0.552477c-2.435173,0.183709 -25.895034,-13.751657 -25.157396,-14.944108c0.19441,-0.314751 0.055291,-0.67404 -0.3094,-0.798407c-0.364691,-0.124341 -0.86975,-1.262979 -1.12233,-2.530263l-0.459246,-2.304131l1.19319,0.45787c0.885751,0.339899 1.092443,0.195429 0.802203,-0.561012c-0.215049,-0.560375 -0.097078,-1.018857 0.262033,-1.018857c0.359137,0 0.652994,0.639184 0.652994,1.420418c0,0.985632 -0.309553,1.301657 -1.011239,1.032387c-0.615972,-0.236452 -1.011213,-0.00135 -1.011213,0.602009c0,1.158588 1.791351,1.346297 2.164502,0.226769c0.174791,-0.524118 0.948712,-0.40421 2.47036,0.382654c1.463555,0.756824 2.08554,1.485646 1.831915,2.146564c-0.259562,0.676461 -0.113385,0.83097 0.450991,0.476878c0.459221,-0.288099 1.441693,-0.458304 2.183255,-0.378246c1.110737,0.120009 1.068645,0.027008 -0.239,-0.526768c-1.085614,-0.459858 -1.453618,-1.020717 -1.164321,-1.774586c0.32107,-0.836703 0.215813,-0.93029 -0.43713,-0.388413c-1.141517,0.947361 -3.712649,-0.419676 -4.77923,-2.541016c-0.871788,-1.734047 -2.637915,-2.690148 -2.333993,-1.263539c0.104212,0.48944 -0.492956,0.99404 -1.327213,1.121311c-0.834282,0.127399 -1.516858,-0.083573 -1.516858,-0.468445c0,-0.384922 0.424874,-0.536832 0.944151,-0.337581c0.677276,0.259919 1.077104,-0.424849 1.414659,-2.422764c1.11833,-6.619375 9.495016,-18.783391 11.141515,-16.179109c0.349938,0.553521 0.640891,0.701253 0.646573,0.328306c0.005096,-0.372972 0.922162,-1.081741 2.036594,-1.575029c1.114457,-0.493313 1.854974,-1.174105 1.645607,-1.512884c-0.806688,-1.305224 4.627371,-0.532552 7.893106,1.122305c2.453187,1.24313 3.637484,1.531178 4.15727,1.011213c0.399853,-0.399853 1.264023,-0.727013 1.920355,-0.727013l1.193342,0l0.210717,-8.595327c0.115933,-4.727506 0.276633,7.255604 0.357226,26.62885c0.080516,19.373501 0.052743,35.223158 -0.061661,35.223158s-0.797107,-0.455781 -1.516833,-1.01287l-0.000968,0.001452zm-2.993866,-13.40284c0,-0.142177 -0.749256,-0.401713 -1.664972,-0.576759c-0.915741,-0.175046 -1.504577,-0.058858 -1.308536,0.258492c0.345225,0.558566 2.973483,0.839888 2.973483,0.318267l0.000025,0zm-6.496308,-4.793754c-0.212501,-0.554031 -0.690526,-0.819479 -1.062045,-0.589881c-0.415345,0.256708 -0.323236,0.640687 0.239255,0.997047c1.227485,0.777768 1.269578,0.756951 0.822867,-0.407166l-0.000076,0zm-2.267746,-0.340944c0,-0.370781 -0.133769,-0.674142 -0.297272,-0.674142c-0.16358,0 -0.484777,0.303361 -0.713942,0.674142c-0.229063,0.370781 -0.095294,0.674168 0.297297,0.674168c0.392642,0 0.713916,-0.303387 0.713916,-0.674168zm8.089809,-0.297272c0,-0.16358 -0.303361,-0.484777 -0.674142,-0.713942c-0.370781,-0.229063 -0.674142,-0.095294 -0.674142,0.297272c0,0.392668 0.303361,0.713942 0.674142,0.713942s0.674142,-0.133769 0.674142,-0.297272zm-12.149747,-4.298428l-1.512731,-1.224937l0.862004,-1.640206l0.861979,-1.640206l-1.330933,1.179762c-0.732032,0.648866 -1.888506,1.179762 -2.569884,1.179762s-1.039419,0.199506 -0.795451,0.443576c0.244096,0.244096 0.105741,0.850717 -0.30726,1.34831c-0.458125,0.552018 -0.488038,0.904708 -0.076694,0.904708c0.370781,0 1.034961,-0.434735 1.475938,-0.966114l0.801821,-0.966114l1.303185,1.303185c0.71677,0.71677 1.64018,1.303211 2.052034,1.303211s0.068031,-0.551228 -0.763907,-1.224937l-0.000102,0zm7.093553,-0.797515c0.229063,-0.370781 0.095294,-0.674168 -0.297297,-0.674168c-0.392668,0 -0.713942,0.303387 -0.713942,0.674168s0.133769,0.674142 0.297297,0.674142c0.16358,0 0.484777,-0.303361 0.713942,-0.674142zm-15.562245,-2.454894c0.35506,-0.925245 0.256402,-0.966955 -0.602009,-0.254542c-1.169825,0.970854 -1.291567,1.361101 -0.424645,1.361101c0.331109,0 0.793107,-0.49795 1.026654,-1.106584l0,0.000025zm1.067931,-5.799947c0,-0.376055 -0.447144,-0.303056 -1.011239,0.165109c-0.556171,0.461565 -1.011213,1.142612 -1.011213,1.513393c0,0.376055 0.447118,0.303056 1.011213,-0.165109c0.556171,-0.461565 1.011239,-1.142612 1.011239,-1.513393zm23.108318,0.831556c1.351291,-1.578214 1.540809,-4.01331 0.318369,-4.090513c-0.674168,-0.042551 -0.674168,-0.121283 0,-0.393254c1.212656,-0.489312 1.036922,-2.940614 -0.318165,-4.437802c-0.856169,-0.946062 -0.911919,-1.225396 -0.212246,-1.064313c0.631234,0.145489 0.996817,-0.457998 1.093054,-1.80404c0.079497,-1.112342 -0.005096,-1.636689 -0.185747,-1.165213c-0.237726,0.616686 -1.364923,0.26532 -4.017132,-1.252124c-3.924895,-2.245578 -5.129321,-2.161266 -3.670608,0.257014c0.730325,1.210745 0.731854,1.32999 0.007644,0.64349c-1.19082,-1.12972 -1.966907,-1.063218 -1.966907,0.168421c0,0.556197 -0.379215,1.03519 -0.842691,1.064466c-0.674168,0.042551 -0.674168,0.121283 0,0.393254c1.181036,0.476547 1.053968,3.373005 -0.168421,3.842341c-1.657965,0.636228 -1.230033,2.367193 0.505619,2.045155c0.834257,-0.154662 1.137618,-0.101154 0.674142,0.119245c-1.766509,0.840041 -0.701966,2.718686 2.708494,4.779485c4.254603,2.570903 4.595521,2.621353 6.074364,0.894363l0.000229,0.000025zm-10.673198,-3.977893c0.208934,-0.338243 -0.067521,-0.549266 -0.614851,-0.468954c-1.443502,0.211736 -2.126562,1.083907 -0.84901,1.083907c0.596098,0 1.254825,-0.276735 1.463861,-0.614953zm-3.898396,-1.701c-0.204347,-0.53222 -0.010192,-1.120496 0.433486,-1.307237c0.500855,-0.211227 0.041022,-0.99032 -1.217625,-2.062659c-1.112368,-0.947718 -1.805493,-1.72462 -1.5403,-1.726455c0.265167,-0.002013 1.554492,0.938189 2.865194,2.088929c1.80455,1.584431 2.382965,1.824373 2.382965,0.988511c0,-0.607105 -1.061791,-1.730276 -2.359524,-2.495967s-2.359524,-1.524553 -2.359524,-1.686349c0,-0.501696 2.958959,1.202133 4.464301,2.570648l1.430686,1.300612l0.464495,-1.210414c0.317808,-0.828244 -0.027518,-1.612942 -1.093615,-2.48524c-0.856959,-0.701151 -1.488703,-1.518718 -1.403881,-1.816857c0.084847,-0.298113 -0.37022,-0.520856 -1.011213,-0.494994c-0.640993,0.025989 -1.746099,-0.196703 -2.455811,-0.494612c-0.957833,-0.40207 -1.154027,-0.32107 -0.761334,0.314318c0.425333,0.688182 0.215813,0.692742 -1.069154,0.022932c-2.271007,-1.183278 -2.531996,-1.571691 -0.671085,-0.998677c1.090226,0.335695 1.455554,0.257294 1.144753,-0.245624c-0.279258,-0.451857 -0.076694,-0.592938 0.521519,-0.363341c0.537928,0.206386 1.145237,0.104722 1.349584,-0.22575c0.780724,-1.263233 -5.927346,-0.751448 -7.145276,0.545138c-1.542695,1.642397 -1.509546,1.750482 0.674168,2.197473c1.019647,0.208679 2.460653,0.868043 3.202291,1.465211l1.34831,1.085716l-2.15752,-1.043853c-5.04957,-2.443173 -4.920388,0.110327 0.139119,2.749771c2.065054,1.077333 3.577352,2.291136 3.408676,2.735757c-0.252504,0.665326 0.336765,1.239563 1.546899,1.507176c0.132495,0.029302 0.073636,-0.382221 -0.130711,-0.914441l0.000127,0.00028zm-0.149821,-6.822194l-1.308613,-1.048414l1.516833,0.735064c0.834282,0.404287 1.516858,0.876069 1.516858,1.048414c0,0.515862 -0.349633,0.366908 -1.725079,-0.735064zm-5.016446,-0.974039c-1.297733,-0.710476 -2.116931,-1.304485 -1.820424,-1.320028c0.7144,-0.037455 4.517044,1.939694 4.517044,2.348567c0,0.441258 -0.039494,0.426199 -2.696518,-1.02854l-0.000102,0zm9.101099,0c0.229063,-0.370781 0.095294,-0.674142 -0.297297,-0.674142c-0.392668,0 -0.713942,0.303361 -0.713942,0.674142s0.133769,0.674168 0.297297,0.674168c0.16358,0 0.484777,-0.303387 0.713942,-0.674168zm10.974113,-0.567535c0.623794,-0.395853 0.382272,-0.765385 -0.874413,-1.337991c-2.093847,-0.954011 -3.074128,-1.022526 -1.672794,-0.116952l1.011239,0.653504l-2.022452,0.040768l1.011213,0.653504c1.228301,0.793795 1.449719,0.803044 2.547207,0.106505l0,0.000662zm-9.28863,-2.241425c0,-0.80335 -0.191607,-1.269094 -0.425715,-1.034935c-0.869393,0.869368 -3.07795,-0.913804 -2.297226,-1.854668c0.546642,-0.658651 0.473515,-0.985785 -0.285449,-1.277018c-0.596353,-0.228808 -0.95368,-0.051469 -0.859889,0.426887c0.08816,0.450125 -0.319898,0.740899 -0.906976,0.64614c-0.587053,-0.094785 -1.067396,0.292864 -1.067396,0.861393c0,0.568554 0.328663,0.915231 0.730325,0.770405c1.091373,-0.393458 4.544052,1.531789 4.083379,2.27702c-0.21938,0.354983 -0.077713,0.645452 0.315031,0.645452c0.392668,0 0.713942,-0.6573 0.713942,-1.460676l-0.000025,0zm4.830954,0.195939c-1.634167,-1.035903 0.796241,-1.380848 2.61855,-0.371673c3.195156,1.769413 3.849985,0.60606 0.704718,-1.251844c-2.258496,-1.334118 -3.735581,-1.513597 -3.0275,-0.367876c0.330727,0.535125 0.115423,0.645987 -0.669378,0.344792c-0.748772,-0.287309 -0.995798,-0.183454 -0.70031,0.294749c0.306903,0.496574 -0.068286,0.595308 -1.144753,0.301221l-1.601273,-0.43741l1.685381,1.015469c1.737538,1.04686 3.739913,1.490181 2.134461,0.472572l0.000102,0zm-5.168051,-3.454285c0.229063,-0.370781 0.095294,-0.674142 -0.297297,-0.674142c-0.392668,0 -0.713942,0.303361 -0.713942,0.674142s0.133769,0.674168 0.297297,0.674168c0.16358,0 0.484777,-0.303387 0.713942,-0.674168zm6.498092,48.467514c-0.658982,-1.745845 -0.363494,-2.872328 0.597652,-2.278269c0.328969,0.203328 0.402885,0.890847 0.164344,1.52784l-0.433869,1.15818l2.611926,-2.022478l-0.988995,1.34831c-0.543941,0.741562 -1.068339,1.468192 -1.165289,1.614726c-0.096823,0.146508 -0.450532,-0.460215 -0.785743,-1.34831l-0.000025,0zm57.882268,-0.893115c0,-0.185492 0.606748,-0.66181 1.34831,-1.058682s1.34831,-0.569905 1.34831,-0.384514c0,0.185492 -0.606748,0.66181 -1.34831,1.058682s-1.34831,0.569905 -1.34831,0.384514zm-63.370599,-1.64362c0,-0.365456 -0.530895,-0.769691 -1.179762,-0.898287c-0.648866,-0.128673 -0.873062,-0.427295 -0.498179,-0.663798c0.374883,-0.236452 1.227281,-0.031085 1.894264,0.456724c0.765385,0.559662 0.949119,1.049586 0.498179,1.328308c-0.392974,0.242822 -0.714502,0.142432 -0.714502,-0.222948zm58.651756,-0.935539c0,-0.136571 0.91011,-0.92127 2.022452,-1.743679c1.112342,-0.822383 2.022452,-1.248226 2.022452,-0.946266c0,0.301935 -0.91011,1.086582 -2.022452,1.743653c-1.112342,0.657096 -2.022452,1.082913 -2.022452,0.946291zm-63.370599,-1.850337c0,-0.370781 0.321274,-0.674168 0.713916,-0.674168c0.392668,0 0.526462,0.303387 0.297297,0.674168c-0.229063,0.370781 -0.550413,0.674142 -0.713942,0.674142c-0.16358,0 -0.297272,-0.303361 -0.297272,-0.674142zm-1.685381,-1.34831c0.229063,-0.370781 0.550413,-0.674142 0.713942,-0.674142c0.16358,0 0.297272,0.303361 0.297272,0.674142s-0.321274,0.674142 -0.713916,0.674142c-0.392668,0 -0.526462,-0.303361 -0.297297,-0.674142zm-3.924131,-1.680438c-0.765385,-0.559662 -0.949119,-1.049611 -0.498179,-1.328308c0.392974,-0.242822 0.714502,-0.142432 0.714502,0.222948c0,0.365481 0.530895,0.769717 1.179762,0.898287c0.648866,0.128673 0.873062,0.427295 0.498179,0.663823c-0.374883,0.236452 -1.227281,0.031085 -1.894264,-0.456724l0,-0.000025zm86.508728,0.042551c0,-0.185492 0.606723,-0.661785 1.348285,-1.058657c0.741587,-0.396872 1.34831,-0.569905 1.34831,-0.384514c0,0.185492 -0.606723,0.661785 -1.34831,1.058657c-0.741562,0.396872 -1.348285,0.569905 -1.348285,0.384514zm-90.46318,-2.867487c0.486663,-0.194665 1.06811,-0.170714 1.292127,0.053253c0.223967,0.223967 -0.174281,0.383342 -0.884834,0.354066c-0.785336,-0.032359 -0.945094,-0.192117 -0.407293,-0.407293l0,-0.000025zm95.182023,0.170969c0,-0.185492 0.606748,-0.66181 1.34831,-1.058682s1.348285,-0.569905 1.348285,-0.384514c0,0.185492 -0.606723,0.66181 -1.348285,1.058682s-1.34831,0.569905 -1.34831,0.384514zm-98.425591,-1.64362c0,-0.365456 -0.530895,-0.769691 -1.179762,-0.898287c-0.648866,-0.128673 -0.873037,-0.427295 -0.498179,-0.663798c0.374883,-0.236452 1.227307,-0.031085 1.894264,0.456724c0.765385,0.559662 0.949145,1.049586 0.498179,1.328308c-0.392974,0.242822 -0.714502,0.142432 -0.714502,-0.222948zm-3.370711,-1.987902c0,-0.319821 0.758404,-0.927028 1.685381,-1.349406c0.926952,-0.422326 1.685356,-0.657606 1.685356,-0.522818s-0.758404,0.742046 -1.685356,1.349406c-0.926978,0.60736 -1.685381,0.84264 -1.685381,0.522818zm111.234243,-2.037995c0,-0.537112 -3.330708,-2.434663 -4.044905,-2.304564c-0.185492,0.033888 -0.337071,-14.454387 -0.337071,-32.196168l0,-32.257319l2.022452,-1.086328l2.022452,-1.086302l-3.033615,2.245629l0,63.844522l2.022452,1.04584c1.721945,0.890465 2.771174,2.359524 1.685381,2.359524c-0.185492,0 -0.337071,-0.254542 -0.337071,-0.56593l-0.000076,0.001096zm-89.286017,-9.48355c-0.20766,-0.336205 0.229317,-0.45252 0.97144,-0.258441c1.574137,0.411625 1.773133,0.869725 0.377813,0.869725c-0.53431,0 -1.141466,-0.275079 -1.349253,-0.611284zm-4.797576,-1.111298l-1.308613,-1.048414l1.516833,0.735064c0.834257,0.404287 1.516833,0.876069 1.516833,1.048414c0,0.515862 -0.349607,0.366908 -1.725053,-0.735064zm2.022452,-0.674142l-1.308613,-1.048414l1.516833,0.735064c0.834257,0.404261 1.516833,0.876069 1.516833,1.048414c0,0.515862 -0.349607,0.366882 -1.725053,-0.735064zm-26.361313,-1.40011c-0.851609,-3.214011 -0.377406,-11.708693 0.653631,-11.708693c0.336281,0 0.430786,-0.470814 0.209953,-1.046248c-0.220909,-0.575434 -0.133259,-0.880528 0.19441,-0.678015c0.327695,0.202564 0.778915,-0.109053 1.002754,-0.692258c1.226441,-3.196175 5.521199,-8.472515 8.150451,-10.013273c3.374788,-1.977761 5.132379,-2.378786 1.967493,-0.448927c-7.404405,4.515005 -12.979112,15.665438 -11.663085,23.328208c0.548782,3.195411 0.21403,4.013055 -0.515531,1.259309l-0.000076,-0.000102zm20.502762,0.040513c-2.520275,-1.367292 -2.366862,-1.936739 0.168421,-0.625629c1.112368,0.575205 2.022452,1.189724 2.022452,1.365611c0,0.433818 -0.072362,0.409332 -2.190975,-0.739982l0.000102,0zm-4.927267,-1.336997l-1.308613,-1.048388l1.516833,0.735039c0.834282,0.404287 1.516858,0.876069 1.516858,1.048414c0,0.515888 -0.349633,0.366908 -1.725079,-0.735064zm0.208169,-1.359623c-2.52025,-1.367267 -2.366862,-1.936739 0.168421,-0.625629c1.112342,0.57523 2.022452,1.18975 2.022452,1.365611c0,0.433818 -0.072362,0.409357 -2.191001,-0.739982l0.000127,0zm-2.696518,-3.370711c-2.520275,-1.367292 -2.366862,-1.936739 0.168421,-0.625654c1.112342,0.57523 2.022452,1.18975 2.022452,1.365636c0,0.433818 -0.072362,0.409332 -2.191001,-0.739982l0.000127,0zm4.887519,-14.061235c0,-0.185492 0.606748,-0.66181 1.34831,-1.058682s1.348285,-0.569905 1.348285,-0.384514c0,0.185492 -0.606723,0.66181 -1.348285,1.058682s-1.34831,0.569905 -1.34831,0.384514zm49.214069,-6.741423c0,-0.185492 0.606748,-0.661785 1.34831,-1.058657s1.34831,-0.569905 1.34831,-0.384514c0,0.185492 -0.606748,0.661785 -1.34831,1.058657s-1.34831,0.569905 -1.34831,0.384514zm12.808907,-7.415616c0,-0.185492 0.606723,-0.66181 1.348285,-1.058682c0.741587,-0.396872 1.34831,-0.569905 1.34831,-0.384514c0,0.185492 -0.606723,0.66181 -1.34831,1.058682c-0.741562,0.396872 -1.348285,0.569905 -1.348285,0.384514zm4.719098,-2.696518c0,-0.185492 0.606748,-0.661785 1.34831,-1.058657s1.348285,-0.569905 1.348285,-0.384514c0,0.185492 -0.606723,0.661785 -1.348285,1.058657s-1.34831,0.569905 -1.34831,0.384514zm-49.718568,-1.245474c-1.773872,-0.810866 -1.935719,-1.530643 -0.47061,-2.092853c0.575434,-0.220909 0.872425,-0.120264 0.659976,0.223457c-0.212501,0.343747 0.148547,0.924251 0.802076,1.290012c1.672004,0.935717 0.845137,1.418889 -0.991441,0.579332l0,0.000051zm17.412582,-1.554747c0.032359,-0.785336 0.192117,-0.945094 0.407293,-0.407293c0.194665,0.486663 0.170714,1.06811 -0.053253,1.292127c-0.223967,0.223967 -0.383342,-0.174281 -0.354066,-0.884834l0.000025,0zm35.676697,0.777768c0,-0.185492 0.606723,-0.661785 1.348285,-1.058657c0.741587,-0.396872 1.34831,-0.569905 1.34831,-0.384514c0,0.185492 -0.606723,0.661785 -1.34831,1.058657c-0.741562,0.396872 -1.348285,0.569905 -1.348285,0.384514zm-28.137249,-2.890674c1.024743,-0.154917 2.541602,-0.15084 3.370711,0.010192c0.829161,0.160013 -0.010192,0.2868 -1.863179,0.281755c-1.85393,-0.005096 -2.532327,-0.136062 -1.507584,-0.290953l0.000051,-0.000994zm26.11416,-1.074811c0.556171,-0.533138 7.212033,-4.534115 14.79072,-8.890892l13.77943,-7.921643l2.231615,1.201827c1.227409,0.660995 2.231641,1.466485 2.231641,1.789975s-0.929525,-0.099116 -2.065615,-0.939004l-2.065615,-1.527178l-2.484909,1.432036c-1.366681,0.787603 -8.097199,4.670177 -14.956593,8.627941c-6.859394,3.957764 -12.016743,6.759768 -11.460521,6.226733l-0.000153,0.000204zm-43.091294,-0.857138c0.032359,-0.785336 0.192117,-0.945094 0.407293,-0.407293c0.194665,0.486663 0.170714,1.06811 -0.053253,1.292127c-0.223967,0.223967 -0.383368,-0.174026 -0.354092,-0.884834l0.000051,0zm54.55207,-0.570516c0,-0.185492 0.606748,-0.66181 1.34831,-1.058682s1.34831,-0.569905 1.34831,-0.384514c0,0.185492 -0.606748,0.66181 -1.34831,1.058682s-1.34831,0.569905 -1.34831,0.384514zm-54.743167,-4.433725c-1.477747,-2.596893 -1.039267,-2.594599 0.811351,0.005096c0.792062,1.112342 1.191916,2.020516 0.88858,2.018172c-0.303336,-0.002013 -1.068288,-0.912429 -1.69993,-2.022452l0,-0.000815zm59.462011,1.73708c0,-0.185492 0.606723,-0.661785 1.348285,-1.058657c0.741587,-0.396872 1.34831,-0.569905 1.34831,-0.384514c0,0.185492 -0.606723,0.661785 -1.34831,1.058657c-0.741562,0.396872 -1.348285,0.569905 -1.348285,0.384514zm-22.54063,-2.604536c0.253268,-0.664868 0.630113,-1.039037 0.837671,-0.831454c0.20766,0.20766 0.000433,0.751524 -0.460291,1.208834c-0.66581,0.660842 -0.743243,0.583409 -0.37738,-0.37738zm15.799207,-10.291512c0,-6.295783 -0.239,-9.667259 -0.666422,-9.403034c-0.366526,0.226515 -0.508626,0.000662 -0.315745,-0.50195c0.213775,-0.557241 -0.512601,-1.343265 -1.86165,-2.01435c-1.216758,-0.605296 -1.90894,-1.118789 -1.538159,-1.141109c0.370781,-0.022932 1.660105,0.560528 2.865194,1.295261l2.191001,1.335876l0,10.122072c0,5.567318 -0.151604,10.122072 -0.337071,10.122072c-0.185492,0 -0.337097,-4.416654 -0.337097,-9.815041l-0.000051,0.000204zm-40.576446,-209.743917c0.486663,-0.194665 1.06811,-0.170714 1.292127,0.053253c0.223967,0.223967 -0.174281,0.383368 -0.884809,0.354092c-0.785361,-0.032359 -0.945094,-0.192117 -0.407319,-0.407293l0,-0.000051zm-11.146611,-5.101294c-1.010678,-1.306778 -1.646448,-2.528046 -1.316053,-2.528046c0.164599,0 0.796267,0.758404 1.403627,1.685356c1.136497,1.734532 1.073206,2.343599 -0.08765,0.842691l0.000076,0zm34.53011,-0.505594c0.67111,-0.741587 1.371879,-1.34831 1.557269,-1.34831c0.185492,0 -0.211991,0.606723 -0.883127,1.34831c-0.67111,0.741562 -1.371879,1.348285 -1.557269,1.348285c-0.185492,0 0.211991,-0.606723 0.883127,-1.348285zm-18.707716,-7.188082c0.463476,-0.187021 1.221905,-0.187021 1.685381,0s0.084338,0.340052 -0.842691,0.340052c-0.926952,0 -1.306167,-0.153133 -0.842691,-0.340052zm-15.466951,-5.452404c-1.187788,-1.38309 -2.078457,-2.865194 -1.721894,-2.865194c0.13759,0 0.922952,0.91011 1.745335,2.022452c1.624943,2.197829 1.609732,2.74442 -0.022932,0.842691l-0.00051,0.000051zm11.825136,-35.065184c-0.427142,-0.272404 2.245935,-0.495275 5.940086,-0.495275s6.015506,0.197213 5.158623,0.438404c-2.181777,0.613883 -10.16131,0.654778 -11.098709,0.05682l0,0.000051zm-5.924034,-1.521419c-1.831507,-0.715063 -3.803357,-1.780166 -4.382001,-2.366887l-1.05193,-1.066759l1.685381,0.648077c0.926952,0.356461 2.595364,1.130509 3.707808,1.720136s2.383755,1.073919 2.825446,1.076187c0.441614,0.002293 0.990397,0.30754 1.219561,0.678321c0.579587,0.937781 -0.165873,0.809465 -4.004137,-0.689073l-0.000127,0zm19.172466,0.771806c0,-0.298903 1.139784,-0.884961 2.532837,-1.302319c2.550519,-0.764162 7.802653,-5.073776 7.072914,-5.803769c-0.215813,-0.215813 -0.099371,-0.392362 0.258772,-0.392362c0.358117,0 0.531354,-1.025966 0.384973,-2.279899c-0.146508,-1.253959 -0.010192,-2.438791 0.303897,-2.633074c0.67055,-0.415294 0.636636,3.927443 -0.047392,6.083027c-0.260352,0.820319 -1.330704,2.101949 -2.378531,2.848123c-2.472781,1.760776 -8.127265,4.18224 -8.127265,3.480274l-0.000204,0zm-26.661974,-6.203291c-0.170714,-0.276455 0.137081,-0.436901 0.684309,-0.356589c1.408697,0.20664 1.915361,0.859201 0.667212,0.859201c-0.572478,0 -1.180654,-0.22626 -1.351521,-0.502613zm-0.405408,-5.555087c0.420008,-0.506078 0.538769,-1.168398 0.263893,-1.471836c-0.274875,-0.303412 -0.120519,-0.333428 0.342931,-0.066757c1.165034,0.670448 1.053739,1.528426 -0.263893,2.034046c-0.874566,0.335593 -0.946469,0.231611 -0.342931,-0.495504l0,0.000051zm1.449515,-2.858314c0,-0.578058 0.308305,-0.86045 0.68515,-0.627565c0.37682,0.232885 0.510613,0.705839 0.297272,1.051013c-0.577905,0.93508 -0.982421,0.760722 -0.982421,-0.423447zm32.453513,-1.66803c-0.957706,-0.797846 -1.223638,-1.325862 -0.667772,-1.325862c0.508066,0 1.30265,0.606723 1.76577,1.34831c1.034527,1.656513 0.914391,1.654067 -1.097997,-0.022932l0,0.000484zm-30.685221,0.157465c-0.183199,-0.296558 0.27197,-0.917168 1.011672,-1.379115l1.344921,-0.839913l-0.738096,1.379115c-0.804497,1.503227 -1.110431,1.661991 -1.618497,0.839913zm2.950296,-2.121237c0,-0.36994 1.592686,-1.111349 3.539387,-1.647544c4.656418,-1.282674 9.246334,-1.972334 7.921389,-1.190234c-0.556171,0.328255 -2.457468,0.784444 -4.225046,1.013787c-1.767604,0.229317 -4.118796,0.88486 -5.224616,1.456777c-1.105947,0.571918 -2.010834,0.737179 -2.010834,0.367214l-0.00028,0zm21.57291,-1.089742c-1.297758,-0.49102 -3.269557,-0.931182 -4.382001,-0.978192c-1.112368,-0.046883 -2.629252,-0.346142 -3.370711,-0.664817l-1.34831,-0.579383l1.34831,-0.035672c1.988896,-0.052488 10.252782,1.782077 11.624356,2.58084l1.184628,0.689889l-1.348285,-0.059877c-0.741587,-0.032869 -2.410101,-0.461667 -3.707808,-0.952661l-0.000178,-0.000127z"/>
   </g>
  </g>
  <text stroke="#ffffff" xml:space="preserve" text-anchor="start" font-family="'Tahoma', Gadget, sans-serif" font-size="105" id="svg_9" y="291.664063" x="550" stroke-width="0" fill="#ffffff">EXTRACTOR</text>
 </g>
</svg>