<svg width="1399.9999999999998" height="500" xmlns="http://www.w3.org/2000/svg">

 <g>
  <title>background</title>
  <rect fill="none" id="canvas_background" height="502" width="1402" y="-1" x="-1"/>
 </g>
 <g>
  <title>Layer 1</title>
  <g stroke="null" id="svg_1">
   <g stroke="null" id="svg_2" transform="matrix(0.7908737617361518,0,0,0.7908737617361518,23.19045975194928,22.46642725600282) ">
    <path stroke="null" id="svg_3" fill="#ffffff" d="m91.838189,453.476174l0,-78.783l-20,-21.867l0,-309.57l8,0l0,60.993l276.5,0.50704l0.25388,124.03l0.25389,124.03l-20.008,21.875l0,157.57l-18,0l0,-139l-16.401,0l-30.599,17.388l0,23.806c0,18.329 -0.28757,23.827 -1.25,23.898c-4.7671,0.34868 -119.35,-0.34725 -119.97,-0.72863c-0.4279,-0.26446 -0.77801,-11.825 -0.77801,-25.691l0,-25.21l-23.161,-13.462l-16.839,0l0,139l-18,0l-0.00176,-78.78541zm132,-10.717c0,-0.825 -0.45,-1.5 -1,-1.5s-1,0.675 -1,1.5s0.45,1.5 1,1.5s1,-0.675 1,-1.5z"/>
    <path stroke="null" id="svg_4" fill="#ffffff" d="m91.838189,453.156174l0,-79.097l-6.2861,-6.6528c-3.4574,-3.659 -7.9588,-8.5681 -10.003,-10.909l-3.717,-4.2564l0.25316,-154.24l0.25316,-154.24l6.4709,-0.62455l0.52908,61.625l277,1l0.47162,247l-19.972,21.509l0,157.99l-18,0l0,-139l-17.054,0l-29.946,17.162l0,23.36c0,12.848 -0.3375,23.556 -0.75,23.795c-0.4125,0.23911 -27.862,0.20173 -61,-0.0831l-60.25,-0.51775l0,-50.483l-23.261,-13.233l-16.739,0l0,139l-18,0l0.00018,-79.1044zm132,-11.844c0,-2.1675 -0.45,-4.2191 -1,-4.559c-0.61081,-0.3775 -1,1.1563 -1,3.941c0,2.5075 0.45,4.559 1,4.559s1,-1.7734 1,-3.941z"/>
    <path stroke="null" id="svg_5" fill="#ffffff" d="m91.838189,453.156174l0,-79.097l-6.2861,-6.6528c-3.4574,-3.659 -7.9588,-8.5681 -10.003,-10.909l-3.717,-4.2564l0.25316,-154.24l0.25316,-154.24l6.4709,-0.62455l0.52908,61.625l277,1l0.47162,247l-19.972,21.509l0,157.99l-18,0l0,-139l-17.054,0l-29.946,17.162l-0.0325,6.169c-0.0179,3.3929 -0.13037,14.044 -0.25,23.669l-0.21751,17.5l-13.25,-0.0172c-7.2875,-0.009 -34.625,-0.12198 -60.75,-0.25l-47.5,-0.2328l0,-50.767l-23.261,-13.233l-16.739,0l0,139l-18,0l0.00019,-79.10425zm152,1.0972c0,-0.65233 -16.167,-1 -46.5,-1c-30.333,0 -46.5,0.34767 -46.5,1s16.167,1 46.5,1c30.333,0 46.5,-0.34767 46.5,-1zm-20.118,-13.454c-0.12137,-2.9999 -0.5945,-5.2234 -1.0514,-4.941c-1.2248,0.75697 -1.0202,10.395 0.22067,10.395c0.63365,0 0.96371,-2.1672 0.83072,-5.4544l0.00001,0.0004zm31.118,-7.1622c0,-1.7167 -0.55943,-2.3834 -2,-2.3834c-1.5412,0 -2,0.66667 -2,2.9064c0,2.414 0.33879,2.8178 2,2.3834c1.2943,-0.33846 2,-1.364 2,-2.9064zm8,0.5l0,-3.1166l-2.25,0.60297c-1.2375,0.33164 -2.8125,0.60913 -3.5,0.61664c-2.6444,0.0289 -1.3027,3.8728 1.5,4.2974c1.5125,0.22912 3.0875,0.48401 3.5,0.56642c0.4125,0.0824 0.75,-1.2526 0.75,-2.9668l0,-0.00003zm7,0.11663c0,-2.5333 -0.38889,-3 -2.5,-3c-2.7366,0 -3.4534,2.6466 -1.3,4.8c2.1344,2.1344 3.8,1.3455 3.8,-1.8zm-71.638,-7.5c-0.48895,-1.2742 -4.0973,-1.5 -23.969,-1.5l-23.393,0l0,3l47.937,0l-0.575,-1.5zm72.638,0l0,-1.5l-19.893,0c-16.76,0 -19.984,0.23623 -20.469,1.5l-0.5756,1.5l40.937,0l0.0006,-1.5zm-106,-7.4648c0,-2.9414 -0.51627,-4.2411 -2,-5.0352l-2,-1.0704l0,10.07l2,0c1.6637,0 2,-0.66667 2,-3.9648l0,0.0004zm33,2.4648c0,-1.2515 -2.0294,-1.5006 -12.25,-1.5037l-12.25,-0.004l-3.2742,-1.9963c-4.2445,-2.5876 -4.2258,-2.5942 -4.2258,1.504l0,3.5l16,0c13.556,0 16,-0.22917 16,-1.5zm58.002,-0.25l0.002,-1.75l-12.502,0.30715c-10.084,0.24775 -12.502,0.58619 -12.502,1.75c0,1.1802 2.2756,1.4428 12.5,1.4428l12.5,0l0.002,-1.75l0,0.00005zm4.9982,-1.2852l0,-3.0352l-2,1.0704c-1.1,0.5887 -2,1.9545 -2,3.0352c0,1.2982 0.6786,1.9648 2,1.9648c1.5607,0 2,-0.66667 2,-3.0352zm88,-207.96c0,-0.66171 -45.5,-1 -134.5,-1s-134.5,0.33829 -134.5,1s45.5,1 134.5,1s134.5,-0.33829 134.5,-1zm-66.672,-26.75c-36.945,-0.14529 -97.695,-0.14531 -135,-0.00005c-37.305,0.14527 -7.078,0.26414 67.172,0.26417s104.77,-0.11882 67.828,-0.26412zm72.672,-35.257c0,-0.67236 -46.023,-0.92159 -138.5,-0.75l-138.5,0.25698l0.000036,-52.75l0.000036,-52.75l-4,0l0,107l140.5,0c93.649,0 140.5,-0.33578 140.5,-1.007l-0.000072,0.00002zm0,-22.993l0,-21l-137.5,0c-91,0 -137.5,0.33818 -137.5,1c0,0.66175 45.833,1 135.5,1l135.5,0l0,40l4,0l0,-21z"/>
    <path stroke="null" id="svg_6" fill="#ffffff" d="m92.542189,531.626174c-0.3871,-0.3871 -0.70729,-36.066 -0.71153,-79.287l-0.007717,-78.583l-18.985,-20.322l0,-310.18l6,0l0,62l277,0l0,248.15l-18.5,19.919l-1,158.43l-17,0l-0.5136,-139.5l-15.593,0l-14.947,8.5685c-8.2208,4.7127 -15.308,8.9213 -15.749,9.3525c-0.44136,0.43121 -0.89136,11.313 -1,24.182l-0.19752,23.398l-13.25,-0.0172c-7.2875,-0.009 -34.625,-0.12198 -60.749,-0.25l-47.499,-0.2328l0.05307,-25.613c0.02919,-14.087 -0.08378,-25.711 -0.25104,-25.83c-0.16726,-0.11978 -5.5762,-3.2191 -12.02,-6.8874l-11.716,-6.6696l-16.055,0l-0.2568,69.75l-0.2568,69.75l-8.0462,0.28715c-4.4254,0.15793 -8.3629,-0.0296 -8.75,-0.41667l0.001137,0.00152zm16.253,-70.12l-0.0435,-68.75l-15.867,-17l-0.023056,77.25l-0.023057,77.25l16,0l-0.043387,-68.75zm227.02,-8.5l-0.0231,-77.25l-15.867,17l-0.0435,68.75l-0.04345,68.75l16,0l-0.0231,-77.25l0.00015,0zm-87.089,2.6809c0.78019,0.48219 1.1118,-1.6886 1.1118,-7.2783l0,-7.9654l-2.0661,0.54029c-1.4628,0.38253 -1.7548,0.8516 -1,1.6064c1.3499,1.3499 1.4067,9.6661 0.06609,9.6661c-0.55,0 -0.99311,1.2375 -0.98469,2.75c0.0109,1.9556 0.26748,2.3519 0.8882,1.3719c0.48009,-0.75796 1.3732,-1.0689 1.9847,-0.69098l0,-0.00001zm12.795,-0.6184c-0.31922,-0.79773 -0.55618,-0.56078 -0.60416,0.60417c-0.0434,1.0542 0.19292,1.6448 0.52522,1.3125c0.33229,-0.33229 0.36781,-1.1948 0.0789,-1.9167l0.00004,0.00003zm-16.683,-0.8125c0,-0.65248 -16.333,-1 -47,-1c-30.667,0 -47,0.34752 -47,1s16.333,1 47,1c30.667,0 47,-0.34752 47,-1zm8.3616,-1.5c-0.31659,-0.825 -0.75246,-1.5 -0.96862,-1.5c-0.21615,0 -0.39301,0.675 -0.39301,1.5s0.43588,1.5 0.96862,1.5c0.53273,0 0.70959,-0.675 0.39301,-1.5zm14.638,-0.60699c0,-1.5104 -0.44784,-1.9351 -1.5818,-1.5c-0.86998,0.33385 -1.77,0.60699 -2,0.60699c-0.23001,0 -0.41821,0.675 -0.41821,1.5c0,0.83333 0.88889,1.5 2,1.5c1.3672,0 2,-0.66667 2,-2.107l0.00001,0.00001zm-8,0.10699c0,-0.55 -0.675,-1 -1.5,-1s-1.5,0.45 -1.5,1s0.675,1 1.5,1s1.5,-0.45 1.5,-1zm-40.8,-2.2c-1.6155,-1.6155 -1.5755,-13.255 0.05,-14.554c0.6875,-0.54948 3.8304,-1.3111 6.9842,-1.6924c3.1538,-0.38136 5.9929,-1.1119 6.309,-1.6234c0.35079,-0.56758 -15.426,-0.93001 -40.484,-0.93001l-41.059,0l0,20l34.7,0c26.989,0 34.433,-0.26667 33.5,-1.2l-0.0002,-0.00019zm50.493,-5.531c-0.25354,-0.97297 -0.47766,-0.41903 -0.49804,1.231c-0.0204,1.65 0.18706,2.4461 0.46099,1.769c0.27392,-0.67703 0.29059,-2.027 0.0371,-3l-0.00005,0zm-45.475,-0.01903c0.6205,-2.4069 -0.26402,-9.25 -1.1956,-9.25c-0.96114,0 -2.0423,7.7841 -1.3366,9.6231c0.73203,1.9076 1.9921,1.722 2.5323,-0.37314l-0.0001,0.00004zm30.782,-10.75c0,-2.4048 -0.43411,-3.0714 -2,-3.0714s-2,0.66667 -2,3.0714s0.43411,3.0714 2,3.0714s2,-0.66667 2,-3.0714zm8,0c0,-3.7982 -0.58124,-4.1036 -4.453,-2.3395c-3.1774,1.4477 -3.3566,4.5444 -0.29705,5.1338c4.552,0.87675 4.75,0.76027 4.75,-2.7943l0.00005,0zm7,0c0,-3.551 -0.99898,-4.2051 -4.4182,-2.893c-2.1636,0.83024 -2.0368,5.1274 0.16821,5.7037c3.7888,0.99012 4.25,0.68509 4.25,-2.8107l-0.00001,0zm-26.015,-1.75c0.008,-0.4125 -0.61756,-0.75 -1.3911,-0.75c-0.93306,0 -1.2229,0.70155 -0.86126,2.0845c0.41445,1.5849 0.74789,1.7646 1.3911,0.75c0.46528,-0.73399 0.85285,-1.672 0.86127,-2.0845l-0.00001,0zm-44.985,-5.25l0,-1.5l-48,0l0,3l48,0l0,-1.5zm72,0l0,-1.5l-41,0l0,3l41,0l0,-1.5zm-42,-7.5l0,-7l-29,0l0,14l29,0l0,-7zm-64.193,-0.23688l-0.3075,-4.2369l-8.5,-4.6761l0,13.15l9.115,0l-0.3075,-4.237zm34.193,2.7369c0,-1.2547 -2.085,-1.5006 -12.75,-1.5037l-12.75,-0.004l-3.2742,-1.9963c-4.2445,-2.5876 -4.2258,-2.5942 -4.2258,1.504l0,3.5l16.5,0c14,0 16.5,-0.22727 16.5,-1.5zm57.002,-0.25l0.002,-1.75l-13.002,0.30559c-10.527,0.24743 -13.002,0.58053 -13.002,1.75c0,1.1851 2.3335,1.4444 13,1.4444l13,0l0.002,-1.75l0,0.00001zm9.9982,-2.6904l0,-4.4404l-4.4969,2.1904c-3.345,1.6294 -4.4977,2.7668 -4.5,4.4404l-0.00313,2.25l9,0l0.00003,-4.4404zm61.355,-36.06l7.7793,-8.5l-241.27,0l15.559,17l210.15,0l7.7817,-8.5zm18.063,-19.723l9.582,-10.223l0,-138.55l-281,0l0,138.55l19.164,20.445l242.67,0l9.584,-10.222zm-267.42,-160.78l0,-11l273,0l0,22l4,0l0,-60l-281,0l0,60l4,0l0,-11zm0,-30.5l0,-16.5l273,0l0,33l-273,0l0,-16.5zm271.5,14.5c0.41086,-0.66479 -44.843,-1 -135,-1c-90.157,0 -135.41,0.33521 -135,1c0.40706,0.65864 46.491,1 135,1c88.509,0 134.59,-0.34136 135,-1zm-252.5,-16l0,-13l-17,0l0,26l17,0l0,-13zm20,0l0,-13l-18,0l0,26l18,0l0,-13zm21,0l0,-13l-18,0l0,26l18,0l0,-13zm20,0l0,-13l-18,0l0,26l18,0l0,-13zm20,0l0,-13l-17,0l0,26l17,0l0,-13zm21,0l0,-13l-18,0l0,26l18,0l0,-13zm20,0l0,-13l-17,0l0,26l17,0l0,-13zm21,0l0,-13l-18,0l0,26l18,0l0,-13zm20,0l0,-13l-17,0l0,26l17,0l0,-13zm21,0l0,-13l-18,0l0,26l18,0l0,-13zm20,0l0,-13l-18,0l0,26l18,0l0,-13zm20,0l0,-13l-17,0l0,26l17,0l0,-13zm21,0l0,-13l-18,0l0,26l18,0l0,-13zm7,0l0,-13l-4,0l0,26l4,0l0,-13zm1,42c0,-0.66175 -45.833,-1 -135.5,-1c-89.667,0 -135.5,0.33825 -135.5,1s45.833,1 135.5,1c89.667,0 135.5,-0.33825 135.5,-1zm-253,-11l0,-8l-17,0l0,16l17,0l0,-8zm20,0l0,-8l-18,0l0,16l18,0l0,-8zm21,0l0,-8l-18,0l0,16l18,0l0,-8zm20,0l0,-8l-18,0l0,16l18,0l0,-8zm20,0l0,-8l-17,0l0,16l17,0l0,-8zm21,0l0,-8l-18,0l0,16l18,0l0,-8zm20,0l0,-8l-17,0l0,16l17,0l0,-8zm21,0l0,-8l-18,0l0,16l18,0l0,-8zm20,0l0,-8l-17,0l0,16l17,0l0,-8zm21,0l0,-8l-18,0l0,16l18,0l0,-8zm20,0l0,-8l-18,0l0,16l18,0l0,-8zm20,0l0,-8l-17,0l0,16l17,0l0,-8zm21,0l0,-8l-18,0l0,16l18,0l0,-8zm7,0l0,-8l-4,0l0,16l4,0l0,-8zm6,-51c0,-0.66185 -46.833,-1 -138.5,-1l-138.5,0l0,-105l-4,0l0,107l140.5,0c93,0 140.5,-0.33808 140.5,-1zm-258,-21l0,-19l-17,0l0,38l17,0l0,-19zm20,0l0,-19l-18,0l0,38l18,0l0,-19zm21,0l0,-19l-18,0l0,38l18,0l0,-19zm20,0l0,-19l-18,0l0,38l18,0l0,-19zm20,0l0,-19l-17,0l0,38l17,0l0,-19zm21,0l0,-19l-18,0l0,38l18,0l0,-19zm20,0l0,-19l-17,0l0,38l17,0l0,-19zm21,0l0,-19l-18,0l0,38l18,0l0,-19zm20,0l0,-19l-17,0l0,38l17,0l0,-19zm21,0l0,-19l-18,0l0,38l18,0l0,-19zm20,0l0,-19l-18,0l0,38l18,0l0,-19zm20,0l0,-19l-17,0l0,38l17,0l0,-19zm21,0l0,-19l-18,0l0,38l18,0l0,-19zm7,0l0,-19l-4,0l0,38l4,0l0,-19zm6,-2l0,-21l-138,0c-91.333,0 -138,0.33816 -138,1c0,0.66176 46,1 136,1l136,0l0,40l4,0l0,-21z"/>
    <path stroke="null" id="svg_7" fill="#ffffff" d="m92.542189,531.626174c-0.3871,-0.3871 -0.70729,-36.066 -0.71153,-79.287l-0.007717,-78.583l-18.985,-20.322l0,-310.18l6,0l0,62l277,0l0,248.15l-18.5,19.919l-1,158.43l-17,0l-0.5136,-139.5l-15.593,0l-14.947,8.5685c-8.2208,4.7127 -15.308,8.9213 -15.749,9.3525c-0.44136,0.43121 -0.89136,11.313 -1,24.182l-0.19752,23.398l-13.25,-0.0172c-7.2875,-0.009 -34.625,-0.12198 -60.749,-0.25l-47.499,-0.2328l0.05307,-25.613c0.02919,-14.087 -0.08378,-25.711 -0.25104,-25.83c-0.16726,-0.11978 -5.5762,-3.2191 -12.02,-6.8874l-11.716,-6.6696l-16.055,0l-0.2568,69.75l-0.2568,69.75l-8.0462,0.28715c-4.4254,0.15793 -8.3629,-0.0296 -8.75,-0.41667l0.001137,0.00152zm16.289,-69.62l-0.0072,-69.25l-15.889,-17l-0.0481,77.75l-0.048143,77.75l16,0l-0.0072,-69.25l-0.000357,0zm226.96,-8.5l-0.0481,-77.75l-15.889,17l-0.007,69.25l-0.00748,69.25l16,0l-0.04842,-77.75zm-85.952,-4.9643c0,-8.2644 -0.29205,-9.0205 -2.8568,-7.3954c-0.94581,0.5993 -1.0215,1.0669 -0.25,1.5437c1.3794,0.8525 1.4662,8.2258 0.10676,9.066c-1.9084,1.1795 -1.141,5.0714 1,5.0714l2,0l0.00004,-8.2857zm12.362,7.2143c-0.31659,-0.825 -0.97746,-1.5 -1.4686,-1.5c-0.49115,0 -0.89301,-0.675 -0.89301,-1.5s-0.675,-1.5 -1.5,-1.5c-2.0731,0 -1.8804,0.90916 0.75,3.5393c2.6611,2.6608 3.9122,3.0471 3.1116,0.96073l0.00001,-0.00003zm-17.362,-1.5c0,-0.65248 -16.333,-1 -47,-1c-30.667,0 -47,0.34752 -47,1s16.333,1 47,1c30.667,0 47,-0.34752 47,-1zm8.2898,-2c-0.28766,-1.1 -0.69553,-2 -0.90638,-2s-0.38337,0.9 -0.38337,2s0.40787,2 0.90638,2s0.67103,-0.9 0.38337,-2zm14.71,-0.07332c0,-2.5626 -3.3098,-2.2719 -3.8118,0.3348c-0.2311,1.2 0.30742,1.7385 1.7385,1.7385c1.4311,0 2.0733,-0.64223 2.0733,-2.0733zm-42.75,-0.5836c-0.6875,-0.28036 -1.25,-1.1472 -1.25,-1.9264c0,-0.77917 -0.45,-1.4167 -1,-1.4167s-1,0.675 -1,1.5c0,1.8797 -0.7425,1.9004 -2.5714,0.0714c-1.2843,-1.2843 -2.199,-13.571 -1.0104,-13.571c0.23002,0 1.0175,-0.23027 1.75,-0.51171c1.0163,-0.39051 1.2653,0.61615 1.051,4.25c-0.15443,2.6189 0.18307,5.4367 0.75,6.2617l1.0308,1.5l1.0195,-1.5c0.56072,-0.825 0.96899,-3.3 0.90726,-5.5c-0.17668,-6.2966 -0.0865,-6.5 2.8821,-6.5c1.5449,0 3.6824,-0.66069 4.75,-1.4682c2.9962,-2.2662 8.1687,-1.9655 8.9578,0.52085c0.52031,1.6394 0.93657,1.816 2.0674,0.87755c0.77874,-0.6463 1.4159,-1.795 1.4159,-2.5526c0,-1.1505 -7.7456,-1.3776 -47,-1.3776l-47,0l0,21.93l37.75,-0.0388c20.762,-0.0213 37.188,-0.26816 36.5,-0.54851l0.00004,0.00002zm17.75,-0.3117c0,-0.53273 -0.675,-0.70959 -1.5,-0.39301c-0.825,0.31659 -1.5,0.75246 -1.5,0.96862c0,0.21615 0.675,0.39301 1.5,0.39301s1.5,-0.43588 1.5,-0.96862zm26.693,-6.7624c-0.25354,-0.97297 -0.47766,-0.41903 -0.49804,1.231c-0.0204,1.65 0.18706,2.4461 0.46099,1.769c0.27392,-0.67703 0.29059,-2.027 0.0371,-3l-0.00005,0zm-50,-5c-0.25354,-0.97297 -0.47766,-0.41903 -0.49804,1.231c-0.0204,1.65 0.18706,2.4461 0.46099,1.769c0.27392,-0.67703 0.29059,-2.027 0.0371,-3l-0.00005,0zm19.576,-1.925c-0.67703,-0.27392 -2.027,-0.29059 -3,-0.0371c-0.97297,0.25354 -0.41903,0.47766 1.231,0.49804c1.65,0.0204 2.4461,-0.18706 1.769,-0.46099l0,0.00005zm15.731,-3.8441c0,-2.4048 -0.43411,-3.0714 -2,-3.0714s-2,0.66667 -2,3.0714s0.43411,3.0714 2,3.0714s2,-0.66667 2,-3.0714zm8,0c0,-3.7982 -0.58124,-4.1036 -4.453,-2.3395c-3.1774,1.4477 -3.3566,4.5444 -0.29705,5.1338c4.552,0.87675 4.75,0.76027 4.75,-2.7943l0.00005,0zm7,0c0,-3.551 -0.99898,-4.2051 -4.4182,-2.893c-2.1636,0.83024 -2.0368,5.1274 0.16821,5.7037c3.7888,0.99012 4.25,0.68509 4.25,-2.8107l-0.00001,0zm-71,-7l0,-1.5l-48,0l0,3l48,0l0,-1.5zm72,0l0,-1.5l-41,0l0,3l41,0l0,-1.5zm-42,-7l0,-7.5l-29,0l0,15l29,0l0,-7.5zm-64.193,-0.7137l-0.3075,-4.2137l-5.8566,-3.2863c-3.2212,-1.8075 -6.0337,-3.2863 -6.25,-3.2863s-0.39336,3.375 -0.39336,7.5l0,7.5l13.115,0l-0.30754,-4.2137zm34.193,2.7137c0,-1.2547 -2.085,-1.5006 -12.75,-1.5037l-12.75,-0.004l-3.2742,-1.9963c-4.2445,-2.5876 -4.2258,-2.5942 -4.2258,1.504l0,3.5l16.5,0c14,0 16.5,-0.22727 16.5,-1.5zm57.002,-0.25l0.002,-1.75l-13.002,0.30559c-10.527,0.24743 -13.002,0.58053 -13.002,1.75c0,1.1851 2.3335,1.4444 13,1.4444l13,0l0.002,-1.75l0,0.00001zm13.998,-3.8333c0,-3.0708 -0.34622,-5.4333 -0.76937,-5.25c-7.7255,3.3471 -12.231,6.4936 -12.231,8.5422l0,2.2911l13,0l0.00037,-5.5833zm57.75,-35.167l7.5078,-8.25l-241.66,0l3.9456,4.25c2.1701,2.3375 5.7321,6.1645 7.9156,8.5045l3.97,4.2545l210.82,-0.50907l7.501,-8.24993zm18,-19.433l9.25,-10.158l0,-138.66l-281,0l0,138.66l18.5,20.316l244,0l9.25,-10.158zm-267.75,-160.82l0,-11l273,0l0,22l4,0l0,-61l-281,0l0,61l4,0l0,-11zm0,-30l0,-16l273,0l0,32l-273,0l0,-16zm271.5,14c0.41086,-0.66479 -44.843,-1 -135,-1c-90.157,0 -135.41,0.33521 -135,1c0.40706,0.65864 46.491,1 135,1c88.509,0 134.59,-0.34136 135,-1zm-252.5,-16l0,-13l-18,0l0,26l18,0l0,-13zm20,0l0,-13l-18,0l0,26l18,0l0,-13zm21,0l0,-13l-18,0l0,26l18,0l0,-13zm20,0l0,-13l-18,0l0,26l18,0l0,-13zm21,0l0,-13l-18,0l0,26l18,0l0,-13zm20,0l0,-13l-18,0l0,26l18,0l0,-13zm21,0l0,-13l-19,0l0,26l19,0l0,-13zm20,0l0,-13l-18,0l0,26l18,0l0,-13zm20,0l0,-13l-18,0l0,26l18,0l0,-13zm21,0l0,-13l-18,0l0,26l18,0l0,-13zm20,0l0,-13l-18,0l0,26l18,0l0,-13zm21,0l0,-13l-18,0l0,26l18,0l0,-13zm20,0l0,-13l-18,0l0,26l18,0l0,-13zm8,0l0,-13l-5,0l0,26l5,0l0,-13zm0,42c0,-0.66175 -45.833,-1 -135.5,-1c-89.667,0 -135.5,0.33825 -135.5,1s45.833,1 135.5,1c89.667,0 135.5,-0.33825 135.5,-1zm-253,-10.5l0,-8.5l-18,0l0,7.8333c0,4.3083 0.3,8.1333 0.66667,8.5c0.36667,0.36667 4.4167,0.66667 9,0.66667l8.3333,0l0.00003,-8.49997zm20,0l0,-8.5l-18,0l0,17l18,0l0,-8.5zm21,0l0,-8.5l-18,0l0,17l18,0l0,-8.5zm20,0l0,-8.5l-18,0l0,17l18,0l0,-8.5zm20.79,-0.25l0.29044,-8.25l-18.081,0l0,17.078l17.5,-0.57787l0.29056,-8.25013zm20.21,0.25l0,-8.5l-18,0l0,17l18,0l0,-8.5zm20.79,-0.25l0.29044,-8.25l-19.081,0l0,7.8333c0,4.3083 0.31619,8.1495 0.70264,8.536c0.38646,0.38645 4.549,0.57395 9.25,0.41667l8.5474,-0.28598l0.29052,-8.24999zm20.21,0.25l0,-8.5l-18,0l0,17l18,0l0,-8.5zm20,0l0,-8.5l-18,0l0,7.8333c0,4.3083 0.3,8.1333 0.66667,8.5c0.36666,0.36667 4.4167,0.66667 9,0.66667l8.3333,0l0.00003,-8.49997zm21,0l0,-8.5l-18,0l0,17l18,0l0,-8.5zm20,0l0,-8.5l-18,0l0,17l18,0l0,-8.5zm20.79,-0.25l0.29044,-8.25l-18.081,0l0,17.078l17.5,-0.57787l0.29056,-8.25013zm20.21,0.25l0,-8.5l-18,0l0,17l18,0l0,-8.5zm7.7904,-0.25l0.29044,-8.25l-5.0809,0l0,17.139l4.5,-0.6391l0.29046,-8.2499zm5.2096,-51.25c0,-0.66185 -46.833,-1 -138.5,-1l-138.5,0l0,-105l-4,0l0,107l140.5,0c93,0 140.5,-0.33808 140.5,-1zm-258,-21.539l0,-19.539l-17.5,0.57787l-0.54319,38.5l18.043,0l0.00019,-19.53887zm20,0.038933l0,-19.5l-18,0l0,39l18,0l0,-19.5zm21,0l0,-19.5l-18,0l0,39l18,0l0,-19.5zm20,0l0,-19.5l-18,0l0,39l18,0l0,-19.5zm20.772,0.25l-0.27159,-19.25l-17.5,-0.57787l0,39.078l18.043,0l-0.27141,-19.25013zm20.228,-0.25l0,-19.5l-18,0l0,39l18,0l0,-19.5zm20.772,0.25l-0.27159,-19.25l-18,0l-0.27159,19.25l-0.2716,19.25l19.086,0l-0.27122,-19.25zm20.228,-0.25l0,-19.5l-18,0l0,39l18,0l0,-19.5zm20,-0.03893l0,-19.539l-17.5,0.57787l-0.27159,19.25l-0.2716,19.25l18.043,0l0.00019,-19.53887zm21,0.03893l0,-19.5l-18,0l0,39l18,0l0,-19.5zm20,0l0,-19.5l-18,0l0,39l18,0l0,-19.5zm20.772,0.25l-0.27159,-19.25l-17.5,-0.57787l0,39.078l18.043,0l-0.27141,-19.25013zm20.228,-0.25l0,-19.5l-18,0l0,39l18,0l0,-19.5zm7.7716,0.25l-0.27159,-19.25l-4.5,-0.6391l0,39.139l5.0432,0l-0.27161,-19.2499zm5.2284,-1.75l0,-21l-138,0c-91.333,0 -138,0.33816 -138,1c0,0.66176 46,1 136,1l136,0l0,40l4,0l0,-21z"/>
    <path stroke="null" id="svg_8" fill="#ffffff" d="m92.079189,452.816174l-0.24085,-78.936l-4.5,-5.1289l5.1289,4.5l243.74,0l5.1289,-4.5l-4.5,5.1289l-0.4817,157.87l-1.0183,-157l-242,0l-0.50915,78.5l-0.50915,78.5l-0.23865,-78.934zm17.233,8.4356c0,-38.775 0.1242,-54.638 0.276,-35.25s0.1518,51.112 0,70.5s-0.276,3.525 -0.276,-35.25zm210,0c0,-38.775 0.1242,-54.638 0.276,-35.25s0.1518,51.112 0,70.5s-0.276,3.525 -0.276,-35.25zm-121.75,-3.7498l-47.774,-0.26964l0.54827,-33.481l5,-0.193l-2.25,0.41292c-1.4152,0.25972 -2.25,1.1303 -2.25,2.3465l0,1.9336l24.559,0c18.341,0 24.378,-0.29296 23.844,-1.1571c-0.39332,-0.63642 -0.65858,-2.6614 -0.58946,-4.5l0.12567,-3.3429l-25.825,0l-7.1143,-4.1976l-0.163,4.8488l-0.163,4.8488l-0.587,-5.3776l-0.587,-5.3776l-13,-6.6649l-0.56662,7.7101l-0.56662,7.7101l-0.39887,-17l-8.126,-4.5c-4.4693,-2.475 -9.7496,-5.4985 -11.734,-6.7188l-3.608,-2.2188l87.917,-0.0312c48.354,-0.0172 87.682,0.20367 87.395,0.49074c-0.28707,0.28707 -38.837,0.50725 -85.667,0.4893c-46.83,-0.01797 -85.145,0.14515 -85.145,0.36249c0,0.21733 9.5836,5.8472 21.297,12.511l21.297,12.116l25.286,0l0.31036,-3.75l0.31037,-3.75l30.5,-0.55209l0,8.0521l13.277,0c9.3911,0 13.855,-0.38922 15.25,-1.3298c1.0849,-0.73136 4.56,-2.7894 7.7225,-4.5734l5.75,-3.2436l-0.18908,6.8234l-0.18909,6.8234l-0.36209,-5.7928l-0.3621,-5.7928l-13.898,7.5064l-0.14983,3.0396l-0.14983,3.0396l-0.41943,-2.7794l-0.41942,-2.7794l-25.361,0.55872l-0.1,3.2667c-0.21752,7.1055 -1.4,4.0649 -1.4,-3.6l0,-8.1667l-29,0l0,15.682l21.75,0.6568c11.962,0.36123 27.938,0.6579 35.5,0.65925l13.75,0.00245l0,-1.9336c0,-1.3309 -0.85716,-2.0773 -2.75,-2.3947l-2.75,-0.46117l6,0.28949l0.28665,15c0.15765,8.25 0.0366,16.012 -0.26906,17.25l-0.55569,2.25l-12.731,-0.24007c-7.002,-0.13204 -34.229,-0.36141 -60.505,-0.50971l-0.00033,-0.00088zm52.357,-4.4645c0.0458,-2.0821 0.0833,-5.3607 0.0833,-7.2857c0,-5.3627 -0.0473,-5.499 -1.9167,-5.5153c-1.4678,-0.0129 -1.5128,-0.16535 -0.27896,-0.94563c0.80907,-0.51167 1.246,-1.1553 0.97104,-1.4303c-0.99116,-0.99116 -2.6479,0.95151 -3.3185,3.8912c-0.5317,2.3308 -0.43628,2.6654 0.42775,1.5c0.83535,-1.1267 0.97502,0.3753 0.56124,6.0357l-0.55085,7.5357l1.9691,0c1.5974,0 1.9849,-0.71466 2.0525,-3.7857l0.00008,0.00003zm8.6458,3.6101c-0.3323,-0.33229 -1.1948,-0.36781 -1.9167,-0.0789c-0.79773,0.31922 -0.56078,0.55618 0.60417,0.60416c1.0542,0.0434 1.6448,-0.19293 1.3125,-0.52522l0.00003,-0.00004zm4.2708,-1.4792c0,-2.437 -2.3368,-2.0926 -2.8233,0.4162c-0.19138,0.98676 0.31876,1.6671 1.25,1.6671c0.92763,0 1.5733,-0.855 1.5733,-2.0833zm-18,-0.91667c0,-0.65248 -16.333,-1 -47,-1c-30.667,0 -47,0.34752 -47,1s16.333,1 47,1c30.667,0 47,-0.34752 47,-1zm9,-0.41821c0,-0.23002 -0.27314,-1.13 -0.60699,-2c-0.85742,-2.2344 -2.393,-1.966 -2.393,0.41821c0,1.1111 0.66667,2 1.5,2c0.825,0 1.5,-0.1882 1.5,-0.41821l-0.00001,0zm6.7505,-1.3318c0.25892,-0.77765 -0.5285,-1.25 -2.0838,-1.25c-1.375,0 -2.727,-0.5625 -3.0044,-1.25c-0.33517,-0.83064 -0.53087,-0.72999 -0.58333,0.3c-0.17045,3.3465 4.6652,5.2223 5.6715,2.2l0.00003,0zm8.0592,0c-0.18536,-0.9625 -1.2247,-1.75 -2.3096,-1.75s-2.1243,0.7875 -2.3096,1.75c-0.25243,1.3108 0.32729,1.75 2.3096,1.75s2.5621,-0.43925 2.3096,-1.75zm-25.177,-0.95075c-0.38541,-0.38541 -4.7354,-0.57302 -9.6667,-0.41691l-8.9659,0.28383l0,-1.5831c0,-0.93155 -0.84742,-1.5831 -2.059,-1.5831c-1.1325,0 -1.7809,0.45 -1.441,1s0.14148,1 -0.44098,1s-1.059,-0.70156 -1.059,-1.559s-0.45,-1.2809 -1,-0.94098c-1.6652,1.0292 -1.2318,-10.063 0.44774,-11.457l1.4477,-1.2015l0.30227,5.8194c0.24417,4.701 0.65328,5.8862 2.1288,6.1671l1.8266,0.34779l-0.16183,-5.3381c-0.24135,-7.9608 -0.29437,-7.8381 3.3862,-7.8381c1.8576,0 3.9378,-0.675 4.6224,-1.5c1.8923,-2.2801 7.0711,-1.9442 7.7102,0.5c0.65479,2.5039 1.7961,2.5429 3.4935,0.11945c0.72445,-1.0343 2.2125,-2.1071 3.3067,-2.384c1.0942,-0.2769 -20.173,-0.55565 -47.26,-0.61945l-49.25,-0.116l0,22l46.667,0c25.667,0 46.351,-0.31534 45.966,-0.70075l-0.0007,0.00042zm26.075,-7.5376c-0.23919,-1.2439 -0.44398,-0.46166 -0.45508,1.7383s0.18461,3.2178 0.4349,2.2617s0.25937,-2.7561 0.0202,-4l-0.00002,0zm-49.99,-4.4979c-0.22985,-1.5201 -0.42406,-0.51375 -0.43157,2.2362c-0.007,2.75 0.18056,3.9937 0.41792,2.7638s0.24351,-3.4799 0.0136,-5l0.00005,0zm35.532,2.074c-0.6875,-0.27741 -1.8125,-0.27741 -2.5,0s-0.125,0.50439 1.25,0.50439s1.9375,-0.22698 1.25,-0.50439zm4.2765,-2.1446c-0.30789,-0.30789 -1.1148,-0.00064 -1.7931,0.68278c-0.98026,0.98762 -0.8654,1.1025 0.5598,0.5598c0.98622,-0.37553 1.5412,-0.93469 1.2333,-1.2426l0,0.00002zm6.4735,0.80687c0,-0.55 -0.47656,-1 -1.059,-1s-0.7809,0.45 -0.44098,1s0.81648,1 1.059,1s0.44098,-0.45 0.44098,-1zm-26.731,-0.65594c-0.67703,-0.27392 -2.027,-0.29059 -3,-0.0371c-0.97297,0.25354 -0.41903,0.47766 1.231,0.49804c1.65,0.0204 2.4461,-0.18706 1.769,-0.46099l0,0.00005zm14.46,0.0518c-0.3323,-0.33229 -1.1948,-0.36781 -1.9167,-0.0789c-0.79773,0.31922 -0.56078,0.55618 0.60417,0.60416c1.0542,0.0434 1.6448,-0.19293 1.3125,-0.52522l0.00003,-0.00004zm9.2708,-0.39586c0,-0.55 -0.45,-1 -1,-1s-1,0.45 -1,1s0.45,1 1,1s1,-0.45 1,-1zm6.4929,0.0115c0.35034,-0.56686 -0.0511,-0.7345 -0.94098,-0.39301c-1.7324,0.66479 -2.0494,1.3816 -0.61096,1.3816c0.51754,0 1.2159,-0.44485 1.5519,-0.98855l0.00004,-0.00004zm-29.493,-2.0115c0,-0.55 -1.125,-1 -2.5,-1s-2.5,0.45 -2.5,1s1.125,1 2.5,1s2.5,-0.45 2.5,-1zm14.999,-3.5319c0.00059,-2.5124 -0.42765,-3.0674 -2.4993,-3.2388l-2.5,-0.20691l0,6.766l2.4993,-0.14422c2.0843,-0.12026 2.4994,-0.64766 2.5,-3.1761l0,0.00003zm8.0007,0.0403l0,-3.4916l-3.25,0.35071c-5.7302,0.61835 -4.8297,6.5775 1,6.6171c1.9066,0.013 2.25,-0.5175 2.25,-3.4763l0,0.00009zm7,-0.0487l0,-3.4597l-6,0l0.004,6.5l5.996,0.41949l0,-3.4598l0,0.00001zm3,-24.889c0,-0.275 0.9,-0.98167 2,-1.5704s2,-0.84537 2,-0.57037s-0.9,0.98167 -2,1.5704s-2,0.84537 -2,0.57037zm7,-4c0,-0.275 0.9,-0.98167 2,-1.5704s2,-0.84537 2,-0.57037s-0.9,0.98167 -2,1.5704s-2,0.84537 -2,0.57037zm7,-4c0,-0.275 0.9,-0.98167 2,-1.5704s2,-0.84537 2,-0.57037s-0.9,0.98167 -2,1.5704s-2,0.84537 -2,0.57037zm5,-3.019c0,-0.275 1.35,-1.1981 3,-2.0514s3,-1.3264 3,-1.0514s-1.35,1.1981 -3,2.0514s-3,1.3264 -3,1.0514zm-190.54,-13.801l-4.9624,-5.25l5.25,4.9624c4.8784,4.6112 5.7086,5.5376 4.9624,5.5376c-0.15818,0 -2.5207,-2.3625 -5.25,-5.25zm225.04,0.25c2.7086,-2.75 5.1498,-5 5.4248,-5s-1.7162,2.25 -4.4248,5s-5.1498,5 -5.4248,5s1.7162,-2.25 4.4248,-5zm-247.55,-24.75l-3.4462,-3.75l3.75,3.4462c2.0625,1.8954 3.75,3.5829 3.75,3.75c0,0.76362 -0.84622,0.0442 -4.0538,-3.4462zm270.05,0.25c1.8658,-1.925 3.6173,-3.5 3.8923,-3.5s-1.0266,1.575 -2.8923,3.5s-3.6173,3.5 -3.8923,3.5s1.0266,-1.575 2.8923,-3.5zm-273.75,-146.22l2.75,-0.41659l0,-10.434c0,-5.7385 0.3375,-10.435 0.75,-10.436c0.4125,-0.001 0.60556,4.0487 0.42903,9l-0.32097,9.0023l18.142,0l0,-9c0,-5.3333 0.40741,-9 1,-9s1,3.6667 1,9l0,9l19.142,0l-0.32097,-9.0023c-0.19785,-5.5492 0.06261,-9.002 0.67903,-9.0015c0.59043,0.00046 1,3.5851 1,8.7523l0,8.7515l18.5,0.57505l0,-9.0375c0,-5.3584 0.4071,-9.0375 1,-9.0375c0.59259,0 1,3.6667 1,9l0,9l18,0l0,-9c0,-6.5325 0.3427,-9.0004 1.25,-9.0015c0.90489,-0.001 1.25,2.4146 1.25,8.75l0,8.7515l18.5,0.57505l0,-9.0375c0,-5.3584 0.4071,-9.0375 1,-9.0375c0.59259,0 1,3.6667 1,9l0,9l18,0l0,-9c0,-6.5321 0.34276,-9.0006 1.25,-9.0023c0.93132,-0.002 1.1682,2.2928 0.92903,9l-0.32097,9.0023l19.142,0l0,-9c0,-5.3333 0.40741,-9 1,-9s1,3.6667 1,9l0,9l18,0l0,-9c0,-6.5321 0.34276,-9.0006 1.25,-9.0023c0.93132,-0.002 1.1682,2.2928 0.92903,9l-0.32097,9.0023l19.284,0l-0.32097,-9.0023c-0.23914,-6.7072 -0.002,-9.0017 0.92903,-9c0.90724,0.002 1.25,2.4702 1.25,9.0023l0,9l18,0l0,-9c0,-5.3333 0.40741,-9 1,-9s1,3.6667 1,9l0,9l19.142,0l-0.32097,-9.0023c-0.19785,-5.5492 0.0626,-9.002 0.67903,-9.0015c0.59043,0.00046 1,3.5851 1,8.7523l0,8.7515l18.5,0.57505l0,-9.0375c0,-5.3584 0.4071,-9.0375 1,-9.0375c0.59259,0 1,3.6667 1,9l0,9l18,0l0,-9c0,-6.5325 0.34271,-9.0004 1.25,-9.0015c0.90489,-0.001 1.25,2.4146 1.25,8.75l0,8.7515l5.6407,0.64642l-0.32034,-9.4809c-0.17619,-5.2145 0.0172,-9.2709 0.42966,-9.0142c0.4125,0.25668 0.75,5.1352 0.75,10.841l0,10.375l2.75,0.41659c1.5125,0.22912 -61.15,0.41659 -139.25,0.41659s-140.76,-0.18747 -139.25,-0.41659l-0.00038,0.00023zm274.75,-1.2838c0,-0.66175 -45.833,-1 -135.5,-1c-89.667,0 -135.5,0.33825 -135.5,1s45.833,1 135.5,1c89.667,0 135.5,-0.33825 135.5,-1zm-271.33,-24.663c-0.36863,-0.36863 -0.67024,-7.5702 -0.67024,-16.004l0,-15.333l273.05,0l-0.2754,15.75l-0.27539,15.75l-135.58,0.25357c-74.569,0.13946 -135.88,-0.04804 -136.25,-0.41667l0.00103,0.0001zm271.27,-15.337l0.11883,-15l-6.172,0l0.30411,13.502c0.23195,10.298 0.007,13.501 -0.94588,13.5c-0.93819,-0.00126 -1.25,-3.3692 -1.25,-13.502l0,-13.5l-18,0l0,13.5c0,10.132 -0.31181,13.5 -1.25,13.502c-0.95336,0.001 -1.1778,-3.2025 -0.94588,-13.5l0.30411,-13.502l-19.216,0l0.30411,13.502c0.1923,8.5372 -0.0636,13.502 -0.69588,13.502c-0.63231,0 -0.88818,-4.9645 -0.69588,-13.502l0.30411,-13.502l-19.108,0l0,13.5c0,8.3333 -0.38272,13.5 -1,13.5s-1,-5.1667 -1,-13.5l0,-13.5l-18,0l0,13.5c0,10.132 -0.31181,13.5 -1.25,13.502c-0.95336,0.001 -1.1778,-3.2025 -0.94588,-13.5l0.30411,-13.502l-19.108,0l0,13.5c0,8.3333 -0.38272,13.5 -1,13.5s-1,-5.1667 -1,-13.5l0,-13.5l-18,0l0,13.5c0,10.132 -0.31181,13.5 -1.25,13.502c-0.95336,0.001 -1.1778,-3.2025 -0.94588,-13.5l0.30411,-13.502l-19.108,0l0,13.5c0,8.3333 -0.38272,13.5 -1,13.5s-1,-5.1667 -1,-13.5l0,-13.5l-18,0l0,13.5c0,10.132 -0.31181,13.5 -1.25,13.502c-0.95336,0.001 -1.1778,-3.2025 -0.94588,-13.5l0.30411,-13.502l-19.216,0l0.30412,13.502c0.23194,10.298 0.0075,13.501 -0.94588,13.5c-0.93819,-0.00126 -1.25,-3.3692 -1.25,-13.502l0,-13.5l-18,0l0,13.5c0,8.3333 -0.38272,13.5 -1,13.5s-1,-5.1667 -1,-13.5l0,-13.5l-19.108,0l0.30412,13.502c0.1923,8.5372 -0.06358,13.502 -0.69588,13.502c-0.63231,0 -0.88818,-4.9645 -0.69588,-13.502l0.30412,-13.502l-19.108,0l0,13.5c0,8.3333 -0.38272,13.5 -1,13.5s-1,-5.1667 -1,-13.5l0,-13.5l-18.073,0l0.12706,15l0.12707,15l270.64,0l0.12171,-15zm-135.94,-20l-141.5,-0.51035l141.75,-0.24482c93.997,-0.16235 141.75,0.09205 141.75,0.75517c0,0.55 -0.1125,0.88983 -0.25,0.75517c-0.1375,-0.13465 -63.925,-0.47448 -141.75,-0.75517zm-136,-55.434l0,-52.434l-5.5,-0.92233l6,0.28949l0.52889,61.493l277.47,0.51409l-138.75,0.24646c-91.336,0.16224 -138.75,0.58696 -138.75,1.2429c0,0.65575 46.412,1.0831 135.75,1.25l135.75,0.25358l0.27092,19.686l0.27093,19.686l2.7291,0.41457c1.501,0.22802 -59.933,0.482 -136.52,0.56441l-139.25,0.14983l0.00016,-52.434zm19,31.934l0,-19.5l-18,0l0,39l18,0l0,-19.5zm20.772,0.25l-0.27159,-19.25l-18.5,-0.57505l0,39.075l19.043,0l-0.27141,-19.24995zm20.228,-0.25l0,-19.5l-19,0l0,39l19,0l0,-19.5zm20,0l0,-19.5l-18,0l0,39l18,0l0,-19.5zm21,0l0,-19.5l-19,0l0,39l19,0l0,-19.5zm20,0l0,-19.5l-18,0l0,39l18,0l0,-19.5zm21,0l0,-19.5l-19,0l0,39l19,0l0,-19.5zm20,0l0,-19.5l-18,0l0,39l18,0l0,-19.5zm20.772,0.25l-0.27159,-19.25l-18.5,-0.57505l0,39.075l19.043,0l-0.27141,-19.24995zm20.228,-0.25l0,-19.5l-18,0l0,39l18,0l0,-19.5zm20.772,0.25l-0.27159,-19.25l-18.5,-0.57505l0,39.075l19.043,0l-0.27141,-19.24995zm20.228,-0.25l0,-19.5l-19,0l0,39l19,0l0,-19.5zm20,0l0,-19.5l-18,0l0,39l18,0l0,-19.5zm8,0l0,-19.5l-6,0l0,39l6,0l0,-19.5z"/>
    <path stroke="null" id="svg_9" fill="#ffffff" d="m92.082189,452.816174l-0.24386,-78.936l-4.5,-5.1289l5.1289,4.5l243.74,0l5.1289,-4.5l-4.4878,5.1159l-0.26225,78.942l-0.26225,78.942l-0.24386,-78.75l-0.24385,-78.75l-242.99,0l-0.52441,157.5l-0.23952,-78.935zm17.23,8.9356c0.000097,-38.5 0.12442,-54.105 0.27626,-34.677s0.15177,50.928 -0.000177,70c-0.15194,19.072 -0.27618,3.1767 -0.27608,-35.323l-0.000003,0zm210,0c0.0001,-38.5 0.12442,-54.105 0.27626,-34.677c0.15185,19.428 0.15177,50.928 -0.00017,70c-0.15195,19.072 -0.27618,3.1767 -0.27609,-35.323zm-121.72,-4.2498l-47.75,-0.26962l0.13618,-16.74c0.0749,-9.2072 0.3312,-15.728 0.56955,-14.49l0.43337,2.25l119.72,0l0.43337,-2.25c0.23835,-1.2375 0.45597,5.175 0.4836,14.25c0.0364,11.966 -0.21549,15.676 -0.91677,13.5c-0.53184,-1.65 -0.73936,-5.7668 -0.46115,-9.1485l0.50585,-6.1485l-3.9529,0.53019c-3.1377,0.42085 -3.9529,0.20924 -3.9529,-1.0261c0,-1.1855 0.80897,-1.4559 3.3953,-1.1351l3.3953,0.42112l0.76226,-7.993l-119.55,0l0,27l47.25,0.14806c53.413,0.16737 50.316,0.10088 51.326,1.1019c0.41636,0.4125 -0.33048,0.64197 -1.6596,0.50993c-1.3292,-0.13204 -23.904,-0.3614 -50.167,-0.5097l-0.00046,-0.00068zm53.25,-1.1367c0,-1.2967 0.85982,-2.0086 2.75,-2.277c3.9275,-0.55771 6.25,0.0877 6.25,1.7368c0,0.78468 0.675,1.4267 1.5,1.4267s1.5,-0.675 1.5,-1.5c0,-1.0418 0.99269,-1.4759 3.25,-1.421c1.7875,0.0434 2.6875,0.30592 2,0.58333s-1.25,0.94344 -1.25,1.4801s0.45,0.69757 1,0.35765s1,-0.14148 1,0.44098c0,0.66691 -3.3323,1.059 -9,1.059l-9,0l0,-1.88656zm7.4283,0.1365c-0.49777,-0.4125 -1.2409,-1.2 -1.6514,-1.75c-0.42591,-0.57068 -0.7529,-0.24868 -0.76164,0.75c-0.009,0.97279 0.72489,1.75 1.6514,1.75c0.91666,0 1.2594,-0.3375 0.76163,-0.75l0.00001,0zm-4.7824,-5c-0.42935,-1.2375 -1.2003,-2.25 -1.7132,-2.25c-0.51293,0 -0.93261,-2.025 -0.93261,-4.5l0,-4.5l2.0657,0c1.1362,0 2.9905,0.4949 4.1207,1.0998c1.5084,0.80729 1.8712,0.80241 1.3639,-0.0183c-0.48348,-0.78228 0.97125,-1.0486 4.8433,-0.88653c3.063,0.12817 4.9922,0.57608 4.3204,1.003c-0.66769,0.42429 -0.76399,0.77899 -0.21399,0.78822c0.55,0.009 1.1302,1.9088 1.2893,4.2213c0.15912,2.3125 -0.0104,3.9048 -0.37678,3.5384c-0.36636,-0.36635 -1.9914,0.0192 -3.6112,0.85685c-1.8635,0.96367 -3.3777,1.1857 -4.1232,0.60455c-2.7246,-2.1238 -5.5578,-2.0515 -5.9095,0.15084l-0.34214,2.1419l-0.78063,-2.25l-0.00005,-0.00003zm2.3541,-9.25c0,-0.55 -0.9,-1 -2,-1s-2,0.45 -2,1s0.9,1 2,1s2,-0.45 2,-1zm-12.34,9.3264c-0.37045,-0.37045 -4.608,-0.70795 -9.4167,-0.75l-8.7431,-0.07645l0,-15.966l4,-0.83383c2.2,-0.45861 5.6875,-1.076 7.75,-1.372l3.75,-0.53817l0,2.105c0,2.4856 1.5295,2.7682 2.7902,0.51544c0.48928,-0.87428 1.1866,-1.5493 1.5497,-1.5c2.0082,0.27259 2.7111,-0.0189 2.1672,-0.89895c-0.35034,-0.56686 0.0511,-0.7345 0.94098,-0.39301c2.248,0.86263 1.9046,3.3164 -0.75718,5.4101c-1.8119,1.4252 -2.3282,2.856 -2.3979,6.6439l-0.0888,4.8276l0.76628,-3.5l0.76627,-3.5l0.13164,5.25c0.12529,4.9969 -1.0755,6.7096 -3.2086,4.5764l0.00001,-0.00003zm0.0233,-4.514c-0.31922,-0.79773 -0.55618,-0.56078 -0.60416,0.60417c-0.0434,1.0542 0.19292,1.6448 0.52522,1.3125c0.33229,-0.33229 0.36781,-1.1948 0.0789,-1.9167l0.00004,0.00003zm-3.6831,-8.3789l0,-2.5664l-2.75,0.31642c-4.3149,0.49648 -3.4264,4.7624 1,4.8011c1.2161,0.0106 1.75,-0.76773 1.75,-2.5511l0,-0.00002zm6.3616,-1.9336c0.31658,-0.825 0.13972,-1.5 -0.39301,-1.5c-0.53274,0 -0.96862,0.675 -0.96862,1.5s0.17686,1.5 0.39301,1.5c0.21616,0 0.65203,-0.675 0.96862,-1.5zm-26.362,11.941c0,-0.85746 -0.45,-1.2809 -1,-0.94098c-0.63003,0.38938 -0.93331,-1.5311 -0.81975,-5.191l0.18025,-5.809l1.041,10l1.2622,-12l0.16811,7.75c0.0925,4.2625 -0.0569,7.75 -0.33189,7.75c-0.275,0 -0.5,-0.70156 -0.5,-1.559l0.00008,-0.00002zm30.5,-10.441c-0.59438,-0.96173 0.68954,-1.4003 3.1879,-1.0889c0.67605,0.0843 1.3576,-1.4805 1.5819,-3.6315l0.39402,-3.7796l0.16811,4.75l0.1681,4.75l-2.441,0c-1.3425,0 -2.7191,-0.45 -3.059,-1l-0.00003,0zm6.5,0.60699c0,-0.21616 0.675,-0.65203 1.5,-0.96862c0.825,-0.31658 1.5,-0.13972 1.5,0.39301c0,0.53274 -0.675,0.96862 -1.5,0.96862s-1.5,-0.17686 -1.5,-0.39301zm-92.016,-19.81c-0.26622,-3.1367 -0.11931,-5.337 0.32646,-4.8895s0.66358,3.0138 0.48403,5.703l-0.32646,4.8895l-0.48403,-5.703zm90.808,2.2414c-0.23997,-1.635 0.0612,-3.1519 0.67245,-3.3865c0.71909,-0.27594 0.96856,0.76206 0.71177,2.9616c-0.48601,4.163 -0.8205,4.2657 -1.3842,0.42484l-0.00002,0.00006zm-105.79,-7.5384c0,-4.8583 0.29433,-8.539 0.65406,-8.1793c0.69895,0.69895 0.49195,15.867 -0.22634,16.585c-0.23525,0.23525 -0.42773,-3.5473 -0.42773,-8.4056l0.00001,-0.0001zm118,-2.0584c0,-0.20415 0.9,-0.85286 2,-1.4416c1.1049,-0.59134 2,-0.65928 2,-0.15182c0,0.50521 -0.9,1.1539 -2,1.4416s-2,0.35597 -2,0.15181l0,0.00001zm-139.44,-17.973c-1.0676,-0.80751 -1.4602,-1.4682 -0.87244,-1.4682c0.58778,0 1.6289,0.675 2.3136,1.5c1.5572,1.8763 1.0673,1.8655 -1.4411,-0.0318l-0.00006,0zm171.17,-0.59229c0.67834,-0.68342 1.4852,-0.99067 1.7931,-0.68278s-0.24711,0.86705 -1.2333,1.2426c-1.4252,0.54268 -1.5401,0.42782 -0.5598,-0.5598l0,-0.00002zm-198.33,-9.1259l-1.905,-2.25l2.25,1.905c2.1144,1.7902 2.7052,2.595 1.905,2.595c-0.18976,0 -1.2023,-1.0125 -2.25,-2.25zm225.1,0.25c0.99549,-1.1 2.035,-2 2.31,-2s-0.31449,0.9 -1.31,2s-2.035,2 -2.31,2s0.31449,-0.9 1.31,-2zm-249.1,-26.25l-1.905,-2.25l2.25,1.905c2.1144,1.7902 2.7052,2.595 1.905,2.595c-0.18976,0 -1.2023,-1.0125 -2.25,-2.25zm273.1,0.25c0.99549,-1.1 2.035,-2 2.31,-2s-0.31449,0.9 -1.31,2s-2.035,2 -2.31,2s0.31449,-0.9 1.31,-2zm-207.33,-144.75c38.869,-0.14492 102.77,-0.14495 142,-0.00005c39.231,0.1449 7.4282,0.26348 -70.672,0.2635c-78.1,0.00003 -110.2,-0.11852 -71.328,-0.26345zm-46.012,-12c0.16467,-10.032 0.57905,-8.8631 1.064,3.0021c0.15178,3.7136 -0.06153,6.7512 -0.47403,6.75c-0.4125,-0.001 -0.67798,-4.3896 -0.58996,-9.7521l-0.00001,0zm20.616,3.0021c0.48495,-11.865 0.89932,-13.034 1.064,-3.0021c0.08802,5.3625 -0.17746,9.7509 -0.58996,9.7521c-0.4125,0.001 -0.62582,-3.0364 -0.47403,-6.75l-0.00001,0zm20.724,-2.7521c0,-5.225 0.3375,-9.5 0.75,-9.5s0.75,4.275 0.75,9.5s-0.3375,9.5 -0.75,9.5s-0.75,-4.275 -0.75,-9.5zm41,0c0,-5.225 0.3375,-9.5 0.75,-9.5s0.75,4.275 0.75,9.5s-0.3375,9.5 -0.75,9.5s-0.75,-4.275 -0.75,-9.5zm20.276,2.7521c0.48494,-11.865 0.89932,-13.034 1.064,-3.0021c0.088,5.3625 -0.17746,9.7509 -0.58996,9.7521c-0.4125,0.001 -0.62581,-3.0364 -0.47403,-6.75l-0.00001,0zm20.224,-2.7521c0,-5.225 0.3375,-9.5 0.75,-9.5s0.75,4.275 0.75,9.5s-0.3375,9.5 -0.75,9.5s-0.75,-4.275 -0.75,-9.5zm20.16,-0.25c0.16467,-10.032 0.57905,-8.8631 1.064,3.0021c0.15178,3.7136 -0.0615,6.7512 -0.47403,6.75c-0.4125,-0.001 -0.67798,-4.3896 -0.58996,-9.7521l-0.00001,0zm20.453,8.567c0.28881,-0.4673 0.94401,-0.59075 1.456,-0.27431c1.3084,0.80862 1.1611,1.124 -0.52511,1.124c-0.80081,0 -1.2197,-0.38234 -0.9309,-0.84965l0.00001,-0.00004zm20.387,-8.317c0,-5.6667 0.40351,-9.5 1,-9.5s1,3.8333 1,9.5s-0.40351,9.5 -1,9.5s-1,-3.8333 -1,-9.5zm20.776,2.7521c0.48494,-11.865 0.89932,-13.034 1.064,-3.0021c0.088,5.3625 -0.17746,9.7509 -0.58996,9.7521c-0.4125,0.001 -0.62581,-3.0364 -0.47403,-6.75l-0.00001,0zm20.724,-2.7521c0,-5.225 0.3375,-9.5 0.75,-9.5s0.75,4.275 0.75,9.5s-0.3375,9.5 -0.75,9.5s-0.75,-4.275 -0.75,-9.5zm-225.5,-31.5c0,-7.7 0.3375,-14 0.75,-14s0.75,6.3 0.75,14s-0.3375,14 -0.75,14s-0.75,-6.3 -0.75,-14zm20.803,-0.002c-0.16649,-7.7009 0.03479,-14.001 0.44729,-14c0.4125,0.001 0.75,6.302 0.75,14.002s-0.20128,14 -0.44729,14s-0.58351,-6.3007 -0.75,-14.002zm21,0c-0.16649,-7.7009 0.03479,-14.001 0.44729,-14c0.4125,0.001 0.75,6.302 0.75,14.002s-0.20128,14 -0.44729,14s-0.58351,-6.3007 -0.75,-14.002zm41,0c-0.16649,-7.7009 0.0348,-14.001 0.44729,-14c0.4125,0.00089 0.75,6.3016 0.75,14.002s-0.20128,14 -0.44729,14s-0.58351,-6.3007 -0.75,-14.002zm19.697,0.002c0,-7.7 0.3375,-14 0.75,-14s0.75,6.3 0.75,14s-0.3375,14 -0.75,14s-0.75,-6.3 -0.75,-14zm20.68,0.25c-0.0991,-7.8375 0.15725,-14.251 0.56975,-14.252c0.4125,-0.001 0.63076,4.3863 0.48501,9.75c-0.47205,17.373 -0.87045,19.073 -1.0548,4.5022l0.00004,-0.0002zm19.82,-0.25c0,-7.7 0.3375,-14 0.75,-14s0.75,6.3 0.75,14s-0.3375,14 -0.75,14s-0.75,-6.3 -0.75,-14zm41,0c0,-8.6667 0.38095,-14 1,-14s1,5.3333 1,14s-0.38095,14 -1,14s-1,-5.3333 -1,-14zm20.803,-0.002c-0.16649,-7.7009 0.0348,-14.001 0.44729,-14c0.4125,0.00089 0.75,6.3016 0.75,14.002s-0.20128,14 -0.44729,14s-0.58351,-6.3007 -0.75,-14.002zm21,0c-0.16649,-7.7009 0.0348,-14.001 0.44729,-14c0.4125,0.00089 0.75,6.3016 0.75,14.002s-0.20128,14 -0.44729,14s-0.58351,-6.3007 -0.75,-14.002zm-235.07,-21.743l9.229,-0.32971l0.2934,-19.713l0.29341,-19.713l0.45522,39.5l19.958,0l0.58706,-39.5l0.45522,39.5l19.958,0l0.58706,-39.5l0.45522,39.5l39.958,0l0.58706,-39.5l0.45522,39.5l18.958,0l0.58706,-39.5l0.45522,39.5l18.958,0l0.58706,-39.5l0.45522,39.5l18.958,0l0.58706,-39.5l0.45522,39.5l40,0l0,-19.5c0,-12.333 0.36752,-19.5 1,-19.5s1,7.1667 1,19.5l0,19.5l18.958,0l0.58706,-39.5l0.45522,39.5l19.958,0l0.58706,-39.5l0.22761,19.725l0.22761,19.725l16.25,0.30133c8.9375,0.16574 -46.3,0.30849 -122.75,0.31723c-76.45,0.009 -134.85,-0.13247 -129.77,-0.31381l-0.00327,0.00096zm-13.46,-104.95c0.97297,-0.25354 2.323,-0.23687 3,0.037054s-0.11903,0.48137 -1.769,0.46099s-2.2039,-0.2445 -1.231,-0.49804l0,-0.000004z"/>
   </g>
  </g>
  <text xml:space="preserve" text-anchor="start" font-family="'Tahoma', Gadget, sans-serif" font-size="105" id="svg_10" y="291.871031" x="800" stroke-width="0" stroke="#ffffff" fill="#ffffff">FRÃO</text>
 </g>
</svg>