<svg width="40" height="40" xmlns="http://www.w3.org/2000/svg">
 <g>
  <path id="svg_27" fill="#ffffff" d="m20.000011,5.000652c-8.192641,0 -14.824211,6.710005 -14.824211,14.999545c0,8.283411 6.631569,14.996469 14.824211,14.999529c8.186607,-0.003059 14.821198,-6.716118 14.82423,-14.999529c-0.003033,-8.289539 -6.637623,-14.999545 -14.82423,-14.999545zm0,26.469594c-6.25944,-0.012238 -11.326901,-5.139641 -11.339,-11.470049c0.01512,-6.333481 5.079559,-11.46088 11.342029,-11.47312c6.256432,0.012239 11.323891,5.139639 11.335999,11.47312c-0.015129,6.330408 -5.082588,11.4578 -11.339027,11.470049z"/>
   <g transform="matrix(0.038989, 0, 0, 0.0359205, 40.9901, 37.782)" id="svg_63">
    <path id="svg_64" fill="#ffffff" d="m-373.904877,-671.585205l-328.864044,0c-6.682007,0 -12.10498,5.423035 -12.10498,12.105042l0,328.863037c0,6.679993 5.422974,12.10498 12.10498,12.10498l328.864075,0c6.678986,0 12.103973,-5.426025 12.103973,-12.10498l0,-328.863037c0,-6.682007 -5.425995,-12.105042 -12.104004,-12.105042zm-273.380035,18.164001l217.89505,0l0,101.884033l-217.89505,0l0,-101.884033zm228.493042,309.186035l-239.079041,0l0,-150.812988l239.079041,0l0,150.812988zm-72.128998,-294.054993l30.268982,0l0,72.638l-30.268982,0l0,-72.638zm50.182007,180.567993l-195.197052,0l0,-12.10498l195.197052,0l0,12.10498zm0,42.367981l-195.197052,0l0,-12.10498l195.197052,0l0,12.10498zm0,40.856018l-195.197052,0l0,-12.10498l195.197052,0l0,12.10498z"/>
   </g>
 </g>
</svg>