<svg width="1500" height="500" xmlns="http://www.w3.org/2000/svg">
 <metadata>Svg Vector Icons : http://www.onlinewebfonts.com/icon</metadata>

 <g>
  <title>background</title>
  <rect fill="none" id="canvas_background" height="502" width="1502" y="-1" x="-1"/>
 </g>
 <g>
  <title>Layer 1</title>
  <g stroke="null" id="svg_1">
   <path fill="#ffffff" stroke="#ffffff" id="svg_2" d="m167.615401,402.090799l204.509493,0l0,-60.922493l-204.509493,0l0,60.922493zm0,-152.090807l204.509493,0l0,-91.168314l-36.411531,0c-6.010423,0 -11.167754,-2.283516 -15.549546,-6.807464c-4.381792,-4.567033 -6.5533,-9.952685 -6.5533,-16.200041l0,-37.914989l-145.995116,0l0,152.090807zm262.985093,15.338336c0,-4.265436 -1.357192,-7.798424 -4.071577,-10.642048c-2.714385,-2.843624 -6.281862,-4.394692 -10.624877,-4.696288s-7.755385,1.292556 -10.237108,4.696288s-3.800138,6.979805 -4.071577,10.642048c-0.271438,3.705328 1.085754,7.238316 4.071577,10.642048c2.985823,3.403732 6.398192,4.825544 10.237108,4.265436c3.800138,-0.560108 7.367615,-1.98192 10.624877,-4.265436c3.218485,-2.283516 4.614454,-5.816504 4.071577,-10.642048zm29.431685,0l0,98.837482c0,1.98192 -0.814315,3.705328 -2.442946,5.127141s-3.257262,2.283516 -4.924669,2.542028l-51.107985,0l0,37.914989c0,6.247356 -2.171508,11.633008 -6.5533,16.200041c-4.381792,4.523948 -9.539123,6.807464 -15.549546,6.807464l-219.205947,0c-6.010423,0 -11.051423,-2.283516 -15.123,-6.807464c-4.071577,-4.523948 -6.281862,-9.952685 -6.5533,-16.200041l0,-37.914989l-51.146762,0c-1.900069,0 -3.683808,-0.861704 -5.312438,-2.542028c-1.628631,-1.723409 -2.326615,-3.403732 -2.055177,-5.127141l0,-98.837482c0,-12.494712 4.381792,-23.309101 13.1066,-32.400081c8.724808,-9.09098 18.961915,-13.485672 30.672546,-13.227161l14.735231,0l0,-129.47107c0,-6.247356 2.171508,-11.633008 6.5533,-16.200041s9.422792,-6.807464 15.123,-6.807464l153.362731,0c6.281862,0 13.1066,1.723409 20.435438,5.127141c7.367615,3.403732 13.1066,7.10906 17.178177,11.0729l34.7829,36.19158c4.071577,4.523948 7.755385,10.642048 11.051423,18.311216s4.769562,14.605888 4.498123,20.896329l0,60.922493l14.308685,0c12.253508,0 22.645723,4.394692 31.099092,13.227161c8.414592,8.789384 12.796385,19.560687 13.067823,32.356996z"/>
  </g>
  <text xml:space="preserve" text-anchor="start" font-family="'Tahoma', Gadget, sans-serif" font-size="150" id="svg_3" y="300.113303" x="600" stroke-width="0" stroke="#ffffff" fill="#ffffff">IMPRIMIR</text>
 </g>
</svg>