<svg width="3000" height="1000" xmlns="http://www.w3.org/2000/svg">
 <metadata>Svg Vector Icons : http://www.onlinewebfonts.com/icon</metadata>

 <g>
  <title>background</title>
  <rect fill="none" id="canvas_background" height="1002" width="3002" y="-1" x="-1"/>
 </g>
 <g>
  <title>Layer 1</title>
  <g stroke="null" id="svg_1">
   <g stroke="null" id="svg_2">
    <path fill="#ffffff" id="svg_3" d="m677.053115,231.653255l-60.409482,0c-6.082899,0 -11.047104,4.964205 -11.047104,11.047104c0,6.082899 4.964205,11.047104 11.047104,11.047104l49.362378,0l0,566.758406l-443.911808,0l0,-566.758406l49.362378,0c6.082899,0 11.047104,-4.964205 11.047104,-11.047104c0,-6.082899 -4.964205,-11.047104 -11.047104,-11.047104l-60.409482,0c-6.082899,0 -11.047104,4.964205 -11.047104,11.047104l0,588.852615c0,6.082899 4.964205,11.047104 11.047104,11.047104l466.006017,0c6.082899,0 11.047104,-4.964205 11.047104,-11.047104l0,-588.852615c0,-6.082899 -4.964205,-11.047104 -11.047104,-11.047104z"/>
    <path fill="#ffffff" id="svg_4" d="m315.644997,287.657879l184.025182,0c6.082899,0 11.047104,-4.964205 11.047104,-11.047104s-4.964205,-11.047104 -11.047104,-11.047104l-172.978077,0l0,-37.406334c0,-4.614613 3.775593,-8.390206 8.390206,-8.390206l68.659851,0c6.082899,0 11.047104,-4.964205 11.047104,-11.047104c0,-16.151146 13.144656,-29.225884 29.225884,-29.225884s29.225884,13.144656 29.225884,29.225884c0,6.082899 4.964205,11.047104 11.047104,11.047104l68.659851,0c4.614613,0 8.390206,3.775593 8.390206,8.390206l0,37.406334l-17.479596,0c-6.082899,0 -11.047104,4.964205 -11.047104,11.047104s4.964205,11.047104 11.047104,11.047104l28.5267,0c6.082899,0 11.047104,-4.964205 11.047104,-11.047104l0,-48.453439c0,-16.780412 -13.634085,-30.484415 -30.484415,-30.484415l-58.801359,0c-5.034124,-23.003148 -25.590128,-40.272988 -50.13148,-40.272988s-45.097356,17.26984 -50.13148,40.272988l-58.801359,0c-16.780412,0 -30.484415,13.634085 -30.484415,30.484415l0,48.453439c0,6.152818 4.894287,11.047104 11.047104,11.047104z"/>
    <path fill="#ffffff" id="svg_5" d="m315.644997,774.080064l53.068052,0c6.082899,0 11.047104,-4.964205 11.047104,-11.047104l0,-53.068052c0,-6.082899 -4.964205,-11.047104 -11.047104,-11.047104l-53.068052,0c-6.082899,0 -11.047104,4.964205 -11.047104,11.047104l0,53.068052c0,6.082899 4.894287,11.047104 11.047104,11.047104zm11.047104,-53.068052l30.973843,0l0,30.973843l-30.973843,0l0,-30.973843z"/>
    <path fill="#ffffff" id="svg_6" d="m572.385297,725.41687l-159.48383,0c-6.082899,0 -11.047104,4.964205 -11.047104,11.047104c0,6.082899 4.964205,11.047104 11.047104,11.047104l159.553748,0c6.082899,0 11.047104,-4.964205 11.047104,-11.047104c-0.069918,-6.082899 -4.964205,-11.047104 -11.117023,-11.047104z"/>
    <path fill="#ffffff" id="svg_7" d="m315.644997,652.491997l53.068052,0c6.082899,0 11.047104,-4.964205 11.047104,-11.047104l0,-53.068052c0,-6.082899 -4.964205,-11.047104 -11.047104,-11.047104l-53.068052,0c-6.082899,0 -11.047104,4.964205 -11.047104,11.047104l0,53.068052c0,6.082899 4.894287,11.047104 11.047104,11.047104zm11.047104,-53.068052l30.973843,0l0,30.973843l-30.973843,0l0,-30.973843z"/>
    <path fill="#ffffff" id="svg_8" d="m572.385297,603.828803l-159.48383,0c-6.082899,0 -11.047104,4.964205 -11.047104,11.047104c0,6.082899 4.964205,11.047104 11.047104,11.047104l159.553748,0c6.082899,0 11.047104,-4.964205 11.047104,-11.047104c-0.069918,-6.082899 -4.964205,-11.047104 -11.117023,-11.047104z"/>
    <path fill="#ffffff" id="svg_9" d="m315.644997,530.834012l53.068052,0c6.082899,0 11.047104,-4.964205 11.047104,-11.047104l0,-53.068052c0,-6.082899 -4.964205,-11.047104 -11.047104,-11.047104l-53.068052,0c-6.082899,0 -11.047104,4.964205 -11.047104,11.047104l0,53.068052c0,6.152818 4.894287,11.047104 11.047104,11.047104zm11.047104,-52.998134l30.973843,0l0,30.973843l-30.973843,0l0,-30.973843z"/>
    <path fill="#ffffff" id="svg_10" d="m572.385297,482.240736l-159.48383,0c-6.082899,0 -11.047104,4.964205 -11.047104,11.047104c0,6.082899 4.964205,11.047104 11.047104,11.047104l159.553748,0c6.082899,0 11.047104,-4.964205 11.047104,-11.047104c-0.069918,-6.082899 -4.964205,-11.047104 -11.117023,-11.047104z"/>
    <path fill="#ffffff" id="svg_11" d="m315.644997,409.245945l53.068052,0c6.082899,0 11.047104,-4.964205 11.047104,-11.047104l0,-53.068052c0,-6.082899 -4.964205,-11.047104 -11.047104,-11.047104l-53.068052,0c-6.082899,0 -11.047104,4.964205 -11.047104,11.047104l0,53.068052c0,6.152818 4.894287,11.047104 11.047104,11.047104zm11.047104,-52.998134l30.973843,0l0,30.973843l-30.973843,0l0,-30.973843z"/>
    <path fill="#ffffff" id="svg_12" d="m572.385297,360.65267l-159.48383,0c-6.082899,0 -11.047104,4.964205 -11.047104,11.047104c0,6.082899 4.964205,11.047104 11.047104,11.047104l159.553748,0c6.082899,0 11.047104,-4.964205 11.047104,-11.047104c-0.069918,-6.082899 -4.964205,-11.047104 -11.117023,-11.047104z"/>
   </g>
   <g stroke="null" id="svg_13"/>
   <g stroke="null" id="svg_14"/>
   <g stroke="null" id="svg_15"/>
   <g stroke="null" id="svg_16"/>
   <g stroke="null" id="svg_17"/>
   <g stroke="null" id="svg_18"/>
   <g stroke="null" id="svg_19"/>
   <g stroke="null" id="svg_20"/>
   <g stroke="null" id="svg_21"/>
   <g stroke="null" id="svg_22"/>
   <g stroke="null" id="svg_23"/>
   <g stroke="null" id="svg_24"/>
   <g stroke="null" id="svg_25"/>
   <g stroke="null" id="svg_26"/>
   <g stroke="null" id="svg_27"/>
  </g>
  <text xml:space="preserve" text-anchor="start" font-family="'Tahoma', Gadget, sans-serif" font-size="250" id="svg_3" y="589.999997" x="1200" stroke-width="0" stroke="#ffffff" fill="#ffffff">LISTADOS</text>
  </g>
</svg>