<svg width="3000" height="1000" xmlns="http://www.w3.org/2000/svg">
 <metadata>Svg Vector Icons : http://www.onlinewebfonts.com/icon</metadata>

 <g>
  <title>background</title>
  <rect fill="none" id="canvas_background" height="1002" width="3002" y="-1" x="-1"/>
 </g>
 <g>
  <title>Layer 1</title>
  <g stroke="null" id="svg_1">
   <path fill="#ffffff" stroke="null" id="svg_2" d="m708.698552,826.103296l-468.047909,0c-22.48759,0 -40.650643,-18.229585 -40.650643,-40.717174l0,-509.230802c0,-22.48759 18.163053,-40.717174 40.650643,-40.717174l326.003519,0l1.064501,1.064501l-41.116362,39.719204l-285.951658,0l0,509.230802l468.047909,0l0,-259.472188l40.717174,-38.920828l0,298.326485c0,22.554121 -18.229585,40.717174 -40.717174,40.717174l0,0zm112.637542,-495.59188c-20.092462,20.691244 -268.05473,265.06082 -280.895277,277.768304c-1.99594,1.929409 -4.457599,3.393098 -7.118852,4.191474c-20.358587,6.054351 -144.106862,46.106212 -145.304425,46.571931c-1.729815,0.532251 -3.459629,0.798376 -5.255975,0.798376c-4.457599,0 -8.782136,-1.729815 -12.042171,-4.98985c-4.52413,-4.457599 -6.253945,-11.177263 -4.324536,-17.364677c0.332657,-1.197564 36.99142,-121.153553 44.309866,-148.231804c0.731845,-2.927379 2.328597,-5.588632 4.391068,-7.717634c0,0 269.784545,-269.651482 279.298525,-279.032399c6.719664,-6.719664 31.402788,-28.608472 65.267235,-28.608472c21.622682,0 41.848207,8.915198 60.277385,26.546001c20.824306,20.02593 31.668913,41.449019 32.068101,63.737014c0.399188,22.620652 -9.913168,44.842117 -30.670943,66.331736l0,0zm-29.539911,-100.595371c-10.645013,-10.245825 -21.156963,-15.235675 -32.068101,-15.235675c-19.227554,0 -34.795886,14.969549 -36.5257,16.699364c-8.848667,8.715604 -239.978509,239.645852 -274.907457,274.641332c-5.854757,20.624712 -18.961429,64.269265 -29.872567,100.395777c33.930978,-10.97767 78.839626,-25.414968 97.601462,-31.203194l12.50789,-12.308296c163.600541,-161.338476 252.220273,-249.093301 263.5306,-260.736284c12.907078,-13.372797 19.360617,-25.880688 19.161023,-37.191014c-0.066531,-11.044201 -6.719664,-22.820246 -19.427148,-35.062011l0,0z"/>
  </g>
  <text xml:space="preserve" text-anchor="start" font-family="'Tahoma', Gadget, sans-serif" font-size="250" id="svg_3" y="589.999997" x="1200" stroke-width="0" stroke="#ffffff" fill="#ffffff">MODIFICAR</text>
 </g>
</svg>