<svg width="2000" height="600" xmlns="http://www.w3.org/2000/svg">

 <g>
  <title>background</title>
  <rect fill="none" id="canvas_background" height="602" width="2002" y="-1" x="-1"/>
 </g>
 <g>
  <title>Layer 1</title>
  <g id="svg_1">
   <path d="m576.095026,275.668761c-10.897319,-7.269095 -25.622058,-4.325412 -32.886409,6.571907l-0.705092,1.057639c-8.578101,-117.157637 -106.633415,-209.859938 -225.942692,-209.859938c-124.926303,0.001581 -226.560833,101.636111 -226.560833,226.562414s101.63453,226.560833 226.560833,226.560833c17.462902,0 31.618508,-14.155606 31.618508,-31.618508s-14.155606,-31.618508 -31.618508,-31.618508c-90.057414,-0.001581 -163.323818,-73.267987 -163.323818,-163.323818s73.266406,-163.323818 163.323818,-163.323818c83.469697,0 152.503965,62.944543 162.157095,143.857884c-7.608994,-9.471323 -21.32036,-11.733628 -31.618508,-4.866088c-10.897319,7.265933 -13.839421,21.990672 -6.573488,32.886409l46.956645,70.415997c5.541144,8.309344 14.557161,13.270288 24.117017,13.270288c9.559856,0 18.574292,-4.962525 24.112274,-13.270288l46.956645,-70.415997c7.264352,-10.897319 4.32225,-25.620477 -6.573488,-32.886409l0.000003,0.000001l-0.000002,0z" id="path2" fill="#ffffff"/>
  </g>
  <text xml:space="preserve" text-anchor="start" font-family="'Tahoma', Gadget, sans-serif" font-size="180" id="svg_2" y="365.000145" x="716.251353" stroke-width="0" stroke="#ffffff" fill="#ffffff">MODULANTES</text>
 </g>
</svg>