<svg width="1400" height="500" xmlns="http://www.w3.org/2000/svg">
 <metadata>Svg Vector Icons : http://www.onlinewebfonts.com/icon</metadata>

 <g>
  <title>background</title>
  <rect fill="none" id="canvas_background" height="502" width="1402" y="-1" x="-1"/>
 </g>
 <g>
  <title>Layer 1</title>
  <g stroke="null" id="svg_1">
   <g stroke="null" id="svg_2" transform="translate(0,511) scale(0.10000000149011612,-0.10000000149011612) ">
    <path fill="#ffffff" stroke="#ffffff" id="svg_3" d="m2300.300344,4080.711533c-27.610431,-32.910067 -27.610431,-35.257498 -27.610431,-196.171614c0,-160.914116 0,-163.261548 27.610431,-196.171614c27.610431,-32.910067 27.610431,-32.910067 163.618855,-32.910067l136.008424,0l0,-99.834874l0,-99.834874l286.363051,0l286.363051,0l0,99.834874l0,99.834874l141.137792,0c192.271189,0 186.13999,-7.042294 186.13999,230.232383l0,176.195434l-30.696067,25.821745c-29.654164,25.867773 -29.654164,25.867773 -585.990329,25.867773l-555.334335,0l-27.610431,-32.864039z"/>
    <path fill="#ffffff" stroke="#ffffff" id="svg_4" d="m2024.155958,3377.080499c-4.087466,-3.498133 -7.173102,-51.689517 -7.173102,-105.726466l0,-97.487442l-202.489854,0l-201.488024,0l-79.785731,-91.641878l-78.743828,-90.445148l0,-614.336588l0,-613.185886l180.008792,-328.916555l181.010621,-328.916555l1061.579006,0l1061.579006,0l393.71914,485.135808l393.759213,483.985107l0,384.104205l1.00183,384.104205l-164.660758,165.608979l-163.578782,164.504305l-204.533587,0l-203.531757,0l0,105.726466l0,105.726466l-979.749542,0c-538.944398,0 -983.837008,-3.544161 -986.922644,-8.239024zm1315.202257,-475.746083c-4.087466,-8.239024 -61.352061,-104.529736 -127.833492,-212.603634c-66.48143,-108.073897 -120.700463,-199.715775 -120.700463,-202.063207s28.652334,-5.891592 63.395794,-8.239024l63.395794,-3.498133l27.610431,-77.511262l27.610431,-78.707992l-51.133397,-56.38438l-50.091494,-57.58111l63.395794,-5.891592l64.437697,-5.891592l27.610431,-77.511262l27.610431,-78.707992l-241.360853,-214.951065c-131.920958,-118.660352 -249.535785,-223.190089 -260.796352,-232.579814c-26.608601,-22.323612 -30.696067,-29.365906 117.614827,213.800363c66.48143,108.073897 120.66039,199.715775 120.66039,202.063207c0,2.347431 -28.612261,5.891592 -63.395794,8.239024l-63.395794,3.544161l-28.612261,76.36056l-27.610431,76.314532l53.17713,62.275972l52.1753,61.079243l-66.48143,0l-66.48143,0l-28.652334,77.511262c-15.348034,43.450494 -26.568528,79.904721 -24.524795,81.055423c8.174932,10.586455 514.419603,462.812197 517.465166,464.008926c2.083806,-0.046028 0.040073,-7.088322 -5.089296,-14.130616z"/>
    <path fill="#ffffff" stroke="#ffffff" id="svg_5" d="m828.652334,3045.816513l-28.652334,-31.713337l0,-640.20436l0,-640.20436l28.652334,-31.713337c28.652334,-31.713337 29.654164,-31.713337 175.921326,-31.713337c146.227088,0 147.268991,0 175.921326,31.713337c28.652334,31.713337 28.652334,31.713337 28.652334,187.932591l0,156.219254l81.749318,0l81.829464,0l0,328.916555l0,328.916555l-81.829464,0l-81.829464,0l0,151.524391l0,151.524391l-31.697897,36.4082l-31.697897,36.4082l-144.183355,-1.19673c-143.181525,-1.104674 -145.225258,-2.255375 -172.83569,-32.818011z"/>
   </g>
  </g>
  <text xml:space="preserve" text-anchor="start" font-family="'Tahoma', Gadget, sans-serif" font-size="105" id="svg_6" y="291.821886" x="550" stroke-width="0" stroke="#ffffff" fill="#ffffff">MOTORES</text>
 </g>
</svg>