<svg width="2000" height="600" xmlns="http://www.w3.org/2000/svg">
 <metadata>Svg Vector Icons : http://www.onlinewebfonts.com/icon</metadata>

 <g>
  <title>background</title>
  <rect x="-1" y="-1" width="2002" height="602" id="canvas_background" fill="none"/>
 </g>
 <g>
  <title>Layer 1</title>
  <g stroke="null" id="svg_1">
   <path stroke="null" d="m130.384627,497.41975c1.279795,13.767314 14.03034,18.797679 20.192313,18.797679c16.684728,-3.838962 19.860515,-16.194245 20.192313,-18.797679l0,-188.020915l-40.384627,0l0,188.020915zm40.384627,-394.839509l0,1.10315c0.0474,-0.176504 0,-0.529512 0,-1.10315zm262.594874,178.622075l40.384627,0l0,-178.622075c0.616198,-12.884794 -17.395725,-18.797679 -20.192313,-18.797679c-2.796588,0 -21.472108,3.883088 -20.192313,18.797679l0,178.622075zm-111.105124,-178.622075c0,-2.603434 -3.223186,-18.224041 -20.192313,-18.797679c-13.508942,0 -20.192313,16.194245 -20.192313,18.797679l0,122.229039l40.384627,0l0,-122.229039zm-151.489751,1.10315c-0.0474,2.2063 -1.042796,-18.268167 -20.192313,-19.900829c-11.944749,0.573638 -20.192313,16.194245 -20.192313,18.797679l0,56.393037l40.384627,0l0,-55.289886l0,-0.000001zm282.787188,196.316604c-33.464257,0 -60.57694,25.240076 -60.57694,56.393037c0,31.152961 27.112684,56.393037 60.57694,56.393037c33.464257,0 60.57694,-25.284202 60.57694,-56.393037c0,-31.152961 -27.112684,-56.393037 -60.57694,-56.393037zm0,82.42738c-15.452334,0 -27.96588,-11.649266 -27.96588,-26.034344s12.513546,-26.034344 27.96588,-26.034344c15.452334,0 27.96588,11.649266 27.96588,26.034344s-12.560946,26.034344 -27.96588,26.034344zm-302.979501,-204.65642c-33.464257,0 -60.57694,25.240076 -60.57694,56.393037c0,31.152961 27.112684,56.393037 60.57694,56.393037c33.464257,0 60.57694,-25.284202 60.57694,-56.393037c0.0474,-31.108835 -27.112684,-56.393037 -60.57694,-56.393037zm0,84.633681c-16.732128,0 -30.28847,-12.620038 -30.28847,-28.196518c0,-15.57648 13.556342,-28.196518 30.28847,-28.196518s30.28847,12.620038 30.28847,28.196518c0,15.57648 -13.556342,28.196518 -30.28847,28.196518zm282.787188,235.015112c-0.616198,14.649834 17.395725,18.797679 20.192313,18.797679c18.58072,-0.573638 20.192313,-16.194245 20.192313,-18.797679l0,-65.791876l-40.384627,0l0,65.791876zm-131.297437,-253.812791c-33.464257,0 -60.57694,25.240076 -60.57694,56.393037c0,31.152961 27.112684,56.393037 60.57694,56.393037c33.464257,0 60.57694,-25.284202 60.57694,-56.393037c0,-31.152961 -27.112684,-56.393037 -60.57694,-56.393037zm0,84.589555c-16.732128,0 -30.28847,-12.620038 -30.28847,-28.196518c0,-15.57648 13.556342,-28.196518 30.28847,-28.196518c16.732128,0 30.28847,12.620038 30.28847,28.196518c0,15.57648 -13.556342,28.196518 -30.28847,28.196518zm20.192313,46.994197l-40.384627,0l0,122.229039c1.895992,14.914591 17.395725,18.797679 20.192313,18.797679c4.69258,0 20.808511,-5.030365 20.192313,-18.797679l0,-122.229039z" id="svg_2" fill="#ffffff"/>
  </g>
  <text stroke="#ffffff" transform="matrix(1.5367428064346311,0,0,1.5367428064346311,-130.09421984478828,-214.32856237329548) " xml:space="preserve" text-anchor="start" font-family="'Tahoma', Gadget, sans-serif" font-size="110" id="svg_3" y="389.999959" x="500.229843" stroke-width="0" fill="#ffffff">NIVELES</text>
 </g>
</svg>