<svg width="3000" height="1000" xmlns="http://www.w3.org/2000/svg">
 <metadata>Svg Vector Icons : http://www.onlinewebfonts.com/icon</metadata>

 <g>
  <title>background</title>
  <rect fill="none" id="canvas_background" height="1002" width="3002" y="-1" x="-1"/>
 </g>
 <g>
  <title>Layer 1</title>
  <g stroke="null" id="svg_1">
   <g stroke="null" id="svg_2" transform="translate(0,511) scale(0.10000000149011612,-0.10000000149011612) ">
    <path fill="#ffffff" stroke="null" id="svg_3" d="m5646.596765,2891.994304c-198.863015,-30.3637 -352.218915,-112.307253 -497.964673,-264.125751c-85.018359,-88.093164 -179.184263,-245.984402 -204.935755,-343.14824c-7.610142,-28.826297 -18.21822,-30.3637 -283.881374,-30.3637c-277.808634,0 -320.317813,-7.610142 -359.829058,-59.189997c-13.682882,-18.21822 -18.21822,-162.426575 -19.755622,-557.15467l0,-532.94058l39.511245,-40.971777l40.971777,-39.511245l1393.732246,0c988.396074,0 1404.340323,4.535337 1430.168686,16.680817c21.293025,9.070675 45.583984,33.361634 54.654659,54.654659c22.753557,50.119322 22.753557,1036.977993 0,1087.020445c-28.826297,62.264802 -72.872879,71.335476 -364.364395,71.335476c-271.735894,0 -274.810699,0 -283.881374,33.438505c-4.535337,19.755622 -34.899037,86.555761 -66.800139,150.281095c-156.430705,314.321943 -531.480048,507.112218 -877.626223,453.994961zm309.709736,-415.944249c221.616572,-129.064941 215.620702,-472.136311 -10.608077,-601.201252c-170.036718,-97.163839 -384.120017,-42.509179 -481.283856,125.990136c-95.626436,165.50138 -42.509179,382.582615 116.919461,476.748519c124.529603,72.796009 248.982337,72.796009 374.972472,-1.537403z"/>
    <path fill="#ffffff" stroke="null" id="svg_4" d="m2541.812394,1899.062893c-248.982337,-60.727399 -449.382754,-262.665219 -516.182893,-520.7951c-34.899037,-132.062876 -33.438505,-3385.667809 0,-3519.268087c71.335476,-268.737959 306.711801,-479.746453 584.520435,-523.793035c135.137681,-21.293025 6180.665573,-21.293025 6315.803254,0c208.01056,33.438505 423.554392,182.182198 519.257698,359.829058c91.091099,165.50138 88.093164,98.701241 88.093164,1932.668696c0,1850.725142 4.535337,1742.953226 -94.165904,1931.208164c-83.480956,156.353835 -258.129882,289.954114 -444.847416,340.073435c-57.652594,16.680817 -233.838922,21.216155 -739.413737,21.216155l-665.003456,0l0,-212.545897l0,-211.008495l665.003456,-4.535337l665.003456,-4.535337l54.654659,-36.43644c28.826297,-19.755622 69.798074,-60.727399 89.553696,-89.553696l36.43644,-54.654659l4.535337,-1660.932802c3.074805,-1601.742806 3.074805,-1662.470205 -25.828362,-1724.735007c-33.361634,-75.947684 -104.773981,-135.137681 -191.252872,-159.42864c-86.555761,-22.753557 -6153.376679,-22.753557 -6239.93244,0c-86.555761,24.29096 -157.891238,83.480956 -191.329742,159.42864c-28.826297,62.264802 -28.826297,122.992201 -25.828362,1724.735007l4.535337,1660.932802l36.43644,54.654659c19.755622,28.826297 60.727399,69.798074 89.553696,89.553696l54.654659,36.43644l665.003456,4.535337l665.003456,4.535337l0,211.008495l0,212.699637l-663.466053,-1.537403c-467.447233,0 -687.603273,-6.07274 -740.7974,-19.755622z"/>
    <path fill="#ffffff" stroke="null" id="svg_5" d="m3565.107506,651.076405c-91.091099,-27.288895 -215.543832,-139.673018 -268.737959,-239.911662c-34.899037,-66.800139 -40.971777,-95.626436 -40.971777,-206.473157c1.537403,-151.818498 33.438505,-235.299454 132.062876,-334.000695l60.727399,-60.727399l-133.600278,0c-101.699176,0 -148.743693,-7.610142 -186.717535,-27.288895c-62.264802,-33.438505 -107.771916,-112.384124 -107.771916,-185.257003c0,-104.773981 104.773981,-1030.828383 118.456863,-1058.194148c9.147545,-15.220285 33.438505,-44.046582 56.192062,-65.262737l40.971777,-37.973842l464.603039,-4.535337c416.021119,-4.535337 470.675779,-1.537403 514.722361,21.293025c88.093164,45.507114 103.236579,104.773981 156.353835,613.346732c59.189997,549.621398 59.189997,572.374955 21.216155,639.175094c-45.507114,78.945619 -112.307253,104.773981 -268.737959,104.773981l-133.677148,0l51.656724,44.046582c135.137681,118.379993 185.257003,343.07137 115.382058,525.330438c-86.555761,229.149844 -346.146175,347.606708 -592.130577,271.659024z"/>
    <path fill="#ffffff" stroke="null" id="svg_6" d="m5221.504971,646.541068c-19.755622,-39.511245 -19.755622,-419.019054 0,-458.530299c15.220285,-28.826297 50.119322,-28.826297 1636.641843,-28.826297c1240.376346,0 1626.033765,4.535337 1639.639778,18.21822c25.828362,25.828362 25.828362,453.918091 0,479.746453c-13.682882,13.682882 -399.263432,18.21822 -1639.639778,18.21822c-1586.522521,0 -1621.421558,0 -1636.641843,-28.826297z"/>
    <path fill="#ffffff" stroke="null" id="svg_7" d="m5221.504971,-221.860741c-27.288895,-50.119322 -13.682882,-450.920156 15.220285,-469.138376c36.43644,-22.753557 3238.384648,-19.755622 3261.138206,3.074805c25.828362,25.828362 25.828362,453.918091 0,479.746453c-13.682882,13.682882 -399.263432,18.21822 -1639.639778,18.21822l-1620.037896,0l-16.680817,-31.901102z"/>
    <path fill="#ffffff" stroke="null" id="svg_8" d="m5221.504971,-1087.264614c-27.288895,-50.119322 -13.682882,-450.920156 15.220285,-469.138376c36.43644,-22.753557 3238.384648,-19.755622 3261.138206,3.074805c25.828362,25.828362 25.828362,453.918091 0,479.746453c-13.682882,13.682882 -399.263432,18.21822 -1639.639778,18.21822l-1620.037896,0l-16.680817,-31.901102z"/>
   </g>
  </g>
  <text xml:space="preserve" text-anchor="start" font-family="'Tahoma', Gadget, sans-serif" font-size="250" id="svg_3" y="589.999997" x="1200" stroke-width="0" stroke="#ffffff" fill="#ffffff">NOMBRE</text>
  </g>
</svg>