<svg width="2900.125" height="821.08502" xmlns="http://www.w3.org/2000/svg">

 <metadata id="metadata833">Svg Vector Icons : http://www.onlinewebfonts.com/iconimage/svg+xml</metadata>Nuevo Ensayo
 <g>
  <title>background</title>
  <rect fill="none" id="canvas_background" height="402" width="582" y="-1" x="-1"/>
 </g>
 <g>
  <title>Layer 1</title>
  <path fill="#ffffff" d="m890.84778,325.3c-11.8,20.1 -24.5,27.3 -40.6,23.1c-17.5,-4.6 -25,-17.1 -25,-41.7c0,-54.6 0.6,-109.2 -0.3,-163.8c-0.3,-20.1 5.9,-34.5 24.4,-42.9c5.8,0 11.7,0 17.5,0c10.9,5.1 18.9,13.2 24.1,24.1c-0.1,67.1 -0.1,134.2 -0.1,201.2z" id="path835"/>
  <path fill="#ffffff" d="m101.14778,450.7c-9,-117.9 34.9,-211.2 132.7,-278.1c48.6,-33.2 103.4,-48.1 162,-48.4c106.1,-0.5 212.2,-0.2 318.3,-0.1c53.8,0 91.6,37.8 91.4,91.7c-0.1,15.2 -0.1,30.8 -3.4,45.5c-8.6,38.5 -42.5,65.1 -82.2,66.1c-13.8,0.4 -27.7,0.1 -42.6,0.1c2.8,11.6 5.7,22.3 8,33.1c25.2,118.6 -25.6,240.9 -127.6,307.7c-241.93729,158.47503 -453.89929,-77.12871 -456.6,-217.6zm19.7,-30.5c-0.1,151.7 122.8,274.8 274.5,274.8c150.8,0 274.2,-122.5 274.6,-272.6c0.4,-152.8 -122,-276.3 -274,-276.5c-151.7,-0.2 -275,122.7 -275.1,274.3zm389.5,-274.2c2.7,2.2 3.2,2.8 3.8,3c69.6,31.4 120.4,81.7 152.2,151.2c1.2,2.6 5.9,5.1 9,5.2c14.9,0.5 29.9,0.5 44.8,0.1c29.5,-0.7 55.3,-21.1 61.2,-49.9c2.7,-13 2.2,-26.8 2.2,-40.2c0.2,-41.5 -27.7,-69.4 -68.9,-69.4c-59.7,-0.1 -119.5,0 -179.2,0l-25.1,0z" id="path839"/>
  <text font-weight="normal" stroke="#ffffff" transform="matrix(11.060217945156108,0,0,10.61409282684326,-8717.055863007246,-3357.504360750317) " xml:space="preserve" text-anchor="start" font-family="'Tahoma', Gadget, sans-serif" font-size="24" id="svg_1" y="364.744237" x="900.119715" stroke-width="0" fill="#ffffff">Nuevo Ensayo</text>
  <path id="svg_3" d="m1319.934688,717.586163l0,0c0,-0.411452 0.333548,-0.745 0.745,-0.745l0,0c0.197586,0 0.38708,0.078491 0.526794,0.218205c0.139715,0.139715 0.218206,0.329208 0.218206,0.526795l0,0c0,0.411452 -0.333548,0.745 -0.745,0.745l0,0c-0.411452,0 -0.745,-0.333548 -0.745,-0.745zm0.3725,0l0,0c0,0.205726 0.166774,0.3725 0.3725,0.3725c0.205726,0 0.3725,-0.166774 0.3725,-0.3725c0,-0.205726 -0.166774,-0.3725 -0.3725,-0.3725l0,0c-0.205726,0 -0.3725,0.166774 -0.3725,0.3725z" stroke-opacity="null" stroke-width="null" stroke="null" fill="#ffffff"/>
 </g></svg>