<svg width="5000" height="1250" xmlns="http://www.w3.org/2000/svg">
 <metadata>Svg Vector Icons : http://www.onlinewebfonts.com/icon</metadata>

 <g>
  <title>background</title>
  <rect fill="none" id="canvas_background" height="1252" width="5002" y="-1" x="-1"/>
 </g>
 <g>
  <title>Layer 1</title>
  <g stroke="null" id="svg_1">
   <path fill="#ffffff" stroke="null" id="svg_2" d="m349.801768,1002.400016c2.446536,26.318463 26.82128,35.934825 38.600896,35.934825c31.895576,-7.338802 37.966609,-30.957936 38.600896,-35.934825l0,-359.432603l-77.201792,0l0,359.432603zm77.201792,-754.80003l0,2.108851c0.090612,-0.337416 0,-1.012249 0,-2.108851zm501.992872,341.46519l77.201792,0l0,-341.46519c1.177962,-24.631382 -33.254762,-35.934825 -38.600896,-35.934825c-5.346133,0 -41.047432,7.423156 -38.600896,35.934825l0,341.46519zm-212.39554,-341.46519c0,-4.976889 -6.161645,-34.838222 -38.600896,-35.934825c-25.824543,0 -38.600896,30.957936 -38.600896,35.934825l0,233.660716l77.201792,0l0,-233.660716zm-289.597332,2.108851c-0.090612,4.217702 -1.993474,-34.922576 -38.600896,-38.043676c-22.834333,1.096603 -38.600896,30.957936 -38.600896,35.934825l0,107.804475l77.201792,0l0,-105.695623zm540.593768,375.291164c-63.972377,0 -115.802688,48.250516 -115.802688,107.804475c0,59.553959 51.830311,107.804475 115.802688,107.804475c63.972377,0 115.802688,-48.33487 115.802688,-107.804475c0,-59.553959 -51.830311,-107.804475 -115.802688,-107.804475zm0,157.573363c-29.539653,0 -53.461335,-22.269469 -53.461335,-49.768889s23.921682,-49.768889 53.461335,-49.768889c29.539653,0 53.461335,22.269469 53.461335,49.768889s-24.012294,49.768889 -53.461335,49.768889zm-579.194664,-391.234079c-63.972377,0 -115.802688,48.250516 -115.802688,107.804475c0,59.553959 51.830311,107.804475 115.802688,107.804475c63.972377,0 115.802688,-48.33487 115.802688,-107.804475c0.090612,-59.469605 -51.830311,-107.804475 -115.802688,-107.804475zm0,161.791066c-31.986188,0 -57.901344,-24.125258 -57.901344,-53.902237c0,-29.776979 25.915156,-53.902237 57.901344,-53.902237s57.901344,24.125258 57.901344,53.902237c0,29.776979 -25.915156,53.902237 -57.901344,53.902237zm540.593768,449.269665c-1.177962,28.005544 33.254762,35.934825 38.600896,35.934825c35.520073,-1.096603 38.600896,-30.957936 38.600896,-35.934825l0,-125.771887l-77.201792,0l0,125.771887zm-250.996436,-485.20449c-63.972377,0 -115.802688,48.250516 -115.802688,107.804475c0,59.553959 51.830311,107.804475 115.802688,107.804475c63.972377,0 115.802688,-48.33487 115.802688,-107.804475c0,-59.553959 -51.830311,-107.804475 -115.802688,-107.804475zm0,161.706712c-31.986188,0 -57.901344,-24.125258 -57.901344,-53.902237c0,-29.776979 25.915156,-53.902237 57.901344,-53.902237c31.986188,0 57.901344,24.125258 57.901344,53.902237c0,29.776979 -25.915156,53.902237 -57.901344,53.902237zm38.600896,89.837062l-77.201792,0l0,233.660716c3.624497,28.511669 33.254762,35.934825 38.600896,35.934825c8.970631,0 39.778858,-9.616362 38.600896,-35.934825l0,-233.660716z"/>
  </g>
  <text stroke="null" transform="matrix(1.679323992433126,0,0,1.7368042469024656,-1178.4190821770999,-660.9134094715118) " font-weight="bold" xml:space="preserve" text-anchor="start" font-family="'Tahoma', Gadget, sans-serif" font-size="250" id="svg_3" y="844.999964" x="1601.376941" stroke-opacity="null" stroke-width="0" fill="#ffffff">PARÁMETROS</text>
 </g>
</svg>