<svg width="1000" height="600" xmlns="http://www.w3.org/2000/svg" xmlns:xlink="http://www.w3.org/1999/xlink" preserveAspectRatio="xMidYMid meet">
 <defs>
  <path d="m280.01001,187.679993c10.669983,0 19.299988,8.830002 19.299988,19.710007c0,19.710007 0,177.340012 0,197.039993c0,10.890015 -8.630005,19.720001 -19.299988,19.720001c-4.02002,0 -36.220016,0 -40.240005,0c-10.669998,0 -19.300003,-8.829987 -19.300003,-19.720001c0,-19.699982 0,-177.329987 0,-197.039993c0.020004,-10.880005 8.630005,-19.710007 19.300003,-19.710007c0,0 36.219986,0 40.240005,0z" id="bjCgs8ehv"/>
  <path d="m398.230011,187.679993c10.669983,0 19.299988,8.830002 19.299988,19.710007c0,19.710007 0,177.340012 0,197.039993c0,10.890015 -8.630005,19.720001 -19.299988,19.720001c-4.02002,0 -36.220001,0 -40.240021,0c-10.669983,0 -19.299988,-8.829987 -19.299988,-19.720001c0,-19.699982 0,-177.329987 0,-197.039993c0.019989,-10.880005 8.630005,-19.710007 19.299988,-19.710007c0,0 36.220001,0 40.240021,0z" id="d7CKT4tzrz"/>
 </defs>
 <g>
  <title>background</title>
  <rect x="-1" y="-1" width="1002" height="602" id="canvas_background" fill="none"/>
 </g>
 <g>
  <title>Layer 1</title>
  <use xlink:href="#a1cmvLBBPC" fill="#ffffff" id="svg_4" y="14.089844" x="1"/>
  <g id="svg_1"/>
  <g stroke="null" id="svg_2">
   <g stroke="null" id="svg_7">
    <use transform="matrix(1.1217902898788452,0,0,1.1217902898788452,-9.134271740913391,-50.93696010344138) " stroke="null" xlink:href="#bjCgs8ehv" fill="#ffffff" id="svg_8" y="6.921503" x="-145.470001"/>
    <g stroke="null" id="svg_9">
     <use fill="#ffffff" transform="matrix(1.1217902898788452,0,0,1.1217902898788452,-9.134271740913391,-50.93696010344138) " stroke="null" xlink:href="#bjCgs8ehv" fill-opacity="0" id="svg_10" y="6.921503" x="-145.470001"/>
    </g>
   </g>
   <g stroke="null" id="svg_11">
    <use transform="matrix(1.1217902898788452,0,0,1.1217902898788452,-9.134271740913391,-50.93696010344138) " stroke="null" xlink:href="#d7CKT4tzrz" fill="#ffffff" id="svg_12" y="6.921503" x="-145.470001"/>
    <g stroke="null" id="svg_13">
     <use fill="#ffffff" transform="matrix(1.1217902898788452,0,0,1.1217902898788452,-9.134271740913391,-50.93696010344138) " stroke="null" xlink:href="#d7CKT4tzrz" fill-opacity="0" id="svg_14" y="6.921503" x="-145.470001"/>
    </g>
   </g>
  </g>
  <text stroke="#ffffff" transform="matrix(1.1259557008743286,0,0,1.1259557008743286,-54.28493901900947,-47.22354753874242) " font-weight="normal" xml:space="preserve" text-anchor="start" font-family="'Tahoma', Gadget, sans-serif" font-size="105" id="svg_3" y="346.57653" x="434.55249" stroke-width="0" fill="#ffffff">PAUSA</text>
 </g>
</svg>