<svg width="40" height="40" xmlns="http://www.w3.org/2000/svg">
 <g>
  <path id="svg_27" fill="rgb(255, 255, 255)" d="m20.000011,5.000652c-8.192641,0 -14.824211,6.710005 -14.824211,14.999545c0,8.283411 6.631569,14.996469 14.824211,14.999529c8.186607,-0.003059 14.821198,-6.716118 14.82423,-14.999529c-0.003033,-8.289539 -6.637623,-14.999545 -14.82423,-14.999545zm0,26.469594c-6.25944,-0.012238 -11.326901,-5.139641 -11.339,-11.470049c0.01512,-6.333481 5.079559,-11.46088 11.342029,-11.47312c6.256432,0.012239 11.323891,5.139639 11.335999,11.47312c-0.015129,6.330408 -5.082588,11.4578 -11.339027,11.470049z"/>
  <defs>
   <path id="svg_4" d="m45.630001,633.599976c-21.690001,0 -39.230001,-17.469971 -39.230001,-39.169983c0,-54.880005 0,-493.919991 0,-548.799992c0,-21.690001 17.54,-39.230001 39.230001,-39.230001c26.130001,0 156.780003,0 391.940006,0l-78.339996,78.400003l-274.430008,0l0,470.340012l470.340012,0l0,-274.310028l78.399963,-78.399994c0,235.200012 0,365.869995 0,392c0,21.700012 -17.539978,39.169983 -39.169983,39.169983c-109.75,0 -493.859993,0 -548.739994,0zm117.569996,-274.369965l352.830032,-352.830011l39.169983,0l78.399963,78.400003l0,39.169998l-352.769989,352.829987l-117.62999,0l0,-117.569977zm392.000015,-235.200012l-39.169983,-39.169998l-215.610016,215.62001l39.159973,39.099976l215.620026,-215.549988zm-352.77002,274.309998l0,39.160004l39.230011,0l39.23999,-39.160004l-39.23999,-39.109985l-39.230011,39.109985z"/>
  </defs>
 </g>
</svg>