<svg width="5000" height="1500" xmlns="http://www.w3.org/2000/svg">

 <g>
  <title>background</title>
  <rect fill="none" id="canvas_background" height="1502" width="5002" y="-1" x="-1"/>
 </g>
 <g>
  <title>Layer 1</title>
  <g stroke="null" id="svg_1">
   <path stroke="null" d="m1330.307956,695.049796c-24.610749,-16.416696 -57.865405,-9.768624 -74.271374,14.842124l-1.592413,2.388598c-19.372971,-264.591408 -240.823254,-473.952334 -510.273973,-473.952334c-282.136321,0.003568 -511.669994,229.537241 -511.669994,511.673585s229.533672,511.669994 511.669994,511.669994c39.4386,0 71.407943,-31.969343 71.407943,-71.407943s-31.969343,-71.407943 -71.407943,-71.407943c-203.387648,-0.003568 -368.85413,-165.470028 -368.85413,-368.854108s165.466482,-368.85413 368.85413,-368.85413c188.509818,0 344.418342,142.155342 366.219184,324.891821c-17.184334,-21.390239 -48.150373,-26.499467 -71.407943,-10.989663c-24.610749,16.409537 -31.255252,49.664216 -14.845715,74.271374l106.047938,159.029053c12.514233,18.76602 32.876212,29.969917 54.466389,29.969917c21.590199,0 41.948588,-11.207488 54.455707,-29.969917l106.047915,-159.029053c16.405969,-24.610726 9.761465,-57.861837 -14.845715,-74.271374l0.000023,0l-0.000023,0z" id="path2" fill="#ffffff"/>
  </g>
  <text stroke="#ffffff" transform="matrix(1.9611141681671143,0,0,1.9611141681671143,-1972.6718127541244,-968.1122807040811) " font-weight="bold" xml:space="preserve" text-anchor="start" font-family="'Tahoma', Gadget, sans-serif" font-size="200" id="svg_2" y="965.327235" x="1807.740179" stroke-width="0" fill="#ffffff">PUESTA A CERO</text>
 </g>
</svg>