<svg width="4000" height="1000" xmlns="http://www.w3.org/2000/svg">
 <metadata>Svg Vector Icons : http://www.onlinewebfonts.com/icon</metadata>

 <g>
  <title>background</title>
  <rect x="-1" y="-1" width="4002" height="1002" id="canvas_background" fill="none"/>
 </g>
 <g>
  <title>Layer 1</title>
  <g id="svg_1" stroke="null">
   <path d="m770.000219,382.929693c65.148599,0 123.388623,30.011441 161.497211,76.885747l46.502877,-134.902914l-728.000307,0l136.5372,396.01731l221.148665,0c-28.600012,-35.657158 -45.685734,-80.822891 -45.685734,-130.000055c0,-114.920048 93.154325,-208.000088 208.000088,-208.000088zm139.731488,-80.005748l22.731438,-110.017189l-318.462991,0l0,-43.977161l-318.537277,0l22.731438,153.994351l591.537392,0l0,-0.000001zm-48.731449,131.782913c-86.988608,-53.411451 -198.268655,-21.765723 -248.485819,70.794316c-50.217164,92.560039 -20.354294,210.897232 66.634314,264.308683c29.565727,18.125722 61.954312,26.445725 93.748611,25.925725l-0.074286,41.897161c0.742857,11.662862 2.897144,17.085721 12.108577,10.771433l114.54862,-69.828601c20.651437,-16.268578 7.800003,-17.382864 -3.788573,-24.142867l-111.57719,-68.565743c-10.028576,-4.902859 -11.960005,0.371429 -11.142862,12.034291l-0.074286,43.902876c-23.177153,0.594286 -46.725734,-5.422859 -68.2686,-18.571436c-62.548598,-38.40573 -83.942893,-123.462909 -47.914306,-189.948652c36.102872,-66.485742 116.034335,-89.291466 178.582932,-50.885736c53.560023,32.8343 76.960032,99.914328 59.948597,160.234353l45.165733,27.485726c30.754299,-86.914322 -1.262858,-187.34865 -79.411462,-235.411528l0,-0.000001z" id="svg_2" stroke="#ffffff" fill="#ffffff"/>
  </g>
  <text fill="#ffffff" stroke-width="0" x="1300" y="634.998259" id="svg_3" font-size="220" font-family="'Tahoma', Gadget, sans-serif" text-anchor="start" xml:space="preserve" transform="matrix(1.4535144567489624,0,0,1.4535144567489624,-589.5687937736511,-292.9703390598297) " stroke="#ffffff">RECUPERAR</text>
 </g>
</svg>