<?xml version="1.0" encoding="UTF-8" standalone="no"?>
<svg
   xmlns:dc="http://purl.org/dc/elements/1.1/"
   xmlns:cc="http://creativecommons.org/ns#"
   xmlns:rdf="http://www.w3.org/1999/02/22-rdf-syntax-ns#"
   xmlns:svg="http://www.w3.org/2000/svg"
   xmlns="http://www.w3.org/2000/svg"
   xmlns:sodipodi="http://sodipodi.sourceforge.net/DTD/sodipodi-0.dtd"
   xmlns:inkscape="http://www.inkscape.org/namespaces/inkscape"
   width="4000"
   height="1200"
   version="1.1"
   id="svg16"
   sodipodi:docname="recuperar_originales.svg"
   inkscape:version="0.92.5 (2060ec1f9f, 2020-04-08)">
  <defs
     id="defs20" />
  <sodipodi:namedview
     pagecolor="#ffffff"
     bordercolor="#666666"
     borderopacity="1"
     objecttolerance="10"
     gridtolerance="10"
     guidetolerance="10"
     inkscape:pageopacity="0"
     inkscape:pageshadow="2"
     inkscape:window-width="1920"
     inkscape:window-height="1057"
     id="namedview18"
     showgrid="false"
     inkscape:pagecheckerboard="true"
     inkscape:zoom="0.24678027"
     inkscape:cx="1998.5887"
     inkscape:cy="413.42666"
     inkscape:window-x="-8"
     inkscape:window-y="-8"
     inkscape:window-maximized="1"
     inkscape:current-layer="svg16" />
  <metadata
     id="metadata2">Svg Vector Icons : http://www.onlinewebfonts.com/icon<rdf:RDF>
  <cc:Work
     rdf:about="">
    <dc:format>image/svg+xml</dc:format>
    <dc:type
       rdf:resource="http://purl.org/dc/dcmitype/StillImage" />
    <dc:title></dc:title>
  </cc:Work>
</rdf:RDF>
</metadata>
  <g
     id="g7"
     transform="translate(0,200)">
    <title
       id="title4">background</title>
    <rect
       x="-1"
       y="-1"
       width="4002"
       height="1002"
       id="canvas_background"
       style="fill:none" />
  </g>
  <g
     stroke="null"
     id="svg_1"
     transform="matrix(1.2881502,0,0,1.2881502,-176.92425,-44.07339)">
    <path
       style="fill:#ffffff;stroke:#ffffff"
       inkscape:connector-curvature="0"
       id="svg_2"
       d="m 770.00022,382.92969 c 65.1486,0 123.38862,30.01144 161.49721,76.88575 L 978.00031,324.91253 H 250 l 136.5372,396.01731 h 221.14866 c -28.60001,-35.65716 -45.68573,-80.8229 -45.68573,-130.00006 0,-114.92005 93.15433,-208.00009 208.00009,-208.00009 z m 139.73149,-80.00575 22.73144,-110.01718 h -318.463 V 148.92959 H 295.46288 l 22.73144,153.99436 h 591.53739 z m -48.73145,131.78292 c -86.98861,-53.41145 -198.26866,-21.76572 -248.48582,70.79431 -50.21716,92.56004 -20.35429,210.89724 66.63431,264.30869 29.56573,18.12572 61.95432,26.44572 93.74861,25.92572 l -0.0743,41.89716 c 0.74285,11.66287 2.89714,17.08572 12.10857,10.77144 l 114.54862,-69.82861 c 20.65144,-16.26857 7.80001,-17.38286 -3.78857,-24.14286 L 784.11451,685.86696 c -10.02857,-4.90285 -11.96,0.37143 -11.14286,12.0343 l -0.0743,43.90287 c -23.17715,0.59429 -46.72573,-5.42286 -68.2686,-18.57143 -62.54859,-38.40573 -83.94289,-123.46291 -47.9143,-189.94866 36.10287,-66.48574 116.03433,-89.29146 178.58293,-50.88573 53.56002,32.8343 76.96003,99.91433 59.9486,160.23435 l 45.16573,27.48573 c 30.7543,-86.91432 -1.26286,-187.34865 -79.41146,-235.41153 z" />
  </g>
  <text
     style="font-size:319.77319336px;font-family:Tahoma, Gadget, sans-serif;text-anchor:start;fill:#ffffff;stroke:#ffffff;stroke-width:0"
     xml:space="preserve"
     font-size="220"
     id="svg_3"
     y="375.59131"
     x="1453.5204">RECUPERAR</text>
  <text
     style="font-size:319.77319336px;font-family:Tahoma, Gadget, sans-serif;text-anchor:start;fill:#ffffff;stroke:#ffffff;stroke-width:0"
     xml:space="preserve"
     font-size="220"
     id="svg_3-5"
     y="715.93341"
     x="1453.5204">VALORES</text>
  <text
     style="font-size:319.77319336px;font-family:Tahoma, Gadget, sans-serif;text-anchor:start;fill:#ffffff;stroke:#ffffff;stroke-width:0"
     xml:space="preserve"
     font-size="220"
     id="svg_3-4"
     y="1049.0109"
     x="1453.5204">ORIGINALES</text>
</svg>
