<?xml version="1.0" encoding="UTF-8" standalone="no"?>
<!-- Svg Vector Icons : http://www.onlinewebfonts.com/icon -->

<svg
   xmlns:dc="http://purl.org/dc/elements/1.1/"
   xmlns:cc="http://creativecommons.org/ns#"
   xmlns:rdf="http://www.w3.org/1999/02/22-rdf-syntax-ns#"
   xmlns:svg="http://www.w3.org/2000/svg"
   xmlns="http://www.w3.org/2000/svg"
   xmlns:sodipodi="http://sodipodi.sourceforge.net/DTD/sodipodi-0.dtd"
   xmlns:inkscape="http://www.inkscape.org/namespaces/inkscape"
   version="1.1"
   x="0px"
   y="0px"
   viewBox="0 0 1100 1100"
   enable-background="new 0 0 1000 1000"
   xml:space="preserve"
   id="svg44"
   sodipodi:docname="salir.svg"
   width="1100"
   height="1100"
   inkscape:version="0.92.5 (2060ec1f9f, 2020-04-08)"><defs
   id="defs48" /><sodipodi:namedview
   pagecolor="#ffffff"
   bordercolor="#666666"
   borderopacity="1"
   objecttolerance="10"
   gridtolerance="10"
   guidetolerance="10"
   inkscape:pageopacity="0"
   inkscape:pageshadow="2"
   inkscape:window-width="1600"
   inkscape:window-height="877"
   id="namedview46"
   showgrid="false"
   inkscape:pagecheckerboard="true"
   inkscape:zoom="0.236"
   inkscape:cx="500"
   inkscape:cy="500"
   inkscape:window-x="-8"
   inkscape:window-y="-8"
   inkscape:window-maximized="1"
   inkscape:current-layer="svg44" />
<metadata
   id="metadata2"> Svg Vector Icons : http://www.onlinewebfonts.com/icon <rdf:RDF><cc:Work
     rdf:about=""><dc:format>image/svg+xml</dc:format><dc:type
       rdf:resource="http://purl.org/dc/dcmitype/StillImage" /><dc:title></dc:title></cc:Work></rdf:RDF></metadata>
<g
   id="g42"
   transform="translate(49.96397,49.95)"
   style="fill:#ffffff;fill-opacity:1"><g
     id="g10"
     style="fill:#ffffff;fill-opacity:1"><path
       d="M 969.3,129.6 H 533.7 c -11.4,0 -20.7,9.3 -20.7,20.7 v 697.3 c 0,11.4 9.3,20.7 20.7,20.7 h 435.6 c 11.4,0 20.7,-9.3 20.7,-20.7 V 150.3 c 0,-11.4 -9.3,-20.7 -20.7,-20.7 z M 614.9,538.2 c -21.4,0 -38.8,-17.4 -38.8,-38.8 0,-21.4 17.4,-38.8 38.8,-38.8 21.4,0 38.8,17.4 38.8,38.8 0,21.4 -17.3,38.8 -38.8,38.8 z"
       id="path4"
       inkscape:connector-curvature="0"
       style="fill:#ffffff;fill-opacity:1" /><path
       d="m 16.7,774.5 c 2,9.8 10.7,16.6 20.3,16.6 1.3,0 2.8,-0.1 4.1,-0.4 l 131.3,-27 c 9.1,-1.9 15.8,-9.6 16.5,-18.8 l 6.2,-89.4 67,74.4 -17.7,111.7 c -1.8,11.3 5.9,21.9 17.2,23.7 l 31.1,5 c 1.1,0.2 2.2,0.2 3.2,0.2 10,0 18.8,-7.2 20.4,-17.5 l 21.5,-136.4 c 0.9,-6.2 -0.9,-12.4 -5.1,-17.1 l -79.4,-88.5 48.8,-69.6 3.3,42.6 c 0.4,5.7 3.5,10.8 8.3,13.9 l 87.8,56.8 c 3.5,2.3 7.3,3.3 11.2,3.3 6.8,0 13.5,-3.3 17.4,-9.4 l 17.2,-26.5 c 6.2,-9.6 3.4,-22.5 -6.1,-28.7 L 376,551.3 368.7,456.9 c -0.5,-6 -3.5,-11.6 -8.5,-15.1 l -75.7,-55 c -2.9,-2.1 -6.3,-3.4 -9.9,-3.8 L 127.3,366.9 c -0.7,-0.1 -1.6,-0.1 -2.3,-0.1 -9.2,0 -17.4,6.1 -19.9,15.1 L 76.4,484 c -3.1,11 3.3,22.5 14.4,25.6 l 30.3,8.5 c 1.9,0.5 3.7,0.7 5.6,0.7 9,0 17.4,-6 19.9,-15.1 l 16.7,-59.5 66.1,7.2 -99.7,133.6 c -2.4,3.2 -3.8,7 -4,11.1 l -6.7,104 -92.4,19 c -11.2,2.4 -18.4,13.2 -16.1,24.4 z"
       id="path6"
       inkscape:connector-curvature="0"
       style="fill:#ffffff;fill-opacity:1" /><circle
       cx="391.39999"
       cy="316.29999"
       r="84.199997"
       id="circle8"
       style="fill:#ffffff;fill-opacity:1" /></g><g
     id="g12"
     style="fill:#ffffff;fill-opacity:1" /><g
     id="g14"
     style="fill:#ffffff;fill-opacity:1" /><g
     id="g16"
     style="fill:#ffffff;fill-opacity:1" /><g
     id="g18"
     style="fill:#ffffff;fill-opacity:1" /><g
     id="g20"
     style="fill:#ffffff;fill-opacity:1" /><g
     id="g22"
     style="fill:#ffffff;fill-opacity:1" /><g
     id="g24"
     style="fill:#ffffff;fill-opacity:1" /><g
     id="g26"
     style="fill:#ffffff;fill-opacity:1" /><g
     id="g28"
     style="fill:#ffffff;fill-opacity:1" /><g
     id="g30"
     style="fill:#ffffff;fill-opacity:1" /><g
     id="g32"
     style="fill:#ffffff;fill-opacity:1" /><g
     id="g34"
     style="fill:#ffffff;fill-opacity:1" /><g
     id="g36"
     style="fill:#ffffff;fill-opacity:1" /><g
     id="g38"
     style="fill:#ffffff;fill-opacity:1" /><g
     id="g40"
     style="fill:#ffffff;fill-opacity:1" /></g>
</svg>