<svg width="2000" height="600" xmlns="http://www.w3.org/2000/svg">
 <metadata>Svg Vector Icons : http://www.onlinewebfonts.com/icon</metadata>

 <g>
  <title>background</title>
  <rect fill="none" id="canvas_background" height="602" width="2002" y="-1" x="-1"/>
 </g>
 <g>
  <title>Layer 1</title>
  <g stroke="null" id="svg_1">
   <path fill="#ffffff" stroke="#ffffff" id="svg_2" d="m257.489078,342.219096l0,-222.213487c0,-33.158151 -26.83998,-59.998131 -59.998131,-59.998131c-33.158151,0 -59.998131,26.83998 -59.998131,59.998131l0,222.213487c-28.897059,19.395314 -47.998505,52.308575 -47.998505,89.776796c0,59.655285 48.39033,107.996637 107.996637,107.996637c59.655285,0 107.996637,-48.341352 107.996637,-107.996637c0,-37.419243 -19.101446,-70.381481 -47.998505,-89.776796zm-59.998131,173.77418c-46.333251,0 -83.997384,-37.664133 -83.997384,-83.997384c0,-28.015454 13.958749,-54.120763 37.370265,-69.842723l10.62824,-7.10182l0,-235.045741c0,-19.836117 16.162762,-35.998879 35.998879,-35.998879c19.836117,0 35.998879,16.162762 35.998879,35.998879l0,11.999626l-47.998505,0l0,23.999253l47.998505,0l0,47.998505l-47.998505,0l0,23.999253l47.998505,0l0,127.049104l10.62824,7.150798c23.411516,15.672981 37.370265,41.778291 37.370265,69.793745c0,46.333251 -37.664133,83.997384 -83.997384,83.997384zm33.256107,-133.857056l-21.256481,-14.301595l0,-91.833875l-23.999253,0l0,91.833875l-21.256481,14.252617c-16.750499,11.215977 -26.742024,29.876621 -26.742024,49.90865c0,33.109173 26.888958,59.998131 59.998131,59.998131s59.998131,-26.888958 59.998131,-59.998131c0,-20.032029 -9.991526,-38.692672 -26.742024,-49.859672z"/>
  </g>
  <text stroke="#ffffff" transform="matrix(1.5367428064346311,0,0,1.5367428064346311,-130.09421984478828,-214.32856237329548) " xml:space="preserve" text-anchor="start" font-family="'Tahoma', Gadget, sans-serif" font-size="110" id="svg_3" y="389.999959" x="400.229843" stroke-width="0" fill="#ffffff">TEMPERATURAS</text>
 </g>
</svg>