<svg width="640" height="640" xmlns="http://www.w3.org/2000/svg" xmlns:xlink="http://www.w3.org/1999/xlink" preserveAspectRatio="xMidYMid meet">
 <defs>
  <path id="ebhoJeEao" d="m441,66.150002c0,-11.650002 9.859985,-21.150002 22,-21.150002c11,0 99,0 110,0c12.119995,0 22,9.5 22,21.150002c0,50.769997 0,456.930016 0,507.699974c0,11.650024 -9.880005,21.150024 -22,21.150024c-7.330017,0 -44,0 -110,0c-14.670013,-6.330017 -22,-13.380005 -22,-21.150024c0,-50.769958 0,-456.929977 0,-507.699974z"/>
  <path id="awQeqoTxE" d="m256,191.830002c0,-11.660004 9.859985,-21.160004 22,-21.160004c11,0 99,0 110,0c12.119995,0 22,9.5 22,21.160004c0,38.069992 0,342.690018 0,380.769974c0,11.650024 -9.880005,21.150024 -22,21.150024c-7.329987,0 -44,0 -110,0c-14.670013,-6.330017 -22,-13.380005 -22,-21.150024c0,-38.079956 0,-342.699982 0,-380.769974z"/>
  <path id="a20riFUTuB" d="m45,320c0,-11.660004 9.860001,-21.149994 22,-21.149994c11,0 99,0 110,0c12.119995,0 22,9.48999 22,21.149994c0,25.380005 0,228.460022 0,253.849976c0,11.650024 -9.880005,21.150024 -22,21.150024c-7.330002,0 -44,0 -110,0c-14.669998,-6.330017 -22,-13.380005 -22,-21.150024c0,-25.389954 0,-228.469971 0,-253.849976z"/>
</defs>
 <g>
  <title>background</title>
  <rect fill="none" id="canvas_background" height="642" width="642" y="-1" x="-1"/>
 </g>
 <g>
  <title>Layer 1</title>
  <g id="svg_3">
   <use id="svg_4" fill="#ffffff" xlink:href="#ebhoJeEao"/>
   <g id="svg_5">
    <use id="svg_6" stroke-opacity="0" stroke="#000000" fill-opacity="0" xlink:href="#ebhoJeEao"/>
   </g>
  </g>
  <g id="svg_11">
   <use id="svg_12" fill="#ffffff" xlink:href="#awQeqoTxE"/>
   <g id="svg_13">
    <use id="svg_14" stroke-opacity="0" stroke="#000000" fill-opacity="0" xlink:href="#awQeqoTxE"/>
   </g>
  </g>
  <g id="svg_19">
   <use id="svg_20" fill="#ffffff" xlink:href="#a20riFUTuB"/>
   <g id="svg_21">
    <use id="svg_22" stroke-opacity="0" stroke="#000000" fill-opacity="0" xlink:href="#a20riFUTuB"/>
   </g>
  </g>
 </g>
</svg>