<?xml version="1.0" encoding="UTF-8" standalone="no"?>
<!-- Generator: Adobe Illustrator 23.0.3, SVG Export Plug-In . SVG Version: 6.00 Build 0)  -->

<svg
   version="1.1"
   x="0px"
   y="0px"
   viewBox="0 0 1640 639.99999"
   xml:space="preserve"
   id="svg224"
   sodipodi:docname="btn_repaso.svg"
   inkscape:version="1.1.2 (b8e25be833, 2022-02-05)"
   width="1640"
   height="640"
   xmlns:inkscape="http://www.inkscape.org/namespaces/inkscape"
   xmlns:sodipodi="http://sodipodi.sourceforge.net/DTD/sodipodi-0.dtd"
   xmlns="http://www.w3.org/2000/svg"
   xmlns:svg="http://www.w3.org/2000/svg"><defs
   id="defs228">
	
	

		
		
		
		
		
		
		
		
		
		
		
		
		
		
		
		
		
	
			
			
			
		
			
			
			
		
			
		
			
			
		
			
			
			
			
			
			
			
			
		
			
			
			
		
			
		
			
		
			
			
			
		
			
			
			
		
				
				
				
				
				
			
				
				
			
				
			
				
				
				
			
				
				
				
			
				
				
				
			
				
				
			
				
				
				
			
				
			
				
			
				
			</defs><sodipodi:namedview
   id="namedview226"
   pagecolor="#ffffff"
   bordercolor="#999999"
   borderopacity="1"
   inkscape:pageshadow="0"
   inkscape:pageopacity="0"
   inkscape:pagecheckerboard="0"
   showgrid="false"
   inkscape:zoom="0.53175153"
   inkscape:cx="749.41016"
   inkscape:cy="110.95408"
   inkscape:window-width="1920"
   inkscape:window-height="1009"
   inkscape:window-x="1912"
   inkscape:window-y="-8"
   inkscape:window-maximized="1"
   inkscape:current-layer="svg224" />
<style
   type="text/css"
   id="style2">
	.st0{fill:#FFFFFF;}
	.st1{fill:none;stroke:#808080;stroke-width:0.1065;stroke-miterlimit:10;}
	.st2{fill:#BFC9E8;}
	.st3{fill:#9FABD8;}
	.st4{fill:#3458A3;}
	.st5{enable-background:new    ;}
	.st6{fill:#CC5261;}
	.st7{fill:#BD1622;}
	.st8{fill:#4C4C4C;}
	.st9{fill:#676767;}
	.st10{fill:#D94B94;}
	.st11{fill:#E47DAE;}
	.st12{fill:#F39A00;}
	.st13{fill:#FBC165;}
	.st14{fill:#80A1D4;}
	.st15{fill:#DA6CA6;}
	.st16{fill:#F2F1F1;}
	.st17{fill:#E7E6E6;}
	.st18{fill:#D9D9D9;}
	.st19{fill:#868686;}
	.st20{fill:#6ABA82;}
	.st21{fill:#31AA59;}
</style>

<g
   id="g1704"
   transform="translate(-60)"><g
     id="Capa_2"
     transform="matrix(4.1394659,0,0,3.9613185,161.72967,41.465097)">
</g><polygon
     class="st2"
     points="32.2,123.2 38.1,119.8 36.5,118.8 30.5,122.2 "
     id="polygon5"
     style="fill:#ffffff"
     transform="matrix(4.1394659,0,0,3.9613185,161.72967,41.465097)" /><polygon
     class="st3"
     points="6.8,87.7 6.8,67.9 86.1,22.2 86.1,42 "
     id="polygon7"
     style="fill:#ffffff"
     transform="matrix(4.1394659,0,0,3.9613185,161.72967,41.465097)" /><polygon
     class="st2"
     points="83,19.2 86.1,22.2 6.8,67.9 3.7,64.9 "
     id="polygon9"
     style="fill:#ffffff"
     transform="matrix(4.1394659,0,0,3.9613185,161.72967,41.465097)" /><polygon
     class="st4"
     points="124.9,46.1 84.8,23 84.8,43.7 124.9,66.9 "
     id="polygon13"
     style="fill:#ffffff"
     transform="matrix(4.1394659,0,0,3.9613185,161.72967,41.465097)" /><polygon
     class="st4"
     points="130.1,49.1 125.3,46.4 125.3,87.5 130.1,90.3 "
     id="polygon15"
     style="fill:#ffffff"
     transform="matrix(4.1394659,0,0,3.9613185,161.72967,41.465097)" /><polygon
     class="st2"
     points="130,43.6 134.8,46.4 130.1,49.1 125.3,46.4 "
     id="polygon17"
     transform="matrix(4.1394659,0,0,3.9613185,161.72967,41.465097)" /><polygon
     class="st3"
     points="4.7,69.8 9.5,67 9.5,108.2 4.7,111 "
     id="polygon21"
     style="fill:#ffffff"
     transform="matrix(4.1394659,0,0,3.9613185,161.72967,41.465097)" /><polygon
     class="st4"
     points="4.8,69.8 0,67 0,108.2 4.8,111 "
     id="polygon23"
     style="fill:#ffffff"
     transform="matrix(4.1394659,0,0,3.9613185,161.72967,41.465097)" /><polygon
     class="st2"
     points="4.7,64.3 9.5,67.1 4.8,69.8 0,67.1 "
     id="polygon25"
     transform="matrix(4.1394659,0,0,3.9613185,161.72967,41.465097)" /><polygon
     class="st2"
     points="85.3,17.8 80.6,20.6 130,49.2 134.8,46.4 "
     id="polygon29"
     style="fill:#ffffff"
     transform="matrix(4.1394659,0,0,3.9613185,161.72967,41.465097)" /><path
     class="st16"
     d="M 639.83798,204.27529 C 639.01009,177.33832 629.48932,150.40136 616.24303,126.63344 602.58279,102.4694 584.36914,79.889886 561.60208,63.252349 542.97448,49.783866 518.13768,37.89991 494.12878,42.257361 c -8.27893,1.584527 -15.31602,5.545846 -22.35311,9.507164 -12.00446,6.734242 -49.25965,26.936966 -49.67359,26.936966 16.14391,-9.111033 33.94362,-4.35745 50.91543,2.376791 21.52522,8.318769 39.73887,23.371778 54.64095,39.613188 28.97626,31.69054 50.08753,73.68052 51.74332,116.06663 0.82789,22.97565 -1.65579,47.53582 -24.0089,59.81591 31.45994,-17.4298 54.64095,-29.70989 57.95252,-31.69055 21.52522,-12.67622 26.90653,-38.42479 26.49258,-60.60817 z"
     id="path31"
     style="fill:#ffffff;fill-opacity:1;stroke-width:4.04941" /><g
     id="g35"
     style="fill:#ffffff;fill-opacity:1"
     transform="matrix(4.1394659,0,0,3.9613185,161.72967,41.465097)">
					<path
   class="st17"
   d="m 79.2,10.7 c 12.5,7.2 22.8,25 22.8,39.4 0,14.3 -10.4,20 -22.9,12.8 C 66.6,55.7 56.5,38.2 56.6,23.9 56.6,9.5 66.7,3.5 79.2,10.7 Z"
   id="path33"
   style="fill:#ffffff;fill-opacity:1" />
				</g><path
     class="st0"
     d="m 569.05311,231.60838 c -0.82789,-24.16404 -9.10682,-47.93195 -20.69732,-68.92694 -12.00446,-21.39112 -28.14837,-41.59384 -48.8457,-56.25072 -16.55787,-12.280087 -38.49704,-22.579515 -60.02226,-18.618197 -7.45104,1.584528 -13.24629,5.149714 -19.45549,8.318769 -21.11127,11.883958 -42.6365,23.767908 -63.74777,35.651868 -28.14837,15.44914 -55.88279,31.29441 -84.03116,46.74356 -16.14392,9.11103 -32.28783,17.82593 -48.43175,26.93696 -0.41395,0 -0.41395,0.39613 -0.82789,0.39613 14.48813,-7.92263 24.0089,-1.58452 38.49703,4.35746 19.04154,7.5265 35.18546,20.59885 48.8457,35.25573 25.66468,28.12536 44.29228,65.36176 45.94807,102.99428 0.82789,20.20273 4.13946,40.00932 -15.72997,51.10101 27.73442,-15.44914 55.88279,-30.89828 83.61721,-46.34743 37.25519,-20.99499 74.92433,-41.59384 112.17952,-62.58883 3.31158,-1.58453 6.62315,-3.56519 9.52078,-5.54585 18.62759,-11.09169 23.59495,-33.6712 23.181,-53.4778 z"
     id="path41"
     style="stroke-width:4.04941" /><g
     id="g45"
     style="fill:#ffffff;fill-opacity:1"
     transform="matrix(4.1394659,0,0,3.9613185,161.72967,41.465097)">
					<path
   class="st17"
   d="M 29,42.7 C 40.1,49.1 49.3,65 49.2,77.7 49.2,90.4 40,95.5 28.9,89.1 17.8,82.7 8.8,67.2 8.9,54.4 8.9,41.6 17.9,36.3 29,42.7 Z"
   id="path43"
   style="fill:#ffffff;fill-opacity:1" />
				</g><polygon
     class="st2"
     points="121.3,60.8 40.8,107.3 51.1,113.3 131.6,66.8 "
     id="polygon51"
     style="fill:#ffffff"
     transform="matrix(4.1394659,0,0,3.9613185,161.72967,41.465097)" /><polygon
     class="st3"
     points="125.3,46.5 125.3,63.3 46,109 46,92.2 "
     id="polygon53"
     style="fill:#ffffff"
     transform="matrix(4.1394659,0,0,3.9613185,161.72967,41.465097)" /><polygon
     class="st2"
     points="46,92.2 42.9,89.2 122.2,43.5 125.3,46.5 "
     id="polygon55"
     style="fill:#ffffff"
     transform="matrix(4.1394659,0,0,3.9613185,161.72967,41.465097)" /><g
     id="g65"
     style="fill:#ffffff;fill-opacity:1"
     transform="matrix(4.1394659,0,0,3.9613185,161.72967,41.465097)">
					<polygon
   class="st8"
   points="68.4,100.4 64.3,98.1 68.3,95.8 72.3,98.1 "
   id="polygon59"
   style="fill:#ffffff;fill-opacity:1" />
					<polygon
   class="st9"
   points="72.3,99 68.3,101.3 68.4,100.4 72.3,98.1 "
   id="polygon61"
   style="fill:#ffffff;fill-opacity:1" />
					<polygon
   points="68.4,100.4 68.3,101.3 64.3,99 64.3,98.1 "
   id="polygon63"
   style="fill:#ffffff;fill-opacity:1" />
				</g><g
     id="g77"
     style="fill:#ffffff;fill-opacity:1"
     transform="matrix(4.1394659,0,0,3.9613185,161.72967,41.465097)">
					<g
   id="g75"
   style="fill:#ffffff;fill-opacity:1">
						<g
   class="st5"
   id="g73"
   style="fill:#ffffff;fill-opacity:1">
							<g
   id="g71"
   style="fill:#ffffff;fill-opacity:1">
								<path
   class="st10"
   d="m 71.2,95 c 0,0.4 -0.3,0.8 -0.8,1 -1.1,0.6 -2.9,0.7 -4.1,0 -0.5,-0.3 -0.7,-0.6 -0.8,-1 v 0 2.5 c 0,0.1 0,0.2 0,0.3 v 0 0 c 0.1,0.4 0.3,0.7 0.8,1 1.1,0.6 2.9,0.6 4,0 0.5,-0.3 0.8,-0.7 0.8,-1.1 v 0 -0.2 z"
   id="path67"
   style="fill:#ffffff;fill-opacity:1" />
								<path
   class="st11"
   d="m 70.3,93.7 c -1.1,-0.6 -2.9,-0.6 -4,0 -0.6,0.4 -0.9,0.9 -0.8,1.4 0.1,0.4 0.3,0.7 0.8,1 1.1,0.6 2.9,0.6 4.1,0 0.5,-0.3 0.8,-0.7 0.8,-1 0,-0.5 -0.3,-1 -0.9,-1.4"
   id="path69"
   style="fill:#ffffff;fill-opacity:1" />
							</g>
						</g>
					</g>
				</g><g
     id="g85"
     style="fill:#ffffff;fill-opacity:1"
     transform="matrix(4.1394659,0,0,3.9613185,161.72967,41.465097)">
					<polygon
   class="st8"
   points="62.9,103.6 58.9,101.2 62.9,99 66.9,101.3 "
   id="polygon79"
   style="fill:#ffffff;fill-opacity:1" />
					<polygon
   class="st9"
   points="66.9,102.2 62.9,104.5 62.9,103.6 66.9,101.3 "
   id="polygon81"
   style="fill:#ffffff;fill-opacity:1" />
					<polygon
   points="62.9,103.6 62.9,104.5 58.9,102.1 58.9,101.2 "
   id="polygon83"
   style="fill:#ffffff;fill-opacity:1" />
				</g><g
     id="g97"
     style="fill:#ffffff;fill-opacity:1"
     transform="matrix(4.1394659,0,0,3.9613185,161.72967,41.465097)">
					<g
   id="g95"
   style="fill:#ffffff;fill-opacity:1">
						<g
   class="st5"
   id="g93"
   style="fill:#ffffff;fill-opacity:1">
							<g
   id="g91"
   style="fill:#ffffff;fill-opacity:1">
								<path
   class="st12"
   d="m 65.7,98.2 c 0,0.4 -0.3,0.8 -0.8,1 -1.1,0.6 -2.9,0.7 -4.1,0 -0.5,-0.3 -0.7,-0.6 -0.8,-1 v 0 2.5 c 0,0.1 0,0.2 0,0.3 v 0 0 c 0.1,0.4 0.3,0.7 0.8,1 1.1,0.6 2.9,0.6 4,0 0.5,-0.3 0.8,-0.7 0.8,-1.1 v 0 -0.2 z"
   id="path87"
   style="fill:#ffffff;fill-opacity:1" />
								<path
   class="st13"
   d="m 64.9,96.9 c -1.1,-0.6 -2.9,-0.6 -4,0 -0.6,0.4 -0.9,0.9 -0.8,1.4 0.1,0.4 0.3,0.7 0.8,1 1.1,0.6 2.9,0.6 4.1,0 0.5,-0.3 0.8,-0.7 0.8,-1 0,-0.6 -0.3,-1.1 -0.9,-1.4"
   id="path89"
   style="fill:#ffffff;fill-opacity:1" />
							</g>
						</g>
					</g>
				</g><g
     id="g119"
     style="fill:#ffffff;fill-opacity:1"
     transform="matrix(4.1394659,0,0,3.9613185,161.72967,41.465097)">
					<g
   id="g105"
   style="fill:#ffffff;fill-opacity:1">
						<polygon
   class="st8"
   points="57.3,106.7 53.3,104.4 57.3,102.2 61.3,104.5 "
   id="polygon99"
   style="fill:#ffffff;fill-opacity:1" />
						<polygon
   class="st9"
   points="61.3,105.3 57.3,107.6 57.3,106.7 61.3,104.5 "
   id="polygon101"
   style="fill:#ffffff;fill-opacity:1" />
						<polygon
   points="57.3,106.7 57.3,107.6 53.3,105.3 53.3,104.4 "
   id="polygon103"
   style="fill:#ffffff;fill-opacity:1" />
					</g>
					<g
   id="g117"
   style="fill:#ffffff;fill-opacity:1">
						<g
   id="g115"
   style="fill:#ffffff;fill-opacity:1">
							<g
   class="st5"
   id="g113"
   style="fill:#ffffff;fill-opacity:1">
								<g
   id="g111"
   style="fill:#ffffff;fill-opacity:1">
									<path
   class="st4"
   d="m 60.1,101.4 c 0,0.4 -0.3,0.8 -0.8,1 -1.1,0.6 -2.9,0.7 -4.1,0 -0.5,-0.3 -0.7,-0.6 -0.8,-1 v 0 2.5 c 0,0.1 0,0.2 0,0.3 v 0 0 c 0.1,0.4 0.3,0.7 0.8,1 1.1,0.6 2.9,0.6 4,0 0.5,-0.3 0.8,-0.7 0.8,-1.1 v 0 -0.2 z"
   id="path107"
   style="fill:#ffffff;fill-opacity:1" />
									<path
   class="st14"
   d="m 59.3,100.1 c -1.1,-0.6 -2.9,-0.6 -4,0 -0.6,0.4 -0.9,0.9 -0.8,1.4 0.1,0.4 0.3,0.7 0.8,1 1.1,0.6 2.9,0.6 4.1,0 0.5,-0.3 0.8,-0.7 0.8,-1 0,-0.6 -0.3,-1.1 -0.9,-1.4"
   id="path109"
   style="fill:#ffffff;fill-opacity:1" />
								</g>
							</g>
						</g>
					</g>
				</g><polygon
     class="st3"
     points="130.1,66 130.1,71 54.1,114.9 54.1,109.9 "
     id="polygon123"
     style="fill:#ffffff"
     transform="matrix(4.1394659,0,0,3.9613185,161.72967,41.465097)" /><polygon
     class="st8"
     points="98.9,82.8 94.9,80.5 98.9,78.2 102.9,80.5 "
     id="polygon125"
     style="fill:#ffffff;fill-opacity:1"
     transform="matrix(4.1394659,0,0,3.9613185,161.72967,41.465097)" /><polygon
     class="st9"
     points="102.9,81.4 98.9,83.7 98.9,82.8 102.9,80.5 "
     id="polygon127"
     style="fill:#ffffff;fill-opacity:1"
     transform="matrix(4.1394659,0,0,3.9613185,161.72967,41.465097)" /><polygon
     points="98.9,82.8 98.9,83.7 94.9,81.4 94.9,80.5 "
     id="polygon129"
     style="fill:#ffffff;fill-opacity:1"
     transform="matrix(4.1394659,0,0,3.9613185,161.72967,41.465097)" /><polygon
     class="st11"
     points="94,85.5 90,83.2 93.9,81 97.9,83.3 "
     id="polygon133"
     style="fill:#ffffff;fill-opacity:1"
     transform="matrix(4.1394659,0,0,3.9613185,161.72967,41.465097)" /><polygon
     class="st15"
     points="97.9,84.1 94,86.4 94,85.5 97.9,83.3 "
     id="polygon135"
     style="fill:#ffffff;fill-opacity:1"
     transform="matrix(4.1394659,0,0,3.9613185,161.72967,41.465097)" /><polygon
     class="st10"
     points="94,85.5 94,86.4 90,84.1 90,83.2 "
     id="polygon137"
     style="fill:#ffffff;fill-opacity:1"
     transform="matrix(4.1394659,0,0,3.9613185,161.72967,41.465097)" /><polygon
     class="st0"
     points="89.2,88.4 85.2,86.1 89.1,83.8 93.1,86.1 "
     id="polygon141"
     style="fill:#ffffff;fill-opacity:1"
     transform="matrix(4.1394659,0,0,3.9613185,161.72967,41.465097)" /><polygon
     class="st16"
     points="93.1,87 89.2,89.3 89.2,88.4 93.1,86.1 "
     id="polygon143"
     transform="matrix(4.1394659,0,0,3.9613185,161.72967,41.465097)"
     style="fill:#ffffff" /><polygon
     class="st17"
     points="89.2,88.4 89.2,89.3 85.2,86.9 85.2,86.1 "
     id="polygon145"
     style="fill:#ffffff;fill-opacity:1"
     transform="matrix(4.1394659,0,0,3.9613185,161.72967,41.465097)" /><polygon
     class="st4"
     points="4.7,90.6 44.9,113.8 44.9,93 4.7,69.9 "
     id="polygon151"
     style="fill:#ffffff"
     transform="matrix(4.1394659,0,0,3.9613185,161.72967,41.465097)" /><polygon
     class="st3"
     points="54.2,134.1 49.5,136.8 49.5,95.6 54.2,92.9 "
     id="polygon153"
     style="fill:#ffffff"
     transform="matrix(4.1394659,0,0,3.9613185,161.72967,41.465097)" /><polygon
     class="st4"
     points="44.7,134.1 49.5,136.8 49.5,95.6 44.7,92.9 "
     id="polygon155"
     style="fill:#ffffff"
     transform="matrix(4.1394659,0,0,3.9613185,161.72967,41.465097)" /><polygon
     class="st2"
     points="49.5,95.6 44.7,92.9 49.5,90.2 54.2,92.9 "
     id="polygon157"
     transform="matrix(4.1394659,0,0,3.9613185,161.72967,41.465097)" /><polygon
     class="st2"
     points="49.5,95.7 54.2,92.9 4.7,64.3 0,67.1 "
     id="polygon161"
     style="fill:#ffffff"
     transform="matrix(4.1394659,0,0,3.9613185,161.72967,41.465097)" /><g
     class="st5"
     id="g171"
     style="fill:#ffffff"
     transform="matrix(4.1394659,0,0,3.9613185,161.72967,41.465097)">
					<path
   class="st2"
   d="m 31.5,93.7 c 0,-1.6 -0.6,-3.1 -1.3,-4.5 -0.8,-1.4 -1.8,-2.7 -3.1,-3.7 -1,-0.8 -2.4,-1.5 -3.8,-1.2 -0.5,0.1 -0.8,0.3 -1.2,0.6 -1.3,0.8 -3.8,2.2 -3.8,2.2 0.9,-0.5 2,-0.4 3,0 1.2,0.5 2.2,1.4 3.1,2.3 1.6,1.8 2.8,4.3 2.9,6.8 0.1,1.3 -0.3,2.9 -1.5,3.6 1.7,-1 1.4,-0.8 3.7,-2.2 0.2,-0.1 0.4,-0.2 0.6,-0.4 1.1,-0.7 1.4,-2.2 1.4,-3.5 z"
   id="path165"
   style="fill:#ffffff" />
					<g
   id="g169"
   style="fill:#ffffff">
						<path
   class="st2"
   d="m 22,87.4 c 2.9,1.7 5.3,5.8 5.3,9.1 0,3.3 -2.4,4.6 -5.3,3 -2.9,-1.7 -5.2,-5.7 -5.2,-9 0,-3.4 2.3,-4.8 5.2,-3.1 z"
   id="path167"
   style="fill:#ffffff" />
					</g>
				</g><g
     class="st5"
     id="g181"
     style="fill:#ffffff"
     transform="matrix(4.1394659,0,0,3.9613185,161.72967,41.465097)">
					<path
   class="st3"
   d="m 29,96.4 c -0.1,-1.9 -0.7,-3.8 -1.6,-5.5 -0.9,-1.7 -2.2,-3.3 -3.7,-4.5 -1.3,-1 -2.9,-1.8 -4.6,-1.5 -0.6,0.1 -1,0.4 -1.5,0.7 -1.6,0.9 -4.6,2.7 -4.6,2.7 1.1,-0.6 2.4,-0.5 3.6,0 1.4,0.6 2.7,1.6 3.7,2.8 2,2.2 3.4,5.2 3.5,8.2 0.1,1.6 -0.3,3.5 -1.8,4.4 2.1,-1.2 1.7,-1 4.5,-2.6 0.2,-0.1 0.5,-0.3 0.7,-0.4 1.5,-1 1.9,-2.8 1.8,-4.3 z"
   id="path175"
   style="fill:#ffffff" />
					<g
   id="g179"
   style="fill:#ffffff">
						<path
   class="st3"
   d="m 17.5,88.7 c 3.5,2 6.4,7 6.4,11 0,4 -2.9,5.6 -6.4,3.6 -3.5,-2 -6.3,-6.9 -6.3,-10.9 0,-4.1 2.8,-5.7 6.3,-3.7 z"
   id="path177"
   style="fill:#ffffff" />
					</g>
				</g><g
     class="st5"
     id="g191"
     style="fill:#ffffff"
     transform="matrix(4.1394659,0,0,3.9613185,161.72967,41.465097)">
					<path
   class="st2"
   d="m 21.9,99.3 c 0,-1.6 -0.6,-3.1 -1.3,-4.5 -0.8,-1.4 -1.8,-2.7 -3.1,-3.7 -1,-0.8 -2.4,-1.5 -3.8,-1.2 -0.5,0.1 -0.8,0.3 -1.2,0.6 -1.3,0.8 -3.8,2.2 -3.8,2.2 0.9,-0.5 2,-0.4 3,0 1.2,0.5 2.2,1.4 3.1,2.3 1.6,1.8 2.8,4.3 2.9,6.8 0.1,1.3 -0.3,2.9 -1.5,3.6 1.7,-1 1.4,-0.8 3.7,-2.2 0.2,-0.1 0.4,-0.2 0.6,-0.4 1.1,-0.7 1.4,-2.2 1.4,-3.5 z"
   id="path185"
   style="fill:#ffffff" />
					<g
   id="g189"
   style="fill:#ffffff">
						<path
   class="st4"
   d="m 12.4,93 c 2.9,1.7 5.3,5.8 5.3,9.1 0,3.3 -2.4,4.6 -5.3,3 -2.9,-1.7 -5.2,-5.7 -5.2,-9 0,-3.4 2.3,-4.8 5.2,-3.1 z"
   id="path187"
   style="fill:#ffffff" />
					</g>
				</g><polygon
     class="st3"
     points="38,105.9 39.6,105 39.6,118.8 38,119.8 "
     id="polygon197"
     style="fill:#ffffff"
     transform="matrix(4.1394659,0,0,3.9613185,161.72967,41.465097)" /><polygon
     class="st17"
     points="38,105.9 36.4,105 36.4,118.8 38,119.8 "
     id="polygon199"
     style="fill:#ffffff"
     transform="matrix(4.1394659,0,0,3.9613185,161.72967,41.465097)" /><polygon
     class="st2"
     points="38,104.1 39.6,105 38,105.9 36.4,105 "
     id="polygon201"
     transform="matrix(4.1394659,0,0,3.9613185,161.72967,41.465097)" /><polygon
     class="st3"
     points="41.4,98.7 44.2,97.1 44.2,108.1 41.4,109.7 "
     id="polygon205"
     style="fill:#ffffff"
     transform="matrix(4.1394659,0,0,3.9613185,161.72967,41.465097)" /><polygon
     class="st17"
     points="41.5,98.7 33.4,94 33.4,105 41.5,109.7 "
     id="polygon207"
     style="fill:#ffffff"
     transform="matrix(4.1394659,0,0,3.9613185,161.72967,41.465097)" /><polygon
     class="st2"
     points="36.2,92.4 44.2,97.1 41.5,98.7 33.4,94 "
     id="polygon209"
     style="fill:#ffffff"
     transform="matrix(4.1394659,0,0,3.9613185,161.72967,41.465097)" /><polygon
     class="st2"
     points="31.7,126.6 26.9,123.8 31.7,121.1 36.4,123.8 "
     id="polygon213"
     style="fill:#ffffff"
     transform="matrix(4.1394659,0,0,3.9613185,161.72967,41.465097)" /><polygon
     class="st3"
     points="32.2,124.9 32.2,123.2 39.6,118.8 39.6,120.5 "
     id="polygon215"
     style="fill:#ffffff"
     transform="matrix(4.1394659,0,0,3.9613185,161.72967,41.465097)" /><polygon
     class="st17"
     points="32.2,123.2 30.7,122.3 30.7,124 32.2,124.9 "
     id="polygon217"
     style="fill:#ffffff"
     transform="matrix(4.1394659,0,0,3.9613185,161.72967,41.465097)" /><polygon
     class="st3"
     points="130,49.1 134.8,46.4 134.8,87.5 130,90.3 "
     id="polygon221"
     style="fill:#ffffff"
     transform="matrix(4.1394659,0,0,3.9613185,161.72967,41.465097)" /></g>
<text
   style="font-weight:bold;font-size:180px;font-family:'Trebuchet MS', Gadget, sans-serif;text-anchor:start;fill:#ffffff"
   x="830.97906"
   y="367.19687"
   id="svg_2"
   font-size="180"
   xml:space="preserve"
   font-weight="bold">REPASO</text></svg>
