<?xml version="1.0" encoding="UTF-8" standalone="no"?>
<!-- Generator: Adobe Illustrator 23.0.3, SVG Export Plug-In . SVG Version: 6.00 Build 0)  -->

<svg
   version="1.1"
   x="0px"
   y="0px"
   viewBox="0 0 1640 639.99998"
   xml:space="preserve"
   id="svg138"
   sodipodi:docname="btn_preparacion.svg"
   width="1640"
   height="640"
   inkscape:version="1.1.2 (b8e25be833, 2022-02-05)"
   xmlns:inkscape="http://www.inkscape.org/namespaces/inkscape"
   xmlns:sodipodi="http://sodipodi.sourceforge.net/DTD/sodipodi-0.dtd"
   xmlns="http://www.w3.org/2000/svg"
   xmlns:svg="http://www.w3.org/2000/svg"><defs
   id="defs142">
	
	
	
	

		
		
		
		
		
		
		
		
		
		
		
		
		
		
		
		
		
		
		
		
		
		
		
		
		
		
		
		
		
		
		
		
		
		
		
		
		
		
		
		
		
		
		
		
		
		
		
		
		
		
		
		
		
		
		
		
		
		
		
		
		
	
		
	</defs><sodipodi:namedview
   id="namedview140"
   pagecolor="#ffffff"
   bordercolor="#999999"
   borderopacity="1"
   inkscape:pageshadow="0"
   inkscape:pageopacity="0"
   inkscape:pagecheckerboard="0"
   showgrid="false"
   inkscape:zoom="0.46846538"
   inkscape:cx="677.74485"
   inkscape:cy="311.6559"
   inkscape:window-width="1920"
   inkscape:window-height="1009"
   inkscape:window-x="1912"
   inkscape:window-y="-8"
   inkscape:window-maximized="1"
   inkscape:current-layer="svg138" />
<style
   type="text/css"
   id="style2">
	.st0{fill:#FFFFFF;}
	.st1{fill:none;stroke:#808080;stroke-width:0.1065;stroke-miterlimit:10;}
	.st2{fill:none;}
	.st3{fill:#006E32;}
	.st4{fill:#6ABA82;}
	.st5{fill:#31AA59;}
	.st6{fill:#B3B4B3;}
	.st7{fill:#CDCCCC;}
	.st8{fill:#F2F1F1;}
	.st9{fill:#676767;}
	.st10{fill:#E7E6E6;}
	.st11{fill:#868686;}
	.st12{fill:#D9D9D9;}
	.st13{fill:#751518;}
	.st14{fill:#CC5261;}
	.st15{fill:#BD1622;}
	.st16{fill:#3458A3;}
	.st17{font-family:'TradeGothicLTStd-BdCn20';}
	.st18{font-size:12px;}
	.st19{fill:#BFC9E8;}
	.st20{fill:#9FABD8;}
	.st21{opacity:0.5;}
</style>


<g
   id="g1063"
   transform="translate(-80)"
   style="fill:#ffffff"><g
     id="Capa_2"
     transform="matrix(2.5771749,0,0,2.4586689,96.38591,27.750183)"
     style="fill:#ffffff">
</g><polygon
     class="st2"
     points="52.9,159.7 52.9,172.7 52.9,172.8 52.9,186.7 54.6,185.7 55.4,186.2 126.3,145.2 102.1,131.3 "
     id="polygon9"
     transform="matrix(2.5771749,0,0,2.4586689,96.38591,27.750183)"
     style="fill:#ffffff" /><polygon
     class="st2"
     points="53.2,192.8 53.2,192.5 52.9,192.9 52.9,194.4 53.7,193.9 70.5,203.5 70.8,202.9 "
     id="polygon11"
     transform="matrix(2.5771749,0,0,2.4586689,96.38591,27.750183)"
     style="fill:#ffffff" /><polygon
     class="st2"
     points="35.7,171.1 27.5,166.3 26.5,165.7 18.2,161 17.2,160.4 8.9,155.6 8.9,163.9 44.1,184.2 44.1,175.9 36.7,171.7 "
     id="polygon13"
     transform="matrix(2.5771749,0,0,2.4586689,96.38591,27.750183)"
     style="fill:#ffffff" /><polygon
     class="st2"
     points="130.7,125.9 121.1,120.3 113.9,124.5 130.7,134.1 "
     id="polygon15"
     transform="matrix(2.5771749,0,0,2.4586689,96.38591,27.750183)"
     style="fill:#ffffff" /><polygon
     class="st16"
     points="102.1,131.3 126.3,145.2 127.8,144.3 127.1,143.9 130.2,142.1 106.7,128.6 "
     id="polygon17"
     transform="matrix(2.5771749,0,0,2.4586689,96.38591,27.750183)"
     style="fill:#ffffff" /><polygon
     class="st19"
     points=""
     id="polygon19"
     transform="matrix(2.5771749,0,0,2.4586689,96.38591,27.750183)"
     style="fill:#ffffff" /><polygon
     class="st19"
     points="130.7,134.1 113.9,124.5 106.7,128.6 130.2,142.1 130.4,142 130.7,142.2 "
     id="polygon21"
     transform="matrix(2.5771749,0,0,2.4586689,96.38591,27.750183)"
     style="fill:#ffffff" /><polygon
     class="st16"
     points="139.6,139.3 139.5,139.4 139.6,139.4 "
     id="polygon23"
     transform="matrix(2.5771749,0,0,2.4586689,96.38591,27.750183)"
     style="fill:#ffffff" /><polygon
     class="st20"
     points=""
     id="polygon25"
     transform="matrix(2.5771749,0,0,2.4586689,96.38591,27.750183)"
     style="fill:#ffffff" /><polygon
     class="st16"
     points=""
     id="polygon27"
     transform="matrix(2.5771749,0,0,2.4586689,96.38591,27.750183)"
     style="fill:#ffffff" /><polygon
     class="st16"
     points="129.6,72.1 129.6,72.4 129.6,110.8 129.7,111.6 121.2,120.3 121.1,120.3 130.7,125.9 130.7,134.1 130.7,142.2 132.2,143.1 136.5,145.6 136.8,145.8 132.3,143.2 132.3,126.8 132.3,35.6 121.6,41.8 121.6,55 "
     id="polygon29"
     transform="matrix(2.5771749,0,0,2.4586689,96.38591,27.750183)"
     style="fill:#ffffff" /><polygon
     class="st6"
     points="52.9,87 104.1,57.5 104.1,51.9 52.9,81.5 "
     id="polygon31"
     transform="matrix(2.5771749,0,0,2.4586689,96.38591,27.750183)"
     style="fill:#ffffff" /><polygon
     class="st6"
     points="108,49.7 108,55.2 "
     id="polygon33"
     transform="matrix(2.5771749,0,0,2.4586689,96.38591,27.750183)"
     style="fill:#ffffff" /><path
     class="st0"
     d="m 430.38778,204.77434 v 0.98347 l 0.25771,-0.7376 -20.61739,-42.04324 v 7.13014 l -35.3073,19.17762 v -25.81602 0 26.06189 l -10.05098,-20.65282 -131.95136,72.7766 v 8.60534 L 276.015,226.16476 c 1.54631,-1.4752 3.09261,-2.45867 4.89663,-2.45867 6.18522,0 13.91675,11.80162 16.75164,24.34083 1.80402,8.35947 1.03087,14.26028 -0.77315,19.91521 l -1.03087,-1.96693 1.03087,1.96693 -50.77035,28.02883 c 0,0 0,0.24587 0,0.24587 v -0.24587 h -0.25772 v 0.24587 h -0.25771 l 0.25771,-0.24587 -10.56641,-21.39042 -2.57718,-4.91734 v 43.51844 z"
     id="path35"
     style="fill:#ffffff;stroke-width:2.51722" /><polygon
     class="st7"
     points="104.1,57.5 108,65.8 108,55.2 108,49.7 104.1,51.9 "
     id="polygon37"
     transform="matrix(2.5771749,0,0,2.4586689,96.38591,27.750183)"
     style="fill:#ffffff" /><polygon
     class="st8"
     points="121.6,55 121.6,41.8 108,49.7 108,55.2 108,65.7 121.6,57.9 "
     id="polygon39"
     transform="matrix(2.5771749,0,0,2.4586689,96.38591,27.750183)"
     style="fill:#ffffff" /><polygon
     class="st9"
     points="57.9,109.3 58,109.3 58,109.2 "
     id="polygon41"
     transform="matrix(2.5771749,0,0,2.4586689,96.38591,27.750183)"
     style="fill:#ffffff" /><polygon
     class="st9"
     points="53.9,100.5 58,109.2 58.1,109.2 "
     id="polygon43"
     transform="matrix(2.5771749,0,0,2.4586689,96.38591,27.750183)"
     style="fill:#ffffff" /><path
     class="st9"
     d="m 246.37749,276.56748 c 2.06174,8.60534 1.28859,14.99788 -0.25772,19.42348 l 50.77035,-28.02883 -1.03087,-1.96693 -19.84425,-39.83044 c 0,0 0,0 0,0 l -43.29654,24.09496 v 2.45867 c 5.66979,2.9504 11.33957,13.03094 13.65903,23.84909 z"
     id="path45"
     style="fill:#ffffff;stroke-width:2.51722" /><path
     class="st16"
     d="m 296.11696,265.9952 1.03087,1.96693 c 1.80403,-5.65493 2.57718,-11.55574 0.77316,-19.91521 -2.8349,-12.53921 -10.56642,-24.34083 -16.75164,-24.34083 -1.80402,0 -3.35033,0.98347 -4.89663,2.45867 0,0 0,0 0,0 z"
     id="path47"
     style="fill:#ffffff;stroke-width:2.51722" /><path
     class="st16"
     d="m 235.29564,274.84641 10.82413,21.39042 v 0.24586 c 0,0 0,-0.24586 0,-0.24586 1.28859,-4.67147 2.06174,-11.06401 0.25772,-19.42349 -2.57718,-10.81814 -7.98924,-20.89868 -13.65903,-23.60322 v 17.21068 z"
     id="path49"
     style="fill:#ffffff;stroke-width:2.51722" /><polygon
     class="st6"
     points="106.7,128.6 113.9,124.5 121.1,120.3 121.2,120.3 129.7,111.6 129.6,110.8 129.6,111.6 52.9,155.8 52.9,159.7 102.1,131.3 "
     id="polygon51"
     transform="matrix(2.5771749,0,0,2.4586689,96.38591,27.750183)"
     style="fill:#ffffff" /><polygon
     class="st8"
     points="129.6,81 129.6,88 52.9,132.2 52.9,140.1 129.6,96 129.6,102.9 52.9,147.1 52.9,155.8 129.6,111.6 129.6,110.8 129.6,72.4 129.6,72 52.9,116.2 52.9,125.2 "
     id="polygon53"
     transform="matrix(2.5771749,0,0,2.4586689,96.38591,27.750183)"
     style="fill:#ffffff" /><polygon
     class="st10"
     points="129.6,102.9 129.6,96 52.9,140.1 52.9,147.1 "
     id="polygon55"
     transform="matrix(2.5771749,0,0,2.4586689,96.38591,27.750183)"
     style="fill:#ffffff" /><polygon
     class="st10"
     points="129.6,88 129.6,81 52.9,125.2 52.9,132.2 "
     id="polygon57"
     transform="matrix(2.5771749,0,0,2.4586689,96.38591,27.750183)"
     style="fill:#ffffff" /><polygon
     class="st20"
     points="0,172.4 0.1,172.4 "
     id="polygon59"
     transform="matrix(2.5771749,0,0,2.4586689,96.38591,27.750183)"
     style="fill:#ffffff" /><path
     class="st16"
     d="m 214.1628,503.25675 v 0 -40.81391 0 -236.76981 l -23.19457,-12.78508 v 236.76982 l 18.81338,10.32641 v 20.40695 20.40695 l -109.0145,-59.74565 -0.25772,0.24586 v -41.05977 l 16.2362,8.85121 V 172.07405 L 96.38591,161.01004 v 236.76981 0 41.05977 0 12.78508 0 0 l 116.23059,63.92539 1.5463,-2.45867 z M 96.643627,397.77985 Z m -0.257717,41.05977 z m 113.65341,62.20433 z"
     id="path61"
     style="fill:#ffffff;stroke-width:2.51722" /><polygon
     class="st19"
     points="1.7,168.1 44,192.5 44.1,184.2 8.9,163.9 8.9,164 "
     id="polygon63"
     transform="matrix(2.5771749,0,0,2.4586689,96.38591,27.750183)"
     style="fill:#ffffff" /><polygon
     class="st20"
     points=""
     id="polygon65"
     transform="matrix(2.5771749,0,0,2.4586689,96.38591,27.750183)"
     style="fill:#ffffff" /><polygon
     class="st16"
     points=""
     id="polygon67"
     transform="matrix(2.5771749,0,0,2.4586689,96.38591,27.750183)"
     style="fill:#ffffff" /><polygon
     class="st20"
     points="1.7,168.1 8.9,164 8.9,163.9 8.9,155.6 7.9,155 1.7,151.4 "
     id="polygon69"
     transform="matrix(2.5771749,0,0,2.4586689,96.38591,27.750183)"
     style="fill:#ffffff" /><polygon
     class="st20"
     points=""
     id="polygon71"
     transform="matrix(2.5771749,0,0,2.4586689,96.38591,27.750183)"
     style="fill:#ffffff" /><polygon
     class="st20"
     points="0,150.5 0.1,150.5 "
     id="polygon73"
     transform="matrix(2.5771749,0,0,2.4586689,96.38591,27.750183)"
     style="fill:#ffffff" /><polygon
     class="st16"
     points=""
     id="polygon75"
     transform="matrix(2.5771749,0,0,2.4586689,96.38591,27.750183)"
     style="fill:#ffffff" /><polygon
     class="st16"
     points="27.5,166.3 35.7,171.1 35.7,74.8 27.5,70 "
     id="polygon77"
     transform="matrix(2.5771749,0,0,2.4586689,96.38591,27.750183)"
     style="fill:#ffffff" /><polygon
     class="st16"
     points="8.9,155.6 17.2,160.4 17.2,64.1 8.9,59.3 "
     id="polygon79"
     transform="matrix(2.5771749,0,0,2.4586689,96.38591,27.750183)"
     style="fill:#ffffff" /><polygon
     class="st16"
     points="18.2,161 26.5,165.7 26.5,69.4 18.2,64.7 "
     id="polygon81"
     transform="matrix(2.5771749,0,0,2.4586689,96.38591,27.750183)"
     style="fill:#ffffff" /><polygon
     class="st8"
     points="7.9,155 8.9,155.6 8.9,59.3 7.9,58.7 "
     id="polygon83"
     transform="matrix(2.5771749,0,0,2.4586689,96.38591,27.750183)"
     style="fill:#ffffff" /><polygon
     class="st8"
     points="17.2,160.4 18.2,161 18.2,64.7 17.2,64.1 "
     id="polygon85"
     transform="matrix(2.5771749,0,0,2.4586689,96.38591,27.750183)"
     style="fill:#ffffff" /><polygon
     class="st8"
     points="26.5,165.7 27.5,166.3 27.5,70 26.5,69.4 "
     id="polygon87"
     transform="matrix(2.5771749,0,0,2.4586689,96.38591,27.750183)"
     style="fill:#ffffff" /><polygon
     class="st8"
     points="35.7,171.1 36.7,171.7 36.7,75.3 35.7,74.8 "
     id="polygon89"
     transform="matrix(2.5771749,0,0,2.4586689,96.38591,27.750183)"
     style="fill:#ffffff" /><polygon
     class="st19"
     points="4.4,51.7 0,54.2 7.9,58.7 8.9,59.3 17.2,64.1 18.2,64.7 26.5,69.4 27.5,70 35.7,74.8 36.7,75.3 45.7,80.5 50.2,78 132.5,30.3 132.5,30.4 139.6,26.4 93.9,0 88.6,3 4.4,51.7 "
     id="polygon91"
     transform="matrix(2.5771749,0,0,2.4586689,96.38591,27.750183)"
     style="fill:#ffffff" /><polygon
     class="st20"
     points="130.2,142.1 127.1,143.9 127.8,144.3 131,142.5 136.5,145.6 132.2,143.1 130.7,142.2 130.4,142 "
     id="polygon93"
     transform="matrix(2.5771749,0,0,2.4586689,96.38591,27.750183)"
     style="fill:#ffffff" /><polygon
     class="st19"
     points="150.1,159.3 151.1,159.9 152.1,159.4 150.7,158.5 150.7,159 "
     id="polygon95"
     transform="matrix(2.5771749,0,0,2.4586689,96.38591,27.750183)"
     style="fill:#ffffff" /><polygon
     class="st19"
     points="152.5,155.8 155.4,157.5 158.6,155.7 158.7,155.6 139.6,144.6 139.2,144.4 136.8,145.8 136.5,145.6 131,142.5 127.8,144.3 126.3,145.2 55.4,186.2 54.6,185.7 51.4,187.6 53.2,188.6 53.2,187.4 72.7,198.7 150.7,153.6 150.7,154.7 147.4,156.6 149.3,157.7 152.5,155.8 "
     id="polygon97"
     transform="matrix(2.5771749,0,0,2.4586689,96.38591,27.750183)"
     style="fill:#ffffff" /><polygon
     class="st16"
     points=""
     id="polygon99"
     transform="matrix(2.5771749,0,0,2.4586689,96.38591,27.750183)"
     style="fill:#ffffff" /><polygon
     class="st16"
     points="151.1,160 151.1,159.9 150.1,159.3 145.5,162 151.1,165.2 "
     id="polygon101"
     transform="matrix(2.5771749,0,0,2.4586689,96.38591,27.750183)"
     style="fill:#ffffff" /><polygon
     class="st20"
     points="152.1,159.4 151.1,159.9 151.1,160 151.1,165.2 151.1,165.3 156.7,162.1 "
     id="polygon103"
     transform="matrix(2.5771749,0,0,2.4586689,96.38591,27.750183)"
     style="fill:#ffffff" /><polygon
     class="st20"
     points="158.9,159.5 158.9,155.5 158.6,155.7 155.4,157.5 "
     id="polygon105"
     transform="matrix(2.5771749,0,0,2.4586689,96.38591,27.750183)"
     style="fill:#ffffff" /><polygon
     class="st20"
     points="55.4,186.2 54.6,185.7 "
     id="polygon107"
     transform="matrix(2.5771749,0,0,2.4586689,96.38591,27.750183)"
     style="fill:#ffffff" /><path
     class="st20"
     d="m 228.8527,488.99647 8.50468,-4.67147 -4.3812,2.45867 v -34.1755 0 0 0 -32.20856 -9.58881 -21.39042 -17.21068 -19.66936 -17.21068 -22.12802 -43.27257 -17.21068 -2.45867 -8.60534 -13.52268 l 131.69364,-72.53073 10.05098,-5.65494 v 0 l 35.04958,-19.42349 27.57577,-15.24374 v 224.2306 0 40.32217 l 11.33957,6.39254 6.18522,-3.44214 1.03087,0.49174 v 0 -13.27682 0 0 -40.56803 0 0 0 -236.769818 l -18.04023,9.834678 v 0 L 225.76009,219.52636 v 0 l -11.59729,6.39254 v 236.76981 0 40.81391 0 9.83467 l -1.5463,2.45867 -11.33957,19.17762 z M 455.90181,370.48863 Z"
     id="path109"
     style="fill:#ffffff;stroke-width:2.51722" /><polygon
     class="st20"
     points="52.9,194.4 52.9,192.9 53.2,192.5 53.2,188.7 48.5,196.9 "
     id="polygon111"
     transform="matrix(2.5771749,0,0,2.4586689,96.38591,27.750183)"
     style="fill:#ffffff" /><polygon
     class="st20"
     points="46.1,203.6 46.1,201 42.6,207.3 45.8,205.4 46.7,203.9 "
     id="polygon113"
     transform="matrix(2.5771749,0,0,2.4586689,96.38591,27.750183)"
     style="fill:#ffffff" /><polygon
     class="st19"
     points="65.7,209.5 67.8,208.3 70.5,203.5 53.7,193.9 52.9,194.4 48.5,196.9 46.2,198.2 46.4,198.3 "
     id="polygon115"
     transform="matrix(2.5771749,0,0,2.4586689,96.38591,27.750183)"
     style="fill:#ffffff" /><polygon
     class="st16"
     points="46.7,203.9 64.5,214.1 65.6,212.1 65.6,209.5 65.7,209.5 46.4,198.3 46.2,198.2 48.5,196.9 53.2,188.7 53.2,192.5 53.2,192.8 70.8,202.9 72.6,199.8 72.6,198.7 72.7,198.7 53.2,187.4 53.2,188.6 51.4,187.6 40.7,206.2 42.6,207.3 46.1,201 46.1,203.6 "
     id="polygon117"
     transform="matrix(2.5771749,0,0,2.4586689,96.38591,27.750183)"
     style="fill:#ffffff" /><polygon
     class="st20"
     points="75.9,198 77.7,199 74.5,200.9 63.8,219.6 67.1,217.7 70.2,212.3 73.4,210.4 73.4,206.6 75.9,202.2 145.5,162 150.1,159.3 150.7,159 150.7,158.5 147.4,156.6 150.7,154.7 150.7,153.6 72.7,198.7 72.6,198.7 72.6,199.8 70.8,202.9 70.5,203.5 67.8,208.3 65.7,209.5 65.6,209.5 65.6,212.1 64.5,214.1 62,218.5 72.6,199.8 "
     id="polygon119"
     transform="matrix(2.5771749,0,0,2.4586689,96.38591,27.750183)"
     style="fill:#ffffff" /><polygon
     class="st19"
     points="74.5,200.9 77.7,199 75.9,198 72.6,199.8 "
     id="polygon121"
     transform="matrix(2.5771749,0,0,2.4586689,96.38591,27.750183)"
     style="fill:#ffffff" /><polygon
     class="st16"
     points="74.5,200.9 72.6,199.8 62,218.5 63.8,219.6 "
     id="polygon123"
     transform="matrix(2.5771749,0,0,2.4586689,96.38591,27.750183)"
     style="fill:#ffffff" /><polygon
     class="st20"
     points="161.3,161 152.5,155.8 149.3,157.7 159.9,163.9 163.2,162.1 "
     id="polygon125"
     transform="matrix(2.5771749,0,0,2.4586689,96.38591,27.750183)"
     style="fill:#ffffff" /><polygon
     class="st16"
     points="158.9,159.5 155.4,157.5 152.5,155.8 161.3,161 163.2,162.1 "
     id="polygon127"
     transform="matrix(2.5771749,0,0,2.4586689,96.38591,27.750183)"
     style="fill:#ffffff" /><polygon
     class="st16"
     points="159.9,163.9 149.3,157.7 147.4,156.6 150.7,158.5 152.1,159.4 156.7,162.1 158.1,162.9 "
     id="polygon129"
     transform="matrix(2.5771749,0,0,2.4586689,96.38591,27.750183)"
     style="fill:#ffffff" /></g><text
   style="font-weight:bold;font-size:76.5321px;font-family:'Trebuchet MS', Gadget, sans-serif;text-anchor:start;fill:#ffffff;stroke-width:0.425178"
   x="430.25046"
   y="350.85693"
   id="svg_2"
   font-size="180"
   xml:space="preserve"
   font-weight="bold"
   transform="scale(1.0176211,0.98268402)">PREPARACIÓN</text></svg>
