<?xml version="1.0" encoding="UTF-8" standalone="no"?>
<svg
   width="1640"
   height="640"
   preserveAspectRatio="xMidYMid meet"
   version="1.1"
   id="svg43"
   sodipodi:docname="btn_bodega.svg"
   inkscape:version="1.1.2 (b8e25be833, 2022-02-05)"
   xmlns:inkscape="http://www.inkscape.org/namespaces/inkscape"
   xmlns:sodipodi="http://sodipodi.sourceforge.net/DTD/sodipodi-0.dtd"
   xmlns="http://www.w3.org/2000/svg"
   xmlns:svg="http://www.w3.org/2000/svg"
   xmlns:rdf="http://www.w3.org/1999/02/22-rdf-syntax-ns#"
   xmlns:cc="http://creativecommons.org/ns#"
   xmlns:dc="http://purl.org/dc/elements/1.1/">
  <metadata
     id="metadata47">
    <rdf:RDF>
      <cc:Work
         rdf:about="">
        <dc:format>image/svg+xml</dc:format>
        <dc:type
           rdf:resource="http://purl.org/dc/dcmitype/StillImage" />
      </cc:Work>
    </rdf:RDF>
  </metadata>
  <sodipodi:namedview
     pagecolor="#ffffff"
     bordercolor="#666666"
     borderopacity="1"
     objecttolerance="10"
     gridtolerance="10"
     guidetolerance="10"
     inkscape:pageopacity="0"
     inkscape:pageshadow="2"
     inkscape:window-width="1920"
     inkscape:window-height="1009"
     id="namedview45"
     showgrid="false"
     inkscape:pagecheckerboard="true"
     inkscape:zoom="0.47532468"
     inkscape:cx="695.3142"
     inkscape:cy="397.62295"
     inkscape:window-x="-8"
     inkscape:window-y="-8"
     inkscape:window-maximized="1"
     inkscape:current-layer="svg43" />
  <defs
     id="defs8">
    <path
       d="m 440.48999,370.10998 c -0.22,-2.59997 -0.44,-5.07998 -0.66,-7.39999 -0.02,-0.22998 -0.04,-0.45999 -0.09,-0.81998 -3.47,-26.03003 -12.06998,-63.56002 -33.38998,-94.54001 C 391.59,245.89999 373.26001,231.42 351.79999,224.22999 349.59,207.52 336.17001,194.61999 320,194.61999 c -16.17001,0 -29.60001,12.90001 -31.79999,29.62001 -21.46002,7.18 -39.79001,21.65999 -54.55002,43.11 -21.31999,30.97999 -29.92999,68.50998 -33.39,94.54001 0,0.02 -0.02,0.18 -0.03,0.19999 -0.03,0.23001 -0.05,0.45001 -0.06,0.61001 -0.22,2.32999 -0.44,4.81 -0.66001,7.4 -1.51999,17.29 -4.04998,46.22998 -10.86,57.91 -0.11999,0.22 -0.22999,0.42999 -0.39999,0.75 -1.81,3.48999 -5.45,6.91998 -9.31,10.56 -9.48,8.91998 -29.23,27.5 -12.97,59.91998 3.14999,6.27002 9.23,10.17001 15.86999,10.17001 27.63001,0 248.69001,0 276.32001,0 6.63999,0 12.70999,-3.89001 15.87,-10.17001 16.25,-32.41998 -3.48001,-51 -12.95999,-59.91998 -3.87,-3.64002 -7.51001,-7.07001 -9.28,-10.47 -0.13001,-0.28 -0.29001,-0.56 -0.5,-0.94001 -6.75,-11.58999 -9.28,-40.51998 -10.80002,-57.80001 z"
       id="bK0p2uvp"
       inkscape:connector-curvature="0" />
    <path
       d="m 278.95001,557.81 c 0,0.02 0.03,0.22998 0.04,0.25 3.48001,21.40002 20.71002,36.94 40.97,36.94 20.64002,0 38.35001,-16.53003 41.19,-38.40997 0.01,-0.05 0.06,-0.33002 0.06,-0.37006 0.35001,-1.97998 1.17001,-6.63995 -1.88998,-10.60998 -1.10001,-1.41999 -3.58002,-3.79999 -7.94,-3.79999 -12.77002,0 -57.52002,0 -63.92002,0 -2.63,0 -5.08999,1.22998 -6.76999,3.38 -3.14999,4.02997 -2.26999,9.40003 -1.73999,12.62 z"
       id="bNO4NYQjY"
       inkscape:connector-curvature="0" />
    <path
       d="m 45.040001,204.84 c -0.790001,14.11 9.219997,26.25 22.360001,27.1 0.489998,0.03 0.979996,0.04 1.470001,0.04 12.509995,0 23.009995,-10.47001 23.769997,-24.05001 1.550003,-27.53999 11.43,-52.93998 28.59,-73.45999 17.33,-20.76 40.02999,-34.1 65.64,-38.599997 13,-2.290001 21.80999,-15.450005 19.68,-29.400002 C 204.42,52.52 192.17,43.049999 179.17,45.34 143.24001,51.66 110.06,71.169998 85.730004,100.28 61.32,129.5 47.250001,165.66 45.040002,204.84 Z"
       id="b13TAlwba"
       inkscape:connector-curvature="0" />
    <path
       d="M 247,154.59 C 244.86999,140.63 232.61999,131.17 219.61999,133.46001 195.49,137.7 173.2,150.81 156.86999,170.36 140.7,189.7 131,214.63 129.55,240.58 c -0.8,14.11 9.20999,26.24001 22.36,27.09001 0.48999,0.04 0.97,0.05 1.46,0.05 12.5,0 23.01,-10.47 23.77999,-24.06 C 177.97,229 183.23,215.47 192.37,204.53999 201.60001,193.49 213.69,186.38 227.33,183.99 c 12.99001,-2.29 21.8,-15.45001 19.67,-29.4 z"
       id="aoSC4RGgQ"
       inkscape:connector-curvature="0" />
    <path
       d="m 433.45001,66.470001 c -2.13,13.949997 6.68,27.110001 19.68,29.400002 C 478.73001,100.37 501.44,113.71 518.77002,134.47 535.92999,155 545.81,180.39999 547.35999,207.92999 548.12,221.50999 558.62,231.99 571.13001,231.99 c 0.48999,0 0.97998,-0.02 1.46997,-0.05 13.14001,-0.85 23.15002,-12.99 22.36004,-27.1 C 592.75,165.66 578.67999,129.5 554.27002,100.27 529.94,71.169998 496.76001,51.659999 460.82999,45.34 c -12.97998,-2.290001 -25.25,7.18 -27.37998,21.130001 z"
       id="c39Bz9s55"
       inkscape:connector-curvature="0" />
    <path
       d="m 412.67001,183.99 c 13.63999,2.39 25.72998,9.5 34.95999,20.54999 9.13999,10.93001 14.4,24.46001 15.22,39.12001 0.76999,13.59 11.26999,24.06 23.78,24.06 0.47998,0 0.97,-0.01 1.45999,-0.05 13.14002,-0.85 23.15,-12.97001 22.36002,-27.09001 C 509,214.64 499.29001,189.7 483.13,170.36 466.79999,150.81 444.51001,137.7 420.38,133.46001 407.38,131.17 395.13,140.63 393,154.59 c -2.13001,13.94999 6.67999,27.11 19.67001,29.4 z"
       id="b2Yga5sQsb"
       inkscape:connector-curvature="0" />
  </defs>
  <text
     style="font-weight:bold;font-size:180px;font-family:'Trebuchet MS', Gadget, sans-serif;text-anchor:start;fill:#ffffff"
     x="796"
     y="384"
     id="svg_2"
     font-size="180"
     xml:space="preserve"
     font-weight="bold">BODEGA</text>
  <g
     id="g32"
     transform="matrix(1.2887351,0,0,1.3666708,132.31739,22.902604)">
    <g
       id="g30">
      <polygon
         style="fill:#ffffff"
         points="265.725,295.461 265.725,320.54 309.215,310.643 309.215,285.564 "
         id="polygon2" />
      <path
         style="fill:#ffffff"
         d="m 309.215,48.781 c -16.043,0.183 -30.924,1.187 -43.49,2.796 v 24.088 l 43.49,-9.896 z"
         id="path4" />
      <polygon
         style="fill:#ffffff"
         points="265.725,173.063 265.725,198.062 309.215,188.166 309.215,163.167 "
         id="polygon6" />
      <polygon
         style="fill:#ffffff"
         points="265.725,91.411 265.725,116.492 309.215,106.595 309.215,81.514 "
         id="polygon8" />
      <polygon
         style="fill:#ffffff"
         points="265.725,132.238 265.725,157.316 309.215,147.42 309.215,122.341 "
         id="polygon10" />
      <polygon
         style="fill:#ffffff"
         points="265.725,254.635 265.725,279.713 309.215,269.816 309.215,244.738 "
         id="polygon12" />
      <polygon
         style="fill:#ffffff"
         points="265.725,213.889 265.725,238.887 309.215,228.991 309.215,203.995 "
         id="polygon14" />
      <polygon
         style="fill:#ffffff"
         points="50.287,267.579 50.287,285.978 82.3,278.693 82.3,260.293 "
         id="polygon16" />
      <polygon
         style="fill:#ffffff"
         points="50.287,297.569 50.287,316.03 82.3,308.744 82.3,290.284 "
         id="polygon18" />
      <path
         style="fill:#ffffff"
         d="m 82.3,146.16 c -12.213,0.886 -23.121,2.275 -32.014,4.037 v 15.632 L 82.3,158.545 Z"
         id="path20" />
      <polygon
         style="fill:#ffffff"
         points="50.287,237.524 50.287,255.924 82.3,248.641 82.3,230.24 "
         id="polygon22" />
      <polygon
         style="fill:#ffffff"
         points="50.287,177.42 50.287,195.879 82.3,188.594 82.3,170.135 "
         id="polygon24" />
      <polygon
         style="fill:#ffffff"
         points="50.287,207.472 50.287,225.933 82.3,218.649 82.3,200.189 "
         id="polygon26" />
      <path
         style="fill:#ffffff"
         d="M 401.93,343.879 C 401.949,264.338 402,65.618 402,65.43 402,56.529 365.418,49.257 319.354,48.776 V 343.88 h -10.139 v -17.487 l -43.49,9.896 v 7.594 h -10.14 V 53.094 c -17.578,3.05 -28.61,7.448 -28.61,12.335 0,0.188 0.081,198.91 0.116,278.449 h -26.277 c 0.023,-59.871 0.072,-181.941 0.072,-182.121 0,-9.214 -39.18,-16.681 -87.514,-16.681 -8.182,0 -16.098,0.215 -23.609,0.615 V 343.878 H 59.97 l 22.33,-5.08 v -18.461 l -32.014,7.283 v 16.258 H 42.825 V 151.886 c -10.664,2.766 -16.965,6.179 -16.965,9.871 0,0.179 0.072,122.25 0.107,182.121 H 0 v 34.897 h 427.551 v -34.896 z"
         id="path28" />
    </g>
  </g>
</svg>
