<?xml version="1.0" encoding="UTF-8" standalone="no"?>
<!-- Generator: Adobe Illustrator 23.0.3, SVG Export Plug-In . SVG Version: 6.00 Build 0)  -->

<svg
   version="1.1"
   x="0px"
   y="0px"
   viewBox="0 0 134.8 136.8"
   style="enable-background:new 0 0 134.8 136.8;"
   xml:space="preserve"
   id="svg224"
   sodipodi:docname="decanter_normal.svg"
   inkscape:version="1.1.2 (b8e25be833, 2022-02-05)"
   xmlns:inkscape="http://www.inkscape.org/namespaces/inkscape"
   xmlns:sodipodi="http://sodipodi.sourceforge.net/DTD/sodipodi-0.dtd"
   xmlns="http://www.w3.org/2000/svg"
   xmlns:svg="http://www.w3.org/2000/svg"><defs
   id="defs228">
	
	

		
		
		
		
		
		
		
		
		
		
		
		
		
		
		
		
		
	
			
			
			
		
			
			
			
		
			
		
			
			
		
			
			
			
			
			
			
			
			
		
			
			
			
		
			
		
			
		
			
			
			
		
			
			
			
		
				
				
				
				
				
			
				
				
			
				
			
				
				
				
			
				
				
				
			
				
				
				
			
				
				
			
				
				
				
			
				
			
				
			
				
			</defs><sodipodi:namedview
   id="namedview226"
   pagecolor="#ffffff"
   bordercolor="#999999"
   borderopacity="1"
   inkscape:pageshadow="0"
   inkscape:pageopacity="0"
   inkscape:pagecheckerboard="0"
   showgrid="false"
   inkscape:zoom="4.2540122"
   inkscape:cx="93.911343"
   inkscape:cy="63.234421"
   inkscape:window-width="1920"
   inkscape:window-height="1009"
   inkscape:window-x="1912"
   inkscape:window-y="-8"
   inkscape:window-maximized="1"
   inkscape:current-layer="svg224" />
<style
   type="text/css"
   id="style2">
	.st0{fill:#FFFFFF;}
	.st1{fill:none;stroke:#808080;stroke-width:0.1065;stroke-miterlimit:10;}
	.st2{fill:#BFC9E8;}
	.st3{fill:#9FABD8;}
	.st4{fill:#3458A3;}
	.st5{enable-background:new    ;}
	.st6{fill:#CC5261;}
	.st7{fill:#BD1622;}
	.st8{fill:#4C4C4C;}
	.st9{fill:#676767;}
	.st10{fill:#D94B94;}
	.st11{fill:#E47DAE;}
	.st12{fill:#F39A00;}
	.st13{fill:#FBC165;}
	.st14{fill:#80A1D4;}
	.st15{fill:#DA6CA6;}
	.st16{fill:#F2F1F1;}
	.st17{fill:#E7E6E6;}
	.st18{fill:#D9D9D9;}
	.st19{fill:#868686;}
	.st20{fill:#6ABA82;}
	.st21{fill:#31AA59;}
</style>

<g
   id="g4802"><g
     id="Capa_2">
</g><polygon
     class="st2"
     points="38.1,119.8 36.5,118.8 30.5,122.2 32.2,123.2 "
     id="polygon5"
     style="fill:#ffffff" /><polygon
     class="st3"
     points="6.8,67.9 86.1,22.2 86.1,42 6.8,87.7 "
     id="polygon7"
     style="fill:#ffffff" /><polygon
     class="st2"
     points="86.1,22.2 6.8,67.9 3.7,64.9 83,19.2 "
     id="polygon9"
     style="fill:#ffffff" /><polygon
     class="st4"
     points="84.8,23 84.8,43.7 124.9,66.9 124.9,46.1 "
     id="polygon13"
     style="fill:#ffffff" /><polygon
     class="st4"
     points="125.3,46.4 125.3,87.5 130.1,90.3 130.1,49.1 "
     id="polygon15"
     style="fill:#ffffff" /><polygon
     class="st2"
     points="134.8,46.4 130.1,49.1 125.3,46.4 130,43.6 "
     id="polygon17" /><polygon
     class="st3"
     points="9.5,67 9.5,108.2 4.7,111 4.7,69.8 "
     id="polygon21"
     style="fill:#ffffff" /><polygon
     class="st4"
     points="0,67 0,108.2 4.8,111 4.8,69.8 "
     id="polygon23"
     style="fill:#ffffff" /><polygon
     class="st2"
     points="9.5,67.1 4.8,69.8 0,67.1 4.7,64.3 "
     id="polygon25" /><polygon
     class="st2"
     points="80.6,20.6 130,49.2 134.8,46.4 85.3,17.8 "
     id="polygon29"
     style="fill:#ffffff" /><path
     class="st16"
     d="M 115.5,41.1 C 115.3,34.3 113,27.5 109.8,21.5 106.5,15.4 102.1,9.7 96.6,5.5 92.1,2.1 86.1,-0.9 80.3,0.2 78.3,0.6 76.6,1.6 74.9,2.6 72,4.3 63,9.4 62.9,9.4 66.8,7.1 71.1,8.3 75.2,10 c 5.2,2.1 9.6,5.9 13.2,10 7,8 12.1,18.6 12.5,29.3 0.2,5.8 -0.4,12 -5.8,15.1 7.6,-4.4 13.2,-7.5 14,-8 5.2,-3.2 6.5,-9.7 6.4,-15.3 z"
     id="path31"
     style="fill:#f0f0f0;fill-opacity:1" /><g
     id="g35"
     style="fill:#e6e6e6;fill-opacity:1">
					<path
   class="st17"
   d="m 79.2,10.7 c 12.5,7.2 22.8,25 22.8,39.4 0,14.3 -10.4,20 -22.9,12.8 C 66.6,55.7 56.5,38.2 56.6,23.9 56.6,9.5 66.7,3.5 79.2,10.7 Z"
   id="path33"
   style="fill:#e6e6e6;fill-opacity:1" />
				</g><path
     class="st0"
     d="M 98.4,48 C 98.2,41.9 96.2,35.9 93.4,30.6 90.5,25.2 86.6,20.1 81.6,16.4 c -4,-3.1 -9.3,-5.7 -14.5,-4.7 -1.8,0.4 -3.2,1.3 -4.7,2.1 -5.1,3 -10.3,6 -15.4,9 -6.8,3.9 -13.5,7.9 -20.3,11.8 -3.9,2.3 -7.8,4.5 -11.7,6.8 -0.1,0 -0.1,0.1 -0.2,0.1 3.5,-2 5.8,-0.4 9.3,1.1 4.6,1.9 8.5,5.2 11.8,8.9 6.2,7.1 10.7,16.5 11.1,26 0.2,5.1 1,10.1 -3.8,12.9 6.7,-3.9 13.5,-7.8 20.2,-11.7 9,-5.3 18.1,-10.5 27.1,-15.8 0.8,-0.4 1.6,-0.9 2.3,-1.4 4.5,-2.8 5.7,-8.5 5.6,-13.5 z"
     id="path41" /><g
     id="g45"
     style="fill:#f0f0f0;fill-opacity:1">
					<path
   class="st17"
   d="M 29,42.7 C 40.1,49.1 49.3,65 49.2,77.7 49.2,90.4 40,95.5 28.9,89.1 17.8,82.7 8.8,67.2 8.9,54.4 8.9,41.6 17.9,36.3 29,42.7 Z"
   id="path43"
   style="fill:#f0f0f0;fill-opacity:1" />
				</g><polygon
     class="st2"
     points="40.8,107.3 51.1,113.3 131.6,66.8 121.3,60.8 "
     id="polygon51"
     style="fill:#ffffff" /><polygon
     class="st3"
     points="125.3,63.3 46,109 46,92.2 125.3,46.5 "
     id="polygon53"
     style="fill:#ffffff" /><polygon
     class="st2"
     points="42.9,89.2 122.2,43.5 125.3,46.5 46,92.2 "
     id="polygon55"
     style="fill:#ffffff" /><g
     id="g65"
     style="fill:#f0f0f0;fill-opacity:1">
					<polygon
   class="st8"
   points="64.3,98.1 68.3,95.8 72.3,98.1 68.4,100.4 "
   id="polygon59"
   style="fill:#f0f0f0;fill-opacity:1" />
					<polygon
   class="st9"
   points="68.3,101.3 68.4,100.4 72.3,98.1 72.3,99 "
   id="polygon61"
   style="fill:#f0f0f0;fill-opacity:1" />
					<polygon
   points="68.3,101.3 64.3,99 64.3,98.1 68.4,100.4 "
   id="polygon63"
   style="fill:#f0f0f0;fill-opacity:1" />
				</g><g
     id="g77"
     style="fill:#f0f0f0;fill-opacity:1">
					<g
   id="g75"
   style="fill:#f0f0f0;fill-opacity:1">
						<g
   class="st5"
   id="g73"
   style="fill:#f0f0f0;fill-opacity:1">
							<g
   id="g71"
   style="fill:#f0f0f0;fill-opacity:1">
								<path
   class="st10"
   d="m 71.2,95 c 0,0.4 -0.3,0.8 -0.8,1 -1.1,0.6 -2.9,0.7 -4.1,0 -0.5,-0.3 -0.7,-0.6 -0.8,-1 v 0 2.5 c 0,0.1 0,0.2 0,0.3 v 0 0 c 0.1,0.4 0.3,0.7 0.8,1 1.1,0.6 2.9,0.6 4,0 0.5,-0.3 0.8,-0.7 0.8,-1.1 v 0 -0.2 z"
   id="path67"
   style="fill:#f0f0f0;fill-opacity:1" />
								<path
   class="st11"
   d="m 70.3,93.7 c -1.1,-0.6 -2.9,-0.6 -4,0 -0.6,0.4 -0.9,0.9 -0.8,1.4 0.1,0.4 0.3,0.7 0.8,1 1.1,0.6 2.9,0.6 4.1,0 0.5,-0.3 0.8,-0.7 0.8,-1 0,-0.5 -0.3,-1 -0.9,-1.4"
   id="path69"
   style="fill:#f0f0f0;fill-opacity:1" />
							</g>
						</g>
					</g>
				</g><g
     id="g85"
     style="fill:#f0f0f0;fill-opacity:1">
					<polygon
   class="st8"
   points="58.9,101.2 62.9,99 66.9,101.3 62.9,103.6 "
   id="polygon79"
   style="fill:#f0f0f0;fill-opacity:1" />
					<polygon
   class="st9"
   points="62.9,104.5 62.9,103.6 66.9,101.3 66.9,102.2 "
   id="polygon81"
   style="fill:#f0f0f0;fill-opacity:1" />
					<polygon
   points="62.9,104.5 58.9,102.1 58.9,101.2 62.9,103.6 "
   id="polygon83"
   style="fill:#f0f0f0;fill-opacity:1" />
				</g><g
     id="g97"
     style="fill:#f0f0f0;fill-opacity:1">
					<g
   id="g95"
   style="fill:#f0f0f0;fill-opacity:1">
						<g
   class="st5"
   id="g93"
   style="fill:#f0f0f0;fill-opacity:1">
							<g
   id="g91"
   style="fill:#f0f0f0;fill-opacity:1">
								<path
   class="st12"
   d="m 65.7,98.2 c 0,0.4 -0.3,0.8 -0.8,1 -1.1,0.6 -2.9,0.7 -4.1,0 -0.5,-0.3 -0.7,-0.6 -0.8,-1 v 0 2.5 c 0,0.1 0,0.2 0,0.3 v 0 0 c 0.1,0.4 0.3,0.7 0.8,1 1.1,0.6 2.9,0.6 4,0 0.5,-0.3 0.8,-0.7 0.8,-1.1 v 0 -0.2 z"
   id="path87"
   style="fill:#f0f0f0;fill-opacity:1" />
								<path
   class="st13"
   d="m 64.9,96.9 c -1.1,-0.6 -2.9,-0.6 -4,0 -0.6,0.4 -0.9,0.9 -0.8,1.4 0.1,0.4 0.3,0.7 0.8,1 1.1,0.6 2.9,0.6 4.1,0 0.5,-0.3 0.8,-0.7 0.8,-1 0,-0.6 -0.3,-1.1 -0.9,-1.4"
   id="path89"
   style="fill:#f0f0f0;fill-opacity:1" />
							</g>
						</g>
					</g>
				</g><g
     id="g119"
     style="fill:#f0f0f0;fill-opacity:1">
					<g
   id="g105"
   style="fill:#f0f0f0;fill-opacity:1">
						<polygon
   class="st8"
   points="53.3,104.4 57.3,102.2 61.3,104.5 57.3,106.7 "
   id="polygon99"
   style="fill:#f0f0f0;fill-opacity:1" />
						<polygon
   class="st9"
   points="57.3,107.6 57.3,106.7 61.3,104.5 61.3,105.3 "
   id="polygon101"
   style="fill:#f0f0f0;fill-opacity:1" />
						<polygon
   points="57.3,107.6 53.3,105.3 53.3,104.4 57.3,106.7 "
   id="polygon103"
   style="fill:#f0f0f0;fill-opacity:1" />
					</g>
					<g
   id="g117"
   style="fill:#f0f0f0;fill-opacity:1">
						<g
   id="g115"
   style="fill:#f0f0f0;fill-opacity:1">
							<g
   class="st5"
   id="g113"
   style="fill:#f0f0f0;fill-opacity:1">
								<g
   id="g111"
   style="fill:#f0f0f0;fill-opacity:1">
									<path
   class="st4"
   d="m 60.1,101.4 c 0,0.4 -0.3,0.8 -0.8,1 -1.1,0.6 -2.9,0.7 -4.1,0 -0.5,-0.3 -0.7,-0.6 -0.8,-1 v 0 2.5 c 0,0.1 0,0.2 0,0.3 v 0 0 c 0.1,0.4 0.3,0.7 0.8,1 1.1,0.6 2.9,0.6 4,0 0.5,-0.3 0.8,-0.7 0.8,-1.1 v 0 -0.2 z"
   id="path107"
   style="fill:#f0f0f0;fill-opacity:1" />
									<path
   class="st14"
   d="m 59.3,100.1 c -1.1,-0.6 -2.9,-0.6 -4,0 -0.6,0.4 -0.9,0.9 -0.8,1.4 0.1,0.4 0.3,0.7 0.8,1 1.1,0.6 2.9,0.6 4.1,0 0.5,-0.3 0.8,-0.7 0.8,-1 0,-0.6 -0.3,-1.1 -0.9,-1.4"
   id="path109"
   style="fill:#f0f0f0;fill-opacity:1" />
								</g>
							</g>
						</g>
					</g>
				</g><polygon
     class="st3"
     points="130.1,71 54.1,114.9 54.1,109.9 130.1,66 "
     id="polygon123"
     style="fill:#ffffff" /><polygon
     class="st8"
     points="94.9,80.5 98.9,78.2 102.9,80.5 98.9,82.8 "
     id="polygon125"
     style="fill:#f0f0f0;fill-opacity:1" /><polygon
     class="st9"
     points="98.9,83.7 98.9,82.8 102.9,80.5 102.9,81.4 "
     id="polygon127"
     style="fill:#f0f0f0;fill-opacity:1" /><polygon
     points="98.9,83.7 94.9,81.4 94.9,80.5 98.9,82.8 "
     id="polygon129"
     style="fill:#f0f0f0;fill-opacity:1" /><polygon
     class="st11"
     points="90,83.2 93.9,81 97.9,83.3 94,85.5 "
     id="polygon133"
     style="fill:#f0f0f0;fill-opacity:1" /><polygon
     class="st15"
     points="94,86.4 94,85.5 97.9,83.3 97.9,84.1 "
     id="polygon135"
     style="fill:#f0f0f0;fill-opacity:1" /><polygon
     class="st10"
     points="94,86.4 90,84.1 90,83.2 94,85.5 "
     id="polygon137"
     style="fill:#f0f0f0;fill-opacity:1" /><polygon
     class="st0"
     points="85.2,86.1 89.1,83.8 93.1,86.1 89.2,88.4 "
     id="polygon141"
     style="fill:#f0f0f0;fill-opacity:1" /><polygon
     class="st16"
     points="89.2,89.3 89.2,88.4 93.1,86.1 93.1,87 "
     id="polygon143" /><polygon
     class="st17"
     points="89.2,89.3 85.2,86.9 85.2,86.1 89.2,88.4 "
     id="polygon145"
     style="fill:#f0f0f0;fill-opacity:1" /><polygon
     class="st4"
     points="44.9,113.8 44.9,93 4.7,69.9 4.7,90.6 "
     id="polygon151"
     style="fill:#ffffff" /><polygon
     class="st3"
     points="49.5,136.8 49.5,95.6 54.2,92.9 54.2,134.1 "
     id="polygon153"
     style="fill:#ffffff" /><polygon
     class="st4"
     points="49.5,136.8 49.5,95.6 44.7,92.9 44.7,134.1 "
     id="polygon155"
     style="fill:#ffffff" /><polygon
     class="st2"
     points="44.7,92.9 49.5,90.2 54.2,92.9 49.5,95.6 "
     id="polygon157" /><polygon
     class="st2"
     points="54.2,92.9 4.7,64.3 0,67.1 49.5,95.7 "
     id="polygon161"
     style="fill:#ffffff" /><g
     class="st5"
     id="g171"
     style="fill:#ffffff">
					<path
   class="st2"
   d="m 31.5,93.7 c 0,-1.6 -0.6,-3.1 -1.3,-4.5 -0.8,-1.4 -1.8,-2.7 -3.1,-3.7 -1,-0.8 -2.4,-1.5 -3.8,-1.2 -0.5,0.1 -0.8,0.3 -1.2,0.6 -1.3,0.8 -3.8,2.2 -3.8,2.2 0.9,-0.5 2,-0.4 3,0 1.2,0.5 2.2,1.4 3.1,2.3 1.6,1.8 2.8,4.3 2.9,6.8 0.1,1.3 -0.3,2.9 -1.5,3.6 1.7,-1 1.4,-0.8 3.7,-2.2 0.2,-0.1 0.4,-0.2 0.6,-0.4 1.1,-0.7 1.4,-2.2 1.4,-3.5 z"
   id="path165"
   style="fill:#ffffff" />
					<g
   id="g169"
   style="fill:#ffffff">
						<path
   class="st2"
   d="m 22,87.4 c 2.9,1.7 5.3,5.8 5.3,9.1 0,3.3 -2.4,4.6 -5.3,3 -2.9,-1.7 -5.2,-5.7 -5.2,-9 0,-3.4 2.3,-4.8 5.2,-3.1 z"
   id="path167"
   style="fill:#ffffff" />
					</g>
				</g><g
     class="st5"
     id="g181"
     style="fill:#ffffff">
					<path
   class="st3"
   d="m 29,96.4 c -0.1,-1.9 -0.7,-3.8 -1.6,-5.5 -0.9,-1.7 -2.2,-3.3 -3.7,-4.5 -1.3,-1 -2.9,-1.8 -4.6,-1.5 -0.6,0.1 -1,0.4 -1.5,0.7 -1.6,0.9 -4.6,2.7 -4.6,2.7 1.1,-0.6 2.4,-0.5 3.6,0 1.4,0.6 2.7,1.6 3.7,2.8 2,2.2 3.4,5.2 3.5,8.2 0.1,1.6 -0.3,3.5 -1.8,4.4 2.1,-1.2 1.7,-1 4.5,-2.6 0.2,-0.1 0.5,-0.3 0.7,-0.4 1.5,-1 1.9,-2.8 1.8,-4.3 z"
   id="path175"
   style="fill:#ffffff" />
					<g
   id="g179"
   style="fill:#ffffff">
						<path
   class="st3"
   d="m 17.5,88.7 c 3.5,2 6.4,7 6.4,11 0,4 -2.9,5.6 -6.4,3.6 -3.5,-2 -6.3,-6.9 -6.3,-10.9 0,-4.1 2.8,-5.7 6.3,-3.7 z"
   id="path177"
   style="fill:#ffffff" />
					</g>
				</g><g
     class="st5"
     id="g191"
     style="fill:#ffffff">
					<path
   class="st2"
   d="m 21.9,99.3 c 0,-1.6 -0.6,-3.1 -1.3,-4.5 -0.8,-1.4 -1.8,-2.7 -3.1,-3.7 -1,-0.8 -2.4,-1.5 -3.8,-1.2 -0.5,0.1 -0.8,0.3 -1.2,0.6 -1.3,0.8 -3.8,2.2 -3.8,2.2 0.9,-0.5 2,-0.4 3,0 1.2,0.5 2.2,1.4 3.1,2.3 1.6,1.8 2.8,4.3 2.9,6.8 0.1,1.3 -0.3,2.9 -1.5,3.6 1.7,-1 1.4,-0.8 3.7,-2.2 0.2,-0.1 0.4,-0.2 0.6,-0.4 1.1,-0.7 1.4,-2.2 1.4,-3.5 z"
   id="path185"
   style="fill:#ffffff" />
					<g
   id="g189"
   style="fill:#ffffff">
						<path
   class="st4"
   d="m 12.4,93 c 2.9,1.7 5.3,5.8 5.3,9.1 0,3.3 -2.4,4.6 -5.3,3 -2.9,-1.7 -5.2,-5.7 -5.2,-9 0,-3.4 2.3,-4.8 5.2,-3.1 z"
   id="path187"
   style="fill:#ffffff" />
					</g>
				</g><polygon
     class="st3"
     points="39.6,105 39.6,118.8 38,119.8 38,105.9 "
     id="polygon197"
     style="fill:#ffffff" /><polygon
     class="st17"
     points="36.4,105 36.4,118.8 38,119.8 38,105.9 "
     id="polygon199"
     style="fill:#ffffff" /><polygon
     class="st2"
     points="39.6,105 38,105.9 36.4,105 38,104.1 "
     id="polygon201" /><polygon
     class="st3"
     points="44.2,97.1 44.2,108.1 41.4,109.7 41.4,98.7 "
     id="polygon205"
     style="fill:#ffffff" /><polygon
     class="st17"
     points="33.4,94 33.4,105 41.5,109.7 41.5,98.7 "
     id="polygon207"
     style="fill:#ffffff" /><polygon
     class="st2"
     points="44.2,97.1 41.5,98.7 33.4,94 36.2,92.4 "
     id="polygon209"
     style="fill:#ffffff" /><polygon
     class="st2"
     points="26.9,123.8 31.7,121.1 36.4,123.8 31.7,126.6 "
     id="polygon213"
     style="fill:#ffffff" /><polygon
     class="st3"
     points="32.2,123.2 39.6,118.8 39.6,120.5 32.2,124.9 "
     id="polygon215"
     style="fill:#ffffff" /><polygon
     class="st17"
     points="30.7,122.3 30.7,124 32.2,124.9 32.2,123.2 "
     id="polygon217"
     style="fill:#ffffff" /><polygon
     class="st3"
     points="134.8,46.4 134.8,87.5 130,90.3 130,49.1 "
     id="polygon221"
     style="fill:#ffffff" /></g>
</svg>
