<svg width="640" height="640" xmlns="http://www.w3.org/2000/svg" xmlns:xlink="http://www.w3.org/1999/xlink" preserveAspectRatio="xMidYMid meet">
 <defs>
  <path id="cE6Zx8PcR" d="m202.279999,64.150002c-1.520004,3.5 -1.869995,9.32 -1.869995,28.900002c0,1.629997 0,9.789993 0,24.469994l26.220001,0l26.220001,0c0,-14.68 0,-22.839996 0,-24.469994c0,-26.690002 -0.580002,-30.070004 -6.76001,-36.470001c-6.179993,-6.530003 -17.25,-10.030003 -25.289993,-7.93c-8.5,2.219997 -15.380005,7.93 -18.520004,15.5z"/>
  <path id="c14LSSc4h1" d="m291.649994,61.349998c-3.259979,5.480003 -3.259979,5.599998 -3.609985,30.770004c-0.02002,1.689995 -0.140015,10.159996 -0.350006,25.399994l26.799988,0l26.920013,0c0,-14.189995 0,-22.079994 0,-23.659996c-0.119995,-25.279999 -0.700012,-29.010002 -6.290009,-36.240002c-5.709991,-7.57 -18.880005,-11.529999 -28.320007,-8.389999c-6.98999,2.220001 -11.539978,5.950001 -15.149994,12.119999z"/>
  <path id="eqt1vuvid" d="m378.230011,64.150002c-1.51001,3.5 -1.860016,9.32 -1.860016,28.900002c0,1.629997 0,9.789993 0,24.469994l26.209991,0l26.220001,0c0,-14.68 0,-22.839996 0,-24.469994c0,-26.690002 -0.579987,-30.070004 -6.759979,-36.470001c-6.170013,-6.530003 -17.240021,-10.030003 -25.279999,-7.93c-8.51001,2.219997 -15.380005,7.93 -18.529999,15.5z"/>
  <path id="h1xnoRUC0v" d="m146.929993,160.279999c-0.819992,2.800003 -1.279999,22.490005 -1.279999,54.190002c0,3.319992 0,19.949997 0,49.869995l20.389999,0l20.389999,0c0,-18.809998 0,-29.25 0,-31.339996c0,-30.529999 0.12001,-31.350006 2.680008,-35.080002c1.399994,-2.099991 4.080002,-5.009995 5.830002,-6.289993c3.139999,-2.330002 4.889999,-2.450012 37.050003,-2.800003c2.25,-0.020004 13.470001,-0.139999 33.680008,-0.350006l0,-22.019989l0,-22.139999c-30.210007,0 -46.990021,0 -50.340012,0c-40.440002,0.119995 -51.389999,0.469986 -55.119995,1.75c-5.830002,2.089996 -11.650009,8.269989 -13.280014,14.209991z"/>
  <path id="b2mvBiEkrA" d="m281.859985,197.800003c-5.009979,8.979996 -4.539978,8.860001 -42.639984,9.209991c-2.270004,0.020004 -13.610001,0.139999 -34.029999,0.350006c-0.210007,19.160004 -0.330002,29.800003 -0.350006,31.929993c-0.349991,30.060013 -0.470001,32.039993 -2.800003,35.069992c-5.819992,7.810028 -6.519989,8.040009 -32.619995,8.390015c-1.589996,0.029999 -9.509995,0.140015 -23.770004,0.350006l0,30.880005l0,30.759979c43.410004,0 67.529999,0 72.360001,0c50.569992,0 73.060013,-0.349976 74.810013,-1.279999c3.609985,-1.859985 27.5,-25.519989 29.47998,-29.25c1.050018,-2.089996 1.630005,-6.98999 1.630005,-15.259979c0,-18.880005 0.700012,-20.390015 21.440002,-41.370026c24.119995,-24.469986 22.959991,-23.999985 55.820007,-24.469986c1.679993,-0.029999 10.109985,-0.180008 25.279999,-0.460007l0,-44.169998l0,-44.159988l-30.76001,0l-30.759979,0c-0.279999,13.069992 -0.440002,20.339996 -0.470001,21.789993c-0.350006,21.210007 -0.470001,22.139999 -3.5,27.729996c-2.089996,3.960007 -13.400024,16.080002 -35.650024,38.339996c-2.169983,2.160004 -13.009979,12.960007 -32.509979,32.390015c0.910004,1.959991 1.410004,3.049988 1.509979,3.269989c4.550018,9.089996 4.080017,23.070007 -1.159973,31.920013c-12.350006,20.75 -39.160019,25.169983 -55.820007,9.089996c-7.920013,-7.570007 -10.490005,-13.279999 -11.070007,-24.230011c-0.459991,-8.279999 -0.119995,-10.369995 2.330002,-15.850006c4.080002,-8.73999 9.210007,-14.219986 17.479996,-18.409988c5.940002,-2.919998 8.51001,-3.5 15.380005,-3.5c5.600006,0 9.910004,0.819992 13.049988,2.220001c0.320007,0.139999 1.910004,0.880005 4.779999,2.209991l33.090027,-33.089996l33.099976,-33.099991l0.350006,-20.389999l0.350006,-20.389999l-30.880005,0l-31,0l0,24.589996c-0.149994,16.619995 -0.970001,26.25 -2.450012,28.889999z"/>
  <path id="a3jNkynn94" d="m442.790009,242.080002c-1.290009,2.569992 -4.200012,5.830002 -6.649994,7.229996c-4.190002,2.680008 -5.590027,2.800003 -32.040009,3.380005c-1.850006,0.039993 -11.089996,0.229996 -27.730011,0.580002l-16.549988,16.659988l-16.660004,16.550018c-0.350006,8.949982 -0.550018,13.919983 -0.589996,14.919983c-0.580017,11.880005 -1.160004,15.959991 -3.26001,20.5c-3.380005,7.580017 -28.779999,33.450012 -36.940002,37.76001c-0.389984,0.209991 -2.329987,1.26001 -5.820007,3.139984l-75.399994,0.350006l-75.5,0.350006l0,30.769989l0,30.880005c21.600006,0 33.600006,0 36,0c22.26001,0 37.290009,-0.470001 39.270004,-1.169983c1.75,-0.700012 6.990005,-4.890015 11.540009,-9.200012c11.87999,-11.309998 13.75,-11.769989 44.740005,-11.769989c1.679993,0 10.069977,0 25.169983,0c1.26001,-3.080017 1.959991,-4.790009 2.100006,-5.130005c5.23999,-12.700012 16.660004,-20.630005 31.230011,-21.440002c7.809998,-0.470001 9.669983,-0.119995 16.079987,2.679993c22.48999,10.140015 28.549988,36.700012 12.929993,56.51001c-2.209991,2.919983 -6.519989,6.059998 -11.419983,8.389984c-15.140015,7.460022 -31.110016,4.309998 -42.640015,-8.5c-2.919983,-3.149994 -5.829987,-7.579987 -6.529999,-9.789978c-0.089996,-0.27002 -0.559998,-1.630005 -1.399994,-4.080017l-24.929993,0l-24.940002,0c-5.660004,5.240021 -8.810013,8.160004 -9.440002,8.740021c-14.680008,13.519989 -14.330002,13.399994 -59.889999,13.399994c-2.529999,0 -15.150009,0 -37.87001,0c0,6.220001 0,9.679993 0,10.369995c0,5.589996 0.580002,12 1.279999,14.220001c1.860001,5.23999 6.410004,10.130005 12.12001,12.809998c4.419998,2.100006 10.599991,2.220001 136.099991,2.220001c8.75,0 52.529999,0 131.320007,0c0,-17.76001 0,-27.630005 0,-29.600006c0,-16.309998 -0.459991,-30.880005 -1.049988,-32.389984c-0.580017,-1.52002 -5.590027,-7.460022 -11.070007,-13.170013c-13.630005,-14.329987 -14.679993,-17.130005 -14.679993,-41.130005c0,-1.220001 0,-7.320007 0,-18.299988c-3.350006,-1.330017 -5.220001,-2.059998 -5.590027,-2.210022c-3.029999,-1.279999 -7.929993,-4.899994 -10.959991,-7.929993c-17.119995,-17.589996 -12.109985,-46.019989 10.140015,-56.97998c6.410004,-3.140015 8.859985,-3.730011 15.72998,-3.610016c14.100006,0 26.339996,7.809998 32.630005,20.630005c3.959991,8.149994 4.080017,22.019989 0.119995,30.059998c-3.619995,7.339996 -11.539978,15.149994 -18.179993,17.829987c-0.350006,0.150024 -2.100006,0.880005 -5.23999,2.210022c0,10.350006 0,16.100006 0,17.25c0,12.699982 0.459991,18.059998 1.630005,20.389984c0.929993,1.75 5.470001,6.76001 10.019989,11.300018c4.540009,4.429993 9.790009,10.720001 11.420013,13.98999c0.209991,0.380005 1.259979,2.329987 3.139984,5.820007l0.350006,32.859985l0.350006,32.980011c5.73999,0 8.919983,0 9.559998,0c5.23999,0 11.649994,-0.580017 14.209991,-1.279999c5.950012,-1.630005 12.820007,-8.51001 14.450012,-14.450012c1.75,-6.529999 1.75,-301.099991 0,-307.62999c-1.630005,-5.940002 -8.5,-12.820007 -14.450012,-14.449997c-2.559998,-0.700012 -8.970001,-1.279999 -14.209991,-1.279999c-0.649994,0 -3.869995,0 -9.670013,0l0,46.609985c-0.079987,31.310013 -0.859985,48.360001 -2.329987,51.150009z"/>
  <path id="f8MN5bKiE" d="m65.480003,249.660004c3.489998,1.509995 9.32,1.860001 28.889999,1.860001c1.639999,0 9.790001,0 24.469994,0l0,-26.220001l0,-26.210007c-14.82,0 -23.049995,0 -24.699997,0c-19.57,0.110001 -25.629997,0.460007 -28.900002,1.860001c-20.859997,9.089996 -20.739998,39.970001 0.240005,48.710007z"/>
  <path id="b91OuBpfN" d="m510.369995,251.520004c14.679993,0 22.840027,0 24.470032,0c26.679993,0 30.059998,-0.580002 36.469971,-6.76001c13.869995,-13.049988 9.669983,-36.580002 -7.570007,-43.809998c-3.5,-1.509995 -9.320007,-1.860001 -28.899963,-1.860001c-1.630005,0 -9.790039,0 -24.470032,0l0,26.210007l0,26.220001z"/>
  <path id="btx9cjPgx" d="m245.039993,281.589996c-0.349991,5.119995 0,7.450012 1.87001,10.369995c6.410004,10.25 23.070007,10.25 29.23999,0c2.800018,-4.549988 3.029999,-13.75 0.470001,-18.059998c-4.540009,-7.690002 -16.199982,-10.839996 -23.190002,-6.299988c-6.289993,3.970001 -8.039993,6.880005 -8.389999,13.98999z"/>
  <path id="a11L235eLf" d="m49.630001,313.279999c0,11.649994 6.759998,21.209991 17.59,25.170013c3.150002,1.049988 11.419998,1.519989 28.089996,1.629974c1.57,0 9.410004,0 23.529999,0l0,-26.799988l0,-26.799988c-14.119995,0 -21.959999,0 -23.529999,0c-16.669998,0.119995 -24.939995,0.579987 -28.089996,1.629974c-10.830002,3.960022 -17.59,13.52002 -17.59,25.170013z"/>
  <path id="bnwsXu48i" d="m510.369995,340.200012l25.400024,-0.350006l25.289978,-0.350006c3.349976,-1.959991 5.220032,-3.049988 5.590027,-3.26001c17.47998,-10.259979 17.47998,-35.660004 0,-45.910004c-0.369995,-0.220001 -2.240051,-1.309998 -5.590027,-3.269989l-25.289978,-0.350006l-25.400024,-0.350006l0,26.920013l0,26.920013z"/>
  <path id="b3pCvofp50" d="m391.51001,313.859985c0,5.01001 3.5,11.190002 8.039978,14.220001c8.279999,5.590027 20.400024,2.330017 24.820007,-6.639984c5.830017,-11.420013 -2.440002,-24.470001 -15.380005,-24.470001c-3.72998,0 -6.759979,0.809998 -9.440002,2.679993c-4.539978,3.029999 -8.039978,9.200012 -8.039978,14.209991z"/>
  <path id="dCrm0OSR4" d="m65.480003,425.609985c3.489998,1.52002 9.32,1.870026 28.889999,1.870026c1.639999,0 9.790001,0 24.469994,0l0,-26.220001l0,-26.220001c-14.82,0 -23.049995,0 -24.699997,0c-19.57,0.119995 -25.629997,0.470001 -28.900002,1.859985c-20.859997,9.089996 -20.739998,39.970001 0.240005,48.709991z"/>
  <path id="a2O0b0EhVB" d="m510.369995,427.480011c14.679993,0 22.840027,0 24.470032,0c26.679993,0 30.059998,-0.589996 36.469971,-6.76001c13.869995,-13.049988 9.669983,-36.589996 -7.570007,-43.820007c-3.5,-1.509979 -9.320007,-1.859985 -28.899963,-1.859985c-1.630005,0 -9.790039,0 -24.470032,0l0,26.220001l0,26.220001z"/>
  <path id="coFiFTmgh" d="m320.670013,410.579987c-0.820007,10.140015 4.419983,16.660004 14.909973,18.640015c5.480011,0.940002 13.75,-3.26001 16.779999,-8.619995c2.910004,-5.130005 2.800018,-12.929993 -0.349976,-18.059998c-4.540009,-7.220001 -15.610016,-9.899994 -22.839996,-5.480011c-6.060028,3.730011 -7.920013,6.76001 -8.5,13.519989z"/>
  <path id="b547DWT3u" d="m207.169998,569.98999c10.490005,11.070007 28.430008,11.070007 38.919998,0c6.180008,-6.409973 6.76001,-9.789978 6.76001,-36.47998c0,-1.630005 0,-9.780029 0,-24.470001l-26.220001,0l-26.220001,0l0,24.470001c0.389999,20.049988 2.639999,32.200012 6.759995,36.47998z"/>
  <path id="dPnWbKfxQ" d="m288.390015,559.72998c1.959991,3.360046 3.039978,5.220032 3.259979,5.600037c10.26001,17.469971 35.660004,17.469971 45.910004,0c0.220001,-0.380005 1.309998,-2.23999 3.269989,-5.600037l0.350006,-25.399963l0.339996,-25.290009l-26.910004,0l-26.919983,0l0.350006,25.290009l0.350006,25.399963z"/>
  <path id="b9o8Gx2kj" d="m383.119995,569.98999c10.48999,11.070007 28.440002,11.070007 38.920013,0c6.179993,-6.409973 6.759979,-9.789978 6.759979,-36.47998c0,-1.630005 0,-9.780029 0,-24.470001l-26.220001,0l-26.209991,0l0,24.470001c0.380005,20.049988 2.640015,32.200012 6.75,36.47998z"/>
 </defs>
 <g>
  <title>background</title>
  <rect fill="none" id="canvas_background" height="642" width="642" y="-1" x="-1"/>
 </g>
 <g>
  <title>Layer 1</title>
  <g id="svg_2">
   <g id="svg_8">
    <use id="svg_9" fill="#ffffff" xlink:href="#cE6Zx8PcR"/>
    <g id="svg_10">
     <use id="svg_11" stroke-opacity="0" stroke="#000000" fill-opacity="0" xlink:href="#cE6Zx8PcR"/>
    </g>
   </g>
   <g id="svg_12">
    <use id="svg_13" fill="#ffffff" xlink:href="#c14LSSc4h1"/>
    <g id="svg_14">
     <use id="svg_15" stroke-opacity="0" stroke="#000000" fill-opacity="0" xlink:href="#c14LSSc4h1"/>
    </g>
   </g>
   <g id="svg_16">
    <use id="svg_17" fill="#ffffff" xlink:href="#eqt1vuvid"/>
    <g id="svg_18">
     <use id="svg_19" stroke-opacity="0" stroke="#000000" fill-opacity="0" xlink:href="#eqt1vuvid"/>
    </g>
   </g>
   <g id="svg_20">
    <use id="svg_21" fill="#ffffff" xlink:href="#h1xnoRUC0v"/>
    <g id="svg_22">
     <use id="svg_23" stroke-opacity="0" stroke="#000000" fill-opacity="0" xlink:href="#h1xnoRUC0v"/>
    </g>
   </g>
   <g id="svg_24">
    <use id="svg_25" fill="#ffffff" xlink:href="#b2mvBiEkrA"/>
    <g id="svg_26">
     <use id="svg_27" stroke-opacity="0" stroke="#000000" fill-opacity="0" xlink:href="#b2mvBiEkrA"/>
    </g>
   </g>
   <g id="svg_28">
    <use id="svg_29" fill="#ffffff" xlink:href="#a3jNkynn94"/>
    <g id="svg_30">
     <use id="svg_31" stroke-opacity="0" stroke="#000000" fill-opacity="0" xlink:href="#a3jNkynn94"/>
    </g>
   </g>
   <g id="svg_32">
    <use id="svg_33" fill="#ffffff" xlink:href="#f8MN5bKiE"/>
    <g id="svg_34">
     <use id="svg_35" stroke-opacity="0" stroke="#000000" fill-opacity="0" xlink:href="#f8MN5bKiE"/>
    </g>
   </g>
   <g id="svg_36">
    <use id="svg_37" fill="#ffffff" xlink:href="#b91OuBpfN"/>
    <g id="svg_38">
     <use id="svg_39" stroke-opacity="0" stroke="#000000" fill-opacity="0" xlink:href="#b91OuBpfN"/>
    </g>
   </g>
   <g id="svg_40">
    <use id="svg_41" fill="#ffffff" xlink:href="#btx9cjPgx"/>
    <g id="svg_42">
     <use id="svg_43" stroke-opacity="0" stroke="#000000" fill-opacity="0" xlink:href="#btx9cjPgx"/>
    </g>
   </g>
   <g id="svg_44">
    <use id="svg_45" fill="#ffffff" xlink:href="#a11L235eLf"/>
    <g id="svg_46">
     <use id="svg_47" stroke-opacity="0" stroke="#000000" fill-opacity="0" xlink:href="#a11L235eLf"/>
    </g>
   </g>
   <g id="svg_48">
    <use id="svg_49" fill="#ffffff" xlink:href="#bnwsXu48i"/>
    <g id="svg_50">
     <use id="svg_51" stroke-opacity="0" stroke="#000000" fill-opacity="0" xlink:href="#bnwsXu48i"/>
    </g>
   </g>
   <g id="svg_52">
    <use id="svg_53" fill="#ffffff" xlink:href="#b3pCvofp50"/>
    <g id="svg_54">
     <use id="svg_55" stroke-opacity="0" stroke="#000000" fill-opacity="0" xlink:href="#b3pCvofp50"/>
    </g>
   </g>
   <g id="svg_56">
    <use id="svg_57" fill="#ffffff" xlink:href="#dCrm0OSR4"/>
    <g id="svg_58">
     <use id="svg_59" stroke-opacity="0" stroke="#000000" fill-opacity="0" xlink:href="#dCrm0OSR4"/>
    </g>
   </g>
   <g id="svg_60">
    <use id="svg_61" fill="#ffffff" xlink:href="#a2O0b0EhVB"/>
    <g id="svg_62">
     <use id="svg_63" stroke-opacity="0" stroke="#000000" fill-opacity="0" xlink:href="#a2O0b0EhVB"/>
    </g>
   </g>
   <g id="svg_64">
    <use id="svg_65" fill="#ffffff" xlink:href="#coFiFTmgh"/>
    <g id="svg_66">
     <use id="svg_67" stroke-opacity="0" stroke="#000000" fill-opacity="0" xlink:href="#coFiFTmgh"/>
    </g>
   </g>
   <g id="svg_68">
    <use id="svg_69" fill="#ffffff" xlink:href="#b547DWT3u"/>
    <g id="svg_70">
     <use id="svg_71" stroke-opacity="0" stroke="#000000" fill-opacity="0" xlink:href="#b547DWT3u"/>
    </g>
   </g>
   <g id="svg_72">
    <use id="svg_73" fill="#ffffff" xlink:href="#dPnWbKfxQ"/>
    <g id="svg_74">
     <use id="svg_75" stroke-opacity="0" stroke="#000000" fill-opacity="0" xlink:href="#dPnWbKfxQ"/>
    </g>
   </g>
   <g id="svg_76">
    <use id="svg_77" fill="#ffffff" xlink:href="#b9o8Gx2kj"/>
    <g id="svg_78">
     <use id="svg_79" stroke-opacity="0" stroke="#000000" fill-opacity="0" xlink:href="#b9o8Gx2kj"/>
    </g>
   </g>
  </g>
 </g>
</svg>