<?xml version="1.0" encoding="UTF-8" standalone="no"?>
<!DOCTYPE svg PUBLIC "-//W3C//DTD SVG 1.1//EN" "http://www.w3.org/Graphics/SVG/1.1/DTD/svg11.dtd">
<svg version="1.1" xmlns="http://www.w3.org/2000/svg" xmlns:xlink="http://www.w3.org/1999/xlink" preserveAspectRatio="xMidYMid meet" viewBox="0 0 640 640" width="640" height="640"><defs><path d="M501.9 204.03C501.9 141.99 501.9 107.52 501.9 100.63C501.9 81.93 487.79 66.78 470.36 66.78C452.96 66.78 438.85 81.93 438.85 100.63C438.85 103.01 438.85 114.91 438.85 136.33C401.61 96.33 380.92 74.12 376.79 69.67C346.1 36.74 292.75 36.8 262.13 69.73C241.29 92.11 74.56 271.17 53.71 293.55C41.41 306.79 41.41 328.21 53.71 341.43C66.02 354.66 86.01 354.66 98.31 341.43C119.15 319.05 285.87 139.99 306.71 117.61C313.5 110.35 325.47 110.35 332.22 117.58C353.07 139.97 519.81 319.04 540.66 341.43C546.84 348.05 554.9 351.34 562.95 351.34C571.02 351.34 579.09 348.04 585.26 341.43C597.56 328.21 597.56 306.79 585.26 293.55C574.14 281.61 546.36 251.78 501.9 204.03Z" id="c149dWlyba"></path><path d="M308.54 181.86C290.21 201.54 143.55 359 125.21 378.68C122.32 381.78 120.68 386.03 120.68 390.45C120.68 404.81 120.68 519.65 120.68 534C120.68 567.69 146.11 595 177.48 595C183.53 595 213.78 595 268.24 595L268.24 444.05L370.71 444.05L370.71 595C425.17 595 455.43 595 461.48 595C492.84 595 518.28 567.69 518.28 534C518.28 519.65 518.28 404.81 518.28 390.45C518.28 386.03 516.65 381.78 513.74 378.68C501.52 365.56 440.42 299.95 330.44 181.86C319.86 177.53 312.56 177.53 308.54 181.86Z" id="aoBSW6zR3"></path></defs><g><g><g><g><use xlink:href="#c149dWlyba" opacity="1" fill="#ffffff" fill-opacity="1"></use><g><use xlink:href="#c149dWlyba" opacity="1" fill-opacity="0" stroke="#000000" stroke-width="1" stroke-opacity="0"></use></g></g><g><use xlink:href="#aoBSW6zR3" opacity="1" fill="#ffffff" fill-opacity="1"></use><g><use xlink:href="#aoBSW6zR3" opacity="1" fill-opacity="0" stroke="#000000" stroke-width="1" stroke-opacity="0"></use></g></g></g></g></g></svg>