<?xml version="1.0" encoding="UTF-8" standalone="no"?>
<svg
   xmlns:dc="http://purl.org/dc/elements/1.1/"
   xmlns:cc="http://creativecommons.org/ns#"
   xmlns:rdf="http://www.w3.org/1999/02/22-rdf-syntax-ns#"
   xmlns:svg="http://www.w3.org/2000/svg"
   xmlns="http://www.w3.org/2000/svg"
   xmlns:sodipodi="http://sodipodi.sourceforge.net/DTD/sodipodi-0.dtd"
   xmlns:inkscape="http://www.inkscape.org/namespaces/inkscape"
   width="694.72943"
   height="597.26013"
   preserveAspectRatio="xMidYMid meet"
   version="1.1"
   id="svg47"
   sodipodi:docname="motores_on.svg"
   inkscape:version="0.92.5 (2060ec1f9f, 2020-04-08)">
  <metadata
     id="metadata51">
    <rdf:RDF>
      <cc:Work
         rdf:about="">
        <dc:format>image/svg+xml</dc:format>
        <dc:type
           rdf:resource="http://purl.org/dc/dcmitype/StillImage" />
        <dc:title></dc:title>
      </cc:Work>
    </rdf:RDF>
  </metadata>
  <sodipodi:namedview
     pagecolor="#ffffff"
     bordercolor="#666666"
     borderopacity="1"
     objecttolerance="10"
     gridtolerance="10"
     guidetolerance="10"
     inkscape:pageopacity="0"
     inkscape:pageshadow="2"
     inkscape:window-width="1920"
     inkscape:window-height="1057"
     id="namedview49"
     showgrid="false"
     inkscape:pagecheckerboard="true"
     inkscape:zoom="0.24068966"
     inkscape:cx="-14.182543"
     inkscape:cy="304.46601"
     inkscape:window-x="1592"
     inkscape:window-y="-8"
     inkscape:window-maximized="1"
     inkscape:current-layer="svg47"
     fit-margin-top="100"
     fit-margin-left="100"
     fit-margin-right="100"
     fit-margin-bottom="100" />
  <defs
     id="defs8">
    <path
       id="cGE5BQ3og"
       d="m 595,45 c 0,0 0,0 0,0 0,55 0,495 0,550 0,0 0,0 0,0 -55,0 -495,0 -550,0 0,0 0,0 0,0 0,-55 0,-495 0,-550 0,0 0,0 0,0 110,0 495,0 550,0 z"
       inkscape:connector-curvature="0" />
    <path
       id="a8QAvTO65x"
       d="m 409.48999,358.48999 c -0.1,-0.16 -0.19998,-0.31998 -0.34998,-0.54999 -4.58001,-6.89001 -6.30001,-24.08002 -7.32,-34.33999 -0.16001,-1.54001 -0.30002,-3.02002 -0.45002,-4.4 -0.02,-0.14001 -0.03,-0.28 -0.06,-0.49002 C 398.95001,303.25 393.10998,280.95001 378.63,262.54001 368.60998,249.8 356.17001,241.2 341.58999,236.92 c -1.5,-9.93 -10.60998,-17.59 -21.58999,-17.59 -10.98001,0 -20.09,7.66001 -21.59,17.59999 C 283.82999,241.2 271.39001,249.8 261.36999,262.54001 246.89,280.95001 241.05,303.25 238.69,318.70999 c 0,0.01 -0.01,0.11002 -0.01,0.13001 -0.02,0.13 -0.04,0.26001 -0.05,0.35 -0.14,1.38999 -0.29001,2.85999 -0.45001,4.4 C 237.16,333.85999 235.44,351.04999 230.81,358 c -0.08,0.13001 -0.15,0.26001 -0.27001,0.45001 -1.21998,2.06998 -3.7,4.10999 -6.31999,6.25998 -6.44,5.31 -19.85001,16.35001 -8.8,35.61002 2.13,3.72998 6.25999,6.03998 10.77,6.03998 18.76,0 168.85999,0 187.62,0 4.51001,0 8.63,-2.31 10.76998,-6.03998 11.04001,-19.26001 -2.34997,-30.30002 -8.79998,-35.61002 -2.62,-2.16 -5.09,-4.19 -6.29001,-6.22 z"
       inkscape:connector-curvature="0" />
    <path
       id="f3t383B2u4"
       d="m 297.91,425.60998 c -1.77999,0 -3.45999,0.74003 -4.6,2.01002 -2.13999,2.39999 -1.54001,5.58999 -1.18,7.48998 0,0.02 0.02,0.14002 0.02,0.16001 2.37,12.71002 14.07001,21.94 27.82001,21.94 14.01999,0 26.04001,-9.81998 27.97,-22.81998 0,-0.02 0.04,-0.19 0.04,-0.21002 0.23999,-1.19 0.79999,-3.94998 -1.28,-6.31 -0.74002,-0.83999 -2.43002,-2.26001 -5.39001,-2.26001 0,0 -39.06,0 -43.4,0 z"
       inkscape:connector-curvature="0" />
    <path
       id="e2clZgaVrP"
       d="m 233.34,225.23 c 6.27,-6.57 14.47,-10.79 23.73001,-12.22001 8.82998,-1.36 14.81,-9.17999 13.35998,-17.47 -1.44,-8.28 -9.75998,-13.90998 -18.58999,-12.54998 -16.39,2.51998 -31.51999,10.30999 -42.61,21.91999 -10.97001,11.5 -17.56,26.31 -18.55001,41.72 -0.53999,8.39 6.26001,15.60001 15.18001,16.10001 0.34,0.02 0.67,0.03 0.99,0.03 8.5,0 15.62999,-6.22 16.15,-14.29001 0.56,-8.71001 4.14,-16.75 10.33999,-23.24 z"
       inkscape:connector-curvature="0" />
    <path
       id="akJohsaaQ"
       d="m 388.16,182.99 c -8.83001,-1.36 -17.14999,4.26999 -18.58999,12.56 -1.45001,8.29 4.53,16.11 13.35998,17.45999 9.26001,1.43001 17.47,5.65001 23.73001,12.22 6.21,6.49001 9.78,14.53 10.34,23.24001 0.51999,8.07001 7.64999,14.29001 16.14001,14.29001 0.32999,0 0.65998,-0.01 0.98999,-0.02 8.93,-0.50998 15.72998,-7.71999 15.19001,-16.09999 -0.99002,-15.41001 -7.58002,-30.23 -18.55002,-41.73 -11.09,-11.61 -26.22998,-19.40001 -42.60999,-21.92 z"
       inkscape:connector-curvature="0" />
    <path
       id="e3yUpQzNK"
       d="M 275.14999,501.70001 C 256.53,494.54999 239.23,484.16 223.7,470.82001 192.63,444.10999 170.42999,406.64001 161.19,365.31 c -4.05,-18.13001 -20.97,-29.29001 -37.81,-24.91999 -16.83,4.35999 -27.189998,22.59 -23.14,40.71 6.3,28.20999 16.9,54.91998 31.49,79.39999 14.33,24.03 32.12001,45.25 52.87001,63.08002 20.94999,18.01001 44.32998,32.03997 69.48999,41.70001 26.03,10 53.36001,15.06994 81.22,15.06994 32.63,0 64.29001,-6.88995 94.11999,-20.47998 28.79001,-13.10998 54.64002,-31.88 76.84,-55.77999 22.19003,-23.88999 39.62002,-51.73002 51.80002,-82.73999 12.60998,-32.12 19.01001,-66.22001 19.01001,-101.35001 0,-35.13001 -6.40003,-69.23 -19.01001,-101.35001 C 545.89001,187.64 528.46002,159.81 506.26999,135.91 484.07001,112.01 458.22,93.239997 429.42999,80.129997 399.6,66.540001 367.92999,59.650001 335.31,59.650001 287.60001,59.650001 241.44,74.61 201.83,102.9 c -31.55,22.53 -57.55,52.43 -76.22,87.43 0,-5.42 0,-48.79001 0,-54.21001 C 125.61,117.47 111.58,102.36 94.260002,102.36 c -17.310005,0 -31.340004,15.11 -31.340004,33.75999 0,12.78 0,115.08001 0,127.87 0,18.64001 14.029999,33.75 31.340004,33.75 11.719998,0 105.439998,0 117.159998,0 17.31,0 31.33999,-15.10999 31.33999,-33.75 0,-18.64999 -14.03,-33.76 -31.33999,-33.76 -3.47,0 -31.19,0 -34.65,0 14,-28.62999 34.46,-53.03999 59.71,-71.06999 29.31001,-20.93001 63.47999,-32 98.83,-32 47.83001,0 92.79998,20.06 126.63,56.48 33.82001,36.43001 52.45001,84.84999 52.45001,136.36 0,51.51001 -18.63,99.94 -52.45001,136.35998 -33.83002,36.42002 -78.79999,56.48005 -126.63,56.48005 -20.66999,0 -40.91001,-3.75003 -60.16001,-11.14002 z"
       inkscape:connector-curvature="0" />
  </defs>
  <g
     id="g13"
     transform="translate(27.36472,-27.205881)">
    <title
       id="title10">background</title>
    <rect
       id="canvas_background"
       height="642"
       width="1452"
       y="-1"
       x="-1"
       style="fill:none" />
  </g>
  <g
     id="g862"
     transform="matrix(0.50505102,0,0,0.52833511,94.8993,-3.3494906)"
     style="fill:#ffffff;fill-opacity:1">
    <path
       id="path860"
       d="m 374.8,944.81352 c -5.7,-2 -20.6,-15.7 -61.2,-56.2 l -53.7,-53.6 -35.4,-0.6 c -34.3,-0.6 -35.7,-0.8 -44,-5.7 -5.3,-3.1 -10.5,-8.3 -13.4,-13.4 -4.6,-8.1 -4.8,-9.6 -5.4,-50.9 l -0.6,-42.6 h -18.8 -18.8 l -0.7,42.6 c -0.8,47.2 -1.3,49.3 -14,60.4 -9.3,8.1 -13.2,8.9 -44.1,8.9 -21.5,0 -28,-0.7 -32.7,-3.3 -9.7,-5.3 -17.4,-15.6 -19.7,-26.3 -3,-13.8 -2.9,-264 0.1,-277.9 1.7,-7.7 4,-12 10,-18 10.2,-10.3 22.5,-13 52,-11.7 22,1 26.9,2.4 36,10.8 11.1,10.3 11.6,12.8 12.4,59.1 l 0.7,42.6 h 18.8 18.7 l 0.6,-42.6 c 0.6,-42.1 0.7,-42.7 5.7,-51.2 3.1,-5.3 8.3,-10.5 13.4,-13.4 8,-4.6 9.6,-4.8 43.2,-4.8 h 34.9 l 55,-54.8 c 54.4,-54.2 55.1,-54.8 65.5,-57 7.7,-1.6 66.8,-2.1 221,-1.6 l 210.5,0.6 8.6,5.1 c 5.3,3.1 10.5,8.3 13.4,13.4 l 4.8,8.3 0.5,99 0.5,99 h 18.9 18.9 l 0.6,-42.6 c 0.7,-46.3 1.2,-48.7 12.4,-59.1 9,-8.4 13.9,-9.8 36,-10.8 29.5,-1.3 41.8,1.5 52,11.7 6,6 8.4,10.3 10,18 3,13.9 3,264.1 0.1,277.9 -2.3,10.8 -10,21 -19.7,26.3 -4.8,2.6 -11.2,3.2 -32.7,3.3 -30.9,0 -34.8,-0.8 -44.1,-8.9 -12.7,-11.1 -13.2,-13.2 -14,-60.4 l -0.7,-42.6 h -18.8 -18.8 l -0.7,24.4 c -0.6,21.1 -1.2,25.3 -4.9,31.1 -2.3,3.7 -40.2,42.5 -84.2,86.3 -74.5,74.1 -80.6,79.8 -89,81.8 -6.3,1.5 -49.4,2.2 -143.5,2.1 -110,0 -135.4,-0.5 -141.6,-2.7 z m 159.7,-194.3 82.8,-104.3 -42.4,-0.5 c -23.3,-0.3 -42.4,-0.9 -42.4,-1.3 0,-0.4 20.2,-34.1 45,-74.8 24.7,-40.7 45,-74.3 45,-74.8 0,-0.4 -22.5,-0.6 -50,-0.3 l -50,0.5 -47.5,96.2 -47.4,96.2 h 39.1 c 21.5,0 39.1,0.4 39.1,0.8 0,0.4 -13.8,39.3 -30.7,86.4 -16.8,47.1 -30.6,86.1 -30.6,86.7 0,2.3 10.5,-10.6 90,-110.8 z m -34.5,-424.7 v -19 l -43.7,-0.6 -43.7,-0.6 -7.9,-5.3 c -12.4,-8.2 -16.2,-17.5 -17.2,-42.7 -1.4,-34.8 4.4,-50.7 21.4,-58.4 7.5,-3.4 15.2,-3.6 147.6,-3.6 132.4,0 140.1,0.2 147.6,3.6 17.1,7.8 22.7,22.7 21.5,57.2 -0.9,26.5 -4,34.4 -16.7,43.4 l -8.1,5.7 -43.9,0.6 -43.9,0.6 v 19 19 H 556.5 500 Z"
       inkscape:connector-curvature="0"
       style="fill:#ffffff;fill-opacity:1" />
  </g>
</svg>
