<?xml version="1.0" encoding="UTF-8" standalone="no"?>
<!DOCTYPE svg PUBLIC "-//W3C//DTD SVG 1.1//EN" "http://www.w3.org/Graphics/SVG/1.1/DTD/svg11.dtd">
<svg version="1.1" xmlns="http://www.w3.org/2000/svg" xmlns:xlink="http://www.w3.org/1999/xlink" preserveAspectRatio="xMidYMid meet" viewBox="0 0 640 640" width="640" height="640"><defs><path d="M418.37 98.41L418.37 96.3L443.33 96.3L443.33 135.94L447.06 136.46L450.74 137.13L454.37 137.94L457.95 138.89L461.48 139.97L464.96 141.2L468.37 142.55L471.73 144.03L475.03 145.64L478.26 147.38L481.42 149.23L484.51 151.2L487.53 153.29L490.47 155.49L493.34 157.8L496.12 160.21L498.82 162.73L501.44 165.35L503.96 168.07L506.4 170.88L508.74 173.79L510.99 176.79L513.14 179.87L515.18 183.04L517.12 186.29L518.96 189.62L520.68 193.02L522.3 196.5L523.8 200.05L525.18 203.66L526.45 207.34L527.59 211.08L528.61 214.89L529.5 218.74L530.26 222.66L530.88 226.62L531.38 230.63L531.73 234.68L531.95 238.78L532.02 242.92L532.02 243.1L559.25 243.1L559.25 284.31L532.02 284.31L532.02 510.37L561.7 510.37L561.7 543.69L78.3 543.69L78.3 510.37L106.93 510.37L106.93 359.2L78.3 359.2L78.3 329.03L106.93 329.03L106.99 326.28L107.15 323.55L107.42 320.86L107.8 318.18L108.28 315.54L108.87 312.93L109.55 310.36L110.33 307.82L111.21 305.31L112.18 302.84L113.25 300.42L114.4 298.03L115.64 295.69L116.98 293.4L118.39 291.15L119.89 288.95L121.47 286.8L123.13 284.7L124.87 282.66L126.68 280.67L128.56 278.74L130.52 276.87L132.55 275.06L134.65 273.31L136.81 271.62L139.03 270L141.32 268.45L143.67 266.97L146.08 265.56L148.54 264.22L151.06 262.95L153.63 261.76L156.25 260.65L158.93 259.62L161.65 258.67L164.41 257.8L167.22 257.02L170.07 256.32L172.96 255.72L175.89 255.2L175.89 96.3L200.33 96.3L200.33 98.41L418.37 98.41ZM200.5 254.67L203.64 255.02L206.74 255.48L209.8 256.04L212.82 256.7L215.79 257.45L218.72 258.3L221.6 259.24L224.43 260.27L227.2 261.39L229.93 262.59L232.59 263.88L235.19 265.26L237.74 266.71L240.22 268.24L242.63 269.85L244.98 271.54L247.25 273.29L249.46 275.12L251.59 277.02L253.64 278.98L255.61 281.01L257.5 283.1L259.31 285.25L261.04 287.46L262.67 289.73L264.22 292.05L265.67 294.43L267.03 296.85L268.3 299.33L269.46 301.85L270.53 304.42L271.49 307.03L272.34 309.68L273.09 312.37L273.73 315.09L274.26 317.85L274.68 320.65L274.98 323.47L275.16 326.33L275.22 329.21L298.09 329.21L298.09 359.37L275.39 359.37L275.39 510.9L332.13 510.9L332.13 284.66L298.09 284.66L298.09 243.45L332.13 243.45L332.13 243.1L332.2 239.02L332.41 234.99L332.75 230.99L333.23 227.04L333.84 223.14L334.58 219.29L335.44 215.48L336.43 211.73L337.53 208.04L338.76 204.41L340.1 200.84L341.56 197.33L343.13 193.89L344.8 190.52L346.58 187.23L348.47 184.01L350.46 180.87L352.55 177.8L354.73 174.83L357.01 171.93L359.38 169.13L361.84 166.42L364.38 163.8L367.01 161.28L369.72 158.86L372.51 156.54L375.38 154.33L378.32 152.22L381.34 150.22L384.42 148.34L387.57 146.57L390.79 144.92L394.07 143.39L397.4 141.99L400.8 140.71L404.25 139.55L407.75 138.53L411.3 137.65L414.9 136.9L418.55 136.29L418.55 118.58L200.5 118.58L200.5 254.67Z" id="b5cUv1bTt5"></path></defs><g><g><g><use xlink:href="#b5cUv1bTt5" opacity="1" fill="#B3C8E0" fill-opacity="1"></use><g><use xlink:href="#b5cUv1bTt5" opacity="1" fill-opacity="0" stroke="#000000" stroke-width="1" stroke-opacity="0"></use></g></g></g></g></svg>