<?xml version="1.0" encoding="UTF-8" standalone="no"?>
<!DOCTYPE svg PUBLIC "-//W3C//DTD SVG 1.1//EN" "http://www.w3.org/Graphics/SVG/1.1/DTD/svg11.dtd">
<svg version="1.1" xmlns="http://www.w3.org/2000/svg" xmlns:xlink="http://www.w3.org/1999/xlink" preserveAspectRatio="xMidYMid meet" viewBox="0 0 640 640" width="640" height="640"><defs><path d="M526.89 277.21C508.67 277.21 494.1 292.92 494.1 312.35C494.1 324.67 494.1 386.29 494.1 497.21L465.88 497.21C465.88 292 465.88 178 465.88 155.2C465.88 122.25 381.92 95.4 278.47 95.4C175.03 95.4 91.07 122.03 91.07 155.2C91.07 178 91.07 292 91.07 497.21L71.22 497.21L71.22 538.67L575.51 538.67L575.51 497.21L559.85 497.21L559.85 312.35L559.67 312.35C549.83 288.92 538.91 277.21 526.89 277.21Z" id="aDVDHBrIc"></path></defs><g><g><g><use xlink:href="#aDVDHBrIc" opacity="1" fill="#ffffff" fill-opacity="1"></use><g><use xlink:href="#aDVDHBrIc" opacity="1" fill-opacity="0" stroke="#000000" stroke-width="1" stroke-opacity="0"></use></g></g></g></g></svg>