<?xml version="1.0" encoding="UTF-8" standalone="no"?>
<!DOCTYPE svg PUBLIC "-//W3C//DTD SVG 1.1//EN" "http://www.w3.org/Graphics/SVG/1.1/DTD/svg11.dtd">
<svg version="1.1" xmlns="http://www.w3.org/2000/svg" xmlns:xlink="http://www.w3.org/1999/xlink" preserveAspectRatio="xMidYMid meet" viewBox="0 0 640 640" width="640" height="640"><defs><path d="M454.98 145.49L480.84 341.55L561.68 341.55L561.68 540.07L85.05 540.07L85.05 341.55L168.62 341.55L190.89 145.49L168.62 145.49L168.62 94.01L480.33 94.01L480.33 145.49L454.98 145.49ZM107.48 500.74L150.64 500.74L157.49 440.81L107.48 440.81L107.48 500.74ZM501.74 500.74L539.59 500.74L539.59 440.81L493.86 440.81L501.74 500.74ZM490.78 417.54L539.42 417.54L539.42 375.94L485.3 375.94L490.78 417.54ZM107.48 417.54L160.06 417.54L164.86 375.94L107.48 375.94L107.48 417.54Z" id="c1qy4LCYtD"></path></defs><g><g><g><use xlink:href="#c1qy4LCYtD" opacity="1" fill="#ffffff" fill-opacity="1"></use><g><use xlink:href="#c1qy4LCYtD" opacity="1" fill-opacity="0" stroke="#000000" stroke-width="1" stroke-opacity="0"></use></g></g></g></g></svg>