<?xml version="1.0" encoding="utf-8"?>
<!-- Generator: Adobe Illustrator 23.0.4, SVG Export Plug-In . SVG Version: 6.00 Build 0)  -->
<svg version="1.1" id="Capa_1" xmlns="http://www.w3.org/2000/svg" xmlns:xlink="http://www.w3.org/1999/xlink" x="0px" y="0px"
	 viewBox="0 0 38.4 25.9" style="enable-background:new 0 0 38.4 25.9;" xml:space="preserve">
<style type="text/css">
	.st0{fill:#C6C6C5;}
	.st1{fill:#D9D9D9;}
	.st2{fill:#E7E6E6;}
	.st3{enable-background:new    ;}
	.st4{fill:#88D39C;}
	.st5{fill:#035426;}
	.st6{fill:#6ABA82;}
	.st7{clip-path:url(#SVGID_2_);}
	.st8{fill:#31AA59;}
	.st9{fill:#EA6A80;}
	.st10{fill:#5B1016;}
	.st11{fill:#CC5261;}
	.st12{clip-path:url(#SVGID_4_);}
	.st13{fill:#BD1622;}
	.st14{fill:#EAEAEA;}
	.st15{fill:#B3B4B3;}
	.st16{clip-path:url(#SVGID_8_);}
	.st17{fill:#D0D9EF;}
	.st18{fill:#264B8C;}
	.st19{fill:#BFC9E8;}
	.st20{clip-path:url(#SVGID_10_);}
	.st21{clip-path:url(#SVGID_12_);}
	.st22{fill:#9FABD8;}
</style>
<g>
	<g>
		<g>
			<polygon class="st0" points="38.4,24.6 38.4,10.3 36.3,11.6 36.3,25.9 			"/>
			<polygon class="st1" points="34.2,24.6 34.2,10.3 36.3,11.6 36.3,25.9 			"/>
			<polygon class="st2" points="36.3,9.1 38.4,10.3 36.3,11.6 34.2,10.3 			"/>
		</g>
		<g>
			<polygon class="st0" points="24.7,16.7 24.7,2.4 22.6,3.6 22.5,18 			"/>
			<polygon class="st1" points="20.4,16.7 20.4,2.4 22.6,3.6 22.6,18 			"/>
			<polygon class="st2" points="22.6,1.2 24.7,2.4 22.6,3.6 20.4,2.4 			"/>
		</g>
		<polygon class="st2" points="36.3,11.6 20.4,2.4 22.6,1.2 38.4,10.3 		"/>
		<polygon class="st1" points="34.2,10.3 34.2,13.2 22.6,6.5 22.6,3.6 		"/>
	</g>
	<g class="st3">
		<g>
			<polygon class="st9" points="5.4,13.7 0,10.6 32.5,0 38,3.2 			"/>
		</g>
		<g>
			<polygon class="st10" points="6,13.1 1.6,10.5 32.1,0.6 36.6,3.1 			"/>
		</g>
		<path class="st11" d="M5.4,13.7L0,10.6l0,4.9c0,0.4,0.2,0.8,0.4,0.9l5.4,3.2C5.6,19.4,5.4,13.7,5.4,13.7z"/>
		<g>
			<defs>
				<polygon id="SVGID_3_" points="6,13.1 1.6,10.5 32.1,0.6 36.6,3.1 				"/>
			</defs>
			<clipPath id="SVGID_2_">
				<use xlink:href="#SVGID_3_"  style="overflow:visible;"/>
			</clipPath>
			<g class="st7">
				<g class="st3">
					<path class="st2" d="M34.7,6.6c-1.7,1-4.3-3.4-2.6-4.4c-0.9,0.5-1.7,0.6-1.6,1.6c0,0.6,0.2,1.6,0.5,2.1c0.3,0.6,1.1,1,1.6,1.5
						C33.2,8,34,7,34.7,6.6z"/>
					<path class="st2" d="M35.9,5.8c0-1.3-0.8-2.7-1.7-3.6C33,1,32,1.1,30.6,1.9c3-0.1,4.8,4.4,3.6,6.2C35.2,7.5,35.9,7,35.9,5.8z"
						/>
					<g>
						<path class="st0" d="M32.5,2.1C33.8,2.9,35,4.8,35,6.4c0,1.6-1.1,2.3-2.5,1.5c-1.4-0.8-2.5-2.8-2.5-4.4
							C29.9,1.9,31.1,1.3,32.5,2.1z M32.4,7.1c1,0.6,1.8,0.1,1.8-1c0-1.1-0.8-2.5-1.8-3.1c-1-0.6-1.8-0.1-1.8,1
							C30.6,5.1,31.4,6.5,32.4,7.1"/>
					</g>
				</g>
				<g class="st3">
					<path class="st2" d="M14.7,13.3c-1.7,1-4.3-3.4-2.6-4.4c-0.9,0.5-1.7,0.6-1.6,1.6c0,0.6,0.2,1.6,0.5,2.1c0.3,0.6,1.1,1,1.6,1.5
						C13.3,14.7,14.1,13.7,14.7,13.3z"/>
					<path class="st2" d="M16,12.4c0-1.3-0.8-2.7-1.7-3.6c-1.2-1.2-2.1-1-3.5-0.2c3-0.1,4.8,4.4,3.6,6.2C15.3,14.1,16,13.7,16,12.4z
						"/>
					<g>
						<path class="st0" d="M12.5,8.7c1.4,0.8,2.5,2.8,2.5,4.4c0,1.6-1.1,2.3-2.5,1.5c-1.4-0.8-2.5-2.8-2.5-4.4
							C10,8.6,11.1,7.9,12.5,8.7z M12.5,13.7c1,0.6,1.8,0.1,1.8-1c0-1.1-0.8-2.5-1.8-3.1c-1-0.6-1.8-0.1-1.8,1
							C10.7,11.7,11.5,13.1,12.5,13.7"/>
					</g>
				</g>
				<g class="st3">
					<path class="st2" d="M19.6,11.5c-1.7,1-4.3-3.4-2.6-4.4c-0.9,0.5-1.7,0.6-1.6,1.6c0,0.6,0.2,1.6,0.5,2.1c0.3,0.6,1.1,1,1.6,1.5
						C18.1,12.9,18.9,11.9,19.6,11.5z"/>
					<path class="st2" d="M20.9,10.6c0-1.3-0.8-2.7-1.7-3.6c-1.2-1.2-2.1-1-3.5-0.2c3-0.1,4.8,4.4,3.6,6.2
						C20.2,12.3,20.9,11.9,20.9,10.6z"/>
					<g>
						<path class="st0" d="M17.4,6.9c1.4,0.8,2.5,2.8,2.5,4.4c0,1.6-1.1,2.3-2.5,1.5c-1.4-0.8-2.5-2.8-2.5-4.4
							C14.9,6.8,16,6.1,17.4,6.9z M17.4,11.9c1,0.6,1.8,0.1,1.8-1c0-1.1-0.8-2.5-1.8-3.1c-1-0.6-1.8-0.1-1.8,1
							C15.6,9.9,16.4,11.3,17.4,11.9"/>
					</g>
				</g>
				<g class="st3">
					<path class="st2" d="M24.6,9.8c-1.7,1-4.3-3.4-2.6-4.4C21.2,5.9,20.4,6,20.4,7c0,0.6,0.2,1.6,0.5,2.1c0.3,0.6,1.1,1,1.6,1.5
						C23.1,11.2,24,10.2,24.6,9.8z"/>
					<path class="st2" d="M25.9,9c0-1.3-0.8-2.7-1.7-3.6c-1.2-1.2-2.1-1-3.5-0.2c3-0.1,4.8,4.4,3.6,6.2C25.2,10.7,25.9,10.2,25.9,9z
						"/>
					<g>
						<path class="st0" d="M22.4,5.3c1.4,0.8,2.5,2.8,2.5,4.4c0,1.6-1.1,2.3-2.5,1.5c-1.4-0.8-2.5-2.8-2.5-4.4
							C19.9,5.1,21,4.5,22.4,5.3z M22.4,10.3c1,0.6,1.8,0.1,1.8-1c0-1.1-0.8-2.5-1.8-3.1c-1-0.6-1.8-0.1-1.8,1
							C20.6,8.3,21.4,9.7,22.4,10.3"/>
					</g>
				</g>
				<g class="st3">
					<path class="st2" d="M29.7,8.3c-1.7,1-4.3-3.4-2.6-4.4c-0.9,0.5-1.7,0.6-1.6,1.6c0,0.6,0.2,1.6,0.5,2.1c0.3,0.6,1.1,1,1.6,1.5
						C28.2,9.7,29,8.7,29.7,8.3z"/>
					<path class="st2" d="M30.9,7.4c0-1.3-0.8-2.7-1.7-3.6c-1.2-1.2-2.1-1-3.5-0.2c3-0.1,4.8,4.4,3.6,6.2
						C30.2,9.1,30.9,8.7,30.9,7.4z"/>
					<g>
						<path class="st0" d="M27.4,3.7C28.8,4.5,30,6.5,30,8.1c0,1.6-1.1,2.3-2.5,1.5c-1.4-0.8-2.5-2.8-2.5-4.4
							C24.9,3.6,26,2.9,27.4,3.7z M27.4,8.7c1,0.6,1.8,0.1,1.8-1c0-1.1-0.8-2.5-1.8-3.1c-1-0.6-1.8-0.1-1.8,1
							C25.6,6.7,26.4,8.1,27.4,8.7"/>
					</g>
				</g>
				<g class="st3">
					<path class="st2" d="M9.9,14.9c-1.7,1-4.3-3.4-2.6-4.4c-0.9,0.5-1.7,0.6-1.6,1.6c0,0.6,0.2,1.6,0.5,2.1c0.3,0.6,1.1,1,1.6,1.5
						C8.4,16.3,9.2,15.3,9.9,14.9z"/>
					<path class="st2" d="M11.2,14c0-1.3-0.8-2.7-1.7-3.6c-1.2-1.2-2.1-1-3.5-0.2c3-0.1,4.8,4.4,3.6,6.2
						C10.5,15.7,11.2,15.3,11.2,14z"/>
					<g>
						<path class="st0" d="M7.7,10.3c1.4,0.8,2.5,2.8,2.5,4.4c0,1.6-1.1,2.3-2.5,1.5c-1.4-0.8-2.5-2.8-2.5-4.4
							C5.2,10.2,6.3,9.5,7.7,10.3z M7.7,15.3c1,0.6,1.8,0.1,1.8-1c0-1.1-0.8-2.5-1.8-3.1c-1-0.6-1.8-0.1-1.8,1
							C5.9,13.3,6.7,14.7,7.7,15.3"/>
					</g>
				</g>
			</g>
		</g>
		<g>
			<path class="st13" d="M5.4,13.7L38,3.2l0,4.1c0,0.9-0.7,2-1.4,2.5c-0.1,0.1-0.2,0.1-0.3,0.1L6.6,19.6c-0.7,0.2-1.1-0.2-1.1-1
				L5.4,13.7z"/>
		</g>
	</g>
</g>
</svg>
