<?xml version="1.0" encoding="utf-8"?>
<!-- Generator: Adobe Illustrator 23.0.4, SVG Export Plug-In . SVG Version: 6.00 Build 0)  -->
<svg version="1.1" id="Capa_1" xmlns="http://www.w3.org/2000/svg" xmlns:xlink="http://www.w3.org/1999/xlink" x="0px" y="0px"
	 viewBox="0 0 38.4 25.9" style="enable-background:new 0 0 38.4 25.9;" xml:space="preserve">
<style type="text/css">
	.st0{fill:#C6C6C5;}
	.st1{fill:#D9D9D9;}
	.st2{fill:#E7E6E6;}
	.st3{enable-background:new    ;}
	.st4{fill:#88D39C;}
	.st5{fill:#035426;}
	.st6{fill:#6ABA82;}
	.st7{clip-path:url(#SVGID_2_);}
	.st8{fill:#31AA59;}
	.st9{fill:#EA6A80;}
	.st10{fill:#5B1016;}
	.st11{fill:#CC5261;}
	.st12{clip-path:url(#SVGID_4_);}
	.st13{fill:#BD1622;}
	.st14{fill:#EAEAEA;}
	.st15{fill:#B3B4B3;}
	.st16{clip-path:url(#SVGID_8_);}
	.st17{fill:#D0D9EF;}
	.st18{fill:#264B8C;}
	.st19{fill:#BFC9E8;}
	.st20{clip-path:url(#SVGID_10_);}
	.st21{clip-path:url(#SVGID_12_);}
	.st22{fill:#9FABD8;}
</style>
<g>
	<g>
		<g>
			<polygon class="st0" points="38.4,24.6 38.4,10.3 36.3,11.6 36.3,25.9 			"/>
			<polygon class="st1" points="34.2,24.6 34.2,10.3 36.3,11.6 36.3,25.9 			"/>
			<polygon class="st2" points="36.3,9.1 38.4,10.3 36.3,11.6 34.2,10.3 			"/>
		</g>
		<g>
			<polygon class="st0" points="24.7,16.7 24.7,2.4 22.6,3.6 22.5,18 			"/>
			<polygon class="st1" points="20.4,16.7 20.4,2.4 22.6,3.6 22.6,18 			"/>
			<polygon class="st2" points="22.6,1.2 24.7,2.4 22.6,3.6 20.4,2.4 			"/>
		</g>
		<polygon class="st2" points="36.3,11.6 20.4,2.4 22.6,1.2 38.4,10.3 		"/>
		<polygon class="st1" points="34.2,10.3 34.2,13.2 22.6,6.5 22.6,3.6 		"/>
	</g>
	<g class="st3">
		<g>
			<polygon class="st4" points="5.4,13.7 0,10.6 32.5,0 38,3.2 			"/>
		</g>
		<g>
			<polygon class="st5" points="6,13.1 1.6,10.5 32.1,0.6 36.6,3.1 			"/>
		</g>
		<path class="st6" d="M5.4,13.7L0,10.6l0,4.9c0,0.4,0.2,0.8,0.4,0.9l5.4,3.2C5.6,19.4,5.4,13.7,5.4,13.7z"/>
		<g>
			<defs>
				<polygon id="SVGID_1_" points="6,13.1 1.6,10.5 32.1,0.6 36.6,3.1 				"/>
			</defs>
			<clipPath id="SVGID_2_">
				<use xlink:href="#SVGID_1_"  style="overflow:visible;"/>
			</clipPath>
			<g class="st7">
				<g>
					<g>
						<g class="st3">
							<path class="st2" d="M30.5,4.7c0-0.1,0-0.3,0-0.4c0-0.6,0.3-1.3,0.6-1.5l0.7-0.1c-0.4,0.2-0.6,0.7-0.6,1.3c0,0.1,0,0.3,0,0.5
								c0,0,0,0,0,0.1c0,0.1,0.1,0.3,0.1,0.4c0,0,0,0,0,0c0.3,1.1,1.1,2.3,2.3,2.6c0.1,0,0.2,0.1,0.3,0.1c0,0,0,0,0,0
								c0.1,0,0.2,0,0.3,0c0,0,0,0,0,0c0.1,0,0.2-0.1,0.3-0.1c0,0-0.4,0.5-0.4,0.5c-0.1,0.1-0.6,0.2-0.7,0.2C32,8.2,30.6,6,30.5,4.7
								z"/>
							<path class="st2" d="M31.1,1.7c1.6-0.9,3.4,1.1,4,2.3C35.7,4.9,36,5.9,36,6.8c0,1.1-0.5,1.6-1.4,2.1c1-0.7,0.5-3.4-0.2-4.5
								c-0.7-1.2-2.7-3-3.9-2.4C30.8,1.9,31,1.8,31.1,1.7z"/>
							<g>
								<path class="st0" d="M35.5,7.1c0,1.8-1.3,2.5-2.9,1.6c-1.6-0.9-2.8-3.1-2.8-4.9c0-1.8,1.3-2.5,2.9-1.6S35.5,5.3,35.5,7.1z
									 M32.6,7.8c1.1,0.6,2,0.1,2-1.1c0-1.3-0.9-2.8-2-3.5c-1.1-0.6-2-0.1-2,1.1C30.6,5.6,31.5,7.1,32.6,7.8"/>
							</g>
						</g>
					</g>
					<g>
						<g class="st3">
							<path class="st2" d="M25.9,6.1c0-0.1,0-0.3,0-0.4c0-0.6,0.3-1.3,0.6-1.5l0.7-0.1c-0.4,0.2-0.6,0.7-0.6,1.3c0,0.1,0,0.3,0,0.5
								c0,0,0,0,0,0.1c0,0.1,0.1,0.3,0.1,0.4c0,0,0,0,0,0c0.3,1.1,1.1,2.3,2.3,2.6c0.1,0,0.2,0.1,0.3,0.1c0,0,0,0,0,0
								c0.1,0,0.2,0,0.3,0c0,0,0,0,0,0c0.1,0,0.2-0.1,0.3-0.1c0,0-0.4,0.5-0.4,0.5c-0.1,0.1-0.6,0.2-0.7,0.2
								C27.4,9.7,26.1,7.5,25.9,6.1z"/>
							<path class="st2" d="M26.6,3.2c1.6-0.9,3.4,1.1,4,2.3c0.5,0.8,0.8,1.8,0.8,2.8c0,1.1-0.5,1.6-1.4,2.1c1-0.7,0.5-3.4-0.2-4.5
								c-0.7-1.2-2.7-3-3.9-2.4C26.2,3.4,26.4,3.3,26.6,3.2z"/>
							<g>
								<path class="st0" d="M30.9,8.6c0,1.8-1.3,2.5-2.9,1.6c-1.6-0.9-2.8-3.1-2.8-4.9c0-1.8,1.3-2.5,2.9-1.6S30.9,6.8,30.9,8.6z
									 M28.1,9.3c1.1,0.6,2,0.1,2-1.1c0-1.3-0.9-2.8-2-3.5c-1.1-0.6-2-0.1-2,1.1C26.1,7.1,27,8.6,28.1,9.3"/>
							</g>
						</g>
					</g>
					<g>
						<g class="st3">
							<path class="st2" d="M21.2,7.6c0-0.1,0-0.3,0-0.4c0-0.6,0.3-1.3,0.6-1.5l0.7-0.1c-0.4,0.2-0.6,0.7-0.6,1.3c0,0.1,0,0.3,0,0.5
								c0,0,0,0,0,0.1c0,0.1,0.1,0.3,0.1,0.4c0,0,0,0,0,0c0.3,1.1,1.1,2.3,2.3,2.6c0.1,0,0.2,0.1,0.3,0.1c0,0,0,0,0,0
								c0.1,0,0.2,0,0.3,0c0,0,0,0,0,0c0.1,0,0.2-0.1,0.3-0.1c0,0-0.4,0.5-0.4,0.5c-0.1,0.1-0.6,0.2-0.7,0.2
								C22.6,11.1,21.3,9,21.2,7.6z"/>
							<path class="st2" d="M21.8,4.7c1.6-0.9,3.4,1.1,4,2.3c0.5,0.8,0.8,1.8,0.8,2.8c0,1.1-0.5,1.6-1.4,2.1c1-0.7,0.5-3.4-0.2-4.5
								c-0.7-1.2-2.7-3-3.9-2.4C21.5,4.9,21.6,4.8,21.8,4.7z"/>
							<g>
								<path class="st0" d="M26.2,10.1c0,1.8-1.3,2.5-2.9,1.6c-1.6-0.9-2.8-3.1-2.8-4.9c0-1.8,1.3-2.5,2.9-1.6
									C24.9,6.1,26.2,8.3,26.2,10.1z M23.3,10.7c1.1,0.6,2,0.1,2-1.1c0-1.3-0.9-2.8-2-3.5c-1.1-0.6-2-0.1-2,1.1
									C21.3,8.6,22.2,10.1,23.3,10.7"/>
							</g>
						</g>
					</g>
					<g>
						<g class="st3">
							<path class="st2" d="M16.3,9.3c0-0.1,0-0.3,0-0.4c0-0.6,0.3-1.3,0.6-1.5l0.7-0.1C17.2,7.6,17,8,17,8.6c0,0.1,0,0.3,0,0.5
								c0,0,0,0,0,0.1c0,0.1,0.1,0.3,0.1,0.4c0,0,0,0,0,0c0.3,1.1,1.1,2.3,2.3,2.6c0.1,0,0.2,0.1,0.3,0.1c0,0,0,0,0,0
								c0.1,0,0.2,0,0.3,0c0,0,0,0,0,0c0.1,0,0.2-0.1,0.3-0.1c0,0-0.4,0.5-0.4,0.5c-0.1,0.1-0.6,0.2-0.7,0.2
								C17.8,12.8,16.5,10.6,16.3,9.3z"/>
							<path class="st2" d="M17,6.3c1.6-0.9,3.4,1.1,4,2.3c0.5,0.8,0.8,1.8,0.8,2.8c0,1.1-0.5,1.6-1.4,2.1c1-0.7,0.5-3.4-0.2-4.5
								c-0.7-1.2-2.7-3-3.9-2.4C16.6,6.5,16.8,6.4,17,6.3z"/>
							<g>
								<path class="st0" d="M21.3,11.8c0,1.8-1.3,2.5-2.9,1.6c-1.6-0.9-2.8-3.1-2.8-4.9c0-1.8,1.3-2.5,2.9-1.6S21.3,9.9,21.3,11.8z
									 M18.4,12.4c1.1,0.6,2,0.1,2-1.1c0-1.3-0.9-2.8-2-3.5c-1.1-0.6-2-0.1-2,1.1C16.4,10.2,17.3,11.8,18.4,12.4"/>
							</g>
						</g>
					</g>
					<g>
						<g class="st3">
							<path class="st2" d="M11.1,11c0-0.1,0-0.3,0-0.4c0-0.6,0.3-1.3,0.6-1.5l0.7-0.1c-0.4,0.2-0.6,0.7-0.6,1.3c0,0.1,0,0.3,0,0.5
								c0,0,0,0,0,0.1c0,0.1,0.1,0.3,0.1,0.4c0,0,0,0,0,0c0.3,1.1,1.1,2.3,2.3,2.6c0.1,0,0.2,0.1,0.3,0.1c0,0,0,0,0,0
								c0.1,0,0.2,0,0.3,0c0,0,0,0,0,0c0.1,0,0.2-0.1,0.3-0.1c0,0-0.4,0.5-0.4,0.5c-0.1,0.1-0.6,0.2-0.7,0.2
								C12.6,14.5,11.3,12.3,11.1,11z"/>
							<path class="st2" d="M11.7,8c1.6-0.9,3.4,1.1,4,2.3c0.5,0.8,0.8,1.8,0.8,2.8c0,1.1-0.5,1.6-1.4,2.1c1-0.7,0.5-3.4-0.2-4.5
								c-0.7-1.2-2.7-3-3.9-2.4C11.4,8.2,11.6,8.1,11.7,8z"/>
							<g>
								<path class="st0" d="M16.1,13.5c0,1.8-1.3,2.5-2.9,1.6s-2.8-3.1-2.8-4.9c0-1.8,1.3-2.5,2.9-1.6S16.1,11.7,16.1,13.5z
									 M13.2,14.1c1.1,0.6,2,0.1,2-1.1c0-1.3-0.9-2.8-2-3.5c-1.1-0.6-2-0.1-2,1.1C11.2,11.9,12.1,13.5,13.2,14.1"/>
							</g>
						</g>
					</g>
					<g>
						<g class="st3">
							<path class="st2" d="M5.9,12.7c0-0.1,0-0.3,0-0.4c0-0.6,0.3-1.3,0.6-1.5l0.7-0.1c-0.4,0.2-0.6,0.7-0.6,1.3c0,0.1,0,0.3,0,0.5
								c0,0,0,0,0,0.1c0,0.1,0.1,0.3,0.1,0.4c0,0,0,0,0,0C7,14.2,7.8,15.4,9,15.7c0.1,0,0.2,0.1,0.3,0.1c0,0,0,0,0,0
								c0.1,0,0.2,0,0.3,0c0,0,0,0,0,0c0.1,0,0.2-0.1,0.3-0.1c0,0-0.4,0.5-0.4,0.5c-0.1,0.1-0.6,0.2-0.7,0.2
								C7.3,16.2,6,14.1,5.9,12.7z"/>
							<path class="st2" d="M6.5,9.8c1.6-0.9,3.4,1.1,4,2.3c0.5,0.8,0.8,1.8,0.8,2.8c0,1.1-0.5,1.6-1.4,2.1c1-0.7,0.5-3.4-0.2-4.5
								c-0.7-1.2-0.8-1.5-4-2.3C6,10.1,6.3,9.9,6.5,9.8z"/>
							<g>
								<path class="st0" d="M10.9,15.2c0,1.8-1.3,2.5-2.9,1.6s-2.8-3.1-2.8-4.9c0-1.8,1.3-2.5,2.9-1.6
									C9.6,11.2,10.9,13.4,10.9,15.2z M8,15.8c1.1,0.6,2,0.1,2-1.1c0-1.3-0.9-2.8-2-3.5c-1.1-0.6-2-0.1-2,1.1
									C6,13.7,6.9,15.2,8,15.8"/>
							</g>
						</g>
					</g>
				</g>
			</g>
		</g>
		<g>
			<path class="st8" d="M5.4,13.7L38,3.2l0,4.1c0,0.9-0.7,2-1.4,2.5c-0.1,0.1-0.2,0.1-0.3,0.1L6.6,19.6c-0.7,0.2-1.1-0.2-1.1-1
				L5.4,13.7z"/>
		</g>
	</g>
</g>
</svg>
