<?xml version="1.0" encoding="utf-8"?>
<!-- Generator: Adobe Illustrator 23.0.3, SVG Export Plug-In . SVG Version: 6.00 Build 0)  -->
<svg version="1.2" baseProfile="tiny" id="Capa_1" xmlns="http://www.w3.org/2000/svg" xmlns:xlink="http://www.w3.org/1999/xlink"
	 x="0px" y="0px" viewBox="0 0 155.06 189.78" xml:space="preserve">
<g>
	<path fill="#E57DB0" d="M16.27,185.71l-14.14-6.94c-0.59,0.58-0.97,1.75-0.72,2.55c0.23,0.71,0.93,1.11,0.93,1.11l13.27,6.99
		l0.26,0.07c0.2,0.13,0.71-0.29,0.84-0.58c0.23-0.52,0.3-1.78,0.11-2.45C16.66,185.84,16.27,185.71,16.27,185.71z"/>
	<polygon fill="#F9B033" points="80.39,149.19 16.24,185.86 2.13,178.78 66.17,141.91 	"/>
	<line fill="#F9B033" x1="1.95" y1="178.95" x2="16.18" y2="186.23"/>
	<path fill="#F29100" d="M16.67,189.3l63.15-36.17c1.14-0.65,1.85-1.87,1.85-3.18c0-0.68-0.73-1.1-1.32-0.77l-63.31,36.26
		c-0.64,0.36-1.13,0.91-1.43,1.56"/>
	<polyline fill="none" stroke="#F3F2F2" stroke-linecap="round" stroke-linejoin="round" stroke-miterlimit="10" points="
		80.39,149.19 58.48,153.87 58.48,153.87 66.17,141.91 	"/>
	<polyline fill="none" stroke="#F3F2F2" stroke-linecap="round" stroke-linejoin="round" stroke-miterlimit="10" points="
		59.38,161.15 40.69,164.11 40.69,164.11 45.15,153.87 	"/>
	<g>
		<path fill="#F29100" d="M17.47,185.7c-0.11-0.06-0.23-0.11-0.36-0.12c-0.76-0.04-1.66,0.86-2.01,2.02
			c-0.29,0.94-0.11,1.76,0.37,2.05c0.11,0.07,0.23,0.12,0.37,0.13c0.76,0.04,1.66-0.86,2.01-2.02
			C18.13,186.81,17.96,185.99,17.47,185.7z"/>
		<path fill="#F29100" d="M2.27,178.11c-0.04-0.01-0.08-0.02-0.12-0.03c-0.76-0.04-1.66,0.86-2.01,2.02
			c-0.29,0.96-0.11,1.78,0.39,2.07c0,0,0.01,0.01,0.01,0.01l14.93,7.48c0,0,0-0.01,0-0.01c-0.48-0.3-0.65-1.11-0.37-2.05
			c0.35-1.16,1.25-2.06,2.01-2.02c0.14,0.01,0.26,0.06,0.36,0.12c0,0,0.01,0,0.01,0S2.31,178.09,2.27,178.11z"/>
	</g>
	<path fill="#E57DB0" d="M121.6,26.23l-14.14-6.94c-0.59,0.58-0.97,1.75-0.72,2.55c0.23,0.71,0.93,1.11,0.93,1.11l13.27,6.99
		l0.26,0.07c0.2,0.13,0.71-0.29,0.84-0.58c0.23-0.52,0.3-1.78,0.11-2.45C121.99,26.36,121.6,26.23,121.6,26.23z"/>
	<polygon fill="#F9B033" points="154.1,7.65 121.57,26.38 107.46,19.29 139.65,0.5 	"/>
	<polygon fill="#F9B033" points="121.51,26.75 80.31,149.54 65.96,142.27 107.28,19.47 	"/>
	<path fill="#F29100" d="M153.84,7.77l-31.45,18.19c-0.64,0.36-1.13,0.91-1.43,1.56c0,0-40.47,121.72-40.56,121.77l-0.5,0.19
		c0,0,0.63,3.04,0.77,2.91l0.61-0.78c0.4-0.38,40.7-121.77,40.72-121.78l31.3-18.11c1.14-0.65,1.75-1.59,1.76-2.91
		C155.06,8.13,154.43,7.43,153.84,7.77z"/>
	<polyline fill="none" stroke="#F3F2F2" stroke-linecap="round" stroke-linejoin="round" stroke-miterlimit="10" points="
		153.87,7.78 126.15,16.14 126.15,16.14 139.65,0.5 	"/>
	<polyline fill="none" stroke="#F3F2F2" stroke-linecap="round" stroke-linejoin="round" stroke-miterlimit="10" points="
		132.86,19.73 114.17,22.7 114.17,22.7 118.63,12.46 	"/>
	<polyline fill="none" stroke="#F3F2F2" stroke-linecap="round" stroke-linejoin="round" stroke-miterlimit="10" points="
		107.18,19.78 107.46,40.48 120.95,27.52 	"/>
	<polyline fill="none" stroke="#F3F2F2" stroke-linecap="round" stroke-linejoin="round" stroke-miterlimit="10" points="
		100.14,38.97 100.98,59.67 114.47,46.71 	"/>
	<polyline fill="none" stroke="#F3F2F2" stroke-linecap="round" stroke-linejoin="round" stroke-miterlimit="10" points="
		93.72,58.16 94.51,78.86 108,65.9 	"/>
	<polyline fill="none" stroke="#F3F2F2" stroke-linecap="round" stroke-linejoin="round" stroke-miterlimit="10" points="
		87.37,77.41 88.03,98.06 101.52,85.1 	"/>
	<polyline fill="none" stroke="#F3F2F2" stroke-linecap="round" stroke-linejoin="round" stroke-miterlimit="10" points="
		80.88,96.55 81.55,117.25 95.04,104.29 	"/>
	<polyline fill="none" stroke="#F3F2F2" stroke-linecap="round" stroke-linejoin="round" stroke-miterlimit="10" points="
		74.79,115.74 75.07,136.44 88.56,123.48 	"/>
	<g>
		<path fill="#F29100" d="M122.8,26.22c-0.11-0.06-0.23-0.11-0.36-0.12c-0.76-0.04-1.66,0.86-2.01,2.02
			c-0.29,0.94-0.11,1.76,0.37,2.05c0.11,0.07,0.23,0.12,0.37,0.13c0.76,0.04,1.66-0.86,2.01-2.02
			C123.46,27.33,123.29,26.51,122.8,26.22z"/>
		<path fill="#F29100" d="M107.6,18.62c-0.04-0.01-0.08-0.02-0.12-0.03c-0.76-0.04-1.66,0.86-2.01,2.02
			c-0.29,0.96-0.11,1.78,0.39,2.07c0,0,0.01,0.01,0.01,0.01l14.93,7.48c0,0,0-0.01,0-0.01c-0.48-0.3-0.65-1.11-0.37-2.05
			c0.35-1.16,1.25-2.06,2.01-2.02c0.14,0.01,0.26,0.06,0.36,0.12c0,0,0.01,0,0.01,0S107.64,18.61,107.6,18.62z"/>
	</g>
	<g>
		<path fill="#F29100" d="M81.16,149c-0.11-0.06-0.23-0.11-0.36-0.12c-0.76-0.04-1.66,0.86-2.01,2.02
			c-0.29,0.94-0.11,1.76,0.37,2.05c0.11,0.07,0.23,0.12,0.37,0.13c0.76,0.04,1.66-0.86,2.01-2.02
			C81.82,150.11,81.65,149.3,81.16,149z"/>
		<path fill="#F29100" d="M65.96,141.41c-0.04-0.01-0.08-0.02-0.12-0.03c-0.76-0.04-1.66,0.86-2.01,2.02
			c-0.29,0.96-0.11,1.78,0.39,2.07c0,0,0.01,0.01,0.01,0.01l14.93,7.48c0,0,0-0.01,0-0.01c-0.48-0.3-0.65-1.11-0.37-2.05
			c0.35-1.16,1.25-2.06,2.01-2.02c0.14,0.01,0.26,0.06,0.36,0.12c0,0,0.01,0,0.01,0S66,141.4,65.96,141.41z"/>
	</g>
</g>
</svg>
