<?xml version="1.0" encoding="UTF-8" standalone="no"?>
<svg
   xmlns:dc="http://purl.org/dc/elements/1.1/"
   xmlns:cc="http://creativecommons.org/ns#"
   xmlns:rdf="http://www.w3.org/1999/02/22-rdf-syntax-ns#"
   xmlns:svg="http://www.w3.org/2000/svg"
   xmlns="http://www.w3.org/2000/svg"
   xmlns:sodipodi="http://sodipodi.sourceforge.net/DTD/sodipodi-0.dtd"
   xmlns:inkscape="http://www.inkscape.org/namespaces/inkscape"
   width="1540"
   height="640"
   preserveAspectRatio="xMidYMid meet"
   version="1.1"
   id="svg30"
   sodipodi:docname="incidencias_on.svg"
   inkscape:version="0.92.5 (2060ec1f9f, 2020-04-08)">
  <metadata
     id="metadata34">
    <rdf:RDF>
      <cc:Work
         rdf:about="">
        <dc:format>image/svg+xml</dc:format>
        <dc:type
           rdf:resource="http://purl.org/dc/dcmitype/StillImage" />
        <dc:title></dc:title>
      </cc:Work>
    </rdf:RDF>
  </metadata>
  <sodipodi:namedview
     pagecolor="#ffffff"
     bordercolor="#666666"
     borderopacity="1"
     objecttolerance="10"
     gridtolerance="10"
     guidetolerance="10"
     inkscape:pageopacity="0"
     inkscape:pageshadow="2"
     inkscape:window-width="1920"
     inkscape:window-height="1057"
     id="namedview32"
     showgrid="false"
     inkscape:pagecheckerboard="true"
     inkscape:zoom="0.22662338"
     inkscape:cx="770"
     inkscape:cy="320"
     inkscape:window-x="-8"
     inkscape:window-y="-8"
     inkscape:window-maximized="1"
     inkscape:current-layer="svg30" />
  <defs
     id="defs5">
    <path
       d="m441,66.150002c0,-11.650002 9.859985,-21.150002 22,-21.150002c11,0 99,0 110,0c12.119995,0 22,9.5 22,21.150002c0,50.769997 0,456.930016 0,507.699974c0,11.650024 -9.880005,21.150024 -22,21.150024c-7.330017,0 -44,0 -110,0c-14.670013,-6.330017 -22,-13.380005 -22,-21.150024c0,-50.769958 0,-456.929977 0,-507.699974z"
       id="ebhoJeEao" />
    <path
       d="m256,191.830002c0,-11.660004 9.859985,-21.160004 22,-21.160004c11,0 99,0 110,0c12.119995,0 22,9.5 22,21.160004c0,38.069992 0,342.690018 0,380.769974c0,11.650024 -9.880005,21.150024 -22,21.150024c-7.329987,0 -44,0 -110,0c-14.670013,-6.330017 -22,-13.380005 -22,-21.150024c0,-38.079956 0,-342.699982 0,-380.769974z"
       id="awQeqoTxE" />
    <path
       d="m45,320c0,-11.660004 9.860001,-21.149994 22,-21.149994c11,0 99,0 110,0c12.119995,0 22,9.48999 22,21.149994c0,25.380005 0,228.460022 0,253.849976c0,11.650024 -9.880005,21.150024 -22,21.150024c-7.330002,0 -44,0 -110,0c-14.669998,-6.330017 -22,-13.380005 -22,-21.150024c0,-25.389954 0,-228.469971 0,-253.849976z"
       id="a20riFUTuB" />
  </defs>
  <g
     id="g10">
    <title
       id="title7">background</title>
    <rect
       x="-1"
       y="-1"
       width="1542"
       height="642"
       id="canvas_background"
       fill="none" />
  </g>
  <text
     style="font-weight:bold;font-size:180px;font-family:'Trebuchet MS', Gadget, sans-serif;text-anchor:start;fill:#ffffff"
     x="680"
     y="384.37988"
     id="svg_2"
     font-size="180"
     xml:space="preserve"
     font-weight="bold"><tspan
       style="font-size:146.66667175px"
       id="tspan863">INCIDENCIAS</tspan></text>
  <g
     id="g843"
     transform="matrix(0.60874815,0,0,0.60874815,31.965814,9.062536)"
     style="fill:#ffffff;fill-opacity:1">
    <path
       id="path841"
       d="m 776.3,773.93178 c 0,-1.7 -0.2,-3.3 -0.4,-5.3 -1.8,0.5 -3,0.8 -4.3,1.1 -24.1,6.4 -48,13.3 -72.2,19 -54.3,12.6 -109.2,20.9 -165,22.6 -88.8,2.7 -175.8,-10.6 -262.1,-30.6 -16,-3.7 -31.9,-7.9 -48.1,-12 -0.2,1.3 -0.6,2.4 -0.6,3.5 0,26.3 0.1,52.6 -0.1,78.9 0,4.4 2.5,4.9 5.5,5.8 75.4,20.1 151.7,34.4 229.6,39.9 9,0.6 17.9,1.4 26.9,2.1 H 542 c 1.5,-0.3 3,-0.8 4.4,-0.9 15.1,-1.2 30.2,-2.1 45.3,-3.7 61,-6.5 120.6,-19.4 179.3,-37.2 4,-1.2 5.4,-3 5.4,-7.2 -0.2,-25.3 -0.1,-50.7 -0.1,-76 z m -627.7,-341.7 c -2.1,-1.4 -4.3,-2.6 -6.4,-3.8 -30,-17.4 -60,-34.9 -90.1,-52.1 -16.4,-9.4 -34.8,-2.2 -41,15.6 -0.3,0.9 -0.8,1.7 -1.2,2.5 v 11.5 c 2.9,6.7 6,13.3 12.6,17.2 32.7,18.9 65.2,38 98.1,56.6 13,7.4 28.9,2.3 36.5,-10.4 7.5,-12.6 3.8,-28.7 -8.5,-37.1 z m 839.4,-42.5 c -6.2,-15.3 -23.7,-22.5 -38.1,-14.5 -33.1,18.6 -65.8,37.7 -98.5,57.1 -10.3,6.1 -14.5,18.3 -11.6,29.6 4.7,18.5 24.4,26.6 41.5,16.8 29.3,-16.7 58.3,-34 87.7,-50.5 9.5,-5.4 17.4,-11.6 21,-22.2 v -11.5 c -0.7,-1.7 -1.3,-3.2 -2,-4.8 z m -487.4,-123.6 c 1.7,11.7 11.9,21.3 23.6,22.5 17.6,1.8 30.9,-10.4 31,-28.8 0.1,-34.5 0,-69.1 0,-103.6 0,-19.5 -4.5,-26.3 -22.4,-33.6 h -10.4 c -18,7.4 -22.5,14.2 -22.5,34.1 0,33 0,66 0,99 0.1,3.5 0.2,7 0.7,10.4 z m -234.2,397.2 c 0.2,12.4 1.6,25 4.3,37 8,36 31.8,56 67,63.7 32,7 64.4,5.8 98.5,5.4 -13.2,-1.5 -24.8,-2.3 -36.3,-4.3 -23.4,-4.1 -39.7,-17 -45.3,-40.8 -2.2,-9.6 -3.3,-19.7 -3.4,-29.6 -0.4,-34.3 -0.3,-68.7 -0.1,-103.1 0.2,-37 10.6,-70.6 32.8,-100.5 36.5,-49.1 97.9,-71.4 154.5,-54 59.9,18.4 94.4,60.9 106.8,121.1 4,19.7 3.3,40.4 3.5,60.7 0.3,30.3 0.4,60.7 -0.9,90.9 -1.4,31.5 -18.3,49.8 -49.2,55.4 -10.9,2 -22,2.6 -33.1,3.9 0.1,0.2 0.1,0.3 0.2,0.5 4.6,0 9.2,0 13.8,0 27.6,0.3 55.3,0.4 82.5,-5.6 29.9,-6.6 53.4,-21.7 63.6,-52 3.9,-11.5 6.8,-23.8 7.2,-35.9 1.1,-33 1.5,-66 0.5,-99 -0.6,-18.1 -2.9,-36.5 -7.4,-54 -30,-118.9 -144.6,-197.2 -267.3,-175 -103.7,18.9 -184.7,108.6 -191.5,218.5 -2,32.1 -1.1,64.5 -0.7,96.7 z m 338.6,54.2 c 2.6,-22.1 3,-44.5 -0.7,-66.6 -8.5,-49.6 -51.3,-87.2 -100,-88.5 -51.6,-1.4 -95.9,32.6 -107.5,82.9 -5.2,22.5 -3.8,45.4 -2.3,68.2 1.7,24.5 15.2,40.5 38.6,47.4 9.3,2.8 19.1,3.8 28.7,5.6 0.4,0.1 0.7,0.3 1.9,0.8 -1.9,0.3 -2.8,0.4 -5.2,0.8 h 82.2 c -1.9,-0.4 -2.9,-0.6 -3.7,-0.8 9.5,-1.9 19,-3.2 28.2,-5.8 22.4,-6.3 37,-20.5 39.8,-44 z m -312.3,-384.3 c 12.8,-7.4 18,-23.8 10.6,-36.9 -18.4,-32.7 -37.3,-65.2 -56.2,-97.6 -5.1,-8.7 -13.2,-13 -23.5,-13.1 -20.8,0 -34.5,22.2 -24.2,40.5 18.3,32.8 37.2,65.2 56.2,97.6 7.7,13.2 24.1,17 37.1,9.5 z m 491.3,-146.6 c -12.4,-3.6 -25,1.4 -31.9,13.3 -18.3,31.5 -36.4,63 -54.5,94.6 -8.1,14.2 -3.9,30.8 9.4,38.6 13.6,8 30.1,3.4 38.5,-11.1 18.2,-31.3 36.2,-62.7 54.1,-94.1 2.5,-4.4 3.5,-9.5 5.2,-14.3 -0.9,-12.8 -8.9,-23.5 -20.8,-27 z"
       inkscape:connector-curvature="0"
       style="fill:#ffffff;fill-opacity:1" />
  </g>
</svg>
