<svg width="1450" height="640" xmlns="http://www.w3.org/2000/svg" xmlns:xlink="http://www.w3.org/1999/xlink" preserveAspectRatio="xMidYMid meet">
 <defs>
  <path d="m535.98999,47.98l1.070007,0.049999l1.070007,0.09l1.049988,0.100002l1.049988,0.119999l1.040039,0.150002l1.029968,0.179996l1.030029,0.190002l1.01001,0.220001l1.009949,0.239998l1,0.260002l0.990051,0.289997l0.98999,0.310001l0.97998,0.329998l0.960022,0.360001l0.969971,0.380001l0.950012,0.400002l0.940002,0.419998l0.940002,0.450001l0.929993,0.470001l0.919983,0.489998l0.920044,0.52l0.899963,0.540001l0.900024,0.559998l0.890015,0.59l0.889954,0.610001l0.869995,0.630001l0.869995,0.650002l0.860046,0.679996l0.849976,0.700001l0.840027,0.720001l0.839966,0.75l0.830017,0.759998l0.820007,0.800003l0.809998,0.809998l0.799988,0.84l0.799988,0.860001l0.790039,0.879997l0.779968,0.910004l0.77002,0.919998l0.73999,0.93l0.72998,0.949997l0.710022,0.950005l0.690002,0.959999l0.669983,0.959999l0.650024,0.980003l0.630005,0.989998l0.609985,1l0.589966,1l0.580017,1.019997l0.549988,1.020004l0.530029,1.040001l0.52002,1.040001l0.48999,1.049995l0.47998,1.07l0.450012,1.07l0.440002,1.080002l0.419983,1.090004l0.400024,1.099998l0.380005,1.099998l0.349976,1.120003l0.340027,1.129997l0.319946,1.129997l0.310059,1.150002l0.279968,1.150002l0.26001,1.169998l0.23999,1.169998l0.220032,1.18l0.209961,1.200005l0.179993,1.199997l0.170044,1.209999l0.139954,1.220001l0.130005,1.230003l0.109985,1.229996l0.080017,1.25l0.070007,1.260002l0.049988,1.260002l0.030029,1.279999l0.01001,1.279999l0,425.010002l-0.01001,1.279968l-0.030029,1.280029l-0.049988,1.26001l-0.070007,1.26001l-0.080017,1.25l-0.109985,1.22998l-0.130005,1.22998l-0.139954,1.220032l-0.170044,1.209961l-0.179993,1.200012l-0.209961,1.190002l-0.220032,1.190002l-0.23999,1.169983l-0.26001,1.160034l-0.279968,1.159973l-0.310059,1.140015l-0.319946,1.140015l-0.340027,1.119995l-0.349976,1.119995l-0.380005,1.109985l-0.400024,1.100037l-0.419983,1.089966l-0.440002,1.080017l-0.450012,1.070007l-0.47998,1.059998l-0.48999,1.049988l-0.52002,1.049988l-0.530029,1.030029l-0.549988,1.019958l-0.580017,1.02002l-0.589966,1.01001l-0.609985,0.98999l-0.630005,0.98999l-0.650024,0.980042l-0.669983,0.969971l-0.690002,0.960022l-0.710022,0.950012l-0.72998,0.939941l-0.73999,0.930054l-0.77002,0.929993l-0.779968,0.899963l-0.790039,0.890015l-0.799988,0.859985l-0.799988,0.840027l-0.809998,0.809998l-0.820007,0.789978l-0.830017,0.77002l-0.839966,0.75l-0.840027,0.719971l-0.849976,0.700012l-0.860046,0.679993l-0.869995,0.650024l-0.869995,0.630005l-0.889954,0.609985l-0.890015,0.590027l-0.900024,0.559998l-0.899963,0.539978l-0.920044,0.51001l-0.919983,0.5l-0.929993,0.469971l-0.940002,0.440002l-0.940002,0.429993l-0.950012,0.400024l-0.969971,0.380005l-0.960022,0.349976l-0.97998,0.340027l-0.98999,0.299988l-0.990051,0.290039l-1,0.259949l-1.009949,0.25l-1.01001,0.210022l-1.030029,0.200012l-1.029968,0.169983l-1.040039,0.150024l-1.049988,0.130005l-1.049988,0.099976l-1.070007,0.080017l-1.070007,0.059998l-1.080017,0.029968l-1.079956,0.01001l-444.240021,0l-1.079994,-0.01001l-1.080002,-0.029968l-1.07,-0.059998l-1.07,-0.080017l-1.050003,-0.099976l-1.049995,-0.130005l-1.040001,-0.150024l-1.029999,-0.169983l-1.020004,-0.200012l-1.019997,-0.210022l-1.010002,-0.25l-1,-0.259949l-0.989998,-0.290039l-0.990005,-0.299988l-0.969994,-0.340027l-0.970001,-0.349976l-0.959999,-0.380005l-0.959999,-0.400024l-0.940002,-0.429993l-0.940002,-0.440002l-0.93,-0.469971l-0.919998,-0.5l-0.919998,-0.51001l-0.900002,-0.539978l-0.900002,-0.559998l-0.889999,-0.590027l-0.889999,-0.609985l-0.869999,-0.630005l-0.870003,-0.650024l-0.859997,-0.679993l-0.850002,-0.700012l-0.84,-0.719971l-0.84,-0.75l-0.82,-0.77002l-0.82,-0.789978l-0.82,-0.809998l-0.799999,-0.840027l-0.799999,-0.859985l-0.790001,-0.890015l-0.779999,-0.899963l-0.760002,-0.929993l-0.75,-0.930054l-0.73,-0.939941l-0.709999,-0.950012l-0.690002,-0.960022l-0.669998,-0.969971l-0.650002,-0.980042l-0.629997,-0.98999l-0.610001,-0.98999l-0.59,-1.01001l-0.580002,-1.01001l-0.549999,-1.029968l-0.529999,-1.030029l-0.52,-1.049988l-0.490002,-1.049988l-0.48,-1.059998l-0.459999,-1.070007l-0.43,-1.080017l-0.419998,-1.089966l-0.400002,-1.100037l-0.380001,-1.109985l-0.360001,-1.109985l-0.34,-1.130005l-0.32,-1.140015l-0.299999,-1.140015l-0.279999,-1.149963l-0.260002,-1.170044l-0.239998,-1.169983l-0.23,-1.179993l-0.200001,-1.190002l-0.18,-1.210022l-0.169998,-1.209961l-0.150002,-1.210022l-0.119999,-1.22998l-0.110001,-1.23999l-0.09,-1.25l-0.060001,-1.26001l-0.049999,-1.26001l-0.029999,-1.280029l-0.010002,-1.279968l0,-425.010002l0.010002,-1.279999l0.029999,-1.279999l0.049999,-1.260002l0.060001,-1.260002l0.09,-1.25l0.110001,-1.229996l0.119999,-1.230003l0.150002,-1.220001l0.169998,-1.209999l0.18,-1.199997l0.200001,-1.200005l0.23,-1.18l0.239998,-1.169998l0.260002,-1.159996l0.279999,-1.160004l0.299999,-1.139999l0.32,-1.139999l0.34,-1.129997l0.360001,-1.110001l0.380001,-1.110001l0.400002,-1.099998l0.419998,-1.090004l0.43,-1.080002l0.459999,-1.07l0.48,-1.059998l0.490002,-1.059998l0.52,-1.040001l0.529999,-1.029999l0.549999,-1.030006l0.580002,-1.009995l0.59,-1.010002l0.610001,-1l0.629997,-0.989998l0.650002,-0.970001l0.669998,-0.970001l0.690002,-0.959999l0.709999,-0.950005l0.73,-0.939995l0.75,-0.940002l0.760002,-0.919998l0.779999,-0.910004l0.790001,-0.879997l0.799999,-0.860001l0.799999,-0.84l0.82,-0.809998l0.82,-0.800003l0.82,-0.759998l0.84,-0.75l0.84,-0.720001l0.850002,-0.700001l0.859997,-0.679996l0.870003,-0.650002l0.869999,-0.630001l0.889999,-0.610001l0.889999,-0.59l0.900002,-0.559998l0.900002,-0.540001l0.919998,-0.52l0.919998,-0.489998l0.93,-0.470001l0.940002,-0.450001l0.940002,-0.419998l0.959999,-0.400002l0.959999,-0.380001l0.970001,-0.360001l0.969994,-0.329998l0.990005,-0.310001l0.989998,-0.289997l1,-0.260002l1.010002,-0.239998l1.019997,-0.220001l1.020004,-0.190002l1.029999,-0.179996l1.040001,-0.150002l1.049995,-0.119999l1.050003,-0.100002l1.07,-0.09l1.07,-0.049999l1.080002,-0.040001l1.079994,-0.009998l444.240021,0l1.079956,0.009998l1.080017,0.040001l0,0.000002zm-108.149994,399.949993l-0.230011,0l-0.22998,0.01001l-0.230011,0.019989l-0.220001,0.02002l-0.220001,0.019989l-0.220001,0.029999l-0.209991,0.029999l-0.220001,0.040009l-0.209991,0.040009l-0.209991,0.049988l-0.210022,0.049988l-0.199982,0.050018l-0.210022,0.059998l-0.199982,0.070007l-0.200012,0.069977l-0.199982,0.070007l-0.190002,0.080017l-0.190002,0.079987l-0.200012,0.079987l-0.179993,0.090027l-0.190002,0.099976l-0.190002,0.100006l-0.179993,0.100006l-0.179993,0.109985l-0.180023,0.110016l-0.179993,0.119995l-0.169983,0.119995l-0.170013,0.119995l-0.170013,0.130005l-0.169983,0.140015l-0.170013,0.139984l-0.160004,0.140015l-0.159973,0.149994l-0.160004,0.149994l-0.160004,0.149994l-0.160004,0.170013l-0.149994,0.160004l-0.150024,0.169983l-0.149994,0.170013l-0.149994,0.179993l-0.139984,0.179993l-0.140015,0.180023l-0.130005,0.190002l-0.139984,0.179993l-0.119995,0.190002l-0.130005,0.190002l-0.119995,0.190002l-0.120026,0.199982l-0.109985,0.200012l-0.110016,0.199982l-0.099976,0.200012l-0.110016,0.209991l-0.089996,0.210022l-0.100006,0.209991l-0.089996,0.209991l-0.089996,0.220001l-0.079987,0.220001l-0.080017,0.220001l-0.070007,0.220001l-0.079987,0.220001l-0.059998,0.230011l-0.070007,0.22998l-0.059998,0.23999l-0.059998,0.230011l-0.050018,0.23999l-0.049988,0.240021l-0.049988,0.23999l-0.040009,0.25l-0.040009,0.25l-0.029999,0.25l-0.040009,0.25l-0.019989,0.25l-0.029999,0.26001l-0.019989,0.259979l-0.01001,0.26001l-0.019989,0.269989l-0.01001,0.27002l0,0.269989l0,0.27002l0,74.999969l0,0.280029l0,0.269958l0.01001,0.27002l0.019989,0.26001l0.01001,0.26001l0.019989,0.27002l0.029999,0.25l0.019989,0.259949l0.040009,0.25l0.029999,0.25l0.040009,0.25l0.040009,0.25l0.049988,0.240051l0.049988,0.23999l0.050018,0.23999l0.059998,0.22998l0.059998,0.23999l0.070007,0.230042l0.059998,0.22998l0.079987,0.219971l0.070007,0.220032l0.080017,0.22998l0.079987,0.210022l0.089996,0.219971l0.089996,0.210022l0.100006,0.210022l0.089996,0.209961l0.110016,0.210022l0.099976,0.200012l0.110016,0.200012l0.109985,0.199951l0.120026,0.200012l0.119995,0.190002l0.130005,0.200012l0.119995,0.179993l0.139984,0.190002l0.130005,0.190002l0.140015,0.179993l0.139984,0.179993l0.149994,0.169983l0.149994,0.180054l0.150024,0.169983l0.149994,0.159973l0.160004,0.160034l0.160004,0.159973l0.160004,0.150024l0.159973,0.149963l0.160004,0.140015l0.170013,0.140015l0.169983,0.130005l0.170013,0.130005l0.170013,0.119995l0.169983,0.119995l0.179993,0.119995l0.180023,0.109985l0.179993,0.109985l0.179993,0.100037l0.190002,0.099976l0.190002,0.100037l0.179993,0.079956l0.200012,0.090027l0.190002,0.080017l0.190002,0.079956l0.199982,0.070007l0.200012,0.070007l0.199982,0.059998l0.210022,0.059998l0.199982,0.059998l0.210022,0.049988l0.209991,0.040039l0.209991,0.039978l0.220001,0.040039l0.209991,0.029968l0.220001,0.030029l0.220001,0.029968l0.220001,0.02002l0.230011,0.01001l0.22998,0.009949l0.230011,0.01001l0.230011,0l105.76001,0l0.22998,0l0.220032,-0.01001l0.22998,-0.009949l0.219971,-0.01001l0.230042,-0.02002l0.219971,-0.029968l0.210022,-0.030029l0.219971,-0.029968l0.210022,-0.040039l0.219971,-0.039978l0.210022,-0.040039l0.200012,-0.049988l0.209961,-0.059998l0.200012,-0.059998l0.200012,-0.059998l0.200012,-0.070007l0.200012,-0.070007l0.199951,-0.079956l0.190002,-0.080017l0.190002,-0.080017l0.190002,-0.089966l0.190002,-0.100037l0.179993,-0.099976l0.180054,-0.100037l0.189941,-0.109985l0.170044,-0.109985l0.179993,-0.119995l0.179993,-0.119995l0.169983,-0.119995l0.170044,-0.130005l0.169983,-0.130005l0.159973,-0.140015l0.170044,-0.140015l0.159973,-0.149963l0.159973,-0.150024l0.160034,-0.159973l0.159973,-0.160034l0.150024,-0.159973l0.150024,-0.169983l0.149963,-0.180054l0.100037,-0.119995l0.099976,-0.119995l0.089966,-0.130005l0.100037,-0.139954l0.089966,-0.140015l0.090027,-0.150024l0.099976,-0.149963l0.080017,-0.160034l0.090027,-0.159973l0.089966,-0.170044l0.090027,-0.169983l0.080017,-0.179993l0.079956,-0.179993l0.090027,-0.190002l0.080017,-0.200012l0.079956,-0.200012l0.080017,-0.209961l0.070007,-0.210022l0.080017,-0.210022l0.069946,-0.22998l0.080017,-0.219971l0.070007,-0.23999l0.070007,-0.230042l0.070007,-0.25l0.070007,-0.25l0.070007,-0.25l0.059998,-0.26001l0.069946,-0.269958l0.060059,-0.27002l0.059998,-0.27002l0.059998,-0.279968l0.059998,-0.290039l0.059998,-0.289978l0.059998,-0.299988l0.059998,-0.299988l0.049988,-0.309998l0.059998,-0.309998l0.049988,-0.320007l0.049988,-0.330017l0.050049,-0.330017l0,-74.999969l0,-0.27002l-0.01001,-0.269989l-0.01001,-0.27002l-0.01001,-0.269989l-0.02002,-0.26001l-0.019958,-0.259979l-0.02002,-0.26001l-0.029968,-0.25l-0.030029,-0.25l-0.039978,-0.25l-0.030029,-0.25l-0.049988,-0.25l-0.039978,-0.23999l-0.050049,-0.240021l-0.059998,-0.23999l-0.059998,-0.230011l-0.059998,-0.23999l-0.059998,-0.22998l-0.070007,-0.230011l-0.070007,-0.220001l-0.079956,-0.220001l-0.080017,-0.220001l-0.080017,-0.220001l-0.089966,-0.220001l-0.090027,-0.209991l-0.089966,-0.209991l-0.100037,-0.210022l-0.099976,-0.209991l-0.109985,-0.200012l-0.110046,-0.199982l-0.109985,-0.200012l-0.119995,-0.199982l-0.119995,-0.190002l-0.119995,-0.190002l-0.130005,-0.190002l-0.130005,-0.179993l-0.140015,-0.190002l-0.140015,-0.180023l-0.139954,-0.179993l-0.150024,-0.179993l-0.149963,-0.170013l-0.150024,-0.169983l-0.150024,-0.160004l-0.159973,-0.170013l-0.160034,-0.149994l-0.159973,-0.149994l-0.159973,-0.149994l-0.160034,-0.140015l-0.169983,-0.139984l-0.169983,-0.140015l-0.170044,-0.130005l-0.169983,-0.119995l-0.179993,-0.119995l-0.169983,-0.119995l-0.180054,-0.110016l-0.179993,-0.109985l-0.190002,-0.100006l-0.179993,-0.100006l-0.190002,-0.099976l-0.190002,-0.090027l-0.190002,-0.079987l-0.190002,-0.079987l-0.199951,-0.080017l-0.200012,-0.070007l-0.200012,-0.069977l-0.200012,-0.070007l-0.200012,-0.059998l-0.209961,-0.050018l-0.200012,-0.049988l-0.210022,-0.049988l-0.219971,-0.040009l-0.210022,-0.040009l-0.219971,-0.029999l-0.210022,-0.029999l-0.219971,-0.019989l-0.220032,-0.02002l-0.22998,-0.019989l-0.22998,-0.01001l-0.220032,0l-0.22998,-0.009979l-105.76001,0l-0.230011,0.009979l-0.000003,0.000002zm-338.479996,0l-0.220001,0l-0.229996,0.01001l-0.220001,0.019989l-0.230003,0.02002l-0.220001,0.019989l-0.209999,0.029999l-0.220001,0.029999l-0.209999,0.040009l-0.209999,0.040009l-0.209999,0.049988l-0.209999,0.049988l-0.209999,0.050018l-0.200005,0.059998l-0.199997,0.070007l-0.199997,0.069977l-0.200005,0.070007l-0.190002,0.080017l-0.199997,0.079987l-0.190002,0.079987l-0.189995,0.090027l-0.18,0.099976l-0.190002,0.100006l-0.18,0.100006l-0.18,0.109985l-0.18,0.110016l-0.18,0.119995l-0.169998,0.119995l-0.18,0.119995l-0.169998,0.130005l-0.160004,0.140015l-0.169998,0.139984l-0.169998,0.140015l-0.160004,0.149994l-0.159996,0.149994l-0.160004,0.149994l-0.150002,0.170013l-0.159996,0.160004l-0.150002,0.169983l-0.150002,0.170013l-0.139999,0.179993l-0.150002,0.179993l-0.139999,0.180023l-0.129997,0.190002l-0.139999,0.179993l-0.120003,0.190002l-0.129997,0.190002l-0.120003,0.190002l-0.119995,0.199982l-0.110001,0.200012l-0.110001,0.199982l-0.099998,0.200012l-0.110001,0.209991l-0.100006,0.210022l-0.089996,0.209991l-0.090004,0.209991l-0.089996,0.220001l-0.080002,0.220001l-0.080002,0.220001l-0.079994,0.220001l-0.07,0.220001l-0.07,0.230011l-0.060005,0.22998l-0.07,0.23999l-0.049995,0.230011l-0.060005,0.23999l-0.049995,0.240021l-0.040001,0.23999l-0.050003,0.25l-0.040001,0.25l-0.029999,0.25l-0.029999,0.25l-0.029999,0.25l-0.020004,0.26001l-0.019997,0.259979l-0.019997,0.26001l-0.010002,0.269989l-0.010002,0.27002l-0.010002,0.269989l0,0.27002l0,74.999969l0,0.280029l0.010002,0.269958l0.010002,0.27002l0.010002,0.26001l0.019997,0.26001l0.019997,0.27002l0.020004,0.25l0.029999,0.259949l0.029999,0.25l0.029999,0.25l0.040001,0.25l0.050003,0.25l0.040001,0.240051l0.049995,0.23999l0.060005,0.23999l0.049995,0.22998l0.07,0.23999l0.060005,0.230042l0.07,0.22998l0.07,0.219971l0.079994,0.220032l0.080002,0.22998l0.080002,0.210022l0.089996,0.219971l0.090004,0.210022l0.089996,0.210022l0.100006,0.209961l0.110001,0.210022l0.099998,0.200012l0.110001,0.200012l0.110001,0.199951l0.119995,0.200012l0.120003,0.190002l0.129997,0.200012l0.120003,0.179993l0.139999,0.190002l0.129997,0.190002l0.139999,0.179993l0.150002,0.179993l0.139999,0.169983l0.150002,0.180054l0.150002,0.169983l0.159996,0.159973l0.150002,0.160034l0.160004,0.159973l0.159996,0.150024l0.160004,0.149963l0.169998,0.140015l0.169998,0.140015l0.160004,0.130005l0.169998,0.130005l0.18,0.119995l0.169998,0.119995l0.18,0.119995l0.18,0.109985l0.18,0.109985l0.18,0.100037l0.190002,0.099976l0.18,0.100037l0.189995,0.079956l0.190002,0.090027l0.199997,0.080017l0.190002,0.079956l0.200005,0.070007l0.199997,0.070007l0.199997,0.059998l0.200005,0.059998l0.209999,0.059998l0.209999,0.049988l0.209999,0.040039l0.209999,0.039978l0.209999,0.040039l0.220001,0.029968l0.209999,0.030029l0.220001,0.029968l0.230003,0.02002l0.220001,0.01001l0.229996,0.009949l0.220001,0.01001l0.229996,0l105.770004,0l0.229996,0l0.230011,-0.01001l0.229996,-0.009949l0.220001,-0.01001l0.220001,-0.02002l0.220001,-0.029968l0.219986,-0.030029l0.220001,-0.029968l0.210007,-0.040039l0.210007,-0.039978l0.209991,-0.040039l0.210007,-0.049988l0.209991,-0.059998l0.199997,-0.059998l0.200012,-0.059998l0.199997,-0.070007l0.199997,-0.070007l0.190002,-0.079956l0.199997,-0.080017l0.190002,-0.080017l0.190002,-0.089966l0.179993,-0.100037l0.190002,-0.099976l0.180008,-0.100037l0.179993,-0.109985l0.179993,-0.109985l0.180008,-0.119995l0.169998,-0.119995l0.169998,-0.119995l0.169998,-0.130005l0.169998,-0.130005l0.170013,-0.140015l0.159988,-0.140015l0.169998,-0.149963l0.160004,-0.150024l0.150009,-0.159973l0.159988,-0.160034l0.150009,-0.159973l0.149994,-0.169983l0.150009,-0.180054l0.099991,-0.119995l0.100006,-0.119995l0.099991,-0.130005l0.090012,-0.139954l0.099991,-0.140015l0.089996,-0.150024l0.090012,-0.149963l0.089996,-0.160034l0.089996,-0.159973l0.080002,-0.170044l0.089996,-0.169983l0.090012,-0.179993l0.079987,-0.179993l0.080002,-0.190002l0.080002,-0.200012l0.080002,-0.200012l0.080002,-0.209961l0.080002,-0.210022l0.080002,-0.210022l0.069992,-0.22998l0.080002,-0.219971l0.070007,-0.23999l0.069992,-0.230042l0.070007,-0.25l0.069992,-0.25l0.070007,-0.25l0.059998,-0.26001l0.069992,-0.269958l0.060013,-0.27002l0.059998,-0.27002l0.069992,-0.279968l0.059998,-0.290039l0.050003,-0.289978l0.059998,-0.299988l0.059998,-0.299988l0.050003,-0.309998l0.059998,-0.309998l0.050003,-0.320007l0.050003,-0.330017l0.050003,-0.330017l0,-74.999969l0,-0.27002l0,-0.269989l-0.01001,-0.27002l-0.019989,-0.269989l-0.01001,-0.26001l-0.019989,-0.259979l-0.029999,-0.26001l-0.029999,-0.25l-0.030014,-0.25l-0.029999,-0.25l-0.039993,-0.25l-0.050003,-0.25l-0.039993,-0.23999l-0.050003,-0.240021l-0.059998,-0.23999l-0.050003,-0.230011l-0.070007,-0.23999l-0.059998,-0.22998l-0.069992,-0.230011l-0.070007,-0.220001l-0.080002,-0.220001l-0.080002,-0.220001l-0.079987,-0.220001l-0.090012,-0.220001l-0.089996,-0.209991l-0.100006,-0.209991l-0.089996,-0.210022l-0.110001,-0.209991l-0.099991,-0.200012l-0.110001,-0.199982l-0.12001,-0.200012l-0.110001,-0.199982l-0.119995,-0.190002l-0.130005,-0.190002l-0.12999,-0.190002l-0.130005,-0.179993l-0.130005,-0.190002l-0.139999,-0.180023l-0.149994,-0.179993l-0.139999,-0.179993l-0.149994,-0.170013l-0.150009,-0.169983l-0.160004,-0.160004l-0.149994,-0.170013l-0.160004,-0.149994l-0.160004,-0.149994l-0.159988,-0.149994l-0.169998,-0.140015l-0.160004,-0.139984l-0.169998,-0.140015l-0.169998,-0.130005l-0.170013,-0.119995l-0.179993,-0.119995l-0.169998,-0.119995l-0.180008,-0.110016l-0.179993,-0.109985l-0.190002,-0.100006l-0.179993,-0.100006l-0.190002,-0.099976l-0.190002,-0.090027l-0.190002,-0.079987l-0.190002,-0.079987l-0.199997,-0.080017l-0.190002,-0.070007l-0.199997,-0.069977l-0.210007,-0.070007l-0.199997,-0.059998l-0.209991,-0.050018l-0.200012,-0.049988l-0.209991,-0.049988l-0.210007,-0.040009l-0.220001,-0.040009l-0.209991,-0.029999l-0.220001,-0.029999l-0.220001,-0.019989l-0.229996,-0.02002l-0.220001,-0.019989l-0.229996,-0.01001l-0.220001,0l-0.230011,-0.009979l-105.779999,0l-0.229996,0.009979l-0.000001,0.000002zm169.229996,0l-0.220001,0l-0.22998,0.01001l-0.220001,0.019989l-0.230011,0.02002l-0.220001,0.019989l-0.209991,0.029999l-0.220001,0.029999l-0.210022,0.040009l-0.220001,0.040009l-0.199982,0.049988l-0.209991,0.049988l-0.210007,0.050018l-0.200012,0.059998l-0.199997,0.070007l-0.199997,0.069977l-0.199997,0.070007l-0.190002,0.080017l-0.199997,0.079987l-0.190002,0.079987l-0.190002,0.090027l-0.190002,0.099976l-0.179993,0.100006l-0.180008,0.100006l-0.179993,0.109985l-0.180008,0.110016l-0.179993,0.119995l-0.169998,0.119995l-0.180008,0.119995l-0.169998,0.130005l-0.169998,0.140015l-0.160004,0.139984l-0.169998,0.140015l-0.160004,0.149994l-0.159988,0.149994l-0.160004,0.149994l-0.150009,0.170013l-0.159988,0.160004l-0.150009,0.169983l-0.149994,0.170013l-0.149994,0.179993l-0.140015,0.179993l-0.139999,0.180023l-0.12999,0.190002l-0.139999,0.179993l-0.12001,0.190002l-0.12999,0.190002l-0.12001,0.190002l-0.119995,0.199982l-0.110001,0.200012l-0.110001,0.199982l-0.110001,0.200012l-0.099991,0.209991l-0.100006,0.210022l-0.089996,0.209991l-0.089996,0.209991l-0.090012,0.220001l-0.080002,0.220001l-0.079987,0.220001l-0.080002,0.220001l-0.070007,0.220001l-0.069992,0.230011l-0.060013,0.22998l-0.069992,0.23999l-0.050003,0.230011l-0.059998,0.23999l-0.050003,0.240021l-0.039993,0.23999l-0.050003,0.25l-0.040009,0.25l-0.029999,0.25l-0.029999,0.25l-0.029999,0.25l-0.019989,0.26001l-0.020004,0.259979l-0.020004,0.26001l-0.009995,0.269989l-0.01001,0.27002l-0.009995,0.269989l0,0.27002l0,74.999969l0,0.280029l0.009995,0.269958l0.01001,0.27002l0.009995,0.26001l0.020004,0.26001l0.020004,0.27002l0.019989,0.25l0.029999,0.259949l0.029999,0.25l0.029999,0.25l0.040009,0.25l0.050003,0.25l0.039993,0.240051l0.050003,0.23999l0.059998,0.23999l0.050003,0.22998l0.069992,0.23999l0.060013,0.230042l0.069992,0.22998l0.070007,0.219971l0.080002,0.220032l0.079987,0.22998l0.080002,0.210022l0.090012,0.219971l0.089996,0.210022l0.089996,0.210022l0.100006,0.209961l0.099991,0.210022l0.110001,0.200012l0.110001,0.200012l0.110001,0.199951l0.119995,0.200012l0.12001,0.190002l0.12999,0.200012l0.12001,0.179993l0.139999,0.190002l0.12999,0.190002l0.139999,0.179993l0.140015,0.179993l0.149994,0.169983l0.149994,0.180054l0.150009,0.169983l0.159988,0.159973l0.150009,0.160034l0.160004,0.159973l0.159988,0.150024l0.160004,0.149963l0.169998,0.140015l0.160004,0.140015l0.169998,0.130005l0.169998,0.130005l0.180008,0.119995l0.169998,0.119995l0.179993,0.119995l0.180008,0.109985l0.179993,0.109985l0.180008,0.100037l0.179993,0.099976l0.190002,0.100037l0.190002,0.079956l0.190002,0.090027l0.199997,0.080017l0.190002,0.079956l0.199997,0.070007l0.199997,0.070007l0.199997,0.059998l0.200012,0.059998l0.210007,0.059998l0.209991,0.049988l0.199982,0.040039l0.220001,0.039978l0.210022,0.040039l0.220001,0.029968l0.209991,0.030029l0.220001,0.029968l0.230011,0.02002l0.220001,0.01001l0.22998,0.009949l0.220001,0.01001l0.230011,0l105.779999,0l0.22998,0l0.230011,-0.01001l0.230011,-0.009949l0.220001,-0.01001l0.220001,-0.02002l0.22998,-0.029968l0.210022,-0.030029l0.220001,-0.029968l0.209991,-0.040039l0.220001,-0.039978l0.209991,-0.040039l0.200012,-0.049988l0.209991,-0.059998l0.200012,-0.059998l0.199982,-0.059998l0.200012,-0.070007l0.199982,-0.070007l0.200012,-0.079956l0.190002,-0.080017l0.190002,-0.080017l0.190002,-0.089966l0.190002,-0.100037l0.179993,-0.099976l0.179993,-0.100037l0.190002,-0.109985l0.170013,-0.109985l0.179993,-0.119995l0.179993,-0.119995l0.170013,-0.119995l0.169983,-0.130005l0.170013,-0.130005l0.160004,-0.140015l0.169983,-0.140015l0.160004,-0.149963l0.160004,-0.150024l0.160004,-0.159973l0.149994,-0.160034l0.160004,-0.159973l0.149994,-0.169983l0.149994,-0.180054l0.100006,-0.119995l0.089996,-0.119995l0.100006,-0.130005l0.089996,-0.139954l0.100006,-0.140015l0.089996,-0.150024l0.089996,-0.149963l0.089996,-0.160034l0.089996,-0.159973l0.080017,-0.170044l0.089996,-0.169983l0.089996,-0.179993l0.080017,-0.179993l0.079987,-0.190002l0.079987,-0.200012l0.080017,-0.200012l0.079987,-0.209961l0.080017,-0.210022l0.069977,-0.210022l0.080017,-0.22998l0.070007,-0.219971l0.069977,-0.23999l0.080017,-0.230042l0.059998,-0.25l0.070007,-0.25l0.069977,-0.25l0.070007,-0.26001l0.059998,-0.269958l0.070007,-0.27002l0.059998,-0.27002l0.059998,-0.279968l0.059998,-0.290039l0.059998,-0.289978l0.059998,-0.299988l0.050018,-0.299988l0.059998,-0.309998l0.049988,-0.309998l0.050018,-0.320007l0.049988,-0.330017l0.050018,-0.330017l0,0l0,-74.999969l-0.01001,-0.27002l0,-0.269989l-0.01001,-0.27002l-0.009979,-0.269989l-0.02002,-0.26001l-0.019989,-0.259979l-0.02002,-0.26001l-0.029999,-0.25l-0.029999,-0.25l-0.039978,-0.25l-0.040009,-0.25l-0.040009,-0.25l-0.049988,-0.23999l-0.050018,-0.240021l-0.049988,-0.23999l-0.059998,-0.230011l-0.059998,-0.23999l-0.059998,-0.22998l-0.070007,-0.230011l-0.079987,-0.220001l-0.070007,-0.220001l-0.080017,-0.220001l-0.079987,-0.220001l-0.089996,-0.220001l-0.089996,-0.209991l-0.100006,-0.209991l-0.089996,-0.210022l-0.110016,-0.209991l-0.100006,-0.200012l-0.109985,-0.199982l-0.109985,-0.200012l-0.120026,-0.199982l-0.119995,-0.190002l-0.130005,-0.190002l-0.119995,-0.190002l-0.130005,-0.179993l-0.139984,-0.190002l-0.140015,-0.180023l-0.139984,-0.179993l-0.149994,-0.179993l-0.150024,-0.170013l-0.149994,-0.169983l-0.149994,-0.160004l-0.160004,-0.170013l-0.160004,-0.149994l-0.160004,-0.149994l-0.160004,-0.149994l-0.159973,-0.140015l-0.170013,-0.139984l-0.170013,-0.140015l-0.169983,-0.130005l-0.170013,-0.119995l-0.169983,-0.119995l-0.179993,-0.119995l-0.180023,-0.110016l-0.179993,-0.109985l-0.179993,-0.100006l-0.190002,-0.100006l-0.179993,-0.099976l-0.190002,-0.090027l-0.200012,-0.079987l-0.190002,-0.079987l-0.190002,-0.080017l-0.199982,-0.070007l-0.200012,-0.069977l-0.199982,-0.070007l-0.210022,-0.059998l-0.199982,-0.050018l-0.210022,-0.049988l-0.209991,-0.049988l-0.209991,-0.040009l-0.220001,-0.040009l-0.209991,-0.029999l-0.220001,-0.029999l-0.220001,-0.019989l-0.220001,-0.02002l-0.230011,-0.019989l-0.220001,-0.01001l-0.230011,0l-0.22998,-0.009979l-105.779999,0l-0.230011,0.009979l0.000003,0.000002zm0,-149.98999l-0.220001,0l-0.22998,0.01001l-0.220001,0.019989l-0.230011,0.019989l-0.220001,0.02002l-0.209991,0.029999l-0.220001,0.029999l-0.210022,0.039978l-0.220001,0.040009l-0.199982,0.050018l-0.209991,0.049988l-0.210007,0.059998l-0.200012,0.049988l-0.199997,0.070007l-0.199997,0.070007l-0.199997,0.070007l-0.190002,0.079987l-0.199997,0.080017l-0.190002,0.079987l-0.190002,0.089996l-0.190002,0.100006l-0.179993,0.089996l-0.180008,0.110016l-0.179993,0.109985l-0.180008,0.110016l-0.179993,0.109985l-0.169998,0.119995l-0.180008,0.130005l-0.169998,0.130005l-0.169998,0.130005l-0.160004,0.139984l-0.169998,0.140015l-0.160004,0.149994l-0.159988,0.149994l-0.160004,0.160004l-0.150009,0.160004l-0.159988,0.160004l-0.150009,0.169983l-0.149994,0.170013l-0.149994,0.179993l-0.140015,0.179993l-0.139999,0.180023l-0.12999,0.190002l-0.139999,0.179993l-0.12001,0.190002l-0.12999,0.190002l-0.12001,0.199982l-0.119995,0.190002l-0.110001,0.200012l-0.110001,0.209991l-0.110001,0.200012l-0.099991,0.209991l-0.100006,0.200012l-0.089996,0.219971l-0.089996,0.210022l-0.090012,0.220001l-0.080002,0.209991l-0.079987,0.220001l-0.080002,0.230011l-0.070007,0.220001l-0.069992,0.22998l-0.060013,0.230011l-0.069992,0.23999l-0.050003,0.230011l-0.059998,0.23999l-0.050003,0.23999l-0.039993,0.240021l-0.050003,0.25l-0.040009,0.25l-0.029999,0.25l-0.029999,0.25l-0.029999,0.25l-0.019989,0.259979l-0.020004,0.26001l-0.020004,0.26001l-0.009995,0.269989l-0.01001,0.27002l-0.009995,0.269989l0,0.269989l0,75l0,0.27002l0.009995,0.269989l0.01001,0.269989l0.009995,0.26001l0.020004,0.269989l0.020004,0.26001l0.019989,0.25l0.029999,0.26001l0.029999,0.25l0.029999,0.25l0.040009,0.25l0.050003,0.25l0.039993,0.23999l0.050003,0.23999l0.059998,0.240021l0.050003,0.22998l0.069992,0.240021l0.060013,0.22998l0.069992,0.220001l0.070007,0.230011l0.080002,0.220001l0.079987,0.220001l0.080002,0.220001l0.090012,0.220001l0.089996,0.209991l0.089996,0.209991l0.100006,0.210022l0.099991,0.209991l0.110001,0.199982l0.110001,0.200012l0.110001,0.200012l0.119995,0.199982l0.12001,0.190002l0.12999,0.190002l0.12001,0.190002l0.139999,0.190002l0.12999,0.179993l0.139999,0.190002l0.140015,0.179993l0.149994,0.170013l0.149994,0.179993l0.150009,0.160004l0.159988,0.170013l0.150009,0.159973l0.160004,0.160004l0.159988,0.150024l0.160004,0.149994l0.169998,0.139984l0.160004,0.140015l0.169998,0.130005l0.169998,0.129974l0.180008,0.130005l0.169998,0.119995l0.179993,0.110016l0.180008,0.109985l0.179993,0.110016l0.180008,0.109985l0.179993,0.089996l0.190002,0.100006l0.190002,0.089996l0.190002,0.080017l0.199997,0.089996l0.190002,0.070007l0.199997,0.079987l0.199997,0.059998l0.199997,0.070007l0.200012,0.059998l0.210007,0.049988l0.209991,0.050018l0.199982,0.049988l0.220001,0.040009l0.210022,0.040009l0.220001,0.029999l0.209991,0.029999l0.220001,0.019989l0.230011,0.02002l0.220001,0.019989l0.22998,0.01001l0.220001,0l0.230011,0.009979l105.779999,0l0.22998,-0.009979l0.230011,0l0.230011,-0.01001l0.220001,-0.019989l0.220001,-0.02002l0.22998,-0.019989l0.210022,-0.029999l0.220001,-0.029999l0.209991,-0.040009l0.220001,-0.040009l0.209991,-0.049988l0.200012,-0.050018l0.209991,-0.049988l0.200012,-0.059998l0.199982,-0.070007l0.200012,-0.059998l0.199982,-0.079987l0.200012,-0.070007l0.190002,-0.089996l0.190002,-0.080017l0.190002,-0.089996l0.190002,-0.100006l0.179993,-0.089996l0.179993,-0.109985l0.190002,-0.110016l0.170013,-0.109985l0.179993,-0.110016l0.179993,-0.119995l0.170013,-0.130005l0.169983,-0.129974l0.170013,-0.130005l0.160004,-0.140015l0.169983,-0.139984l0.160004,-0.149994l0.160004,-0.150024l0.160004,-0.160004l0.149994,-0.159973l0.160004,-0.170013l0.149994,-0.160004l0.149994,-0.179993l0.100006,-0.119995l0.089996,-0.119995l0.100006,-0.130005l0.089996,-0.140015l0.100006,-0.139984l0.089996,-0.150024l0.089996,-0.149994l0.089996,-0.160004l0.089996,-0.159973l0.080017,-0.170013l0.089996,-0.170013l0.089996,-0.179993l0.080017,-0.179993l0.079987,-0.190002l0.079987,-0.200012l0.080017,-0.199982l0.079987,-0.200012l0.080017,-0.209991l0.069977,-0.220001l0.080017,-0.220001l0.070007,-0.230011l0.069977,-0.22998l0.080017,-0.240021l0.059998,-0.23999l0.070007,-0.25l0.069977,-0.26001l0.070007,-0.259979l0.059998,-0.26001l0.070007,-0.269989l0.059998,-0.279999l0.059998,-0.279999l0.059998,-0.279999l0.059998,-0.300018l0.059998,-0.290009l0.050018,-0.309998l0.059998,-0.299988l0.049988,-0.320007l0.050018,-0.320007l0.049988,-0.319977l0.050018,-0.330017l0,0l0,-75l-0.01001,-0.269989l0,-0.269989l-0.01001,-0.27002l-0.009979,-0.269989l-0.02002,-0.26001l-0.019989,-0.26001l-0.02002,-0.259979l-0.029999,-0.25l-0.029999,-0.25l-0.039978,-0.25l-0.040009,-0.25l-0.040009,-0.25l-0.049988,-0.240021l-0.050018,-0.23999l-0.049988,-0.23999l-0.059998,-0.230011l-0.059998,-0.23999l-0.059998,-0.230011l-0.070007,-0.22998l-0.079987,-0.220001l-0.070007,-0.230011l-0.080017,-0.220001l-0.079987,-0.209991l-0.089996,-0.220001l-0.089996,-0.210022l-0.100006,-0.219971l-0.089996,-0.200012l-0.110016,-0.209991l-0.100006,-0.200012l-0.109985,-0.209991l-0.109985,-0.200012l-0.120026,-0.190002l-0.119995,-0.199982l-0.130005,-0.190002l-0.119995,-0.190002l-0.130005,-0.179993l-0.139984,-0.190002l-0.140015,-0.180023l-0.139984,-0.179993l-0.149994,-0.179993l-0.150024,-0.170013l-0.149994,-0.169983l-0.149994,-0.160004l-0.160004,-0.160004l-0.160004,-0.160004l-0.160004,-0.149994l-0.160004,-0.149994l-0.159973,-0.140015l-0.170013,-0.139984l-0.170013,-0.130005l-0.169983,-0.130005l-0.170013,-0.130005l-0.169983,-0.119995l-0.179993,-0.109985l-0.180023,-0.120026l-0.179993,-0.099976l-0.179993,-0.110016l-0.190002,-0.089996l-0.179993,-0.100006l-0.190002,-0.089996l-0.200012,-0.079987l-0.190002,-0.089996l-0.190002,-0.070007l-0.199982,-0.070007l-0.200012,-0.070007l-0.199982,-0.070007l-0.210022,-0.059998l-0.199982,-0.049988l-0.210022,-0.049988l-0.209991,-0.050018l-0.209991,-0.040009l-0.220001,-0.039978l-0.209991,-0.029999l-0.220001,-0.029999l-0.220001,-0.02002l-0.220001,-0.019989l-0.230011,-0.019989l-0.220001,-0.01001l-0.230011,0l-0.22998,-0.01001l-105.779999,0l-0.230011,0.01001l0.000003,0.000003zm-169.229996,0l-0.220001,0l-0.229996,0.01001l-0.220001,0.019989l-0.230003,0.019989l-0.220001,0.02002l-0.209999,0.029999l-0.220001,0.029999l-0.209999,0.039978l-0.209999,0.040009l-0.209999,0.050018l-0.209999,0.049988l-0.209999,0.059998l-0.200005,0.049988l-0.199997,0.070007l-0.199997,0.070007l-0.200005,0.070007l-0.190002,0.079987l-0.199997,0.080017l-0.190002,0.079987l-0.189995,0.089996l-0.18,0.100006l-0.190002,0.089996l-0.18,0.110016l-0.18,0.109985l-0.18,0.110016l-0.18,0.109985l-0.169998,0.119995l-0.18,0.130005l-0.169998,0.130005l-0.160004,0.130005l-0.169998,0.139984l-0.169998,0.140015l-0.160004,0.149994l-0.159996,0.149994l-0.160004,0.160004l-0.150002,0.160004l-0.159996,0.160004l-0.150002,0.169983l-0.150002,0.170013l-0.139999,0.179993l-0.150002,0.179993l-0.139999,0.180023l-0.129997,0.190002l-0.139999,0.179993l-0.120003,0.190002l-0.129997,0.190002l-0.120003,0.199982l-0.119995,0.190002l-0.110001,0.200012l-0.110001,0.209991l-0.099998,0.200012l-0.110001,0.209991l-0.100006,0.200012l-0.089996,0.219971l-0.090004,0.210022l-0.089996,0.220001l-0.080002,0.209991l-0.080002,0.220001l-0.079994,0.230011l-0.07,0.220001l-0.07,0.22998l-0.060005,0.230011l-0.07,0.23999l-0.049995,0.230011l-0.060005,0.23999l-0.049995,0.23999l-0.040001,0.240021l-0.050003,0.25l-0.040001,0.25l-0.029999,0.25l-0.029999,0.25l-0.029999,0.25l-0.020004,0.259979l-0.019997,0.26001l-0.019997,0.26001l-0.010002,0.269989l-0.010002,0.27002l-0.010002,0.269989l0,0.269989l0,75l0,0.27002l0.010002,0.269989l0.010002,0.269989l0.010002,0.26001l0.019997,0.269989l0.019997,0.26001l0.020004,0.25l0.029999,0.26001l0.029999,0.25l0.029999,0.25l0.040001,0.25l0.050003,0.25l0.040001,0.23999l0.049995,0.23999l0.060005,0.240021l0.049995,0.22998l0.07,0.240021l0.060005,0.22998l0.07,0.220001l0.07,0.230011l0.079994,0.220001l0.080002,0.220001l0.080002,0.220001l0.089996,0.220001l0.090004,0.209991l0.089996,0.209991l0.100006,0.210022l0.110001,0.209991l0.099998,0.199982l0.110001,0.200012l0.110001,0.200012l0.119995,0.199982l0.120003,0.190002l0.129997,0.190002l0.120003,0.190002l0.139999,0.190002l0.129997,0.179993l0.139999,0.190002l0.150002,0.179993l0.139999,0.170013l0.150002,0.179993l0.150002,0.160004l0.159996,0.170013l0.150002,0.159973l0.160004,0.160004l0.159996,0.150024l0.160004,0.149994l0.169998,0.139984l0.169998,0.140015l0.160004,0.130005l0.169998,0.129974l0.18,0.130005l0.169998,0.119995l0.18,0.110016l0.18,0.109985l0.18,0.110016l0.18,0.109985l0.190002,0.089996l0.18,0.100006l0.189995,0.089996l0.190002,0.080017l0.199997,0.089996l0.190002,0.070007l0.200005,0.079987l0.199997,0.059998l0.199997,0.070007l0.200005,0.059998l0.209999,0.049988l0.209999,0.050018l0.209999,0.049988l0.209999,0.040009l0.209999,0.040009l0.220001,0.029999l0.209999,0.029999l0.220001,0.019989l0.230003,0.02002l0.220001,0.019989l0.229996,0.01001l0.220001,0l0.229996,0.009979l105.770004,0l0.229996,-0.009979l0.230011,0l0.229996,-0.01001l0.220001,-0.019989l0.220001,-0.02002l0.220001,-0.019989l0.219986,-0.029999l0.220001,-0.029999l0.210007,-0.040009l0.210007,-0.040009l0.209991,-0.049988l0.210007,-0.050018l0.209991,-0.049988l0.199997,-0.059998l0.200012,-0.070007l0.199997,-0.059998l0.199997,-0.079987l0.190002,-0.070007l0.199997,-0.089996l0.190002,-0.080017l0.190002,-0.089996l0.179993,-0.100006l0.190002,-0.089996l0.180008,-0.109985l0.179993,-0.110016l0.179993,-0.109985l0.180008,-0.110016l0.169998,-0.119995l0.169998,-0.130005l0.169998,-0.129974l0.169998,-0.130005l0.170013,-0.140015l0.159988,-0.139984l0.169998,-0.149994l0.160004,-0.150024l0.150009,-0.160004l0.159988,-0.159973l0.150009,-0.170013l0.149994,-0.160004l0.150009,-0.179993l0.099991,-0.119995l0.100006,-0.119995l0.099991,-0.130005l0.090012,-0.140015l0.099991,-0.139984l0.089996,-0.150024l0.090012,-0.149994l0.089996,-0.160004l0.089996,-0.159973l0.080002,-0.170013l0.089996,-0.170013l0.090012,-0.179993l0.079987,-0.179993l0.080002,-0.190002l0.080002,-0.200012l0.080002,-0.199982l0.080002,-0.200012l0.080002,-0.209991l0.080002,-0.220001l0.069992,-0.220001l0.080002,-0.230011l0.070007,-0.22998l0.069992,-0.240021l0.070007,-0.23999l0.069992,-0.25l0.070007,-0.26001l0.059998,-0.259979l0.069992,-0.26001l0.060013,-0.269989l0.059998,-0.279999l0.069992,-0.279999l0.059998,-0.279999l0.050003,-0.300018l0.059998,-0.290009l0.059998,-0.309998l0.050003,-0.299988l0.059998,-0.320007l0.050003,-0.320007l0.050003,-0.319977l0.050003,-0.330017l0,-75l0,-0.269989l0,-0.269989l-0.01001,-0.27002l-0.019989,-0.269989l-0.01001,-0.26001l-0.019989,-0.26001l-0.029999,-0.259979l-0.029999,-0.25l-0.030014,-0.25l-0.029999,-0.25l-0.039993,-0.25l-0.050003,-0.25l-0.039993,-0.240021l-0.050003,-0.23999l-0.059998,-0.23999l-0.050003,-0.230011l-0.070007,-0.23999l-0.059998,-0.230011l-0.069992,-0.22998l-0.070007,-0.220001l-0.080002,-0.230011l-0.080002,-0.220001l-0.079987,-0.209991l-0.090012,-0.220001l-0.089996,-0.210022l-0.100006,-0.219971l-0.089996,-0.200012l-0.110001,-0.209991l-0.099991,-0.200012l-0.110001,-0.209991l-0.12001,-0.200012l-0.110001,-0.190002l-0.119995,-0.199982l-0.130005,-0.190002l-0.12999,-0.190002l-0.130005,-0.179993l-0.130005,-0.190002l-0.139999,-0.180023l-0.149994,-0.179993l-0.139999,-0.179993l-0.149994,-0.170013l-0.150009,-0.169983l-0.160004,-0.160004l-0.149994,-0.160004l-0.160004,-0.160004l-0.160004,-0.149994l-0.159988,-0.149994l-0.169998,-0.140015l-0.160004,-0.139984l-0.169998,-0.130005l-0.169998,-0.130005l-0.180008,-0.130005l-0.169998,-0.119995l-0.180008,-0.109985l-0.179993,-0.120026l-0.179993,-0.099976l-0.180008,-0.110016l-0.179993,-0.089996l-0.190002,-0.100006l-0.190002,-0.089996l-0.190002,-0.079987l-0.190002,-0.089996l-0.199997,-0.070007l-0.199997,-0.070007l-0.199997,-0.070007l-0.200012,-0.070007l-0.199997,-0.059998l-0.209991,-0.049988l-0.200012,-0.049988l-0.209991,-0.050018l-0.220001,-0.040009l-0.210007,-0.039978l-0.209991,-0.029999l-0.220001,-0.029999l-0.220001,-0.02002l-0.229996,-0.019989l-0.220001,-0.019989l-0.229996,-0.01001l-0.220001,0l-0.230011,-0.01001l-105.779999,0l-0.229996,0.01001l0,0.000003zm338.479996,0l-0.230011,0l-0.22998,0.01001l-0.230011,0.019989l-0.220001,0.019989l-0.220001,0.02002l-0.220001,0.029999l-0.209991,0.029999l-0.220001,0.039978l-0.209991,0.040009l-0.209991,0.050018l-0.210022,0.049988l-0.199982,0.059998l-0.210022,0.049988l-0.199982,0.070007l-0.200012,0.070007l-0.199982,0.070007l-0.190002,0.079987l-0.190002,0.080017l-0.200012,0.079987l-0.179993,0.089996l-0.190002,0.100006l-0.190002,0.089996l-0.179993,0.110016l-0.179993,0.109985l-0.180023,0.110016l-0.179993,0.109985l-0.169983,0.119995l-0.170013,0.130005l-0.170013,0.130005l-0.169983,0.130005l-0.170013,0.139984l-0.160004,0.140015l-0.159973,0.149994l-0.160004,0.149994l-0.160004,0.160004l-0.160004,0.160004l-0.149994,0.160004l-0.150024,0.169983l-0.149994,0.170013l-0.149994,0.179993l-0.139984,0.179993l-0.140015,0.180023l-0.130005,0.190002l-0.139984,0.179993l-0.119995,0.190002l-0.130005,0.190002l-0.119995,0.199982l-0.120026,0.190002l-0.109985,0.200012l-0.110016,0.209991l-0.099976,0.200012l-0.110016,0.209991l-0.089996,0.200012l-0.100006,0.219971l-0.089996,0.210022l-0.089996,0.220001l-0.079987,0.209991l-0.080017,0.220001l-0.070007,0.230011l-0.079987,0.220001l-0.059998,0.22998l-0.070007,0.230011l-0.059998,0.23999l-0.059998,0.230011l-0.050018,0.23999l-0.049988,0.23999l-0.049988,0.240021l-0.040009,0.25l-0.040009,0.25l-0.029999,0.25l-0.040009,0.25l-0.019989,0.25l-0.029999,0.259979l-0.019989,0.26001l-0.01001,0.26001l-0.019989,0.269989l-0.01001,0.27002l0,0.269989l0,0.269989l0,75l0,0.27002l0,0.269989l0.01001,0.269989l0.019989,0.26001l0.01001,0.269989l0.019989,0.26001l0.029999,0.25l0.019989,0.26001l0.040009,0.25l0.029999,0.25l0.040009,0.25l0.040009,0.25l0.049988,0.23999l0.049988,0.23999l0.050018,0.240021l0.059998,0.22998l0.059998,0.240021l0.070007,0.22998l0.059998,0.220001l0.079987,0.230011l0.070007,0.220001l0.080017,0.220001l0.079987,0.220001l0.089996,0.220001l0.089996,0.209991l0.100006,0.209991l0.089996,0.210022l0.110016,0.209991l0.099976,0.199982l0.110016,0.200012l0.109985,0.200012l0.120026,0.199982l0.119995,0.190002l0.130005,0.190002l0.119995,0.190002l0.139984,0.190002l0.130005,0.179993l0.140015,0.190002l0.139984,0.179993l0.149994,0.170013l0.149994,0.179993l0.150024,0.160004l0.149994,0.170013l0.160004,0.159973l0.160004,0.160004l0.160004,0.150024l0.159973,0.149994l0.160004,0.139984l0.170013,0.140015l0.169983,0.130005l0.170013,0.129974l0.170013,0.130005l0.169983,0.119995l0.179993,0.110016l0.180023,0.109985l0.179993,0.110016l0.179993,0.109985l0.190002,0.089996l0.190002,0.100006l0.179993,0.089996l0.200012,0.080017l0.190002,0.089996l0.190002,0.070007l0.199982,0.079987l0.200012,0.059998l0.199982,0.070007l0.210022,0.059998l0.199982,0.049988l0.210022,0.050018l0.209991,0.049988l0.209991,0.040009l0.220001,0.040009l0.209991,0.029999l0.220001,0.029999l0.220001,0.019989l0.220001,0.02002l0.230011,0.019989l0.22998,0.01001l0.230011,0l0.230011,0.009979l105.76001,0l0.22998,-0.009979l0.220032,0l0.22998,-0.01001l0.219971,-0.019989l0.230042,-0.02002l0.219971,-0.019989l0.210022,-0.029999l0.219971,-0.029999l0.210022,-0.040009l0.219971,-0.040009l0.210022,-0.049988l0.200012,-0.050018l0.209961,-0.049988l0.200012,-0.059998l0.200012,-0.070007l0.200012,-0.059998l0.200012,-0.079987l0.199951,-0.070007l0.190002,-0.089996l0.190002,-0.080017l0.190002,-0.089996l0.190002,-0.100006l0.179993,-0.089996l0.180054,-0.109985l0.189941,-0.110016l0.170044,-0.109985l0.179993,-0.110016l0.179993,-0.119995l0.169983,-0.130005l0.170044,-0.129974l0.169983,-0.130005l0.159973,-0.140015l0.170044,-0.139984l0.159973,-0.149994l0.159973,-0.150024l0.160034,-0.160004l0.159973,-0.159973l0.150024,-0.170013l0.150024,-0.160004l0.149963,-0.179993l0.100037,-0.119995l0.099976,-0.119995l0.089966,-0.130005l0.100037,-0.140015l0.089966,-0.139984l0.090027,-0.150024l0.099976,-0.149994l0.080017,-0.160004l0.090027,-0.159973l0.089966,-0.170013l0.090027,-0.170013l0.080017,-0.179993l0.079956,-0.179993l0.090027,-0.190002l0.080017,-0.200012l0.079956,-0.199982l0.080017,-0.200012l0.070007,-0.209991l0.080017,-0.220001l0.069946,-0.220001l0.080017,-0.230011l0.070007,-0.22998l0.070007,-0.240021l0.070007,-0.23999l0.070007,-0.25l0.070007,-0.26001l0.059998,-0.259979l0.069946,-0.26001l0.060059,-0.269989l0.059998,-0.279999l0.059998,-0.279999l0.059998,-0.279999l0.059998,-0.300018l0.059998,-0.290009l0.059998,-0.309998l0.049988,-0.299988l0.059998,-0.320007l0.049988,-0.320007l0.049988,-0.319977l0.050049,-0.330017l0,-75l0,-0.269989l-0.01001,-0.269989l-0.01001,-0.27002l-0.01001,-0.269989l-0.02002,-0.26001l-0.019958,-0.26001l-0.02002,-0.259979l-0.029968,-0.25l-0.030029,-0.25l-0.039978,-0.25l-0.030029,-0.25l-0.049988,-0.25l-0.039978,-0.240021l-0.050049,-0.23999l-0.059998,-0.23999l-0.059998,-0.230011l-0.059998,-0.23999l-0.059998,-0.230011l-0.070007,-0.22998l-0.070007,-0.220001l-0.079956,-0.230011l-0.080017,-0.220001l-0.080017,-0.209991l-0.089966,-0.220001l-0.090027,-0.210022l-0.089966,-0.219971l-0.100037,-0.200012l-0.099976,-0.209991l-0.109985,-0.200012l-0.110046,-0.209991l-0.109985,-0.200012l-0.119995,-0.190002l-0.119995,-0.199982l-0.119995,-0.190002l-0.130005,-0.190002l-0.130005,-0.179993l-0.140015,-0.190002l-0.140015,-0.180023l-0.139954,-0.179993l-0.150024,-0.179993l-0.149963,-0.170013l-0.150024,-0.169983l-0.150024,-0.160004l-0.159973,-0.160004l-0.160034,-0.160004l-0.159973,-0.149994l-0.159973,-0.149994l-0.160034,-0.140015l-0.169983,-0.139984l-0.169983,-0.130005l-0.170044,-0.130005l-0.169983,-0.130005l-0.179993,-0.119995l-0.169983,-0.109985l-0.180054,-0.120026l-0.179993,-0.099976l-0.190002,-0.110016l-0.179993,-0.089996l-0.190002,-0.100006l-0.190002,-0.089996l-0.190002,-0.079987l-0.190002,-0.089996l-0.199951,-0.070007l-0.200012,-0.070007l-0.200012,-0.070007l-0.200012,-0.070007l-0.200012,-0.059998l-0.209961,-0.049988l-0.200012,-0.049988l-0.210022,-0.050018l-0.219971,-0.040009l-0.210022,-0.039978l-0.219971,-0.029999l-0.210022,-0.029999l-0.219971,-0.02002l-0.220032,-0.019989l-0.22998,-0.019989l-0.22998,-0.01001l-0.220032,0l-0.22998,-0.01001l-105.76001,0l-0.230011,0.01001l-0.000003,0.000003zm0,-150.01001l-0.230011,0.01001l-0.22998,0.009995l-0.230011,0.020004l-0.220001,0.020004l-0.220001,0.019989l-0.220001,0.029999l-0.209991,0.030014l-0.220001,0.039993l-0.209991,0.039993l-0.209991,0.050003l-0.210022,0.050003l-0.199982,0.050003l-0.210022,0.059998l-0.199982,0.069992l-0.200012,0.060013l-0.199982,0.080002l-0.190002,0.069992l-0.190002,0.080002l-0.200012,0.089996l-0.179993,0.089996l-0.190002,0.090012l-0.190002,0.099991l-0.179993,0.110001l-0.179993,0.100006l-0.180023,0.119995l-0.179993,0.110001l-0.169983,0.119995l-0.170013,0.130005l-0.170013,0.130005l-0.169983,0.12999l-0.170013,0.139999l-0.160004,0.140015l-0.159973,0.149994l-0.160004,0.149994l-0.160004,0.160004l-0.160004,0.160004l-0.149994,0.160004l-0.150024,0.169998l-0.149994,0.179993l-0.149994,0.169998l-0.139984,0.180008l-0.140015,0.179993l-0.130005,0.190002l-0.139984,0.180008l-0.119995,0.189987l-0.130005,0.200012l-0.119995,0.189987l-0.120026,0.200012l-0.109985,0.190002l-0.110016,0.209991l-0.099976,0.199997l-0.110016,0.210007l-0.089996,0.199997l-0.100006,0.220001l-0.089996,0.210007l-0.089996,0.219986l-0.079987,0.210007l-0.080017,0.229996l-0.070007,0.220001l-0.079987,0.220001l-0.059998,0.229996l-0.070007,0.230011l-0.059998,0.23999l-0.059998,0.230011l-0.050018,0.23999l-0.049988,0.240005l-0.049988,0.240005l-0.040009,0.25l-0.040009,0.25l-0.029999,0.25l-0.040009,0.25l-0.019989,0.259995l-0.029999,0.25l-0.019989,0.259995l-0.01001,0.270004l-0.019989,0.259995l-0.01001,0.270004l0,0.270004l0,0.269989l0,75l0,0.270004l0,0.270004l0.01001,0.270004l0.019989,0.269989l0.01001,0.26001l0.019989,0.259995l0.029999,0.259995l0.019989,0.25l0.040009,0.25l0.029999,0.25l0.040009,0.25l0.040009,0.25l0.049988,0.240005l0.049988,0.240005l0.050018,0.23999l0.059998,0.230011l0.059998,0.23999l0.070007,0.230011l0.059998,0.229996l0.079987,0.220001l0.070007,0.220001l0.080017,0.229996l0.079987,0.210007l0.089996,0.219986l0.089996,0.210007l0.100006,0.210007l0.089996,0.209991l0.110016,0.210007l0.099976,0.199997l0.110016,0.209991l0.109985,0.190002l0.120026,0.199997l0.119995,0.190002l0.130005,0.200012l0.119995,0.189987l0.139984,0.180008l0.130005,0.190002l0.140015,0.179993l0.139984,0.180008l0.149994,0.179993l0.149994,0.169998l0.150024,0.169998l0.149994,0.160004l0.160004,0.160004l0.160004,0.160004l0.160004,0.149994l0.159973,0.149994l0.160004,0.139999l0.170013,0.140015l0.169983,0.12999l0.170013,0.130005l0.170013,0.130005l0.169983,0.119995l0.179993,0.110001l0.180023,0.119995l0.179993,0.100006l0.179993,0.110001l0.190002,0.089996l0.190002,0.100006l0.179993,0.089996l0.200012,0.089996l0.190002,0.080002l0.190002,0.069992l0.199982,0.080002l0.200012,0.059998l0.199982,0.070007l0.210022,0.059998l0.199982,0.050003l0.210022,0.050003l0.209991,0.050003l0.209991,0.039993l0.220001,0.039993l0.209991,0.030014l0.220001,0.029999l0.220001,0.019989l0.220001,0.020004l0.230011,0.020004l0.22998,0.009995l0.230011,0.009995l0.230011,0l105.76001,0l0.22998,0l0.220032,-0.009995l0.22998,-0.009995l0.219971,-0.020004l0.230042,-0.020004l0.219971,-0.019989l0.210022,-0.029999l0.219971,-0.030014l0.210022,-0.039993l0.219971,-0.039993l0.210022,-0.050003l0.200012,-0.050003l0.209961,-0.050003l0.200012,-0.059998l0.200012,-0.070007l0.200012,-0.059998l0.200012,-0.080002l0.199951,-0.069992l0.190002,-0.080002l0.190002,-0.089996l0.190002,-0.089996l0.190002,-0.100006l0.179993,-0.089996l0.180054,-0.110001l0.189941,-0.100006l0.170044,-0.119995l0.179993,-0.110001l0.179993,-0.119995l0.169983,-0.130005l0.170044,-0.130005l0.169983,-0.12999l0.159973,-0.140015l0.170044,-0.139999l0.159973,-0.149994l0.159973,-0.149994l0.160034,-0.160004l0.159973,-0.160004l0.150024,-0.160004l0.150024,-0.169998l0.149963,-0.169998l0.100037,-0.119995l0.099976,-0.130005l0.089966,-0.130005l0.100037,-0.139999l0.089966,-0.139999l0.090027,-0.139999l0.099976,-0.159988l0.080017,-0.150009l0.090027,-0.169998l0.089966,-0.160004l0.090027,-0.179993l0.080017,-0.180008l0.079956,-0.179993l0.090027,-0.190002l0.080017,-0.199997l0.079956,-0.199997l0.080017,-0.200012l0.070007,-0.209991l0.080017,-0.220001l0.069946,-0.220001l0.080017,-0.229996l0.070007,-0.230011l0.070007,-0.23999l0.070007,-0.240005l0.070007,-0.25l0.070007,-0.259995l0.059998,-0.26001l0.069946,-0.259995l0.060059,-0.270004l0.059998,-0.279999l0.059998,-0.279999l0.059998,-0.279999l0.059998,-0.300003l0.059998,-0.289993l0.059998,-0.309998l0.049988,-0.300003l0.059998,-0.320007l0.049988,-0.319992l0.049988,-0.320007l0.050049,-0.330002l0,-75l0,-0.269989l-0.01001,-0.270004l-0.01001,-0.270004l-0.01001,-0.259995l-0.02002,-0.270004l-0.019958,-0.259995l-0.02002,-0.25l-0.029968,-0.259995l-0.030029,-0.25l-0.039978,-0.25l-0.030029,-0.25l-0.049988,-0.25l-0.039978,-0.240005l-0.050049,-0.240005l-0.059998,-0.23999l-0.059998,-0.230011l-0.059998,-0.23999l-0.059998,-0.230011l-0.070007,-0.229996l-0.070007,-0.220001l-0.079956,-0.220001l-0.080017,-0.229996l-0.080017,-0.210007l-0.089966,-0.219986l-0.090027,-0.210007l-0.089966,-0.220001l-0.100037,-0.199997l-0.099976,-0.210007l-0.109985,-0.199997l-0.110046,-0.209991l-0.109985,-0.190002l-0.119995,-0.200012l-0.119995,-0.189987l-0.119995,-0.200012l-0.130005,-0.189987l-0.130005,-0.180008l-0.140015,-0.190002l-0.140015,-0.179993l-0.139954,-0.180008l-0.150024,-0.169998l-0.149963,-0.179993l-0.150024,-0.169998l-0.150024,-0.160004l-0.159973,-0.160004l-0.160034,-0.160004l-0.159973,-0.149994l-0.159973,-0.149994l-0.160034,-0.140015l-0.169983,-0.139999l-0.169983,-0.12999l-0.170044,-0.130005l-0.169983,-0.130005l-0.179993,-0.119995l-0.169983,-0.110001l-0.180054,-0.119995l-0.179993,-0.100006l-0.190002,-0.110001l-0.179993,-0.099991l-0.190002,-0.090012l-0.190002,-0.089996l-0.190002,-0.089996l-0.190002,-0.080002l-0.199951,-0.069992l-0.200012,-0.080002l-0.200012,-0.060013l-0.200012,-0.069992l-0.200012,-0.059998l-0.209961,-0.050003l-0.200012,-0.050003l-0.210022,-0.050003l-0.219971,-0.039993l-0.210022,-0.039993l-0.219971,-0.030014l-0.210022,-0.029999l-0.219971,-0.019989l-0.220032,-0.020004l-0.22998,-0.020004l-0.22998,-0.009995l-0.220032,-0.01001l-0.22998,0l-105.76001,0l-0.230011,0l-0.000003,0zm-338.479996,0l-0.220001,0.01001l-0.229996,0.009995l-0.220001,0.020004l-0.230003,0.020004l-0.220001,0.019989l-0.209999,0.029999l-0.220001,0.030014l-0.209999,0.039993l-0.209999,0.039993l-0.209999,0.050003l-0.209999,0.050003l-0.209999,0.050003l-0.200005,0.059998l-0.199997,0.069992l-0.199997,0.060013l-0.200005,0.080002l-0.190002,0.069992l-0.199997,0.080002l-0.190002,0.089996l-0.189995,0.089996l-0.18,0.090012l-0.190002,0.099991l-0.18,0.110001l-0.18,0.100006l-0.18,0.119995l-0.18,0.110001l-0.169998,0.119995l-0.18,0.130005l-0.169998,0.130005l-0.160004,0.12999l-0.169998,0.139999l-0.169998,0.140015l-0.160004,0.149994l-0.159996,0.149994l-0.160004,0.160004l-0.150002,0.160004l-0.159996,0.160004l-0.150002,0.169998l-0.150002,0.179993l-0.139999,0.169998l-0.150002,0.180008l-0.139999,0.179993l-0.129997,0.190002l-0.139999,0.180008l-0.120003,0.189987l-0.129997,0.200012l-0.120003,0.189987l-0.119995,0.200012l-0.110001,0.190002l-0.110001,0.209991l-0.099998,0.199997l-0.110001,0.210007l-0.100006,0.199997l-0.089996,0.220001l-0.090004,0.210007l-0.089996,0.219986l-0.080002,0.210007l-0.080002,0.229996l-0.079994,0.220001l-0.07,0.220001l-0.07,0.229996l-0.060005,0.230011l-0.07,0.23999l-0.049995,0.230011l-0.060005,0.23999l-0.049995,0.240005l-0.040001,0.240005l-0.050003,0.25l-0.040001,0.25l-0.029999,0.25l-0.029999,0.25l-0.029999,0.259995l-0.020004,0.25l-0.019997,0.259995l-0.019997,0.270004l-0.010002,0.259995l-0.010002,0.270004l-0.010002,0.270004l0,0.269989l0,75l0,0.270004l0.010002,0.270004l0.010002,0.270004l0.010002,0.269989l0.019997,0.26001l0.019997,0.259995l0.020004,0.259995l0.029999,0.25l0.029999,0.25l0.029999,0.25l0.040001,0.25l0.050003,0.25l0.040001,0.240005l0.049995,0.240005l0.060005,0.23999l0.049995,0.230011l0.07,0.23999l0.060005,0.230011l0.07,0.229996l0.07,0.220001l0.079994,0.220001l0.080002,0.229996l0.080002,0.210007l0.089996,0.219986l0.090004,0.210007l0.089996,0.210007l0.100006,0.209991l0.110001,0.210007l0.099998,0.199997l0.110001,0.209991l0.110001,0.190002l0.119995,0.199997l0.120003,0.190002l0.129997,0.200012l0.120003,0.189987l0.139999,0.180008l0.129997,0.190002l0.139999,0.179993l0.150002,0.180008l0.139999,0.179993l0.150002,0.169998l0.150002,0.169998l0.159996,0.160004l0.150002,0.160004l0.160004,0.160004l0.159996,0.149994l0.160004,0.149994l0.169998,0.139999l0.169998,0.140015l0.160004,0.12999l0.169998,0.130005l0.18,0.130005l0.169998,0.119995l0.18,0.110001l0.18,0.119995l0.18,0.100006l0.18,0.110001l0.190002,0.089996l0.18,0.100006l0.189995,0.089996l0.190002,0.089996l0.199997,0.080002l0.190002,0.069992l0.200005,0.080002l0.199997,0.059998l0.199997,0.070007l0.200005,0.059998l0.209999,0.050003l0.209999,0.050003l0.209999,0.050003l0.209999,0.039993l0.209999,0.039993l0.220001,0.030014l0.209999,0.029999l0.220001,0.019989l0.230003,0.020004l0.220001,0.020004l0.229996,0.009995l0.220001,0.009995l0.229996,0l105.770004,0l0.229996,0l0.230011,-0.009995l0.229996,-0.009995l0.220001,-0.020004l0.220001,-0.020004l0.220001,-0.019989l0.219986,-0.029999l0.220001,-0.030014l0.210007,-0.039993l0.210007,-0.039993l0.209991,-0.050003l0.210007,-0.050003l0.209991,-0.050003l0.199997,-0.059998l0.200012,-0.070007l0.199997,-0.059998l0.199997,-0.080002l0.190002,-0.069992l0.199997,-0.080002l0.190002,-0.089996l0.190002,-0.089996l0.179993,-0.100006l0.190002,-0.089996l0.180008,-0.110001l0.179993,-0.100006l0.179993,-0.119995l0.180008,-0.110001l0.169998,-0.119995l0.169998,-0.130005l0.169998,-0.130005l0.169998,-0.12999l0.170013,-0.140015l0.159988,-0.139999l0.169998,-0.149994l0.160004,-0.149994l0.150009,-0.160004l0.159988,-0.160004l0.150009,-0.160004l0.149994,-0.169998l0.150009,-0.169998l0.099991,-0.119995l0.100006,-0.130005l0.099991,-0.130005l0.090012,-0.139999l0.099991,-0.139999l0.089996,-0.139999l0.090012,-0.159988l0.089996,-0.150009l0.089996,-0.169998l0.080002,-0.160004l0.089996,-0.179993l0.090012,-0.180008l0.079987,-0.179993l0.080002,-0.190002l0.080002,-0.199997l0.080002,-0.199997l0.080002,-0.200012l0.080002,-0.209991l0.080002,-0.220001l0.069992,-0.220001l0.080002,-0.229996l0.070007,-0.230011l0.069992,-0.23999l0.070007,-0.240005l0.069992,-0.25l0.070007,-0.259995l0.059998,-0.26001l0.069992,-0.259995l0.060013,-0.270004l0.059998,-0.279999l0.069992,-0.279999l0.059998,-0.279999l0.050003,-0.300003l0.059998,-0.289993l0.059998,-0.309998l0.050003,-0.300003l0.059998,-0.320007l0.050003,-0.319992l0.050003,-0.320007l0.050003,-0.330002l0,-75l0,-0.269989l0,-0.270004l-0.01001,-0.270004l-0.019989,-0.259995l-0.01001,-0.270004l-0.019989,-0.259995l-0.029999,-0.25l-0.029999,-0.259995l-0.030014,-0.25l-0.029999,-0.25l-0.039993,-0.25l-0.050003,-0.25l-0.039993,-0.240005l-0.050003,-0.240005l-0.059998,-0.23999l-0.050003,-0.230011l-0.070007,-0.23999l-0.059998,-0.230011l-0.069992,-0.229996l-0.070007,-0.220001l-0.080002,-0.220001l-0.080002,-0.229996l-0.079987,-0.210007l-0.090012,-0.219986l-0.089996,-0.210007l-0.100006,-0.220001l-0.089996,-0.199997l-0.110001,-0.210007l-0.099991,-0.199997l-0.110001,-0.209991l-0.12001,-0.190002l-0.110001,-0.200012l-0.119995,-0.189987l-0.130005,-0.200012l-0.12999,-0.189987l-0.130005,-0.180008l-0.130005,-0.190002l-0.139999,-0.179993l-0.149994,-0.180008l-0.139999,-0.169998l-0.149994,-0.179993l-0.150009,-0.169998l-0.160004,-0.160004l-0.149994,-0.160004l-0.160004,-0.160004l-0.160004,-0.149994l-0.159988,-0.149994l-0.169998,-0.140015l-0.160004,-0.139999l-0.169998,-0.12999l-0.169998,-0.130005l-0.180008,-0.130005l-0.169998,-0.119995l-0.180008,-0.110001l-0.179993,-0.119995l-0.179993,-0.100006l-0.180008,-0.110001l-0.179993,-0.099991l-0.190002,-0.090012l-0.190002,-0.089996l-0.190002,-0.089996l-0.190002,-0.080002l-0.199997,-0.069992l-0.199997,-0.080002l-0.199997,-0.060013l-0.200012,-0.069992l-0.199997,-0.059998l-0.209991,-0.050003l-0.200012,-0.050003l-0.209991,-0.050003l-0.220001,-0.039993l-0.210007,-0.039993l-0.209991,-0.030014l-0.220001,-0.029999l-0.220001,-0.019989l-0.229996,-0.020004l-0.220001,-0.020004l-0.229996,-0.009995l-0.220001,-0.01001l-0.230011,0l-105.779999,0l-0.229996,0zm169.229996,0l-0.220001,0.01001l-0.22998,0.009995l-0.220001,0.020004l-0.230011,0.020004l-0.220001,0.019989l-0.209991,0.029999l-0.220001,0.030014l-0.210022,0.039993l-0.220001,0.039993l-0.199982,0.050003l-0.209991,0.050003l-0.210007,0.050003l-0.200012,0.059998l-0.199997,0.069992l-0.199997,0.060013l-0.199997,0.080002l-0.190002,0.069992l-0.199997,0.080002l-0.190002,0.089996l-0.190002,0.089996l-0.190002,0.090012l-0.179993,0.099991l-0.180008,0.110001l-0.179993,0.100006l-0.180008,0.119995l-0.179993,0.110001l-0.169998,0.119995l-0.180008,0.130005l-0.169998,0.130005l-0.169998,0.12999l-0.160004,0.139999l-0.169998,0.140015l-0.160004,0.149994l-0.159988,0.149994l-0.160004,0.160004l-0.150009,0.160004l-0.159988,0.160004l-0.150009,0.169998l-0.149994,0.179993l-0.149994,0.169998l-0.140015,0.180008l-0.139999,0.179993l-0.12999,0.190002l-0.139999,0.180008l-0.12001,0.189987l-0.12999,0.200012l-0.12001,0.189987l-0.119995,0.200012l-0.110001,0.190002l-0.110001,0.209991l-0.110001,0.199997l-0.099991,0.210007l-0.100006,0.199997l-0.089996,0.220001l-0.089996,0.210007l-0.090012,0.219986l-0.080002,0.210007l-0.079987,0.229996l-0.080002,0.220001l-0.070007,0.220001l-0.069992,0.229996l-0.060013,0.230011l-0.069992,0.23999l-0.050003,0.230011l-0.059998,0.23999l-0.050003,0.240005l-0.039993,0.240005l-0.050003,0.25l-0.040009,0.25l-0.029999,0.25l-0.029999,0.25l-0.029999,0.259995l-0.019989,0.25l-0.020004,0.259995l-0.020004,0.270004l-0.009995,0.259995l-0.01001,0.270004l-0.009995,0.270004l0,0.269989l0,75l0,0.270004l0.009995,0.270004l0.01001,0.270004l0.009995,0.269989l0.020004,0.26001l0.020004,0.259995l0.019989,0.259995l0.029999,0.25l0.029999,0.25l0.029999,0.25l0.040009,0.25l0.050003,0.25l0.039993,0.240005l0.050003,0.240005l0.059998,0.23999l0.050003,0.230011l0.069992,0.23999l0.060013,0.230011l0.069992,0.229996l0.070007,0.220001l0.080002,0.220001l0.079987,0.229996l0.080002,0.210007l0.090012,0.219986l0.089996,0.210007l0.089996,0.210007l0.100006,0.209991l0.099991,0.210007l0.110001,0.199997l0.110001,0.209991l0.110001,0.190002l0.119995,0.199997l0.12001,0.190002l0.12999,0.200012l0.12001,0.189987l0.139999,0.180008l0.12999,0.190002l0.139999,0.179993l0.140015,0.180008l0.149994,0.179993l0.149994,0.169998l0.150009,0.169998l0.159988,0.160004l0.150009,0.160004l0.160004,0.160004l0.159988,0.149994l0.160004,0.149994l0.169998,0.139999l0.160004,0.140015l0.169998,0.12999l0.169998,0.130005l0.180008,0.130005l0.169998,0.119995l0.179993,0.110001l0.180008,0.119995l0.179993,0.100006l0.180008,0.110001l0.179993,0.089996l0.190002,0.100006l0.190002,0.089996l0.190002,0.089996l0.199997,0.080002l0.190002,0.069992l0.199997,0.080002l0.199997,0.059998l0.199997,0.070007l0.200012,0.059998l0.210007,0.050003l0.209991,0.050003l0.199982,0.050003l0.220001,0.039993l0.210022,0.039993l0.220001,0.030014l0.209991,0.029999l0.220001,0.019989l0.230011,0.020004l0.220001,0.020004l0.22998,0.009995l0.220001,0.009995l0.230011,0l105.779999,0l0.22998,0l0.230011,-0.009995l0.230011,-0.009995l0.220001,-0.020004l0.220001,-0.020004l0.22998,-0.019989l0.210022,-0.029999l0.220001,-0.030014l0.209991,-0.039993l0.220001,-0.039993l0.209991,-0.050003l0.200012,-0.050003l0.209991,-0.050003l0.200012,-0.059998l0.199982,-0.070007l0.200012,-0.059998l0.199982,-0.080002l0.200012,-0.069992l0.190002,-0.080002l0.190002,-0.089996l0.190002,-0.089996l0.190002,-0.100006l0.179993,-0.089996l0.179993,-0.110001l0.190002,-0.100006l0.170013,-0.119995l0.179993,-0.110001l0.179993,-0.119995l0.170013,-0.130005l0.169983,-0.130005l0.170013,-0.12999l0.160004,-0.140015l0.169983,-0.139999l0.160004,-0.149994l0.160004,-0.149994l0.160004,-0.160004l0.149994,-0.160004l0.160004,-0.160004l0.149994,-0.169998l0.149994,-0.169998l0.100006,-0.119995l0.089996,-0.130005l0.100006,-0.130005l0.089996,-0.139999l0.100006,-0.139999l0.089996,-0.139999l0.089996,-0.159988l0.089996,-0.150009l0.089996,-0.169998l0.080017,-0.160004l0.089996,-0.179993l0.089996,-0.180008l0.080017,-0.179993l0.079987,-0.190002l0.079987,-0.199997l0.080017,-0.199997l0.079987,-0.200012l0.080017,-0.209991l0.069977,-0.220001l0.080017,-0.220001l0.070007,-0.229996l0.069977,-0.230011l0.080017,-0.23999l0.059998,-0.240005l0.070007,-0.25l0.069977,-0.259995l0.070007,-0.26001l0.059998,-0.259995l0.070007,-0.270004l0.059998,-0.279999l0.059998,-0.279999l0.059998,-0.279999l0.059998,-0.300003l0.059998,-0.289993l0.050018,-0.309998l0.059998,-0.300003l0.049988,-0.320007l0.050018,-0.319992l0.049988,-0.320007l0.050018,-0.330002l0,0l0,-75l-0.01001,-0.269989l0,-0.270004l-0.01001,-0.270004l-0.009979,-0.259995l-0.02002,-0.270004l-0.019989,-0.259995l-0.02002,-0.25l-0.029999,-0.259995l-0.029999,-0.25l-0.039978,-0.25l-0.040009,-0.25l-0.040009,-0.25l-0.049988,-0.240005l-0.050018,-0.240005l-0.049988,-0.23999l-0.059998,-0.230011l-0.059998,-0.23999l-0.059998,-0.230011l-0.070007,-0.229996l-0.079987,-0.220001l-0.070007,-0.220001l-0.080017,-0.229996l-0.079987,-0.210007l-0.089996,-0.219986l-0.089996,-0.210007l-0.100006,-0.220001l-0.089996,-0.199997l-0.110016,-0.210007l-0.100006,-0.199997l-0.109985,-0.209991l-0.109985,-0.190002l-0.120026,-0.200012l-0.119995,-0.189987l-0.130005,-0.200012l-0.119995,-0.189987l-0.130005,-0.180008l-0.139984,-0.190002l-0.140015,-0.179993l-0.139984,-0.180008l-0.149994,-0.169998l-0.150024,-0.179993l-0.149994,-0.169998l-0.149994,-0.160004l-0.160004,-0.160004l-0.160004,-0.160004l-0.160004,-0.149994l-0.160004,-0.149994l-0.159973,-0.140015l-0.170013,-0.139999l-0.170013,-0.12999l-0.169983,-0.130005l-0.170013,-0.130005l-0.169983,-0.119995l-0.179993,-0.110001l-0.180023,-0.119995l-0.179993,-0.100006l-0.179993,-0.110001l-0.190002,-0.099991l-0.179993,-0.090012l-0.190002,-0.089996l-0.200012,-0.089996l-0.190002,-0.080002l-0.190002,-0.069992l-0.199982,-0.080002l-0.200012,-0.060013l-0.199982,-0.069992l-0.210022,-0.059998l-0.199982,-0.050003l-0.210022,-0.050003l-0.209991,-0.050003l-0.209991,-0.039993l-0.220001,-0.039993l-0.209991,-0.030014l-0.220001,-0.029999l-0.220001,-0.019989l-0.220001,-0.020004l-0.230011,-0.020004l-0.220001,-0.009995l-0.230011,-0.01001l-0.22998,0l-105.779999,0l-0.230011,0l0.000003,0z" id="aupQVrgR"/>
 </defs>
 <g>
  <use x="0" y="0" stroke="null" transform="matrix(0.9545424087091694,0,0,1,1.6696466575238413,0) " xlink:href="#aupQVrgR" fill="#B3C8E0" id="svg_4"/>
  <text font-weight="bold" xml:space="preserve" text-anchor="start" font-family="'Trebuchet MS', Gadget, sans-serif" font-size="180" id="svg_1" y="384" x="700" stroke-width="null" stroke="#B3C8E0" fill="#B3C8E0">TABELAS</text>
 </g>
</svg>