<?xml version="1.0" encoding="utf-8"?>
<!-- Generator: Adobe Illustrator 23.0.3, SVG Export Plug-In . SVG Version: 6.00 Build 0)  -->
<svg version="1.1" xmlns="http://www.w3.org/2000/svg" xmlns:xlink="http://www.w3.org/1999/xlink" x="0px" y="0px"
	 viewBox="0 0 163.2 219.6" style="enable-background:new 0 0 163.2 219.6;" xml:space="preserve">
<style type="text/css">
	.st0{fill:#FFFFFF;}
	.st1{fill:none;stroke:#808080;stroke-width:0.1065;stroke-miterlimit:10;}
	.st2{fill:none;}
	.st3{fill:#006E32;}
	.st4{fill:#6ABA82;}
	.st5{fill:#31AA59;}
	.st6{fill:#B3B4B3;}
	.st7{fill:#CDCCCC;}
	.st8{fill:#F2F1F1;}
	.st9{fill:#676767;}
	.st10{fill:#E7E6E6;}
	.st11{fill:#868686;}
	.st12{fill:#D9D9D9;}
	.st13{fill:#751518;}
	.st14{fill:#CC5261;}
	.st15{fill:#BD1622;}
	.st16{fill:#3458A3;}
	.st17{fill:#BFC9E8;}
	.st18{fill:#9FABD8;}
	.st19{opacity:0.5;}
</style>
<g id="Capa_2">
</g>
<g id="Capa_1">
	<g>
		<polygon class="st2" points="27.5,166.3 26.5,165.7 18.2,161 17.2,160.4 8.9,155.6 8.9,155.6 8.9,163.9 44.1,184.2 44.1,175.9 
			36.7,171.7 35.7,171.1 		"/>
		<polygon class="st2" points="130.7,125.9 121.1,120.3 113.9,124.5 130.7,134.1 		"/>
		<polygon class="st2" points="53.2,192.5 52.9,192.9 52.9,194.4 53.7,193.9 70.5,203.5 70.8,202.9 53.2,192.8 		"/>
		<polygon class="st2" points="55.4,186.2 126.3,145.2 102.1,131.3 52.9,159.7 52.9,172.7 52.9,172.8 52.9,172.8 52.9,172.8 
			52.9,186.7 54.6,185.7 		"/>
		<polygon class="st13" points="130.2,142.1 106.7,128.6 102.1,131.3 126.3,145.2 127.8,144.3 127.1,143.9 		"/>
		<polygon class="st14" points="130.4,142 130.7,142.2 130.7,134.1 113.9,124.5 106.7,128.6 130.2,142.1 		"/>
		<polygon class="st14" points="139.6,139.3 139.6,139.3 139.6,139.3 		"/>
		<polygon class="st13" points="139.6,139.3 139.5,139.4 139.6,139.4 		"/>
		<polygon class="st15" points="93.9,0 93.9,0 93.9,0 		"/>
		<polygon class="st13" points="139.6,122.7 139.6,122.7 139.6,122.7 139.6,122.7 		"/>
		<polygon class="st13" points="129.6,72.1 129.6,72.4 129.6,110.8 129.7,111.6 121.2,120.3 121.1,120.3 130.7,125.9 130.7,134.1 
			130.7,142.2 132.2,143.1 132.2,143.1 136.5,145.6 136.8,145.8 136.8,145.8 132.3,143.2 132.3,126.8 132.3,126.8 132.3,35.6 
			121.6,41.8 121.6,55 		"/>
		<polygon class="st6" points="104.1,57.5 104.1,51.9 52.9,81.5 52.9,87 104.1,57.5 		"/>
		<polygon class="st6" points="108,55.2 108,49.7 108,49.7 108,55.2 		"/>
		<path class="st0" d="M129.6,72.4l0.1-0.3l-8-17.1v2.9L108,65.7V55.2l0,0l0,10.6l-3.9-8.4L52.9,87v3.5l16.8-9.8
			c0.6-0.6,1.2-1,1.9-1c2.4,0,5.4,4.8,6.5,9.9c0.7,3.4,0.4,5.8-0.3,8.1l-0.4-0.8l0.4,0.8l-19.7,11.4c0,0,0,0.1,0,0.1l0-0.1l-0.1,0
			l0,0.1l-0.1,0l0.1-0.1l-4.1-8.7l-1-2v17.7L129.6,72V72.4z"/>
		<polygon class="st7" points="104.1,57.5 108,65.8 108,55.2 108,49.7 104.1,51.9 104.1,57.5 		"/>
		<polygon class="st8" points="108,65.7 121.6,57.9 121.6,55 121.6,41.8 108,49.7 108,55.2 		"/>
		<polygon class="st9" points="58,109.2 58.1,109.2 53.9,100.5 		"/>
		<polygon class="st9" points="58,109.3 58,109.2 57.9,109.3 		"/>
		<path class="st9" d="M58.2,101.2c0.8,3.5,0.5,6.1-0.1,7.9l19.7-11.4l-0.4-0.8l-7.7-16.2c0,0,0,0,0,0l-16.8,9.8v1
			C55.1,92.7,57.3,96.8,58.2,101.2z"/>
		<path class="st13" d="M77.5,96.9l0.4,0.8c0.7-2.3,1-4.7,0.3-8.1c-1.1-5.1-4.1-9.9-6.5-9.9c-0.7,0-1.3,0.4-1.9,1c0,0,0,0,0,0
			L77.5,96.9z"/>
		<path class="st13" d="M58.1,109.2L58.1,109.2C58.1,109.2,58.2,109.2,58.1,109.2c0.6-1.9,0.9-4.5,0.2-8c-1-4.4-3.1-8.5-5.3-9.6v7
			l1,2L58.1,109.2z"/>
		<polygon class="st6" points="106.7,128.6 113.9,124.5 121.1,120.3 121.2,120.3 129.7,111.6 129.6,110.8 129.6,111.6 52.9,155.8 
			52.9,159.7 102.1,131.3 		"/>
		<polygon class="st8" points="129.6,110.8 129.6,72.4 129.6,72 52.9,116.2 52.9,125.2 129.6,81 129.6,88 52.9,132.2 52.9,140.1 
			129.6,96 129.6,102.9 52.9,147.1 52.9,155.8 129.6,111.6 		"/>
		<polygon class="st10" points="129.6,96 52.9,140.1 52.9,147.1 129.6,102.9 		"/>
		<polygon class="st10" points="129.6,81 52.9,125.2 52.9,132.2 129.6,88 		"/>
		<polygon class="st15" points="0,172.4 0.1,172.4 0,172.4 		"/>
		<polygon class="st14" points="8.9,164 8.9,164 8.9,164 8.9,164 1.7,168.1 44,192.5 44.1,184.2 8.9,163.9 		"/>
		<polygon class="st15" points="0,167.2 0,167.2 0,167.2 		"/>
		<polygon class="st13" points="8.9,164 8.9,164 8.9,164 		"/>
		<polygon class="st15" points="8.9,164 8.9,164 8.9,163.9 8.9,155.6 7.9,155 1.7,151.4 1.7,168.1 1.7,168.1 8.9,164 		"/>
		<polygon class="st15" points="44.1,192.5 44.1,192.5 44.1,192.5 		"/>
		<polygon class="st15" points="0,150.5 0.1,150.5 0,150.5 		"/>
		<polygon class="st13" points="52.9,172.8 52.9,172.8 52.9,172.8 52.9,172.8 		"/>
		<polygon class="st13" points="26.5,165.7 26.5,69.4 18.2,64.7 18.2,161 		"/>
		<polygon class="st13" points="35.7,171.1 35.7,74.8 27.5,70 27.5,166.3 		"/>
		<polygon class="st13" points="17.2,160.4 17.2,64.1 8.9,59.3 8.9,155.6 		"/>
		<polygon class="st8" points="8.9,155.6 8.9,59.3 7.9,58.7 7.9,155 8.9,155.6 		"/>
		<polygon class="st8" points="18.2,161 18.2,64.7 17.2,64.1 17.2,160.4 		"/>
		<polygon class="st8" points="27.5,166.3 27.5,70 26.5,69.4 26.5,165.7 		"/>
		<polygon class="st8" points="35.7,171.1 36.7,171.7 36.7,75.3 35.7,74.8 		"/>
		<polygon class="st14" points="8.9,59.3 17.2,64.1 18.2,64.7 26.5,69.4 27.5,70 35.7,74.8 36.7,75.3 45.7,80.5 50.2,78 50.2,78 
			132.5,30.3 132.5,30.4 139.6,26.4 93.9,0 93.9,0 93.9,0 88.6,3 88.6,3 4.4,51.7 4.4,51.7 0,54.2 7.9,58.7 		"/>
		<polygon class="st15" points="132.2,143.1 130.7,142.2 130.4,142 130.2,142.1 127.1,143.9 127.8,144.3 131,142.5 136.5,145.6 
			132.2,143.1 		"/>
		<polygon class="st14" points="150.1,159.3 151.1,159.9 152.1,159.4 150.7,158.5 150.7,159 		"/>
		<polygon class="st14" points="136.8,145.8 136.8,145.8 136.5,145.6 131,142.5 127.8,144.3 126.3,145.2 55.4,186.2 54.6,185.7 
			52.9,186.7 52.9,186.7 51.4,187.6 53.2,188.6 53.2,187.4 72.7,198.7 150.7,153.6 150.7,154.7 150.7,154.7 147.4,156.6 
			149.3,157.7 152.5,155.8 152.5,155.8 155.4,157.5 158.6,155.7 158.7,155.6 139.6,144.6 139.2,144.4 		"/>
		<polygon class="st13" points="151.1,165.3 151.1,165.3 151.1,165.3 		"/>
		<polygon class="st13" points="151.1,159.9 150.1,159.3 145.5,162 151.1,165.2 151.1,160 		"/>
		<polygon class="st15" points="158.9,159.5 158.9,155.5 158.6,155.7 155.4,157.5 		"/>
		<polygon class="st15" points="151.1,159.9 151.1,160 151.1,165.2 151.1,165.3 151.1,165.3 151.1,165.3 156.7,162.1 152.1,159.4 		
			"/>
		<polygon class="st15" points="45.1,198.4 40.7,206.2 45.4,198 		"/>
		<path class="st15" d="M132.5,30.3L50.2,78l0,0l-4.5,2.6v96.3l0,0v16.6l0,0v4l5.6-9.9l1.6-0.9v-13.9l0,0l0,0l0,0v-13.1v-3.9v-8.7
			v-7v-8v-7v-9V98.5v-7v-1V87v-5.5l51.1-29.5l3.9-2.3l0,0l13.6-7.9l10.7-6.2v91.2l0,0v16.4l4.4,2.6l2.4-1.4l0.4,0.2l0,0v-5.4l0,0v0
			v-16.5l0,0l0,0l0,0V26.4L132.5,30.3L132.5,30.3z M139.6,139.3L139.6,139.3L139.6,139.3L139.6,139.3z"/>
		<polygon class="st15" points="54.6,185.7 52.9,186.7 52.9,186.7 		"/>
		<polygon class="st15" points="52.9,192.9 53.2,192.5 53.2,188.7 48.5,196.9 52.9,194.4 		"/>
		<polygon class="st15" points="46.1,201 42.6,207.3 45.8,205.4 46.7,203.9 46.1,203.6 		"/>
		<polygon class="st14" points="52.9,194.4 48.5,196.9 46.2,198.2 46.4,198.3 65.7,209.5 67.8,208.3 70.5,203.5 53.7,193.9 		"/>
		<polygon class="st15" points="65.6,209.5 65.6,212.1 67.8,208.3 65.7,209.5 		"/>
		<polygon class="st15" points="150.7,159 150.7,158.5 147.4,156.6 150.7,154.7 150.7,154.7 150.7,153.6 72.7,198.7 72.6,198.7 
			72.6,199.8 75.9,198 77.7,199 74.5,200.9 63.8,219.6 67.1,217.7 70.2,212.3 73.4,210.4 73.4,206.6 75.9,202.2 145.5,162 
			150.1,159.3 		"/>
		<polygon class="st14" points="74.5,200.9 77.7,199 75.9,198 72.6,199.8 72.6,199.8 		"/>
		<path class="st13" d="M72.6,199.8L72.6,199.8l0-1.1l0.1,0l-19.5-11.3l0,1.2l-1.8-1.1l-5.6,9.9v-4l0,0v-16.6l0,0V80.5l-9-5.2v96.3
			l7.3,4.2l0,8.3l0,8.3L1.7,168.1l-0.1,0.1v-16.7l6.3,3.6V58.7L0,54.2l0,96.3l0,0l0,16.7l0,0l0,5.2l0,0l0,0l45.1,26l0.3-0.5
			l-4.7,8.2l1.9,1.1l3.6-6.2l0,2.5l0.5,0.3l17.8,10.2l-2.5,4.4l1.9,1.1l10.7-18.6L72.6,199.8z M0,167.2L0,167.2L0,167.2L0,167.2z
			 M0,150.5L0,150.5L0,150.5L0,150.5z M44.1,192.5L44.1,192.5L44.1,192.5L44.1,192.5z M70.5,203.5l-2.7,4.7l-2.2,3.8v-2.6l0.1,0
			l-19.2-11.1l-0.2-0.1l2.3-1.3l4.7-8.2l0,3.8l0,0.2l17.7,10.2L70.5,203.5z"/>
		<polygon class="st15" points="152.5,155.8 149.3,157.7 159.9,163.9 163.2,162.1 161.3,161 		"/>
		<polygon class="st13" points="155.4,157.5 152.5,155.8 152.5,155.8 161.3,161 163.2,162.1 158.9,159.5 		"/>
		<polygon class="st13" points="147.4,156.6 150.7,158.5 152.1,159.4 156.7,162.1 158.1,162.9 159.9,163.9 149.3,157.7 		"/>
	</g>
	<g class="st19">
		<path class="st14" d="M49.8,92.2c0.6-0.6,1.2-1,1.9-1c2.5,0,5.3,4.8,6.4,10c0.8,3.5,0.4,6.2-0.1,8.1l19.9-11.6
			c0.6-1.9,1-4.6,0.3-8.1c-1.1-5.1-4.1-9.8-6.4-9.9c-0.6,0-0.9,0.2-0.9,0.2L50.7,91.5L49.8,92.2z"/>
	</g>
</g>
</svg>
