<?xml version="1.0" encoding="utf-8"?>
<!-- Generator: Adobe Illustrator 23.0.3, SVG Export Plug-In . SVG Version: 6.00 Build 0)  -->
<svg version="1.1" xmlns="http://www.w3.org/2000/svg" xmlns:xlink="http://www.w3.org/1999/xlink" x="0px" y="0px"
	 viewBox="0 0 142.1 107.8" style="enable-background:new 0 0 142.1 107.8;" xml:space="preserve">
<style type="text/css">
	.st0{fill:#3458A3;}
	.st1{fill:#BFC9E8;}
	.st2{fill:#9FABD8;}
	.st3{fill-rule:evenodd;clip-rule:evenodd;fill:#9FABD8;}
	.st4{enable-background:new    ;}
	.st5{fill-rule:evenodd;clip-rule:evenodd;fill:#F2F1F1;}
	.st6{fill:#CDCCCC;}
	.st7{fill-rule:evenodd;clip-rule:evenodd;fill:#E7E6E6;}
	.st8{fill:#E7E6E6;}
	.st9{fill:#F2F1F1;}
	.st10{fill:#FFFFFF;}
	.st11{fill-rule:evenodd;clip-rule:evenodd;fill:#BFC9E8;}
	.st12{fill:#868686;}
	.st13{fill:#D9D9D9;}
	.st14{fill-rule:evenodd;clip-rule:evenodd;fill:#CDCCCC;}
	.st15{fill-rule:evenodd;clip-rule:evenodd;fill:#D9D9D9;}
	.st16{fill:#006E32;}
	.st17{fill:#6ABA82;}
	.st18{fill:#31AA59;}
	.st19{fill-rule:evenodd;clip-rule:evenodd;fill:#31AA59;}
	.st20{fill-rule:evenodd;clip-rule:evenodd;fill:#6ABA82;}
	.st21{fill:#751518;}
	.st22{fill:#CC5261;}
	.st23{fill:#BD1622;}
	.st24{fill-rule:evenodd;clip-rule:evenodd;fill:#BD1622;}
	.st25{fill-rule:evenodd;clip-rule:evenodd;fill:#CC5261;}
</style>
<g id="Capa_2">
</g>
<g id="Capa_1">
	<g>
		<g>
			<polygon class="st16" points="105.6,61.1 81.3,48.8 81.4,37.9 105.6,50.1 			"/>
			<polygon class="st17" points="139.3,30.7 105.6,50.1 81.4,37.9 115,18.3 			"/>
			<polygon class="st18" points="139.4,41.8 105.6,61.1 105.6,50.1 139.3,30.7 			"/>
		</g>
		<g>
			<g>
				<path class="st19" d="M141.2,12.2c-2.5-8.3-9.4-13.6-15.4-11.8c-0.3,0.1-2.1,0.9-2.1,0.9c0,0-0.1,0-0.1,0.1l-7.4,4.4l13.3,28.1
					l7.6-4.5C141.5,26.2,143.3,19.3,141.2,12.2z"/>
			</g>
			
				<ellipse transform="matrix(0.9593 -0.2824 0.2824 0.9593 -0.5715 35.5007)" class="st16" cx="122.9" cy="19.7" rx="11.5" ry="15.7"/>
		</g>
		<g>
			<g class="st4">
				<g>
					<polygon class="st16" points="101.4,15.2 101.4,17.7 99.2,16.5 99.2,14 					"/>
				</g>
				<g>
					<polygon class="st18" points="101.4,15.2 118.8,5.1 118.8,7.6 101.4,17.7 					"/>
				</g>
				<g>
					<polygon class="st17" points="99.2,14 116.6,3.9 118.8,5.1 101.4,15.2 					"/>
				</g>
			</g>
			<g class="st4">
				<g>
					<polygon class="st16" points="112.8,42.5 112.8,45 110.6,43.7 110.6,41.3 					"/>
				</g>
				<g>
					<polygon class="st18" points="112.8,42.5 130.9,32 130.9,34.5 112.8,45 					"/>
				</g>
				<g>
					<polygon class="st17" points="110.6,41.3 128.7,30.7 130.9,32 112.8,42.5 					"/>
				</g>
			</g>
			<g>
				<g>
					<path class="st19" d="M132.6,17.1c-2.4-8.1-9.1-13.3-15.1-11.6c-0.3,0.1-2,0.9-2,0.9c0,0-0.1,0-0.1,0.1L96.3,17.8l13,27.5
						l19.4-11.5C132.9,30.8,134.7,24,132.6,17.1z"/>
				</g>
				
					<ellipse transform="matrix(0.9593 -0.2824 0.2824 0.9593 -4.713 30.3019)" class="st16" cx="102.8" cy="31.5" rx="11.2" ry="15.3"/>
			</g>
			<g class="st4">
				<g>
					<polygon class="st16" points="106.4,13.7 106.4,16.2 104.2,14.9 104.2,12.5 					"/>
				</g>
				<g>
					<polygon class="st18" points="106.4,13.7 123.8,3.6 123.8,6 106.4,16.2 					"/>
				</g>
				<g>
					<polygon class="st17" points="104.2,12.5 121.7,2.3 123.8,3.6 106.4,13.7 					"/>
				</g>
			</g>
			<g class="st4">
				<g>
					<polygon class="st16" points="111.2,17.4 111.2,19.9 109,18.6 109,16.2 					"/>
				</g>
				<g>
					<polygon class="st18" points="111.2,17.4 128.6,7.3 128.6,9.7 111.2,19.9 					"/>
				</g>
				<g>
					<polygon class="st17" points="109,16.2 126.4,6 128.6,7.3 111.2,17.4 					"/>
				</g>
			</g>
			<g class="st4">
				<g>
					<polygon class="st16" points="116.5,40 116.5,42.5 114.4,41.2 114.4,38.8 					"/>
				</g>
				<g>
					<polygon class="st18" points="116.5,40 134.4,29.6 134.4,32.1 116.5,42.5 					"/>
				</g>
				<g>
					<polygon class="st17" points="114.4,38.8 132.3,28.4 134.4,29.6 116.5,40 					"/>
				</g>
			</g>
			<g class="st4">
				<g>
					<polygon class="st16" points="117.7,34.6 117.7,37.1 115.5,35.8 115.5,33.3 					"/>
				</g>
				<g>
					<polygon class="st18" points="117.7,34.6 135.8,24.1 135.8,26.5 117.7,37.1 					"/>
				</g>
				<g>
					<polygon class="st17" points="115.5,33.3 133.6,22.8 135.8,24.1 117.7,34.6 					"/>
				</g>
			</g>
			<g class="st4">
				<g>
					<polygon class="st16" points="117,28.9 117,31.4 114.9,30.1 114.9,27.7 					"/>
				</g>
				<g>
					<polygon class="st18" points="117,28.9 134.9,18.5 134.9,21 117,31.4 					"/>
				</g>
				<g>
					<polygon class="st17" points="114.9,27.7 132.7,17.3 134.9,18.5 117,28.9 					"/>
				</g>
			</g>
			<g class="st4">
				<g>
					<polygon class="st16" points="115,22.7 115,25.2 112.9,23.9 112.9,21.5 					"/>
				</g>
				<g>
					<polygon class="st18" points="115,22.7 132.2,12.7 132.2,15.2 115,25.2 					"/>
				</g>
				<g>
					<polygon class="st17" points="112.9,21.5 130,11.5 132.2,12.7 115,22.7 					"/>
				</g>
			</g>
		</g>
		<g>
			<polygon class="st16" points="60.7,56.5 58.6,55.3 58.7,43.5 60.7,44.5 			"/>
			<polygon class="st17" points="62,43.7 60.7,44.6 58.7,43.5 60.1,42.7 			"/>
			<polygon class="st18" points="62,55.6 60.7,56.5 60.7,44.6 62,43.7 			"/>
		</g>
		<g>
			<polygon class="st16" points="32.7,72.1 30.6,71 30.6,59.2 32.7,60.3 			"/>
			<polygon class="st17" points="34,59.4 32.7,60.3 30.6,59.2 32,58.5 			"/>
			<polygon class="st18" points="34,71.3 32.7,72.1 32.7,60.3 34,59.4 			"/>
		</g>
		<g>
			<polygon class="st16" points="6.4,88.6 3.9,87 4,85.4 6.4,86.9 			"/>
			<polygon class="st17" points="11.4,83.6 6.4,86.9 4,85.4 9,82.4 			"/>
			<polygon class="st18" points="11.5,85.4 6.4,88.6 6.4,86.9 11.4,83.6 			"/>
		</g>
		<g>
			<polygon class="st16" points="10.7,84.8 8.6,83.7 8.6,71.9 10.7,72.9 			"/>
			<polygon class="st17" points="11.9,72.1 10.7,72.9 8.6,71.9 10,71.1 			"/>
			<polygon class="st18" points="12,83.9 10.7,84.8 10.7,72.9 11.9,72.1 			"/>
		</g>
		<g>
			<polygon class="st16" points="19.8,107.8 0,98 0,95.8 19.7,105.6 			"/>
			<polygon class="st17" points="103.2,57.6 19.7,105.6 0.1,95.9 83.2,47.5 			"/>
			<polygon class="st18" points="103.2,59.9 19.8,107.8 19.7,105.6 103.2,57.6 			"/>
		</g>
		<g>
			<polygon class="st16" points="19.7,104.4 1.5,95.3 1.5,93.2 19.7,102.3 			"/>
			<polygon class="st17" points="102.1,54.9 19.7,102.3 1.5,93.3 83.6,45.6 			"/>
			<polygon class="st18" points="102.1,57 19.7,104.4 19.7,102.3 102.1,54.9 			"/>
		</g>
		<g>
			<g>
				<g>
					<g>
						<path class="st19" d="M111.6,28.8c-2.1-7.2-8.1-11.7-13.3-10.2c-0.3,0.1-1.2,0.5-1.9,0.8l-3.5,2l11.4,24.2l3.7-2.2
							C111.9,40.9,113.4,34.9,111.6,28.8z"/>
					</g>
					
						<ellipse transform="matrix(0.9593 -0.2824 0.2824 0.9593 -5.4559 29.2466)" class="st16" cx="98.7" cy="33.6" rx="9.9" ry="13.5"/>
				</g>
			</g>
			<g>
				<g>
					<g>
						<path class="st5" d="M100.3,33.5c-0.6-2.1-2.4-3.5-3.9-3c-0.1,0-0.4,0.2-0.6,0.3l-3.1,2l3.4,7.2l3.2-2
							C100.4,37.1,100.8,35.3,100.3,33.5z"/>
					</g>
					<ellipse transform="matrix(0.9593 -0.2824 0.2824 0.9593 -6.4079 28.128)" class="st6" cx="94.4" cy="36.3" rx="2.9" ry="4"/>
				</g>
			</g>
			<g>
				<g>
					<path class="st7" d="M97.7,35.5c-1-3.4-3.9-5.6-6.4-4.9c-0.1,0-0.9,0.4-0.9,0.4c0,0,0,0,0,0l-4.3,2.5l5.5,11.7l4.4-2.6
						C97.8,41.3,98.5,38.4,97.7,35.5z"/>
				</g>
				
					<ellipse transform="matrix(0.9593 -0.2824 0.2824 0.9593 -7.4707 26.6908)" class="st6" cx="88.9" cy="39.3" rx="4.8" ry="6.5"/>
			</g>
			<g>
				<g>
					<g>
						<path class="st5" d="M91,38.9c-0.6-2.1-2.4-3.5-3.9-3c-0.1,0-0.4,0.2-0.6,0.3l-3.1,2l3.4,7.2l3.2-2C91,42.5,91.5,40.7,91,38.9
							z"/>
					</g>
					<ellipse transform="matrix(0.9593 -0.2824 0.2824 0.9593 -8.3133 25.7099)" class="st6" cx="85" cy="41.7" rx="2.9" ry="4"/>
				</g>
			</g>
			<g>
				<g>
					<path class="st19" d="M89.8,43.3c-1.7-5.7-6.4-9.3-10.5-8.1c-0.2,0.1-1.4,0.6-1.4,0.6c0,0,0,0-0.1,0L7.5,76l9,19.2l70.5-40.3
						C90,52.8,91.3,48.1,89.8,43.3z"/>
				</g>
				
					<ellipse transform="matrix(0.9593 -0.2824 0.2824 0.9593 -23.6865 6.8787)" class="st16" cx="12" cy="85.6" rx="7.8" ry="10.7"/>
			</g>
		</g>
		<g>
			<g>
				<path class="st17" d="M47.2,54.2c-2.5,0-4.6-0.5-4.6-1.1v5.6c0,0.6,2.1,1.1,4.6,1.1c2.5,0,4.6-0.5,4.6-1.1V53
					C51.8,53.7,49.7,54.2,47.2,54.2z"/>
				<path class="st17" d="M51.8,53c-0.1-0.6-2.1-1.1-4.6-1.1c-2.5,0-4.5,0.5-4.6,1.1c0,0,0,0,0,0c0,0.6,2.1,1.1,4.6,1.1
					C49.7,54.2,51.8,53.7,51.8,53C51.8,53,51.8,53,51.8,53z"/>
			</g>
			<path class="st18" d="M52.9,52.1c0.4,0.2,0.6,0.3,0.7,0.5c0,0,0,0,0,0v-1.1C53.5,51.7,53.3,51.9,52.9,52.1z"/>
			<path class="st18" d="M41.5,52.1c-0.4-0.2-0.7-0.3-0.7-0.5v1.1c0,0,0,0,0,0C40.9,52.4,41.1,52.2,41.5,52.1z"/>
			<path class="st18" d="M52.9,52.1c-1,0.4-3.2,0.7-5.7,0.7c-2.5,0-4.6-0.3-5.7-0.7c-0.4,0.2-0.6,0.3-0.7,0.5c0,0,0,0,0,0
				c0,0.7,2.8,1.2,6.4,1.2c3.5,0,6.4-0.5,6.4-1.2c0,0,0,0,0,0C53.5,52.4,53.3,52.2,52.9,52.1z"/>
			<path class="st18" d="M37.3,51.7c1.8-0.7,5.5-1.2,9.9-1.2c4.3,0,8,0.5,9.9,1.2c0.8-0.3,1.2-0.6,1.2-0.9c0,0,0-0.1,0-0.1
				c-0.2-1.1-5.1-2-11-2c-6,0-10.8,0.9-11,2c0,0,0,0.1,0,0.1C36.1,51.1,36.6,51.5,37.3,51.7z"/>
			<path class="st18" d="M37.3,51.7c1.8,0.7,5.5,1.2,9.9,1.2c4.3,0,8-0.5,9.9-1.2c-1.8-0.7-5.5-1.2-9.9-1.2
				C42.9,50.6,39.1,51.1,37.3,51.7z"/>
			<g>
				<path class="st8" d="M47.2,54.3c-6.9,0-12.5-1.4-12.5-3.1v2.6c0,1.7,5.6,3.1,12.5,3.1c6.9,0,12.5-1.4,12.5-3.1v-2.6
					C59.7,52.9,54.1,54.3,47.2,54.3z"/>
				<path class="st9" d="M59.7,51.1c-0.3-1.6-5.8-3-12.5-3c-6.7,0-12.2,1.3-12.5,3c0,0,0,0.1,0,0.1c0,1.7,5.6,3.1,12.5,3.1
					c6.9,0,12.5-1.4,12.5-3.1C59.7,51.2,59.7,51.1,59.7,51.1z"/>
			</g>
			<g>
				<path class="st8" d="M47.2,51.2c-1.4,0-2.5-0.3-2.5-0.6v0.5c0,0.3,1.1,0.6,2.5,0.6c1.4,0,2.5-0.3,2.5-0.6v-0.5
					C49.7,50.9,48.5,51.2,47.2,51.2z"/>
				<path class="st10" d="M49.7,50.5c-0.1-0.3-1.1-0.6-2.5-0.6c-1.3,0-2.4,0.3-2.5,0.6c0,0,0,0,0,0c0,0.3,1.1,0.6,2.5,0.6
					C48.5,51.2,49.7,50.9,49.7,50.5C49.7,50.5,49.7,50.5,49.7,50.5z"/>
			</g>
		</g>
		<g>
			<polygon class="st16" points="45,83.5 42.9,82.1 42.9,80.7 45,82 			"/>
			<polygon class="st17" points="49.3,79.2 45,82 42.9,80.7 47.3,78.2 			"/>
			<polygon class="st18" points="49.4,80.7 45,83.5 45,82 49.3,79.2 			"/>
		</g>
		<g>
			<polygon class="st16" points="48,80.1 45.9,78.9 46,65.1 48,66.1 			"/>
			<polygon class="st17" points="49.3,65.2 48,66.1 46,65.1 47.4,64.3 			"/>
		</g>
		<polygon class="st16" points="48,68.2 30.6,59.4 30.6,56 48,64.8 		"/>
		<polygon class="st17" points="49.3,64 48,64.8 30.6,56 32.1,55.2 		"/>
		<polygon class="st18" points="49.3,64 48,64.8 48,80.1 49.3,79.2 		"/>
		<g>
			<polygon class="st16" points="76.1,65.8 74,64.4 74,63 76.1,64.3 			"/>
			<polygon class="st17" points="80.5,61.5 76.1,64.3 74,63 78.4,60.5 			"/>
			<polygon class="st18" points="80.5,63 76.1,65.8 76.1,64.3 80.5,61.5 			"/>
		</g>
		<g>
			<polygon class="st16" points="76.1,64.4 74,63.3 74.1,49.4 76.1,50.4 			"/>
			<polygon class="st17" points="77.4,49.6 76.1,50.4 74.1,49.4 75.5,48.6 			"/>
		</g>
		<polygon class="st16" points="76.1,52.6 58.6,43.7 58.7,40.3 76.1,49.1 		"/>
		<polygon class="st17" points="77.4,48.4 76.1,49.1 58.7,40.3 60.1,39.5 		"/>
		<polygon class="st18" points="77.4,48.4 76.1,49.1 76.1,64.4 77.4,63.6 		"/>
		<g>
			<polygon class="st16" points="84.7,60.9 82.6,59.5 82.6,58.1 84.7,59.4 			"/>
			<polygon class="st17" points="89.1,56.6 84.7,59.4 82.6,58.1 87,55.5 			"/>
			<polygon class="st18" points="89.1,58.1 84.7,60.9 84.7,59.4 89.1,56.6 			"/>
		</g>
		<g>
			<g>
				<polygon class="st16" points="87.7,57.5 85.6,56.3 85.7,54.8 87.8,52 				"/>
			</g>
			<polygon class="st18" points="89,51.2 87.8,52 87.7,57.5 89.1,56.6 			"/>
		</g>
		<g>
			<g>
				<path class="st20" d="M47.4,65.9c-0.3-0.9-1-1.4-1.6-1.2c0,0-0.2,0.1-0.2,0.1c0,0,0,0,0,0L24,77l1.4,2.9L47,67.6
					C47.4,67.3,47.6,66.6,47.4,65.9z"/>
			</g>
			
				<ellipse transform="matrix(0.9593 -0.2824 0.2824 0.9593 -21.1627 10.1522)" class="st16" cx="24.6" cy="78.5" rx="1.2" ry="1.6"/>
		</g>
		<g>
			<polygon class="st16" points="23,96.2 20.9,94.7 20.9,93.4 23,94.6 			"/>
			<polygon class="st17" points="27.3,91.9 23,94.7 20.9,93.4 25.2,90.8 			"/>
			<polygon class="st18" points="27.3,93.4 23,96.2 23,94.7 27.3,91.9 			"/>
		</g>
		<g>
			<polygon class="st16" points="26,92.7 23.9,91.6 23.9,77.7 26,78.7 			"/>
			<polygon class="st17" points="27.3,77.9 26,78.7 23.9,77.7 25.3,76.9 			"/>
		</g>
		<g>
			<g>
				<path class="st20" d="M32.7,58.6c-0.3-0.9-1-1.4-1.6-1.2c0,0-0.2,0.1-0.2,0.1c0,0,0,0,0,0L9.3,69.7l1.4,2.9l21.7-12.3
					C32.8,60,33,59.3,32.7,58.6z"/>
			</g>
			<ellipse transform="matrix(0.9593 -0.2824 0.2824 0.9593 -19.6906 5.7179)" class="st16" cx="10" cy="71.2" rx="1.2" ry="1.6"/>
		</g>
		<g>
			<polygon class="st16" points="26,80.9 8.6,72.1 8.6,68.7 26,77.4 			"/>
			<polygon class="st17" points="27.3,76.7 26,77.4 8.6,68.7 10.1,67.9 			"/>
			<polygon class="st18" points="27.3,76.7 26,77.4 26,92.7 27.3,91.9 			"/>
		</g>
		<g>
			<g>
				<polygon class="st16" points="121.9,38.1 119.3,36.9 119.4,24.4 121.9,25.5 				"/>
				<polygon class="st17" points="132.4,19.5 121.9,25.5 119.4,24.4 130,18.2 				"/>
				<polygon class="st18" points="132.4,32.1 121.9,38.1 121.9,25.5 132.4,19.5 				"/>
			</g>
			<g>
				<polygon class="st16" points="124.9,36 123.2,35.2 123.2,26.9 124.9,27.7 				"/>
				<polygon class="st17" points="131.8,23.7 124.9,27.7 123.2,26.9 130.3,22.8 				"/>
				<polygon class="st18" points="131.8,32.1 124.9,36 124.9,27.7 131.8,23.7 				"/>
			</g>
		</g>
	</g>
</g>
</svg>
