<?xml version="1.0" encoding="utf-8"?>
<!-- Generator: Adobe Illustrator 23.0.3, SVG Export Plug-In . SVG Version: 6.00 Build 0)  -->
<svg version="1.1" id="Capa_1" xmlns="http://www.w3.org/2000/svg" xmlns:xlink="http://www.w3.org/1999/xlink" x="0px" y="0px"
	 viewBox="0 0 142.1 107.9" style="enable-background:new 0 0 142.1 107.9;" xml:space="preserve">
<style type="text/css">
	.st0{fill:#3458A3;}
	.st1{fill:#BFC9E8;}
	.st2{fill:#9FABD8;}
	.st3{fill-rule:evenodd;clip-rule:evenodd;fill:#9FABD8;}
	.st4{enable-background:new    ;}
	.st5{fill-rule:evenodd;clip-rule:evenodd;fill:#F2F1F1;}
	.st6{fill:#CDCCCC;}
	.st7{fill-rule:evenodd;clip-rule:evenodd;fill:#E7E6E6;}
	.st8{fill:#E7E6E6;}
	.st9{fill:#F2F1F1;}
	.st10{fill:#FFFFFF;}
	.st11{fill-rule:evenodd;clip-rule:evenodd;fill:#BFC9E8;}
</style>
<g>
	<g>
		<polygon class="st0" points="105.7,61.2 81.4,48.8 81.4,38 105.7,50.1 		"/>
		<polygon class="st1" points="139.3,30.8 105.7,50.1 81.4,38 115,18.3 		"/>
		<polygon class="st2" points="139.4,41.9 105.7,61.2 105.7,50.1 139.3,30.8 		"/>
	</g>
	<g>
		<g>
			<path class="st3" d="M141.2,12.2c-2.5-8.3-9.4-13.6-15.4-11.8c-0.3,0.1-2.1,0.9-2.1,0.9s-0.1,0-0.1,0.1l-7.4,4.4l13.3,28.1
				l7.6-4.5C141.5,26.3,143.3,19.3,141.2,12.2z"/>
		</g>
		
			<ellipse transform="matrix(0.9593 -0.2824 0.2824 0.9593 -0.5735 35.5118)" class="st0" cx="122.9" cy="19.7" rx="11.5" ry="15.7"/>
	</g>
	<g>
		<g class="st4">
			<g>
				<polygon class="st0" points="101.4,15.3 101.4,17.8 99.2,16.5 99.2,14.1 				"/>
			</g>
			<g>
				<polygon class="st2" points="101.4,15.3 118.8,5.2 118.8,7.6 101.4,17.8 				"/>
			</g>
			<g>
				<polygon class="st1" points="99.2,14.1 116.7,3.9 118.8,5.2 101.4,15.3 				"/>
			</g>
		</g>
		<g class="st4">
			<g>
				<polygon class="st0" points="112.8,42.6 112.8,45 110.6,43.8 110.6,41.3 				"/>
			</g>
			<g>
				<polygon class="st2" points="112.8,42.6 130.9,32.1 130.9,34.5 112.8,45 				"/>
			</g>
			<g>
				<polygon class="st1" points="110.6,41.3 128.7,30.8 130.9,32.1 112.8,42.6 				"/>
			</g>
		</g>
		<g>
			<g>
				<path class="st3" d="M132.7,17.2c-2.4-8.1-9.1-13.3-15.1-11.6c-0.3,0.1-2,0.9-2,0.9s-0.1,0-0.1,0.1L96.3,17.9l13,27.5l19.4-11.5
					C132.9,30.9,134.7,24.1,132.7,17.2z"/>
			</g>
			
				<ellipse transform="matrix(0.9593 -0.2824 0.2824 0.9593 -4.7228 30.3183)" class="st0" cx="102.8" cy="31.5" rx="11.2" ry="15.3"/>
		</g>
		<g class="st4">
			<g>
				<polygon class="st0" points="106.4,13.8 106.4,16.2 104.3,15 104.3,12.5 				"/>
			</g>
			<g>
				<polygon class="st2" points="106.4,13.8 123.8,3.6 123.8,6.1 106.4,16.2 				"/>
			</g>
			<g>
				<polygon class="st1" points="104.3,12.5 121.7,2.4 123.8,3.6 106.4,13.8 				"/>
			</g>
		</g>
		<g class="st4">
			<g>
				<polygon class="st0" points="111.2,17.5 111.2,19.9 109,18.7 109,16.2 				"/>
			</g>
			<g>
				<polygon class="st2" points="111.2,17.5 128.6,7.3 128.6,9.8 111.2,19.9 				"/>
			</g>
			<g>
				<polygon class="st1" points="109,16.2 126.4,6.1 128.6,7.3 111.2,17.5 				"/>
			</g>
		</g>
		<g class="st4">
			<g>
				<polygon class="st0" points="116.5,40.1 116.5,42.5 114.4,41.3 114.4,38.8 				"/>
			</g>
			<g>
				<polygon class="st2" points="116.5,40.1 134.4,29.7 134.4,32.1 116.5,42.5 				"/>
			</g>
			<g>
				<polygon class="st1" points="114.4,38.8 132.3,28.4 134.4,29.7 116.5,40.1 				"/>
			</g>
		</g>
		<g class="st4">
			<g>
				<polygon class="st0" points="117.7,34.6 117.7,37.1 115.6,35.9 115.6,33.4 				"/>
			</g>
			<g>
				<polygon class="st2" points="117.7,34.6 135.8,24.1 135.8,26.6 117.7,37.1 				"/>
			</g>
			<g>
				<polygon class="st1" points="115.6,33.4 133.7,22.9 135.8,24.1 117.7,34.6 				"/>
			</g>
		</g>
		<g class="st4">
			<g>
				<polygon class="st0" points="117.1,29 117,31.4 114.9,30.2 114.9,27.7 				"/>
			</g>
			<g>
				<polygon class="st2" points="117.1,29 134.9,18.6 134.9,21.1 117,31.4 				"/>
			</g>
			<g>
				<polygon class="st1" points="114.9,27.7 132.7,17.4 134.9,18.6 117.1,29 				"/>
			</g>
		</g>
		<g class="st4">
			<g>
				<polygon class="st0" points="115,22.8 115,25.2 112.9,24 112.9,21.5 				"/>
			</g>
			<g>
				<polygon class="st2" points="115,22.8 132.2,12.8 132.2,15.3 115,25.2 				"/>
			</g>
			<g>
				<polygon class="st1" points="112.9,21.5 130.1,11.5 132.2,12.8 115,22.8 				"/>
			</g>
		</g>
	</g>
	<g>
		<polygon class="st0" points="60.8,56.5 58.7,55.4 58.7,43.6 60.8,44.6 		"/>
		<polygon class="st1" points="62,43.8 60.8,44.6 58.7,43.6 60.1,42.8 		"/>
		<polygon class="st2" points="62.1,55.7 60.8,56.5 60.8,44.6 62,43.8 		"/>
	</g>
	<g>
		<polygon class="st0" points="32.7,72.2 30.6,71.1 30.7,59.3 32.7,60.3 		"/>
		<polygon class="st1" points="34,59.5 32.7,60.3 30.7,59.3 32.1,58.5 		"/>
		<polygon class="st2" points="34,71.3 32.7,72.2 32.7,60.3 34,59.5 		"/>
	</g>
	<g>
		<polygon class="st0" points="6.4,88.7 4,87 4,85.4 6.4,86.9 		"/>
		<polygon class="st1" points="11.5,83.7 6.4,86.9 4,85.4 9.1,82.5 		"/>
		<polygon class="st2" points="11.5,85.4 6.4,88.7 6.4,86.9 11.5,83.7 		"/>
	</g>
	<g>
		<polygon class="st0" points="10.7,84.9 8.6,83.7 8.6,72 10.7,73 		"/>
		<polygon class="st1" points="12,72.2 10.7,73 8.6,72 10,71.2 		"/>
		<polygon class="st2" points="12,84 10.7,84.9 10.7,73 12,72.2 		"/>
	</g>
	<g>
		<polygon class="st0" points="19.8,107.9 0,98 0.1,95.9 19.8,105.6 		"/>
		<polygon class="st1" points="103.2,57.7 19.8,105.6 0.1,96 83.2,47.6 		"/>
		<polygon class="st2" points="103.2,59.9 19.8,107.9 19.8,105.6 103.2,57.7 		"/>
	</g>
	<g>
		<polygon class="st0" points="19.8,104.5 1.5,95.4 1.5,93.3 19.8,102.3 		"/>
		<polygon class="st1" points="102.1,55 19.8,102.3 1.6,93.4 83.7,45.6 		"/>
		<polygon class="st2" points="102.1,57.1 19.8,104.5 19.8,102.3 102.1,55 		"/>
	</g>
	<g>
		<g>
			<g>
				<g>
					<path class="st3" d="M111.7,28.8c-2.1-7.2-8.1-11.7-13.3-10.2c-0.3,0.1-1.2,0.5-1.9,0.8l-3.5,2l11.4,24.2l3.7-2.2
						C111.9,40.9,113.5,34.9,111.7,28.8z"/>
				</g>
				
					<ellipse transform="matrix(0.9593 -0.2824 0.2824 0.9593 -5.449 29.2655)" class="st0" cx="98.8" cy="33.5" rx="9.9" ry="13.5"/>
			</g>
		</g>
		<g>
			<g>
				<g>
					<path class="st5" d="M100.3,33.6c-0.6-2.1-2.4-3.5-3.9-3c-0.1,0-0.4,0.2-0.6,0.3l-3.1,2l3.4,7.2l3.2-2
						C100.4,37.2,100.9,35.4,100.3,33.6z"/>
				</g>
				<ellipse transform="matrix(0.9593 -0.2824 0.2824 0.9593 -6.4209 28.1423)" class="st6" cx="94.4" cy="36.3" rx="2.9" ry="4"/>
			</g>
		</g>
		<g>
			<g>
				<path class="st7" d="M97.7,35.5c-1-3.4-3.9-5.6-6.4-4.9c-0.1,0-0.9,0.4-0.9,0.4l0,0l-4.3,2.5l5.5,11.7l4.4-2.6
					C97.8,41.3,98.5,38.4,97.7,35.5z"/>
			</g>
			<ellipse transform="matrix(0.9593 -0.2824 0.2824 0.9593 -7.464 26.7014)" class="st6" cx="88.9" cy="39.2" rx="4.8" ry="6.5"/>
		</g>
		<g>
			<g>
				<g>
					<path class="st5" d="M91,39c-0.6-2.1-2.4-3.5-3.9-3c-0.1,0-0.4,0.2-0.6,0.3l-3.1,2l3.4,7.2l3.2-2C91.1,42.6,91.5,40.8,91,39z"
						/>
				</g>
				<ellipse transform="matrix(0.9593 -0.2824 0.2824 0.9593 -8.3212 25.7348)" class="st6" cx="85.1" cy="41.7" rx="2.9" ry="4"/>
			</g>
		</g>
		<g>
			<g>
				<path class="st3" d="M89.9,43.3c-1.7-5.7-6.4-9.3-10.5-8.1c-0.2,0.1-1.4,0.6-1.4,0.6s0,0-0.1,0L7.5,76l9,19.2L87,54.9
					C90,52.9,91.3,48.1,89.9,43.3z"/>
			</g>
			<ellipse transform="matrix(0.9593 -0.2824 0.2824 0.9593 -23.7012 6.8791)" class="st0" cx="12" cy="85.7" rx="7.8" ry="10.7"/>
		</g>
	</g>
	<g>
		<g>
			<path class="st1" d="M47.2,54.2c-2.5,0-4.6-0.5-4.6-1.1v5.6c0,0.6,2.1,1.1,4.6,1.1s4.6-0.5,4.6-1.1v-5.6
				C51.8,53.7,49.7,54.2,47.2,54.2z"/>
			<path class="st1" d="M51.8,53c-0.1-0.6-2.1-1.1-4.6-1.1s-4.5,0.5-4.6,1.1l0,0c0,0.6,2.1,1.1,4.6,1.1C49.7,54.2,51.8,53.7,51.8,53
				C51.8,53.1,51.8,53.1,51.8,53z"/>
		</g>
		<path class="st2" d="M52.9,52.1c0.4,0.2,0.6,0.3,0.7,0.5l0,0v-1.1C53.6,51.8,53.3,52,52.9,52.1z"/>
		<path class="st2" d="M41.5,52.1c-0.4-0.2-0.7-0.3-0.7-0.5v1.1l0,0C40.9,52.4,41.1,52.3,41.5,52.1z"/>
		<path class="st2" d="M52.9,52.1c-1,0.4-3.2,0.7-5.7,0.7s-4.6-0.3-5.7-0.7c-0.4,0.2-0.6,0.3-0.7,0.5l0,0c0,0.7,2.8,1.2,6.4,1.2
			c3.5,0,6.4-0.5,6.4-1.2l0,0C53.5,52.4,53.3,52.3,52.9,52.1z"/>
		<path class="st2" d="M37.3,51.8c1.8-0.7,5.5-1.2,9.9-1.2c4.3,0,8,0.5,9.9,1.2c0.8-0.3,1.2-0.6,1.2-0.9v-0.1c-0.2-1.1-5.1-2-11-2
			c-6,0-10.8,0.9-11,2v0.1C36.2,51.2,36.6,51.5,37.3,51.8z"/>
		<path class="st2" d="M37.3,51.8c1.8,0.7,5.5,1.2,9.9,1.2c4.3,0,8-0.5,9.9-1.2c-1.8-0.7-5.5-1.2-9.9-1.2
			C42.9,50.7,39.2,51.1,37.3,51.8z"/>
		<g>
			<path class="st8" d="M47.2,54.4c-6.9,0-12.5-1.4-12.5-3.1v2.6c0,1.7,5.6,3.1,12.5,3.1s12.5-1.4,12.5-3.1v-2.6
				C59.7,53,54.1,54.4,47.2,54.4z"/>
			<path class="st9" d="M59.7,51.2c-0.3-1.6-5.8-3-12.5-3s-12.2,1.3-12.5,3v0.1c0,1.7,5.6,3.1,12.5,3.1s12.5-1.4,12.5-3.1
				C59.7,51.2,59.7,51.2,59.7,51.2z"/>
		</g>
		<g>
			<path class="st8" d="M47.2,51.2c-1.4,0-2.5-0.3-2.5-0.6v0.5c0,0.3,1.1,0.6,2.5,0.6s2.5-0.3,2.5-0.6v-0.5
				C49.7,50.9,48.6,51.2,47.2,51.2z"/>
			<path class="st10" d="M49.7,50.6c-0.1-0.3-1.1-0.6-2.5-0.6c-1.3,0-2.4,0.3-2.5,0.6l0,0c0,0.3,1.1,0.6,2.5,0.6
				S49.7,50.9,49.7,50.6L49.7,50.6z"/>
		</g>
	</g>
	<g>
		<polygon class="st0" points="45,83.5 42.9,82.1 43,80.8 45,82 		"/>
		<polygon class="st1" points="49.4,79.3 45,82.1 43,80.8 47.3,78.2 		"/>
		<polygon class="st2" points="49.4,80.8 45,83.5 45,82.1 49.4,79.3 		"/>
	</g>
	<g>
		<polygon class="st0" points="48.1,80.1 46,79 46,65.1 48.1,66.1 		"/>
		<polygon class="st1" points="49.3,65.3 48.1,66.1 46,65.1 47.4,64.3 		"/>
	</g>
	<polygon class="st0" points="48.1,68.3 30.6,59.5 30.7,56.1 48.1,64.8 	"/>
	<polygon class="st1" points="49.3,64.1 48.1,64.8 30.7,56.1 32.1,55.3 	"/>
	<polygon class="st2" points="49.3,64.1 48.1,64.8 48.1,80.1 49.4,79.3 	"/>
	<g>
		<polygon class="st0" points="76.1,65.9 74,64.4 74.1,63.1 76.1,64.4 		"/>
		<polygon class="st1" points="80.5,61.6 76.1,64.4 74.1,63.1 78.4,60.5 		"/>
		<polygon class="st2" points="80.5,63.1 76.1,65.9 76.1,64.4 80.5,61.6 		"/>
	</g>
	<g>
		<polygon class="st0" points="76.1,64.5 74,63.4 74.1,49.4 76.2,50.4 		"/>
		<polygon class="st1" points="77.4,49.6 76.2,50.4 74.1,49.4 75.5,48.6 		"/>
	</g>
	<polygon class="st0" points="76.2,52.6 58.7,43.7 58.7,40.4 76.2,49.1 	"/>
	<polygon class="st1" points="77.4,48.4 76.2,49.1 58.7,40.4 60.2,39.6 	"/>
	<polygon class="st2" points="77.4,48.4 76.2,49.1 76.1,64.5 77.5,63.6 	"/>
	<g>
		<polygon class="st0" points="84.7,61 82.6,59.5 82.7,58.1 84.7,59.4 		"/>
		<polygon class="st1" points="89.1,56.7 84.7,59.4 82.7,58.1 87,55.6 		"/>
		<polygon class="st2" points="89.1,58.2 84.7,61 84.7,59.4 89.1,56.7 		"/>
	</g>
	<g>
		<g>
			<polygon class="st0" points="87.8,57.5 85.7,56.4 85.7,54.9 87.8,52 			"/>
		</g>
		<polygon class="st2" points="89.1,51.2 87.8,52 87.8,57.5 89.1,56.7 		"/>
	</g>
	<g>
		<g>
			<path class="st11" d="M47.4,65.9c-0.3-0.9-1-1.4-1.6-1.2l-0.2,0.1l0,0L24,77.1l1.4,2.9l21.7-12.3C47.4,67.4,47.6,66.7,47.4,65.9z
				"/>
		</g>
		<ellipse transform="matrix(0.9593 -0.2824 0.2824 0.9593 -21.1724 10.1761)" class="st0" cx="24.7" cy="78.5" rx="1.2" ry="1.6"/>
	</g>
	<g>
		<polygon class="st0" points="23,96.2 20.9,94.8 20.9,93.4 23,94.7 		"/>
		<polygon class="st1" points="27.3,91.9 23,94.7 20.9,93.4 25.3,90.9 		"/>
		<polygon class="st2" points="27.4,93.4 23,96.2 23,94.7 27.3,91.9 		"/>
	</g>
	<g>
		<polygon class="st0" points="26,92.8 23.9,91.7 24,77.8 26,78.8 		"/>
		<polygon class="st1" points="27.3,78 26,78.8 24,77.8 25.4,77 		"/>
	</g>
	<g>
		<g>
			<path class="st11" d="M32.8,58.6c-0.3-0.9-1-1.4-1.6-1.2L31,57.5l0,0L9.4,69.8l1.4,2.9l21.7-12.3C32.8,60.1,33,59.4,32.8,58.6z"
				/>
		</g>
		<ellipse transform="matrix(0.9593 -0.2824 0.2824 0.9593 -19.6868 5.7189)" class="st0" cx="10" cy="71.2" rx="1.2" ry="1.6"/>
	</g>
	<g>
		<polygon class="st0" points="26,81 8.6,72.1 8.6,68.8 26,77.5 		"/>
		<polygon class="st1" points="27.3,76.8 26,77.5 8.6,68.8 10.1,68 		"/>
		<polygon class="st2" points="27.3,76.8 26,77.5 26,92.8 27.3,91.9 		"/>
	</g>
	<g>
		<g>
			<polygon class="st0" points="121.9,38.2 119.3,37 119.4,24.4 121.9,25.6 			"/>
			<polygon class="st1" points="132.4,19.5 121.9,25.6 119.4,24.4 130,18.2 			"/>
			<polygon class="st2" points="132.4,32.2 121.9,38.2 121.9,25.6 132.4,19.5 			"/>
		</g>
		<g>
			<polygon class="st0" points="124.9,36.1 123.2,35.3 123.2,27 124.9,27.7 			"/>
			<polygon class="st1" points="131.9,23.8 124.9,27.7 123.2,27 130.3,22.9 			"/>
			<polygon class="st2" points="131.9,32.1 124.9,36.1 124.9,27.7 131.9,23.8 			"/>
		</g>
	</g>
</g>
</svg>
