<?xml version="1.0" encoding="utf-8"?>
<!-- Generator: Adobe Illustrator 23.0.3, SVG Export Plug-In . SVG Version: 6.00 Build 0)  -->
<svg version="1.1" xmlns="http://www.w3.org/2000/svg" xmlns:xlink="http://www.w3.org/1999/xlink" x="0px" y="0px"
	 viewBox="0 0 86 105.7" style="enable-background:new 0 0 86 105.7;" xml:space="preserve">
<style type="text/css">
	.st0{fill:#FFFFFF;}
	.st1{fill:none;stroke:#808080;stroke-width:0.1065;stroke-miterlimit:10;}
	.st2{enable-background:new    ;}
	.st3{fill:#E7E6E6;}
	.st4{fill:#CDCCCC;}
	.st5{fill:#751518;}
	.st6{fill:#BD1622;}
	.st7{fill:#CC5261;}
	.st8{fill:#5C637D;}
	.st9{fill:#50566C;}
	.st10{fill:none;stroke:#CDCCCC;stroke-width:0.1107;stroke-miterlimit:10;}
	.st11{fill:#D9D9D9;}
	.st12{fill:#F2F1F1;}
	.st13{fill:#006E32;}
	.st14{fill:#31AA59;}
	.st15{fill:#6ABA82;}
	.st16{fill:#868686;}
	.st17{fill:#3458A3;}
	.st18{fill:#9FABD8;}
	.st19{fill:#BFC9E8;}
</style>
<g id="Capa_2">
</g>
<g id="Capa_1">
	<g>
		<g class="st2">
			<g>
				<path class="st3" d="M16.7,81.6c-0.5,0.2-10.5,4.1-10.4,8c0,3,9,13.4,12.9,15.7c1.3,0.7,2,0.6,1.7-1c-1.4-7.4-2.5-20.6-2.5-21.3
					L16.7,81.6z"/>
			</g>
			<g>
				<path class="st4" d="M16.5,81.7c-0.1,0-0.2,0.1-0.3,0.1c0,0-0.1,0-0.1,0c-0.1,0.1-0.3,0.1-0.5,0.2c0,0,0,0-0.1,0
					c-0.2,0.1-0.3,0.2-0.5,0.2c-0.1,0-0.1,0-0.2,0.1c-0.2,0.1-0.5,0.2-0.7,0.3c0,0-0.1,0-0.1,0c-0.2,0.1-0.5,0.2-0.7,0.3
					c-0.1,0-0.1,0.1-0.2,0.1c-0.3,0.1-0.5,0.3-0.8,0.4c0,0-0.1,0-0.1,0.1c-0.3,0.2-0.6,0.3-0.9,0.5l1.4-0.8c0.1-0.1,0.3-0.1,0.4-0.2
					c0.2-0.1,0.3-0.2,0.5-0.3c0,0,0.1,0,0.1-0.1c0.3-0.1,0.6-0.3,0.8-0.4c0.1,0,0.1-0.1,0.2-0.1c0.2-0.1,0.5-0.2,0.7-0.3
					c0,0,0.1,0,0.1,0c0.2-0.1,0.5-0.2,0.7-0.3c0.1,0,0.1-0.1,0.2-0.1c0.2-0.1,0.4-0.2,0.5-0.2c0,0,0,0,0.1,0
					c0.1-0.1,0.3-0.1,0.4-0.2c0,0,0.1,0,0.1,0c0,0,0.1,0,0.1,0c0.1-0.1,0.2-0.1,0.3-0.1c0,0,0,0,0.1,0c0.1,0,0.1-0.1,0.2-0.1
					l-1.4,0.8C16.7,81.6,16.6,81.7,16.5,81.7C16.5,81.7,16.5,81.7,16.5,81.7z"/>
				<path class="st4" d="M19.7,96.3c0-0.4-0.1-0.7-0.1-1.1c0-0.1,0-0.2,0-0.2c0-0.3-0.1-0.6-0.1-1c0-0.1,0-0.1,0-0.2
					c0-0.4-0.1-0.7-0.1-1.1c0-0.1,0-0.2,0-0.3c0-0.3-0.1-0.6-0.1-0.9c0-0.1,0-0.1,0-0.2c0-0.4-0.1-0.7-0.1-1.1c0-0.1,0-0.1,0-0.2
					c0-0.3-0.1-0.6-0.1-0.8c0-0.1,0-0.2,0-0.3c0-0.3-0.1-0.6-0.1-0.9c0-0.1,0-0.2,0-0.2c0-0.2,0-0.5-0.1-0.7c0-0.1,0-0.1,0-0.2
					c0-0.3,0-0.5-0.1-0.8c0-0.1,0-0.1,0-0.2c0-0.2,0-0.4,0-0.5c0-0.1,0-0.1,0-0.2c0-0.2,0-0.4,0-0.6c0,0,0-0.1,0-0.1
					c0-0.1,0-0.3,0-0.4c0-0.1,0-0.2,0-0.2c0,0,0-0.1,0-0.1c0-0.1,0-0.2,0-0.3c0-0.1,0-0.2,0-0.2c0,0,0,0,0,0c0-0.1,0-0.1,0-0.1
					l1.4-0.8c0,0,0,0.1,0,0.1c0,0,0,0,0,0c0,0.2,0,0.4,0.1,0.7c0,0,0,0.1,0,0.1c0,0.1,0,0.3,0,0.4c0,0,0,0.1,0,0.1
					c0,0.2,0,0.4,0,0.6c0,0.1,0,0.1,0,0.2c0,0.2,0,0.4,0.1,0.6c0,0,0,0.1,0,0.1c0,0.3,0,0.5,0.1,0.8c0,0.1,0,0.2,0,0.2
					c0,0.2,0,0.5,0.1,0.7c0,0.1,0,0.1,0,0.2c0,0.3,0.1,0.6,0.1,0.9c0,0.1,0,0.1,0,0.2c0,0.3,0.1,0.5,0.1,0.8c0,0.1,0,0.2,0,0.3
					c0,0.3,0.1,0.7,0.1,1c0,0.1,0,0.2,0,0.3c0,0.3,0.1,0.6,0.1,0.9c0,0.1,0,0.1,0,0.2c0,0.4,0.1,0.7,0.1,1.1c0,0.1,0,0.1,0,0.2
					c0,0.3,0.1,0.6,0.1,1c0,0.1,0,0.2,0,0.3c0,0.4,0.1,0.7,0.1,1.1c0,0.1,0,0.1,0,0.2c0,0.3,0.1,0.7,0.1,1c0,0.1,0,0.1,0,0.2
					c0.1,0.5,0.1,1.1,0.2,1.6c0,0.1,0,0.1,0,0.2c0.1,0.5,0.2,1.1,0.2,1.6c0,0,0,0.1,0,0.1c0.1,0.5,0.2,1,0.2,1.5c0,0,0,0.1,0,0.1
					c0.1,0.5,0.2,1,0.3,1.5c0,0.1,0,0.2,0,0.3c0,0,0,0.1,0,0.1c0,0.1,0,0.1,0,0.2c0,0.1,0,0.2,0,0.2c0,0,0,0.1,0,0.1
					c0,0.1,0,0.1-0.1,0.2c0,0,0,0.1,0,0.1c0,0.1-0.1,0.1-0.2,0.2l-1.4,0.8c0.1,0,0.1-0.1,0.2-0.2c0,0,0-0.1,0-0.1
					c0-0.1,0-0.1,0.1-0.2c0,0,0-0.1,0-0.1c0-0.1,0-0.1,0-0.2c0-0.1,0-0.1,0-0.2c0-0.1,0-0.3-0.1-0.4c-0.1-0.5-0.2-1-0.3-1.5
					c0,0,0,0,0-0.1c-0.1-0.5-0.2-1-0.3-1.6c0,0,0-0.1,0-0.1c-0.1-0.5-0.2-1-0.2-1.6c0-0.1,0-0.1,0-0.2c-0.1-0.5-0.1-1.1-0.2-1.6
					c0,0,0-0.1,0-0.1c0-0.1,0-0.1,0-0.2c0-0.3-0.1-0.6-0.1-0.9C19.7,96.5,19.7,96.4,19.7,96.3z"/>
			</g>
			<g>
				<polygon class="st4" points="18.4,83 19.8,82.2 18.1,80.8 16.7,81.6 				"/>
			</g>
		</g>
		<g>
			<g class="st2">
				<g>
					<path class="st3" d="M10.7,57.1c-3.2-1.9-11.6,2.5-10.6,7.7c1.3,6.5,15.5,15.9,16.3,16.4l1.1-0.8c-0.3-0.8-5.9-16.7-5.6-20.5
						C12,58.4,11.5,57.6,10.7,57.1z"/>
				</g>
				<path class="st4" d="M11.9,58.9c0-0.3-0.1-0.5-0.2-0.7c0,0,0,0,0,0c-0.1-0.2-0.2-0.4-0.4-0.6c0,0,0,0,0,0
					c-0.2-0.2-0.3-0.3-0.5-0.4c-0.2-0.1-0.4-0.2-0.6-0.2c0,0-0.1,0-0.1,0c-0.2-0.1-0.4-0.1-0.6-0.1c-0.1,0-0.1,0-0.2,0
					c-0.2,0-0.4,0-0.5,0c-0.1,0-0.1,0-0.2,0c-0.2,0-0.3,0-0.5,0.1c-0.1,0-0.2,0-0.3,0c-0.1,0-0.2,0-0.3,0.1c-0.2,0-0.4,0.1-0.6,0.1
					c-0.1,0-0.2,0.1-0.3,0.1c-0.2,0.1-0.5,0.2-0.7,0.3c-0.1,0-0.2,0.1-0.3,0.1c-0.3,0.1-0.6,0.3-0.9,0.4C4.4,58,4.3,58,4.2,58.1
					l1.4-0.8c0,0,0.1-0.1,0.1-0.1c0.1,0,0.1-0.1,0.2-0.1c0.3-0.2,0.6-0.3,0.9-0.4c0.1,0,0.1-0.1,0.2-0.1c0.1,0,0.1,0,0.2-0.1
					c0.2-0.1,0.5-0.2,0.7-0.3c0.1,0,0.1-0.1,0.2-0.1c0,0,0.1,0,0.1,0c0.2-0.1,0.4-0.1,0.6-0.1C8.8,56,8.9,56,9,56c0,0,0,0,0.1,0
					c0.1,0,0.2,0,0.3,0c0.1,0,0.3,0,0.4-0.1c0,0,0.1,0,0.1,0c0.1,0,0.1,0,0.2,0c0.1,0,0.2,0,0.3,0c0.1,0,0.1,0,0.2,0
					c0.1,0,0.1,0,0.2,0c0,0,0.1,0,0.1,0c0.1,0,0.3,0.1,0.4,0.1c0,0,0,0,0.1,0c0,0,0.1,0,0.1,0c0.1,0,0.2,0.1,0.3,0.1
					c0.1,0,0.2,0.1,0.3,0.1c0.2,0.1,0.3,0.2,0.5,0.4c0,0,0,0,0.1,0.1c0,0,0,0,0,0c0,0,0,0,0,0.1c0,0,0.1,0.1,0.1,0.1
					c0,0,0,0.1,0.1,0.1c0,0,0,0.1,0.1,0.1c0,0,0,0.1,0,0.1c0,0,0,0.1,0,0.1c0,0,0,0.1,0,0.1c0,0,0,0,0,0c0,0,0,0,0,0
					c0,0,0,0.1,0,0.1c0,0,0,0.1,0,0.1c0,0,0,0.1,0,0.1c0,0,0,0.1,0,0.1c0,0.1,0,0.1,0,0.2c0,0,0,0.1,0,0.1c0,0,0,0,0,0
					c0,0,0,0.1,0,0.1c0,0.2,0,0.5,0,0.8c0,0.2,0,0.3,0,0.5c0,0,0,0.1,0,0.2c0,0.2,0,0.4,0.1,0.6c0,0,0,0,0,0c0,0.3,0.1,0.5,0.1,0.8
					c0,0.1,0,0.1,0,0.2c0.1,0.3,0.1,0.6,0.2,0.9c0,0.1,0,0.1,0,0.2c0,0.2,0.1,0.4,0.1,0.7c0,0.1,0,0.2,0.1,0.3
					c0.1,0.2,0.1,0.4,0.2,0.7c0,0.1,0,0.2,0.1,0.2c0.1,0.3,0.2,0.6,0.2,0.9c0,0.1,0,0.1,0,0.2c0.1,0.3,0.1,0.5,0.2,0.8
					c0,0.1,0.1,0.2,0.1,0.3c0.1,0.3,0.2,0.7,0.3,1c0,0.1,0,0.1,0,0.2c0.1,0.4,0.2,0.8,0.3,1.1c0,0.1,0.1,0.2,0.1,0.3
					c0.1,0.3,0.2,0.7,0.3,1c0,0,0,0.1,0,0.1c0.1,0.4,0.2,0.7,0.3,1.1c0,0.1,0.1,0.2,0.1,0.3c0.1,0.3,0.2,0.6,0.3,0.9
					c0,0.1,0,0.1,0.1,0.2c0.1,0.3,0.2,0.7,0.3,1c0,0.1,0.1,0.2,0.1,0.3c0.1,0.3,0.2,0.5,0.3,0.8c0,0.1,0,0.1,0.1,0.2
					c0.1,0.3,0.2,0.6,0.3,0.9c0,0.1,0.1,0.2,0.1,0.3c0,0.1,0.1,0.2,0.1,0.3c0,0.1,0.1,0.2,0.1,0.3c0,0.1,0.1,0.2,0.1,0.3
					c0,0.1,0.1,0.2,0.1,0.2c0,0.1,0.1,0.2,0.1,0.3c0,0.1,0,0.1,0.1,0.2c0,0.1,0.1,0.2,0.1,0.3c0,0,0,0.1,0,0.1
					c0,0.1,0.1,0.2,0.1,0.3c0,0,0,0.1,0,0.1c0.1,0.2,0.1,0.4,0.2,0.5c0,0.1,0.1,0.1,0.1,0.2l-1.1,0.8l-1.4,0.8l1.1-0.8
					c0,0,0-0.1-0.1-0.2c0-0.1-0.1-0.3-0.2-0.5c0,0,0-0.1,0-0.1c0-0.1-0.1-0.2-0.1-0.3c0,0,0-0.1,0-0.1c0-0.1-0.1-0.2-0.1-0.3
					c0-0.1,0-0.1-0.1-0.2c0-0.1-0.1-0.2-0.1-0.3c0-0.1-0.1-0.2-0.1-0.3c0-0.1-0.1-0.2-0.1-0.3c0-0.1-0.1-0.2-0.1-0.3
					c0-0.1-0.1-0.2-0.1-0.4c0-0.1,0-0.1-0.1-0.2c0,0,0-0.1,0-0.1c-0.1-0.3-0.2-0.6-0.3-0.9c0,0,0-0.1,0-0.1
					c-0.1-0.3-0.2-0.6-0.3-0.9c0-0.1-0.1-0.2-0.1-0.2c-0.1-0.3-0.2-0.7-0.3-1.1c0,0,0-0.1,0-0.1c-0.1-0.3-0.2-0.6-0.3-1
					c0-0.1-0.1-0.2-0.1-0.3c-0.1-0.4-0.2-0.7-0.3-1.1c0-0.1,0-0.1-0.1-0.2c-0.1-0.3-0.2-0.7-0.3-1c0-0.1-0.1-0.2-0.1-0.3
					c-0.1-0.4-0.2-0.8-0.3-1.2c0,0,0-0.1,0-0.1c-0.1-0.3-0.2-0.7-0.3-1c0-0.1,0-0.1,0-0.2c0,0,0-0.1,0-0.1c-0.1-0.3-0.2-0.5-0.2-0.8
					c0-0.1,0-0.1,0-0.2c-0.1-0.3-0.2-0.6-0.2-0.9c0-0.1,0-0.2-0.1-0.3c-0.1-0.2-0.1-0.4-0.2-0.7c0-0.1,0-0.2-0.1-0.3
					c-0.1-0.2-0.1-0.4-0.1-0.7c0-0.1,0-0.1,0-0.2c0,0,0,0,0,0c-0.1-0.3-0.1-0.6-0.2-0.9c0-0.1,0-0.1,0-0.2c-0.1-0.3-0.1-0.6-0.1-0.8
					c0,0,0,0,0,0c0,0,0,0,0,0c0-0.2,0-0.4-0.1-0.6c0-0.1,0-0.1,0-0.2c0-0.2,0-0.4,0-0.5C11.9,59.5,11.9,59.2,11.9,58.9
					C11.9,58.9,11.9,58.9,11.9,58.9z"/>
			</g>
		</g>
		<g>
			<path class="st5" d="M66.8,68.9V52l0.1-1.1l12.9-7.5l1.3,0.2c0,0-0.1,16.9,0,16.9L66.8,68.9"/>
			<polygon class="st6" points="54.9,61.7 54.9,45 66.8,52 66.8,68.9 			"/>
			<polygon class="st7" points="66.7,52 55,45 69.5,36.7 81.1,43.7 			"/>
		</g>
		<g>
			<g>
				<polygon class="st6" points="67.4,67.2 67.4,51.5 70.1,53.1 70.1,69 				"/>
				<polygon class="st7" points="70.1,53.1 67.4,51.5 81,43.7 83.5,45.3 				"/>
				<path class="st5" d="M70.1,69V53.1l13.4-7.8c0,0-0.1,15.8,0,15.8L70.1,69"/>
			</g>
			<g>
				<polygon class="st6" points="69.9,68.8 69.9,56.7 72.6,61.9 72.6,70.6 				"/>
				<polygon class="st7" points="72.6,61.9 70.1,57.1 83.5,49.4 86,54.1 				"/>
				<path class="st5" d="M72.6,70.6v-8.7L86,54.1c0,0-0.1,8.7,0,8.7"/>
			</g>
		</g>
		<g>
			<path class="st5" d="M62.5,41.8c0,0,0,0.8-0.1,2.1c0,1-0.1,1.8,0.5,2.7c1.3,1.9,4,2.5,6.1,2.6c2.2,0.1,4.6-0.3,6.5-1.6
				c0.8-0.5,1.5-1.3,1.6-2.3c0.2-0.6,0.1-3.4,0.1-3.4L62.5,41.8z"/>
			<g>
				
					<ellipse transform="matrix(2.835001e-03 -1 1 2.835001e-03 27.8471 111.6191)" class="st5" cx="69.9" cy="41.8" rx="4.3" ry="7.4"/>
			</g>
		</g>
		<g>
			<g>
				<g>
					<polygon class="st7" points="61,28.1 58,29.8 58,22.1 61,20.5 					"/>
					<polygon class="st6" points="58.1,29.8 54,27.5 54,19.7 58,22.1 					"/>
				</g>
				<polygon class="st5" points="58.1,22.1 61.1,20.4 56.9,18 54,19.7 				"/>
			</g>
			<g>
				<g>
					<path class="st6" d="M59.7,32.3c0,0,0,1.1-0.1,2.8c0,1.3-0.1,2.5,0.7,3.7c1.8,2.6,5.5,3.5,8.5,3.6c3,0.1,6.4-0.4,8.9-2.2
						c1.1-0.7,2-1.9,2.2-3.2c0.2-0.8,0.1-4.7,0.1-4.7L59.7,32.3z"/>
					<g>
						
							<ellipse transform="matrix(2.835001e-03 -1 1 2.835001e-03 37.4269 102.2528)" class="st6" cx="70" cy="32.4" rx="5.9" ry="10.3"/>
					</g>
				</g>
				<path class="st6" d="M82.7,11.8c-1.1,3.2-6.1,4.4-9.6,5c-4.2,0.7-7.7,1.2-11-1.6c-3.9-3.3-5-1.4-5-3.9c0,3.6,0,14.3-0.1,16.5
					c0,1.7-0.1,3.2,0.9,4.6c2.2,3.2,6.9,4.4,10.6,4.5c3.8,0.2,8-0.5,11.1-2.7c1.4-0.9,2.5-2.3,2.8-4c0.1-0.5,0.1-0.9,0.1-1.4
					c0-1.9,0.1-13.2,0.1-17.5c0-0.1,0-0.2,0-0.3C82.7,11.6,82.8,11.8,82.7,11.8z"/>
				<g>
					
						<ellipse transform="matrix(2.835001e-03 -1 1 2.835001e-03 62.3626 77.393)" class="st6" cx="70" cy="7.4" rx="7.4" ry="12.8"/>
				</g>
				<g>
					<ellipse transform="matrix(2.835001e-03 -1 1 2.835001e-03 64.992 74.7711)" class="st7" cx="70" cy="4.8" rx="4.8" ry="8.3"/>
				</g>
				<g>
					<g class="st2">
						<g>
							<polygon class="st3" points="77,16.3 78.5,17.2 79.2,16.8 77.7,15.9 							"/>
						</g>
						<g>
							<polygon class="st3" points="77,16.3 77.1,35.9 78.6,36.8 78.5,17.2 							"/>
						</g>
						<g>
							<polygon class="st4" points="78.5,17.2 78.6,36.8 79.2,36.4 79.2,16.8 							"/>
						</g>
					</g>
					<g class="st2">
						<g>
							<polygon class="st3" points="60.3,16.8 61,17.2 62.4,16.3 61.8,15.9 							"/>
						</g>
						<g>
							<polygon class="st3" points="60.3,16.8 60.3,36.4 61,36.8 61,17.2 							"/>
						</g>
						<g>
							<polygon class="st4" points="61,17.2 61,36.8 62.5,35.9 62.4,16.3 							"/>
						</g>
					</g>
					<g class="st2">
						<g>
							<rect x="69.2" y="18" class="st3" width="1" height="1.2"/>
						</g>
						<g>
							<polygon class="st3" points="69.2,19.2 69.3,38.8 70.3,38.8 70.2,19.2 							"/>
						</g>
						<g>
							<polygon class="st4" points="70.2,19.2 70.3,38.8 70.3,37.6 70.2,18 							"/>
						</g>
					</g>
					<g class="st2">
						<g>
							<polygon class="st8" points="80.5,11.4 80.6,31 80.6,31.6 80.6,12 							"/>
						</g>
						<g>
							<polygon class="st3" points="80.5,11.4 80.6,12 82.6,12 82.6,11.4 							"/>
						</g>
						<g>
							<polygon class="st4" points="80.6,12 80.6,31.6 82.7,31.6 82.6,12 							"/>
						</g>
						<g>
							<polygon class="st3" points="82.6,12 82.7,31.6 82.7,31 82.6,11.4 							"/>
						</g>
					</g>
					<g class="st2">
						<g>
							<polygon class="st8" points="56.9,11.4 56.9,31 56.9,31.6 56.9,12 							"/>
						</g>
						<g>
							<polygon class="st3" points="56.9,11.4 56.9,12 59,12 59,11.4 							"/>
						</g>
						<g>
							<polygon class="st4" points="56.9,12 56.9,31.6 59,31.6 59,12 							"/>
						</g>
						<g>
							<polygon class="st9" points="59,12 59,31.6 59,31 59,11.4 							"/>
						</g>
					</g>
					<g class="st2">
						<g>
							<polygon class="st3" points="73.1,17.7 73.8,18.8 74.7,18.6 74,17.5 							"/>
						</g>
						<g>
							<polygon class="st3" points="73.1,17.7 73.2,37.3 73.9,38.4 73.8,18.8 							"/>
						</g>
						<g>
							<polygon class="st4" points="73.8,18.8 73.9,38.4 74.8,38.2 74.7,18.6 							"/>
						</g>
					</g>
					<g class="st2">
						<g>
							<polygon class="st3" points="79.9,13.8 79.5,14.4 81.5,14.8 81.8,14.3 							"/>
						</g>
						<g>
							<polygon class="st3" points="79.5,14.4 79.6,34 81.5,34.4 81.5,14.8 							"/>
						</g>
						<g>
							<polygon class="st4" points="81.5,14.8 81.5,34.4 81.9,33.9 81.8,14.3 							"/>
						</g>
					</g>
					<g class="st2">
						<g>
							<polygon class="st3" points="57.6,14.3 58,14.8 59.9,14.3 59.6,13.8 							"/>
						</g>
						<g>
							<polygon class="st3" points="57.6,14.3 57.7,33.9 58.1,34.4 58,14.8 							"/>
						</g>
						<g>
							<polygon class="st4" points="58,14.8 58.1,34.4 60,33.9 59.9,14.3 							"/>
						</g>
					</g>
					<g class="st2">
						<g>
							<polygon class="st3" points="65.4,17.5 64.7,18.6 65.6,18.8 66.3,17.7 							"/>
						</g>
						<g>
							<polygon class="st3" points="64.7,18.6 64.7,38.2 65.6,38.4 65.6,18.8 							"/>
						</g>
						<g>
							<polygon class="st4" points="65.6,18.8 65.6,38.4 66.4,37.3 66.3,17.7 							"/>
						</g>
					</g>
				</g>
				<g>
					<path class="st6" d="M56.9,7.9c0,0,0,1.3-0.1,3.6c0,1.7-0.1,3.2,0.9,4.7c2.3,3.3,7,4.5,10.8,4.6c3.9,0.2,8.2-0.5,11.4-2.7
						c1.4-0.9,2.6-2.4,2.8-4.1c0.3-1.1,0.2-6,0.2-6L56.9,7.9z"/>
					<g>
						
							<ellipse transform="matrix(2.835001e-03 -1 1 2.835001e-03 61.9024 77.8999)" class="st6" cx="70" cy="7.9" rx="7.6" ry="13.1"/>
					</g>
					<g>
						
							<ellipse transform="matrix(2.835001e-03 -1 1 2.835001e-03 64.5868 75.2231)" class="st7" cx="70" cy="5.2" rx="4.9" ry="8.4"/>
					</g>
				</g>
			</g>
		</g>
		<g>
			<g>
				<path class="st4" d="M55.8,44.2l0.1-0.1c1.9-1.4,4.5-1.2,7.4,0.4c5.3,3.1,9.7,10.8,9.7,17c0,3.1-1.1,5.3-3,6.3l-0.2,0.1
					c-1.8,1.7-4.7,1.9-7.9,0c-5.3-3.1-9.7-10.7-9.7-17C52.2,47.3,53.6,45,55.8,44.2z"/>
				<g>
					<path class="st3" d="M62.1,45.2c5.5,3.1,9.9,10.7,9.7,17c0,6.2-4.4,8.8-9.9,5.6c-5.3-3.1-9.7-10.7-9.7-17
						C52.2,44.5,56.7,42.1,62.1,45.2z"/>
				</g>
			</g>
			<g>
				<path class="st4" d="M46.6,54.2l8.9-5.1c1.4-1,3.2-0.9,5.2,0.3c3.8,2.2,6.9,7.6,6.9,12c0,2.2-0.8,3.8-2.1,4.4l-8.9,5.1
					c-1.3,1.2-3.3,1.4-5.6,0c-3.8-2.2-6.9-7.5-6.9-12C44,56.4,45,54.8,46.6,54.2z"/>
				<g>
					<path class="st3" d="M51,54.9c3.9,2.2,7,7.5,6.9,12c0,4.4-3.1,6.2-7,4c-3.8-2.2-6.9-7.5-6.9-12C44,54.5,47.2,52.7,51,54.9z"/>
				</g>
			</g>
			<g>
				<path class="st4" d="M46.3,49.6l0.1-0.1c1.9-1.4,4.5-1.2,7.4,0.4c5.3,3.1,9.7,10.8,9.7,17c0,3.1-1.1,5.3-3,6.3l-0.2,0.1
					c-1.8,1.7-4.7,1.9-7.9,0c-5.3-3.1-9.7-10.7-9.7-17C42.7,52.7,44.1,50.4,46.3,49.6z"/>
				<g>
					<path class="st3" d="M52.5,50.7c5.5,3.1,9.9,10.7,9.7,17c0,6.2-4.4,8.8-9.9,5.6c-5.3-3.1-9.7-10.7-9.7-17
						C42.7,50,47.2,47.5,52.5,50.7z"/>
				</g>
			</g>
			<g>
				<path class="st4" d="M50.3,59.6L50.3,59.6c0.5-0.3,1.1-0.3,1.7,0.1c1.2,0.7,2.2,2.5,2.2,3.9c0,0.7-0.3,1.2-0.7,1.4l0,0
					c-0.4,0.4-1.1,0.4-1.8,0c-1.2-0.7-2.2-2.4-2.2-3.9C49.5,60.3,49.8,59.8,50.3,59.6z"/>
				<g>
					<path class="st3" d="M51.7,59.9c1.3,0.7,2.3,2.4,2.2,3.9c0,1.4-1,2-2.3,1.3c-1.2-0.7-2.2-2.4-2.2-3.9
						C49.5,59.7,50.5,59.1,51.7,59.9z"/>
				</g>
			</g>
			<g>
				<path class="st4" d="M50.3,60.8L50.3,60.8c0.3-0.2,0.7-0.2,1.1,0c0.8,0.5,1.5,1.6,1.5,2.6c0,0.5-0.2,0.8-0.5,1l0,0
					c-0.3,0.3-0.7,0.3-1.2,0c-0.8-0.5-1.5-1.6-1.5-2.6C49.8,61.2,50,60.9,50.3,60.8z"/>
				<g>
					<path class="st3" d="M51.3,60.9c0.8,0.5,1.5,1.6,1.5,2.6c0,0.9-0.7,1.3-1.5,0.9c-0.8-0.5-1.5-1.6-1.5-2.6
						C49.8,60.8,50.5,60.4,51.3,60.9z"/>
				</g>
			</g>
			<g>
				<path class="st4" d="M18,79.7l31.9-18.4c0.3-0.2,0.6-0.2,1,0.1c0.7,0.4,1.3,1.5,1.3,2.3c0,0.4-0.2,0.7-0.4,0.9L19.9,82.9
					c-0.2,0.2-0.6,0.3-1.1,0c-0.7-0.4-1.3-1.5-1.3-2.3C17.5,80.1,17.7,79.8,18,79.7z"/>
				<g>
					<path class="st3" d="M18.8,79.8c0.8,0.4,1.4,1.5,1.3,2.3c0,0.8-0.6,1.2-1.4,0.8c-0.7-0.4-1.3-1.5-1.3-2.3
						C17.5,79.7,18.1,79.4,18.8,79.8z"/>
				</g>
			</g>
			<g>
				<path class="st10" d="M52.3,54.2c3.8,2.2,6.9,7.5,6.8,11.9c0,4.3-3.1,6.1-6.9,3.9c-3.7-2.2-6.8-7.5-6.8-11.9
					C45.4,53.8,48.6,52,52.3,54.2z"/>
			</g>
			<g>
				<path class="st11" d="M46.7,51.5c0.3,0.2,0.6,0.7,0.6,1.1c0,0.4-0.3,0.5-0.6,0.4c-0.3-0.2-0.6-0.7-0.6-1.1S46.4,51.3,46.7,51.5z
					"/>
			</g>
			<g>
				<path class="st11" d="M51.4,51.8c0.3,0.2,0.6,0.7,0.6,1.1c0,0.4-0.3,0.5-0.6,0.4c-0.3-0.2-0.6-0.7-0.6-1.1S51,51.6,51.4,51.8z"
					/>
			</g>
			<g>
				<path class="st11" d="M59.1,60.6c0.3,0.2,0.6,0.7,0.6,1.1c0,0.4-0.3,0.5-0.6,0.4c-0.3-0.2-0.6-0.7-0.6-1.1
					C58.5,60.5,58.7,60.4,59.1,60.6z"/>
			</g>
			<g>
				<path class="st11" d="M55.8,55.3c0.3,0.2,0.6,0.7,0.6,1.1c0,0.4-0.3,0.5-0.6,0.4c-0.3-0.2-0.6-0.7-0.6-1.1
					C55.2,55.2,55.5,55.1,55.8,55.3z"/>
			</g>
			<g>
				<path class="st11" d="M60.1,67.1c0.3,0.2,0.6,0.7,0.6,1.1c0,0.4-0.3,0.5-0.6,0.4c-0.3-0.2-0.6-0.7-0.6-1.1
					C59.5,67.1,59.8,66.9,60.1,67.1z"/>
			</g>
			<g>
				<path class="st11" d="M56.9,71.5c0.3,0.2,0.6,0.7,0.6,1.1c0,0.4-0.3,0.5-0.6,0.4c-0.3-0.2-0.6-0.7-0.6-1.1
					C56.3,71.5,56.6,71.3,56.9,71.5z"/>
			</g>
			<g>
				<path class="st11" d="M44.5,55.2c0.3,0.2,0.6,0.7,0.6,1.1c0,0.4-0.3,0.5-0.6,0.4c-0.3-0.2-0.6-0.7-0.6-1.1
					C43.8,55.2,44.1,55,44.5,55.2z"/>
			</g>
			<g>
				<path class="st11" d="M52.1,70.4c0.3,0.2,0.6,0.7,0.6,1.1c0,0.4-0.3,0.5-0.6,0.4c-0.3-0.2-0.6-0.7-0.6-1.1
					C51.5,70.4,51.8,70.3,52.1,70.4z"/>
			</g>
			<g>
				<path class="st11" d="M48.2,67c0.3,0.2,0.6,0.7,0.6,1.1c0,0.4-0.3,0.5-0.6,0.4c-0.3-0.2-0.6-0.7-0.6-1.1
					C47.6,67,47.9,66.8,48.2,67z"/>
			</g>
			<g>
				<path class="st11" d="M45.2,61.4c0.3,0.2,0.6,0.7,0.6,1.1c0,0.4-0.3,0.5-0.6,0.4c-0.3-0.2-0.6-0.7-0.6-1.1S44.9,61.2,45.2,61.4z
					"/>
			</g>
			<g>
				<g class="st2">
					<g>
						<polygon class="st4" points="48.3,67.7 49.7,66.9 50.9,65.3 49.5,66.1 						"/>
					</g>
					<g>
						<polygon class="st3" points="46.1,62 45,63.5 46.1,66.4 48.3,67.7 49.5,66.1 48.4,63.3 						"/>
					</g>
					<g>
						<polygon class="st4" points="49.5,66.1 50.9,65.3 49.8,62.4 48.4,63.3 						"/>
					</g>
					<g>
						<polygon class="st12" points="48.4,63.3 49.8,62.4 47.5,61.1 46.1,62 						"/>
					</g>
				</g>
			</g>
			<g>
				<path class="st4" d="M18,79.7l28-16.1c0.3-0.2,0.6-0.2,1,0.1c0.7,0.4,1.3,1.5,1.3,2.3c0,0.4-0.2,0.7-0.4,0.9l-28,16.1
					c-0.2,0.2-0.6,0.3-1.1,0c-0.7-0.4-1.3-1.5-1.3-2.3C17.5,80.1,17.7,79.8,18,79.7z"/>
				<g>
					<path class="st3" d="M18.8,79.8c0.8,0.4,1.4,1.5,1.3,2.3c0,0.8-0.6,1.2-1.4,0.8c-0.7-0.4-1.3-1.5-1.3-2.3
						C17.5,79.7,18.1,79.4,18.8,79.8z"/>
				</g>
			</g>
		</g>
		<g class="st2">
			<path class="st4" d="M19,81.9c-0.1-0.2-0.1-0.4-0.3-0.6c0,0,0,0,0,0c-0.1-0.2-0.2-0.4-0.4-0.5c0,0,0,0,0,0
				c-0.1-0.1-0.3-0.3-0.5-0.4c-0.1,0-0.1-0.1-0.2-0.1c0,0,0,0,0,0c-0.1,0-0.1,0-0.2,0c0,0,0,0,0,0c-0.1,0-0.1,0-0.2,0c0,0,0,0,0,0
				c-0.1,0-0.1,0-0.2,0.1l1.4-0.8c0,0,0,0,0,0c0,0,0,0,0.1,0c0,0,0,0,0.1,0c0,0,0,0,0,0c0,0,0,0,0,0c0,0,0,0,0,0c0,0,0,0,0.1,0
				c0,0,0.1,0,0.1,0c0,0,0,0,0,0c0,0,0,0,0,0c0,0,0,0,0,0c0,0,0.1,0,0.1,0c0,0,0,0,0,0c0,0,0,0,0,0c0,0,0,0,0.1,0
				c0.1,0,0.1,0.1,0.2,0.1c0.1,0.1,0.3,0.2,0.4,0.3c0,0,0,0,0.1,0.1c0,0,0,0,0,0c0,0,0,0,0.1,0.1c0,0,0.1,0.1,0.1,0.1
				c0,0,0.1,0.1,0.1,0.1c0,0,0,0.1,0.1,0.1c0,0,0,0.1,0.1,0.1c0,0,0,0,0,0c0,0,0,0,0,0c0,0,0,0.1,0.1,0.1c0,0,0,0.1,0.1,0.1
				c0,0,0,0.1,0,0.1c0,0,0,0.1,0,0.1c0,0,0,0.1,0,0.1c0,0,0,0,0,0.1c0,0,0,0,0,0c0,0,0,0,0,0c0,0,0,0.1,0,0.1c0,0.1,0,0.1,0,0.2
				c0,0.1,0,0.2,0,0.2c0,0.4-0.1,0.7-0.4,0.8l-1.4,0.8c0.2-0.1,0.4-0.4,0.4-0.8C19.1,82.4,19.1,82.2,19,81.9C19,82,19,81.9,19,81.9z
				"/>
			<g>
				<path class="st3" d="M17.9,80.5c-0.7-0.4-1.2-0.1-1.2,0.7c0,0.8,0.5,1.7,1.2,2.1c0.7,0.4,1.2,0.1,1.2-0.7
					C19.1,81.8,18.5,80.8,17.9,80.5z"/>
			</g>
		</g>
		<g>
			<g class="st2">
				<path class="st4" d="M32,76.4c-0.2-0.1-0.4-0.2-0.6-0.3c0,0-0.1,0-0.1,0c-0.2-0.1-0.3-0.1-0.5-0.2c-0.1,0-0.2,0-0.2-0.1
					c-0.1,0-0.2-0.1-0.4-0.1c-0.1,0-0.2,0-0.2,0c-0.1,0-0.3,0-0.4,0c-0.1,0-0.2,0-0.2,0c-0.2,0-0.4,0-0.6,0c0,0-0.1,0-0.1,0
					c-0.3,0-0.5,0.1-0.8,0.1c-0.1,0-0.1,0-0.2,0c-0.3,0.1-0.7,0.1-1,0.2c0,0-0.1,0-0.1,0c-0.5,0.1-0.9,0.3-1.4,0.5c0,0,0,0-0.1,0
					c-0.3,0.1-0.6,0.3-0.9,0.4c0,0-0.1,0-0.1,0.1c-0.3,0.1-0.6,0.3-0.9,0.5c-0.1,0.1-0.2,0.1-0.3,0.2l1.4-0.8c0.1,0,0.2-0.1,0.3-0.1
					c0,0,0,0,0.1,0c0.3-0.2,0.6-0.3,0.9-0.5c0,0,0.1,0,0.1-0.1c0.3-0.1,0.6-0.3,0.9-0.4c0,0,0,0,0,0c0,0,0,0,0,0
					c0.5-0.2,0.9-0.4,1.4-0.5c0,0,0,0,0.1,0c0,0,0,0,0.1,0c0.3-0.1,0.7-0.2,1-0.2c0,0,0.1,0,0.1,0c0,0,0.1,0,0.1,0
					c0.3,0,0.5-0.1,0.8-0.1c0,0,0,0,0,0c0,0,0.1,0,0.1,0c0.2,0,0.4,0,0.6,0c0,0,0.1,0,0.1,0c0,0,0.1,0,0.1,0c0.1,0,0.3,0,0.4,0
					c0,0,0.1,0,0.1,0c0,0,0.1,0,0.1,0c0.1,0,0.2,0,0.4,0.1c0.1,0,0.1,0,0.2,0c0,0,0,0,0.1,0c0.2,0,0.3,0.1,0.5,0.2c0,0,0.1,0,0.1,0
					c0,0,0,0,0,0c0.2,0.1,0.4,0.2,0.6,0.3c0.2,0.1,0.4,0.2,0.5,0.4c0.1,0,0.1,0.1,0.2,0.1c0.1,0.1,0.2,0.2,0.4,0.3c0,0,0,0,0,0
					c0.1,0.1,0.2,0.2,0.2,0.3c0,0,0.1,0.1,0.1,0.1c0,0,0.1,0.1,0.1,0.1c0,0,0.1,0.1,0.1,0.1c0.1,0.1,0.1,0.2,0.2,0.3c0,0,0,0,0,0
					c0,0,0,0,0,0c0.1,0.1,0.2,0.2,0.2,0.3c0,0,0,0.1,0.1,0.1c0,0,0,0.1,0.1,0.1c0,0,0.1,0.1,0.1,0.1c0,0.1,0.1,0.2,0.1,0.3
					c0,0.1,0.1,0.1,0.1,0.2c0,0,0,0,0,0.1c0.1,0.2,0.2,0.3,0.3,0.5l0,0c0,0,0,0,0,0c0,0,0,0,0,0c0.1,0.2,0.2,0.4,0.3,0.7
					c0,0,0,0,0,0c0,0,0,0.1,0,0.1c0.1,0.2,0.2,0.4,0.3,0.7c0,0,0,0,0,0.1c0,0,0,0.1,0,0.1c0.1,0.3,0.2,0.6,0.3,0.9c0,0,0,0.1,0,0.1
					c0,0,0,0,0,0.1c0.2,0.5,0.3,1.1,0.5,1.6c0,0,0,0,0,0.1c0,0,0,0,0,0c0.2,0.8,0.4,1.6,0.6,2.4c0,0,0,0,0,0c0,0,0,0,0,0
					c0.1,0.6,0.2,1.2,0.3,1.8c0,0,0,0,0,0c0.1,0.6,0.2,1.2,0.3,1.8c0,0,0,0,0,0c0,0.2,0.1,0.5,0.1,0.7c0,0,0,0,0,0
					c0,0.3,0.1,0.5,0.1,0.7c0,0.1,0,0.2,0,0.2c0,0.2,0,0.3,0,0.5c0,0.1,0,0.2,0,0.3c0,0.1,0,0.3,0,0.4c0,0.1,0,0.2,0,0.3
					c0,0.1,0,0.3,0,0.4c0,0.1,0,0.2,0,0.2c0,0.1,0,0.3,0,0.4c0,0.1,0,0.1,0,0.2c0,0.2,0,0.3,0,0.4c0,0,0,0.1,0,0.1
					c0,0.2,0,0.4,0,0.5c0,0,0,0.1,0,0.1c0,0.1,0,0.2,0,0.4c0,0.1,0,0.1,0,0.2c0,0.1,0,0.2-0.1,0.3c0,0.1,0,0.1,0,0.1
					c0,0.1,0,0.2-0.1,0.2c0,0,0,0.1,0,0.1c0,0.1-0.1,0.1-0.1,0.2c0,0,0,0.1-0.1,0.1c0,0.1-0.1,0.1-0.1,0.1c0,0,0,0-0.1,0.1
					c-0.1,0.1-0.1,0.1-0.2,0.1L37,97.9c0.1,0,0.1-0.1,0.2-0.1c0,0,0,0,0.1-0.1c0,0,0.1-0.1,0.1-0.1c0,0,0-0.1,0.1-0.1
					c0-0.1,0.1-0.1,0.1-0.2c0,0,0-0.1,0-0.1c0-0.1,0-0.1,0.1-0.2c0,0,0-0.1,0-0.1c0-0.1,0-0.2,0.1-0.3c0-0.1,0-0.1,0-0.2
					c0-0.1,0-0.2,0-0.4c0,0,0-0.1,0-0.1c0-0.2,0-0.3,0-0.5c0,0,0-0.1,0-0.1c0-0.1,0-0.3,0-0.4c0-0.1,0-0.1,0-0.2c0-0.1,0-0.3,0-0.4
					c0-0.1,0-0.2,0-0.2c0-0.1,0-0.3,0-0.4c0-0.1,0-0.2,0-0.3c0-0.1,0-0.3,0-0.4c0-0.1,0-0.2,0-0.3c0-0.2,0-0.3,0-0.5
					c0-0.1,0-0.2,0-0.2c0-0.2,0-0.5-0.1-0.7c0,0,0,0,0,0c0-0.2-0.1-0.5-0.1-0.7c-0.1-0.6-0.2-1.2-0.3-1.8c0,0,0,0,0,0
					c-0.1-0.6-0.2-1.2-0.3-1.8c0,0,0-0.1,0-0.1c-0.2-0.8-0.4-1.6-0.6-2.4c0,0,0-0.1,0-0.1c-0.2-0.5-0.3-1.1-0.5-1.6
					c0-0.1,0-0.1-0.1-0.2c-0.1-0.3-0.2-0.6-0.3-0.9c0-0.1-0.1-0.1-0.1-0.2c-0.1-0.2-0.2-0.5-0.3-0.7c0,0,0-0.1,0-0.1
					c-0.1-0.2-0.2-0.5-0.3-0.7c0,0,0,0,0,0c0,0,0,0,0,0c-0.1-0.2-0.2-0.4-0.3-0.6c0-0.1-0.1-0.1-0.1-0.2c-0.1-0.1-0.1-0.3-0.2-0.4
					c0,0,0-0.1-0.1-0.1c-0.1-0.2-0.2-0.3-0.3-0.5c0,0,0,0,0,0c-0.1-0.1-0.2-0.3-0.3-0.4c0,0-0.1-0.1-0.1-0.1
					c-0.1-0.1-0.2-0.2-0.3-0.4c-0.1-0.1-0.2-0.2-0.3-0.3c-0.1,0-0.1-0.1-0.2-0.1C32.3,76.7,32.1,76.5,32,76.4z"/>
				<g>
					<path class="st3" d="M32,76.4c-5-2.9-12.7,3.9-13.2,4.2l0.4,2.2c0.7,0.5,13,9.3,15.6,13.3c0.6,0.9,1.1,1.5,1.5,1.7
						c3.2,1.9,1-16.3-3.3-20.6C32.7,76.9,32.3,76.7,32,76.4z"/>
				</g>
			</g>
		</g>
	</g>
</g>
</svg>
