<?xml version="1.0" encoding="iso-8859-1"?>
<!-- Generator: Adobe Illustrator 19.0.0, SVG Export Plug-In . SVG Version: 6.00 Build 0)  -->
<svg version="1.1" id="Layer_1" xmlns="http://www.w3.org/2000/svg" xmlns:xlink="http://www.w3.org/1999/xlink" x="0px" y="0px" xml:space="preserve">

	<circle style="fill:#CEE8FA;" cx="255.999" cy="326.197" r="109.009"/>
<g>
	<path style="fill:#2D527C;" d="M255.999,448.809c-67.605,0-122.607-55.001-122.607-122.607s55.002-122.607,122.607-122.607
		s122.607,55.001,122.607,122.607S323.603,448.809,255.999,448.809z M255.999,230.783c-52.615,0-95.419,42.806-95.419,95.419
		s42.804,95.419,95.419,95.419s95.419-42.806,95.419-95.419S308.614,230.783,255.999,230.783z"/>
	<path style="fill:#2D527C;" d="M255.999,363.392c-3.282,0-6.467-1.188-8.954-3.366l-35.882-31.415
		c-5.648-4.945-6.219-13.534-1.275-19.182c4.948-5.65,13.534-6.219,19.182-1.274l25.289,22.14l35.057-43.008
		c4.744-5.821,13.306-6.691,19.125-1.949c5.818,4.744,6.691,13.307,1.948,19.126l-43.953,53.923c-2.33,2.86-5.722,4.648-9.397,4.958
		C256.757,363.378,256.377,363.392,255.999,363.392z"/>
</g>
</svg>
