<?xml version="1.0" encoding="UTF-8" standalone="no"?>
<!-- Svg Vector Icons : http://www.onlinewebfonts.com/icon -->

<svg
   version="1.1"
   x="0px"
   y="0px"
   viewBox="0 0 640 640"
   enable-background="new 0 0 1000 1000"
   xml:space="preserve"
   id="svg14"
   sodipodi:docname="icono_granuladora.svg"
   width="640"
   height="640"
   inkscape:version="1.1.2 (b8e25be833, 2022-02-05)"
   xmlns:inkscape="http://www.inkscape.org/namespaces/inkscape"
   xmlns:sodipodi="http://sodipodi.sourceforge.net/DTD/sodipodi-0.dtd"
   xmlns="http://www.w3.org/2000/svg"
   xmlns:svg="http://www.w3.org/2000/svg"
   xmlns:rdf="http://www.w3.org/1999/02/22-rdf-syntax-ns#"
   xmlns:cc="http://creativecommons.org/ns#"
   xmlns:dc="http://purl.org/dc/elements/1.1/"><defs
   id="defs18" /><sodipodi:namedview
   pagecolor="#ffffff"
   bordercolor="#666666"
   borderopacity="1"
   objecttolerance="10"
   gridtolerance="10"
   guidetolerance="10"
   inkscape:pageopacity="0"
   inkscape:pageshadow="2"
   inkscape:window-width="1920"
   inkscape:window-height="1009"
   id="namedview16"
   showgrid="false"
   inkscape:pagecheckerboard="true"
   fit-margin-top="0"
   fit-margin-left="0"
   fit-margin-right="0"
   fit-margin-bottom="0"
   inkscape:zoom="0.6675088"
   inkscape:cx="268.91031"
   inkscape:cy="346.06285"
   inkscape:window-x="1912"
   inkscape:window-y="-8"
   inkscape:window-maximized="1"
   inkscape:current-layer="svg14" />
<metadata
   id="metadata2"> Svg Vector Icons : http://www.onlinewebfonts.com/icon <rdf:RDF><cc:Work
     rdf:about=""><dc:format>image/svg+xml</dc:format><dc:type
       rdf:resource="http://purl.org/dc/dcmitype/StillImage" /></cc:Work></rdf:RDF></metadata>

<g
   id="g851"
   transform="matrix(0.6693469,0,0,0.61427015,16.949153,14.830508)"><g
     id="g12"
     transform="matrix(-1,0,0,1,933.9,25.082992)"
     style="fill:#ffffff;fill-opacity:1;stroke:none"><path
       d="m 785.8,912.1 v -343 L 867.5,426.2 V 201.7 c 0,-26.4 -14.4,-40.8 -40.8,-40.8 H 622.5 c 0,-26.4 -14.4,-40.8 -40.8,-40.8 H 377.5 c -26.4,0 -40.8,14.4 -40.8,40.8 H 173.3 c -26.4,0 -40.8,14.4 -40.8,40.8 v 224.6 l 40.8,81.7 20.5,20.5 20.4,40.8 V 651 l -103.7,-0.1 c -34.1,0 -59.7,35.8 -59.7,69.8 v 8.5 L 215.14279,849.82712 V 912.1 L 50.8,912.3 v 34.8 h 883.1 v -35 z M 358.9,630.4 h 284 v 281.7 h -284 z m 284,-20.4 h -284 c -20.8,0 -22.2,-0.4 -22.2,20.4 V 912.1 H 255 v -343 h 490 v 343 H 663.3 V 630.4 c 0,-20.8 0.5,-20.4 -20.4,-20.4 z M 173.3,405.8 v -61.3 h 653.3 v 61.3 z m 204.2,-245 h 204.2 v 19.4 H 377.5 Z m 449.2,40.9 V 324.2 H 173.3 V 201.7 Z M 280.73183,538.38671 719.16817,540.82555 746.2,546.3 H 255 Z M 92.9,713.5 c 3,-8 10.6,-21.8 19.7,-21.8 H 215.14279 V 912.1 798.78326 Z"
       id="path4"
       inkscape:connector-curvature="0"
       sodipodi:nodetypes="cccsscsscssccccccscccccccccccccsssccccccsscccccccccccccccccccccscccc"
       style="fill:#ffffff;fill-opacity:1;stroke:none" /><path
       d="m 500,713.7 c -22.5,0 -40.8,18.3 -40.8,40.8 0,22.5 18.3,40.8 40.8,40.8 22.5,0 40.8,-18.3 40.8,-40.8 0,-22.5 -18.3,-40.8 -40.8,-40.8 z"
       id="path6"
       inkscape:connector-curvature="0"
       sodipodi:nodetypes="sssss"
       style="fill:#ffffff;fill-opacity:1;stroke:none" /></g><path
     sodipodi:type="star"
     style="opacity:1;fill:#ffffff;fill-opacity:1;fill-rule:nonzero;stroke:none;stroke-width:5.85998;stroke-linecap:butt;stroke-linejoin:round;stroke-miterlimit:4;stroke-dasharray:none;stroke-dashoffset:0;stroke-opacity:1"
     id="path4760"
     sodipodi:sides="9"
     sodipodi:cx="-493.24582"
     sodipodi:cy="56.671894"
     sodipodi:r1="59.384975"
     sodipodi:r2="58.087269"
     sodipodi:arg1="0.82704074"
     sodipodi:arg2="1.1761066"
     inkscape:flatsided="true"
     inkscape:rounded="0"
     inkscape:randomized="0"
     d="m -453.03883,100.37514 -37.49856,15.61993 -38.76585,-12.13804 -21.89419,-34.216487 5.22201,-40.284667 L -516.08064,1.8526783 -475.50119,6.9303e-7 -443.22465,24.664732 l 8.87107,39.641238 z"
     inkscape:transform-center-x="0.58268188"
     inkscape:transform-center-y="0.06652541"
     transform="scale(-1,1)" /><path
     sodipodi:type="star"
     style="opacity:1;fill:#ffffff;fill-opacity:1;fill-rule:nonzero;stroke:none;stroke-width:3.94583;stroke-linecap:butt;stroke-linejoin:round;stroke-miterlimit:4;stroke-dasharray:none;stroke-dashoffset:0;stroke-opacity:1"
     id="path4760-0"
     sodipodi:sides="9"
     sodipodi:cx="-396.14392"
     sodipodi:cy="104.23404"
     sodipodi:r1="39.987019"
     sodipodi:r2="39.113205"
     sodipodi:arg1="0.82704074"
     sodipodi:arg2="1.1761066"
     inkscape:flatsided="true"
     inkscape:rounded="0"
     inkscape:randomized="0"
     d="m -369.07045,133.66173 -25.24974,10.51772 -26.10309,-8.17318 -14.7425,-23.03976 3.51626,-27.125778 20.12972,-18.519346 27.32427,-1.247505 21.73348,16.608057 5.97336,26.692522 z"
     inkscape:transform-center-x="0.39232688"
     inkscape:transform-center-y="0.044785025"
     transform="scale(-1,1)" /><path
     sodipodi:type="star"
     style="opacity:1;fill:#ffffff;fill-opacity:1;fill-rule:nonzero;stroke:none;stroke-width:2.11019;stroke-linecap:butt;stroke-linejoin:round;stroke-miterlimit:4;stroke-dasharray:none;stroke-dashoffset:0;stroke-opacity:1"
     id="path4760-6"
     sodipodi:sides="9"
     sodipodi:cx="-878.89661"
     sodipodi:cy="812.82629"
     sodipodi:r1="21.384624"
     sodipodi:r2="20.917318"
     sodipodi:arg1="0.82704074"
     sodipodi:arg2="1.1761066"
     inkscape:flatsided="true"
     inkscape:rounded="0"
     inkscape:randomized="0"
     d="m -864.41801,828.5639 -13.50329,5.62477 -13.95964,-4.37093 -7.88413,-12.32142 1.88045,-14.50657 10.76516,-9.90394 14.61272,-0.66716 11.62283,8.88181 3.19449,14.27488 z"
     inkscape:transform-center-x="0.20985999"
     inkscape:transform-center-y="0.02396921"
     transform="scale(-1,1)" /><path
     sodipodi:type="star"
     style="opacity:1;fill:#ffffff;fill-opacity:1;fill-rule:nonzero;stroke:none;stroke-width:1.4209;stroke-linecap:butt;stroke-linejoin:round;stroke-miterlimit:4;stroke-dasharray:none;stroke-dashoffset:0;stroke-opacity:1"
     id="path4760-0-6"
     sodipodi:sides="9"
     sodipodi:cx="-843.93005"
     sodipodi:cy="829.95349"
     sodipodi:r1="14.39939"
     sodipodi:r2="14.084728"
     sodipodi:arg1="0.82704074"
     sodipodi:arg2="1.1761066"
     inkscape:flatsided="true"
     inkscape:rounded="0"
     inkscape:randomized="0"
     d="m -834.18085,840.55045 -9.09248,3.78745 -9.39976,-2.94318 -5.3088,-8.29665 1.26621,-9.76804 7.24875,-6.66885 9.83951,-0.44922 7.82626,5.98058 2.15102,9.61203 z"
     inkscape:transform-center-x="0.14130874"
     inkscape:transform-center-y="0.016137113"
     transform="scale(-1,1)" /><path
     sodipodi:type="star"
     style="opacity:1;fill:#ffffff;fill-opacity:1;fill-rule:nonzero;stroke:none;stroke-width:1.4209;stroke-linecap:butt;stroke-linejoin:round;stroke-miterlimit:4;stroke-dasharray:none;stroke-dashoffset:0;stroke-opacity:1"
     id="path4760-0-6-0"
     sodipodi:sides="9"
     sodipodi:cx="-858.97577"
     sodipodi:cy="867.13623"
     sodipodi:r1="14.39939"
     sodipodi:r2="14.084728"
     sodipodi:arg1="0.82704074"
     sodipodi:arg2="1.1761066"
     inkscape:flatsided="true"
     inkscape:rounded="0"
     inkscape:randomized="0"
     d="m -849.22657,877.73319 -9.09247,3.78745 -9.39976,-2.94318 -5.3088,-8.29665 1.26621,-9.76804 7.24874,-6.66885 9.83951,-0.44922 7.82627,5.98058 2.15102,9.61203 z"
     inkscape:transform-center-x="0.14126296"
     inkscape:transform-center-y="0.016137113"
     transform="scale(-1,1)" /><path
     sodipodi:type="star"
     style="opacity:1;fill:#ffffff;fill-opacity:1;fill-rule:nonzero;stroke:none;stroke-width:2.27618;stroke-linecap:butt;stroke-linejoin:round;stroke-miterlimit:4;stroke-dasharray:none;stroke-dashoffset:0;stroke-opacity:1"
     id="path4760-0-6-7"
     sodipodi:sides="9"
     sodipodi:cx="-805.69928"
     sodipodi:cy="855.16077"
     sodipodi:r1="23.066753"
     sodipodi:r2="22.562689"
     sodipodi:arg1="0.82704074"
     sodipodi:arg2="1.1761066"
     inkscape:flatsided="true"
     inkscape:rounded="0"
     inkscape:randomized="0"
     d="m -790.08178,872.13631 -14.56547,6.06721 -15.05772,-4.71475 -8.50431,-13.29062 2.02838,-15.64767 11.61195,-10.683 15.76217,-0.71963 12.53709,9.58046 3.44577,15.39774 z"
     inkscape:transform-center-x="0.22630956"
     inkscape:transform-center-y="0.025840717"
     transform="scale(-1,1)" /><path
     sodipodi:type="star"
     style="opacity:1;fill:#ffffff;fill-opacity:1;fill-rule:nonzero;stroke:none;stroke-width:1.01371;stroke-linecap:butt;stroke-linejoin:round;stroke-miterlimit:4;stroke-dasharray:none;stroke-dashoffset:0;stroke-opacity:1"
     id="path4760-0-6-7-1"
     sodipodi:sides="9"
     sodipodi:cx="-834.35803"
     sodipodi:cy="889.02563"
     sodipodi:r1="10.272946"
     sodipodi:r2="10.048457"
     sodipodi:arg1="0.82704074"
     sodipodi:arg2="1.1761066"
     inkscape:flatsided="true"
     inkscape:rounded="0"
     inkscape:randomized="0"
     d="m -827.40267,896.58581 -6.48683,2.70208 -6.70607,-2.09975 -3.78745,-5.91907 0.90335,-6.96881 5.17147,-4.75775 7.01979,-0.32049 5.58349,4.26673 1.5346,6.8575 z"
     inkscape:transform-center-x="0.10083106"
     inkscape:transform-center-y="0.011486403"
     transform="scale(-1,1)" /><path
     sodipodi:type="star"
     style="opacity:1;fill:#ffffff;fill-opacity:1;fill-rule:nonzero;stroke:none;stroke-width:1.4209;stroke-linecap:butt;stroke-linejoin:round;stroke-miterlimit:4;stroke-dasharray:none;stroke-dashoffset:0;stroke-opacity:1"
     id="path4760-0-6-5"
     sodipodi:sides="9"
     sodipodi:cx="759.52386"
     sodipodi:cy="875.00916"
     sodipodi:r1="14.39939"
     sodipodi:r2="14.084728"
     sodipodi:arg1="0.82704074"
     sodipodi:arg2="1.1761066"
     inkscape:flatsided="true"
     inkscape:rounded="0"
     inkscape:randomized="0"
     d="m 769.27307,885.60611 -9.09248,3.78745 -9.39976,-2.94317 -5.3088,-8.29666 1.26621,-9.76803 7.24875,-6.66885 9.83951,-0.44923 7.82626,5.98059 2.15102,9.61202 z"
     inkscape:transform-center-x="-0.14129028"
     inkscape:transform-center-y="0.016137112" /><path
     sodipodi:type="star"
     style="opacity:1;fill:#ffffff;fill-opacity:1;fill-rule:nonzero;stroke:none;stroke-width:1.4209;stroke-linecap:butt;stroke-linejoin:round;stroke-miterlimit:4;stroke-dasharray:none;stroke-dashoffset:0;stroke-opacity:1"
     id="path4760-0-6-0-6"
     sodipodi:sides="9"
     sodipodi:cx="860.474"
     sodipodi:cy="909.22632"
     sodipodi:r1="14.39939"
     sodipodi:r2="14.084728"
     sodipodi:arg1="0.82704074"
     sodipodi:arg2="1.1761066"
     inkscape:flatsided="true"
     inkscape:rounded="0"
     inkscape:randomized="0"
     d="m 870.2232,919.82328 -9.09247,3.78744 -9.39977,-2.94317 -5.3088,-8.29665 1.26621,-9.76804 7.24875,-6.66885 9.83951,-0.44923 7.82627,5.98059 2.15101,9.61202 z"
     inkscape:transform-center-x="-0.14135894"
     inkscape:transform-center-y="0.016137116" /><path
     sodipodi:type="star"
     style="opacity:1;fill:#ffffff;fill-opacity:1;fill-rule:nonzero;stroke:none;stroke-width:2.27618;stroke-linecap:butt;stroke-linejoin:round;stroke-miterlimit:4;stroke-dasharray:none;stroke-dashoffset:0;stroke-opacity:1"
     id="path4760-0-6-7-7"
     sodipodi:sides="9"
     sodipodi:cx="797.7547"
     sodipodi:cy="908.21643"
     sodipodi:r1="23.066753"
     sodipodi:r2="22.562689"
     sodipodi:arg1="0.82704074"
     sodipodi:arg2="1.1761066"
     inkscape:flatsided="true"
     inkscape:rounded="0"
     inkscape:randomized="0"
     d="m 813.3722,925.19197 -14.56547,6.06721 -15.05772,-4.71475 -8.50431,-13.29062 2.02838,-15.64767 11.61195,-10.683 15.76217,-0.71963 12.53709,9.58046 3.44577,15.39775 z"
     inkscape:transform-center-x="-0.22636739"
     inkscape:transform-center-y="0.025840715" /><path
     sodipodi:type="star"
     style="opacity:1;fill:#ffffff;fill-opacity:1;fill-rule:nonzero;stroke:none;stroke-width:1.01371;stroke-linecap:butt;stroke-linejoin:round;stroke-miterlimit:4;stroke-dasharray:none;stroke-dashoffset:0;stroke-opacity:1"
     id="path4760-0-6-7-1-6"
     sodipodi:sides="9"
     sodipodi:cx="884.84039"
     sodipodi:cy="891.30286"
     sodipodi:r1="10.272946"
     sodipodi:r2="10.048457"
     sodipodi:arg1="0.82704074"
     sodipodi:arg2="1.1761066"
     inkscape:flatsided="true"
     inkscape:rounded="0"
     inkscape:randomized="0"
     d="m 891.79576,898.86304 -6.48684,2.70207 -6.70606,-2.09974 -3.78746,-5.91908 0.90335,-6.9688 5.17147,-4.75775 7.0198,-0.3205 5.58348,4.26673 1.5346,6.8575 z"
     inkscape:transform-center-x="-0.10074774"
     inkscape:transform-center-y="0.011486401" /><path
     sodipodi:type="star"
     style="opacity:1;fill:#ffffff;fill-opacity:1;fill-rule:nonzero;stroke:none;stroke-width:1.4209;stroke-linecap:butt;stroke-linejoin:round;stroke-miterlimit:4;stroke-dasharray:none;stroke-dashoffset:0;stroke-opacity:1"
     id="path4760-0-6-5-3"
     sodipodi:sides="9"
     sodipodi:cx="895.57837"
     sodipodi:cy="849.55927"
     sodipodi:r1="14.39939"
     sodipodi:r2="14.084728"
     sodipodi:arg1="0.82704074"
     sodipodi:arg2="1.1761066"
     inkscape:flatsided="true"
     inkscape:rounded="0"
     inkscape:randomized="0"
     d="m 905.32757,860.15622 -9.09247,3.78745 -9.39977,-2.94317 -5.3088,-8.29666 1.26621,-9.76803 7.24875,-6.66885 9.83951,-0.44923 7.82627,5.98059 2.15101,9.61202 z"
     inkscape:transform-center-x="-0.14129791"
     inkscape:transform-center-y="0.016137112" /></g><rect
   style="fill:#ffffff"
   id="rect1023"
   width="437.35126"
   height="125.37254"
   x="88.70314"
   y="154.13654" /><rect
   style="fill:#ffffff"
   id="rect1025"
   width="163.78078"
   height="26.790308"
   x="252.69313"
   y="129.01288" /><rect
   style="fill:#ffffff;stroke-width:1.93763"
   id="rect1027"
   width="338.30698"
   height="310.38403"
   x="142.58557"
   y="283.14233" /></svg>
