<?xml version="1.0" encoding="utf-8"?>
<!-- Generator: Adobe Illustrator 23.0.3, SVG Export Plug-In . SVG Version: 6.00 Build 0)  -->
<svg version="1.1" id="Capa_1" xmlns="http://www.w3.org/2000/svg" xmlns:xlink="http://www.w3.org/1999/xlink" x="0px" y="0px"
	 viewBox="0 0 130.8 127.7" style="enable-background:new 0 0 130.8 127.7;" xml:space="preserve">
<style type="text/css">
	.st0{fill:#3458A3;}
	.st1{fill:#9FABD8;}
	.st2{fill:#BFC9E8;}
	.st3{fill:#F2F1F1;}
	.st4{fill:#E7E6E6;}
	.st5{fill:#C6C6C5;}
	.st6{fill:#CDCCCC;}
	.st7{fill-rule:evenodd;clip-rule:evenodd;fill:#D94B94;}
	.st8{fill:#E47DAE;}
	.st9{fill-rule:evenodd;clip-rule:evenodd;fill:#F39A00;}
	.st10{fill:#FBC165;}
	.st11{fill:#AFAFAF;}
	.st12{fill:#751518;}
	.st13{fill:#BD1622;}
	.st14{fill:#CC5261;}
	.st15{fill:#006E32;}
	.st16{fill:#31AA59;}
	.st17{fill:#6ABA82;}
</style>
<g>
	<g>
		<polygon class="st11" points="65.6,10.7 6.2,44.9 6.3,40 65.4,5.9 		"/>
		<polygon class="st6" points="66.4,11 6.8,45.5 6.8,40.6 66,6.4 		"/>
	</g>
	<g>
		<polygon class="st6" points="66.6,8 128.1,43.6 128.1,38.7 66.6,3.2 		"/>
		<polygon class="st11" points="66.1,8.6 127.6,44.1 127.6,39.2 66,3.7 		"/>
	</g>
	<g>
		<polygon class="st4" points="72.9,2.2 68.9,4.5 64.8,2.5 68.9,0 		"/>
		<g>
			<polygon class="st6" points="72.9,61.5 68.9,64 68.9,4.5 72.9,2.2 			"/>
			<polygon class="st11" points="68.9,64 64.8,61.7 64.8,2.5 68.9,4.4 			"/>
		</g>
	</g>
	<polygon class="st2" points="72.9,65.9 68.9,68.2 64.8,66.2 68.9,63.7 	"/>
	<g>
		<polygon class="st6" points="72.9,125.2 68.9,127.7 68.9,68.2 72.9,65.9 		"/>
		<polygon class="st11" points="68.9,127.7 64.8,125.4 64.8,66.2 68.9,68.1 		"/>
	</g>
	<g>
		<polygon class="st4" points="130.8,31.2 126.8,33.5 122.7,31.5 126.8,29 		"/>
		<polygon class="st11" points="126.8,94.1 122.7,92.1 122.7,31.5 126.8,33.5 		"/>
	</g>
	<g>
		<polygon class="st4" points="12,30.3 7.9,32.7 3.9,30.6 8,28.1 		"/>
		<polygon class="st6" points="12,89.9 8,92.6 7.9,32.7 12,30.3 		"/>
	</g>
	<g>
		<polygon class="st3" points="68.9,48.2 7.3,83.8 7.3,86.6 68.9,122.2 68.9,122.2 68.9,122.2 130.4,86.6 130.4,83.8 		"/>
		<polygon class="st4" points="130.4,86.7 68.9,122.3 68.9,119.4 130.4,83.9 		"/>
		<polygon class="st5" points="7.3,86.7 68.9,122.3 68.8,119.4 7.3,83.9 		"/>
	</g>
	<g>
		<polygon class="st3" points="68,57.5 34,77.1 32.6,78 68,98.3 68,98.3 68,98.3 103.2,77.9 101.9,77.1 		"/>
		<polygon class="st15" points="16.4,37.3 32.6,78 68,98.3 68,66.8 69.6,65 19.5,35.8 		"/>
		<polygon class="st16" points="119.3,37.2 103.2,78 67.8,98.3 67.8,66.8 66.2,63.8 116.8,36.2 		"/>
		<polygon class="st17" points="68,7.5 16.4,37.3 68,66.9 68,66.9 68,66.9 119.3,37.2 		"/>
		<polygon class="st16" points="68,14.8 30.7,36.4 29.1,37.3 68,59.6 68,59.6 68,59.6 106.7,37.2 105.3,36.4 		"/>
		<polygon class="st15" points="106.7,37.2 105.3,36.4 68,14.8 68,14.8 68,59.6 68,59.6 68,59.6 68,59.6 		"/>
	</g>
	<polygon class="st4" points="69.2,118 69.3,117.9 69.2,117.9 	"/>
	<polygon class="st6" points="69.2,117.9 69.2,118 69.2,118 69.2,117.9 	"/>
	<polygon class="st6" points="69.1,119.6 69.1,119.6 68.1,67.4 68.1,69.3 68.1,67.4 	"/>
	<polygon class="st4" points="72.9,65.9 68.9,68.2 64.8,66.2 68.9,63.7 	"/>
	<g>
		<polygon class="st6" points="6.1,81 67.6,116.6 67.6,111.7 6.1,76.2 		"/>
		<polygon class="st11" points="5.6,81.6 67.1,117.1 67.1,112.2 5.5,76.7 		"/>
	</g>
	<polygon class="st11" points="8,92.6 3.9,90.2 3.9,30.6 7.9,32.7 	"/>
	<g>
		<polygon class="st11" points="129,82.3 69.7,116.6 69.7,111.7 128.9,77.5 		"/>
		<polygon class="st6" points="129.9,82.7 70.2,117.1 70.3,112.2 129.4,78.1 		"/>
	</g>
	<g>
		<polygon class="st6" points="6.1,40.1 67.6,75.6 67.6,70.8 6.1,35.2 		"/>
		<polygon class="st11" points="5.6,40.7 67.1,76.2 67.1,71.3 5.5,35.8 		"/>
	</g>
	<g>
		<polygon class="st11" points="129,41.4 69.7,75.6 69.7,70.8 128.9,36.6 		"/>
		<polygon class="st6" points="129.9,41.7 70.2,76.2 70.3,71.3 129.4,37.2 		"/>
	</g>
	<g>
		<polygon class="st6" points="72.9,125.2 68.9,127.7 68.9,68.2 72.9,65.9 		"/>
		<polygon class="st11" points="68.9,127.7 64.8,125.4 64.8,66.2 68.9,68.1 		"/>
	</g>
	<polygon class="st6" points="130.8,91.8 126.8,94.1 126.8,33.5 130.8,31.2 	"/>
	<g>
		<g>
			<polygon class="st2" points="14.2,38.2 10.3,40.5 0.1,35.5 4.2,33 			"/>
			<polygon class="st1" points="14.2,65.1 10.2,67.3 10.3,40.5 14.2,38.2 			"/>
			<polygon class="st0" points="10.2,67.4 0,62.4 0.1,35.5 10.3,40.5 			"/>
		</g>
		<g>
			<g>
				<path class="st7" d="M7.8,44c-0.7-2.4-2.7-3.9-4.4-3.4c-0.1,0-0.4,0.2-0.6,0.3l-1.2,0.7l3.8,8l1.2-0.7C7.9,48,8.4,46,7.8,44z"/>
			</g>
			<ellipse transform="matrix(0.9593 -0.2824 0.2824 0.9593 -12.732 2.8535)" class="st8" cx="3.5" cy="45.6" rx="3.3" ry="4.5"/>
		</g>
		<g>
			<g>
				<path class="st9" d="M7.8,55.7c-0.7-2.4-2.7-3.9-4.4-3.4c-0.1,0-0.4,0.2-0.6,0.3l-1.2,0.7l3.8,8l1.2-0.7
					C7.9,59.7,8.4,57.7,7.8,55.7z"/>
			</g>
			<ellipse transform="matrix(0.9593 -0.2824 0.2824 0.9593 -16.0265 3.3283)" class="st10" cx="3.5" cy="57.3" rx="3.3" ry="4.5"/>
		</g>
	</g>
</g>
</svg>
