<?xml version="1.0" encoding="utf-8"?>
<!-- Generator: Adobe Illustrator 23.0.3, SVG Export Plug-In . SVG Version: 6.00 Build 0)  -->
<svg version="1.1" xmlns="http://www.w3.org/2000/svg" xmlns:xlink="http://www.w3.org/1999/xlink" x="0px" y="0px"
	 viewBox="0 0 95.8 79.9" style="enable-background:new 0 0 95.8 79.9;" xml:space="preserve">
<style type="text/css">
	.st0{fill-rule:evenodd;clip-rule:evenodd;fill:#751518;}
	.st1{fill:#CC5261;}
	.st2{fill:#BD1622;}
	.st3{fill-rule:evenodd;clip-rule:evenodd;fill:#BD1622;}
	.st4{fill:#D6253B;}
	.st5{clip-path:url(#SVGID_2_);fill:#CC5261;}
	.st6{fill:#751518;}
	.st7{fill-rule:evenodd;clip-rule:evenodd;fill:#006E32;}
	.st8{fill:#83C181;}
	.st9{fill:#31AA59;}
	.st10{fill-rule:evenodd;clip-rule:evenodd;fill:#31AA59;}
	.st11{fill:#3DB762;}
	.st12{clip-path:url(#SVGID_4_);fill:#83C181;}
	.st13{fill:#006E32;}
	.st14{fill-rule:evenodd;clip-rule:evenodd;fill:#3458A3;}
	.st15{fill:#BFC9E8;}
	.st16{fill:#9FABD8;}
	.st17{fill:#B0BCE2;}
	.st18{fill-rule:evenodd;clip-rule:evenodd;fill:#9FABD8;}
	.st19{clip-path:url(#SVGID_6_);}
	.st20{fill:#F2F1F1;}
	.st21{fill:#3458A3;}
	.st22{fill-rule:evenodd;clip-rule:evenodd;fill:#868686;}
	.st23{fill:#D9D9D9;}
	.st24{fill:#CDCCCC;}
	.st25{fill-rule:evenodd;clip-rule:evenodd;fill:#CDCCCC;}
	.st26{fill:#D3D3D3;}
	.st27{clip-path:url(#SVGID_8_);fill:#F2F1F1;}
	.st28{fill:#868686;}
</style>
<g id="Capa_2">
</g>
<g id="Capa_1">
	<g>
		<g>
			<g>
				<path class="st22" d="M94.3,20.1C90.3,6.4,78.9-2.4,68.9,0.6c-0.6,0.2-2.4,1-3.6,1.6L61,4.7l21.9,46.5l4.7-2.8
					C94.8,43.3,97.8,31.8,94.3,20.1z"/>
			</g>
			<g>
				
					<ellipse transform="matrix(0.9593 -0.2824 0.2824 0.9593 -4.9451 21.4598)" class="st23" cx="72" cy="27.9" rx="18.9" ry="25.9"/>
			</g>
			<g>
				<g>
					<path class="st22" d="M58.7,19.3c-0.4-1.2-1.3-2-2.2-1.7c0,0-0.2,0.1-0.3,0.1l-3,1.7l1.9,4l3-1.8C58.7,21.3,59,20.3,58.7,19.3z
						"/>
				</g>
				<g>
					
						<ellipse transform="matrix(0.9593 -0.2824 0.2824 0.9593 -3.8615 16.1696)" class="st24" cx="54.2" cy="21.5" rx="1.6" ry="2.3"/>
				</g>
			</g>
			<g>
				<g>
					<path class="st22" d="M72.1,5.9c-0.4-1.2-1.3-2-2.2-1.7c0,0-0.2,0.1-0.3,0.1l-3,1.7l1.9,4l3-1.8C72.1,7.9,72.4,6.9,72.1,5.9z"
						/>
				</g>
				<g>
					<ellipse transform="matrix(0.9593 -0.2824 0.2824 0.9593 0.4771 19.3981)" class="st24" cx="67.5" cy="8" rx="1.6" ry="2.3"/>
				</g>
			</g>
			<g>
				<g>
					<path class="st22" d="M87.9,40.6c-0.4-1.2-1.3-2-2.2-1.7c0,0-0.2,0.1-0.3,0.1l-3,1.7l1.9,4l3-1.8
						C87.9,42.7,88.2,41.7,87.9,40.6z"/>
				</g>
				<g>
					
						<ellipse transform="matrix(0.9593 -0.2824 0.2824 0.9593 -8.7032 25.2841)" class="st24" cx="83.4" cy="42.8" rx="1.6" ry="2.3"/>
				</g>
			</g>
			<g>
				<g>
					<path class="st22" d="M72.8,48.5c-0.4-1.2-1.3-2-2.2-1.7c0,0-0.2,0.1-0.3,0.1l-3,1.7l1.9,4l3-1.8
						C72.9,50.6,73.1,49.6,72.8,48.5z"/>
				</g>
				<g>
					
						<ellipse transform="matrix(0.9593 -0.2824 0.2824 0.9593 -11.5463 21.3458)" class="st24" cx="68.3" cy="50.7" rx="1.6" ry="2.3"/>
				</g>
			</g>
			<g>
				<g>
					<path class="st22" d="M62.2,36.9c-0.4-1.2-1.3-2-2.2-1.7c0,0-0.2,0.1-0.3,0.1l-3,1.7l1.9,4l3-1.8
						C62.2,38.9,62.5,37.9,62.2,36.9z"/>
				</g>
				<g>
					
						<ellipse transform="matrix(0.9593 -0.2824 0.2824 0.9593 -8.6971 17.8624)" class="st24" cx="57.6" cy="39.1" rx="1.6" ry="2.3"/>
				</g>
			</g>
			<g>
				<path class="st22" d="M81.5,24.9c-2.6-8.7-9.8-14.2-16.1-12.4c-0.3,0.1-1.5,0.6-2.3,1l-29.7,16l13.9,29.4l29.9-16.2
					C81.8,39.6,83.7,32.3,81.5,24.9z"/>
			</g>
			<g>
				<g>
					<path class="st22" d="M86.9,21.6c-0.4-1.2-1.3-2-2.2-1.7c0,0-0.2,0.1-0.3,0.1l-3,1.7l1.9,4l3-1.8
						C86.9,23.6,87.2,22.6,86.9,21.6z"/>
				</g>
				<g>
					
						<ellipse transform="matrix(0.9593 -0.2824 0.2824 0.9593 -3.3623 24.2208)" class="st24" cx="82.4" cy="23.8" rx="1.6" ry="2.3"/>
				</g>
			</g>
		</g>
		<g>
			<path class="st22" d="M73.2,30.5C69.4,17.5,58.6,9.2,49.2,12c-0.5,0.2-2.2,0.9-3.4,1.5l-4.5,2.6l20.7,43.9l4.8-2.9
				C73.7,52.5,76.5,41.6,73.2,30.5z"/>
		</g>
		<g>
			
				<ellipse transform="matrix(0.9593 -0.2824 0.2824 0.9593 -8.6525 16.1624)" class="st23" cx="51.7" cy="38.1" rx="17.9" ry="24.5"/>
		</g>
		<g>
			<path class="st25" d="M64.5,34.6c-3.4-11.6-13-19-21.5-16.5c-0.5,0.1-2.9,1.3-2.9,1.3c0,0-0.1,0.1-0.1,0.1L7.2,38.8L25.7,78
				l33.1-19.6C64.9,54.2,67.4,44.5,64.5,34.6z"/>
		</g>
		<g>
			<ellipse transform="matrix(0.9593 -0.2824 0.2824 0.9593 -15.819 7.0462)" class="st26" cx="16.5" cy="58.4" rx="16" ry="21.9"/>
		</g>
		<g>
			<ellipse transform="matrix(0.9593 -0.2824 0.2824 0.9593 -16.3794 6.2972)" class="st23" cx="13.7" cy="60" rx="9.7" ry="13.4"/>
		</g>
		<g>
			<defs>
				<path id="SVGID_7_" d="M7.2,38.8L7.2,38.8L7.2,38.8C7.3,38.8,7.3,38.8,7.2,38.8z M25.7,78L25.7,78l33.1-19.6
					c6-4.2,8.6-13.9,5.7-23.8c-3.4-11.6-13-19-21.5-16.5c-0.5,0.1-2.9,1.3-2.9,1.3c0,0-0.1,0.1-0.1,0.1L7.5,38.7
					c0.9-0.5,1.8-1,2.8-1.3c8.5-2.5,18.1,4.9,21.5,16.5C34.8,64,32.1,74,25.7,78z"/>
			</defs>
			<clipPath id="SVGID_2_">
				<use xlink:href="#SVGID_7_"  style="overflow:visible;"/>
			</clipPath>
			<path style="clip-path:url(#SVGID_2_);fill:#F2F1F1;" d="M12.6,36.7l34.1-19.6c0.3-0.1,0.6-0.1,0.7,0.2c0.1,0.3,0.1,0.6-0.2,0.7
				L13.1,37.6c-0.1,0-0.2,0.1-0.3,0.1c-0.2,0-0.4-0.1-0.5-0.3C12.3,37.2,12.4,36.8,12.6,36.7z M17.3,38.7c0.1,0.2,0.3,0.3,0.5,0.3
				c0.1,0,0.2,0,0.3-0.1l34.1-19.6c0.3-0.1,0.3-0.5,0.2-0.7c-0.1-0.3-0.5-0.3-0.7-0.2L17.5,38C17.2,38.1,17.2,38.4,17.3,38.7z
				 M21.6,40.8c0.1,0.2,0.3,0.3,0.5,0.3c0.1,0,0.2,0,0.3-0.1l34.1-19.6c0.3-0.1,0.3-0.5,0.2-0.7c-0.1-0.3-0.5-0.3-0.7-0.2L21.8,40
				C21.6,40.2,21.5,40.5,21.6,40.8z M24.7,43.5c0.1,0.2,0.3,0.3,0.5,0.3c0.1,0,0.2,0,0.3-0.1l34.1-19.6c0.3-0.1,0.3-0.5,0.2-0.7
				c-0.1-0.3-0.5-0.3-0.7-0.2L24.9,42.7C24.6,42.9,24.5,43.2,24.7,43.5z M27.2,46.3c0.1,0.2,0.3,0.3,0.5,0.3c0.1,0,0.2,0,0.3-0.1
				L62,26.9c0.3-0.1,0.3-0.5,0.2-0.7c-0.1-0.3-0.5-0.3-0.7-0.2L27.4,45.6C27.1,45.7,27,46.1,27.2,46.3z M64.2,29.7
				c-0.1-0.3-0.5-0.3-0.7-0.2L29.4,49.1c-0.3,0.1-0.3,0.5-0.2,0.7c0.1,0.2,0.3,0.3,0.5,0.3c0.1,0,0.2,0,0.3-0.1L64,30.4
				C64.3,30.3,64.3,30,64.2,29.7z M65.6,33.6c-0.1-0.3-0.5-0.3-0.7-0.2L30.8,53c-0.3,0.1-0.3,0.5-0.2,0.7c0.1,0.2,0.3,0.3,0.5,0.3
				c0.1,0,0.2,0,0.3-0.1l34.1-19.6C65.7,34.2,65.8,33.8,65.6,33.6z M66.6,37.9c-0.1-0.3-0.5-0.3-0.7-0.2L31.8,57.4
				c-0.3,0.1-0.3,0.5-0.2,0.7c0.1,0.2,0.3,0.3,0.5,0.3c0.1,0,0.2,0,0.3-0.1l34.1-19.6C66.7,38.5,66.8,38.2,66.6,37.9z M32.5,63.2
				l34.1-19.6c0.3-0.1,0.3-0.5,0.2-0.7c-0.1-0.3-0.5-0.3-0.7-0.2L32,62.3c-0.3,0.1-0.3,0.5-0.2,0.7c0.1,0.2,0.3,0.3,0.5,0.3
				C32.3,63.3,32.4,63.2,32.5,63.2z M31.8,67.9l34.1-19.6c0.3-0.1,0.3-0.5,0.2-0.7c-0.1-0.3-0.5-0.3-0.7-0.2L31.3,67
				c-0.3,0.1-0.3,0.5-0.2,0.7c0.1,0.2,0.3,0.3,0.5,0.3C31.6,68,31.7,68,31.8,67.9z M29.1,73.1c0.1,0.2,0.3,0.3,0.5,0.3
				c0.1,0,0.2,0,0.3-0.1L64,53.7c0.3-0.1,0.3-0.5,0.2-0.7c-0.1-0.3-0.5-0.3-0.7-0.2L29.3,72.4C29.1,72.5,29,72.9,29.1,73.1z"/>
		</g>
		<g>
			<g>
				<polygon class="st24" points="25.8,31.5 38.7,24.2 46.7,28.8 33.9,36.3 25.8,31.5 				"/>
			</g>
			<g>
				<polygon class="st28" points="33.8,39.5 33.9,36.3 46.7,28.8 46.7,32 				"/>
			</g>
			<g>
				<polygon class="st23" points="33.8,39.5 25.8,34.7 25.8,31.5 33.9,36.3 				"/>
			</g>
		</g>
	</g>
</g>
</svg>
