<?xml version="1.0" encoding="utf-8"?>
<!-- Generator: Adobe Illustrator 23.0.3, SVG Export Plug-In . SVG Version: 6.00 Build 0)  -->
<svg version="1.1" xmlns="http://www.w3.org/2000/svg" xmlns:xlink="http://www.w3.org/1999/xlink" x="0px" y="0px"
	 viewBox="0 0 97.3 97.6" style="enable-background:new 0 0 97.3 97.6;" xml:space="preserve">
<style type="text/css">
	.st0{fill:#FFFFFF;}
	.st1{fill:none;stroke:#808080;stroke-width:0.1065;stroke-miterlimit:10;}
	.st2{fill:#751518;}
	.st3{fill:#CC5261;}
	.st4{fill:#BD1622;}
	.st5{enable-background:new    ;}
	.st6{fill:#E7E6E6;}
	.st7{fill:url(#SVGID_1_);}
	.st8{fill:#C6C6C6;}
	.st9{fill:#D1D1D1;}
	.st10{fill:#EDEDED;}
	.st11{fill:none;stroke:#FFEA13;stroke-width:1.0854;stroke-miterlimit:10;}
	.st12{fill:#006E32;}
	.st13{fill:#6ABA82;}
	.st14{fill:#31AA59;}
	.st15{fill:url(#SVGID_2_);}
	.st16{fill:#6F6F6E;}
	.st17{fill:#D9D9D9;}
	.st18{fill:#B1B1B1;}
	.st19{fill:url(#SVGID_3_);}
	.st20{fill:#BFC9E8;}
	.st21{fill:#3458A3;}
	.st22{fill:#A0ADD9;}
	.st23{fill:#264B8C;}
	.st24{fill:#C0CAE9;}
	.st25{fill:url(#SVGID_4_);}
	.st26{fill:#3458A5;}
</style>
<g id="Capa_2">
</g>
<g id="Capa_1">
	<g>
		<g>
			<g>
				<g>
					<polygon class="st2" points="27.5,86.5 41.6,94.7 41.9,94.6 41.9,97.4 41.6,97.6 27.5,89.3 					"/>
				</g>
				<g>
					<polygon class="st3" points="80.8,72.1 66.5,64.3 27.6,86.6 41.6,94.7 					"/>
					<g>
						<g>
							<polygon class="st2" points="47,75.3 61.1,83.6 61.2,83.4 60.7,85.3 60.5,85.6 47,78.2 							"/>
						</g>
						<polygon class="st2" points="41.6,94.7 41.6,97.6 80.9,74.8 80.9,72.1 						"/>
					</g>
				</g>
			</g>
			<g>
				<polygon class="st2" points="43,75 57,83 57.3,82.9 57.3,85.7 57,85.9 43,77.7 				"/>
				<polygon class="st4" points="57.3,85.7 64.3,81.8 64.3,78.9 57.3,82.9 				"/>
			</g>
		</g>
		<g>
			<g>
				<g>
					<path class="st4" d="M88.8,41c0-5.8-4.1-13-9.1-15.9c-2.7-1.5-5.1-1.7-6.9-0.4l-2.3,1.4l13.1,22.4l2.4-1.5
						C87.7,46.2,88.8,44.1,88.8,41z"/>
					<g>
						<path class="st2" d="M77.1,26.7c5.1,3,9.2,10,9.1,15.9c0,5.8-4.1,8.2-9.2,5.3c-5-3-9.1-10-9.1-15.9
							C67.8,26.1,71.9,23.7,77.1,26.7z"/>
					</g>
				</g>
				<g>
					<path class="st3" d="M83.9,42.3c0-4.9-3.5-10.8-7.7-13.2c-2.3-1.3-4.4-1.3-5.8-0.4L57,36.2l10.7,19l13.7-8.1
						C83,46.6,83.9,44.9,83.9,42.3z"/>
					<g>
						<path class="st2" d="M62.4,37.1c4.2,2.4,7.7,8.3,7.7,13.2s-3.5,6.8-7.7,4.4c-4.2-2.4-7.7-8.3-7.6-13.2
							C54.7,36.5,58.2,34.6,62.4,37.1z"/>
					</g>
				</g>
			</g>
		</g>
		<g>
			<g class="st5">
				<path class="st3" d="M45.4,68.3c0.7-7.2,3.7-14.2,7.9-20.1c3.9-5.5,9.2-10.8,15.6-13.1c3.3-1.2,4.1-3.4,7.3-1.6
					c-4.6-2.7-9.2-5.3-13.7-8c-1.6-1-3.3-2.1-5.1-2.8c-4.5-1.8-9.5-0.1-13.4,2.2c-9.6,5.8-16.4,16.8-18.7,27.7
					c-1.1,5.1-1.2,11.3,1.8,15.9c1.4,2.1,3.4,3.2,5.5,4.4c5,2.9,10.1,5.9,15.1,8.8c0.1,0.1,0.2,0.1,0.4,0.2
					C42.7,78.8,44.8,73.8,45.4,68.3z"/>
				<g>
					
						<ellipse transform="matrix(0.5025 -0.8646 0.8646 0.5025 -18.9784 82.3855)" class="st4" cx="62.1" cy="57.7" rx="28" ry="16.2"/>
				</g>
			</g>
		</g>
		<g>
			<g>
				<path class="st4" d="M40.6,66.1c0-4.9-3.5-10.8-7.7-13.2c-2.3-1.3-4.4-1.3-5.8-0.4l-13.4,7.4l10.7,19l13.7-8.1
					C39.7,70.2,40.6,68.5,40.6,66.1z"/>
				<g>
					<path class="st2" d="M19.2,60.7c4.2,2.4,7.7,8.3,7.7,13.2c0,4.9-3.5,6.8-7.7,4.4c-4.2-2.4-7.7-8.3-7.6-13.2
						C11.5,60.2,14.9,58.2,19.2,60.7z"/>
				</g>
			</g>
			<g>
				<path class="st3" d="M29.7,73.9c0-5.8-4.1-13-9.1-15.9c-2.7-1.5-5.1-1.7-6.9-0.4l-2.2,1.3l13,22.5l2.4-1.5
					C28.7,78.9,29.7,76.9,29.7,73.9z"/>
				<g>
					<path class="st2" d="M18,59.5c5.1,3,9.2,10,9.1,15.9c0,5.8-4.1,8.2-9.2,5.3c-5-3-9.1-10-9.1-15.9C8.8,58.9,13,56.6,18,59.5z"/>
				</g>
				<g>
					<path class="st6" d="M18,62.7c3.5,2.1,6.3,6.9,6.3,10.9s-2.8,5.6-6.3,3.6c-3.5-2.1-6.3-6.9-6.3-10.9
						C11.7,62.4,14.5,60.8,18,62.7z"/>
				</g>
			</g>
		</g>
		<g>
			<linearGradient id="SVGID_1_" gradientUnits="userSpaceOnUse" x1="51.4779" y1="58.296" x2="75.5611" y2="58.296">
				<stop  offset="0" style="stop-color:#31AA59;stop-opacity:0"/>
				<stop  offset="0.1451" style="stop-color:#31AA59;stop-opacity:0.1451"/>
				<stop  offset="1" style="stop-color:#31AA59"/>
			</linearGradient>
			<path class="st7" d="M63.5,44.5c6.6-3.8,12.1-0.8,12.1,6.9c0,7.6-5.4,16.9-12,20.8c-6.6,3.8-12.1,0.8-12.1-6.9
				C51.5,57.6,56.8,48.3,63.5,44.5z"/>
		</g>
		<g>
			
				<ellipse transform="matrix(0.5025 -0.8646 0.8646 0.5025 -18.3744 81.7515)" class="st8" cx="61.8" cy="56.8" rx="13.6" ry="7.9"/>
		</g>
		<g>
			<g>
				<g class="st5">
					<g>
						<polygon class="st4" points="63.4,45.1 63.4,54.6 62.3,55.2 62.3,45.7 						"/>
					</g>
					<g>
						<polygon class="st2" points="62.3,55.2 61.8,54.8 61.8,45.4 62.3,45.7 						"/>
					</g>
					<g>
						<polygon class="st4" points="62.3,45.7 61.8,45.4 62.8,44.8 63.4,45.1 						"/>
					</g>
				</g>
				<g class="st5">
					<g>
						<polygon class="st4" points="63.7,61 63.8,69.8 62.7,70.4 62.7,61.6 						"/>
					</g>
					<g>
						<polygon class="st2" points="62.7,70.4 62.2,70 62.2,61.2 62.7,61.6 						"/>
					</g>
					<g>
						<polygon class="st2" points="62.7,61.6 62.2,61.2 63.2,60.6 63.7,61 						"/>
					</g>
				</g>
				<g class="st5">
					<g>
						<polygon class="st4" points="55,52.6 59.9,55.3 59.2,56.6 54.3,53.9 						"/>
					</g>
					<g>
						<polygon class="st2" points="55,52.6 54.5,52.3 59.3,55 59.9,55.3 						"/>
					</g>
					<g>
						<polygon class="st4" points="54.3,53.9 53.8,53.6 54.5,52.3 55,52.6 						"/>
					</g>
				</g>
				<g class="st5">
					<g>
						<polygon class="st4" points="65.6,58.6 70,61.1 69.3,62.4 64.9,59.9 						"/>
					</g>
					<g>
						<polygon class="st4" points="65.6,58.6 65.1,58.3 69.5,60.8 70,61.1 						"/>
					</g>
					<g>
						<polygon class="st2" points="64.9,59.9 64.3,59.6 65.1,58.3 65.6,58.6 						"/>
					</g>
				</g>
				<g class="st5">
					<g>
						
							<rect x="64.1" y="50.6" transform="matrix(0.4951 -0.8688 0.8688 0.4951 -9.8047 85.2116)" class="st4" width="8.5" height="0.9"/>
					</g>
					<g>
						<polygon class="st4" points="70.2,47.1 69.6,46.8 70.4,47.2 70.9,47.6 						"/>
					</g>
					<g>
						<polygon class="st2" points="65.9,54.5 65.4,54.2 69.6,46.8 70.2,47.1 						"/>
					</g>
				</g>
				<g class="st5">
					<g>
						<polygon class="st4" points="59.3,61.8 60.1,62.3 55.7,69.9 55,69.4 						"/>
					</g>
					<g>
						<polygon class="st4" points="59.3,61.8 58.8,61.5 59.5,61.9 60.1,62.3 						"/>
					</g>
					<g>
						<polygon class="st2" points="55,69.4 54.4,69.1 58.8,61.5 59.3,61.8 						"/>
					</g>
				</g>
			</g>
			<g>
				<g class="st5">
					<path class="st9" d="M61.2,59.6c0-0.2,0.1-0.3,0.1-0.5c0,0,0,0,0,0c0.1-0.2,0.1-0.4,0.2-0.6c0,0,0,0,0,0
						c0.1-0.2,0.2-0.4,0.3-0.6c0,0,0,0,0,0c0.1-0.2,0.2-0.3,0.3-0.5c0,0,0,0,0,0c0.1-0.1,0.2-0.3,0.3-0.4c0,0,0.1-0.1,0.1-0.1
						c0.1-0.1,0.1-0.1,0.2-0.2c0.2-0.2,0.5-0.4,0.7-0.6c0.2-0.1,0.3-0.2,0.4-0.2c0,0,0.1,0,0.1,0c0.1,0,0.3-0.1,0.4-0.1c0,0,0,0,0,0
						c0.1,0,0.3,0,0.4,0c0,0,0,0,0,0c0.1,0,0.2,0.1,0.3,0.1l-1.1-0.6c0,0,0,0,0,0c0,0-0.1,0-0.1-0.1c0,0-0.1,0-0.1,0
						c0,0-0.1,0-0.1,0c0,0,0,0,0,0c0,0,0,0,0,0c0,0-0.1,0-0.1,0c-0.1,0-0.1,0-0.2,0c0,0,0,0-0.1,0c0,0,0,0,0,0c0,0-0.1,0-0.1,0
						c-0.1,0-0.1,0-0.2,0c0,0-0.1,0-0.1,0c0,0-0.1,0-0.1,0c0,0-0.1,0-0.1,0c-0.1,0-0.2,0.1-0.3,0.2c-0.3,0.1-0.5,0.3-0.7,0.6
						c0,0,0,0-0.1,0.1c0,0-0.1,0.1-0.1,0.1c0,0-0.1,0.1-0.1,0.1c0,0-0.1,0.1-0.1,0.1c-0.1,0.1-0.1,0.2-0.2,0.2c0,0,0,0.1-0.1,0.1
						c0,0,0,0,0,0c0,0,0,0.1-0.1,0.1c0,0.1-0.1,0.1-0.1,0.2c0,0.1-0.1,0.1-0.1,0.2c0,0,0,0,0,0c0,0,0,0,0,0c0,0.1-0.1,0.1-0.1,0.2
						c0,0.1-0.1,0.1-0.1,0.2c0,0.1-0.1,0.1-0.1,0.2c0,0,0,0,0,0c0,0,0,0,0,0c0,0.1-0.1,0.1-0.1,0.2c0,0.1-0.1,0.1-0.1,0.2
						c0,0,0,0.1,0,0.1c0,0,0,0,0,0c0,0,0,0.1,0,0.1c0,0.1,0,0.2-0.1,0.3c0,0.1,0,0.1,0,0.2c0,0,0,0.1,0,0.1c0,0,0,0.1,0,0.1
						c0,0.2,0,0.3,0,0.5c0,0.7,0.3,1.3,0.7,1.5l1.1,0.6c-0.4-0.2-0.7-0.8-0.7-1.5C61.1,60.1,61.1,59.9,61.2,59.6
						C61.2,59.7,61.2,59.7,61.2,59.6z"/>
					<g>
						<path class="st10" d="M63.5,56.2c1.3-0.8,2.4-0.2,2.4,1.4c0,1.5-1.1,3.3-2.4,4.1c-1.3,0.8-2.4,0.1-2.4-1.4
							C61.1,58.8,62.2,56.9,63.5,56.2z"/>
					</g>
				</g>
			</g>
		</g>
		<g>
			
				<ellipse transform="matrix(0.5025 -0.8646 0.8646 0.5025 -18.6162 83.9447)" class="st11" cx="63.6" cy="58.1" rx="17.3" ry="10"/>
		</g>
		<g>
			<path class="st2" d="M54.6,76.5c0.7-0.4,1.2-0.1,1.2,0.7c0,0.8-0.5,1.7-1.2,2.1c-0.7,0.4-1.2,0.1-1.2-0.7
				C53.4,77.8,53.9,76.8,54.6,76.5z"/>
		</g>
		<g>
			<path class="st2" d="M72.5,66.3c0.7-0.4,1.2-0.1,1.2,0.7c0,0.8-0.5,1.7-1.2,2.1c-0.7,0.4-1.2,0.1-1.2-0.7
				C71.3,67.7,71.8,66.7,72.5,66.3z"/>
		</g>
		<g>
			<path class="st2" d="M54.6,45.9c0.7-0.4,1.2-0.1,1.2,0.7c0,0.8-0.5,1.7-1.2,2.1c-0.7,0.4-1.2,0.1-1.2-0.7
				C53.4,47.2,53.9,46.3,54.6,45.9z"/>
		</g>
		<g>
			<path class="st2" d="M72.5,35.8c0.7-0.4,1.2-0.1,1.2,0.7c0,0.8-0.5,1.7-1.2,2.1c-0.7,0.4-1.2,0.1-1.2-0.7
				C71.3,37.1,71.8,36.2,72.5,35.8z"/>
		</g>
		<g>
			<g class="st5">
				<path class="st4" d="M71.2,19.8c-0.3,3.8-5.9,0.6-8.9,0.6c-3,0-9,3.1-9-0.9c0,2.1,0,1.8,0,3.8c0,0.8,0,1.6,0,2.4
					c0.1,2,1.8,3.4,3.6,4.2c3.5,1.5,7.6,0.5,11.3-0.1c2-0.3,2.9,0.1,2.9,0.1s0-8,0-10.4C71.3,19.7,71.2,19.7,71.2,19.8z"/>
				<g>
					
						<ellipse transform="matrix(2.834996e-03 -1 1 2.834996e-03 42.6249 81.8361)" class="st3" cx="62.3" cy="19.5" rx="5.2" ry="8.9"/>
				</g>
			</g>
		</g>
		<g>
			<g class="st5">
				<path class="st4" d="M50.5,34.4c-0.3,3.7-5.8,0.6-8.8,0.6c-3,0-8.9,3-8.9-0.9c0,2.1,0,1.7,0,3.7c0,0.8,0,3.6,0,4.4
					c0.1,2,1.8,3.3,3.5,4.1c7.1,3.4,7.4,2.9,11.2-1.9c0.9-1.1,2.8-3.6,2.8-3.6s0.1-1.3,0.1-2c0-2.4,0-2.3,0-4.7
					C50.5,34.2,50.5,34.3,50.5,34.4z"/>
				<g>
					
						<ellipse transform="matrix(2.834996e-03 -1 1 2.834996e-03 7.4086 75.7028)" class="st3" cx="41.7" cy="34.1" rx="5.1" ry="8.8"/>
				</g>
			</g>
		</g>
		<g>
			<g class="st5">
				<path class="st4" d="M48.2,23.6c-0.2,2.8-4.3,0.5-6.5,0.5c-2.2,0-6.6,2.3-6.6-0.7c0,1.5,0,6.5,0,8c0,0.6,0,1.2,0,1.8
					c0.1,1.5,1.3,2.5,2.6,3.1c2.6,1.1,5.9,1.1,8.4-0.2c0.9-0.5,1.9-1.3,2.1-2.4c0.1-0.5,0-1,0-1.5c0-1.8,0-6.9,0-8.7
					C48.2,23.5,48.2,23.6,48.2,23.6z"/>
				<g>
					
						<ellipse transform="matrix(2.834996e-03 -1 1 2.834996e-03 18.077 64.9739)" class="st3" cx="41.6" cy="23.4" rx="3.8" ry="6.6"/>
				</g>
			</g>
		</g>
		<g>
			<g>
				<g>
					<g class="st5">
						<path class="st4" d="M68.8,9.5c-0.2,2.8-4.3,0.5-6.5,0.5c-2.2,0-6.6,2.3-6.6-0.7c0,1.5,0,6.5,0,8c0,0.6,0,1.2,0,1.8
							c0.1,1.5,1.3,2.5,2.6,3.1c2.6,1.1,5.9,1.1,8.4-0.2c0.9-0.5,1.9-1.3,2.1-2.4c0.1-0.5,0-1,0-1.5c0-1.8,0-6.9,0-8.7
							C68.8,9.4,68.8,9.4,68.8,9.5z"/>
						<g>
							
								<ellipse transform="matrix(2.834996e-03 -1 1 2.834996e-03 52.7834 71.5299)" class="st3" cx="62.3" cy="9.3" rx="3.8" ry="6.6"/>
						</g>
					</g>
				</g>
				<g>
					<path class="st3" d="M68.9,8.9c0-3.1-2.2-6.7-4.8-8.3c-1.4-0.8-2.7-0.8-3.6-0.2L45.1,9l6.7,11.9l15.6-9
						C68.3,11.5,68.9,10.4,68.9,8.9z"/>
					<g>
						<path class="st2" d="M48.4,9.5c2.6,1.5,4.8,5.2,4.8,8.3s-2.2,4.3-4.8,2.7c-2.6-1.5-4.8-5.2-4.7-8.3
							C43.6,9.1,45.8,7.9,48.4,9.5z"/>
					</g>
				</g>
			</g>
			<g>
				<g>
					<g>
						<path class="st4" d="M54.1,17.1c0-3.3-2.3-7.4-5.2-9.1c-1.5-0.9-2.9-1-4-0.2l-2.3,1.4L50.1,22l2.5-1.5
							C53.5,20,54.1,18.8,54.1,17.1z"/>
						<g>
							<path class="st2" d="M46.4,9.6c2.9,1.7,5.3,5.7,5.2,9.1c0,3.3-2.3,4.7-5.3,3c-2.9-1.7-5.2-5.7-5.2-9.1
								C41.1,9.2,43.5,7.9,46.4,9.6z"/>
						</g>
					</g>
					<g>
						<path class="st3" d="M52.2,19.9c0-4.1-2.9-9.1-6.5-11.2c-2-1.1-3.7-1.1-4.9-0.3l-11.3,6.3l9,16.1l11.6-6.9
							C51.4,23.4,52.2,22,52.2,19.9z"/>
						<g>
							<path class="st2" d="M34,15.3c3.6,2.1,6.5,7.1,6.5,11.2s-2.9,5.8-6.5,3.7s-6.5-7.1-6.4-11.2C27.5,14.9,30.4,13.3,34,15.3z"/>
						</g>
					</g>
				</g>
				<g>
					<path class="st4" d="M38.8,26.4c0-3.3-2.3-7.4-5.2-9.1c-1.5-0.9-2.9-1-4-0.2l-2.3,1.4l7.4,12.8l2.5-1.5
						C38.2,29.3,38.8,28.1,38.8,26.4z"/>
					<g>
						<path class="st2" d="M31.1,18.8c2.9,1.7,5.3,5.7,5.2,9.1c0,3.3-2.3,4.7-5.3,3c-2.9-1.7-5.2-5.7-5.2-9.1
							C25.8,18.5,28.2,17.1,31.1,18.8z"/>
					</g>
				</g>
				<g>
					<g class="st5">
						<g>
							<polygon class="st4" points="32.2,27.3 33.7,26.4 32.3,28.5 30.7,29.4 							"/>
						</g>
						<g>
							<polygon class="st2" points="30.7,23.6 32.2,27.3 30.7,29.4 27.8,27.7 26.4,24 27.9,22 							"/>
						</g>
						<g>
							<polygon class="st4" points="30.7,23.6 32.3,22.7 33.7,26.4 32.2,27.3 							"/>
						</g>
						<g>
							<polygon class="st3" points="27.9,22 29.4,21.1 32.3,22.7 30.7,23.6 							"/>
						</g>
					</g>
				</g>
				<g>
					<path class="st4" d="M30.7,26.4c0-0.8-0.6-1.8-1.3-2.2c-0.4-0.2-0.7-0.2-1-0.1l-2.2,1.2l1.8,3.2l2.3-1.4
						C30.6,27.1,30.7,26.8,30.7,26.4z"/>
					<g>
						<path class="st2" d="M27.1,25.5c0.7,0.4,1.3,1.4,1.3,2.2s-0.6,1.1-1.3,0.7c-0.7-0.4-1.3-1.4-1.3-2.2
							C25.8,25.4,26.4,25.1,27.1,25.5z"/>
					</g>
				</g>
			</g>
		</g>
	</g>
</g>
</svg>
