<?xml version="1.0" encoding="UTF-8" standalone="no"?>
<svg
   xmlns:dc="http://purl.org/dc/elements/1.1/"
   xmlns:cc="http://creativecommons.org/ns#"
   xmlns:rdf="http://www.w3.org/1999/02/22-rdf-syntax-ns#"
   xmlns:svg="http://www.w3.org/2000/svg"
   xmlns="http://www.w3.org/2000/svg"
   xmlns:xlink="http://www.w3.org/1999/xlink"
   xmlns:sodipodi="http://sodipodi.sourceforge.net/DTD/sodipodi-0.dtd"
   xmlns:inkscape="http://www.inkscape.org/namespaces/inkscape"
   version="1.1"
   preserveAspectRatio="xMidYMid meet"
   viewBox="0 0 640 640"
   width="640"
   height="640"
   id="svg17"
   sodipodi:docname="cb_unchecked_verde.svg"
   inkscape:version="0.92.5 (2060ec1f9f, 2020-04-08)">
  <metadata
     id="metadata21">
    <rdf:RDF>
      <cc:Work
         rdf:about="">
        <dc:format>image/svg+xml</dc:format>
        <dc:type
           rdf:resource="http://purl.org/dc/dcmitype/StillImage" />
        <dc:title></dc:title>
      </cc:Work>
    </rdf:RDF>
  </metadata>
  <sodipodi:namedview
     pagecolor="#ffffff"
     bordercolor="#666666"
     borderopacity="1"
     objecttolerance="10"
     gridtolerance="10"
     guidetolerance="10"
     inkscape:pageopacity="0"
     inkscape:pageshadow="2"
     inkscape:window-width="1920"
     inkscape:window-height="1057"
     id="namedview19"
     showgrid="false"
     inkscape:pagecheckerboard="true"
     inkscape:zoom="0.36875"
     inkscape:cx="320"
     inkscape:cy="320"
     inkscape:window-x="1592"
     inkscape:window-y="-8"
     inkscape:window-maximized="1"
     inkscape:current-layer="svg17" />
  <defs
     id="defs3">
    <path
       d="M174.56 0C78.11 0 0 78.11 0 174.56C0 203.66 0 436.41 0 465.5C0 561.83 78.11 640 174.56 640C203.66 640 436.41 640 465.5 640C561.83 640 640 561.83 640 465.44C640 436.35 640 203.65 640 174.56C640 78.11 561.83 0 465.44 0C465.44 0 203.65 0 174.56 0ZM436.38 576C413.1 576 226.9 576 203.62 576C126.5 576 64 513.44 64 436.38C64 413.1 64 226.9 64 203.62C64 126.5 126.5 64 203.62 64C226.9 64 413.1 64 436.38 64C513.44 64 576 126.5 576 203.62C576 219.14 576 296.72 576 436.38L576 436.38C534.29 529.46 487.75 576 436.38 576Z"
       id="h5tdsZCgV" />
  </defs>
  <rect
     style="fill:#ffffff;fill-opacity:1;fill-rule:nonzero;stroke:none;stroke-width:2.94803143;stroke-linecap:round;stroke-linejoin:round;stroke-miterlimit:4;stroke-dasharray:none;stroke-opacity:1"
     id="rect831"
     width="523.38983"
     height="520.67798"
     x="51.525425"
     y="54.237289" />
  <g
     id="g15">
    <g
       id="g13">
      <g
         id="g11">
        <use
           xlink:href="#h5tdsZCgV"
           opacity="1"
           fill="#014898"
           fill-opacity="1"
           id="use5" />
        <g
           id="g9">
          <use
             xlink:href="#h5tdsZCgV"
             opacity="1"
             fill-opacity="0"
             stroke="#000000"
             stroke-width="1"
             stroke-opacity="0"
             id="use7" />
        </g>
      </g>
    </g>
  </g>
</svg>
