<?xml version="1.0" encoding="UTF-8" standalone="no"?>
<!DOCTYPE svg PUBLIC "-//W3C//DTD SVG 1.1//EN" "http://www.w3.org/Graphics/SVG/1.1/DTD/svg11.dtd">
<svg version="1.1" xmlns="http://www.w3.org/2000/svg" xmlns:xlink="http://www.w3.org/1999/xlink" preserveAspectRatio="xMidYMid meet" viewBox="0 0 640 640" width="640" height="640"><defs><path d="M174.56 0C78.11 0 0 78.11 0 174.56C0 203.66 0 436.41 0 465.5C0 561.83 78.11 640 174.56 640C203.66 640 436.41 640 465.5 640C561.83 640 640 561.83 640 465.44C640 436.35 640 203.65 640 174.56C640 78.11 561.83 0 465.44 0C465.44 0 203.65 0 174.56 0ZM436.38 576C413.1 576 226.9 576 203.62 576C126.5 576 64 513.44 64 436.38C64 413.1 64 226.9 64 203.62C64 126.5 126.5 64 203.62 64C226.9 64 413.1 64 436.38 64C513.44 64 576 126.5 576 203.62C576 219.14 576 296.72 576 436.38L576 436.38C534.29 529.46 487.75 576 436.38 576Z" id="h5tdsZCgV"></path></defs><g><g><g><use xlink:href="#h5tdsZCgV" opacity="1" fill="#014898" fill-opacity="1"></use><g><use xlink:href="#h5tdsZCgV" opacity="1" fill-opacity="0" stroke="#000000" stroke-width="1" stroke-opacity="0"></use></g></g></g></g></svg>