<?xml version="1.0" encoding="utf-8"?>
<!-- Generator: Adobe Illustrator 23.0.4, SVG Export Plug-In . SVG Version: 6.00 Build 0)  -->
<svg version="1.1" id="Capa_1" xmlns="http://www.w3.org/2000/svg" xmlns:xlink="http://www.w3.org/1999/xlink" x="0px" y="0px"
	 viewBox="0 0 120.5 219" style="enable-background:new 0 0 120.5 219;" xml:space="preserve">
<style type="text/css">
	.st0{fill:#C6C6C5;}
	.st1{fill:#E7E6E6;}
	.st2{fill:#CDCCCC;}
	.st3{enable-background:new    ;}
	.st4{fill:#BFC9E8;}
	.st5{fill:#D0D9EF;}
	.st6{fill:#9FABD8;}
	.st7{fill:#3458A3;}
	.st8{fill:#264B8C;}
	.st9{fill:#D9D9D9;}
	.st10{fill:#CC5261;}
	.st11{fill:#EA6A80;}
	.st12{fill:#BD1622;}
	.st13{fill:#751518;}
	.st14{fill:#5B1016;}
	.st15{fill:#EAEAEA;}
	.st16{fill:#B3B4B3;}
	.st17{fill:#868686;}
	.st18{fill:#636363;}
	.st19{fill:#6ABA82;}
	.st20{fill:#88D39C;}
	.st21{fill:#31AA59;}
	.st22{fill:#006E32;}
	.st23{fill:#035426;}
</style>
<g>
	<g>
		<path class="st0" d="M63.5,90.2c-0.1,0.2-6.7,19.4-6.7,19.4l0.2,1.5l8.1-22L63.5,90.2z"/>
		<polygon class="st1" points="64.2,90.4 57.5,109 57.5,114.9 67.7,88 		"/>
	</g>
	<g>
		<path class="st1" d="M50.8,115.1c-0.1-0.2-9.1-24.4-9.1-24.4l0.2-1.5l9.4,25L50.8,115.1z"/>
		<polygon class="st2" points="49.7,118.7 38.8,88.2 40.8,87.9 50.9,114.7 		"/>
	</g>
	<polygon class="st2" points="52.7,97 52.7,218.8 47.8,216.1 47.8,94 	"/>
	<polygon class="st1" points="57.6,216 57.6,94.2 52.7,96.9 52.7,219 	"/>
</g>
</svg>
