<?xml version="1.0" encoding="utf-8"?>
<!-- Generator: Adobe Illustrator 23.0.4, SVG Export Plug-In . SVG Version: 6.00 Build 0)  -->
<svg version="1.1" id="Capa_1" xmlns="http://www.w3.org/2000/svg" xmlns:xlink="http://www.w3.org/1999/xlink" x="0px" y="0px"
	 viewBox="0 0 120.5 219" style="enable-background:new 0 0 120.5 219;" xml:space="preserve">
<style type="text/css">
	.st0{fill:#C6C6C5;}
	.st1{fill:#E7E6E6;}
	.st2{fill:#CDCCCC;}
	.st3{enable-background:new    ;}
	.st4{fill:#BFC9E8;}
	.st5{fill:#D0D9EF;}
	.st6{fill:#9FABD8;}
	.st7{fill:#3458A3;}
	.st8{fill:#264B8C;}
	.st9{fill:#D9D9D9;}
	.st10{fill:#CC5261;}
	.st11{fill:#EA6A80;}
	.st12{fill:#BD1622;}
	.st13{fill:#751518;}
	.st14{fill:#5B1016;}
	.st15{fill:#EAEAEA;}
	.st16{fill:#B3B4B3;}
	.st17{fill:#868686;}
	.st18{fill:#636363;}
	.st19{fill:#6ABA82;}
	.st20{fill:#88D39C;}
	.st21{fill:#31AA59;}
	.st22{fill:#006E32;}
	.st23{fill:#035426;}
</style>
<g>
	<g>
		<path class="st0" d="M50.6,48.4c-0.1-0.2-10.7-20.4-10.7-20.4l-1.2-0.9l11.6,24.1L50.6,48.4z"/>
		<polygon class="st1" points="51.2,45.8 41,25.9 38,24.1 50.4,49.9 		"/>
	</g>
	<polygon class="st2" points="52.3,18.8 52.3,140.5 47.4,137.8 47.4,15.7 	"/>
	<polygon class="st1" points="54.9,141.6 54.9,19.9 50,22.6 50,144.7 	"/>
	<polygon class="st2" points="117.7,56.4 117.7,178.1 112.8,175.4 112.8,53.3 	"/>
	<g class="st3">
		<polygon class="st2" points="72.5,29.4 72.5,151.1 67.6,148.5 67.6,26.4 		"/>
		<polygon class="st1" points="67.8,148.6 67.8,26.8 62.9,29.5 62.9,151.6 		"/>
		<g>
			<polygon class="st10" points="120.5,30.4 120.4,57.7 67.7,27.3 67.8,0 			"/>
		</g>
		<g>
			<polygon class="st11" points="67.9,0 67.8,27.2 0.1,66.6 0.2,39.4 			"/>
		</g>
		<g>
			<polygon class="st12" points="67.8,27.2 0,66.6 47.3,107.3 61.3,99.1 			"/>
			<polygon class="st13" points="67.8,27.2 61.3,99.1 72.2,105.4 120.4,57.7 			"/>
			<polygon class="st13" points="120.4,57.7 78.6,99.2 72.3,108.4 58.1,116.5 52.7,97 			"/>
			<polygon class="st14" points="0,66.6 41.1,102 47.2,110.3 58.1,116.5 52.7,97 			"/>
		</g>
		<g>
			<g>
				<polygon class="st1" points="109.5,68.6 109.4,71.2 54,103.6 54.1,101 				"/>
			</g>
			<g>
				<polygon class="st9" points="54.1,101 54,103.6 11.1,78.9 11.2,76.3 				"/>
			</g>
		</g>
	</g>
	<polygon class="st1" points="6.9,184.4 6.9,62.7 2,65.4 2,187.5 	"/>
	<polygon class="st2" points="4.9,69.3 4.9,191 0,188.3 0,66.2 	"/>
	<g>
		<g>
			<polygon class="st1" points="84.9,93 84.8,95.4 57.5,111.4 57.5,109 			"/>
		</g>
		<g>
			<polygon class="st9" points="57.5,109 57.5,111.4 32.1,96.8 32.1,94.3 			"/>
		</g>
	</g>
	<g>
		<path class="st0" d="M63.5,90.2c-0.1,0.2-6.7,19.4-6.7,19.4l0.2,1.5l8.1-22L63.5,90.2z"/>
		<polygon class="st1" points="64.2,90.4 57.5,109 57.5,114.9 67.7,88 		"/>
	</g>
	<g>
		<path class="st1" d="M50.8,115.1c-0.1-0.2-9.1-24.4-9.1-24.4l0.2-1.5l9.4,25L50.8,115.1z"/>
		<polygon class="st2" points="49.7,118.7 38.8,88.2 40.8,87.9 50.9,114.7 		"/>
	</g>
	<g>
		<path class="st1" d="M13.7,73.1c-0.1,0.2-9.1,24.4-9.1,24.4l0.2,1.5l9.4-25L13.7,73.1z"/>
		<polygon class="st2" points="12.5,69.4 1.6,99.9 3.6,100.3 13.8,73.4 		"/>
	</g>
	<g>
		<path class="st0" d="M116.1,86c-0.1-0.2-10.7-20.4-10.7-20.4l-1.2-0.9l11.6,24.1L116.1,86z"/>
		<polygon class="st1" points="116.7,83.4 106.5,63.5 103.4,61.7 115.9,87.6 		"/>
	</g>
	<polygon class="st2" points="52.7,97 52.7,218.8 47.8,216.1 47.8,94 	"/>
	<polygon class="st1" points="57.6,216 57.6,94.2 52.7,96.9 52.7,219 	"/>
	<polygon class="st1" points="120.4,179.2 120.4,57.5 115.5,60.2 115.5,182.3 	"/>
	<g>
		<polygon class="st10" points="120.5,30.4 120.4,57.7 52.7,97 52.8,69.8 		"/>
	</g>
	<g>
		<polygon class="st10" points="52.8,69.8 52.7,97 0,66.6 0.1,39.4 		"/>
	</g>
</g>
</svg>
