<?xml version="1.0" encoding="UTF-8" standalone="no"?>
<!-- Created with Inkscape (http://www.inkscape.org/) -->

<svg
   version="1.1"
   id="svg824"
   width="700"
   height="700"
   viewBox="0 0 700 700"
   sodipodi:docname="inh_off.svg"
   inkscape:version="1.1 (c68e22c387, 2021-05-23)"
   xmlns:inkscape="http://www.inkscape.org/namespaces/inkscape"
   xmlns:sodipodi="http://sodipodi.sourceforge.net/DTD/sodipodi-0.dtd"
   xmlns="http://www.w3.org/2000/svg"
   xmlns:svg="http://www.w3.org/2000/svg">
  <defs
     id="defs828" />
  <sodipodi:namedview
     id="namedview826"
     pagecolor="#ffffff"
     bordercolor="#666666"
     borderopacity="1.0"
     inkscape:pageshadow="2"
     inkscape:pageopacity="0.0"
     inkscape:pagecheckerboard="0"
     showgrid="false"
     inkscape:zoom="0.63446243"
     inkscape:cx="267.1553"
     inkscape:cy="191.5007"
     inkscape:window-width="1920"
     inkscape:window-height="1017"
     inkscape:window-x="-8"
     inkscape:window-y="-8"
     inkscape:window-maximized="1"
     inkscape:current-layer="g830" />
  <g
     inkscape:groupmode="layer"
     inkscape:label="Image"
     id="g830">
    <rect
       style="fill:#ffffff;fill-opacity:0;stroke:none;stroke-width:7.55906;stroke-linecap:round;stroke-linejoin:round;stroke-miterlimit:4;stroke-dasharray:none;stroke-opacity:1"
       id="rect19800"
       width="651.6297"
       height="655.28033"
       x="24.185137"
       y="22.359844" />
    <path
       style="fill:#ffffff;fill-opacity:1;stroke:#ffffff;stroke-width:0;stroke-linecap:round;stroke-linejoin:round"
       d="m 460.43025,533.46925 v -13.66244 l 11.63624,-0.25542 11.63625,-0.25543 0.23551,-53.16167 0.23552,-53.16167 h -11.87176 -11.87176 v -13.6897 -13.6897 h 43.35071 43.35072 v 13.6897 13.6897 h -11.8644 -11.86441 v 53.38983 53.38983 h 11.86441 11.8644 v 13.6897 13.6897 h -43.35072 -43.35071 z"
       id="path12965" />
    <path
       style="fill:#ffffff;fill-opacity:1;stroke:#ffffff;stroke-width:0;stroke-linecap:round;stroke-linejoin:round"
       d="m 189.21007,658.7341 c -2.23913,-1.38905 -8.95319,-11.87934 -10.38815,-16.23084 -0.5513,-1.67181 -3.69356,-8.33445 -15.92575,-33.76793 -2.41414,-5.01955 -6.93929,-14.46545 -10.05589,-20.99087 -3.11659,-6.52542 -7.63619,-15.97132 -10.04356,-20.99087 -2.40736,-5.01956 -7.03332,-14.6708 -10.27989,-21.4472 -3.24658,-6.7764 -7.01828,-14.99022 -8.38156,-18.25293 -1.36329,-3.26272 -2.98067,-6.54824 -3.5942,-7.30118 -1.97722,-2.42651 -6.00391,-12.47393 -6.00391,-14.98098 0,-3.67367 3.33167,-9.44869 6.35216,-11.01064 2.12366,-1.0982 6.27963,-1.38778 19.91648,-1.38778 h 17.23283 l 1.67196,-9.35463 c 0.91959,-5.14504 1.97756,-9.76532 2.35107,-10.26727 0.3735,-0.50196 2.78083,-11.59061 5.3496,-24.64146 2.56877,-13.05085 5.05072,-24.5502 5.51543,-25.55411 0.74409,-1.60743 5.49574,-24.20198 5.49574,-26.13275 0,-0.40889 -29.2801,-0.85666 -65.06688,-0.99504 -73.453117,-0.28404 -68.225405,0.26556 -72.033652,-7.57296 l -1.964027,-4.04256 3.470615,-15.30892 c 1.908838,-8.4199 3.782772,-15.71961 4.164298,-16.22156 0.381526,-0.50196 2.825476,-9.94785 5.431,-20.99088 2.605524,-11.04302 5.119517,-20.89961 5.58665,-21.90352 0.467133,-1.00391 2.717955,-9.62842 5.001826,-19.16558 2.28387,-9.53715 4.757955,-19.12541 5.497966,-21.30723 0.740011,-2.18182 3.229553,-12.0384 5.532315,-21.90352 2.302762,-9.86512 4.505231,-18.34727 4.894375,-18.84922 0.389145,-0.50196 2.651105,-9.33181 5.026578,-19.6219 2.375473,-10.2901 4.635192,-19.11995 5.021598,-19.62191 0.386407,-0.50195 2.187507,-7.27836 4.002446,-15.05867 1.814939,-7.78031 4.142724,-17.2262 5.172857,-20.99087 1.030133,-3.76467 3.912995,-15.26402 6.406355,-25.55411 2.49336,-10.29009 4.87275,-19.32529 5.28754,-20.07823 0.41479,-0.75293 2.69062,-9.582786 5.05742,-19.621899 2.3668,-10.039114 4.67656,-19.074316 5.1328,-20.078227 0.45624,-1.003911 1.89546,-6.137549 3.19825,-11.408083 2.74173,-11.09184 3.97405,-13.360815 8.22003,-15.1349 4.31049,-1.801035 195.79468,-1.921281 199.34423,-0.125182 3.24072,1.639818 6.41593,6.800169 6.41593,10.427151 0,3.247619 -3.72054,12.924826 -10.40977,27.076121 -2.16577,4.581761 -4.25452,9.357201 -4.64168,10.61209 -0.38714,1.254889 -2.24463,5.361799 -4.12776,9.126467 -1.88313,3.764672 -4.78811,10.335722 -6.45552,14.602342 -1.66741,4.26663 -3.34609,7.97964 -3.73038,8.25115 -0.3843,0.27151 -2.7641,5.48414 -5.28844,11.58361 -2.52435,6.09949 -5.3598,12.4484 -6.30103,14.1087 -0.94123,1.66031 -3.28607,6.9203 -5.21077,11.68888 -1.9247,4.76858 -3.77746,8.87549 -4.11725,9.12646 -0.33979,0.25098 -2.47985,4.97393 -4.75569,10.49544 -2.27584,5.52151 -5.35549,12.50326 -6.84366,15.515 -1.48816,3.01173 -4.04728,8.7614 -5.68692,12.77705 -1.63963,4.01564 -3.35181,7.78059 -3.80484,8.36655 -0.85474,1.10555 -6.52885,14.21747 -8.2277,19.01285 -0.53348,1.50587 -1.45954,3.35398 -2.0579,4.10691 -0.59837,0.75293 -2.83738,5.68122 -4.97559,10.95176 -2.1382,5.27053 -4.45447,10.47585 -5.14727,11.56738 -0.69279,1.09152 -2.74665,5.60912 -4.56412,10.03911 -1.81747,4.42999 -4.71395,10.84841 -6.43664,14.26315 -1.72268,3.41474 -2.89176,6.5976 -2.59794,7.07301 0.32529,0.52632 19.34195,0.86572 48.62248,0.8678 46.62293,0.004 48.1803,0.0595 51.10927,1.84527 3.21198,1.95831 5.64912,6.53213 5.64912,10.60185 0,2.50958 -6.17733,15.42073 -8.89871,18.59909 -0.82003,0.95771 -3.25683,5.10793 -5.41512,9.22269 -2.15828,4.11476 -4.50389,8.13348 -5.21247,8.93048 -0.70858,0.797 -2.23946,3.29721 -3.40197,5.55601 -2.29663,4.46246 -11.54372,20.25199 -16.56916,28.29205 -1.7256,2.76075 -4.71633,7.89439 -6.64606,11.40808 -1.92974,3.51369 -4.65762,7.99024 -6.06197,9.94789 -1.40434,1.95764 -2.55334,3.89914 -2.55334,4.31445 0,0.4153 -2.4061,4.76861 -5.34687,9.67402 -10.75033,17.93226 -11.96954,20.00947 -16.21614,27.62818 -2.37817,4.26662 -5.21841,8.98957 -6.31163,10.49543 -1.09323,1.50587 -3.58515,5.80951 -5.53762,9.56365 -1.95246,3.75412 -4.01148,7.245 -4.57559,7.75749 -0.56411,0.51249 -2.56169,3.80663 -4.43906,7.32032 -1.87738,3.51369 -4.80403,8.51158 -6.50368,11.10643 -5.16415,7.88408 -5.73638,7.60091 15.39082,7.61628 12.94866,0.009 19.15592,0.35492 20.73531,1.15411 3.34267,1.69141 6.41593,6.7937 6.41593,10.65186 0,3.15915 -8.43761,24.53501 -10.11389,25.62257 -0.40674,0.26388 -2.65462,4.98683 -4.9953,10.49544 -2.34068,5.50859 -4.78787,10.63167 -5.4382,11.38461 -0.65034,0.75293 -3.10448,5.88387 -5.45366,11.40209 -2.34917,5.51823 -4.58621,10.24118 -4.97119,10.49544 -0.7924,0.52336 -8.27157,16.92295 -8.27157,18.13709 0,0.43357 -0.78244,1.78303 -1.73875,2.99879 -0.95632,1.21577 -3.66068,6.71011 -6.00968,12.20966 -2.349,5.49956 -4.56261,10.20724 -4.91912,10.4615 -0.35651,0.25427 -2.47778,4.48746 -4.71392,9.4071 -9.68547,21.3085 -14.0537,29.2792 -17.21275,31.40808 -3.7074,2.49842 -9.4672,2.72807 -13.02752,0.51943 z"
       id="path2743" />
    <path
       style="fill:#b3c8e0;fill-opacity:1;stroke:#8a8a8a;stroke-width:0;stroke-linecap:round;stroke-linejoin:round"
       d="m 480.50847,616.93203 c -16.28584,-2.25031 -23.72181,-4.42986 -42.89439,-12.57269 -7.4737,-3.17418 -24.58346,-13.13825 -28.26503,-16.46048 -1.26975,-1.14582 -3.93146,-3.27339 -5.91491,-4.72795 -11.13597,-8.16653 -29.40051,-29.65503 -36.83795,-43.3404 -1.77315,-3.26271 -3.95,-6.9888 -4.83744,-8.28021 -3.25558,-4.73749 -11.90417,-30.00883 -14.1885,-41.45904 -1.28097,-6.42088 -1.64176,-12.69617 -1.65288,-28.74837 -0.017,-24.52742 1.02373,-31.30404 7.81504,-50.88782 4.83855,-13.95274 5.14203,-14.6411 11.83854,-26.85309 17.72091,-32.3165 52.45905,-60.98407 87.1018,-71.88059 3.51369,-1.10519 7.20991,-2.38819 8.21382,-2.85111 2.82738,-1.30375 13.62522,-3.3379 24.18054,-4.55524 11.78393,-1.35904 34.70549,-0.66838 46.09326,1.38885 14.58927,2.6356 33.63979,9.49757 47.06841,16.95397 31.32882,17.39571 57.78393,46.76916 69.83409,77.53771 1.86755,4.76858 3.70718,9.08083 4.08803,9.58279 0.38087,0.50195 1.53089,4.19817 2.55562,8.21382 8.75504,34.30875 6.84799,70.32383 -5.3338,100.73023 -4.38727,10.95089 -13.79148,28.32887 -17.84329,32.97251 -1.09496,1.25488 -3.25041,4.15582 -4.7899,6.44652 -4.09899,6.09915 -19.74712,21.59687 -28.30341,28.03135 -22.86884,17.19778 -48.79995,27.72396 -76.83461,31.18937 -10.25702,1.2679 -30.32439,1.05784 -41.09304,-0.43013 z m 45.63234,-49.70987 c 4.76858,-0.94144 11.08253,-2.55678 14.031,-3.58968 6.08495,-2.13165 22.91384,-10.96266 25.66987,-13.47034 1.00432,-0.91382 3.46847,-2.87712 5.47588,-4.36289 4.69401,-3.47423 13.00395,-11.78717 16.45824,-16.46418 1.48292,-2.00782 2.92368,-3.85593 3.2017,-4.10691 4.00375,-3.61435 14.19414,-24.77987 16.77487,-34.84154 4.32905,-16.87804 4.70679,-38.51247 0.96375,-55.19903 -4.38935,-19.56793 -16.29089,-39.70821 -32.00344,-54.1576 -10.68479,-9.82584 -18.04904,-14.57204 -32.95225,-21.23751 -20.12148,-8.99934 -53.51893,-10.14514 -75.25387,-2.58181 -39.50745,13.74781 -68.79542,49.151 -73.6878,89.07355 -2.67862,21.85797 0.25139,41.44058 9.00546,60.18771 16.22092,34.73761 47.96591,57.9744 85.3544,62.47795 9.67354,1.1652 26.22832,0.39139 36.96219,-1.72772 z"
       id="path2782" />
    <path
       style="fill:#ffffff;fill-opacity:1;stroke:#ffffff;stroke-width:0;stroke-linecap:round;stroke-linejoin:round"
       d="M 3.4727925,698.62311 C 2.1861113,698.10368 1.2775069,696.73646 0.93231531,694.80032 0.63675094,693.14255 0.51141288,536.87352 0.65378613,347.53584 0.86506904,66.55749 1.1307103,3.0674393 2.0990874,2.0990735 3.8587307,0.33945064 696.14129,0.3394644 697.90091,2.0990874 c 1.75962,1.759623 1.75964,694.0421826 1e-5,695.8018226 -0.96869,0.9687 -64.61483,1.21805 -346.80573,1.35865 C 151.97882,699.35877 4.6268007,699.08899 3.4727925,698.62311 Z M 675.81486,350 V 22.359844 H 350 24.185137 V 350 677.64016 H 350 675.81486 Z"
       id="path8228" />
    <path
       style="fill#ffffff;stroke:#ffffff;stroke-width:7.55905512;stroke-linecap:butt;stroke-linejoin:miter;stroke-opacity:1;fill-opacity:1;stroke-miterlimit:4;stroke-dasharray:none"
       d="M 675.81486,22.359844 24.185137,677.64016"
       id="path13380" />
  </g>
</svg>
