<?xml version="1.0" encoding="utf-8"?>
<!-- Generator: Adobe Illustrator 23.0.3, SVG Export Plug-In . SVG Version: 6.00 Build 0)  -->
<svg version="1.1" xmlns="http://www.w3.org/2000/svg" xmlns:xlink="http://www.w3.org/1999/xlink" x="0px" y="0px"
	 viewBox="0 0 75.8 68.6" style="enable-background:new 0 0 75.8 68.6;" xml:space="preserve">
<style type="text/css">
	.st0{fill:#BFC9E8;}
	.st1{fill:#3458A3;}
	.st2{fill:#A0ADD9;}
	.st3{fill:#264B8C;}
	.st4{fill:#C0CAE9;}
	.st5{fill:#EDEDED;}
	.st6{fill:#3458A5;}
	.st7{fill:#E7E6E6;}
	.st8{fill:#999999;}
	.st9{clip-path:url(#SVGID_2_);}
	.st10{fill:#C6C6C6;}
	.st11{enable-background:new    ;}
	.st12{fill:#D1D1D1;}
	.st13{fill:#6ABA82;}
	.st14{fill:#006E32;}
	.st15{fill:#31AA59;}
	.st16{fill:#035426;}
	.st17{clip-path:url(#SVGID_4_);}
	.st18{fill:#CC5261;}
	.st19{fill:#751518;}
	.st20{fill:#BD1622;}
	.st21{fill:#5B1016;}
	.st22{clip-path:url(#SVGID_6_);}
	.st23{fill:#D9D9D9;}
	.st24{fill:#868686;}
	.st25{fill:#B3B4B3;}
	.st26{fill:#636363;}
	.st27{clip-path:url(#SVGID_8_);}
</style>
<g id="Capa_2">
</g>
<g id="Capa_1">
	<g>
		<g>
			<g>
				<polygon class="st0" points="43.3,1.2 17.6,15.8 15.2,14.4 40.8,0 				"/>
			</g>
			<g>
				<g>
					<polygon class="st1" points="15.1,14.4 17.6,15.8 17.7,15.7 17.7,58.5 17.6,58.6 15.1,57.2 					"/>
				</g>
				<g>
					<polygon class="st2" points="17.6,15.8 43.3,1.2 43.3,43.9 17.6,58.6 					"/>
				</g>
			</g>
		</g>
		<g>
			<g>
				<path class="st2" d="M69.1,23.5c0-4.5-3.2-10.1-7.1-12.4c-2.1-1.2-4-1.3-5.4-0.3l-1.8,1.1L65,29.3l1.9-1.2
					C68.3,27.5,69.1,25.9,69.1,23.5z"/>
				<g>
					<path class="st3" d="M60,12.3c4,2.3,7.2,7.8,7.1,12.4c0,4.5-3.2,6.4-7.2,4.1c-3.9-2.3-7.1-7.8-7.1-12.4
						C52.8,11.9,56,10,60,12.3z"/>
				</g>
			</g>
			<g>
				<path class="st4" d="M65.3,24.5c0-3.8-2.7-8.4-6-10.3c-1.8-1-3.4-1-4.5-0.3l-10.4,5.8l8.3,14.8l10.7-6.3
					C64.6,27.8,65.3,26.5,65.3,24.5z"/>
				<g>
					<path class="st3" d="M48.6,20.4c3.3,1.9,6,6.5,6,10.3s-2.7,5.3-6,3.4c-3.3-1.9-6-6.5-5.9-10.3C42.6,20,45.3,18.5,48.6,20.4z"/>
				</g>
			</g>
		</g>
		<g>
			<g>
				<g>
					<polygon class="st0" points="47,57.6 31.6,66.4 20.7,60.1 35.9,51.4 					"/>
				</g>
				<g>
					<g>
						<polygon class="st1" points="20.6,60 31.6,66.4 31.8,66.3 31.8,68.5 31.6,68.6 20.6,62.2 						"/>
					</g>
					<g>
						<polygon class="st1" points="31.6,66.4 47,57.5 47,59.7 31.6,68.6 						"/>
					</g>
				</g>
			</g>
			<g>
				<g>
					<polygon class="st0" points="62.1,48.8 46.8,57.7 35.8,51.3 51,42.7 					"/>
				</g>
				<g>
					<g>
						<polygon class="st1" points="35.8,51.3 46.8,57.7 46.9,57.6 46.9,59.7 46.8,59.9 35.8,53.5 						"/>
					</g>
					<g>
						<polygon class="st1" points="46.8,57.7 62.2,48.8 62.2,50.9 46.8,59.9 						"/>
					</g>
				</g>
			</g>
		</g>
		<g>
			<polygon class="st1" points="32.7,51 43.6,57.3 43.8,57.2 43.8,59.4 43.6,59.5 32.7,53.1 			"/>
			<polygon class="st2" points="43.8,59.4 49.3,56.3 49.3,54.1 43.8,57.2 			"/>
		</g>
		<path class="st4" d="M54,17L40.1,8.9V9c-2-1.1-4.8-0.8-7.8,0.9c-5.5,3.2-10.1,10.3-11.1,16.9l14.1,7.9l0,0
			c0.8-5.2,3.9-10.7,7.8-14.4l1.2-0.4L54,17z"/>
		<path class="st3" d="M23.7,49.7L38,57.9l-2.9-5.4l-14-8C21,44.4,21.3,48,23.7,49.7z"/>
		<g>
			<g>
				<path class="st2" d="M46.2,17.9c5.5-3.2,10.1-1.4,11.1,4c1.4,0.1,2.3,1.3,2.3,3.3v8.6c0,1.9-0.9,4.1-2.2,5.8
					c-0.8,6.7-5.5,14.2-11.2,17.4c-1.9,1.1-3.9,1.7-5.7,1.7c-3.1,0-5.2-2.4-5.6-6.2c-1.3-0.2-2.1-1.4-2.1-3.2v-8.5
					c0-2,0.9-4.2,2.3-5.9C36.2,28.1,40.8,21.1,46.2,17.9z"/>
			</g>
			<g>
				<g>
					<path class="st5" d="M47,20.7c4.8-2.7,8.6-0.7,8.9,4.6c1.1-0.6,2.1-0.1,2.1,1.3v8.6c0,1.3-0.9,2.9-2,3.6
						c0,5.6-3.9,12.5-8.8,15.3c-1.5,0.8-3,1.3-4.6,1.3c-2.8,0-4.5-2.6-4.3-6.4c-1.1,0.6-2.1,0-2.1-1.3v-8.6c0-1.3,0.9-2.9,2.1-3.7
						C38.4,30,42.2,23.5,47,20.7z"/>
				</g>
			</g>
		</g>
		<g>
			<path class="st6" d="M33.5,51.7c-0.4-0.6-0.6-1.3-0.6-2.4v-8.7c0-2,0.9-4.3,2.3-6l-14-8.1c-1.4,1.7-2.4,4-2.4,6v8.7
				c0,1.9,0.8,3.1,2.1,3.3l12.6,7.3V51.7z"/>
		</g>
		<g>
			<g>
				<path class="st2" d="M31.6,43c0-3.8-2.7-8.4-6-10.3c-1.8-1-3.4-1-4.5-0.3l-10.4,5.8L19,53l10.7-6.3C30.9,46.2,31.6,44.9,31.6,43
					z"/>
				<g>
					<path class="st3" d="M14.9,38.8c3.3,1.9,6,6.5,6,10.3s-2.7,5.3-6,3.4S8.9,46,9,42.2C8.9,38.4,11.6,36.9,14.9,38.8z"/>
				</g>
			</g>
			<g>
				<path class="st4" d="M23.1,49.1c0-4.5-3.2-10.1-7.1-12.4c-2.1-1.2-4-1.3-5.4-0.3l-1.7,1L19,54.9l1.9-1.2
					C22.3,53,23.1,51.4,23.1,49.1z"/>
				<g>
					<path class="st3" d="M14,37.9c4,2.3,7.2,7.8,7.1,12.4c0,4.5-3.2,6.4-7.2,4.1C10,52.1,6.8,46.6,6.8,42
						C6.8,37.4,10.1,35.6,14,37.9z"/>
				</g>
				<g>
					<path class="st7" d="M14,40.4c2.7,1.6,4.9,5.4,4.9,8.5s-2.2,4.4-4.9,2.8s-4.9-5.4-4.9-8.5C9.1,40.1,11.3,38.9,14,40.4z"/>
				</g>
			</g>
		</g>
		<g>
			<g>
				<g>
					<path class="st5" d="M47,20.7c4.8-2.7,8.6-0.7,8.9,4.6c0.1,3.3,0.1,11,0.1,13.5c0,5.6-3.9,12.5-8.8,15.3
						c-1.5,0.8-3,1.3-4.6,1.3c-2.8,0-4.5-2.6-4.3-6.4c-0.1-2.8-0.1-11.4,0-13.6C38.4,30,42.2,23.5,47,20.7z"/>
				</g>
			</g>
			<g>
				<g>
					<path class="st8" d="M47.1,23.1c3.9-2.3,7-0.6,7.2,3.9c0.1,2.8,0.1,9.4,0.1,11.6c0,4.8-3.2,10.7-7.1,13.1
						c-1.2,0.7-2.4,1.1-3.7,1.1c-2.3,0-3.6-2.2-3.5-5.5c0-2.4,0-9.8,0-11.7C40.1,31.1,43.2,25.5,47.1,23.1z"/>
				</g>
			</g>
			<g>
				<defs>
					<path id="SVGID_1_" d="M47.1,23.1c3.9-2.3,7-0.6,7.2,3.9c0.1,2.8,0.1,9.4,0.1,11.6c0,4.8-3.2,10.7-7.1,13.1
						c-1.2,0.7-2.4,1.1-3.7,1.1c-2.3,0-3.6-2.2-3.5-5.5c0-2.4,0-9.8,0-11.7C40.1,31.1,43.2,25.5,47.1,23.1z"/>
				</defs>
				<clipPath id="SVGID_2_">
					<use xlink:href="#SVGID_1_"  style="overflow:visible;"/>
				</clipPath>
				<g class="st9">
					<g>
						<g>
							<path class="st10" d="M45.4,23.1c3.9-2.3,7-0.6,7.2,3.9c0.1,2.8,0.1,9.4,0.1,11.6c0,4.8-3.2,10.7-7.1,13.1
								c-1.2,0.7-2.4,1.1-3.7,1.1c-2.3,0-3.6-2.2-3.5-5.5c0-2.4,0-9.8,0-11.7C38.4,31.1,41.5,25.5,45.4,23.1z"/>
						</g>
					</g>
					<g>
						<g class="st11">
							<g>
								<polygon class="st2" points="47.5,22 47.5,33.6 46.3,34.3 46.2,22.8 								"/>
							</g>
							<g>
								<polygon class="st6" points="46.3,34.3 45.6,33.9 45.6,22.4 46.2,22.8 								"/>
							</g>
							<g>
								<polygon class="st2" points="46.2,22.8 45.6,22.4 46.8,21.6 47.5,22 								"/>
							</g>
						</g>
						<g class="st11">
							<g>
								<polygon class="st2" points="47.6,41.6 47.6,52.4 46.3,53.1 46.3,42.3 								"/>
							</g>
							<g>
								<polygon class="st6" points="46.3,53.1 45.6,52.7 45.6,41.9 46.3,42.3 								"/>
							</g>
							<g>
								<polygon class="st6" points="46.3,42.3 45.6,41.9 46.9,41.2 47.6,41.6 								"/>
							</g>
						</g>
						<g class="st11">
							<g>
								<polygon class="st2" points="39.2,32.2 45.1,35.5 44.2,37.1 38.3,33.7 								"/>
							</g>
							<g>
								<polygon class="st6" points="39.2,32.2 38.5,31.8 44.4,35.1 45.1,35.5 								"/>
							</g>
							<g>
								<polygon class="st2" points="38.3,33.7 37.6,33.3 38.5,31.8 39.2,32.2 								"/>
							</g>
						</g>
						<g class="st11">
							<g>
								<polygon class="st2" points="50.3,38.5 55.7,41.6 54.8,43.1 49.4,40.1 								"/>
							</g>
							<g>
								<polygon class="st2" points="50.3,38.5 49.6,38.1 55,41.2 55.7,41.6 								"/>
							</g>
							<g>
								<polygon class="st6" points="49.4,40.1 48.7,39.7 49.6,38.1 50.3,38.5 								"/>
							</g>
						</g>
						<g class="st11">
							<g>
								
									<rect x="46.5" y="28.7" transform="matrix(0.4951 -0.8688 0.8688 0.4951 0.7792 59.6978)" class="st2" width="10.5" height="1"/>
							</g>
							<g>
								<polygon class="st2" points="53.9,24.4 53.2,24 54.1,24.5 54.8,24.9 								"/>
							</g>
							<g>
								<polygon class="st6" points="48.7,33.4 48,33.1 53.2,24 53.9,24.4 								"/>
							</g>
						</g>
						<g class="st11">
							<g>
								<polygon class="st2" points="44.2,41.2 45.1,41.7 39.7,51 38.8,50.5 								"/>
							</g>
							<g>
								<polygon class="st2" points="44.2,41.2 43.5,40.8 44.4,41.4 45.1,41.7 								"/>
							</g>
							<g>
								<polygon class="st6" points="38.8,50.5 38.2,50.1 43.5,40.8 44.2,41.2 								"/>
							</g>
						</g>
					</g>
					<g>
						<g class="st11">
							<path class="st12" d="M45.6,38.8c0-0.1,0-0.3,0.1-0.4c0,0,0,0,0,0c0-0.1,0.1-0.3,0.2-0.4c0,0,0,0,0,0
								c0.1-0.1,0.1-0.3,0.2-0.4c0,0,0,0,0,0c0.1-0.1,0.2-0.3,0.2-0.4c0,0,0,0,0,0c0.1-0.1,0.2-0.2,0.3-0.3c0,0,0,0,0.1-0.1
								c0,0,0.1-0.1,0.1-0.1c0.2-0.2,0.3-0.3,0.5-0.4c0.1-0.1,0.2-0.1,0.3-0.1c0,0,0,0,0.1,0c0.1,0,0.2-0.1,0.3-0.1c0,0,0,0,0,0
								c0.1,0,0.2,0,0.3,0c0,0,0,0,0,0c0.1,0,0.2,0.1,0.3,0.1l-0.8-0.5c0,0,0,0,0,0c0,0-0.1,0-0.1,0c0,0-0.1,0-0.1,0c0,0,0,0-0.1,0
								c0,0,0,0,0,0c0,0,0,0,0,0c0,0-0.1,0-0.1,0c0,0-0.1,0-0.1,0c0,0,0,0,0,0c0,0,0,0,0,0c0,0,0,0-0.1,0c0,0-0.1,0-0.2,0
								c0,0,0,0-0.1,0c0,0,0,0-0.1,0c0,0-0.1,0-0.1,0c-0.1,0-0.2,0.1-0.2,0.1c-0.2,0.1-0.4,0.2-0.5,0.4c0,0,0,0-0.1,0
								c0,0,0,0-0.1,0.1c0,0,0,0-0.1,0.1c0,0,0,0-0.1,0.1c0,0.1-0.1,0.1-0.1,0.2c0,0,0,0,0,0.1c0,0,0,0,0,0c0,0,0,0,0,0.1
								c0,0-0.1,0.1-0.1,0.1c0,0-0.1,0.1-0.1,0.1c0,0,0,0,0,0c0,0,0,0,0,0c0,0,0,0.1-0.1,0.1c0,0-0.1,0.1-0.1,0.1c0,0,0,0.1-0.1,0.1
								c0,0,0,0,0,0c0,0,0,0,0,0c0,0.1,0,0.1-0.1,0.2c0,0.1,0,0.1-0.1,0.2c0,0,0,0.1,0,0.1c0,0,0,0,0,0c0,0,0,0,0,0.1
								c0,0.1,0,0.1,0,0.2c0,0,0,0.1,0,0.1c0,0,0,0,0,0.1c0,0,0,0,0,0.1c0,0.1,0,0.2,0,0.3c0,0.5,0.2,0.9,0.5,1.1l0.8,0.5
								c-0.3-0.2-0.5-0.6-0.5-1.1C45.5,39.1,45.5,39,45.6,38.8C45.5,38.8,45.6,38.8,45.6,38.8z"/>
							<g>
								<path class="st5" d="M47.2,36.3c1-0.6,1.7-0.1,1.7,1c0,1.1-0.8,2.4-1.7,3c-1,0.5-1.7,0.1-1.7-1
									C45.5,38.2,46.3,36.8,47.2,36.3z"/>
							</g>
						</g>
					</g>
				</g>
			</g>
		</g>
	</g>
</g>
</svg>
