<?xml version="1.0" encoding="UTF-8" standalone="no"?>
<!-- Svg Vector Icons : http://www.onlinewebfonts.com/icon -->

<svg
   xmlns:dc="http://purl.org/dc/elements/1.1/"
   xmlns:cc="http://creativecommons.org/ns#"
   xmlns:rdf="http://www.w3.org/1999/02/22-rdf-syntax-ns#"
   xmlns:svg="http://www.w3.org/2000/svg"
   xmlns="http://www.w3.org/2000/svg"
   xmlns:sodipodi="http://sodipodi.sourceforge.net/DTD/sodipodi-0.dtd"
   xmlns:inkscape="http://www.inkscape.org/namespaces/inkscape"
   version="1.1"
   x="0px"
   y="0px"
   viewBox="0 0 1800 640"
   enable-background="new 0 0 1000 1000"
   xml:space="preserve"
   id="svg10"
   sodipodi:docname="analizadores.svg"
   width="1800"
   height="640"
   inkscape:version="0.92.5 (2060ec1f9f, 2020-04-08)"><defs
   id="defs14" /><sodipodi:namedview
   pagecolor="#ffffff"
   bordercolor="#666666"
   borderopacity="1"
   objecttolerance="10"
   gridtolerance="10"
   guidetolerance="10"
   inkscape:pageopacity="0"
   inkscape:pageshadow="2"
   inkscape:window-width="1920"
   inkscape:window-height="1017"
   id="namedview12"
   showgrid="false"
   inkscape:pagecheckerboard="true"
   inkscape:zoom="0.472"
   inkscape:cx="1126.9667"
   inkscape:cy="197.40864"
   inkscape:window-x="-8"
   inkscape:window-y="-8"
   inkscape:window-maximized="1"
   inkscape:current-layer="svg10" />
<metadata
   id="metadata2"> Svg Vector Icons : http://www.onlinewebfonts.com/icon <rdf:RDF><cc:Work
     rdf:about=""><dc:format>image/svg+xml</dc:format><dc:type
       rdf:resource="http://purl.org/dc/dcmitype/StillImage" /><dc:title /></cc:Work></rdf:RDF></metadata>

<g
   id="g8504"
   transform="matrix(0.36873729,0,0,0.36873729,118.84586,146.47482)"><path
     id="path8458"
     d="m 404.44485,689.81235 c -50.75102,87.98846 -16.66676,160.36122 53.75404,201.05213 70.42079,40.6909 150.3011,34.08426 201.05212,-53.9042 C 710.00203,748.97183 1030.5743,-36.017339 1002.6462,-52.233641 974.86831,-68.299793 455.19587,601.8239 404.44485,689.81235 Z M 542.13327,130.65022 c 32.28245,0 63.664,2.85286 94.2948,7.958 32.28245,-40.390609 68.31868,-84.68514 103.454,-127.027708 -62.7631,-18.1682645 -128.82951,-28.078227 -197.7488,-28.078227 -412.46466,0 -735.73965,347.899755 -735.73965,791.896115 0,27.32747 1.2012,54.65494 3.60362,81.23166 3.60362,40.54076 39.79,70.27064 79.8803,66.66702 40.390609,-3.75377 70.270648,-39.33955 66.667025,-79.8803 -1.951962,-22.22235 -3.003019,-45.19544 -3.003019,-68.16854 0,-361.41333 258.559934,-644.59802 588.591724,-644.59802 z m 531.08393,91.89238 c -20.5707,55.1054 -42.1924,111.412 -61.4118,160.06091 74.7752,108.10868 118.7694,243.69499 118.7694,392.94504 0,23.27339 -1.051,46.84709 -3.1531,69.51989 -3.6036,40.54075 26.1262,76.27668 66.5168,80.03045 2.2523,0.15015 4.5046,0.3003 6.7568,0.3003 37.5378,0 69.6701,-28.82898 73.1235,-66.81717 2.5526,-27.17732 3.7538,-55.1054 3.7538,-82.88332 0.3003,-217.41858 -77.0274,-411.41361 -204.3554,-553.1561 z"
     inkscape:connector-curvature="0"
     style="fill:#ffffff;fill-opacity:1;stroke-width:1.50150955" /><g
     transform="matrix(0.85017345,0,0,-0.85017345,1254.8546,1065.4275)"
     id="g6"
     style="fill:#ffffff;fill-opacity:1"><path
       d="m -1112.7771,948.56187 h -3.3831 c -5.2824,-0.77158 -10.6241,-3.02698 -15.9065,-6.82554 -2.2554,-1.54316 -4.5701,-3.79856 -6.8255,-6.82553 l -2.2554,-2.2554 -195.4009,-251.22283 c -9.081,-12.10791 -10.2087,-24.80934 -3.3831,-38.04494 6.8255,-13.2356 17.3902,-19.88308 31.8129,-19.88308 l 115.6474,-1.12769 -50.9406,-212.26066 c -1.5432,-8.30934 -0.3561,-16.26258 3.3831,-23.85969 3.7392,-7.59712 9.8525,-12.87949 18.1618,-15.90647 4.5702,-2.25539 9.081,-3.38309 13.6511,-3.38309 11.3363,0 20.8327,5.28237 28.4298,15.90647 l 195.34152,273.89547 c 9.08093,12.10791 10.20863,24.63128 3.38309,37.51077 -6.82553,12.87949 -17.39027,19.70502 -31.81291,20.4766 h -115.6474 l 50.9406,188.40097 c 0.7716,3.02698 1.1277,6.05395 1.1277,9.08092 0,9.85251 -3.3831,18.16186 -10.2086,24.98739 -6.8255,6.82554 -15.1348,10.6241 -24.9874,11.33633 z"
       id="path4"
       inkscape:connector-curvature="0"
       style="fill:#ffffff;fill-opacity:1;stroke-width:0.59352475"
       sodipodi:nodetypes="ccccccscccscsccscccsscc" /></g></g><g
   id="g4805"><path
     d="m 748.87514,287.94745 -8.02904,-22.28621 h -37.66894 l -7.65385,22.28621 h -21.6859 l 43.82203,-111.43103 h 8.5543 l 44.19723,111.43103 z m -26.93855,-77.81413 -13.20664,40.59541 h 26.41328 z"
     style="font-style:normal;font-variant:normal;font-weight:bold;font-stretch:normal;font-size:153.67727661px;line-height:1.25;font-family:'Trebuchet MS';-inkscape-font-specification:'Trebuchet MS Bold';letter-spacing:0px;word-spacing:0px;fill:#ffffff;fill-opacity:1;stroke:#ffffff;stroke-width:6;stroke-miterlimit:4;stroke-dasharray:none;stroke-opacity:1"
     id="path8520"
     inkscape:connector-curvature="0" /><path
     d="m 854.07802,289.4482 -53.35181,-69.55997 v 68.13426 H 781.96678 V 178.01717 h 9.37972 l 51.92612,66.33336 v -66.33336 h 18.7594 V 289.4482 Z"
     style="font-style:normal;font-variant:normal;font-weight:bold;font-stretch:normal;font-size:153.67727661px;line-height:1.25;font-family:'Trebuchet MS';-inkscape-font-specification:'Trebuchet MS Bold';letter-spacing:0px;word-spacing:0px;fill:#ffffff;fill-opacity:1;stroke:#ffffff;stroke-width:6;stroke-miterlimit:4;stroke-dasharray:none;stroke-opacity:1"
     id="path8522"
     inkscape:connector-curvature="0" /><path
     d="m 948.77562,287.94745 -8.029,-22.28621 h -37.6689 l -7.6539,22.28621 h -21.6859 l 43.822,-111.43103 h 8.5543 l 44.1973,111.43103 z m -26.9385,-77.81413 -13.2067,40.59541 h 26.4133 z"
     style="font-style:normal;font-variant:normal;font-weight:bold;font-stretch:normal;font-size:153.67727661px;line-height:1.25;font-family:'Trebuchet MS';-inkscape-font-specification:'Trebuchet MS Bold';letter-spacing:0px;word-spacing:0px;fill:#ffffff;fill-opacity:1;stroke:#ffffff;stroke-width:6;stroke-miterlimit:4;stroke-dasharray:none;stroke-opacity:1"
     id="path8524"
     inkscape:connector-curvature="0" /><path
     d="M 981.86732,287.94745 V 178.01717 h 19.50978 v 92.59656 h 49.675 v 17.33372 z"
     style="font-style:normal;font-variant:normal;font-weight:bold;font-stretch:normal;font-size:153.67727661px;line-height:1.25;font-family:'Trebuchet MS';-inkscape-font-specification:'Trebuchet MS Bold';letter-spacing:0px;word-spacing:0px;fill:#ffffff;fill-opacity:1;stroke:#ffffff;stroke-width:6;stroke-miterlimit:4;stroke-dasharray:none;stroke-opacity:1"
     id="path8526"
     inkscape:connector-curvature="0" /><path
     d="M 1067.1852,287.94745 V 178.01717 h 19.5098 v 109.93028 z"
     style="font-style:normal;font-variant:normal;font-weight:bold;font-stretch:normal;font-size:153.67727661px;line-height:1.25;font-family:'Trebuchet MS';-inkscape-font-specification:'Trebuchet MS Bold';letter-spacing:0px;word-spacing:0px;fill:#ffffff;fill-opacity:1;stroke:#ffffff;stroke-width:6;stroke-miterlimit:4;stroke-dasharray:none;stroke-opacity:1"
     id="path8528"
     inkscape:connector-curvature="0" /><path
     d="m 1104.4789,287.94745 v -6.30317 l 45.8481,-86.29339 h -45.0977 v -17.33372 h 71.661 v 6.30317 l -45.9981,86.29339 h 47.649 v 17.33372 z"
     style="font-style:normal;font-variant:normal;font-weight:bold;font-stretch:normal;font-size:153.67727661px;line-height:1.25;font-family:'Trebuchet MS';-inkscape-font-specification:'Trebuchet MS Bold';letter-spacing:0px;word-spacing:0px;fill:#ffffff;fill-opacity:1;stroke:#ffffff;stroke-width:6;stroke-miterlimit:4;stroke-dasharray:none;stroke-opacity:1"
     id="path8530"
     inkscape:connector-curvature="0" /><path
     d="m 1260.0322,287.94745 -8.0291,-22.28621 h -37.6689 l -7.6539,22.28621 h -21.6859 l 43.8221,-111.43103 h 8.5543 l 44.1972,111.43103 z m -26.9386,-77.81413 -13.2066,40.59541 h 26.4133 z"
     style="font-style:normal;font-variant:normal;font-weight:bold;font-stretch:normal;font-size:153.67727661px;line-height:1.25;font-family:'Trebuchet MS';-inkscape-font-specification:'Trebuchet MS Bold';letter-spacing:0px;word-spacing:0px;fill:#ffffff;fill-opacity:1;stroke:#ffffff;stroke-width:6;stroke-miterlimit:4;stroke-dasharray:none;stroke-opacity:1"
     id="path8532"
     inkscape:connector-curvature="0" /><path
     d="m 1317.5111,287.94745 h -24.3873 V 178.09221 q 23.3367,-0.82542 29.3398,-0.82542 24.012,0 38.0441,14.1071 14.1071,14.03205 14.1071,37.29375 0,59.27981 -57.1037,59.27981 z m -4.8775,-92.82168 v 75.03774 q 4.7274,0.45022 10.2051,0.45022 14.7825,0 23.1117,-10.73039 8.4042,-10.7304 8.4042,-30.0151 0,-35.26773 -32.7915,-35.26773 -3.1516,0 -8.9295,0.52526 z"
     style="font-style:normal;font-variant:normal;font-weight:bold;font-stretch:normal;font-size:153.67727661px;line-height:1.25;font-family:'Trebuchet MS';-inkscape-font-specification:'Trebuchet MS Bold';letter-spacing:0px;word-spacing:0px;fill:#ffffff;fill-opacity:1;stroke:#ffffff;stroke-width:6;stroke-miterlimit:4;stroke-dasharray:none;stroke-opacity:1"
     id="path8534"
     inkscape:connector-curvature="0" /><path
     d="m 1386.6208,232.04434 q 0,-23.48681 12.8314,-39.69496 12.9065,-16.28319 34.4424,-16.28319 23.7119,0 36.2432,14.7074 12.5313,14.70739 12.5313,41.27075 0,26.56336 -13.1316,42.1712 -13.0566,15.60785 -37.1437,15.60785 -22.1361,0 -33.9921,-15.45777 -11.7809,-15.45777 -11.7809,-42.32128 z m 20.2602,0 q 0,19.2847 6.5283,29.86502 6.5282,10.58032 18.9845,10.58032 14.6324,0 22.2862,-10.35521 7.7289,-10.35521 7.7289,-30.09013 0,-38.64443 -28.5143,-38.64443 -13.0566,0 -20.0351,10.50528 -6.9785,10.43024 -6.9785,28.13915 z"
     style="font-style:normal;font-variant:normal;font-weight:bold;font-stretch:normal;font-size:153.67727661px;line-height:1.25;font-family:'Trebuchet MS';-inkscape-font-specification:'Trebuchet MS Bold';letter-spacing:0px;word-spacing:0px;fill:#ffffff;fill-opacity:1;stroke:#ffffff;stroke-width:6;stroke-miterlimit:4;stroke-dasharray:none;stroke-opacity:1"
     id="path8536"
     inkscape:connector-curvature="0" /><path
     d="m 1561.9089,287.94745 -29.3397,-45.39783 q -4.4273,-0.075 -12.3813,-0.52526 v 45.92309 h -20.2601 V 178.01717 q 1.6508,0 12.6813,-0.52526 11.0306,-0.6003 17.784,-0.6003 41.871,0 41.871,32.4163 0,9.7549 -5.7779,17.78394 -5.7779,8.02904 -14.5573,11.3307 l 32.4913,49.5249 z m -41.721,-92.97175 v 30.54036 q 5.4028,0.45022 8.2542,0.45022 12.2311,0 17.859,-3.45173 5.7028,-3.45174 5.7028,-13.43176 0,-8.10407 -6.078,-11.33069 -6.0781,-3.22663 -19.1346,-3.22663 -3.1516,0 -6.6034,0.45023 z"
     style="font-style:normal;font-variant:normal;font-weight:bold;font-stretch:normal;font-size:153.67727661px;line-height:1.25;font-family:'Trebuchet MS';-inkscape-font-specification:'Trebuchet MS Bold';letter-spacing:0px;word-spacing:0px;fill:#ffffff;fill-opacity:1;stroke:#ffffff;stroke-width:6;stroke-miterlimit:4;stroke-dasharray:none;stroke-opacity:1"
     id="path8538"
     inkscape:connector-curvature="0" /><path
     d="m 1613.3848,195.35089 v 25.73794 h 36.3183 v 16.58334 h -36.3183 v 32.94156 h 49.8251 v 17.33372 H 1593.875 V 178.01717 h 70.1603 v 17.33372 z"
     style="font-style:normal;font-variant:normal;font-weight:bold;font-stretch:normal;font-size:153.67727661px;line-height:1.25;font-family:'Trebuchet MS';-inkscape-font-specification:'Trebuchet MS Bold';letter-spacing:0px;word-spacing:0px;fill:#ffffff;fill-opacity:1;stroke:#ffffff;stroke-width:6;stroke-miterlimit:4;stroke-dasharray:none;stroke-opacity:1"
     id="path8540"
     inkscape:connector-curvature="0" /><path
     d="m 1675.9663,281.86939 7.2036,-17.48379 q 11.5558,8.10408 22.7365,8.10408 17.1836,0 17.1836,-12.00604 0,-5.62783 -4.052,-10.7304 -4.0521,-5.10256 -16.7334,-11.40573 -12.6064,-6.37821 -17.0336,-10.43025 -4.3522,-4.12707 -6.7534,-9.7549 -2.3262,-5.62783 -2.3262,-12.45627 0,-12.75641 9.3047,-21.16064 9.3797,-8.40422 24.0121,-8.40422 19.0596,0 27.9891,7.12858 l -5.928,16.80845 q -10.2802,-7.35369 -21.6859,-7.35369 -6.7534,0 -10.5053,3.60181 -3.6769,3.52677 -3.6769,9.22964 0,9.45475 20.9356,19.65989 11.0305,5.40271 15.908,9.98001 4.8774,4.50227 7.4287,10.58032 2.5513,6.00302 2.5513,13.43176 0,13.35671 -10.5803,21.98605 -10.5053,8.62934 -28.2142,8.62934 -15.3828,0 -27.764,-7.954 z"
     style="font-style:normal;font-variant:normal;font-weight:bold;font-stretch:normal;font-size:153.67727661px;line-height:1.25;font-family:'Trebuchet MS';-inkscape-font-specification:'Trebuchet MS Bold';letter-spacing:0px;word-spacing:0px;fill:#ffffff;fill-opacity:1;stroke:#ffffff;stroke-width:6;stroke-miterlimit:4;stroke-dasharray:none;stroke-opacity:1"
     id="path8542"
     inkscape:connector-curvature="0" /></g><g
   id="g4791"
   transform="translate(-244.60076)"><path
     d="m 979.01582,480.04405 -29.3397,-45.39783 q -4.4272,-0.075 -12.3812,-0.52527 v 45.9231 h -20.2602 V 370.11377 q 1.6508,0 12.6814,-0.52527 11.0305,-0.6003 17.7839,-0.6003 41.8711,0 41.8711,32.4163 0,9.75491 -5.778,17.78394 -5.7779,8.02904 -14.5573,11.3307 l 32.49138,49.52491 z m -41.7209,-92.97176 v 30.54036 q 5.4027,0.45023 8.2541,0.45023 12.2312,0 17.859,-3.45174 5.7029,-3.45173 5.7029,-13.43175 0,-8.10408 -6.0781,-11.3307 -6.078,-3.22662 -19.1346,-3.22662 -3.1516,0 -6.6033,0.45022 z"
     style="font-style:normal;font-variant:normal;font-weight:bold;font-stretch:normal;font-size:153.67727661px;line-height:1.25;font-family:'Trebuchet MS';-inkscape-font-specification:'Trebuchet MS Bold';letter-spacing:0px;word-spacing:0px;fill:#ffffff;fill-opacity:1;stroke:#ffffff;stroke-width:6;stroke-miterlimit:4;stroke-dasharray:none;stroke-opacity:1"
     id="path8548"
     inkscape:connector-curvature="0" /><path
     d="m 1030.4917,387.44748 v 25.73795 h 36.3183 v 16.58333 h -36.3183 v 32.94157 h 49.8251 v 17.33372 h -69.3349 V 370.11377 h 70.1603 v 17.33371 z"
     style="font-style:normal;font-variant:normal;font-weight:bold;font-stretch:normal;font-size:153.67727661px;line-height:1.25;font-family:'Trebuchet MS';-inkscape-font-specification:'Trebuchet MS Bold';letter-spacing:0px;word-spacing:0px;fill:#ffffff;fill-opacity:1;stroke:#ffffff;stroke-width:6;stroke-miterlimit:4;stroke-dasharray:none;stroke-opacity:1"
     id="path8550"
     inkscape:connector-curvature="0" /><path
     d="m 1122.7131,480.04405 h -24.3873 V 370.1888 q 23.3368,-0.82541 29.3398,-0.82541 24.0121,0 38.0441,14.10709 14.1071,14.03206 14.1071,37.29376 0,59.27981 -57.1037,59.27981 z m -4.8775,-92.82168 v 75.03773 q 4.7274,0.45023 10.2052,0.45023 14.7824,0 23.1116,-10.7304 8.4042,-10.73039 8.4042,-30.01509 0,-35.26773 -32.7915,-35.26773 -3.1516,0 -8.9295,0.52526 z"
     style="font-style:normal;font-variant:normal;font-weight:bold;font-stretch:normal;font-size:153.67727661px;line-height:1.25;font-family:'Trebuchet MS';-inkscape-font-specification:'Trebuchet MS Bold';letter-spacing:0px;word-spacing:0px;fill:#ffffff;fill-opacity:1;stroke:#ffffff;stroke-width:6;stroke-miterlimit:4;stroke-dasharray:none;stroke-opacity:1"
     id="path8552"
     inkscape:connector-curvature="0" /><path
     d="m 1216.5853,387.44748 v 25.73795 h 36.3183 v 16.58333 h -36.3183 v 32.94157 h 49.8251 v 17.33372 h -69.3349 V 370.11377 h 70.1603 v 17.33371 z"
     style="font-style:normal;font-variant:normal;font-weight:bold;font-stretch:normal;font-size:153.67727661px;line-height:1.25;font-family:'Trebuchet MS';-inkscape-font-specification:'Trebuchet MS Bold';letter-spacing:0px;word-spacing:0px;fill:#ffffff;fill-opacity:1;stroke:#ffffff;stroke-width:6;stroke-miterlimit:4;stroke-dasharray:none;stroke-opacity:1"
     id="path8554"
     inkscape:connector-curvature="0" /><path
     d="m 1279.1668,473.96599 7.2036,-17.48379 q 11.5558,8.10407 22.7364,8.10407 17.1837,0 17.1837,-12.00603 0,-5.62783 -4.0521,-10.7304 -4.052,-5.10257 -16.7334,-11.40574 -12.6063,-6.3782 -17.0336,-10.43024 -4.3522,-4.12708 -6.7534,-9.75491 -2.3261,-5.62783 -2.3261,-12.45626 0,-12.75641 9.3046,-21.16064 9.3798,-8.40423 24.0121,-8.40423 19.0596,0 27.9891,7.12859 l -5.928,16.80845 q -10.2802,-7.3537 -21.6859,-7.3537 -6.7534,0 -10.5053,3.60181 -3.6768,3.52678 -3.6768,9.22965 0,9.45475 20.9355,19.65988 11.0306,5.40272 15.908,9.98002 4.8775,4.50226 7.4287,10.58032 2.5513,6.00302 2.5513,13.43175 0,13.35672 -10.5803,21.98606 -10.5053,8.62934 -28.2142,8.62934 -15.3827,0 -27.7639,-7.954 z"
     style="font-style:normal;font-variant:normal;font-weight:bold;font-stretch:normal;font-size:153.67727661px;line-height:1.25;font-family:'Trebuchet MS';-inkscape-font-specification:'Trebuchet MS Bold';letter-spacing:0px;word-spacing:0px;fill:#ffffff;fill-opacity:1;stroke:#ffffff;stroke-width:6;stroke-miterlimit:4;stroke-dasharray:none;stroke-opacity:1"
     id="path8556"
     inkscape:connector-curvature="0" /></g></svg>