<?xml version="1.0" encoding="UTF-8" standalone="no"?>
<svg
   xmlns:dc="http://purl.org/dc/elements/1.1/"
   xmlns:cc="http://creativecommons.org/ns#"
   xmlns:rdf="http://www.w3.org/1999/02/22-rdf-syntax-ns#"
   xmlns:svg="http://www.w3.org/2000/svg"
   xmlns="http://www.w3.org/2000/svg"
   xmlns:sodipodi="http://sodipodi.sourceforge.net/DTD/sodipodi-0.dtd"
   xmlns:inkscape="http://www.inkscape.org/namespaces/inkscape"
   width="1540"
   height="640"
   preserveAspectRatio="xMidYMid meet"
   version="1.1"
   id="svg19"
   sodipodi:docname="audit_trail_on.svg"
   inkscape:version="0.92.5 (2060ec1f9f, 2020-04-08)">
  <metadata
     id="metadata23">
    <rdf:RDF>
      <cc:Work
         rdf:about="">
        <dc:format>image/svg+xml</dc:format>
        <dc:type
           rdf:resource="http://purl.org/dc/dcmitype/StillImage" />
        <dc:title></dc:title>
      </cc:Work>
    </rdf:RDF>
  </metadata>
  <sodipodi:namedview
     pagecolor="#ffffff"
     bordercolor="#666666"
     borderopacity="1"
     objecttolerance="10"
     gridtolerance="10"
     guidetolerance="10"
     inkscape:pageopacity="0"
     inkscape:pageshadow="2"
     inkscape:window-width="1920"
     inkscape:window-height="1017"
     id="namedview21"
     showgrid="false"
     inkscape:pagecheckerboard="true"
     inkscape:zoom="0.23766234"
     inkscape:cx="770"
     inkscape:cy="320"
     inkscape:window-x="-8"
     inkscape:window-y="-8"
     inkscape:window-maximized="1"
     inkscape:current-layer="svg19" />
  <defs
     id="defs5">
    <path
       id="ebhoJeEao"
       d="m441,66.15c0,-11.65 9.85998,-21.15 22,-21.15c11,0 99,0 110,0c12.12,0 22,9.5 22,21.15c0,50.77 0,456.93002 0,507.69998c0,11.65002 -9.88,21.15002 -22,21.15002c-7.33002,0 -44,0 -110,0c-14.67001,-6.33002 -22,-13.38 -22,-21.15002c0,-50.76996 0,-456.92998 0,-507.69998z" />
    <path
       id="awQeqoTxE"
       d="m256,191.83c0,-11.66 9.85998,-21.16 22,-21.16c11,0 99,0 110,0c12.12,0 22,9.5 22,21.16c0,38.06999 0,342.69002 0,380.76998c0,11.65002 -9.88,21.15002 -22,21.15002c-7.32999,0 -44,0 -110,0c-14.67001,-6.33002 -22,-13.38 -22,-21.15002c0,-38.07996 0,-342.69999 0,-380.76998z" />
    <path
       id="a20riFUTuB"
       d="m45,320c0,-11.66 9.86,-21.14999 22,-21.14999c11,0 99,0 110,0c12.11999,0 22,9.48999 22,21.14999c0,25.38 0,228.46002 0,253.84998c0,11.65002 -9.88001,21.15002 -22,21.15002c-7.33,0 -44,0 -110,0c-14.67,-6.33002 -22,-13.38 -22,-21.15002c0,-25.38996 0,-228.46998 0,-253.84998z" />
  </defs>
  <text
     style="font-weight:bold;font-size:180px;font-family:'Trebuchet MS', Gadget, sans-serif;text-anchor:start;fill:#ffffff;fill-opacity:1;"
     font-weight="bold"
     xml:space="preserve"
     font-size="180"
     id="svg_2"
     y="301.64694"
     x="793.52496">AUDIT</text>
  <g
     id="g12"
     style="fill:#ffffff;fill-opacity:1">
    <g
       id="svg_23"
       style="fill:#ffffff;fill-opacity:1">
      <path
         d="m 560.17234,494.063 -126.914,-126.91 c 18.263,-30.165 28.976,-65.391 28.976,-103.153 0,-110.281 -89.719,-200 -200,-200 -110.281,0 -200,89.719 -200,200 0,110.281 89.719,200 200,200 37.762,0 72.984,-10.711 103.148,-28.973 l 126.914,126.91 c 9.376,9.376 21.657,14.063 33.938,14.063 12.281,0 24.563,-4.688 33.938,-14.063 18.75,-18.742 18.75,-49.132 0,-67.874 z M 126.23434,264 c 0,-74.992 61.016,-136 136,-136 74.984,0 136,61.008 136,136 0,74.992 -61.016,136 -136,136 -74.984,0 -136,-61.008 -136,-136 z"
         id="svg_24"
         inkscape:connector-curvature="0"
         style="fill:#ffffff;fill-opacity:1" />
    </g>
    <path
       d="m 194.69518,237.30327 c 9.74707,-4.09748 20.59982,4.22112 27.42307,15.02714 0.0905,5.68463 2.84046,10.67597 6.19887,14.68095 l -13.057,9.34251 C 197.68996,270.18659 180.21736,247.21451 191.714,238.9875 a 14.86274,11.51076 0 0 1 2.98827,-1.6792 l -0.007,-0.005 z m 38.21964,34.09681 -13.29528,9.50644 c 16.24808,22.35892 38.98829,-0.14653 13.29469,-9.50644 z m 51.83658,52.16638 a 14.86214,11.51031 0 0 0 -2.98827,1.67965 c -11.49664,8.22655 5.97537,31.19817 23.54612,37.36545 l 13.057,-9.34251 c -3.35841,-4.00498 -6.1019,-8.99586 -6.20005,-14.68095 -6.82206,-10.80557 -17.67481,-19.12416 -27.42307,-15.02714 l 0.008,0.005 z m 38.21964,34.09773 -13.29587,9.50507 c 16.24808,22.34839 38.98948,-0.15203 13.28819,-9.50553 l 0.008,4.6e-4 z m -38.53538,-108.9541 c -8.67629,5.34852 -3.02257,16.33268 7.1514,25.41554 6.71682,2.28686 11.5806,6.1943 15.03006,10.15028 l 16.22029,-5.66311 c -0.47597,-14.93556 -20.95695,-36.36352 -35.22487,-31.37676 a 14.86214,11.51031 0 0 0 -3.16329,1.47359 l -0.0136,4.6e-4 z m 25.61083,40.56266 c 1.09148,21.97472 36.72196,14.54495 16.48459,-5.7666 z M 187.83113,168.64578 c -6.68962,6.84913 2.30181,16.38167 15.04366,23.24774 7.24305,0.92134 13.20423,3.79342 17.80903,6.94758 l 13.88182,-8.59976 c -5.21263,-14.37781 -31.91494,-31.22565 -44.13825,-23.63927 a 14.86214,11.51031 0 0 0 -2.59685,2.03225 l 5.9e-4,0.0114 z m 37.78506,34.3734 c 8.08856,21.08086 40.23469,7.04512 14.12779,-8.75179 l -14.12069,8.75179 z"
       stroke="null"
       id="path10"
       inkscape:connector-curvature="0"
       style="fill:#ffffff;fill-opacity:1" />
  </g>
  <text
     style="font-weight:bold;font-size:150px;font-family:'Trebuchet MS', Gadget, sans-serif;text-anchor:start;fill:#ffffff;fill-opacity:1;"
     font-weight="bold"
     xml:space="preserve"
     font-size="150"
     id="svg_25"
     y="493.41193"
     x="793.52588">TRAIL</text>
</svg>
