<?xml version="1.0" encoding="UTF-8" standalone="no"?>
<svg
   xmlns:dc="http://purl.org/dc/elements/1.1/"
   xmlns:cc="http://creativecommons.org/ns#"
   xmlns:rdf="http://www.w3.org/1999/02/22-rdf-syntax-ns#"
   xmlns:svg="http://www.w3.org/2000/svg"
   xmlns="http://www.w3.org/2000/svg"
   xmlns:xlink="http://www.w3.org/1999/xlink"
   xmlns:sodipodi="http://sodipodi.sourceforge.net/DTD/sodipodi-0.dtd"
   xmlns:inkscape="http://www.inkscape.org/namespaces/inkscape"
   width="1540"
   height="640"
   preserveAspectRatio="xMidYMid meet"
   version="1.1"
   id="svg107"
   sodipodi:docname="esquematica_on.svg"
   inkscape:version="0.92.5 (2060ec1f9f, 2020-04-08)">
  <metadata
     id="metadata111">
    <rdf:RDF>
      <cc:Work
         rdf:about="">
        <dc:format>image/svg+xml</dc:format>
        <dc:type
           rdf:resource="http://purl.org/dc/dcmitype/StillImage" />
        <dc:title></dc:title>
      </cc:Work>
    </rdf:RDF>
  </metadata>
  <sodipodi:namedview
     pagecolor="#ffffff"
     bordercolor="#666666"
     borderopacity="1"
     objecttolerance="10"
     gridtolerance="10"
     guidetolerance="10"
     inkscape:pageopacity="0"
     inkscape:pageshadow="2"
     inkscape:window-width="1920"
     inkscape:window-height="1017"
     id="namedview109"
     showgrid="false"
     inkscape:pagecheckerboard="true"
     inkscape:zoom="0.6722106"
     inkscape:cx="895.4111"
     inkscape:cy="289.21837"
     inkscape:window-x="-8"
     inkscape:window-y="-8"
     inkscape:window-maximized="1"
     inkscape:current-layer="svg107" />
  <defs
     id="defs20">
    <path
       d="m202.279999,64.150002c-1.520004,3.5 -1.869995,9.32 -1.869995,28.900002c0,1.629997 0,9.789993 0,24.469994l26.220001,0l26.220001,0c0,-14.68 0,-22.839996 0,-24.469994c0,-26.690002 -0.580002,-30.070004 -6.76001,-36.470001c-6.179993,-6.530003 -17.25,-10.030003 -25.289993,-7.93c-8.5,2.219997 -15.380005,7.93 -18.520004,15.5l0,-0.000001z"
       id="cE6Zx8PcR" />
    <path
       d="m291.649994,61.349998c-3.259979,5.480003 -3.259979,5.599998 -3.609985,30.770004c-0.02002,1.689995 -0.140015,10.159996 -0.350006,25.399994l26.799988,0l26.920013,0c0,-14.189995 0,-22.079994 0,-23.659996c-0.119995,-25.279999 -0.700012,-29.010002 -6.290009,-36.240002c-5.709991,-7.57 -18.880005,-11.529999 -28.320007,-8.389999c-6.98999,2.220001 -11.539978,5.950001 -15.149994,12.119999z"
       id="c14LSSc4h1" />
    <path
       d="m378.230011,64.150002c-1.51001,3.5 -1.860016,9.32 -1.860016,28.900002c0,1.629997 0,9.789993 0,24.469994l26.209991,0l26.220001,0c0,-14.68 0,-22.839996 0,-24.469994c0,-26.690002 -0.579987,-30.070004 -6.759979,-36.470001c-6.170013,-6.530003 -17.240021,-10.030003 -25.279999,-7.93c-8.51001,2.219997 -15.380005,7.93 -18.529999,15.5l0.000001,-0.000001z"
       id="eqt1vuvid" />
    <path
       d="m146.929993,160.279999c-0.819992,2.800003 -1.279999,22.490005 -1.279999,54.190002c0,3.319992 0,19.949997 0,49.869995l20.389999,0l20.389999,0c0,-18.809998 0,-29.25 0,-31.339996c0,-30.529999 0.12001,-31.350006 2.680008,-35.080002c1.399994,-2.099991 4.080002,-5.009995 5.830002,-6.289993c3.139999,-2.330002 4.889999,-2.450012 37.050003,-2.800003c2.25,-0.020004 13.470001,-0.139999 33.680008,-0.350006l0,-22.019989l0,-22.139999c-30.210007,0 -46.990021,0 -50.340012,0c-40.440002,0.119995 -51.389999,0.469986 -55.119995,1.75c-5.830002,2.089996 -11.650009,8.269989 -13.280014,14.209991l0.000001,0z"
       id="h1xnoRUC0v" />
    <path
       d="m281.859985,197.800003c-5.009979,8.979996 -4.539978,8.860001 -42.639984,9.209991c-2.270004,0.020004 -13.610001,0.139999 -34.029999,0.350006c-0.210007,19.160004 -0.330002,29.800003 -0.350006,31.929993c-0.349991,30.060013 -0.470001,32.039993 -2.800003,35.069992c-5.819992,7.810028 -6.519989,8.040009 -32.619995,8.390015c-1.589996,0.029999 -9.509995,0.140015 -23.770004,0.350006l0,30.880005l0,30.759979c43.410004,0 67.529999,0 72.360001,0c50.569992,0 73.060013,-0.349976 74.810013,-1.279999c3.609985,-1.859985 27.5,-25.519989 29.47998,-29.25c1.050018,-2.089996 1.630005,-6.98999 1.630005,-15.259979c0,-18.880005 0.700012,-20.390015 21.440002,-41.370026c24.119995,-24.469986 22.959991,-23.999985 55.820007,-24.469986c1.679993,-0.029999 10.109985,-0.180008 25.279999,-0.460007l0,-44.169998l0,-44.159988l-30.76001,0l-30.759979,0c-0.279999,13.069992 -0.440002,20.339996 -0.470001,21.789993c-0.350006,21.210007 -0.470001,22.139999 -3.5,27.729996c-2.089996,3.960007 -13.400024,16.080002 -35.650024,38.339996c-2.169983,2.160004 -13.009979,12.960007 -32.509979,32.390015c0.910004,1.959991 1.410004,3.049988 1.509979,3.269989c4.550018,9.089996 4.080017,23.070007 -1.159973,31.920013c-12.350006,20.75 -39.160019,25.169983 -55.820007,9.089996c-7.920013,-7.570007 -10.490005,-13.279999 -11.070007,-24.230011c-0.459991,-8.279999 -0.119995,-10.369995 2.330002,-15.850006c4.080002,-8.73999 9.210007,-14.219986 17.479996,-18.409988c5.940002,-2.919998 8.51001,-3.5 15.380005,-3.5c5.600006,0 9.910004,0.819992 13.049988,2.220001c0.320007,0.139999 1.910004,0.880005 4.779999,2.209991l33.090027,-33.089996l33.099976,-33.099991l0.350006,-20.389999l0.350006,-20.389999l-30.880005,0l-31,0l0,24.589996c-0.149994,16.619995 -0.970001,26.25 -2.450012,28.889999l-0.000003,0.000001z"
       id="b2mvBiEkrA" />
    <path
       d="m442.790009,242.080002c-1.290009,2.569992 -4.200012,5.830002 -6.649994,7.229996c-4.190002,2.680008 -5.590027,2.800003 -32.040009,3.380005c-1.850006,0.039993 -11.089996,0.229996 -27.730011,0.580002l-16.549988,16.659988l-16.660004,16.550018c-0.350006,8.949982 -0.550018,13.919983 -0.589996,14.919983c-0.580017,11.880005 -1.160004,15.959991 -3.26001,20.5c-3.380005,7.580017 -28.779999,33.450012 -36.940002,37.76001c-0.389984,0.209991 -2.329987,1.26001 -5.820007,3.139984l-75.399994,0.350006l-75.5,0.350006l0,30.769989l0,30.880005c21.600006,0 33.600006,0 36,0c22.26001,0 37.290009,-0.470001 39.270004,-1.169983c1.75,-0.700012 6.990005,-4.890015 11.540009,-9.200012c11.87999,-11.309998 13.75,-11.769989 44.740005,-11.769989c1.679993,0 10.069977,0 25.169983,0c1.26001,-3.080017 1.959991,-4.790009 2.100006,-5.130005c5.23999,-12.700012 16.660004,-20.630005 31.230011,-21.440002c7.809998,-0.470001 9.669983,-0.119995 16.079987,2.679993c22.48999,10.140015 28.549988,36.700012 12.929993,56.51001c-2.209991,2.919983 -6.519989,6.059998 -11.419983,8.389984c-15.140015,7.460022 -31.110016,4.309998 -42.640015,-8.5c-2.919983,-3.149994 -5.829987,-7.579987 -6.529999,-9.789978c-0.089996,-0.27002 -0.559998,-1.630005 -1.399994,-4.080017l-24.929993,0l-24.940002,0c-5.660004,5.240021 -8.810013,8.160004 -9.440002,8.740021c-14.680008,13.519989 -14.330002,13.399994 -59.889999,13.399994c-2.529999,0 -15.150009,0 -37.87001,0c0,6.220001 0,9.679993 0,10.369995c0,5.589996 0.580002,12 1.279999,14.220001c1.860001,5.23999 6.410004,10.130005 12.12001,12.809998c4.419998,2.100006 10.599991,2.220001 136.099991,2.220001c8.75,0 52.529999,0 131.320007,0c0,-17.76001 0,-27.630005 0,-29.600006c0,-16.309998 -0.459991,-30.880005 -1.049988,-32.389984c-0.580017,-1.52002 -5.590027,-7.460022 -11.070007,-13.170013c-13.630005,-14.329987 -14.679993,-17.130005 -14.679993,-41.130005c0,-1.220001 0,-7.320007 0,-18.299988c-3.350006,-1.330017 -5.220001,-2.059998 -5.590027,-2.210022c-3.029999,-1.279999 -7.929993,-4.899994 -10.959991,-7.929993c-17.119995,-17.589996 -12.109985,-46.019989 10.140015,-56.97998c6.410004,-3.140015 8.859985,-3.730011 15.72998,-3.610016c14.100006,0 26.339996,7.809998 32.630005,20.630005c3.959991,8.149994 4.080017,22.019989 0.119995,30.059998c-3.619995,7.339996 -11.539978,15.149994 -18.179993,17.829987c-0.350006,0.150024 -2.100006,0.880005 -5.23999,2.210022c0,10.350006 0,16.100006 0,17.25c0,12.699982 0.459991,18.059998 1.630005,20.389984c0.929993,1.75 5.470001,6.76001 10.019989,11.300018c4.540009,4.429993 9.790009,10.720001 11.420013,13.98999c0.209991,0.380005 1.259979,2.329987 3.139984,5.820007l0.350006,32.859985l0.350006,32.980011c5.73999,0 8.919983,0 9.559998,0c5.23999,0 11.649994,-0.580017 14.209991,-1.279999c5.950012,-1.630005 12.820007,-8.51001 14.450012,-14.450012c1.75,-6.529999 1.75,-301.099991 0,-307.62999c-1.630005,-5.940002 -8.5,-12.820007 -14.450012,-14.449997c-2.559998,-0.700012 -8.970001,-1.279999 -14.209991,-1.279999c-0.649994,0 -3.869995,0 -9.670013,0l0,46.609985c-0.079987,31.310013 -0.859985,48.360001 -2.329987,51.150009z"
       id="a3jNkynn94" />
    <path
       d="m65.480003,249.660004c3.489998,1.509995 9.32,1.860001 28.889999,1.860001c1.639999,0 9.790001,0 24.469994,0l0,-26.220001l0,-26.210007c-14.82,0 -23.049995,0 -24.699997,0c-19.57,0.110001 -25.629997,0.460007 -28.900002,1.860001c-20.859997,9.089996 -20.739998,39.970001 0.240005,48.710007l0.000001,-0.000001z"
       id="f8MN5bKiE" />
    <path
       d="m510.369995,251.520004c14.679993,0 22.840027,0 24.470032,0c26.679993,0 30.059998,-0.580002 36.469971,-6.76001c13.869995,-13.049988 9.669983,-36.580002 -7.570007,-43.809998c-3.5,-1.509995 -9.320007,-1.860001 -28.899963,-1.860001c-1.630005,0 -9.790039,0 -24.470032,0l0,26.210007l0,26.220001l-0.000001,0.000001z"
       id="b91OuBpfN" />
    <path
       d="m245.039993,281.589996c-0.349991,5.119995 0,7.450012 1.87001,10.369995c6.410004,10.25 23.070007,10.25 29.23999,0c2.800018,-4.549988 3.029999,-13.75 0.470001,-18.059998c-4.540009,-7.690002 -16.199982,-10.839996 -23.190002,-6.299988c-6.289993,3.970001 -8.039993,6.880005 -8.389999,13.98999l0,0.000001z"
       id="btx9cjPgx" />
    <path
       d="m49.630001,313.279999c0,11.649994 6.759998,21.209991 17.59,25.170013c3.150002,1.049988 11.419998,1.519989 28.089996,1.629974c1.57,0 9.410004,0 23.529999,0l0,-26.799988l0,-26.799988c-14.119995,0 -21.959999,0 -23.529999,0c-16.669998,0.119995 -24.939995,0.579987 -28.089996,1.629974c-10.830002,3.960022 -17.59,13.52002 -17.59,25.170013l0,0.000002z"
       id="a11L235eLf" />
    <path
       d="m510.369995,340.200012l25.400024,-0.350006l25.289978,-0.350006c3.349976,-1.959991 5.220032,-3.049988 5.590027,-3.26001c17.47998,-10.259979 17.47998,-35.660004 0,-45.910004c-0.369995,-0.220001 -2.240051,-1.309998 -5.590027,-3.269989l-25.289978,-0.350006l-25.400024,-0.350006l0,26.920013l0,26.920013l0,0.000001z"
       id="bnwsXu48i" />
    <path
       d="m391.51001,313.859985c0,5.01001 3.5,11.190002 8.039978,14.220001c8.279999,5.590027 20.400024,2.330017 24.820007,-6.639984c5.830017,-11.420013 -2.440002,-24.470001 -15.380005,-24.470001c-3.72998,0 -6.759979,0.809998 -9.440002,2.679993c-4.539978,3.029999 -8.039978,9.200012 -8.039978,14.209991z"
       id="b3pCvofp50" />
    <path
       d="m65.480003,425.609985c3.489998,1.52002 9.32,1.870026 28.889999,1.870026c1.639999,0 9.790001,0 24.469994,0l0,-26.220001l0,-26.220001c-14.82,0 -23.049995,0 -24.699997,0c-19.57,0.119995 -25.629997,0.470001 -28.900002,1.859985c-20.859997,9.089996 -20.739998,39.970001 0.240005,48.709991l0.000001,0z"
       id="dCrm0OSR4" />
    <path
       d="m510.369995,427.480011c14.679993,0 22.840027,0 24.470032,0c26.679993,0 30.059998,-0.589996 36.469971,-6.76001c13.869995,-13.049988 9.669983,-36.589996 -7.570007,-43.820007c-3.5,-1.509979 -9.320007,-1.859985 -28.899963,-1.859985c-1.630005,0 -9.790039,0 -24.470032,0l0,26.220001l0,26.220001l-0.000001,0z"
       id="a2O0b0EhVB" />
    <path
       d="m320.670013,410.579987c-0.820007,10.140015 4.419983,16.660004 14.909973,18.640015c5.480011,0.940002 13.75,-3.26001 16.779999,-8.619995c2.910004,-5.130005 2.800018,-12.929993 -0.349976,-18.059998c-4.540009,-7.220001 -15.610016,-9.899994 -22.839996,-5.480011c-6.060028,3.730011 -7.920013,6.76001 -8.5,13.519989z"
       id="coFiFTmgh" />
    <path
       d="m207.169998,569.98999c10.490005,11.070007 28.430008,11.070007 38.919998,0c6.180008,-6.409973 6.76001,-9.789978 6.76001,-36.47998c0,-1.630005 0,-9.780029 0,-24.470001l-26.220001,0l-26.220001,0l0,24.470001c0.389999,20.049988 2.639999,32.200012 6.759995,36.47998l-0.000001,0z"
       id="b547DWT3u" />
    <path
       d="m288.390015,559.72998c1.959991,3.360046 3.039978,5.220032 3.259979,5.600037c10.26001,17.469971 35.660004,17.469971 45.910004,0c0.220001,-0.380005 1.309998,-2.23999 3.269989,-5.600037l0.350006,-25.399963l0.339996,-25.290009l-26.910004,0l-26.919983,0l0.350006,25.290009l0.350006,25.399963l0.000001,0z"
       id="dPnWbKfxQ" />
    <path
       d="m383.119995,569.98999c10.48999,11.070007 28.440002,11.070007 38.920013,0c6.179993,-6.409973 6.759979,-9.789978 6.759979,-36.47998c0,-1.630005 0,-9.780029 0,-24.470001l-26.220001,0l-26.209991,0l0,24.470001c0.380005,20.049988 2.640015,32.200012 6.75,36.47998z"
       id="b9o8Gx2kj" />
  </defs>
  <g
     id="g25">
    <title
       id="title22">background</title>
    <rect
       x="-1"
       y="-1"
       width="1542"
       height="642"
       id="canvas_background"
       fill="none" />
  </g>
  <g
     id="svg_2"
     stroke="null">
    <g
       id="svg_8"
       stroke="null">
      <use
         height="100%"
         width="100%"
         style="fill:#ffffff"
         id="svg_9"
         xlink:href="#cE6Zx8PcR"
         y="-3.229893"
         x="-4.6300011"
         stroke="null"
         transform="matrix(1,0,0,1.0377085,0,-1.6968834)" />
      <g
         id="svg_10"
         stroke="null">
        <use
           height="100%"
           width="100%"
           style="fill-opacity:0;stroke:#000000;stroke-opacity:0"
           id="svg_11"
           xlink:href="#cE6Zx8PcR"
           y="-3.229893"
           x="-4.6300011"
           transform="matrix(1,0,0,1.0377085,0,-1.6968834)" />
      </g>
    </g>
    <g
       id="svg_12"
       stroke="null">
      <use
         height="100%"
         width="100%"
         style="fill:#ffffff"
         id="svg_13"
         xlink:href="#c14LSSc4h1"
         y="-3.229893"
         x="-4.6300011"
         stroke="null"
         transform="matrix(1,0,0,1.0377085,0,-1.6968834)" />
      <g
         id="svg_14"
         stroke="null">
        <use
           height="100%"
           width="100%"
           style="fill-opacity:0;stroke:#000000;stroke-opacity:0"
           id="svg_15"
           xlink:href="#c14LSSc4h1"
           y="-3.229893"
           x="-4.6300011"
           transform="matrix(1,0,0,1.0377085,0,-1.6968834)" />
      </g>
    </g>
    <g
       id="svg_16"
       stroke="null">
      <use
         height="100%"
         width="100%"
         style="fill:#ffffff"
         id="svg_17"
         xlink:href="#eqt1vuvid"
         y="-3.229893"
         x="-4.6300011"
         stroke="null"
         transform="matrix(1,0,0,1.0377085,0,-1.6968834)" />
      <g
         id="svg_18"
         stroke="null">
        <use
           height="100%"
           width="100%"
           style="fill-opacity:0;stroke:#000000;stroke-opacity:0"
           id="svg_19"
           xlink:href="#eqt1vuvid"
           y="-3.229893"
           x="-4.6300011"
           transform="matrix(1,0,0,1.0377085,0,-1.6968834)" />
      </g>
    </g>
    <g
       id="svg_20"
       stroke="null">
      <use
         height="100%"
         width="100%"
         style="fill:#ffffff"
         id="svg_21"
         xlink:href="#h1xnoRUC0v"
         y="-3.229893"
         x="-4.6300011"
         stroke="null"
         transform="matrix(1,0,0,1.0377085,0,-1.6968834)" />
      <g
         id="svg_22"
         stroke="null">
        <use
           height="100%"
           width="100%"
           style="fill-opacity:0;stroke:#000000;stroke-opacity:0"
           id="svg_23"
           xlink:href="#h1xnoRUC0v"
           y="-3.229893"
           x="-4.6300011"
           transform="matrix(1,0,0,1.0377085,0,-1.6968834)" />
      </g>
    </g>
    <g
       id="svg_24"
       stroke="null">
      <use
         height="100%"
         width="100%"
         style="fill:#ffffff"
         id="svg_25"
         xlink:href="#b2mvBiEkrA"
         y="-3.229893"
         x="-4.6300011"
         stroke="null"
         transform="matrix(1,0,0,1.0377085,0,-1.6968834)" />
      <g
         id="svg_26"
         stroke="null">
        <use
           height="100%"
           width="100%"
           style="fill-opacity:0;stroke:#000000;stroke-opacity:0"
           id="svg_27"
           xlink:href="#b2mvBiEkrA"
           y="-3.229893"
           x="-4.6300011"
           transform="matrix(1,0,0,1.0377085,0,-1.6968834)" />
      </g>
    </g>
    <g
       id="svg_28"
       stroke="null">
      <use
         height="100%"
         width="100%"
         style="fill:#ffffff"
         id="svg_29"
         xlink:href="#a3jNkynn94"
         y="-3.229893"
         x="-4.6300011"
         stroke="null"
         transform="matrix(1,0,0,1.0377085,0,-1.6968834)" />
      <g
         id="svg_30"
         stroke="null">
        <use
           height="100%"
           width="100%"
           style="fill-opacity:0;stroke:#000000;stroke-opacity:0"
           id="svg_31"
           xlink:href="#a3jNkynn94"
           y="-3.229893"
           x="-4.6300011"
           transform="matrix(1,0,0,1.0377085,0,-1.6968834)" />
      </g>
    </g>
    <g
       id="svg_32"
       stroke="null">
      <use
         height="100%"
         width="100%"
         style="fill:#ffffff"
         id="svg_33"
         xlink:href="#f8MN5bKiE"
         y="-3.229893"
         x="-4.6300011"
         stroke="null"
         transform="matrix(1,0,0,1.0377085,0,-1.6968834)" />
      <g
         id="svg_34"
         stroke="null">
        <use
           height="100%"
           width="100%"
           style="fill-opacity:0;stroke:#000000;stroke-opacity:0"
           id="svg_35"
           xlink:href="#f8MN5bKiE"
           y="-3.229893"
           x="-4.6300011"
           transform="matrix(1,0,0,1.0377085,0,-1.6968834)" />
      </g>
    </g>
    <g
       id="svg_36"
       stroke="null">
      <use
         height="100%"
         width="100%"
         style="fill:#ffffff"
         id="svg_37"
         xlink:href="#b91OuBpfN"
         y="-3.229893"
         x="-4.6300011"
         stroke="null"
         transform="matrix(1,0,0,1.0377085,0,-1.6968834)" />
      <g
         id="svg_38"
         stroke="null">
        <use
           height="100%"
           width="100%"
           style="fill-opacity:0;stroke:#000000;stroke-opacity:0"
           id="svg_39"
           xlink:href="#b91OuBpfN"
           y="-3.229893"
           x="-4.6300011"
           transform="matrix(1,0,0,1.0377085,0,-1.6968834)" />
      </g>
    </g>
    <g
       id="svg_40"
       stroke="null">
      <use
         height="100%"
         width="100%"
         style="fill:#ffffff"
         id="svg_41"
         xlink:href="#btx9cjPgx"
         y="-3.229893"
         x="-4.6300011"
         stroke="null"
         transform="matrix(1,0,0,1.0377085,0,-1.6968834)" />
      <g
         id="svg_42"
         stroke="null">
        <use
           height="100%"
           width="100%"
           style="fill-opacity:0;stroke:#000000;stroke-opacity:0"
           id="svg_43"
           xlink:href="#btx9cjPgx"
           y="-3.229893"
           x="-4.6300011"
           transform="matrix(1,0,0,1.0377085,0,-1.6968834)" />
      </g>
    </g>
    <g
       id="svg_44"
       stroke="null">
      <use
         height="100%"
         width="100%"
         style="fill:#ffffff"
         id="svg_45"
         xlink:href="#a11L235eLf"
         y="-3.229893"
         x="-4.6300011"
         stroke="null"
         transform="matrix(1,0,0,1.0377085,0,-1.6968834)" />
      <g
         id="svg_46"
         stroke="null">
        <use
           height="100%"
           width="100%"
           style="fill-opacity:0;stroke:#000000;stroke-opacity:0"
           id="svg_47"
           xlink:href="#a11L235eLf"
           y="-3.229893"
           x="-4.6300011"
           transform="matrix(1,0,0,1.0377085,0,-1.6968834)" />
      </g>
    </g>
    <g
       id="svg_48"
       stroke="null">
      <use
         height="100%"
         width="100%"
         style="fill:#ffffff"
         id="svg_49"
         xlink:href="#bnwsXu48i"
         y="-3.229893"
         x="-4.6300011"
         stroke="null"
         transform="matrix(1,0,0,1.0377085,0,-1.6968834)" />
      <g
         id="svg_50"
         stroke="null">
        <use
           height="100%"
           width="100%"
           style="fill-opacity:0;stroke:#000000;stroke-opacity:0"
           id="svg_51"
           xlink:href="#bnwsXu48i"
           y="-3.229893"
           x="-4.6300011"
           transform="matrix(1,0,0,1.0377085,0,-1.6968834)" />
      </g>
    </g>
    <g
       id="svg_52"
       stroke="null">
      <use
         height="100%"
         width="100%"
         style="fill:#ffffff"
         id="svg_53"
         xlink:href="#b3pCvofp50"
         y="-3.229893"
         x="-4.6300011"
         stroke="null"
         transform="matrix(1,0,0,1.0377085,0,-1.6968834)" />
      <g
         id="svg_54"
         stroke="null">
        <use
           height="100%"
           width="100%"
           style="fill-opacity:0;stroke:#000000;stroke-opacity:0"
           id="svg_55"
           xlink:href="#b3pCvofp50"
           y="-3.229893"
           x="-4.6300011"
           transform="matrix(1,0,0,1.0377085,0,-1.6968834)" />
      </g>
    </g>
    <g
       id="svg_56"
       stroke="null">
      <use
         height="100%"
         width="100%"
         style="fill:#ffffff"
         id="svg_57"
         xlink:href="#dCrm0OSR4"
         y="-3.229893"
         x="-4.6300011"
         stroke="null"
         transform="matrix(1,0,0,1.0377085,0,-1.6968834)" />
      <g
         id="svg_58"
         stroke="null">
        <use
           height="100%"
           width="100%"
           style="fill-opacity:0;stroke:#000000;stroke-opacity:0"
           id="svg_59"
           xlink:href="#dCrm0OSR4"
           y="-3.229893"
           x="-4.6300011"
           transform="matrix(1,0,0,1.0377085,0,-1.6968834)" />
      </g>
    </g>
    <g
       id="svg_60"
       stroke="null">
      <use
         height="100%"
         width="100%"
         style="fill:#ffffff"
         id="svg_61"
         xlink:href="#a2O0b0EhVB"
         y="-3.229893"
         x="-4.6300011"
         stroke="null"
         transform="matrix(1,0,0,1.0377085,0,-1.6968834)" />
      <g
         id="svg_62"
         stroke="null">
        <use
           height="100%"
           width="100%"
           style="fill-opacity:0;stroke:#000000;stroke-opacity:0"
           id="svg_63"
           xlink:href="#a2O0b0EhVB"
           y="-3.229893"
           x="-4.6300011"
           transform="matrix(1,0,0,1.0377085,0,-1.6968834)" />
      </g>
    </g>
    <g
       id="svg_64"
       stroke="null">
      <use
         height="100%"
         width="100%"
         style="fill:#ffffff"
         id="svg_65"
         xlink:href="#coFiFTmgh"
         y="-3.229893"
         x="-4.6300011"
         stroke="null"
         transform="matrix(1,0,0,1.0377085,0,-1.6968834)" />
      <g
         id="svg_66"
         stroke="null">
        <use
           height="100%"
           width="100%"
           style="fill-opacity:0;stroke:#000000;stroke-opacity:0"
           id="svg_67"
           xlink:href="#coFiFTmgh"
           y="-3.229893"
           x="-4.6300011"
           transform="matrix(1,0,0,1.0377085,0,-1.6968834)" />
      </g>
    </g>
    <g
       id="svg_68"
       stroke="null">
      <use
         height="100%"
         width="100%"
         style="fill:#ffffff"
         id="svg_69"
         xlink:href="#b547DWT3u"
         y="-3.229893"
         x="-4.6300011"
         stroke="null"
         transform="matrix(1,0,0,1.0377085,0,-1.6968834)" />
      <g
         id="svg_70"
         stroke="null">
        <use
           height="100%"
           width="100%"
           style="fill-opacity:0;stroke:#000000;stroke-opacity:0"
           id="svg_71"
           xlink:href="#b547DWT3u"
           y="-3.229893"
           x="-4.6300011"
           transform="matrix(1,0,0,1.0377085,0,-1.6968834)" />
      </g>
    </g>
    <g
       id="svg_72"
       stroke="null">
      <use
         height="100%"
         width="100%"
         style="fill:#ffffff"
         id="svg_73"
         xlink:href="#dPnWbKfxQ"
         y="-3.229893"
         x="-4.6300011"
         stroke="null"
         transform="matrix(1,0,0,1.0377085,0,-1.6968834)" />
      <g
         id="svg_74"
         stroke="null">
        <use
           height="100%"
           width="100%"
           style="fill-opacity:0;stroke:#000000;stroke-opacity:0"
           id="svg_75"
           xlink:href="#dPnWbKfxQ"
           y="-3.229893"
           x="-4.6300011"
           transform="matrix(1,0,0,1.0377085,0,-1.6968834)" />
      </g>
    </g>
    <g
       id="svg_76"
       stroke="null">
      <use
         height="100%"
         width="100%"
         style="fill:#ffffff"
         id="svg_77"
         xlink:href="#b9o8Gx2kj"
         y="-3.229893"
         x="-4.6300011"
         stroke="null"
         transform="matrix(1,0,0,1.0377085,0,-1.6968834)" />
      <g
         id="svg_78"
         stroke="null">
        <use
           height="100%"
           width="100%"
           style="fill-opacity:0;stroke:#000000;stroke-opacity:0"
           id="svg_79"
           xlink:href="#b9o8Gx2kj"
           y="-3.229893"
           x="-4.6300011"
           transform="matrix(1,0,0,1.0377085,0,-1.6968834)" />
      </g>
    </g>
  </g>
  <g
     aria-label="ESQUEMA"
     style="font-weight:bold;font-size:150px;font-family:'Trebuchet MS', Gadget, sans-serif;text-anchor:start;fill:#ffffff;stroke:#ffffff;stroke-opacity:1;stroke-width:3.68420889;stroke-miterlimit:4;stroke-dasharray:none"
     id="svg_3"
     transform="matrix(1.1005726,0,0,1.135182,-118.52293,-42.834699)">
    <path
       d="m 760.0293,203.63446 v 25.12207 h 35.44922 v 16.18652 H 760.0293 v 32.15332 h 48.63281 v 16.91895 h -67.67578 v -107.2998 h 68.48144 v 16.91894 z"
       style="font-weight:bold;font-size:150px;font-family:'Trebuchet MS', Gadget, sans-serif;text-anchor:start;fill:#ffffff;stroke:#ffffff;stroke-opacity:1;stroke-width:3.68420889;stroke-miterlimit:4;stroke-dasharray:none"
       id="path4839"
       inkscape:connector-curvature="0" />
    <path
       d="m 821.11328,288.0827 7.03125,-17.06543 q 11.2793,7.91016 22.19238,7.91016 16.77246,0 16.77246,-11.71875 0,-5.49316 -3.95507,-10.47363 -3.95508,-4.98047 -16.33301,-11.13282 -12.30469,-6.22558 -16.62598,-10.18066 -4.24804,-4.02832 -6.59179,-9.52148 -2.27051,-5.49317 -2.27051,-12.15821 0,-12.45117 9.08203,-20.65429 9.15527,-8.20313 23.4375,-8.20313 18.60351,0 27.31933,6.95801 l -5.78613,16.40625 q -10.03418,-7.17774 -21.16699,-7.17774 -6.5918,0 -10.25391,3.51563 -3.58886,3.44238 -3.58886,9.00879 0,9.22851 20.43457,19.18945 10.7666,5.27344 15.52734,9.74121 4.76074,4.39453 7.25098,10.32715 2.49023,5.85938 2.49023,13.11035 0,13.03711 -10.32715,21.45996 -10.2539,8.42285 -27.53906,8.42285 -15.01465,0 -27.09961,-7.76367 z"
       style="font-weight:bold;font-size:150px;font-family:'Trebuchet MS', Gadget, sans-serif;text-anchor:start;fill:#ffffff;stroke:#ffffff;stroke-opacity:1;stroke-width:3.68420889;stroke-miterlimit:4;stroke-dasharray:none"
       id="path4841"
       inkscape:connector-curvature="0" />
    <path
       d="m 1004.7314,316.2077 q -4.83394,0.65918 -9.81441,0.65918 -13.62304,0 -25.12207,-5.5664 -11.42578,-5.49317 -17.79785,-15.45411 -2.70996,0.5127 -8.71582,0.5127 -21.16699,0 -33.3252,-15.82031 -12.08496,-15.82032 -12.08496,-40.72266 0,-23.58398 12.37793,-39.25781 12.37793,-15.74707 33.03223,-15.74707 23.21777,0 35.74219,14.57519 12.59765,14.50196 12.59765,40.42969 0,38.45215 -25.19531,51.34277 7.9834,8.78907 26.51367,8.78907 6.81153,0 11.79195,-1.46485 z m -87.08492,-76.3916 q 0,16.8457 6.73829,28.19824 6.73828,11.35254 18.89648,11.35254 14.0625,0 21.31348,-10.40039 7.25097,-10.40039 7.25097,-29.15039 0,-38.01269 -28.56445,-38.01269 -12.59766,0 -19.11621,10.18066 -6.51856,10.18066 -6.51856,27.83203 z"
       style="font-weight:bold;font-size:150px;font-family:'Trebuchet MS', Gadget, sans-serif;text-anchor:start;fill:#ffffff;stroke:#ffffff;stroke-opacity:1;stroke-width:3.68420889;stroke-miterlimit:4;stroke-dasharray:none"
       id="path4843"
       inkscape:connector-curvature="0" />
    <path
       d="m 1009.3457,186.71552 h 19.043 v 72.72949 q 0,8.64258 5.2734,14.0625 5.2734,5.41992 14.502,5.41992 10.3271,0 16.04,-5.27344 5.7861,-5.34668 5.7861,-14.57519 v -72.36328 h 19.043 v 73.82812 q 0,16.55273 -11.1328,25.92773 -11.0596,9.375 -29.5899,9.375 -18.6767,0 -28.8574,-9.15527 -10.1074,-9.15527 -10.1074,-26.2207 z"
       style="font-weight:bold;font-size:150px;font-family:'Trebuchet MS', Gadget, sans-serif;text-anchor:start;fill:#ffffff;stroke:#ffffff;stroke-opacity:1;stroke-width:3.68420889;stroke-miterlimit:4;stroke-dasharray:none"
       id="path4845"
       inkscape:connector-curvature="0" />
    <path
       d="m 1130.0488,203.63446 v 25.12207 h 35.4492 v 16.18652 h -35.4492 v 32.15332 h 48.6328 v 16.91895 h -67.6757 v -107.2998 h 68.4814 v 16.91894 z"
       style="font-weight:bold;font-size:150px;font-family:'Trebuchet MS', Gadget, sans-serif;text-anchor:start;fill:#ffffff;stroke:#ffffff;stroke-opacity:1;stroke-width:3.68420889;stroke-miterlimit:4;stroke-dasharray:none"
       id="path4847"
       inkscape:connector-curvature="0" />
    <path
       d="m 1296.3086,294.08856 h -18.457 l -11.1328,-57.86133 -21.6065,59.25293 h -6.8115 l -21.6065,-59.25293 -11.5722,57.86133 h -18.3838 l 21.6064,-107.37304 h 10.1074 l 23.2178,72.29003 22.7051,-72.29003 h 10.0342 z"
       style="font-weight:bold;font-size:150px;font-family:'Trebuchet MS', Gadget, sans-serif;text-anchor:start;fill:#ffffff;stroke:#ffffff;stroke-opacity:1;stroke-width:3.68420889;stroke-miterlimit:4;stroke-dasharray:none"
       id="path4849"
       inkscape:connector-curvature="0" />
    <path
       d="m 1370.7959,294.01532 -7.8369,-21.75293 h -36.7676 l -7.4707,21.75293 h -21.167 l 42.7734,-108.76465 h 8.3497 l 43.1396,108.76465 z m -26.2939,-75.95215 -12.8907,39.62402 h 25.7813 z"
       style="font-weight:bold;font-size:150px;font-family:'Trebuchet MS', Gadget, sans-serif;text-anchor:start;fill:#ffffff;stroke:#ffffff;stroke-opacity:1;stroke-width:3.68420889;stroke-miterlimit:4;stroke-dasharray:none"
       id="path4851"
       inkscape:connector-curvature="0" />
  </g>
  <g
     aria-label="Eléctrico"
     transform="matrix(1.2082095,0,0,1.319143,-210.49657,-139.95993)"
     style="font-weight:bold;font-size:128.99285889px;font-family:'Trebuchet MS', Gadget, sans-serif;text-anchor:start;fill:#ffffff;stroke-width:3.26188977;stroke-miterlimit:4;stroke-dasharray:none;stroke:#ffffff;stroke-opacity:1"
     id="svg_4">
    <path
       d="m 765.0485,380.26425 v 21.60379 h 30.48464 v 13.91964 H 765.0485 V 443.438 h 41.8219 v 14.54949 h -58.19795 v -92.27273 h 58.89078 v 14.54949 z"
       style="font-weight:bold;font-size:128.99285889px;font-family:'Trebuchet MS', Gadget, sans-serif;text-anchor:start;fill:#ffffff;stroke-width:3.26188977;stroke-miterlimit:4;stroke-dasharray:none;stroke:#ffffff;stroke-opacity:1"
       id="path4854"
       inkscape:connector-curvature="0" />
    <path
       d="m 823.75033,365.39984 15.74619,-3.77909 v 75.83369 q 0,12.47099 7.43221,14.86442 -3.65312,6.92832 -12.47099,6.92832 -10.70741,0 -10.70741,-14.86441 z"
       style="font-weight:bold;font-size:128.99285889px;font-family:'Trebuchet MS', Gadget, sans-serif;text-anchor:start;fill:#ffffff;stroke-width:3.26188977;stroke-miterlimit:4;stroke-dasharray:none;stroke:#ffffff;stroke-opacity:1"
       id="path4856"
       inkscape:connector-curvature="0" />
    <path
       d="m 919.29826,429.07747 h -48.18337 q 0.44089,8.06205 5.54266,12.53397 5.10177,4.47192 13.73069,4.47192 10.7704,0 16.37604,-5.60565 l 6.10953,12.0301 q -8.31399,6.73937 -24.81601,6.73937 -15.43127,0 -24.4381,-9.00682 -8.94384,-9.06981 -8.94384,-25.2569 0,-15.93516 9.82563,-25.82377 9.88861,-9.88861 23.68228,-9.88861 14.67546,0 23.55631,8.75488 8.88086,8.75489 8.88086,22.29662 0,2.8973 -1.32268,8.75489 z m -47.61651,-11.84114 h 33.13001 q -1.63761,-14.80143 -16.37605,-14.80143 -13.47875,0 -16.75396,14.80143 z m 35.39746,-54.22991 -14.23456,18.45454 h -11.96712 l 10.64443,-18.45454 z"
       style="font-weight:bold;font-size:128.99285889px;font-family:'Trebuchet MS', Gadget, sans-serif;text-anchor:start;fill:#ffffff;stroke-width:3.26188977;stroke-miterlimit:4;stroke-dasharray:none;stroke:#ffffff;stroke-opacity:1"
       id="path4858"
       inkscape:connector-curvature="0" />
    <path
       d="m 986.06215,395.88448 -6.73937,11.77816 q -5.54266,-5.22774 -14.86441,-5.22774 -8.94384,0 -14.17158,5.98355 -5.16475,5.92058 -5.16475,16.43904 0,21.22587 20.21811,21.22587 8.75489,0 15.43128,-5.7946 l 5.7946,12.40801 q -6.86534,4.28296 -12.0301,5.41669 -5.10176,1.13372 -12.09308,1.13372 -15.62022,0 -24.69004,-9.06981 -9.00682,-9.13279 -9.00682,-25.31988 0,-15.93516 9.88861,-25.76078 9.88861,-9.82563 26.95749,-9.82563 11.77816,0 20.47006,6.6134 z"
       style="font-weight:bold;font-size:128.99285889px;font-family:'Trebuchet MS', Gadget, sans-serif;text-anchor:start;fill:#ffffff;stroke-width:3.26188977;stroke-miterlimit:4;stroke-dasharray:none;stroke:#ffffff;stroke-opacity:1"
       id="path4860"
       inkscape:connector-curvature="0" />
    <path
       d="m 1001.5564,403.19072 h -7.81011 v -12.65995 h 7.81011 v -13.73068 l 15.7462,-5.7946 v 19.52528 h 18.5175 v 12.65995 h -18.5175 v 29.53987 q 0,7.24325 2.2675,10.26652 2.2674,2.96028 7.936,2.96028 5.6687,0 10.5815,-3.08625 v 14.4865 q -5.4797,1.88954 -15.6202,1.88954 -10.0776,0 -15.4943,-5.66863 -5.4167,-5.73161 -5.4167,-16.25007 z"
       style="font-weight:bold;font-size:128.99285889px;font-family:'Trebuchet MS', Gadget, sans-serif;text-anchor:start;fill:#ffffff;stroke-width:3.26188977;stroke-miterlimit:4;stroke-dasharray:none;stroke:#ffffff;stroke-opacity:1"
       id="path4862"
       inkscape:connector-curvature="0" />
    <path
       d="m 1089.2942,405.20623 q -4.22,-2.77133 -9.2587,-2.77133 -5.4797,0 -9.7627,4.9758 -4.22,4.9758 -4.22,12.15606 v 38.42073 h -15.7462 v -67.45672 h 15.7462 v 6.17251 q 6.6134,-7.4322 17.5728,-7.4322 8.062,0 12.345,2.4564 z"
       style="font-weight:bold;font-size:128.99285889px;font-family:'Trebuchet MS', Gadget, sans-serif;text-anchor:start;fill:#ffffff;stroke-width:3.26188977;stroke-miterlimit:4;stroke-dasharray:none;stroke:#ffffff;stroke-opacity:1"
       id="path4864"
       inkscape:connector-curvature="0" />
    <path
       d="m 1117.8263,364.39208 q 3.7791,0 6.4245,2.70835 2.7083,2.64536 2.7083,6.42445 0,3.77909 -2.7083,6.48743 -2.6454,2.64536 -6.4245,2.64536 -3.7791,0 -6.4874,-2.64536 -2.6454,-2.70834 -2.6454,-6.48743 0,-3.77909 2.6454,-6.42445 2.7083,-2.70835 6.4874,-2.70835 z m -8.125,93.59541 v -54.54483 h -8.6289 v -12.91189 h 24.564 v 67.45672 z"
       style="font-weight:bold;font-size:128.99285889px;font-family:'Trebuchet MS', Gadget, sans-serif;text-anchor:start;fill:#ffffff;stroke-width:3.26188977;stroke-miterlimit:4;stroke-dasharray:none;stroke:#ffffff;stroke-opacity:1"
       id="path4866"
       inkscape:connector-curvature="0" />
    <path
       d="m 1196.9352,395.88448 -6.7393,11.77816 q -5.5427,-5.22774 -14.8645,-5.22774 -8.9438,0 -14.1715,5.98355 -5.1648,5.92058 -5.1648,16.43904 0,21.22587 20.2181,21.22587 8.7549,0 15.4313,-5.7946 l 5.7946,12.40801 q -6.8653,4.28296 -12.0301,5.41669 -5.1018,1.13372 -12.0931,1.13372 -15.6202,0 -24.69,-9.06981 -9.0068,-9.13279 -9.0068,-25.31988 0,-15.93516 9.8886,-25.76078 9.8886,-9.82563 26.9575,-9.82563 11.7781,0 20.47,6.6134 z"
       style="font-weight:bold;font-size:128.99285889px;font-family:'Trebuchet MS', Gadget, sans-serif;text-anchor:start;fill:#ffffff;stroke-width:3.26188977;stroke-miterlimit:4;stroke-dasharray:none;stroke:#ffffff;stroke-opacity:1"
       id="path4868"
       inkscape:connector-curvature="0" />
    <path
       d="m 1205.6272,424.10167 q 0,-15.43128 8.8808,-25.13093 8.9439,-9.69966 23.5563,-9.69966 15.3683,0 23.8713,9.32175 8.5029,9.32175 8.5029,25.50884 0,16.12411 -8.6919,25.63481 -8.6289,9.5107 -23.6823,9.5107 -15.3683,0 -23.9342,-9.57369 -8.5029,-9.63667 -8.5029,-25.57182 z m 16.376,0 q 0,22.29662 16.0611,22.29662 7.3692,0 11.6522,-5.79461 4.346,-5.7946 4.346,-16.50201 0,-21.98169 -15.9982,-21.98169 -7.3692,0 -11.7151,5.7946 -4.346,5.7946 -4.346,16.18709 z"
       style="font-weight:bold;font-size:128.99285889px;font-family:'Trebuchet MS', Gadget, sans-serif;text-anchor:start;fill:#ffffff;stroke-width:3.26188977;stroke-miterlimit:4;stroke-dasharray:none;stroke:#ffffff;stroke-opacity:1"
       id="path4870"
       inkscape:connector-curvature="0" />
  </g>
</svg>
