<?xml version="1.0" encoding="UTF-8" standalone="no"?>
<svg
   xmlns:dc="http://purl.org/dc/elements/1.1/"
   xmlns:cc="http://creativecommons.org/ns#"
   xmlns:rdf="http://www.w3.org/1999/02/22-rdf-syntax-ns#"
   xmlns:svg="http://www.w3.org/2000/svg"
   xmlns="http://www.w3.org/2000/svg"
   xmlns:sodipodi="http://sodipodi.sourceforge.net/DTD/sodipodi-0.dtd"
   xmlns:inkscape="http://www.inkscape.org/namespaces/inkscape"
   width="1640"
   height="640"
   preserveAspectRatio="xMidYMid meet"
   version="1.1"
   id="svg43"
   sodipodi:docname="alarma_actual_on - copia.svg"
   inkscape:version="0.92.5 (2060ec1f9f, 2020-04-08)">
  <metadata
     id="metadata47">
    <rdf:RDF>
      <cc:Work
         rdf:about="">
        <dc:format>image/svg+xml</dc:format>
        <dc:type
           rdf:resource="http://purl.org/dc/dcmitype/StillImage" />
        <dc:title></dc:title>
      </cc:Work>
    </rdf:RDF>
  </metadata>
  <sodipodi:namedview
     pagecolor="#ffffff"
     bordercolor="#666666"
     borderopacity="1"
     objecttolerance="10"
     gridtolerance="10"
     guidetolerance="10"
     inkscape:pageopacity="0"
     inkscape:pageshadow="2"
     inkscape:window-width="1920"
     inkscape:window-height="1017"
     id="namedview45"
     showgrid="false"
     inkscape:pagecheckerboard="true"
     inkscape:zoom="0.47532468"
     inkscape:cx="1185.6018"
     inkscape:cy="249.88145"
     inkscape:window-x="-8"
     inkscape:window-y="-8"
     inkscape:window-maximized="1"
     inkscape:current-layer="svg43" />
  <defs
     id="defs8">
    <path
       d="m 440.48999,370.10998 c -0.22,-2.59997 -0.44,-5.07998 -0.66,-7.39999 -0.02,-0.22998 -0.04,-0.45999 -0.09,-0.81998 -3.47,-26.03003 -12.06998,-63.56002 -33.38998,-94.54001 C 391.59,245.89999 373.26001,231.42 351.79999,224.22999 349.59,207.52 336.17001,194.61999 320,194.61999 c -16.17001,0 -29.60001,12.90001 -31.79999,29.62001 -21.46002,7.18 -39.79001,21.65999 -54.55002,43.11 -21.31999,30.97999 -29.92999,68.50998 -33.39,94.54001 0,0.02 -0.02,0.18 -0.03,0.19999 -0.03,0.23001 -0.05,0.45001 -0.06,0.61001 -0.22,2.32999 -0.44,4.81 -0.66001,7.4 -1.51999,17.29 -4.04998,46.22998 -10.86,57.91 -0.11999,0.22 -0.22999,0.42999 -0.39999,0.75 -1.81,3.48999 -5.45,6.91998 -9.31,10.56 -9.48,8.91998 -29.23,27.5 -12.97,59.91998 3.14999,6.27002 9.23,10.17001 15.86999,10.17001 27.63001,0 248.69001,0 276.32001,0 6.63999,0 12.70999,-3.89001 15.87,-10.17001 16.25,-32.41998 -3.48001,-51 -12.95999,-59.91998 -3.87,-3.64002 -7.51001,-7.07001 -9.28,-10.47 -0.13001,-0.28 -0.29001,-0.56 -0.5,-0.94001 -6.75,-11.58999 -9.28,-40.51998 -10.80002,-57.80001 z"
       id="bK0p2uvp"
       inkscape:connector-curvature="0" />
    <path
       d="m 278.95001,557.81 c 0,0.02 0.03,0.22998 0.04,0.25 3.48001,21.40002 20.71002,36.94 40.97,36.94 20.64002,0 38.35001,-16.53003 41.19,-38.40997 0.01,-0.05 0.06,-0.33002 0.06,-0.37006 0.35001,-1.97998 1.17001,-6.63995 -1.88998,-10.60998 -1.10001,-1.41999 -3.58002,-3.79999 -7.94,-3.79999 -12.77002,0 -57.52002,0 -63.92002,0 -2.63,0 -5.08999,1.22998 -6.76999,3.38 -3.14999,4.02997 -2.26999,9.40003 -1.73999,12.62 z"
       id="bNO4NYQjY"
       inkscape:connector-curvature="0" />
    <path
       d="m 45.040001,204.84 c -0.790001,14.11 9.219997,26.25 22.360001,27.1 0.489998,0.03 0.979996,0.04 1.470001,0.04 12.509995,0 23.009995,-10.47001 23.769997,-24.05001 1.550003,-27.53999 11.43,-52.93998 28.59,-73.45999 17.33,-20.76 40.02999,-34.1 65.64,-38.599997 13,-2.290001 21.80999,-15.450005 19.68,-29.400002 C 204.42,52.52 192.17,43.049999 179.17,45.34 143.24001,51.66 110.06,71.169998 85.730004,100.28 61.32,129.5 47.250001,165.66 45.040002,204.84 Z"
       id="b13TAlwba"
       inkscape:connector-curvature="0" />
    <path
       d="M 247,154.59 C 244.86999,140.63 232.61999,131.17 219.61999,133.46001 195.49,137.7 173.2,150.81 156.86999,170.36 140.7,189.7 131,214.63 129.55,240.58 c -0.8,14.11 9.20999,26.24001 22.36,27.09001 0.48999,0.04 0.97,0.05 1.46,0.05 12.5,0 23.01,-10.47 23.77999,-24.06 C 177.97,229 183.23,215.47 192.37,204.53999 201.60001,193.49 213.69,186.38 227.33,183.99 c 12.99001,-2.29 21.8,-15.45001 19.67,-29.4 z"
       id="aoSC4RGgQ"
       inkscape:connector-curvature="0" />
    <path
       d="m 433.45001,66.470001 c -2.13,13.949997 6.68,27.110001 19.68,29.400002 C 478.73001,100.37 501.44,113.71 518.77002,134.47 535.92999,155 545.81,180.39999 547.35999,207.92999 548.12,221.50999 558.62,231.99 571.13001,231.99 c 0.48999,0 0.97998,-0.02 1.46997,-0.05 13.14001,-0.85 23.15002,-12.99 22.36004,-27.1 C 592.75,165.66 578.67999,129.5 554.27002,100.27 529.94,71.169998 496.76001,51.659999 460.82999,45.34 c -12.97998,-2.290001 -25.25,7.18 -27.37998,21.130001 z"
       id="c39Bz9s55"
       inkscape:connector-curvature="0" />
    <path
       d="m 412.67001,183.99 c 13.63999,2.39 25.72998,9.5 34.95999,20.54999 9.13999,10.93001 14.4,24.46001 15.22,39.12001 0.76999,13.59 11.26999,24.06 23.78,24.06 0.47998,0 0.97,-0.01 1.45999,-0.05 13.14002,-0.85 23.15,-12.97001 22.36002,-27.09001 C 509,214.64 499.29001,189.7 483.13,170.36 466.79999,150.81 444.51001,137.7 420.38,133.46001 407.38,131.17 395.13,140.63 393,154.59 c -2.13001,13.94999 6.67999,27.11 19.67001,29.4 z"
       id="b2Yga5sQsb"
       inkscape:connector-curvature="0" />
  </defs>
  <text
     style="font-weight:bold;font-size:180px;font-family:'Trebuchet MS', Gadget, sans-serif;text-anchor:start;fill:#ffffff"
     x="696"
     y="384"
     id="svg_2"
     font-size="180"
     xml:space="preserve"
     font-weight="bold">GRÁFICAS</text>
  <g
     id="g4829"
     transform="matrix(8.0127508,0,0,8.0127508,85.71038,79.617476)">
	<path
   id="path4811"
   d="M 59,56 H 4 V 1 C 4,0.447 3.553,0 3,0 2.447,0 2,0.447 2,1 V 56 H 1 c -0.553,0 -1,0.447 -1,1 0,0.553 0.447,1 1,1 h 1 v 1 c 0,0.553 0.447,1 1,1 0.553,0 1,-0.447 1,-1 v -1 h 55 c 0.553,0 1,-0.447 1,-1 0,-0.553 -0.447,-1 -1,-1 z"
   style="fill:#ffffff"
   inkscape:connector-curvature="0" />

	<path
   id="path4813"
   d="m 7,29 h 2 c 0.553,0 1,-0.447 1,-1 0,-0.553 -0.447,-1 -1,-1 H 7 c -0.553,0 -1,0.447 -1,1 0,0.553 0.447,1 1,1 z"
   style="fill:#ffffff"
   inkscape:connector-curvature="0" />

	<path
   id="path4815"
   d="m 7,25 h 2 c 0.553,0 1,-0.447 1,-1 0,-0.553 -0.447,-1 -1,-1 H 7 c -0.553,0 -1,0.447 -1,1 0,0.553 0.447,1 1,1 z"
   style="fill:#ffffff"
   inkscape:connector-curvature="0" />

	<path
   id="path4817"
   d="m 7,21 h 2 c 0.553,0 1,-0.447 1,-1 0,-0.553 -0.447,-1 -1,-1 H 7 c -0.553,0 -1,0.447 -1,1 0,0.553 0.447,1 1,1 z"
   style="fill:#ffffff"
   inkscape:connector-curvature="0" />

	<path
   id="path4819"
   d="m 7,17 h 2 c 0.553,0 1,-0.447 1,-1 0,-0.553 -0.447,-1 -1,-1 H 7 c -0.553,0 -1,0.447 -1,1 0,0.553 0.447,1 1,1 z"
   style="fill:#ffffff"
   inkscape:connector-curvature="0" />

	<path
   id="path4821"
   d="m 7,13 h 2 c 0.553,0 1,-0.447 1,-1 0,-0.553 -0.447,-1 -1,-1 H 7 c -0.553,0 -1,0.447 -1,1 0,0.553 0.447,1 1,1 z"
   style="fill:#ffffff"
   inkscape:connector-curvature="0" />

	<path
   id="path4823"
   d="M 7,9 H 9 C 9.553,9 10,8.553 10,8 10,7.447 9.553,7 9,7 H 7 C 6.447,7 6,7.447 6,8 6,8.553 6.447,9 7,9 Z"
   style="fill:#ffffff"
   inkscape:connector-curvature="0" />

	<path
   id="path4825"
   d="M 7,5 H 9 C 9.553,5 10,4.553 10,4 10,3.447 9.553,3 9,3 H 7 C 6.447,3 6,3.447 6,4 6,4.553 6.447,5 7,5 Z"
   style="fill:#ffffff"
   inkscape:connector-curvature="0" />

	<path
   id="path4827"
   d="m 11.013,48.987 c 3.309,0 6,-2.691 6,-6 0,-1.549 -0.595,-2.958 -1.562,-4.024 l 3.526,-3.526 C 20.042,36.405 21.451,37 23,37 c 1.549,0 2.958,-0.595 4.024,-1.562 l 4.538,4.538 C 30.595,41.042 30,42.451 30,44 c 0,3.309 2.691,6 6,6 3.309,0 6,-2.691 6,-6 0,-1.035 -0.263,-2.009 -0.726,-2.86 l 8.703,-8.703 C 51.042,33.405 52.451,34 54,34 c 3.309,0 6,-2.691 6,-6 0,-3.309 -2.691,-6 -6,-6 -3.309,0 -6,2.691 -6,6 0,1.035 0.263,2.009 0.726,2.86 l -8.703,8.703 C 38.958,38.595 37.549,38 36,38 c -1.035,0 -2.009,0.263 -2.86,0.726 L 28.273,33.859 C 28.737,33.009 29,32.035 29,31 c 0,-3.309 -2.691,-6 -6,-6 -3.309,0 -6,2.691 -6,6 0,1.035 0.263,2.009 0.726,2.86 l -3.854,3.854 c -0.851,-0.463 -1.825,-0.726 -2.86,-0.726 -3.309,0 -6,2.691 -6,6 0,3.309 2.692,5.999 6.001,5.999 z"
   style="fill:#ffffff"
   inkscape:connector-curvature="0" />

</g>
</svg>
