<?xml version="1.0" encoding="UTF-8" standalone="no"?>
<!-- Svg Vector Icons : http://www.onlinewebfonts.com/icon -->

<svg
   xmlns:dc="http://purl.org/dc/elements/1.1/"
   xmlns:cc="http://creativecommons.org/ns#"
   xmlns:rdf="http://www.w3.org/1999/02/22-rdf-syntax-ns#"
   xmlns:svg="http://www.w3.org/2000/svg"
   xmlns="http://www.w3.org/2000/svg"
   xmlns:sodipodi="http://sodipodi.sourceforge.net/DTD/sodipodi-0.dtd"
   xmlns:inkscape="http://www.inkscape.org/namespaces/inkscape"
   version="1.1"
   x="0px"
   y="0px"
   viewBox="0 0 1540 640"
   enable-background="new 0 0 1000 1000"
   xml:space="preserve"
   id="svg10"
   sodipodi:docname="manual_scada_off.svg"
   width="1540"
   height="640"
   inkscape:version="0.92.5 (2060ec1f9f, 2020-04-08)"><defs
   id="defs14" /><sodipodi:namedview
   pagecolor="#ffffff"
   bordercolor="#666666"
   borderopacity="1"
   objecttolerance="10"
   gridtolerance="10"
   guidetolerance="10"
   inkscape:pageopacity="0"
   inkscape:pageshadow="2"
   inkscape:window-width="1920"
   inkscape:window-height="1017"
   id="namedview12"
   showgrid="false"
   inkscape:zoom="0.472"
   inkscape:cx="675.50039"
   inkscape:cy="386.95719"
   inkscape:window-x="-8"
   inkscape:window-y="-8"
   inkscape:window-maximized="1"
   inkscape:current-layer="svg10" />
<metadata
   id="metadata2"> Svg Vector Icons : http://www.onlinewebfonts.com/icon <rdf:RDF><cc:Work
     rdf:about=""><dc:format>image/svg+xml</dc:format><dc:type
       rdf:resource="http://purl.org/dc/dcmitype/StillImage" /><dc:title></dc:title></cc:Work></rdf:RDF></metadata>
<g
   id="g8"
   style="fill:#b3c8e0;fill-opacity:1"
   transform="matrix(0.42823355,0,0,0.46601522,83.445716,86.99239)"><g
     transform="matrix(1,0,0,-1,0,1952)"
     id="g6"
     style="fill:#b3c8e0;fill-opacity:1"><path
       d="m 64,1487 c 0,-19.3 15.7,-35 35,-35 h 68.5 c 19.3,0 35,15.7 35,35 0,19.3 -15.7,35 -35,35 H 99 c -19.4,0 -35,-15.7 -35,-35 z m 33.5,245 h 70 c 19.3,0 35,15.7 35,35 0,19.3 -15.7,35 -35,35 h -70 c -19.3,0 -35,-15.7 -35,-35 0,-19.3 15.7,-35 35,-35 z m 105,-525 c 0,19.3 -15.7,35 -35,35 h -70 c -19.3,0 -35,-15.7 -35,-35 0,-19.3 15.7,-35 35,-35 h 70 c 19.3,0 35,15.7 35,35 z M 675,1627 H 395 c -9.7,0 -17.5,-7.8 -17.5,-17.5 0,-9.7 7.8,-17.5 17.5,-17.5 h 280 c 9.7,0 17.5,7.8 17.5,17.5 0,9.7 -7.8,17.5 -17.5,17.5 z m 227.5,277.8 -70,2.2 c 0,19.3 -15.7,35 -35,35 H 169 c -19.3,0 -35,-15.7 -35,-35 v -67.8 h 35 c 0,0 69.7,-6.6 69.7,-70 0,0 0.7,-70.1 -71.5,-70.1 l -33.2,-2.1 0.7,-137.8 h 32.7 c 0,0 72,0 72,-74.4 0,0 -6.7,-67.8 -72.3,-67.8 h -33 l -0.6,-137.8 h 34.9 c 0,0 69.8,-2.2 69.8,-72.2 0,0 -0.1,-72.2 -72.3,-72.2 l -31.5,2.2 -0.4,-70 c 0,0 40.1,-105 101.4,-105 h 669.4 c 0,0 32.8,6.6 32.8,32.8 v 875 c -0.1,0 -6.7,35 -35.1,35 z M 307.5,1697 h 455 v -280 h -455 z m 561.1,-632.2 c 0,0 1.1,-32.8 -36.1,-32.8 h -595 c 0,0 -36.1,12 -36.1,36.1 l 596.1,0.4 c 19.3,0 35,15.7 35,35 v 771.8 l 36.1,-12 z M 675,1522 H 395 c -9.7,0 -17.5,-7.8 -17.5,-17.5 0,-9.7 7.8,-17.5 17.5,-17.5 h 280 c 9.7,0 17.5,7.8 17.5,17.5 0,9.7 -7.8,17.5 -17.5,17.5 z"
       id="path4"
       style="fill:#b3c8e0;fill-opacity:1"
       inkscape:connector-curvature="0" /></g></g>
<g
   id="g4822"
   transform="translate(60,30.606015)"
   style="fill:#b3c8e0;fill-opacity:1"><g
     id="flowRoot4753"
     style="font-style:normal;font-weight:normal;font-size:40px;line-height:1.25;font-family:sans-serif;letter-spacing:0px;word-spacing:0px;fill:#b3c8e0;fill-opacity:1;stroke:none"
     transform="translate(0,2)"
     aria-label="MANUAL"><path
       id="path4785"
       style="font-style:normal;font-variant:normal;font-weight:bold;font-stretch:normal;font-size:192px;font-family:'Trebuchet MS';-inkscape-font-specification:'Trebuchet MS Bold';fill:#b3c8e0;fill-opacity:1"
       d="m 659.07422,291.00668 h -23.625 l -14.25,-74.0625 -27.65625,75.84375 h -8.71875 l -27.65625,-75.84375 -14.8125,74.0625 h -23.53125 l 27.65625,-137.4375 h 12.9375 l 29.71875,92.53125 29.0625,-92.53125 h 12.84375 z"
       inkscape:connector-curvature="0" /><path
       id="path4787"
       style="font-style:normal;font-variant:normal;font-weight:bold;font-stretch:normal;font-size:192px;font-family:'Trebuchet MS';-inkscape-font-specification:'Trebuchet MS Bold';fill:#b3c8e0;fill-opacity:1"
       d="m 754.41797,290.91293 -10.03125,-27.84375 h -47.0625 l -9.5625,27.84375 h -27.09375 l 54.75,-139.21875 h 10.6875 l 55.21875,139.21875 z m -33.65625,-97.21875 -16.5,50.71875 h 33 z"
       inkscape:connector-curvature="0" /><path
       id="path4789"
       style="font-style:normal;font-variant:normal;font-weight:bold;font-stretch:normal;font-size:192px;font-family:'Trebuchet MS';-inkscape-font-specification:'Trebuchet MS Bold';fill:#b3c8e0;fill-opacity:1"
       d="m 885.85547,292.78793 -66.65625,-86.90625 v 85.125 h -23.4375 v -137.4375 h 11.71875 l 64.875,82.875 v -82.875 h 23.4375 v 139.21875 z"
       inkscape:connector-curvature="0" /><path
       id="path4791"
       style="font-style:normal;font-variant:normal;font-weight:bold;font-stretch:normal;font-size:192px;font-family:'Trebuchet MS';-inkscape-font-specification:'Trebuchet MS Bold';fill:#b3c8e0;fill-opacity:1"
       d="m 924.01172,153.56918 h 24.375 v 93.09375 q 0,11.0625 6.75,18 6.75,6.9375 18.5625,6.9375 13.21875,0 20.53125,-6.75 7.40623,-6.84375 7.40623,-18.65625 v -92.625 h 24.375 v 94.5 q 0,21.1875 -14.25,33.1875 -14.15623,12 -37.87498,12 -23.90625,0 -36.9375,-11.71875 -12.9375,-11.71875 -12.9375,-33.5625 z"
       inkscape:connector-curvature="0" /><path
       id="path4793"
       style="font-style:normal;font-variant:normal;font-weight:bold;font-stretch:normal;font-size:192px;font-family:'Trebuchet MS';-inkscape-font-specification:'Trebuchet MS Bold';fill:#b3c8e0;fill-opacity:1"
       d="m 1134.293,290.91293 -10.0313,-27.84375 h -47.0625 l -9.5625,27.84375 h -27.0937 l 54.75,-139.21875 h 10.6875 l 55.2187,139.21875 z m -33.6563,-97.21875 -16.5,50.71875 h 33 z"
       inkscape:connector-curvature="0" /><path
       id="path4795"
       style="font-style:normal;font-variant:normal;font-weight:bold;font-stretch:normal;font-size:192px;font-family:'Trebuchet MS';-inkscape-font-specification:'Trebuchet MS Bold';fill:#b3c8e0;fill-opacity:1"
       d="M 1175.6367,290.91293 V 153.56918 h 24.375 v 115.6875 h 62.0625 v 21.65625 z"
       inkscape:connector-curvature="0" /></g><g
     id="flowRoot4753-1"
     style="font-style:normal;font-weight:normal;font-size:40px;line-height:1.25;font-family:sans-serif;letter-spacing:0px;word-spacing:0px;fill:#b3c8e0;fill-opacity:1;stroke:none"
     transform="translate(12.093157,220.11779)"
     aria-label="SCADA"><path
       id="path4798"
       style="font-style:normal;font-variant:normal;font-weight:bold;font-stretch:normal;font-size:96px;font-family:'Trebuchet MS';-inkscape-font-specification:'Trebuchet MS Bold';fill:#b3c8e0;fill-opacity:1"
       d="m 520.69922,200.00725 4.5,-10.92188 q 7.21875,5.0625 14.20312,5.0625 10.73438,0 10.73438,-7.5 0,-3.51562 -2.53125,-6.70312 -2.53125,-3.1875 -10.45313,-7.125 -7.875,-3.98438 -10.64062,-6.51563 -2.71875,-2.57812 -4.21875,-6.09375 -1.45313,-3.51562 -1.45313,-7.78125 0,-7.96875 5.8125,-13.21875 5.85938,-5.25 15,-5.25 11.90625,0 17.48438,4.45313 l -3.70313,10.5 q -6.42187,-4.59375 -13.54687,-4.59375 -4.21875,0 -6.5625,2.25 -2.29688,2.20312 -2.29688,5.76562 0,5.90625 13.07813,12.28125 6.89062,3.375 9.9375,6.23438 3.04687,2.8125 4.64062,6.60937 1.59375,3.75 1.59375,8.39063 0,8.34375 -6.60937,13.73437 -6.5625,5.39063 -17.625,5.39063 -9.60938,0 -17.34375,-4.96875 z"
       inkscape:connector-curvature="0" /><path
       id="path4800"
       style="font-style:normal;font-variant:normal;font-weight:bold;font-stretch:normal;font-size:96px;font-family:'Trebuchet MS';-inkscape-font-specification:'Trebuchet MS Bold';fill:#b3c8e0;fill-opacity:1"
       d="m 620.16797,138.7885 -5.01563,10.07812 q -4.07812,-4.07812 -13.125,-4.07812 -8.57812,0 -14.0625,7.21875 -5.48437,7.17187 -5.48437,18.1875 0,11.01562 5.0625,17.48437 5.10937,6.46875 13.59375,6.46875 9.70312,0 15.1875,-6.9375 l 5.67187,9.84375 q -7.45312,7.92188 -21.84375,7.92188 -14.39062,0 -22.35937,-9.46875 -7.96875,-9.46875 -7.96875,-25.82813 0,-15.23437 8.8125,-25.45312 8.85937,-10.26563 22.64062,-10.26563 11.8125,0 18.89063,4.82813 z"
       inkscape:connector-curvature="0" /><path
       id="path4802"
       style="font-style:normal;font-variant:normal;font-weight:bold;font-stretch:normal;font-size:96px;font-family:'Trebuchet MS';-inkscape-font-specification:'Trebuchet MS Bold';fill:#b3c8e0;fill-opacity:1"
       d="m 671.87109,203.80412 -5.01562,-13.92187 h -23.53125 l -4.78125,13.92187 h -13.54688 l 27.375,-69.60937 h 5.34375 l 27.60938,69.60937 z m -16.82812,-48.60937 -8.25,25.35937 h 16.5 z"
       inkscape:connector-curvature="0" /><path
       id="path4804"
       style="font-style:normal;font-variant:normal;font-weight:bold;font-stretch:normal;font-size:96px;font-family:'Trebuchet MS';-inkscape-font-specification:'Trebuchet MS Bold';fill:#b3c8e0;fill-opacity:1"
       d="m 707.77734,203.80412 h -15.23437 v -68.625 q 14.57812,-0.51562 18.32812,-0.51562 15,0 23.76563,8.8125 8.8125,8.76562 8.8125,23.29687 0,37.03125 -35.67188,37.03125 z m -3.04687,-57.98437 v 46.875 q 2.95312,0.28125 6.375,0.28125 9.23437,0 14.4375,-6.70313 5.25,-6.70312 5.25,-18.75 0,-22.03125 -20.48438,-22.03125 -1.96875,0 -5.57812,0.32813 z"
       inkscape:connector-curvature="0" /><path
       id="path4806"
       style="font-style:normal;font-variant:normal;font-weight:bold;font-stretch:normal;font-size:96px;font-family:'Trebuchet MS';-inkscape-font-specification:'Trebuchet MS Bold';fill:#b3c8e0;fill-opacity:1"
       d="m 794.30859,203.80412 -5.01562,-13.92187 h -23.53125 l -4.78125,13.92187 h -13.54688 l 27.375,-69.60937 h 5.34375 l 27.60938,69.60937 z m -16.82812,-48.60937 -8.25,25.35937 h 16.5 z"
       inkscape:connector-curvature="0" /></g></g></svg>