<?xml version="1.0" encoding="UTF-8" standalone="no"?>
<svg
   xmlns:dc="http://purl.org/dc/elements/1.1/"
   xmlns:cc="http://creativecommons.org/ns#"
   xmlns:rdf="http://www.w3.org/1999/02/22-rdf-syntax-ns#"
   xmlns:svg="http://www.w3.org/2000/svg"
   xmlns="http://www.w3.org/2000/svg"
   xmlns:sodipodi="http://sodipodi.sourceforge.net/DTD/sodipodi-0.dtd"
   xmlns:inkscape="http://www.inkscape.org/namespaces/inkscape"
   width="1750"
   height="640"
   preserveAspectRatio="xMidYMid meet"
   version="1.1"
   id="svg27"
   sodipodi:docname="registros.svg"
   inkscape:version="0.92.5 (2060ec1f9f, 2020-04-08)">
  <metadata
     id="metadata31">
    <rdf:RDF>
      <cc:Work
         rdf:about="">
        <dc:format>image/svg+xml</dc:format>
        <dc:type
           rdf:resource="http://purl.org/dc/dcmitype/StillImage" />
        <dc:title></dc:title>
      </cc:Work>
    </rdf:RDF>
  </metadata>
  <sodipodi:namedview
     pagecolor="#ffffff"
     bordercolor="#666666"
     borderopacity="1"
     objecttolerance="10"
     gridtolerance="10"
     guidetolerance="10"
     inkscape:pageopacity="0"
     inkscape:pageshadow="2"
     inkscape:window-width="1920"
     inkscape:window-height="1017"
     id="namedview29"
     showgrid="false"
     inkscape:pagecheckerboard="true"
     inkscape:zoom="0.71393401"
     inkscape:cx="1069.8518"
     inkscape:cy="249.96299"
     inkscape:window-x="-8"
     inkscape:window-y="-8"
     inkscape:window-maximized="1"
     inkscape:current-layer="g25" />
  <defs
     id="defs4">
    <path
       id="ddvQlREpV"
       d="M 476.39,142.62 H 595 L 476.39,45 Z"
       inkscape:connector-curvature="0" />
    <path
       id="b6CsF82Q5"
       d="M 593.26,172.14 V 595 H 45 V 46.43 H 447.75 V 172.14 Z M 425.59,536.41 h 97.56 V 431.65 h -97.56 z m -310.48,0 h 97.56 v -241.9 h -97.56 z m 155.24,0 h 97.56 V 363.08 h -97.56 z"
       inkscape:connector-curvature="0" />
  </defs>
  <g
     id="g9">
    <title
       id="title6">background</title>
    <rect
       id="canvas_background"
       height="642"
       width="1452"
       y="-1"
       x="-1"
       style="fill:none" />
  </g>
  <g
     id="g25">
    <title
       id="title11">Layer 1</title>
    <path
       style="fill:#ffffff;fill-opacity:1;stroke:#ffffff;stroke-width:8.14869213;stroke-miterlimit:4;stroke-dasharray:none;stroke-opacity:1"
       d="M 95.158203 105.61914 C 90.298626 105.61914 86.333984 109.58573 86.333984 114.44531 L 86.333984 584.875 C 86.333984 589.73458 90.298626 593.70117 95.158203 593.70117 L 467.44727 593.70117 C 472.30685 593.70117 476.27344 589.73458 476.27344 584.875 L 476.27344 114.44531 C 476.27344 109.58573 472.30685 105.61915 467.44727 105.61914 L 419.18555 105.61914 C 414.32597 105.61914 410.36133 109.58573 410.36133 114.44531 L 410.36133 171.79492 L 152.24414 171.79492 C 152.24414 171.79492 151.84367 127.53959 152.24414 114.44531 C 152.24414 109.58573 148.2795 105.61914 143.41992 105.61914 L 95.158203 105.61914 z M 101.84375 126.32812 L 111.34375 126.32812 C 115.10063 126.32814 118.16797 129.9571 118.16797 134.4043 L 118.16797 564.91602 C 118.16797 569.36324 115.10063 572.99219 111.34375 572.99219 L 101.84375 572.99219 C 98.086843 572.99219 95.021484 569.36324 95.021484 564.91602 L 95.021484 134.4043 C 95.021484 129.9571 98.086843 126.32812 101.84375 126.32812 z M 450.01367 127.54102 L 459.52148 127.54102 C 463.28099 127.54103 466.34961 131.15116 466.34961 135.57422 L 466.34961 563.74609 C 466.34961 568.16916 463.28099 571.7793 459.52148 571.7793 L 450.01367 571.7793 C 446.25413 571.7793 443.1875 568.16916 443.1875 563.74609 L 443.1875 135.57422 C 443.1875 131.15116 446.25413 127.54102 450.01367 127.54102 z M 178.7207 187.45117 L 221.11719 187.45117 C 225.97677 187.45117 229.94141 191.41581 229.94141 196.27539 L 229.94141 238.67188 C 229.94141 243.53146 225.97677 247.49805 221.11719 247.49805 L 178.7207 247.49805 C 173.80527 247.49805 169.89648 243.58728 169.89648 238.67188 L 169.89648 196.27539 C 169.89648 191.41581 173.86112 187.45117 178.7207 187.45117 z M 187.54688 205.1582 L 187.54688 229.90234 L 212.29102 229.90234 L 212.29102 205.1582 L 187.54688 205.1582 z M 256.41797 208.67578 L 383.82812 208.67578 C 388.74356 208.67578 392.65514 212.64238 392.71094 217.50195 C 392.71094 222.36153 388.74433 226.32816 383.88477 226.32812 L 256.41797 226.32812 C 251.5584 226.32812 247.59375 222.36153 247.59375 217.50195 C 247.59375 212.64238 251.5584 208.67578 256.41797 208.67578 z M 178.7207 284.58594 L 221.11719 284.58594 C 225.97677 284.58594 229.94141 288.55253 229.94141 293.41211 L 229.94141 335.80664 C 229.94141 340.66622 225.97677 344.63281 221.11719 344.63281 L 178.7207 344.63281 C 173.80527 344.63281 169.89648 340.72207 169.89648 335.80664 L 169.89648 293.41211 C 169.89648 288.55253 173.86112 284.58594 178.7207 284.58594 z M 187.54688 302.29297 L 187.54688 327.03711 L 212.29102 327.03711 L 212.29102 302.29297 L 187.54688 302.29297 z M 256.41797 305.8125 L 383.82812 305.8125 C 388.74356 305.8125 392.65514 309.77909 392.71094 314.63867 C 392.71094 319.49825 388.74433 323.46289 383.88477 323.46289 L 256.41797 323.46289 C 251.5584 323.46289 247.59375 319.49825 247.59375 314.63867 C 247.59375 309.77909 251.5584 305.8125 256.41797 305.8125 z M 178.7207 381.77734 L 221.11719 381.77734 C 225.97677 381.77734 229.94141 385.74394 229.94141 390.60352 L 229.94141 433 C 229.94141 437.85957 225.97677 441.82422 221.11719 441.82422 L 178.7207 441.82422 C 173.80527 441.82422 169.89648 437.85957 169.89648 433 L 169.89648 390.60352 C 169.89648 385.74394 173.86112 381.77734 178.7207 381.77734 z M 187.54688 399.42969 L 187.54688 424.17383 L 212.29102 424.17383 L 212.29102 399.42969 L 187.54688 399.42969 z M 256.41797 402.94727 L 383.82812 402.94727 C 388.74356 402.94727 392.65514 406.91386 392.71094 411.77344 C 392.71094 416.63301 388.74433 420.59961 383.88477 420.59961 L 256.41797 420.59961 C 251.5584 420.59961 247.59375 416.63301 247.59375 411.77344 C 247.59375 406.91386 251.5584 402.94727 256.41797 402.94727 z M 178.7207 478.91406 L 221.11719 478.91406 C 225.97677 478.91406 229.94141 482.87871 229.94141 487.73828 L 229.94141 530.13477 C 229.94141 534.99435 225.97677 538.96094 221.11719 538.96094 L 178.7207 538.96094 C 173.80527 538.96094 169.89648 534.99435 169.89648 530.13477 L 169.89648 487.73828 C 169.89648 482.87871 173.86112 478.91406 178.7207 478.91406 z M 187.54688 496.56445 L 187.54688 521.30859 L 212.29102 521.30859 L 212.29102 496.56445 L 187.54688 496.56445 z M 256.41797 500.08398 L 383.82812 500.08398 C 388.74356 500.08398 392.65514 504.04862 392.71094 508.9082 C 392.71094 513.76777 388.74433 517.73437 383.88477 517.73438 L 256.41797 517.73438 C 251.5584 517.73438 247.59375 513.76777 247.59375 508.9082 C 247.59375 504.04862 251.5584 500.08398 256.41797 500.08398 z "
       id="svg_3-6" />
    <path
       style="fill:#ffff00;fill-opacity:0;stroke:#ffffff;stroke-width:12.049;stroke-miterlimit:4;stroke-dasharray:none;stroke-opacity:1"
       inkscape:connector-curvature="0"
       d="m 178.72123,150.3617 h 147.01614 c 4.85958,0 8.82543,-3.96587 8.82543,-8.82545 0,-4.85956 -3.96585,-8.82543 -8.82543,-8.82543 H 187.54666 v -29.8836 c 0,-3.686576 3.01629,-6.702862 6.70287,-6.702862 h 54.85177 c 4.85957,0 8.82543,-3.965857 8.82543,-8.825434 0,-12.903015 10.50116,-23.348313 23.34831,-23.348313 12.84715,0 23.34831,10.501156 23.34831,23.348313 0,4.859577 3.96586,8.825434 8.82543,8.825434 h 54.85178 c 3.68657,0 6.70286,3.016286 6.70286,6.702862 v 29.8836 h -13.9643 c -4.85958,0 -8.82544,3.96587 -8.82544,8.82543 0,4.85958 3.96586,8.82545 8.82544,8.82545 h 22.78974 c 4.85957,0 8.82543,-3.96587 8.82543,-8.82545 v -38.70903 c 0,-13.405729 -10.89216,-24.353737 -24.35374,-24.353737 h -46.9759 c -4.02172,-18.37702 -20.44373,-32.173747 -40.04961,-32.173747 -19.60588,0 -36.02789,13.796727 -40.04961,32.173747 h -46.9759 c -13.40573,0 -24.35374,10.892157 -24.35374,24.353737 v 38.70903 c 0,4.91544 3.91001,8.82545 8.82544,8.82545 z"
       id="svg_4-7" />
    <g
       aria-label="REGISTROS"
       style="font-weight:bold;font-size:180px;font-family:'Trebuchet MS', Gadget, sans-serif;text-anchor:start;fill:#ffffff;stroke:#ffffff;stroke-opacity:1;stroke-width:5.27606876;stroke-miterlimit:4;stroke-dasharray:none"
       id="svg_12"
       transform="matrix(0.95885786,0,0,0.95885786,29.342309,13.148049)">
      <path
         d="m 785.78125,384 -34.36523,-53.17383 q -5.18555,-0.0879 -14.50196,-0.61523 V 384 H 713.18359 V 255.24023 q 1.9336,0 14.85352,-0.61523 12.91992,-0.70313 20.83008,-0.70313 49.04297,0 49.04297,37.96875 0,11.42579 -6.76758,20.83008 -6.76758,9.4043 -17.05078,13.27149 L 812.14844,384 Z M 736.91406,275.10352 V 310.875 q 6.32813,0.52734 9.66797,0.52734 14.32617,0 20.91797,-4.04297 6.67969,-4.04296 6.67969,-15.73242 0,-9.49218 -7.11914,-13.27148 -7.11914,-3.7793 -22.41211,-3.7793 -3.69141,0 -7.73438,0.52735 z"
         style="font-weight:bold;font-size:180px;font-family:'Trebuchet MS', Gadget, sans-serif;text-anchor:start;fill:#ffffff;stroke:#ffffff;stroke-opacity:1;stroke-width:5.27606876;stroke-miterlimit:4;stroke-dasharray:none"
         id="path4753"
         inkscape:connector-curvature="0" />
      <path
         d="m 846.07422,275.54297 v 30.14648 h 42.53906 v 19.42383 h -42.53906 v 38.58399 h 58.35937 V 384 H 823.22266 V 255.24023 h 82.17773 v 20.30274 z"
         style="font-weight:bold;font-size:180px;font-family:'Trebuchet MS', Gadget, sans-serif;text-anchor:start;fill:#ffffff;stroke:#ffffff;stroke-opacity:1;stroke-width:5.27606876;stroke-miterlimit:4;stroke-dasharray:none"
         id="path4755"
         inkscape:connector-curvature="0" />
      <path
         d="m 1020.625,265.69922 -9.5801,18.36914 q -4.0429,-3.60352 -12.48045,-7.11914 -8.4375,-3.60352 -14.50195,-3.60352 -18.98438,0 -29.9707,12.91992 -10.98633,12.83204 -10.98633,34.45313 0,20.56641 10.72265,32.87109 10.81055,12.30469 29.35547,12.30469 12.2168,0 20.12691,-6.67969 v -25.3125 h -17.84175 v -19.51172 h 40.69335 v 57.65625 q -8.1738,6.67969 -21.0937,10.45899 -12.83207,3.69141 -25.57621,3.69141 -27.68555,0 -43.94532,-18.10547 -16.17187,-18.19336 -16.17187,-47.98828 0,-29.79493 17.66602,-48.42774 17.66601,-18.63281 47.54882,-18.63281 21.18166,0 36.03516,12.65625 z"
         style="font-weight:bold;font-size:180px;font-family:'Trebuchet MS', Gadget, sans-serif;text-anchor:start;fill:#ffffff;stroke:#ffffff;stroke-opacity:1;stroke-width:5.27606876;stroke-miterlimit:4;stroke-dasharray:none"
         id="path4757"
         inkscape:connector-curvature="0" />
      <path
         d="M 1046.9043,384 V 255.24023 h 22.8516 V 384 Z"
         style="font-weight:bold;font-size:180px;font-family:'Trebuchet MS', Gadget, sans-serif;text-anchor:start;fill:#ffffff;stroke:#ffffff;stroke-opacity:1;stroke-width:5.27606876;stroke-miterlimit:4;stroke-dasharray:none"
         id="path4759"
         inkscape:connector-curvature="0" />
      <path
         d="m 1090.5859,376.88086 8.4375,-20.47852 q 13.5352,9.49219 26.6309,9.49219 20.127,0 20.127,-14.0625 0,-6.5918 -4.7461,-12.56836 -4.7461,-5.97656 -19.5997,-13.35937 -14.7656,-7.47071 -19.9511,-12.2168 -5.0977,-4.83398 -7.9102,-11.42578 -2.7246,-6.5918 -2.7246,-14.58985 0,-14.9414 10.8984,-24.78515 10.9864,-9.84375 28.125,-9.84375 22.3243,0 32.7833,8.34961 l -6.9434,19.6875 q -12.041,-8.61328 -25.4004,-8.61328 -7.9102,0 -12.3047,4.21875 -4.3066,4.13086 -4.3066,10.81054 0,11.07422 24.5215,23.02735 12.9199,6.32812 18.6328,11.68945 5.7129,5.27344 8.7011,12.39258 2.9883,7.03125 2.9883,15.73242 0,15.64453 -12.3926,25.75195 -12.3046,10.10743 -33.0468,10.10743 -18.0176,0 -32.5196,-9.31641 z"
         style="font-weight:bold;font-size:180px;font-family:'Trebuchet MS', Gadget, sans-serif;text-anchor:start;fill:#ffffff;stroke:#ffffff;stroke-opacity:1;stroke-width:5.27606876;stroke-miterlimit:4;stroke-dasharray:none"
         id="path4761"
         inkscape:connector-curvature="0" />
      <path
         d="M 1241.2305,275.54297 V 384 h -22.8516 V 275.54297 h -40.957 v -20.30274 h 106.6113 v 20.30274 z"
         style="font-weight:bold;font-size:180px;font-family:'Trebuchet MS', Gadget, sans-serif;text-anchor:start;fill:#ffffff;stroke:#ffffff;stroke-opacity:1;stroke-width:5.27606876;stroke-miterlimit:4;stroke-dasharray:none"
         id="path4763"
         inkscape:connector-curvature="0" />
      <path
         d="m 1371.4844,384 -34.3653,-53.17383 q -5.1855,-0.0879 -14.5019,-0.61523 V 384 h -23.7305 V 255.24023 q 1.9336,0 14.8535,-0.61523 12.92,-0.70313 20.8301,-0.70313 49.043,0 49.043,37.96875 0,11.42579 -6.7676,20.83008 -6.7676,9.4043 -17.0508,13.27149 L 1397.8516,384 Z M 1322.6172,275.10352 V 310.875 q 6.3281,0.52734 9.668,0.52734 14.3261,0 20.9179,-4.04297 6.6797,-4.04296 6.6797,-15.73242 0,-9.49218 -7.1191,-13.27148 -7.1192,-3.7793 -22.4121,-3.7793 -3.6914,0 -7.7344,0.52735 z"
         style="font-weight:bold;font-size:180px;font-family:'Trebuchet MS', Gadget, sans-serif;text-anchor:start;fill:#ffffff;stroke:#ffffff;stroke-opacity:1;stroke-width:5.27606876;stroke-miterlimit:4;stroke-dasharray:none"
         id="path4765"
         inkscape:connector-curvature="0" />
      <path
         d="m 1402.7734,318.52148 q 0,-27.50976 15.0293,-46.49414 15.1172,-19.07226 40.3418,-19.07226 27.7735,0 42.4512,17.22656 14.6777,17.22656 14.6777,48.33984 0,31.11329 -15.3808,49.39454 -15.293,18.28125 -43.5059,18.28125 -25.9277,0 -39.8144,-18.10547 -13.7989,-18.10547 -13.7989,-49.57032 z m 23.7305,0 q 0,22.58789 7.6465,34.98047 7.6465,12.39258 22.2363,12.39258 17.1387,0 26.1035,-12.12891 9.0528,-12.1289 9.0528,-35.24414 0,-45.26367 -33.3985,-45.26367 -15.2929,0 -23.4668,12.30469 -8.1738,12.2168 -8.1738,32.95898 z"
         style="font-weight:bold;font-size:180px;font-family:'Trebuchet MS', Gadget, sans-serif;text-anchor:start;fill:#ffffff;stroke:#ffffff;stroke-opacity:1;stroke-width:5.27606876;stroke-miterlimit:4;stroke-dasharray:none"
         id="path4767"
         inkscape:connector-curvature="0" />
      <path
         d="m 1529.3359,376.88086 8.4375,-20.47852 q 13.5352,9.49219 26.6309,9.49219 20.127,0 20.127,-14.0625 0,-6.5918 -4.7461,-12.56836 -4.7461,-5.97656 -19.5997,-13.35937 -14.7656,-7.47071 -19.9511,-12.2168 -5.0977,-4.83398 -7.9102,-11.42578 -2.7246,-6.5918 -2.7246,-14.58985 0,-14.9414 10.8984,-24.78515 10.9864,-9.84375 28.125,-9.84375 22.3243,0 32.7833,8.34961 l -6.9434,19.6875 q -12.041,-8.61328 -25.4004,-8.61328 -7.9102,0 -12.3047,4.21875 -4.3066,4.13086 -4.3066,10.81054 0,11.07422 24.5215,23.02735 12.9199,6.32812 18.6328,11.68945 5.7129,5.27344 8.7011,12.39258 2.9883,7.03125 2.9883,15.73242 0,15.64453 -12.3926,25.75195 -12.3046,10.10743 -33.0468,10.10743 -18.0176,0 -32.5196,-9.31641 z"
         style="font-weight:bold;font-size:180px;font-family:'Trebuchet MS', Gadget, sans-serif;text-anchor:start;fill:#ffffff;stroke:#ffffff;stroke-opacity:1;stroke-width:5.27606876;stroke-miterlimit:4;stroke-dasharray:none"
         id="path4769"
         inkscape:connector-curvature="0" />
    </g>
  </g>
</svg>
