<svg width="1450" height="640" xmlns="http://www.w3.org/2000/svg" xmlns:xlink="http://www.w3.org/1999/xlink" preserveAspectRatio="xMidYMid meet">
 <defs>
  <path id="c1qy4LCYtD" d="m454.98,145.49l25.86,196.06l80.84,0l0,198.52l-476.63,0l0,-198.52l83.57,0l22.27,-196.06l-22.27,0l0,-51.48l311.71,0l0,51.48l-25.35,0zm-347.5,355.25l43.16,0l6.85,-59.93l-50.01,0l0,59.93zm394.26,0l37.85,0l0,-59.93l-45.73,0l7.88,59.93zm-10.96,-83.2l48.64,0l0,-41.6l-54.12,0l5.48,41.6zm-383.3,0l52.58,0l4.8,-41.6l-57.38,0l0,41.6z"/>
 </defs>
 <g>
  <title>background</title>
  <rect fill="none" id="canvas_background" height="642" width="1452" y="-1" x="-1"/>
 </g>
 <g>
  <title>Layer 1</title>
  <g stroke="null" id="svg_1">
   <g stroke="null" id="svg_2">
    <g stroke="null" id="svg_3">
     <use stroke="null" transform="matrix(1.141700060781261,0,0,1.2223947048187256,-6.376502735156748,-10.007761716842651) " x="-40.050003" y="-49.010002" id="svg_4" fill="#ffffff" xlink:href="#c1qy4LCYtD"/>
     <g stroke="null" id="svg_5">
      <use stroke="#000000" transform="matrix(1.141700060781261,0,0,1.2223947048187256,-6.376502735156748,-10.007761716842651) " x="-40.050003" y="-49.010002" id="svg_6" stroke-opacity="0" fill-opacity="0" xlink:href="#c1qy4LCYtD"/>
     </g>
    </g>
   </g>
  </g>
  <text font-weight="bold" xml:space="preserve" text-anchor="start" font-family="'Trebuchet MS', Gadget, sans-serif" font-size="180" id="svg_7" y="384" x="730" fill="#ffffff">ZONA 3</text>
 </g>
</svg>