<?xml version="1.0" encoding="utf-8"?>
<!-- Generator: Adobe Illustrator 23.0.4, SVG Export Plug-In . SVG Version: 6.00 Build 0)  -->
<svg version="1.1" id="Capa_1" xmlns="http://www.w3.org/2000/svg" xmlns:xlink="http://www.w3.org/1999/xlink" x="0px" y="0px"
	 viewBox="0 0 40.6 48.5" style="enable-background:new 0 0 40.6 48.5;" xml:space="preserve">
<style type="text/css">
	.st0{fill:#D9D9D9;}
	.st1{fill:#B3B4B3;}
	.st2{fill:#868686;}
	.st3{fill:#BFC9E8;}
	.st4{fill:#9FABD8;}
	.st5{fill:#3458A3;}
	.st6{fill:#CC5261;}
	.st7{fill:#BD1622;}
	.st8{fill:#751518;}
	.st9{fill:#6ABA82;}
	.st10{fill:#31AA59;}
	.st11{fill:#006E32;}
	.st12{fill:#F2F1F1;}
	.st13{fill:#CDCCCC;}
	.st14{fill:#E7E6E6;}
	.st15{fill-rule:evenodd;clip-rule:evenodd;fill:#6ABA82;}
	.st16{fill-rule:evenodd;clip-rule:evenodd;fill:#31AA59;}
	.st17{fill-rule:evenodd;clip-rule:evenodd;fill:#CC5261;}
	.st18{fill-rule:evenodd;clip-rule:evenodd;fill:#BD1622;}
	.st19{fill-rule:evenodd;clip-rule:evenodd;fill:#D9D9D9;}
	.st20{fill-rule:evenodd;clip-rule:evenodd;fill:#B3B4B3;}
	.st21{fill-rule:evenodd;clip-rule:evenodd;fill:#BFC9E8;}
	.st22{fill-rule:evenodd;clip-rule:evenodd;fill:#9FABD8;}
</style>
<g>
	<g>
		<polygon class="st9" points="36.4,29.7 37.6,30.4 39,29.7 37.8,29 		"/>
		<polygon class="st10" points="36.4,39.2 37.6,39.9 37.6,30.4 36.4,29.7 		"/>
		<polygon class="st11" points="37.6,39.9 39,39.1 39,31.2 39.2,30.9 39.2,30 39,29.7 37.6,30.4 		"/>
	</g>
	<g>
		<g>
			<polygon class="st12" points="23.9,34 32.6,39 33,39.2 23.9,44.4 23.9,44.4 23.9,44.4 14.9,39.2 15.2,39 			"/>
			<polygon class="st13" points="37.1,32.1 33,39.2 23.9,44.5 23.4,44 23.5,39.8 23.5,39.2 36.4,31.7 			"/>
			<polygon class="st14" points="10.8,32.1 14.9,39.2 23.9,44.5 23.9,39.7 24.4,38.9 11.4,31.8 			"/>
			<polygon class="st12" points="23.9,24.5 37.1,32.1 23.9,39.7 23.9,39.7 23.9,39.7 10.8,32 			"/>
			<polygon class="st14" points="23.9,26.3 33.9,32.1 23.9,37.8 23.9,37.8 23.9,37.8 14,32 14.4,31.8 			"/>
			<polygon class="st13" points="14,32 14.4,31.8 23.9,26.3 23.9,26.3 23.9,37.8 23.9,37.8 23.9,37.8 23.9,37.8 			"/>
		</g>
		<g>
			<polygon class="st10" points="1.4,26.6 1.4,22.3 2.1,22.3 24.2,35 24.1,35.5 24.6,35.4 24.6,39.1 24.1,39.8 			"/>
			<polygon class="st9" points="24.1,35.5 1.4,22.4 15,14.5 37.7,27.7 			"/>
			<path class="st11" d="M24.1,39.8v-4.3l13.5-7.9c0,0,0,4.3,0,4.3L24.1,39.8"/>
		</g>
		<g>
			<g>
				<path class="st11" d="M5.6,18.3c-1.1-1.8-0.9-4.4,0-6.3C6.3,10.3,8,8.7,10,8.6c1,0,2,0.6,2.6,1.4c-0.4-0.3-0.9-0.5-1.4-0.7
					c-0.8-0.3-1.6-0.2-2.4,0.2c-2.1,1-3.2,3.5-3.2,5.7c0,1.4,0.5,2.8,1.5,3.8c-0.1,0.1-0.4,0.3-0.5,0.3C6.5,19.3,5.7,18.5,5.6,18.3z
					"/>
				<g>
					<path class="st15" d="M3.8,12.3c0.9-3,3.4-5,5.6-4.3c0.1,0,0.5,0.2,0.8,0.4l1.2,0.7c-0.2-0.1-0.4-0.2-0.6-0.2
						c-2.2-0.7-4.7,1.3-5.6,4.3c-0.2,0.7-0.3,1.4-0.3,2c0,0,0,0,0,0c0,0,0,0,0,0c0,0,0,0,0,0c0,0.1,0,0.2,0,0.2c0,0.1,0,0.2,0,0.2
						c0,0,0,0,0,0c0,0.1,0,0.2,0,0.4c0,0,0,0,0,0c0,0,0,0.1,0,0.1c0,0.1,0,0.2,0.1,0.3c0,0,0,0,0,0c0,0,0,0.1,0,0.1
						c0,0.1,0,0.2,0.1,0.3c0,0,0,0,0,0.1c0,0,0,0.1,0,0.1c0,0,0,0.1,0,0.1c0,0.1,0.1,0.2,0.1,0.3c0,0,0,0,0,0.1
						c0.1,0.1,0.1,0.2,0.2,0.4c0,0.1,0.1,0.1,0.1,0.2c0,0,0,0.1,0.1,0.1c0,0.1,0.1,0.2,0.1,0.2c0.2,0.3,0.5,0.6,0.7,0.8l0,0
						l-1.3-0.7C3.8,17.5,3.1,14.9,3.8,12.3z"/>
				</g>
				<g>
					<path class="st16" d="M6.6,18.6c-0.1-0.1-0.2-0.3-0.3-0.5c-0.1-0.1-0.2-0.3-0.2-0.4C6,17.5,5.9,17.3,5.8,17
						c0-0.1-0.1-0.2-0.1-0.4c0-0.1-0.1-0.3-0.1-0.4c-0.1-0.9-0.1-1.9,0.2-2.9c0-0.1,0.1-0.2,0.1-0.3C6,12.9,6,12.7,6.1,12.6
						c1-2.4,3.1-3.9,5-3.3c0,0,0,0,0,0c0.1,0,0.3,0.1,0.5,0.2c0.1,0.1,0.2,0.1,0.2,0.1l0,0c0,0,10.1,6,10.2,6
						c-0.1-0.1-0.2-0.1-0.3-0.1c-0.1,0-0.2-0.1-0.3-0.1c-0.3-0.1-0.6-0.1-0.9-0.1c-0.5,0-1,0.1-1.5,0.4c-0.1,0-0.2,0.1-0.3,0.2
						c-0.3,0.2-0.5,0.4-0.8,0.6c-0.1,0.1-0.2,0.2-0.2,0.2c-0.1,0.1-0.2,0.3-0.3,0.4c-0.1,0.1-0.2,0.3-0.3,0.5
						c-0.2,0.2-0.3,0.5-0.4,0.7c-0.1,0.3-0.2,0.5-0.4,0.8c0,0.1-0.1,0.3-0.1,0.4c-0.1,0.3-0.2,0.6-0.2,0.9c-0.1,0.6-0.1,1.2,0,1.8
						c0,0.3,0.1,0.6,0.1,0.8c0.1,0.3,0.2,0.5,0.3,0.7c0.1,0.3,0.3,0.5,0.4,0.7c0.2,0.3,0.5,0.6,0.7,0.8c0.1,0.1,0.1,0.1,0.2,0.1l0,0
						c0,0-10.4-6.2-10.5-6.2C6.9,18.9,6.8,18.8,6.6,18.6z"/>
				</g>
			</g>
			<g>
				<path class="st16" d="M11.1,9.3c0.3,0.1,0.7,0.3,0.7,0.3c0,0-0.1,0-0.2-0.1C11.4,9.4,11.2,9.3,11.1,9.3z"/>
			</g>
			<g>
				<polygon class="st10" points="8.9,10.6 13.1,13 13.2,12.8 13.3,11.5 13.1,11.4 13.1,11.2 9.1,9 8.9,9 				"/>
				<polygon class="st10" points="11.2,8.2 14.6,10.2 13.1,11 11.2,9.9 11.2,8.2 				"/>
				<polygon class="st11" points="11.2,8.2 11.2,9.9 9.7,9 				"/>
				<polygon class="st11" points="13.1,13 15.5,11.8 15.4,10.2 15.3,10.2 13.2,11.2 13.1,11.4 				"/>
				<path class="st9" d="M8.9,9l4.2,2.4l2.3-1.2l-4.2-2.4L8.9,9z M13.1,11L9.7,9l1.5-0.8l3.4,2L13.1,11z"/>
			</g>
		</g>
		<g>
			<path class="st11" d="M23.1,2.1c-4.5,2.6-8.2,14.2-8.2,20.2l0.1,7.9l16.6-9.6c0,0,0-7.6,0-7.8C31.5,6.9,27.6-0.6,23.1,2.1z"/>
			<path class="st10" d="M12.2,20.3c0.1-3.7,1.1-7.5,2.4-11c0.6-1.6,1.3-3.2,2.2-4.7c0.8-1.3,1.7-2.6,2.8-3.5c1.2-1,2.7-1.4,4.1-0.8
				c0.1,0.1,3.2,1.8,3.2,1.8c-1.6-0.8-3.1-0.3-3.2-0.2c-2.3,1-3.8,3.6-4.9,5.7c-1.2,2.4-2.1,5-2.8,7.6c-0.6,2.2-1,4.4-1.1,6.7
				c0,0.2,0,0.3,0,0.5l0,7.9l-2.8-1.6l0-7.9C12.2,20.6,12.2,20.5,12.2,20.3z"/>
		</g>
		<g>
			<polygon class="st9" points="21.6,38.3 22.7,39 24.1,38.3 22.9,37.6 			"/>
			<polygon class="st10" points="21.6,47.8 22.8,48.5 22.8,39 21.6,38.3 			"/>
			<polygon class="st11" points="22.7,48.5 24.1,47.7 24.1,39.8 24.3,39.5 24.4,38.6 24.1,38.3 22.8,39 			"/>
		</g>
		<g>
			<polygon class="st9" points="0,25.9 1.2,26.6 2.6,25.9 1.3,25.1 			"/>
			<polygon class="st10" points="0,35.4 1.2,36.1 1.2,26.6 0,25.9 			"/>
			<polygon class="st11" points="1.2,36.1 2.6,35.3 2.6,25.9 1.2,26.6 			"/>
		</g>
		<g>
			<path class="st13" d="M24.7,14.4c-3.3,1.9-6.3,6.3-7,10.2c0,0.2,0.1,0.4,0.3,0.5l-0.5,0.2l-0.1,6.2L18,32l13.5-7.9l0-6.8
				c-0.2-1.5-0.9-2.6-1.8-3.2C28.4,13.3,26.6,13.3,24.7,14.4z"/>
			<path class="st12" d="M26.6,12.3c0,0-2.2-1.5-5.5,0.9s-4.7,5.7-5,6.3c-0.3,0.6-1,2.7-1.1,3.9l0,6.9l3,1.7v-6.9
				c0.1-1.2,0.8-3.2,1.1-3.9s1.7-3.9,5-6.3s5.5-0.9,5.5-0.9L26.6,12.3z"/>
		</g>
		<g>
			<g>
				<g>
					<polygon class="st12" points="23.9,21 28.2,23.4 32.9,20.9 28.5,18.7 					"/>
					<path class="st14" d="M28.2,23.4L28.2,23.4l0,2.8c0,0.7,0.5,1.3,1.1,1.4l0,0l-5.4-2.9l0-3.7L28.2,23.4z"/>
					<path class="st13" d="M28.2,23.4L28.2,23.4l4.7-2.5l0,5.2l-2.6,1.4c-0.3,0.2-0.7,0.2-1,0.1c-0.6-0.1-1.1-0.7-1.1-1.4L28.2,23.4
						z"/>
				</g>
				<g>
					<g>
						<g>
							<g>
								<g>
									<path class="st16" d="M29.6,23.8c0.4-1.3,1.4-2.1,2.4-1.8c0.1,0,0.2,0.1,0.3,0.1l0.6,0.4l-2,4.3l-0.7-0.4
										C29.5,26,29.2,24.9,29.6,23.8z"/>
								</g>
								
									<ellipse transform="matrix(0.2824 -0.9593 0.9593 0.2824 -0.7878 48.2551)" class="st11" cx="31.9" cy="24.7" rx="2.4" ry="1.8"/>
							</g>
						</g>
						<g>
							<g>
								<g>
									<path class="st16" d="M30.8,24.3c0.3-0.9,1-1.5,1.7-1.3c0,0,0.2,0.1,0.2,0.1l0.5,0.3l-1.5,3.2l-0.5-0.3
										C30.8,25.9,30.6,25.1,30.8,24.3z"/>
								</g>
								
									<ellipse transform="matrix(0.2824 -0.9593 0.9593 0.2824 -0.6368 49.0699)" class="st10" cx="32.5" cy="25" rx="1.8" ry="1.3"/>
							</g>
						</g>
					</g>
				</g>
			</g>
		</g>
		<g>
			<polygon class="st12" points="29.1,15.8 36.7,20.1 37,20.3 29.1,24.8 29.1,24.8 29.1,24.8 21.3,20.3 21.6,20.1 			"/>
			<polygon class="st13" points="40.6,11.3 37,20.3 29.1,24.9 28.6,24.5 28.8,18 28.8,17.4 39.9,11 			"/>
			<polygon class="st14" points="17.8,11.3 21.3,20.3 29.1,24.9 29.1,17.9 29.5,17.2 18.3,11.1 			"/>
			<polygon class="st12" points="29.1,4.7 40.6,11.3 29.1,17.9 29.1,17.9 29.1,17.9 17.7,11.3 			"/>
			<polygon class="st14" points="29.1,6.3 37.8,11.3 29.1,16.3 29.1,16.3 29.1,16.3 20.5,11.3 20.9,11.1 			"/>
			<polygon class="st13" points="20.5,11.3 20.9,11.1 29.1,6.3 29.1,6.3 29.1,16.3 29.1,16.3 29.1,16.3 29.1,16.3 			"/>
		</g>
	</g>
</g>
</svg>
