<?xml version="1.0" encoding="utf-8"?>
<!-- Generator: Adobe Illustrator 23.0.4, SVG Export Plug-In . SVG Version: 6.00 Build 0)  -->
<svg version="1.1" id="Capa_1" xmlns="http://www.w3.org/2000/svg" xmlns:xlink="http://www.w3.org/1999/xlink" x="0px" y="0px"
	 viewBox="0 0 99.4 68.1" style="enable-background:new 0 0 99.4 68.1;" xml:space="preserve">
<style type="text/css">
	.st0{fill:#CFD8EE;}
	.st1{fill:#BEC8E7;}
	.st2{enable-background:new    ;}
	.st3{fill:#9FAAD6;}
	.st4{fill:#D8D8D8;}
	.st5{fill:#254B8C;}
	.st6{clip-path:url(#SVGID_2_);}
	.st7{fill:#E7E5E5;}
	.st8{fill:#C6C6C5;}
	.st9{fill:#3359A2;}
	.st10{fill:#F1EFEF;}
	.st11{fill:#CDCBCB;}
	.st12{fill:#EF8F03;}
	.st13{fill:#F8AD31;}
	.st14{clip-path:url(#SVGID_4_);}
	.st15{fill:none;stroke:#F1EFEF;stroke-width:0.9445;stroke-miterlimit:10;}
	.st16{clip-path:url(#SVGID_6_);fill:none;stroke:#F1EFEF;stroke-width:0.9445;stroke-miterlimit:10;}
	.st17{clip-path:url(#SVGID_8_);}
	.st18{clip-path:url(#SVGID_10_);}
</style>
<g>
	<g>
		<polygon class="st0" points="21.3,24.4 24,25.9 15.3,31.1 12.5,29.6 		"/>
		<g>
			<polygon class="st1" points="24,25.9 15.3,31.1 15.3,30.3 24,25.2 			"/>
		</g>
	</g>
	<g>
		<polygon class="st0" points="38.8,34.5 41.5,36.1 32.8,41.2 30.1,39.7 		"/>
		<g>
			<polygon class="st1" points="41.5,36.1 32.8,41.2 32.8,40.4 41.5,35.3 			"/>
		</g>
	</g>
	<g>
		<polygon class="st0" points="56.2,44.7 58.9,46.2 50.2,51.3 47.5,49.8 		"/>
		<g>
			<polygon class="st1" points="58.9,46.2 50.2,51.3 50.2,50.6 58.9,45.4 			"/>
		</g>
	</g>
	<g>
		<polygon class="st0" points="74.1,54.6 76.8,56.1 68,61.3 65.3,59.8 		"/>
		<g>
			<polygon class="st1" points="76.8,56.1 68,61.3 68,60.5 76.8,55.4 			"/>
		</g>
	</g>
	<g>
		<g>
			<g>
				<g>
					<g class="st2">
						<path class="st3" d="M96.3,53.2l-86.1-50c0,0,0,0,0,0C10,3.1,9.9,3,9.8,3C9,2.7,8.1,2.7,7.3,3C7.2,3,7,3.1,6.9,3.1
							c-3.7,1.4-6.3,5.8-6.8,9.6C0,13.1,0,13.5,0,13.8c0,1.9,0.7,3.2,1.7,3.8l86.1,50C86.8,67,96.2,53.1,96.3,53.2z"/>
						<g>
							<path class="st1" d="M92.1,53.6c3.3-1.9,6-0.4,6,3.4c0,3.8-2.7,8.4-5.9,10.3c-3.3,1.9-6,0.4-6-3.4
								C86.1,60.1,88.8,55.5,92.1,53.6z"/>
						</g>
					</g>
				</g>
				<g>
					<g>
						<polygon class="st4" points="98.1,49.4 98,56.2 12,6.8 12,0 						"/>
					</g>
					<g>
						<polygon class="st3" points="12,0 12,6.8 0,13.8 0.1,7 						"/>
					</g>
					<g>
						<polygon class="st1" points="98.1,49.4 98,56.2 86.1,63.3 86.1,56.5 						"/>
					</g>
					<g>
						<polygon class="st3" points="86.1,56.5 86.1,63.3 0,13.8 0,7 						"/>
					</g>
				</g>
				<polygon class="st0" points="12,0 98.1,49.4 86.1,56.5 0,7 				"/>
			</g>
			<g>
				<polygon class="st5" points="13.9,2.8 5.2,7.9 84.5,53.8 93.2,48.7 				"/>
			</g>
			<g>
				<defs>
					<polygon id="SVGID_1_" points="13.9,2.8 5.2,7.9 84.5,53.8 93.2,48.7 					"/>
				</defs>
				<clipPath id="SVGID_2_">
					<use xlink:href="#SVGID_1_"  style="overflow:visible;"/>
				</clipPath>
				<g class="st6">
					<g>
						<g>
							<g class="st2">
								<path class="st7" d="M16.2,9.5c0-0.2,0-0.3,0-0.4c0-0.7-0.3-1.4-0.7-1.7l-0.7-0.1c0.4,0.2,0.7,0.7,0.7,1.5
									c0,0.2,0,0.3,0,0.5c0,0,0,0.1,0,0.1c0,0.2-0.1,0.3-0.1,0.5c0,0,0,0,0,0c-0.4,1.2-1.3,2.6-2.6,3c-0.1,0-0.3,0.1-0.4,0.1
									c0,0,0,0,0,0c-0.1,0-0.3,0-0.4,0c0,0,0,0,0,0c-0.1,0-0.2-0.1-0.3-0.1c0,0,0.5,0.5,0.5,0.5c0.1,0.1,0.7,0.2,0.8,0.2
									C14.5,13.5,16,11.1,16.2,9.5z"/>
								<path class="st7" d="M15.5,6.1c-1.8-1-3.8,1.3-4.6,2.7c-0.6,1-1,2.1-0.9,3.2c0,1.2,0.5,1.9,1.5,2.4
									c-1.1-0.8-0.6-3.9,0.2-5.2c0.8-1.3,3.1-3.4,4.4-2.8C15.9,6.4,15.7,6.3,15.5,6.1z"/>
								<g>
									<path class="st8" d="M13.8,6.7c1.8-1,3.3-0.2,3.3,1.9c0,2.1-1.4,4.6-3.3,5.6s-3.3,0.2-3.3-1.9C10.5,10.3,12,7.8,13.8,6.7z
										 M13.8,13.1c1.3-0.7,2.3-2.5,2.3-4c0-1.5-1-2-2.3-1.3c-1.3,0.7-2.3,2.5-2.3,4C11.5,13.2,12.5,13.8,13.8,13.1"/>
								</g>
							</g>
						</g>
						<g>
							<g class="st2">
								<path class="st7" d="M21.3,12.5c0-0.2,0-0.3,0-0.4c0-0.7-0.3-1.4-0.7-1.7l-0.7-0.1c0.4,0.2,0.7,0.7,0.7,1.5
									c0,0.2,0,0.3,0,0.5c0,0,0,0.1,0,0.1c0,0.2-0.1,0.3-0.1,0.5c0,0,0,0,0,0c-0.4,1.2-1.3,2.6-2.6,3c-0.1,0-0.3,0.1-0.4,0.1
									c0,0,0,0,0,0c-0.1,0-0.3,0-0.4,0c0,0,0,0,0,0c-0.1,0-0.2-0.1-0.3-0.1c0,0,0.5,0.5,0.5,0.5c0.1,0.1,0.7,0.2,0.8,0.2
									C19.6,16.5,21.1,14,21.3,12.5z"/>
								<path class="st7" d="M20.6,9.1c-1.8-1-3.8,1.3-4.6,2.7c-0.6,1-1,2.1-0.9,3.2c0,1.2,0.5,1.9,1.5,2.4
									c-1.1-0.8-0.6-3.9,0.2-5.2c0.8-1.3,3.1-3.4,4.4-2.8C21,9.3,20.8,9.2,20.6,9.1z"/>
								<g>
									<path class="st8" d="M18.8,9.7c1.8-1,3.3-0.2,3.3,1.9c0,2.1-1.4,4.6-3.3,5.6c-1.8,1-3.3,0.2-3.3-1.9
										C15.6,13.2,17,10.7,18.8,9.7z M18.9,16c1.3-0.7,2.3-2.5,2.3-4c0-1.5-1-2-2.3-1.3c-1.3,0.7-2.3,2.5-2.3,4
										C16.6,16.2,17.6,16.8,18.9,16"/>
								</g>
							</g>
						</g>
						<g>
							<g class="st2">
								<path class="st7" d="M26.3,15.5c0-0.2,0-0.3,0-0.4c0-0.7-0.3-1.4-0.7-1.7l-0.7-0.1c0.4,0.2,0.7,0.7,0.7,1.5
									c0,0.2,0,0.3,0,0.5c0,0,0,0.1,0,0.1c0,0.2-0.1,0.3-0.1,0.5c0,0,0,0,0,0c-0.4,1.2-1.3,2.6-2.6,3c-0.1,0-0.3,0.1-0.4,0.1
									c0,0,0,0,0,0c-0.1,0-0.3,0-0.4,0c0,0,0,0,0,0c-0.1,0-0.2-0.1-0.3-0.1c0,0,0.5,0.5,0.5,0.5c0.1,0.1,0.7,0.2,0.8,0.2
									C24.6,19.5,26.1,17,26.3,15.5z"/>
								<path class="st7" d="M25.6,12.1c-1.8-1-3.8,1.3-4.6,2.7c-0.6,1-1,2.1-0.9,3.2c0,1.2,0.5,1.9,1.5,2.4
									c-1.1-0.8-0.6-3.9,0.2-5.2c0.8-1.3,3.1-3.4,4.4-2.8C26,12.3,25.8,12.2,25.6,12.1z"/>
								<g>
									<path class="st8" d="M23.9,12.7c1.8-1,3.3-0.2,3.3,1.9c0,2.1-1.4,4.6-3.3,5.6c-1.8,1-3.3,0.2-3.3-1.9
										C20.6,16.3,22.1,13.7,23.9,12.7z M23.9,19.1c1.3-0.7,2.3-2.5,2.3-4c0-1.5-1-2-2.3-1.3c-1.3,0.7-2.3,2.5-2.3,4
										C21.6,19.2,22.6,19.8,23.9,19.1"/>
								</g>
							</g>
						</g>
					</g>
					<g>
						<g>
							<g class="st2">
								<path class="st7" d="M31.5,18.3c0-0.2,0-0.3,0-0.4c0-0.7-0.3-1.4-0.7-1.7l-0.7-0.1c0.4,0.2,0.7,0.7,0.7,1.5
									c0,0.2,0,0.3,0,0.5c0,0,0,0.1,0,0.1c0,0.2-0.1,0.3-0.1,0.5c0,0,0,0,0,0c-0.4,1.2-1.3,2.6-2.6,3c-0.1,0-0.3,0.1-0.4,0.1
									c0,0,0,0,0,0c-0.1,0-0.3,0-0.4,0c0,0,0,0,0,0c-0.1,0-0.2-0.1-0.3-0.1c0,0,0.5,0.5,0.5,0.5c0.1,0.1,0.7,0.2,0.8,0.2
									C29.8,22.3,31.3,19.9,31.5,18.3z"/>
								<path class="st7" d="M30.8,14.9c-1.8-1-3.8,1.3-4.6,2.7c-0.6,1-1,2.1-0.9,3.2c0,1.2,0.5,1.9,1.5,2.4
									c-1.1-0.8-0.6-3.9,0.2-5.2c0.8-1.3,3.1-3.4,4.4-2.8C31.2,15.2,31,15.1,30.8,14.9z"/>
								<g>
									<path class="st8" d="M29,15.5c1.8-1,3.3-0.2,3.3,1.9c0,2.1-1.4,4.6-3.3,5.6c-1.8,1-3.3,0.2-3.3-1.9
										C25.8,19.1,27.2,16.6,29,15.5z M29.1,21.9c1.3-0.7,2.3-2.5,2.3-4c0-1.5-1-2-2.3-1.3c-1.3,0.7-2.3,2.5-2.3,4
										C26.8,22,27.8,22.6,29.1,21.9"/>
								</g>
							</g>
						</g>
						<g>
							<g class="st2">
								<path class="st7" d="M36.6,21.3c0-0.2,0-0.3,0-0.4c0-0.7-0.3-1.4-0.7-1.7l-0.7-0.1c0.4,0.2,0.7,0.7,0.7,1.5
									c0,0.2,0,0.3,0,0.5c0,0,0,0.1,0,0.1c0,0.2-0.1,0.3-0.1,0.5c0,0,0,0,0,0c-0.4,1.2-1.3,2.6-2.6,3c-0.1,0-0.3,0.1-0.4,0.1
									c0,0,0,0,0,0c-0.1,0-0.3,0-0.4,0c0,0,0,0,0,0c-0.1,0-0.2-0.1-0.3-0.1c0,0,0.5,0.5,0.5,0.5c0.1,0.1,0.7,0.2,0.8,0.2
									C34.9,25.3,36.4,22.8,36.6,21.3z"/>
								<path class="st7" d="M35.8,17.9c-1.8-1-3.8,1.3-4.6,2.7c-0.6,1-1,2.1-0.9,3.2c0,1.2,0.5,1.9,1.5,2.4
									c-1.1-0.8-0.6-3.9,0.2-5.2c0.8-1.3,3.1-3.4,4.4-2.8C36.2,18.1,36,18,35.8,17.9z"/>
								<g>
									<path class="st8" d="M34.1,18.5c1.8-1,3.3-0.2,3.3,1.9c0,2.1-1.4,4.6-3.3,5.6c-1.8,1-3.3,0.2-3.3-1.9
										C30.8,22,32.3,19.5,34.1,18.5z M34.1,24.8c1.3-0.7,2.3-2.5,2.3-4c0-1.5-1-2-2.3-1.3c-1.3,0.7-2.3,2.5-2.3,4
										C31.8,25,32.9,25.6,34.1,24.8"/>
								</g>
							</g>
						</g>
						<g>
							<g class="st2">
								<path class="st7" d="M41.6,24.3c0-0.2,0-0.3,0-0.4c0-0.7-0.3-1.4-0.7-1.7l-0.7-0.1c0.4,0.2,0.7,0.7,0.7,1.5
									c0,0.2,0,0.3,0,0.5c0,0,0,0.1,0,0.1c0,0.2-0.1,0.3-0.1,0.5c0,0,0,0,0,0c-0.4,1.2-1.3,2.6-2.6,3c-0.1,0-0.3,0.1-0.4,0.1
									c0,0,0,0,0,0c-0.1,0-0.3,0-0.4,0c0,0,0,0,0,0c-0.1,0-0.2-0.1-0.3-0.1c0,0,0.5,0.5,0.5,0.5c0.1,0.1,0.7,0.2,0.8,0.2
									C39.9,28.3,41.4,25.8,41.6,24.3z"/>
								<path class="st7" d="M40.8,20.9c-1.8-1-3.8,1.3-4.6,2.7c-0.6,1-1,2.1-0.9,3.2c0,1.2,0.5,1.9,1.5,2.4
									c-1.1-0.8-0.6-3.9,0.2-5.2c0.8-1.3,3.1-3.4,4.4-2.8C41.2,21.1,41,21,40.8,20.9z"/>
								<g>
									<path class="st8" d="M39.1,21.5c1.8-1,3.3-0.2,3.3,1.9c0,2.1-1.4,4.6-3.3,5.6c-1.8,1-3.3,0.2-3.3-1.9
										C35.9,25,37.3,22.5,39.1,21.5z M39.1,27.9c1.3-0.7,2.3-2.5,2.3-4c0-1.5-1-2-2.3-1.3c-1.3,0.7-2.3,2.5-2.3,4
										C36.8,28,37.9,28.6,39.1,27.9"/>
								</g>
							</g>
						</g>
					</g>
					<g>
						<g>
							<g class="st2">
								<path class="st7" d="M46.9,27.1c0-0.2,0-0.3,0-0.4c0-0.7-0.3-1.4-0.7-1.7l-0.7-0.1c0.4,0.2,0.7,0.7,0.7,1.5
									c0,0.2,0,0.3,0,0.5c0,0,0,0.1,0,0.1c0,0.2-0.1,0.3-0.1,0.5c0,0,0,0,0,0c-0.4,1.2-1.3,2.6-2.6,3c-0.1,0-0.3,0.1-0.4,0.1
									c0,0,0,0,0,0c-0.1,0-0.3,0-0.4,0c0,0,0,0,0,0c-0.1,0-0.2-0.1-0.3-0.1c0,0,0.5,0.5,0.5,0.5c0.1,0.1,0.7,0.2,0.8,0.2
									C45.2,31.1,46.7,28.7,46.9,27.1z"/>
								<path class="st7" d="M46.1,23.7c-1.8-1-3.8,1.3-4.6,2.7c-0.6,1-1,2.1-0.9,3.2c0,1.2,0.5,1.9,1.5,2.4
									c-1.1-0.8-0.6-3.9,0.2-5.2c0.8-1.3,3.1-3.4,4.4-2.8C46.5,24,46.3,23.8,46.1,23.7z"/>
								<g>
									<path class="st8" d="M44.4,24.3c1.8-1,3.3-0.2,3.3,1.9c0,2.1-1.4,4.6-3.3,5.6c-1.8,1-3.3,0.2-3.3-1.9
										C41.1,27.9,42.6,25.4,44.4,24.3z M44.4,30.7c1.3-0.7,2.3-2.5,2.3-4c0-1.5-1-2-2.3-1.3c-1.3,0.7-2.3,2.5-2.3,4
										C42.1,30.8,43.2,31.4,44.4,30.7"/>
								</g>
							</g>
						</g>
						<g>
							<g class="st2">
								<path class="st7" d="M51.9,30.1c0-0.2,0-0.3,0-0.4c0-0.7-0.3-1.4-0.7-1.7l-0.7-0.1c0.4,0.2,0.7,0.7,0.7,1.5
									c0,0.2,0,0.3,0,0.5c0,0,0,0.1,0,0.1c0,0.2-0.1,0.3-0.1,0.5c0,0,0,0,0,0c-0.4,1.2-1.3,2.6-2.6,3c-0.1,0-0.3,0.1-0.4,0.1
									c0,0,0,0,0,0c-0.1,0-0.3,0-0.4,0c0,0,0,0,0,0c-0.1,0-0.2-0.1-0.3-0.1c0,0,0.5,0.5,0.5,0.5c0.1,0.1,0.7,0.2,0.8,0.2
									C50.2,34.1,51.7,31.6,51.9,30.1z"/>
								<path class="st7" d="M51.2,26.7c-1.8-1-3.8,1.3-4.6,2.7c-0.6,1-1,2.1-0.9,3.2c0,1.2,0.5,1.9,1.5,2.4
									c-1.1-0.8-0.6-3.9,0.2-5.2c0.8-1.3,3.1-3.4,4.4-2.8C51.6,26.9,51.4,26.8,51.2,26.7z"/>
								<g>
									<path class="st8" d="M49.5,27.3c1.8-1,3.3-0.2,3.3,1.9c0,2.1-1.4,4.6-3.3,5.6s-3.3,0.2-3.3-1.9
										C46.2,30.8,47.7,28.3,49.5,27.3z M49.5,33.6c1.3-0.7,2.3-2.5,2.3-4c0-1.5-1-2-2.3-1.3c-1.3,0.7-2.3,2.5-2.3,4
										C47.2,33.8,48.2,34.4,49.5,33.6"/>
								</g>
							</g>
						</g>
						<g>
							<g class="st2">
								<path class="st7" d="M57,33.1c0-0.2,0-0.3,0-0.4c0-0.7-0.3-1.4-0.7-1.7l-0.7-0.1c0.4,0.2,0.7,0.7,0.7,1.5c0,0.2,0,0.3,0,0.5
									c0,0,0,0.1,0,0.1c0,0.2-0.1,0.3-0.1,0.5c0,0,0,0,0,0c-0.4,1.2-1.3,2.6-2.6,3c-0.1,0-0.3,0.1-0.4,0.1c0,0,0,0,0,0
									c-0.1,0-0.3,0-0.4,0c0,0,0,0,0,0c-0.1,0-0.2-0.1-0.3-0.1c0,0,0.5,0.5,0.5,0.5c0.1,0.1,0.7,0.2,0.8,0.2
									C55.2,37.1,56.8,34.6,57,33.1z"/>
								<path class="st7" d="M56.2,29.7c-1.8-1-3.8,1.3-4.6,2.7c-0.6,1-1,2.1-0.9,3.2c0,1.2,0.5,1.9,1.5,2.4
									c-1.1-0.8-0.6-3.9,0.2-5.2c0.8-1.3,3.1-3.4,4.4-2.8C56.6,29.9,56.4,29.8,56.2,29.7z"/>
								<g>
									<path class="st8" d="M54.5,30.3c1.8-1,3.3-0.2,3.3,1.9c0,2.1-1.4,4.6-3.3,5.6s-3.3,0.2-3.3-1.9
										C51.2,33.8,52.7,31.3,54.5,30.3z M54.5,36.7c1.3-0.7,2.3-2.5,2.3-4c0-1.5-1-2-2.3-1.3c-1.3,0.7-2.3,2.5-2.3,4
										C52.2,36.8,53.2,37.4,54.5,36.7"/>
								</g>
							</g>
						</g>
					</g>
					<g>
						<g>
							<g class="st2">
								<path class="st7" d="M62,35.8c0-0.2,0-0.3,0-0.4c0-0.7-0.3-1.4-0.7-1.7l-0.7-0.1c0.4,0.2,0.7,0.7,0.7,1.5c0,0.2,0,0.3,0,0.5
									c0,0,0,0.1,0,0.1c0,0.2-0.1,0.3-0.1,0.5c0,0,0,0,0,0c-0.4,1.2-1.3,2.6-2.6,3c-0.1,0-0.3,0.1-0.4,0.1c0,0,0,0,0,0
									c-0.1,0-0.3,0-0.4,0c0,0,0,0,0,0c-0.1,0-0.2-0.1-0.3-0.1c0,0,0.5,0.5,0.5,0.5c0.1,0.1,0.7,0.2,0.8,0.2
									C60.3,39.8,61.8,37.3,62,35.8z"/>
								<path class="st7" d="M61.3,32.4c-1.8-1-3.8,1.3-4.6,2.7c-0.6,1-1,2.1-0.9,3.2c0,1.2,0.5,1.9,1.5,2.4
									c-1.1-0.8-0.6-3.9,0.2-5.2c0.8-1.3,3.1-3.4,4.4-2.8C61.7,32.6,61.5,32.5,61.3,32.4z"/>
								<g>
									<path class="st8" d="M59.6,33c1.8-1,3.3-0.2,3.3,1.9c0,2.1-1.4,4.6-3.3,5.6c-1.8,1-3.3,0.2-3.3-1.9
										C56.3,36.5,57.8,34,59.6,33z M59.6,39.4c1.3-0.7,2.3-2.5,2.3-4c0-1.5-1-2-2.3-1.3c-1.3,0.7-2.3,2.5-2.3,4
										C57.3,39.5,58.3,40.1,59.6,39.4"/>
								</g>
							</g>
						</g>
						<g>
							<g class="st2">
								<path class="st7" d="M67.1,38.7c0-0.2,0-0.3,0-0.4c0-0.7-0.3-1.4-0.7-1.7l-0.7-0.1c0.4,0.2,0.7,0.7,0.7,1.5
									c0,0.2,0,0.3,0,0.5c0,0,0,0.1,0,0.1c0,0.2-0.1,0.3-0.1,0.5c0,0,0,0,0,0c-0.4,1.2-1.3,2.6-2.6,3c-0.1,0-0.3,0.1-0.4,0.1
									c0,0,0,0,0,0c-0.1,0-0.3,0-0.4,0c0,0,0,0,0,0c-0.1,0-0.2-0.1-0.3-0.1c0,0,0.5,0.5,0.5,0.5c0.1,0.1,0.7,0.2,0.8,0.2
									C65.4,42.8,66.9,40.3,67.1,38.7z"/>
								<path class="st7" d="M66.4,35.4c-1.8-1-3.8,1.3-4.6,2.7c-0.6,1-1,2.1-0.9,3.2c0,1.2,0.5,1.9,1.5,2.4
									c-1.1-0.8-0.6-3.9,0.2-5.2c0.8-1.3,3.1-3.4,4.4-2.8C66.8,35.6,66.6,35.5,66.4,35.4z"/>
								<g>
									<path class="st8" d="M64.6,35.9c1.8-1,3.3-0.2,3.3,1.9c0,2.1-1.4,4.6-3.3,5.6c-1.8,1-3.3,0.2-3.3-1.9
										C61.4,39.5,62.8,37,64.6,35.9z M64.6,42.3c1.3-0.7,2.3-2.5,2.3-4c0-1.5-1-2-2.3-1.3c-1.3,0.7-2.3,2.5-2.3,4
										C62.4,42.5,63.4,43,64.6,42.3"/>
								</g>
							</g>
						</g>
						<g>
							<g class="st2">
								<path class="st7" d="M72.1,41.8c0-0.2,0-0.3,0-0.4c0-0.7-0.3-1.4-0.7-1.7l-0.7-0.1c0.4,0.2,0.7,0.7,0.7,1.5
									c0,0.2,0,0.3,0,0.5c0,0,0,0.1,0,0.1c0,0.2-0.1,0.3-0.1,0.5c0,0,0,0,0,0c-0.4,1.2-1.3,2.6-2.6,3c-0.1,0-0.3,0.1-0.4,0.1
									c0,0,0,0,0,0c-0.1,0-0.3,0-0.4,0c0,0,0,0,0,0c-0.1,0-0.2-0.1-0.3-0.1c0,0,0.5,0.5,0.5,0.5c0.1,0.1,0.7,0.2,0.8,0.2
									C70.4,45.8,71.9,43.3,72.1,41.8z"/>
								<path class="st7" d="M71.4,38.4c-1.8-1-3.8,1.3-4.6,2.7c-0.6,1-1,2.1-0.9,3.2c0,1.2,0.5,1.9,1.5,2.4
									c-1.1-0.8-0.6-3.9,0.2-5.2c0.8-1.3,3.1-3.4,4.4-2.8C71.8,38.6,71.6,38.5,71.4,38.4z"/>
								<g>
									<path class="st8" d="M69.6,39c1.8-1,3.3-0.2,3.3,1.9c0,2.1-1.4,4.6-3.3,5.6c-1.8,1-3.3,0.2-3.3-1.9
										C66.4,42.5,67.8,40,69.6,39z M69.7,45.3c1.3-0.7,2.3-2.5,2.3-4c0-1.5-1-2-2.3-1.3c-1.3,0.7-2.3,2.5-2.3,4
										C67.4,45.5,68.4,46.1,69.7,45.3"/>
								</g>
							</g>
						</g>
					</g>
					<g>
						<g>
							<g class="st2">
								<path class="st7" d="M77.2,44.5c0-0.2,0-0.3,0-0.4c0-0.7-0.3-1.4-0.7-1.7l-0.7-0.1c0.4,0.2,0.7,0.7,0.7,1.5
									c0,0.2,0,0.3,0,0.5c0,0,0,0.1,0,0.1c0,0.2-0.1,0.3-0.1,0.5c0,0,0,0,0,0c-0.4,1.2-1.3,2.6-2.6,3c-0.1,0-0.3,0.1-0.4,0.1
									c0,0,0,0,0,0c-0.1,0-0.3,0-0.4,0c0,0,0,0,0,0c-0.1,0-0.2-0.1-0.3-0.1c0,0,0.5,0.5,0.5,0.5c0.1,0.1,0.7,0.2,0.8,0.2
									C75.5,48.6,77,46.1,77.2,44.5z"/>
								<path class="st7" d="M76.5,41.2c-1.8-1-3.8,1.3-4.6,2.7c-0.6,1-1,2.1-0.9,3.2c0,1.2,0.5,1.9,1.5,2.4
									c-1.1-0.8-0.6-3.9,0.2-5.2c0.8-1.3,3.1-3.4,4.4-2.8C76.9,41.4,76.7,41.3,76.5,41.2z"/>
								<g>
									<path class="st8" d="M74.8,41.7c1.8-1,3.3-0.2,3.3,1.9c0,2.1-1.4,4.6-3.3,5.6c-1.8,1-3.3,0.2-3.3-1.9
										C71.5,45.3,73,42.8,74.8,41.7z M74.8,48.1c1.3-0.7,2.3-2.5,2.3-4c0-1.5-1-2-2.3-1.3c-1.3,0.7-2.3,2.5-2.3,4
										C72.5,48.3,73.5,48.8,74.8,48.1"/>
								</g>
							</g>
						</g>
						<g>
							<g class="st2">
								<path class="st7" d="M82.3,47.5c0-0.2,0-0.3,0-0.4c0-0.7-0.3-1.4-0.7-1.7l-0.7-0.1c0.4,0.2,0.7,0.7,0.7,1.5
									c0,0.2,0,0.3,0,0.5c0,0,0,0.1,0,0.1c0,0.2-0.1,0.3-0.1,0.5c0,0,0,0,0,0c-0.4,1.2-1.3,2.6-2.6,3c-0.1,0-0.3,0.1-0.4,0.1
									c0,0,0,0,0,0c-0.1,0-0.3,0-0.4,0c0,0,0,0,0,0c-0.1,0-0.2-0.1-0.3-0.1c0,0,0.5,0.5,0.5,0.5c0.1,0.1,0.7,0.2,0.8,0.2
									C80.6,51.5,82.1,49,82.3,47.5z"/>
								<path class="st7" d="M81.6,44.1c-1.8-1-3.8,1.3-4.6,2.7c-0.6,1-1,2.1-0.9,3.2c0,1.2,0.5,1.9,1.5,2.4
									c-1.1-0.8-0.6-3.9,0.2-5.2c0.8-1.3,3.1-3.4,4.4-2.8C82,44.3,81.8,44.2,81.6,44.1z"/>
								<g>
									<path class="st8" d="M79.8,44.7c1.8-1,3.3-0.2,3.3,1.9c0,2.1-1.4,4.6-3.3,5.6c-1.8,1-3.3,0.2-3.3-1.9
										C76.6,48.2,78,45.7,79.8,44.7z M79.8,51.1c1.3-0.7,2.3-2.5,2.3-4c0-1.5-1-2-2.3-1.3c-1.3,0.7-2.3,2.5-2.3,4
										C77.6,51.2,78.6,51.8,79.8,51.1"/>
								</g>
							</g>
						</g>
						<g>
							<g class="st2">
								<path class="st7" d="M87.3,50.5c0-0.2,0-0.3,0-0.4c0-0.7-0.3-1.4-0.7-1.7l-0.7-0.1c0.4,0.2,0.7,0.7,0.7,1.5
									c0,0.2,0,0.3,0,0.5c0,0,0,0.1,0,0.1c0,0.2-0.1,0.3-0.1,0.5c0,0,0,0,0,0c-0.4,1.2-1.3,2.6-2.6,3c-0.1,0-0.3,0.1-0.4,0.1
									c0,0,0,0,0,0c-0.1,0-0.3,0-0.4,0c0,0,0,0,0,0c-0.1,0-0.2-0.1-0.3-0.1c0,0,0.5,0.5,0.5,0.5c0.1,0.1,0.7,0.2,0.8,0.2
									C85.6,54.5,87.1,52,87.3,50.5z"/>
								<path class="st7" d="M86.6,47.1c-1.8-1-3.8,1.3-4.6,2.7c-0.6,1-1,2.1-0.9,3.2c0,1.2,0.5,1.9,1.5,2.4
									c-1.1-0.8-0.6-3.9,0.2-5.2c0.8-1.3,3.1-3.4,4.4-2.8C87,47.4,86.8,47.2,86.6,47.1z"/>
								<g>
									<path class="st8" d="M84.8,47.7c1.8-1,3.3-0.2,3.3,1.9c0,2.1-1.4,4.6-3.3,5.6c-1.8,1-3.3,0.2-3.3-1.9
										C81.6,51.3,83,48.7,84.8,47.7z M84.9,54.1c1.3-0.7,2.3-2.5,2.3-4c0-1.5-1-2-2.3-1.3c-1.3,0.7-2.3,2.5-2.3,4
										C82.6,54.2,83.6,54.8,84.9,54.1"/>
								</g>
							</g>
						</g>
					</g>
				</g>
			</g>
			<g>
				<g>
					<g>
						<polygon class="st4" points="99,56.2 98.9,63.4 94.8,57 94.8,53.8 						"/>
					</g>
					<g>
						<polygon class="st7" points="94.8,53.8 94.8,61 89.2,64.3 89.2,57.1 						"/>
					</g>
					<g>
						<polygon class="st4" points="99,56.2 98.9,63.4 93.3,66.7 93.3,59.5 						"/>
					</g>
					<g>
						<polygon class="st8" points="93.3,59.5 93.3,66.7 89.2,64.3 89.2,57.1 						"/>
					</g>
				</g>
				<polygon class="st7" points="94.8,53.8 99,56.2 93.3,59.5 89.2,57.1 				"/>
			</g>
			<g>
				<g class="st2">
					<path class="st8" d="M99.1,60.9l-2.4-1.4c0,0,0,0,0,0c0,0,0,0-0.1,0c-0.2-0.1-0.3-0.1-0.5,0c0,0-0.1,0-0.1,0
						c-0.7,0.3-1.3,1.1-1.4,1.9c0,0.1,0,0.2,0,0.2c0,0.4,0.1,0.6,0.3,0.8l2.4,1.4C97.2,63.7,99.1,60.9,99.1,60.9z"/>
					<g>
						<path class="st4" d="M98.3,61c0.7-0.4,1.2-0.1,1.2,0.7c0,0.8-0.5,1.7-1.2,2c-0.7,0.4-1.2,0.1-1.2-0.7
							C97.1,62.3,97.6,61.4,98.3,61z"/>
					</g>
				</g>
			</g>
		</g>
	</g>
	<g>
		<polygon class="st9" points="68,50.5 68,61.3 65.3,59.8 65.3,48.9 66.7,49.7 		"/>
		<polygon class="st1" points="68,50.5 68.7,50.1 68.6,60.9 68,61.3 		"/>
		<polygon class="st0" points="68.7,50.1 67.4,49.3 66,48.5 65.3,48.9 68,50.5 		"/>
	</g>
	<g>
		<polygon class="st9" points="50.2,40.5 50.2,51.3 47.5,49.9 47.5,38.9 48.9,39.8 		"/>
		<polygon class="st1" points="50.2,40.5 50.8,40.1 50.8,51 50.2,51.3 		"/>
		<polygon class="st0" points="50.8,40.1 49.6,39.4 48.2,38.6 47.5,38.9 50.2,40.5 		"/>
	</g>
	<g>
		<polygon class="st9" points="32.7,30.4 32.7,41.2 30.1,39.8 30.1,28.8 31.5,29.6 		"/>
		<polygon class="st1" points="32.8,30.4 33.4,30 33.4,40.8 32.7,41.2 		"/>
		<polygon class="st0" points="33.4,30 32.1,29.3 30.8,28.5 30.1,28.8 32.8,30.4 		"/>
	</g>
	<g>
		<polygon class="st9" points="15.2,20.3 15.2,31.1 12.6,29.6 12.6,18.7 14,19.5 		"/>
		<polygon class="st1" points="15.3,20.3 15.9,19.9 15.9,30.7 15.2,31.1 		"/>
		<polygon class="st0" points="15.9,19.9 14.6,19.2 13.3,18.3 12.6,18.7 15.3,20.3 		"/>
	</g>
</g>
</svg>
