<?xml version="1.0" encoding="utf-8"?>
<!-- Generator: Adobe Illustrator 23.0.3, SVG Export Plug-In . SVG Version: 6.00 Build 0)  -->
<svg version="1.2" baseProfile="tiny" id="Capa_1" xmlns="http://www.w3.org/2000/svg" xmlns:xlink="http://www.w3.org/1999/xlink"
	 x="0px" y="0px" viewBox="0 0 85.29 89.98" xml:space="preserve">
<g>
	<path fill-rule="evenodd" fill="#A0ADD9" d="M28.21,21.64h-9.04c-0.58,0-1.06-0.47-1.06-1.06V2.3c0-0.58,0.47-1.06,1.06-1.06h9.04
		V21.64z"/>
	<path fill-rule="evenodd" fill="#3458A5" d="M41.21,1.25h7.1c0.58,0,1.06,0.47,1.06,1.06v18.28c0,0.58-0.47,1.06-1.06,1.06h-7.1
		V1.25z"/>
	<path fill-rule="evenodd" fill="#A0ADD9" d="M45.63,27.12c-18.38,0-33.28,12.59-33.28,28.12h66.56
		C78.91,39.71,64.01,27.12,45.63,27.12z"/>
	<g>
		<rect x="17.22" y="85.76" fill-rule="evenodd" fill="#3458A5" width="55.06" height="4.22"/>
		<path fill="#A0ADD9" d="M60.56,83.5v-5.62H33.29v0.62h2.54v4.17c0,2.94-2.51,3.09-2.51,3.09H20.23v4.22h13.06h27.27h14.73v-4.22
			H62.82C61.57,85.76,60.56,84.75,60.56,83.5z"/>
	</g>
	<path fill="#3458A5" d="M39.29,82.67V78.5h-2.54H35.8v4.22c0,0,0.21,3.04-2.83,3.04h3.81C36.78,85.76,39.29,85.6,39.29,82.67z"/>
	<path fill-rule="evenodd" fill="#A0ADD9" d="M67.22,39.04H51.3V20l-1.93,0.02l-0.09-17.5h2.02c0.12,0,0.24,0,0.36,0
		c8.62,0.19,15.55,7.24,15.55,15.91V39.04z"/>
	<path fill-rule="evenodd" fill="#A0ADD9" d="M44.66,22.77H23.44l-2.42-1.12V1.25L23.44,0h21.22c1.22,0,2.21,0.99,2.21,2.21v18.34
		C46.87,21.77,45.88,22.77,44.66,22.77z"/>
	<rect x="21.62" y="28.74" fill-rule="evenodd" fill="#A0ADD9" width="17.94" height="7.78"/>
	<rect x="23.44" y="22.77" fill-rule="evenodd" fill="#3458A5" width="16.12" height="5.97"/>
	<rect x="51.3" y="22.77" fill-rule="evenodd" fill="#3458A5" width="16.12" height="5.97"/>
	<path fill-rule="evenodd" fill="#A0ADD9" d="M10.1,17.56H2.64C1.18,17.56,0,16.38,0,14.92V8.88c0-1.46,1.18-2.64,2.64-2.64h7.45
		V17.56z"/>
	<g>
		<path fill="#3458A5" d="M13.65,8.27H10.1v8.11h3.68c0,0,0.46,0.66,0.83,1.7h0.44V4.69h-0.03C14.87,6.81,13.65,8.27,13.65,8.27z"/>
		<path fill-rule="evenodd" fill="#C0CAE9" d="M10.1,8.27h3.68c0,0,1.27,1.8,1.27,4.14s-1.39,3.97-1.39,3.97H10.1V8.27z"/>
		<path fill="#A0ADD9" d="M15.01,4.69H10.1v3.59h3.55C13.65,8.27,14.87,6.81,15.01,4.69z"/>
		<path fill="#A0ADD9" d="M10.1,16.38v1.7h4.51c-0.37-1.04-0.83-1.7-0.83-1.7H10.1z"/>
	</g>
	<g>
		<path fill="#3458A5" d="M17.26,6.74h-2.22v12.11h2.3c0,0,0.29,0.99,0.52,2.54h0.27V1.38h-0.02C18.02,4.56,17.26,6.74,17.26,6.74z"
			/>
		<path fill-rule="evenodd" fill="#C0CAE9" d="M15.04,6.74h2.3c0,0,0.79,2.68,0.79,6.18s-0.87,5.93-0.87,5.93h-2.22V6.74z"/>
		<path fill="#A0ADD9" d="M18.11,1.38h-3.07v5.36h2.22C17.26,6.74,18.02,4.56,18.11,1.38z"/>
		<path fill="#A0ADD9" d="M15.04,18.85v2.54h2.82c-0.23-1.55-0.52-2.54-0.52-2.54H15.04z"/>
	</g>
	<g>
		<path fill="#3458A5" d="M27.86,26.63v-1.3H24.9v1.34c0,0-0.24,0.17-0.62,0.3v0.16h4.88v-0.01C28.39,27.07,27.86,26.63,27.86,26.63
			z"/>
		<path fill-rule="evenodd" fill="#C0CAE9" d="M27.86,25.33v1.34c0,0-0.66,0.46-1.51,0.46s-1.45-0.51-1.45-0.51v-1.3H27.86z"/>
		<path fill="#A0ADD9" d="M29.17,27.13v-1.79h-1.31v1.3C27.86,26.63,28.39,27.07,29.17,27.13z"/>
		<path fill="#A0ADD9" d="M24.9,25.33h-0.62v1.64c0.38-0.13,0.62-0.3,0.62-0.3V25.33z"/>
	</g>
	<g>
		<path fill="#3458A5" d="M37.59,26.63v-1.3h-2.96v1.34c0,0-0.24,0.17-0.62,0.3v0.16h4.88v-0.01
			C38.12,27.07,37.59,26.63,37.59,26.63z"/>
		<path fill-rule="evenodd" fill="#C0CAE9" d="M37.59,25.33v1.34c0,0-0.66,0.46-1.51,0.46s-1.45-0.51-1.45-0.51v-1.3H37.59z"/>
		<path fill="#A0ADD9" d="M38.9,27.13v-1.79h-1.31v1.3C37.59,26.63,38.12,27.07,38.9,27.13z"/>
		<path fill="#A0ADD9" d="M34.63,25.33h-0.62v1.64c0.38-0.13,0.62-0.3,0.62-0.3V25.33z"/>
	</g>
	<path fill="#C0CAE9" d="M8.98,55.24c0,5.51,0.42,10.51,1.11,14.28V40.96C9.41,44.73,8.98,49.73,8.98,55.24z"/>
	<path fill="#A0ADD9" d="M13.25,33.99H10.1v6.96v28.57v6.96h3.15c2.36,0,4.27-9.51,4.27-21.25C17.51,43.51,15.6,33.99,13.25,33.99z"
		/>
	<path fill="#A0ADD9" d="M81.03,33.99h-3.15v6.96v28.57v6.96h3.15c2.36,0,4.27-9.51,4.27-21.25C85.29,43.51,83.38,33.99,81.03,33.99
		z"/>
	<ellipse fill-rule="evenodd" fill="#3458A5" cx="77.94" cy="55.24" rx="4.27" ry="21.25"/>
	<rect x="23.36" y="27.06" fill-rule="evenodd" fill="#A0ADD9" width="16.22" height="1.49"/>
	<g>
		<path fill="#3458A5" d="M55.8,26.63v-1.3h-2.96v1.34c0,0-0.24,0.17-0.62,0.3v0.16h4.88v-0.01C56.34,27.07,55.8,26.63,55.8,26.63z"
			/>
		<path fill-rule="evenodd" fill="#C0CAE9" d="M55.8,25.33v1.34c0,0-0.66,0.46-1.51,0.46c-0.85,0-1.45-0.51-1.45-0.51v-1.3H55.8z"/>
		<path fill="#A0ADD9" d="M57.11,27.13v-1.79H55.8v1.3C55.8,26.63,56.34,27.07,57.11,27.13z"/>
		<path fill="#A0ADD9" d="M52.85,25.33h-0.62v1.64c0.38-0.13,0.62-0.3,0.62-0.3V25.33z"/>
	</g>
	<g>
		<path fill="#3458A5" d="M65.22,26.63v-1.3h-2.96v1.34c0,0-0.24,0.17-0.62,0.3v0.16h4.88v-0.01
			C65.76,27.07,65.22,26.63,65.22,26.63z"/>
		<path fill-rule="evenodd" fill="#C0CAE9" d="M65.22,25.33v1.34c0,0-0.66,0.46-1.51,0.46c-0.85,0-1.45-0.51-1.45-0.51v-1.3H65.22z"
			/>
		<path fill="#A0ADD9" d="M66.53,27.13v-1.79h-1.31v1.3C65.22,26.63,65.76,27.07,66.53,27.13z"/>
		<path fill="#A0ADD9" d="M62.27,25.33h-0.62v1.64c0.38-0.13,0.62-0.3,0.62-0.3V25.33z"/>
	</g>
	<rect x="50.99" y="27.06" fill-rule="evenodd" fill="#A0ADD9" width="16.22" height="1.49"/>
	<ellipse fill-rule="evenodd" fill="#3458A5" cx="46.25" cy="54.5" rx="28.12" ry="28.07"/>
	<path fill="#A0ADD9" d="M76.44,42.03h-59.8v24.6h59.8c1.36,0,2.47-5.51,2.47-12.3S77.8,42.03,76.44,42.03z"/>
	<ellipse fill-rule="evenodd" fill="#3458A5" cx="10.16" cy="55.24" rx="4.27" ry="21.25"/>
	<g>
		<circle fill-rule="evenodd" fill="#A0ADD9" cx="46.25" cy="54.5" r="27.25"/>
		<circle fill-rule="evenodd" fill="#C0CAE9" cx="46.25" cy="54.5" r="20.5"/>
		<circle fill-rule="evenodd" fill="#A0ADD9" cx="46.25" cy="54.5" r="16.53"/>
		<circle fill-rule="evenodd" fill="#3458A5" cx="46.25" cy="30.75" r="1.34"/>
		<circle fill-rule="evenodd" fill="#3458A5" cx="33.74" cy="75" r="1.34"/>
		<circle fill-rule="evenodd" fill="#3458A5" cx="58.65" cy="75" r="1.34"/>
		<circle fill-rule="evenodd" fill="#3458A5" cx="68.66" cy="46.93" r="1.34"/>
		<circle fill-rule="evenodd" fill="#3458A5" cx="23.74" cy="46.93" r="1.34"/>
		<circle fill-rule="evenodd" fill="#C0CAE9" cx="46.25" cy="54.5" r="5.16"/>
		<rect x="44.58" y="37.55" fill-rule="evenodd" fill="#3458A5" width="3.34" height="8.6"/>
		
			<rect x="33.63" y="43.88" transform="matrix(0.5 -0.866 0.866 0.5 -24.071 54.6605)" fill-rule="evenodd" fill="#3458A5" width="3.34" height="8.6"/>
		
			<rect x="33.63" y="56.52" transform="matrix(-0.5 -0.866 0.866 -0.5 0.2803 121.8041)" fill-rule="evenodd" fill="#3458A5" width="3.34" height="8.6"/>
		
			<rect x="44.58" y="62.84" transform="matrix(-1 -8.888502e-11 8.888502e-11 -1 92.5053 134.287)" fill-rule="evenodd" fill="#3458A5" width="3.34" height="8.6"/>
		
			<rect x="55.54" y="56.52" transform="matrix(-0.5 0.866 -0.866 -0.5 138.4776 41.6922)" fill-rule="evenodd" fill="#3458A5" width="3.34" height="8.6"/>
		
			<rect x="55.54" y="43.88" transform="matrix(0.5 0.866 -0.866 0.5 70.3236 -25.4514)" fill-rule="evenodd" fill="#3458A5" width="3.34" height="8.6"/>
	</g>
</g>
</svg>
