<?xml version="1.0" encoding="utf-8"?>
<!-- Generator: Adobe Illustrator 23.0.4, SVG Export Plug-In . SVG Version: 6.00 Build 0)  -->
<svg version="1.1" xmlns="http://www.w3.org/2000/svg" xmlns:xlink="http://www.w3.org/1999/xlink" x="0px" y="0px"
	 viewBox="0 0 109.9 127.2" style="enable-background:new 0 0 109.9 127.2;" xml:space="preserve">
<style type="text/css">
	.st0{fill:#FFFFFF;}
	.st1{fill:none;stroke:#808080;stroke-width:0.1065;stroke-miterlimit:10;}
	.st2{fill:#BFC9E8;}
	.st3{fill:#3458A3;}
	.st4{fill:#9FABD8;}
	.st5{fill:#F8AE32;}
	.st6{fill:#E47DAE;}
	.st7{fill:#9FAAD6;}
	.st8{fill:#13192B;}
	.st9{fill:#D76EA5;}
	.st10{fill:#E37EAE;}
	.st11{enable-background:new    ;}
	.st12{fill:#F2F1F1;}
	.st13{fill:#CDCCCC;}
	.st14{fill:#E7E6E6;}
	.st15{fill:none;}
	.st16{fill:none;stroke:#9FABD8;stroke-width:0.2891;stroke-linecap:round;stroke-linejoin:round;stroke-miterlimit:10;}
	.st17{fill:#D9D9D9;}
	.st18{fill:#868686;}
	.st19{fill:#B3B4B3;}
	.st20{fill:#CC5261;}
	.st21{fill:#751518;}
	.st22{fill:#BD1622;}
	.st23{fill:#6ABA82;}
	.st24{fill:#006E32;}
	.st25{fill:#31AA59;}
	.st26{fill:#264B8C;}
</style>
<g id="Capa_2">
</g>
<g id="Capa_1">
	<g>
		<g>
			<g>
				<path class="st2" d="M59,61.1L11.6,88.4l33.5,20.1l47.7-28L59,61.1z"/>
			</g>
			<g>
				<path class="st3" d="M45.2,110.7L11.5,91.1l0-2.7L45.2,108C45.2,108,45.3,110.7,45.2,110.7z"/>
			</g>
			<g>
				<polygon class="st4" points="45.1,108 45.1,110.7 92.9,83.2 92.9,80.5 				"/>
			</g>
		</g>
		<g>
			<g>
				<path class="st2" d="M57.6,58.2L14.6,82.9l31.1,18.7l43.2-25.4L57.6,58.2z"/>
			</g>
			<g>
				<path class="st3" d="M45.9,105.8L14.5,87.7l0-4.8l31.3,18.2C45.9,101.1,46,105.8,45.9,105.8z"/>
			</g>
			<g>
				<polygon class="st4" points="45.8,101.1 45.8,105.9 89,81 89,76.2 				"/>
			</g>
		</g>
		<g>
			<path class="st4" d="M54,62.5L29.6,76.4l16.2,10l24.6-14.5L54,62.5z"/>
		</g>
		<path class="st26" d="M64.6,47.5c-1.5,4.3-8.2,1.8-12.8,2.7c-5.6,1.1-10.3,1.6-14.7-2.1c-5.2-4.5-6.7,2.1-6.7-1.2
			c0,4.8-0.1,16.5-0.1,19.5c0,2.2-0.1,4.3,1.3,6.2c3,4.3,9.2,5.9,14.1,6.1c5.1,0.3,10.7-0.6,14.9-3.6c1.8-1.3,3.4-3.1,3.8-5.3
			c0.1-0.6,0.1-1.3,0.1-1.9c0-2.6,0.2-15,0.1-20.7c0-0.1,0,4.8,0,4.7C64.7,52.2,64.7,47.4,64.6,47.5z"/>
		<g>
			<path class="st3" d="M45.9,92.9l-16.4-9.5l0-7.1l16.4,9.5C45.9,85.8,46,92.9,45.9,92.9z"/>
		</g>
		<g>
			<polygon class="st4" points="45.8,85.9 45.8,92.9 70.5,78.9 70.5,71.8 			"/>
		</g>
		<g>
			<g class="st11">
				<path class="st2" d="M66.4,33.4c-1.6,4.8-9,6.4-14.1,7.4c-6.1,1.2-11.4,1.8-16.2-2.3c-5.8-4.9-7.4-2.1-7.4-5.7
					c0,5.3-0.1,7.6-0.1,11c0,2.5-0.6,5.8,1.7,7c25.1,12.6,13.5,28.1,23.1,27.4c2.8-0.2,6.4-2.1,8.6-3.7c2-1.4,3.7-3.4,4.2-5.9
					c0.1-0.7,0.1-1.4,0.1-2.1c0-2.8,0.2-27,0.1-33.2c0-0.1,0-0.3,0-0.4C66.4,33.1,66.5,33.3,66.4,33.4z"/>
				<g>
					
						<ellipse transform="matrix(2.835012e-03 -1 1 2.835012e-03 14.6109 80.3227)" class="st2" cx="47.6" cy="32.8" rx="10.9" ry="18.9"/>
				</g>
			</g>
		</g>
		<g>
			<g class="st11">
				<path class="st4" d="M45.5,75.6c-0.1-4.1-2.2-8.1-4.9-11.1c-2.2-2.3-5.9-5-9.1-3.2c-0.4,0.2-2.2,1.3-3.5,2
					c2.2-1.3,13.5,18.7,11.5,19.9c1.9-1.1,2.3-1.3,3-1.7C44.8,80.2,45.6,78.1,45.5,75.6z"/>
				<g>
					<path class="st3" d="M33.9,63.9C38.4,66.5,42,72.8,42,78c0,5.2-3.7,7.3-8.2,4.7c-4.5-2.6-8.1-8.9-8.1-14.1
						C25.7,63.4,29.4,61.3,33.9,63.9z"/>
				</g>
			</g>
		</g>
		<g>
			<g class="st11">
				<path class="st12" d="M39.3,77.1c-0.1-3-1.6-6-3.6-8.2c-1.6-1.7-4.3-3.7-6.7-2.3c-0.3,0.2-1.6,0.9-2.6,1.5
					c1.6-0.9,3.5-0.1,4.9,0.8c1.5,1.1,2.7,2.6,3.7,4.2c0.9,1.6,1.6,3.4,1.7,5.3c0.1,1.6-0.3,3.4-1.7,4.3c1.4-0.8,1.7-1,2.2-1.3
					C38.7,80.5,39.3,78.9,39.3,77.1z"/>
				<g>
					<path class="st13" d="M30.7,68.5c3.3,1.9,6,6.6,6,10.4c0,3.8-2.7,5.3-6,3.4s-6-6.6-6-10.4C24.7,68.1,27.4,66.6,30.7,68.5z"/>
				</g>
			</g>
		</g>
		<g>
			<g class="st11">
				<path class="st14" d="M37.6,80.9c-0.1-4.2-2.2-8.3-5-11.3c-2.2-2.4-6-5.1-9.2-3.2c-0.4,0.2-15.5,8.8-16.8,9.5
					c2.2-1.3,4.9-0.2,6.8,1.1c2.1,1.5,3.8,3.6,5.1,5.8c1.3,2.2,2.2,4.8,2.3,7.4c0.1,2.2-0.4,4.8-2.4,6c1.9-1.1,15.6-8.8,16.3-9.3
					C36.9,85.6,37.7,83.4,37.6,80.9z"/>
				<g>
					<path class="st13" d="M12.5,76.5c4.6,2.7,8.3,9.1,8.3,14.4c0,5.3-3.8,7.4-8.3,4.8s-8.3-9.1-8.3-14.4C4.1,76,7.9,73.8,12.5,76.5
						z"/>
				</g>
			</g>
		</g>
		<g>
			<g class="st11">
				<path class="st12" d="M22.3,90.3c-0.1-4.6-2.4-9.2-5.5-12.5c-2.4-2.6-6.6-5.6-10.2-3.6c-0.5,0.3-2.5,1.4-3.9,2.2
					c2.4-1.4,5.4-0.2,7.5,1.3c2.3,1.6,4.2,3.9,5.6,6.4c1.4,2.5,2.4,5.3,2.6,8.1c0.1,2.4-0.4,5.3-2.7,6.6c2.1-1.2,2.6-1.5,3.4-2
					C21.5,95.5,22.4,93,22.3,90.3z"/>
				<g>
					<path class="st13" d="M9.2,77.1c5.1,2.9,9.2,10,9.1,15.8c0,5.8-4.1,8.2-9.2,5.2C4.1,95.3,0,88.2,0,82.4
						C0,76.6,4.1,74.2,9.2,77.1z"/>
				</g>
			</g>
		</g>
		<g>
			<g class="st11">
				<path class="st12" d="M14.6,91.1c-0.1-3-1.6-6-3.6-8.2c-1.6-1.7-4.3-3.7-6.7-2.3c-0.3,0.2-1.6,0.9-2.6,1.5
					c1.6-0.9,3.5-0.1,4.9,0.8c1.5,1.1,2.7,2.6,3.7,4.2c0.9,1.6,1.6,3.4,1.7,5.3c0.1,1.6-0.3,3.4-1.7,4.3c1.4-0.8,1.7-1,2.2-1.3
					C14.1,94.5,14.7,92.9,14.6,91.1z"/>
				<g>
					<path class="st13" d="M6,82.5c3.3,1.9,6,6.6,6,10.4c0,3.8-2.7,5.3-6,3.4s-6-6.6-6-10.4C0,82.1,2.7,80.6,6,82.5z"/>
				</g>
			</g>
		</g>
		<g>
			<g>
				<path class="st0" d="M58.5,84.3c-0.8,0.6-1.5,0.3-1.5-0.6c0-1,0.7-2.2,1.5-2.8c0.8-0.6,1.5-0.3,1.5,0.6S59.3,83.7,58.5,84.3z"/>
			</g>
			<g>
				<path class="st12" d="M57.7,84.6c-0.1,0-0.2,0-0.3-0.1c-0.3-0.2-0.4-0.5-0.2-0.8l1.7-3c0.2-0.3,0.5-0.4,0.8-0.2
					c0.3,0.2,0.4,0.5,0.2,0.8l-1.7,3C58.1,84.5,57.9,84.6,57.7,84.6z"/>
			</g>
		</g>
		<g>
			<g class="st11">
				<path class="st4" d="M67.8,31c-0.6,6.5-9.7,8.3-15.1,9.4c-6.6,1.2-11.8,0.1-17.7-3.2c-3.2-1.7-7.6-3-7.6-6.9
					c0,3.4-0.2,4.6,1.4,7c3.6,5.1,10.9,7,16.8,7.3c6.1,0.3,12.7-0.7,17.7-4.2c2.2-1.5,4-3.7,4.5-6.3c0.1-0.7,0.2-1.2,0.2-3.2
					c0-0.1,0-0.3,0-0.4C67.9,30.6,67.8,30.8,67.8,31z"/>
				<g>
					
						<ellipse transform="matrix(2.835012e-03 -1 1 2.835012e-03 16.0555 78.8837)" class="st2" cx="47.6" cy="31.4" rx="11.7" ry="20.3"/>
				</g>
			</g>
		</g>
		<g>
			<g class="st11">
				<g>
					<path class="st4" d="M63.8,20.9c2.2,4.1,4,13.2-2.4,16.7c-7.6,4.3-19.8,4.3-27.4,0c-6.9-3.9-5.4-11.5-2.1-17.5
						C36,12.5,56.2,16.5,63.8,20.9z"/>
				</g>
				<g>
					
						<ellipse transform="matrix(2.835012e-03 -1 1 2.835012e-03 23.4585 71.4952)" class="st2" cx="47.6" cy="24" rx="9.9" ry="17.1"/>
				</g>
			</g>
		</g>
		<g>
			<g class="st11">
				<path class="st4" d="M62.8,19.4c-1.3,3.8-7.2,5.1-11.2,5.8c-4.9,0.9-9,1.4-12.8-1.8c-4.6-3.9-5.9-1.7-5.9-4.5
					c0,4.2-0.1-0.9-0.1,1.7c0,2-0.1,3.7,1.1,5.4c2.6,3.8,8.1,5.2,12.4,5.4c4.5,0.2,9.4-0.5,13.1-3.1c1.6-1.1,3-2.7,3.3-4.7
					c0.1-0.5,0.1-0.4,0.1-4.4c0-0.1,0-0.2,0-0.3C62.8,19.1,62.8,19.3,62.8,19.4z"/>
				<g>
					
						<ellipse transform="matrix(2.835012e-03 -1 1 2.835012e-03 28.7714 66.6712)" class="st2" cx="47.8" cy="18.9" rx="8.7" ry="15"/>
				</g>
			</g>
		</g>
		<g>
			<g class="st11">
				<path class="st4" d="M60.3,13.9c-1.1,3.2-6,4.3-9.4,4.9c-4.1,0.8-7.6,1.2-10.8-1.5c-3.9-3.3-4.9-1.4-4.9-3.8c0,3.5,0-0.8,0,1.5
					c0,1.6-0.1,3.1,0.9,4.6c2.2,3.2,6.8,4.3,10.4,4.5c3.7,0.2,7.8-0.4,11-2.6c1.3-0.9,2.5-2.3,2.8-3.9c0.1-0.5,0.1-0.8,0.1-3.7
					c0-0.1,0-0.2,0-0.3C60.4,13.7,60.4,13.8,60.3,13.9z"/>
				<g>
					
						<ellipse transform="matrix(2.835012e-03 -1 1 2.835012e-03 34.1537 61.2975)" class="st2" cx="47.8" cy="13.5" rx="7.3" ry="12.6"/>
				</g>
			</g>
		</g>
		<g>
			<g class="st11">
				<path class="st13" d="M58.6,9.7c-0.9,2.7-5.2,3.7-8.1,4.2c-3.5,0.7-6.5,1-9.3-1.3C37.9,9.7,37,11.4,37,9.3c0,3,0-0.7,0,1.3
					c0,1.4-0.1,2.7,0.8,3.9c1.9,2.7,5.8,3.7,8.9,3.9c3.2,0.2,6.8-0.4,9.4-2.3c1.1-0.8,2.1-1.9,2.4-3.4c0.1-0.4,0.1-0.7,0.1-3.2
					c0-0.1,0-0.1,0-0.2C58.6,9.4,58.6,9.6,58.6,9.7z"/>
				<g>
					
						<ellipse transform="matrix(2.835012e-03 -1 1 2.835012e-03 38.3674 57.0885)" class="st0" cx="47.8" cy="9.3" rx="6.3" ry="10.8"/>
				</g>
			</g>
		</g>
		<g>
			<g class="st11">
				<path class="st13" d="M58.6,6.6c-0.9,2.7-5.2,3.7-8.1,4.2c-3.5,0.7-6.5,1-9.3-1.3C37.9,6.7,37,8.3,37,6.2c0,3,0-0.7,0,1.3
					c0,1.4-0.1,2.7,0.8,3.9c1.9,2.7,5.8,3.7,8.9,3.9c3.2,0.2,6.8-0.4,9.4-2.3c1.1-0.8,2.1-1.9,2.4-3.4c0.1-0.4,0.1-0.7,0.1-3.2
					c0-0.1,0-0.1,0-0.2C58.6,6.4,58.6,6.5,58.6,6.6z"/>
				<g>
					
						<ellipse transform="matrix(2.835012e-03 -1 1 2.835012e-03 41.4088 54.0556)" class="st0" cx="47.8" cy="6.3" rx="6.3" ry="10.8"/>
				</g>
			</g>
		</g>
		<g>
			<g>
				<g class="st11">
					<path class="st14" d="M37.3,8.9c0.1,0.2,0.4,0.3,0.6,0.3c0.3,0.1,0.5,0.1,0.7-0.1C38.9,8.9,39,9,39,8.8c0,0.2,0-0.1,0,0.1
						c0,0.1,0,11.8-0.1,11.9c-0.1,0.2-0.5,0.3-0.7,0.3c-0.3,0-0.5,0-0.7-0.2c-0.1-0.1-0.2-0.2-0.2-0.3c0,0,0-11.7,0-11.7
						C37.3,8.9,37.3,9.1,37.3,8.9C37.3,8.9,37.3,8.9,37.3,8.9C37.3,8.9,37.3,8.9,37.3,8.9z"/>
					<g>
						
							<ellipse transform="matrix(1 -2.835012e-03 2.835012e-03 1 -2.493435e-02 0.1082)" class="st12" cx="38.1" cy="8.8" rx="0.8" ry="0.5"/>
					</g>
				</g>
			</g>
			<path class="st14" d="M34.9,23.7c0-1.1,0.9-2,2-2c0.2,0,0.4-0.2,0.4-0.4v-1.2H39v1.2c0,1.1-0.9,2.1-2.1,2.1
				c-0.2,0-0.3,0.1-0.3,0.3c0,0,0,6.1-0.1,6.2c-0.1,0.2-0.5,0.3-0.7,0.3c-0.3,0-0.5,0-0.7-0.2c-0.1-0.1-0.2-0.2-0.2-0.3
				C34.9,29.7,34.9,23.7,34.9,23.7z"/>
		</g>
		<g>
			<g class="st11">
				<path class="st2" d="M37.8,35.7c0-0.9-0.5-1.9-1.1-2.6c-0.5-0.5-1.4-1.2-2.1-0.7c-0.1,0.1-0.5,0.3-0.8,0.5
					c0.5-0.3,1.1,0,1.6,0.3c0.5,0.3,0.9,0.8,1.2,1.3c0.3,0.5,0.5,1.1,0.5,1.7c0,0.5-0.1,1.1-0.5,1.4c0.4-0.3,0.5-0.3,0.7-0.4
					C37.6,36.7,37.8,36.2,37.8,35.7z"/>
				<g>
					<path class="st3" d="M35.1,32.9c1,0.6,1.9,2.1,1.9,3.3c0,1.2-0.9,1.7-1.9,1.1c-1-0.6-1.9-2.1-1.9-3.3
						C33.2,32.8,34,32.3,35.1,32.9z"/>
				</g>
			</g>
		</g>
		<g>
			<g class="st11">
				<path class="st14" d="M36.4,36.2c0-0.8-0.4-1.6-1-2.2c-0.4-0.5-1.2-1-1.8-0.6c-0.1,0-4.4,2.6-4.7,2.8c0.4-0.3,1,0,1.3,0.2
					c0.4,0.3,0.7,0.7,1,1.1c0.2,0.4,0.4,0.9,0.5,1.4c0,0.4-0.1,0.9-0.5,1.2c0.4-0.2,4.4-2.6,4.6-2.7C36.3,37.1,36.4,36.6,36.4,36.2z
					"/>
				<g>
					<path class="st13" d="M30.1,36.2c0.9,0.5,1.6,1.8,1.6,2.8c0,1-0.7,1.5-1.6,0.9c-0.9-0.5-1.6-1.8-1.6-2.8
						C28.5,36.1,29.2,35.7,30.1,36.2z"/>
				</g>
			</g>
		</g>
		<path class="st14" d="M30.3,37.1c-0.3-0.4-0.9-0.8-1.4-0.5c-0.1,0-13,7.7-13.2,7.8c0,0,0,0,0,0c-0.2,0.1-0.4,0.4-0.4,0.8
			c0,0.1,0,0.2,0,0.3c0,0.6,0,7.3,0,7.3c0,0.2,0.2,0.4,0.3,0.5c0.4,0.3,0.9,0.3,1.4,0.3c0.5,0,1-0.2,1.3-0.6
			c0.1-0.1,0.1-3.9,0.1-6.1c3-1.8,12.1-7.2,12.2-7.2c0.3-0.2,0.5-0.5,0.5-0.9C31.1,38.2,30.8,37.6,30.3,37.1z M16.2,44.4
			C16.2,44.4,16.2,44.4,16.2,44.4C16.2,44.4,16.2,44.4,16.2,44.4C16.2,44.4,16.2,44.4,16.2,44.4z M16,44.4C16,44.4,16,44.4,16,44.4
			C16,44.4,16,44.4,16,44.4z"/>
		<g>
			<g class="st11">
				<path class="st2" d="M53.8,15.9c0-0.7,0.4-1.5,0.9-2c0.4-0.4,1.1-0.9,1.7-0.6c0.1,0,0.4,0.2,0.6,0.4c-0.4-0.2-0.9,0-1.2,0.2
					c-0.4,0.3-0.7,0.6-0.9,1c-0.2,0.4-0.4,0.9-0.4,1.3c0,0.4,0.1,0.9,0.4,1.1c-0.3-0.2-0.4-0.2-0.6-0.3
					C53.9,16.8,53.8,16.4,53.8,15.9z"/>
				<g>
					<path class="st3" d="M55.9,13.8c-0.8,0.5-1.5,1.6-1.5,2.6c0,0.9,0.7,1.3,1.5,0.9s1.5-1.6,1.5-2.6
						C57.4,13.7,56.7,13.3,55.9,13.8z"/>
				</g>
			</g>
		</g>
		<path class="st14" d="M89.1,33.1c0-0.1,0-0.1,0-0.2l0,0c-0.1-0.3-0.2-0.4-0.4-0.5c0,0,0,0,0,0C88.6,32.3,57.1,14,57.1,14
			c-0.5-0.3-1.1,0.1-1.4,0.5c-0.4,0.5-0.8,1.1-0.8,1.8c0,0.4,0.1,0.7,0.5,0.9c0.1,0.1,25.2,14.7,30.3,17.6c0,1.8,0,6.4,0,6.5
			c0,0.2,0.2,0.4,0.3,0.5c0.9,0.5,2.4,0.5,3.1,0c0.1-0.1,0.1-6,0.1-8.5c0,0,0,0,0-0.1C89.2,33.2,89.1,33.2,89.1,33.1z"/>
		<g>
			<g>
				<g class="st11">
					<path class="st14" d="M55.6,9.9c-0.1,0.2-0.4,0.3-0.6,0.3c-0.3,0.1-0.5,0.1-0.7-0.1c-0.3-0.2-0.3-0.1-0.3-0.3
						c0,0.2,0-0.1,0,0.1c0,0.1,0,11.6,0.1,11.7c0.1,0.2,0.5,0.3,0.7,0.3c0.3,0,0.5,0,0.7-0.2c0.1-0.1,0.2-0.2,0.2-0.3
						c0,0,0-11.5,0-11.5C55.6,9.9,55.6,10.2,55.6,9.9C55.6,9.9,55.6,9.9,55.6,9.9C55.6,9.9,55.6,9.9,55.6,9.9z"/>
					<g>
						
							<ellipse transform="matrix(2.835012e-03 -1 1 2.835012e-03 44.6671 64.58)" class="st12" cx="54.7" cy="9.9" rx="0.5" ry="0.8"/>
					</g>
				</g>
			</g>
			<path class="st14" d="M58,24.5c0-1.1-0.9-2-2-2c-0.2,0-0.4-0.2-0.4-0.4v-1.2h-1.7v1.2c0,1.1,0.9,2.1,2.1,2.1
				c0.2,0,0.3,0.1,0.3,0.3c0,0,0,6.1,0.1,6.2c0.1,0.2,0.5,0.3,0.7,0.3c0.3,0,0.5,0,0.7-0.2c0.1-0.1,0.2-0.2,0.2-0.3
				C58,30.6,58,24.5,58,24.5z"/>
		</g>
		<g>
			<polygon class="st12" points="85.1,52.6 85.1,52.6 70.2,61 70.5,61.1 70.2,61 			"/>
			<path class="st12" d="M109.9,60.6L85,46.3L30.9,77.3l0.4,3.6l21.5,12.5l2.8-1.7l2.8,0.7l50-28.7L109.9,60.6z"/>
			<polygon class="st12" points="85.1,52.6 85.1,52.6 85.1,52.6 			"/>
			<polygon class="st13" points="55.6,127.2 55.6,127.2 55.6,127.2 			"/>
			<polygon class="st13" points="55.6,91.8 55.6,91.7 31.2,77.5 30.8,77.3 30.8,112.8 55.6,127.1 58.4,124 58.4,92.7 			"/>
			<polygon class="st14" points="109.9,60.5 55.6,91.7 55.6,91.8 55.6,127.1 55.6,127.2 55.6,127.2 55.6,127.2 109.9,96 			"/>
			<polygon class="st14" points="35.9,77.6 55.6,88.7 64.8,83.5 68.1,73.2 64.7,60.9 35.7,77.4 			"/>
			<path class="st14" d="M84.4,72.3L84.4,72.3l-16-9.3L84.4,72.3C84.4,72.3,84.4,72.3,84.4,72.3z"/>
			<path class="st13" d="M64.8,83.5l19.6-11.2c0,0,0,0,0,0c0,0,0,0,0,0l-16-9.3l-3.7-2.2l0,0.1L64.8,83.5L64.8,83.5z"/>
			<path class="st13" d="M74.8,70c0.1,0.1,0.1,0.3,0.2,0.4C74.9,70.3,74.8,70.2,74.8,70C74.8,70,74.8,70,74.8,70z"/>
			<path class="st13" d="M73.4,69.2c0.1,0,0.2-0.1,0.3-0.1C73.6,69.2,73.5,69.2,73.4,69.2z"/>
			<path class="st13" d="M74.5,69.6c0.1,0.1,0.2,0.2,0.2,0.3C74.6,69.8,74.6,69.7,74.5,69.6z"/>
			<path class="st13" d="M75,70.6c0,0.1,0.1,0.2,0.1,0.3c0,0,0,0,0-0.1C75,70.8,75,70.7,75,70.6z"/>
			<path class="st13" d="M74.1,69.3c0.1,0.1,0.2,0.1,0.2,0.2C74.3,69.5,74.3,69.4,74.1,69.3C74.2,69.3,74.1,69.3,74.1,69.3z"/>
			<path class="st13" d="M74.1,69.3c-0.1-0.1-0.2-0.1-0.3-0.1C73.8,69.2,74,69.2,74.1,69.3z"/>
			<path class="st13" d="M75,71.3c0-0.1,0.1-0.2,0.1-0.3C75,71.1,75,71.2,75,71.3z"/>
			<polygon class="st14" points="70.2,61 80.5,58 85.1,52.6 85.9,51.3 85.1,49.3 85.1,49.3 67.3,59.4 			"/>
			<polygon class="st14" points="104.8,60.6 104.8,60.6 104.8,60.6 			"/>
			<path class="st13" d="M85.1,52.6L85.1,52.6L85.1,52.6L85.1,52.6L85.1,52.6l6.7,5.1l10.2,4.6l2.8-1.6c0,0,0,0,0,0c0,0,0,0,0,0
				c0,0,0,0,0,0L85.1,49.2l0,0.1L85.1,52.6L85.1,52.6z"/>
			<path class="st12" d="M79.4,64.8c0,0,0-0.1,0-0.1C79.4,64.8,79.4,64.8,79.4,64.8z"/>
			<path class="st12" d="M85.1,52.6L85.1,52.6L85.1,52.6L70.2,61l0.2,0.1l16.9,9.5l14.7-8.4L85.1,52.6L85.1,52.6z"/>
			<path class="st13" d="M81.6,65.2c-0.5,0.3-1.3,0.3-1.8,0c-0.2-0.1-0.3-0.3-0.3-0.4c0,0,0-0.1,0-0.1c0,0,0,0,0,0c0,0,0,0,0,0
				c0,0.4,0-0.1,0,0.1c0,0.2,0,0.3,0.1,0.5c0.2,0.3,0.7,0.4,1.1,0.5c0.4,0,0.8,0,1.1-0.3c0.1-0.1,0.3-0.2,0.3-0.4c0,0,0-0.1,0-0.4
				c0,0,0,0,0,0c0,0,0,0,0,0c0,0,0,0,0,0C81.9,64.9,81.8,65.1,81.6,65.2z"/>
			<path class="st0" d="M81.6,64.2c-0.5-0.3-1.3-0.3-1.8,0c-0.2,0.1-0.4,0.3-0.4,0.5c0,0,0,0,0,0c0,0,0,0.1,0,0.1
				c0,0.1,0.1,0.3,0.3,0.4c0.5,0.3,1.3,0.3,1.8,0c0.2-0.1,0.3-0.3,0.3-0.5C81.9,64.6,81.8,64.3,81.6,64.2z M80,64.3
				c0.4-0.2,1-0.2,1.4,0c0.4,0.2,0.4,0.6,0,0.8c-0.4,0.2-1,0.2-1.4,0C79.6,64.9,79.6,64.5,80,64.3z"/>
			<path class="st13" d="M80,65.1c0.4,0.2,1,0.2,1.4,0c0.4-0.2,0.4-0.6,0-0.8c-0.4-0.2-1-0.2-1.4,0C79.6,64.5,79.6,64.9,80,65.1z"/>
			<path class="st12" d="M73.7,69.2C73.7,69.2,73.7,69.2,73.7,69.2c0.2,0,0.3,0.1,0.4,0.1c0,0,0,0,0,0c0,0,0,0,0,0c0,0,0.1,0,0.1,0
				c0.1,0,0.1,0.1,0.2,0.2c0,0,0.1,0.1,0.1,0.1c0.1,0.1,0.2,0.2,0.2,0.3c0,0,0,0.1,0.1,0.1c0,0,0,0,0,0c0.1,0.1,0.1,0.3,0.2,0.4
				c0,0,0,0.1,0,0.1c0,0.1,0,0.2,0.1,0.3c0,0,0,0,0,0.1c0,0,0,0,0,0c0,0,0,0,0,0c0,0.1,0,0.2-0.1,0.3c0,0,0,0,0,0
				c0,0.1-0.1,0.2-0.2,0.2c0.2-0.1,0.3-0.2,0.4-0.2c0.3-0.1,0.3-0.4,0.3-0.7c0-0.5-0.3-1-0.6-1.3c-0.3-0.3-0.7-0.6-1.1-0.4
				c0,0-0.3,0.1-0.4,0.2c0,0,0,0,0,0C73.5,69.2,73.6,69.2,73.7,69.2z"/>
			<polygon class="st12" points="73.4,69.2 73.4,69.2 73.4,69.2 			"/>
			<path class="st14" d="M74.1,71.5c0.4,0.2,0.7,0.1,0.9-0.1c0,0,0,0,0,0c0-0.1,0.1-0.2,0.1-0.3c0,0,0,0,0,0c0,0,0,0,0,0
				c0-0.1,0-0.2-0.1-0.3c0,0,0-0.1,0-0.1c0-0.1-0.1-0.3-0.2-0.4c0,0,0-0.1-0.1-0.1c-0.1-0.1-0.1-0.2-0.2-0.3c0,0-0.1-0.1-0.1-0.1
				c-0.1-0.1-0.2-0.1-0.2-0.2c0,0,0,0,0,0c0,0,0,0,0,0c-0.1-0.1-0.2-0.1-0.3-0.1c0,0,0,0-0.1,0c-0.1,0-0.2,0-0.3,0.1c0,0,0,0,0,0
				c0,0,0,0,0,0c0,0,0,0,0,0c-0.2,0.1-0.3,0.3-0.3,0.6C73.1,70.4,73.6,71.2,74.1,71.5z M74.1,69.5c0.4,0.2,0.8,0.9,0.8,1.3
				c0,0.5-0.4,0.7-0.8,0.4c-0.4-0.2-0.8-0.9-0.8-1.3C73.3,69.4,73.7,69.2,74.1,69.5z"/>
			<path class="st13" d="M74.1,71.3c0.4,0.2,0.8,0,0.8-0.4c0-0.5-0.3-1.1-0.8-1.3c-0.4-0.2-0.8,0-0.8,0.4
				C73.3,70.4,73.7,71,74.1,71.3z"/>
		</g>
	</g>
</g>
</svg>
