<?xml version="1.0" encoding="utf-8"?>
<!-- Generator: Adobe Illustrator 23.0.3, SVG Export Plug-In . SVG Version: 6.00 Build 0)  -->
<svg version="1.1" id="Capa_1" xmlns="http://www.w3.org/2000/svg" xmlns:xlink="http://www.w3.org/1999/xlink" x="0px" y="0px"
	 viewBox="0 0 178.2 211.2" style="enable-background:new 0 0 178.2 211.2;" xml:space="preserve">
<style type="text/css">
	.st0{fill:#3458A3;}
	.st1{fill:#9FABD8;}
	.st2{fill:#E7E6E6;}
	.st3{fill:#CDCCCC;}
	.st4{fill:#F2F1F1;}
	.st5{fill:#BFC9E8;}
	.st6{fill:#C6C6C5;}
	.st7{opacity:0.4;}
	.st8{fill:#808080;}
	.st9{fill:#FFFFFF;}
	.st10{fill:#D9D9D9;}
	.st11{fill:none;stroke:#3458A3;stroke-width:0.6338;stroke-linecap:round;stroke-linejoin:round;stroke-miterlimit:10;}
	.st12{fill:#B3B4B3;}
	.st13{fill:#2F3030;}
	.st14{fill:#5A7DBA;}
	.st15{fill:#D0D9EF;}
	.st16{fill:#264B8C;}
	.st17{fill:#006E32;}
	.st18{fill:#31AA59;}
	.st19{fill:#6ABA82;}
	.st20{fill:#88D39C;}
	.st21{fill:#035426;}
	.st22{fill:#751518;}
	.st23{fill:#BD1622;}
	.st24{fill:#CC5261;}
	.st25{fill:#EA6A80;}
	.st26{fill:#5B1016;}
	.st27{fill:#868686;}
	.st28{fill:#EAEAEA;}
	.st29{fill:#636363;}
</style>
<g>
	<g>
		<g>
			<polygon class="st0" points="61.3,143.5 110.2,172.8 111.8,171.9 111.4,186.5 110.2,187.3 61.3,158.6 			"/>
		</g>
		<g>
			<g>
				<polygon class="st1" points="178.1,162.7 170.4,167 170.4,140.1 178.1,135.7 				"/>
			</g>
			<g>
				<polygon class="st0" points="170.4,167 161.6,161.8 161.6,135.7 170.4,140.1 				"/>
			</g>
		</g>
		<g>
			<g>
				<polygon class="st1" points="117.9,197.1 110.2,201.7 110.2,175 117.9,170.7 				"/>
			</g>
			<g>
				<polygon class="st0" points="110.3,201.6 101.4,196.4 101.4,170.7 110.2,175 				"/>
			</g>
		</g>
		<g>
			<g>
				<g>
					<polygon class="st2" points="116.4,93.7 46,134.1 46,115.4 116.9,59.3 					"/>
				</g>
				<g>
					<polygon class="st3" points="46,134.1 43.1,132.7 43.1,113.9 46,115.4 					"/>
				</g>
				<g>
					<polyline class="st4" points="116.9,59.3 113.7,57.4 43.1,113.9 46,115.4 					"/>
				</g>
			</g>
			<g>
				<g>
					<polygon class="st1" points="119.9,92.3 41.3,139.2 41.4,130.9 119.9,68.7 					"/>
				</g>
				<g>
					<polygon class="st0" points="41.3,139.1 38.4,137.4 38.5,129.3 41.4,130.9 					"/>
				</g>
				<g>
					<polygon class="st5" points="120,68.7 116.8,66.8 38.5,129.3 41.4,130.9 					"/>
				</g>
				<g>
					<polygon class="st6" points="70.9,155.9 149.2,92.8 119.9,75.8 41.4,138.6 					"/>
				</g>
			</g>
			<g>
				<g>
					<polygon class="st1" points="148.6,115.5 73.8,158.8 73.9,151.1 148.7,91.9 					"/>
				</g>
				<g>
					<polygon class="st0" points="73.8,158.8 70.9,157.3 71,149.6 73.9,151.1 					"/>
				</g>
				<g>
					<polygon class="st5" points="148.8,91.9 145.5,90 71,149.6 73.8,151.1 					"/>
				</g>
			</g>
			<g>
				<g>
					<polygon class="st2" points="109.3,84.2 106.8,86.4 106.8,73.3 109.3,72.1 					"/>
				</g>
				<g>
					<polygon class="st3" points="106.8,86.4 106,86.1 106.1,73 106.8,73.3 					"/>
				</g>
				<g>
					<polyline class="st5" points="109.3,72.1 108.6,71.7 106.1,73 106.8,73.3 109.3,72.1 					"/>
				</g>
			</g>
			<g>
				<g>
					<path class="st0" d="M127.1,94.4l0-7.8l0.8-0.4l0,0.2l0,7.2L127.1,94.4z M127.4,86.7l0,7.1l0.4-0.3l0-6.9L127.4,86.7z"/>
				</g>
				<g>
					<path class="st0" d="M127.3,94.3L107.7,83v-0.1l0-7.6l19.6,11.3v0.1L127.3,94.3z M107.9,82.8l19.1,11.1l0-7.2l-19.1-11
						L107.9,82.8z"/>
				</g>
				<g>
					<rect x="108.4" y="75.9" class="st0" width="0.2" height="7.5"/>
				</g>
				<g>
					<rect x="109.1" y="76.3" class="st0" width="0.2" height="7.5"/>
				</g>
				<g>
					<rect x="110.5" y="77.1" class="st0" width="0.2" height="7.5"/>
				</g>
				<g>
					<rect x="111.9" y="77.8" class="st0" width="0.2" height="7.5"/>
				</g>
				<g>
					<rect x="113.2" y="78.6" class="st0" width="0.2" height="7.5"/>
				</g>
				<g>
					<rect x="114.6" y="79.4" class="st0" width="0.2" height="7.5"/>
				</g>
				<g>
					<rect x="116" y="80.1" class="st0" width="0.2" height="7.5"/>
				</g>
				<g>
					<rect x="117.4" y="81" class="st0" width="0.2" height="7.5"/>
				</g>
				<g>
					<rect x="118.7" y="81.8" class="st0" width="0.2" height="7.5"/>
				</g>
				<g>
					<rect x="120.1" y="82.6" class="st0" width="0.2" height="7.5"/>
				</g>
				<g>
					<rect x="121.4" y="83.3" class="st0" width="0.2" height="7.5"/>
				</g>
				<g>
					<rect x="122.8" y="84.1" class="st0" width="0.2" height="7.5"/>
				</g>
				<g>
					<rect x="124.1" y="84.9" class="st0" width="0.2" height="7.5"/>
				</g>
				<g>
					<rect x="125.6" y="85.7" class="st0" width="0.2" height="7.5"/>
				</g>
				<g>
					<rect x="109.9" y="76.7" class="st0" width="0.2" height="7.5"/>
				</g>
				<g>
					<rect x="109.8" y="76.7" class="st0" width="0.2" height="7.5"/>
				</g>
				<g>
					<rect x="111.2" y="77.5" class="st0" width="0.2" height="7.5"/>
				</g>
				<g>
					<rect x="112.5" y="78.2" class="st0" width="0.2" height="7.5"/>
				</g>
				<g>
					<rect x="113.9" y="79" class="st0" width="0.2" height="7.5"/>
				</g>
				<g>
					<rect x="115.3" y="79.8" class="st0" width="0.2" height="7.5"/>
				</g>
				<g>
					<rect x="116.7" y="80.6" class="st0" width="0.2" height="7.5"/>
				</g>
				<g>
					<rect x="118" y="81.4" class="st0" width="0.2" height="7.5"/>
				</g>
				<g>
					<rect x="119.4" y="82.2" class="st0" width="0.2" height="7.5"/>
				</g>
				<g>
					<rect x="120.7" y="82.9" class="st0" width="0.2" height="7.5"/>
				</g>
				<g>
					<rect x="122.1" y="83.7" class="st0" width="0.2" height="7.5"/>
				</g>
				<g>
					<rect x="123.4" y="84.5" class="st0" width="0.2" height="7.5"/>
				</g>
				<g>
					<rect x="124.9" y="85.3" class="st0" width="0.2" height="7.5"/>
				</g>
				<g>
					<rect x="126.4" y="86.3" class="st0" width="0.2" height="7.5"/>
				</g>
				<g>
					<polygon class="st0" points="127.1,88.7 107.8,77.5 107.9,77.2 127.2,88.5 					"/>
				</g>
				<g>
					<polygon class="st0" points="127,90.6 107.8,79.4 107.9,79.2 127.2,90.4 					"/>
				</g>
				<g>
					<polygon class="st0" points="127,92.6 107.8,81.3 107.9,81.1 127.1,92.4 					"/>
				</g>
			</g>
			<g>
				<g>
					<polygon class="st2" points="129.7,100.6 127.1,102.2 127.2,83.5 129.7,82.2 					"/>
				</g>
				<g>
					<polygon class="st3" points="127.1,102.2 126.2,101.6 126.3,83 127.2,83.5 					"/>
				</g>
				<g>
					<polyline class="st5" points="129.7,82.2 128.8,81.6 126.3,83 127.1,83.5 129.7,82.2 					"/>
				</g>
			</g>
			<g>
				<g>
					<polygon class="st2" points="150.5,118.4 83.3,156.8 83.4,136.8 150.5,83.7 					"/>
				</g>
				<g>
					<polygon class="st3" points="83.3,156.8 80.4,155 80.5,135.3 83.4,136.8 					"/>
				</g>
				<g>
					<polyline class="st4" points="150.5,83.8 147.3,81.9 80.5,135.4 83.3,136.8 					"/>
				</g>
			</g>
		</g>
		<g>
			<g>
				<g>
					<path class="st0" d="M150.4,126.6c-0.2,0-0.4-0.2-0.4-0.4V107c0-0.2,0.2-0.4,0.4-0.4s0.4,0.2,0.4,0.4v19.3
						C150.8,126.5,150.6,126.6,150.4,126.6z"/>
				</g>
				<g>
					<path class="st0" d="M177.7,130.1c-0.1,0-0.1,0-0.2,0l-27.3-15.6c-0.2-0.1-0.2-0.3-0.1-0.5c0.1-0.2,0.3-0.2,0.5-0.1l27.3,15.6
						c0.2,0.1,0.2,0.3,0.1,0.5C178,130.1,177.9,130.1,177.7,130.1z"/>
				</g>
				<g>
					<path class="st0" d="M166,129.1c-0.2,0-0.4-0.2-0.4-0.4v-12.6c0-0.2,0.2-0.4,0.4-0.4s0.4,0.2,0.4,0.4v12.6
						C166.4,128.9,166.2,129.1,166,129.1z"/>
				</g>
				<g>
					<polygon class="st5" points="178.1,133.8 110.3,172.8 83.2,156.7 150.4,118.4 					"/>
				</g>
				<g>
					<path class="st0" d="M177.8,136.8c-0.2,0-0.4-0.2-0.4-0.4v-13.6l-27.2-15.5c-0.2-0.1-0.2-0.3-0.1-0.5c0.1-0.2,0.3-0.2,0.5-0.1
						l27.3,15.6c0.1,0.1,0.2,0.2,0.2,0.3v13.8C178.2,136.6,178,136.8,177.8,136.8z"/>
				</g>
				<g>
					<g>
						<polygon class="st0" points="110.2,172.7 178.1,133.7 178.1,148 110.2,187.3 						"/>
					</g>
				</g>
				<g>
					<path class="st0" d="M165.5,130.1c-0.1,0-0.3-0.1-0.3-0.2c-0.1-0.2,0-0.4,0.1-0.5l12.2-7.1c0.2-0.1,0.4,0,0.5,0.1
						c0.1,0.2,0,0.4-0.1,0.5l-12.2,7.1C165.7,130.1,165.6,130.1,165.5,130.1z"/>
				</g>
				<g>
					<path class="st0" d="M165.7,137.2c-0.1,0-0.3-0.1-0.3-0.2c-0.1-0.2,0-0.4,0.1-0.5l12.1-7c0.2-0.1,0.4,0,0.5,0.1
						c0.1,0.2,0,0.4-0.1,0.5l-12.1,7C165.8,137.2,165.8,137.2,165.7,137.2z"/>
				</g>
				<g>
					<path class="st0" d="M163.7,142.7c-0.2,0-0.4-0.2-0.4-0.4V131c0-0.2,0.2-0.4,0.4-0.4s0.4,0.2,0.4,0.4v11.3
						C164,142.5,163.9,142.7,163.7,142.7z"/>
				</g>
			</g>
		</g>
		<g>
			<g>
				<g>
					<path class="st0" d="M66.1,80.3c-0.2,0-0.4-0.2-0.4-0.4V68.6c0-0.2,0.2-0.4,0.4-0.4s0.4,0.2,0.4,0.4V80
						C66.4,80.2,66.3,80.3,66.1,80.3z"/>
				</g>
				<g>
					<path class="st0" d="M50.6,89.2c-0.2,0-0.4-0.2-0.4-0.4V77.5c0-0.2,0.2-0.4,0.4-0.4s0.4,0.2,0.4,0.4v11.3
						C50.9,89,50.8,89.2,50.6,89.2z"/>
				</g>
				<g>
					<path class="st0" d="M34.5,98.4c-0.2,0-0.4-0.2-0.4-0.4V86.7c0-0.2,0.2-0.4,0.4-0.4s0.4,0.2,0.4,0.4V98
						C34.8,98.3,34.7,98.4,34.5,98.4z"/>
				</g>
				<g>
					<path class="st0" d="M91.6,81.8c-0.2,0-0.4-0.2-0.4-0.4V70.1c0-0.2,0.2-0.4,0.4-0.4s0.4,0.2,0.4,0.4v11.3
						C91.9,81.6,91.8,81.8,91.6,81.8z"/>
				</g>
				<g>
					<path class="st0" d="M19.2,103.1c-0.1,0-0.3-0.1-0.3-0.2c-0.1-0.2,0-0.4,0.1-0.5l58.3-33.5c0.1-0.1,0.3-0.1,0.4,0l41.4,23.7
						c0.2,0.1,0.2,0.3,0.1,0.5c-0.1,0.2-0.3,0.2-0.5,0.1L77.5,69.7L19.4,103C19.3,103.1,19.2,103.1,19.2,103.1z"/>
				</g>
				<g>
					<path class="st0" d="M77.5,75.1c-0.2,0-0.4-0.2-0.4-0.4V62c0-0.2,0.2-0.4,0.4-0.4s0.4,0.2,0.4,0.4v12.7
						C77.9,74.9,77.7,75.1,77.5,75.1z"/>
				</g>
				<g>
					<path class="st0" d="M107.2,92.2c-0.2,0-0.4-0.2-0.4-0.4V79c0-0.2,0.2-0.4,0.4-0.4s0.4,0.2,0.4,0.4v12.9
						C107.6,92,107.4,92.2,107.2,92.2z"/>
				</g>
				<g>
					<polygon class="st5" points="119.2,97 61,130.6 19.5,106.5 77.2,73.6 					"/>
				</g>
				<g>
					<path class="st0" d="M19.2,109.3c-0.2,0-0.4-0.2-0.4-0.4V95.5c0-0.1,0.1-0.3,0.2-0.3l58.3-33.5c0.1-0.1,0.3-0.1,0.4,0
						l41.4,23.7c0.1,0.1,0.2,0.2,0.2,0.3v13.8c0,0.2-0.2,0.4-0.4,0.4s-0.4-0.2-0.4-0.4V85.9L77.5,62.5L19.6,95.7v13.2
						C19.6,109.1,19.4,109.3,19.2,109.3z"/>
				</g>
				<g>
					<g>
						<polygon class="st0" points="19.3,106.4 60.9,130.5 61.6,130.2 61.6,134.5 60.9,135 19.3,110.8 						"/>
					</g>
					<g>
						<polygon class="st0" points="60.9,130.5 119.3,96.9 119.3,101.1 60.9,135 						"/>
					</g>
				</g>
				<g>
					<path class="st0" d="M106.7,93.3c-0.1,0-0.3-0.1-0.3-0.2c-0.1-0.2,0-0.4,0.1-0.5l12.2-7.1c0.2-0.1,0.4,0,0.5,0.1
						c0.1,0.2,0,0.4-0.1,0.5l-12.2,7.1C106.8,93.3,106.8,93.3,106.7,93.3z"/>
				</g>
				<g>
					<path class="st0" d="M106.9,100.3c-0.1,0-0.3-0.1-0.3-0.2c-0.1-0.2,0-0.4,0.1-0.5l12.1-7c0.2-0.1,0.4,0,0.5,0.1
						c0.1,0.2,0,0.4-0.1,0.5l-12.1,7C107,100.3,106.9,100.3,106.9,100.3z"/>
				</g>
				<g>
					<path class="st0" d="M106.7,104.6c-0.2,0-0.4-0.2-0.4-0.4V92.9c0-0.2,0.2-0.4,0.4-0.4s0.4,0.2,0.4,0.4v11.3
						C107.1,104.4,106.9,104.6,106.7,104.6z"/>
				</g>
			</g>
		</g>
		<g class="st7">
			<polygon class="st8" points="78.5,49.3 112.2,68.9 112.2,29.6 			"/>
		</g>
		<g>
			<g>
				<g>
					<g>
						<polygon class="st9" points="90.3,176.8 89.6,177.1 20.8,137.7 21.7,137.2 						"/>
					</g>
					<g>
						<polygon class="st2" points="90.3,184.4 89.6,184.6 89.6,177 90.3,176.8 						"/>
					</g>
					<g>
						<polygon class="st3" points="89.6,184.7 20.8,145.3 20.8,137.4 89.6,177 						"/>
					</g>
				</g>
				<g>
					<polygon class="st4" points="87,179 66.1,191.2 1.3,152.2 20.8,140.6 					"/>
				</g>
				<g>
					<path class="st2" d="M88,180.4c-0.3-1-1-1.4-1-1.4l0,0l-21,12.1l-0.2,3.4l21.5-12.2l0,0C87.8,182.1,88.2,181.2,88,180.4z"/>
				</g>
			</g>
			<g>
				<g>
					<polygon class="st9" points="69.5,189.6 68.8,189.8 0,150.5 0.9,150 					"/>
				</g>
				<g>
					<polygon class="st2" points="69.5,197.2 68.8,197.4 68.8,189.8 69.5,189.6 					"/>
				</g>
				<g>
					<polygon class="st3" points="68.8,197.4 0,158.1 0,150.3 68.8,189.8 					"/>
				</g>
			</g>
			<g>
				<g>
					<g>
						<path class="st2" d="M41,136.4l-0.7-0.4l-0.5-1l0.4-0.2l0.8-2.5l-0.8-0.4l-16.5,9.5l0.1,2.8l0.8,0.5l0.3,0.1l-1,0.6l-3.8,5.8
							l0.8,0.4l19.4-12.3L41,136.4z M38.8,135.6l0,1.1l-3.5,2l0-1.2L38.8,135.6z M34.2,138.2l0,1.2l-3.5,2l0-1.2L34.2,138.2z
							 M26.1,142.9l3.5-2l0,1.2l-3.5,2L26.1,142.9z"/>
					</g>
					<g>
						<path class="st9" d="M41.1,136.4l-0.4,0.2l0-1.1l0.4-0.2v-2.9l-16.5,9.5l0.1,2.8l1.1-0.6l0,1.2l-1,0.6l-3.3,5.2l19.7-11.3
							V136.4z M39.6,136.1l0,1.1l-3.5,2l0-1.2L39.6,136.1z M34.9,138.7l0,1.2l-3.5,2l0-1.2L34.9,138.7z M26.8,143.3l3.5-2l0,1.2
							l-3.5,2L26.8,143.3z"/>
					</g>
				</g>
				<g>
					<polygon class="st4" points="24.7,146.5 40,137.6 72.3,156.1 56.5,165.3 					"/>
				</g>
				<g>
					<polygon class="st9" points="52,169.4 20.9,151.5 25.3,146.2 56.1,163.9 					"/>
				</g>
				<g>
					<g>
						<g>
							
								<rect x="53.3" y="129.6" transform="matrix(0.4987 -0.8668 0.8668 0.4987 -100.1776 119.8001)" class="st10" width="0.3" height="33.9"/>
						</g>
						<g>
							
								<rect x="51" y="131" transform="matrix(0.4987 -0.8668 0.8668 0.4987 -102.6099 118.5094)" class="st10" width="0.3" height="33.9"/>
						</g>
						<g>
							
								<rect x="48.5" y="132.5" transform="matrix(0.4987 -0.8668 0.8668 0.4987 -105.1292 117.0652)" class="st10" width="0.3" height="33.9"/>
						</g>
						<g>
							
								<rect x="46.2" y="133.9" transform="matrix(0.4987 -0.8668 0.8668 0.4987 -107.5618 115.7776)" class="st10" width="0.3" height="33.9"/>
						</g>
					</g>
					<g>
						<g>
							
								<rect x="43.2" y="135.4" transform="matrix(0.4987 -0.8668 0.8668 0.4987 -110.2859 113.9807)" class="st10" width="0.3" height="33.9"/>
						</g>
						<g>
							
								<rect x="40.9" y="136.8" transform="matrix(0.4987 -0.8668 0.8668 0.4987 -112.7182 112.69)" class="st10" width="0.3" height="33.9"/>
						</g>
					</g>
				</g>
				<g>
					<g>
						<path class="st2" d="M72.2,155.2l-0.7-0.4l-0.5-1l0.4-0.2l0.8-2.5l-0.8-0.4L55,160.1l0.1,2.8l0.8,0.5l0.3,0.1l-1,0.6l-3.3,5.2
							l0.8,0.4L71.5,158L72.2,155.2z M70,154.4l0,1.1l-3.5,2l0-1.2L70,154.4z M65.4,157l0,1.2l-3.5,2l0-1.2L65.4,157z M57.3,161.7
							l3.5-2l0,1.2l-3.5,2L57.3,161.7z"/>
					</g>
					<g>
						<path class="st9" d="M72.3,155.2l-0.4,0.2l0-1.1l0.4-0.2v-2.9l-16.5,9.5l0.1,2.8l1.1-0.6l0,1.2l-1,0.6l-3.3,5.2l19.7-11.3
							V155.2z M70.7,154.9l0,1.1l-3.5,2l0-1.2L70.7,154.9z M66.1,157.5l0,1.2l-3.5,2l0-1.2L66.1,157.5z M58,162.1l3.5-2l0,1.2
							l-3.5,2L58,162.1z"/>
					</g>
				</g>
			</g>
		</g>
		<g>
			<g>
				<polygon class="st2" points="150.5,83.9 142.3,90.5 120.9,78 120.9,73.9 155.2,54.5 				"/>
			</g>
			<g>
				<polygon class="st12" points="120.9,78 78.3,53.2 78.3,49.2 120.9,73.9 				"/>
			</g>
		</g>
		<g class="st7">
			<polygon class="st13" points="155,54.4 112.2,29.6 112.2,69 120.9,74 			"/>
		</g>
		<g>
			<g>
				<g>
					<g>
						<rect x="112.2" y="0.4" class="st14" width="0.2" height="29.2"/>
					</g>
					<g>
						<rect x="115" y="1.8" class="st14" width="0.2" height="29.5"/>
					</g>
					<g>
						<rect x="155.1" y="25" class="st0" width="0.2" height="29.5"/>
					</g>
					<g>
						<rect x="152.2" y="23.1" class="st14" width="0.2" height="29.7"/>
					</g>
					<g>
						<rect x="117.9" y="3.4" class="st14" width="0.2" height="29.5"/>
					</g>
					<g>
						<rect x="120.7" y="5.1" class="st14" width="0.2" height="29.5"/>
					</g>
					<g>
						<rect x="123.6" y="6.6" class="st14" width="0.2" height="29.5"/>
					</g>
					<g>
						<rect x="126.5" y="8.2" class="st14" width="0.2" height="29.5"/>
					</g>
					<g>
						<rect x="129.3" y="9.9" class="st14" width="0.2" height="29.6"/>
					</g>
					<g>
						<rect x="132.2" y="11.5" class="st14" width="0.2" height="29.8"/>
					</g>
					<g>
						<rect x="135" y="13.1" class="st14" width="0.2" height="29.8"/>
					</g>
					<g>
						<rect x="137.9" y="14.8" class="st14" width="0.2" height="29.8"/>
					</g>
					<g>
						<rect x="140.8" y="16.4" class="st14" width="0.2" height="29.7"/>
					</g>
					<g>
						<rect x="143.6" y="18.1" class="st14" width="0.2" height="29.7"/>
					</g>
					<g>
						<rect x="109.1" y="2.8" class="st14" width="0.2" height="28.6"/>
					</g>
					<g>
						<rect x="106.3" y="5.3" class="st14" width="0.2" height="27.4"/>
					</g>
					<g>
						<rect x="103.4" y="7.8" class="st14" width="0.2" height="26.8"/>
					</g>
					<g>
						<rect x="100.6" y="10.1" class="st14" width="0.2" height="26.1"/>
					</g>
					<g>
						<rect x="97.7" y="13" class="st14" width="0.2" height="25.1"/>
					</g>
					<g>
						<rect x="94.8" y="15.2" class="st14" width="0.2" height="24.3"/>
					</g>
					<g>
						<rect x="92" y="17.8" class="st14" width="0.2" height="23.3"/>
					</g>
					<g>
						<rect x="89.1" y="20.2" class="st14" width="0.2" height="22.6"/>
					</g>
					<g>
						<rect x="86.3" y="22.6" class="st14" width="0.2" height="21.9"/>
					</g>
					<g>
						<rect x="83.4" y="25.2" class="st14" width="0.2" height="21"/>
					</g>
					<g>
						<rect x="80.5" y="27.6" class="st14" width="0.2" height="20.3"/>
					</g>
					<g>
						<rect x="146.5" y="19.9" class="st14" width="0.2" height="29.5"/>
					</g>
					<g>
						<rect x="149.3" y="21.6" class="st14" width="0.2" height="29.5"/>
					</g>
					<g>
						<polygon class="st14" points="155,54.6 112.3,29.7 78.3,49.3 78.2,49.1 112.3,29.4 112.4,29.4 155.1,54.3 						"/>
					</g>
					<g>
						<polygon class="st0" points="120.9,74.1 120.9,74.1 78.2,49.3 78.3,49.1 120.9,73.8 155,54.3 155.1,54.6 						"/>
					</g>
					<g>
						<rect x="120.8" y="54.1" class="st0" width="0.2" height="19.9"/>
					</g>
					<g>
						<path class="st0" d="M120.9,54.4L120.9,54.4L78.1,29.7l0.1-0.1l34-29.6l0.1,0l43.1,24.9l-0.1,0.1L120.9,54.4z M78.6,29.6
							l42.4,24.5L155,25L112.3,0.3L78.6,29.6z"/>
					</g>
					<g>
						<g>
							<rect x="80.6" y="31.3" class="st0" width="0.2" height="19.4"/>
						</g>
						<g>
							<rect x="117.8" y="52.7" class="st0" width="0.2" height="19.6"/>
						</g>
						<g>
							<rect x="83.5" y="33" class="st0" width="0.2" height="19.4"/>
						</g>
						<g>
							<rect x="86.4" y="34.6" class="st0" width="0.2" height="19.4"/>
						</g>
						<g>
							<rect x="89.2" y="36.1" class="st0" width="0.2" height="19.4"/>
						</g>
						<g>
							<rect x="92.1" y="37.8" class="st0" width="0.2" height="19.4"/>
						</g>
						<g>
							<rect x="94.9" y="39.4" class="st0" width="0.2" height="19.6"/>
						</g>
						<g>
							<rect x="97.8" y="41.1" class="st0" width="0.2" height="19.4"/>
						</g>
						<g>
							<rect x="100.7" y="42.7" class="st0" width="0.2" height="19.8"/>
						</g>
						<g>
							<rect x="103.5" y="44.3" class="st0" width="0.2" height="19.7"/>
						</g>
						<g>
							<rect x="106.4" y="46" class="st0" width="0.2" height="19.7"/>
						</g>
						<g>
							<rect x="109.2" y="47.6" class="st0" width="0.2" height="19.5"/>
						</g>
						<g>
							<rect x="112.1" y="49.1" class="st0" width="0.2" height="19.7"/>
						</g>
						<g>
							<rect x="115" y="50.8" class="st0" width="0.2" height="19.9"/>
						</g>
					</g>
					<g>
						<g>
							<rect x="152.4" y="27.4" class="st0" width="0.2" height="28.5"/>
						</g>
						<g>
							<rect x="149.5" y="29.7" class="st0" width="0.2" height="27.5"/>
						</g>
						<g>
							<polygon class="st0" points="146.9,59 146.6,59 146.6,32.2 103.5,7.9 103.6,7.7 146.9,32.1 							"/>
						</g>
						<g>
							<polygon class="st0" points="144,60.7 143.8,60.7 143.8,34.7 100.6,10.2 100.7,10 144,34.6 							"/>
						</g>
						<g>
							<rect x="140.9" y="37.1" class="st0" width="0.2" height="25.4"/>
						</g>
						<g>
							<rect x="138.1" y="39.5" class="st0" width="0.2" height="24.5"/>
						</g>
						<g>
							<rect x="135.2" y="41.9" class="st0" width="0.2" height="23.7"/>
						</g>
						<g>
							<rect x="132.3" y="44.4" class="st0" width="0.2" height="22.9"/>
						</g>
						<g>
							<rect x="129.5" y="46.9" class="st0" width="0.2" height="22"/>
						</g>
						<g>
							<rect x="126.6" y="49.1" class="st0" width="0.2" height="21.5"/>
						</g>
						<g>
							<rect x="123.8" y="51.7" class="st0" width="0.2" height="20.6"/>
						</g>
					</g>
					<g>
						<rect x="78.2" y="29.7" class="st0" width="0.2" height="19.5"/>
					</g>
					<g>
						<polygon class="st0" points="152.4,27.7 109.2,2.9 109.4,2.7 152.5,27.5 						"/>
					</g>
					<g>
						<polygon class="st0" points="149.6,30 106.5,5.4 106.6,5.2 149.7,29.8 						"/>
					</g>
					<g>
						<polygon class="st0" points="140.9,37.1 97.8,13 97.9,12.8 141.1,36.9 						"/>
					</g>
					<g>
						
							<rect x="116.6" y="2.6" transform="matrix(0.4916 -0.8708 0.8708 0.4916 35.5189 115.5142)" class="st0" width="0.3" height="49.5"/>
					</g>
					<g>
						<polygon class="st0" points="135.1,42 92,18 92.1,17.8 135.2,41.8 						"/>
					</g>
					<g>
						<polygon class="st0" points="132.3,44.5 89.2,20.3 89.3,20.1 132.4,44.3 						"/>
					</g>
					<g>
						<polygon class="st0" points="129.8,47 86.4,22.7 86.5,22.5 129.9,46.8 						"/>
					</g>
					<g>
						
							<rect x="105" y="12.6" transform="matrix(0.485 -0.8745 0.8745 0.485 21.5106 111.1141)" class="st0" width="0.3" height="49.5"/>
					</g>
					<g>
						
							<rect x="102.2" y="15.1" transform="matrix(0.4851 -0.8744 0.8744 0.4851 17.8503 109.9344)" class="st0" width="0.3" height="49.4"/>
					</g>
					<g>
						<polygon class="st0" points="120.9,58.9 120.9,58.9 78.2,34.1 78.3,33.9 120.9,58.6 155,39.1 155.1,39.3 						"/>
					</g>
					<g>
						<polygon class="st0" points="121,54.3 120.9,54.1 155,34.6 155.1,34.8 						"/>
					</g>
					<g>
						
							<rect x="136.9" y="34.6" transform="matrix(0.8663 -0.4995 0.4995 0.8663 2.2757 77.8724)" class="st0" width="19.5" height="0.3"/>
					</g>
					<g>
						<polygon class="st0" points="120.9,63.4 120.9,63.4 78.2,38.6 78.3,38.4 120.9,63.1 155,43.6 155.1,43.9 						"/>
					</g>
					<g>
						<polygon class="st0" points="120.9,68.5 120.9,68.5 78.2,43.7 78.3,43.5 120.9,68.2 155,48.7 155.1,48.9 						"/>
					</g>
				</g>
			</g>
			<g>
				<g>
					
						<rect x="75.4" y="16.5" transform="matrix(0.7559 -0.6546 0.6546 0.7559 13.0625 68.2373)" class="st0" width="45.4" height="0.3"/>
				</g>
				<g>
					
						<rect x="78.2" y="17.9" transform="matrix(0.7559 -0.6546 0.6546 0.7559 12.823 70.4702)" class="st0" width="45.4" height="0.3"/>
				</g>
				<g>
					
						<rect x="81.1" y="19.4" transform="matrix(0.7559 -0.6546 0.6546 0.7559 12.5588 72.6923)" class="st0" width="45.4" height="0.3"/>
				</g>
				<g>
					<polygon class="st0" points="89.6,35.9 89.4,35.7 123.5,6.4 123.7,6.6 					"/>
				</g>
			</g>
			<g>
				<g>
					<polygon class="st0" points="92.4,37.9 92.3,37.7 126.4,8.4 126.5,8.6 					"/>
				</g>
				<g>
					<polygon class="st0" points="95.3,39.4 95.1,39.2 129.2,9.9 129.4,10.1 					"/>
				</g>
				<g>
					<polygon class="st0" points="98.1,41.2 98,41 131.8,11.6 132,11.8 					"/>
				</g>
				<g>
					<polygon class="st0" points="100.7,42.6 100.5,42.4 134.6,13.2 134.7,13.4 					"/>
				</g>
			</g>
			<g>
				<g>
					<polygon class="st0" points="103.9,44.6 103.7,44.4 137.8,15.1 138,15.3 					"/>
				</g>
				<g>
					<polygon class="st0" points="106.7,46 106.6,45.8 140.7,16.5 140.8,16.7 					"/>
				</g>
				<g>
					<polygon class="st0" points="109.6,47.5 109.4,47.3 143.5,18 143.7,18.2 					"/>
				</g>
				<g>
					<polygon class="st0" points="112.3,49.4 112.2,49.2 146.3,19.8 146.5,20 					"/>
				</g>
			</g>
			<g>
				<g>
					<polygon class="st0" points="115.3,50.9 115.2,50.8 149.2,21.5 149.4,21.7 					"/>
				</g>
				<g>
					<polygon class="st0" points="118.1,52.5 117.9,52.3 152.1,23.3 152.3,23.5 					"/>
				</g>
			</g>
		</g>
		<g>
			<polygon class="st15" points="30.9,36.4 52.3,49.2 52.2,61.7 30.9,49.1 			"/>
		</g>
		<g>
			<g>
				<polygon class="st5" points="101.6,87.9 77.5,101.6 51.9,86.8 74.8,72.3 				"/>
			</g>
			<g>
				<g>
					<polygon class="st0" points="51.8,86.7 77.5,101.6 77.5,105.7 51.8,90.8 					"/>
				</g>
				<g>
					<polygon class="st0" points="77.5,101.6 101.7,87.7 101.7,91.5 77.5,105.7 					"/>
				</g>
			</g>
		</g>
		<g>
			<polygon class="st1" points="90.1,86.1 72.2,96.4 72.2,76.7 90.1,66.1 			"/>
		</g>
		<g>
			<polygon class="st0" points="72.2,96.4 67.5,93.5 67.5,74.3 72.2,77.1 			"/>
		</g>
		<g>
			<path class="st5" d="M90.1,66.1l-14.4-6.7c0,0-17.4,6-17.3,6s13.8,11.3,13.8,11.3L90.1,66.1z"/>
		</g>
		<g>
			<g>
				<path class="st0" d="M66.7,57.2c-0.2,0-0.4-0.2-0.4-0.4V45.5c0-0.2,0.2-0.4,0.4-0.4s0.4,0.2,0.4,0.4v11.3
					C67.1,57,66.9,57.2,66.7,57.2z"/>
			</g>
			<g>
				<path class="st0" d="M92.2,58.7c-0.2,0-0.4-0.2-0.4-0.4V47c0-0.2,0.2-0.4,0.4-0.4s0.4,0.2,0.4,0.4v11.3
					C92.6,58.5,92.4,58.7,92.2,58.7z"/>
			</g>
			<g>
				<g>
					<path class="st0" d="M107.7,56.2c-0.1,0-0.1,0-0.2,0L78.2,39.3L59.8,49.9c-0.2,0.1-0.4,0-0.5-0.1c-0.1-0.2,0-0.4,0.1-0.5
						L78,38.6c0.1-0.1,0.3-0.1,0.4,0l29.6,16.9c0.2,0.1,0.2,0.3,0.1,0.5C108,56.1,107.9,56.2,107.7,56.2z"/>
				</g>
				<g>
					<path class="st0" d="M107.7,63.4c-0.1,0-0.1,0-0.2,0L78.2,46.5L59.8,57.1c-0.2,0.1-0.4,0-0.5-0.1c-0.1-0.2,0-0.4,0.1-0.5
						L78,45.8c0.1-0.1,0.3-0.1,0.4,0l29.5,16.9c0.2,0.1,0.2,0.3,0.1,0.5C107.9,63.3,107.8,63.4,107.7,63.4z"/>
				</g>
				<g>
					<path class="st0" d="M78.2,51.9c-0.2,0-0.4-0.2-0.4-0.4V38.9c0-0.2,0.2-0.4,0.4-0.4s0.4,0.2,0.4,0.4v12.7
						C78.5,51.8,78.4,51.9,78.2,51.9z"/>
				</g>
				<g>
					<path class="st0" d="M107.9,69.1c-0.2,0-0.4-0.2-0.4-0.4V55.8c0-0.2,0.2-0.4,0.4-0.4s0.4,0.2,0.4,0.4v12.9
						C108.2,68.9,108.1,69.1,107.9,69.1z"/>
				</g>
			</g>
			<g>
				<polygon class="st5" points="107.7,66.4 81.1,81.5 52.9,65.2 78.2,49.2 				"/>
			</g>
			<g>
				<path class="st0" d="M81.1,71.7c-0.1,0-0.3-0.1-0.3-0.2c-0.1-0.2,0-0.4,0.1-0.5l26.7-15.5c0.2-0.1,0.4,0,0.5,0.1
					c0.1,0.2,0,0.4-0.1,0.5L81.3,71.6C81.3,71.7,81.2,71.7,81.1,71.7z"/>
			</g>
			<g>
				<path class="st0" d="M81.2,78.7c-0.1,0-0.3-0.1-0.3-0.2c-0.1-0.2,0-0.4,0.1-0.5l26.6-15.4c0.2-0.1,0.4,0,0.5,0.1
					c0.1,0.2,0,0.4-0.1,0.5L81.4,78.6C81.3,78.7,81.3,78.7,81.2,78.7z"/>
			</g>
			<g>
				<g>
					<polygon class="st0" points="52.8,65.1 81.2,81.5 81.8,81.2 81.8,85.5 81.2,86 52.8,69.6 					"/>
				</g>
				<g>
					<polygon class="st0" points="81.2,81.5 107.9,66.2 107.9,70.4 81.2,86 					"/>
				</g>
			</g>
			<g>
				<path class="st0" d="M81.2,81.9c-0.2,0-0.4-0.2-0.4-0.4V71.4c0-0.2,0.2-0.4,0.4-0.4s0.4,0.2,0.4,0.4v10.1
					C81.5,81.7,81.4,81.9,81.2,81.9z"/>
			</g>
			<g>
				<path class="st0" d="M95.4,74.7c-0.2,0-0.4-0.2-0.4-0.4V63c0-0.2,0.2-0.4,0.4-0.4s0.4,0.2,0.4,0.4v11.3
					C95.7,74.5,95.6,74.7,95.4,74.7z"/>
			</g>
		</g>
		<g>
			<polygon class="st5" points="42.6,81.7 52.3,61.7 30.8,49 21.3,69.4 			"/>
		</g>
		<g>
			<path class="st0" d="M42.5,92.3l0-10.7l-21-12.2c0,0.3,0,10.6,0,10.6l1.4,1.8L43,93.2L42.5,92.3z"/>
		</g>
		<g>
			<polygon class="st1" points="67.8,74.5 52.2,61.7 42.4,81.6 42.4,92.3 52.7,102.3 67.8,93.8 			"/>
		</g>
		<g>
			<polygon class="st16" points="64.5,91.7 54.4,97.5 54.4,83 64.5,77.2 			"/>
		</g>
		<g>
			<polygon class="st5" points="58.7,46.6 30.9,36.4 52.3,49.2 75.8,56.9 			"/>
		</g>
		<g>
			<polygon class="st1" points="76.3,57 52.3,49.2 52.2,61.7 76.3,69.6 			"/>
		</g>
		<g>
			<g>
				<path class="st0" d="M87,206.4c0,0-0.1,0-0.1,0c-0.2-0.1-0.3-0.3-0.2-0.5l13-41c0.1-0.2,0.3-0.3,0.5-0.2
					c0.2,0.1,0.3,0.3,0.2,0.5l-13,41C87.3,206.3,87.2,206.4,87,206.4z"/>
			</g>
			<g>
				<g>
					<polygon class="st5" points="108.9,171.6 105.4,173.6 96.8,168.7 100.2,166.5 					"/>
				</g>
				<g>
					<g>
						<polygon class="st0" points="96.8,168.7 105.4,173.6 105.4,174.2 96.8,169.2 						"/>
					</g>
					<g>
						<polygon class="st0" points="105.4,173.6 108.7,171.7 108.7,172.3 105.4,174.2 						"/>
					</g>
				</g>
			</g>
			<g>
				<g>
					<polygon class="st5" points="106.7,176.8 103.4,178.7 94.9,173.8 98,171.8 					"/>
				</g>
				<g>
					<g>
						<polygon class="st0" points="94.9,173.7 103.4,178.7 103.4,179.3 94.9,174.3 						"/>
					</g>
					<g>
						<polygon class="st0" points="103.4,178.7 106.7,176.8 106.7,177.3 103.4,179.3 						"/>
					</g>
				</g>
			</g>
			<g>
				<g>
					<polygon class="st5" points="105.2,181.9 101.9,183.8 93.4,178.8 96.5,176.9 					"/>
				</g>
				<g>
					<g>
						<polygon class="st0" points="93.4,178.8 101.9,183.8 101.9,184.4 93.4,179.4 						"/>
					</g>
					<g>
						<polygon class="st0" points="101.9,183.8 105.2,181.9 105.2,182.4 101.9,184.4 						"/>
					</g>
				</g>
			</g>
			<g>
				<g>
					<polygon class="st5" points="103.3,187 100,188.9 91.4,183.9 94.6,181.9 					"/>
				</g>
				<g>
					<g>
						<polygon class="st0" points="91.4,183.9 100,188.9 100,189.5 91.4,184.5 						"/>
					</g>
					<g>
						<polygon class="st0" points="100,188.9 103.3,187 103.3,187.5 100,189.5 						"/>
					</g>
				</g>
			</g>
			<g>
				<g>
					<polygon class="st5" points="102.6,192.1 99.3,194 90.7,189 93.9,187 					"/>
				</g>
				<g>
					<g>
						<polygon class="st0" points="90.7,189 99.3,194 99.3,194.5 90.7,189.6 						"/>
					</g>
					<g>
						<polygon class="st0" points="99.3,194 102.6,192.1 102.6,192.6 99.3,194.5 						"/>
					</g>
				</g>
			</g>
			<g>
				<g>
					<polygon class="st5" points="100.7,197.2 97.4,199.1 88.8,194.1 92,192.1 					"/>
				</g>
				<g>
					<g>
						<polygon class="st0" points="88.8,194.1 97.4,199.1 97.4,199.6 88.8,194.6 						"/>
					</g>
					<g>
						<polygon class="st0" points="97.4,199.1 100.7,197.1 100.7,197.7 97.4,199.6 						"/>
					</g>
				</g>
			</g>
			<g>
				<g>
					<polygon class="st5" points="99.2,202.3 95.9,204.1 87.3,199.2 90.5,197.2 					"/>
				</g>
				<g>
					<g>
						<polygon class="st0" points="87.3,199.2 95.9,204.1 95.9,204.7 87.3,199.7 						"/>
					</g>
					<g>
						<polygon class="st0" points="95.9,204.1 99.2,202.2 99.2,202.8 95.9,204.7 						"/>
					</g>
				</g>
			</g>
			<g>
				<g>
					<polygon class="st5" points="97.2,207.3 93.9,209.2 85.4,204.3 88.5,202.3 					"/>
				</g>
				<g>
					<g>
						<polygon class="st0" points="85.4,204.3 93.9,209.2 93.9,209.8 85.4,204.8 						"/>
					</g>
					<g>
						<polygon class="st0" points="93.9,209.2 97.2,207.3 97.2,207.8 93.9,209.8 						"/>
					</g>
				</g>
			</g>
			<g>
				<path class="st0" d="M95.4,211.2c0,0-0.1,0-0.1,0c-0.2-0.1-0.3-0.3-0.2-0.5l12.9-40.9c0.1-0.2,0.3-0.3,0.5-0.2
					c0.2,0.1,0.3,0.3,0.2,0.5L95.8,211C95.7,211.1,95.6,211.2,95.4,211.2z"/>
			</g>
		</g>
		<g>
			<g>
				<path class="st0" d="M109.8,162.2c-0.1,0-0.3-0.1-0.3-0.2c-0.1-0.2,0-0.4,0.1-0.5l56.3-32.4c0.2-0.1,0.4,0,0.5,0.1
					c0.1,0.2,0,0.4-0.1,0.5L110,162.1C109.9,162.1,109.8,162.2,109.8,162.2z"/>
			</g>
			<g>
				<path class="st0" d="M109.8,169.2c-0.1,0-0.3-0.1-0.3-0.2c-0.1-0.2,0-0.4,0.1-0.5l56.2-32.2c0.2-0.1,0.4,0,0.5,0.1
					c0.1,0.2,0,0.4-0.1,0.5L110,169.1C110,169.2,109.9,169.2,109.8,169.2z"/>
			</g>
			<g>
				<path class="st0" d="M109.8,174.7c-0.2,0-0.4-0.2-0.4-0.4v-12.1c0-0.2,0.2-0.4,0.4-0.4s0.4,0.2,0.4,0.4v12.1
					C110.2,174.5,110,174.7,109.8,174.7z"/>
			</g>
			<g>
				<path class="st0" d="M146.4,152.6c-0.2,0-0.4-0.2-0.4-0.4v-11.3c0-0.2,0.2-0.4,0.4-0.4s0.4,0.2,0.4,0.4v11.3
					C146.8,152.4,146.6,152.6,146.4,152.6z"/>
			</g>
			<g>
				<path class="st0" d="M127.6,163.4c-0.2,0-0.4-0.2-0.4-0.4v-11.3c0-0.2,0.2-0.4,0.4-0.4s0.4,0.2,0.4,0.4V163
					C128,163.3,127.8,163.4,127.6,163.4z"/>
			</g>
			<g>
				<path class="st0" d="M83.7,158.8c-0.2,0-0.4-0.2-0.4-0.4v-11.3c0-0.2,0.2-0.4,0.4-0.4s0.4,0.2,0.4,0.4v11.3
					C84,158.6,83.9,158.8,83.7,158.8z"/>
			</g>
			<g>
				<path class="st0" d="M97.4,162.3c-0.1,0-0.1,0-0.2,0l-13.7-7.9c-0.2-0.1-0.2-0.3-0.1-0.5c0.1-0.2,0.3-0.2,0.5-0.1l13.7,7.9
					c0.2,0.1,0.2,0.3,0.1,0.5C97.7,162.2,97.5,162.3,97.4,162.3z"/>
			</g>
			<g>
				<path class="st0" d="M97.4,168c-0.2,0-0.4-0.2-0.4-0.4v-12.9c0-0.2,0.2-0.4,0.4-0.4s0.4,0.2,0.4,0.4v12.9
					C97.8,167.9,97.6,168,97.4,168z"/>
			</g>
			<g>
				<path class="st0" d="M97.5,155.2c-0.1,0-0.1,0-0.2,0l-13.8-7.9c-0.2-0.1-0.2-0.3-0.1-0.5c0.1-0.2,0.3-0.2,0.5-0.1l13.8,7.9
					c0.2,0.1,0.2,0.3,0.1,0.5C97.7,155.1,97.6,155.2,97.5,155.2z"/>
			</g>
		</g>
		<g>
			<g>
				<path class="st0" d="M117.5,145c-0.2,0-0.3-0.1-0.4-0.3l-13-41c-0.1-0.2,0-0.4,0.2-0.5c0.2-0.1,0.4,0,0.5,0.2l13,41
					c0.1,0.2,0,0.4-0.2,0.5C117.5,145,117.5,145,117.5,145z"/>
			</g>
			<g>
				<g>
					<polygon class="st5" points="95.6,110.2 99.1,112.2 107.7,107.3 104.3,105.1 					"/>
				</g>
				<g>
					<g>
						<polygon class="st0" points="107.7,107.2 99.1,112.2 99.1,112.8 107.7,107.8 						"/>
					</g>
					<g>
						<polygon class="st0" points="99.1,112.2 95.8,110.3 95.8,110.8 99.1,112.8 						"/>
					</g>
				</g>
			</g>
			<g>
				<g>
					<polygon class="st5" points="97.8,115.4 101.1,117.3 109.7,112.3 106.5,110.3 					"/>
				</g>
				<g>
					<g>
						<polygon class="st0" points="109.7,112.3 101.1,117.3 101.1,117.9 109.7,112.9 						"/>
					</g>
					<g>
						<polygon class="st0" points="101.1,117.3 97.8,115.4 97.8,115.9 101.1,117.9 						"/>
					</g>
				</g>
			</g>
			<g>
				<g>
					<polygon class="st5" points="99.3,120.5 102.6,122.4 111.1,117.4 108,115.4 					"/>
				</g>
				<g>
					<g>
						<polygon class="st0" points="111.1,117.4 102.6,122.4 102.6,122.9 111.1,118 						"/>
					</g>
					<g>
						<polygon class="st0" points="102.6,122.4 99.3,120.5 99.3,121 102.6,122.9 						"/>
					</g>
				</g>
			</g>
			<g>
				<g>
					<polygon class="st5" points="101.2,125.6 104.5,127.5 113.1,122.5 109.9,120.5 					"/>
				</g>
				<g>
					<g>
						<polygon class="st0" points="113.1,122.5 104.5,127.5 104.5,128 113.1,123 						"/>
					</g>
					<g>
						<polygon class="st0" points="104.5,127.5 101.2,125.6 101.2,126.1 104.5,128 						"/>
					</g>
				</g>
			</g>
			<g>
				<g>
					<polygon class="st5" points="101.9,130.7 105.2,132.6 113.8,127.6 110.6,125.6 					"/>
				</g>
				<g>
					<g>
						<polygon class="st0" points="113.8,127.6 105.2,132.6 105.2,133.1 113.8,128.1 						"/>
					</g>
					<g>
						<polygon class="st0" points="105.2,132.5 101.9,130.6 101.9,131.2 105.2,133.1 						"/>
					</g>
				</g>
			</g>
			<g>
				<g>
					<polygon class="st5" points="103.8,135.7 107.2,137.6 115.7,132.7 112.6,130.7 					"/>
				</g>
				<g>
					<g>
						<polygon class="st0" points="115.7,132.7 107.1,137.6 107.1,138.2 115.7,133.2 						"/>
					</g>
					<g>
						<polygon class="st0" points="107.2,137.6 103.8,135.7 103.8,136.3 107.2,138.2 						"/>
					</g>
				</g>
			</g>
			<g>
				<g>
					<polygon class="st5" points="105.3,140.8 108.6,142.7 117.2,137.8 114,135.8 					"/>
				</g>
				<g>
					<g>
						<polygon class="st0" points="117.2,137.7 108.6,142.7 108.6,143.3 117.2,138.3 						"/>
					</g>
					<g>
						<polygon class="st0" points="108.6,142.7 105.3,140.8 105.3,141.3 108.6,143.3 						"/>
					</g>
				</g>
			</g>
			<g>
				<g>
					<polygon class="st5" points="107.3,145.9 110.6,147.8 119.1,142.8 116,140.8 					"/>
				</g>
				<g>
					<g>
						<polygon class="st0" points="119.1,142.8 110.6,147.8 110.6,148.4 119.1,143.4 						"/>
					</g>
					<g>
						<polygon class="st0" points="110.6,147.8 107.3,145.9 107.3,146.4 110.6,148.4 						"/>
					</g>
				</g>
			</g>
			<g>
				<path class="st0" d="M109.1,149.8c-0.2,0-0.3-0.1-0.4-0.3l-12.9-40.9c-0.1-0.2,0-0.4,0.2-0.5c0.2-0.1,0.4,0,0.5,0.2l12.9,40.9
					c0.1,0.2,0,0.4-0.2,0.5C109.2,149.8,109.1,149.8,109.1,149.8z"/>
			</g>
		</g>
		<g>
			<polygon class="st0" points="32.2,38.9 51,50 51,59.4 32.2,48.2 			"/>
		</g>
		<g>
			<polygon class="st0" points="52.2,61.7 76.3,69.6 67.9,74.6 			"/>
		</g>
		<g>
			<g>
				<path class="st0" d="M57.5,114.9c0,0-0.1,0-0.1,0c-0.2-0.1-0.3-0.3-0.2-0.5l13-41c0.1-0.2,0.3-0.3,0.5-0.2
					c0.2,0.1,0.3,0.3,0.2,0.5l-13,41C57.8,114.8,57.6,114.9,57.5,114.9z"/>
			</g>
			<g>
				<g>
					<polygon class="st5" points="79.2,80.1 75.8,82.1 67.2,77.2 70.5,75.1 					"/>
				</g>
				<g>
					<g>
						<polygon class="st0" points="67.2,77.2 75.8,82.1 75.8,82.7 67.2,77.7 						"/>
					</g>
					<g>
						<polygon class="st0" points="75.8,82.1 79.1,80.2 79.1,80.7 75.8,82.7 						"/>
					</g>
				</g>
			</g>
			<g>
				<g>
					<polygon class="st5" points="77.1,85.3 73.8,87.2 65.3,82.3 68.4,80.3 					"/>
				</g>
				<g>
					<g>
						<polygon class="st0" points="65.3,82.2 73.8,87.2 73.8,87.8 65.3,82.8 						"/>
					</g>
					<g>
						<polygon class="st0" points="73.8,87.2 77.2,85.3 77.2,85.8 73.8,87.8 						"/>
					</g>
				</g>
			</g>
			<g>
				<g>
					<polygon class="st5" points="75.6,90.4 72.3,92.3 63.8,87.3 66.9,85.3 					"/>
				</g>
				<g>
					<g>
						<polygon class="st0" points="63.8,87.3 72.3,92.3 72.3,92.9 63.8,87.9 						"/>
					</g>
					<g>
						<polygon class="st0" points="72.3,92.3 75.7,90.4 75.7,90.9 72.3,92.9 						"/>
					</g>
				</g>
			</g>
			<g>
				<g>
					<polygon class="st5" points="73.7,95.5 70.4,97.4 61.8,92.4 65,90.4 					"/>
				</g>
				<g>
					<g>
						<polygon class="st0" points="61.8,92.4 70.4,97.4 70.4,97.9 61.8,93 						"/>
					</g>
					<g>
						<polygon class="st0" points="70.4,97.4 73.7,95.5 73.7,96 70.4,97.9 						"/>
					</g>
				</g>
			</g>
			<g>
				<g>
					<polygon class="st5" points="73,100.6 69.7,102.5 61.2,97.5 64.3,95.5 					"/>
				</g>
				<g>
					<g>
						<polygon class="st0" points="61.2,97.5 69.7,102.5 69.7,103 61.2,98 						"/>
					</g>
					<g>
						<polygon class="st0" points="69.7,102.5 73.1,100.6 73.1,101.1 69.7,103 						"/>
					</g>
				</g>
			</g>
			<g>
				<g>
					<polygon class="st5" points="71.1,105.7 67.8,107.6 59.2,102.6 62.4,100.6 					"/>
				</g>
				<g>
					<g>
						<polygon class="st0" points="59.2,102.6 67.8,107.6 67.8,108.1 59.2,103.1 						"/>
					</g>
					<g>
						<polygon class="st0" points="67.8,107.5 71.1,105.6 71.1,106.2 67.8,108.1 						"/>
					</g>
				</g>
			</g>
			<g>
				<g>
					<polygon class="st5" points="69.6,110.7 66.3,112.6 57.7,107.7 60.9,105.7 					"/>
				</g>
				<g>
					<g>
						<polygon class="st0" points="57.7,107.7 66.3,112.6 66.3,113.2 57.7,108.2 						"/>
					</g>
					<g>
						<polygon class="st0" points="66.3,112.6 69.6,110.7 69.6,111.3 66.3,113.2 						"/>
					</g>
				</g>
			</g>
			<g>
				<g>
					<polygon class="st5" points="67.6,115.8 64.3,117.7 55.8,112.8 58.9,110.8 					"/>
				</g>
				<g>
					<g>
						<polygon class="st0" points="55.8,112.7 64.3,117.7 64.3,118.3 55.8,113.3 						"/>
					</g>
					<g>
						<polygon class="st0" points="64.3,117.7 67.7,115.8 67.7,116.3 64.3,118.3 						"/>
					</g>
				</g>
			</g>
			<g>
				<path class="st0" d="M65.8,119.7c0,0-0.1,0-0.1,0c-0.2-0.1-0.3-0.3-0.2-0.5l12.9-40.9c0.1-0.2,0.3-0.3,0.5-0.2
					c0.2,0.1,0.3,0.3,0.2,0.5l-12.9,40.9C66.1,119.6,66,119.7,65.8,119.7z"/>
			</g>
		</g>
		<g>
			<g>
				<path class="st0" d="M60.8,119.9c-0.1,0-0.3-0.1-0.3-0.2c-0.1-0.2,0-0.4,0.1-0.5l31.2-18.1c0.2-0.1,0.4,0,0.5,0.1s0,0.4-0.1,0.5
					L61,119.8C61,119.8,60.9,119.9,60.8,119.9z"/>
			</g>
			<g>
				<path class="st0" d="M60.9,126.9c-0.1,0-0.3-0.1-0.3-0.2c-0.1-0.2,0-0.4,0.1-0.5l31.1-18c0.2-0.1,0.4,0,0.5,0.1
					c0.1,0.2,0,0.4-0.1,0.5l-31.1,18C61,126.9,61,126.9,60.9,126.9z"/>
			</g>
			<g>
				<path class="st0" d="M60.8,132.4c-0.2,0-0.4-0.2-0.4-0.4v-12.1c0-0.2,0.2-0.4,0.4-0.4s0.4,0.2,0.4,0.4V132
					C61.2,132.2,61.1,132.4,60.8,132.4z"/>
			</g>
			<g>
				<path class="st0" d="M92.1,113.1c-0.2,0-0.4-0.2-0.4-0.4v-11.3c0-0.2,0.2-0.4,0.4-0.4s0.4,0.2,0.4,0.4v11.3
					C92.5,112.9,92.3,113.1,92.1,113.1z"/>
			</g>
			<g>
				<path class="st0" d="M76.4,122.4c-0.2,0-0.4-0.2-0.4-0.4v-11.3c0-0.2,0.2-0.4,0.4-0.4s0.4,0.2,0.4,0.4V122
					C76.7,122.2,76.6,122.4,76.4,122.4z"/>
			</g>
			<g>
				<path class="st0" d="M33.4,115.5c-0.2,0-0.4-0.2-0.4-0.4v-11.3c0-0.2,0.2-0.4,0.4-0.4s0.4,0.2,0.4,0.4v11.3
					C33.8,115.3,33.6,115.5,33.4,115.5z"/>
			</g>
			<g>
				<path class="st0" d="M60.7,127c-0.1,0-0.1,0-0.2,0l-41.4-23.7c-0.2-0.1-0.2-0.3-0.1-0.5c0.1-0.2,0.3-0.2,0.5-0.1l41.4,23.7
					c0.2,0.1,0.2,0.3,0.1,0.5C61,126.9,60.9,127,60.7,127z"/>
			</g>
			<g>
				<path class="st0" d="M49,125.9c-0.2,0-0.4-0.2-0.4-0.4v-12.9c0-0.2,0.2-0.4,0.4-0.4s0.4,0.2,0.4,0.4v12.9
					C49.4,125.7,49.2,125.9,49,125.9z"/>
			</g>
			<g>
				<path class="st0" d="M60.8,119.8c-0.1,0-0.1,0-0.2,0L19.2,96c-0.2-0.1-0.2-0.3-0.1-0.5c0.1-0.2,0.3-0.2,0.5-0.1L61,119.1
					c0.2,0.1,0.2,0.3,0.1,0.5C61,119.7,60.9,119.8,60.8,119.8z"/>
			</g>
		</g>
	</g>
	<g>
		<polygon class="st16" points="21.4,80.1 26.7,86.9 52.7,102.3 42.5,92.3 		"/>
	</g>
</g>
</svg>
