<?xml version="1.0" encoding="UTF-8" standalone="no"?>
<svg
   width="310"
   height="200"
   version="1.1"
   id="svg5"
   sodipodi:docname="flecha_horario_abajo.svg"
   inkscape:version="1.1.2 (b8e25be833, 2022-02-05)"
   xmlns:inkscape="http://www.inkscape.org/namespaces/inkscape"
   xmlns:sodipodi="http://sodipodi.sourceforge.net/DTD/sodipodi-0.dtd"
   xmlns="http://www.w3.org/2000/svg"
   xmlns:svg="http://www.w3.org/2000/svg">
  <defs
     id="defs9" />
  <sodipodi:namedview
     id="namedview7"
     pagecolor="#ffffff"
     bordercolor="#666666"
     borderopacity="1.0"
     inkscape:pageshadow="2"
     inkscape:pageopacity="0.0"
     inkscape:pagecheckerboard="0"
     showgrid="false"
     inkscape:zoom="3.255"
     inkscape:cx="154.99232"
     inkscape:cy="100.15361"
     inkscape:window-width="1600"
     inkscape:window-height="837"
     inkscape:window-x="-8"
     inkscape:window-y="-8"
     inkscape:window-maximized="1"
     inkscape:current-layer="svg5" />
  <g
     id="g3"
     transform="rotate(180,155.00002,99.99999)">
    <path
       fill="#00ff00"
       transform="rotate(-29,161.4205,112.54723)"
       d="m 308.43542,114.13561 c -5.857,-5.858 -15.354,-5.858 -21.213,0 l -35.137,35.136 c -5.871,-59.78 -50.15,-111.403 -112.001,-123.706 -45.526,-9.055 -92.479,5.005 -125.596,37.612 -5.903,5.813 -5.977,15.31 -0.165,21.213 5.813,5.903 15.31,5.977 21.212,0.164 26.029,-25.628 62.923,-36.679 98.695,-29.565 48.865,9.72 83.772,50.677 88.07,97.978 l -38.835,-38.835 c -5.857,-5.857 -15.355,-5.858 -21.213,0.001 -5.858,5.858 -5.858,15.355 0,21.213 l 62.485,62.485 c 2.929,2.929 6.768,4.393 10.606,4.393 3.838,0 7.678,-1.464 10.607,-4.393 l 62.483,-62.482 c 5.86,-5.858 5.86,-15.356 0.002,-21.214 z"
       id="XMLID_6_" />
  </g>
</svg>
