<?xml version="1.0" encoding="UTF-8" standalone="no"?>
<svg
   width="310"
   height="200"
   version="1.1"
   id="svg5"
   sodipodi:docname="flecha_horario_arriba.svg"
   inkscape:version="1.1.2 (b8e25be833, 2022-02-05)"
   xmlns:inkscape="http://www.inkscape.org/namespaces/inkscape"
   xmlns:sodipodi="http://sodipodi.sourceforge.net/DTD/sodipodi-0.dtd"
   xmlns="http://www.w3.org/2000/svg"
   xmlns:svg="http://www.w3.org/2000/svg">
  <defs
     id="defs9" />
  <sodipodi:namedview
     id="namedview7"
     pagecolor="#ffffff"
     bordercolor="#666666"
     borderopacity="1.0"
     inkscape:pageshadow="2"
     inkscape:pageopacity="0.0"
     inkscape:pagecheckerboard="0"
     showgrid="false"
     inkscape:zoom="3.255"
     inkscape:cx="154.99232"
     inkscape:cy="100.15361"
     inkscape:window-width="1600"
     inkscape:window-height="837"
     inkscape:window-x="-8"
     inkscape:window-y="-8"
     inkscape:window-maximized="1"
     inkscape:current-layer="svg5" />
  <g
     id="g3">
    <path
       fill="#00ff00"
       transform="rotate(-29 161.4205017089844,112.54723358154303) "
       d="m308.43542,114.13561c-5.857,-5.858 -15.354,-5.858 -21.213,0l-35.137,35.136c-5.871,-59.78 -50.15,-111.403 -112.001,-123.706c-45.526,-9.055 -92.479,5.005 -125.596,37.612c-5.903,5.813 -5.977,15.31 -0.165,21.213c5.813,5.903 15.31,5.977 21.212,0.164c26.029,-25.628 62.923,-36.679 98.695,-29.565c48.865,9.72 83.772,50.677 88.07,97.978l-38.835,-38.835c-5.857,-5.857 -15.355,-5.858 -21.213,0.001c-5.858,5.858 -5.858,15.355 0,21.213l62.485,62.485c2.929,2.929 6.768,4.393 10.606,4.393s7.678,-1.464 10.607,-4.393l62.483,-62.482c5.86,-5.858 5.86,-15.356 0.002,-21.214z"
       id="XMLID_6_" />
  </g>
</svg>
