<?xml version="1.0" encoding="UTF-8" standalone="no"?>
<svg
   xmlns:dc="http://purl.org/dc/elements/1.1/"
   xmlns:cc="http://creativecommons.org/ns#"
   xmlns:rdf="http://www.w3.org/1999/02/22-rdf-syntax-ns#"
   xmlns:svg="http://www.w3.org/2000/svg"
   xmlns="http://www.w3.org/2000/svg"
   xmlns:sodipodi="http://sodipodi.sourceforge.net/DTD/sodipodi-0.dtd"
   xmlns:inkscape="http://www.inkscape.org/namespaces/inkscape"
   width="99.336998mm"
   height="99.336998mm"
   inkscape:export-filename="C:\Users\jjimenez\OneDrive - IRC AUTOMATIZACION SLU\Escritorio\imagenes_svg\Nuevos indicadores\manual_on_abajo.png"
   inkscape:export-xdpi="96"
   inkscape:export-ydpi="96"
   inkscape:version="0.92.5 (2060ec1f9f, 2020-04-08)"
   sodipodi:docname="indicador_autoalm_270.svg"
   version="1.1"
   viewBox="0 0 99.337001 99.337"
   id="svg11">
  <defs
     id="defs13" />
  <sodipodi:namedview
     id="base"
     bordercolor="#666666"
     borderopacity="1.0"
     fit-margin-bottom="0"
     fit-margin-left="0"
     fit-margin-right="0"
     fit-margin-top="0"
     inkscape:current-layer="g9"
     inkscape:cx="-265.66568"
     inkscape:cy="246.55098"
     inkscape:document-rotation="0"
     inkscape:document-units="mm"
     inkscape:pageopacity="0"
     inkscape:pageshadow="2"
     inkscape:window-height="1017"
     inkscape:window-maximized="1"
     inkscape:window-width="1920"
     inkscape:window-x="-8"
     inkscape:window-y="-8"
     inkscape:zoom="0.98994949"
     pagecolor="#ffffff"
     showgrid="false" />
  <metadata
     id="metadata3">
    <rdf:RDF>
      <cc:Work
         rdf:about="">
        <dc:format>image/svg+xml</dc:format>
        <dc:type
           rdf:resource="http://purl.org/dc/dcmitype/StillImage" />
        <dc:title></dc:title>
      </cc:Work>
    </rdf:RDF>
  </metadata>
  <g
     transform="translate(143.37,-102.79)"
     inkscape:groupmode="layer"
     inkscape:label="Capa 1"
     id="g9">
    <g
       id="g4754"
       transform="translate(12.565863)">
      <path
         style="fill:#ffffff;stroke-width:0"
         id="path5"
         sodipodi:type="arc"
         sodipodi:start="4.0282723"
         sodipodi:ry="31.805136"
         sodipodi:rx="32.205719"
         sodipodi:open="true"
         sodipodi:end="4.0223032"
         sodipodi:cy="138.69698"
         sodipodi:cx="-106.70274"
         d="m -127.05639,114.04871 a 32.205719,31.805136 0 0 1 45.281956,4.51102 32.205719,31.805136 0 0 1 -4.500259,44.72541 32.205719,31.805136 0 0 1 -45.295387,-4.37753 32.205719,31.805136 0 0 1 4.36507,-44.73848" />
      <path
         style="fill:#ff0000;stroke-width:0.15711001"
         inkscape:connector-curvature="0"
         id="path7"
         d="m -107.17,202.07 c -0.7807,-0.12098 -1.8182,-0.59799 -2.6072,-1.1986 -0.27423,-0.20878 -1.8091,-2.3078 -3.4108,-4.6645 -3.6916,-5.4318 -22.083,-33.262 -24.245,-36.688 -3.2556,-5.1593 -4.8241,-9.155 -5.6565,-14.412 -0.38135,-2.408 -0.37756,-7.9466 0.007,-10.423 1.8892,-12.162 9.4596,-22.67 20.213,-28.058 3.0847,-1.5456 6.2589,-2.6393 9.8539,-3.3952 1.9552,-0.41111 9.2358,-0.59351 11.652,-0.29192 1.9261,0.24039 5.7672,1.2059 7.7957,1.9595 14.141,5.254 23.841,18.664 24.381,33.708 0.22687,6.3141 -1.0623,11.992 -4.0141,17.679 -1.4914,2.8733 -7.1663,11.635 -21.317,32.912 -6.348,9.5446 -7.6194,11.328 -8.5843,12.041 -0.89929,0.66401 -2.7311,1.0381 -4.0689,0.83076 z m 3.7833,-32.672 c 9.8949,-1.0267 18.489,-6.5909 23.422,-15.164 1.552,-2.6972 2.6573,-5.6737 3.4018,-9.1609 0.39567,-1.8533 0.42456,-2.2506 0.42456,-5.838 0,-3.5779 -0.0296,-3.9881 -0.42023,-5.8166 -1.334,-6.2447 -4.19,-11.476 -8.6253,-15.798 -4.326,-4.2153 -9.1087,-6.7518 -15.115,-8.0148 -2.3749,-0.49952 -7.0297,-0.69086 -9.4757,-0.38954 -7.1479,0.88064 -13.366,3.9673 -18.289,9.0778 -3.5868,3.7238 -5.946,7.8052 -7.3806,12.771 -0.84371,2.9191 -1.0114,4.3059 -1.007,8.3272 0.004,3.4247 0.0354,3.8402 0.43777,5.7347 0.61597,2.9005 1.4059,5.1554 2.7246,7.7773 2.2517,4.4767 5.3349,8.0564 9.5077,11.04 4.2543,3.0411 9.4032,4.9453 14.894,5.5081 1.1873,0.12169 4.0811,0.0935 5.499,-0.0537 z m -24.82,-12.37 c 0.003,-0.0648 3.4941,-9.5214 7.7583,-21.014 l 7.753,-20.897 h 12.816 l 7.7494,20.897 c 4.2621,11.493 7.75,20.95 7.7512,21.014 0.001,0.0648 -2.384,0.11708 -5.3004,0.11614 l -5.3027,-0.002 -1.257,-3.6352 c -0.69133,-1.9994 -1.3313,-3.7371 -1.4222,-3.8617 -0.14223,-0.19489 -1.3609,-0.21039 -8.7387,-0.1112 l -8.5736,0.11528 -2.6242,7.4964 h -5.3071 c -2.9189,0 -5.3048,-0.053 -5.302,-0.11784 z m 27.805,-15.387 c 0,-0.40056 -5.7386,-16.703 -5.8648,-16.66 -0.0873,0.0291 -0.24638,0.29637 -0.35357,0.59394 -0.6861,1.9048 -5.5653,16.001 -5.5653,16.079 0,0.0524 2.6513,0.0952 5.8919,0.0952 3.2405,0 5.8919,-0.0485 5.8919,-0.1078 z" />
    </g>
  </g>
</svg>
