<?xml version="1.0" encoding="UTF-8"?>
<svg width="640" height="640" inkscape:version="0.92.4 (5da689c313, 2019-01-14)" sodipodi:docname="indicador_mantenimiento_135.svg" version="1.1" xmlns="http://www.w3.org/2000/svg" xmlns:cc="http://creativecommons.org/ns#" xmlns:dc="http://purl.org/dc/elements/1.1/" xmlns:inkscape="http://www.inkscape.org/namespaces/inkscape" xmlns:rdf="http://www.w3.org/1999/02/22-rdf-syntax-ns#" xmlns:sodipodi="http://sodipodi.sourceforge.net/DTD/sodipodi-0.dtd" xmlns:xlink="http://www.w3.org/1999/xlink">
 <metadata>
  <rdf:RDF>
   <cc:Work rdf:about="">
    <dc:format>image/svg+xml</dc:format>
    <dc:type rdf:resource="http://purl.org/dc/dcmitype/StillImage"/>
    <dc:title/>
   </cc:Work>
  </rdf:RDF>
 </metadata>
 <sodipodi:namedview bordercolor="#666666" borderopacity="1" gridtolerance="10" guidetolerance="10" inkscape:current-layer="svg33" inkscape:cx="211.68085" inkscape:cy="210.69368" inkscape:pageopacity="0" inkscape:pageshadow="2" inkscape:window-height="1017" inkscape:window-maximized="1" inkscape:window-width="1920" inkscape:window-x="1358" inkscape:window-y="-8" inkscape:zoom="0.7375" objecttolerance="10" pagecolor="#ffffff" showgrid="false"/>
 <defs>
  <path id="c1GPuNhv6q" d="m209.08 1.81c-174.32 21.04-267.23 220.62-169.3 363.71 10.25 14.98 12.65 18.62 90.53 137.13 41.43 63.05 77.08 116.64 79.23 119.09 15.51 17.68 41.63 17.68 57.14 0 3.28-3.73 156.72-236.22 160.1-242.57 0.62-1.17 4.52-7.22 8.66-13.44 110.99-166.87-26.56-388.02-226.36-363.92m55.29 43.33c149.9 21.75 212.26 203.33 106.94 311.4-104.4 107.12-286.33 53.98-316.34-92.4-25.45-124.15 82.8-237.36 209.4-219"/>
  <path id="amLhc2JGK" d="m324.47 238.27c0 1.19 0.070007 1.67 0.16 1.08 0.089996-0.59001 0.089996-1.56 0-2.15s-0.16-0.11-0.16 1.07"/>
  <path id="amLhc2JGK-7" d="m324.47 238.27c0 1.19 0.07 1.67 0.16001 1.08 0.09-0.59002 0.09-1.56 0-2.15s-0.16001-0.11-0.16001 1.07" inkscape:connector-curvature="0"/>
 </defs>
 <g fill="#fff">
  <path d="m255.94 226.73a205.42 212.2 0 0 1 288.83 30.097 205.42 212.2 0 0 1-28.705 298.41 205.42 212.2 0 0 1-288.92-29.207 205.42 212.2 0 0 1 27.843-298.49" stroke-width="0" sodipodi:cx="385.76273" sodipodi:cy="391.18661" sodipodi:end="4.0223032" sodipodi:open="true" sodipodi:rx="205.42372" sodipodi:ry="212.2032" sodipodi:start="4.0282723" sodipodi:type="arc"/>
  <path d="m259.04 223a195.25 203.39 0 0 1 274.53 28.847 195.25 203.39 0 0 1-27.284 286.01 195.25 203.39 0 0 1-274.61-27.994 195.25 203.39 0 0 1 26.464-286.1" stroke-width="0" sodipodi:cx="382.44092" sodipodi:cy="380.61938" sodipodi:end="4.0223032" sodipodi:open="true" sodipodi:rx="195.25414" sodipodi:ry="203.3894" sodipodi:start="4.0282723" sodipodi:type="arc"/>
  <ellipse transform="rotate(135)" cx="5.6843e-14" cy="-541.49" rx="192.22" ry="184.44"/>
 </g>
 <g fill="#ff9900">
  <use transform="rotate(135,320,320)" x="82.498833" y="2.5028131" width="100%" height="100%" xlink:href="#c1GPuNhv6q"/>
  <use transform="rotate(135,320,320)" x="82.496094" y="2.5019529" width="100%" height="100%" xlink:href="#amLhc2JGK"/>
  <use transform="rotate(135,320,320)" x="82.496094" y="2.5019529" width="100%" height="100%" xlink:href="#amLhc2JGK"/>
 </g>
 <g transform="rotate(225 57.474 265.31)">
  <use x="82.496094" y="2.5019529" width="100%" height="100%" fill="#b3c8e0" xlink:href="#amLhc2JGK-7"/>
  <use x="82.496094" y="2.5019529" width="100%" height="100%" xlink:href="#amLhc2JGK-7"/>
 </g>
 <g transform="matrix(8.628 0 0 8.628 1418.6 -914.71)" fill="#f90" stroke-width=".26458" inkscape:label="Capa 1">
  <g transform="matrix(.063211 0 0 .063211 -134.5 133.94)" fill="#f90">
   <g fill="#f90">
    <path d="m478.41 116.62c-0.368-4.271-3.181-7.94-7.2-9.403-4.029-1.472-8.539-0.47-11.57 2.556l-62.015 62.011-68.749-21.768-21.768-68.748 62.016-62.016c3.035-3.032 4.025-7.543 2.563-11.565-1.477-4.03-5.137-6.837-9.417-7.207-37.663-3.245-74.566 10.202-101.25 36.887-36.542 36.545-46.219 89.911-29.083 135.4-1.873 1.578-3.721 3.25-5.544 5.053l-207.01 195.34c-0.073 0.071-0.145 0.149-0.224 0.219-24.345 24.346-24.345 63.959 0 88.309 24.349 24.344 63.672 24.048 88.013-0.298 0.105-0.098 0.201-0.196 0.297-0.305l193.63-208.62c1.765-1.773 3.404-3.628 4.949-5.532 45.5 17.167 98.9 7.513 135.47-29.056 26.675-26.687 40.131-63.593 36.882-101.25zm-402.43 318.76c-8.971 8.969-23.5 8.963-32.47 0-8.967-8.961-8.967-23.502 0-32.466 8.97-8.963 23.499-8.963 32.47 0 8.967 8.964 8.967 23.505 0 32.466z" fill="#f90" inkscape:connector-curvature="0"/>
   </g>
  </g>
 </g>
</svg>
