<?xml version="1.0" encoding="UTF-8" standalone="no"?>
<!-- Created with Inkscape (http://www.inkscape.org/) -->

<svg
   version="1.1"
   id="svg824"
   width="640"
   height="640"
   viewBox="0 0 640 640"
   sodipodi:docname="indicador_mantenimiento_225verde.svg"
   inkscape:version="1.1 (c68e22c387, 2021-05-23)"
   xmlns:inkscape="http://www.inkscape.org/namespaces/inkscape"
   xmlns:sodipodi="http://sodipodi.sourceforge.net/DTD/sodipodi-0.dtd"
   xmlns="http://www.w3.org/2000/svg"
   xmlns:svg="http://www.w3.org/2000/svg">
  <defs
     id="defs828" />
  <sodipodi:namedview
     id="namedview826"
     pagecolor="#ffffff"
     bordercolor="#666666"
     borderopacity="1.0"
     inkscape:pageshadow="2"
     inkscape:pageopacity="0.0"
     inkscape:pagecheckerboard="0"
     showgrid="false"
     inkscape:zoom="1.1984375"
     inkscape:cx="320"
     inkscape:cy="320"
     inkscape:window-width="1920"
     inkscape:window-height="1017"
     inkscape:window-x="-8"
     inkscape:window-y="-8"
     inkscape:window-maximized="1"
     inkscape:current-layer="g830" />
  <g
     inkscape:groupmode="layer"
     inkscape:label="Image"
     id="g830">
    <ellipse
       style="fill:#ffffff;stroke:#8a8a8a;stroke-width:0;stroke-linecap:round;stroke-linejoin:round"
       id="path1252"
       cx="373.82007"
       cy="260.33899"
       rx="225.29335"
       ry="220.28683" />
    <g
       id="g1148">
      <path
         style="fill:#00ff00;stroke:#8a8a8a;stroke-width:0;stroke-linecap:round;stroke-linejoin:round"
         d="m 113.42708,553.68914 c -10.12778,-2.42376 -20.020176,-11.02567 -24.352764,-21.17587 -2.388624,-5.59596 -2.707533,-7.22698 -2.675525,-13.68358 0.01999,-4.03169 0.420505,-9.02004 0.890041,-11.08523 1.151307,-5.06387 5.328529,-26.03677 8.15245,-40.93164 1.266327,-6.67929 2.537056,-12.52381 2.823844,-12.98784 0.286787,-0.46404 1.29544,-5.51286 2.241454,-11.2196 0.94601,-5.70676 2.25698,-12.25336 2.91326,-14.54801 0.65629,-2.29466 1.8099,-7.92699 2.56358,-12.5163 0.75368,-4.58931 1.72123,-9.28292 2.15012,-10.43025 0.42889,-1.14733 1.68636,-7.15515 2.79438,-13.35072 1.10803,-6.19556 2.2571,-11.88862 2.55349,-12.65123 0.53149,-1.3675 3.4262,-15.8397 7.73383,-38.66558 1.21252,-6.42504 2.43157,-11.86963 2.70901,-12.09909 0.27744,-0.22947 1.35031,-5.48631 2.38414,-11.68188 1.03384,-6.19557 2.21906,-12.01564 2.63383,-12.93351 0.41476,-0.91786 1.53873,-6.36245 2.4977,-12.09908 0.95897,-5.73664 2.087,-11.18123 2.50673,-12.09909 0.41973,-0.91786 1.55312,-6.36245 2.51865,-12.09909 0.96552,-5.73663 2.09199,-11.18122 2.50326,-12.09909 0.41127,-0.91786 1.53773,-6.36245 2.50326,-12.09908 0.96552,-5.73664 2.08162,-11.18123 2.48021,-12.09909 0.3986,-0.91786 1.5438,-6.72396 2.5449,-12.90243 1.00109,-6.17847 2.12716,-11.8108 2.50236,-12.51629 0.37521,-0.7055 1.51437,-5.13148 2.53147,-9.83552 1.01711,-4.70404 2.16537,-8.5528 2.5517,-8.5528 0.38633,0 0.70242,-0.45876 0.70242,-1.01949 0,-1.50164 3.563,-12.67851 4.19699,-13.16565 0.29864,-0.22946 1.44444,-2.95176 2.54623,-6.04954 1.10179,-3.09779 2.28824,-5.63234 2.63654,-5.63234 0.3483,0 0.63327,-0.43422 0.63327,-0.96494 0,-1.15143 7.70344,-16.51747 9.89105,-19.72966 0.84351,-1.23857 3.08171,-4.69262 4.9738,-7.67567 1.89208,-2.98305 4.01514,-6.01846 4.7179,-6.74536 0.70276,-0.72689 1.27775,-1.6276 1.27775,-2.00158 0,-0.59798 1.60004,-2.69248 9.40817,-12.31553 1.02108,-1.25842 3.17071,-3.70969 4.77697,-5.44727 1.60625,-1.73758 4.45284,-4.83834 6.32573,-6.890587 1.8729,-2.052245 5.62779,-5.829109 8.3442,-8.393031 4.22254,-3.985502 8.14087,-7.233112 22.04454,-18.271098 1.14733,-0.910851 4.71447,-3.327562 7.92699,-5.37047 3.21251,-2.042907 6.21642,-4.037533 6.67536,-4.432501 0.96493,-0.83045 9.30476,-5.504407 14.18513,-7.949883 1.83573,-0.919853 3.52543,-1.904602 3.75489,-2.188331 0.50485,-0.624237 11.6457,-5.666621 16.21343,-7.338251 1.80396,-0.660186 4.80787,-1.889854 6.67536,-2.732598 1.86749,-0.842742 5.83611,-2.202055 8.81916,-3.020694 2.98306,-0.81864 5.61148,-1.753348 5.84094,-2.077129 0.22947,-0.323782 4.35985,-1.456025 9.17862,-2.516097 4.81878,-1.060072 8.94915,-2.179736 9.17862,-2.488142 0.38044,-0.51133 8.42927,-1.81675 26.28422,-4.262979 9.03673,-1.238082 42.64002,-1.831989 46.3103,-0.818491 1.60626,0.443545 9.27728,1.601356 17.04672,2.572914 7.76943,0.971558 14.52823,2.077891 15.01955,2.458518 0.49133,0.380626 4.6482,1.539427 9.23751,2.575113 4.58931,1.035685 8.71969,2.177101 9.17862,2.536481 0.45893,0.359379 3.62542,1.479938 7.03665,2.49013 3.41121,1.010193 6.97836,2.324488 7.92699,2.920656 0.94861,0.596168 2.66348,1.339056 3.81081,1.650863 2.45563,0.667362 26.09185,12.177615 26.70143,13.002932 0.22947,0.310678 2.06585,1.400862 4.08085,2.42263 2.01501,1.021769 4.43261,2.574165 5.37247,3.449771 0.93985,0.875605 2.13045,1.59201 2.64577,1.59201 0.51532,0 1.67899,0.657105 2.58593,1.460234 2.15197,1.905646 6.82503,5.215124 7.36388,5.215124 0.23186,0 1.27966,0.773898 2.32844,1.719773 1.04879,0.945874 5.66178,4.791869 10.25108,8.546655 11.4435,9.362601 26.02705,24.014928 32.95959,33.115008 1.14732,1.50605 3.05916,3.90763 4.24852,5.33683 1.18936,1.42921 4.17875,5.60246 6.6431,9.27391 2.46434,3.67145 4.68289,6.8631 4.9301,7.09257 0.2472,0.22947 1.35145,2.10691 2.45389,4.1721 1.10243,2.06519 2.31471,4.15913 2.69394,4.65321 1.38616,1.80593 11.24602,21.75061 12.75603,25.80311 0.85501,2.29466 1.83812,4.54759 2.18466,5.00652 0.34655,0.45893 1.45943,3.65059 2.47307,7.09257 1.01364,3.44198 2.12692,6.63364 2.47395,7.09257 0.34703,0.45893 1.46408,4.40156 2.48234,8.76141 1.01825,4.35984 2.19362,8.67796 2.61194,9.59582 1.01036,2.21693 3.04316,15.26913 3.76649,24.18389 0.3192,3.93388 0.90337,7.35213 1.29818,7.59613 1.0334,0.63868 0.92038,41.00804 -0.1166,41.64893 -0.45893,0.28363 -0.83442,2.04059 -0.83442,3.90434 0,4.51154 -3.37361,27.6904 -4.10746,28.22082 -0.31746,0.22947 -1.44139,4.35984 -2.49759,9.17862 -1.05622,4.81877 -2.20977,9.1369 -2.56346,9.59583 -0.35369,0.45893 -1.28665,3.08735 -2.07324,5.84094 -0.78659,2.75358 -2.33388,6.98896 -3.43841,9.41195 -1.10453,2.42298 -2.00824,4.76253 -2.00824,5.19897 0,0.43645 -1.50196,3.95489 -3.33768,7.81876 -1.83572,3.86388 -3.33768,7.43829 -3.33768,7.94315 0,0.50485 -0.32994,0.91791 -0.73319,0.91791 -0.40325,0 -1.21595,1.22034 -1.80598,2.71186 -2.60028,6.57309 -15.27151,26.22735 -24.07353,37.34029 -6.0513,7.64003 -26.58579,28.63705 -33.04958,33.794 -1.72569,1.3768 -4.30881,3.48091 -5.74028,4.67581 -2.76122,2.30492 -5.04797,3.86196 -16.37058,11.14675 -3.90091,2.50979 -7.46806,4.86464 -7.92699,5.23299 -0.45893,0.36837 -2.80574,1.59641 -5.21512,2.729 -2.40939,1.13258 -4.38071,2.29507 -4.38071,2.5833 0,0.28824 -1.78357,1.18732 -3.96349,1.99794 -2.17992,0.81063 -5.08996,2.12686 -6.46675,2.92496 -1.3768,0.79809 -4.38071,2.1379 -6.67536,2.97736 -2.29466,0.83945 -4.35985,1.75598 -4.58931,2.03676 -0.50313,0.61561 -11.72258,4.16449 -13.16565,4.16449 -0.56073,0 -1.01949,0.31609 -1.01949,0.70242 0,0.38633 -3.84876,1.56342 -8.5528,2.61575 -4.70404,1.05234 -8.92829,2.19067 -9.38723,2.52961 -0.45893,0.33895 -5.52803,1.46233 -11.26466,2.49642 -5.73664,1.03409 -10.80574,2.15279 -11.26467,2.48601 -0.45893,0.33322 -5.52803,1.43633 -11.26467,2.45135 -5.73663,1.01503 -11.18122,2.18386 -12.09909,2.5974 -0.91786,0.41354 -6.1747,1.52877 -11.68187,2.47828 -5.50717,0.94951 -10.76402,2.06788 -11.68188,2.48526 -0.91786,0.41738 -6.36245,1.54349 -12.09909,2.50246 -5.73663,0.95896 -11.18122,2.08543 -12.09908,2.50326 -0.91787,0.41782 -6.36246,1.54428 -12.09909,2.50326 -5.73664,0.95896 -11.18123,2.08026 -12.09909,2.49174 -0.91786,0.4115 -6.55019,1.57383 -12.5163,2.58296 -5.9661,1.00914 -11.22294,2.06625 -11.68187,2.34913 -0.45893,0.28289 -6.09127,1.53064 -12.5163,2.77277 -10.69631,2.06789 -21.75949,4.25371 -45.47588,8.98492 -4.81878,0.9613 -11.95307,2.47445 -15.85398,3.36257 -3.90091,0.88811 -11.38556,2.37935 -16.63255,3.31389 -5.247,0.93452 -10.69158,2.07516 -12.09909,2.53475 -1.40751,0.45959 -7.06497,1.60055 -12.57214,2.53545 -5.50717,0.9349 -11.1395,2.05831 -12.5163,2.49647 -1.37679,0.43816 -7.57236,1.74587 -13.76792,2.90602 -6.19557,1.16015 -13.89309,2.64431 -17.10561,3.29814 -6.20358,1.26257 -16.66949,1.50965 -20.91451,0.49373 z M 408.03129,441.82568 c 2.75359,-0.40188 7.07171,-1.13924 9.59583,-1.63858 2.52412,-0.49934 7.53398,-1.47993 11.13302,-2.1791 3.59904,-0.69916 7.16619,-1.60575 7.92699,-2.01464 0.76081,-0.40888 4.19944,-1.55332 7.64142,-2.5432 3.44198,-0.98987 6.63364,-2.0899 7.09257,-2.44451 0.45893,-0.35461 2.33638,-1.11677 4.1721,-1.69369 5.8747,-1.84626 27.33731,-13.34812 33.37679,-17.88669 0.91786,-0.68976 4.83996,-3.61302 8.71577,-6.49614 3.8758,-2.88312 11.19784,-9.4027 16.27118,-14.48795 8.05344,-8.07235 11.37361,-11.80268 18.26657,-20.52319 2.04325,-2.58498 10.36381,-15.27525 12.76034,-19.46167 3.03007,-5.29314 9.14767,-18.04114 10.41111,-21.69491 0.63478,-1.83573 1.39924,-3.52543 1.69881,-3.75489 0.29957,-0.22947 1.35667,-3.23338 2.3491,-6.67536 0.99244,-3.44198 2.18697,-6.95747 2.65452,-7.8122 0.46754,-0.85473 1.78419,-6.11157 2.9259,-11.68187 1.14169,-5.57031 2.4408,-11.62979 2.8869,-13.46551 2.30746,-9.49543 1.61723,-55.65311 -0.90249,-60.35132 -0.41171,-0.76766 -1.35846,-4.95457 -2.10391,-9.30425 -0.74545,-4.34967 -1.86036,-9.04328 -2.47761,-10.43024 -0.61724,-1.38697 -1.94698,-5.33792 -2.955,-8.7799 -1.008,-3.44198 -2.07784,-6.4459 -2.37741,-6.67536 -0.29957,-0.22947 -1.06716,-1.91917 -1.70575,-3.75489 -1.74794,-5.02469 -11.37213,-23.91154 -13.60629,-26.70143 -0.36751,-0.45894 -2.2396,-3.2751 -4.1602,-6.25815 -1.9206,-2.98305 -4.45341,-6.59945 -5.62848,-8.03643 -1.17507,-1.43699 -3.43615,-4.25316 -5.02464,-6.25815 -3.73581,-4.71538 -21.07451,-22.05408 -25.78989,-25.78989 -2.00499,-1.58849 -4.82116,-3.84957 -6.25815,-5.02464 -1.43698,-1.17507 -5.05338,-3.70789 -8.03643,-5.62848 -2.98305,-1.9206 -5.859,-3.85219 -6.39101,-4.292419 -1.72168,-1.424671 -17.27035,-9.22032 -18.39023,-9.22032 -0.59718,0 -1.08577,-0.325177 -1.08577,-0.722616 0,-0.397439 -2.34681,-1.553014 -5.21512,-2.567947 -2.86832,-1.014932 -6.3416,-2.346771 -7.71839,-2.959642 -1.37679,-0.612872 -4.75619,-1.726633 -7.50978,-2.475025 -2.75358,-0.748392 -5.65927,-1.720262 -6.45708,-2.159711 -0.7978,-0.43945 -5.67916,-1.571072 -10.84746,-2.514715 -5.16828,-0.943645 -10.52336,-2.080445 -11.90015,-2.526223 -5.5845,-1.80815 -29.29027,-2.770918 -43.24639,-1.756374 -7.42178,0.539528 -14.62062,1.344059 -15.99742,1.787846 -1.37679,0.443787 -6.74322,1.579784 -11.92539,2.524437 -5.18217,0.944654 -10.06353,2.070009 -10.84746,2.500789 -0.78393,0.430781 -3.67826,1.39789 -6.43184,2.14913 -2.75359,0.751241 -6.98897,2.269601 -9.41196,3.374132 -2.42298,1.104532 -4.77247,2.008239 -5.22108,2.008239 -1.20731,0 -20.45398,10.144501 -26.32816,13.877003 -9.65375,6.134066 -12.02446,7.841996 -12.02446,8.662796 0,0.45318 -0.42887,0.82396 -0.95307,0.82396 -3.81715,0 -32.50333,29.71846 -38.66814,40.05965 -0.46649,0.78249 -1.88074,2.9709 -3.1428,4.86312 -1.26206,1.89222 -2.29466,3.79207 -2.29466,4.22187 0,0.42981 -0.35061,0.90664 -0.77913,1.05962 -1.01425,0.36207 -12.02064,21.80809 -13.41806,26.14515 -0.59147,1.83572 -1.53061,4.08866 -2.08698,5.00652 -0.55637,0.91786 -1.65107,4.10952 -2.43266,7.09257 -0.78159,2.98305 -1.91568,6.55019 -2.5202,7.92699 -0.60452,1.37679 -1.74433,6.25814 -2.53293,10.84745 -0.78859,4.58931 -1.78345,9.23453 -2.21079,10.3227 -1.78432,4.54351 -2.73285,28.09438 -1.70248,42.27057 0.55165,7.58985 1.33862,14.44408 1.74881,15.23165 0.41019,0.78756 1.36059,5.18682 2.112,9.77613 1.25858,7.68695 3.74935,16.72471 6.89885,25.03259 0.69592,1.83572 2.12342,5.59061 3.17223,8.3442 2.04201,5.36122 11.87341,24.75624 12.90058,25.4498 0.33985,0.22947 1.26634,1.68235 2.05887,3.22863 1.35508,2.64384 6.93241,10.87807 7.9864,11.79093 0.26495,0.22947 1.32272,1.62163 2.3506,3.0937 1.02788,1.47208 2.69949,3.69522 3.71469,4.94034 2.2579,2.76925 21.90619,22.33728 25.76073,25.65549 4.11645,3.54369 14.92922,11.32304 17.80607,12.81074 1.37679,0.71199 2.691,1.56789 2.92047,1.90202 0.65825,0.95849 19.55858,10.68505 24.40823,12.56106 2.40859,0.93172 5.50572,2.20325 6.88251,2.82562 1.37679,0.62236 4.94394,1.79046 7.92699,2.59578 2.98305,0.8053 5.81036,1.75829 6.28291,2.11775 0.47256,0.35945 5.35392,1.45068 10.84746,2.42494 5.49355,0.97428 11.30248,2.15096 12.90874,2.61484 7.58584,2.19079 39.09689,2.62671 52.15124,0.72147 z"
         id="path951" />
      <path
         style="fill:#00ff00;stroke:#8a8a8a;stroke-width:0;stroke-linecap:round;stroke-linejoin:round"
         d="m 282.63642,382.1205 c -2.4222,-0.65206 -4.86287,-1.5727 -5.42373,-2.04585 -0.56085,-0.47316 -2.55845,-1.94112 -4.43911,-3.26213 -4.54074,-3.18951 -9.041,-8.7986 -10.76923,-13.42269 -0.77185,-2.06519 -1.81277,-4.60979 -2.31314,-5.65468 -1.13191,-2.36366 -1.12299,-14.81023 0.0116,-16.23919 0.45972,-0.57897 1.30616,-2.55463 1.88099,-4.39035 1.26886,-4.05216 6.46127,-11.17894 11.15302,-15.30795 1.90086,-1.67286 7.39873,-6.78226 12.21751,-11.35422 26.86696,-25.49087 37.04837,-35.11073 51.26296,-48.43562 5.87489,-5.50717 12.85245,-12.07822 15.50569,-14.60234 4.95792,-4.71664 25.54004,-24.1059 32.88526,-30.97938 l 4.12571,-3.86071 -1.08309,-4.90069 c -0.59571,-2.69538 -1.51065,-5.42755 -2.03323,-6.07148 -1.31713,-1.62301 -1.29301,-27.49253 0.0281,-30.20069 0.53809,-1.10292 1.79694,-4.82147 2.79749,-8.26346 1.00054,-3.44198 2.07514,-6.44589 2.38799,-6.67535 0.31285,-0.22947 1.48944,-2.38853 2.61465,-4.79792 1.12522,-2.40939 2.32305,-4.3807 2.66185,-4.3807 0.33879,0 1.15568,-1.0326 1.81528,-2.29466 1.4739,-2.82009 8.80222,-10.46166 13.86313,-14.45571 4.60315,-3.63278 13.44581,-8.53848 17.94003,-9.95269 1.83572,-0.57766 3.71316,-1.33298 4.1721,-1.6785 1.56559,-1.17869 9.80146,-2.52054 18.25791,-2.97471 10.43071,-0.56019 12.48898,0.23729 12.88104,4.99081 0.26212,3.1779 0.0385,3.44593 -17.91452,21.4667 l -18.17994,18.24861 1.07768,2.7123 c 0.59272,1.49176 1.80906,5.34072 2.70299,8.55323 0.89392,3.21252 2.17357,7.15515 2.84367,8.76141 0.67011,1.60626 1.96556,5.68838 2.87878,9.07138 2.80915,10.40646 2.891,10.51076 9.5786,12.20772 3.24492,0.82339 6.27535,1.77653 6.73428,2.11809 0.45893,0.34156 3.83833,1.43146 7.50978,2.422 3.67145,0.99054 7.42634,2.158 8.3442,2.59434 1.70214,0.80918 9.5892,3.26902 10.53409,3.2854 0.28658,0.005 8.54734,-8.0728 18.35723,-17.95058 9.8099,-9.87778 18.68377,-18.17993 19.71971,-18.44922 1.0979,-0.28539 2.75109,0.0788 3.9635,0.87323 1.99882,1.30968 2.07997,1.70531 2.07997,10.1402 0,9.34947 -1.69274,19.51016 -4.16128,24.97818 -0.82874,1.83573 -2.12349,4.82648 -2.87722,6.64612 -0.75374,1.81964 -1.6573,3.50934 -2.00793,3.75488 -0.35062,0.24556 -1.49816,1.86266 -2.55009,3.59357 -6.57696,10.82212 -21.69697,22.94027 -33.04495,26.48432 -1.83572,0.57331 -3.71316,1.32824 -4.17209,1.67762 -4.82183,3.67085 -37.6871,3.67572 -42.55541,0.007 -1.29613,-0.97694 -5.42358,-1.80132 -5.42506,-1.08355 -7.3e-4,0.35295 -2.34753,3.13609 -5.21512,6.18476 -8.27383,8.79631 -21.75966,23.33177 -23.4244,25.24756 -0.83722,0.96347 -4.21662,4.58909 -7.50978,8.05695 -3.29317,3.46785 -8.24051,8.75669 -10.99409,11.75298 -7.34009,7.98706 -22.9747,24.83111 -25.86702,27.86799 -3.58294,3.76204 -18.90843,20.33744 -20.70462,22.39322 -0.83213,0.9524 -4.16255,4.55686 -7.40092,8.00991 -3.23837,3.45306 -7.32269,7.83335 -9.07626,9.734 -3.73287,4.0456 -11.47457,8.92521 -16.22107,10.22381 -4.55553,1.24634 -14.08836,1.06331 -19.42355,-0.37295 z m 16.19034,-19.97402 c 4.78922,-3.13801 6.7602,-11.06253 4.42068,-17.77369 -2.05223,-5.88703 -11.16103,-9.29217 -17.62827,-6.58999 -1.74184,0.72779 -4.19959,2.83884 -5.69418,4.89095 -2.39246,3.2849 -2.60138,4.06656 -2.31686,8.66827 0.23352,3.77675 0.78077,5.56018 2.16064,7.04131 1.01636,1.09092 1.84792,2.24803 1.84792,2.57134 0,0.3233 1.40808,1.19465 3.12907,1.93633 3.78015,1.62908 11.04465,1.24498 14.081,-0.74452 z"
         id="path1027" />
    </g>
  </g>
</svg>
