<svg width="640" height="640" xmlns="http://www.w3.org/2000/svg" xmlns:xlink="http://www.w3.org/1999/xlink" preserveAspectRatio="xMidYMid meet">
 <defs>
  <path id="c1GPuNhv6q" d="m209.080002,1.81c-174.320011,21.04 -267.230011,220.619993 -169.300003,363.709989c10.25,14.980011 12.650002,18.620026 90.529999,137.130005c41.430008,63.050018 77.080002,116.639984 79.229996,119.089996c15.51001,17.679993 41.630005,17.679993 57.139999,0c3.279999,-3.72998 156.720001,-236.220001 160.100006,-242.569977c0.619995,-1.170013 4.519989,-7.220001 8.660004,-13.440002c110.98999,-166.87001 -26.559998,-388.020021 -226.360001,-363.920011m55.289993,43.329999c149.899994,21.75 212.26001,203.330002 106.940002,311.399979c-104.399994,107.120026 -286.329987,53.97998 -316.339996,-92.399963c-25.450001,-124.150009 82.800003,-237.360014 209.399994,-219.000015"/>
  <path id="amLhc2JGK" d="m324.470001,238.270004c0,1.190002 0.070007,1.669998 0.160004,1.080002c0.089996,-0.590012 0.089996,-1.560013 0,-2.150009c-0.089996,-0.589996 -0.160004,-0.110001 -0.160004,1.070007"/>
  <path id="aPMOIARQT" d="m469.660004,178.309998c1.380005,1.400009 2.600006,2.540009 2.709991,2.540009c0.110016,0 -0.929993,-1.139999 -2.320007,-2.540009c-1.379974,-1.389999 -2.599976,-2.539993 -2.709991,-2.539993c-0.109985,0 0.940002,1.149994 2.320007,2.539993m-61.800018,145.019989c1.130005,0.080017 2.890015,0.080017 3.900024,0c1.019989,-0.079987 0.089996,-0.149994 -2.059998,-0.149994c-2.150024,0 -2.980011,0.070007 -1.840027,0.149994"/>
 </defs>
  <g transform="rotate(45, 320, 320)" id="svg_2">
   <ellipse fill="#9900CC" cx="319.999998" cy="231.055352" id="svg_1" rx="192.222561" ry="184.44477"/>
   <use x="82.498833" y="2.502813" id="svg_4" fill="#b3c8e0" xlink:href="#c1GPuNhv6q"/>
   <g id="svg_7">
    <use x="82.496094" y="2.501953" id="svg_8" fill="#b3c8e0" xlink:href="#amLhc2JGK"/>
    <g id="svg_9">
     <use x="82.496094" y="2.501953" id="svg_10" xlink:href="#amLhc2JGK"/>
    </g>
   </g>
  </g>
</svg>