<svg width="335" height="335" xmlns="http://www.w3.org/2000/svg" xmlns:xlink="http://www.w3.org/1999/xlink" preserveAspectRatio="xMidYMid meet">
 <defs>
  <path d="m494.429993,278.529999l6.390015,0.649994l6.309998,0.899994l6.22998,1.150024l6.150024,1.389984l6.049988,1.630005l5.950012,1.850006l5.849976,2.079987l5.75,2.300018l5.630005,2.519989l5.51001,2.730011l5.390015,2.929993l5.269958,3.130005l5.130005,3.329987l4.990051,3.52002l4.849976,3.699982l4.700012,3.880005l4.539978,4.049988l4.390015,4.230011l4.219971,4.380005l4.059998,4.549988l3.880005,4.700012l3.700012,4.850006l3.52002,4.98999l3.320007,5.130005l3.130005,5.259979l2.940002,5.400024l2.719971,5.509979l2.52002,5.630005l2.299988,5.740021l2.080017,5.859985l1.859985,5.950012l1.619995,6.049988l1.390015,6.140015l1.149963,6.22998l0.900024,6.309998l0.649963,6.390015l0.400024,6.459991l0.130005,6.529999l-0.130005,6.519989l-0.400024,6.460022l-0.649963,6.389984l-0.900024,6.309998l-1.149963,6.230011l-1.390015,6.139984l-1.619995,6.050018l-1.859985,5.959991l-2.080017,5.850006l-2.299988,5.73999l-2.52002,5.630005l-2.719971,5.519989l-2.940002,5.390015l-3.130005,5.26001l-3.320007,5.130005l-3.52002,4.98999l-3.700012,4.849976l-3.880005,4.700012l-4.059998,4.549988l-4.219971,4.390015l-4.390015,4.220032l-4.539978,4.059998l-4.700012,3.880005l-4.849976,3.699951l-4.990051,3.51001l-5.130005,3.330017l-5.269958,3.130005l-5.390015,2.929993l-5.51001,2.72998l-5.630005,2.52002l-5.75,2.299988l-5.849976,2.080017l-5.950012,1.859985l-6.049988,1.619995l-6.150024,1.390015l-6.22998,1.150024l-6.309998,0.899963l-6.390015,0.650024l-6.449982,0.399963l-6.529999,0.130005l-6.529999,-0.130005l-6.460022,-0.399963l-6.380005,-0.650024l-6.309998,-0.899963l-6.22998,-1.150024l-6.149994,-1.390015l-6.050018,-1.619995l-5.949982,-1.859985l-5.850006,-2.080017l-5.75,-2.299988l-5.630005,-2.52002l-5.51001,-2.72998l-5.389984,-2.929993l-5.27002,-3.130005l-5.130005,-3.330017l-4.98999,-3.51001l-4.850006,-3.699951l-4.699982,-3.880005l-4.540009,-4.059998l-4.389984,-4.220032l-4.220001,-4.390015l-4.060028,-4.549988l-3.879974,-4.700012l-3.700012,-4.849976l-3.519989,-4.98999l-3.320007,-5.130005l-3.140015,-5.26001l-2.929993,-5.390015l-2.720001,-5.519989l-2.519989,-5.630005l-2.300018,-5.73999l-2.079987,-5.850006l-1.859985,-5.959991l-1.620026,-6.050018l-1.389984,-6.139984l-1.149994,-6.230011l-0.900024,-6.309998l-0.649994,-6.389984l-0.399994,-6.460022l-0.130005,-6.519989l0.130005,-6.529999l0.399994,-6.459991l0.649994,-6.390015l0.900024,-6.309998l1.149994,-6.22998l1.389984,-6.140015l1.620026,-6.049988l1.859985,-5.950012l2.079987,-5.859985l2.300018,-5.740021l2.519989,-5.630005l2.720001,-5.509979l2.929993,-5.400024l3.140015,-5.259979l3.320007,-5.130005l3.519989,-4.98999l3.700012,-4.850006l3.879974,-4.700012l4.060028,-4.549988l4.220001,-4.380005l4.389984,-4.230011l4.540009,-4.049988l4.699982,-3.880005l4.850006,-3.699982l4.98999,-3.52002l5.130005,-3.329987l5.27002,-3.130005l5.389984,-2.929993l5.51001,-2.730011l5.630005,-2.519989l5.75,-2.300018l5.850006,-2.079987l5.949982,-1.850006l6.050018,-1.630005l6.149994,-1.389984l6.22998,-1.150024l6.309998,-0.899994l6.380005,-0.649994l6.460022,-0.389984l6.529999,-0.140015l6.529999,0.140015l6.449982,0.389984zm-21.850006,50.110016l-4.359985,0.449982l-4.309998,0.610016l-4.25,0.789978l-4.200012,0.950012l-4.130005,1.109985l-4.069977,1.26001l-3.990021,1.429993l-3.919983,1.570007l-3.850006,1.720001l-3.76001,1.860016l-3.690002,2l-3.589996,2.139984l-3.5,2.269989l-3.410004,2.400024l-3.309998,2.529999l-3.209991,2.649994l-3.109985,2.769989l-2.990021,2.880005l-2.889984,3l-2.77002,3.100006l-2.649994,3.209991l-2.519989,3.309998l-2.399994,3.410004l-2.279999,3.51001l-2.140015,3.589996l-2,3.679993l-1.859985,3.769989l-1.720001,3.840027l-1.570007,3.929993l-1.420013,3.98999l-1.269989,4.070007l-1.110016,4.130005l-0.949982,4.190002l-0.779999,4.259979l-0.619995,4.309998l-0.440002,4.360016l-0.27002,4.410004l-0.089996,4.459991l0.089996,4.450012l0.27002,4.410004l0.440002,4.369995l0.619995,4.309998l0.779999,4.25l0.949982,4.190002l1.110016,4.139984l1.269989,4.059998l1.420013,4l1.570007,3.920013l1.720001,3.850006l1.859985,3.759979l2,3.680023l2.140015,3.599976l2.279999,3.5l2.399994,3.410004l2.519989,3.309998l2.649994,3.210022l2.77002,3.099976l2.889984,3.000031l2.990021,2.880005l3.109985,2.769958l3.209991,2.650024l3.309998,2.529968l3.410004,2.400024l3.5,2.27002l3.589996,2.139954l3.690002,2l3.76001,1.870056l3.850006,1.719971l3.919983,1.570007l3.990021,1.419983l4.069977,1.27002l4.130005,1.109985l4.200012,0.940002l4.25,0.789978l4.309998,0.610046l4.359985,0.449951l4.410004,0.27002l4.460022,0.090027l4.459991,-0.090027l4.410004,-0.27002l4.359985,-0.449951l4.309998,-0.610046l4.25,-0.789978l4.200012,-0.950012l4.130005,-1.099976l4.059998,-1.27002l4,-1.419983l3.919983,-1.570007l3.850037,-1.719971l3.759949,-1.870056l3.690002,-2l3.590027,-2.139954l3.5,-2.27002l3.409973,-2.400024l3.309998,-2.529968l3.210022,-2.650024l3.109985,-2.769958l2.98999,-2.880005l2.890015,-3.000031l2.77002,-3.099976l2.650024,-3.210022l2.519958,-3.309998l2.400024,-3.410004l2.279968,-3.5l2.130005,-3.599976l2.01001,-3.680023l1.859985,-3.759979l1.720032,-3.850006l1.570007,-3.920013l1.419983,-4l1.27002,-4.059998l1.109985,-4.139984l0.950012,-4.190002l0.779968,-4.25l0.619995,-4.309998l0.440002,-4.369995l0.27002,-4.410004l0.089966,-4.450012l-0.089966,-4.459991l-0.27002,-4.410004l-0.440002,-4.360016l-0.619995,-4.309998l-0.779968,-4.259979l-0.950012,-4.190002l-1.109985,-4.130005l-1.27002,-4.070007l-1.419983,-3.98999l-1.570007,-3.929993l-1.720032,-3.840027l-1.859985,-3.769989l-2.01001,-3.679993l-2.130005,-3.589996l-2.279968,-3.51001l-2.400024,-3.410004l-2.519958,-3.309998l-2.650024,-3.209991l-2.77002,-3.100006l-2.890015,-3l-2.98999,-2.880005l-3.109985,-2.769989l-3.210022,-2.649994l-3.309998,-2.529999l-3.409973,-2.400024l-3.5,-2.269989l-3.590027,-2.139984l-3.690002,-2l-3.759949,-1.860016l-3.850037,-1.720001l-3.919983,-1.570007l-4,-1.429993l-4.059998,-1.26001l-4.130005,-1.109985l-4.200012,-0.950012l-4.25,-0.789978l-4.309998,-0.610016l-4.359985,-0.449982l-4.410004,-0.26001l-4.459991,-0.089996l-4.460022,0.089996l-4.410004,0.26001z" id="d7WamHSsC"/>
 </defs>
 <g>
  <g id="svg_5">
   <use xlink:href="#d7WamHSsC" fill="#b3c8e0" id="svg_6" y="-269.054688" x="-313.949219"/>
   <g id="svg_7">
    <use xlink:href="#d7WamHSsC" fill-opacity="0" stroke="#014898" stroke-opacity="0" id="svg_8" y="-269.054688" x="-313.949219"/>
   </g>
  </g>
  <ellipse ry="135" rx="135" id="svg_1" cy="167.5" cx="167.5" fill="#ffffff"/>
  <defs transform="translate(24, 30) translate(246, 321) translate(334.998) translate(0, 335.004)">
   <path id="svg_42" d="m486.309998,171.449997c0,1.600006 0,9.600006 0,24l-44.799988,0c0,-0.599991 0,-0.929993 0,-1c0,-31.300003 -25,-56.300003 -56.300018,-56.300003c-5.419983,0 -32.519989,0 -81.299988,0l0,-55.299995c16.919983,0 26.320007,0 28.199982,0c11.5,0 20.900024,-9.400002 20.900024,-20.899998c0,-11.5 -9.400024,-20.900002 -20.900024,-20.900002c-9.799988,0 -88.199982,0 -97.999985,0c-11.5,0 -20.899994,9.400002 -20.899994,20.900002c0,11.499996 9.399994,20.899998 20.899994,20.899998c1.869995,0 11.240005,0 28.099991,0l0,55.299995c-48.779999,0 -75.87999,0 -81.299988,0c-31.300003,0 -56.300003,25 -56.300003,56.300003c0,0.070007 0,0.400009 0,1l-44.800003,0c0,-14.399994 0,-22.399994 0,-24c0,-11.5 -9.399994,-20.899994 -20.899998,-20.899994c-11.5,0 -20.799999,9.399994 -20.799999,20.800003c0,18.349991 0,165.149994 0,183.5c0,11.5 9.399998,20.899994 20.899998,20.899994c10.400005,0 19.799999,-9.399994 20.900005,-20.899994c0,-1.52002 0,-9.160004 0,-22.899994c26.879997,0 41.809998,0 44.799995,0c0,31.299988 25.000008,56.299988 56.299995,56.299988c20.430008,0 183.87001,0 204.300003,0c31.299988,0 56.299988,-25 56.299988,-56.299988c2.980011,0 17.920013,-0.040009 44.800018,-0.100006c0,13.799988 0,21.470001 0,23c0,11.5 9.399994,20.899994 20.899994,20.899994c11.5,0 20.900024,-9.399994 20.900024,-20.899994c0,-18.350006 0,-165.150009 0,-183.5c-0.100037,-11.400009 -9.5,-20.800003 -21.000031,-20.800003c-11.5,0 -20.899994,9.399994 -20.899994,20.899994zm-406.5,117.699997l0,-52.099991l43.800003,0l0,52.099991l-43.800003,0zm305.5,58.399994c-20.440002,0 -183.959991,0 -204.399994,0c-8.300003,0 -15.600006,-7.299988 -15.600006,-15.599976c0,-13.76001 0,-123.840012 0,-137.600006c0,-8.300003 7.300003,-15.600006 15.600006,-15.600006c20.429993,0 183.869995,0 204.299988,0c8.300018,0 15.600006,7.300003 15.600006,15.600006c0,9.179993 0,55.039993 0,137.600006l0.100006,0c-4.869995,10.399994 -10.070007,15.599976 -15.600006,15.599976zm56.299988,-110.499985l44.800018,0l0,52.099991l-44.800018,0l0,-52.099991z"/>
  </defs>
  <g id="svg_35" transform="matrix(1.3297, 0, 0, 1.38664, -222.268, -740.023)">
   <g transform="matrix(0.329006, 0, 0, 0.378916, -59.6703, -158.389)" id="svg_36">
    <g id="svg_39">
     <use x="789.143761" y="1893.480651" id="svg_43" fill="#b3c8e0" xlink:href="#svg_42"/>
    </g>
    <g id="svg_37" transform="matrix(0.364312, 0, 0, 0.352965, -32.5185, -34.0784)">
     <path d="m3147.221436,6023.422852c-3.349121,-5.739258 -9.550781,-9.015625 -16.988281,-9.015625l-91.307617,0c-10.900391,0 -22.224121,7.113281 -26.930176,16.924805l-96.835938,201.116211c-3.162109,6.560547 -2.967285,13.518555 0.471191,19.037109c3.462891,5.568359 9.591797,8.811523 16.858887,8.96582l71.661621,0.902344l-51.876953,129.675293c-1.275391,3.235352 -3.958984,10.014648 0.821289,16.981445c2.088867,3.055664 5.673828,4.925781 9.364258,4.925781l0.836914,0c6.999023,0 11.216797,-5.307617 13.240723,-7.868164l167.628418,-210.490723c7.152344,-8.96582 4.20166,-17.012695 3.120605,-19.353516c-1.12207,-2.243164 -5.625,-9.591797 -17.045898,-9.591797l-53.340332,0l69.800293,-122.985352c3.658691,-6.487305 3.861816,-13.509766 0.520996,-19.223633z" fill="#b3c8e0" id="svg_38"/>
    </g>
   </g>
  </g>
 </g>
</svg>