<?xml version="1.0" encoding="UTF-8" standalone="no"?>
<svg
   xmlns:dc="http://purl.org/dc/elements/1.1/"
   xmlns:cc="http://creativecommons.org/ns#"
   xmlns:rdf="http://www.w3.org/1999/02/22-rdf-syntax-ns#"
   xmlns:svg="http://www.w3.org/2000/svg"
   xmlns="http://www.w3.org/2000/svg"
   xmlns:xlink="http://www.w3.org/1999/xlink"
   xmlns:sodipodi="http://sodipodi.sourceforge.net/DTD/sodipodi-0.dtd"
   xmlns:inkscape="http://www.inkscape.org/namespaces/inkscape"
   width="319.12061"
   height="319.12061"
   inkscape:version="0.92.5 (2060ec1f9f, 2020-04-08)"
   sodipodi:docname="indicador_manualon_0.svg"
   version="1.1"
   id="svg26">
  <metadata
     id="metadata2">
    <rdf:RDF>
      <cc:Work
         rdf:about="">
        <dc:format>image/svg+xml</dc:format>
        <dc:type
           rdf:resource="http://purl.org/dc/dcmitype/StillImage" />
        <dc:title></dc:title>
      </cc:Work>
    </rdf:RDF>
  </metadata>
  <sodipodi:namedview
     bordercolor="#666666"
     borderopacity="1"
     gridtolerance="10"
     guidetolerance="10"
     inkscape:current-layer="svg26"
     inkscape:cx="44.471149"
     inkscape:cy="207.13312"
     inkscape:pageopacity="0"
     inkscape:pageshadow="2"
     inkscape:window-height="1017"
     inkscape:window-maximized="1"
     inkscape:window-width="1920"
     inkscape:window-x="-8"
     inkscape:window-y="-8"
     inkscape:zoom="1.475"
     objecttolerance="10"
     pagecolor="#ffffff"
     showgrid="false"
     id="namedview4"
     inkscape:pagecheckerboard="true" />
  <defs
     id="defs8">
    <path
       id="c1GPuNhv6q"
       d="M 209.08,1.81 C 34.76,22.85 -58.15,222.43 39.78,365.52 c 10.25,14.98 12.65,18.62 90.53,137.13 41.43,63.05 77.08,116.64 79.23,119.09 15.51,17.68 41.63,17.68 57.14,0 3.28,-3.73 156.72,-236.22 160.1,-242.57 0.62,-1.17 4.52,-7.22 8.66,-13.44 C 546.43,198.86 408.88,-22.29 209.08,1.81 m 55.29,43.33 c 149.9,21.75 212.26,203.33 106.94,311.4 -104.4,107.12 -286.33,53.98 -316.34,-92.4 -25.45,-124.15 82.8,-237.36 209.4,-219"
       inkscape:connector-curvature="0" />
    <path
       id="amLhc2JGK"
       d="m 324.47,238.27 c 0,1.19 0.07,1.67 0.16,1.08 0.09,-0.59001 0.09,-1.56 0,-2.15 -0.09,-0.59 -0.16,-0.11 -0.16,1.07"
       inkscape:connector-curvature="0" />
  </defs>
  <g
     id="g4755"
     transform="translate(0,40.216044)">
    <ellipse
       ry="107.45763"
       rx="106.77966"
       cy="119.02749"
       cx="114.91525"
       id="path4771"
       style="opacity:1;fill:#ffffff;fill-opacity:1;fill-rule:nonzero;stroke:none;stroke-width:4.01763773;stroke-linecap:butt;stroke-linejoin:round;stroke-miterlimit:4;stroke-dasharray:none;stroke-dashoffset:0;stroke-opacity:1" />
    <g
       transform="matrix(0.50254946,0,0,0.50250166,-1.2560747,160.20372)"
       id="g4769">
      <use
         transform="rotate(-90,119.34425,119.34425)"
         x="82.498833"
         y="2.5028131"
         xlink:href="#c1GPuNhv6q"
         id="use14"
         style="fill:#00ff00"
         width="100%"
         height="100%" />
      <g
         transform="matrix(1.0104,0,0,0.98967,0,-401.3115)"
         aria-label="M"
         id="g24"
         style="fill:#00ff00">
        <path
           d="M 349.05,441.47 H 290.193 V 287.86 l -42.525,99.686 h -40.83 L 164.313,287.86 V 441.47 H 108.538 V 212.05 h 68.717 l 51.615,115.09 51.461,-115.09 h 68.717 z"
           style="font-variant-ligatures:normal;font-variant-caps:normal;font-variant-numeric:normal;font-feature-settings:normal;fill:#00ff00;stroke-width:7.88859987"
           id="path22"
           inkscape:connector-curvature="0" />
      </g>
    </g>
  </g>
</svg>
