<?xml version="1.0" encoding="UTF-8" standalone="no"?>
<svg
   xmlns:dc="http://purl.org/dc/elements/1.1/"
   xmlns:cc="http://creativecommons.org/ns#"
   xmlns:rdf="http://www.w3.org/1999/02/22-rdf-syntax-ns#"
   xmlns:svg="http://www.w3.org/2000/svg"
   xmlns="http://www.w3.org/2000/svg"
   xmlns:sodipodi="http://sodipodi.sourceforge.net/DTD/sodipodi-0.dtd"
   xmlns:inkscape="http://www.inkscape.org/namespaces/inkscape"
   width="84.433998mm"
   height="84.433998mm"
   inkscape:export-filename="C:\Users\jjimenez\OneDrive - IRC AUTOMATIZACION SLU\Escritorio\imagenes_svg\Nuevos indicadores\manual_on_abajo.png"
   inkscape:export-xdpi="96"
   inkscape:export-ydpi="96"
   inkscape:version="0.92.5 (2060ec1f9f, 2020-04-08)"
   sodipodi:docname="indicador_autooff_0.svg"
   version="1.1"
   viewBox="0 0 84.434 84.433998"
   id="svg13">
  <defs
     id="defs15" />
  <sodipodi:namedview
     id="base"
     bordercolor="#666666"
     borderopacity="1.0"
     fit-margin-bottom="0"
     fit-margin-left="0"
     fit-margin-right="0"
     fit-margin-top="0"
     inkscape:current-layer="g11"
     inkscape:cx="-43.951744"
     inkscape:cy="158.38657"
     inkscape:document-rotation="0"
     inkscape:document-units="mm"
     inkscape:pageopacity="0.0"
     inkscape:pageshadow="2"
     inkscape:window-height="1017"
     inkscape:window-maximized="1"
     inkscape:window-width="1920"
     inkscape:window-x="-8"
     inkscape:window-y="-8"
     inkscape:zoom="1.4"
     pagecolor="#ffffff"
     showgrid="false"
     inkscape:pagecheckerboard="false" />
  <metadata
     id="metadata3">
    <rdf:RDF>
      <cc:Work
         rdf:about="">
        <dc:format>image/svg+xml</dc:format>
        <dc:type
           rdf:resource="http://purl.org/dc/dcmitype/StillImage" />
        <dc:title></dc:title>
      </cc:Work>
    </rdf:RDF>
  </metadata>
  <g
     transform="translate(154.04,-107.729)"
     inkscape:groupmode="layer"
     inkscape:label="Capa 1"
     id="g11">
    <g
       id="g4760"
       transform="translate(0,-10.635881)">
      <ellipse
         id="ellipse5"
         style="font-variant-ligatures:normal;font-variant-caps:normal;font-variant-numeric:normal;font-feature-settings:normal;fill:#ffffff;stroke-width:0.15035"
         ry="27.731001"
         rx="28.900999"
         cy="199.32001"
         cx="31.525999"
         transform="matrix(0.7177,0.69635,-0.7177,0.69635,0,0)" />
      <path
         id="path7"
         d="m -124.65,192.04 c -4.9042,-0.35333 -10.239,-2.0864 -14.395,-4.6762 -3.8365,-2.3907 -7.5347,-5.9808 -9.9287,-9.637 -0.96527,-1.4746 -2.7353,-5.0515 -3.2899,-6.6477 -2.0171,-5.807 -2.3379,-12.559 -0.87143,-18.345 1.0763,-4.2461 3.1914,-8.4499 6.0004,-11.926 1.2825,-1.5872 3.9431,-4.1593 5.5441,-5.3597 4.4717,-3.3532 9.7302,-5.5229 15.108,-6.2341 1.8721,-0.24756 5.7209,-0.28208 7.4445,-0.0668 5.1245,0.64024 10.209,2.5845 14.613,5.5874 1.0619,0.72405 4.5094,3.0143 7.6611,5.0892 16.548,10.895 25.483,16.894 25.969,17.438 1.6112,1.801 1.5762,4.5977 -0.0814,6.4905 -0.42586,0.48625 -7.5417,5.259 -22.203,14.893 -4.4036,2.8935 -7.7089,5.1598 -8.4307,5.7798 -5.3386,4.5884 -11.619,7.1368 -18.797,7.6268 -2.105,0.14372 -2.1901,0.14349 -4.343,-0.0116 z m 4.6973,-5.5914 c 5.255,-0.45183 10.294,-2.4754 14.259,-5.7259 1.2434,-1.0193 3.4247,-3.291 4.3482,-4.5285 2.8062,-3.7602 4.5613,-8.3008 5.0409,-13.041 0.47303,-4.6762 -0.40619,-9.5046 -2.5151,-13.812 -3.6248,-7.4042 -10.561,-12.653 -18.668,-14.128 -1.9317,-0.35149 -6.1148,-0.42153 -8.0938,-0.13553 -3.9295,0.56791 -7.6631,1.9834 -10.813,4.0994 -3.1367,2.1069 -6.0387,5.1844 -7.9487,8.4307 -5.2061,8.8463 -4.6152,20.122 1.4894,28.417 4.7416,6.4427 12.378,10.37 20.502,10.546 0.43978,0.009 1.5192,-0.0447 2.3988,-0.1203 z m -14.286,-29.445 6.6668,-17.991 11.084,0.004 6.5968,17.811 c 3.6282,9.7957 6.6159,17.891 6.6396,17.989 0.0354,0.14662 -0.77911,0.17857 -4.5534,0.17857 h -4.5964 l -0.2096,-0.5664 c -0.11528,-0.31151 -0.62155,-1.7658 -1.1251,-3.2318 l -0.9155,-2.6654 h -14.748 l -2.2548,6.4633 h -9.2507 z m 17.154,4.6977 c 0.006,-0.19814 -4.869,-14.293 -4.9439,-14.293 -0.0422,0 -0.77367,2.024 -1.6254,4.4978 -0.85179,2.4738 -1.9697,5.7123 -2.4841,7.1967 l -0.9354,2.6987 h 4.9929 c 2.746,0 4.9943,-0.045 4.996,-0.1 z"
         inkscape:connector-curvature="0"
         style="fill:#b2c8e0;stroke-width:0.13327" />
      <path
         id="path9"
         sodipodi:nodetypes="ccccccccccccc"
         inkscape:connector-curvature="0"
         style="font-variant-ligatures:normal;font-variant-caps:normal;font-variant-numeric:normal;font-feature-settings:normal;fill:#b2c8e0;stroke-width:1.14719999"
         d="m -103.18,174.94 -9.2378,0.10605 -2.2502,-6.4636 h -14.748 l -2.2548,6.4633 h -9.2507 l 13.333,-35.982 11.084,0.004 z m -13.904,-13.238 -5.0038,-14.365 -4.985,14.465 z" />
    </g>
  </g>
</svg>
