<?xml version="1.0" encoding="UTF-8" standalone="no"?>
<!-- Created with Inkscape (http://www.inkscape.org/) -->

<svg
   version="1.1"
   id="svg2484"
   width="640"
   height="640"
   viewBox="0 0 640 640"
   sodipodi:docname="indicador_mantenimiento_315_verde.svg"
   inkscape:version="1.1 (c68e22c387, 2021-05-23)"
   xmlns:inkscape="http://www.inkscape.org/namespaces/inkscape"
   xmlns:sodipodi="http://sodipodi.sourceforge.net/DTD/sodipodi-0.dtd"
   xmlns="http://www.w3.org/2000/svg"
   xmlns:svg="http://www.w3.org/2000/svg">
  <defs
     id="defs2488" />
  <sodipodi:namedview
     id="namedview2486"
     pagecolor="#ffffff"
     bordercolor="#666666"
     borderopacity="1.0"
     inkscape:pageshadow="2"
     inkscape:pageopacity="0.0"
     inkscape:pagecheckerboard="0"
     showgrid="false"
     inkscape:zoom="1.1765625"
     inkscape:cx="320"
     inkscape:cy="320"
     inkscape:window-width="1920"
     inkscape:window-height="1017"
     inkscape:window-x="-8"
     inkscape:window-y="-8"
     inkscape:window-maximized="1"
     inkscape:current-layer="g2490" />
  <g
     inkscape:groupmode="layer"
     inkscape:label="Image"
     id="g2490">
    <ellipse
       style="fill:#ffffff;stroke:none;stroke-width:0;stroke-linecap:round;stroke-linejoin:round"
       id="path2120"
       cx="263.47943"
       cy="265.17926"
       rx="213.7583"
       ry="222.6826" />
    <g
       id="g2785">
      <path
         style="fill:#00ff00;stroke-width:0;stroke-linecap:round;stroke-linejoin:round"
         d="m 508.68526,553.19932 c -1.16866,-0.21352 -2.88978,-0.7378 -3.8247,-1.16506 -0.93493,-0.42725 -7.81939,-1.77707 -15.29881,-2.9996 -7.47941,-1.22252 -14.36387,-2.56692 -15.2988,-2.98756 -0.93493,-0.42063 -6.48075,-1.56286 -12.32404,-2.53829 -5.84329,-0.97542 -11.20789,-2.08385 -11.92131,-2.46315 -0.71343,-0.3793 -7.21542,-1.71891 -14.44887,-2.9769 -7.23346,-1.258 -13.91667,-2.62614 -14.8516,-3.0403 -0.93493,-0.41417 -7.81939,-1.80871 -15.2988,-3.099 -7.47942,-1.29027 -13.79018,-2.56827 -14.02391,-2.83999 -0.23373,-0.27171 -5.77955,-1.52088 -12.32403,-2.77593 -11.11849,-2.13222 -20.48396,-4.02738 -55.67066,-11.26533 -7.71314,-1.5866 -19.61437,-3.99573 -26.44717,-5.35362 -6.83279,-1.35789 -12.78011,-2.68943 -13.21625,-2.95898 -0.43615,-0.26955 -6.51101,-1.48424 -13.49971,-2.69929 -6.9887,-1.21506 -13.47166,-2.55525 -14.40659,-2.9782 -0.93492,-0.42295 -7.62815,-1.77857 -14.87383,-3.0125 -7.24569,-1.23392 -13.93892,-2.5679 -14.87384,-2.96439 -0.93493,-0.39649 -6.64874,-1.55568 -12.69737,-2.57598 -6.04862,-1.0203 -11.59444,-2.1921 -12.32404,-2.60399 -0.72959,-0.4119 -5.33836,-1.73845 -10.24169,-2.94789 -4.90334,-1.20943 -9.11051,-2.467 -9.34927,-2.79457 -0.23876,-0.32758 -3.68511,-1.70306 -7.65855,-3.05662 -3.97344,-1.35356 -7.41567,-2.68476 -7.6494,-2.95823 -0.23373,-0.27346 -2.71979,-1.4112 -5.52457,-2.5283 -2.80478,-1.11711 -5.67331,-2.49377 -6.3745,-3.05925 -0.7012,-0.56548 -3.37849,-2.03937 -5.94954,-3.27532 -5.34356,-2.56874 -8.62757,-4.51798 -15.4339,-9.16086 -2.64535,-1.8045 -5.22702,-3.28091 -5.73705,-3.28091 -0.51003,0 -0.92732,-0.35128 -0.92732,-0.78061 0,-0.42934 -1.43426,-1.65014 -3.18725,-2.7129 -8.63347,-5.23406 -28.438881,-23.66113 -39.18009,-36.45337 -2.943848,-3.50598 -6.026476,-7.13944 -6.850282,-8.07437 -0.823808,-0.93493 -2.21188,-2.84728 -3.084606,-4.24967 -0.872726,-1.40239 -2.086729,-3.1235 -2.697785,-3.8247 -2.770981,-3.17974 -9.824631,-14.56112 -13.958856,-22.52324 -1.456345,-2.80478 -2.982592,-5.22709 -3.391661,-5.38291 -0.409068,-0.15583 -0.74376,-0.64479 -0.74376,-1.0866 0,-0.44181 -1.309422,-3.56531 -2.909828,-6.94112 -1.600405,-3.37581 -3.754861,-8.43266 -4.787681,-11.23744 -1.032819,-2.80478 -2.156737,-5.48207 -2.497597,-5.94954 -1.33661,-1.83306 -7.637795,-22.63994 -9.781016,-32.29747 -4.549676,-20.50124 -4.959298,-24.72316 -5.030233,-51.84595 -0.06335,-24.22161 0.834724,-37.84238 2.886034,-43.77158 0.404318,-1.16866 1.786083,-7.09695 3.070589,-13.17398 1.284506,-6.07702 2.577976,-11.24037 2.874379,-11.4741 0.296402,-0.23373 1.612022,-4.05843 2.9236,-8.49934 1.311576,-4.4409 2.697521,-8.46147 3.079875,-8.93462 0.382355,-0.47314 1.510938,-3.04054 2.507964,-5.70533 1.958442,-5.23441 13.410413,-28.00921 14.434714,-28.70666 0.343269,-0.23373 1.109801,-1.38114 1.703405,-2.5498 1.533947,-3.01996 8.654422,-13.66102 10.508942,-15.7049 0.85773,-0.94531 2.11058,-2.77053 2.784111,-4.05606 0.673531,-1.28552 1.535858,-2.33731 1.916282,-2.33731 0.380424,0 1.100533,-0.86056 1.600242,-1.91235 0.803034,-1.69024 7.568904,-9.49046 17.140546,-19.76096 5.060812,-5.430316 22.781652,-20.890322 27.765442,-24.223107 1.04855,-0.701196 5.47763,-3.660266 9.84241,-6.575711 4.36477,-2.915446 8.37501,-5.666986 8.91166,-6.114534 1.84999,-1.542849 25.52308,-13.435313 28.84377,-14.490015 1.83036,-0.581349 4.11376,-1.547935 5.07423,-2.147966 0.96046,-0.600031 5.35886,-2.163253 9.77423,-3.473826 4.41537,-1.310574 8.21918,-2.619456 8.45291,-2.908627 0.23373,-0.289173 3.29349,-1.173287 6.79947,-1.9647 30.3074,-6.841367 30.61203,-6.875516 61.19522,-6.859963 28.91378,0.0147 31.80839,0.297797 54.82071,5.361457 6.54449,1.440058 12.66401,3.005716 13.59894,3.47924 0.93493,0.473524 4.75963,1.777974 8.49934,2.898778 7.24114,2.170196 15.67118,5.548184 25.74292,10.315399 3.40694,1.612597 6.53045,2.931995 6.94112,2.931995 0.41067,0 0.87416,0.298978 1.02999,0.664396 0.15582,0.365417 2.57813,1.79968 5.38291,3.187251 2.80478,1.38757 5.84104,3.192178 6.74725,4.010239 0.90621,0.818061 1.96258,1.487384 2.34751,1.487384 0.81567,0 12.59847,7.640982 13.85345,8.983772 0.46746,0.500172 1.99734,1.608216 3.39973,2.462322 1.40239,0.854104 3.12351,2.064764 3.8247,2.690357 0.7012,0.625593 3.9522,3.337321 7.22444,6.026062 7.47626,6.143101 20.593,19.195647 27.22793,27.094687 7.1699,8.53593 7.72883,9.24807 10.2573,13.06885 1.24442,1.88044 2.59421,3.41897 2.99956,3.41897 0.40535,0 0.73699,0.40345 0.73699,0.89657 0,0.49311 1.4746,3.07479 3.27689,5.73705 1.80229,2.66226 3.95924,6.17913 4.79323,7.81525 0.83399,1.63612 1.7762,3.166 2.0938,3.39974 0.31761,0.23373 1.47057,2.33731 2.56214,4.67463 1.09157,2.33732 2.44244,4.82337 3.00193,5.52457 0.55948,0.70119 1.93124,3.56972 3.04835,6.3745 1.1171,2.80478 2.25484,5.29084 2.5283,5.52457 0.27347,0.23373 1.60467,3.67596 2.95823,7.6494 1.35356,3.97344 2.69456,7.41567 2.97999,7.6494 0.28543,0.23374 1.59651,4.44091 2.9135,9.34927 1.317,4.90837 2.67071,9.30678 3.00827,9.77424 0.33755,0.46746 1.44593,5.43957 2.46306,11.04914 1.01712,5.60956 2.19964,10.96414 2.6278,11.89907 0.42817,0.93492 1.75918,7.05445 2.9578,13.59893 1.19862,6.54449 2.52201,12.66401 2.94087,13.59894 0.41886,0.93493 1.80419,7.43692 3.0785,14.44887 1.27431,7.01196 2.61595,13.32271 2.98143,14.02391 0.36548,0.70119 1.62582,6.43824 2.80073,12.749 1.17491,6.31076 3.49615,18.07171 5.15831,26.13546 7.88661,38.26102 9.20616,44.77931 11.31292,55.88313 1.2417,6.54449 2.48667,12.09031 2.76659,12.32404 0.27994,0.23373 1.58444,6.73572 2.8989,14.44887 1.31447,7.71315 2.62693,14.40638 2.91659,14.87384 0.52056,0.84011 4.1505,18.96159 8.25719,41.22178 1.16424,6.31076 2.46254,12.23904 2.8851,13.17397 0.42257,0.93493 1.76201,7.62815 2.97654,14.87384 1.21453,7.24568 2.55382,13.93891 2.97619,14.87384 1.2035,2.66393 2.57921,12.36052 2.57921,18.1793 0,5.02794 -1.40118,12.77988 -2.47508,13.69321 -0.27483,0.23373 -1.17232,1.87916 -1.99444,3.6565 -2.42206,5.23632 -8.72686,11.26521 -15.36324,14.69094 -5.73876,2.96238 -6.60522,3.15716 -15.01451,3.37523 -4.90837,0.12727 -9.88048,0.0567 -11.04914,-0.15682 z M 283.82721,441.11691 c 4.6468,-0.70582 9.61891,-1.6649 11.04914,-2.13129 1.43022,-0.46639 6.23388,-1.76996 10.67478,-2.89682 8.19063,-2.07833 16.52191,-4.96276 24.21819,-8.38474 6.88411,-3.06085 20.24046,-10.07693 22.4303,-11.78261 1.11483,-0.86835 2.38493,-1.57882 2.82245,-1.57882 1.14532,0 14.18463,-9.31722 21.46832,-15.34015 4.95546,-4.09771 24.05298,-23.4756 26.04631,-26.4287 1.11743,-1.65546 3.94404,-5.58039 6.28136,-8.72207 2.33732,-3.14168 5.09076,-7.12223 6.11876,-8.84567 3.99046,-6.69002 11.13904,-20.23562 11.74595,-22.25704 0.35089,-1.16865 0.90933,-2.31607 1.24098,-2.5498 1.02422,-0.7218 6.04638,-15.29585 8.20073,-23.79814 1.12526,-4.4409 2.43712,-9.29147 2.91523,-10.77905 3.62258,-11.27108 4.8364,-48.80383 2.20188,-68.08473 -0.78489,-5.74428 -1.75813,-11.09886 -2.16275,-11.89907 -0.40462,-0.80022 -1.70927,-5.47088 -2.89921,-10.37925 -2.12603,-8.76963 -6.75952,-22.43522 -8.19969,-24.18344 -0.40306,-0.48928 -1.76466,-3.47127 -3.02579,-6.62665 -1.26112,-3.15538 -2.63475,-5.73705 -3.0525,-5.73705 -0.41775,0 -0.75955,-0.49883 -0.75955,-1.1085 0,-0.60968 -1.20377,-3.00011 -2.67504,-5.31209 -1.47127,-2.31197 -3.42981,-5.54223 -4.35231,-7.17835 -2.78106,-4.93238 -12.82219,-17.8457 -19.45642,-25.02179 -8.10874,-8.77102 -22.19739,-20.78437 -32.72039,-27.90058 -8.15327,-5.513674 -32.65023,-18.472051 -34.92019,-18.472051 -0.62476,0 -2.60914,-0.75157 -4.40971,-1.670157 -1.80059,-0.918586 -6.47061,-2.469884 -10.37783,-3.447326 -3.90723,-0.977442 -7.86899,-2.131581 -8.80392,-2.564753 -4.97036,-2.302877 -33.43859,-5.918477 -46.54898,-5.911941 -12.34761,0.0061 -41.05357,3.703263 -46.09378,5.936526 -0.93492,0.414256 -5.30674,1.759652 -9.71515,2.98977 -4.40841,1.230119 -8.79629,2.783622 -9.75087,3.45223 -0.95457,0.668609 -2.24845,1.215651 -2.87528,1.215651 -1.42964,0 -19.14736,8.417886 -19.74771,9.382348 -0.24325,0.390781 -1.50029,1.11277 -2.79343,1.604421 -2.0541,0.780969 -13.11057,7.646602 -15.46284,9.601822 -0.46747,0.38856 -3.69821,2.83193 -7.17943,5.42973 -3.48122,2.59779 -7.26242,5.55142 -8.40267,6.56362 -5.7969,5.14596 -19.40647,19.23434 -22.52181,23.31419 -6.7295,8.81293 -14.080978,19.61483 -16.42615,24.13578 -1.294274,2.49507 -2.845325,5.04189 -3.446778,5.65961 -0.601452,0.61772 -1.09355,1.45949 -1.09355,1.87061 0,0.41111 -1.721116,4.35724 -3.824701,8.76917 -2.103586,4.41192 -3.824702,8.46763 -3.824702,9.01267 0,0.54505 -0.746225,2.62905 -1.658278,4.63114 -0.912052,2.00208 -2.46335,6.85759 -3.447325,10.79002 -0.983976,3.93244 -2.139649,7.91482 -2.56816,8.84974 -1.408489,3.07305 -3.359337,16.76055 -4.381828,30.74372 -0.7648,10.45908 -0.771599,17.06274 -0.02844,27.62284 0.977742,13.89346 2.930231,27.68407 4.371521,30.87647 0.422096,0.93493 1.581136,5.0964 2.575646,9.24771 0.994509,4.15132 2.347634,8.591 3.006944,9.86596 0.659311,1.27497 2.031252,4.7629 3.048756,7.75096 1.017506,2.98807 2.322085,6.00655 2.899065,6.70775 0.576981,0.70119 1.742293,3.1315 2.589583,5.40068 0.84729,2.26918 1.951428,4.57722 2.453639,5.12897 0.502212,0.55176 2.040069,3.09356 3.41746,5.64846 1.377391,2.55489 2.811415,5.02773 3.186718,5.4952 0.375304,0.46746 2.04919,2.93783 3.71974,5.48972 5.13033,7.83694 10.57239,14.29831 20.76184,24.65056 13.27431,13.48642 23.09603,21.11138 38.72144,30.06089 2.31011,1.32312 4.77391,2.76718 5.47511,3.20901 0.70119,0.44182 3.37848,1.76981 5.94953,2.95108 2.57105,1.18127 6.20452,2.8939 8.07437,3.80586 5.80071,2.82911 14.93509,5.97481 23.79814,8.19564 4.67464,1.17132 9.08574,2.42452 9.80246,2.78488 1.81707,0.91361 11.63369,2.48477 21.22012,3.39629 10.80001,1.02691 36.64739,0.34176 47.1207,-1.24907 z"
         id="path2625" />
      <path
         style="fill:#00ff00;stroke-width:0;stroke-linecap:round;stroke-linejoin:round"
         d="m 160.63745,383.09877 c -1.86985,-0.13714 -4.16467,-0.58064 -5.0996,-0.98555 -12.10389,-5.24212 -17.50665,-10.03132 -21.9156,-19.42672 -2.38571,-5.08393 -2.68224,-6.56012 -2.6877,-13.3801 -0.006,-7.2098 0.18972,-8.05682 3.287,-14.2415 2.90402,-5.79875 4.70518,-7.9059 15.24275,-17.83229 6.57228,-6.19108 13.335,-12.59516 15.02826,-14.23128 1.69326,-1.63612 8.18073,-7.75565 14.41661,-13.59894 10.56099,-9.89611 15.60699,-14.66273 35.1651,-33.21805 4.14723,-3.93459 7.97193,-7.54638 8.49934,-8.02621 0.52741,-0.47982 7.83101,-7.36428 16.23021,-15.2988 8.39921,-7.93452 16.56989,-15.61621 18.15708,-17.07043 2.8628,-2.62296 2.87533,-2.66699 1.57311,-5.52457 -2.13227,-4.67904 -3.39187,-12.50568 -3.47287,-21.57907 -0.0762,-8.5361 1.70975,-21.67331 2.9464,-21.67331 0.3642,0 0.92295,-1.18729 1.24167,-2.63843 0.64538,-2.93838 3.73786,-10.3002 4.60419,-10.96051 0.30666,-0.23373 1.55326,-2.14608 2.77022,-4.24966 4.85623,-8.39431 19.77499,-21.11901 29.04382,-24.77244 2.39518,-0.94409 4.7383,-2.0256 5.20693,-2.40334 1.99097,-1.60484 14.99198,-3.72157 23.23038,-3.78219 7.75285,-0.0571 8.92057,0.1283 9.98672,1.58522 2.84841,3.89239 1.98552,5.12795 -16.64127,23.82837 -9.81673,9.85554 -17.85088,18.29022 -17.85367,18.74372 -0.006,0.93087 5.59064,18.79711 9.70909,30.99605 l 2.72557,8.07322 9.29649,2.84609 c 5.11307,1.56535 13.12119,3.96619 17.79583,5.33519 4.67463,1.36901 9.20626,2.88842 10.0703,3.37648 1.35696,0.7665 4.0681,-1.61012 19.90127,-17.44559 15.1826,-15.18481 18.7407,-18.33297 20.72019,-18.33297 4.28505,0 5.21154,2.74472 4.80147,14.22437 -0.30141,8.4376 -0.77577,11.20617 -3.03816,17.73212 -8.16968,23.56566 -25.72652,40.31222 -48.63037,46.38603 -9.40357,2.49371 -25.47188,2.66602 -34.42231,0.36913 -3.27225,-0.83974 -6.71448,-1.70668 -7.64941,-1.92654 -1.31285,-0.30874 -3.90349,1.98305 -11.37892,10.06627 -5.32347,5.75631 -12.16907,13.1433 -15.21244,16.41555 -11.75421,12.63819 -16.24682,17.46706 -26.10452,28.0584 -5.60956,6.02705 -12.33487,13.27114 -14.94515,16.098 -9.29337,10.06453 -31.78047,34.1819 -40.22211,43.13818 -8.61417,9.13931 -8.85965,9.31035 -20.47683,14.26682 -2.13389,0.91043 -7.46179,1.38473 -11.89907,1.05928 z m 8.34273,-20.70865 c 7.5342,-3.88179 9.54603,-14.32022 4.03303,-20.9255 -1.57046,-1.88161 -8.46752,-5.31588 -10.67589,-5.31588 -0.62369,0 -2.86846,0.74349 -4.98838,1.65219 -10.05106,4.30838 -11.32528,17.53274 -2.2769,23.63044 3.17504,2.13966 10.61999,2.65288 13.90814,0.95875 z"
         id="path2664" />
    </g>
  </g>
</svg>
