<?xml version="1.0" encoding="UTF-8" standalone="no"?>
<!-- Created with Inkscape (http://www.inkscape.org/) -->

<svg
   version="1.1"
   id="svg1283"
   width="640"
   height="640"
   viewBox="0 0 640 640"
   sodipodi:docname="indicador_mantenimiento_izquierda.svg"
   inkscape:version="1.1 (c68e22c387, 2021-05-23)"
   xmlns:inkscape="http://www.inkscape.org/namespaces/inkscape"
   xmlns:sodipodi="http://sodipodi.sourceforge.net/DTD/sodipodi-0.dtd"
   xmlns="http://www.w3.org/2000/svg"
   xmlns:svg="http://www.w3.org/2000/svg">
  <defs
     id="defs1287" />
  <sodipodi:namedview
     id="namedview1285"
     pagecolor="#ffffff"
     bordercolor="#666666"
     borderopacity="1.0"
     inkscape:pageshadow="2"
     inkscape:pageopacity="0.0"
     inkscape:pagecheckerboard="0"
     showgrid="false"
     inkscape:zoom="1.1765625"
     inkscape:cx="291.10226"
     inkscape:cy="387.99469"
     inkscape:window-width="1920"
     inkscape:window-height="1017"
     inkscape:window-x="-8"
     inkscape:window-y="-8"
     inkscape:window-maximized="1"
     inkscape:current-layer="g1289" />
  <g
     inkscape:groupmode="layer"
     inkscape:label="Image"
     id="g1289">
    <ellipse
       style="opacity:1;fill:#ffffff;stroke:none;stroke-width:0;stroke-linecap:round;stroke-linejoin:round"
       id="path2120"
       cx="409.24301"
       cy="323.82471"
       rx="213.7583"
       ry="222.6826" />
    <g
       id="g2376">
      <path
         style="fill:#00ff00;stroke:none;stroke-width:0;stroke-linecap:round;stroke-linejoin:round"
         d="m 382.04515,555.75912 c -9.74801,-0.88449 -25.93159,-3.12005 -27.13578,-3.74848 -0.73535,-0.38374 -5.92663,-1.72783 -11.5362,-2.98684 -5.60956,-1.25903 -10.58167,-2.59005 -11.04913,-2.95783 -0.46747,-0.36779 -3.71846,-1.52376 -7.22444,-2.56885 -3.50597,-1.04508 -6.78712,-2.22208 -7.29143,-2.61556 -0.50431,-0.39348 -3.37284,-1.65726 -6.37451,-2.8084 -6.62826,-2.54196 -24.26574,-11.49471 -30.10564,-15.28157 -2.33732,-1.51562 -6.73572,-4.34696 -9.77424,-6.29186 -3.03851,-1.9449 -6.09827,-3.93153 -6.79946,-4.41474 -0.7012,-0.4832 -3.76096,-2.45554 -6.79947,-4.38296 -11.73472,-7.44372 -19.15775,-12.21445 -19.97344,-12.83681 -0.46747,-0.35667 -4.10093,-2.74323 -8.07437,-5.30347 -3.97344,-2.56023 -7.61289,-4.97321 -8.08766,-5.36218 -0.47478,-0.38896 -2.7696,-1.81472 -5.09961,-3.16838 -2.33,-1.35365 -4.75069,-2.96109 -5.37931,-3.57211 -0.62862,-0.61101 -2.34973,-1.72908 -3.8247,-2.4846 -1.47497,-0.75553 -2.873,-1.61075 -3.10673,-1.9005 -0.83086,-1.02998 -7.62741,-5.18553 -8.48111,-5.18553 -0.47749,0 -0.86816,-0.3747 -0.86816,-0.83267 0,-0.45796 -1.43426,-1.57582 -3.18725,-2.48414 -1.75299,-0.90832 -3.95219,-2.26963 -4.88712,-3.02514 -0.93493,-0.75553 -4.95086,-3.4541 -8.9243,-5.99685 -3.97344,-2.54275 -7.60691,-4.91829 -8.07437,-5.27898 -2.58546,-1.99491 -8.15845,-5.33043 -8.90608,-5.33043 -0.47748,0 -0.86816,-0.37265 -0.86816,-0.82811 0,-0.45546 -1.24302,-1.46697 -2.76228,-2.24779 -1.51926,-0.78083 -3.71846,-2.16469 -4.88712,-3.07525 -1.16866,-0.91055 -7.09694,-4.84981 -13.17397,-8.7539 -6.07703,-3.90408 -12.19655,-7.89202 -13.59894,-8.86209 -7.5075,-5.19309 -14.02776,-9.38199 -14.62378,-9.39496 -0.37126,-0.008 -1.57572,-0.96425 -2.67658,-2.12483 -1.10086,-1.16058 -2.34017,-2.11015 -2.75402,-2.11015 -0.63126,0 -6.977398,-4.05297 -13.942961,-8.90468 -0.934927,-0.6512 -6.671979,-4.47198 -12.749004,-8.49063 -6.077026,-4.01865 -11.640447,-7.70518 -12.363159,-8.19231 -0.722713,-0.48713 -2.870715,-1.90927 -4.773337,-3.16032 -1.902623,-1.25105 -4.562309,-3.01013 -5.910413,-3.90907 -1.348105,-0.89895 -5.12839,-3.385 -8.400634,-5.52457 -3.272245,-2.13958 -6.149502,-4.15459 -6.393905,-4.47781 -0.244402,-0.32323 -1.473198,-1.12145 -2.730655,-1.77383 C 32.877465,360.2076 18.409585,349.78502 14.496552,345.83836 8.7990949,340.09193 8.3902983,339.52166 6.2077239,334.27548 3.7907132,328.46579 3.557575,314.0401 5.7868806,308.23533 c 3.4756612,-9.05009 7.4164984,-13.26525 20.9856804,-22.44652 11.152694,-7.5462 17.953966,-12.10495 21.673654,-14.5274 3.371773,-2.19587 17.493842,-11.5671 19.962816,-13.24707 0.707038,-0.48109 4.345285,-2.89231 8.084993,-5.35827 3.739708,-2.46596 7.755644,-5.15363 8.924303,-5.9726 1.754713,-1.22966 7.861707,-5.22617 14.596263,-9.552 0.72777,-0.46746 3.47837,-2.28419 6.11247,-4.03718 2.63411,-1.75299 6.94444,-4.62151 9.57855,-6.3745 2.6341,-1.75299 5.407,-3.56972 6.16202,-4.03719 0.755,-0.46746 3.67439,-2.37981 6.48751,-4.24967 2.81313,-1.86985 5.73568,-3.7822 6.49456,-4.24966 0.75888,-0.46747 4.76798,-3.10501 8.90913,-5.86122 4.14114,-2.75622 11.54529,-7.62519 16.45365,-10.81995 4.90837,-3.19477 9.68925,-6.37989 10.62417,-7.07806 2.82061,-2.1063 10.86472,-7.38004 13.8624,-9.08822 1.54731,-0.8817 3.26842,-1.98364 3.8247,-2.44874 0.55629,-0.46511 4.26244,-2.92215 8.23588,-5.46008 3.97344,-2.53795 7.89376,-5.21081 8.71182,-5.93971 0.81806,-0.7289 1.72856,-1.32527 2.02332,-1.32527 0.29477,0 2.30274,-1.25615 4.46216,-2.79145 2.15941,-1.5353 5.36681,-3.62973 7.12754,-4.65428 1.76073,-1.02456 3.67308,-2.26663 4.24967,-2.76016 0.57658,-0.49353 3.55888,-2.51066 6.62734,-4.4825 3.06844,-1.97185 6.31944,-4.06592 7.22443,-4.65349 0.90499,-0.58757 3.36655,-2.17907 5.47013,-3.53667 2.10359,-1.3576 4.97211,-3.28028 6.3745,-4.27264 1.40239,-0.99235 5.60957,-3.79926 9.34927,-6.23757 3.73971,-2.43831 7.28406,-4.89056 7.87634,-5.44944 0.59227,-0.55888 2.60023,-1.87234 4.46215,-2.91879 1.86191,-1.04645 3.38529,-2.21468 3.38529,-2.59607 0,-0.38138 0.37504,-0.69342 0.83342,-0.69342 0.45839,0 3.04006,-1.42057 5.73706,-3.15683 5.57213,-3.58719 7.44885,-4.63376 19.53381,-10.89317 4.77435,-2.47288 10.12894,-4.95553 11.89907,-5.517 1.77013,-0.56147 4.02256,-1.5238 5.00542,-2.138498 0.98285,-0.6147 4.61632,-1.963752 8.07437,-2.99789 3.45805,-1.034139 6.66983,-2.17651 7.1373,-2.538602 0.88043,-0.681975 12.737,-3.654488 18.69854,-4.687838 1.86985,-0.324113 3.7822,-0.882098 4.24966,-1.239966 0.46747,-0.357868 5.82205,-1.352397 11.89907,-2.210064 15.38368,-2.17114 48.78321,-2.185888 65.3443,-0.02885 6.48916,0.845194 12.41745,1.869918 13.17397,2.277165 0.75652,0.407247 6.15637,1.761372 11.99966,3.009168 5.8433,1.247795 10.81541,2.53028 11.04914,2.849966 0.23373,0.319686 2.91102,1.299173 5.94954,2.176637 3.03851,0.877463 6.86321,2.230596 8.49933,3.006962 1.63612,0.776365 5.46082,2.31065 8.49934,3.40952 3.03851,1.09888 5.7158,2.26604 5.94953,2.59369 0.23373,0.32765 2.91102,1.63788 5.94954,2.91163 3.03851,1.27374 5.7158,2.59057 5.94953,2.92627 0.23373,0.3357 2.33732,1.53573 4.67464,2.66675 2.33731,1.13101 4.9911,2.7257 5.89731,3.54376 0.90621,0.81806 2.05362,1.49058 2.5498,1.49448 0.49619,0.004 3.96192,2.12493 7.70163,4.71339 3.7397,2.58847 7.75564,5.35431 8.9243,6.14631 1.16866,0.792 4.93937,3.7387 8.37936,6.54823 3.43999,2.80952 7.17065,5.81059 8.29035,6.66904 2.79405,2.14214 19.5954,19.11947 23.40349,23.64863 1.70561,2.02856 4.48586,5.40941 6.17835,7.51299 1.69249,2.10359 4.21731,5.23324 5.61073,6.95479 1.3934,1.72155 2.53347,3.48243 2.53347,3.91307 0,0.43065 0.86056,1.7409 1.91235,2.91167 2.00317,2.22978 3.55916,4.62883 5.52226,8.51433 0.64481,1.27624 1.50593,2.52657 1.91361,2.77854 0.40769,0.25196 1.73388,2.45877 2.9471,4.90401 1.21322,2.44524 3.73902,7.31443 5.61291,10.8204 1.87388,3.50598 4.41759,9.0518 5.65268,12.32404 1.23508,3.27225 2.47363,6.14077 2.75232,6.3745 0.86248,0.72334 8.37949,24.78267 9.42703,30.17265 0.54511,2.80478 1.28923,5.48207 1.6536,5.94953 1.94536,2.4958 5.0855,34.71227 5.09484,52.27092 0.009,17.28454 -2.8595,45.73959 -5.09833,50.57105 -0.43323,0.93492 -1.61106,5.33333 -2.6174,9.77423 -1.00635,4.44091 -2.12172,8.45684 -2.47861,8.92431 -0.35688,0.46746 -1.68754,4.29216 -2.95702,8.49933 -1.26947,4.20717 -2.61766,8.03187 -2.996,8.49934 -0.37833,0.46746 -1.73148,3.46104 -3.007,6.65239 -2.20613,5.51973 -12.83844,26.02159 -13.96076,26.91998 -0.29199,0.23374 -1.62683,2.33732 -2.96631,4.67464 -1.33948,2.33732 -2.6982,4.4409 -3.01938,4.67463 -0.32119,0.23374 -1.59377,1.95485 -2.82795,3.82471 -6.01478,9.11272 -16.26393,21.1941 -27.13034,31.98041 -5.10312,5.06551 -10.15093,9.88638 -11.21737,10.71307 -1.06644,0.82669 -4.74694,3.79788 -8.17888,6.60266 -3.43195,2.80479 -7.08855,5.67331 -8.12578,6.37451 -17.99557,12.16554 -20.08192,13.48426 -25.37636,16.03971 -2.33732,1.12815 -4.44091,2.33614 -4.67464,2.68443 -0.23373,0.34829 -2.91102,1.67542 -5.94953,2.94916 -3.03852,1.27375 -5.71581,2.58399 -5.94954,2.91164 -0.23373,0.32765 -2.91102,1.48618 -5.94953,2.57452 -3.03852,1.08834 -6.28951,2.44145 -7.22444,3.00691 -0.93493,0.56547 -4.75963,1.92309 -8.49933,3.01695 -3.73971,1.09387 -6.99071,2.26128 -7.22444,2.59425 -0.23373,0.33297 -5.20584,1.63004 -11.04914,2.88238 -5.84329,1.25233 -11.38911,2.62394 -12.32403,3.04801 -5.35506,2.42897 -49.06392,4.95957 -63.32006,3.66603 z m 57.15045,-51.36526 c 6.42345,-0.93194 12.7342,-2.10376 14.0239,-2.60406 1.2897,-0.50029 5.40467,-1.68364 9.14438,-2.62967 3.73971,-0.94602 7.75564,-2.22726 8.9243,-2.84718 1.16866,-0.61994 4.38227,-1.93089 7.14134,-2.91324 5.15485,-1.83534 16.80374,-7.26329 21.33144,-9.93966 4.48925,-2.65364 16.11922,-9.93005 16.99867,-10.6354 0.46746,-0.37492 2.94439,-2.21353 5.50428,-4.08578 12.64679,-9.24965 34.29308,-31.78329 39.02478,-40.62455 0.51219,-0.95704 1.42879,-2.24798 2.03689,-2.86876 3.18991,-3.25643 16.69557,-28.63267 16.73448,-31.443 0.0108,-0.7791 0.32491,-1.54404 0.69805,-1.69986 2.15512,-0.89998 9.37783,-26.50179 12.66843,-44.90482 1.79541,-10.04109 1.79467,-44.36142 -8.5e-4,-54.39576 -1.92101,-10.73362 -5.72272,-27.35903 -6.65411,-29.09935 -0.44861,-0.83824 -1.80073,-4.48241 -3.00472,-8.09815 -1.20398,-3.61574 -2.48796,-6.95655 -2.85329,-7.42401 -0.36533,-0.46746 -1.66237,-3.3158 -2.8823,-6.32963 -1.21993,-3.01384 -2.50105,-5.69113 -2.84694,-5.94954 -0.34622,-0.25841 -1.68554,-2.57342 -2.97661,-5.14447 -9.47584,-18.87038 -24.89127,-37.6724 -44.52765,-54.30985 -8.75579,-7.41858 -10.65521,-8.8464 -18.99481,-14.27865 -9.33506,-6.08068 -25.25891,-14.26778 -31.87251,-16.38696 -1.86985,-0.59915 -3.78221,-1.38312 -4.24967,-1.74217 -1.0842,-0.83273 -17.95118,-5.78515 -24.64807,-7.23706 -2.80478,-0.60809 -9.11554,-1.52359 -14.02391,-2.03445 -4.90836,-0.51086 -12.2525,-1.33452 -16.3203,-1.83036 -5.09049,-0.6205 -9.32961,-0.63235 -13.59894,-0.038 -3.41162,0.47494 -9.64517,1.10486 -13.85234,1.39982 -12.12955,0.8504 -34.7741,5.84349 -42.49668,9.37046 -1.40239,0.64048 -5.03585,1.99661 -8.07437,3.01362 -3.03851,1.017 -6.09827,2.30934 -6.79947,2.87186 -0.70119,0.56252 -3.37848,1.89397 -5.94953,2.95879 -2.57105,1.06482 -5.27845,2.46764 -6.01646,3.11738 -0.73801,0.64975 -1.69418,1.18393 -2.12483,1.18708 -1.23924,0.009 -19.34437,11.82893 -22.7743,14.86812 -0.52756,0.46746 -2.87104,2.37181 -5.20773,4.23188 -9.17188,7.3011 -22.9378,22.07841 -30.797,33.05967 -1.04522,1.46043 -2.5751,3.56904 -3.39974,4.68579 -1.88509,2.55288 -4.50145,6.83977 -7.83851,12.84337 -1.42909,2.57105 -2.97131,5.24834 -3.42713,5.94954 -1.41864,2.18232 -7.35752,15.55047 -8.49573,19.12351 -0.59565,1.86985 -1.39425,3.79563 -1.77466,4.27951 -0.38041,0.48388 -1.50182,3.92611 -2.49201,7.64941 -0.99019,3.72328 -2.53085,9.25567 -3.42369,12.29418 -2.94714,10.02973 -5.19895,29.62556 -5.17643,45.04648 0.023,15.7039 2.83996,40.38792 5.18936,45.47145 0.43208,0.93493 1.61541,4.95086 2.62961,8.9243 1.0142,3.97344 2.31303,7.98938 2.8863,8.92431 0.57328,0.93492 1.52435,3.22974 2.11351,5.0996 1.19795,3.80204 8.40595,19.3125 9.28202,19.97344 0.30981,0.23373 1.03715,1.50256 1.61631,2.81962 0.95723,2.17681 8.02621,13.40809 9.72674,15.45395 0.38856,0.46746 2.80622,3.66428 5.3726,7.10402 11.46061,15.36086 31.4048,33.85255 46.42295,43.04206 1.52792,0.93493 3.93826,2.42637 5.35631,3.31431 5.88614,3.68574 21.60438,11.49774 25.95145,12.89792 2.57105,0.82813 4.87507,1.80032 5.12006,2.16042 0.71572,1.05204 18.31869,5.85993 28.02735,7.65508 19.46631,3.59938 43.88588,3.86104 65.64978,0.70345 z"
         id="path1387" />
      <path
         style="fill:#00ff00;stroke:none;stroke-width:0;stroke-linecap:round;stroke-linejoin:round"
         d="m 313.20053,441.80235 c -9.00479,-1.51119 -19.4184,-8.7629 -23.26468,-16.20079 -5.15372,-9.96619 -6.04685,-18.18612 -2.92228,-26.89544 2.61964,-7.30191 4.69671,-10.2949 11.85729,-17.08593 16.1177,-15.28589 25.18317,-23.85318 36.87364,-34.84728 6.95901,-6.54449 14.04544,-13.23772 15.74763,-14.87384 1.70218,-1.63612 8.19071,-7.75564 14.41895,-13.59894 6.22824,-5.84329 14.988,-14.09949 19.46613,-18.34712 4.47813,-4.24763 12.34922,-11.69369 17.49132,-16.54681 5.14209,-4.85312 9.47572,-9.11969 9.63027,-9.48128 0.15455,-0.36159 -0.55902,-3.05098 -1.58571,-5.97643 -2.38631,-6.79952 -3.15921,-21.17634 -1.69353,-31.50163 0.57694,-4.06436 1.36155,-7.38976 1.74359,-7.38976 0.38204,0 0.96017,-1.24302 1.28474,-2.76228 1.03523,-4.84577 6.23205,-14.53033 10.82176,-20.16695 14.26313,-17.51652 32.47685,-26.36691 54.26196,-26.36691 6.42227,0 7.81047,0.25496 9.25538,1.69986 0.93492,0.93493 1.69986,2.51368 1.69986,3.50834 0,1.22055 -5.80246,7.61184 -17.8486,19.65987 -9.81674,9.81827 -17.84447,18.27936 -17.83941,18.80242 0.0124,1.27981 2.3382,9.02929 3.34648,11.15022 0.44445,0.93493 1.6313,4.73155 2.63743,8.43693 1.00614,3.70539 2.1654,7.33885 2.57616,8.07437 0.41076,0.73552 1.35513,3.53651 2.09862,6.22443 0.8927,3.22734 1.79284,4.88712 2.65043,4.88712 0.71424,0 2.50383,0.5492 3.97687,1.22046 1.47304,0.67125 5.54678,2.02792 9.05275,3.01482 3.50598,0.9869 7.13945,2.16454 8.07437,2.61696 0.93493,0.45243 5.13392,1.76094 9.33111,2.9078 l 7.63124,2.0852 17.89215,-17.82169 c 18.7051,-18.63145 19.87418,-19.44389 23.75581,-16.50885 1.47784,1.11745 1.6566,2.26779 1.59207,10.24493 -0.0399,4.94237 -0.46975,9.81396 -0.95504,10.82573 -0.48529,1.01178 -1.51148,4.49543 -2.28041,7.74145 -1.47535,6.2281 -6.37497,16.01792 -11.26676,22.51184 -3.31938,4.40652 -13.81509,14.48296 -15.10256,14.49927 -0.46746,0.006 -1.95045,0.95722 -3.29552,2.11401 -1.34508,1.15677 -4.59143,2.90609 -7.21412,3.88737 -2.62268,0.98127 -5.18215,2.1274 -5.68769,2.54697 -1.45087,1.20411 -11.20929,3.19792 -18.64995,3.8105 -7.30077,0.60106 -18.28118,-0.55762 -25.83194,-2.72585 l -4.5836,-1.31621 -5.61561,5.93498 c -3.08857,3.26423 -9.63153,10.2736 -14.53989,15.57638 -4.90837,5.30278 -14.435,15.58344 -21.17028,22.84591 -6.73528,7.26246 -15.53209,16.77546 -19.54847,21.13999 -4.01638,4.36453 -9.59732,10.33414 -12.4021,13.2658 -2.80479,2.93166 -8.54184,9.08244 -12.74901,13.66842 -28.22598,30.76736 -30.61138,32.82958 -40.36688,34.89788 -5.46185,1.15798 -8.60873,1.30942 -12.75397,0.61376 z m 10.97286,-21.03707 c 8.73511,-5.51422 7.96559,-18.28935 -1.40371,-23.30365 -0.9944,-0.53219 -3.81744,-0.96761 -6.27343,-0.96761 -7.91032,0 -12.64633,4.98277 -12.64367,13.30243 0.002,5.65549 2.16226,9.45011 6.79815,11.94031 4.68396,2.51602 8.4237,2.24735 13.52266,-0.97148 z"
         id="path1426" />
    </g>
  </g>
</svg>
