<?xml version="1.0" encoding="UTF-8" standalone="no"?>
<svg
   xmlns:dc="http://purl.org/dc/elements/1.1/"
   xmlns:cc="http://creativecommons.org/ns#"
   xmlns:rdf="http://www.w3.org/1999/02/22-rdf-syntax-ns#"
   xmlns:svg="http://www.w3.org/2000/svg"
   xmlns="http://www.w3.org/2000/svg"
   xmlns:xlink="http://www.w3.org/1999/xlink"
   xmlns:sodipodi="http://sodipodi.sourceforge.net/DTD/sodipodi-0.dtd"
   xmlns:inkscape="http://www.inkscape.org/namespaces/inkscape"
   width="319.12061"
   height="319.12061"
   inkscape:version="0.92.5 (2060ec1f9f, 2020-04-08)"
   sodipodi:docname="indicador_manuallocal_0.svg"
   version="1.1"
   id="svg33">
  <metadata
     id="metadata2">
    <rdf:RDF>
      <cc:Work
         rdf:about="">
        <dc:format>image/svg+xml</dc:format>
        <dc:type
           rdf:resource="http://purl.org/dc/dcmitype/StillImage" />
        <dc:title></dc:title>
      </cc:Work>
    </rdf:RDF>
  </metadata>
  <sodipodi:namedview
     bordercolor="#666666"
     borderopacity="1"
     gridtolerance="10"
     guidetolerance="10"
     inkscape:current-layer="svg33"
     inkscape:cx="-171.96905"
     inkscape:cy="345.90466"
     inkscape:pageopacity="0"
     inkscape:pageshadow="2"
     inkscape:window-height="1017"
     inkscape:window-maximized="1"
     inkscape:window-width="1920"
     inkscape:window-x="-8"
     inkscape:window-y="-8"
     inkscape:zoom="0.7375"
     objecttolerance="10"
     pagecolor="#ffffff"
     showgrid="false"
     id="namedview4" />
  <defs
     id="defs9">
    <path
       id="c1GPuNhv6q"
       d="M 209.08,1.81 C 34.76,22.85 -58.15,222.43 39.78,365.52 c 10.25,14.98 12.65,18.62 90.53,137.13 41.43,63.05 77.08,116.64 79.23,119.09 15.51,17.68 41.63,17.68 57.14,0 3.28,-3.73 156.72,-236.22 160.1,-242.57 0.62,-1.17 4.52,-7.22 8.66,-13.44 C 546.43,198.86 408.88,-22.29 209.08,1.81 m 55.29,43.33 c 149.9,21.75 212.26,203.33 106.94,311.4 -104.4,107.12 -286.33,53.98 -316.34,-92.4 -25.45,-124.15 82.8,-237.36 209.4,-219"
       inkscape:connector-curvature="0" />
    <path
       id="amLhc2JGK"
       d="m 324.47,238.27 c 0,1.19 0.07,1.67 0.16,1.08 0.09,-0.59001 0.09,-1.56 0,-2.15 -0.09,-0.59 -0.16,-0.11 -0.16,1.07"
       inkscape:connector-curvature="0" />
    <path
       id="amLhc2JGK-9"
       d="m 324.47,238.27 c 0,1.19 0.07,1.67 0.16,1.08 0.09,-0.59001 0.09,-1.56 0,-2.15 -0.09,-0.59 -0.16,-0.11 -0.16,1.07"
       inkscape:connector-curvature="0" />
  </defs>
  <g
     id="g4786"
     transform="matrix(0.50254946,0,0,0.50250166,-1.2560747,200.41976)">
    <path
       style="fill:#ffffff"
       inkscape:connector-curvature="0"
       id="path11"
       d="m 231.06,-273.5315 a 184.44,192.22 0 0 1 184.44,192.22 184.44,192.22 0 0 1 -184.44,192.22 184.44,192.22 0 0 1 -184.44,-192.22 184.44,192.22 0 0 1 184.44,-192.22 z" />
    <use
       style="fill:#ff9900"
       id="use13"
       xlink:href="#c1GPuNhv6q"
       height="100%"
       width="100%"
       y="2.5028131"
       x="82.498833"
       transform="rotate(-90,119.34425,119.34425)" />
    <g
       id="g19"
       transform="rotate(-90,119.34425,119.34425)">
      <use
         style="fill:#b3c8e0"
         id="use15"
         xlink:href="#amLhc2JGK"
         height="100%"
         width="100%"
         y="2.5019529"
         x="82.496094" />
      <use
         id="use17"
         xlink:href="#amLhc2JGK"
         height="100%"
         width="100%"
         y="2.5019529"
         x="82.496094" />
    </g>
    <g
       id="g31"
       transform="translate(-90.847,-312.3425)">
      <use
         style="fill:#b3c8e0"
         id="use21"
         xlink:href="#amLhc2JGK-9"
         height="100%"
         width="100%"
         y="2.5019529"
         x="82.496094" />
      <use
         id="use23"
         xlink:href="#amLhc2JGK-9"
         height="100%"
         width="100%"
         y="2.5019529"
         x="82.496094" />
      <g
         style="font-family:sans-serif;letter-spacing:0px;word-spacing:0px"
         id="g25"
         word-spacing="0px"
         letter-spacing="0px"
         transform="matrix(3.7795,0,0,3.7795,-1442.3,-43.766)" />
      <g
         style="fill:#ff9900"
         id="g29"
         aria-label="L"
         transform="matrix(8.4236,0,0,10.059,-920.8,-648.08)">
        <path
           id="path27"
           sodipodi:nodetypes="ccccccc"
           inkscape:connector-curvature="0"
           style="font-variant-ligatures:normal;font-variant-caps:normal;font-variant-numeric:normal;font-feature-settings:normal;fill:#ff9900;stroke-width:0.94384003"
           d="M 157.2,101.12 H 137.401 V 73.671 h 7.0788 v 22.14 h 12.72 z" />
      </g>
    </g>
  </g>
</svg>
