<?xml version="1.0" encoding="UTF-8" standalone="no"?>
<svg
   xmlns:dc="http://purl.org/dc/elements/1.1/"
   xmlns:cc="http://creativecommons.org/ns#"
   xmlns:rdf="http://www.w3.org/1999/02/22-rdf-syntax-ns#"
   xmlns:svg="http://www.w3.org/2000/svg"
   xmlns="http://www.w3.org/2000/svg"
   xmlns:xlink="http://www.w3.org/1999/xlink"
   xmlns:sodipodi="http://sodipodi.sourceforge.net/DTD/sodipodi-0.dtd"
   xmlns:inkscape="http://www.inkscape.org/namespaces/inkscape"
   width="319.12061"
   height="319.12061"
   inkscape:version="0.92.5 (2060ec1f9f, 2020-04-08)"
   sodipodi:docname="indicador_autoon_0.svg"
   version="1.1"
   id="svg29">
  <metadata
     id="metadata2">
    <rdf:RDF>
      <cc:Work
         rdf:about="">
        <dc:format>image/svg+xml</dc:format>
        <dc:type
           rdf:resource="http://purl.org/dc/dcmitype/StillImage" />
        <dc:title></dc:title>
      </cc:Work>
    </rdf:RDF>
  </metadata>
  <sodipodi:namedview
     bordercolor="#666666"
     borderopacity="1"
     gridtolerance="10"
     guidetolerance="10"
     inkscape:current-layer="svg29"
     inkscape:cx="33.658421"
     inkscape:cy="232.28009"
     inkscape:pageopacity="0"
     inkscape:pageshadow="2"
     inkscape:window-height="1017"
     inkscape:window-maximized="1"
     inkscape:window-width="1920"
     inkscape:window-x="-8"
     inkscape:window-y="-8"
     inkscape:zoom="1.0429825"
     objecttolerance="10"
     pagecolor="#ffffff"
     showgrid="false"
     id="namedview4" />
  <defs
     id="defs9">
    <path
       id="c1GPuNhv6q"
       d="M 209.08,1.81 C 34.76,22.85 -58.15,222.43 39.78,365.52 c 10.25,14.98 12.65,18.62 90.53,137.13 41.43,63.05 77.08,116.64 79.23,119.09 15.51,17.68 41.63,17.68 57.14,0 3.28,-3.73 156.72,-236.22 160.1,-242.57 0.62,-1.17 4.52,-7.22 8.66,-13.44 C 546.43,198.86 408.88,-22.29 209.08,1.81 m 55.29,43.33 c 149.9,21.75 212.26,203.33 106.94,311.4 -104.4,107.12 -286.33,53.98 -316.34,-92.4 -25.45,-124.15 82.8,-237.36 209.4,-219"
       inkscape:connector-curvature="0" />
    <path
       id="amLhc2JGK"
       d="m 324.47,238.27 c 0,1.19 0.07,1.67 0.16,1.08 0.09,-0.59001 0.09,-1.56 0,-2.15 -0.09,-0.59 -0.16,-0.11 -0.16,1.07"
       inkscape:connector-curvature="0" />
    <path
       id="amLhc2JGK-9"
       d="m 324.47,238.27 c 0,1.19 0.07,1.67 0.16,1.08 0.09,-0.59001 0.09,-1.56 0,-2.15 -0.09,-0.59 -0.16,-0.11 -0.16,1.07"
       inkscape:connector-curvature="0" />
  </defs>
  <g
     id="g4777"
     transform="matrix(0.50254946,0,0,0.50250166,-1.2560819,200.41976)">
    <g
       id="g19"
       transform="rotate(-90,119.34425,119.34425)">
      <ellipse
         style="fill:#ffffff"
         id="ellipse11"
         ry="184.44"
         rx="192.22"
         cy="231.06"
         cx="320" />
      <use
         height="100%"
         width="100%"
         style="fill:#00ff00"
         id="use13"
         xlink:href="#c1GPuNhv6q"
         y="2.5028131"
         x="82.498833" />
      <use
         height="100%"
         width="100%"
         style="fill:#00ff00"
         id="use15"
         xlink:href="#amLhc2JGK"
         y="2.5019529"
         x="82.496094" />
      <use
         height="100%"
         width="100%"
         id="use17"
         xlink:href="#amLhc2JGK"
         y="2.5019529"
         x="82.496094" />
    </g>
    <g
       id="g27"
       transform="translate(98.465,-236.6915)">
      <use
         id="use21"
         xlink:href="#amLhc2JGK-9"
         style="font-weight:bold;font-size:39.87900162px;line-height:1.25;font-family:sans-serif;font-variant-ligatures:normal;font-variant-caps:normal;font-variant-numeric:normal;font-feature-settings:normal;letter-spacing:0px;word-spacing:0px;fill:#00ff00"
         word-spacing="0px"
         letter-spacing="0px"
         font-weight="bold"
         font-size="39.879px"
         height="100%"
         width="100%"
         y="2.5019529"
         x="82.496094"
         transform="matrix(0.7071,0.70711,-0.7071,0.70711,69.442,-227.42)" />
      <use
         id="use23"
         xlink:href="#amLhc2JGK-9"
         style="font-weight:bold;font-size:39.87900162px;line-height:1.25;font-family:sans-serif;font-variant-ligatures:normal;font-variant-caps:normal;font-variant-numeric:normal;font-feature-settings:normal;letter-spacing:0px;word-spacing:0px;fill:#00ff00"
         word-spacing="0px"
         letter-spacing="0px"
         font-weight="bold"
         font-size="39.879px"
         height="100%"
         width="100%"
         y="2.5019529"
         x="82.496094"
         transform="matrix(0.7071,0.70711,-0.7071,0.70711,69.442,-227.42)" />
      <path
         id="path25"
         inkscape:connector-curvature="0"
         style="font-variant-ligatures:normal;font-variant-caps:normal;font-variant-numeric:normal;font-feature-settings:normal;fill:#00ff00;stroke-width:9.14700031"
         d="M 265.4,274.45 H 197.071 L 179.344,218.971 H 84.334 L 66.607,274.45 H -0.001 L 94.665,0 H 170.74 Z M 163.34,168.65 131.843,70.226 100.346,168.65 Z" />
    </g>
  </g>
</svg>
