<?xml version="1.0" encoding="UTF-8" standalone="no"?>
<!-- Created with Inkscape (http://www.inkscape.org/) -->

<svg
   version="1.1"
   id="svg1360"
   width="640"
   height="640"
   viewBox="0 0 640 640"
   sodipodi:docname="indicador_mantenimiento_135_verde.svg"
   inkscape:version="1.1 (c68e22c387, 2021-05-23)"
   xmlns:inkscape="http://www.inkscape.org/namespaces/inkscape"
   xmlns:sodipodi="http://sodipodi.sourceforge.net/DTD/sodipodi-0.dtd"
   xmlns="http://www.w3.org/2000/svg"
   xmlns:svg="http://www.w3.org/2000/svg">
  <defs
     id="defs1364" />
  <sodipodi:namedview
     id="namedview1362"
     pagecolor="#ffffff"
     bordercolor="#666666"
     borderopacity="1.0"
     inkscape:pageshadow="2"
     inkscape:pageopacity="0.0"
     inkscape:pagecheckerboard="0"
     showgrid="false"
     inkscape:zoom="1.1765625"
     inkscape:cx="320"
     inkscape:cy="320"
     inkscape:window-width="1920"
     inkscape:window-height="1017"
     inkscape:window-x="-8"
     inkscape:window-y="-8"
     inkscape:window-maximized="1"
     inkscape:current-layer="g1366" />
  <g
     inkscape:groupmode="layer"
     inkscape:label="Image"
     id="g1366">
    <ellipse
       style="fill:#ffffff;stroke:#8a8a8a;stroke-width:0;stroke-linecap:round;stroke-linejoin:round"
       id="path1787"
       cx="372.69589"
       cy="372.69589"
       rx="220.55777"
       ry="196.75963" />
    <g
       id="g1661">
      <path
         style="fill:#00ff00;stroke:#8a8a8a;stroke-width:0;stroke-linecap:round;stroke-linejoin:round"
         d="m 350.66812,611.45065 c -11.26181,-1.25041 -38.2094,-6.71947 -40.91032,-8.30282 -0.72484,-0.42492 -5.02763,-1.82536 -9.56175,-3.11208 -4.53412,-1.28672 -8.24386,-2.60921 -8.24386,-2.93888 0,-0.32966 -1.58895,-1.07544 -3.531,-1.6573 -1.94204,-0.58185 -7.09559,-2.74597 -11.45233,-4.80916 -4.35673,-2.0632 -8.3136,-3.75126 -8.79303,-3.75126 -0.47944,0 -0.87259,-0.28685 -0.87367,-0.63745 -8.5e-4,-0.3506 -2.39151,-1.78486 -5.31208,-3.18725 -2.92057,-1.40239 -6.05157,-3.21912 -6.95778,-4.03719 -0.90621,-0.81806 -1.96258,-1.48738 -2.34751,-1.48738 -0.81567,0 -12.59847,-7.64098 -13.85345,-8.98377 -0.46746,-0.50017 -1.99734,-1.60822 -3.39973,-2.46232 -1.40239,-0.85411 -3.12351,-2.06477 -3.8247,-2.69036 -0.7012,-0.6256 -3.9522,-3.33732 -7.22444,-6.02607 -10.04024,-8.24987 -23.24462,-21.91078 -33.6847,-34.8493 -2.90689,-3.60254 -14.18495,-20.3398 -15.62078,-23.18207 -0.82652,-1.63612 -1.76808,-3.166 -2.09234,-3.39974 -0.32428,-0.23373 -1.66097,-2.71978 -2.97042,-5.52456 -1.30944,-2.80478 -2.64002,-5.29084 -2.95683,-5.52457 -0.31681,-0.23373 -1.48468,-2.71979 -2.59525,-5.52457 -1.11057,-2.80478 -2.26314,-5.29084 -2.56126,-5.52457 -0.29813,-0.23373 -1.64951,-3.67596 -3.00307,-7.6494 -1.35356,-3.97344 -2.7155,-7.41567 -3.02654,-7.6494 -0.31103,-0.23374 -1.56792,-4.24967 -2.79307,-8.92431 -1.22515,-4.67463 -2.59678,-9.26427 -3.04807,-10.1992 -0.45128,-0.93493 -1.78199,-6.48074 -2.95713,-12.32404 -5.21653,-25.93894 -7.37649,-36.20996 -7.86447,-37.39707 -0.28823,-0.7012 -1.81084,-7.58566 -3.38355,-15.29881 -1.57272,-7.71315 -3.97656,-19.37849 -5.34186,-25.92297 -2.37962,-11.40661 -4.80999,-23.20735 -11.46542,-55.67066 -1.67714,-8.18061 -4.0762,-20.22841 -5.33125,-26.7729 -1.25505,-6.54449 -2.50814,-12.09031 -2.78464,-12.32404 -0.2765,-0.23373 -1.57821,-6.73572 -2.89267,-14.44887 -1.31447,-7.71315 -2.62693,-14.40638 -2.91659,-14.87384 -0.52056,-0.84011 -4.1505,-18.96159 -8.257188,-41.22178 -1.164245,-6.31076 -2.462544,-12.23904 -2.885108,-13.17397 -0.422565,-0.93493 -1.762007,-7.62815 -2.976537,-14.87384 -1.21453,-7.24568 -2.553815,-13.93891 -2.97619,-14.87384 -1.203496,-2.66394 -2.57921,-12.36052 -2.57921,-18.1793 0,-5.02794 1.401186,-12.77989 2.475084,-13.69321 0.274826,-0.23373 1.118437,-1.76361 1.874692,-3.39973 2.597787,-5.62019 8.873974,-11.565962 15.858697,-15.023801 6.50724,-3.221458 6.6533,-3.249763 16.76364,-3.24874 5.60956,5.68e-4 10.96414,0.352244 11.89907,0.781503 0.93493,0.42926 8.20186,2.034631 16.14874,3.567491 26.44747,5.101412 39.08402,7.675563 40.37184,8.224024 0.7012,0.298627 7.01196,1.525153 14.02391,2.725613 7.01195,1.20045 13.51394,2.52869 14.44887,2.95164 0.93493,0.42295 7.62815,1.77858 14.87384,3.01251 7.24568,1.23392 13.93891,2.58101 14.87383,2.99353 0.93493,0.41251 6.86322,1.74523 13.17398,2.9616 25.53118,4.921 39.58813,7.78043 40.79681,8.29879 1.23649,0.53028 16.39785,3.54065 39.94688,7.93164 6.31075,1.17672 12.06644,2.4507 12.79042,2.83108 0.72397,0.38038 7.4172,1.77138 14.87384,3.09111 7.45663,1.31974 13.74875,2.61882 13.98248,2.88686 0.39621,0.45436 13.32053,3.02 40.79682,8.09868 6.31075,1.16647 12.23904,2.49074 13.17397,2.94282 0.93492,0.45208 5.713,1.81916 10.61793,3.03795 4.90493,1.21879 9.30334,2.50366 9.77423,2.85527 0.4709,0.35161 3.34223,1.51512 6.38075,2.58558 5.67384,1.99888 17.27803,7.07167 19.54847,8.54564 0.70119,0.45522 3.56972,1.98292 6.3745,3.3949 2.80478,1.41197 7.07149,3.80615 9.48158,5.32039 2.41009,1.51425 6.23479,3.88641 8.49933,5.27147 2.26455,1.38506 4.24003,2.80484 4.38995,3.15507 0.14992,0.35023 1.6798,1.4993 3.39973,2.55348 8.71205,5.33979 28.90711,24.1114 39.15449,36.39467 2.92487,3.50598 5.99198,7.13944 6.81578,8.07437 0.82381,0.93493 2.21188,2.84728 3.08461,4.24967 0.87273,1.40239 2.08085,3.1235 2.68472,3.8247 1.90369,2.2105 8.75807,12.73455 8.75807,13.44693 0,0.37477 0.66932,1.42285 1.48738,2.32906 0.81807,0.90621 2.6095,4.03809 3.98098,6.95973 1.37148,2.92165 2.80574,5.31209 3.18725,5.31209 0.38151,0 0.69366,0.39227 0.69366,0.87171 0,0.47943 1.72112,4.50609 3.8247,8.94812 2.10359,4.44204 3.8247,8.43684 3.8247,8.87735 0,0.4405 0.90852,2.82022 2.01893,5.28825 4.78793,10.64186 10.59392,32.22176 13.89854,51.65866 2.72141,16.00647 1.74685,68.11362 -1.44655,77.34395 -0.40432,1.16866 -1.78608,7.09695 -3.07059,13.17398 -1.2845,6.07702 -2.60333,11.24037 -2.93071,11.4741 -0.3274,0.23373 -1.63567,4.05843 -2.90727,8.49934 -1.2716,4.4409 -2.63219,8.46147 -3.02354,8.93462 -0.39133,0.47314 -1.49827,2.95919 -2.45986,5.52456 -1.94346,5.1849 -13.51125,28.21976 -14.50686,28.88743 -0.34854,0.23373 -1.26475,1.65668 -2.03602,3.1621 -1.79042,3.49467 -7.56012,11.90746 -14.70062,21.43494 -3.43261,4.5801 -11.13435,13.45226 -18.48955,21.29937 -5.43906,5.80282 -22.91702,21.09926 -28.16331,24.64808 -1.03659,0.70119 -5.46568,3.66496 -9.84241,6.58615 -4.37674,2.92119 -8.39364,5.6698 -8.92644,6.10801 -1.82922,1.50451 -25.79916,13.52029 -28.9887,14.53162 -1.75449,0.55631 -3.97581,1.50241 -4.93628,2.10244 -0.96046,0.60003 -5.35886,2.16325 -9.77423,3.47383 -4.41537,1.31058 -8.21918,2.62537 -8.45291,2.92177 -0.23373,0.29641 -5.39708,1.58988 -11.4741,2.87438 -6.07703,1.28451 -12.00531,2.66336 -13.17397,3.06411 -7.56037,2.5926 -54.51183,4.22995 -70.47398,2.45766 z m 48.99738,-42.41859 c 19.00524,-2.80286 28.64876,-4.45643 29.86648,-5.12118 0.7614,-0.41565 4.99123,-1.75524 9.39964,-2.97688 4.40841,-1.22163 8.79629,-2.7682 9.75087,-3.43681 0.95457,-0.66861 2.24845,-1.21565 2.87528,-1.21565 1.25867,0 19.05241,-8.33334 19.73041,-9.24033 0.23373,-0.31268 1.50256,-1.04236 2.81962,-1.62152 5.0489,-2.2202 24.20225,-15.64092 31.06309,-21.76587 4.53855,-4.05174 16.88929,-16.60774 19.66311,-19.9899 1.63612,-1.99495 3.97207,-4.83664 5.19099,-6.31487 1.21892,-1.47823 3.99768,-5.36499 6.17502,-8.63723 2.17734,-3.27224 4.30788,-6.38201 4.73454,-6.91058 0.42666,-0.52857 1.84106,-3.01463 3.14312,-5.52457 1.30205,-2.50994 2.85946,-5.06893 3.46092,-5.68665 0.60145,-0.61772 1.09355,-1.50926 1.09355,-1.98121 0,-0.47195 1.27868,-3.40877 2.84151,-6.52628 1.56284,-3.1175 3.33214,-7.19807 3.93179,-9.06792 0.59965,-1.86986 1.77631,-4.93682 2.61479,-6.81549 0.8385,-1.87866 2.3319,-6.65954 3.31869,-10.62417 0.98678,-3.96463 2.15445,-7.97336 2.59483,-8.90828 1.45756,-3.09449 3.38867,-16.79721 4.39971,-31.21937 0.76803,-10.95568 0.76337,-17.34388 -0.0203,-27.82359 -1.03598,-13.85377 -2.93547,-27.13535 -4.31911,-30.20007 -0.42209,-0.93493 -1.58114,-5.0964 -2.57565,-9.24771 -0.9945,-4.15132 -2.34763,-8.591 -3.00694,-9.86596 -0.65931,-1.27497 -2.03125,-4.7629 -3.04876,-7.75096 -1.0175,-2.98807 -2.32208,-6.00655 -2.89906,-6.70775 -0.57698,-0.70119 -1.7423,-3.1315 -2.58959,-5.40068 -0.84729,-2.26918 -1.95142,-4.57722 -2.45364,-5.12897 -0.5022,-0.55176 -2.04006,-3.09356 -3.41745,-5.64846 -1.37739,-2.55489 -2.81142,-5.02773 -3.18672,-5.4952 -0.3753,-0.46746 -2.04919,-2.93783 -3.71974,-5.48972 -8.21237,-12.54498 -26.99361,-32.27993 -39.46976,-41.47405 -3.96828,-2.92436 -7.6702,-5.69092 -8.22649,-6.1479 -0.55628,-0.45699 -2.2774,-1.55001 -3.8247,-2.42895 -2.82816,-1.60654 -11.06131,-6.44345 -13.43743,-7.89439 -0.7012,-0.42817 -3.37849,-1.75451 -5.94954,-2.94742 -2.57105,-1.19291 -6.58698,-3.06099 -8.9243,-4.15129 -2.33732,-1.09031 -6.35326,-2.64116 -8.92431,-3.44635 -2.57104,-0.80518 -5.0571,-1.75726 -5.52456,-2.11573 -0.46747,-0.35846 -4.4834,-1.48883 -8.92431,-2.51192 -4.4409,-1.02309 -8.70927,-2.19082 -9.48526,-2.59495 -0.776,-0.40413 -5.74811,-1.40263 -11.04914,-2.21886 -18.10257,-2.78739 -53.85736,-1.78657 -66.58379,1.86377 -2.33732,0.67041 -7.6919,2.03292 -11.89907,3.02779 -4.20717,0.99488 -8.03187,2.09591 -8.49934,2.44672 -0.46746,0.35083 -3.52722,1.49733 -6.79947,2.54778 -3.27224,1.05046 -6.83703,2.46649 -7.92177,3.14674 -1.08473,0.68024 -3.45921,1.76145 -5.27664,2.40267 -2.86814,1.01193 -10.4639,5.01816 -21.33474,11.25255 -4.2804,2.45479 -16.01943,10.85709 -20.71505,14.82695 -5.33526,4.51063 -21.72011,20.84634 -24.23715,24.16446 -1.62701,2.14481 -3.72314,4.75334 -4.65807,5.79673 -1.53629,1.7145 -8.65907,11.99482 -11.2291,16.20697 -3.49001,5.71993 -10.39927,19.05557 -10.89261,21.02393 -0.3222,1.28552 -0.85706,2.33732 -1.1886,2.33732 -0.33153,0 -1.49564,2.77291 -2.58692,6.16202 -1.09127,3.38911 -2.52763,7.24887 -3.19189,8.57724 -1.24024,2.48018 -4.62334,15.92003 -6.66623,26.48252 -0.63288,3.27224 -1.59517,12.26029 -2.13841,19.97344 -1.0559,14.9921 -0.14063,35.09535 2.14764,47.17131 1.62508,8.57609 5.42657,23.37328 6.76896,26.34794 0.63286,1.40239 1.81727,4.65339 2.63201,7.22444 0.81476,2.57105 2.14519,5.82204 2.95652,7.22443 0.81134,1.40239 2.36451,4.74901 3.45151,7.43692 1.08699,2.68792 2.28843,4.88712 2.66988,4.88712 0.38145,0 0.69353,0.51441 0.69353,1.14313 0,0.62872 1.52988,3.51016 3.39974,6.40318 1.86985,2.89303 3.39973,5.48057 3.39973,5.75009 0,0.9211 8.78008,12.61678 14.95316,19.91866 10.03977,11.87562 23.47519,23.80048 37.71279,33.47273 7.98314,5.42331 27.24374,15.70873 33.17735,17.71716 2.10358,0.71203 5.57835,2.05126 7.72171,2.97605 2.14335,0.9248 6.733,2.35439 10.1992,3.17686 3.4662,0.82248 6.68821,1.7897 7.16,2.14938 1.15079,0.87733 13.3184,3.03968 23.79027,4.22783 4.67463,0.53039 8.6587,1.12025 8.85348,1.31079 0.72838,0.71255 24.90867,0.3138 30.44017,-0.50198 z"
         id="path1501" />
      <path
         style="fill:#00ff00;stroke:#8a8a8a;stroke-width:0;stroke-linecap:round;stroke-linejoin:round"
         d="m 285.53519,501.14033 c -0.44409,-0.41 -2.80797,-1.39444 -5.25306,-2.18765 -5.06654,-1.64362 -11.46215,-6.56368 -14.01089,-10.77838 -0.95196,-1.57422 -1.9959,-3.05345 -2.31985,-3.28718 -1.39777,-1.00847 -3.612,-8.44171 -4.04064,-13.56457 -0.85543,-10.22358 3.70665,-21.613 11.12799,-27.78148 1.45193,-1.20682 6.28187,-5.6885 10.73319,-9.95928 4.45132,-4.27078 13.60795,-12.9284 20.34806,-19.23916 6.74011,-6.31076 13.63183,-12.81275 15.31492,-14.44887 1.6831,-1.63612 8.55751,-8.13812 15.27648,-14.44887 34.99509,-32.86899 52.28984,-49.38323 52.5933,-50.21977 0.15663,-0.43175 -0.58163,-3.36471 -1.64058,-6.51769 -2.21977,-6.60928 -3.22238,-23.04237 -1.78356,-29.23311 3.68095,-15.8379 8.39669,-25.39464 17.29738,-35.0542 12.18861,-13.22782 26.84671,-20.3615 45.58735,-22.18608 10.59823,-1.03183 16.59615,1.49624 15.0568,6.34632 -0.30687,0.96684 -8.38705,9.587 -17.95597,19.15592 l -17.39803,17.39803 1.03562,3.62143 c 0.56959,1.99178 1.30501,4.00389 1.63426,4.47135 0.32925,0.46747 1.61999,4.4834 2.86831,8.9243 1.24831,4.44091 2.82431,9.27959 3.50221,10.75262 0.67791,1.47304 1.23469,3.00292 1.2373,3.39974 0.003,0.39681 0.40005,2.14488 0.88322,3.88459 0.75848,2.73105 1.36733,3.30282 4.4574,4.18599 1.96842,0.56259 3.96141,1.30251 4.42887,1.64426 0.46747,0.34176 4.67464,1.65527 9.34927,2.91893 4.67464,1.26366 8.88181,2.58376 9.34927,2.93356 0.46746,0.3498 3.45951,1.32847 6.649,2.1748 l 5.79906,1.53879 17.58153,-17.56657 c 19.24527,-19.22891 20.41525,-19.96851 23.88332,-15.09805 1.93468,2.71701 2.41425,10.12518 0.96421,14.89477 -0.43644,1.43558 -1.39079,5.66991 -2.12077,9.40962 -1.27651,6.53956 -5.86351,16.86892 -10.17111,22.90409 -6.62871,9.28719 -21.4993,20.88137 -30.72435,23.9549 -2.31631,0.77174 -4.59396,1.68998 -5.06142,2.04052 -1.05003,0.78743 -8.56425,2.22737 -15.07021,2.88792 -6.5844,0.6685 -20.32565,-0.9549 -25.56577,-3.02036 l -4.27129,-1.68359 -3.8943,4.11533 c -2.14188,2.26344 -7.71901,8.26844 -12.39365,13.34445 -4.67463,5.07602 -8.89139,9.65025 -9.37057,10.16497 -0.47917,0.51472 -6.56403,7.05538 -13.52189,14.53479 -6.95786,7.47942 -15.36262,16.47818 -18.67724,19.99724 -3.31462,3.51907 -9.66005,10.37787 -14.10095,15.24178 -4.4409,4.86392 -9.41301,10.23392 -11.04914,11.93333 -1.63612,1.69941 -6.79926,7.27089 -11.47364,12.38106 -4.67438,5.11017 -10.96668,11.735 -13.98288,14.72184 -5.14507,5.09499 -12.24513,9.41609 -15.50261,9.43491 -0.79048,0.005 -1.6736,0.39077 -1.96251,0.85824 -0.64627,1.04568 -12.52345,1.13665 -13.64144,0.10447 z m 11.86913,-19.77459 c 3.47183,-1.58187 6.76883,-7.34218 6.74099,-11.77743 -0.0288,-4.59391 -2.83182,-9.70981 -6.30366,-11.50517 -3.13739,-1.6224 -10.44323,-1.59116 -13.83538,0.0592 -4.53465,2.20621 -6.07798,5.15237 -6.07798,11.60269 0,5.14722 0.23967,5.93447 2.5498,8.37516 1.40239,1.48166 3.31474,3.0124 4.24967,3.40166 2.52471,1.05119 10.23527,0.95626 12.67656,-0.15607 z"
         id="path1540" />
    </g>
  </g>
</svg>
