<?xml version="1.0" encoding="UTF-8" standalone="no"?>
<svg
   xmlns:dc="http://purl.org/dc/elements/1.1/"
   xmlns:cc="http://creativecommons.org/ns#"
   xmlns:rdf="http://www.w3.org/1999/02/22-rdf-syntax-ns#"
   xmlns:svg="http://www.w3.org/2000/svg"
   xmlns="http://www.w3.org/2000/svg"
   xmlns:xlink="http://www.w3.org/1999/xlink"
   xmlns:sodipodi="http://sodipodi.sourceforge.net/DTD/sodipodi-0.dtd"
   xmlns:inkscape="http://www.inkscape.org/namespaces/inkscape"
   width="84.433998mm"
   height="84.433998mm"
   inkscape:export-filename="C:\Users\jjimenez\OneDrive - IRC AUTOMATIZACION SLU\Escritorio\imagenes_svg\Nuevos indicadores\manual_on_abajo.png"
   inkscape:export-xdpi="96"
   inkscape:export-ydpi="96"
   inkscape:version="0.92.5 (2060ec1f9f, 2020-04-08)"
   sodipodi:docname="indicador_mantenimiento_0.svg"
   version="1.1"
   viewBox="0 0 84.434 84.433998"
   id="svg30">
  <defs
     id="defs3">
    <path
       id="amLhc2JGK"
       d="m 324.47,238.27 c 0,1.19 0.07,1.67 0.16001,1.08 0.09,-0.59002 0.09,-1.56 0,-2.15 -0.09,-0.59 -0.16001,-0.11 -0.16001,1.07"
       inkscape:connector-curvature="0" />
  </defs>
  <sodipodi:namedview
     id="base"
     bordercolor="#666666"
     borderopacity="1.0"
     fit-margin-bottom="0"
     fit-margin-left="0"
     fit-margin-right="0"
     fit-margin-top="0"
     inkscape:current-layer="g28"
     inkscape:cx="-462.35504"
     inkscape:cy="12.927137"
     inkscape:document-rotation="0"
     inkscape:document-units="mm"
     inkscape:pageopacity="0.0"
     inkscape:pageshadow="2"
     inkscape:window-height="1017"
     inkscape:window-maximized="1"
     inkscape:window-width="1920"
     inkscape:window-x="-8"
     inkscape:window-y="-8"
     inkscape:zoom="0.70000001"
     pagecolor="#ffffff"
     showgrid="false" />
  <metadata
     id="metadata6">
    <rdf:RDF>
      <cc:Work
         rdf:about="">
        <dc:format>image/svg+xml</dc:format>
        <dc:type
           rdf:resource="http://purl.org/dc/dcmitype/StillImage" />
        <dc:title></dc:title>
      </cc:Work>
    </rdf:RDF>
  </metadata>
  <g
     transform="translate(154.04,-107.729)"
     inkscape:groupmode="layer"
     inkscape:label="Capa 1"
     id="g28">
    <ellipse
       transform="matrix(0.71770122,0.69635118,-0.71770122,0.69635118,0,0)"
       cx="23.768641"
       cy="191.56236"
       rx="28.900949"
       ry="27.730953"
       style="font-variant-ligatures:normal;font-variant-caps:normal;font-variant-numeric:normal;font-feature-settings:normal;fill:#ffffff;stroke-width:0.15034975"
       id="ellipse8" />
    <path
       d="m -124.65,181.40412 c -4.9042,-0.35333 -10.239,-2.0864 -14.395,-4.6762 -3.8365,-2.3907 -7.5347,-5.9808 -9.9287,-9.637 -0.96527,-1.4746 -2.7353,-5.0515 -3.2899,-6.6477 -2.0171,-5.807 -2.3379,-12.559 -0.87143,-18.345 1.0763,-4.2461 3.1914,-8.4499 6.0004,-11.926 1.2825,-1.5872 3.9431,-4.1593 5.5441,-5.3597 4.4717,-3.3532 9.7302,-5.5229 15.108,-6.2341 1.8721,-0.24756 5.7209,-0.28208 7.4445,-0.0668 5.1245,0.64024 10.209,2.5845 14.613,5.5874 1.0619,0.72405 4.5094,3.0143 7.6611,5.0892 16.548,10.895 25.483,16.894 25.969,17.438 1.6112,1.801 1.5762,4.5977 -0.0814,6.4905 -0.42586,0.48625 -7.5417,5.259 -22.203,14.893 -4.4036,2.8935 -7.7089,5.1598 -8.4307,5.7798 -5.3386,4.5884 -11.619,7.1368 -18.797,7.6268 -2.105,0.14372 -2.1901,0.14349 -4.343,-0.0116 z m 4.6973,-5.5914 c 5.255,-0.45183 10.294,-2.4754 14.259,-5.7259 1.2434,-1.0193 3.4247,-3.291 4.3482,-4.5285 2.8062,-3.7602 4.5613,-8.3008 5.0409,-13.041 0.47303,-4.6762 -0.40619,-9.5046 -2.5151,-13.812 -3.6248,-7.4042 -10.561,-12.653 -18.668,-14.128 -1.9317,-0.35149 -6.1148,-0.42153 -8.0938,-0.13553 -3.9295,0.56791 -7.6631,1.9834 -10.813,4.0994 -3.1367,2.1069 -6.0387,5.1844 -7.9487,8.4307 -5.2061,8.8463 -4.6152,20.122 1.4894,28.417 4.7416,6.4427 12.378,10.37 20.502,10.546 0.43978,0.009 1.5192,-0.0447 2.3988,-0.1203 z m -14.286,-29.445 6.6668,-17.991 11.084,0.004 6.5968,17.811 c 3.6282,9.7957 6.6159,17.891 6.6396,17.989 0.0354,0.14662 -0.77911,0.17857 -4.5534,0.17857 h -4.5964 l -0.2096,-0.5664 c -0.11528,-0.31151 -0.62155,-1.7658 -1.1251,-3.2318 l -0.9155,-2.6654 h -14.748 l -2.2548,6.4633 h -9.2507 z m 17.154,4.6977 c 0.006,-0.19814 -4.869,-14.293 -4.9439,-14.293 -0.0422,0 -0.77367,2.024 -1.6254,4.4978 -0.85179,2.4738 -1.9697,5.7123 -2.4841,7.1967 l -0.9354,2.6987 h 4.9929 c 2.746,0 4.9943,-0.045 4.996,-0.1 z"
       id="path10"
       inkscape:connector-curvature="0"
       style="fill:#ff9900;stroke-width:0.13327" />
    <path
       d="m -98.290938,150.30122 a 24.095978,25.040918 0 0 1 -24.435292,24.68318 24.095978,25.040918 0 0 1 -23.75182,-25.39346 24.095978,25.040918 0 0 1 24.43514,-24.68334 24.095978,25.040918 0 0 1 23.751977,25.39329 L -122.38449,149.946 Z"
       sodipodi:cx="-122.38449"
       sodipodi:cy="149.946"
       sodipodi:end="0.014173051"
       sodipodi:rx="24.095978"
       sodipodi:ry="25.040918"
       sodipodi:start="0.014186246"
       sodipodi:type="arc"
       id="path12"
       style="fill:#ffffff;stroke-width:0" />
    <g
       transform="matrix(-0.18709,-0.18709,0.18709,-0.18709,-179.32,271.1487)"
       id="g18">
      <use
         x="82.496094"
         y="2.5019529"
         width="100%"
         height="100%"
         xlink:href="#amLhc2JGK"
         id="use14"
         style="fill:#b3c8e0" />
      <use
         x="82.496094"
         y="2.5019529"
         width="100%"
         height="100%"
         xlink:href="#amLhc2JGK"
         id="use16" />
    </g>
    <g
       transform="matrix(1.2203,0,0,1.2203,24.665,-32.006081)"
       inkscape:label="Capa 1"
       id="g26"
       style="fill:#ff9900;stroke-width:0.26458001">
      <g
         transform="matrix(0.063211,0,0,0.063211,-134.5,133.94)"
         id="g24"
         style="fill:#ff9900">
        <g
           id="g22"
           style="fill:#ff9900">
          <path
             d="m 478.41,116.62 c -0.368,-4.271 -3.181,-7.94 -7.2,-9.403 -4.029,-1.472 -8.539,-0.47 -11.57,2.556 l -62.015,62.011 -68.749,-21.768 -21.768,-68.748 62.016,-62.016 c 3.035,-3.032 4.025,-7.543 2.563,-11.565 C 370.21,3.657 366.55,0.85 362.27,0.48 324.607,-2.765 287.704,10.682 261.02,37.367 c -36.542,36.545 -46.219,89.911 -29.083,135.4 -1.873,1.578 -3.721,3.25 -5.544,5.053 L 19.383,373.16 c -0.073,0.071 -0.145,0.149 -0.224,0.219 -24.345,24.346 -24.345,63.959 0,88.309 24.349,24.344 63.672,24.048 88.013,-0.298 0.105,-0.098 0.201,-0.196 0.297,-0.305 l 193.63,-208.62 c 1.765,-1.773 3.404,-3.628 4.949,-5.532 45.5,17.167 98.9,7.513 135.47,-29.056 26.675,-26.687 40.131,-63.593 36.882,-101.25 z M 75.98,435.38 c -8.971,8.969 -23.5,8.963 -32.47,0 -8.967,-8.961 -8.967,-23.502 0,-32.466 8.97,-8.963 23.499,-8.963 32.47,0 8.967,8.964 8.967,23.505 0,32.466 z"
             inkscape:connector-curvature="0"
             id="path20"
             style="fill:#ff9900" />
        </g>
      </g>
    </g>
  </g>
</svg>
