<?xml version="1.0" encoding="UTF-8" standalone="no"?>
<svg
   xmlns:dc="http://purl.org/dc/elements/1.1/"
   xmlns:cc="http://creativecommons.org/ns#"
   xmlns:rdf="http://www.w3.org/1999/02/22-rdf-syntax-ns#"
   xmlns:svg="http://www.w3.org/2000/svg"
   xmlns="http://www.w3.org/2000/svg"
   xmlns:sodipodi="http://sodipodi.sourceforge.net/DTD/sodipodi-0.dtd"
   xmlns:inkscape="http://www.inkscape.org/namespaces/inkscape"
   width="97.804001mm"
   height="97.804001mm"
   inkscape:export-filename="C:\Users\jjimenez\OneDrive - IRC AUTOMATIZACION SLU\Escritorio\imagenes_svg\Nuevos indicadores\manual_on_abajo.png"
   inkscape:export-xdpi="96"
   inkscape:export-ydpi="96"
   inkscape:version="0.92.5 (2060ec1f9f, 2020-04-08)"
   sodipodi:docname="indicador_autoalm_90.svg"
   version="1.1"
   viewBox="0 0 97.803997 97.804"
   id="svg11">
  <defs
     id="defs13" />
  <sodipodi:namedview
     id="base"
     bordercolor="#666666"
     borderopacity="1.0"
     fit-margin-bottom="0"
     fit-margin-left="0"
     fit-margin-right="0"
     fit-margin-top="0"
     inkscape:current-layer="g9"
     inkscape:cx="-86.195414"
     inkscape:cy="205.14347"
     inkscape:document-rotation="0"
     inkscape:document-units="mm"
     inkscape:pageopacity="0"
     inkscape:pageshadow="2"
     inkscape:window-height="1017"
     inkscape:window-maximized="1"
     inkscape:window-width="1920"
     inkscape:window-x="-8"
     inkscape:window-y="-8"
     inkscape:zoom="1.979899"
     pagecolor="#ffffff"
     showgrid="false" />
  <metadata
     id="metadata3">
    <rdf:RDF>
      <cc:Work
         rdf:about="">
        <dc:format>image/svg+xml</dc:format>
        <dc:type
           rdf:resource="http://purl.org/dc/dcmitype/StillImage" />
        <dc:title></dc:title>
      </cc:Work>
    </rdf:RDF>
  </metadata>
  <g
     transform="translate(143.09,-103.53)"
     inkscape:groupmode="layer"
     inkscape:label="Capa 1"
     id="g9">
    <path
       d="m -126.38423,141.37614 a 30.869619,31.67144 0 0 1 43.403377,4.49205 30.869619,31.67144 0 0 1 -4.31356,44.53741 30.869619,31.67144 0 0 1 -43.416247,-4.35913 30.869619,31.67144 0 0 1 4.18398,-44.55042"
       sodipodi:cx="-106.87498"
       sodipodi:cy="165.92079"
       sodipodi:end="4.0223032"
       sodipodi:open="true"
       sodipodi:rx="30.869619"
       sodipodi:ry="31.67144"
       sodipodi:start="4.0282723"
       sodipodi:type="arc"
       id="path5"
       style="fill:#ffffff;stroke-width:0" />
    <path
       d="m -97.18474,201.25 c -14.883,-1.4078 -27.088,-11.354 -31.407,-25.593 -0.95917,-3.162 -1.3527,-5.9188 -1.4663,-10.274 -0.13547,-5.1908 0.30476,-8.4964 1.6943,-12.723 1.3964,-4.2471 2.6112,-6.3087 13.054,-22.157 12.21,-18.53 16.73,-25.241 17.303,-25.692 1.2287,-0.96716 2.1509,-1.2866 3.7006,-1.2817 1.2073,0.004 2.2406,0.36319 3.3178,1.1539 0.82145,0.60301 3.0919,3.9519 16.635003,24.537 3.0328,4.6097 6.8235,10.352 8.4245,12.761 4.1166,6.1951 5.6803,9.5752 6.7065,14.497 0.86386,4.144 1.1759,9.969 0.71597,13.365 -0.57133,4.2188 -1.7693,8.1391 -3.5869,11.738 -5.3309,10.556 -15.588,17.882 -27.238003,19.456 -2.0576,0.27791 -6.0307,0.38599 -7.8526,0.21362 z m 5.6631,-6.3435 c 10.399003,-0.97527 19.396003,-7.1865 23.945003,-16.531 5.0302,-10.333 3.5881,-22.542 -3.7312,-31.588 -9.8172,-12.134 -27.906003,-14.35 -40.507003,-4.9622 -8.0672,6.0102 -12.633,15.976 -11.822,25.807 0.77533,9.4108 5.5308,17.451 13.39,22.64 5.3476,3.5306 12.259,5.2414 18.726,4.635 z m -23.717,-14.377 c 0.27998,-0.76934 3.649,-9.8594 7.4867,-20.2 3.8377,-10.341 7.0444,-18.988 7.126,-19.217 l 0.14857,-0.4153 h 12.626 l 0.14921,0.4153 c 0.082,0.2284 3.289003,8.876 7.126603,19.217 3.8375,10.341 7.2059,19.431 7.4862,20.2 l 0.5088,1.3988 -10.597,-0.0794 -2.5666,-7.4753 h -16.806003 l -2.6054,7.4752 -10.592,0.0794 z m 26.813,-13.752 c 0,-0.11447 -5.6096,-16.336 -5.6701,-16.397 -0.0376,-0.0376 -0.093,-0.0402 -0.12315,-0.006 -0.0301,0.0345 -1.2974,3.6646 -2.8162,8.0666 -1.5189,4.4021 -2.7927,8.0889 -2.8308,8.1928 -0.0546,0.14892 1.1454,0.18877 5.6854,0.18877 3.1651,0 5.7544,-0.0205 5.7544,-0.0453 z"
       id="path7"
       inkscape:connector-curvature="0"
       style="fill:#ff0000;stroke-width:0.15101001" />
  </g>
</svg>
