<?xml version="1.0" encoding="UTF-8"?>
<svg width="640" height="640" inkscape:version="0.92.4 (5da689c313, 2019-01-14)" sodipodi:docname="indicador_manualalm_45.svg" version="1.1" xmlns="http://www.w3.org/2000/svg" xmlns:cc="http://creativecommons.org/ns#" xmlns:dc="http://purl.org/dc/elements/1.1/" xmlns:inkscape="http://www.inkscape.org/namespaces/inkscape" xmlns:rdf="http://www.w3.org/1999/02/22-rdf-syntax-ns#" xmlns:sodipodi="http://sodipodi.sourceforge.net/DTD/sodipodi-0.dtd" xmlns:xlink="http://www.w3.org/1999/xlink">
 <metadata>
  <rdf:RDF>
   <cc:Work rdf:about="">
    <dc:format>image/svg+xml</dc:format>
    <dc:type rdf:resource="http://purl.org/dc/dcmitype/StillImage"/>
    <dc:title/>
   </cc:Work>
  </rdf:RDF>
 </metadata>
 <sodipodi:namedview bordercolor="#666666" borderopacity="1" gridtolerance="10" guidetolerance="10" inkscape:current-layer="svg26" inkscape:cx="150.76623" inkscape:cy="492.61388" inkscape:pageopacity="0" inkscape:pageshadow="2" inkscape:window-height="1017" inkscape:window-maximized="1" inkscape:window-width="1920" inkscape:window-x="1358" inkscape:window-y="-8" inkscape:zoom="0.7375" objecttolerance="10" pagecolor="#ffffff" showgrid="false"/>
 <defs>
  <path id="c1GPuNhv6q" d="m209.08 1.81c-174.32 21.04-267.23 220.62-169.3 363.71 10.25 14.98 12.65 18.62 90.53 137.13 41.43 63.05 77.08 116.64 79.23 119.09 15.51 17.68 41.63 17.68 57.14 0 3.28-3.73 156.72-236.22 160.1-242.57 0.62-1.17 4.52-7.22 8.66-13.44 110.99-166.87-26.56-388.02-226.36-363.92m55.29 43.33c149.9 21.75 212.26 203.33 106.94 311.4-104.4 107.12-286.33 53.98-316.34-92.4-25.45-124.15 82.8-237.36 209.4-219"/>
  <path id="amLhc2JGK" d="m324.47 238.27c0 1.19 0.070007 1.67 0.16 1.08 0.089996-0.59001 0.089996-1.56 0-2.15s-0.16-0.11-0.16 1.07"/>
 </defs>
 <path d="m460.32 381.84a200.68 201.36 0 0 1-203.5 198.48 200.68 201.36 0 0 1-197.81-204.19 200.68 201.36 0 0 1 203.5-198.48 200.68 201.36 0 0 1 197.81 204.19l-200.66-2.8537z" fill="#fff" stroke-width="0" sodipodi:cx="259.66101" sodipodi:cy="378.98303" sodipodi:end="0.014173051" sodipodi:rx="200.67792" sodipodi:ry="201.35593" sodipodi:start="0.014186246" sodipodi:type="arc"/>
 <ellipse transform="rotate(225)" cx="-452.55" cy="-88.94" rx="192.22" ry="184.44" fill="#fff"/>
 <use transform="rotate(225 320 320)" x="82.498833" y="2.5028131" width="100%" height="100%" fill="#ff0000" xlink:href="#c1GPuNhv6q"/>
 <use transform="rotate(225 320 320)" x="82.496094" y="2.5019529" width="100%" height="100%" fill="#b3c8e0" xlink:href="#amLhc2JGK"/>
 <use transform="rotate(225 320 320)" x="82.496094" y="2.5019529" width="100%" height="100%" xlink:href="#amLhc2JGK"/>
 <path d="m377.77 498.61h-59.469v-152.02l-42.967 98.656h-41.255l-42.967-98.656v152.02h-56.355v-227.05h69.432l52.152 113.9 51.996-113.9h69.432z" fill="#f00" stroke-width="7.8885" style="font-feature-settings:normal;font-variant-caps:normal;font-variant-ligatures:normal;font-variant-numeric:normal" inkscape:connector-curvature="0"/>
</svg>
