<?xml version="1.0" encoding="UTF-8" standalone="no"?>
<svg
   xmlns:dc="http://purl.org/dc/elements/1.1/"
   xmlns:cc="http://creativecommons.org/ns#"
   xmlns:rdf="http://www.w3.org/1999/02/22-rdf-syntax-ns#"
   xmlns:svg="http://www.w3.org/2000/svg"
   xmlns="http://www.w3.org/2000/svg"
   xmlns:xlink="http://www.w3.org/1999/xlink"
   xmlns:sodipodi="http://sodipodi.sourceforge.net/DTD/sodipodi-0.dtd"
   xmlns:inkscape="http://www.inkscape.org/namespaces/inkscape"
   width="97.804001mm"
   height="97.804001mm"
   inkscape:export-filename="C:\Users\jjimenez\OneDrive - IRC AUTOMATIZACION SLU\Escritorio\imagenes_svg\Nuevos indicadores\manual_on_abajo.png"
   inkscape:export-xdpi="96"
   inkscape:export-ydpi="96"
   inkscape:version="0.92.5 (2060ec1f9f, 2020-04-08)"
   sodipodi:docname="indicador_mantenimiento_90.svg"
   version="1.1"
   viewBox="0 0 97.803997 97.804"
   id="svg34">
  <defs
     id="defs3">
    <path
       id="amLhc2JGK"
       d="m 324.47,238.27 c 0,1.19 0.07,1.67 0.16001,1.08 0.09,-0.59002 0.09,-1.56 0,-2.15 -0.09,-0.59 -0.16001,-0.11 -0.16001,1.07"
       inkscape:connector-curvature="0" />
  </defs>
  <sodipodi:namedview
     id="base"
     bordercolor="#666666"
     borderopacity="1.0"
     fit-margin-bottom="0"
     fit-margin-left="0"
     fit-margin-right="0"
     fit-margin-top="0"
     inkscape:current-layer="g32"
     inkscape:cx="216.0794"
     inkscape:cy="184.94042"
     inkscape:document-rotation="0"
     inkscape:document-units="mm"
     inkscape:pageopacity="0"
     inkscape:pageshadow="2"
     inkscape:window-height="1017"
     inkscape:window-maximized="1"
     inkscape:window-width="1920"
     inkscape:window-x="-8"
     inkscape:window-y="-8"
     inkscape:zoom="1.979899"
     pagecolor="#ffffff"
     showgrid="false"
     inkscape:pagecheckerboard="true" />
  <metadata
     id="metadata6">
    <rdf:RDF>
      <cc:Work
         rdf:about="">
        <dc:format>image/svg+xml</dc:format>
        <dc:type
           rdf:resource="http://purl.org/dc/dcmitype/StillImage" />
        <dc:title></dc:title>
      </cc:Work>
    </rdf:RDF>
  </metadata>
  <g
     transform="translate(143.09,-103.53)"
     inkscape:groupmode="layer"
     inkscape:label="Capa 1"
     id="g32">
    <path
       d="m -113.55529,139.23798 a 30.869619,31.67144 0 0 1 43.40337,4.49206 30.869619,31.67144 0 0 1 -4.313559,44.53741 30.869619,31.67144 0 0 1 -43.416251,-4.35914 30.869619,31.67144 0 0 1 4.18398,-44.55041"
       sodipodi:cx="-94.046043"
       sodipodi:cy="163.78264"
       sodipodi:end="4.0223032"
       sodipodi:open="true"
       sodipodi:rx="30.869619"
       sodipodi:ry="31.67144"
       sodipodi:start="4.0282723"
       sodipodi:type="arc"
       id="path8"
       style="fill:#ffffff;stroke-width:0" />
    <use
       x="82.496094"
       y="2.5019529"
       width="100%"
       height="100%"
       xlink:href="#amLhc2JGK"
       id="use14"
       style="fill:#b3c8e0"
       transform="matrix(-0.06992296,-0.06992296,0.06992296,-0.06992296,-86.062621,169.97969)" />
    <use
       x="82.496094"
       y="2.5019529"
       width="100%"
       height="100%"
       xlink:href="#amLhc2JGK"
       id="use16"
       transform="matrix(-0.06992296,-0.06992296,0.06992296,-0.06992296,-86.062621,169.97969)" />
    <g
       id="g4842"
       transform="translate(13.00863)">
      <path
         style="fill:#ff9900;stroke-width:0.15101001"
         inkscape:connector-curvature="0"
         id="path10"
         d="m -110.19337,201.25 c -14.883,-1.4078 -27.088,-11.354 -31.407,-25.593 -0.95917,-3.162 -1.3527,-5.9188 -1.4663,-10.274 -0.13547,-5.1908 0.30476,-8.4964 1.6943,-12.723 1.3964,-4.2471 2.6112,-6.3087 13.054,-22.157 12.21,-18.53 16.73,-25.241 17.303,-25.692 1.2287,-0.96716 2.1509,-1.2866 3.7006,-1.2817 1.2073,0.004 2.2406,0.36319 3.3178,1.1539 0.82145,0.60301 3.0919,3.9519 16.635002,24.537 3.0328,4.6097 6.8235,10.352 8.4245,12.761 4.1166,6.1951 5.6803,9.5752 6.7065,14.497 0.86386,4.144 1.1759,9.969 0.71597,13.365 -0.57133,4.2188 -1.7693,8.1391 -3.5869,11.738 -5.3309,10.556 -15.588,17.882 -27.238002,19.456 -2.0576,0.27791 -6.0307,0.38599 -7.8526,0.21362 z m 5.6631,-6.3435 c 10.399002,-0.97527 19.396002,-7.1865 23.945002,-16.531 5.0302,-10.333 3.5881,-22.542 -3.7312,-31.588 -9.8172,-12.134 -27.906002,-14.35 -40.507002,-4.9622 -8.0672,6.0102 -12.633,15.976 -11.822,25.807 0.77533,9.4108 5.5308,17.451 13.39,22.64 5.3476,3.5306 12.259,5.2414 18.726,4.635 z m -23.717,-14.377 c 0.27998,-0.76934 3.649,-9.8594 7.4867,-20.2 3.8377,-10.341 7.0444,-18.988 7.126,-19.217 l 0.14857,-0.4153 h 12.626 l 0.14921,0.4153 c 0.082,0.2284 3.289002,8.876 7.126602,19.217 3.8375,10.341 7.2059,19.431 7.4862,20.2 l 0.5088,1.3988 -10.597,-0.0794 -2.5666,-7.4753 h -16.806002 l -2.6054,7.4752 -10.592,0.0794 z m 26.813,-13.752 c 0,-0.11447 -5.6096,-16.336 -5.6701,-16.397 -0.0376,-0.0376 -0.093,-0.0402 -0.12315,-0.006 -0.0301,0.0345 -1.2974,3.6646 -2.8162,8.0666 -1.5189,4.4021 -2.7927,8.0889 -2.8308,8.1928 -0.0546,0.14892 1.1454,0.18877 5.6854,0.18877 3.1651,0 5.7544,-0.0205 5.7544,-0.0453 z" />
      <g
         transform="translate(-71.435471,10.399969)"
         id="g4835">
        <path
           style="fill:#ffffff;stroke-width:0"
           id="path20"
           sodipodi:type="arc"
           sodipodi:start="0.014186246"
           sodipodi:ry="27.66251"
           sodipodi:rx="27.127968"
           sodipodi:end="0.014173051"
           sodipodi:cy="155.81964"
           sodipodi:cx="-35.970402"
           d="m -8.8451636,156.21206 a 27.127968,27.66251 0 0 1 -27.5099794,27.26731 27.127968,27.66251 0 0 1 -26.740499,-28.05196 27.127968,27.66251 0 0 1 27.509803,-27.2675 27.127968,27.66251 0 0 1 26.7406804,28.05178 l -27.1252434,-0.39205 z" />
        <g
           style="fill:#ff9900;stroke-width:0.26458001"
           id="g24"
           transform="matrix(0.0897223,0,0,0.0897223,-55.341461,133.1638)">
          <path
             style="fill:#ff9900"
             id="path22"
             inkscape:connector-curvature="0"
             d="m 478.41,116.62 c -0.368,-4.271 -3.181,-7.94 -7.2,-9.403 -4.029,-1.472 -8.539,-0.47 -11.57,2.556 l -62.015,62.011 -68.749,-21.768 -21.768,-68.748 62.016,-62.016 c 3.035,-3.032 4.025,-7.543 2.563,-11.565 C 370.21,3.657 366.55,0.85 362.27,0.48 324.607,-2.765 287.704,10.682 261.02,37.367 c -36.542,36.545 -46.219,89.911 -29.083,135.4 -1.873,1.578 -3.721,3.25 -5.544,5.053 L 19.383,373.16 c -0.073,0.071 -0.145,0.149 -0.224,0.219 -24.345,24.346 -24.345,63.959 0,88.309 24.349,24.344 63.672,24.048 88.013,-0.298 0.105,-0.098 0.201,-0.196 0.297,-0.305 l 193.63,-208.62 c 1.765,-1.773 3.404,-3.628 4.949,-5.532 45.5,17.167 98.9,7.513 135.47,-29.056 26.675,-26.687 40.131,-63.593 36.882,-101.25 z M 75.98,435.38 c -8.971,8.969 -23.5,8.963 -32.47,0 -8.967,-8.961 -8.967,-23.502 0,-32.466 8.97,-8.963 23.499,-8.963 32.47,0 8.967,8.964 8.967,23.505 0,32.466 z" />
        </g>
      </g>
    </g>
  </g>
</svg>
