<?xml version="1.0" encoding="UTF-8" standalone="no"?>
<svg
   xmlns:dc="http://purl.org/dc/elements/1.1/"
   xmlns:cc="http://creativecommons.org/ns#"
   xmlns:rdf="http://www.w3.org/1999/02/22-rdf-syntax-ns#"
   xmlns:svg="http://www.w3.org/2000/svg"
   xmlns="http://www.w3.org/2000/svg"
   xmlns:xlink="http://www.w3.org/1999/xlink"
   xmlns:sodipodi="http://sodipodi.sourceforge.net/DTD/sodipodi-0.dtd"
   xmlns:inkscape="http://www.inkscape.org/namespaces/inkscape"
   width="640"
   height="640"
   preserveAspectRatio="xMidYMid meet"
   version="1.1"
   id="svg14"
   sodipodi:docname="indicador_inha_135.svg"
   inkscape:version="0.92.4 (5da689c313, 2019-01-14)">
  <metadata
     id="metadata18">
    <rdf:RDF>
      <cc:Work
         rdf:about="">
        <dc:format>image/svg+xml</dc:format>
        <dc:type
           rdf:resource="http://purl.org/dc/dcmitype/StillImage" />
        <dc:title></dc:title>
      </cc:Work>
    </rdf:RDF>
  </metadata>
  <sodipodi:namedview
     pagecolor="#ffffff"
     bordercolor="#666666"
     borderopacity="1"
     objecttolerance="10"
     gridtolerance="10"
     guidetolerance="10"
     inkscape:pageopacity="0"
     inkscape:pageshadow="2"
     inkscape:window-width="1920"
     inkscape:window-height="1017"
     id="namedview16"
     showgrid="false"
     inkscape:zoom="1.0429825"
     inkscape:cx="325.21163"
     inkscape:cy="273.98014"
     inkscape:window-x="1358"
     inkscape:window-y="-8"
     inkscape:window-maximized="1"
     inkscape:current-layer="svg14" />
  <defs
     id="defs5">
    <path
       id="c1GPuNhv6q"
       d="m209.080002,1.81c-174.320011,21.04 -267.230011,220.619993 -169.300003,363.709989c10.25,14.980011 12.650002,18.620026 90.529999,137.130005c41.430008,63.050018 77.080002,116.639984 79.229996,119.089996c15.51001,17.679993 41.630005,17.679993 57.139999,0c3.279999,-3.72998 156.720001,-236.220001 160.100006,-242.569977c0.619995,-1.170013 4.519989,-7.220001 8.660004,-13.440002c110.98999,-166.87001 -26.559998,-388.020021 -226.360001,-363.920011m55.289993,43.329999c149.899994,21.75 212.26001,203.330002 106.940002,311.399979c-104.399994,107.120026 -286.329987,53.97998 -316.339996,-92.399963c-25.450001,-124.150009 82.800003,-237.360014 209.399994,-219.000015" />
    <path
       id="amLhc2JGK"
       d="m324.470001,238.270004c0,1.190002 0.070007,1.669998 0.160004,1.080002c0.089996,-0.590012 0.089996,-1.560013 0,-2.150009c-0.089996,-0.589996 -0.160004,-0.110001 -0.160004,1.070007" />
    <path
       id="aPMOIARQT"
       d="m469.660004,178.309998c1.380005,1.400009 2.600006,2.540009 2.709991,2.540009c0.110016,0 -0.929993,-1.139999 -2.320007,-2.540009c-1.379974,-1.389999 -2.599976,-2.539993 -2.709991,-2.539993c-0.109985,0 0.940002,1.149994 2.320007,2.539993m-61.800018,145.019989c1.130005,0.080017 2.890015,0.080017 3.900024,0c1.019989,-0.079987 0.089996,-0.149994 -2.059998,-0.149994c-2.150024,0 -2.980011,0.070007 -1.840027,0.149994" />
  </defs>
  <ellipse
     style="fill:#ffffff"
     ry="184.44476"
     rx="192.22256"
     id="svg_1"
     cy="-541.49298"
     cx="5.6843419e-14"
     transform="rotate(135)" />
  <use
     height="100%"
     width="100%"
     style="fill:#959595;fill-opacity:1"
     xlink:href="#c1GPuNhv6q"
     id="svg_4"
     y="2.5028131"
     x="82.498833"
     transform="rotate(135,320,320)" />
  <g
     id="svg_7"
     transform="rotate(135,320,320)">
    <use
       height="100%"
       width="100%"
       style="fill:#b3c8e0"
       xlink:href="#amLhc2JGK"
       id="svg_8"
       y="2.5019529"
       x="82.496094" />
    <g
       id="svg_9">
      <use
         height="100%"
         width="100%"
         xlink:href="#amLhc2JGK"
         id="svg_10"
         y="2.5019529"
         x="82.496094" />
    </g>
  </g>
  <rect
     id="rect832"
     height="307.45001"
     width="39.847"
     y="-536.61835"
     x="-402.81686"
     transform="scale(-1)"
     style="fill:#959595" />
</svg>
