<?xml version="1.0" encoding="UTF-8" standalone="no"?>
<svg
   xmlns:dc="http://purl.org/dc/elements/1.1/"
   xmlns:cc="http://creativecommons.org/ns#"
   xmlns:rdf="http://www.w3.org/1999/02/22-rdf-syntax-ns#"
   xmlns:svg="http://www.w3.org/2000/svg"
   xmlns="http://www.w3.org/2000/svg"
   xmlns:xlink="http://www.w3.org/1999/xlink"
   xmlns:sodipodi="http://sodipodi.sourceforge.net/DTD/sodipodi-0.dtd"
   xmlns:inkscape="http://www.inkscape.org/namespaces/inkscape"
   width="640"
   height="640"
   inkscape:version="0.92.4 (5da689c313, 2019-01-14)"
   sodipodi:docname="indicador_manualalm_135.svg"
   version="1.1"
   id="svg26">
  <metadata
     id="metadata2">
    <rdf:RDF>
      <cc:Work
         rdf:about="">
        <dc:format>image/svg+xml</dc:format>
        <dc:type
           rdf:resource="http://purl.org/dc/dcmitype/StillImage" />
        <dc:title></dc:title>
      </cc:Work>
    </rdf:RDF>
  </metadata>
  <sodipodi:namedview
     bordercolor="#666666"
     borderopacity="1"
     gridtolerance="10"
     guidetolerance="10"
     inkscape:current-layer="svg26"
     inkscape:cx="142.06407"
     inkscape:cy="292.58283"
     inkscape:pageopacity="0"
     inkscape:pageshadow="2"
     inkscape:window-height="1017"
     inkscape:window-maximized="1"
     inkscape:window-width="1920"
     inkscape:window-x="1358"
     inkscape:window-y="-8"
     inkscape:zoom="1.475"
     objecttolerance="10"
     pagecolor="#ffffff"
     showgrid="false"
     id="namedview4" />
  <defs
     id="defs8">
    <path
       id="c1GPuNhv6q"
       d="m209.08 1.81c-174.32 21.04-267.23 220.62-169.3 363.71 10.25 14.98 12.65 18.62 90.53 137.13 41.43 63.05 77.08 116.64 79.23 119.09 15.51 17.68 41.63 17.68 57.14 0 3.28-3.73 156.72-236.22 160.1-242.57 0.62-1.17 4.52-7.22 8.66-13.44 110.99-166.87-26.56-388.02-226.36-363.92m55.29 43.33c149.9 21.75 212.26 203.33 106.94 311.4-104.4 107.12-286.33 53.98-316.34-92.4-25.45-124.15 82.8-237.36 209.4-219" />
    <path
       id="amLhc2JGK"
       d="m324.47 238.27c0 1.19 0.070007 1.67 0.16 1.08 0.089996-0.59001 0.089996-1.56 0-2.15s-0.16-0.11-0.16 1.07" />
  </defs>
  <path
     d="m581 387.59a194.58 200.34 0 0 1-197.32 197.48 194.58 200.34 0 0 1-191.8-203.16 194.58 200.34 0 0 1 197.32-197.48 194.58 200.34 0 0 1 191.8 203.16l-194.56-2.8407z"
     fill="#fff"
     stroke-width="0"
     sodipodi:cx="386.4407"
     sodipodi:cy="384.74576"
     sodipodi:end="0.014179875"
     sodipodi:rx="194.57614"
     sodipodi:ry="200.33899"
     sodipodi:start="0.014186246"
     sodipodi:type="arc"
     id="path10" />
  <ellipse
     style="fill:#ffffff"
     id="ellipse12"
     ry="184.44"
     rx="192.22"
     cy="-541.48834"
     cx="5.6843419e-14"
     transform="rotate(135)" />
  <use
     height="100%"
     width="100%"
     style="fill:#ff0000"
     id="use14"
     xlink:href="#c1GPuNhv6q"
     y="2.5028131"
     x="82.498833"
     transform="rotate(135,320,320)" />
  <use
     height="100%"
     width="100%"
     style="fill:#b3c8e0"
     id="use16"
     xlink:href="#amLhc2JGK"
     y="2.5019529"
     x="82.496094"
     transform="rotate(135,320,320)" />
  <use
     height="100%"
     width="100%"
     id="use18"
     xlink:href="#amLhc2JGK"
     y="2.5019529"
     x="82.496094"
     transform="rotate(135,320,320)" />
  <g
     transform="scale(1.0104 .98967)"
     fill="#b3c8e0"
     aria-label="M"
     id="g24"
     style="fill:#ff0000">
    <path
       d="m498.68 501.07h-58.857v-153.61l-42.525 99.686h-40.83l-42.525-99.686v153.61h-55.775v-229.42h68.717l51.615 115.09 51.461-115.09h68.717z"
       fill="#b3c8e0"
       stroke-width="7.8886"
       style="font-feature-settings:normal;font-variant-caps:normal;font-variant-ligatures:normal;font-variant-numeric:normal;fill:#ff0000"
       id="path22" />
  </g>
</svg>
