<?xml version="1.0" encoding="UTF-8" standalone="no"?>
<svg
   width="97.805mm"
   height="97.805mm"
   version="1.1"
   viewBox="0 0 97.805 97.805"
   id="svg882"
   sodipodi:docname="indicador_mantenimiento_arriba_verde.svg"
   inkscape:version="1.1 (c68e22c387, 2021-05-23)"
   xmlns:inkscape="http://www.inkscape.org/namespaces/inkscape"
   xmlns:sodipodi="http://sodipodi.sourceforge.net/DTD/sodipodi-0.dtd"
   xmlns:xlink="http://www.w3.org/1999/xlink"
   xmlns="http://www.w3.org/2000/svg"
   xmlns:svg="http://www.w3.org/2000/svg">
  <sodipodi:namedview
     id="namedview884"
     pagecolor="#ffffff"
     bordercolor="#666666"
     borderopacity="1.0"
     inkscape:pageshadow="2"
     inkscape:pageopacity="0.0"
     inkscape:pagecheckerboard="0"
     inkscape:document-units="mm"
     showgrid="false"
     inkscape:zoom="2.0748982"
     inkscape:cx="184.82835"
     inkscape:cy="184.82835"
     inkscape:window-width="1920"
     inkscape:window-height="1017"
     inkscape:window-x="-8"
     inkscape:window-y="-8"
     inkscape:window-maximized="1"
     inkscape:current-layer="svg882" />
  <defs
     id="defs856">
    <path
       id="amLhc2JGK"
       d="m324.47 238.27c0 1.19 0.07 1.67 0.16001 1.08 0.09-0.59002 0.09-1.56 0-2.15s-0.16001-0.11-0.16001 1.07" />
  </defs>
  <use
     x="82.496094"
     y="2.5019529"
     width="100%"
     height="100%"
     fill="#b3c8e0"
     xlink:href="#amLhc2JGK"
     id="use858"
     transform="matrix(-0.069923,-0.069923,0.069923,-0.069923,106.11,127.804)" />
  <use
     x="82.496094"
     y="2.5019529"
     width="100%"
     height="100%"
     xlink:href="#amLhc2JGK"
     id="use860"
     transform="matrix(-0.069923,-0.069923,0.069923,-0.069923,106.11,127.804)" />
  <path
     d="m 29.72,37.851 a 30.87,31.671 0 0 1 43.403,4.492 30.87,31.671 0 0 1 -4.3136,44.537 30.87,31.671 0 0 1 -43.416,-4.3591 30.87,31.671 0 0 1 4.184,-44.55"
     fill="#ffffff"
     stroke-width="0"
     id="path864" />
  <path
     d="M 45.9,97.721 C 31.017,96.3132 18.812,86.367 14.493,72.128 13.53383,68.966 13.1403,66.2092 13.0267,61.854 12.89123,56.6632 13.33146,53.3576 14.721,49.131 16.1174,44.8839 17.3322,42.8223 27.775,26.974 39.985,8.444 44.505,1.733 45.078,1.282 46.3067,0.31484 47.2289,-0.0046 48.7786,3e-4 c 1.2073,0.004 2.2406,0.36319 3.3178,1.1539 0.82145,0.60301 3.0919,3.9519 16.635,24.537 3.0328,4.6097 6.8235,10.352 8.4245,12.761 4.1166,6.1951 5.6803,9.5752 6.7065,14.497 0.86386,4.144 1.1759,9.969 0.71597,13.365 -0.57133,4.2188 -1.7693,8.1391 -3.5869,11.738 -5.3309,10.556 -15.588,17.882 -27.238,19.456 -2.0576,0.27791 -6.0307,0.38599 -7.8526,0.21362 z m 5.6631,-6.3435 c 10.399,-0.97527 19.396,-7.1865 23.945,-16.531 5.0302,-10.333 3.5881,-22.542 -3.7312,-31.588 -9.8172,-12.134 -27.906,-14.35 -40.507,-4.9622 -8.0672,6.0102 -12.633,15.976 -11.822,25.807 0.77533,9.4108 5.5308,17.451 13.39,22.64 5.3476,3.5306 12.259,5.2414 18.726,4.635 z m -23.717,-14.377 c 0.27998,-0.76934 3.649,-9.8594 7.4867,-20.2 3.8377,-10.341 7.0444,-18.988 7.126,-19.217 l 0.14857,-0.4153 h 12.626 l 0.14921,0.4153 c 0.082,0.2284 3.289,8.876 7.1266,19.217 3.8375,10.341 7.2059,19.431 7.4862,20.2 l 0.5088,1.3988 -10.597,-0.0794 -2.5666,-7.4753 h -16.806 l -2.6054,7.4752 -10.592,0.0794 z m 26.813,-13.752 c 0,-0.11447 -5.6096,-16.336 -5.6701,-16.397 -0.0376,-0.0376 -0.093,-0.0402 -0.12315,-0.006 -0.0301,0.0345 -1.2974,3.6646 -2.8162,8.0666 -1.5189,4.4021 -2.7927,8.0889 -2.8308,8.1928 -0.0546,0.14892 1.1454,0.18877 5.6854,0.18877 3.1651,0 5.7544,-0.0205 5.7544,-0.0453 z"
     fill="#00ff00"
     stroke-width="0.15101"
     id="path866"
     style="fill:#00ff00" />
  <path
     d="M 75.419,62.251 A 27.128,27.663 0 0 1 47.909,89.518 27.128,27.663 0 0 1 21.169,61.466 27.128,27.663 0 0 1 48.679,34.198 27.128,27.663 0 0 1 75.42,62.25 L 48.295,61.85795 Z"
     fill="#ffffff"
     stroke-width="0"
     id="path868" />
  <g
     fill="#00ff00"
     id="g872"
     transform="matrix(0.08972169,0,0,0.08972169,28.9247,39.203436)"
     style="stroke-width:0.26458;fill:#00ff00">
    <path
       d="m 478.41,116.62 c -0.368,-4.271 -3.181,-7.94 -7.2,-9.403 -4.029,-1.472 -8.539,-0.47 -11.57,2.556 l -62.015,62.011 -68.749,-21.768 -21.768,-68.748 62.016,-62.016 c 3.035,-3.032 4.025,-7.543 2.563,-11.565 C 370.21,3.657 366.55,0.85 362.27,0.48 324.607,-2.765 287.704,10.682 261.02,37.367 c -36.542,36.545 -46.219,89.911 -29.083,135.4 -1.873,1.578 -3.721,3.25 -5.544,5.053 L 19.383,373.16 c -0.073,0.071 -0.145,0.149 -0.224,0.219 -24.345,24.346 -24.345,63.959 0,88.309 24.349,24.344 63.672,24.048 88.013,-0.298 0.105,-0.098 0.201,-0.196 0.297,-0.305 l 193.63,-208.62 c 1.765,-1.773 3.404,-3.628 4.949,-5.532 45.5,17.167 98.9,7.513 135.47,-29.056 26.675,-26.687 40.131,-63.593 36.882,-101.25 z M 75.98,435.38 c -8.971,8.969 -23.5,8.963 -32.47,0 -8.967,-8.961 -8.967,-23.502 0,-32.466 8.97,-8.963 23.499,-8.963 32.47,0 8.967,8.964 8.967,23.505 0,32.466 z"
       fill="#00ff00"
       id="path870"
       style="fill:#00ff00" />
  </g>
</svg>
