<?xml version="1.0" encoding="UTF-8" standalone="no"?>
<svg
   width="640"
   height="640"
   inkscape:version="1.1.2 (b8e25be833, 2022-02-05)"
   sodipodi:docname="indicador_manuallocalalm_315.svg"
   version="1.1"
   id="svg33"
   xmlns:inkscape="http://www.inkscape.org/namespaces/inkscape"
   xmlns:sodipodi="http://sodipodi.sourceforge.net/DTD/sodipodi-0.dtd"
   xmlns:xlink="http://www.w3.org/1999/xlink"
   xmlns="http://www.w3.org/2000/svg"
   xmlns:svg="http://www.w3.org/2000/svg"
   xmlns:rdf="http://www.w3.org/1999/02/22-rdf-syntax-ns#"
   xmlns:cc="http://creativecommons.org/ns#"
   xmlns:dc="http://purl.org/dc/elements/1.1/">
  <metadata
     id="metadata2">
    <rdf:RDF>
      <cc:Work
         rdf:about="">
        <dc:format>image/svg+xml</dc:format>
        <dc:type
           rdf:resource="http://purl.org/dc/dcmitype/StillImage" />
      </cc:Work>
    </rdf:RDF>
  </metadata>
  <sodipodi:namedview
     bordercolor="#666666"
     borderopacity="1"
     gridtolerance="10"
     guidetolerance="10"
     inkscape:current-layer="svg33"
     inkscape:cx="-177.62712"
     inkscape:cy="320"
     inkscape:pageopacity="0"
     inkscape:pageshadow="2"
     inkscape:window-height="1009"
     inkscape:window-maximized="1"
     inkscape:window-width="1920"
     inkscape:window-x="-8"
     inkscape:window-y="-8"
     inkscape:zoom="0.36875"
     objecttolerance="10"
     pagecolor="#ffffff"
     showgrid="false"
     id="namedview4"
     inkscape:pagecheckerboard="0" />
  <defs
     id="defs9">
    <path
       id="c1GPuNhv6q"
       d="m209.08 1.81c-174.32 21.04-267.23 220.62-169.3 363.71 10.25 14.98 12.65 18.62 90.53 137.13 41.43 63.05 77.08 116.64 79.23 119.09 15.51 17.68 41.63 17.68 57.14 0 3.28-3.73 156.72-236.22 160.1-242.57 0.62-1.17 4.52-7.22 8.66-13.44 110.99-166.87-26.56-388.02-226.36-363.92m55.29 43.33c149.9 21.75 212.26 203.33 106.94 311.4-104.4 107.12-286.33 53.98-316.34-92.4-25.45-124.15 82.8-237.36 209.4-219" />
    <path
       id="amLhc2JGK"
       d="m324.47 238.27c0 1.19 0.070007 1.67 0.16 1.08 0.089996-0.59001 0.089996-1.56 0-2.15s-0.16-0.11-0.16 1.07" />
    <path
       id="amLhc2JGK-7"
       d="m324.47 238.27c0 1.19 0.070007 1.67 0.16 1.08 0.089996-0.59001 0.089996-1.56 0-2.15s-0.16-0.11-0.16 1.07" />
  </defs>
  <path
     transform="rotate(-45)"
     d="m192.22 363.6a192.22 184.44 0 0 1-192.22 184.44 192.22 184.44 0 0 1-192.22-184.44 192.22 184.44 0 0 1 192.22-184.44 192.22 184.44 0 0 1 192.22 184.44z"
     fill="#fff"
     id="path11" />
  <use
     transform="rotate(-45,320,320)"
     x="82.498833"
     y="2.5028131"
     width="100%"
     height="100%"
     fill="#ff0000"
     xlink:href="#c1GPuNhv6q"
     id="use13"
     style="fill:#ff0000;fill-opacity:1" />
  <g
     transform="rotate(-45,320,320)"
     id="g19">
    <use
       x="82.496094"
       y="2.5019529"
       width="100%"
       height="100%"
       fill="#b3c8e0"
       xlink:href="#amLhc2JGK"
       id="use15" />
    <use
       x="82.496094"
       y="2.5019529"
       width="100%"
       height="100%"
       xlink:href="#amLhc2JGK"
       id="use17" />
  </g>
  <g
     transform="translate(-64.796 26.075)"
     id="g31"
     style="fill:#ff0000;fill-opacity:1">
    <use
       x="82.496094"
       y="2.5019529"
       width="100%"
       height="100%"
       fill="#b3c8e0"
       xlink:href="#amLhc2JGK-7"
       id="use21"
       style="fill:#ff0000;fill-opacity:1" />
    <use
       x="82.496094"
       y="2.5019529"
       width="100%"
       height="100%"
       xlink:href="#amLhc2JGK-7"
       id="use23"
       style="fill:#ff0000;fill-opacity:1" />
    <g
       transform="matrix(3.7795,0,0,3.7795,-1442.3,-43.766)"
       font-family="sans-serif"
       letter-spacing="0px"
       word-spacing="0px"
       id="g25"
       style="fill:#ff0000;fill-opacity:1" />
    <g
       transform="matrix(8.4236,0,0,10.059,-920.8,-648.08)"
       fill="#f00"
       aria-label="L"
       id="g29"
       style="fill:#ff0000;fill-opacity:1">
      <path
         d="m157.2 101.12h-19.799v-27.449h7.0788v22.14h12.72z"
         fill="#f00"
         stroke-width=".94384"
         style="font-feature-settings:normal;font-variant-caps:normal;font-variant-ligatures:normal;font-variant-numeric:normal;fill:#ff0000;fill-opacity:1"
         inkscape:connector-curvature="0"
         id="path27" />
    </g>
  </g>
</svg>
