<?xml version="1.0" encoding="UTF-8" standalone="no"?>
<!-- Created with Inkscape (http://www.inkscape.org/) -->

<svg
   version="1.1"
   id="svg2897"
   width="640"
   height="640"
   viewBox="0 0 640 640"
   sodipodi:docname="indicador_mantenimiento_45_verde.svg"
   inkscape:version="1.1 (c68e22c387, 2021-05-23)"
   xmlns:inkscape="http://www.inkscape.org/namespaces/inkscape"
   xmlns:sodipodi="http://sodipodi.sourceforge.net/DTD/sodipodi-0.dtd"
   xmlns="http://www.w3.org/2000/svg"
   xmlns:svg="http://www.w3.org/2000/svg">
  <defs
     id="defs2901" />
  <sodipodi:namedview
     id="namedview2899"
     pagecolor="#ffffff"
     bordercolor="#666666"
     borderopacity="1.0"
     inkscape:pageshadow="2"
     inkscape:pageopacity="0.0"
     inkscape:pagecheckerboard="0"
     showgrid="false"
     inkscape:zoom="1.1765625"
     inkscape:cx="320"
     inkscape:cy="320"
     inkscape:window-width="1920"
     inkscape:window-height="1017"
     inkscape:window-x="-8"
     inkscape:window-y="-8"
     inkscape:window-maximized="1"
     inkscape:current-layer="g2903" />
  <g
     inkscape:groupmode="layer"
     inkscape:label="Image"
     id="g2903">
    <ellipse
       style="fill:#ffffff;stroke:none;stroke-width:0;stroke-linecap:round;stroke-linejoin:round"
       id="path2120"
       cx="258.37982"
       cy="379.92032"
       rx="213.7583"
       ry="222.6826" />
    <g
       id="g3161">
      <path
         style="fill:#00ff00;stroke-width:0;stroke-linecap:round;stroke-linejoin:round"
         d="m 240.53121,611.87883 c -1.40239,-0.19297 -6.18327,-0.7516 -10.62417,-1.24139 -4.4409,-0.48979 -9.03055,-1.2241 -10.1992,-1.63181 -1.16866,-0.4077 -7.09695,-1.79224 -13.17398,-3.07675 -6.07702,-1.2845 -11.24037,-2.60333 -11.4741,-2.93071 -0.23373,-0.3274 -4.05843,-1.63567 -8.49934,-2.90727 -4.4409,-1.2716 -8.46147,-2.63219 -8.93462,-3.02354 -0.47314,-0.39133 -2.95919,-1.49827 -5.52456,-2.45986 -5.14744,-1.92941 -28.21246,-13.50545 -28.88743,-14.49822 -0.23373,-0.34378 -1.38114,-1.11073 -2.5498,-1.70433 -3.01996,-1.53396 -13.66102,-8.65443 -15.7049,-10.50895 -0.94531,-0.85773 -2.77053,-2.11058 -4.05606,-2.78411 -1.28552,-0.67353 -2.33731,-1.53585 -2.33731,-1.91628 0,-0.38043 -0.86056,-1.10409 -1.91235,-1.60816 -1.76473,-0.84572 -10.06912,-8.0231 -19.335993,-16.71185 -5.863382,-5.49759 -21.216187,-23.05423 -24.648074,-28.18622 -0.701196,-1.04855 -3.660266,-5.47763 -6.575711,-9.84241 -2.915446,-4.36477 -5.666986,-8.37501 -6.114534,-8.91166 -1.542849,-1.84999 -13.435313,-25.52308 -14.490015,-28.84377 -0.581349,-1.83036 -1.547935,-4.11376 -2.147966,-5.07423 -0.600031,-0.96046 -2.163253,-5.35886 -3.473826,-9.77423 -1.310574,-4.41537 -2.625372,-8.21918 -2.921774,-8.45291 -0.296403,-0.23373 -1.589873,-5.39708 -2.874379,-11.4741 -1.284506,-6.07703 -2.676898,-12.00531 -3.094204,-13.17397 -0.417306,-1.16866 -1.386354,-7.67065 -2.153441,-14.44887 -1.675744,-14.80742 -1.19146,-52.64718 0.826705,-64.59496 1.743469,-10.32154 6.308694,-30.71683 7.3245,-32.72244 0.473524,-0.93493 1.777974,-4.75963 2.898778,-8.49934 2.174773,-7.25641 5.413774,-15.31636 10.25414,-25.51646 1.64629,-3.46923 2.993254,-6.66916 2.993254,-7.11097 0,-0.44181 0.298978,-0.93077 0.664396,-1.0866 0.365417,-0.15582 1.79968,-2.57813 3.187251,-5.38291 1.38757,-2.80478 3.192178,-5.84104 4.010239,-6.74725 0.818061,-0.90621 1.487384,-1.96258 1.487384,-2.34751 0,-0.81567 7.640982,-12.59847 8.983772,-13.85345 0.500172,-0.46746 1.608216,-1.99734 2.462322,-3.39973 0.854104,-1.40239 2.064764,-3.12351 2.690357,-3.8247 0.625593,-0.7012 3.337321,-3.9522 6.026062,-7.22444 6.143101,-7.47626 19.195647,-20.593 27.094687,-27.22793 8.53593,-7.1699 9.24807,-7.72883 13.06885,-10.2573 1.88044,-1.24442 3.41897,-2.59421 3.41897,-2.99956 0,-0.40535 0.40345,-0.73699 0.89657,-0.73699 0.49311,0 3.07479,-1.4746 5.73705,-3.27689 2.66226,-1.80229 6.17913,-3.95924 7.81525,-4.79323 1.63612,-0.83399 3.166,-1.7762 3.39974,-2.0938 0.23373,-0.31761 2.33731,-1.47057 4.67463,-2.56214 2.33732,-1.09157 4.82337,-2.43808 5.52457,-2.99224 0.70119,-0.55417 3.56972,-1.90575 6.3745,-3.00352 2.80478,-1.09777 5.29084,-2.23986 5.52457,-2.53798 0.23373,-0.29813 3.67596,-1.64951 7.6494,-3.00307 3.97344,-1.35356 7.41567,-2.69456 7.6494,-2.97999 0.23374,-0.28544 4.44091,-1.60507 9.34927,-2.93251 4.90837,-1.32745 9.49801,-2.72386 10.19921,-3.10315 0.70119,-0.37928 6.05577,-1.64291 11.89907,-2.80806 25.76358,-5.13725 36.23721,-7.38099 37.82204,-8.10252 0.93493,-0.42564 7.24569,-1.75287 14.02391,-2.9494 6.77822,-1.19653 13.08897,-2.5211 14.0239,-2.9435 0.93493,-0.4224 7.05445,-1.77497 13.59894,-3.00572 20.17125,-3.79337 39.88365,-7.77992 41.22178,-8.33653 0.70119,-0.29166 7.39442,-1.70922 14.87384,-3.15013 23.37802,-4.50377 37.34821,-7.36334 38.67197,-7.91581 0.7012,-0.29264 7.01196,-1.51728 14.02391,-2.7214 7.01195,-1.20413 13.32271,-2.43027 14.0239,-2.72474 1.39912,-0.58758 23.60421,-5.0604 41.64675,-8.388988 6.31076,-1.164245 12.23904,-2.462544 13.17397,-2.885108 0.93493,-0.422565 7.62815,-1.762007 14.87384,-2.976537 7.24568,-1.21453 13.93891,-2.553815 14.87384,-2.97619 2.66393,-1.203496 12.36052,-2.57921 18.1793,-2.57921 5.02794,0 12.77988,1.401186 13.69321,2.475084 0.23373,0.274826 1.76361,1.118437 3.39973,1.874692 5.62019,2.597787 11.56596,8.873974 15.0238,15.858697 3.2257,6.51582 3.24977,6.64061 3.24977,16.84908 0,6.33128 -0.39387,11.06858 -1.02467,12.32404 -0.56356,1.12166 -2.02491,8.15891 -3.24744,15.63833 -1.22252,7.47941 -2.56692,14.36387 -2.98756,15.2988 -0.42063,0.93493 -1.56945,6.48075 -2.55292,12.32404 -0.98348,5.84329 -2.13248,11.38911 -2.55335,12.32404 -0.42088,0.93492 -1.74424,7.43692 -2.9408,14.44887 -1.19656,7.01195 -2.5241,13.51394 -2.95009,14.44887 -0.42597,0.93493 -1.83019,7.81939 -3.12048,15.2988 -1.29027,7.47942 -2.57107,13.79018 -2.84621,14.02391 -0.27514,0.23373 -1.51619,5.77955 -2.75789,12.32403 -1.2417,6.54449 -3.61511,18.49668 -5.27424,26.56043 -7.76417,37.73567 -9.21489,44.76644 -11.53089,55.88313 -1.36346,6.54449 -3.65658,18.0186 -5.09584,25.49801 -1.43926,7.47942 -2.95883,14.36388 -3.37683,15.29881 -0.418,0.93492 -1.7619,7.62815 -2.98647,14.87383 -1.22457,7.24569 -2.55819,13.93892 -2.96361,14.87384 -0.40543,0.93493 -1.57193,6.64874 -2.59223,12.69737 -1.0203,6.04862 -2.1921,11.59444 -2.60399,12.32404 -0.4119,0.72959 -1.73878,5.33967 -2.94862,10.2446 -1.20985,4.90493 -2.50367,9.30334 -2.87518,9.77423 -0.37149,0.4709 -1.53682,3.34223 -2.58962,6.38075 -1.94448,5.61203 -6.99759,17.22585 -8.50544,19.54847 -0.45521,0.70119 -1.98292,3.56972 -3.39489,6.3745 -1.41197,2.80478 -3.80615,7.07149 -5.32039,9.48158 -1.51425,2.41009 -3.87241,6.19223 -5.24036,8.40477 -1.36795,2.21254 -3.37592,4.98176 -4.46215,6.15382 -1.08624,1.17206 -1.97497,2.43267 -1.97497,2.80135 0,1.26292 -13.89204,17.35144 -21.60918,25.02581 -4.24244,4.21895 -10.58205,10.0794 -14.08803,13.02325 -3.50598,2.94384 -7.13944,6.02648 -8.07437,6.85028 -0.93493,0.82381 -2.84728,2.21188 -4.24967,3.08461 -1.40239,0.87273 -3.1235,2.08085 -3.8247,2.68472 -2.2105,1.90369 -12.73455,8.75807 -13.44693,8.75807 -0.37477,0 -1.42285,0.66932 -2.32906,1.48738 -0.90621,0.81807 -4.03809,2.6095 -6.95973,3.98098 -2.92165,1.37148 -5.31209,2.80574 -5.31209,3.18725 0,0.38151 -0.39227,0.69366 -0.87171,0.69366 -0.47943,0 -4.50609,1.72112 -8.94812,3.8247 -4.44204,2.10359 -8.43684,3.8247 -8.87735,3.8247 -0.4405,0 -2.82022,0.90346 -5.28825,2.00767 -11.10949,4.97047 -33.41974,10.99011 -51.23369,13.82362 -7.30449,1.16186 -51.05919,2.32899 -56.94555,1.51899 z m 34.84728,-43.73239 c 11.16483,-0.9486 25.45229,-3.14088 27.56069,-4.22892 0.73538,-0.37949 4.77928,-1.53983 8.98645,-2.57853 4.20717,-1.0387 9.06843,-2.60154 10.80279,-3.47299 1.73437,-0.87146 3.58782,-1.58446 4.11878,-1.58446 0.53096,0 3.70158,-1.29594 7.04581,-2.87988 3.34424,-1.58394 7.59691,-3.51112 9.45037,-4.28264 1.85348,-0.77151 3.5746,-1.67477 3.8247,-2.00723 0.25012,-0.33246 2.55835,-1.73144 5.1294,-3.10883 2.57105,-1.3774 5.0571,-2.81142 5.52457,-3.18673 0.46746,-0.37529 2.93783,-2.04918 5.48972,-3.71973 12.40944,-8.12365 32.43061,-27.17273 41.47405,-39.46038 2.92436,-3.97344 5.69092,-7.67958 6.1479,-8.23587 0.45699,-0.55628 1.55001,-2.2774 2.42895,-3.8247 1.60654,-2.82817 6.44345,-11.06131 7.89439,-13.43744 0.42817,-0.70119 1.74498,-3.37848 2.92625,-5.94953 1.18127,-2.57105 2.8939,-6.20452 3.80586,-8.07437 2.81569,-5.7732 5.96915,-14.91492 8.20923,-23.79814 1.1788,-4.67464 2.46758,-9.26428 2.86395,-10.1992 2.44955,-5.77769 4.53017,-31.31979 3.84252,-47.17132 -0.53631,-12.36289 -2.33431,-26.96151 -3.91925,-31.8219 -0.46639,-1.43022 -1.77409,-6.23388 -2.906,-10.67478 -2.03318,-7.97688 -6.7318,-21.60829 -8.04287,-23.33351 -0.37183,-0.48928 -1.33544,-2.58568 -2.14136,-4.65867 -1.27759,-3.2862 -5.30593,-10.89356 -11.33983,-21.41481 -2.54632,-4.44 -10.91765,-16.10085 -15.08929,-21.01865 -4.51502,-5.32258 -24.21544,-24.69704 -27.37442,-26.9215 -1.96833,-1.38602 -6.61621,-4.71926 -10.32861,-7.40717 -3.7124,-2.68792 -7.04395,-4.88712 -7.40342,-4.88712 -0.35948,0 -1.25741,-0.54066 -1.99542,-1.20148 -1.96626,-1.76059 -19.43205,-10.69759 -20.90656,-10.69759 -0.69225,0 -1.25864,-0.31272 -1.25864,-0.69493 0,-0.3822 -2.77291,-1.58778 -6.16202,-2.67906 -3.38911,-1.09128 -7.24887,-2.52763 -8.57724,-3.19189 -2.48018,-1.24024 -15.92003,-4.62334 -26.48252,-6.66623 -11.62656,-2.24869 -32.57373,-3.18028 -47.43638,-2.10966 -7.56736,0.54511 -16.43613,1.49852 -19.70837,2.11869 -8.57778,1.62569 -23.37373,5.42698 -26.34794,6.76916 -1.40239,0.63286 -4.65339,1.81727 -7.22444,2.63201 -2.57105,0.81476 -5.82204,2.1413 -7.22443,2.94789 -1.40239,0.80657 -4.74901,2.33379 -7.43692,3.39381 -2.68792,1.06002 -4.88712,2.26535 -4.88712,2.67852 0,0.41317 -0.51441,0.75122 -1.14313,0.75122 -0.62872,0 -3.51016,1.52988 -6.40318,3.39974 -2.89303,1.86985 -5.57377,3.39973 -5.9572,3.39973 -0.38343,0 -1.66744,0.89925 -2.85337,1.99832 -1.18592,1.09908 -2.69398,2.20468 -3.35124,2.4569 -1.84368,0.70748 -13.36141,10.03645 -19.82733,16.05945 -8.02265,7.47309 -20.22666,21.89494 -26.98586,31.89002 -5.513674,8.15327 -18.472051,32.65023 -18.472051,34.92019 0,0.62476 -0.75157,2.60914 -1.670157,4.40971 -0.918586,1.80059 -2.469884,6.47061 -3.447326,10.37783 -0.977442,3.90723 -2.131581,7.86899 -2.564753,8.80392 -2.302877,4.97036 -5.918477,33.43859 -5.911941,46.54898 0.0061,12.34761 3.703263,41.05357 5.936526,46.09378 0.414256,0.93492 1.759652,5.30674 2.98977,9.71515 1.230119,4.40841 2.783622,8.79629 3.45223,9.75087 0.668609,0.95457 1.215651,2.24845 1.215651,2.87528 0,1.25867 8.33334,19.05241 9.240337,19.73041 0.312675,0.23373 1.042359,1.50256 1.621521,2.81962 0.957224,2.17681 8.026203,13.40809 9.726733,15.45395 0.38856,0.46747 2.83193,3.69821 5.42973,7.17943 5.84634,7.83452 6.44764,8.51116 16.82105,18.92874 8.70181,8.73886 13.08699,12.3683 24.18349,20.01572 3.57302,2.46242 6.92887,4.82533 7.45744,5.25089 0.52857,0.42557 3.01463,1.83908 5.52457,3.14114 2.50994,1.30205 5.06893,2.85946 5.68665,3.46092 0.61772,0.60145 1.45949,1.09355 1.87061,1.09355 0.41111,0 4.35724,1.72111 8.76917,3.8247 4.41192,2.10358 8.46763,3.8247 9.01267,3.8247 0.54505,0 2.62905,0.74623 4.63114,1.65828 2.00208,0.91206 6.85759,2.45639 10.79002,3.43186 3.93244,0.97547 7.73704,2.09352 8.45468,2.48457 1.93372,1.05368 17.02487,3.44726 26.743,4.24166 12.41412,1.01478 24.13719,1.03072 35.69722,0.0485 z"
         id="path3001" />
      <path
         style="fill:#00ff00;stroke-width:0;stroke-linecap:round;stroke-linejoin:round"
         d="m 157.19522,501.17633 c -0.44409,-0.39019 -2.71979,-1.413 -5.05711,-2.27291 C 145.8772,496.6 138.78224,489.49584 136.166,482.9106 c -2.87789,-7.24384 -4.00133,-10.97549 -4.00133,-13.291 0,-2.47703 3.15817,-13.21081 4.88563,-16.60499 1.19745,-2.35278 12.31638,-13.69766 23.26667,-23.73947 2.51358,-2.30505 8.21115,-7.65963 12.66126,-11.89907 4.45011,-4.23944 13.97689,-13.25389 21.17062,-20.03211 7.19373,-6.77822 14.47905,-13.66269 16.1896,-15.29881 1.71055,-1.63612 8.21865,-7.75564 14.46244,-13.59893 6.24379,-5.8433 13.94072,-13.15472 17.10429,-16.2476 3.16355,-3.09288 7.92627,-7.53067 10.58379,-9.86174 l 4.83186,-4.23832 -1.48471,-5.43706 c -2.26002,-8.27624 -2.71104,-26.96105 -0.85335,-35.35267 2.47482,-11.1794 8.95012,-23.11123 16.99598,-31.31796 8.60524,-8.77729 16.85512,-13.84294 29.20085,-17.93011 7.58978,-2.51267 10.19726,-2.9702 17.67863,-3.10204 8.49431,-0.14969 8.84928,-0.0811 11.06918,2.1388 2.11515,2.11515 2.20211,2.4641 1.11862,4.48864 -0.64617,1.20736 -8.75044,9.7708 -18.0095,19.02987 -9.25907,9.25906 -16.83467,17.38853 -16.83467,18.06549 0,0.67696 0.32425,1.59418 0.72056,2.03827 0.3963,0.44409 1.77806,4.63214 3.07056,9.30677 1.2925,4.67464 2.62777,8.88181 2.96726,9.34927 0.33949,0.46746 1.487,4.15504 2.55002,8.19462 1.42532,5.41634 2.40964,7.59883 3.7491,8.31268 1.69945,0.90571 7.96657,2.89952 26.46441,8.41936 4.20717,1.25543 8.1516,2.60437 8.76538,2.99763 1.41963,0.90956 1.33595,0.9839 21.15164,-18.7875 9.33184,-9.31099 17.06792,-16.36123 17.95283,-16.36123 0.85523,0 2.41204,0.91233 3.45959,2.02739 1.771,1.88515 1.88185,2.64542 1.57995,10.83666 -0.97093,26.34354 -16.14968,48.78789 -40.63762,60.08955 -11.88557,5.48542 -30.9434,6.76826 -45.72734,3.07803 l -6.25769,-1.56198 -4.79145,5.08537 c -2.63528,2.79695 -7.27749,7.77075 -10.31601,11.05289 -8.89431,9.60743 -15.9004,17.15052 -26.7729,28.82501 -5.60957,6.02334 -12.33776,13.26443 -14.95154,16.09131 -2.61379,2.82688 -10.64566,11.46499 -17.84861,19.19579 -7.20295,7.7308 -16.92097,18.22501 -21.5956,23.32046 -12.3844,13.49926 -14.78916,15.666 -19.97344,17.99652 -2.57105,1.15578 -5.33877,2.46052 -6.15049,2.89941 -1.82721,0.98797 -15.30884,1.06068 -16.41525,0.0885 z m 15.96729,-22.14347 c 2.9363,-3.14787 3.19845,-3.83281 3.19553,-8.34922 -0.006,-8.78876 -4.3148,-13.27771 -12.74582,-13.27771 -8.10107,0 -12.73971,4.54151 -12.74583,12.4789 -0.007,8.99872 4.99992,13.62951 14.00926,12.95702 4.63596,-0.34604 5.37241,-0.68455 8.28686,-3.80899 z"
         id="path3040" />
    </g>
  </g>
</svg>
