<?xml version="1.0" encoding="UTF-8" standalone="no"?>
<svg
   xmlns:dc="http://purl.org/dc/elements/1.1/"
   xmlns:cc="http://creativecommons.org/ns#"
   xmlns:rdf="http://www.w3.org/1999/02/22-rdf-syntax-ns#"
   xmlns:svg="http://www.w3.org/2000/svg"
   xmlns="http://www.w3.org/2000/svg"
   xmlns:xlink="http://www.w3.org/1999/xlink"
   xmlns:sodipodi="http://sodipodi.sourceforge.net/DTD/sodipodi-0.dtd"
   xmlns:inkscape="http://www.inkscape.org/namespaces/inkscape"
   width="335"
   height="335"
   preserveAspectRatio="xMidYMid meet"
   version="1.1"
   id="svg12"
   sodipodi:docname="manual_local.svg"
   inkscape:version="0.92.5 (2060ec1f9f, 2020-04-08)">
  <metadata
     id="metadata16">
    <rdf:RDF>
      <cc:Work
         rdf:about="">
        <dc:format>image/svg+xml</dc:format>
        <dc:type
           rdf:resource="http://purl.org/dc/dcmitype/StillImage" />
        <dc:title></dc:title>
      </cc:Work>
    </rdf:RDF>
  </metadata>
  <sodipodi:namedview
     pagecolor="#ffffff"
     bordercolor="#666666"
     borderopacity="1"
     objecttolerance="10"
     gridtolerance="10"
     guidetolerance="10"
     inkscape:pageopacity="0"
     inkscape:pageshadow="2"
     inkscape:window-width="1920"
     inkscape:window-height="1017"
     id="namedview14"
     showgrid="false"
     inkscape:zoom="0.70447761"
     inkscape:cx="-91.553788"
     inkscape:cy="167.5"
     inkscape:window-x="-8"
     inkscape:window-y="-8"
     inkscape:window-maximized="1"
     inkscape:current-layer="svg12" />
  <defs
     id="defs3">
    <path
       d="m494.429993,278.529999l6.390015,0.649994l6.309998,0.899994l6.22998,1.150024l6.150024,1.389984l6.049988,1.630005l5.950012,1.850006l5.849976,2.079987l5.75,2.300018l5.630005,2.519989l5.51001,2.730011l5.390015,2.929993l5.269958,3.130005l5.130005,3.329987l4.990051,3.52002l4.849976,3.699982l4.700012,3.880005l4.539978,4.049988l4.390015,4.230011l4.219971,4.380005l4.059998,4.549988l3.880005,4.700012l3.700012,4.850006l3.52002,4.98999l3.320007,5.130005l3.130005,5.259979l2.940002,5.400024l2.719971,5.509979l2.52002,5.630005l2.299988,5.740021l2.080017,5.859985l1.859985,5.950012l1.619995,6.049988l1.390015,6.140015l1.149963,6.22998l0.900024,6.309998l0.649963,6.390015l0.400024,6.459991l0.130005,6.529999l-0.130005,6.519989l-0.400024,6.460022l-0.649963,6.389984l-0.900024,6.309998l-1.149963,6.230011l-1.390015,6.139984l-1.619995,6.050018l-1.859985,5.959991l-2.080017,5.850006l-2.299988,5.73999l-2.52002,5.630005l-2.719971,5.519989l-2.940002,5.390015l-3.130005,5.26001l-3.320007,5.130005l-3.52002,4.98999l-3.700012,4.849976l-3.880005,4.700012l-4.059998,4.549988l-4.219971,4.390015l-4.390015,4.220032l-4.539978,4.059998l-4.700012,3.880005l-4.849976,3.699951l-4.990051,3.51001l-5.130005,3.330017l-5.269958,3.130005l-5.390015,2.929993l-5.51001,2.72998l-5.630005,2.52002l-5.75,2.299988l-5.849976,2.080017l-5.950012,1.859985l-6.049988,1.619995l-6.150024,1.390015l-6.22998,1.150024l-6.309998,0.899963l-6.390015,0.650024l-6.449982,0.399963l-6.529999,0.130005l-6.529999,-0.130005l-6.460022,-0.399963l-6.380005,-0.650024l-6.309998,-0.899963l-6.22998,-1.150024l-6.149994,-1.390015l-6.050018,-1.619995l-5.949982,-1.859985l-5.850006,-2.080017l-5.75,-2.299988l-5.630005,-2.52002l-5.51001,-2.72998l-5.389984,-2.929993l-5.27002,-3.130005l-5.130005,-3.330017l-4.98999,-3.51001l-4.850006,-3.699951l-4.699982,-3.880005l-4.540009,-4.059998l-4.389984,-4.220032l-4.220001,-4.390015l-4.060028,-4.549988l-3.879974,-4.700012l-3.700012,-4.849976l-3.519989,-4.98999l-3.320007,-5.130005l-3.140015,-5.26001l-2.929993,-5.390015l-2.720001,-5.519989l-2.519989,-5.630005l-2.300018,-5.73999l-2.079987,-5.850006l-1.859985,-5.959991l-1.620026,-6.050018l-1.389984,-6.139984l-1.149994,-6.230011l-0.900024,-6.309998l-0.649994,-6.389984l-0.399994,-6.460022l-0.130005,-6.519989l0.130005,-6.529999l0.399994,-6.459991l0.649994,-6.390015l0.900024,-6.309998l1.149994,-6.22998l1.389984,-6.140015l1.620026,-6.049988l1.859985,-5.950012l2.079987,-5.859985l2.300018,-5.740021l2.519989,-5.630005l2.720001,-5.509979l2.929993,-5.400024l3.140015,-5.259979l3.320007,-5.130005l3.519989,-4.98999l3.700012,-4.850006l3.879974,-4.700012l4.060028,-4.549988l4.220001,-4.380005l4.389984,-4.230011l4.540009,-4.049988l4.699982,-3.880005l4.850006,-3.699982l4.98999,-3.52002l5.130005,-3.329987l5.27002,-3.130005l5.389984,-2.929993l5.51001,-2.730011l5.630005,-2.519989l5.75,-2.300018l5.850006,-2.079987l5.949982,-1.850006l6.050018,-1.630005l6.149994,-1.389984l6.22998,-1.150024l6.309998,-0.899994l6.380005,-0.649994l6.460022,-0.389984l6.529999,-0.140015l6.529999,0.140015l6.449982,0.389984zm-21.850006,50.110016l-4.359985,0.449982l-4.309998,0.610016l-4.25,0.789978l-4.200012,0.950012l-4.130005,1.109985l-4.069977,1.26001l-3.990021,1.429993l-3.919983,1.570007l-3.850006,1.720001l-3.76001,1.860016l-3.690002,2l-3.589996,2.139984l-3.5,2.269989l-3.410004,2.400024l-3.309998,2.529999l-3.209991,2.649994l-3.109985,2.769989l-2.990021,2.880005l-2.889984,3l-2.77002,3.100006l-2.649994,3.209991l-2.519989,3.309998l-2.399994,3.410004l-2.279999,3.51001l-2.140015,3.589996l-2,3.679993l-1.859985,3.769989l-1.720001,3.840027l-1.570007,3.929993l-1.420013,3.98999l-1.269989,4.070007l-1.110016,4.130005l-0.949982,4.190002l-0.779999,4.259979l-0.619995,4.309998l-0.440002,4.360016l-0.27002,4.410004l-0.089996,4.459991l0.089996,4.450012l0.27002,4.410004l0.440002,4.369995l0.619995,4.309998l0.779999,4.25l0.949982,4.190002l1.110016,4.139984l1.269989,4.059998l1.420013,4l1.570007,3.920013l1.720001,3.850006l1.859985,3.759979l2,3.680023l2.140015,3.599976l2.279999,3.5l2.399994,3.410004l2.519989,3.309998l2.649994,3.210022l2.77002,3.099976l2.889984,3.000031l2.990021,2.880005l3.109985,2.769958l3.209991,2.650024l3.309998,2.529968l3.410004,2.400024l3.5,2.27002l3.589996,2.139954l3.690002,2l3.76001,1.870056l3.850006,1.719971l3.919983,1.570007l3.990021,1.419983l4.069977,1.27002l4.130005,1.109985l4.200012,0.940002l4.25,0.789978l4.309998,0.610046l4.359985,0.449951l4.410004,0.27002l4.460022,0.090027l4.459991,-0.090027l4.410004,-0.27002l4.359985,-0.449951l4.309998,-0.610046l4.25,-0.789978l4.200012,-0.950012l4.130005,-1.099976l4.059998,-1.27002l4,-1.419983l3.919983,-1.570007l3.850037,-1.719971l3.759949,-1.870056l3.690002,-2l3.590027,-2.139954l3.5,-2.27002l3.409973,-2.400024l3.309998,-2.529968l3.210022,-2.650024l3.109985,-2.769958l2.98999,-2.880005l2.890015,-3.000031l2.77002,-3.099976l2.650024,-3.210022l2.519958,-3.309998l2.400024,-3.410004l2.279968,-3.5l2.130005,-3.599976l2.01001,-3.680023l1.859985,-3.759979l1.720032,-3.850006l1.570007,-3.920013l1.419983,-4l1.27002,-4.059998l1.109985,-4.139984l0.950012,-4.190002l0.779968,-4.25l0.619995,-4.309998l0.440002,-4.369995l0.27002,-4.410004l0.089966,-4.450012l-0.089966,-4.459991l-0.27002,-4.410004l-0.440002,-4.360016l-0.619995,-4.309998l-0.779968,-4.259979l-0.950012,-4.190002l-1.109985,-4.130005l-1.27002,-4.070007l-1.419983,-3.98999l-1.570007,-3.929993l-1.720032,-3.840027l-1.859985,-3.769989l-2.01001,-3.679993l-2.130005,-3.589996l-2.279968,-3.51001l-2.400024,-3.410004l-2.519958,-3.309998l-2.650024,-3.209991l-2.77002,-3.100006l-2.890015,-3l-2.98999,-2.880005l-3.109985,-2.769989l-3.210022,-2.649994l-3.309998,-2.529999l-3.409973,-2.400024l-3.5,-2.269989l-3.590027,-2.139984l-3.690002,-2l-3.759949,-1.860016l-3.850037,-1.720001l-3.919983,-1.570007l-4,-1.429993l-4.059998,-1.26001l-4.130005,-1.109985l-4.200012,-0.950012l-4.25,-0.789978l-4.309998,-0.610016l-4.359985,-0.449982l-4.410004,-0.26001l-4.459991,-0.089996l-4.460022,0.089996l-4.410004,0.26001z"
       id="d7WamHSsC" />
  </defs>
  <use
     height="100%"
     width="100%"
     style="fill:#f9891a;fill-opacity:1;stroke-width:4.9228836;stroke-miterlimit:4;stroke-dasharray:none;stroke:#f9891a;stroke-opacity:1"
     x="-313.94922"
     y="-269.05469"
     id="svg_6"
     xlink:href="#d7WamHSsC"
     transform="matrix(1.0134294,0,0,1.0179053,-4.3786784,-0.16016897)" />
  <circle
     style="fill:#ffffff;fill-opacity:1"
     r="130"
     cx="167.5"
     cy="167.5"
     id="svg_3" />
  <g
     id="svg_7">
    <use
       height="100%"
       width="100%"
       style="fill:#fecfa1;fill-opacity:0"
       x="-313.94922"
       y="-269.05469"
       id="svg_8"
       xlink:href="#d7WamHSsC" />
  </g>
  <g
     aria-label="L"
     style="font-weight:bold;font-size:240px;font-family:Oswald, sans-serif;text-anchor:start;fill:#f9891a;fill-opacity:1"
     id="svg_2">
    <path
       d="M 228.30122,250.89999 H 102.44185 V 76.407806 h 45 V 217.14999 h 80.85937 z"
       style="font-weight:bold;font-size:240px;font-family:Oswald, sans-serif;text-anchor:start;fill:#f9891a;fill-opacity:1"
       id="path4749" />
  </g>
</svg>
