<?xml version="1.0" encoding="utf-8"?>
<!-- Generator: Adobe Illustrator 23.0.3, SVG Export Plug-In . SVG Version: 6.00 Build 0)  -->
<svg version="1.1" xmlns="http://www.w3.org/2000/svg" xmlns:xlink="http://www.w3.org/1999/xlink" x="0px" y="0px"
	 viewBox="0 0 115.2 143.3" style="enable-background:new 0 0 115.2 143.3;" xml:space="preserve">
<style type="text/css">
	.st0{fill:#FFFFFF;}
	.st1{fill:none;stroke:#808080;stroke-width:0.1065;stroke-miterlimit:10;}
	.st2{fill:#C6C6C5;}
	.st3{fill:#868686;}
	.st4{fill:#D9D9D9;}
	.st5{fill:#9C9B9B;}
	.st6{fill:#ECECEC;}
	.st7{fill:#B1B1B1;}
	.st8{enable-background:new    ;}
	.st9{fill:#676767;}
	.st10{fill:#9A9A99;}
</style>
<g id="Capa_2">
</g>
<g id="Capa_1">
	<g>
		<path class="st2" d="M114.9,85.2l-76.7,44.1l-28-16.1l1.3,5.6l26.7,15.4l72.3-41.6l4.6-7.1L114.9,85.2z"/>
		<path class="st3" d="M38.3,129.3L8.4,111.6l-0.6,0.6l3.8,6.6l26.7,15.4V129.3z"/>
		<path class="st4" d="M110.7,92l-72.4,41.7v7.1l76.9-44.2v-2L110.7,92z"/>
		<path class="st2" d="M38.3,133.7l-26.6-15l-3.9,2.4l-0.1,2.1l30.6,17.6V133.7z"/>
		<path class="st2" d="M113.7,32.3L38.3,75.7L11,60.1l1,7.5l26.3,15.1l72.2-41.5l3.4-8.6L113.7,32.3z"/>
		<path class="st3" d="M38.3,75.7L9.2,58.5l-0.5,0.6l3.5,8.8l26.1,14.8V75.7z"/>
		<path class="st4" d="M110.6,40.5L38.3,82.2v7.9l76.8-44.2l0.1-1.3L110.6,40.5z"/>
		<path class="st2" d="M38.3,82.2L12,67.2l-3.8,4.4v1.2l30.1,17.2V82.2z"/>
		<path class="st4" d="M110.6,68.9l-72.3,41.7v8l76.9-44.3v-0.6l-1-1.7L110.6,68.9z"/>
		<path class="st2" d="M38.3,110.5L11.6,95.3l-2.7,3.6l-1.1,1.5v0.6l30.5,17.5V110.5z"/>
		<path class="st2" d="M115.1,94.5l-76.9,44.2L7.7,121.1v4.6l30.6,17.6l76.9-44.2V94.5z"/>
		<path class="st5" d="M38.3,138.8L7.7,121.1v4.6l30.6,17.6V138.8z"/>
		<path class="st6" d="M115.1,73.7l-76.9,44.2L7.7,100.4v11.7l30.5,17.5l76.9-44.2V73.7z"/>
		<path class="st5" d="M38.3,117.9L7.7,100.4v11.7l30.5,17.5V117.9z"/>
		<path class="st4" d="M107.2,15.9l-68.9,40v7.7l75-42.9l0.6-1.1l-2.7-4.1L107.2,15.9z"/>
		<path class="st2" d="M38.3,55.9L15.6,42.6l-4.6-0.8l-2.4,4.2v0.6l29.6,17V55.9z"/>
		<path class="st6" d="M113.9,19.6L38.3,63v13l75.6-43.4V19.6z"/>
		<path class="st5" d="M38.3,63L8.7,46v13l29.6,17V63z"/>
		<path class="st6" d="M115.1,44.6L38.3,88.8V116l76.9-44.2V44.6z"/>
		<path class="st7" d="M38.3,88.8l-30-17.2v27.2l30,17.2V88.8z"/>
		<path class="st6" d="M83.9,0L10.8,42.2l27.6,15.5l73-42.1L83.9,0z"/>
		<g>
			<polygon class="st6" points="36.1,89.6 36.1,106 28.3,110.3 3,95.7 11.3,91 11.3,79.6 			"/>
			<path class="st3" d="M25.3,104.9L0,90.3l3,5.4l25.3,14.6L25.3,104.9z"/>
			<path class="st7" d="M25.3,101.2L0,86.6v3.8L25.3,105V101.2z"/>
			<path class="st6" d="M36.1,89.6L10.8,75l-3.1,1.7L33,91.4L36.1,89.6z"/>
			<path class="st2" d="M33,91.4L7.7,76.8L0,86.7l25.3,14.6L33,91.4z"/>
		</g>
		<g>
			<g class="st8">
				<path class="st4" d="M85,12.7c-0.4,1.1-2.1,1.5-3.3,1.7c-1.5,0.3-2.7,0.4-3.8-0.5c-1.4-1.2-1.8-0.5-1.8-1.4c0,1.3,0,5.4,0,6.2
					c0,0.6,0,1.1,0.3,1.6c0.8,1.1,2.4,1.5,3.7,1.6c1.3,0.1,2.8-0.1,3.9-0.9c0.5-0.3,0.9-0.8,1-1.4c0-0.2,0-0.3,0-0.5
					C85,18.4,85.1,14.1,85,12.7c0-0.1,0-0.1,0-0.1C85.1,12.6,85.1,12.6,85,12.7z"/>
				<g>
					
						<ellipse transform="matrix(2.835012e-03 -1 1 2.835012e-03 67.815 93.0761)" class="st6" cx="80.6" cy="12.5" rx="2.6" ry="4.5"/>
				</g>
				<g>
					
						<ellipse transform="matrix(2.835012e-03 -1 1 2.835012e-03 67.8149 93.0762)" class="st5" cx="80.6" cy="12.5" rx="1.8" ry="3.1"/>
				</g>
			</g>
		</g>
		<g>
			<path class="st9" d="M52.2,32.1L49,30.3v5.1l3.2,1.8V32.1z"/>
			<path class="st9" d="M60.8,27.2l-3.2-1.8v5.1l3.2,1.8V27.2z"/>
			<path class="st10" d="M57.6,25.4L49,30.3l3.2,1.8l8.5-4.9L57.6,25.4z"/>
		</g>
	</g>
</g>
</svg>
