<?xml version="1.0" encoding="UTF-8" standalone="no"?>
<!-- Created with Inkscape (http://www.inkscape.org/) -->

<svg
   xmlns:dc="http://purl.org/dc/elements/1.1/"
   xmlns:cc="http://creativecommons.org/ns#"
   xmlns:rdf="http://www.w3.org/1999/02/22-rdf-syntax-ns#"
   xmlns:svg="http://www.w3.org/2000/svg"
   xmlns="http://www.w3.org/2000/svg"
   xmlns:sodipodi="http://sodipodi.sourceforge.net/DTD/sodipodi-0.dtd"
   xmlns:inkscape="http://www.inkscape.org/namespaces/inkscape"
   version="1.1"
   id="svg2"
   width="340.19055"
   height="323.50079"
   viewBox="0 0 340.19055 323.50079"
   sodipodi:docname="codo_der_arriba_verde.svg"
   inkscape:version="0.92.5 (2060ec1f9f, 2020-04-08)">
  <metadata
     id="metadata8">
    <rdf:RDF>
      <cc:Work
         rdf:about="">
        <dc:format>image/svg+xml</dc:format>
        <dc:type
           rdf:resource="http://purl.org/dc/dcmitype/StillImage" />
        <dc:title></dc:title>
      </cc:Work>
    </rdf:RDF>
  </metadata>
  <defs
     id="defs6" />
  <sodipodi:namedview
     pagecolor="#ffffff"
     bordercolor="#666666"
     borderopacity="1"
     objecttolerance="10"
     gridtolerance="10"
     guidetolerance="10"
     inkscape:pageopacity="0"
     inkscape:pageshadow="2"
     inkscape:window-width="1920"
     inkscape:window-height="1017"
     id="namedview4"
     showgrid="false"
     inkscape:pagecheckerboard="true"
     fit-margin-top="0"
     fit-margin-left="0"
     fit-margin-right="0"
     fit-margin-bottom="0"
     inkscape:zoom="0.72839506"
     inkscape:cx="-420.15048"
     inkscape:cy="428.33977"
     inkscape:window-x="-8"
     inkscape:window-y="-8"
     inkscape:window-maximized="1"
     inkscape:current-layer="svg2" />
  <g
     id="g4749"
     transform="translate(0.18849995,-0.5)">
    <path
       style="fill:#00bb00"
       d="M 0,293.24387 C 0,259.77015 1.1324423,245.8041 5.6113317,224.04112 28.071442,114.90716 113.96462,29.085379 223.26563,6.5677362 244.5027,2.1925813 260.20155,1.0296733 301.7505,0.75388982 L 340.001,0.5 l -5e-4,88.678738 -5e-4,88.678742 -39.75,0.3715 -39.75,0.3715 -8.79938,2.70969 c -18.18937,5.60125 -31.79301,13.70495 -44.73925,26.6512 -17.85422,17.85421 -27.71467,39.05816 -29.96059,64.42731 -0.54102,6.11122 -0.98752,20.22382 -0.99223,31.36132 L 176,324 H 88 0 Z"
       id="path4787"
       inkscape:connector-curvature="0" />
    <path
       style="fill:#00b300"
       d="M 0,293.24387 C 0,272.1341 0.47521676,258.42524 1.5151651,249.53499 14.639191,137.34109 91.481487,45.30892 199.3326,12.613804 211.68406,8.869452 232.08373,4.4303437 241,3.5466927 c 3.025,-0.2997942 -0.0973,0.5529516 -6.93838,1.8949906 -21.3728,4.1927585 -40.06774,10.9416447 -49.86527,18.0013957 -4.3829,3.15816 -5.25094,4.276063 -5,6.439271 0.28576,2.463469 0.6865,2.6471 6.80365,3.11765 3.575,0.275 9.65,0.175592 13.5,-0.220906 32.59894,-3.357254 59.03396,-4.715215 98.25,-5.047077 L 340,27.37448 v 75.2415 75.2415 l -39.75,0.3715 -39.75,0.3715 -8.79938,2.70969 c -18.18937,5.60125 -31.79301,13.70495 -44.73925,26.6512 -17.85422,17.85421 -27.71467,39.05816 -29.96059,64.42731 -0.54102,6.11122 -0.98752,20.22382 -0.99223,31.36132 L 176,324 H 88 0 Z M 250.76166,2.2927391 c 1.24391,-0.2391932 3.04391,-0.2301119 4,0.020181 C 255.71775,2.5632124 254.7,2.758916 252.5,2.7478166 250.3,2.7367172 249.51775,2.5319324 250.76166,2.2927391 Z M 261.75,1.2766044 c 1.7875,-0.2218267 4.7125,-0.2218267 6.5,0 1.7875,0.2218268 0.325,0.4033215 -3.25,0.4033215 -3.575,0 -5.0375,-0.1814947 -3.25,-0.4033215 z"
       id="path4785"
       inkscape:connector-curvature="0" />
    <path
       style="fill:#00ab00"
       d="M 0,293.24387 C 0,259.77015 1.1324423,245.8041 5.6113317,224.04112 20.357802,152.38783 63.660544,88.237533 124.64923,47.693929 c 10.05439,-6.683884 35.02279,-20.70151 36.84361,-20.684545 0.55394,0.0052 -1.4457,1.415868 -4.44363,3.134905 C 141.96762,38.792173 130,50.146835 130,55.808086 c 0,6.93998 9.85878,6.726465 42.87251,-0.928505 C 229.62162,41.721037 236.40288,40.905447 294.25,40.281363 L 340,39.78779 v 69.03484 69.03485 l -39.75,0.3715 -39.75,0.3715 -8.79938,2.70969 c -18.18937,5.60125 -31.79301,13.70495 -44.73925,26.6512 -17.85422,17.85421 -27.71467,39.05816 -29.96059,64.42731 -0.54102,6.11122 -0.98752,20.22382 -0.99223,31.36132 L 176,324 H 88 0 Z"
       id="path4783"
       inkscape:connector-curvature="0" />
    <path
       style="fill:#00a300"
       d="M 0,293.24387 C 0,259.77015 1.1324423,245.8041 5.6113317,224.04112 14.420486,181.23733 33.424145,140.79559 61.180489,105.78423 75.870302,87.254769 99.976396,64.65904 119,51.587398 c 4.69621,-3.226893 4.91542,-3.302892 1.5,-0.520027 -12.53923,10.216883 -23.549845,24.737239 -23.466731,30.946982 0.05268,3.936233 3.022591,6.616977 8.189061,7.391737 5.52269,0.828178 17.01625,-2.046636 35.7992,-8.954236 C 165.61716,71.406586 188.84265,63.807577 202,60.500673 234.1283,52.425702 247.08462,51.054702 298.25,50.315781 L 340,49.712834 v 64.072316 64.07233 l -39.75,0.3715 -39.75,0.3715 -8.79938,2.70969 c -18.18937,5.60125 -31.79301,13.70495 -44.73925,26.6512 -17.85422,17.85421 -27.71467,39.05816 -29.96059,64.42731 -0.54102,6.11122 -0.98752,20.22382 -0.99223,31.36132 L 176,324 H 88 0 Z"
       id="path4781"
       inkscape:connector-curvature="0" />
    <path
       style="fill:#009d00"
       d="M 0,293.24387 C 0,259.77015 1.1324423,245.8041 5.6113317,224.04112 17.51621,166.19516 49.007993,111.26281 92.277759,72.865476 L 100.5,65.569107 93.435093,73.034553 c -8.559697,9.044984 -12.387845,14.537562 -15.826732,22.707993 -3.044085,7.232424 -3.264582,10.951974 -0.894087,15.082324 2.159727,3.76311 7.606667,5.54179 14.08273,4.59868 6.08855,-0.88668 21.130636,-6.86826 35.950086,-14.29579 C 161.85864,83.529832 190.08732,72.470946 215,66.553747 c 26.47154,-6.287453 39.69729,-7.469054 87.25002,-7.794996 L 340.00005,58.5 l -3e-5,59.67874 -2e-5,59.67874 -39.75,0.3715 -39.75,0.3715 -8.79938,2.70969 c -18.18937,5.60125 -31.79301,13.70495 -44.73925,26.6512 -17.85422,17.85421 -27.71467,39.05816 -29.96059,64.42731 -0.54102,6.11122 -0.98752,20.22382 -0.99223,31.36132 L 176,324 H 88 0 Z"
       id="path4779"
       inkscape:connector-curvature="0" />
    <path
       style="fill:#009900"
       d="M 0,293.24387 C 0,259.77015 1.1324423,245.8041 5.6113317,224.04112 15.879223,174.14931 41.563691,124.64848 75.420612,89.5 c 5.346324,-5.550273 5.919272,-5.964481 2.766477,-2 -19.854092,24.96552 -20.947867,47.5 -2.305547,47.5 9.007854,0 20.521361,-5.372 53.784908,-25.09511 39.47753,-23.407598 75.60691,-37.120189 113.4441,-43.056724 11.51344,-1.806422 19.23908,-2.168041 55.13945,-2.580954 L 340,63.78702 v 57.03523 57.03523 l -39.75,0.3715 -39.75,0.3715 -8.79938,2.70969 c -18.18937,5.60125 -31.79301,13.70495 -44.73925,26.6512 -17.85422,17.85421 -27.71467,39.05816 -29.96059,64.42731 -0.54102,6.11122 -0.98752,20.22382 -0.99223,31.36132 L 176,324 H 88 0 Z"
       id="path4777"
       inkscape:connector-curvature="0" />
    <path
       style="fill:#009500"
       d="M 0,293.24387 C 0,259.77015 1.1324423,245.8041 5.6113317,224.04112 14.342351,181.61699 33.259566,141.15298 60.468093,106.70227 64.682562,101.36602 68.295861,97 68.497647,97 c 0.201786,0 -2.049273,3.84849 -5.002353,8.5522 -13.640795,21.72726 -13.075564,41.7422 1.27684,45.2132 C 73.087807,152.77647 87.235645,146.83759 107,133.03929 146.1715,105.69207 173.18677,91.088192 202.35305,81.493472 235.27449,70.663435 248.34901,69 300.55122,69 H 340 v 54.42874 54.42874 l -39.75,0.3715 -39.75,0.3715 -8.79938,2.70969 c -18.18937,5.60125 -31.79301,13.70495 -44.73925,26.6512 -17.85422,17.85421 -27.71467,39.05816 -29.96059,64.42731 -0.54102,6.11122 -0.98752,20.22382 -0.99223,31.36132 L 176,324 H 88 0 Z"
       id="path4775"
       inkscape:connector-curvature="0" />
    <path
       style="fill:#009100"
       d="M 0,293.24387 C 0,243.71524 4.6133055,216.00712 19.116164,178.42967 27.3363,157.13099 46.696161,122.90694 57.542612,110.5 l 2.622674,-3 -1.957137,3 C 50.622659,122.12743 46,135.66244 46,146.24512 c 0,14.16741 6.115445,21.6207 17.81554,21.71296 10.119488,0.0798 20.925398,-6.60792 55.68446,-34.46283 33.23157,-26.63083 69.05591,-44.904484 105.62157,-53.876571 21.68931,-5.321889 27.54874,-5.833443 72.62843,-6.340782 L 340,72.802403 v 52.527537 52.52754 l -39.75,0.3715 -39.75,0.3715 -8.79938,2.70969 c -18.18937,5.60125 -31.79301,13.70495 -44.73925,26.6512 -17.85422,17.85421 -27.71467,39.05816 -29.96059,64.42731 -0.54102,6.11122 -0.98752,20.22382 -0.99223,31.36132 L 176,324 H 88 0 Z"
       id="path4773"
       inkscape:connector-curvature="0" />
    <path
       style="fill:#008d00"
       d="M 0,293.24387 C 0,253.64888 2.0610978,235.19666 9.6333719,207 15.621906,184.70067 28.111857,155.48985 39.991529,136 c 6.846616,-11.23259 7.690785,-11.89521 4.458937,-3.5 -4.035622,10.48314 -5.420101,17.13547 -5.41111,26 0.01461,14.40645 6.093176,24.35958 16.570019,27.13199 10.221262,2.70479 22.034284,-4.07979 45.233635,-25.97905 C 151.28521,112.03751 189.72549,90.592591 242,80.904786 c 10.25548,-1.900604 16.18046,-2.183612 54.75,-2.615153 L 340,77.805724 v 50.025876 50.02588 l -39.75,0.3715 -39.75,0.3715 -8.79938,2.70969 c -18.18937,5.60125 -31.79301,13.70495 -44.73925,26.6512 -17.85422,17.85421 -27.71467,39.05816 -29.96059,64.42731 -0.54102,6.11122 -0.98752,20.22382 -0.99223,31.36132 L 176,324 h -15.0914 -15.09139 l 0.723,-21.85784 0.72301,-21.85784 -7.71692,-7.64216 C 135.302,268.43897 131.11222,265 130.23569,265 c -0.87653,0 -3.0906,-0.54129 -4.92014,-1.20286 -3.2169,-1.16325 -3.47429,-1.05776 -7.81589,3.2032 -7.28724,7.15188 -7.75278,9.36297 -7.34898,34.90439 L 110.5,324.00079 55.25,324.00039 0,324 Z"
       id="path4771"
       inkscape:connector-curvature="0" />
    <path
       style="fill:#008900"
       d="M 0,293.24387 C 0,272.23678 0.47665838,258.41292 1.5037558,249.63253 5.3785794,216.50766 13.967949,187.20613 28.538766,157.40606 36.11277,141.9158 41.120836,134.54536 37.043606,144.88937 25.864404,173.25123 37.360205,206 58.495273,206 c 9.023612,0 15.140526,-4.30441 33.925705,-23.87319 24.436342,-25.45567 42.780512,-43.28241 53.094832,-51.59719 27.52412,-22.1883 54.65686,-34.868444 88.75853,-41.480176 C 251.78995,85.653468 262.71263,85 301.96059,85 H 340 v 46.42874 46.42874 l -39.75,0.3715 -39.75,0.3715 -8.79938,2.70969 c -18.18937,5.60125 -31.79301,13.70495 -44.73925,26.6512 -17.85422,17.85421 -27.71467,39.05816 -29.96059,64.42731 -0.54102,6.11122 -0.98752,20.22382 -0.99223,31.36132 L 176,324 h -8.94863 -8.94862 L 157.80137,300.75 157.5,277.5 153.69655,269 c -2.0919,-4.675 -4.85917,-10.975 -6.14948,-14 -1.29032,-3.025 -3.74127,-8.68589 -5.44655,-12.57976 C 140.39523,238.52638 139,234.77084 139,234.07461 c 0,-0.69623 -0.85347,-2.46446 -1.89661,-3.92941 -1.04313,-1.46494 -2.38807,-4.48872 -2.98876,-6.7195 -0.60069,-2.23078 -2.18414,-5.08182 -3.51879,-6.33566 -1.33464,-1.25383 -2.69827,-3.36203 -3.03028,-4.68487 -0.50173,-1.99904 -1.23366,-2.40748 -4.33461,-2.41882 -2.05202,-0.008 -4.63095,-0.23474 -5.73095,-0.50494 -3.62292,-0.88994 -12.68442,14.77086 -17.947661,31.01859 -5.676954,17.52485 -6.761518,26.90425 -6.619966,57.25 L 93.05482,324 H 46.52741 0 Z"
       id="path4769"
       inkscape:connector-curvature="0" />
    <path
       style="fill:#008500"
       d="M 0.26652986,287.75 C 0.74809242,249.38627 1.3171341,243.26732 6.6600477,219 10.03018,203.69298 18.030224,179.70552 23.618043,168.15288 c 2.486575,-5.14092 4.663417,-9.19092 4.837428,-9 0.174011,0.19091 -0.142755,5.25274 -0.703923,11.24849 -1.628226,17.39664 1.205348,30.78504 9.015744,42.59863 2.98796,4.51943 10.748525,11.71965 13.551019,12.57257 1.199929,0.3652 2.859431,1.25618 3.687783,1.97997 0.957182,0.83635 3.691984,1.23697 7.503704,1.09921 4.916935,-0.1777 6.843627,-0.79883 10.692885,-3.44719 2.582401,-1.77674 4.970543,-3.67583 5.306984,-4.2202 0.397706,-0.6435 1.325033,-0.60801 2.650677,0.10145 1.504354,0.80511 1.908105,1.77579 1.539869,3.70209 -0.274505,1.43598 -0.124326,3.5966 0.333729,4.80137 0.476272,1.25269 0.190697,10.05098 -0.667031,20.55062 -1.124413,13.76419 -1.336074,25.30652 -0.845559,46.11011 l 0.6543,27.75 H 40.493576 -0.18849995 Z M 165,302.48734 c 0,-18.89956 -0.25535,-22.39176 -2.10223,-28.75 -8.04361,-27.69177 -10.81343,-42.30649 -11.56499,-61.02175 -0.95169,-23.69901 1.6389,-36.17134 11.38753,-54.82499 14.51711,-27.77795 47.77981,-50.12836 87.77969,-58.982347 9.16116,-2.027825 13.3344,-2.249342 49.75,-2.640735 L 340,95.840288 v 41.008592 41.0086 l -39.75,0.3715 -39.75,0.3715 -8.79938,2.70969 c -18.18937,5.60125 -31.79301,13.70495 -44.73925,26.6512 -17.85422,17.85421 -27.71467,39.05816 -29.96059,64.42731 -0.54102,6.11122 -0.98752,20.22382 -0.99223,31.36132 L 176,324 h -5.5 -5.5 z"
       id="path4767"
       inkscape:connector-curvature="0" />
    <path
       style="fill:#008100"
       d="M 0,293.24387 C 0,259.82009 1.1348037,245.78315 5.5821354,224.19573 10.344617,201.07857 17.38212,180.65635 20.903113,179.73559 c 1.538685,-0.40238 1.7165,0.67814 1.753982,10.65832 0.05518,14.6922 3.452616,26.7954 11.11443,39.59463 4.434952,7.40869 16.621343,20.57135 21.921051,23.67719 C 58.061659,255.0541 60,256.57689 60,257.04971 c 0,0.47281 1.493647,1.13987 3.319215,1.48235 2.94096,0.55173 3.524154,1.22561 5.11756,5.91333 2.07194,6.09555 2.503288,23.03987 1.166041,45.80461 L 68.795112,324 H 34.397556 0 Z m 169.43668,8.00404 c -0.0391,-14.05595 -0.50534,-24.27631 -1.22013,-26.74791 -4.87889,-16.87018 -7.61865,-54.23584 -5.2569,-71.695 2.3336,-17.25106 7.52999,-30.7907 17.56624,-45.77033 16.35947,-24.41738 44.26947,-42.19442 77.97411,-49.66495 6.53614,-1.44872 14.72481,-1.8735 44.75103,-2.32145 l 36.75103,-0.54827 -10e-4,36.67874 -10e-4,36.67874 -39.75,0.3715 -39.75,0.3715 -8.79938,2.70969 c -18.18937,5.60125 -31.79301,13.70495 -44.73925,26.6512 -17.85422,17.85421 -27.71467,39.05816 -29.96059,64.42731 -0.54102,6.11122 -0.98752,20.22382 -0.99223,31.36132 L 176,324 l -3.25,-0.002 -3.25,-0.002 -0.0633,-22.74792 z"
       id="path4765"
       inkscape:connector-curvature="0" />
    <path
       style="fill:#007d00"
       d="M 0,293.24387 C 0,259.76227 1.1334824,245.78957 5.6136979,224.04253 8.5419976,209.82851 10.256288,204.83952 14.905911,197 l 3.26205,-5.5 -0.505346,4.37318 c -0.930012,8.04817 3.327949,27.83154 8.616794,40.0354 3.291655,7.5954 11.177897,21.18359 15.433324,26.59199 0.432997,0.55032 2.362267,3.15335 4.287267,5.78452 1.925,2.63117 4.7375,6.40529 6.25,8.38693 2.701981,3.54008 2.75,3.85114 2.75,17.81461 0,7.81639 0.291031,17.65451 0.646736,21.86249 L 56.293472,324 H 28.146736 0 Z M 171.70463,297.25 c -0.24227,-14.7125 -0.96645,-30.35 -1.60928,-34.75 -0.64283,-4.4 -1.20628,-16.325 -1.25212,-26.5 -0.0982,-21.78476 1.84954,-33.83042 8.20664,-50.75485 13.6766,-36.411 47.8353,-63.38549 89.49474,-70.67233 6.8824,-1.20383 16.42062,-1.56717 41.20539,-1.56963 L 340,113 v 32.42874 32.42874 l -39.75,0.3715 -39.75,0.3715 -8.79938,2.70969 c -18.18937,5.60125 -31.79301,13.70495 -44.73925,26.6512 -17.85422,17.85421 -27.71467,39.05816 -29.96059,64.42731 -0.54102,6.11122 -0.98752,20.22382 -0.99223,31.36132 -0.008,19.32624 -0.0965,20.25 -1.93598,20.25 -1.84423,0 -1.94645,-1.15474 -2.36794,-26.75 z"
       id="path4763"
       inkscape:connector-curvature="0" />
    <path
       style="fill:#007900"
       d="M 0,293.24387 C 0,251.41163 2.1061122,232.9813 8.3977906,219.75582 11.35352,213.5427 11.948982,212.82334 12.541411,214.75 c 0.380518,1.2375 1.061795,2.25 1.513947,2.25 0.452153,0 1.09808,2.1375 1.435394,4.75 1.761154,13.64015 9.996422,34.58 19.864802,50.5103 l 4.48479,7.2397 0.716142,22.25 0.716141,22.25 H 20.636314 0 Z M 173.6119,280.25 c -0.73629,-45.97038 -0.30605,-54.86244 3.4356,-71.00615 3.724,-16.06754 8.90545,-27.89199 18.16017,-41.44289 12.8732,-18.84914 33.77337,-34.28038 56.47623,-41.69814 C 268.49317,120.61068 274.18955,120 308.61047,120 H 340 v 28.92874 28.92874 l -39.75,0.3715 -39.75,0.3715 -8.79938,2.70969 c -18.18937,5.60125 -31.79301,13.70495 -44.73925,26.6512 -17.85422,17.85421 -27.71467,39.05816 -29.96059,64.42731 -0.54102,6.11122 -0.98752,20.22382 -0.99223,31.36132 -0.005,11.1375 -0.38821,20.25 -0.85223,20.25 -0.46403,0 -1.15902,-19.6875 -1.54442,-43.75 z"
       id="path4761"
       inkscape:connector-curvature="0" />
    <path
       style="fill:#007300"
       d="M 0.00755416,292.75 C 0.01170894,275.5625 0.48490085,258.60451 1.0590917,255.06558 2.3702488,246.98448 5.5025198,239.34082 9.0112438,235.66 l 2.7072172,-2.84 0.682586,5.14559 c 0.95624,7.20848 6.954536,24.84709 11.648774,34.25441 L 28,280.13622 V 302.06811 324 H 14 0 Z M 176.53163,260 c 1.05676,-50.29691 15.28164,-83.99106 45.85232,-108.60931 12.52296,-10.08461 34.28755,-19.83273 49.95971,-22.37638 3.38599,-0.54956 19.99384,-1.0026 36.90634,-1.00676 L 340,128 v 24.92874 24.92874 l -39.75,0.3715 -39.75,0.3715 -8.79938,2.70969 c -18.18937,5.60125 -31.79301,13.70495 -44.73925,26.6512 -17.20521,17.2052 -27.61565,38.94377 -29.9493,62.53863 -0.7102,7.18067 -0.80732,5.05812 -0.48044,-10.5 z"
       id="path4759"
       inkscape:connector-curvature="0" />
    <path
       style="fill:#006c00"
       d="M 0.75703447,310.75 C 0.30349369,286.01639 0.8631503,279.48274 4.2330619,270.16954 l 3.0602357,-8.45738 1.4785105,2.89392 C 9.5849888,266.19774 10.806831,268.175 11.487014,269 15.096125,273.37753 16,280.02255 16,302.17814 V 324 H 8.5 1 Z M 178.07895,258.41667 c 0.048,-1.16495 0.28494,-1.4019 0.60416,-0.60417 0.28887,0.72187 0.25335,1.58438 -0.0789,1.91667 -0.3323,0.33229 -0.56864,-0.25834 -0.52522,-1.3125 z m 0.96579,-4.22621 c -0.0765,-3.94756 4.61435,-23.1662 8.46713,-34.69046 9.01464,-26.96418 22.85884,-46.88572 42.91871,-61.75921 9.85786,-7.30915 16.65513,-10.78512 30.39793,-15.54482 L 271.5,138.5 305.75,138.19025 340,137.8805 v 19.98849 19.98849 l -39.75,0.3715 -39.75,0.3715 -8.79938,2.70969 c -18.18937,5.60125 -31.79301,13.70495 -44.73925,26.6512 -12.29146,12.29146 -20.32385,25.32708 -25.5956,41.53863 -1.25196,3.85 -2.29642,5.96071 -2.32103,4.69046 z"
       id="path4757"
       inkscape:connector-curvature="0" />
    <path
       style="fill:#006300"
       d="m 184.03063,240.5 c 0,-0.55 0.43621,-1.675 0.96937,-2.5 0.53316,-0.825 0.96937,-1.05 0.96937,-0.5 0,0.55 -0.43621,1.675 -0.96937,2.5 -0.53316,0.825 -0.96937,1.05 -0.96937,0.5 z m 1.97484,-4.80661 c -0.0116,-1.71163 7.3575,-18.55125 11.24355,-25.69339 7.57254,-13.9175 15.72653,-24.77403 25.7288,-34.2563 14.76083,-13.99344 28.08538,-21.33822 47.76922,-26.33144 C 279.74932,147.12864 281.84948,147 310.12822,147 H 340 v 15.42874 15.42874 l -39.75,0.3715 -39.75,0.3715 -8.79938,2.70969 c -26.99044,8.31147 -47.28708,24.20714 -61.53194,48.18983 -2.28676,3.85 -4.16021,6.63703 -4.16321,6.19339 z"
       id="path4755"
       inkscape:connector-curvature="0" />
    <path
       style="fill:#005b00"
       d="m 197.55831,216.5 c 7.40345,-12.06507 13.06749,-19.22431 23.39264,-29.56782 14.75797,-14.78424 28.72038,-23.35277 46.04905,-28.25967 7.86937,-2.22834 10.89268,-2.45832 40.75,-3.09979 L 340,154.87985 v 11.48881 11.48882 l -39.75,0.3715 -39.75,0.3715 -8.79938,2.70969 c -10.55009,3.24881 -20.88615,8.08087 -29.67521,13.87304 -6.53057,4.30378 -18.95698,15.93091 -24.91964,23.31679 -3.16976,3.92634 -3.16142,3.88951 0.45254,-2 z"
       id="path4753"
       inkscape:connector-curvature="0" />
    <path
       style="fill:#005500"
       d="m 205.9737,207.45448 c 14.6771,-17.52969 36.67061,-34.08172 53.23463,-40.0637 13.71186,-4.95194 17.05634,-5.34315 45.79167,-5.35624 15.125,-0.007 29.1875,0.2664 31.25,0.60731 l 3.75,0.61983 v 7.2979 7.2979 l -39.75,0.3715 -39.75,0.3715 -8.79938,2.70969 c -16.1012,4.95822 -29.47235,12.43408 -41.70062,23.31498 -3.575,3.18109 -5.38684,4.45429 -4.0263,2.82933 z"
       id="path4751"
       inkscape:connector-curvature="0" />
  </g>
</svg>
