<?xml version="1.0" encoding="UTF-8" standalone="no"?>
<!-- Created with Inkscape (http://www.inkscape.org/) -->

<svg
   xmlns:dc="http://purl.org/dc/elements/1.1/"
   xmlns:cc="http://creativecommons.org/ns#"
   xmlns:rdf="http://www.w3.org/1999/02/22-rdf-syntax-ns#"
   xmlns:svg="http://www.w3.org/2000/svg"
   xmlns="http://www.w3.org/2000/svg"
   xmlns:sodipodi="http://sodipodi.sourceforge.net/DTD/sodipodi-0.dtd"
   xmlns:inkscape="http://www.inkscape.org/namespaces/inkscape"
   version="1.1"
   id="svg2"
   width="340.18951"
   height="323.50186"
   viewBox="0 0 340.18951 323.50186"
   sodipodi:docname="codo_der_arriba_rojo.svg"
   inkscape:version="0.92.5 (2060ec1f9f, 2020-04-08)">
  <metadata
     id="metadata8">
    <rdf:RDF>
      <cc:Work
         rdf:about="">
        <dc:format>image/svg+xml</dc:format>
        <dc:type
           rdf:resource="http://purl.org/dc/dcmitype/StillImage" />
        <dc:title></dc:title>
      </cc:Work>
    </rdf:RDF>
  </metadata>
  <defs
     id="defs6" />
  <sodipodi:namedview
     pagecolor="#ffffff"
     bordercolor="#666666"
     borderopacity="1"
     objecttolerance="10"
     gridtolerance="10"
     guidetolerance="10"
     inkscape:pageopacity="0"
     inkscape:pageshadow="2"
     inkscape:window-width="1920"
     inkscape:window-height="1017"
     id="namedview4"
     showgrid="false"
     inkscape:pagecheckerboard="true"
     fit-margin-top="0"
     fit-margin-left="0"
     fit-margin-right="0"
     fit-margin-bottom="0"
     inkscape:zoom="0.72839506"
     inkscape:cx="-251.28608"
     inkscape:cy="359.69678"
     inkscape:window-x="-8"
     inkscape:window-y="-8"
     inkscape:window-maximized="1"
     inkscape:current-layer="svg2" />
  <g
     id="g4749"
     transform="translate(0.18849995,-0.5)">
    <path
       style="fill:#a90000"
       d="M 0,293.24387 C 0,259.77015 1.1324423,245.8041 5.6113317,224.04112 28.071442,114.90716 113.96462,29.085379 223.26563,6.5677362 244.5027,2.1925813 260.20155,1.0296733 301.7505,0.75388982 L 340.001,0.5 l -5e-4,88.678738 -5e-4,88.678742 -39.75,0.3715 -39.75,0.3715 -8.79938,2.70969 c -18.18937,5.60125 -31.79301,13.70495 -44.73925,26.6512 -17.85422,17.85421 -27.71467,39.05816 -29.96059,64.42731 -0.54102,6.11122 -0.98752,20.22382 -0.99223,31.36132 L 176,324 H 88 0 Z"
       id="path4787"
       inkscape:connector-curvature="0" />
    <path
       style="fill:#a30000"
       d="M 0,293.24387 C 0,259.77015 1.1324423,245.8041 5.6113317,224.04112 17.586702,165.85264 48.788005,111.59199 92.855263,72.319485 136.96,33.013579 191.36137,8.7843537 249.60732,2.505416 264.44657,0.90573912 340.00142,-0.14359641 340.0005,1.25 c -2.8e-4,0.4125 -17.438,0.7640364 -38.7505,0.7811921 -49.01523,0.039455 -59.51172,1.1556405 -85.75,9.1185609 -5.5,1.669166 -13.27209,4.905813 -17.27132,7.192548 -6.26584,3.582774 -7.2338,4.503398 -7,6.657699 0.25841,2.381043 0.65198,2.527032 8.27132,3.068098 4.4,0.312454 12.05,0.212064 17,-0.22309 C 239.2344,25.846434 264.2587,25 300.61093,25 H 340 v 76.42874 76.42874 l -39.75,0.3715 -39.75,0.3715 -8.79938,2.70969 c -18.18937,5.60125 -31.79301,13.70495 -44.73925,26.6512 -17.85422,17.85421 -27.71467,39.05816 -29.96059,64.42731 -0.54102,6.11122 -0.98752,20.22382 -0.99223,31.36132 L 176,324 H 88 0 Z"
       id="path4785"
       inkscape:connector-curvature="0" />
    <path
       style="fill:#9b0000"
       d="M 0,293.24387 C 0,259.77015 1.1324423,245.8041 5.6113317,224.04112 20.953218,149.4947 66.40254,84.16242 131.28662,43.385987 c 9.49302,-5.965892 39.34989,-21.403639 41.33366,-21.371921 0.48385,0.0077 -2.49528,1.851239 -6.62028,4.096674 -16.0189,8.719853 -26.60418,17.98788 -27.16902,23.788058 -0.30181,3.099302 -0.0226,3.504932 3.16902,4.603254 4.67993,1.610507 15.77184,0.168675 45.4177,-5.903824 44.71905,-9.160012 56.87066,-10.34592 112.3323,-10.9628 L 340,37.187742 v 70.334868 70.33487 l -39.75,0.3715 -39.75,0.3715 -8.79938,2.70969 c -18.18937,5.60125 -31.79301,13.70495 -44.73925,26.6512 -17.85422,17.85421 -27.71467,39.05816 -29.96059,64.42731 -0.54102,6.11122 -0.98752,20.22382 -0.99223,31.36132 L 176,324 H 88 0 Z M 175,21 c 0.825,-0.533156 1.95,-0.969374 2.5,-0.969374 0.55,0 0.325,0.436218 -0.5,0.969374 -0.825,0.533156 -1.95,0.969374 -2.5,0.969374 -0.55,0 -0.325,-0.436218 0.5,-0.969374 z"
       id="path4783"
       inkscape:connector-curvature="0" />
    <path
       style="fill:#950000"
       d="M 0,293.24387 C 0,259.77015 1.1324423,245.8041 5.6113317,224.04112 19.9119,154.55448 60.273928,93.156441 119.01226,51.537543 128.59389,44.748504 132,42.596534 132,43.33193 c 0,0.221264 -1.9125,1.663562 -4.25,3.205108 C 116.53347,53.93417 104,69.327621 104,75.706497 104,80.217599 107.59723,83 113.42941,83 c 5.63718,0 18.92728,-3.460692 37.07059,-9.65304 43.11833,-14.716375 72.66603,-21.620327 104,-24.300064 6.6,-0.564444 28.5375,-1.030904 48.75,-1.036579 L 340,48 v 64.92874 64.92874 l -39.75,0.3715 -39.75,0.3715 -8.79938,2.70969 c -18.18937,5.60125 -31.79301,13.70495 -44.73925,26.6512 -17.85422,17.85421 -27.71467,39.05816 -29.96059,64.42731 -0.54102,6.11122 -0.98752,20.22382 -0.99223,31.36132 L 176,324 H 88 0 Z"
       id="path4781"
       inkscape:connector-curvature="0" />
    <path
       style="fill:#910000"
       d="M 0,293.24387 C 0,259.77015 1.1324423,245.8041 5.6113317,224.04112 14.420486,181.23733 33.424145,140.79559 61.180489,105.78423 70.927383,93.489679 91.399023,72.840032 102.5,64.105438 l 8,-6.294648 -6.10988,5.844605 C 88.143632,79.196488 81.514467,92.909275 86.876716,99.88281 c 1.375521,1.78885 3.094472,2.50409 6.895949,2.86937 C 102.48279,103.58911 110.53782,100.95716 146.5,85.523686 185.07179,68.970282 219.94887,59.298104 252.85595,56.028845 258.55173,55.46298 280.48923,55 301.60595,55 H 340 v 61.42874 61.42874 l -39.75,0.3715 -39.75,0.3715 -8.79938,2.70969 c -18.18937,5.60125 -31.79301,13.70495 -44.73925,26.6512 -17.85422,17.85421 -27.71467,39.05816 -29.96059,64.42731 -0.54102,6.11122 -0.98752,20.22382 -0.99223,31.36132 L 176,324 H 88 0 Z"
       id="path4779"
       inkscape:connector-curvature="0" />
    <path
       style="fill:#8d0000"
       d="M 0,293.24387 C 0,259.77015 1.1324423,245.8041 5.6113317,224.04112 14.421643,181.23171 33.567848,140.49459 61.149554,105.87323 69.38938,95.530356 93.910481,69.919044 90.144834,75.588814 c -1.12831,1.698848 -2.794798,3.705719 -3.703307,4.459714 -2.460155,2.041748 -8.868337,11.8131 -11.1524,17.005454 -4.757831,10.815958 -3.523161,19.374798 3.142662,21.785188 8.468585,3.06228 18.242372,-0.24989 55.068211,-18.6617 44.31439,-22.155852 69.11361,-31.009601 102.5,-36.59426 17.34471,-2.901311 29.1671,-3.53138 66.75,-3.55741 L 340,60 v 58.92874 58.92874 l -39.75,0.3715 -39.75,0.3715 -8.79938,2.70969 c -18.18937,5.60125 -31.79301,13.70495 -44.73925,26.6512 -17.85422,17.85421 -27.71467,39.05816 -29.96059,64.42731 -0.54102,6.11122 -0.98752,20.22382 -0.99223,31.36132 L 176,324 H 88 0 Z"
       id="path4777"
       inkscape:connector-curvature="0" />
    <path
       style="fill:#890000"
       d="M 0,293.24387 C 0,259.77015 1.1324423,245.8041 5.6113317,224.04112 15.820555,174.43438 41.445491,124.88974 74.938611,90 81.048945,83.634874 81.085448,83.614125 76.697816,89 67.936683,99.754404 61,114.28087 61,121.87361 c 0,17.63311 14.051595,19.96534 38.884902,6.45396 C 104.62321,125.74953 116.375,118.91569 126,113.14124 168.40575,87.70022 201.14791,74.707004 240.06892,67.874769 251.2327,65.915066 256.96013,65.648201 296.25,65.25705 L 340,64.821496 v 56.517994 56.51799 l -39.75,0.3715 -39.75,0.3715 -8.79938,2.70969 c -18.18937,5.60125 -31.79301,13.70495 -44.73925,26.6512 -17.85422,17.85421 -27.71467,39.05816 -29.96059,64.42731 -0.54102,6.11122 -0.98752,20.22382 -0.99223,31.36132 L 176,324 H 88 0 Z"
       id="path4775"
       inkscape:connector-curvature="0" />
    <path
       style="fill:#850000"
       d="M 0,293.24387 C 0,259.77015 1.1324423,245.8041 5.6113317,224.04112 13.90097,183.76166 31.409629,145.06185 56.075028,112.5 c 8.494904,-11.21449 13.519824,-17.030981 8.639088,-10 -12.893408,18.5737 -16.59133,38.23909 -9.049815,48.12652 7.358505,9.6475 23.249517,4.96041 51.335699,-15.14156 23.98326,-17.16542 45.75571,-30.75645 62.48826,-39.007079 C 194.89596,83.94963 210.11093,78.802479 238,73.300694 c 13.13272,-2.590743 14.70386,-2.674077 57.75,-3.063062 L 340,69.837768 v 54.009852 54.00986 l -39.75,0.3715 -39.75,0.3715 -8.79938,2.70969 c -18.18937,5.60125 -31.79301,13.70495 -44.73925,26.6512 -17.85422,17.85421 -27.71467,39.05816 -29.96059,64.42731 -0.54102,6.11122 -0.98752,20.22382 -0.99223,31.36132 L 176,324 H 88 0 Z"
       id="path4773"
       inkscape:connector-curvature="0" />
    <path
       style="fill:#810000"
       d="M 0,293.24387 C 0,259.77015 1.1324423,245.8041 5.6113317,224.04112 12.556106,190.29637 26.773755,155.82652 45.352341,127.69138 49.598457,121.26112 53.252038,116 53.471408,116 c 0.219371,0 -1.335334,3.7125 -3.4549,8.25 -8.484611,18.16359 -9.295638,32.71722 -2.388912,42.8683 2.599224,3.82017 7.439061,6.40173 13.563664,7.2348 8.484116,1.15403 23.558883,-8.09263 49.06963,-30.09865 46.97688,-40.52306 94.05328,-62.672864 144.9497,-68.199934 C 260.55141,75.474532 281.81391,75 302.46059,75 H 340 v 51.42874 51.42874 l -39.75,0.3715 -39.75,0.3715 -8.79938,2.70969 c -18.18937,5.60125 -31.79301,13.70495 -44.73925,26.6512 -17.85422,17.85421 -27.71467,39.05816 -29.96059,64.42731 -0.54102,6.11122 -0.98752,20.22382 -0.99223,31.36132 L 176,324 H 88 0 Z"
       id="path4771"
       inkscape:connector-curvature="0" />
    <path
       style="fill:#7d0000"
       d="M 0.26652986,287.75 C 0.74809242,249.38627 1.3171341,243.26732 6.6600477,219 11.866128,195.35418 23.303469,165.47394 35.346038,144.05739 c 5.740376,-10.2087 9.021679,-13.38725 5.565062,-5.39079 -6.275657,14.51796 -6.435914,35.21704 -0.347712,44.91106 2.865535,4.56268 8.250488,9.22255 11.476377,9.93107 1.615515,0.35483 3.160908,1.00695 3.434206,1.44915 0.273298,0.44221 3.319005,0.27368 6.768237,-0.3745 C 71.619704,192.82116 78.664634,187.46239 103,163.58071 114.825,151.97616 129.92514,138.13853 136.55587,132.83043 170.73383,105.4699 203.16339,90.262505 243,82.914941 c 10.19803,-1.88095 16.33992,-2.177885 54.25,-2.622763 L 340,79.790504 v 49.033486 49.03349 l -39.75,0.3715 -39.75,0.3715 -8.79938,2.70969 c -18.18937,5.60125 -31.79301,13.70495 -44.73925,26.6512 -17.85422,17.85421 -27.71467,39.05816 -29.96059,64.42731 -0.54102,6.11122 -0.98752,20.22382 -0.99223,31.36132 L 176,324 l -11.25,9.3e-4 -11.25,9.3e-4 0.28658,-21.26171 0.28657,-21.26172 -6.78657,-11.10162 c -10.18572,-16.662 -12.19774,-19.50457 -16.96741,-23.97138 -3.98555,-3.73249 -4.80674,-4.07928 -9.28637,-3.92166 -2.70281,0.0951 -5.59563,0.73845 -6.42851,1.42967 -2.65353,2.20224 -8.361,13.59666 -11.1357,22.23139 -2.63773,8.20846 -2.68222,8.78975 -2.53396,33.10517 L 101.08554,324 H 50.448519 -0.18849995 Z"
       id="path4769"
       inkscape:connector-curvature="0" />
    <path
       style="fill:#790000"
       d="M 0.26652986,287.75 C 0.74809242,249.38627 1.3171341,243.26732 6.6600477,219 11.431334,197.32899 25.01754,160.73736 31.062527,153.27697 c 1.607624,-1.98404 2.041918,-2.20589 1.520968,-0.77697 -0.401032,1.1 -1.427235,6.81313 -2.280452,12.69583 -1.384535,9.54602 -1.391244,11.6451 -0.06241,19.52606 0.81889,4.85662 2.699531,11.3893 4.179204,14.51707 C 37.444918,205.63346 48.192911,217 51.214351,217 c 1.054423,0 2.781066,0.46236 3.836985,1.02747 1.337144,0.71562 3.923337,0.65832 8.520732,-0.18878 6.253264,-1.15221 6.975047,-1.58812 13.706018,-8.27748 3.907827,-3.88366 8.09205,-7.73621 9.298273,-8.56121 7.402786,-5.06316 13.32817,-10.25473 15.838321,-13.87689 1.58534,-2.28763 3.04624,-3.99552 3.24647,-3.7953 0.20022,0.20022 -1.27099,4.82087 -3.26935,10.26811 C 88.785632,230.68436 86.064504,246.23522 85.304047,291.25 L 84.750785,324 H 42.281143 -0.18849995 Z M 163,302.89555 V 281.7911 l -4.48193,-13.14555 C 145.12787,229.37191 141.22934,204.39199 144.37132,178 c 0.73384,-6.16412 3.06279,-14.27941 4.74547,-16.5357 0.42482,-0.56964 2.21449,-3.94227 3.97706,-7.49474 4.25623,-8.5785 9.38175,-15.37566 16.49997,-21.88131 19.67578,-17.98256 46.43443,-30.75494 77.90618,-37.18601 11.68771,-2.388317 37.53759,-3.810568 70.25,-3.865129 L 340,91 v 43.42874 43.42874 l -39.75,0.3715 -39.75,0.3715 -8.79938,2.70969 c -18.18937,5.60125 -31.79301,13.70495 -44.73925,26.6512 -17.85422,17.85421 -27.71467,39.05816 -29.96059,64.42731 -0.54102,6.11122 -0.98752,20.22382 -0.99223,31.36132 L 176,324 h -6.5 -6.5 z"
       id="path4767"
       inkscape:connector-curvature="0" />
    <path
       style="fill:#750000"
       d="M 0.26652986,287.75 C 0.74681061,249.48838 1.3464517,242.99393 6.5681406,219.5 11.521755,197.21222 20.51274,172.49349 23.280515,173.55302 c 0.882409,0.33779 1.121654,3.29727 0.865549,10.7069 -0.601214,17.39432 3.702856,31.18991 14.155065,45.37043 2.485213,3.37169 6.231791,7.42169 8.325728,9 2.093938,1.57831 4.609506,3.65715 5.590151,4.61965 0.980646,0.9625 2.357864,1.75 3.060486,1.75 0.702621,0 2.390121,0.78363 3.75,1.74141 1.398782,0.98517 4.598007,1.82102 7.366982,1.92475 2.793596,0.10464 5.255124,0.75218 5.734687,1.50859 0.462117,0.72889 0.847102,17.63775 0.855524,37.57525 L 73,324 H 36.40575 -0.18849995 Z M 168,301.2434 c 0,-12.74372 -0.45477,-24.2937 -1.03356,-26.25 -1.70601,-5.76626 -5.75586,-26.86869 -7.02488,-36.60435 -1.88779,-14.48272 -0.7112,-38.61255 2.48138,-50.88905 2.92638,-11.25287 8.47449,-23.56831 15.1226,-33.5685 4.63272,-6.96861 17.94565,-20.28032 26.85532,-26.85288 16.7626,-12.36555 41.68048,-21.46901 65.80973,-24.04282 5.34082,-0.56969 23.22832,-1.0358 39.75,-1.0358 H 340 v 37.92874 37.92874 l -39.75,0.3715 -39.75,0.3715 -8.79938,2.70969 c -18.18937,5.60125 -31.79301,13.70495 -44.73925,26.6512 -17.85422,17.85421 -27.71467,39.05816 -29.96059,64.42731 -0.54102,6.11122 -0.98752,20.22382 -0.99223,31.36132 L 176,324 h -4 -4 z"
       id="path4765"
       inkscape:connector-curvature="0" />
    <path
       style="fill:#710000"
       d="m 0.26652986,287.75 c 0.48838678,-38.90739 1.08716054,-45.13843 6.71522354,-69.88084 1.8347899,-8.06621 4.1489706,-15.11327 6.4035946,-19.5 5.229295,-10.17443 5.852311,-10.7671 5.305232,-5.04688 -0.506059,5.29133 1.282115,18.78713 3.733507,28.17772 1.754253,6.72005 10.167209,23.88647 14.702468,30 1.632046,2.2 7.209197,9.625 12.393669,16.5 l 9.426313,12.5 0.02673,21.75 L 59,324 H 29.40575 -0.18849995 Z M 171.99863,302.25 c -9.3e-4,-14.86948 -0.4754,-24.43894 -1.49983,-30.25 -0.82416,-4.675 -2.03715,-16.68774 -2.69555,-26.69497 -1.05666,-16.06069 -0.99428,-19.75384 0.53176,-31.48459 3.74961,-28.82331 14.63392,-51.32107 33.23148,-68.68915 17.90097,-16.71753 33.91587,-25.07049 59.93351,-31.25979 8.04549,-1.91393 12.68548,-2.18911 43.75,-2.59467 L 340,110.82316 v 33.51716 33.51716 l -39.75,0.3715 -39.75,0.3715 -8.79938,2.70969 c -18.18937,5.60125 -31.79301,13.70495 -44.73925,26.6512 -17.85422,17.85421 -27.71467,39.05816 -29.96059,64.42731 -0.54102,6.11122 -0.98752,20.22382 -0.99223,31.36132 -0.008,19.58048 -0.0747,20.25 -2.00855,20.25 -1.93866,0 -2.00004,-0.66712 -2.00137,-21.75 z"
       id="path4763"
       inkscape:connector-curvature="0" />
    <path
       style="fill:#6d0000"
       d="m 0,293.46059 c 0,-42.0604 2.2512423,-61.52488 8.7636919,-75.77182 2.0035541,-4.38307 3.8166951,-7.34362 4.0292001,-6.57899 0.212506,0.76462 0.966575,2.74022 1.675708,4.39022 0.709134,1.65 1.585828,5.37403 1.948209,8.27562 1.489154,11.92369 10.321912,33.30115 19.882893,48.12153 4.936137,7.65145 5.572593,11.69092 5.648947,35.85285 L 42,324 H 21 0 Z M 173.95671,301.25 c -0.0238,-12.5125 -0.43779,-28.825 -0.91994,-36.25 -1.00159,-15.42401 0.17619,-39.41173 2.52861,-51.5 4.7629,-24.47498 14.77627,-43.93116 30.9774,-60.18978 15.24144,-15.29552 31.61155,-24.4873 55.25002,-31.02276 9.49774,-2.6259 10.44623,-2.69184 43.9572,-3.05579 L 340,118.85969 v 29.49889 29.4989 l -39.75,0.3715 -39.75,0.3715 -8.79938,2.70969 c -18.18937,5.60125 -31.79301,13.70495 -44.73925,26.6512 -17.85422,17.85421 -27.71467,39.05816 -29.96059,64.42731 -0.54102,6.11122 -0.98752,20.22382 -0.99223,31.36132 -0.005,12.82763 -0.37509,20.25 -1.00855,20.25 -0.63609,0 -1.01575,-8.27886 -1.04329,-22.75 z"
       id="path4761"
       inkscape:connector-curvature="0" />
    <path
       style="fill:#690000"
       d="m 0.00758926,293.25 c 0.00417409,-16.9125 0.42548439,-34.38373 0.93624511,-38.82495 1.07741293,-9.36845 5.38660333,-20.75632 8.66774683,-22.9062 2.2195768,-1.45433 2.2732808,-1.38721 3.4020858,4.25175 2.416707,12.07269 8.943788,29.91607 14.350052,39.2294 2.601972,4.4824 2.612237,4.58704 2.624236,26.75 L 30,324 H 15 0 Z M 175.53308,276.5906 c -1.22877,-4.30769 0.20708,-31.26323 2.4285,-45.5906 3.4035,-21.95138 8.96399,-37.82607 18.59712,-53.09303 10.60308,-16.80417 24.7411,-29.79085 42.04654,-38.62242 22.36,-11.41109 32.4958,-13.27702 72.14476,-13.28136 L 340,126 v 25.92874 25.92874 l -39.75,0.3715 -39.75,0.3715 -8.79938,2.70969 c -18.18937,5.60125 -31.79301,13.70495 -44.73925,26.6512 -17.29077,17.29076 -27.85318,39.43578 -29.82877,62.53863 -0.61973,7.24728 -0.93124,8.4334 -1.59952,6.0906 z"
       id="path4759"
       inkscape:connector-curvature="0" />
    <path
       style="fill:#630000"
       d="m 0,298.00398 c 0,-28.07182 0.24438084,-29.68853 6.5442929,-43.29419 l 2.2180398,-4.7902 0.7105821,3.7902 c 0.3908201,2.08462 1.3362312,4.91521 2.1009142,6.29021 0.764683,1.375 2.970181,6.775 4.901108,12 l 3.510776,9.5 0.0071,21.25 L 20,324 H 10 0 Z M 176.25218,275.5 c 0.0111,-2.2 0.21589,-2.98225 0.45508,-1.73834 0.23919,1.24391 0.23011,3.04391 -0.0202,4 -0.25029,0.95609 -0.446,-0.0617 -0.4349,-2.26166 z m 0.82732,-11.21973 c -0.12613,-3.52178 2.90516,-22.97126 5.03103,-32.28027 5.65853,-24.77817 15.82679,-45.99624 29.58784,-61.74078 12.63421,-14.45529 33.39175,-27.27445 53.30163,-32.9173 9.26454,-2.62575 10.31172,-2.70233 42.25,-3.08986 L 340,133.85468 v 22.0014 22.0014 l -39.75,0.3715 -39.75,0.3715 -8.79938,2.70969 c -18.19861,5.6041 -31.80769,13.71328 -44.72691,26.6512 -14.95102,14.97267 -23.9412,31.46301 -28.42736,52.14324 -0.76304,3.51747 -1.42313,5.39651 -1.46685,4.17566 z"
       id="path4757"
       inkscape:connector-curvature="0" />
    <path
       style="fill:#5b0000"
       d="m 183.02531,242.24518 c -0.048,-2.38072 8.23406,-23.76932 12.67956,-32.74518 16.94626,-34.216 41.37694,-54.70077 75.70509,-63.47762 C 278.4955,144.21078 282.48215,144 309.65996,144 H 340 v 16.92874 16.92874 l -39.75,0.3715 -39.75,0.3715 -8.79938,2.70969 c -18.19861,5.6041 -31.80769,13.71328 -44.72691,26.6512 -9.2349,9.24827 -14.3438,16.34686 -20.17958,28.03863 -2.05893,4.125 -3.7549,6.93533 -3.76882,6.24518 z"
       id="path4755"
       inkscape:connector-curvature="0" />
    <path
       style="fill:#530000"
       d="m 192.6383,224 c 2.91169,-6.11433 11.42915,-19.22738 17.86236,-27.5 14.6831,-18.88137 32.72617,-31.82826 54.49934,-39.10626 l 8.5,-2.84125 33.25,-0.33744 33.25,-0.33744 v 11.98993 11.98994 l -39.75,0.3715 -39.75,0.3715 -8.79938,2.70969 c -24.99182,7.69601 -45.0146,22.61014 -59.46484,44.29286 -0.69532,1.04333 -0.51419,0.32197 0.40252,-1.60303 z"
       id="path4753"
       inkscape:connector-curvature="0" />
    <path
       style="fill:#4c0000"
       d="M 208.64664,204.48352 C 224.80551,185.59363 246.32152,170.99199 267,164.88257 c 6.37971,-1.88488 10.56214,-2.278 28,-2.63181 11.275,-0.22876 26.0125,-0.10846 32.75,0.26735 l 12.25,0.68328 v 7.32804 7.32805 l -39.75,0.3715 -39.75,0.3715 -8.79938,2.70969 C 235.53277,186.28892 222.11567,193.80512 210,204.67068 L 203.5,210.5 Z"
       id="path4751"
       inkscape:connector-curvature="0" />
  </g>
</svg>
