<?xml version="1.0" encoding="UTF-8" standalone="no"?>
<!-- Created with Inkscape (http://www.inkscape.org/) -->

<svg
   xmlns:dc="http://purl.org/dc/elements/1.1/"
   xmlns:cc="http://creativecommons.org/ns#"
   xmlns:rdf="http://www.w3.org/1999/02/22-rdf-syntax-ns#"
   xmlns:svg="http://www.w3.org/2000/svg"
   xmlns="http://www.w3.org/2000/svg"
   xmlns:sodipodi="http://sodipodi.sourceforge.net/DTD/sodipodi-0.dtd"
   xmlns:inkscape="http://www.inkscape.org/namespaces/inkscape"
   version="1.1"
   id="svg2"
   width="407.27039"
   height="387.00174"
   viewBox="0 0 407.27039 387.00174"
   sodipodi:docname="codo_abajo_izq_gris.svg"
   inkscape:version="0.92.5 (2060ec1f9f, 2020-04-08)">
  <metadata
     id="metadata8">
    <rdf:RDF>
      <cc:Work
         rdf:about="">
        <dc:format>image/svg+xml</dc:format>
        <dc:type
           rdf:resource="http://purl.org/dc/dcmitype/StillImage" />
        <dc:title></dc:title>
      </cc:Work>
    </rdf:RDF>
  </metadata>
  <defs
     id="defs6" />
  <sodipodi:namedview
     pagecolor="#ffffff"
     bordercolor="#666666"
     borderopacity="1"
     objecttolerance="10"
     gridtolerance="10"
     guidetolerance="10"
     inkscape:pageopacity="0"
     inkscape:pageshadow="2"
     inkscape:window-width="1920"
     inkscape:window-height="1017"
     id="namedview4"
     showgrid="false"
     inkscape:pagecheckerboard="true"
     fit-margin-top="0"
     fit-margin-left="0"
     fit-margin-right="0"
     fit-margin-bottom="0"
     inkscape:zoom="0.60981912"
     inkscape:cx="-321.24463"
     inkscape:cy="432.91525"
     inkscape:window-x="-8"
     inkscape:window-y="-8"
     inkscape:window-maximized="1"
     inkscape:current-layer="svg2" />
  <g
     id="g4749"
     transform="translate(0.00112644,0.00172443)">
    <path
       style="fill:#fefefe"
       d="M 0,193.5 C 70.5,209.0489 246.65981,142.66525 203.5,0 H 407 C 264.33654,300.56414 313.6245,241.05508 0,387 Z"
       id="path4789"
       inkscape:connector-curvature="0"
       sodipodi:nodetypes="ccccc" />
    <path
       style="fill:#e6e1db"
       d="M 0,281.5 V 176 l 35.75,-8.4e-4 c 47.246428,-10e-4 59.612456,-1.22127 77.50267,-7.64725 35.75331,-12.84222 63.72337,-41.37888 75.65611,-77.188706 5.06408,-15.197156 5.96587,-23.063644 6.71981,-58.617721 L 196.31873,0 h 105.47526 105.47526 l -0.57808,39.25 C 405.91755,91.777226 403.11826,113.3832 392.53664,148.5 355.36521,271.85932 250.61638,363.1124 123.5,382.87419 101.89268,386.23331 86.830491,387 42.445532,387 H 0 Z m 127.42065,-70.54231 c 10.15136,-2.6589 20.31015,-7.83268 25.18537,-12.82668 2.14169,-2.19387 7.32755,-7.50834 11.52414,-11.80993 4.19658,-4.3016 7.94254,-8.84344 8.32434,-10.09299 1.00684,-3.29517 -2.14116,-10.90938 -4.80595,-11.62433 -4.49864,-1.20697 -9.41787,-0.49259 -17.14855,2.49035 -4.4,1.69777 -11.15,4.20725 -15,5.57662 -3.85,1.36938 -13.075,5.10801 -20.5,8.30807 -7.425,3.20006 -15.663046,6.58592 -18.306769,7.52414 -2.979394,1.05733 -6.684184,3.58325 -9.745165,6.64423 l -4.938397,4.9384 2.417998,4.77169 c 3.310192,6.53235 7.174957,7.76349 25.133993,8.00656 7.28069,0.0985 12.21679,-0.4283 17.85899,-1.90613 z"
       id="path4787"
       inkscape:connector-curvature="0" />
    <path
       style="fill:#e2ddd7"
       d="M -5.6321915e-4,297.75 -0.00112644,208.5 35.249437,208.77445 70.5,209.0489 77,212.44527 c 23.90135,12.48887 61.24423,5.6966 85.35304,-15.52482 5.68507,-5.00421 14.82662,-17.99618 16.59268,-23.58155 1.51043,-4.77688 0.97708,-7.89603 -1.99657,-11.67642 -1.78923,-2.27463 -2.84852,-2.66075 -7.27173,-2.65061 -6.56773,0.0151 -11.89311,1.49539 -28.67742,7.97165 -7.425,2.86495 -20.475,7.67084 -29,10.67975 -28.73128,10.14075 -35.474156,12.99321 -38.426761,16.2558 C 71.732334,195.95325 70.88471,196 35.845012,196 H 0 v -10 -10 l 35.75,-8.4e-4 c 47.246428,-10e-4 59.612456,-1.22127 77.50267,-7.64725 35.75331,-12.84222 63.72337,-41.37888 75.65611,-77.188706 5.06408,-15.197156 5.96587,-23.063644 6.71981,-58.617721 L 196.31873,0 h 105.47526 105.47526 l -0.57808,39.25 C 405.91755,91.777226 403.11826,113.3832 392.53664,148.5 355.36521,271.85932 250.61638,363.1124 123.5,382.87419 101.89268,386.23331 86.830491,387 42.445532,387 H 0 Z"
       id="path4785"
       inkscape:connector-curvature="0" />
    <path
       style="fill:#d5d0cb"
       d="M 0,301.5 V 216 h 36.032119 c 30.403921,0 36.612849,0.24389 39.75,1.56137 6.970631,2.92741 18.636113,4.53447 29.089551,4.00743 28.3811,-1.43092 57.09952,-16.07855 70.4292,-35.92193 6.89466,-10.26381 8.62778,-14.5685 7.76501,-19.28658 -1.24684,-6.81846 -3.42914,-9.05029 -9.6038,-9.82176 -6.42587,-0.80286 -14.55272,1.57775 -41.18837,12.0654 -17.8692,7.0359 -32.893333,11.28296 -49.277019,13.92975 C 71.193814,184.44044 66.8531,184.57438 27.75,184.23842 L 0,184 v -4 -4 l 35.75,-8.4e-4 c 47.246428,-10e-4 59.612456,-1.22127 77.50267,-7.64725 35.75331,-12.84222 63.72337,-41.37888 75.65611,-77.188706 5.06408,-15.197156 5.96587,-23.063644 6.71981,-58.617721 L 196.31873,0 h 105.47526 105.47526 l -0.57808,39.25 C 405.91755,91.777226 403.11826,113.3832 392.53664,148.5 355.36521,271.85932 250.61638,363.1124 123.5,382.87419 101.89268,386.23331 86.830491,387 42.445532,387 H 0 Z"
       id="path4783"
       inkscape:connector-curvature="0" />
    <path
       style="fill:#c6c1bd"
       d="m 0,307.1574 v -79.8426 l 17.25,-0.65434 c 26.174314,-0.99287 47.925097,-0.80756 61.436388,0.52343 28.578222,2.81521 56.130152,-4.34508 81.628622,-21.21393 9.16369,-6.06236 20.50229,-17.15982 24.08844,-23.57614 3.46944,-6.20749 6.83072,-18.56874 6.00438,-22.08137 -0.36389,-1.54685 -1.98637,-4.21674 -3.60551,-5.93309 -5.87088,-6.22337 -14.55183,-5.29039 -38.9174,4.1826 -9.35048,3.63534 -29.26282,9.82492 -34.88492,10.84368 -2.47488,0.44846 -1.74072,-0.0636 2.50656,-1.74843 35.36707,-14.02921 61.74867,-41.52203 73.40222,-76.494006 5.06408,-15.197156 5.96587,-23.063644 6.71981,-58.617721 L 196.31873,0 h 105.47526 105.47526 l -0.57808,39.25 C 405.91755,91.777226 403.11826,113.3832 392.53664,148.5 355.36521,271.85932 250.61638,363.1124 123.5,382.87419 101.89268,386.23331 86.830491,387 42.445532,387 H 0 Z"
       id="path4781"
       inkscape:connector-curvature="0" />
    <path
       style="fill:#c1bdb8"
       d="m 0,311.1165 v -75.88351 l 6.405025,-0.68592 c 3.5227637,-0.37725 24.785264,-0.58211 47.25,-0.45524 22.464736,0.12688 43.994975,-0.11462 47.844975,-0.53666 21.02145,-2.30437 42.36086,-10.1634 59.29391,-21.8372 9.69099,-6.68104 32.1893,-31.24165 32.21225,-35.16497 0.003,-0.57915 0.6283,-2.24538 1.38868,-3.70274 0.76039,-1.45736 1.63301,-5.99126 1.93916,-10.07534 0.64176,-8.56099 -0.93293,-12.3404 -6.57486,-15.78032 -6.57208,-4.00705 -18.62404,-1.63649 -48.00914,9.44313 -3.7125,1.3998 -6.75,2.38997 -6.75,2.20039 0,-0.18958 3.15806,-2.44466 7.01792,-5.01129 20.73096,-13.78516 38.60337,-37.59312 46.89086,-62.463626 5.06408,-15.197156 5.96587,-23.063644 6.71981,-58.617721 L 196.31873,0 h 105.47526 105.47526 l -0.57808,39.25 C 405.91755,91.777226 403.11826,113.3832 392.53664,148.5 355.36521,271.85932 250.61638,363.1124 123.5,382.87419 101.89268,386.23331 86.830491,387 42.445532,387 H 0 Z"
       id="path4779"
       inkscape:connector-curvature="0" />
    <path
       style="fill:#b2ada9"
       d="m 0,316.12973 v -70.87026 l 44.75,-0.53906 c 47.080902,-0.56713 55.085921,-1.21301 71.77855,-5.7914 33.77569,-9.26387 70.80566,-34.67212 80.0535,-54.92901 0.87882,-1.925 2.87233,-6.2 4.43003,-9.5 4.42341,-9.37105 5.17326,-12.71764 4.41117,-19.68705 -0.879,-8.03855 -2.49828,-11.17246 -7.47417,-14.46534 -3.49833,-2.31509 -5.01821,-2.64608 -12.22211,-2.6617 -9.24391,-0.02 -20.60077,2.7025 -29.03629,6.9608 l -5.19068,2.62028 8.09164,-8.44508 c 14.26772,-14.89094 23.18763,-29.3989 29.30195,-47.658706 5.07627,-15.159763 5.98031,-23.02797 6.735,-58.617721 L 196.31873,0 h 105.47526 105.47526 l -0.57808,39.25 C 405.91755,91.777226 403.11826,113.3832 392.53664,148.5 355.36521,271.85932 250.61638,363.1124 123.5,382.87419 101.89268,386.23331 86.830491,387 42.445532,387 H 0 Z"
       id="path4777"
       inkscape:connector-curvature="0" />
    <path
       style="fill:#a5a19d"
       d="m 0,324 v -63 l 6.25,-0.0766 c 3.4375,-0.0421 25.15,-0.44935 48.25,-0.90498 39.534555,-0.77978 42.704413,-0.97871 54,-3.3887 49.85312,-10.63655 91.8617,-39.70749 110.37502,-76.38217 C 223.30061,171.48054 227,158.3021 227,151.30373 c 0,-9.20251 -3.18662,-18.33617 -7.87505,-22.57188 -11.40332,-10.30221 -34.06606,-10.40645 -48.26428,-0.22201 l -4.63933,3.32782 5.40639,-7.16883 c 10.34614,-13.71892 18.74677,-33.406207 21.85151,-51.210143 0.9414,-5.398378 1.70411,-19.916711 2.14935,-40.913204 L 196.31873,0 h 105.47526 105.47526 l -0.57808,39.25 C 405.91755,91.777226 403.11826,113.3832 392.53664,148.5 355.36521,271.85932 250.61638,363.1124 123.5,382.87419 101.89268,386.23331 86.830491,387 42.445532,387 H 0 Z"
       id="path4775"
       inkscape:connector-curvature="0" />
    <path
       style="fill:#a19d99"
       d="m 0,329 v -58 l 11.75,-0.0985 c 6.4625,-0.0541 28.625,-0.17804 49.25,-0.2753 36.600259,-0.1726 37.799914,-0.24136 50,-2.86599 19.26451,-4.1444 38.49851,-11.06897 53,-19.0809 23.2759,-12.85969 50.37571,-37.23133 65.24797,-58.67935 15.48836,-22.33653 21.90275,-49.9298 14.9232,-64.19624 -5.87731,-12.01338 -16.28448,-17.20608 -34.17117,-17.0498 -12.36496,0.10804 -21.10544,2.43343 -28.92462,7.69535 -2.79146,1.87852 -5.07538,3.28561 -5.07538,3.12688 0,-0.15872 2.21014,-4.51579 4.91143,-9.68237 5.81118,-11.114654 10.54605,-24.841424 12.56781,-36.435093 0.9414,-5.398378 1.70411,-19.916711 2.14935,-40.913204 L 196.31873,0 H 256.65937 317 v 26.182275 c 0,14.400251 0.43604,30.037751 0.96898,34.75 0.53294,4.712249 1.4194,14.435543 1.9699,21.607321 1.32324,17.238613 4.98445,28.720354 9.73394,30.526114 C 341.475,117.55289 360.7913,97.705209 373.04539,68.5 L 378.5,55.5 378.79456,27.75 379.08911,0 h 14.09007 14.09007 l -0.57808,39.25 C 405.91755,91.777226 403.11826,113.3832 392.53664,148.5 355.36521,271.85932 250.61638,363.1124 123.5,382.87419 101.89268,386.23331 86.830491,387 42.445532,387 H 0 Z"
       id="path4773"
       inkscape:connector-curvature="0" />
    <path
       style="fill:#9d9995"
       d="m 0,333.53687 v -53.46313 l 44.25,0.18667 c 49.575902,0.20914 57.33535,-0.41922 81.89676,-6.63207 32.84554,-8.30833 60.61904,-22.37112 84.35324,-42.71129 17.51755,-15.01251 37.5,-37.84591 37.5,-42.85022 0,-1.07388 0.89882,-3.4759 1.99738,-5.33782 l 1.99738,-3.3853 -2.42408,-2.27731 -2.42408,-2.2773 3.27848,-7.19414 C 265.08635,135.42293 261.71004,111.14312 241.5,103.41256 237.40708,101.84697 233.86948,101.5 222,101.5 c -16.56858,0 -24.82591,1.8922 -35.3812,8.10775 -3.23467,1.90475 -6.03459,3.30979 -6.22206,3.12233 -0.18746,-0.18747 0.99001,-3.15494 2.61661,-6.59438 4.32286,-9.140701 8.7982,-23.113769 10.46589,-32.677013 0.9414,-5.398378 1.70411,-19.916711 2.14935,-40.913204 L 196.31873,0 h 52.93646 52.93645 l -0.45331,39.75 c -0.46532,40.803035 -0.79617,44.786831 -5.37744,64.75 -3.22955,14.07297 -9.41324,33.65719 -12.95022,41.01435 -1.32587,2.7579 -2.41067,5.62812 -2.41067,6.37828 0,0.75015 -1.29329,3.66869 -2.87399,6.48564 -1.58069,2.81695 -3.16134,6.34757 -3.51254,7.84581 -0.35121,1.49824 -1.75792,4.37354 -3.12602,6.38955 -1.3681,2.016 -2.48745,4.86666 -2.48745,6.33479 0,1.46813 -0.66069,3.54283 -1.4682,4.61045 -0.8075,1.06762 -1.4825,3.00611 -1.5,4.30776 -0.0269,1.99889 0.31782,2.25825 2.2182,1.66914 1.2375,-0.38363 5.4,-1.00184 9.25,-1.37382 4.97797,-0.48096 8.37482,-1.4824 11.75945,-3.46683 2.61771,-1.53478 6.52409,-3.41311 8.68087,-4.17406 2.15677,-0.76096 8.68956,-4.58264 14.5173,-8.49263 31.22601,-20.95036 53.37883,-49.87986 67.02505,-87.52843 7.83696,-21.621402 8.47078,-25.892526 8.49569,-57.25 L 388,0 h 9.63462 9.63463 l -0.57808,39.25 C 405.91755,91.777226 403.11826,113.3832 392.53664,148.5 355.36521,271.85932 250.61638,363.1124 123.5,382.87419 101.89268,386.23331 86.830491,387 42.445532,387 H 0 Z"
       id="path4771"
       inkscape:connector-curvature="0" />
    <path
       style="fill:#999591"
       d="m 0,338.90719 v -48.0928 l 40.75,0.686 c 65.68599,1.1058 89.15569,-1.74624 131.75,-16.01026 24.65056,-8.255 43.48981,-16.56443 69.18608,-30.51592 83.90634,-45.55597 127.07711,-93.06092 146.32589,-161.016453 5.47678,-19.33513 6.06934,-24.841276 5.99516,-55.707757 L 393.93925,0 h 6.665 6.665 l -0.57808,39.25 C 405.91755,91.777226 403.11826,113.3832 392.53664,148.5 355.36521,271.85932 250.61638,363.1124 123.5,382.87419 101.89268,386.23331 86.830491,387 42.445532,387 H 0 Z M 277.75,107.41883 c -0.4125,-0.41369 -0.75689,-2.36466 -0.76531,-4.3355 -0.0222,-5.204732 -1.06825,-6.345881 -5.12005,-5.585759 -2.70216,0.506928 -3.81602,0.213633 -5.26366,-1.385985 -8.99991,-9.94479 -52.50714,-5.939176 -75.33583,6.936004 -2.87917,1.62383 -5.46667,2.95241 -5.75,2.95241 -1.18738,0 -0.29754,-4.09587 2.98693,-13.748699 5.46746,-16.068446 6.35967,-23.543429 7.12651,-59.705818 L 196.31873,0 243.40937,-8.6221637e-4 290.5,-0.00172443 290.25094,26.749138 c -0.26099,28.031572 -1.19655,41.209191 -3.83708,54.046291 -2.1284,10.34731 -7.72983,27.560111 -8.66386,26.623401 z"
       id="path4769"
       inkscape:connector-curvature="0" />
    <path
       style="fill:#95918d"
       d="m 0,343.95856 v -43.04143 l 53.75,0.12963 c 63.89297,0.15408 73.76157,-0.67348 107.7612,-9.03662 41.26147,-10.14939 82.37423,-28.20902 118.38931,-52.00493 C 342.71974,198.49923 380.23233,146.41926 394.43011,81 398.39222,62.743747 399,55.552314 399,26.927641 V 0 h 4.13462 4.13463 l -0.57808,39.25 C 405.91755,91.777226 403.11826,113.3832 392.53664,148.5 355.36521,271.85932 250.61638,363.1124 123.5,382.87419 101.89268,386.23331 86.830491,387 42.445532,387 H 0 Z M 189,96.032728 c 0,-2.20425 1.15782,-8.400853 2.57292,-13.770228 2.84958,-10.812234 4.30302,-32.365012 4.38419,-65.0125 L 196,0 h 40.89931 40.8993 l 0.67996,12.25 c 0.37397,6.7375 0.51904,19 0.32238,27.25 -0.31133,13.059925 -0.67726,15.818758 -2.82926,21.330357 -2.88321,7.384311 1.30012,5.355182 -39.47169,19.145787 -26.79134,9.061869 -33.23596,11.649989 -42.25,16.96735 L 189,100.04046 Z"
       id="path4767"
       inkscape:connector-curvature="0" />
    <path
       style="fill:#918d89"
       d="M 0,348.5 V 310 l 55.25,-8.4e-4 c 69.03514,-0.001 83.00514,-1.19736 117.25,-10.04068 27.84093,-7.18957 48.2281,-14.80144 73.37353,-27.39514 C 314.56238,238.1616 363.27011,187.00497 386.42344,124.94692 398.40463,92.833652 402,70.528802 402,28.31358 V 0 h 2.63462 2.63463 l -0.57808,39.25 C 405.91755,91.777226 403.11826,113.3832 392.53664,148.5 355.36521,271.85932 250.61638,363.1124 123.5,382.87419 101.89268,386.23331 86.830491,387 42.445532,387 H 0 Z M 192.66667,91.333333 c -1.09737,-1.097364 -0.72393,-9.301287 0.82091,-18.034553 0.93616,-5.29224 1.69555,-19.746296 2.14094,-40.75 L 196.31873,0 h 33.17389 33.17388 l -0.44282,26.25 -0.44283,26.25 -2.64043,2.841583 c -1.45223,1.56287 -4.21542,3.714639 -6.14042,4.781707 -1.925,1.067069 -5.75,3.330616 -8.5,5.030106 -2.75,1.699489 -13.13784,7.243265 -23.08409,12.319503 -9.94625,5.076237 -19.83821,10.421477 -21.98213,11.878311 -3.97241,2.699322 -5.57926,3.169976 -6.76711,1.982123 z"
       id="path4765"
       inkscape:connector-curvature="0" />
    <path
       style="fill:#8b8784"
       d="m 0,352.83791 v -34.1621 l 57.25,0.68015 c 64.01537,0.76053 75.20276,0.16921 103.03529,-5.446 32.62097,-6.58127 60.64657,-16.30064 90.71471,-31.46016 46.17661,-23.28096 83.51937,-55.79551 111.34625,-96.9498 9.45484,-13.98314 22.64933,-40.90979 27.93091,-57 C 402.04083,92.662249 405,72.240288 405,26.894045 405,7.5040246 405.31658,0 406.13462,0 c 1.67977,0 0.43923,74.893603 -1.49077,90 -2.92732,22.91269 -6.31252,39.26938 -12.10721,58.5 C 355.36521,271.85932 250.61638,363.1124 123.5,382.87419 101.89268,386.23331 86.830491,387 42.445532,387 H 0 Z M 195.78738,81.25 c -1.42653,-3.372801 -1.44819,-6.353896 -0.34875,-48 L 196.31642,0 H 219.65821 243 v 25.922077 25.922077 l -3.95098,3.381892 C 232.50721,60.825588 199.37582,84 197.91222,84 c -0.52895,0 -1.48513,-1.2375 -2.12484,-2.75 z"
       id="path4763"
       inkscape:connector-curvature="0" />
    <path
       style="fill:#84817d"
       d="m 0,357.87748 v -29.12252 l 24.25,0.66497 c 43.80437,1.20118 95.4833,1.0654 107.75,-0.28309 74.1388,-8.15019 140.26431,-37.44814 190.25744,-84.29657 27.36285,-25.64165 49.54476,-57.83512 64.0792,-93.00064 7.95757,-19.25303 15.55568,-48.60095 18.08133,-69.83963 0.75215,-6.325 1.4158,-10.019764 1.47479,-8.210586 0.15712,4.819256 -1.70761,20.998706 -3.98022,34.534566 C 379.83872,239.79796 280.46687,346.18368 150.5,377.48176 118.15098,385.27191 98.533119,387 42.445532,387 H 0 Z M 197.73665,68.077849 194.97329,63.157731 195.64759,31.578866 196.32189,0 h 15.98366 15.98366 l -0.6375,6.75 c -0.35062,3.7125 -0.64069,15.55808 -0.6446,26.323511 L 227,52.647023 216.75,61.667517 c -9.64362,8.486847 -13.52144,11.33385 -15.43426,11.331466 -0.44866,-5.59e-4 -2.05925,-2.215069 -3.57909,-4.921134 z M 406.30987,58.5 c 0.006,-3.3 0.1923,-4.529441 0.41486,-2.732091 0.22256,1.79735 0.21797,4.49735 -0.0102,6 C 406.48635,63.270559 406.30426,61.8 406.30987,58.5 Z"
       id="path4761"
       inkscape:connector-curvature="0" />
    <path
       style="fill:#817d7a"
       d="M 0,361.83665 V 336.6733 l 57.296259,0.63862 c 35.080723,0.39101 61.931091,0.25481 69.250001,-0.35126 78.57339,-6.50662 149.68523,-38.22143 200.82475,-89.5648 34.26862,-34.40523 58.43583,-76.69832 70.22543,-122.89586 3.92922,-15.39666 4.50336,-14.15217 0.84067,1.82224 C 367.7429,260.19189 258.81231,361.83824 123.5,382.87419 101.89268,386.23331 86.830491,387 42.445532,387 H 0 Z M 401.15789,109 c 0,-1.375 0.22698,-1.9375 0.50439,-1.25 0.27741,0.6875 0.27741,1.8125 0,2.5 -0.27741,0.6875 -0.50439,0.125 -0.50439,-1.25 z m 0.92106,-5.58333 c 0.048,-1.16495 0.28494,-1.4019 0.60416,-0.60417 0.28887,0.72187 0.25335,1.58437 -0.0789,1.91667 -0.33229,0.33229 -0.56864,-0.25834 -0.52522,-1.3125 z M 200.55258,60.88012 C 195.20604,54.526114 195.20439,54.514178 195.76369,26.25 L 196.28314,0 H 207.64157 219 l -0.11193,17.25 c -0.0616,9.4875 -0.39906,21.389884 -0.75,26.449743 L 217.5,52.899486 212.14601,58.449743 C 209.20132,61.502384 205.97882,64 204.98491,64 c -0.99392,0 -2.98847,-1.403946 -4.43233,-3.11988 z"
       id="path4759"
       inkscape:connector-curvature="0" />
    <path
       style="fill:#7b7874"
       d="m 0,364.86645 v -22.13354 l 45.75,0.81393 c 59.57062,1.05982 75.88814,0.86579 92.25,-1.09692 40.77201,-4.89088 72.99425,-14.19862 108.5,-31.3414 42.40366,-20.47322 77.27981,-49.05658 105.67586,-86.60852 14.12187,-18.67525 29.01396,-46.23341 36.87734,-68.24235 4.0535,-11.34543 5.22663,-12.92128 2.02976,-2.72655 -3.94228,12.57179 -11.5593,31.47236 -18.12268,44.9689 C 325.00797,297.1062 231.7278,366.04886 123.5,382.87419 101.89268,386.23331 86.830491,387 42.445532,387 H 0 Z M 203.66592,54.566189 201,52.095498 V 26.047749 0 h 4.36916 c 4.27194,0 4.38295,0.08343695 4.98899,3.75 0.34091,2.0625 0.62479,13.909059 0.63084,26.325686 0.0109,22.3665 -0.0106,22.596004 -2.32307,24.76844 l -2.33408,2.192754 z"
       id="path4757"
       inkscape:connector-curvature="0" />
    <path
       style="fill:#6a6764"
       d="m 0,371.9158 v -15.08421 l 61.75,0.25697 c 53.36693,0.22209 63.65062,0.0236 75.75,-1.46181 28.3021,-3.47465 58.752,-11.01083 83.5,-20.66578 14.97374,-5.84171 42.59727,-20.20287 55.48663,-28.84687 31.45636,-21.09558 59.47584,-48.43868 77.48458,-75.6141 5.91999,-8.93335 8.58349,-12.11836 5.01756,-6 C 342.09734,253.48203 313.51597,286.80976 286,309.60961 239.59918,348.05753 182.83612,373.64966 123.5,382.87419 101.89268,386.23331 86.830491,387 42.445532,387 H 0 Z M 362,218 c 0.5887,-1.1 1.29537,-2 1.57037,-2 0.275,0 0.0183,0.9 -0.57037,2 -0.5887,1.1 -1.29537,2 -1.57037,2 -0.275,0 -0.0183,-0.9 0.57037,-2 z"
       id="path4755"
       inkscape:connector-curvature="0" />
    <path
       style="fill:#63605e"
       d="m 0,378 v -9 l 30.25,-0.25 c 16.6375,-0.1375 40.078957,-0.1062 52.092126,0.0696 12.013169,0.17576 28.663164,-0.19187 37.000004,-0.81695 74.63265,-5.59583 139.04818,-33.13296 190.65787,-81.50474 11.37863,-10.66475 11.35752,-10.63667 -2,2.66011 -26.7685,26.64676 -51.2901,44.42823 -84.69609,61.41608 C 183.97577,370.5735 142.4433,382.26977 97.695532,385.9476 90.653074,386.52642 65.790574,387 42.445532,387 H 0 Z"
       id="path4753"
       inkscape:connector-curvature="0" />
    <path
       style="fill:#625f5d"
       d="m 0,380.13441 v -6.86559 l 40.25,-0.6792 c 23.733309,-0.40049 47.359266,-0.27007 57.574775,0.31781 11.078445,0.63755 19.190665,0.65363 22.500005,0.0446 2.84637,-0.52384 8.32522,-1.37931 12.17522,-1.90104 3.85,-0.52173 13.42906,-2.32163 21.28681,-3.99979 7.85774,-1.67816 15.92475,-3.0512 17.92668,-3.0512 4.22933,0 22.30211,-5.74486 33.60207,-10.68121 4.29855,-1.87781 13.52355,-5.68698 20.5,-8.46482 6.97644,-2.77784 16.50944,-7.33538 21.18444,-10.12786 15.05233,-8.99108 27.33904,-16.93718 34,-21.98856 4.47868,-3.39645 5.25611,-3.79829 2.5,-1.29223 -2.2,2.0004 -8.53997,6.93976 -14.08882,10.97635 C 226.00506,353.99807 176.01261,374.71046 123.5,382.87419 101.89268,386.23331 86.830491,387 42.445532,387 H 0 Z m 288,-72.51197 c 0,-0.20765 0.7875,-0.99515 1.75,-1.75 1.58606,-1.24387 1.62143,-1.2085 0.37756,0.37756 C 288.82119,307.91575 288,308.44548 288,307.62244 Z M 298,298.5 c 1.29175,-1.375 2.57363,-2.5 2.84863,-2.5 0.275,0 -0.55688,1.125 -1.84863,2.5 -1.29175,1.375 -2.57363,2.5 -2.84863,2.5 -0.275,0 0.55688,-1.125 1.84863,-2.5 z"
       id="path4751"
       inkscape:connector-curvature="0" />
  </g>
</svg>
