<?xml version="1.0" encoding="UTF-8" standalone="no"?>
<!-- Created with Inkscape (http://www.inkscape.org/) -->

<svg
   xmlns:dc="http://purl.org/dc/elements/1.1/"
   xmlns:cc="http://creativecommons.org/ns#"
   xmlns:rdf="http://www.w3.org/1999/02/22-rdf-syntax-ns#"
   xmlns:svg="http://www.w3.org/2000/svg"
   xmlns="http://www.w3.org/2000/svg"
   xmlns:sodipodi="http://sodipodi.sourceforge.net/DTD/sodipodi-0.dtd"
   xmlns:inkscape="http://www.inkscape.org/namespaces/inkscape"
   version="1.1"
   id="svg2"
   width="230.23442"
   height="219"
   viewBox="0 0 230.23442 219"
   sodipodi:docname="codo_abajo_dere_rojo.svg"
   inkscape:version="0.92.5 (2060ec1f9f, 2020-04-08)">
  <metadata
     id="metadata8">
    <rdf:RDF>
      <cc:Work
         rdf:about="">
        <dc:format>image/svg+xml</dc:format>
        <dc:type
           rdf:resource="http://purl.org/dc/dcmitype/StillImage" />
        <dc:title></dc:title>
      </cc:Work>
    </rdf:RDF>
  </metadata>
  <defs
     id="defs6" />
  <sodipodi:namedview
     pagecolor="#ffffff"
     bordercolor="#666666"
     borderopacity="1"
     objecttolerance="10"
     gridtolerance="10"
     guidetolerance="10"
     inkscape:pageopacity="0"
     inkscape:pageshadow="2"
     inkscape:window-width="1920"
     inkscape:window-height="1017"
     id="namedview4"
     showgrid="false"
     inkscape:pagecheckerboard="true"
     fit-margin-top="0"
     fit-margin-left="0"
     fit-margin-right="0"
     fit-margin-bottom="0"
     inkscape:zoom="1.0776256"
     inkscape:cx="-156.65967"
     inkscape:cy="247.76695"
     inkscape:window-x="-8"
     inkscape:window-y="-8"
     inkscape:window-maximized="1"
     inkscape:current-layer="svg2" />
  <g
     id="g4749"
     transform="translate(0.23439614)">
    <path
       style="fill:#a90000"
       d="M 168.32524,217.90453 C 125.85641,212.9561 85.777068,193.57707 55.6,163.4 27.522557,135.32256 10.188919,101.85996 2.2977658,60.5 1.2868764,55.201618 0.60159419,43.635315 0.26851638,26.25 L -0.23439614,0 H 59.243511 118.72142 l 0.6306,5.25 c 0.34683,2.8875 0.63451,11.590517 0.63929,19.340037 0.007,10.71912 0.47963,15.931401 1.97717,21.786719 6.30899,24.667907 25.98686,44.345776 50.65476,50.654765 C 179.26461,98.730096 183.72582,99 205.15996,99 H 230 v 60 60 l -27.25,-0.12974 c -14.9875,-0.0713 -30.47864,-0.50593 -34.42476,-0.96573 z"
       id="path4787"
       inkscape:connector-curvature="0" />
    <path
       style="fill:#a30000"
       d="M 168.32524,217.90453 C 125.85641,212.9561 85.777068,193.57707 55.6,163.4 27.522557,135.32256 10.188919,101.85996 2.2977658,60.5 1.2868764,55.201618 0.60159419,43.635315 0.26851638,26.25 L -0.23439614,0 H 59.243511 118.72142 l 0.6306,5.25 c 0.34683,2.8875 0.63451,11.590517 0.63929,19.340037 0.0104,16.924377 1.86688,25.464755 8.19422,37.696681 5.82173,11.254484 17.21802,22.684684 28.31447,28.398722 14.15902,7.291085 15.88874,7.604986 46,8.347849 l 27,0.666107 -31.5,-0.089 c -17.325,-0.04895 -32.0625,0.270242 -32.75,0.709314 -2.38289,1.52185 -1.22814,4.52956 3.25366,8.47459 2.47701,2.18035 6.41451,4.52865 8.75,5.21843 2.65818,0.7851 13.31598,1.42523 28.49634,1.71156 L 230,116.1817 V 167.59085 219 l -27.25,-0.12974 c -14.9875,-0.0713 -30.47864,-0.50593 -34.42476,-0.96573 z"
       id="path4785"
       inkscape:connector-curvature="0" />
    <path
       style="fill:#9b0000"
       d="M 168.32524,217.90453 C 125.85641,212.9561 85.777068,193.57707 55.6,163.4 27.522557,135.32256 10.188919,101.85996 2.2977658,60.5 1.2868764,55.201618 0.60159419,43.635315 0.26851638,26.25 L -0.23439614,0 H 59.243511 118.72142 l 0.6306,5.25 c 0.34683,2.8875 0.63451,11.590517 0.63929,19.340037 0.0104,16.924377 1.86688,25.464755 8.19422,37.696681 5.51688,10.665156 17.21881,22.630406 27.31447,27.929112 l 7,3.673948 -5.59556,-0.568852 c -4.82667,-0.490686 -5.86439,-0.280293 -7.55199,1.531142 -4.34583,4.664697 0.24412,13.992152 10.17036,20.667672 10.99249,7.39258 13.51866,7.86958 43.72719,8.25673 L 230,124.11929 V 171.55965 219 l -27.25,-0.12974 c -14.9875,-0.0713 -30.47864,-0.50593 -34.42476,-0.96573 z"
       id="path4783"
       inkscape:connector-curvature="0" />
    <path
       style="fill:#930000"
       d="M 168.32524,217.90453 C 125.85641,212.9561 85.777068,193.57707 55.6,163.4 27.522557,135.32256 10.188919,101.85996 2.2977658,60.5 1.2868764,55.201618 0.60159419,43.635315 0.26851638,26.25 L -0.23439614,0 H 59.243511 118.72142 l 0.6306,5.25 c 0.34683,2.8875 0.63451,11.590517 0.63929,19.340037 0.0149,24.213997 5.6676,39.102445 20.5068,54.012448 l 8.064,8.102484 -4.34114,-0.489309 c -14.23348,-1.60432 -15.05058,15.04297 -1.38625,28.24323 6.98535,6.74812 13.59313,10.7343 23.40168,14.11718 8.17559,2.81969 8.55915,2.85398 36.0136,3.21939 L 230,132.16481 V 175.58241 219 l -27.25,-0.12974 c -14.9875,-0.0713 -30.47864,-0.50593 -34.42476,-0.96573 z"
       id="path4781"
       inkscape:connector-curvature="0" />
    <path
       style="fill:#8b0000"
       d="M 168.32524,217.90453 C 125.85641,212.9561 85.777068,193.57707 55.6,163.4 27.522557,135.32256 10.188919,101.85996 2.2977658,60.5 1.2868764,55.201618 0.60159419,43.635315 0.26851638,26.25 L -0.23439614,0 H 59.243511 118.72142 l 0.6306,5.25 c 0.34683,2.8875 0.63451,11.590517 0.63929,19.340037 0.007,10.71912 0.47963,15.931401 1.97717,21.786719 2.59865,10.16061 8.85996,21.987798 15.55976,29.391316 l 5.42108,5.990491 -3.6861,-1.879282 c -4.51226,-2.300479 -7.43167,-2.367713 -11.84633,-0.272819 -7.91342,3.755166 -9.70106,13.821557 -4.41967,24.887718 5.3544,11.21914 18.02418,22.00768 33.28272,28.34085 12.6412,5.24682 19.81634,6.16497 48.1779,6.16497 H 230 v 40 40 l -27.25,-0.12974 c -14.9875,-0.0713 -30.47864,-0.50593 -34.42476,-0.96573 z"
       id="path4779"
       inkscape:connector-curvature="0" />
    <path
       style="fill:#850000"
       d="M 168.32524,217.90453 C 125.85641,212.9561 85.777068,193.57707 55.6,163.4 27.522557,135.32256 10.188919,101.85996 2.2977658,60.5 1.2868764,55.201618 0.60159419,43.635315 0.26851638,26.25 L -0.23439614,0 H 59.243511 118.72142 l 0.6306,5.25 c 0.34683,2.8875 0.63451,11.590517 0.63929,19.340037 0.007,10.628385 0.48331,15.945786 1.94055,21.643527 1.98377,7.75647 6.58686,17.956962 10.49924,23.266436 3.74732,5.085463 3.79895,5.461474 0.52566,3.828541 -4.77909,-2.384124 -10.06727,-2.727035 -14.36465,-0.931475 C 116.48211,73.27868 112.83385,74 110.48486,74 c -5.1707,0 -5.82753,1.186963 -4.95438,8.953156 2.44524,21.749154 16.8377,40.395034 40.10301,51.954704 16.75696,8.32591 27.09493,10.07466 59.61651,10.08459 L 230,145 v 37 37 l -27.25,-0.12974 c -14.9875,-0.0713 -30.47864,-0.50593 -34.42476,-0.96573 z"
       id="path4777"
       inkscape:connector-curvature="0" />
    <path
       style="fill:#810000"
       d="M 168.32524,217.90453 C 125.85641,212.9561 85.777068,193.57707 55.6,163.4 27.522557,135.32256 10.188919,101.85996 2.2977658,60.5 1.2868764,55.201618 0.60159419,43.635315 0.26851638,26.25 L -0.23439614,0 H 59.243511 118.72142 l 0.6306,5.25 c 0.34683,2.8875 0.63451,11.590517 0.63929,19.340037 0.0121,19.666578 3.90531,33.434478 12.84067,45.409963 l 2.61148,3.5 -3.06658,-2.55489 c -1.68662,-1.405189 -5.1234,-3.340397 -7.6373,-4.300462 -3.82015,-1.458931 -5.99393,-3.534939 -13.23772,-12.642313 C 97.972865,36.992786 91.312721,32.606373 85.708491,37.014661 82.31567,39.683455 81.021362,44.574982 80.906908,55.161098 80.781066,66.800446 83.679929,77.155887 90.659577,90 c 5.265282,9.689298 10.599303,16.4014 21.853883,27.5 14.69593,14.49226 29.16269,22.56881 50.48654,28.18581 8.13123,2.14188 12.8859,2.6245 33,3.34961 12.925,0.46595 25.8625,0.87359 28.75,0.90588 L 230,150 v 34.5 34.5 l -27.25,-0.12974 c -14.9875,-0.0713 -30.47864,-0.50593 -34.42476,-0.96573 z"
       id="path4775"
       inkscape:connector-curvature="0" />
    <path
       style="fill:#7d0000"
       d="M 168.32524,217.90453 C 125.85641,212.9561 85.777068,193.57707 55.6,163.4 27.522557,135.32256 10.188919,101.85996 2.2977658,60.5 1.2868764,55.201618 0.60159419,43.635315 0.26851638,26.25 L -0.23439614,0 H 33.882802 68 l 0.0014,23.75 c 9.32e-4,16.19512 0.45633,26.294802 1.431619,31.75 7.579101,42.393108 36.339531,75.55851 78.875231,90.9558 17.11772,6.19636 21.92746,6.79062 53.44178,6.60291 l 28.25,-0.16827 V 185.94522 219 l -27.25,-0.12974 c -14.9875,-0.0713 -30.47864,-0.50593 -34.42476,-0.96573 z M 127,65.322369 C 122.24655,61.600547 118.40779,55.911927 109.47448,39.35147 L 104,29.20294 V 14.60147 0 h 7.36071 7.36071 l 0.6306,5.25 c 0.34683,2.8875 0.63451,11.590517 0.63929,19.340037 0.0103,16.721049 1.89963,25.615028 7.85598,36.982072 2.14072,4.08534 3.83833,7.393184 3.77246,7.350764 C 131.55389,68.880453 129.475,67.260226 127,65.322369 Z"
       id="path4773"
       inkscape:connector-curvature="0" />
    <path
       style="fill:#790000"
       d="M 168.32524,217.90453 C 125.85641,212.9561 85.777068,193.57707 55.6,163.4 27.522557,135.32256 10.188919,101.85996 2.2977658,60.5 1.2868764,55.201618 0.60159419,43.635315 0.26851638,26.25 L -0.23439614,0 H 28.882802 58 l 0.0059,18.75 c 0.0091,28.8396 3.343271,45.751775 13.028003,66.0823 18.230489,38.27007 50.993737,63.99874 93.466097,73.39803 7.39294,1.63609 14.04438,2.08117 37.25,2.49259 L 230,161.22378 V 190.11189 219 l -27.25,-0.12974 c -14.9875,-0.0713 -30.47864,-0.50593 -34.42476,-0.96573 z M 126.34698,62.227764 C 123.84036,60.21625 118.12263,49.123163 113.34733,37.006877 110.10456,28.779056 110,28.068408 110,14.256877 V 0 h 4.36071 4.36071 l 0.6306,5.25 c 0.34683,2.8875 0.63451,11.590517 0.63929,19.340037 0.01,15.585988 1.80654,25.13072 6.4601,34.314077 1.42026,2.802737 2.4622,5.08588 2.31544,5.07365 -0.14677,-0.01223 -1.23571,-0.79973 -2.41987,-1.75 z"
       id="path4771"
       inkscape:connector-curvature="0" />
    <path
       style="fill:#750000"
       d="M 168.32524,217.90453 C 125.85641,212.9561 85.777068,193.57707 55.6,163.4 27.522557,135.32256 10.188919,101.85996 2.2977658,60.5 1.2868764,55.201618 0.60159419,43.635315 0.26851638,26.25 L -0.23439614,0 H 24.769459 49.773315 l 0.505884,20.75 c 0.705888,28.953623 4.115868,43.955392 15.17262,66.75 19.280095,39.74786 55.501301,67.76118 100.349181,77.60962 8.13525,1.78648 14.09246,2.20811 36.949,2.61513 l 27.25,0.48526 v 25.395 V 219 l -27.25,-0.12974 c -14.9875,-0.0713 -30.47864,-0.50593 -34.42476,-0.96573 z M 125.1605,58.75 c -2.4858,-4.034141 -5.67436,-11.94581 -8.76569,-21.75 -2.03625,-6.458004 -2.36688,-9.54926 -2.3798,-22.25 L 114,0 h 2.36071 c 2.1011,0 2.43006,0.57735384 2.99131,5.25 0.34683,2.8875 0.63451,11.590517 0.63929,19.340037 0.009,15.090034 1.819,25.197491 5.96741,33.329038 2.49117,4.8831 2.00837,5.385677 -0.79822,0.830925 z"
       id="path4769"
       inkscape:connector-curvature="0" />
    <path
       style="fill:#710000"
       d="M 168.32524,217.90453 C 125.85641,212.9561 85.777068,193.57707 55.6,163.4 27.522557,135.32256 10.188919,101.85996 2.2977658,60.5 1.2868764,55.201618 0.60159419,43.635315 0.26851638,26.25 L -0.23439614,0 H 19.882802 40 v 14.777494 c 0,11.446624 0.334514,15.255079 1.484079,16.896313 0.816243,1.165351 2.81512,8.208629 4.441949,15.65173 7.632506,34.920409 20.277908,58.912353 43.056994,81.691443 13.584778,13.58477 25.327018,21.89595 42.333358,29.96363 13.85786,6.57406 17.80654,7.96098 33.18362,11.65528 10.14135,2.43643 13.12712,2.67827 38.25,3.09809 L 230,174.18935 V 196.59468 219 l -27.25,-0.12974 c -14.9875,-0.0713 -30.47864,-0.50593 -34.42476,-0.96573 z M 119.21667,40.29498 C 116.61575,30.291473 115.24066,0 117.38747,0 c 1.80837,0 2.58748,7.2625844 2.62828,24.5 0.0182,7.7 0.48775,15.971889 1.04339,18.381976 1.76,7.634077 0.27169,5.544352 -1.84247,-2.586996 z"
       id="path4767"
       inkscape:connector-curvature="0" />
    <path
       style="fill:#6d0000"
       d="M 168.32524,217.90453 C 125.85641,212.9561 85.777068,193.57707 55.6,163.4 27.522557,135.32256 10.188919,101.85996 2.2977658,60.5 1.2868764,55.201618 0.60159419,43.635315 0.26851638,26.25 L -0.23439614,0 H 13.882802 28 v 14.552504 14.552504 l 5.437811,8.197496 c 3.188233,4.806259 6.332064,11.093339 7.599451,15.197496 1.188901,3.85 3.279182,10.6 4.645068,15 3.495858,11.261387 12.306392,29.295874 19.779954,40.48805 23.990177,35.92694 60.178076,59.87721 104.537716,69.18626 7.44848,1.5631 14.95273,2.10937 34.75,2.52965 L 230,180.24 V 199.62 219 l -27.25,-0.12974 c -14.9875,-0.0713 -30.47864,-0.50593 -34.42476,-0.96573 z M 118.75,33.610429 c -0.4125,-2.689264 -0.69739,-11.464264 -0.6331,-19.5 0.0991,-12.3812791 0.25561,-13.77313279 1.02601,-9.1225716 0.50001,3.0183216 0.7849,11.7933216 0.6331,19.4999996 -0.21054,10.688511 -0.45391,12.852353 -1.02601,9.122572 z"
       id="path4765"
       inkscape:connector-curvature="0" />
    <path
       style="fill:#690000"
       d="M 168.32524,217.90453 C 125.85641,212.9561 85.777068,193.57707 55.6,163.4 27.522557,135.32256 10.188919,101.85996 2.2977658,60.5 1.2868764,55.201618 0.60159419,43.635315 0.26851638,26.25 L -0.23439614,0 H 10.520683 21.275763 l -0.496432,14.622859 -0.496431,14.62286 8.361524,13.819977 c 6.084175,10.05596 9.480778,17.035783 12.47098,25.627141 C 58.077326,117.42732 92.442803,153.93733 138.91769,172.59834 161.11247,181.51019 181.2214,185 210.37834,185 H 230 v 17 17 l -27.25,-0.12974 c -14.9875,-0.0713 -30.47864,-0.50593 -34.42476,-0.96573 z M 119.39456,20.5 c 0.002,-7.7 0.15853,-10.7178123 0.34883,-6.70625 0.1903,4.011563 0.18902,10.311563 -0.003,14 C 119.5487,31.482188 119.393,28.2 119.39456,20.5 Z"
       id="path4763"
       inkscape:connector-curvature="0" />
    <path
       style="fill:#650000"
       d="M 168.32524,217.90453 C 125.85641,212.9561 85.777068,193.57707 55.6,163.4 27.522557,135.32256 10.188919,101.85996 2.2977658,60.5 1.2868764,55.201618 0.60159419,43.635315 0.26851638,26.25 L -0.23439614,0 H 7.3828019 15 v 15.033244 c 0,17.291741 -0.549632,15.650522 12.582647,37.572166 4.144728,6.918773 8.875313,16.250463 10.512411,20.737089 21.195974,58.089651 68.812802,99.235031 130.432102,112.705521 8.31126,1.81691 14.26306,2.2626 35.72284,2.67506 L 230,189.218 V 204.109 219 l -27.25,-0.12974 c -14.9875,-0.0713 -30.47864,-0.50593 -34.42476,-0.96573 z"
       id="path4761"
       inkscape:connector-curvature="0" />
    <path
       style="fill:#610000"
       d="M 168.32524,217.90453 C 89.691445,208.74219 24.644556,151.71415 5.6061781,75.245165 0.81865504,56.015741 0.24536674,49.051162 0.75,16.25 L 1,0 H 5.5 10 v 14.903753 14.903753 l 6.319344,12.346247 C 19.794983,48.944189 24.879225,58.1 27.617659,62.5 c 2.738435,4.4 7.130318,13.242651 9.75974,19.650336 8.91345,21.721344 22.068552,41.395024 39.066441,58.424534 24.98921,25.0357 54.78125,41.19525 90.55616,49.11871 10.1828,2.2553 14.44938,2.60301 37.25,3.03573 L 230,193.218 V 206.109 219 l -27.25,-0.12974 c -14.9875,-0.0713 -30.47864,-0.50593 -34.42476,-0.96573 z"
       id="path4759"
       inkscape:connector-curvature="0" />
    <path
       style="fill:#5d0000"
       d="M 168.32524,217.90453 C 89.691445,208.74219 24.644556,151.71415 5.6061781,75.245165 0.55427855,54.953854 0.00901045,45.700871 3.3885292,37.612545 4.4269181,35.12733 5.5379898,34 6.9489734,34 8.077038,34 9,34.510435 9,35.134299 c 0,2.260005 8.810748,19.629009 15.71426,30.978194 3.885023,6.38687 7.393777,12.68687 7.797231,14 C 34.392608,86.234993 44.499685,105.52985 50.786348,115 75.749578,152.6043 113.12702,179.30579 157,190.87631 174.77373,195.56374 187.17589,197 209.87834,197 H 230 v 11 11 l -27.25,-0.12974 c -14.9875,-0.0713 -30.47864,-0.50593 -34.42476,-0.96573 z"
       id="path4757"
       inkscape:connector-curvature="0" />
    <path
       style="fill:#590000"
       d="M 168.32524,217.90453 C 125.85641,212.9561 85.777068,193.57707 55.6,163.4 30.940563,138.74056 14.208016,109.1804 5.4168816,74.745165 2.2852774,62.478543 2.4759354,54.484016 6.0518153,48.121596 L 8.3509872,44.030772 13.764964,54.265386 C 16.742651,59.894424 20.855694,67.2 22.90506,70.5 c 2.049367,3.3 7.620885,13.875 12.381153,23.5 9.003527,18.20464 16.104829,28.97642 28.565013,43.32954 22.949216,26.43562 56.875644,47.42851 91.648774,56.71014 17.66036,4.71389 28.59219,5.94788 52.75,5.95442 L 230,200 v 9.5 9.5 l -27.25,-0.12974 c -14.9875,-0.0713 -30.47864,-0.50593 -34.42476,-0.96573 z"
       id="path4755"
       inkscape:connector-curvature="0" />
    <path
       style="fill:#530000"
       d="M 168.32524,217.90453 C 95.430635,209.41091 33.621114,159.61431 10.102324,90.432851 5.3865648,76.561259 5.1714703,73.8016 8.1458944,65.331905 l 2.1661386,-6.168095 6.382408,9.668095 C 20.204766,74.149357 26.400286,85.25 30.462265,93.5 c 11.709702,23.78276 24.516575,41.63952 41.358924,57.6672 28.880031,27.4831 66.030571,45.5764 105.307151,51.28739 6.94363,1.00964 17.95094,1.54541 31.75,1.54541 H 230 v 7.5 7.5 l -27.25,-0.12974 c -14.9875,-0.0713 -30.47864,-0.50593 -34.42476,-0.96573 z"
       id="path4753"
       inkscape:connector-curvature="0" />
    <path
       style="fill:#4c0000"
       d="M 168.32524,217.90453 C 104.23652,210.43697 48.512717,171.27513 19.724718,113.47034 12.321934,98.605942 11.606379,96.178487 13.046495,90.815089 c 0.63725,-2.373299 1.58582,-5.116613 2.107933,-6.096254 1.846053,-3.463746 6.075798,1.309023 12.814269,14.45939 12.223607,23.854805 22.22084,37.856435 38.17968,53.472585 11.943865,11.68739 14.329407,13.6748 25.851623,21.53721 22.51125,15.36098 46.57524,25.48889 74.5,31.35514 11.58856,2.43444 15.74145,2.78432 38.25,3.22251 L 230,209.25723 V 214.12862 219 l -27.25,-0.12974 c -14.9875,-0.0713 -30.47864,-0.50593 -34.42476,-0.96573 z"
       id="path4751"
       inkscape:connector-curvature="0" />
  </g>
</svg>
