<?xml version="1.0" encoding="UTF-8" standalone="no"?>
<!-- Created with Inkscape (http://www.inkscape.org/) -->

<svg
   xmlns:dc="http://purl.org/dc/elements/1.1/"
   xmlns:cc="http://creativecommons.org/ns#"
   xmlns:rdf="http://www.w3.org/1999/02/22-rdf-syntax-ns#"
   xmlns:svg="http://www.w3.org/2000/svg"
   xmlns="http://www.w3.org/2000/svg"
   xmlns:sodipodi="http://sodipodi.sourceforge.net/DTD/sodipodi-0.dtd"
   xmlns:inkscape="http://www.inkscape.org/namespaces/inkscape"
   version="1.1"
   id="svg2"
   width="311.1666"
   height="328"
   viewBox="0 0 311.1666 328"
   sodipodi:docname="codo_izq_arriba_rojo.svg"
   inkscape:version="0.92.5 (2060ec1f9f, 2020-04-08)">
  <metadata
     id="metadata8">
    <rdf:RDF>
      <cc:Work
         rdf:about="">
        <dc:format>image/svg+xml</dc:format>
        <dc:type
           rdf:resource="http://purl.org/dc/dcmitype/StillImage" />
        <dc:title></dc:title>
      </cc:Work>
    </rdf:RDF>
  </metadata>
  <defs
     id="defs6" />
  <sodipodi:namedview
     pagecolor="#ffffff"
     bordercolor="#666666"
     borderopacity="1"
     objecttolerance="10"
     gridtolerance="10"
     guidetolerance="10"
     inkscape:pageopacity="0"
     inkscape:pageshadow="2"
     inkscape:window-width="1920"
     inkscape:window-height="1017"
     id="namedview4"
     showgrid="false"
     inkscape:pagecheckerboard="true"
     fit-margin-top="0"
     fit-margin-left="0"
     fit-margin-right="0"
     fit-margin-bottom="0"
     inkscape:zoom="0.7195122"
     inkscape:cx="-171.11017"
     inkscape:cy="290.47458"
     inkscape:window-x="-8"
     inkscape:window-y="-8"
     inkscape:window-maximized="1"
     inkscape:current-layer="svg2" />
  <g
     id="g4749">
    <path
       style="fill:#a90000"
       d="m 140.73177,290.75 c -0.39926,-34.10412 -0.61613,-37.9098 -2.56795,-45.06268 C 126.86651,204.2858 93.808689,175.76822 51.665619,171.06899 46.392884,170.48105 32.611091,170 21.039414,170 H 0 V 85 0 H 23.854783 C 49.690516,0 67.799668,1.0915251 83.5,3.5951021 153.55512,14.7661 214.88162,51.753732 257.4352,108.5 c 20.98068,27.97826 35.97588,59.24532 45.16505,94.1753 6.76646,25.72076 7.66226,34.80875 8.13936,82.5747 l 0.427,42.75 h -84.99937 -84.99938 z"
       id="path4787"
       inkscape:connector-curvature="0" />
    <path
       style="fill:#a30000"
       d="m 140.73177,290.75 c -0.39926,-34.10412 -0.61613,-37.9098 -2.56795,-45.06268 C 126.86651,204.2858 93.808689,175.76822 51.665619,171.06899 46.392884,170.48105 32.611091,170 21.039414,170 H 0 V 96.607514 23.215029 l 33.75,0.449158 c 18.5625,0.247037 40.275,0.904913 48.25,1.461947 28.98681,2.024659 44.12843,2.28092 45.08961,0.763109 1.8985,-2.997943 0.71493,-4.601846 -6.33961,-8.591048 C 108.84623,10.566849 84.05513,3.9615252 63.5,2.0445448 L 53.5,1.1119404 64.018136,1.5725392 C 98.67794,3.0903235 141.03272,16.153168 175.59955,35.985904 c 63.21023,36.266909 108.23713,95.365046 127.0007,166.689396 6.76646,25.72076 7.66226,34.80875 8.13936,82.5747 l 0.427,42.75 H 226.16724 141.16786 Z M 13.309787,0.25204545 c 7.595383,-0.17009467 19.745383,-0.16965609 27,9.7463e-4 C 47.564404,0.4236508 41.35,0.56281917 26.5,0.56228312 11.65,0.56174708 5.7144042,0.42214013 13.309787,0.25204545 Z"
       id="path4785"
       inkscape:connector-curvature="0" />
    <path
       style="fill:#9b0000"
       d="m 140.73177,290.75 c -0.39926,-34.10412 -0.61613,-37.9098 -2.56795,-45.06268 C 126.86651,204.2858 93.808689,175.76822 51.665619,171.06899 46.392884,170.48105 32.611091,170 21.039414,170 H 0 V 102.89208 35.784152 l 37.25,0.499462 c 44.388433,0.595177 56.472877,2.023679 104.04456,12.2991 17.58582,3.798514 27.67885,5.020059 33.09027,4.004869 C 177.65138,51.974776 178,51.598197 178,48.682531 c 0,-6.007347 -9.41701,-14.544877 -26,-23.571791 -9.7611,-5.313432 -8.49775,-5.204518 3.33521,0.287531 72.83323,33.804211 126.52439,98.437399 147.26504,177.277029 6.76646,25.72076 7.66226,34.80875 8.13936,82.5747 l 0.427,42.75 h -84.99937 -84.99938 z"
       id="path4783"
       inkscape:connector-curvature="0" />
    <path
       style="fill:#930000"
       d="m 140.73177,290.75 c -0.39926,-34.10412 -0.61613,-37.9098 -2.56795,-45.06268 C 126.86651,204.2858 93.808689,175.76822 51.665619,171.06899 46.392884,170.48105 32.611091,170 21.039414,170 H 0 V 108.5 47 l 26.75,0.0086 c 51.547487,0.01648 77.56321,4.366853 126.25,21.111637 46.4447,15.973662 52.86316,17.553294 58.81587,14.475029 C 214.64911,81.130094 215,80.472652 215,76.629356 215,70.736288 209.64346,62.632425 199.43233,53.077168 191.93901,46.065152 191.8044,45.867289 197,49.502076 c 51.43244,35.981569 89.17067,90.720904 105.60025,153.173224 6.76646,25.72076 7.66226,34.80875 8.13936,82.5747 l 0.427,42.75 h -84.99937 -84.99938 z"
       id="path4781"
       inkscape:connector-curvature="0" />
    <path
       style="fill:#8d0000"
       d="m 140.73177,290.75 c -0.39926,-34.10412 -0.61613,-37.9098 -2.56795,-45.06268 C 126.86651,204.2858 93.808689,175.76822 51.665619,171.06899 46.392884,170.48105 32.611091,170 21.039414,170 H 0 V 112.88478 55.769565 l 33.75,0.515239 c 34.758839,0.530639 43.057656,1.280058 63.685695,5.751092 26.490525,5.7417 47.244005,13.607162 87.564305,33.186417 30.51891,14.819767 40.4225,18.113467 47.47028,15.787497 11.726,-3.86993 7.38969,-20.885708 -10.25463,-40.239395 L 216.5,64.501039 l 8,7.336828 c 37.47967,34.372743 64.73451,80.031403 78.10025,130.837433 6.76646,25.72076 7.66226,34.80875 8.13936,82.5747 l 0.427,42.75 h -84.99937 -84.99938 z"
       id="path4779"
       inkscape:connector-curvature="0" />
    <path
       style="fill:#890000"
       d="m 140.73177,290.75 c -0.39926,-34.10412 -0.61613,-37.9098 -2.56795,-45.06268 C 126.86651,204.2858 93.808689,175.76822 51.665619,171.06899 46.392884,170.48105 32.611091,170 21.039414,170 H 0 V 115.88587 61.771747 l 34.25,0.524393 c 28.918912,0.442769 36.04,0.851534 45.75,2.626142 29.78086,5.442776 53.21173,13.46114 81,27.719307 13.37635,6.863405 17.94137,9.470461 39,22.272641 7.425,4.51389 17.73225,10.23885 22.90499,12.72213 7.98799,3.83481 10.3443,4.52049 15.63943,4.55104 4.91572,0.0284 6.87179,-0.43524 9.24753,-2.1917 4.09501,-3.02757 5.61674,-8.73818 4.26244,-15.9957 -1.2201,-6.53835 -7.81931,-20.103314 -12.73116,-26.169451 C 237.39465,85.448747 238.84062,86.65 242.5365,90.5 c 14.89087,15.51182 30.7757,39.37275 42.31754,63.56606 11.41156,23.92022 19.15591,48.8476 23.33967,75.12537 1.85012,11.62037 2.17307,18.73142 2.5459,56.05857 l 0.427,42.75 H 226.16724 141.16786 Z M 232.92431,80.25 230.5,77.5 l 2.75,2.424314 C 235.82029,82.190201 236.45859,83 235.67431,83 c -0.17912,0 -1.41662,-1.2375 -2.75,-2.75 z"
       id="path4777"
       inkscape:connector-curvature="0" />
    <path
       style="fill:#850000"
       d="m 140.73177,290.75 c -0.39926,-34.10412 -0.61613,-37.9098 -2.56795,-45.06268 C 126.86651,204.2858 93.808689,175.76822 51.665619,171.06899 46.392884,170.48105 32.611091,170 21.039414,170 H 0 V 118 66 l 18.75,0.0089 c 25.024175,0.01193 48.222873,1.508119 62.25,4.014778 32.5541,5.817445 62.46429,17.743797 91.5,36.484592 2.75,1.77496 8.34914,5.37835 12.44253,8.00754 9.04005,5.80642 21.61229,15.88164 22.40924,17.95846 0.31978,0.83333 2.28395,2.19935 4.36482,3.03559 2.65342,1.06633 5.87411,4.1061 10.78341,10.17765 13.55399,16.76282 21.38254,25.86669 26.80154,31.16768 l 5.47445,5.35523 3.61201,-1.30612 3.612,-1.30612 v -9.18864 c 0,-5.05375 -0.69252,-12.83931 -1.53893,-17.30124 -1.38525,-7.30241 -1.38525,-8.56527 0,-12.64541 1.97465,-5.8162 1.95124,-11.71152 -0.0736,-18.52977 -1.92475,-6.48134 -7.6348,-18.069 -11.27341,-22.877639 -1.43775,-1.900081 -2.0632,-3.120488 -1.38987,-2.712018 0.67332,0.408471 4.98973,5.785787 9.592,11.949587 21.20232,28.39613 36.08514,59.41532 45.28402,94.38221 6.76646,25.72076 7.66226,34.80875 8.13936,82.5747 l 0.427,42.75 H 226.1672 141.16782 l -0.43609,-37.25 z"
       id="path4775"
       inkscape:connector-curvature="0" />
    <path
       style="fill:#810000"
       d="m 140.73177,290.75 c -0.39926,-34.10412 -0.61613,-37.9098 -2.56795,-45.06268 C 126.86651,204.2858 93.808689,175.76822 51.665619,171.06899 46.392884,170.48105 32.611091,170 21.039414,170 H 0 V 120.38077 70.761549 l 28.75,0.527313 c 45.337591,0.831551 67.918318,5.205684 101.96375,19.75149 22.52153,9.622258 29.26978,13.732658 45.44505,27.680858 28.91084,24.9303 52.24272,59.30006 68.75299,101.27879 5.5591,14.13446 10.5027,24.6491 14.8879,31.66533 2.3194,3.71101 3.08053,4.20329 6.9781,4.51328 4.23923,0.33716 4.48738,0.19265 8.01094,-4.66534 2.65554,-3.66123 4.3859,-7.84503 6.41607,-15.51327 5.24524,-19.812 3.3278,-44.21742 -5.72565,-72.87666 -1.34563,-4.25968 -3.38771,-12.44253 -4.53796,-18.1841 -2.622,-13.08801 -5.14762,-20.71966 -9.49444,-28.68924 -1.8749,-3.4375 -3.23463,-6.25 -3.02163,-6.25 0.70921,0 7.11628,9.37847 13.3669,19.56606 13.07283,21.30679 24.00541,47.25026 30.80823,73.10924 6.76646,25.72076 7.66226,34.80875 8.13936,82.5747 l 0.427,42.75 h -84.99937 -84.99938 z"
       id="path4773"
       inkscape:connector-curvature="0" />
    <path
       style="fill:#7d0000"
       d="m 140.73177,290.75 c -0.39926,-34.10412 -0.61613,-37.9098 -2.56795,-45.06268 C 126.86651,204.2858 93.808689,175.76822 51.665619,171.06899 46.392884,170.48105 32.611091,170 21.039414,170 H 0 V 124.56127 79.122546 l 4.75,-0.768767 c 2.6125,-0.422822 16.9,-0.782107 31.75,-0.798412 25.791427,-0.02832 27.581905,0.09468 40,2.747705 C 144.39158,94.807578 197.79837,139.98417 223.32292,204.5 234.79592,233.49914 239,259.15581 239,300.17407 V 328 h -48.91607 -48.91607 z m 148.2939,8 c 0.0226,-25.80176 0.26352,-30.25205 2.04316,-37.75 2.98895,-12.59295 3.74267,-39.908 1.50385,-54.5 -2.24256,-14.61645 -6.64233,-32.10337 -11.01403,-43.77545 -1.95759,-5.2266 -4.6866,-13.39312 -6.06445,-18.14781 -1.37786,-4.7547 -3.8245,-11.55457 -5.43698,-15.11082 C 268.44473,125.90966 267.292,123 267.49559,123 c 1.01845,0 11.481,18.74371 17.46662,31.29153 11.30115,23.6909 19.06222,48.71311 23.2315,74.8999 1.85012,11.62037 2.17307,18.73142 2.5459,56.05857 l 0.427,42.75 H 300.08331 289 l 0.0257,-29.25 z"
       id="path4771"
       inkscape:connector-curvature="0" />
    <path
       style="fill:#790000"
       d="m 140.73177,290.75 c -0.39926,-34.10412 -0.61613,-37.9098 -2.56795,-45.06268 C 126.86651,204.2858 93.808689,175.76822 51.665619,171.06899 46.392884,170.48105 32.611091,170 21.039414,170 H 0 V 128.49095 86.981898 l 23.25,0.524127 c 35.168182,0.7928 42.497687,1.271896 54.29872,3.549261 C 149.13955,104.87089 205.59675,161.1044 220.05806,233 c 2.4965,12.41156 3.8477,37.0761 3.9033,71.25 L 224,328 h -41.41607 -41.41607 z m 157.68963,5 c 0.31266,-17.7375 0.82996,-41.39888 1.14957,-52.58084 0.46866,-16.39706 0.25683,-22.29846 -1.0948,-30.5 -3.32279,-20.16241 -7.25874,-34.84771 -13.71434,-51.16916 -5.89836,-14.91261 -9.68542,-25.5 -9.12123,-25.5 1.08065,0 16.32509,33.0926 19.80097,42.98387 5.26698,14.98821 10.29924,34.80118 12.75214,50.20756 1.85012,11.62037 2.17307,18.73142 2.5459,56.05857 l 0.427,42.75 h -6.65684 -6.65683 z"
       id="path4769"
       inkscape:connector-curvature="0" />
    <path
       style="fill:#750000"
       d="m 140.73177,290.75 c -0.39926,-34.10412 -0.61613,-37.9098 -2.56795,-45.06268 C 126.86651,204.2858 93.808689,175.76822 51.665619,171.06899 46.392884,170.48105 32.611091,170 21.039414,170 H 0 V 134 98 h 31.621662 c 36.02868,0 45.639278,0.99251 64.257925,6.63608 53.713023,16.28115 96.538813,60.01524 111.032613,113.38754 4.55582,16.77645 5.11868,23.58818 5.59633,67.72638 L 212.96575,328 H 177.0668 141.16786 Z m 162.75878,7 c 0.29976,-16.6375 0.76355,-34.30511 1.03064,-39.26135 0.71122,-13.19751 -1.22526,-38.21611 -4.03426,-52.12119 -3.02837,-14.99093 -8.38183,-32.86287 -13.56389,-45.2815 -2.16056,-5.17772 -3.76521,-9.57713 -3.56587,-9.77646 0.57137,-0.57137 9.14519,19.25911 12.62067,29.1905 4.79198,13.69337 9.85983,33.89341 12.21587,48.69143 1.85012,11.62037 2.17307,18.73142 2.5459,56.05857 l 0.427,42.75 h -4.11054 -4.11054 z"
       id="path4767"
       inkscape:connector-curvature="0" />
    <path
       style="fill:#710000"
       d="m 140.73177,290.75 c -0.39926,-34.10412 -0.61613,-37.9098 -2.56795,-45.06268 C 126.86651,204.2858 93.808689,175.76822 51.665619,171.06899 46.392884,170.48105 32.611091,170 21.039414,170 H 0 v -32.03393 -32.03393 l 36.25,0.4333 c 32.126976,0.38402 37.35315,0.67338 45.948995,2.54405 42.563185,9.26284 79.474345,36.02212 101.683245,73.71673 11.23766,19.0734 18.04054,41.99655 19.73013,66.4831 0.62119,9.00266 0.49652,9.97307 -1.97466,15.37085 L 199,270.24169 V 299.12084 328 h -28.91607 -28.91607 z m 166.3444,-8 c 0.19593,-48.18119 -0.55813,-59.82567 -5.09289,-78.64675 -1.11272,-4.61821 -1.83668,-8.58318 -1.60882,-8.81105 0.70318,-0.70317 6.4494,24.59181 8.22527,36.2078 1.30763,8.55327 1.78014,20.5089 2.12429,53.75 l 0.44259,42.75 h -2.13722 -2.13722 z m -8.50474,-91.32143 c -0.36782,-1.46551 -0.47591,-2.85742 -0.24019,-3.09314 0.23571,-0.23571 0.72951,0.77049 1.09733,2.236 0.36782,1.46551 0.47591,2.85742 0.24019,3.09314 -0.23571,0.23571 -0.72951,-0.77049 -1.09733,-2.236 z"
       id="path4765"
       inkscape:connector-curvature="0" />
    <path
       style="fill:#6d0000"
       d="m 140.73177,290.75 c -0.39926,-34.10412 -0.61613,-37.9098 -2.56795,-45.06268 C 126.86651,204.2858 93.808689,175.76822 51.665619,171.06899 46.392884,170.48105 32.611091,170 21.039414,170 H 0 v -28 -28 l 26.75,-0.19173 c 41.769131,-0.29939 48.867514,0.29476 67.75,5.67079 12.06861,3.43605 33.05251,13.98686 43.5,21.87202 28.97406,21.86796 49.06955,53.37614 55.50948,87.03461 3.32813,17.39459 1.30536,27.43552 -7.4378,36.92072 L 182,269.72366 V 298.86183 328 h -20.41607 -20.41607 z m 168.44554,-7 c 0.15042,-24.3375 0.57322,-41.55 0.93956,-38.25 1.15293,10.38579 1.00874,82.5 -0.16496,82.5 -0.71912,0 -0.96225,-13.88909 -0.7746,-44.25 z M 308.232,235 c 0,-1.925 0.2058,-2.7125 0.45733,-1.75 0.25152,0.9625 0.25152,2.5375 0,3.5 -0.25153,0.9625 -0.45733,0.175 -0.45733,-1.75 z m -1.07411,-8 c 0,-1.375 0.22698,-1.9375 0.50439,-1.25 0.27741,0.6875 0.27741,1.8125 0,2.5 -0.27741,0.6875 -0.50439,0.125 -0.50439,-1.25 z m -1,-6 c 0,-1.375 0.22698,-1.9375 0.50439,-1.25 0.27741,0.6875 0.27741,1.8125 0,2.5 -0.27741,0.6875 -0.50439,0.125 -0.50439,-1.25 z"
       id="path4763"
       inkscape:connector-curvature="0" />
    <path
       style="fill:#690000"
       d="m 140.73177,290.75 c -0.39926,-34.10412 -0.61613,-37.9098 -2.56795,-45.06268 C 126.86651,204.2858 93.808689,175.76822 51.665619,171.06899 46.392884,170.48105 32.611091,170 21.039414,170 H 0 V 145.5 121 l 25.25,-0.25 c 13.8875,-0.1375 29.762629,-0.16637 35.278065,-0.0642 29.423929,0.54527 59.812865,12.82026 84.163075,33.99593 21.56569,18.75417 39.14634,50.7793 42.33184,77.11222 0.95068,7.85875 0.85175,9.2898 -1.01662,14.70474 -2.25542,6.53674 -5.25076,11.51392 -11.17304,18.56563 L 171,269.62871 V 298.81436 328 H 156.08393 141.16786 Z M 310.15789,252 c 0,-1.375 0.22698,-1.9375 0.50439,-1.25 0.27741,0.6875 0.27741,1.8125 0,2.5 -0.27741,0.6875 -0.50439,0.125 -0.50439,-1.25 z"
       id="path4761"
       inkscape:connector-curvature="0" />
    <path
       style="fill:#650000"
       d="m 140.73177,290.75 c -0.39926,-34.10412 -0.61613,-37.9098 -2.56795,-45.06268 C 126.86651,204.2858 93.808689,175.76822 51.665619,171.06899 46.392884,170.48105 32.611091,170 21.039414,170 H 0 v -21.47089 -21.4709 l 29.75,-0.2791 c 31.820135,-0.29853 43.810741,0.29633 54.428452,2.70023 23.120168,5.23452 46.056018,18.25738 63.148088,35.85514 18.22031,18.7594 32.07764,46.65174 33.36882,67.16552 0.49165,7.81108 0.40759,8.18892 -3.55923,16 -2.23452,4.4 -6.61978,11.375 -9.74503,15.5 l -5.68228,7.5 0.68899,28.25 0.68899,28.25 h -10.95947 -10.95947 z"
       id="path4759"
       inkscape:connector-curvature="0" />
    <path
       style="fill:#610000"
       d="M 142.67604,298.25 C 142.19756,260.92208 140.21748,247.53306 132.56361,229.87115 121.14905,203.53118 97.332254,182.59351 69.664526,174.57572 57.923075,171.17318 45.455981,170 21.039414,170 H 0 v -18.33951 -18.33952 l 33.544802,-0.62252 c 28.023002,-0.52005 35.060067,-0.36353 42.75,0.95084 35.122028,6.00309 65.424618,26.76497 84.028478,57.5723 9.20434,15.24206 15.30532,33.80631 14.40284,43.82539 -0.6088,6.75883 -6.39438,18.76644 -13.68005,28.39216 L 156,270.10592 V 299.05296 328 h -6.47131 -6.47131 z"
       id="path4757"
       inkscape:connector-curvature="0" />
    <path
       style="fill:#5b0000"
       d="m 145.25,262.47339 c -3.27397,-2.88638 -5.25578,-5.44617 -5.26535,-6.80094 -0.0292,-4.12608 -3.964,-17.82391 -7.39329,-25.73725 C 121.14776,203.52819 97.360828,182.60179 69.664526,174.57572 57.923075,171.17318 45.455981,170 21.039414,170 H 0 v -14.87278 -14.87278 l 26.25,-0.75359 c 14.4375,-0.41446 30.489373,-0.68475 35.670829,-0.60063 28.425296,0.46146 56.872731,13.41176 77.757541,35.39804 11.82594,12.44964 20.34048,26.77909 25.82787,43.46671 4.02632,12.24441 3.43209,18.81402 -2.84597,31.46408 -2.63961,5.31872 -6.45551,11.51594 -8.47978,13.77161 L 150.5,267.10187 Z"
       id="path4755"
       inkscape:connector-curvature="0" />
    <path
       style="fill:#530000"
       d="m 143.5,249.63609 c -4.78713,-2.24457 -5.07788,-2.61564 -6.82927,-8.71592 C 127.77517,209.93608 101.32991,183.75198 69.664526,174.57572 57.923075,171.17318 45.455981,170 21.039414,170 H 0 v -11 -11 l 19.75,-0.003 c 10.8625,-0.002 23.718993,-0.48959 28.569984,-1.08453 21.512584,-2.6384 48.660062,4.49206 68.564466,18.00888 20.31147,13.79326 36.29969,36.36083 42.55628,60.06874 1.26415,4.79019 0.59617,9.36113 -2.91113,19.92061 -2.5211,7.59032 -5.00095,8.48964 -13.0296,4.72521 z"
       id="path4753"
       inkscape:connector-curvature="0" />
    <path
       style="fill:#4c0000"
       d="m 140.24138,235.80356 -5.25862,-0.95885 -3.98883,-8.35743 C 116.33503,195.77388 86.537385,174.95742 51.665619,171.06899 46.392884,170.48105 32.611091,170 21.039414,170 H 0 v -7.36714 -7.36714 l 29.75,-0.50328 c 31.749262,-0.53711 40.961499,0.17275 56.438509,4.34889 25.940761,6.99957 51.023881,29.66477 60.755021,54.89846 3.62569,9.40172 5.30086,17.16831 4.44152,20.59219 -0.67267,2.68012 -2.1571,2.84018 -11.14367,1.20158 z"
       id="path4751"
       inkscape:connector-curvature="0" />
  </g>
</svg>
