<?xml version="1.0" encoding="UTF-8" standalone="no"?>
<!-- Created with Inkscape (http://www.inkscape.org/) -->

<svg
   xmlns:dc="http://purl.org/dc/elements/1.1/"
   xmlns:cc="http://creativecommons.org/ns#"
   xmlns:rdf="http://www.w3.org/1999/02/22-rdf-syntax-ns#"
   xmlns:svg="http://www.w3.org/2000/svg"
   xmlns="http://www.w3.org/2000/svg"
   xmlns:sodipodi="http://sodipodi.sourceforge.net/DTD/sodipodi-0.dtd"
   xmlns:inkscape="http://www.inkscape.org/namespaces/inkscape"
   version="1.1"
   id="svg2"
   width="230.23445"
   height="219.00459"
   viewBox="0 0 230.23445 219.00459"
   sodipodi:docname="codo_abajo_dere_gris.svg"
   inkscape:version="0.92.5 (2060ec1f9f, 2020-04-08)">
  <metadata
     id="metadata8">
    <rdf:RDF>
      <cc:Work
         rdf:about="">
        <dc:format>image/svg+xml</dc:format>
        <dc:type
           rdf:resource="http://purl.org/dc/dcmitype/StillImage" />
        <dc:title></dc:title>
      </cc:Work>
    </rdf:RDF>
  </metadata>
  <defs
     id="defs6" />
  <sodipodi:namedview
     pagecolor="#ffffff"
     bordercolor="#666666"
     borderopacity="1"
     objecttolerance="10"
     gridtolerance="10"
     guidetolerance="10"
     inkscape:pageopacity="0"
     inkscape:pageshadow="2"
     inkscape:window-width="1920"
     inkscape:window-height="1017"
     id="namedview4"
     showgrid="false"
     inkscape:pagecheckerboard="true"
     fit-margin-top="0"
     fit-margin-left="0"
     fit-margin-right="0"
     fit-margin-bottom="0"
     inkscape:zoom="1.0776256"
     inkscape:cx="-235.53679"
     inkscape:cy="266.32627"
     inkscape:window-x="-8"
     inkscape:window-y="-8"
     inkscape:window-maximized="1"
     inkscape:current-layer="svg2" />
  <g
     id="g4749"
     transform="translate(0.23439614,0.00459973)">
    <path
       style="fill:#e6e0db"
       d="M 168.32524,217.90453 C 125.85641,212.9561 85.777068,193.57707 55.6,163.4 27.522557,135.32256 10.188919,101.85996 2.2977658,60.5 1.2868764,55.201618 0.60159419,43.635315 0.26851638,26.25 L -0.23439614,0 H 59.243511 118.72142 l 0.6306,5.25 c 0.34683,2.8875 0.63451,11.590517 0.63929,19.340037 0.007,10.71912 0.47963,15.931401 1.97717,21.786719 6.30899,24.667907 25.98686,44.345776 50.65476,50.654765 C 179.26461,98.730096 183.72582,99 205.15996,99 H 230 v 60 60 l -27.25,-0.12974 c -14.9875,-0.0713 -30.47864,-0.50593 -34.42476,-0.96573 z"
       id="path4787"
       inkscape:connector-curvature="0" />
    <path
       style="fill:#e2dcd7"
       d="M 168.32524,217.90453 C 125.85641,212.9561 85.777068,193.57707 55.6,163.4 27.522557,135.32256 10.188919,101.85996 2.2977658,60.5 1.2868764,55.201618 0.60159419,43.635315 0.26851638,26.25 L -0.23439614,0 H 59.243511 118.72142 l 0.6306,5.25 c 0.34683,2.8875 0.63451,11.590517 0.63929,19.340037 0.007,10.71912 0.47963,15.931401 1.97717,21.786719 6.30899,24.667907 25.98686,44.345776 50.65476,50.654765 C 179.26461,98.730096 183.72582,99 205.15996,99 H 230 v 5.5 5.5 h -19.92857 c -16.74344,0 -20.17854,0.24997 -21.49258,1.56401 -1.40499,1.40498 -1.40964,1.86253 -0.0457,4.5 L 190.05141,119 h 19.97432 19.97432 v 50 50 l -27.25,-0.12974 c -14.9875,-0.0713 -30.47864,-0.50593 -34.42476,-0.96573 z"
       id="path4785"
       inkscape:connector-curvature="0" />
    <path
       style="fill:#d4cec9"
       d="M 168.32524,217.90453 C 125.85641,212.9561 85.777068,193.57707 55.6,163.4 27.522557,135.32256 10.188919,101.85996 2.2977658,60.5 1.2868764,55.201618 0.60159419,43.635315 0.26851638,26.25 L -0.23439614,0 H 59.243511 118.72142 l 0.6306,5.25 c 0.34683,2.8875 0.63451,11.590517 0.63929,19.340037 0.007,10.71912 0.47963,15.931401 1.97717,21.786719 6.30899,24.667907 25.98686,44.345776 50.65476,50.654765 C 179.26461,98.730096 183.72582,99 205.15996,99 229.33333,99 230,99.053677 230,101 c 0,1.93397 -0.66853,2.00018 -20.25,2.00558 -25.98288,0.007 -30.18495,1.04464 -29.94627,7.39366 0.17116,4.55281 2.38784,7.92167 7.02825,10.68133 3.53034,2.0995 4.40935,2.16122 23.41802,1.64443 L 230,122.18805 V 170.59403 219 l -27.25,-0.12974 c -14.9875,-0.0713 -30.47864,-0.50593 -34.42476,-0.96573 z"
       id="path4783"
       inkscape:connector-curvature="0" />
    <path
       style="fill:#c7c2bd"
       d="M 168.32524,217.90453 C 125.85641,212.9561 85.777068,193.57707 55.6,163.4 27.522557,135.32256 10.188919,101.85996 2.2977658,60.5 1.2868764,55.201618 0.60159419,43.635315 0.26851638,26.25 L -0.23439614,0 H 59.243511 118.72142 l 0.6306,5.25 c 0.34683,2.8875 0.63451,11.590517 0.63929,19.340037 0.0104,16.924377 1.86688,25.464755 8.19422,37.696681 5.78306,11.17973 17.18807,22.640215 28.31447,28.452183 l 8,4.178867 -5.09072,-0.579311 C 152.38359,93.538952 150,94.959316 150,99.945386 c 0,8.214004 13.32908,19.596304 29.8096,25.455774 7.00449,2.49036 8.20453,2.59884 28.75,2.59884 H 230 v 45.5 45.5 l -27.25,-0.12974 c -14.9875,-0.0713 -30.47864,-0.50593 -34.42476,-0.96573 z"
       id="path4781"
       inkscape:connector-curvature="0" />
    <path
       style="fill:#c1bdb8"
       d="M 168.32524,217.90453 C 125.85641,212.9561 85.777068,193.57707 55.6,163.4 27.522557,135.32256 10.188919,101.85996 2.2977658,60.5 1.2868764,55.201618 0.60159419,43.635315 0.26851638,26.25 L -0.23439614,0 H 59.243511 118.72142 l 0.6306,5.25 c 0.34683,2.8875 0.63451,11.590517 0.63929,19.340037 0.0104,16.851704 1.87573,25.504761 8.0609,37.393437 4.40756,8.471874 13.17059,18.819922 19.86719,23.460672 2.26426,1.569128 3.98354,2.986245 3.82064,3.149149 -0.1629,0.162903 -1.9288,-0.07203 -3.92422,-0.522067 -10.66764,-2.405943 -14.53176,9.214041 -6.8007,20.450742 9.85421,14.3226 31.15139,23.47355 54.65149,23.48258 6.50837,0.002 16.89589,0.29625 23.08339,0.65279 L 230,133.30558 V 176.15279 219 l -27.25,-0.12974 c -14.9875,-0.0713 -30.47864,-0.50593 -34.42476,-0.96573 z"
       id="path4779"
       inkscape:connector-curvature="0" />
    <path
       style="fill:#bcb7b2"
       d="M 168.32524,217.90453 C 125.85641,212.9561 85.777068,193.57707 55.6,163.4 27.522557,135.32256 10.188919,101.85996 2.2977658,60.5 1.2868764,55.201618 0.60159419,43.635315 0.26851638,26.25 L -0.23439614,0 H 59.243511 118.72142 l 0.6306,5.25 c 0.34683,2.8875 0.63451,11.590517 0.63929,19.340037 0.0147,23.847355 5.69017,39.04379 19.98971,53.52387 6.31262,6.392313 7.0027,7.395078 4.3011,6.25 -5.23368,-2.218306 -8.77024,-1.721944 -12.2052,1.713016 -2.99432,2.994319 -3.49887,4.845928 -3.11271,11.423077 0.62191,10.5925 14.3507,24.69775 30.63806,31.4782 12.54013,5.22047 18.68032,6.12424 45.64773,6.7189 L 230,136.24287 V 177.62143 219 l -27.25,-0.12974 c -14.9875,-0.0713 -30.47864,-0.50593 -34.42476,-0.96573 z"
       id="path4777"
       inkscape:connector-curvature="0" />
    <path
       style="fill:#aba7a2"
       d="M 168.32524,217.90453 C 125.85641,212.9561 85.777068,193.57707 55.6,163.4 27.522557,135.32256 10.188919,101.85996 2.2977658,60.5 1.2868764,55.201618 0.60159419,43.635315 0.26851638,26.25 L -0.23439614,0 H 59.243511 118.72142 l 0.6306,5.25 c 0.34683,2.8875 0.63451,11.590517 0.63929,19.340037 0.007,10.71912 0.47963,15.931401 1.97717,21.786719 2.47673,9.683927 8.58255,21.503577 14.7644,28.580938 3.94891,4.520954 4.22031,5.054636 1.58127,3.109372 -4.21252,-3.105096 -11.58708,-3.70528 -16.28464,-1.325336 -12.22164,6.191908 -9.68358,25.52465 5.33793,40.65972 11.26417,11.34932 26.14506,19.20936 42.92282,22.67171 7.61422,1.57131 13.58411,1.90284 34.45974,1.9137 L 230,142 v 38.5 38.5 l -27.25,-0.12974 c -14.9875,-0.0713 -30.47864,-0.50593 -34.42476,-0.96573 z"
       id="path4775"
       inkscape:connector-curvature="0" />
    <path
       style="fill:#a6a19d"
       d="M 168.32524,217.90453 C 125.85641,212.9561 85.777068,193.57707 55.6,163.4 27.522557,135.32256 10.188919,101.85996 2.2977658,60.5 1.2868764,55.201618 0.60159419,43.635315 0.26851638,26.25 L -0.23439614,0 H 59.243511 118.72142 l 0.6306,5.25 c 0.34683,2.8875 0.63451,11.590517 0.63929,19.340037 0.0121,19.619256 3.82916,33.169383 12.79196,45.409963 2.55745,3.492739 2.55774,3.495505 0.13975,1.333424 -1.33266,-1.191617 -4.92393,-3.266059 -7.9806,-4.609873 -4.62901,-2.035068 -6.65472,-3.845127 -12.12413,-10.833424 -12.870623,-16.444866 -20.734186,-22.3253 -25.681347,-19.204711 -4.082644,2.575266 -5.401623,6.046691 -5.897181,15.520812 -0.798569,15.267117 4.442866,31.360619 15.290189,46.947579 5.607359,8.057443 23.388109,26.048913 29.853059,30.206853 9.16606,5.89516 10.2653,6.48121 19.78747,10.54953 17.96216,7.67427 28.76629,9.0116 81.07952,10.03596 L 230,150 v 34.5 34.5 l -27.25,-0.12974 c -14.9875,-0.0713 -30.47864,-0.50593 -34.42476,-0.96573 z"
       id="path4773"
       inkscape:connector-curvature="0" />
    <path
       style="fill:#a19d99"
       d="M 168.32524,217.90453 C 125.85641,212.9561 85.777068,193.57707 55.6,163.4 27.522557,135.32256 10.188919,101.85996 2.2977658,60.5 1.2868764,55.201618 0.60159419,43.635315 0.26851638,26.25 L -0.23439614,0 H 34.540827 69.316051 l -0.613932,21.964303 c -0.70361,25.172639 0.383608,35.526965 5.258074,50.076272 C 85.779883,107.31999 112.6835,133.7677 150,146.79181 c 16.08705,5.61467 21.78037,6.2935 52.25,6.22996 l 27.75,-0.0579 v 33.01805 33.01805 l -27.25,-0.12974 c -14.9875,-0.0713 -30.47864,-0.50593 -34.42476,-0.96573 z M 126.68566,65.072363 C 122.06963,61.461671 119.35781,57.655815 112.02706,44.5 103.32511,28.883437 104,31.368147 104,14.947085 V 0 h 7.36071 7.36071 l 0.6306,5.25 c 0.34683,2.8875 0.63451,11.590517 0.63929,19.340037 0.0103,16.721049 1.89963,25.615028 7.85598,36.982072 2.14072,4.08534 3.83833,7.391481 3.77246,7.34698 -0.0659,-0.0445 -2.2862,-1.775528 -4.93409,-3.846726 z"
       id="path4771"
       inkscape:connector-curvature="0" />
    <path
       style="fill:#9b9793"
       d="M 168.32524,217.90453 C 125.85641,212.9561 85.777068,193.57707 55.6,163.4 27.522557,135.32256 10.188919,101.85996 2.2977658,60.5 1.2868764,55.201618 0.60159419,43.635315 0.26851638,26.25 L -0.23439614,0 H 28.882802 58 l 0.0086,13.25 c 0.02097,32.490457 4.034224,52.742921 14.704917,74.20688 17.740793,35.68537 50.165343,60.75483 90.786533,70.1928 5.32718,1.23772 14.10949,1.73413 36.75,2.07726 l 29.75,0.45087 V 189.5889 219 l -27.25,-0.12974 c -14.9875,-0.0713 -30.47864,-0.50593 -34.42476,-0.96573 z M 125.61945,62.131994 C 123.5045,59.794992 115.51545,43.577025 112.36601,35.227171 110.27581,29.685575 110,27.266718 110,14.477171 V 0 h 4.36071 4.36071 l 0.6306,5.25 c 0.34683,2.8875 0.63451,11.590517 0.63929,19.340037 0.01,15.585988 1.80654,25.13072 6.4601,34.314077 2.61979,5.169909 2.24423,6.62703 -0.83196,3.22788 z"
       id="path4769"
       inkscape:connector-curvature="0" />
    <path
       style="fill:#95918d"
       d="M 168.32524,217.90453 C 125.85641,212.9561 85.777068,193.57707 55.6,163.4 27.522557,135.32256 10.188919,101.85996 2.2977658,60.5 1.2868764,55.201618 0.60159419,43.635315 0.26851638,26.25 L -0.23439614,0 H 23.882802 c 13.264459,0 24.160019,0.1125 24.212357,0.25 0.05234,0.1375 0.445137,9.25 0.872889,20.25 1.139319,29.298578 4.769659,44.868116 15.666868,67.190909 19.55963,40.067651 56.334904,68.573941 101.166084,78.418711 8.13525,1.78648 14.09246,2.20811 36.949,2.61513 l 27.25,0.48526 v 24.895 V 219 l -27.25,-0.12974 c -14.9875,-0.0713 -30.47864,-0.50593 -34.42476,-0.96573 z M 123.95726,55.915325 C 122.26791,52.568753 119.56143,45.778174 117.94286,40.825148 115.18638,32.390001 115,30.812012 115,15.909823 115,1.0636649 115.1244,0 116.86071,0 c 2.41187,0 3.11885,5.5531681 3.1306,24.590037 0.009,15.090034 1.819,25.197491 5.96741,33.329038 1.14506,2.244509 1.85426,4.080925 1.576,4.080925 -0.27826,0 -1.88812,-2.738104 -3.57746,-6.084675 z"
       id="path4767"
       inkscape:connector-curvature="0" />
    <path
       style="fill:#918d89"
       d="M 168.32524,217.90453 C 125.85641,212.9561 85.777068,193.57707 55.6,163.4 27.522557,135.32256 10.188919,101.85996 2.2977658,60.5 1.2868764,55.201618 0.60159419,43.635315 0.26851638,26.25 L -0.23439614,0 H 18.882802 38 v 14.613845 c 0,12.491778 0.279248,15.14185 1.923072,18.25 C 42.174185,37.120263 45,45.599675 45,48.098165 c 0,4.760668 7.711503,27.727576 12.97488,38.642646 8.444794,17.512619 16.469059,28.775889 30.488738,42.795569 21.826742,21.82674 45.586802,34.97342 76.036382,42.07168 11.2249,2.61669 13.72782,2.82205 38.75,3.17932 L 230,175.16932 V 197.08466 219 l -27.25,-0.12974 c -14.9875,-0.0713 -30.47864,-0.50593 -34.42476,-0.96573 z M 119.09916,39.193716 C 117.45354,32.184249 117,26.984318 117,15.126215 117,0.07236689 118.15006,-4.7567864 119.35202,5.25 c 0.34683,2.8875 0.64551,11.55 0.66373,19.25 0.0182,7.7 0.48775,15.971889 1.04339,18.381976 0.55563,2.410087 0.81425,4.577963 0.57472,4.817502 -0.23954,0.239539 -1.38015,-3.588054 -2.5347,-8.505762 z"
       id="path4765"
       inkscape:connector-curvature="0" />
    <path
       style="fill:#8b8783"
       d="M 168.32524,217.90453 C 125.85641,212.9561 85.777068,193.57707 55.6,163.4 27.522557,135.32256 10.188919,101.85996 2.2977658,60.5 1.2868764,55.201618 0.60159419,43.635315 0.26851638,26.25 L -0.23439614,0 H 13.193082 26.62056 l -0.429618,14.28018 -0.429618,14.280181 5.654001,8.764414 c 6.8137,10.562096 8.736632,14.714818 11.657469,25.175225 14.360858,51.43059 55.119151,93.63544 106.627736,110.41207 18.16183,5.91541 28.38711,7.35978 55.54947,7.84665 L 230,181.20235 V 200.10117 219 l -27.25,-0.12974 c -14.9875,-0.0713 -30.47864,-0.50593 -34.42476,-0.96573 z M 118.75,31.610429 c -0.4125,-2.689264 -0.69739,-11.014264 -0.6331,-18.5 0.10122,-11.783634 0.2391,-12.8726349 1.02731,-8.1135374 0.50072,3.0232903 0.78561,11.3482904 0.6331,18.5000004 -0.21762,10.20407 -0.43875,11.950583 -1.02731,8.113537 z"
       id="path4763"
       inkscape:connector-curvature="0" />
    <path
       style="fill:#84817d"
       d="M 168.32524,217.90453 C 125.85641,212.9561 85.777068,193.57707 55.6,163.4 27.522557,135.32256 10.188919,101.85996 2.2977658,60.5 1.2868764,55.201618 0.60159419,43.635315 0.26851638,26.25 L -0.23439614,0 H 8.8828019 18 v 14.861512 14.861512 l 3.935695,7.15999 c 2.164633,3.937994 6.247671,10.930047 9.073419,15.537895 2.825748,4.607848 6.672626,12.785781 8.548618,18.173183 20.48406,58.825348 68.656808,100.564768 131.000338,113.505638 7.8481,1.62906 15.15443,2.17735 34.69193,2.60341 L 230,187.24287 V 203.12143 219 l -27.25,-0.12974 c -14.9875,-0.0713 -30.47864,-0.50593 -34.42476,-0.96573 z M 119.38854,19.5 c 0.002,-7.15 0.16103,-9.9437853 0.35396,-6.208412 0.19293,3.735374 0.19149,9.585374 -0.003,13 C 119.54464,29.706215 119.38679,26.65 119.38854,19.5 Z"
       id="path4761"
       inkscape:connector-curvature="0" />
    <path
       style="fill:#817d7a"
       d="M 168.32524,217.90453 C 125.85641,212.9561 85.777068,193.57707 55.6,163.4 27.522557,135.32256 10.188919,101.85996 2.2977658,60.5 1.2868764,55.201618 0.60159419,43.635315 0.26851638,26.25 L -0.23439614,0 H 6.3828019 13 v 15.022197 15.022198 l 4.057017,8.069007 c 2.23136,4.437953 7.002126,12.865464 10.601702,18.727802 C 31.258296,62.703542 35.533597,71.1 37.159388,75.5 c 21.198245,57.37039 69.942502,99.01168 131.271112,112.14242 10.55134,2.25909 15.18268,2.64684 36.8195,3.08267 L 230,191.22362 V 205.11181 219 l -27.25,-0.12974 c -14.9875,-0.0713 -30.47864,-0.50593 -34.42476,-0.96573 z"
       id="path4759"
       inkscape:connector-curvature="0" />
    <path
       style="fill:#7a7774"
       d="M 168.32524,217.90453 C 89.691445,208.74219 24.644556,151.71415 5.6061781,75.245165 0.83346033,56.075208 -0.67092367,41.361926 1.4401209,34.5 2.526124,30.96996 2.9815337,25.163618 2.9891757,14.75 2.9993472,0.88954599 3.1154705,0 4.9146729,0 6.5409419,0 6.9080442,0.94142699 7.351813,6.25 9.5276168,32.278 9.5393618,32.347839 12.94355,39.5 c 3.849575,8.087911 9.788635,18.652328 14.843615,26.403864 1.938201,2.972125 5.408291,9.947125 7.71131,15.5 9.627061,23.212076 20.68909,40.260166 37.837999,58.313506 13.733621,14.45793 33.578286,28.60923 52.884556,37.71217 27.12098,12.78759 52.94096,18.04384 85.52897,17.41138 L 230,194.48673 V 206.74336 219 l -27.25,-0.12974 c -14.9875,-0.0713 -30.47864,-0.50593 -34.42476,-0.96573 z"
       id="path4757"
       inkscape:connector-curvature="0" />
    <path
       style="fill:#6a6764"
       d="M 168.32524,217.90453 C 140.96116,214.71609 110.57719,203.9839 88,189.53215 47.443578,163.57181 17.7127,122.72356 5.9356913,76.781232 3.5527253,67.485238 3.8006707,62.49971 7.0063705,55.252694 L 9.0261607,50.686623 16.113112,63.093311 C 20.010935,69.91699 23.783574,76.175 24.496754,77 c 0.71318,0.825 4.0389,7.296252 7.390489,14.380561 11.401404,24.099329 22.932216,40.422099 40.745382,57.678279 25.992713,25.17997 56.762155,41.36868 94.367375,49.64944 10.15197,2.23549 14.51841,2.58962 37.25,3.02103 L 230,202.218 v 8.391 8.391 l -27.25,-0.12974 c -14.9875,-0.0713 -30.47864,-0.50593 -34.42476,-0.96573 z"
       id="path4755"
       inkscape:connector-curvature="0" />
    <path
       style="fill:#63605e"
       d="M 168.32524,217.90453 C 104.5823,210.47726 48.842733,171.49265 20.052351,114.20154 11.532137,97.246834 10.659194,93.4788 13.605096,86.372124 c 2.060987,-4.971914 1.787946,-4.815924 4.881609,-2.788879 1.647903,1.079748 4.70483,5.819865 8.033099,12.456243 C 48.740673,140.34664 76.540693,168.61322 117.5,188.54658 147.68206,203.23506 174.62927,209 213.10595,209 H 230 v 5 5 l -27.25,-0.12974 c -14.9875,-0.0713 -30.47864,-0.50593 -34.42476,-0.96573 z"
       id="path4753"
       inkscape:connector-curvature="0" />
    <path
       style="fill:#625f5d"
       d="M 168.32524,217.90453 C 133.86053,213.88873 100.15628,200.02608 72.458633,178.47432 51.921154,162.49394 32.670778,139.21256 21.214733,116.5 15.671665,105.51041 14.835204,102.05038 16.760507,98.075066 c 1.893765,-3.910196 4.023575,-3.677819 6.72611,0.733864 1.107361,1.80768 3.363383,5.02342 5.013383,7.14608 1.65,2.12267 5.925,8.66495 9.5,14.53841 8.002293,13.14717 14.452422,21.37536 25.771088,32.87524 15.950062,16.20542 35.5589,29.76161 55.834282,38.59994 5.44205,2.37227 12.81963,5.75938 16.39463,7.52691 16.56268,8.18884 38.64855,11.47548 77.25,11.49571 L 230,211 v 4 4 l -27.25,-0.12974 c -14.9875,-0.0713 -30.47864,-0.50593 -34.42476,-0.96573 z"
       id="path4751"
       inkscape:connector-curvature="0" />
  </g>
</svg>
