<?xml version="1.0" encoding="UTF-8" standalone="no"?>
<!-- Created with Inkscape (http://www.inkscape.org/) -->

<svg
   xmlns:dc="http://purl.org/dc/elements/1.1/"
   xmlns:cc="http://creativecommons.org/ns#"
   xmlns:rdf="http://www.w3.org/1999/02/22-rdf-syntax-ns#"
   xmlns:svg="http://www.w3.org/2000/svg"
   xmlns="http://www.w3.org/2000/svg"
   xmlns:sodipodi="http://sodipodi.sourceforge.net/DTD/sodipodi-0.dtd"
   xmlns:inkscape="http://www.inkscape.org/namespaces/inkscape"
   version="1.1"
   id="svg2"
   width="230.23439"
   height="219.00459"
   viewBox="0 0 230.23439 219.00459"
   sodipodi:docname="codo_abajo_dere_verde.svg"
   inkscape:version="0.92.5 (2060ec1f9f, 2020-04-08)">
  <metadata
     id="metadata8">
    <rdf:RDF>
      <cc:Work
         rdf:about="">
        <dc:format>image/svg+xml</dc:format>
        <dc:type
           rdf:resource="http://purl.org/dc/dcmitype/StillImage" />
        <dc:title></dc:title>
      </cc:Work>
    </rdf:RDF>
  </metadata>
  <defs
     id="defs6" />
  <sodipodi:namedview
     pagecolor="#ffffff"
     bordercolor="#666666"
     borderopacity="1"
     objecttolerance="10"
     gridtolerance="10"
     guidetolerance="10"
     inkscape:pageopacity="0"
     inkscape:pageshadow="2"
     inkscape:window-width="1920"
     inkscape:window-height="1017"
     id="namedview4"
     showgrid="false"
     inkscape:pagecheckerboard="true"
     fit-margin-top="0"
     fit-margin-left="0"
     fit-margin-right="0"
     fit-margin-bottom="0"
     inkscape:zoom="1.0776256"
     inkscape:cx="-175.21899"
     inkscape:cy="198.58475"
     inkscape:window-x="-8"
     inkscape:window-y="-8"
     inkscape:window-maximized="1"
     inkscape:current-layer="svg2" />
  <g
     id="g4749"
     transform="translate(0.23439614,0.00459973)">
    <path
       style="fill:#00bb00"
       d="M 168.32524,217.90453 C 125.85641,212.9561 85.777068,193.57707 55.6,163.4 27.522557,135.32256 10.188919,101.85996 2.2977658,60.5 1.2868764,55.201618 0.60159419,43.635315 0.26851638,26.25 L -0.23439614,0 H 59.243511 118.72142 l 0.6306,5.25 c 0.34683,2.8875 0.63451,11.590517 0.63929,19.340037 0.007,10.71912 0.47963,15.931401 1.97717,21.786719 6.30899,24.667907 25.98686,44.345776 50.65476,50.654765 C 179.26461,98.730096 183.72582,99 205.15996,99 H 230 v 60 60 l -27.25,-0.12974 c -14.9875,-0.0713 -30.47864,-0.50593 -34.42476,-0.96573 z"
       id="path4787"
       inkscape:connector-curvature="0" />
    <path
       style="fill:#00b300"
       d="M 168.32524,217.90453 C 125.85641,212.9561 85.777068,193.57707 55.6,163.4 27.522557,135.32256 10.188919,101.85996 2.2977658,60.5 1.2868764,55.201618 0.60159419,43.635315 0.26851638,26.25 L -0.23439614,0 H 59.243511 118.72142 l 0.6306,5.25 c 0.34683,2.8875 0.63451,11.590517 0.63929,19.340037 0.007,10.71912 0.47963,15.931401 1.97717,21.786719 6.25633,24.462028 25.79497,44.144368 50.26103,50.630688 l 7.27049,1.927516 -8,-0.55876 c -10.02257,-0.700026 -12.58227,0.596751 -10.6042,5.37223 1.95636,4.72309 6.30529,8.20232 13.74837,10.99899 6.51349,2.44738 8.06673,2.59856 31.10583,3.02755 L 230,118.22652 V 168.61326 219 l -27.25,-0.12974 c -14.9875,-0.0713 -30.47864,-0.50593 -34.42476,-0.96573 z M 196.30642,99.252744 c 6.49353,-0.174455 16.84353,-0.173881 23,0.0013 6.15647,0.175157 0.84358,0.317892 -11.80642,0.31719 -12.65,-7.02e-4 -17.68711,-0.144012 -11.19358,-0.318467 z"
       id="path4785"
       inkscape:connector-curvature="0" />
    <path
       style="fill:#00ab00"
       d="M 168.32524,217.90453 C 125.85641,212.9561 85.777068,193.57707 55.6,163.4 27.522557,135.32256 10.188919,101.85996 2.2977658,60.5 1.2868764,55.201618 0.60159419,43.635315 0.26851638,26.25 L -0.23439614,0 H 59.243511 118.72142 l 0.6306,5.25 c 0.34683,2.8875 0.63451,11.590517 0.63929,19.340037 0.0104,16.924377 1.86688,25.464755 8.19422,37.696681 5.20695,10.065997 17.23287,22.599187 26.28938,27.398278 l 5.9749,3.166136 -6.03207,-0.546969 C 147.10749,91.641293 145,93.130375 145,98.958414 c 0,8.564326 11.72384,19.559716 25.8067,24.203216 6.05285,1.99579 9.20503,2.24538 32.9433,2.6085 L 230,126.17167 V 172.58584 219 l -27.25,-0.12974 c -14.9875,-0.0713 -30.47864,-0.50593 -34.42476,-0.96573 z"
       id="path4783"
       inkscape:connector-curvature="0" />
    <path
       style="fill:#00a300"
       d="M 168.32524,217.90453 C 125.85641,212.9561 85.777068,193.57707 55.6,163.4 27.522557,135.32256 10.188919,101.85996 2.2977658,60.5 1.2868764,55.201618 0.60159419,43.635315 0.26851638,26.25 L -0.23439614,0 H 59.243511 118.72142 l 0.6306,5.25 c 0.34683,2.8875 0.63451,11.590517 0.63929,19.340037 0.015,24.25191 5.66208,39.09715 20.57056,54.076214 5.093,5.117106 7.22795,7.824137 5.71785,7.25 -4.68655,-1.781824 -8.32226,-1.082224 -11.37851,2.189504 -8.36158,8.951099 2.55934,27.638165 21.59879,36.958255 13.71254,6.71248 16.8061,7.22123 46.75,7.68817 L 230,133.16932 V 176.08466 219 l -27.25,-0.12974 c -14.9875,-0.0713 -30.47864,-0.50593 -34.42476,-0.96573 z"
       id="path4781"
       inkscape:connector-curvature="0" />
    <path
       style="fill:#009b00"
       d="M 168.32524,217.90453 C 125.85641,212.9561 85.777068,193.57707 55.6,163.4 27.522557,135.32256 10.188919,101.85996 2.2977658,60.5 1.2868764,55.201618 0.60159419,43.635315 0.26851638,26.25 L -0.23439614,0 H 59.243511 118.72142 l 0.6306,5.25 c 0.34683,2.8875 0.63451,11.590517 0.63929,19.340037 0.007,10.71912 0.47963,15.931401 1.97717,21.786719 2.59865,10.16061 8.85996,21.987798 15.55976,29.391316 l 5.42108,5.990491 -3.6861,-1.879282 c -4.63291,-2.361988 -7.86864,-2.375783 -12.20156,-0.05202 -11.15738,5.983768 -8.66058,23.341759 5.34357,37.149069 7.4315,7.32704 11.72573,10.30112 20.97819,14.52897 13.75591,6.28569 17.28236,6.81381 48.36658,7.24343 L 230,139.13919 V 179.06959 219 l -27.25,-0.12974 c -14.9875,-0.0713 -30.47864,-0.50593 -34.42476,-0.96573 z"
       id="path4779"
       inkscape:connector-curvature="0" />
    <path
       style="fill:#009500"
       d="M 168.32524,217.90453 C 125.85641,212.9561 85.777068,193.57707 55.6,163.4 27.522557,135.32256 10.188919,101.85996 2.2977658,60.5 1.2868764,55.201618 0.60159419,43.635315 0.26851638,26.25 L -0.23439614,0 H 59.243511 118.72142 l 0.6306,5.25 c 0.34683,2.8875 0.63451,11.590517 0.63929,19.340037 0.0125,20.233213 3.75063,32.992591 13.63996,46.557082 l 3.38802,4.647119 -3.72108,-1.897119 c -4.69058,-2.391394 -9.92381,-2.414673 -15.16646,-0.06747 -9.06886,4.060249 -11.49555,10.734487 -8.09148,22.254332 5.0284,17.016829 22.36295,33.517959 43.95973,41.846219 13.7501,5.30238 20.22837,6.19412 49.25,6.77934 L 230,145.24895 V 182.12448 219 l -27.25,-0.12974 c -14.9875,-0.0713 -30.47864,-0.50593 -34.42476,-0.96573 z"
       id="path4777"
       inkscape:connector-curvature="0" />
    <path
       style="fill:#009100"
       d="M 168.32524,217.90453 C 125.85641,212.9561 85.777068,193.57707 55.6,163.4 27.522557,135.32256 10.188919,101.85996 2.2977658,60.5 1.2868764,55.201618 0.60159419,43.635315 0.26851638,26.25 L -0.23439614,0 H 59.243511 118.72142 l 0.6306,5.25 c 0.34683,2.8875 0.63451,11.590517 0.63929,19.340037 0.007,10.628385 0.48331,15.945786 1.94055,21.643527 2.05361,8.029562 6.66064,18.099546 10.803,23.613089 l 2.51436,3.346653 -3.87461,-2.529411 c -2.13103,-1.391176 -5.51429,-2.825779 -7.51834,-3.188007 -2.89041,-0.522436 -5.47468,-2.552879 -12.5,-9.821155 C 101.38636,47.340024 96.973453,44.356921 92.349066,44.80597 c -2.713318,0.263475 -3.44246,0.983643 -5.25,5.185381 -2.4816,5.768637 -2.574879,8.345861 -0.663613,18.335151 2.982419,15.587695 9.405732,27.268514 24.089687,43.807188 10.82125,12.18807 18.99671,18.61725 30.97486,24.35863 18.8118,9.01689 30.77871,11.5048 55.38099,11.51367 9.14046,0.003 20.33151,0.295 24.86901,0.64822 l 8.25,0.64222 V 184.14822 219 l -27.25,-0.12974 c -14.9875,-0.0713 -30.47864,-0.50593 -34.42476,-0.96573 z"
       id="path4775"
       inkscape:connector-curvature="0" />
    <path
       style="fill:#008d00"
       d="M 168.32524,217.90453 C 125.85641,212.9561 85.777068,193.57707 55.6,163.4 27.522557,135.32256 10.188919,101.85996 2.2977658,60.5 1.2868764,55.201618 0.60159419,43.635315 0.26851638,26.25 L -0.23439614,0 H 37.539462 75.31332 l -0.897943,16.25 c -0.493868,8.9375 -0.85619,22.55 -0.805159,30.25 0.08046,12.139781 0.450676,15.195855 2.786282,23 8.290976,27.703289 26.71834,50.25285 53.77876,65.80904 6.03306,3.46822 23.22957,10.18936 32.82474,12.82933 7.17079,1.97293 31.58976,3.53498 59.25,3.79014 L 230,152 v 33.5 33.5 l -27.25,-0.12974 c -14.9875,-0.0713 -30.47864,-0.50593 -34.42476,-0.96573 z M 126.57748,66.012988 c -4.28206,-2.510716 -6.31108,-5.029366 -15.59472,-19.357917 l -10.67218,-16.471672 -0.649298,-8.3417 C 99.30417,17.253765 99.00929,10.4625 99.005994,6.75 L 99,0 h 9.86071 9.86071 l 0.6306,5.25 c 0.34683,2.8875 0.63451,11.590517 0.63929,19.340037 0.0103,16.721049 1.89963,25.615028 7.85598,36.982072 2.14072,4.08534 3.83833,7.405218 3.77246,7.377507 -0.0659,-0.02771 -2.33489,-1.349193 -5.04227,-2.936628 z"
       id="path4773"
       inkscape:connector-curvature="0" />
    <path
       style="fill:#008900"
       d="M 168.32524,217.90453 C 125.85641,212.9561 85.777068,193.57707 55.6,163.4 27.522557,135.32256 10.188919,101.85996 2.2977658,60.5 1.2868764,55.201618 0.60159419,43.635315 0.26851638,26.25 L -0.23439614,0 H 31.382802 63 V 22.464542 C 63,46.473885 64.313052,57.111211 68.991129,71 81.342737,107.67081 111.39655,137.86048 147.5,149.86375 c 17.2849,5.74669 21.67784,6.31208 53.25,6.85346 L 230,157.21877 V 188.10938 219 l -27.25,-0.12974 c -14.9875,-0.0713 -30.47864,-0.50593 -34.42476,-0.96573 z M 126.39325,63.223099 C 122.442,59.759784 118.67583,53.3988 112.17388,39.206869 L 107,27.913737 V 13.956869 0 h 5.86071 5.86071 l 0.6306,5.25 c 0.34683,2.8875 0.63451,11.590517 0.63929,19.340037 0.01,16.017966 1.79578,25.083246 6.95494,35.303489 1.6954,3.358561 2.96356,6.094369 2.81815,6.079573 -0.14542,-0.0148 -1.66244,-1.252295 -3.37115,-2.75 z"
       id="path4771"
       inkscape:connector-curvature="0" />
    <path
       style="fill:#008500"
       d="M 168.32524,217.90453 C 125.85641,212.9561 85.777068,193.57707 55.6,163.4 27.522557,135.32256 10.188919,101.85996 2.2977658,60.5 1.2868764,55.201618 0.60159419,43.635315 0.26851638,26.25 L -0.23439614,0 H 27.403434 55.041265 l -0.133874,18.75 c -0.158544,22.205258 1.373904,33.088827 7.092466,50.371269 4.5949,13.886551 8.780281,22.444147 16.843846,34.439601 22.215727,33.04838 57.741447,54.33657 99.130067,59.40204 4.66057,0.5704 18.27307,1.03709 30.25,1.03709 H 230 v 27.5 27.5 l -27.25,-0.12974 c -14.9875,-0.0713 -30.47864,-0.50593 -34.42476,-0.96573 z M 126.8199,62.25 C 123.98275,58.917937 121.14782,53.453235 116.83356,43 L 112.5,32.5 112.1827,16.25 111.8654,0 h 3.42801 c 3.38863,0 3.43525,0.06030449 4.05861,5.25 0.34683,2.8875 0.63451,11.590517 0.63929,19.340037 0.01,15.585988 1.80654,25.13072 6.4601,34.314077 2.72422,5.375992 2.81739,6.22197 0.36849,3.345886 z"
       id="path4769"
       inkscape:connector-curvature="0" />
    <path
       style="fill:#008100"
       d="M 168.32524,217.90453 C 125.85641,212.9561 85.777068,193.57707 55.6,163.4 27.522557,135.32256 10.188919,101.85996 2.2977658,60.5 1.2868764,55.201618 0.60159419,43.635315 0.26851638,26.25 L -0.23439614,0 H 23.382802 47 l 0.03422,2.75 c 0.186021,14.95103 2.254571,40.374515 3.907121,48.020417 12.979417,60.052243 56.047519,103.280833 115.900089,116.331953 7.98883,1.742 14.28302,2.19454 36.40857,2.6177 l 26.75,0.5116 V 194.61583 219 l -27.25,-0.12974 c -14.9875,-0.0713 -30.47864,-0.50593 -34.42476,-0.96573 z M 122.94278,53.534083 C 116.79391,39.973036 115,31.244687 115,14.888133 115,1.0381706 115.12975,0 116.86071,0 c 2.41187,0 3.11885,5.5531681 3.1306,24.590037 0.009,14.514168 1.83716,25.310005 5.47855,32.351686 0.86983,1.682052 1.31672,3.058277 0.9931,3.058277 -0.32361,0 -1.90769,-2.909663 -3.52018,-6.465917 z"
       id="path4767"
       inkscape:connector-curvature="0" />
    <path
       style="fill:#007d00"
       d="M 168.32524,217.90453 C 125.85641,212.9561 85.777068,193.57707 55.6,163.4 27.522557,135.32256 10.188919,101.85996 2.2977658,60.5 1.2868764,55.201618 0.60159419,43.635315 0.26851638,26.25 L -0.23439614,0 H 18.882802 38 v 14.613845 c 0,12.491778 0.279248,15.14185 1.923072,18.25 C 42.174185,37.120263 45,45.599675 45,48.098165 c 0,0.958038 1.591248,7.290375 3.536107,14.071861 4.243679,14.797188 12.96144,33.332589 21.652666,46.037144 10.553543,15.42683 28.518239,32.82073 44.401777,42.99098 13.10339,8.39012 32.66695,16.39042 49.90945,20.40991 11.2249,2.61669 13.72782,2.82205 38.75,3.17932 L 230,175.16932 V 197.08466 219 l -27.25,-0.12974 c -14.9875,-0.0713 -30.47864,-0.50593 -34.42476,-0.96573 z M 119.09916,39.193716 C 117.45354,32.184249 117,26.984318 117,15.126215 117,0.07236689 118.15006,-4.7567864 119.35202,5.25 c 0.34683,2.8875 0.64551,11.55 0.66373,19.25 0.0182,7.7 0.48775,15.971889 1.04339,18.381976 0.55563,2.410087 0.81425,4.577963 0.57472,4.817502 -0.23954,0.239539 -1.38015,-3.588054 -2.5347,-8.505762 z"
       id="path4765"
       inkscape:connector-curvature="0" />
    <path
       style="fill:#007900"
       d="M 168.32524,217.90453 C 125.85641,212.9561 85.777068,193.57707 55.6,163.4 27.522557,135.32256 10.188919,101.85996 2.2977658,60.5 1.2868764,55.201618 0.60159419,43.635315 0.26851638,26.25 L -0.23439614,0 H 14.017297 28.26899 l -0.708539,14.304823 -0.708538,14.304823 5.32709,7.945177 c 6.227293,9.2878 7.957954,13.092794 10.891208,23.945177 4.936577,18.26423 15.15332,39.014347 26.912666,54.65939 25.141125,33.44864 61.709883,55.74667 102.892453,62.73932 10.03383,1.70371 16.60876,2.10129 34.75,2.10129 H 230 v 19.5 19.5 l -27.25,-0.12974 c -14.9875,-0.0713 -30.47864,-0.50593 -34.42476,-0.96573 z M 118.75,32.610429 c -0.4125,-2.689264 -0.69739,-11.239264 -0.6331,-19 0.10011,-12.0827734 0.24763,-13.32119336 1.02665,-8.6181486 0.50035,3.0207542 0.78525,11.5707546 0.63309,18.9999996 -0.21396,10.446996 -0.44658,12.399789 -1.02664,8.618149 z"
       id="path4763"
       inkscape:connector-curvature="0" />
    <path
       style="fill:#007500"
       d="M 168.32524,217.90453 C 125.85641,212.9561 85.777068,193.57707 55.6,163.4 27.522557,135.32256 10.188919,101.85996 2.2977658,60.5 1.2868764,55.201618 0.60159419,43.635315 0.26851638,26.25 L -0.23439614,0 H 10.382802 21 v 15.07193 c 0,16.947147 -0.83588,14.372654 10.580251,32.586937 3.041365,4.852458 6.619656,12.552276 8.829757,19 C 61.93183,129.4464 108.97715,170.24812 174.14612,182.64622 c 5.4704,1.04072 16.55158,1.76083 32.10388,2.08627 L 230,185.22948 V 202.11474 219 l -27.25,-0.12974 c -14.9875,-0.0713 -30.47864,-0.50593 -34.42476,-0.96573 z M 119.39456,20.5 c 0.002,-7.7 0.15853,-10.7178123 0.34883,-6.70625 0.1903,4.011563 0.18902,10.311563 -0.003,14 C 119.5487,31.482188 119.393,28.2 119.39456,20.5 Z"
       id="path4761"
       inkscape:connector-curvature="0" />
    <path
       style="fill:#007100"
       d="M 168.32524,217.90453 C 125.85641,212.9561 85.777068,193.57707 55.6,163.4 27.522557,135.32256 10.188919,101.85996 2.2977658,60.5 1.2868764,55.201618 0.60159419,43.635315 0.26851638,26.25 L -0.23439614,0 H 7.3828019 15 v 14.576814 14.576813 l 5.534388,9.996178 c 3.043913,5.497898 7.715342,13.5126 10.380953,17.81045 2.665611,4.29785 5.838149,10.902504 7.050083,14.677009 3.425157,10.667463 15.352153,33.869546 22.796206,44.346416 8.718727,12.27086 28.166819,31.71699 40.23837,40.23431 17.30407,12.20924 37.03667,21.41213 57.22649,26.68929 19.28832,5.04153 24.4433,5.60872 49.02351,5.39387 L 230,188.10229 V 203.55115 219 l -27.25,-0.12974 c -14.9875,-0.0713 -30.47864,-0.50593 -34.42476,-0.96573 z M 119.15789,27 c 0,-1.375 0.22698,-1.9375 0.50439,-1.25 0.27741,0.6875 0.27741,1.8125 0,2.5 -0.27741,0.6875 -0.50439,0.125 -0.50439,-1.25 z"
       id="path4759"
       inkscape:connector-curvature="0" />
    <path
       style="fill:#006b00"
       d="M 168.32524,217.90453 C 89.691445,208.74219 24.644556,151.71415 5.6061781,75.245165 0.81865504,56.015741 0.24536674,49.051162 0.75,16.25 L 1,0 H 5.5 10 v 14.925811 14.925812 l 5.944951,11.824188 c 3.269722,6.503304 8.129069,15.262215 10.798549,19.464248 2.669479,4.202032 5.591517,9.377032 6.493418,11.5 10.487531,24.686393 15.793833,34.452931 26.88525,49.483741 8.369819,11.34258 26.318389,28.91532 37.881531,37.08833 24.385921,17.23635 50.787751,28.04205 78.996301,32.33149 6.0634,0.92202 17.368,1.44672 31.25,1.45048 L 230,193 v 13 13 l -27.25,-0.12974 c -14.9875,-0.0713 -30.47864,-0.50593 -34.42476,-0.96573 z"
       id="path4757"
       inkscape:connector-curvature="0" />
    <path
       style="fill:#006300"
       d="M 168.32524,217.90453 C 104.58486,210.47756 48.842563,171.49232 20.054973,114.20676 5.8897797,86.018884 -0.9632634,55.332222 4.5,44.55446 c 1.1,-2.170047 2.45,-4.066329 3,-4.21396 0.55,-0.147631 2.877495,3.652862 5.172211,8.44554 2.294717,4.792678 6.514503,12.53896 9.377302,17.21396 2.8628,4.675 8.497829,15.375703 12.522286,23.779339 8.450666,17.646191 16.808884,30.847081 27.890944,44.050691 25.988703,30.96399 65.247927,53.78984 107.037257,62.23293 9.01103,1.82058 15.47518,2.30725 35.75,2.69155 L 230,199.22362 V 209.11181 219 l -27.25,-0.12974 c -14.9875,-0.0713 -30.47864,-0.50593 -34.42476,-0.96573 z"
       id="path4755"
       inkscape:connector-curvature="0" />
    <path
       style="fill:#005b00"
       d="M 168.32524,217.90453 C 95.430635,209.41091 33.621114,159.61431 10.102324,90.432851 7.8460456,83.79592 6,77.65582 6,76.788186 6,74.329307 9.9956542,61.999245 10.79018,62.006323 c 0.390401,0.0035 1.489038,1.240977 2.441416,2.75 0.952378,1.509022 3.805331,5.893677 6.339895,9.743677 2.534564,3.85 6.96671,11.95 9.849212,18 23.623307,49.58226 64.308828,86.03291 114.380697,102.47504 22.34117,7.33618 28.40435,8.23651 58.9486,8.75328 L 230,204.18935 V 211.59468 219 l -27.25,-0.12974 c -14.9875,-0.0713 -30.47864,-0.50593 -34.42476,-0.96573 z"
       id="path4753"
       inkscape:connector-curvature="0" />
    <path
       style="fill:#005500"
       d="M 168.32524,217.90453 C 104.23652,210.43697 48.512717,171.27513 19.724718,113.47034 11.347886,96.650103 10.745627,93.384122 14.621694,85.797231 c 1.347497,-2.637548 1.448869,-2.663713 4.200853,-1.084291 2.038139,1.169731 4.714771,5.36742 9.653704,15.139639 11.20801,22.176271 20.735003,35.494621 36.959198,51.667431 22.463192,22.39206 44.449171,36.20081 74.073891,46.52364 22.724,7.91825 35.83068,10.06438 65.24066,10.68271 L 230,209.25723 V 214.12862 219 l -27.25,-0.12974 c -14.9875,-0.0713 -30.47864,-0.50593 -34.42476,-0.96573 z"
       id="path4751"
       inkscape:connector-curvature="0" />
  </g>
</svg>
