<?xml version="1.0" encoding="UTF-8" standalone="no"?>
<!-- Created with Inkscape (http://www.inkscape.org/) -->

<svg
   xmlns:dc="http://purl.org/dc/elements/1.1/"
   xmlns:cc="http://creativecommons.org/ns#"
   xmlns:rdf="http://www.w3.org/1999/02/22-rdf-syntax-ns#"
   xmlns:svg="http://www.w3.org/2000/svg"
   xmlns="http://www.w3.org/2000/svg"
   xmlns:sodipodi="http://sodipodi.sourceforge.net/DTD/sodipodi-0.dtd"
   xmlns:inkscape="http://www.inkscape.org/namespaces/inkscape"
   version="1.1"
   id="svg2"
   width="311.1666"
   height="328"
   viewBox="0 0 311.1666 328"
   sodipodi:docname="codo_izq_arriba_gris.svg"
   inkscape:version="0.92.5 (2060ec1f9f, 2020-04-08)">
  <metadata
     id="metadata8">
    <rdf:RDF>
      <cc:Work
         rdf:about="">
        <dc:format>image/svg+xml</dc:format>
        <dc:type
           rdf:resource="http://purl.org/dc/dcmitype/StillImage" />
        <dc:title></dc:title>
      </cc:Work>
    </rdf:RDF>
  </metadata>
  <defs
     id="defs6" />
  <sodipodi:namedview
     pagecolor="#ffffff"
     bordercolor="#666666"
     borderopacity="1"
     objecttolerance="10"
     gridtolerance="10"
     guidetolerance="10"
     inkscape:pageopacity="0"
     inkscape:pageshadow="2"
     inkscape:window-width="1920"
     inkscape:window-height="1017"
     id="namedview4"
     showgrid="false"
     inkscape:pagecheckerboard="true"
     fit-margin-top="0"
     fit-margin-left="0"
     fit-margin-right="0"
     fit-margin-bottom="0"
     inkscape:zoom="0.7195122"
     inkscape:cx="-271.17797"
     inkscape:cy="247.38983"
     inkscape:window-x="-8"
     inkscape:window-y="-8"
     inkscape:window-maximized="1"
     inkscape:current-layer="svg2" />
  <g
     id="g4749">
    <path
       style="fill:#e2dcd7"
       d="m 140.73177,290.75 c -0.39926,-34.10412 -0.61613,-37.9098 -2.56795,-45.06268 C 126.86651,204.2858 93.808689,175.76822 51.665619,171.06899 46.392884,170.48105 32.611091,170 21.039414,170 H 0 V 85 0 H 23.854783 C 49.690516,0 67.799668,1.0915251 83.5,3.5951021 153.55512,14.7661 214.88162,51.753732 257.4352,108.5 c 20.98068,27.97826 35.97588,59.24532 45.16505,94.1753 6.76646,25.72076 7.66226,34.80875 8.13936,82.5747 l 0.427,42.75 h -84.99937 -84.99938 z"
       id="path4787"
       inkscape:connector-curvature="0" />
    <path
       style="fill:#d3cec9"
       d="m 140.73177,290.75 c -0.39926,-34.10412 -0.61613,-37.9098 -2.56795,-45.06268 C 126.86651,204.2858 93.808689,175.76822 51.665619,171.06899 46.392884,170.48105 32.611091,170 21.039414,170 H 0 V 101.35536 32.710715 l 20.25,0.562503 c 16.120365,0.44779 21.677528,0.249481 27.25,-0.972425 3.85,-0.84421 7.480692,-1.919453 8.068205,-2.389428 0.587512,-0.469976 3.338346,-1.341359 6.112964,-1.936408 3.358133,-0.720191 6.302761,-2.234192 8.807487,-4.528432 C 72.558157,21.550936 74.644823,20 75.125692,20 75.606562,20 76,18.507741 76,16.683869 76,13.621991 75.559137,13.163737 70.25,10.707051 61.445659,6.6330348 54.697143,5.7977356 26.25,5.2609397 L 0,4.7656039 V 2.3828019 0 H 23.854783 C 49.690516,0 67.799668,1.0915251 83.5,3.5951021 153.55512,14.7661 214.88162,51.753732 257.4352,108.5 c 20.98068,27.97826 35.97588,59.24532 45.16505,94.1753 6.76646,25.72076 7.66226,34.80875 8.13936,82.5747 l 0.427,42.75 h -84.99937 -84.99938 z"
       id="path4785"
       inkscape:connector-curvature="0" />
    <path
       style="fill:#c7c2bc"
       d="m 140.73177,290.75 c -0.39926,-34.10412 -0.61613,-37.9098 -2.56795,-45.06268 C 126.86651,204.2858 93.808689,175.76822 51.665619,171.06899 46.392884,170.48105 32.611091,170 21.039414,170 H 0 V 106 42 l 8.75,-0.08619 c 4.8125,-0.0474 16.625,-0.384903 26.25,-0.75 49.05499,-1.860757 70.42315,-0.655853 104.8484,5.912178 26.45283,5.046964 34.34335,4.92886 34.98072,-0.523588 0.60077,-5.139451 -9.27717,-13.683138 -26.219,-22.67749 -5.01057,-2.66009 -8.76657,-4.845163 -8.34668,-4.855719 1.72398,-0.04334 23.00538,10.018757 32.76275,15.490617 64.6032,36.22898 110.5537,95.865062 129.57406,168.165492 6.76646,25.72076 7.66226,34.80875 8.13936,82.5747 l 0.427,42.75 h -84.99937 -84.99938 z"
       id="path4783"
       inkscape:connector-curvature="0" />
    <path
       style="fill:#c1bdb8"
       d="m 140.73177,290.75 c -0.39926,-34.10412 -0.61613,-37.9098 -2.56795,-45.06268 C 126.86651,204.2858 93.808689,175.76822 51.665619,171.06899 46.392884,170.48105 32.611091,170 21.039414,170 H 0 V 108.39351 46.78702 l 41.75,0.477287 c 39.616069,0.452893 42.516682,0.613188 56.75,3.136159 18.15807,3.218664 36.30703,7.860273 59.05133,15.102413 32.9704,10.498292 42.44201,12.291368 47.22616,8.940417 3.36839,-2.359309 2.93614,-7.423782 -1.18322,-13.863382 C 200.15843,55.208826 189.65782,45.423778 182.74506,41.151453 180.68528,39.878438 179,38.611881 179,38.336881 c 0,-1.391287 20.42797,12.454276 31,21.011022 46.04592,37.26844 77.51118,85.970617 92.60025,143.327397 6.76646,25.72076 7.66226,34.80875 8.13936,82.5747 l 0.427,42.75 h -84.99937 -84.99938 z"
       id="path4781"
       inkscape:connector-curvature="0" />
    <path
       style="fill:#bcb7b2"
       d="m 140.73177,290.75 c -0.39926,-34.10412 -0.61613,-37.9098 -2.56795,-45.06268 C 126.86651,204.2858 93.808689,175.76822 51.665619,171.06899 46.392884,170.48105 32.611091,170 21.039414,170 H 0 V 111 52 h 32.256128 c 36.023109,0 49.281594,1.111565 71.558212,5.999298 22.94295,5.033935 37.35859,9.78764 70.87746,23.372566 C 198.6328,91.074957 208.12939,94 215.69095,94 c 4.09361,0 5.67452,-0.475909 7.27009,-2.188561 5.30785,-5.697306 0.46852,-16.859726 -13.52078,-31.187085 -8.18088,-8.378586 -8.07241,-8.382239 2.05974,-0.06936 45.18745,37.073821 76.18816,85.436256 91.10025,142.120306 6.76646,25.72076 7.66226,34.80875 8.13936,82.5747 l 0.427,42.75 h -84.99937 -84.99938 z"
       id="path4779"
       inkscape:connector-curvature="0" />
    <path
       style="fill:#b1ada8"
       d="m 140.73177,290.75 c -0.39926,-34.10412 -0.61613,-37.9098 -2.56795,-45.06268 C 126.86651,204.2858 93.808689,175.76822 51.665619,171.06899 46.392884,170.48105 32.611091,170 21.039414,170 H 0 V 113.83906 57.67811 l 30.25,0.643693 c 42.545918,0.90534 62.329692,3.714785 90.75,12.887182 21.61364,6.975608 35.17686,13.021456 67.25921,29.981015 24.61067,13.00983 34.36794,17.21897 42.38668,18.28496 15.79902,2.10028 18.63449,-12.90256 6.04312,-31.97496 -2.17862,-3.3 -5.5874,-7.757015 -7.57507,-9.904477 C 226.41953,74.684497 226.1361,74.108576 228,75.33203 c 3.9752,2.609298 20.44301,21.162166 29.44039,33.16797 20.98913,28.00717 35.97306,59.25431 45.15986,94.1753 6.76646,25.72076 7.66226,34.80875 8.13936,82.5747 l 0.427,42.75 h -84.99937 -84.99938 z"
       id="path4777"
       inkscape:connector-curvature="0" />
    <path
       style="fill:#aba7a2"
       d="m 140.73177,290.75 c -0.39926,-34.10412 -0.61613,-37.9098 -2.56795,-45.06268 C 126.86651,204.2858 93.808689,175.76822 51.665619,171.06899 46.392884,170.48105 32.611091,170 21.039414,170 H 0 V 118 66 h 28.039414 c 30.343228,0 40.949239,0.804893 59.460586,4.512478 34.05561,6.820902 60.82659,18.54199 98.62991,43.182952 8.02987,5.23403 11.42544,7.79005 19.15529,14.41919 2.31814,1.98804 5.96369,4.23804 8.10121,5 2.60869,0.92991 5.2345,3.11141 7.98683,6.63538 2.25523,2.8875 4.63481,5.25 5.28795,5.25 0.65315,0 5.35004,4.5 10.43753,10 9.05182,9.78577 9.34541,10 13.70462,10 h 4.45463 l -0.69716,-8.91187 c -0.67022,-8.56743 -0.5915,-9.07926 2.03677,-13.24271 3.64137,-5.7683 4.4564,-16.1227 1.88647,-23.96638 -2.2065,-6.73443 -6.95495,-16.29259 -10.37261,-20.87904 -1.63197,-2.190069 -1.92013,-2.95844 -0.76994,-2.053007 1.01098,0.795845 5.55163,6.420847 10.09033,12.499997 21.08221,28.23761 35.98906,59.3356 45.16842,94.22831 6.76646,25.72076 7.66226,34.80875 8.13936,82.5747 l 0.427,42.75 H 226.16724 141.16786 Z M 243.87244,92.25 C 242.62857,90.663944 242.66394,90.628574 244.25,91.872445 245.91575,93.178814 246.44548,94 245.62244,94 c -0.20765,0 -0.99515,-0.7875 -1.75,-1.75 z"
       id="path4775"
       inkscape:connector-curvature="0" />
    <path
       style="fill:#a6a19d"
       d="m 140.73177,290.75 c -0.39926,-34.10412 -0.61613,-37.9098 -2.56795,-45.06268 C 126.86651,204.2858 93.808689,175.76822 51.665619,171.06899 46.392884,170.48105 32.611091,170 21.039414,170 H 0 V 120.5 71 l 23.75,0.0096 c 49.319129,0.01999 78.67115,6.311421 120.54391,25.837872 10.47962,4.886938 18.48989,10.204488 29.70609,19.720118 30.83454,26.1595 53.09635,58.51314 71.58779,104.0403 5.68728,14.00246 12.03221,26.99888 15.19762,31.12949 1.15853,1.51179 3.17399,2.41576 6.21459,2.78734 l 4.5,0.54993 3.61444,-5.28734 c 6.00369,-8.78242 8.3925,-19.99636 8.26256,-38.78734 -0.11631,-16.82004 -1.94629,-28.09265 -7.38641,-45.5 -1.54697,-4.95 -3.99993,-14.77723 -5.45102,-21.8383 -2.83726,-13.80612 -4.98433,-20.15114 -9.61417,-28.4117 -6.58248,-11.74446 1.03216,-1.71268 10.86662,14.31606 13.07283,21.30679 24.00541,47.25026 30.80823,73.10924 6.76646,25.72076 7.66226,34.80875 8.13936,82.5747 l 0.427,42.75 h -84.99937 -84.99938 l -0.43609,-37.25 z"
       id="path4773"
       inkscape:connector-curvature="0" />
    <path
       style="fill:#a19d99"
       d="m 140.73177,290.75 c -0.39926,-34.10412 -0.61613,-37.9098 -2.56795,-45.06268 C 126.86651,204.2858 93.808689,175.76822 51.665619,171.06899 46.392884,170.48105 32.611091,170 21.039414,170 H 0 V 124.18143 78.362863 l 20.25,-1.229199 c 26.901213,-1.632935 44.030774,-0.221226 67.25,5.542316 54.27528,13.472365 102.48788,52.51883 128.27352,103.8863 9.43559,18.7966 15.3627,36.34702 19.64741,58.17679 C 238.98659,262.90543 240,275.94845 240,303.67368 V 328 h -49.41607 -49.41607 z m 147.74207,7.5 c 0.54645,-24.47213 1.03475,-31.52407 2.75241,-39.75 3.12486,-14.96506 3.09651,-43.60491 -0.0589,-59.5 -2.99157,-15.06978 -6.72151,-28.78108 -10.25784,-37.7079 -1.57047,-3.96434 -4.01792,-11.34263 -5.43879,-16.3962 -1.42087,-5.05356 -3.87982,-12.0475 -5.46435,-15.5421 C 268.42186,125.85921 267.292,123 267.49559,123 c 1.01845,0 11.481,18.74371 17.46662,31.29153 11.30115,23.6909 19.06222,48.71311 23.2315,74.8999 1.85012,11.62037 2.17307,18.73142 2.5459,56.05857 l 0.427,42.75 h -11.67853 -11.67854 z"
       id="path4771"
       inkscape:connector-curvature="0" />
    <path
       style="fill:#9b9793"
       d="m 140.73177,290.75 c -0.39926,-34.10412 -0.61613,-37.9098 -2.56795,-45.06268 C 126.86651,204.2858 93.808689,175.76822 51.665619,171.06899 46.392884,170.48105 32.611091,170 21.039414,170 H 0 V 128.5 87 l 27.75,0.01952 c 30.095058,0.02117 42.196587,1.119744 58.905247,5.347394 C 159.76172,110.86443 214.22627,172.48867 222.8807,246.5 c 0.57883,4.95 1.3494,25.3125 1.71239,45.25 l 0.65997,36.25 h -42.0426 -42.0426 z m 156.71534,8.5 c 0.33694,-15.8125 1.11776,-33.77275 1.73516,-39.91166 1.37321,-13.65398 0.52517,-39.46575 -1.70136,-51.78461 -2.49999,-13.83179 -7.07058,-30.60397 -11.54389,-42.36133 C 279.15509,147.36725 275.15361,136 275.66074,136 c 1.06508,0 16.34027,33.1931 19.78083,42.98387 5.26698,14.98821 10.29924,34.80118 12.75214,50.20756 1.85012,11.62037 2.17307,18.73142 2.5459,56.05857 l 0.427,42.75 h -7.16605 -7.16606 z"
       id="path4769"
       inkscape:connector-curvature="0" />
    <path
       style="fill:#95918d"
       d="m 140.73177,290.75 c -0.39926,-34.10412 -0.61613,-37.9098 -2.56795,-45.06268 C 126.86651,204.2858 93.808689,175.76822 51.665619,171.06899 46.392884,170.48105 32.611091,170 21.039414,170 H 0 V 134.41063 98.821253 l 34.25,0.438661 c 36.486342,0.467304 42.219791,1.066376 60.511755,6.322756 C 146.2949,120.39122 189.58282,163.50433 204.62272,215 c 5.61451,19.22373 5.71918,20.38984 6.12623,68.25 L 211.12954,328 H 176.1487 141.16786 Z m 163.42186,-14 c 0.31302,-46.3154 0.16998,-52.21285 -1.48557,-61.25 -3.8047,-20.76863 -9.94395,-42.0221 -16.27109,-56.32888 -1.33258,-3.0132 -2.2596,-5.64183 -2.06003,-5.84139 0.55052,-0.55052 8.06364,16.99765 11.63275,27.17027 4.78796,13.64657 9.86285,33.86118 12.22402,48.69143 1.85012,11.62037 2.17307,18.73142 2.5459,56.05857 l 0.427,42.75 h -3.67967 -3.67968 z"
       id="path4767"
       inkscape:connector-curvature="0" />
    <path
       style="fill:#918d89"
       d="m 140.73177,290.75 c -0.39926,-34.10412 -0.61613,-37.9098 -2.56795,-45.06268 C 126.86651,204.2858 93.808689,175.76822 51.665619,171.06899 46.392884,170.48105 32.611091,170 21.039414,170 H 0 v -31.07423 -31.07422 l 37.75,0.42062 c 31.090564,0.34643 39.073067,0.72505 45.25,2.14625 56.10434,12.90858 99.91946,54.52653 114.34201,108.60816 5.65691,21.21225 5.88271,37.87955 0.61686,45.5332 L 195,268.86035 V 298.43018 328 h -26.91607 -26.91607 z m 167.25791,-3.5 c -0.0109,-43.21322 -0.85653,-58.67392 -4.08133,-74.62272 -1.09793,-5.43 -1.82336,-10.04561 -1.61206,-10.25691 0.58668,-0.58667 4.54387,17.82968 6.36664,29.62963 1.23833,8.01653 1.72623,20.61128 2.06282,53.25 0.39723,38.51866 0.28415,42.75 -1.14244,42.75 -1.41834,0 -1.58439,-4.24586 -1.59363,-40.75 z m -6.91073,-87.83333 c 0.048,-1.16495 0.28494,-1.4019 0.60416,-0.60417 0.28887,0.72187 0.25335,1.58437 -0.0789,1.91667 -0.33229,0.33229 -0.56864,-0.25834 -0.52522,-1.3125 z m -2,-7 c 0.048,-1.16495 0.28494,-1.4019 0.60416,-0.60417 0.28887,0.72187 0.25335,1.58437 -0.0789,1.91667 -0.33229,0.33229 -0.56864,-0.25834 -0.52522,-1.3125 z"
       id="path4765"
       inkscape:connector-curvature="0" />
    <path
       style="fill:#8b8784"
       d="m 140.73177,290.75 c -0.39926,-34.10412 -0.61613,-37.9098 -2.56795,-45.06268 C 126.86651,204.2858 93.808689,175.76822 51.665619,171.06899 46.392884,170.48105 32.611091,170 21.039414,170 H 0 v -26.84024 -26.84024 l 32.454537,-0.61336 c 37.877521,-0.71585 46.054712,0.0882 65.017189,6.39295 47.144914,15.67504 82.134054,53.69658 93.680154,101.79914 1.16366,4.84796 2.10846,12.31114 2.165,17.10175 0.0901,7.63285 -0.20152,9.05284 -2.85829,13.91903 -1.62722,2.98047 -4.87109,7.54659 -7.20859,10.14693 l -4.25,4.7279 V 298.89693 328 H 160.08393 141.16786 Z M 310.45522,289 c 0,-21.725 0.13209,-30.6125 0.29353,-19.75 0.16144,10.8625 0.16144,28.6375 0,39.5 -0.16144,10.8625 -0.29353,1.975 -0.29353,-19.75 z m -1.18286,-45 c 0,-2.475 0.19502,-3.4875 0.43337,-2.25 0.23836,1.2375 0.23836,3.2625 0,4.5 -0.23835,1.2375 -0.43337,0.225 -0.43337,-2.25 z m -1.19341,-10.58333 c 0.048,-1.16495 0.28494,-1.4019 0.60416,-0.60417 0.28887,0.72187 0.25335,1.58437 -0.0789,1.91667 -0.33229,0.33229 -0.56864,-0.25834 -0.52522,-1.3125 z m -1,-7 c 0.048,-1.16495 0.28494,-1.4019 0.60416,-0.60417 0.28887,0.72187 0.25335,1.58437 -0.0789,1.91667 -0.33229,0.33229 -0.56864,-0.25834 -0.52522,-1.3125 z"
       id="path4763"
       inkscape:connector-curvature="0" />
    <path
       style="fill:#84817d"
       d="m 140.73177,290.75 c -0.39926,-34.10412 -0.61613,-37.9098 -2.56795,-45.06268 C 126.86651,204.2858 93.808689,175.76822 51.665619,171.06899 46.392884,170.48105 32.611091,170 21.039414,170 H 0 v -22.84067 -22.84067 l 33.005326,-0.60908 c 37.683509,-0.69541 45.440825,0.0148 62.496005,5.72183 44.032559,14.73422 76.476469,49.52501 87.341239,93.6592 4.11003,16.69548 1.5131,25.75579 -12.0308,41.97375 L 167,269.62871 V 298.81436 328 h -12.91607 -12.91607 z"
       id="path4761"
       inkscape:connector-curvature="0" />
    <path
       style="fill:#817d7a"
       d="m 140.73177,290.75 c -0.39926,-34.10412 -0.61613,-37.9098 -2.56795,-45.06268 C 126.86651,204.2858 93.808689,175.76822 51.665619,171.06899 46.392884,170.48105 32.611091,170 21.039414,170 H 0 v -19.83891 -19.83891 l 33.761768,-0.67174 c 28.742536,-0.57188 35.172346,-0.43061 43.25,0.95023 49.728472,8.5009 90.323692,47.07878 100.513262,95.51834 1.14782,5.45651 1.21667,7.99039 0.32983,12.13851 -1.84025,8.60772 -7.02316,18.2299 -14.4463,26.81985 l -3.09143,3.57737 -0.69358,26.42263 c -0.38147,14.53245 -0.39658,27.88513 -0.0336,29.67263 l 0.66002,3.25 h -9.54107 -9.54107 l -0.43609,-37.25 z"
       id="path4759"
       inkscape:connector-curvature="0" />
    <path
       style="fill:#7b7874"
       d="m 146,299.43328 v -28.56672 l -2.41828,-3.18328 C 141.90109,265.471 140.84203,262.21227 140.10974,257 135.36752,223.24617 115.80508,195.99879 85.28832,180.64244 69.141872,172.51738 53.944312,170 21.039414,170 H 0 v -17.3387 -17.33869 l 34.026048,-0.63392 c 37.73828,-0.70308 43.778282,-0.16814 60.192083,5.33099 C 130.43575,152.1537 159.4212,181.83084 170.38093,218 c 3.26544,10.77656 3.45217,16.92648 0.73088,24.07158 -2.49049,6.53911 -8.98925,17.69101 -13.75096,23.59672 L 154,269.83659 V 298.9183 328 h -4 -4 z"
       id="path4757"
       inkscape:connector-curvature="0" />
    <path
       style="fill:#6a6764"
       d="m 144.15699,252.90482 c -3.6586,-2.08951 -5.29743,-3.71013 -5.72942,-5.66573 -3.90069,-17.65831 -15.63432,-37.91582 -29.07914,-50.20362 C 93.296904,182.36528 73.648115,173.52018 51.665619,171.06899 46.392884,170.48105 32.611091,170 21.039414,170 H 0 v -12 -12 l 20.75,-0.0993 c 11.4125,-0.0546 24.575,-0.39209 29.25,-0.75 43.21614,-3.30858 83.98099,20.01981 103.74139,59.36778 4.14604,8.25582 8.25861,20.94912 8.25861,25.4899 0,4.64835 -3.21625,15.1456 -6.2471,20.38939 -3.21255,5.55813 -5.41851,6.03506 -11.59591,2.507 z"
       id="path4755"
       inkscape:connector-curvature="0" />
    <path
       style="fill:#63605e"
       d="M 141,236.65357 135.5,235.5 130.82923,226.17247 C 115.14493,194.85086 86.570628,174.96113 51.665619,171.06899 46.392884,170.48105 32.611091,170 21.039414,170 H 0 v -7.5 -7.5 l 22.75,-0.25 c 40.177753,-0.44151 46.993494,-0.19292 57.050891,2.08081 23.511929,5.31549 45.241269,20.46297 59.120669,41.21288 8.99317,13.44494 14.57097,29.87344 12.68878,37.37271 -0.73412,2.92494 -1.90981,3.06203 -10.61034,1.23717 z"
       id="path4753"
       inkscape:connector-curvature="0" />
    <path
       style="fill:#625f5d"
       d="m 133.32628,228.75 c -1.11229,-1.2375 -3.49843,-4.88064 -5.30255,-8.09586 C 112.59804,193.16304 84.153084,174.69156 51.665619,171.06899 46.392884,170.48105 32.611091,170 21.039414,170 H 0 v -4.375 c 0,-4.06732 0.21233872,-4.41747 3.019268,-4.97885 1.6605974,-0.33212 13.564536,-0.90895 26.453197,-1.28184 18.081991,-0.52315 23.550407,-0.98153 23.943941,-2.00706 1.519134,-3.9588 31.132126,4.3096 47.459294,13.25137 18.27674,10.00947 34.32034,27.54781 43.6277,47.69237 1.92313,4.16236 3.4966,8.23513 3.4966,9.05061 0,0.97149 -1.74081,1.85601 -5.04922,2.56554 -6.84636,1.46828 -7.30581,1.41256 -9.6245,-1.16714 z"
       id="path4751"
       inkscape:connector-curvature="0" />
  </g>
</svg>
