<?xml version="1.0" encoding="UTF-8" standalone="no"?>
<!-- Created with Inkscape (http://www.inkscape.org/) -->

<svg
   xmlns:dc="http://purl.org/dc/elements/1.1/"
   xmlns:cc="http://creativecommons.org/ns#"
   xmlns:rdf="http://www.w3.org/1999/02/22-rdf-syntax-ns#"
   xmlns:svg="http://www.w3.org/2000/svg"
   xmlns="http://www.w3.org/2000/svg"
   xmlns:sodipodi="http://sodipodi.sourceforge.net/DTD/sodipodi-0.dtd"
   xmlns:inkscape="http://www.inkscape.org/namespaces/inkscape"
   version="1.1"
   id="svg2"
   width="407.76926"
   height="387.5"
   viewBox="0 0 407.76926 387.5"
   sodipodi:docname="codo_abajo_izq_rojo.svg"
   inkscape:version="0.92.5 (2060ec1f9f, 2020-04-08)">
  <metadata
     id="metadata8">
    <rdf:RDF>
      <cc:Work
         rdf:about="">
        <dc:format>image/svg+xml</dc:format>
        <dc:type
           rdf:resource="http://purl.org/dc/dcmitype/StillImage" />
        <dc:title></dc:title>
      </cc:Work>
    </rdf:RDF>
  </metadata>
  <defs
     id="defs6" />
  <sodipodi:namedview
     pagecolor="#ffffff"
     bordercolor="#666666"
     borderopacity="1"
     objecttolerance="10"
     gridtolerance="10"
     guidetolerance="10"
     inkscape:pageopacity="0"
     inkscape:pageshadow="2"
     inkscape:window-width="1920"
     inkscape:window-height="1017"
     id="namedview4"
     showgrid="false"
     inkscape:pagecheckerboard="true"
     fit-margin-top="0"
     fit-margin-left="0"
     fit-margin-right="0"
     fit-margin-bottom="0"
     inkscape:zoom="0.60981912"
     inkscape:cx="-199.39831"
     inkscape:cy="446.0339"
     inkscape:window-x="-8"
     inkscape:window-y="-8"
     inkscape:window-maximized="1"
     inkscape:current-layer="svg2" />
  <g
     id="g4749"
     transform="translate(0.5,0.5)">
    <path
       style="fill:#a90000"
       d="M 0,281.5 V 176 l 35.75,-8.4e-4 c 47.246428,-10e-4 59.612456,-1.22127 77.50267,-7.64725 35.75331,-12.84222 63.72337,-41.37888 75.65611,-77.188706 5.06408,-15.197156 5.96587,-23.063644 6.71981,-58.617721 L 196.31873,0 h 105.47526 105.47526 l -0.57808,39.25 C 405.91755,91.777226 403.11826,113.3832 392.53664,148.5 355.36521,271.85932 250.61638,363.1124 123.5,382.87419 101.89268,386.23331 86.830491,387 42.445532,387 H 0 Z"
       id="path4787"
       inkscape:connector-curvature="0" />
    <path
       style="fill:#a30000"
       d="m 0,295.7349 v -91.26509 l 40.75,0.0151 c 35.684931,0.0132 41.620073,-0.20454 47.75,-1.75197 14.69791,-3.71031 26.91261,-12.3384 28.13548,-19.87406 0.47949,-2.95475 0.18203,-3.74842 -1.92138,-5.12663 -2.96601,-1.9434 -1.08742,-1.90322 -65.7141,-1.40571 l -49.5,0.38106 43,-0.72107 c 23.65,-0.39659 45.475,-1.1962 48.5,-1.77692 10.13647,-1.94592 14.70165,-3.14504 22.12364,-5.81115 35.8915,-12.89282 63.83388,-41.36986 75.78514,-77.235246 5.06408,-15.197156 5.96587,-23.063644 6.71981,-58.617721 L 196.31873,0 h 105.47526 105.47526 l -0.57808,39.25 C 405.91755,91.777226 403.11826,113.3832 392.53664,148.5 355.36521,271.85932 250.61638,363.1124 123.5,382.87419 101.89268,386.23331 86.830491,387 42.445532,387 H 0 Z"
       id="path4785"
       inkscape:connector-curvature="0" />
    <path
       style="fill:#9b0000"
       d="M 0,303.5 V 220 h 39.558447 c 40.66772,0 48.362953,-0.52854 60.941553,-4.18568 26.38494,-7.67124 46.91451,-26.57249 45.21722,-41.63078 -0.76165,-6.75732 -3.94686,-9.18715 -12.02298,-9.17167 -3.40683,0.007 -8.66924,0.67619 -11.69424,1.48813 -3.025,0.81194 -5.725,1.47241 -6,1.46771 -0.275,-0.005 3.59845,-1.96743 8.60767,-4.36161 30.59976,-14.62534 53.71134,-40.66329 64.30111,-72.442896 5.06408,-15.197156 5.96587,-23.063644 6.71981,-58.617721 L 196.31873,0 h 105.47526 105.47526 l -0.57808,39.25 C 405.91755,91.777226 403.11826,113.3832 392.53664,148.5 355.36521,271.85932 250.61638,363.1124 123.5,382.87419 101.89268,386.23331 86.830491,387 42.445532,387 H 0 Z"
       id="path4783"
       inkscape:connector-curvature="0" />
    <path
       style="fill:#930000"
       d="M 0,310.5 V 234 l 40.25,-0.0183 c 43.505298,-0.0198 52.950795,-0.75756 68.82145,-5.37542 18.71099,-5.44431 34.0998,-14.40353 46.42855,-27.03027 14.31551,-14.66152 18.92684,-28.70298 13.69738,-41.70845 -2.99437,-7.44689 -14.14866,-9.88478 -25.21315,-5.5106 -4.23056,1.67249 -5.62755,1.96905 -4.0194,0.85325 23.91604,-16.59382 40.15818,-37.85453 48.92876,-64.046986 5.07627,-15.159763 5.98031,-23.02797 6.735,-58.617721 L 196.31873,0 h 105.47526 105.47526 l -0.57808,39.25 C 405.91755,91.777226 403.11826,113.3832 392.53664,148.5 355.36521,271.85932 250.61638,363.1124 123.5,382.87419 101.89268,386.23331 86.830491,387 42.445532,387 H 0 Z"
       id="path4781"
       inkscape:connector-curvature="0" />
    <path
       style="fill:#8d0000"
       d="m 0,316 v -71 l 41.25,-0.0183 c 44.494307,-0.0198 53.966158,-0.74528 71.24374,-5.45705 34.78229,-9.48549 63.06321,-30.53517 75.11011,-55.90496 3.03091,-6.38287 3.82505,-9.32825 4.17914,-15.5 0.57164,-9.96364 -0.94652,-15.25689 -5.92484,-20.65773 -7.49442,-8.13049 -17.01356,-9.44901 -28.0302,-3.88253 l -5.32795,2.6921 7.62264,-7.99149 c 13.81402,-14.48247 22.73565,-29.09298 28.77095,-47.116816 5.07627,-15.159763 5.98031,-23.02797 6.735,-58.617721 L 196.31873,0 h 105.47526 105.47526 l -0.57808,39.25 C 405.91755,91.777226 403.11826,113.3832 392.53664,148.5 355.36521,271.85932 250.61638,363.1124 123.5,382.87419 101.89268,386.23331 86.830491,387 42.445532,387 H 0 Z"
       id="path4779"
       inkscape:connector-curvature="0" />
    <path
       style="fill:#890000"
       d="M 0,319.56905 V 252.1381 l 47.75,-0.37513 c 53.21909,-0.41809 55.11201,-0.61879 77.9669,-8.26652 45.28127,-15.15206 81.33682,-51.6196 81.38316,-82.3131 0.0121,-8.03366 -1.2696,-13.09844 -4.47508,-17.68335 -9.56656,-13.68338 -28.674,-15.44063 -42.62498,-3.92008 -2.19756,1.81471 -1.33872,0.52552 2.30792,-3.46439 12.29428,-13.4516 20.9231,-28.04162 26.58567,-44.952326 5.07627,-15.159763 5.98031,-23.02797 6.735,-58.617721 L 196.31873,0 h 105.47526 105.47526 l -0.57808,39.25 C 405.91755,91.777226 403.11826,113.3832 392.53664,148.5 355.36521,271.85932 250.61638,363.1124 123.5,382.87419 101.89268,386.23331 86.830491,387 42.445532,387 H 0 Z"
       id="path4777"
       inkscape:connector-curvature="0" />
    <path
       style="fill:#850000"
       d="m 0,323.04531 v -63.95468 l 3.25,-0.53419 c 1.7875,-0.2938 22.825,-0.70492 46.75,-0.9136 49.296743,-0.42997 55.03529,-1.06165 77.92366,-8.57752 42.73877,-14.03416 78.27327,-44.68832 89.27528,-77.01414 2.65314,-7.79539 3.11913,-22.23368 0.91877,-28.46704 -1.81806,-5.15033 -8.40674,-12.19379 -14.07756,-15.04926 -12.80537,-6.44796 -25.41968,-5.2862 -36.03963,3.31918 -4.33852,3.51552 -4.41771,3.53862 -2.2139,0.64594 12.61268,-16.55514 18.08965,-26.35307 23.10697,-41.336796 5.07627,-15.159763 5.98031,-23.02797 6.735,-58.617721 L 196.31873,0 h 105.47526 105.47526 l -0.57808,39.25 C 405.91755,91.777226 403.11826,113.3832 392.53664,148.5 355.36521,271.85932 250.61638,363.1124 123.5,382.87419 101.89268,386.23331 86.830491,387 42.445532,387 H 0 Z"
       id="path4775"
       inkscape:connector-curvature="0" />
    <path
       style="fill:#810000"
       d="m 0,326 v -61 l 2.25,-0.0433 C 100.9832,263.05726 104.38696,262.76541 132,253.83158 187.48166,235.88123 232.91498,188.91751 232.93173,149.5 c 0.005,-12.14439 -4.44541,-21.01022 -13.43173,-26.75687 -12.00521,-7.6772 -32.4082,-7.62643 -43.163,0.10741 -6.41404,4.61237 -6.51791,4.50519 -1.97039,-2.03307 8.92895,-12.83772 16.2608,-31.005139 19.11263,-47.358783 0.9414,-5.398378 1.70411,-19.916711 2.14935,-40.913204 L 196.31873,0 h 105.47526 105.47526 l -0.57808,39.25 C 405.91755,91.777226 403.11826,113.3832 392.53664,148.5 355.36521,271.85932 250.61638,363.1124 123.5,382.87419 101.89268,386.23331 86.830491,387 42.445532,387 H 0 Z"
       id="path4773"
       inkscape:connector-curvature="0" />
    <path
       style="fill:#7d0000"
       d="m 0,328.9661 v -58.0339 l 47.25,0.086 c 43.591578,0.0794 48.160854,-0.0746 59.01405,-1.98796 31.62642,-5.57564 59.96861,-18.0121 82.26806,-36.09895 30.21427,-24.50648 48.6774,-48.97756 56.53473,-74.93129 2.62253,-8.66251 3.06385,-22.05434 0.9392,-28.5 -4.5772,-13.88615 -16.52294,-20.77911 -36.01452,-20.78121 -14.41088,-0.002 -24.35686,3.01196 -31.74152,9.61729 -1.2375,1.1069 -2.25,1.77381 -2.25,1.48201 0,-0.29179 2.21014,-4.75773 4.91143,-9.92431 5.81118,-11.114654 10.54605,-24.841424 12.56781,-36.435093 0.9414,-5.398378 1.70411,-19.916711 2.14935,-40.913204 L 196.31873,0 256.40937,-4.5624358e-4 316.5,-9.1248715e-4 316.50327,28.749544 c 0.005,48.041747 2.97685,77.498496 8.61643,85.418566 2.11228,2.96641 2.40906,3.06172 7.96505,2.55792 5.18249,-0.46993 6.48823,-1.10278 12.80381,-6.20553 12.18172,-9.84238 23.071,-27.39993 31.09748,-50.140677 L 380,51.840643 V 25.920322 0 h 13.63462 13.63463 l -0.57808,39.25 C 405.91755,91.777226 403.11826,113.3832 392.53664,148.5 355.36521,271.85932 250.61638,363.1124 123.5,382.87419 101.89268,386.23331 86.830491,387 42.445532,387 H 0 Z"
       id="path4771"
       inkscape:connector-curvature="0" />
    <path
       style="fill:#790000"
       d="M 0,335.5 V 284 h 45.279859 c 49.074907,0 59.754951,-0.73663 81.720141,-5.63645 24.00524,-5.3549 41.54919,-11.82442 67.63265,-24.94025 18.42882,-9.26677 31.93217,-16.98562 43.16421,-24.67375 2.36327,-1.61762 9.78827,-5.97523 16.5,-9.68358 6.71173,-3.70835 15.57814,-8.76614 19.70314,-11.23953 4.125,-2.47339 10.65,-6.37983 14.5,-8.68098 52.76845,-31.53969 86.95113,-77.75884 99.58086,-134.64546 2.76678,-12.462055 2.88689,-14.065546 2.90267,-38.75 L 391,0 h 8.13462 8.13463 l -0.57808,39.25 C 405.91755,91.777226 403.11826,113.3832 392.53664,148.5 355.36521,271.85932 250.61638,363.1124 123.5,382.87419 101.89268,386.23331 86.830491,387 42.445532,387 H 0 Z M 260.75487,148.5832 c 3.40825,-11.68279 4.44756,-22.17396 2.79459,-28.20955 -3.19634,-11.67098 -7.29904,-16.43305 -17.04946,-19.78955 -15.14126,-5.212254 -45.76116,-1.511896 -58.48213,7.06746 -3.1629,2.13313 -6.01787,3.03666 -6.01787,1.90451 0,-0.24417 1.6018,-4.40667 3.55955,-9.25 6.56927,-16.251919 8.49048,-25.747128 9.47048,-46.80607 0.48631,-10.45 0.90349,-26.7625 0.92708,-36.25 L 196,0 h 51 51 l -0.0103,27.25 c -0.0154,40.540538 -2.50506,61.726007 -10.00585,85.14194 -3.68714,11.51049 -10.07112,25.498 -12.72812,27.8877 -1.08828,0.9788 -2.73491,3.4538 -3.65917,5.5 -1.16852,2.58694 -3.43518,4.81199 -7.44014,7.30356 l -5.75966,3.5832 2.35813,-8.0832 z"
       id="path4769"
       inkscape:connector-curvature="0" />
    <path
       style="fill:#750000"
       d="M 0,342 V 297 H 50.394045 C 101.90269,297 112.12654,296.49699 134,292.88665 199.23349,282.11949 277.25843,243.20995 324.28165,197.99686 363.56069,160.22983 385.98412,118.57473 395.06792,66.5 c 1.57989,-9.057057 1.91999,-15.901515 1.92545,-38.75 L 397,0 h 5.13462 5.13463 l -0.57808,39.25 C 405.91755,91.777226 403.11826,113.3832 392.53664,148.5 355.36521,271.85932 250.61638,363.1124 123.5,382.87419 101.89268,386.23331 86.830491,387 42.445532,387 H 0 Z M 187.01501,100.18995 c 0.008,-1.479473 1.14211,-6.28995 2.51968,-10.68995 4.4806,-14.311123 5.36489,-22.575772 6.0939,-56.954517 L 196.31873,0 H 240.15937 284 v 25.934624 c 0,30.988289 -0.88149,36.720313 -7.26249,47.22568 l -4.25864,7.011197 -9.94116,0.42261 c -18.76776,0.79784 -51.4543,9.495244 -67.28771,17.904264 l -8.25,4.381525 0.015,-2.68995 z"
       id="path4767"
       inkscape:connector-curvature="0" />
    <path
       style="fill:#710000"
       d="m 0,347.56794 v -39.43206 l 61.75,-0.39397 c 57.65315,-0.36784 62.67884,-0.54032 75.75,-2.5997 36.4569,-5.74384 71.26386,-16.89004 105,-33.62405 23.20454,-11.51006 30.71862,-15.98197 50.50024,-30.05455 19.40142,-13.8021 45.81775,-39.45976 59.67754,-57.96361 27.26675,-36.40314 42.72794,-76.49138 48.40272,-125.5 0.82902,-7.159625 1.01102,-18.05561 0.57208,-34.25 L 401.00885,0 h 3.1302 3.1302 l -0.57808,39.25 C 405.91755,91.777226 403.11826,113.3832 392.53664,148.5 355.36521,271.85932 250.61638,363.1124 123.5,382.87419 101.89268,386.23331 86.830491,387 42.445532,387 H 0 Z M 191.35768,90.288988 c -0.38295,-1.525814 0.10948,-6.444081 1.12638,-11.25 1.98969,-9.403384 3.35091,-33.57468 3.45151,-61.288988 L 196,0 H 231.5 267 V 25.979405 51.95881 l -4.586,4.270595 c -4.51024,4.200042 -17.63057,11.918242 -30.414,17.891418 -16.6892,7.798185 -29.80555,14.367874 -32.98213,16.520019 -4.61168,3.124426 -6.81307,3.023309 -7.66019,-0.351854 z"
       id="path4765"
       inkscape:connector-curvature="0" />
    <path
       style="fill:#6d0000"
       d="m 0,351.953 v -35.04701 l 55.25,0.68656 c 58.16017,0.72271 67.12513,0.36539 93.25,-3.71672 40.67787,-6.35609 84.3319,-22.23259 121.86061,-44.31942 C 306.5738,248.24382 339.82124,216.88187 362.6509,182.5 381.94288,153.44594 395.83996,117.17118 401.44454,81.239165 403.67922,66.912195 405.22694,32.332551 404.42046,14.75 403.79312,1.0727837 403.87211,0 405.50658,0 c 1.66344,0 1.73012,2.2096195 1.18459,39.25 -0.77362,52.527226 -3.57291,74.1332 -14.15453,109.25 C 355.36521,271.85932 250.61638,363.1124 123.5,382.87419 101.89268,386.23331 86.830491,387 42.445532,387 H 0 Z M 196.25405,84.783305 c -2.19236,-2.689439 -3.13614,-8.863546 -2.21759,-14.507295 0.50088,-3.07756 1.2193,-20.148664 1.59648,-37.935787 L 196.31873,0 H 221.15937 246 l -0.0693,26.25 -0.0692,26.25 -5.84931,4.714846 c -4.53141,3.652545 -39.18276,27.155565 -42.1121,28.563439 -0.32996,0.158579 -1.07067,-0.289162 -1.64604,-0.99498 z"
       id="path4763"
       inkscape:connector-curvature="0" />
    <path
       style="fill:#690000"
       d="m 0,356.39562 v -30.60439 l 62.25,0.35439 c 65.15163,0.3709 67.01632,0.28667 94.14792,-4.25281 64.72473,-10.82932 131.14062,-44.59343 173.20595,-88.05342 34.65309,-35.802 57.85677,-77.72218 68.97468,-124.61091 5.69452,-24.016098 6.65565,-33.394902 7.45311,-72.72848 l 0.75015,-37 -0.33436,39.5 c -0.38397,45.361303 -1.93726,61.63347 -8.58516,89.93768 C 369.11013,251.35328 272.92245,348.0005 150.5,377.48176 118.15098,385.27191 98.533119,387 42.445532,387 H 0 Z M 197.14881,72.369392 c -2.24384,-4.618501 -2.24788,-4.719167 -1.544,-38.5 L 196.31053,0 H 214.15526 232 l -0.0278,26.25 -0.0278,26.25 -2.72222,2.570531 c -7.31978,6.911903 -27.34724,21.91266 -29.27295,21.925731 -0.30291,0.0021 -1.56311,-2.080036 -2.80046,-4.62687 z"
       id="path4761"
       inkscape:connector-curvature="0" />
    <path
       style="fill:#650000"
       d="m 0,360.40303 v -26.59697 l 63.75,0.3278 c 57.22494,0.29425 65.0806,0.14244 76.75,-1.48314 48.73515,-6.78893 90.23887,-20.65084 127,-42.41699 20.794,-12.31206 31.09814,-19.79579 48.9397,-35.5441 32.41514,-28.61205 57.60868,-65.4577 72.94999,-106.68963 4.47555,-12.02866 9.99924,-31.34284 11.65573,-40.75553 0.70227,-3.99054 1.47496,-7.05742 1.71709,-6.8153 1.2503,1.25031 -5.1147,31.20527 -10.21437,48.07083 C 355.20003,272.01711 250.63036,363.11023 123.5,382.87419 101.89268,386.23331 86.830491,387 42.445532,387 H 0 Z M 403.19495,96.5 c 0.0204,-1.65 0.2445,-2.203936 0.49804,-1.230968 0.25354,0.972967 0.23687,2.322967 -0.0371,3 C 403.38201,98.946064 403.17457,98.15 403.19495,96.5 Z m 1,-8 c 0.0204,-1.65 0.2445,-2.203936 0.49804,-1.230968 0.25354,0.972967 0.23687,2.322967 -0.0371,3 C 404.38201,90.946064 404.17457,90.15 404.19495,88.5 Z m 0.884,-9.083333 c 0.048,-1.164943 0.28494,-1.4019 0.60416,-0.604167 0.28887,0.721875 0.25335,1.584375 -0.0789,1.916667 -0.33229,0.332291 -0.56864,-0.258334 -0.52522,-1.3125 z M 200.13559,65.156065 c -5.08044,-7.22832 -5.03714,-6.865371 -4.41061,-36.97251 L 196.31148,0 H 209.15574 222 v 25.77346 25.77346 l -7.75,7.600461 c -9.00834,8.834524 -11.40973,9.856826 -14.11441,6.008684 z"
       id="path4759"
       inkscape:connector-curvature="0" />
    <path
       style="fill:#610000"
       d="m 0,363.90733 v -23.09267 l 65.25,0.34267 c 71.10676,0.37343 72.59365,0.29025 102.28069,-5.72173 51.10505,-10.34938 101.14468,-33.71852 138.84957,-64.84449 39.46264,-32.57703 71.1347,-78.68978 85.91751,-125.09111 1.92745,-6.05 3.72175,-11.9 3.98734,-13 0.31449,-1.30252 0.52334,-1.44878 0.59889,-0.41938 0.0638,0.86935 -1.63137,7.39435 -3.76705,14.5 C 358.29089,262.45109 266.86901,349.45826 150.5,377.48176 118.15098,385.27191 98.533119,387 42.445532,387 H 0 Z M 202.10934,56.479817 198,52.767275 V 26.383638 0 h 8 8 v 26.297052 26.297052 l -3.89066,3.799128 -3.89066,3.799128 z"
       id="path4757"
       inkscape:connector-curvature="0" />
    <path
       style="fill:#5b0000"
       d="m 0,367.90264 v -19.09736 l 64.75,0.34736 c 70.12433,0.37619 72.52138,0.25191 100.25,-5.1976 30.70351,-6.03416 57.57286,-15.28476 85.27561,-29.35875 34.5758,-17.56574 64.12755,-40.60169 88.64044,-69.09629 14.66521,-17.04733 31.0511,-42.08739 38.47475,-58.79508 2.13994,-4.81616 4.07482,-8.57263 4.29973,-8.34772 0.60256,0.60256 -8.09237,19.6935 -13.95619,30.6428 C 317.59914,302.61558 227.59422,366.69147 123.5,382.87419 101.89268,386.23331 86.830491,387 42.445532,387 H 0 Z"
       id="path4755"
       inkscape:connector-curvature="0" />
    <path
       style="fill:#530000"
       d="m 0,372.91953 v -14.08047 l 64.25,0.26886 c 56.15717,0.235 65.7615,0.0541 76.25,-1.43597 61.55621,-8.74526 113.0583,-30.14361 157.5,-65.43891 13.00823,-10.33104 34.75818,-32.48249 44.91794,-45.7471 12.86295,-16.7939 13.69479,-16.98034 1.95743,-0.43872 C 292.92325,319.26408 212.35682,369.06031 123.5,382.87419 101.89268,386.23331 86.830491,387 42.445532,387 H 0 Z"
       id="path4753"
       inkscape:connector-curvature="0" />
    <path
       style="fill:#4c0000"
       d="M 0,378.5 V 370 l 11.75,-0.0573 c 46.778808,-0.22811 121.47117,-1.88518 125.25,-2.77871 2.475,-0.58523 9.16725,-1.79848 14.87166,-2.69611 14.97584,-2.35655 39.75454,-8.77965 53.62834,-13.90146 42.0742,-15.53258 73.53538,-34.77681 104.23186,-63.7567 L 321.5,275.69967 308,289.14813 C 281.26426,315.7818 256.72681,333.57762 223.30391,350.57407 183.97577,370.5735 142.4433,382.26977 97.695532,385.9476 90.653074,386.52642 65.790574,387 42.445532,387 H 0 Z"
       id="path4751"
       inkscape:connector-curvature="0" />
  </g>
</svg>
