<?xml version="1.0" encoding="UTF-8" standalone="no"?>
<!-- Created with Inkscape (http://www.inkscape.org/) -->

<svg
   xmlns:dc="http://purl.org/dc/elements/1.1/"
   xmlns:cc="http://creativecommons.org/ns#"
   xmlns:rdf="http://www.w3.org/1999/02/22-rdf-syntax-ns#"
   xmlns:svg="http://www.w3.org/2000/svg"
   xmlns="http://www.w3.org/2000/svg"
   xmlns:sodipodi="http://sodipodi.sourceforge.net/DTD/sodipodi-0.dtd"
   xmlns:inkscape="http://www.inkscape.org/namespaces/inkscape"
   version="1.1"
   id="svg2"
   width="311.1666"
   height="328"
   viewBox="0 0 311.1666 328"
   sodipodi:docname="codo_izq_arriba_verde.svg"
   inkscape:version="0.92.5 (2060ec1f9f, 2020-04-08)">
  <metadata
     id="metadata8">
    <rdf:RDF>
      <cc:Work
         rdf:about="">
        <dc:format>image/svg+xml</dc:format>
        <dc:type
           rdf:resource="http://purl.org/dc/dcmitype/StillImage" />
        <dc:title></dc:title>
      </cc:Work>
    </rdf:RDF>
  </metadata>
  <defs
     id="defs6" />
  <sodipodi:namedview
     pagecolor="#ffffff"
     bordercolor="#666666"
     borderopacity="1"
     objecttolerance="10"
     gridtolerance="10"
     guidetolerance="10"
     inkscape:pageopacity="0"
     inkscape:pageshadow="2"
     inkscape:window-width="1920"
     inkscape:window-height="1017"
     id="namedview4"
     showgrid="false"
     inkscape:pagecheckerboard="true"
     fit-margin-top="0"
     fit-margin-left="0"
     fit-margin-right="0"
     fit-margin-bottom="0"
     inkscape:zoom="0.7195122"
     inkscape:cx="-262.83898"
     inkscape:cy="314.10169"
     inkscape:window-x="-8"
     inkscape:window-y="-8"
     inkscape:window-maximized="1"
     inkscape:current-layer="svg2" />
  <g
     id="g4749">
    <path
       style="fill:#00ba00"
       d="m 140.73177,290.75 c -0.39926,-34.10412 -0.61613,-37.9098 -2.56795,-45.06268 C 126.86651,204.2858 93.808689,175.76822 51.665619,171.06899 46.392884,170.48105 32.611091,170 21.039414,170 H 0 V 85 0 H 23.854783 C 49.690516,0 67.799668,1.0915251 83.5,3.5951021 153.55512,14.7661 214.88162,51.753732 257.4352,108.5 c 20.98068,27.97826 35.97588,59.24532 45.16505,94.1753 6.76646,25.72076 7.66226,34.80875 8.13936,82.5747 l 0.427,42.75 h -84.99937 -84.99938 z"
       id="path4777"
       inkscape:connector-curvature="0" />
    <path
       style="fill:#00b300"
       d="m 140.73177,290.75 c -0.39926,-34.10412 -0.61613,-37.9098 -2.56795,-45.06268 C 126.86651,204.2858 93.808689,175.76822 51.665619,171.06899 46.392884,170.48105 32.611091,170 21.039414,170 H 0 V 98.5 27 l 4.75,0.04611 c 40.463278,0.392804 75.04131,2.100821 99.08156,4.894232 25.47292,2.959885 38.29431,3.716056 41.58665,2.452667 C 146.2882,34.059167 147,32.723745 147,31.425406 147,25.972698 126.91254,14.966705 106.13739,9.0366341 102.48683,7.9946147 100.25151,7.1100914 101.17003,7.0710267 103.81943,6.9583467 126.57948,13.716306 137,17.709733 185.68004,36.365256 226.31078,66.994802 257.4352,108.5 c 20.98068,27.97826 35.97588,59.24532 45.16505,94.1753 6.76646,25.72076 7.66226,34.80875 8.13936,82.5747 l 0.427,42.75 H 226.16724 141.16786 Z M 96.8125,6.316886 c 0.721875,-0.2888706 1.584375,-0.2533443 1.916667,0.078947 0.332291,0.3322917 -0.258334,0.5686404 -1.3125,0.5252193 -1.164943,-0.047984 -1.4019,-0.28494 -0.604167,-0.6041663 z M 91.75,5.3377193 c 0.6875,-0.2774123 1.8125,-0.2774123 2.5,0 0.6875,0.2774123 0.125,0.504386 -1.25,0.504386 -1.375,0 -1.9375,-0.2269737 -1.25,-0.504386 z M 86.8125,4.316886 c 0.721875,-0.2888706 1.584375,-0.2533443 1.916667,0.078947 0.332291,0.3322917 -0.258334,0.5686404 -1.3125,0.5252193 -1.164943,-0.047984 -1.4019,-0.28494 -0.604167,-0.6041663 z m -6,-1 c 0.721875,-0.2888706 1.584375,-0.2533443 1.916667,0.078947 0.332291,0.3322917 -0.258334,0.5686404 -1.3125,0.5252193 -1.164943,-0.047984 -1.4019,-0.28494 -0.604167,-0.6041663 z M 73.75,2.3377193 c 0.6875,-0.2774123 1.8125,-0.2774123 2.5,0 0.6875,0.2774123 0.125,0.504386 -1.25,0.504386 -1.375,0 -1.9375,-0.2269737 -1.25,-0.504386 z M 64.8125,1.316886 c 0.721875,-0.2888706 1.584375,-0.2533443 1.916667,0.078947 0.332291,0.3322917 -0.258334,0.5686404 -1.3125,0.5252193 -1.164943,-0.047984 -1.4019,-0.28494 -0.604167,-0.6041663 z M 47.761659,0.29273913 c 1.243913,-0.23919321 3.043913,-0.2301119 4,0.0201807 C 52.717747,0.56321244 51.7,0.75891598 49.5,0.7478166 47.3,0.73671721 46.517747,0.53193235 47.761659,0.29273913 Z"
       id="path4775"
       inkscape:connector-curvature="0" />
    <path
       style="fill:#00ab00"
       d="m 140.73177,290.75 c -0.39926,-34.10412 -0.61613,-37.9098 -2.56795,-45.06268 C 126.86651,204.2858 93.808689,175.76822 51.665619,171.06899 46.392884,170.48105 32.611091,170 21.039414,170 H 0 V 103.88194 37.763878 l 35.75,0.534595 c 45.700964,0.683399 57.455239,2.194487 106.75,13.723399 29.49059,6.897173 35.19316,7.729544 40.63985,5.931972 3.7039,-1.222397 3.90326,-1.487595 3.29063,-4.377536 -1.43546,-6.771591 -12.584,-17.169146 -27.14276,-25.314385 -3.18325,-1.780942 -5.3345,-3.243442 -4.78056,-3.25 1.82485,-0.0216 26.79855,14.004323 36.94344,20.74846 54.61218,36.305209 94.07755,92.020217 111.14965,156.914917 6.76646,25.72076 7.66226,34.80875 8.13936,82.5747 l 0.427,42.75 h -84.99937 -84.99938 z"
       id="path4773"
       inkscape:connector-curvature="0" />
    <path
       style="fill:#00a300"
       d="m 140.73177,290.75 c -0.39926,-34.10412 -0.61613,-37.9098 -2.56795,-45.06268 C 126.86651,204.2858 93.808689,175.76822 51.665619,171.06899 46.392884,170.48105 32.611091,170 21.039414,170 H 0 V 109 48 l 26.75,0.0086 c 54.223436,0.01734 81.66299,4.932963 133.75,23.960484 30.8002,11.251392 37.51313,13.274823 45.77752,13.798394 6.51587,0.412797 8.0975,0.203156 9.75,-1.29234 C 218.90019,81.875366 218.54402,76.47842 215.10524,70.5 212.12745,65.323008 202.47504,54.775353 195.5,49.076397 c -3.48667,-2.848786 -3.29417,-2.784285 1.5,0.502609 3.025,2.073945 8.875,6.4862 13,9.805012 45.774,36.827942 77.513,85.941442 92.60025,143.291282 6.76646,25.72076 7.66226,34.80875 8.13936,82.5747 l 0.427,42.75 h -84.99937 -84.99938 z"
       id="path4771"
       inkscape:connector-curvature="0" />
    <path
       style="fill:#009b00"
       d="m 140.73177,290.75 c -0.39926,-34.10412 -0.61613,-37.9098 -2.56795,-45.06268 C 126.86651,204.2858 93.808689,175.76822 51.665619,171.06899 46.392884,170.48105 32.611091,170 21.039414,170 H 0 V 113.38367 56.76735 l 33.25,0.531212 c 35.08836,0.560582 43.656711,1.385906 65.721431,6.330448 25.751159,5.770647 48.242789,14.564786 86.581059,33.85286 C 213.66794,111.62682 222.24318,115 230.08674,115 c 6.14063,0 8.4029,-1.11239 10.4967,-5.16136 4.0136,-7.76143 -2.99065,-23.112523 -17.46324,-38.273907 l -6.6202,-6.935268 8,7.272615 c 37.15198,33.77401 64.73064,79.95247 78.10025,130.77322 6.76646,25.72076 7.66226,34.80875 8.13936,82.5747 l 0.427,42.75 h -84.99937 -84.99938 z"
       id="path4769"
       inkscape:connector-curvature="0" />
    <path
       style="fill:#009200"
       d="m 140.73177,290.75 c -0.39926,-34.10412 -0.61613,-37.9098 -2.56795,-45.06268 C 126.86651,204.2858 93.808689,175.76822 51.665619,171.06899 46.392884,170.48105 32.611091,170 21.039414,170 H 0 V 118 66 l 18.25,0.0089 c 47.787996,0.02341 76.533085,4.429248 107.28157,16.443332 11.08412,4.330798 28.64933,12.761183 35.36414,16.972936 1.98236,1.243402 6.75429,4.211352 10.60429,6.595442 20.46245,12.67125 26.36052,16.94543 33.9303,24.5884 2.23833,2.25998 5.09742,4.43264 6.35353,4.82813 2.86592,0.90234 4.55987,2.66668 14.4619,15.06282 4.3934,5.5 12.44165,15.03678 17.885,21.19285 l 9.89701,11.19285 3.73613,-1.29119 3.73613,-1.29118 0.28787,-9.78947 c 0.16706,-5.68084 -0.32755,-13.05246 -1.17848,-17.56409 -1.27557,-6.76304 -1.2805,-8.39222 -0.0379,-12.52113 1.86207,-6.18718 1.80662,-11.79119 -0.18303,-18.49714 -2.01103,-6.77803 -7.37172,-17.72315 -11.07815,-22.618713 -1.54568,-2.041577 -2.25943,-3.377754 -1.5861,-2.969284 0.67332,0.408471 4.98973,5.785787 9.592,11.949587 21.20232,28.39613 36.08514,59.41532 45.28402,94.38221 6.76646,25.72076 7.66226,34.80875 8.13936,82.5747 l 0.427,42.75 h -84.99937 -84.99938 l -0.43609,-37.25 z"
       id="path4767"
       inkscape:connector-curvature="0" />
    <path
       style="fill:#008b00"
       d="m 140.73177,290.75 c -0.39926,-34.10412 -0.61613,-37.9098 -2.56795,-45.06268 C 126.86651,204.2858 93.808689,175.76822 51.665619,171.06899 46.392884,170.48105 32.611091,170 21.039414,170 H 0 V 123.59865 77.197298 l 11.75,-0.848649 c 34.269898,-2.475158 63.370467,0.665841 90.64706,9.784082 12.92103,4.319349 29.82565,12.114577 41.10294,18.953799 45.2782,27.45941 78.77379,74.96276 92.46971,131.14027 4.63953,19.0303 5.85125,30.33932 6.59195,61.5232 l 0.71852,30.25 h -51.05616 -51.05616 z m 145.84649,8 c 0.44322,-23.16476 0.95855,-31.2264 2.47708,-38.75 4.51118,-22.35085 4.75353,-40.76327 0.82265,-62.5 -2.20768,-12.20786 -3.94821,-18.65388 -10.39557,-38.5 -2.41215,-7.425 -5.33798,-16.65 -6.50186,-20.5 -1.16388,-3.85 -3.66037,-10.0375 -5.54774,-13.75 -1.88738,-3.7125 -3.26291,-6.75 -3.05674,-6.75 1.11604,0 14.65156,23.85179 20.53831,36.19185 11.34995,23.79226 19.10362,48.77244 23.27932,74.99958 1.85012,11.62037 2.17307,18.73142 2.5459,56.05857 l 0.427,42.75 h -12.574 -12.574 z"
       id="path4765"
       inkscape:connector-curvature="0" />
    <path
       style="fill:#008300"
       d="m 140.73177,290.75 c -0.39926,-34.10412 -0.61613,-37.9098 -2.56795,-45.06268 C 126.86651,204.2858 93.808689,175.76822 51.665619,171.06899 46.392884,170.48105 32.611091,170 21.039414,170 H 0 V 130.46634 90.932685 l 30.25,0.589903 c 33.551539,0.654286 41.433669,1.364414 56.654131,5.104166 C 148.88806,111.85655 197.59745,160.15004 213.96505,222.60278 218.06966,238.26447 219,250.81973 219,290.55122 V 328 h -38.91607 -38.91607 z m 160.39157,-16.5 c 0.28661,-48.02153 0.13122,-54.81576 -1.45803,-63.75 -3.62454,-20.37591 -7.56844,-33.48577 -17.58607,-58.45757 -2.74859,-6.85166 -4.86289,-12.59211 -4.69844,-12.75657 0.69385,-0.69384 14.11059,28.7557 17.75468,38.97125 5.46689,15.32542 10.53823,35.10647 13.05823,50.93432 1.85012,11.62037 2.17307,18.73142 2.5459,56.05857 l 0.427,42.75 h -5.18203 -5.18204 z"
       id="path4763"
       inkscape:connector-curvature="0" />
    <path
       style="fill:#007b00"
       d="m 140.73177,290.75 c -0.39926,-34.10412 -0.61613,-37.9098 -2.56795,-45.06268 C 126.86651,204.2858 93.808689,175.76822 51.665619,171.06899 46.392884,170.48105 32.611091,170 21.039414,170 H 0 v -31.07423 -31.07422 l 37.75,0.42062 c 31.090564,0.34643 39.073067,0.72505 45.25,2.14625 27.83894,6.40523 52.02544,19.28416 72.14869,38.41804 26.19383,24.906 41.72089,55.27919 45.90417,89.79525 1.54934,12.78356 0.7053,19.78124 -3.11201,25.8005 L 195,269.06946 V 298.53473 328 h -26.91607 -26.91607 z m 167.25791,-3.5 c -0.0109,-43.21322 -0.85653,-58.67392 -4.08133,-74.62272 -1.09793,-5.43 -1.82336,-10.04561 -1.61206,-10.25691 0.58668,-0.58667 4.54387,17.82968 6.36664,29.62963 1.23833,8.01653 1.72623,20.61128 2.06282,53.25 0.39723,38.51866 0.28415,42.75 -1.14244,42.75 -1.41834,0 -1.58439,-4.24586 -1.59363,-40.75 z m -6.91073,-87.83333 c 0.048,-1.16495 0.28494,-1.4019 0.60416,-0.60417 0.28887,0.72187 0.25335,1.58437 -0.0789,1.91667 -0.33229,0.33229 -0.56864,-0.25834 -0.52522,-1.3125 z m -2,-7 c 0.048,-1.16495 0.28494,-1.4019 0.60416,-0.60417 0.28887,0.72187 0.25335,1.58437 -0.0789,1.91667 -0.33229,0.33229 -0.56864,-0.25834 -0.52522,-1.3125 z"
       id="path4761"
       inkscape:connector-curvature="0" />
    <path
       style="fill:#007300"
       d="m 140.73177,290.75 c -0.39926,-34.10412 -0.61613,-37.9098 -2.56795,-45.06268 C 126.86651,204.2858 93.808689,175.76822 51.665619,171.06899 46.392884,170.48105 32.611091,170 21.039414,170 H 0 V 145.5 121 l 24.75,-0.25 c 13.6125,-0.1375 29.757495,-0.15668 35.877767,-0.0426 41.060293,0.76518 81.880563,23.48156 105.538213,58.73176 3.29965,4.91652 7.48512,11.89152 9.30104,15.5 4.93008,9.7967 10.27127,26.46106 11.5581,36.06087 0.99572,7.42821 0.91488,9.25655 -0.64117,14.5 -1.99765,6.73154 -4.83564,11.6131 -11.10871,19.10781 L 171,269.71563 V 298.85781 328 H 156.08393 141.16786 Z M 310.19495,252.5 c 0.0204,-1.65 0.2445,-2.20394 0.49804,-1.23097 0.25354,0.97297 0.23687,2.32297 -0.0371,3 -0.27393,0.67703 -0.48137,-0.11903 -0.46099,-1.76903 z"
       id="path4759"
       inkscape:connector-curvature="0" />
    <path
       style="fill:#006b00"
       d="m 142,300.21199 c 0,-38.46516 -1.96698,-53.1046 -9.45776,-70.39015 C 121.15005,203.53348 97.310204,182.58712 69.664526,174.57572 57.923075,171.17318 45.455981,170 21.039414,170 H 0 v -18.83815 -18.83814 l 33.948333,-0.64802 c 28.174528,-0.53781 35.444543,-0.38711 42.745621,0.88609 17.784556,3.10137 38.409146,11.94797 52.558026,22.54396 23.18841,17.36563 40.59286,44.16958 46.15015,71.07418 1.42651,6.90617 1.40721,7.84215 -0.27582,13.373 -2.88738,9.48866 -10.70525,23.09364 -16.00472,27.85207 -2.07064,1.85924 -2.12159,2.60967 -2.12159,31.25 V 328 h -7.5 -7.5 z"
       id="path4757"
       inkscape:connector-curvature="0" />
    <path
       style="fill:#006300"
       d="m 145.39553,260.21842 c -4.7318,-3.74028 -4.98536,-4.20487 -7.05907,-12.93457 C 130.03192,212.32429 103.69233,184.43659 69.664526,174.57572 57.923075,171.17318 45.455981,170 21.039414,170 H 0 V 155.5 141 l 24.25,-0.25 c 44.382903,-0.45756 48.159288,-0.29023 59.75,2.64746 19.98606,5.06551 41.70617,17.84042 55.01752,32.35912 15.36966,16.76371 27.40372,41.10829 27.11719,54.85735 -0.1969,9.4481 -6.37833,24.32215 -12.62348,30.37519 l -3.2076,3.10892 z"
       id="path4755"
       inkscape:connector-curvature="0" />
    <path
       style="fill:#005b00"
       d="m 142.79441,246.85912 c -4.21576,-1.85958 -4.87979,-2.61088 -6.37897,-7.21738 C 126.24066,208.37784 100.82785,183.6065 69.664526,174.57572 57.923075,171.17318 45.455981,170 21.039414,170 H 0 V 159.5 149 l 24.25,-0.25 c 43.347572,-0.44688 47.409286,-0.29019 57.25,2.20853 35.93178,9.12367 64.18272,35.57228 74.97716,70.19381 2.63391,8.4479 2.65878,8.76843 1.13996,14.69697 -2.71766,10.60806 -4.13816,13.15508 -7.31609,13.11808 -1.54057,-0.0179 -4.91855,-0.96666 -7.50662,-2.10827 z"
       id="path4753"
       inkscape:connector-curvature="0" />
    <path
       style="fill:#005500"
       d="m 142,236.33386 c -6.70905,-1.05673 -6.88622,-1.21465 -10.97547,-9.78247 C 116.33355,195.77079 86.568199,174.96086 51.665619,171.06899 46.392884,170.48105 32.611091,170 21.039414,170 H 0 v -7.5 -7.5 l 23.75,-0.25 c 39.879572,-0.41978 43.72183,-0.24624 55.803485,2.52055 6.079417,1.39223 14.033735,3.88264 17.676263,5.53424 21.958792,9.95659 40.703342,29.07016 49.698062,50.67644 3.52888,8.47675 5.52261,17.58803 4.6283,21.15122 -0.60859,2.42484 -2.65265,2.78877 -9.55611,1.70141 z"
       id="path4751"
       inkscape:connector-curvature="0" />
  </g>
</svg>
