<?xml version="1.0" encoding="UTF-8" standalone="no"?>
<!-- Created with Inkscape (http://www.inkscape.org/) -->

<svg
   xmlns:dc="http://purl.org/dc/elements/1.1/"
   xmlns:cc="http://creativecommons.org/ns#"
   xmlns:rdf="http://www.w3.org/1999/02/22-rdf-syntax-ns#"
   xmlns:svg="http://www.w3.org/2000/svg"
   xmlns="http://www.w3.org/2000/svg"
   xmlns:sodipodi="http://sodipodi.sourceforge.net/DTD/sodipodi-0.dtd"
   xmlns:inkscape="http://www.inkscape.org/namespaces/inkscape"
   version="1.1"
   id="svg2"
   width="407.26926"
   height="387.5"
   viewBox="0 0 407.26926 387.5"
   sodipodi:docname="codo_abajo_izq_verde.svg"
   inkscape:version="0.92.5 (2060ec1f9f, 2020-04-08)">
  <metadata
     id="metadata8">
    <rdf:RDF>
      <cc:Work
         rdf:about="">
        <dc:format>image/svg+xml</dc:format>
        <dc:type
           rdf:resource="http://purl.org/dc/dcmitype/StillImage" />
        <dc:title></dc:title>
      </cc:Work>
    </rdf:RDF>
  </metadata>
  <defs
     id="defs6" />
  <sodipodi:namedview
     pagecolor="#ffffff"
     bordercolor="#666666"
     borderopacity="1"
     objecttolerance="10"
     gridtolerance="10"
     guidetolerance="10"
     inkscape:pageopacity="0"
     inkscape:pageshadow="2"
     inkscape:window-width="1920"
     inkscape:window-height="1017"
     id="namedview4"
     showgrid="false"
     inkscape:pagecheckerboard="true"
     fit-margin-top="0"
     fit-margin-left="0"
     fit-margin-right="0"
     fit-margin-bottom="0"
     inkscape:zoom="0.60981912"
     inkscape:cx="-117.90678"
     inkscape:cy="408.3178"
     inkscape:window-x="-8"
     inkscape:window-y="-8"
     inkscape:window-maximized="1"
     inkscape:current-layer="svg2" />
  <g
     id="g4749"
     transform="translate(0,0.5)">
    <path
       style="fill:#00bb00"
       d="M 0,281.5 V 176 l 35.75,-8.4e-4 c 47.246428,-10e-4 59.612456,-1.22127 77.50267,-7.64725 35.75331,-12.84222 63.72337,-41.37888 75.65611,-77.188706 5.06408,-15.197156 5.96587,-23.063644 6.71981,-58.617721 L 196.31873,0 h 105.47526 105.47526 l -0.57808,39.25 C 405.91755,91.777226 403.11826,113.3832 392.53664,148.5 355.36521,271.85932 250.61638,363.1124 123.5,382.87419 101.89268,386.23331 86.830491,387 42.445532,387 H 0 Z"
       id="path4787"
       inkscape:connector-curvature="0" />
    <path
       style="fill:#00b300"
       d="M 0,297.5 V 208 h 37.427641 c 21.14762,0 40.777246,-0.46589 45.128358,-1.07107 15.899178,-2.21137 31.032561,-9.65069 37.253511,-18.3132 3.56689,-4.96682 4.25628,-10.48631 1.5865,-12.70204 -2.59991,-2.15773 -12.11758,-2.66692 -23.89601,-1.27843 -6.05,0.7132 -13.475,1.25071 -16.5,1.19447 -4.728237,-0.0879 -4.328912,-0.21527 2.845808,-0.90763 48.270342,-4.65811 89.714452,-37.69842 105.062972,-83.758896 5.06408,-15.197156 5.96587,-23.063644 6.71981,-58.617721 L 196.31873,0 h 105.47526 105.47526 l -0.57808,39.25 C 405.91755,91.777226 403.11826,113.3832 392.53664,148.5 355.36521,271.85932 250.61638,363.1124 123.5,382.87419 101.89268,386.23331 86.830491,387 42.445532,387 H 0 Z M 6.25,176.25845 c 3.7125,-0.19241 9.7875,-0.19241 13.5,0 3.7125,0.19241 0.675,0.34983 -6.75,0.34983 -7.425,0 -10.4625,-0.15742 -6.75,-0.34983 z"
       id="path4785"
       inkscape:connector-curvature="0" />
    <path
       style="fill:#00ab00"
       d="m 0,305 v -82 l 37.25,-0.008 c 47.067561,-0.0104 58.012748,-1.18765 75.06478,-8.07407 C 133.97,206.17233 151,188.51395 151,174.80509 c 0,-5.85655 -2.15667,-9.55478 -6.67228,-11.44152 C 139.86251,161.49788 135.65771,161.66178 128,164 c -3.575,1.0916 -6.725,1.97502 -7,1.96316 -0.275,-0.0118 3.1,-1.92554 7.5,-4.25263 29.10055,-15.39084 50.26567,-40.10816 60.40878,-70.547326 5.06408,-15.197156 5.96587,-23.063644 6.71981,-58.617721 L 196.31873,0 h 105.47526 105.47526 l -0.57808,39.25 C 405.91755,91.777226 403.11826,113.3832 392.53664,148.5 355.36521,271.85932 250.61638,363.1124 123.5,382.87419 101.89268,386.23331 86.830491,387 42.445532,387 H 0 Z"
       id="path4783"
       inkscape:connector-curvature="0" />
    <path
       style="fill:#00a300"
       d="m 0,311.06419 v -75.93582 l 45.25,-0.39278 c 42.423313,-0.36825 45.874682,-0.5328 55.25,-2.63422 23.06659,-5.17022 41.49243,-14.89466 56,-29.55463 15.76287,-15.92844 20.73628,-31.02997 14.39048,-43.69597 -4.2709,-8.52455 -14.20201,-10.3868 -26.47813,-4.96509 -3.80179,1.67905 -5.80317,2.27915 -4.44752,1.33357 24.06116,-16.78291 40.15404,-37.85123 48.92876,-64.056046 5.07627,-15.159763 5.98031,-23.02797 6.735,-58.617721 L 196.31873,0 h 105.47526 105.47526 l -0.57808,39.25 C 405.91755,91.777226 403.11826,113.3832 392.53664,148.5 355.36521,271.85932 250.61638,363.1124 123.5,382.87419 101.89268,386.23331 86.830491,387 42.445532,387 H 0 Z"
       id="path4781"
       inkscape:connector-curvature="0" />
    <path
       style="fill:#009b00"
       d="m 0,316.56964 v -70.43035 l 47.25,-0.40465 c 44.030165,-0.37708 47.910935,-0.55288 56.949,-2.57977 28.41832,-6.37314 51.21981,-18.34892 68.801,-36.13562 9.8062,-9.92082 14.29664,-16.41074 18.84797,-27.24046 2.20522,-5.24726 2.63322,-7.75738 2.60519,-15.27879 -0.0384,-10.29285 -1.86097,-15.01684 -7.80848,-20.23882 -7.41972,-6.5146 -18.90744,-7.02429 -28.64176,-1.27078 l -5.49708,3.24907 7.61972,-7.97547 c 13.7944,-14.43844 22.72965,-29.06778 28.76803,-47.100796 5.07627,-15.159763 5.98031,-23.02797 6.735,-58.617721 L 196.31873,0 h 105.47526 105.47526 l -0.57808,39.25 C 405.91755,91.777226 403.11826,113.3832 392.53664,148.5 355.36521,271.85932 250.61638,363.1124 123.5,382.87419 101.89268,386.23331 86.830491,387 42.445532,387 H 0 Z"
       id="path4779"
       inkscape:connector-curvature="0" />
    <path
       style="fill:#009500"
       d="M 0,321.5 V 256 h 35.854783 c 38.971413,0 56.263035,-0.98677 71.501767,-4.08034 29.33908,-5.95605 57.03764,-19.92483 76.80009,-38.73136 18.93922,-18.02313 28.42492,-34.80791 29.55011,-52.28839 0.75059,-11.66093 -1.19496,-17.51856 -8.11801,-24.44161 -11.3024,-11.3024 -29.32236,-11.45229 -42.09963,-0.35018 -3.36171,2.92097 -3.13088,2.47595 1.66267,-3.20544 11.46305,-13.58621 18.3995,-25.78061 23.74238,-41.739476 5.07581,-15.161154 5.97976,-23.029304 6.73443,-58.617721 L 196.31873,0 h 105.47526 105.47526 l -0.57808,39.25 C 405.91755,91.777226 403.11826,113.3832 392.53664,148.5 355.36521,271.85932 250.61638,363.1124 123.5,382.87419 101.89268,386.23331 86.830491,387 42.445532,387 H 0 Z"
       id="path4777"
       inkscape:connector-curvature="0" />
    <path
       style="fill:#009000"
       d="M 0,325.5 V 264 l 13.25,-0.0676 c 42.932473,-0.21898 80.535424,-1.76649 91.75,-3.77587 36.79013,-6.59188 70.07119,-23.37165 94.52221,-47.65655 26.31756,-26.13875 38.14304,-56.78479 29.60117,-76.71218 -4.42144,-10.31478 -18.03013,-17.96429 -31.95899,-17.96429 -11.72927,0 -18.42487,2.53963 -26.45268,10.03344 l -4.97387,4.64303 5.64814,-7.5 c 10.59808,-14.07289 18.96192,-33.58488 22.09326,-51.541313 0.9414,-5.398378 1.70411,-19.916711 2.14935,-40.913204 L 196.31873,0 h 105.47526 105.47526 l -0.57808,39.25 C 405.91755,91.777226 403.11826,113.3832 392.53664,148.5 355.36521,271.85932 250.61638,363.1124 123.5,382.87419 101.89268,386.23331 86.830491,387 42.445532,387 H 0 Z"
       id="path4775"
       inkscape:connector-curvature="0" />
    <path
       style="fill:#008d00"
       d="m 0,328.64735 v -58.35266 l 21.25,-0.69764 c 11.6875,-0.3837 32.5,-0.64289 46.25,-0.57598 25.655254,0.12485 33.36756,-0.53357 49,-4.18323 27.82106,-6.4953 55.25404,-20.51953 80,-40.89742 21.24925,-17.49841 37.28727,-39.43834 44.64632,-61.07593 2.75419,-8.09807 3.18198,-10.71686 3.16326,-19.36449 -0.0292,-13.47276 -2.939,-20.05026 -11.59646,-26.21301 -6.87415,-4.89332 -13.74435,-6.6558 -26.21312,-6.72473 -12.62797,-0.0698 -18.36238,1.45727 -26.08176,6.94554 -2.64999,1.88408 -5.00228,3.24149 -5.2273,3.01648 -0.22502,-0.22502 0.48349,-1.67254 1.57446,-3.2167 6.43857,-9.11318 14.21347,-29.510696 16.71384,-43.848893 0.9414,-5.398378 1.70411,-19.916711 2.14935,-40.913204 L 196.31873,0 H 258.65937 321 v 27.621662 c 0,29.924125 1.07784,41.122005 5.61913,58.378338 3.23819,12.304673 4.11663,13.563141 10.40945,14.91271 4.8692,1.04426 5.29167,0.96008 9.28635,-1.850325 2.30179,-1.619395 5.37539,-3.98341 6.83022,-5.253369 4.93622,-4.308939 13.78336,-18.452209 18.32807,-29.299711 L 376,53.704564 V 26.852282 0 h 15.63462 15.63463 l -0.57808,39.25 C 405.91755,91.777226 403.11826,113.3832 392.53664,148.5 355.36521,271.85932 250.61638,363.1124 123.5,382.87419 101.89268,386.23331 86.830491,387 42.445532,387 H 0 Z"
       id="path4773"
       inkscape:connector-curvature="0" />
    <path
       style="fill:#008900"
       d="M 2.7808243e-4,331.75 5.5616486e-4,276.5 42.750278,276.72123 c 48.147968,0.24916 58.356642,-0.53313 80.749722,-6.18784 36.81796,-9.29729 67.58823,-26.29869 91.5,-50.55619 9.98987,-10.13431 13.98419,-15.64628 16.8085,-23.19492 1.13569,-3.0354 3.92811,-8.39066 6.20538,-11.90059 5.09468,-7.85236 10.95335,-20.07936 14.07848,-29.38169 1.93949,-5.77312 2.35657,-9.10323 2.37965,-19 0.025,-10.73636 -0.22542,-12.49581 -2.37848,-16.70838 -5.14343,-10.06339 -14.74846,-14.70845 -32.09862,-15.52312 -14.31604,-0.6722 -23.41923,1.16661 -33.74491,6.81634 -3.9875,2.18178 -7.25,3.719 -7.25,3.41605 0,-0.30295 1.52287,-3.57708 3.38415,-7.27585 4.54199,-9.025934 9.31254,-23.544417 11.09509,-33.766353 0.9414,-5.398378 1.70411,-19.916711 2.14935,-40.913204 L 196.31873,0 H 251.65937 307 l -0.002,32.25 c -0.003,43.679228 -0.86192,53.996818 -7.88513,94.75 -2.32123,13.46924 -2.84664,25.38492 -1.28851,29.22207 3.3186,8.17262 21.18124,1.67312 38.88897,-14.15015 C 348.63427,131.41922 360.01592,116.75341 367.81137,102 374.62441,89.105877 378.23754,79.839889 383.0188,63 L 386.28393,51.5 385.65231,25.75 385.02069,0 h 11.12428 11.12428 l -0.57808,39.25 C 405.91755,91.777226 403.11826,113.3832 392.53664,148.5 355.36521,271.85932 250.61638,363.1124 123.5,382.87419 101.89268,386.23331 86.830491,387 42.445532,387 H 0 Z"
       id="path4771"
       inkscape:connector-curvature="0" />
    <path
       style="fill:#008500"
       d="m 0,338.60982 v -48.39019 l 50.75,-0.51416 c 51.74475,-0.52423 57.76192,-0.91618 79.65557,-5.18861 26.04442,-5.08243 51.99326,-14.25299 85.59443,-30.24988 20.41389,-9.71866 48.34083,-25.77649 70,-40.24959 46.79657,-31.27041 75.67791,-65.61244 95.44372,-113.48958 2.1127,-5.117412 7.89997,-25.728469 10.11606,-36.02781 1.43502,-6.669253 1.68512,-12.699202 1.50354,-36.25 L 392.8455,0 h 7.21187 7.21188 l -0.57808,39.25 C 405.91755,91.777226 403.11826,113.3832 392.53664,148.5 355.36521,271.85932 250.61638,363.1124 123.5,382.87419 101.89268,386.23331 86.830491,387 42.445532,387 H 0 Z M 271.38578,127.5 c 0.31402,-1.1 0.84499,-5.14408 1.17994,-8.98684 0.33495,-3.84276 0.76022,-7.23152 0.94505,-7.53058 0.18483,-0.29906 -2.44198,-3.54158 -5.83736,-7.20559 -8.02425,-8.659117 -13.15515,-10.800781 -26.01117,-10.8572 -20.50027,-0.08997 -42.15899,4.974435 -52.98928,12.39034 -4.7862,3.27729 -4.92267,0.92085 -0.67017,-11.572213 5.99921,-17.62457 6.84602,-24.419746 7.6258,-61.192434 L 196.31873,0 h 48.45936 48.45937 l -0.6558,29.25 c -0.36069,16.0875 -1.12775,33.3 -1.70458,38.25 -2.06977,17.761492 -6.89327,35.75182 -13.47266,50.24923 -3.50419,7.72133 -7.10435,13.55393 -6.01864,9.75077 z"
       id="path4769"
       inkscape:connector-curvature="0" />
    <path
       style="fill:#008100"
       d="m 0,343.44376 v -43.55624 l 54.25,0.17783 c 63.75758,0.209 72.09832,-0.4744 105.52751,-8.64648 27.61943,-6.75183 51.45077,-15.54196 78.15182,-28.82611 21.07943,-10.48732 27.83709,-14.40047 46.07067,-26.67812 44.98896,-30.29347 77.36792,-67.82013 95.88499,-111.12907 6.32507,-14.79348 10.42222,-27.270198 13.57687,-41.344564 C 398.14006,62.569427 399,53.651209 399,26.006582 V 0 h 4.13462 4.13463 l -0.57808,39.25 C 405.91755,91.777226 403.11826,113.3832 392.53664,148.5 355.36521,271.85932 250.61638,363.1124 123.5,382.87419 101.89268,386.23331 86.830491,387 42.445532,387 H 0 Z M 188.74478,97.445212 c -0.26861,-1.405134 0.83705,-7.592634 2.45702,-13.75 2.47707,-9.415124 3.08588,-14.216295 3.82891,-30.195212 0.48593,-10.45 0.90281,-26.7625 0.9264,-36.25 L 196,0 h 41.36071 41.36071 l 0.6306,5.25 c 0.34683,2.8875 0.63451,14.653798 0.63929,26.147329 0.008,18.67617 -0.21549,21.545977 -2.1005,27 -3.70557,10.721572 -4.83753,12.374456 -8.8209,12.880191 -1.96345,0.249284 -6.94491,1.595233 -11.06991,2.990998 -4.125,1.395764 -14.475,4.677642 -23,7.29306 -20.16719,6.187171 -31.74023,10.604285 -39.12776,14.933997 C 192.58357,98.423009 189.74442,100 189.563,100 c -0.18141,0 -0.54962,-1.149655 -0.81822,-2.554788 z"
       id="path4767"
       inkscape:connector-curvature="0" />
    <path
       style="fill:#007d00"
       d="M 0,348.5 V 310 H 55.894045 C 124.45789,310 138.19676,308.81688 172.5,299.95848 200.34093,292.76891 220.7281,285.15704 245.87353,272.56334 314.56238,238.1616 363.27011,187.00497 386.42344,124.94692 398.40463,92.833652 402,70.528802 402,28.31358 V 0 h 2.63462 2.63463 l -0.57808,39.25 C 405.91755,91.777226 403.11826,113.3832 392.53664,148.5 355.36521,271.85932 250.61638,363.1124 123.5,382.87419 101.89268,386.23331 86.830491,387 42.445532,387 H 0 Z M 192.66667,91.333333 c -1.09737,-1.097364 -0.72393,-9.301287 0.82091,-18.034553 0.93616,-5.29224 1.69555,-19.746296 2.14094,-40.75 L 196.31873,0 h 33.14778 33.14778 l -0.41147,26.25 -0.41147,26.25 -2.64567,2.841583 c -1.45513,1.56287 -4.22068,3.714639 -6.14568,4.781707 -1.925,1.067069 -5.75,3.330616 -8.5,5.030106 -2.75,1.699489 -13.13784,7.243265 -23.08409,12.319503 -9.94625,5.076237 -19.83821,10.421477 -21.98213,11.878311 -3.97241,2.699322 -5.57926,3.169976 -6.76711,1.982123 z"
       id="path4765"
       inkscape:connector-curvature="0" />
    <path
       style="fill:#007900"
       d="m 0,352.33716 v -34.66284 l 55.369461,0.63175 c 55.649809,0.63495 67.836329,0.24032 89.630539,-2.90246 28.91526,-4.16965 66.46125,-15.41986 92.48915,-27.71326 38.09142,-17.99119 63.6603,-35.47621 89.86719,-61.45475 C 373.19968,180.79172 398.06385,127.1642 403.96712,61 404.53144,54.675 404.9947,38.3625 404.99658,24.75 404.99904,6.960945 405.31911,0 406.13462,0 c 1.67977,0 0.43923,74.893603 -1.49077,90 -2.92732,22.91269 -6.31252,39.26938 -12.10721,58.5 C 355.36521,271.85932 250.61638,363.1124 123.5,382.87419 101.89268,386.23331 86.830491,387 42.445532,387 H 0 Z M 195.5027,81.646242 C 193.60834,76.68594 193.64341,78.303376 194.90332,54 c 0.556,-10.725 1.0302,-27.2625 1.05379,-36.75 L 196,0 h 24.5 24.5 v 25.878526 25.878526 l -5.25,4.451243 c -2.8875,2.448183 -13.66647,10.110463 -23.95326,17.027288 L 197.09348,85.81163 Z"
       id="path4763"
       inkscape:connector-curvature="0" />
    <path
       style="fill:#007500"
       d="m 0,356.4124 v -30.5876 l 62.75,0.31999 c 69.1954,0.35285 71.58933,0.20776 103.75,-6.28793 C 243.26049,304.35305 315.11367,259.96741 355.67237,203 376.47109,173.78681 390.57792,142.93075 398.5394,109.23638 404.26498,85.004712 405.19864,75.920676 406.0153,36.5 l 0.76651,-37 -0.33436,39.5 c -0.38397,45.361303 -1.93726,61.63347 -8.58516,89.93768 C 369.11013,251.35328 272.92245,348.0005 150.5,377.48176 118.15098,385.27191 98.533119,387 42.445532,387 H 0 Z M 197.20062,72.552693 194.90123,67.336188 195.60745,33.668094 196.31367,0 h 17.8595 17.8595 L 231.76633,26.718762 231.5,53.437525 219,63.585514 c -6.875,5.581394 -14.075,11.05602 -16,12.165836 l -3.5,2.017847 z"
       id="path4761"
       inkscape:connector-curvature="0" />
    <path
       style="fill:#007100"
       d="m 0,359.83613 v -27.16387 l 59.396417,0.66363 C 122.51987,334.04115 128.29688,333.80327 155,329.3991 212.82063,319.86269 266.42539,295.91039 308.4732,260.82241 356.86915,220.43704 388.27224,168.0413 400.96544,106.5 c 3.37514,-16.36394 3.92227,-15.425127 0.99824,1.71288 C 377.75017,250.13049 265.55939,360.78933 123.5,382.87419 101.89268,386.23331 86.830491,387 42.445532,387 H 0 Z M 404.232,88 c 0,-1.925 0.2058,-2.7125 0.45733,-1.75 0.25152,0.9625 0.25152,2.5375 0,3.5 C 404.4378,90.7125 404.232,89.925 404.232,88 Z m 0.92589,-9 c 0,-1.375 0.22698,-1.9375 0.50439,-1.25 0.27741,0.6875 0.27741,1.8125 0,2.5 -0.27741,0.6875 -0.50439,0.125 -0.50439,-1.25 z m -206.775,-15.25 c -3.24405,-4.782427 -3.11709,-2.708658 -2.63247,-43 L 196,0 h 13.5 13.5 v 25.772078 25.772078 l -8.27089,8.227922 C 204.76274,69.686673 202.74325,70.178125 198.38289,63.75 Z"
       id="path4759"
       inkscape:connector-curvature="0" />
    <path
       style="fill:#006b00"
       d="m 0,363.8368 v -23.16321 l 59.472696,0.67982 c 74.067224,0.84664 85.996534,-0.0717 123.937234,-9.541 36.83824,-9.19415 67.10859,-22.5118 98.59007,-43.37539 18.40214,-12.19558 27.43603,-19.5399 43.3512,-35.24342 25.0656,-24.73227 43.91928,-52.23694 58.39784,-85.1936 4.25109,-9.6765 10.733,-28.03216 12.53607,-35.5 0.31449,-1.30252 0.52334,-1.44878 0.59889,-0.41938 0.0638,0.86935 -1.63137,7.39435 -3.76705,14.5 C 358.29089,262.45109 266.86901,349.45826 150.5,377.48176 118.15098,385.27191 98.533119,387 42.445532,387 H 0 Z M 202.18138,56.287322 198,52.309672 V 26.154836 0 h 8 8 v 26.038723 26.038723 l -3.81862,4.093763 -3.81862,4.093763 z"
       id="path4757"
       inkscape:connector-curvature="0" />
    <path
       style="fill:#006300"
       d="m 0,368.89735 v -18.10264 l 65.25,0.35264 c 68.53329,0.37039 70.18021,0.29605 95.25,-4.29987 48.88315,-8.9615 93.18339,-27.86214 132,-56.31764 34.29928,-25.14396 66.23485,-63.35756 82.97447,-99.28595 2.11566,-4.54086 4.03658,-8.06617 4.26872,-7.83403 0.77062,0.77062 -13.47732,28.901 -20.81201,41.09014 C 307.75074,309.55402 221.37601,367.65817 123.5,382.87419 101.89268,386.23331 86.830491,387 42.445532,387 H 0 Z"
       id="path4755"
       inkscape:connector-curvature="0" />
    <path
       style="fill:#005b00"
       d="m 0,373.90249 v -13.09751 l 63.25,0.32199 c 56.7518,0.28891 64.5856,0.13574 76.25,-1.49089 33.71227,-4.70124 60.5429,-12.00433 89.42616,-24.34112 42.73869,-18.2548 84.62589,-49.98523 110.94879,-84.04603 3.50622,-4.53691 6.56849,-8.24893 6.80503,-8.24893 0.88404,0 -8.11498,11.91291 -18.12961,24 C 277.54169,328.56456 203.42282,370.44921 123.5,382.87419 101.89268,386.23331 86.830491,387 42.445532,387 H 0 Z M 347,241.62244 c 0,-0.20765 0.7875,-0.99515 1.75,-1.75 1.58606,-1.24387 1.62143,-1.2085 0.37756,0.37756 C 347.82119,241.91575 347,242.44548 347,241.62244 Z"
       id="path4753"
       inkscape:connector-curvature="0" />
    <path
       style="fill:#005500"
       d="m 0,378.08644 v -8.91356 l 65.25,-0.45248 c 64.46586,-0.44704 65.42425,-0.48311 79.75,-3.0012 34.73613,-6.10571 55.9982,-12.35352 84,-24.6832 27.89003,-12.28048 56.33077,-31.3235 80,-53.56548 l 12.5,-11.74626 -13.5,13.43617 c -26.77665,26.65003 -51.29429,44.42792 -84.69609,61.41364 C 183.97577,370.5735 142.4433,382.26977 97.695532,385.9476 90.653074,386.52642 65.790574,387 42.445532,387 H 0 Z"
       id="path4751"
       inkscape:connector-curvature="0" />
  </g>
</svg>
