<?xml version="1.0" encoding="UTF-8" standalone="no"?>
<!-- Created with Inkscape (http://www.inkscape.org/) -->

<svg
   xmlns:dc="http://purl.org/dc/elements/1.1/"
   xmlns:cc="http://creativecommons.org/ns#"
   xmlns:rdf="http://www.w3.org/1999/02/22-rdf-syntax-ns#"
   xmlns:svg="http://www.w3.org/2000/svg"
   xmlns="http://www.w3.org/2000/svg"
   xmlns:sodipodi="http://sodipodi.sourceforge.net/DTD/sodipodi-0.dtd"
   xmlns:inkscape="http://www.inkscape.org/namespaces/inkscape"
   version="1.1"
   id="svg2"
   width="340.19"
   height="323.5"
   viewBox="0 0 340.19 323.5"
   sodipodi:docname="codo_der_arriba_gris.svg"
   inkscape:version="0.92.5 (2060ec1f9f, 2020-04-08)">
  <metadata
     id="metadata8">
    <rdf:RDF>
      <cc:Work
         rdf:about="">
        <dc:format>image/svg+xml</dc:format>
        <dc:type
           rdf:resource="http://purl.org/dc/dcmitype/StillImage" />
        <dc:title></dc:title>
      </cc:Work>
    </rdf:RDF>
  </metadata>
  <defs
     id="defs6" />
  <sodipodi:namedview
     pagecolor="#ffffff"
     bordercolor="#666666"
     borderopacity="1"
     objecttolerance="10"
     gridtolerance="10"
     guidetolerance="10"
     inkscape:pageopacity="0"
     inkscape:pageshadow="2"
     inkscape:window-width="1920"
     inkscape:window-height="1017"
     id="namedview4"
     showgrid="false"
     inkscape:pagecheckerboard="true"
     fit-margin-top="0"
     fit-margin-left="0"
     fit-margin-right="0"
     fit-margin-bottom="0"
     inkscape:zoom="0.72839506"
     inkscape:cx="-41.235226"
     inkscape:cy="369.30508"
     inkscape:window-x="-8"
     inkscape:window-y="-8"
     inkscape:window-maximized="1"
     inkscape:current-layer="svg2" />
  <g
     id="g4991"
     transform="translate(0.18849995,-0.5)">
    <path
       style="fill:#fefefd"
       d="m 183,18 94.32203,-4.271186 C 278.18606,46.993928 157.64407,170.23729 157.64407,170.23729 90.079099,172.3595 53.949153,81.129065 183,18 Z"
       id="path5031"
       inkscape:connector-curvature="0"
       sodipodi:nodetypes="cccc" />
    <path
       style="fill:#e6e1dc"
       d="M 0,293.24387 C 0,259.77015 1.1324423,245.8041 5.6113317,224.04112 28.071442,114.90716 113.96462,29.085379 223.26563,6.5677362 244.5027,2.1925813 260.20155,1.0296733 301.7505,0.75388982 L 340.001,0.5 l -5e-4,88.678738 -5e-4,88.678742 -39.75,0.3715 -39.75,0.3715 -8.79938,2.70969 c -18.18937,5.60125 -31.79301,13.70495 -44.73925,26.6512 -17.85422,17.85421 -27.71467,39.05816 -29.96059,64.42731 -0.54102,6.11122 -0.98752,20.22382 -0.99223,31.36132 L 176,324 H 88 0 Z M 122.54323,85.430657 c 6.0743,-1.742475 15.70291,-6.09267 29.91919,-13.517441 C 176.22153,59.50449 194.04107,51.830923 211.5,46.490078 238.94639,38.093977 242.99015,36.716794 244.09076,35.390639 244.72553,34.625787 245.85465,34 246.59991,34 c 1.54916,0 12.27959,-5.583873 14.12696,-7.351355 2.14565,-2.052864 -2.52682,-6.690075 -7.75787,-7.699321 -6.96849,-1.344459 -27.57954,-1.088329 -36.969,0.459408 -23.13027,3.812739 -53.26093,16.017904 -74,29.975531 -4.4664,3.005938 -28.92086,26.824753 -29.08632,28.330284 C 112.38677,82.508879 112.39029,88 112.92028,88 c 0.3664,0 4.69673,-1.156205 9.62295,-2.569343 z"
       id="path5029"
       inkscape:connector-curvature="0" />
    <path
       style="fill:#e2dcd7"
       d="M 0,293.24387 C 0,259.77015 1.1324423,245.8041 5.6113317,224.04112 28.071442,114.90716 113.96462,29.085379 223.26563,6.5677362 244.5027,2.1925813 260.20155,1.0296733 301.7505,0.75388982 L 340.001,0.5 340.0005,8.75 340,17 309.25,16.988131 C 284.45434,16.978561 277.435,16.67456 273,15.41818 269.975,14.561234 262.775,13.485549 257,13.027767 222.7388,10.311899 177.48474,23.648877 141.5,47.067169 128.79177,55.337483 111.82948,71.606882 105.07944,82 c -3.58222,5.515574 -4.14782,7.080446 -3.73459,10.332587 0.26785,2.107924 0.72543,4.071024 1.01685,4.362445 0.29142,0.291421 3.81676,-0.206047 7.83408,-1.105484 7.27087,-1.627874 10.61534,-3.185596 48.80422,-22.731047 28.94401,-14.813832 50.45344,-22.691216 90,-32.960631 5.20013,-1.350365 12.37492,-3.81778 23,-7.909714 l 7.5,-2.888403 30.25074,-0.299876 30.25075,-0.299877 -7.5e-4,74.67874 -7.4e-4,74.67874 -39.75,0.3715 -39.75,0.3715 -8.79938,2.70969 c -18.18937,5.60125 -31.79301,13.70495 -44.73925,26.6512 -17.85422,17.85421 -27.71467,39.05816 -29.96059,64.42731 -0.54102,6.11122 -0.98752,20.22382 -0.99223,31.36132 L 176,324 H 88 0 Z"
       id="path5027"
       inkscape:connector-curvature="0" />
    <path
       style="fill:#d5d0ca"
       d="M 0,293.24387 C 0,259.77015 1.1324423,245.8041 5.6113317,224.04112 28.071442,114.90716 113.96462,29.085379 223.26563,6.5677362 244.5027,2.1925813 260.20155,1.0296733 301.7505,0.75388982 L 340.001,0.5 340.0005,3.6355477 340,6.7710955 292.25,7.2923877 c -50.2622,0.5487182 -53.70036,0.8264302 -76.75,6.1993633 -35.61543,8.302052 -69.66547,25.631099 -95.89829,48.805396 -7.03122,6.21144 -19.636528,22.1486 -22.00876,27.82615 -1.869571,4.474514 -1.06226,11.892603 1.288719,11.841573 C 105.09077,101.83009 114.08273,98.454472 128,91.033733 c 8.525,-4.54556 20,-10.654285 25.5,-13.574944 22.70415,-12.056563 63.52086,-27.425413 87.93862,-33.11182 8.28376,-1.929122 17.31138,-4.114 20.06138,-4.855284 14.39216,-3.879521 19.35252,-4.383361 48.75,-4.9517 L 340,33.964831 v 71.946319 71.94633 l -39.75,0.3715 -39.75,0.3715 -8.79938,2.70969 c -18.18937,5.60125 -31.79301,13.70495 -44.73925,26.6512 -17.85422,17.85421 -27.71467,39.05816 -29.96059,64.42731 -0.54102,6.11122 -0.98752,20.22382 -0.99223,31.36132 L 176,324 H 88 0 Z"
       id="path5025"
       inkscape:connector-curvature="0" />
    <path
       style="fill:#c6c1bd"
       d="M 0,293.24387 C 0,259.77015 1.1324423,245.8041 5.6113317,224.04112 23.568557,136.78674 82.591166,62.959116 164,25.922829 c 17.48601,-7.955118 19.80479,-8.280554 5,-0.70174 C 144.45067,37.788292 125.29717,51.680322 108.84904,68.848568 99.984862,78.100834 96.292709,82.844663 92.185667,90.258354 86.477345,100.56254 85.249971,104.9679 86.894419,109.25 c 0.964006,2.51024 1.507772,2.75 6.237002,2.75 4.420506,0 6.882579,-0.9015 16.774749,-6.14215 6.37661,-3.37818 15.36576,-8.355131 19.9759,-11.059886 4.61014,-2.704755 14.96014,-8.208919 23,-12.231475 C 194.7588,61.61445 224.80802,51.996643 273.1153,44.083625 276.82605,43.475781 292.96166,43 309.8653,43 H 340 v 67.42874 67.42874 l -39.75,0.3715 -39.75,0.3715 -8.79938,2.70969 c -18.18937,5.60125 -31.79301,13.70495 -44.73925,26.6512 -17.85422,17.85421 -27.71467,39.05816 -29.96059,64.42731 -0.54102,6.11122 -0.98752,20.22382 -0.99223,31.36132 L 176,324 H 88 0 Z M 183,18 c 0.825,-0.533156 1.95,-0.969374 2.5,-0.969374 0.55,0 0.325,0.436218 -0.5,0.969374 -0.825,0.533156 -1.95,0.969374 -2.5,0.969374 -0.55,0 -0.325,-0.436218 0.5,-0.969374 z"
       id="path5023"
       inkscape:connector-curvature="0" />
    <path
       style="fill:#c1bdb8"
       d="M 0,293.24387 C 0,259.77015 1.1324423,245.8041 5.6113317,224.04112 14.420486,181.23733 33.424145,140.79559 61.180489,105.78423 79.587272,82.566251 110.23057,55.542371 133.5,42.006702 138.77812,38.936458 137.02465,40.580881 129,46.226857 111.36002,58.637976 90.763977,82.080582 83.074212,98.5 c -5.247946,11.20557 -6.15962,16.02368 -3.949719,20.87389 1.02198,2.243 1.637341,2.44793 6.75,2.24796 C 91.770607,121.39123 97.82479,118.29926 135,96.532607 182.69075,68.608947 217.79027,55.98207 261.5,51.024865 273.51898,49.661769 283.78663,49.420481 315.75,49.75 L 340,50 v 63.92874 63.92874 l -39.75,0.3715 -39.75,0.3715 -8.79938,2.70969 c -18.18937,5.60125 -31.79301,13.70495 -44.73925,26.6512 -17.85422,17.85421 -27.71467,39.05816 -29.96059,64.42731 -0.54102,6.11122 -0.98752,20.22382 -0.99223,31.36132 L 176,324 H 88 0 Z"
       id="path5021"
       inkscape:connector-curvature="0" />
    <path
       style="fill:#bcb7b2"
       d="M 0,293.24387 C 0,259.77015 1.1324423,245.8041 5.6113317,224.04112 18.932769,159.31209 56.894469,98.414315 108.08997,59.645929 L 114.5,54.791858 109.36824,59.384091 C 96.192649,71.174475 80.984574,92.504555 75.983482,106.20787 c -3.190395,8.74189 -3.563753,12.16284 -1.958273,17.943 0.957074,3.44572 1.279862,3.6754 5.744423,4.08749 4.172238,0.3851 5.96925,-0.18966 15.230368,-4.87132 5.775,-2.91937 12.75,-6.79349 15.5,-8.60915 11.04921,-7.29513 42.91675,-26.434677 49.79585,-29.907234 15.99932,-8.07643 41.21117,-17.19255 61.70415,-22.311032 27.54621,-6.88015 44.38567,-8.537655 86.75,-8.538788 L 340,54 v 61.92874 61.92874 l -39.75,0.3715 -39.75,0.3715 -8.79938,2.70969 c -18.18937,5.60125 -31.79301,13.70495 -44.73925,26.6512 -17.85422,17.85421 -27.71467,39.05816 -29.96059,64.42731 -0.54102,6.11122 -0.98752,20.22382 -0.99223,31.36132 L 176,324 H 88 0 Z"
       id="path5019"
       inkscape:connector-curvature="0" />
    <path
       style="fill:#b6b1ad"
       d="M 0,293.24387 C 0,259.77015 1.1324423,245.8041 5.6113317,224.04112 17.515957,166.1964 48.905257,111.43587 92.277759,72.84632 L 100.5,65.530795 92.904574,73.592647 C 80.11383,87.168855 70.84734,103.06122 67.539351,117.09492 c -1.944088,8.24754 -1.923256,12.03217 0.08946,16.25289 1.402173,2.94038 2.252489,3.50114 6.111004,4.03001 3.847061,0.52729 5.635489,0.0689 12.621186,-3.23467 7.72756,-3.65445 19.374879,-10.94939 35.330489,-22.12817 26.12301,-18.302254 66.42558,-36.665393 98.78152,-45.008022 23.8601,-6.152068 35.03506,-7.243485 79.27699,-7.742693 L 340,58.8101 v 59.52369 59.52369 l -39.75,0.3715 -39.75,0.3715 -8.79938,2.70969 c -18.18937,5.60125 -31.79301,13.70495 -44.73925,26.6512 -17.85422,17.85421 -27.71467,39.05816 -29.96059,64.42731 -0.54102,6.11122 -0.98752,20.22382 -0.99223,31.36132 L 176,324 H 88 0 Z"
       id="path5017"
       inkscape:connector-curvature="0" />
    <path
       style="fill:#b1ada8"
       d="M 0,293.24387 C 0,259.77015 1.1324423,245.8041 5.6113317,224.04112 15.941609,173.84617 41.744313,124.28928 75.922968,89 c 6.277239,-6.481216 6.633367,-6.73049 2.621711,-1.835083 -14.395876,17.567223 -22.230213,41.491703 -17.633711,53.849773 1.386987,3.72903 2.147934,4.43678 5.984648,5.56627 4.051566,1.19274 4.912547,1.09174 11,-1.29044 6.757214,-2.64427 8.072398,-3.46159 37.895674,-23.5503 C 158.4266,93.021434 186.75129,79.509372 222,71.074233 c 24.29649,-5.814235 29.94354,-6.321801 75.75,-6.808526 L 340,63.816772 v 57.020348 57.02036 l -39.75,0.3715 -39.75,0.3715 -8.79938,2.70969 c -18.18937,5.60125 -31.79301,13.70495 -44.73925,26.6512 -17.85422,17.85421 -27.71467,39.05816 -29.96059,64.42731 -0.54102,6.11122 -0.98752,20.22382 -0.99223,31.36132 L 176,324 H 88 0 Z"
       id="path5015"
       inkscape:connector-curvature="0" />
    <path
       style="fill:#aba7a2"
       d="M 0,293.24387 C 0,259.77015 1.1324423,245.8041 5.6113317,224.04112 14.342351,181.61699 33.259566,141.15298 60.468093,106.70227 64.682562,101.36602 68.329816,97 68.573102,97 68.816387,97 67.263941,99.5875 65.12322,102.75 56.417597,115.61087 52,128.03903 52,139.66995 c 0,14.92469 5.998088,21.79142 16.784506,19.21524 7.560846,-1.8058 15.920295,-6.88636 37.992964,-23.0907 C 118.17486,127.42726 131.325,118.03184 136,114.91578 169.301,92.719478 202.84832,78.977155 241,71.903585 c 10.27715,-1.905451 16.15213,-2.183431 55.25,-2.614206 L 340,68.807347 v 54.525063 54.52507 l -39.75,0.3715 -39.75,0.3715 -8.79938,2.70969 c -18.18937,5.60125 -31.79301,13.70495 -44.73925,26.6512 -17.85422,17.85421 -27.71467,39.05816 -29.96059,64.42731 -0.54102,6.11122 -0.98752,20.22382 -0.99223,31.36132 L 176,324 H 88 0 Z"
       id="path5013"
       inkscape:connector-curvature="0" />
    <path
       style="fill:#a5a19d"
       d="M 0,293.24387 C 0,259.77015 1.1324423,245.8041 5.6113317,224.04112 10.666869,199.4762 18.797391,176.40319 30.468777,153.5 36.900862,140.87809 50.194936,119 51.432475,119 c 0.270417,0 -0.995336,3.4875 -2.812784,7.75 -7.3492,17.23623 -8.409165,31.08888 -3.18663,41.64594 3.337858,6.7473 7.775434,9.60406 14.918558,9.60406 10.022337,0 19.41798,-6.18329 50.751321,-33.39952 48.61925,-42.23084 93.99804,-63.294091 147.75301,-68.581798 11.03688,-1.085662 75.11508,-1.401119 78.89405,-0.388396 l 2.25,0.602977 v 50.812107 50.81211 l -39.75,0.3715 -39.75,0.3715 -8.79938,2.70969 c -18.18937,5.60125 -31.79301,13.70495 -44.73925,26.6512 -17.85422,17.85421 -27.71467,39.05816 -29.96059,64.42731 -0.54102,6.11122 -0.98752,20.22382 -0.99223,31.36132 L 176,324 H 88 0 Z"
       id="path5011"
       inkscape:connector-curvature="0" />
    <path
       style="fill:#a19d99"
       d="M 0.26652986,287.75 C 0.74809242,249.38627 1.3171341,243.26732 6.6600477,219 11.866128,195.35418 23.303469,165.47394 35.346038,144.05739 c 5.441695,-9.67753 9.296563,-13.74536 6.073845,-6.4094 -6.668235,15.17908 -7.036341,35.32485 -0.838697,45.90033 7.656193,13.06431 19.357029,14.96441 33.484511,5.43755 C 77.604564,186.59944 89.275,176.06262 100,165.57072 133.774,132.53077 154.68159,116.53209 181.55516,103.16397 201.91534,93.035901 220.39392,86.848906 242,82.92583 c 11.41275,-2.072245 16.21839,-2.305442 55.25,-2.681051 L 340,79.833387 v 49.012043 49.01205 l -39.75,0.3715 -39.75,0.3715 -8.79938,2.70969 c -18.18937,5.60125 -31.79301,13.70495 -44.73925,26.6512 -17.85422,17.85421 -27.71467,39.05816 -29.96059,64.42731 -0.54102,6.11122 -0.98752,20.22382 -0.99223,31.36132 L 176,324 H 164.5 153 l -0.004,-21.75 -0.004,-21.75 -3.45903,-5.5 c -1.90247,-3.025 -4.21289,-6.85 -5.13428,-8.5 -3.1659,-5.66941 -11.39223,-16.00378 -15.31837,-19.24378 l -3.93071,-3.24377 -5.63615,1.28004 c -5.36578,1.21863 -5.78107,1.54213 -8.65735,6.74377 -3.58924,6.49103 -7.25091,16.41941 -8.76398,23.76296 -0.6008,2.91457 -1.09213,14.95207 -1.09213,26.75 V 324 H 50.40575 -0.18849995 Z"
       id="path5009"
       inkscape:connector-curvature="0" />
    <path
       style="fill:#9c9894"
       d="M 0.26652986,287.75 C 0.74809242,249.38627 1.3171341,243.26732 6.6600477,219 11.509868,196.9723 26.824071,156.18415 32.005165,151.49533 c 1.798541,-1.62766 1.809888,-1.53297 0.379068,3.16339 -2.43188,7.98212 -2.930447,26.64705 -0.917305,34.34128 2.778193,10.61826 6.785733,16.8423 15.033072,23.34761 4.187688,3.30315 12.455808,5.29829 16.148988,3.89683 1.568056,-0.59503 4.088528,-1.35203 5.601048,-1.68222 1.633365,-0.35657 5.693935,-3.65615 10,-8.12591 3.98748,-4.13907 9.651057,-9.18187 12.585727,-11.20623 5.029819,-3.46961 9.736647,-8.70311 20.100467,-22.34959 2.43992,-3.21276 4.57667,-5.70092 4.74834,-5.52926 0.3696,0.36961 -4.54467,12.69979 -5.63908,14.14877 -0.41542,0.55 -1.23514,2.35 -1.8216,4 -0.58646,1.65 -2.69386,6.825 -4.68309,11.5 -13.064329,30.70306 -17.537481,56.52504 -17.539587,101.25 L 86,324 H 42.90575 -0.18849995 Z M 161.677,300.75 161.28353,277.5 154.76836,258 c -8.80715,-26.35994 -10.91986,-34.99886 -12.83927,-52.5 -1.29716,-11.82749 -1.23768,-9.48052 -0.57748,-22.7865 0.43117,-8.68997 1.03211,-11.87191 3.09179,-16.37084 1.40613,-3.07139 2.5566,-6.43678 2.5566,-7.47865 0,-6.91022 18.21358,-27.25229 33.84186,-37.79674 C 203.46498,105.8034 232.10951,95.19053 259,92.109477 c 4.675,-0.535651 24.8125,-1.280146 44.75,-1.654435 L 340,89.774518 V 133.816 177.85748 l -39.75,0.3715 -39.75,0.3715 -8.79938,2.70969 c -18.18937,5.60125 -31.79301,13.70495 -44.73925,26.6512 -17.85422,17.85421 -27.71467,39.05816 -29.96059,64.42731 -0.54102,6.11122 -0.98752,20.22382 -0.99223,31.36132 L 176,324 h -6.96477 -6.96477 z"
       id="path5007"
       inkscape:connector-curvature="0" />
    <path
       style="fill:#95918d"
       d="M 0,293.24387 C 0,259.77015 1.1324423,245.8041 5.6113317,224.04112 10.336902,201.07951 19.260762,175.25359 22.137927,176.21264 c 0.782055,0.26069 1.217949,4.29007 1.334629,12.33724 0.237242,16.36208 1.899765,22.12316 11.403516,39.51619 C 36.920531,231.80768 51.988678,248 53.426062,248 c 0.277465,0 2.63321,1.35 5.23499,3 2.60178,1.65 5.879908,3.00689 7.284729,3.01531 5.689182,0.0341 5.526305,-0.96077 5.885153,35.94746 L 72.161868,324 H 36.080934 0 Z M 168.75267,300.75 c -0.31437,-20.87914 -0.62747,-24.49327 -3.07049,-35.44218 -9.87561,-44.25964 -6.79282,-76.26925 10.09383,-104.80782 12.73502,-21.52228 37.39228,-40.56395 64.12369,-49.5198 19.18664,-6.42811 25.01305,-7.12429 64.3503,-7.68894 L 340,102.77809 v 37.53969 37.5397 l -39.75,0.3715 -39.75,0.3715 -8.79938,2.70969 c -18.18937,5.60125 -31.79301,13.70495 -44.73925,26.6512 -17.85422,17.85421 -27.71467,39.05816 -29.96059,64.42731 -0.54102,6.11122 -0.98752,20.22382 -0.99223,31.36132 L 176,324 h -3.44863 -3.44862 z"
       id="path5005"
       inkscape:connector-curvature="0" />
    <path
       style="fill:#918d8a"
       d="M 0,293.24387 C 0,259.76227 1.1334824,245.78957 5.6136979,224.04253 8.5419976,209.82851 10.256288,204.83952 14.905911,197 l 3.26205,-5.5 -0.505346,4.37318 c -0.930012,8.04817 3.327949,27.83154 8.616794,40.0354 3.291655,7.5954 11.177897,21.18359 15.433324,26.59199 0.432997,0.55032 2.362267,3.15335 4.287267,5.78452 1.925,2.63117 4.7375,6.40529 6.25,8.38693 2.701981,3.54008 2.75,3.85114 2.75,17.81461 0,7.81639 0.291031,17.65451 0.646736,21.86249 L 56.293472,324 H 28.146736 0 Z M 171.70463,297.25 c -0.24227,-14.7125 -0.96645,-30.35 -1.60928,-34.75 -0.64283,-4.4 -1.20628,-16.325 -1.25212,-26.5 -0.0982,-21.78476 1.84954,-33.83042 8.20664,-50.75485 13.6766,-36.411 47.8353,-63.38549 89.49474,-70.67233 6.8824,-1.20383 16.42062,-1.56717 41.20539,-1.56963 L 340,113 v 32.42874 32.42874 l -39.75,0.3715 -39.75,0.3715 -8.79938,2.70969 c -18.18937,5.60125 -31.79301,13.70495 -44.73925,26.6512 -17.85422,17.85421 -27.71467,39.05816 -29.96059,64.42731 -0.54102,6.11122 -0.98752,20.22382 -0.99223,31.36132 -0.008,19.32624 -0.0965,20.25 -1.93598,20.25 -1.84423,0 -1.94645,-1.15474 -2.36794,-26.75 z"
       id="path5003"
       inkscape:connector-curvature="0" />
    <path
       style="fill:#8b8784"
       d="M 0.27104306,287.75 C 0.81195262,245.08158 2.0363695,234.33914 7.805911,221.64267 c 3.058304,-6.73011 3.685781,-7.54579 4.373854,-5.68576 0.441825,1.19437 1.20591,1.92276 1.697968,1.61866 0.492057,-0.30411 1.21156,2.02948 1.598896,5.18575 1.655347,13.48888 9.511956,33.4758 19.859344,50.52142 L 40,280.96596 V 302.48298 324 H 19.90575 -0.18849995 Z M 173.65356,281.25 c -0.69604,-44.60672 -0.11647,-55.61154 3.81832,-72.50267 9.94747,-42.70208 39.76917,-73.18713 83.06413,-84.91178 L 272.5,120.59559 306.25,120.22682 340,119.85806 v 28.99971 28.99971 l -39.75,0.3715 -39.75,0.3715 -8.79938,2.70969 c -18.18937,5.60125 -31.79301,13.70495 -44.73925,26.6512 -17.85422,17.85421 -27.71467,39.05816 -29.96059,64.42731 -0.54102,6.11122 -0.98752,20.22382 -0.99223,31.36132 -0.005,11.1375 -0.38641,20.25 -0.84824,20.25 -0.46182,0 -1.13986,-19.2375 -1.50675,-42.75 z"
       id="path5001"
       inkscape:connector-curvature="0" />
    <path
       style="fill:#84817d"
       d="M 0.20057917,290.25 C 0.48499405,258.19143 0.61148176,256.20468 2.724449,250.60736 3.947896,247.3664 6.245472,242.72149 7.8301736,240.28533 l 2.8812754,-4.42938 1.216224,6.18195 c 1.509092,7.67056 7.154224,24.03493 11.103999,32.18877 L 26,280.35443 V 302.17721 324 H 12.950579 -0.09884167 Z M 176.13752,269.92368 c -0.38155,-26.5698 5.68611,-56.96886 15.46453,-77.47751 14.48912,-30.38856 39.77938,-51.16618 73.32418,-60.24066 9.20375,-2.48978 10.83955,-2.60458 42.32377,-2.97035 L 340,128.85468 v 24.5014 24.5014 l -39.75,0.3715 -39.75,0.3715 -8.79938,2.70969 c -18.18937,5.60125 -31.79301,13.70495 -44.73925,26.6512 C 189.702,225.22074 179.19299,247.22136 177.08863,270.5 l -0.81359,9 z"
       id="path4999"
       inkscape:connector-curvature="0" />
    <path
       style="fill:#817d7a"
       d="M 0,299.67515 C 0,273.49519 0.34857428,271.31511 6.8233573,257 c 1.9644762,-4.34326 2.0378287,-4.39455 2.1060055,-1.47251 0.038851,1.66513 0.7194211,3.95377 1.5123792,5.08587 0.792958,1.13211 3.039744,6.29474 4.992857,11.47251 l 3.551114,9.41413 0.0071,21.25 L 19,324 H 9.5 0 Z M 176.232,276 c 0,-1.925 0.2058,-2.7125 0.45733,-1.75 0.25152,0.9625 0.25152,2.5375 0,3.5 -0.25153,0.9625 -0.45733,0.175 -0.45733,-1.75 z m 0.92589,-12 c 0,-1.375 0.22698,-1.9375 0.50439,-1.25 0.27741,0.6875 0.27741,1.8125 0,2.5 -0.27741,0.6875 -0.50439,0.125 -0.50439,-1.25 z m 0.8967,-6 c -0.0285,-1.375 0.59094,-6.1 1.37657,-10.5 6.76753,-37.90202 18.46756,-62.60665 38.97401,-82.29366 14.83028,-14.23767 31.49647,-23.21627 51.59483,-27.79576 9.7997,-2.23289 12.48419,-2.39307 40.25,-2.40152 L 340,135 v 21.42874 21.42874 l -39.75,0.3715 -39.75,0.3715 -8.79938,2.70969 c -18.18937,5.60125 -31.79301,13.70495 -44.73925,26.6512 -12.90989,12.90988 -21.29141,26.95704 -26.40589,44.25542 -1.34697,4.55577 -2.47237,7.15821 -2.50089,5.78321 z"
       id="path4997"
       inkscape:connector-curvature="0" />
    <path
       style="fill:#75726f"
       d="M 183.02531,242.34678 C 182.96998,239.82561 190.44357,219.92884 194.98755,210.5 210.3504,178.62181 232.06754,158.60554 263,147.81423 l 9.5,-3.31423 33.75,-0.31047 33.75,-0.31046 v 16.9892 16.98921 l -39.75,0.3715 -39.75,0.3715 -8.79938,2.70969 c -18.19861,5.6041 -31.80769,13.71328 -44.72691,26.6512 -9.2349,9.24827 -14.3438,16.34686 -20.17958,28.03863 -2.05893,4.125 -3.7549,6.98105 -3.76882,6.34678 z"
       id="path4995"
       inkscape:connector-curvature="0" />
    <path
       style="fill:#625f5d"
       d="m 198.99817,214.93115 c 16.42567,-23.55809 33.48428,-39.08634 53.15031,-48.38211 C 269.39483,158.39701 271.99918,158 308.2299,158 H 340 v 9.92874 9.92874 l -39.75,0.3715 -39.75,0.3715 -8.79938,2.70969 c -18.63206,5.73758 -31.84308,13.71701 -45.64771,27.57116 -5.1959,5.21454 -8.37053,7.93696 -7.05474,6.04982 z"
       id="path4993"
       inkscape:connector-curvature="0" />
  </g>
</svg>
