<?xml version="1.0" encoding="UTF-8" standalone="no"?>
<!-- Created with Inkscape (http://www.inkscape.org/) -->

<svg
   xmlns:dc="http://purl.org/dc/elements/1.1/"
   xmlns:cc="http://creativecommons.org/ns#"
   xmlns:rdf="http://www.w3.org/1999/02/22-rdf-syntax-ns#"
   xmlns:svg="http://www.w3.org/2000/svg"
   xmlns="http://www.w3.org/2000/svg"
   xmlns:sodipodi="http://sodipodi.sourceforge.net/DTD/sodipodi-0.dtd"
   xmlns:inkscape="http://www.inkscape.org/namespaces/inkscape"
   version="1.1"
   id="svg2"
   width="599.00006"
   height="715.00067"
   viewBox="0 0 599.00006 715.00067"
   sodipodi:docname="tuberia_cruze_rojo_izq.svg"
   inkscape:version="0.92.5 (2060ec1f9f, 2020-04-08)">
  <metadata
     id="metadata8">
    <rdf:RDF>
      <cc:Work
         rdf:about="">
        <dc:format>image/svg+xml</dc:format>
        <dc:type
           rdf:resource="http://purl.org/dc/dcmitype/StillImage" />
        <dc:title></dc:title>
      </cc:Work>
    </rdf:RDF>
  </metadata>
  <defs
     id="defs6" />
  <sodipodi:namedview
     pagecolor="#ffffff"
     bordercolor="#666666"
     borderopacity="1"
     objecttolerance="10"
     gridtolerance="10"
     guidetolerance="10"
     inkscape:pageopacity="0"
     inkscape:pageshadow="2"
     inkscape:window-width="1920"
     inkscape:window-height="1017"
     id="namedview4"
     showgrid="false"
     inkscape:pagecheckerboard="true"
     fit-margin-top="0"
     fit-margin-left="0"
     fit-margin-right="0"
     fit-margin-bottom="0"
     inkscape:zoom="0.33006993"
     inkscape:cx="-521.53805"
     inkscape:cy="830.12724"
     inkscape:window-x="-8"
     inkscape:window-y="-8"
     inkscape:window-maximized="1"
     inkscape:current-layer="svg2" />
  <g
     id="g4749"
     transform="translate(8.6772132e-5,5.6492791e-4)">
    <path
       style="fill:#cda6a6"
       d="m 305.76163,714.75 c -0.13111,-0.1375 -0.46861,-47.05 -0.75,-104.25 L 304.5,506.5 152.5,505.99196 C 68.9,505.71254 0.3875,505.37504 0.25,505.24196 0.1125,505.10888 0,439.075 0,358.5 0,277.925 0.1125,211.89112 0.25,211.75804 c 0.1375,-0.13308 68.65,-0.47058 152.25,-0.75 l 152,-0.50804 0.51152,-105 C 305.29286,47.75 305.63036,0.3875 305.76152,0.25 305.89268,0.1125 371.925,0 452.5,0 H 599 V 357.5 715 H 452.5 c -80.575,0 -146.60727,-0.1125 -146.73837,-0.25 z"
       id="path4777"
       inkscape:connector-curvature="0" />
    <path
       style="fill:#c35858"
       d="M 305.75461,610.25 305.5,505.5 152.75,505.24681 0,504.99361 V 358.5 212.00639 L 152.75,211.75319 305.5,211.5 305.75457,105.75 306.00913,0 H 452.50457 599 V 357.5 715 H 452.50461 306.00921 Z"
       id="path4775"
       inkscape:connector-curvature="0" />
    <path
       style="fill:#925757"
       d="M 305.75461,610.25 305.5,505.5 152.75,505.24681 0,504.99361 -2.9046346e-5,358.74681 -5.8092692e-5,212.5 H 152.74997 305.5 L 305.75454,106.25 306.00909,0 H 452.50454 599 V 357.5 715 H 452.50461 306.00921 Z"
       id="path4773"
       inkscape:connector-curvature="0" />
    <path
       style="fill:#a90000"
       d="M 306.5,609.75006 V 504.5 H 153.24997 -5.7733306e-5 v -146 -146 H 153.24997 306.5 V 106.24994 -1.1486407e-4 L 452.75,-5.7432035e-5 599,0 V 357.5 715 l -146.25,6e-5 -146.25,6e-5 z"
       id="path4771"
       inkscape:connector-curvature="0" />
    <path
       style="fill:#a30000"
       d="M 306.5,609.75006 V 504.5 H 153.24997 -5.7733306e-5 L -2.8866653e-5,378.35699 C -2.7551481e-6,264.25357 0.15097209,252.15604 1.5817875,251.60699 2.4517706,251.27314 76.957413,251 167.14988,251 h 163.98631 l -2.3181,-3.03559 c -1.27495,-1.66957 -4.11809,-5.43166 -6.31809,-8.3602 -2.2,-2.92855 -6.8125,-9.00078 -10.25,-13.49385 -3.4375,-4.49308 -6.25,-8.55784 -6.25,-9.03281 0,-0.47496 -0.7118,-1.13672 -1.58179,-1.47056 -0.86998,-0.33385 -69.15748,-0.61388 -151.75,-0.6223 -90.863752,-0.009 -150.7491533,-0.38272 -151.6392497,-0.94563 -0.80907176,-0.51167 -1.08496462,-1.29228 -0.61309519,-1.73469 0.47186943,-0.4424 1.05883729,-0.24187 1.30437299,0.44563 0.6933033,1.94125 302.5590319,1.82335 304.1708719,-0.1188 0.83591,-1.0072 1.06638,-29.27388 0.87245,-107.00009 L 306.5,-1.7264411e-4 452.75,-8.6322053e-5 599,0 V 357.5 715 l -146.25,6e-5 -146.25,6e-5 z"
       id="path4769"
       inkscape:connector-curvature="0" />
    <path
       style="fill:#970000"
       d="M 306.5,609.75006 V 504.5 H 153.24997 -5.7733306e-5 L -2.8866653e-5,391.75 C -1.2989994e-5,329.7375 0.1125,278.89064 0.25,278.75698 c 0.1375,-0.13366 79.083722,-0.47116 175.43605,-0.75 L 350.8721,277.5 346.33656,270 c -2.49455,-4.125 -5.87355,-8.90524 -7.50889,-10.62277 -1.63535,-1.71752 -4.40308,-5.16915 -6.15052,-7.6703 -3.49811,-5.00694 -10.30821,-13.94584 -15.83763,-20.78838 -7.72175,-9.55551 -12.10323,-16.89587 -10.92942,-18.31023 0.81085,-0.97701 1.04478,-30.29887 0.85346,-106.97721 L 306.5,-1.7264411e-4 452.75,-8.6322053e-5 599,0 V 357.5 715 l -146.25,6e-5 -146.25,6e-5 z"
       id="path4767"
       inkscape:connector-curvature="0" />
    <path
       style="fill:#820000"
       d="M 306.5,609.75006 V 504.5 H 153.24997 -5.7733306e-5 l 2.8866653e-5,-93.64301 C -2.8284156e-6,326.38932 0.15498688,317.1545 1.5817875,316.60699 2.4517706,316.27314 87.051771,316 189.58179,316 292.1118,316 376,315.75904 376,315.46454 c 0,-2.0476 -9.98892,-20.42664 -14.7251,-27.09336 -3.1762,-4.47085 -8.2499,-11.64777 -11.2749,-15.94871 -3.025,-4.30094 -7.11182,-9.64297 -9.08181,-11.87118 -1.97,-2.22821 -5.09052,-6.30129 -6.9345,-9.05129 -1.84397,-2.75 -5.07143,-7.025 -7.17214,-9.5 -4.86151,-5.72772 -9.48394,-11.78834 -15.26251,-20.01118 L 306.97333,215.47763 306.73666,107.73881 306.5,-3.1834271e-6 452.75,-1.5917136e-6 599,0 V 357.5 715 l -146.25,6e-5 -146.25,6e-5 z"
       id="path4765"
       inkscape:connector-curvature="0" />
    <path
       style="fill:#7d0000"
       d="M 306.5,609.75006 V 504.5 H 153.24997 -5.7733306e-5 l 2.8866653e-5,-78.82143 C -4.3372017e-6,358.70003 0.21464222,346.6425 1.4285714,345.42857 2.6567761,344.20037 29.868242,344 195.44039,344 h 192.58325 l -0.64462,-4.25 c -1.20903,-7.97119 -5.31485,-19.28165 -9.3552,-25.77108 -2.21858,-3.56341 -5.39503,-9.0803 -7.05877,-12.25976 -1.66374,-3.17946 -5.82399,-9.62677 -9.24501,-14.32734 -3.42102,-4.70057 -8.83266,-12.2242 -12.02585,-16.71916 -3.1932,-4.49496 -7.16348,-9.5779 -8.82285,-11.29543 -1.65937,-1.71752 -4.44675,-5.17749 -6.19419,-7.68882 -1.74743,-2.51133 -5.10541,-6.95609 -7.46218,-9.87723 -8.4,-10.41157 -12.96653,-16.38628 -16.56519,-21.67339 L 307,214.77558 v -105.806 C 307,50.776275 306.72686,2.4517706 306.39301,1.5817875 305.84248,0.14712428 313.61558,0 389.96444,0 c 71.62129,0 84.39152,0.21310387 85.60699,1.4285714 2.15665,2.1566557 2.15665,709.9861986 0,712.1428586 -1.21537,1.21537 -13.93815,1.42858 -85.25,1.42863 l -83.82143,6e-5 z M 559.25,713.50417 C 558.25502,712.37406 558,639.73782 558,357.47078 558,51.472294 558.19585,2.6612953 559.42857,1.4285714 560.56679,0.29035135 564.73333,0 579.92857,0 H 599 V 357.5 715 l -19.25,-0.038 c -15.33811,-0.0303 -19.50402,-0.32655 -20.5,-1.45779 z"
       id="path4763"
       inkscape:connector-curvature="0" />
    <path
       style="fill:#790000"
       d="M 306.5,609.75006 V 504.5 H 153.24997 -5.7733306e-5 l 2.8866653e-5,-70.32143 C -4.4202279e-6,374.62516 0.21836201,363.63878 1.4260306,362.43111 2.6491461,361.208 30.360845,360.96915 196.17603,360.75254 L 389.5,360.5 389.22522,349.72147 c -0.23849,-9.35546 -0.73234,-12.05875 -3.74047,-20.47513 -1.90614,-5.33314 -4.89794,-11.9578 -6.64845,-14.72147 -1.75051,-2.76368 -5.03926,-8.39987 -7.30833,-12.52487 -2.26907,-4.125 -7.02862,-11.4723 -10.57678,-16.32734 -3.54815,-4.85504 -9.01267,-12.42649 -12.14337,-16.82545 -3.13071,-4.39895 -7.48004,-9.93769 -9.66519,-12.3083 -2.18515,-2.3706 -4.64009,-5.60022 -5.45543,-7.17691 -0.81534,-1.5767 -2.4925,-3.76566 -3.72701,-4.86436 C 328.72568,243.39894 323.16711,236.425 317.60781,229 L 307.5,215.5 307.25,161.75 c -0.1375,-29.5625 -0.3625,-78.050127 -0.5,-107.750282 l -0.25,-54.00028292791 70.82143,2.8246396e-4 c 60.04497,2.39483155e-4 71.0388,0.21765935395 72.25,1.42885386395 2.15665,2.1566557 2.15665,709.9861986 0,712.1428586 -1.2112,1.2112 -12.20482,1.42858 -72.25,1.42863 l -70.82143,6e-5 z m 269.10699,103.66815 c -0.79364,-2.06818 -0.79364,-709.7682362 0,-711.8364225 C 576.11134,0.26748131 578.14054,0 587.60699,0 H 599 V 357.5 715 h -11.39301 c -9.46645,0 -11.49565,-0.26748 -12,-1.58179 z"
       id="path4761"
       inkscape:connector-curvature="0" />
    <path
       style="fill:#730000"
       d="M 306.5,609.75006 V 504.5 H 153.24997 -5.7733306e-5 l 2.8866653e-5,-60.14301 C -2.9868141e-6,390.43694 0.16366653,384.15117 1.5817875,383.60699 2.4517706,383.27314 89.007026,383 193.9268,383 c 183.40158,0 190.82697,-0.0704 192.41496,-1.82515 0.90846,-1.00384 2.56888,-6.21706 3.68983,-11.58495 1.83421,-8.78346 1.92459,-10.82668 0.90347,-20.42485 -1.37756,-12.94847 -6.05741,-26.64765 -12.3775,-36.23227 -2.38173,-3.61197 -5.34484,-8.56197 -6.58469,-11 -1.23986,-2.43803 -5.45347,-8.85634 -9.36358,-14.26292 -3.91011,-5.40658 -9.67077,-13.42803 -12.80147,-17.82545 -3.13071,-4.39742 -7.48004,-9.93489 -9.66519,-12.3055 -2.18515,-2.3706 -4.64009,-5.60022 -5.45543,-7.17691 -0.81534,-1.5767 -2.49505,-3.76566 -3.73269,-4.86436 -2.61464,-2.32113 -11.17899,-13.39477 -18.70451,-24.1848 L 307,213.78543 V 108.4745 C 307,50.553491 306.72686,2.4517706 306.39301,1.5817875 305.84373,0.15038564 311.41231,0 364.96444,0 c 49.95463,0 59.40108,0.22266296 60.60699,1.4285714 2.15665,2.1566557 2.15665,709.9861986 0,712.1428586 -1.20571,1.20571 -10.60482,1.42858 -60.25,1.42863 l -58.82143,6e-5 z m 280.10699,103.66815 c -0.79364,-2.06818 -0.79364,-709.7682362 0,-711.8364225 C 587.06547,0.38701684 588.65582,0 593.10699,0 H 599 V 357.5 715 h -5.89301 c -4.45117,0 -6.04152,-0.38702 -6.5,-1.58179 z"
       id="path4759"
       inkscape:connector-curvature="0" />
    <path
       style="fill:#6b0000"
       d="m 306,714 c 0,-0.55 0.45,-1 1,-1 0.66022,0 1,-35.12585 1,-103.37756 0,-86.08756 -0.22812,-103.56687 -1.36393,-104.50951 -1.00519,-0.83423 -41.51056,-1.06371 -154.00004,-0.87245 L -8.6772132e-5,504.5 -4.3386066e-5,456.35699 C -4.6550119e-6,413.37938 0.16971439,408.14885 1.5817875,407.60699 2.4517706,407.27314 87.501771,407 190.58179,407 H 378 v 152.57143 c 0,130.89524 -0.20296,152.77439 -1.42857,154 -1.183,1.183 -7.37143,1.42857 -36,1.42857 C 318.19048,715 306,714.64738 306,714 Z M 595,357.5 C 595,0.66666667 595.00373,0 597,0 c 1.99627,0 2,0.66666667 2,357.5 0,356.83333 -0.004,357.5 -2,357.5 -1.99627,0 -2,-0.66667 -2,-357.5 z M 376.34222,306.5213 c -0.63678,-0.6817 -2.0528,-2.99036 -3.14672,-5.13037 -1.09392,-2.14001 -5.52292,-8.55053 -9.84222,-14.2456 -4.31931,-5.69507 -10.42566,-13.95724 -13.56967,-18.36037 -3.14402,-4.40313 -7.75652,-10.18675 -10.25,-12.85249 C 337.04012,253.26674 335,250.66772 335,250.15689 c 0,-0.51084 -1.51306,-2.44262 -3.36236,-4.29284 -3.88039,-3.88234 -11.97022,-14.3024 -18.85967,-24.29211 L 308,214.64388 V 108.32194 C 308,38.107313 307.6604,2 307,2 c -0.55,0 -1,-0.45 -1,-1 0,-0.64738292 12.19048,-1 34.57143,-1 28.66461,0 34.81606,0.24462972 36.0032,1.4317702 1.23207,1.2320695 1.39645,22.6950288 1.17857,153.8803698 -0.1919,115.53986 -0.53351,152.14852 -1.41098,151.20916 z"
       id="path4757"
       inkscape:connector-curvature="0" />
    <path
       style="fill:#630000"
       d="m 306,714 c 0,-0.55 0.45208,-1 1.00463,-1 0.66804,0 0.91932,-34.9275 0.75,-104.25 L 307.5,504.5 H 153.74997 -5.7377241e-5 l 2.868862e-5,-36.64301 C -3.2506024e-6,435.36586 0.17922653,431.1452 1.5817875,430.60699 2.4517706,430.27314 83.226771,430 181.08179,430 327.01474,430 359,430.23529 359,431.30883 c 0,0.71985 -1.62171,3.98235 -3.60379,7.25 -1.98209,3.26764 -5.13209,8.91862 -7,12.55773 L 345,457.73312 v 127.20487 c 0,108.91088 -0.20545,127.41032 -1.42857,128.63344 C 342.43874,714.70412 338.4,715 324.07143,715 312.69048,715 306,714.62978 306,714 Z m 35.90792,-457.04851 c -1.42564,-1.03852 -3.90064,-3.81496 -5.5,-6.16986 -1.59936,-2.3549 -3.66395,-4.84761 -4.588,-5.53936 C 329.45977,243.47543 310.6631,218.09364 309.2038,214.70295 308.29081,212.5816 308,186.55152 308,106.95295 308,37.650982 307.66031,2 307,2 c -0.55,0 -1,-0.45 -1,-1 0,-0.62977602 6.69048,-1 18.07143,-1 14.3509,0 18.36632,0.29489349 19.50379,1.4323647 1.2309,1.2308992 1.39667,19.4341073 1.17857,129.4198653 L 344.5,258.83972 Z"
       id="path4755"
       inkscape:connector-curvature="0" />
    <path
       style="fill:#580000"
       d="m 0,480.10699 c 0,-21.77668 0.1980224,-24.969 1.5817875,-25.5 C 3.8419501,453.73968 341,453.85225 341,454.72031 c 0,1.26655 -10.25614,17.65737 -13.18056,21.06449 -1.55069,1.80663 -2.81944,3.67788 -2.81944,4.15833 0,0.48044 -2.12158,3.478 -4.71463,6.66124 -2.59305,3.18324 -6.53055,8.18686 -8.75,11.11916 L 307.5,503.05499 154.75,503.01506 C 52.306415,502.98828 2,503.30857 2,503.98757 2,504.5444 1.55,505 1,505 0.36011461,505 0,496.03566 0,480.10699 Z"
       id="path4753"
       inkscape:connector-curvature="0" />
    <path
       style="fill:#4c0000"
       d="M 0,489.5 V 474 h 162.5 c 89.375,0 162.5,0.15586 162.5,0.34636 0,1.21523 -3.79708,7.78734 -6.44408,11.15364 -1.72991,2.2 -5.28542,7.0375 -7.90113,10.75 L 305.89895,503 H 153.94947 C 53.316491,503 2,503.33772 2,504 c 0,0.55 -0.45,1 -1,1 -0.62365591,0 -1,-5.83333 -1,-15.5 z"
       id="path4751"
       inkscape:connector-curvature="0" />
  </g>
</svg>
