<?xml version="1.0" encoding="UTF-8" standalone="no"?>
<!-- Created with Inkscape (http://www.inkscape.org/) -->

<svg
   xmlns:dc="http://purl.org/dc/elements/1.1/"
   xmlns:cc="http://creativecommons.org/ns#"
   xmlns:rdf="http://www.w3.org/1999/02/22-rdf-syntax-ns#"
   xmlns:svg="http://www.w3.org/2000/svg"
   xmlns="http://www.w3.org/2000/svg"
   xmlns:sodipodi="http://sodipodi.sourceforge.net/DTD/sodipodi-0.dtd"
   xmlns:inkscape="http://www.inkscape.org/namespaces/inkscape"
   version="1.1"
   id="svg2"
   width="709.00037"
   height="595.07648"
   viewBox="0 0 709.00037 595.07648"
   sodipodi:docname="tuberia_cruze_verde_abajo.svg"
   inkscape:version="0.92.5 (2060ec1f9f, 2020-04-08)">
  <metadata
     id="metadata8">
    <rdf:RDF>
      <cc:Work
         rdf:about="">
        <dc:format>image/svg+xml</dc:format>
        <dc:type
           rdf:resource="http://purl.org/dc/dcmitype/StillImage" />
        <dc:title></dc:title>
      </cc:Work>
    </rdf:RDF>
  </metadata>
  <defs
     id="defs6" />
  <sodipodi:namedview
     pagecolor="#ffffff"
     bordercolor="#666666"
     borderopacity="1"
     objecttolerance="10"
     gridtolerance="10"
     guidetolerance="10"
     inkscape:pageopacity="0"
     inkscape:pageshadow="2"
     inkscape:window-width="1920"
     inkscape:window-height="1017"
     id="namedview4"
     showgrid="false"
     inkscape:pagecheckerboard="true"
     fit-margin-top="0"
     fit-margin-left="0"
     fit-margin-right="0"
     fit-margin-bottom="0"
     inkscape:zoom="0.39663866"
     inkscape:cx="-394.2922"
     inkscape:cy="648.02139"
     inkscape:window-x="-8"
     inkscape:window-y="-8"
     inkscape:window-maximized="1"
     inkscape:current-layer="svg2" />
  <g
     id="g4749"
     transform="translate(1.7415998e-4)">
    <path
       style="fill:#a6c9a6"
       d="m 210.75809,594.75 c -0.13305,-0.1375 -0.47055,-68.2 -0.75,-151.25 L 209.5,292.5 105,291.98843 C 47.525,291.70706 0.3875,291.36956 0.25,291.23843 0.1125,291.10729 0,225.525 0,145.5 V 0 H 354.5 709 v 145.5 c 0,80.025 -0.1125,145.60722 -0.25,145.73826 -0.1375,0.13105 -46.6,0.46855 -103.25,0.75 l -103,0.51174 -0.50809,151 c -0.27945,83.05 -0.61695,151.1125 -0.75,151.25 C 501.10886,594.8875 435.75,595 356,595 c -79.75,0 -145.10886,-0.1125 -145.24191,-0.25 z"
       id="path4787"
       inkscape:connector-curvature="0" />
    <path
       style="fill:#58a358"
       d="M 210.75322,443.25 210.5,291.5 105.25,291.24541 0,290.99083 V 145.49541 0 H 354.5 709 V 145.49535 290.9907 L 605.25,291.24535 501.5,291.5 501.24678,443.25 500.99357,595 H 356 211.00643 Z"
       id="path4785"
       inkscape:connector-curvature="0" />
    <path
       style="fill:#578f57"
       d="M 211.5,443.25003 V 291.5 L 105.75,291.24543 0,290.99087 V 145.49543 0 H 354.5 709 V 145.49537 290.99074 L 604.75,291.24537 500.5,291.5 V 443.25003 595.00006 H 356 211.5 Z"
       id="path4783"
       inkscape:connector-curvature="0" />
    <path
       style="fill:#00bb00"
       d="M 211.5,442.75003 V 290.5 H 105.74994 -1.1587305e-4 L -5.7936527e-5,145.25 0,0 H 354.5 709 l 6e-5,145.25 6e-5,145.25 H 604.75006 500.5 V 442.75003 595.00006 H 356 211.5 Z"
       id="path4781"
       inkscape:connector-curvature="0" />
    <path
       style="fill:#00b300"
       d="M 211.5,442.75003 V 290.5 H 105.74994 -1.1587305e-4 L -5.7936527e-5,167.35699 C -5.5400227e-6,55.989193 0.15125412,44.155936 1.5817875,43.606989 c 2.0681835,-0.793637 703.7682425,-0.793637 705.8364225,0 1.43054,0.548947 1.5818,12.382205 1.58185,123.750001 l 6e-5,123.14301 H 604.75006 500.5 V 442.75003 595.00006 H 356 211.5 Z M 177.33125,0.25001371 c 97.80719,-0.14054173 257.55719,-0.14053826 355,7.71e-6 C 629.77406,0.3905674 549.75,0.50555609 354.5,0.50555185 159.25,0.50554761 79.524062,0.39055545 177.33125,0.25001371 Z"
       id="path4779"
       inkscape:connector-curvature="0" />
    <path
       style="fill:#00ab00"
       d="M 211.5,442.75003 V 290.5 H 105.74994 -1.1587305e-4 L -5.7936527e-5,177.85699 C -5.5804807e-6,76.06382 0.15235871,65.155512 1.5817875,64.606989 c 2.0681835,-0.793637 703.7682425,-0.793637 705.8364225,0 1.42943,0.548523 1.5818,11.456832 1.58185,113.250001 l 6e-5,112.64301 H 604.75006 500.5 V 442.75003 595.00006 H 356 211.5 Z"
       id="path4777"
       inkscape:connector-curvature="0" />
    <path
       style="fill:#00a300"
       d="M 211.5,442.75003 V 290.5 H 105.74994 -1.1587305e-4 L -5.7936527e-5,186.35699 C -5.619208e-6,92.314708 0.15341604,82.155106 1.5817875,81.606989 c 2.0681835,-0.793637 703.7682425,-0.793637 705.8364225,0 1.42837,0.548117 1.5818,10.70772 1.58185,104.750001 l 6e-5,104.14301 H 604.75006 500.5 V 442.75003 595.00006 H 356 211.5 Z"
       id="path4775"
       inkscape:connector-curvature="0" />
    <path
       style="fill:#009b00"
       d="M 211.5,442.75003 V 290.5 H 105.74994 -1.1587305e-4 l 5.7936523e-5,-96.64301 C -5.6590362e-6,106.65373 0.15450344,97.154689 1.5817875,96.606989 c 2.0681835,-0.793637 703.7682425,-0.793637 705.8364225,0 1.42729,0.5477 1.5818,10.046741 1.58185,97.250001 l 6e-5,96.64301 H 604.75006 500.5 V 442.75003 595.00006 H 356 211.5 Z"
       id="path4773"
       inkscape:connector-curvature="0" />
    <path
       style="fill:#009100"
       d="M 211.5,442.75003 V 290.5 H 105.74994 -1.1587305e-4 l 5.7936523e-5,-88.14301 C -5.7123686e-6,122.90462 0.15595952,114.15413 1.5817875,113.60699 c 2.0681835,-0.79364 703.7682425,-0.79364 705.8364225,0 1.42583,0.54714 1.5818,9.29763 1.58185,88.75 l 6e-5,88.14301 H 604.75006 500.5 V 442.75003 595.00006 H 356 211.5 Z"
       id="path4771"
       inkscape:connector-curvature="0" />
    <path
       style="fill:#008d00"
       d="M 211.5,442.75003 V 290.5 H 105.74994 -1.1587305e-4 l 5.7936523e-5,-81.14301 C -5.7646792e-6,136.2877 0.15738771,128.15358 1.5817875,127.60699 c 2.0681835,-0.79364 703.7682425,-0.79364 705.8364225,0 1.4244,0.54659 1.5818,8.68071 1.58185,81.75 l 6e-5,81.14301 H 604.75006 500.5 v 152.25003 152.25003 l -23.32143,-3e-5 c -18.87854,-2e-5 -23.59358,-0.27218 -24.75,-1.4286 -1.22657,-1.22658 -1.43159,-25.1582 -1.44992,-169.25 L 450.9573,256.5 l -4.22865,-2.98489 c -4.39575,-3.10284 -5.91717,-4.27787 -11.12139,-8.58934 -6.44348,-5.33813 -20.34289,-14.66799 -26.53986,-17.81465 -3.53794,-1.79647 -8.37544,-4.60301 -10.75,-6.23676 L 394,217.90392 v 187.11947 c 0,160.83687 -0.20066,187.32012 -1.42857,188.54804 -1.21689,1.21689 -14.73812,1.42857 -91.25,1.4286 l -89.82143,3e-5 z"
       id="path4769"
       inkscape:connector-curvature="0" />
    <path
       style="fill:#008900"
       d="M 211.5,442.75003 V 290.5 H 105.74994 -1.1587305e-4 l 5.7936523e-5,-75.32143 C -8.7504999e-6,151.23339 0.21576568,139.64138 1.4285714,138.42857 c 2.1566245,-2.15662 703.9862286,-2.15662 706.1428586,0 1.2128,1.21281 1.42858,12.80482 1.42863,76.75 l 6e-5,75.32143 H 604.75006 500.5 v 152.25003 152.25003 l -13.82143,-3e-5 c -10.64521,-2e-5 -14.14972,-0.32832 -15.25,-1.4286 C 470.20241,592.34527 470,569.52864 470,432.53625 c 0,-141.90268 -0.1705,-159.86684 -1.53715,-161.9526 -0.84543,-1.29029 -4.22043,-4.2282 -7.5,-6.52869 C 457.68328,261.75448 455,259.47139 455,258.98144 c 0,-1.31708 -40.29926,-30.62532 -43.5,-31.63603 -1.1,-0.34735 -5.15,-2.73452 -9,-5.30482 -7.7658,-5.18452 -24.4149,-11.66003 -31.75,-12.34885 L 366,209.24567 v 191.4486 c 0,164.58877 -0.20043,191.64901 -1.42857,192.87716 -1.21297,1.21297 -12.87146,1.42857 -77.25,1.4286 l -75.82143,3e-5 z"
       id="path4767"
       inkscape:connector-curvature="0" />
    <path
       style="fill:#008500"
       d="M 211.5,442.75003 V 290.5 H 105.74994 -1.1587305e-4 l 5.7936523e-5,-66.32143 C -8.8896809e-6,168.03339 0.21919754,157.63795 1.4285714,156.42857 c 2.1566245,-2.15662 703.9862286,-2.15662 706.1428586,0 1.20937,1.20938 1.42858,11.60482 1.42863,67.75 l 6e-5,66.32143 H 604.75006 500.5 v 152.25003 152.25003 l -8.64301,-3e-5 c -6.95879,-2e-5 -8.76129,-0.30827 -9.25,-1.58182 C 482.27314,592.54823 482,521.95872 482,436.55264 V 281.26886 l -8.82402,-7.88443 c -4.85321,-4.33644 -10.81571,-9.34073 -13.25,-11.12065 -2.43429,-1.77993 -6.70566,-5.15493 -9.49195,-7.5 -2.78628,-2.34508 -7.06128,-5.73142 -9.5,-7.52521 -2.43871,-1.79379 -8.70903,-6.41986 -13.93403,-10.28016 -5.225,-3.86031 -11.75,-8.19246 -14.5,-9.62701 -2.75,-1.43455 -7.55844,-4.34301 -10.68542,-6.46324 -13.55673,-9.19208 -37.49983,-15.27018 -50.14729,-12.73021 L 346,209.2761 v 191.43338 c 0,164.57559 -0.20043,191.6338 -1.42857,192.86195 -1.20916,1.20915 -11.53812,1.42857 -67.25,1.4286 l -65.82143,3e-5 z"
       id="path4765"
       inkscape:connector-curvature="0" />
    <path
       style="fill:#008100"
       d="M 211.5,442.75003 V 290.5 H 105.74994 -1.1587305e-4 l 5.7936523e-5,-59.32143 C -9.0271301e-6,181.10006 0.2225867,171.63456 1.4285714,170.42857 c 2.1566245,-2.15662 703.9862286,-2.15662 706.1428586,0 1.20598,1.20599 1.42858,10.67152 1.42866,60.75 l 9e-5,59.32143 -103.75009,-0.26502 C 508.43022,289.98767 501.4165,290.08393 500.25,291.67611 498.63981,293.87389 498.39164,593 500,593 c 0.55,0 1,0.45 1,1 0,0.55 -2.42686,1 -5.39301,1 -3.99523,0 -5.55033,-0.40997 -6,-1.58179 C 489.27314,592.54823 489,523.11456 489,439.12116 V 286.4059 l -3.75,-3.55247 c -3.5309,-3.34491 -14.04234,-12.00915 -21.91973,-18.06772 -1.94102,-1.49286 -5.39689,-4.42717 -7.6797,-6.52069 -2.28281,-2.09352 -7.75057,-6.4018 -12.15057,-9.57395 -4.4,-3.17216 -12.275,-8.93132 -17.5,-12.79814 -5.225,-3.86682 -11.3,-7.96295 -13.5,-9.10251 -2.2,-1.13956 -6.58937,-3.82663 -9.75415,-5.97126 -9.04192,-6.12729 -23.73832,-11.7456 -34.74585,-13.28304 -7.97365,-1.11369 -11.02635,-1.10521 -19,0.0528 -12.48611,1.81332 -13.53839,2.09487 -17.55744,4.69768 l -3.4178,2.21342 -0.0124,188.82143 c -0.0106,162.30026 -0.21303,189.02208 -1.44095,190.25 -1.20457,1.20457 -10.33812,1.42857 -58.25,1.4286 l -56.82143,3e-5 V 442.75005 Z"
       id="path4763"
       inkscape:connector-curvature="0" />
    <path
       style="fill:#007b00"
       d="M 211.5,442.75003 V 290.5 H 105.74994 -1.1587305e-4 l 5.7936523e-5,-51.64301 C -6.1409408e-6,192.68784 0.16766044,187.14964 1.5817875,186.60699 c 2.0681835,-0.79364 703.7682425,-0.79364 705.8364225,0 1.41413,0.54265 1.5818,6.08087 1.58188,52.25 l 9e-5,51.64301 -103.63099,-0.26381 c -76.24669,-0.1941 -103.99277,0.0365 -105.00009,0.87245 C 499.22141,292.06114 499,316.56344 499,442.62244 499,542.20748 499.33777,593 500,593 c 0.55,0 1,0.45 1,1 0,0.84716 -4.52173,1.49411 -5.24199,0.75 -0.13309,-0.1375 -0.47059,-68.85335 -0.75,-152.70189 L 494.5,289.59623 482,279.23852 c -6.875,-5.69674 -14.975,-12.21555 -18,-14.48626 -3.025,-2.2707 -7.3,-5.79852 -9.5,-7.8396 -2.2,-2.04108 -6.74665,-5.66891 -10.10366,-8.06186 -3.35701,-2.39294 -9.8187,-7.16009 -14.35932,-10.59367 -4.54062,-3.43358 -10.25311,-7.48358 -12.69443,-9 -2.44133,-1.51642 -7.90463,-4.9775 -12.14068,-7.69128 -26.32465,-16.86461 -54.94402,-20.03551 -79.20191,-8.7752 -5.225,2.4254 -12.875,6.99657 -17,10.15816 -4.125,3.16159 -8.5125,6.28232 -9.75,6.93495 l -2.25,1.18661 v 180.53624 c 0,155.13141 -0.20103,180.73727 -1.42857,181.96482 -1.192,1.192 -8.27146,1.42857 -42.75,1.4286 l -41.32143,3e-5 z"
       id="path4761"
       inkscape:connector-curvature="0" />
    <path
       style="fill:#007300"
       d="m 211,594 c 0,-0.55 0.45,-1 1,-1 0.66223,0 1,-50.79252 1,-150.37756 0,-126.04689 -0.22148,-150.56136 -1.36888,-151.51362 -1.00722,-0.83592 -29.14375,-1.06641 -106.50008,-0.87244 L -1.7415998e-4,290.5 -8.7079991e-5,248.35699 C -9.5806747e-6,210.85062 0.17403069,206.1472 1.5817875,205.60699 2.4517706,205.27314 79.514271,205.05632 172.83179,205.12517 266.1493,205.19401 340.7,205.5811 338.5,205.98538 c -5.46374,1.00401 -23.01536,9.48821 -27.96181,13.51632 -2.22101,1.80866 -6.51319,4.7339 -9.53819,6.50053 -6.5173,3.80616 -17.87166,11.97298 -23.56165,16.94711 -2.2339,1.95287 -6.3964,5.50327 -9.25,7.88979 L 263,255.17825 v 168.4823 c 0,144.68467 -0.20178,168.68409 -1.42857,169.91088 -1.16058,1.16057 -6.0381,1.42857 -26,1.42857 C 219.85714,595 211,594.63953 211,594 Z M 486,281.87287 c -6.875,-5.4183 -13.85,-11.12968 -15.5,-12.69197 -1.65,-1.56229 -5.025,-4.21473 -7.5,-5.89432 -2.475,-1.67958 -5.4,-4.05538 -6.5,-5.27955 -1.1,-1.22416 -5.825,-4.97201 -10.5,-8.32854 -4.675,-3.35654 -11.02855,-8.14482 -14.11899,-10.64064 -8.27743,-6.68478 -15.94755,-12.12133 -18.8359,-13.35081 -1.39981,-0.59585 -5.47011,-3.15217 -9.04511,-5.68071 -3.575,-2.52854 -8.975,-5.64937 -12,-6.9352 -3.025,-1.28582 -7.75,-3.37743 -10.5,-4.64802 -2.75,-1.27059 -6.125,-2.4993 -7.5,-2.73046 -1.375,-0.23116 72.7257,-0.48157 164.66821,-0.55647 91.94252,-0.0749 167.88002,0.13696 168.75,0.47081 1.40776,0.54021 1.5818,5.24363 1.58188,42.75 l 9e-5,42.14301 -103.5401,-0.26377 c -57.88068,-0.14746 -104.29417,0.1225 -105.25009,0.61215 -1.32905,0.6808 -4.49467,-1.31872 -14.20999,-8.97551 z"
       id="path4759"
       inkscape:connector-curvature="0" />
    <path
       style="fill:#006c00"
       d="M 212.7532,442.75 212.5,290.5 H 106.24994 -1.1486407e-4 L -5.7432035e-5,257.76905 0,225.0381 2.25,224.4952 c 1.2375,-0.29859 68.590303,-0.41967 149.6729,-0.26905 L 299.34579,224.5 295.77695,227 c -3.26582,2.28772 -8.8328,6.63388 -26.25842,20.5 -12.71665,10.11905 -26.06621,21.84583 -27.76194,24.38718 -1.63951,2.4571 -1.7438,12.06909 -1.75,161.28103 -0.004,87.26752 -0.27973,159.38002 -0.61358,160.25 C 238.88296,594.74739 236.72754,595 225.89622,595 h -12.88981 z m 389.82967,-152.49997 -104.91713,-0.25929 -7.08287,-5.43687 c -9.58606,-7.35834 -19.90768,-15.57729 -26.7581,-21.30705 C 453.67973,254.7614 448.44421,250.58453 441.91482,245.76717 434.53862,240.32505 424.273,232.22958 418.57,227.35744 L 414.64,224 h 145.59821 c 80.07902,0 146.31002,0.27314 147.18,0.60699 1.39802,0.53647 1.58179,4.42837 1.58179,33.5 0,18.09115 -0.3375,32.78261 -0.75,32.64767 -0.4125,-0.13494 -47.96271,-0.36202 -105.66713,-0.50463 z"
       id="path4757"
       inkscape:connector-curvature="0" />
    <path
       style="fill:#006300"
       d="M -2.9176409e-5,265.85699 C -3.6635552e-6,244.30829 0.1986182,241.13776 1.5817875,240.60699 4.1105529,239.63661 274,239.8998 274,240.87264 c 0,0.94571 -4.39822,4.98511 -16.47116,15.12736 -4.25553,3.575 -10.82261,9.3125 -14.59351,12.75 -3.77089,3.4375 -7.21148,6.2539 -7.64575,6.25867 -0.43427,0.005 -2.36458,1.49331 -4.28958,3.30786 -1.925,1.81455 -6.29091,5.18775 -9.70201,7.496 l -6.20202,4.19682 -107.54801,0.24532 L -5.8352818e-5,290.5 Z M 602.91422,290.00916 498.32845,289.5 l -3.91423,-2.73609 c -2.15282,-1.50485 -8.78855,-6.67985 -14.74606,-11.5 -5.95752,-4.82015 -13.15752,-10.46671 -16,-12.54792 -2.84249,-2.08121 -6.40301,-5.09146 -7.91227,-6.68946 -1.50926,-1.598 -6.12176,-5.44755 -10.25,-8.55455 C 441.37765,244.36497 438,241.41273 438,240.91144 c 0,-1.00908 266.79632,-1.31056 269.41821,-0.30445 1.38377,0.531 1.58179,3.72332 1.58179,25.5 0,13.69115 -0.3375,24.78463 -0.75,24.65217 -0.4125,-0.13246 -47.8136,-0.46996 -105.33578,-0.75 z"
       id="path4755"
       inkscape:connector-curvature="0" />
    <path
       style="fill:#005b00"
       d="M 0,272.5 V 254 l 128.75,0.025 128.75,0.025 -4.11521,3.72499 c -16.84984,15.25211 -26.41645,23.11173 -34.24892,28.13781 l -4.89405,3.1405 -106.12091,-0.0397 C 37.104889,288.98708 2,289.30907 2,289.98698 2,290.54414 1.55,291 1,291 0.36936937,291 0,284.16667 0,272.5 Z M 707,290 c 0,-0.66028 -35.4551,-1 -104.36531,-1 H 498.26938 l -9.06778,-6.75 c -8.7439,-6.5089 -21.09113,-16.71423 -29.61185,-24.475 L 455.5,254.05001 582.25,254.025 709,254 v 18.5 c 0,11.66667 -0.36937,18.5 -1,18.5 -0.55,0 -1,-0.45 -1,-1 z"
       id="path4753"
       inkscape:connector-curvature="0" />
    <path
       style="fill:#005500"
       d="m 0,278.60699 c 0,-10.37832 0.25714668,-12.49169 1.5817875,-13 C 2.4517706,265.27314 56.724916,265 122.18878,265 c 108.12457,0 118.96961,0.14486 118.41821,1.58179 -0.33385,0.86998 -0.60699,1.74473 -0.60699,1.94389 0,0.52038 -14.054,11.22045 -21.30981,16.22432 L 212.52752,289 H 107.26376 C 37.754587,289 2,289.33967 2,290 c 0,0.55 -0.45,1 -1,1 -0.61287291,0 -1,-4.79767 -1,-12.39301 z M 707,290 c 0,-0.66022 -35.12926,-1 -103.38779,-1 H 500.22442 l -5.36221,-3.65264 C 484.41364,278.22999 471,267.26135 471,265.8347 c 0,-0.94345 233.96578,-1.1688 236.41821,-0.22771 1.32464,0.50831 1.58179,2.62168 1.58179,13 0,7.59534 -0.38713,12.39301 -1,12.39301 -0.55,0 -1,-0.45 -1,-1 z"
       id="path4751"
       inkscape:connector-curvature="0" />
  </g>
</svg>
