<?xml version="1.0" encoding="UTF-8" standalone="no"?>
<!-- Created with Inkscape (http://www.inkscape.org/) -->

<svg
   xmlns:dc="http://purl.org/dc/elements/1.1/"
   xmlns:cc="http://creativecommons.org/ns#"
   xmlns:rdf="http://www.w3.org/1999/02/22-rdf-syntax-ns#"
   xmlns:svg="http://www.w3.org/2000/svg"
   xmlns="http://www.w3.org/2000/svg"
   xmlns:sodipodi="http://sodipodi.sourceforge.net/DTD/sodipodi-0.dtd"
   xmlns:inkscape="http://www.inkscape.org/namespaces/inkscape"
   version="1.1"
   id="svg2"
   width="469.00012"
   height="521.00049"
   viewBox="0 0 469.00012 521.00049"
   sodipodi:docname="tuberia_cruze_rojo.svg"
   inkscape:version="0.92.5 (2060ec1f9f, 2020-04-08)">
  <metadata
     id="metadata8">
    <rdf:RDF>
      <cc:Work
         rdf:about="">
        <dc:format>image/svg+xml</dc:format>
        <dc:type
           rdf:resource="http://purl.org/dc/dcmitype/StillImage" />
        <dc:title></dc:title>
      </cc:Work>
    </rdf:RDF>
  </metadata>
  <defs
     id="defs6" />
  <sodipodi:namedview
     pagecolor="#ffffff"
     bordercolor="#666666"
     borderopacity="1"
     objecttolerance="10"
     gridtolerance="10"
     guidetolerance="10"
     inkscape:pageopacity="0"
     inkscape:pageshadow="2"
     inkscape:window-width="1920"
     inkscape:window-height="1017"
     id="namedview4"
     showgrid="false"
     inkscape:pagecheckerboard="true"
     fit-margin-top="0"
     fit-margin-left="0"
     fit-margin-right="0"
     fit-margin-bottom="0"
     inkscape:zoom="0.45297505"
     inkscape:cx="-191.57203"
     inkscape:cy="684.36461"
     inkscape:window-x="-8"
     inkscape:window-y="-8"
     inkscape:window-maximized="1"
     inkscape:current-layer="svg2" />
  <g
     id="g4749"
     transform="translate(0,3.1631244e-4)">
    <path
       style="fill:#cda6a6"
       d="M 0,260.5 V 0 h 107 c 58.85,0 107.10533,0.1125 107.23408,0.25 0.12874,0.1375 0.46624,34 0.75,75.25 l 0.51592,75 126.5,0.50961 c 69.575,0.28029 126.6125,0.61779 126.75,0.75 C 468.8875,151.89183 469,200.15 469,259 c 0,58.85 -0.1125,107.10817 -0.25,107.24039 -0.1375,0.13221 -57.175,0.46971 -126.75,0.75 L 215.5,367.5 214.98437,444 c -0.28359,42.075 -0.62109,76.6125 -0.75,76.75 C 214.10547,520.8875 165.85,521 107,521 H 0 Z"
       id="path4777"
       inkscape:connector-curvature="0" />
    <path
       style="fill:#c45858"
       d="M 0,260.5 V 0 h 106.99371 106.99372 l 0.25628,75.75 0.25629,75.75 127.25,0.25382 127.25,0.25381 V 259 365.99237 L 341.75,366.24618 214.5,366.5 214.24383,443.75 213.98766,521 H 106.99383 0 Z"
       id="path4775"
       inkscape:connector-curvature="0" />
    <path
       style="fill:#935757"
       d="M 0,260.5 V 0 h 106.99375 106.99376 l 0.25624,76.25 0.25625,76.25 h 127.25004 127.25004 l -4e-5,106.74618 L 469,365.99237 341.75,366.24618 214.5,366.5 214.24383,443.75 213.98766,521 H 106.99383 0 Z"
       id="path4773"
       inkscape:connector-curvature="0" />
    <path
       style="fill:#a90000"
       d="M 0,260.5 V 0 L 106.75,-1.0530587e-4 213.5,-2.1061174e-4 V 76.249895 152.5 H 341.25004 469.00008 V 259 365.5 H 341.25004 213.5 v 77.7501 77.7501 L 106.75,521.0001 0,521 Z"
       id="path4771"
       inkscape:connector-curvature="0" />
    <path
       style="fill:#a30000"
       d="M 0,260.5 V 0 L 106.75,-1.5815622e-4 213.5,-3.1631244e-4 213.23138,75.65053 c -0.22871,64.41393 -0.0565,75.8884 1.15966,77.25016 1.26267,1.41387 0.77203,2.43357 -4.23138,8.79422 C 200.22182,174.32849 197,178.78737 197,179.90739 197,180.69212 234.87691,181 331.41821,181 c 73.93002,0 135.13002,0.27314 136,0.60699 1.42646,0.54738 1.58179,9.60607 1.58183,92.25 l 4e-5,91.64301 H 341.25004 213.5 v 77.7501 77.7501 L 106.75,521.0001 0,521 Z M 467,153 c 0,-0.55 0.45,-1 1,-1 0.55,0 1,0.45 1,1 0,0.55 -0.45,1 -1,1 -0.55,0 -1,-0.45 -1,-1 z"
       id="path4769"
       inkscape:connector-curvature="0" />
    <path
       style="fill:#9b0000"
       d="M 0,260.5 V 0 L 106.75,1.0331892e-4 213.5,2.0663784e-4 213.29506,78.250103 213.09012,156.5 l -8.4839,11 c -13.81173,17.90791 -18.39349,24.25439 -19.0865,26.43788 L 184.86522,196 h 140.4856 c 77.26708,0 141.19741,0.27314 142.06739,0.60699 1.42504,0.54684 1.58179,8.94509 1.58183,84.75 l 4e-5,84.14301 H 341.25004 213.5 v 77.7501 77.7501 L 106.75,521.0001 0,521 Z"
       id="path4767"
       inkscape:connector-curvature="0" />
    <path
       style="fill:#930000"
       d="M 0,260.5 V 0 L 106.75,5.0390436e-5 213.5,1.0078087e-4 213.28783,77.75005 213.07565,155.5 199.28783,173.3442 c -7.58331,9.81431 -14.29851,18.58931 -14.92267,19.5 C 180.39358,198.63896 174,208.82821 174,209.36283 174,209.71327 239.6632,210 319.91821,210 c 80.25502,0 146.63002,0.27314 147.5,0.60699 1.42347,0.54623 1.58179,8.32818 1.58183,77.75 l 4e-5,77.14301 H 341.25004 213.5 v 77.7501 77.7501 L 106.75,521.0001 0,521 Z"
       id="path4765"
       inkscape:connector-curvature="0" />
    <path
       style="fill:#820000"
       d="M 0,260.5 V 0 h 107.10699 c 97.25672,0 107.05116,0.14547162 106.5,1.5817875 C 213.27314,2.4517706 213,37.274712 213,78.966103 v 75.802527 l -10.75,13.4221 c -16.60854,20.73689 -17.26207,21.58687 -25.31418,32.9235 -8.32812,11.72525 -16.57842,27.037 -15.50444,28.77474 C 161.93007,230.69586 204.12134,231 315.55902,231 H 469 l 4e-5,67.25 4e-5,67.25 H 341.25004 213.5 v 77.7501 77.7501 L 106.75,521.0001 0,521 Z"
       id="path4763"
       inkscape:connector-curvature="0" />
    <path
       style="fill:#7b0000"
       d="M 0,260.5 V 0 h 58.071429 c 48.995241,0 58.294701,0.22327652 59.500001,1.4285714 2.15527,2.1552764 2.15527,515.9875786 0,518.1428586 C 116.36613,520.77672 107.06667,521 58.071429,521 H 0 Z M 188.25,519.50417 C 187.26938,518.39038 187,498.29272 187,426.24531 v -91.8391 l -4.4342,-6.9531 c -2.43881,-3.82421 -5.96822,-8.99203 -7.84314,-11.48404 -4.0601,-5.39641 -15.08832,-24.32353 -18.31191,-31.42772 -4.6918,-10.33982 -6.34034,-26.92491 -3.25944,-32.79135 0.8693,-1.65525 9.35884,-1.75 156.80209,-1.75 85.73566,0 156.59483,0.27314 157.46481,0.60699 1.41685,0.54369 1.58179,6.56556 1.58183,57.75 l 4e-5,57.14301 H 341.25004 213.5 v 77.7501 77.7501 l -12,-0.0381 c -9.07432,-0.0288 -12.30476,-0.38428 -13.25,-1.45789 z M 187,92.897187 C 187,16.195815 187.21163,2.6455121 188.42857,1.4285714 189.51026,0.34688091 192.81427,0 202.03556,0 212.72984,0 214.14001,0.19276626 213.60699,1.5817875 213.27314,2.4517706 213,36.993365 213,78.340887 V 153.5182 l -8.25,10.04268 c -4.5375,5.52348 -9.71042,11.59439 -11.49537,13.49091 -1.78496,1.89651 -3.24746,3.73757 -3.25,4.09122 -0.003,0.35366 -0.67963,0.90203 -1.50463,1.21862 -1.32649,0.50902 -1.5,-9.83969 -1.5,-89.464443 z"
       id="path4761"
       inkscape:connector-curvature="0" />
    <path
       style="fill:#730000"
       d="M 0,260.5 V 0 h 44.893011 c 40.014064,0 44.958979,0.17190777 45.5,1.5817875 0.79359,2.0680621 0.79359,515.7683625 0,517.8364225 C 89.85199,520.82809 84.907075,521 44.893011,521 H 0 Z m 203,177.03863 v -83.46136 l -5.53457,-8.12804 C 191.71648,337.50636 182.64302,324.88866 176.52841,316.83389 168.51486,306.27764 156,282.17079 156,277.29088 V 274 h 154.91821 c 85.20502,0 155.63002,0.27314 156.5,0.60699 1.41006,0.54109 1.5818,5.508 1.58185,45.75 l 6e-5,45.14301 -127.13392,-0.26135 c -93.62959,-0.19248 -127.49394,0.0374 -128.50006,0.87244 C 212.23325,367.05131 212,380.19993 212,443.12244 212,493.04081 212.34212,519 213,519 c 0.55,0 1,0.45 1,1 0,0.55 -2.475,1 -5.5,1 H 203 Z M 203.02318,81.75 203,0 h 5.5 c 3.025,0 5.5,0.45 5.5,1 0,0.55 -0.45,1 -1,1 -0.6579,0 -1,26.019403 -1,76.05821 v 76.05821 l -4.47682,4.69179 -4.47682,4.69179 -0.0232,-81.75 z"
       id="path4759"
       inkscape:connector-curvature="0" />
    <path
       style="fill:#6b0000"
       d="M 0,260.5 V 0 h 25.071429 c 20.395238,0 25.337878,0.2664496 26.5,1.4285714 2.155276,2.1552764 2.155276,515.9875786 0,518.1428586 C 50.409307,520.73355 45.466667,521 25.071429,521 H 0 Z M 210.60699,519.41821 C 210.27314,518.54823 210,482.86463 210,440.12132 v -77.71511 l -4.2679,-6.4531 C 203.38475,352.4039 197.45371,344.1 192.55202,337.5 176.40743,315.76177 166,299.31607 166,295.54282 166,294.15925 181.47489,294 315.91821,294 c 82.45502,0 150.63002,0.27314 151.5,0.60699 1.40086,0.53756 1.58179,4.62668 1.58183,35.75 l 4e-5,35.14301 H 340.75004 212.5 l -0.25621,76.75 c -0.1702,50.98544 0.0816,76.75 0.75,76.75 0.55342,0 1.00621,0.45 1.00621,1 0,1.61404 -2.73002,1.14594 -3.39301,-0.58179 z M 210,78.081787 C 210,36.876771 210.27314,2.4517706 210.60699,1.5817875 211.26998,-0.14593625 214,-0.61404323 214,1 c 0,0.55 -0.45,1 -1,1 -0.65784,0 -1,25.833333 -1,75.5 0,49.66667 -0.34216,75.5 -1,75.5 -0.65777,0 -1,-25.6394 -1,-74.918213 z"
       id="path4757"
       inkscape:connector-curvature="0" />
    <path
       style="fill:#630000"
       d="M 0,260.5 V 0 h 13.393011 c 11.290184,0 13.488314,0.24835534 14,1.5817875 0.79359,2.0680621 0.79359,515.7683625 0,517.8364225 -0.511686,1.33343 -2.709816,1.58179 -14,1.58179 H 0 Z m 340,104.74311 -127.5,-0.26457 -2.26879,-3.73927 c -1.24783,-2.0566 -4.62283,-6.98497 -7.5,-10.95193 C 184.09652,324.59432 177,314.06806 177,312.12027 177,311.29842 215.46998,311 321.41821,311 c 79.43002,0 145.13002,0.27314 146,0.60699 1.38813,0.53267 1.58179,3.89958 1.58179,27.5 0,14.79115 -0.3375,26.78224 -0.75,26.64685 -0.4125,-0.1354 -58.125,-0.36522 -128.25,-0.51073 z"
       id="path4755"
       inkscape:connector-curvature="0" />
    <path
       style="fill:#570000"
       d="m 467,364.98881 c 0,-0.67644 -41.95641,-0.99996 -126.74058,-0.97729 l -126.74058,0.0339 -2.87532,-3.77271 c -1.58143,-2.07499 -4.40125,-6.02271 -6.26628,-8.77271 -1.86503,-2.75 -5.86288,-8.51325 -8.8841,-12.80722 C 192.47191,334.39881 190,330.23631 190,329.44278 190,328.19271 208.42195,328 327.91821,328 c 75.85502,0 138.63002,0.27314 139.5,0.60699 1.36305,0.52305 1.58179,3.15047 1.58179,19 C 469,359.20233 468.63042,366 468,366 c -0.55,0 -1,-0.45503 -1,-1.01119 z"
       id="path4753"
       inkscape:connector-curvature="0" />
    <path
       style="fill:#4c0000"
       d="m 467,365 c 0,-0.66139 -42.7772,-1 -126.33159,-1 H 214.33683 l -3.41842,-5.08441 c -5.70442,-8.48453 -8.75709,-13.37637 -8.83981,-14.16559 -0.093,-0.88763 263.02961,-1.02944 265.33961,-0.14301 1.30199,0.49962 1.58179,2.44542 1.58179,11 C 469,361.869 468.60252,366 468,366 c -0.55,0 -1,-0.45 -1,-1 z"
       id="path4751"
       inkscape:connector-curvature="0" />
  </g>
</svg>
