<?xml version="1.0" encoding="UTF-8" standalone="no"?>
<!-- Created with Inkscape (http://www.inkscape.org/) -->

<svg
   xmlns:dc="http://purl.org/dc/elements/1.1/"
   xmlns:cc="http://creativecommons.org/ns#"
   xmlns:rdf="http://www.w3.org/1999/02/22-rdf-syntax-ns#"
   xmlns:svg="http://www.w3.org/2000/svg"
   xmlns="http://www.w3.org/2000/svg"
   xmlns:sodipodi="http://sodipodi.sourceforge.net/DTD/sodipodi-0.dtd"
   xmlns:inkscape="http://www.inkscape.org/namespaces/inkscape"
   version="1.1"
   id="svg2"
   width="469.00012"
   height="521.00055"
   viewBox="0 0 469.00012 521.00055"
   sodipodi:docname="tuberia_cruze_verde.svg"
   inkscape:version="0.92.5 (2060ec1f9f, 2020-04-08)">
  <metadata
     id="metadata8">
    <rdf:RDF>
      <cc:Work
         rdf:about="">
        <dc:format>image/svg+xml</dc:format>
        <dc:type
           rdf:resource="http://purl.org/dc/dcmitype/StillImage" />
        <dc:title></dc:title>
      </cc:Work>
    </rdf:RDF>
  </metadata>
  <defs
     id="defs6" />
  <sodipodi:namedview
     pagecolor="#ffffff"
     bordercolor="#666666"
     borderopacity="1"
     objecttolerance="10"
     gridtolerance="10"
     guidetolerance="10"
     inkscape:pageopacity="0"
     inkscape:pageshadow="2"
     inkscape:window-width="1920"
     inkscape:window-height="1017"
     id="namedview4"
     showgrid="false"
     inkscape:pagecheckerboard="true"
     fit-margin-top="0"
     fit-margin-left="0"
     fit-margin-right="0"
     fit-margin-bottom="0"
     inkscape:zoom="0.45297505"
     inkscape:cx="33.60593"
     inkscape:cy="653.45784"
     inkscape:window-x="-8"
     inkscape:window-y="-8"
     inkscape:window-maximized="1"
     inkscape:current-layer="svg2" />
  <g
     id="g4749"
     transform="translate(0,3.1631244e-4)">
    <path
       style="fill:#a6e5a6"
       d="M 0,260.5 V 0 h 107 c 58.85,0 107.10533,0.1125 107.23408,0.25 0.12874,0.1375 0.46624,34 0.75,75.25 l 0.51592,75 126.5,0.50961 c 69.575,0.28029 126.6125,0.61779 126.75,0.75 C 468.8875,151.89183 469,200.15 469,259 c 0,58.85 -0.1125,107.10817 -0.25,107.24039 -0.1375,0.13221 -57.175,0.46971 -126.75,0.75 L 215.5,367.5 214.98437,444 c -0.28359,42.075 -0.62109,76.6125 -0.75,76.75 C 214.10547,520.8875 165.85,521 107,521 H 0 Z"
       id="path4787"
       inkscape:connector-curvature="0" />
    <path
       style="fill:#a6c9a6"
       d="M 0,260.5 V 0 h 106.89301 c 96.54996,0 106.95175,0.15305506 107.5,1.5817875 C 214.72686,2.4517706 215,36.651771 215,77.581787 V 152 h 127 127 v 106.89301 c 0,96.54996 -0.15306,106.95175 -1.58179,107.5 -0.86998,0.33385 -58.01998,0.60699 -127,0.60699 H 215 v 75.41821 c 0,41.48002 -0.27314,76.13002 -0.60699,77 C 213.84476,520.84694 203.44297,521 106.89301,521 H 0 Z"
       id="path4785"
       inkscape:connector-curvature="0" />
    <path
       style="fill:#57ce57"
       d="M 0,260.5 V 0 h 106.99371 106.99372 l 0.25628,75.75 0.25629,75.75 127.25,0.25382 127.25,0.25381 V 259 365.99237 L 341.75,366.24618 214.5,366.5 214.24383,443.75 213.98766,521 H 106.99383 0 Z"
       id="path4783"
       inkscape:connector-curvature="0" />
    <path
       style="fill:#57a357"
       d="M 0,260.5 V 0 h 106.99375 106.99376 l 0.25624,76.25 0.25625,76.25 h 127.25004 127.25004 l -4e-5,106.74618 L 469,365.99237 341.75,366.24618 214.5,366.5 214.24383,443.75 213.98766,521 H 106.99383 0 Z"
       id="path4781"
       inkscape:connector-curvature="0" />
    <path
       style="fill:#578f57"
       d="M 0,260.5 V 0 L 106.75,-1.0530587e-4 213.5,-2.1061174e-4 V 76.249895 152.5 h 127.75004 127.75004 l -4e-5,106.7462 L 469,365.9924 341.25,366.2462 213.5,366.5 v 77.2501 77.25011 L 106.75,521.0001 0,521 Z"
       id="path4779"
       inkscape:connector-curvature="0" />
    <path
       style="fill:#00bb00"
       d="M 0,260.5 V 0 L 106.75,-1.0530587e-4 213.5,-2.1061174e-4 V 76.249895 152.5 H 341.25004 469.00008 V 259 365.5 H 341.25004 213.5 v 77.7501 77.7501 L 106.75,521.0001 0,521 Z"
       id="path4777"
       inkscape:connector-curvature="0" />
    <path
       style="fill:#00b300"
       d="M 0,260.5 V 0 L 106.75,-1.5815622e-4 213.5,-3.1631244e-4 213.2314,75.624969 c -0.1921,54.086911 0.046,76.004381 0.83609,76.956351 1.3155,1.58508 1.24593,1.71216 -6.52437,11.91868 C 200.08674,174.29419 194,182.83447 194,183.50231 194,183.77604 255.1632,184 329.91821,184 c 74.75502,0 136.63002,0.27314 137.5,0.60699 1.4262,0.54728 1.58179,9.47388 1.58183,90.75 l 4e-5,90.14301 H 341.25004 213.5 v 77.7501 77.7501 L 106.75,521.0001 0,521 Z"
       id="path4775"
       inkscape:connector-curvature="0" />
    <path
       style="fill:#00ab00"
       d="M 0,260.5 V 0 L 106.75,1.0331892e-4 213.5,2.0663784e-4 213.2916,78.075639 l -0.20841,78.075431 -8.47523,10.88161 c -4.66138,5.98489 -10.4176,13.62903 -12.7916,16.98698 -2.374,3.35796 -5.32886,7.49379 -6.56636,9.19074 -1.2375,1.69695 -2.25,3.69382 -2.25,4.43748 0,1.12978 23.25409,1.35212 141.41821,1.35212 77.78002,0 142.13002,0.27314 143,0.60699 1.42473,0.54672 1.58179,8.8129 1.58183,83.25 l 4e-5,82.64301 H 341.25004 213.5 v 77.7501 77.7501 L 106.75,521.0001 0,521 Z"
       id="path4773"
       inkscape:connector-curvature="0" />
    <path
       style="fill:#00a300"
       d="M 0,260.5 V 0 L 106.75,5.0390436e-5 213.5,1.0078087e-4 213.30757,77.75005 213.11515,155.5 l -6.24815,8 c -19.55517,25.038 -32.12016,42.57155 -33.4019,46.60995 C 172.8787,211.95754 176.19152,212 320.93261,212 H 469 l 4e-5,76.75 4e-5,76.75 H 341.25004 213.5 v 77.7501 77.7501 L 106.75,521.0001 0,521 Z"
       id="path4771"
       inkscape:connector-curvature="0" />
    <path
       style="fill:#009b00"
       d="M 0,260.5 V 0 L 106.75,-4.0427083e-6 213.5,-8.0854165e-6 213.26819,77.510196 l -0.23181,77.510204 -9.2074,11.7398 c -15.23734,19.42821 -18.02286,23.08282 -25.50242,33.45921 C 171.81362,209.25481 166,219.54016 166,222.02734 166,222.65323 219.44824,223 315.91821,223 c 82.45502,0 150.63002,0.27314 151.5,0.60699 1.42173,0.54557 1.58179,7.75533 1.58183,71.25 l 4e-5,70.64301 H 341.25004 213.5 v 77.7501 77.7501 L 106.75,521.0001 0,521 Z"
       id="path4769"
       inkscape:connector-curvature="0" />
    <path
       style="fill:#009100"
       d="M 0,260.5 V 0 h 107.10699 c 97.25672,0 107.05116,0.14547162 106.5,1.5817875 -0.33385,0.8699831 -0.60955,35.6324835 -0.61267,77.2499995 L 212.98832,154.5 203.244,166.60342 c -23.23726,28.86301 -34.24022,44.07404 -39.70969,54.89658 -2.50162,4.95 -4.5453,10.0125 -4.54151,11.25 L 159,235 h 153.41821 c 84.38002,0 154.13002,0.27314 155,0.60699 1.41981,0.54483 1.58179,7.22654 1.58183,65.25 l 4e-5,64.64301 H 341.25004 213.5 v 77.7501 77.7501 L 106.75,521.0001 0,521 Z"
       id="path4767"
       inkscape:connector-curvature="0" />
    <path
       style="fill:#008d00"
       d="M 0,260.5 V 0 H 66.071429 C 122,0 132.36216,0.21930502 133.57143,1.4285714 c 2.15527,2.1552764 2.15527,515.9875786 0,518.1428586 C 132.36216,520.78069 122,521 66.071429,521 H 0 Z M 176.25,519.50417 C 175.26781,518.3886 175,496.67907 175,418.17706 v -99.90734 l -2.13266,-2.71124 c -1.17296,-1.49118 -3.3591,-5.03937 -4.85809,-7.88486 -1.49898,-2.84549 -5.19979,-9.44862 -8.22401,-14.67362 -6.99897,-12.09223 -10.22515,-23.87902 -9.57531,-34.9832 0.24195,-4.13424 0.98452,-8.5293 1.65017,-9.7668 L 153.07037,246 H 311.03518 469 l 4e-5,59.75 4e-5,59.75 H 341.25004 213.5 v 77.7501 77.7501 l -18,-0.0381 c -14.25814,-0.0302 -18.25985,-0.33327 -19.25,-1.45789 z M 175,100.89719 C 175,17.262482 175.2099,2.6472383 176.42857,1.4285714 177.56189,0.29525769 181.61427,0 196.03556,0 c 16.1655,0 18.1112,0.17515348 17.57143,1.5817875 C 213.27314,2.4517706 213,37.041858 213,78.448649 v 75.285071 l -5.25,6.47424 c -16.35433,20.16797 -21.38007,26.25503 -23.93956,28.99496 -1.5635,1.67374 -3.59915,4.32368 -4.52367,5.88876 C 174.9116,202.49825 175,204.44061 175,100.89719 Z"
       id="path4765"
       inkscape:connector-curvature="0" />
    <path
       style="fill:#008900"
       d="M 0,260.5 V 0 H 55.571429 C 102.4,0 111.36761,0.22475211 112.57143,1.4285714 c 2.15527,2.1552764 2.15527,515.9875786 0,518.1428586 C 111.36761,520.77525 102.4,521 55.571429,521 H 0 Z M 191.60699,519.41821 C 191.27314,518.54823 191,477.66103 191,428.55776 v -89.27867 l -2.30854,-3.38954 c -1.2697,-1.86425 -3.9697,-5.74743 -6,-8.62929 C 180.66116,324.3784 179,321.74085 179,321.39904 c 0,-0.34182 -1.70639,-2.70893 -3.79198,-5.26026 -3.72471,-4.55649 -10.42027,-15.59777 -16.87805,-27.83266 -3.31678,-6.28399 -7.66303,-23.90645 -6.85984,-27.81422 0.22517,-1.09554 0.67009,-3.2294 0.98869,-4.7419 L 153.0381,253 h 156.39916 c 86.01954,0 157.11097,0.27314 157.98095,0.60699 1.41616,0.54343 1.58179,6.43336 1.58183,56.25 l 4e-5,55.64301 H 341.25004 213.5 v 77.7501 77.7501 l -10.64301,-10e-5 c -8.78248,-8e-5 -10.74912,-0.27662 -11.25,-1.58189 z M 191,90.581787 c 0,-48.080016 0.27314,-88.1300164 0.60699,-88.9999995 0.50088,-1.30526643 2.46755,-1.581814825994 11.25,-1.58194381328 L 213.5,-3.1262656e-4 213.23147,76.189187 c -0.24767,70.269353 -0.40307,76.399243 -2,78.888813 C 207.67074,160.62908 192.68733,178 191.45993,178 191.20697,178 191,138.6618 191,90.581787 Z"
       id="path4763"
       inkscape:connector-curvature="0" />
    <path
       style="fill:#008500"
       d="M 0,260.5 V 0 h 48.071429 c 40.328571,0 48.301528,0.23009977 49.5,1.4285714 2.155276,2.1552764 2.155276,515.9875786 0,518.1428586 C 96.372957,520.7699 88.4,521 48.071429,521 H 0 Z M 199.60699,519.41821 C 199.27314,518.54823 199,479.93559 199,433.61234 v -84.22408 l -5.02003,-7.44413 C 187.99919,333.0753 178.50785,319.58016 174.94198,314.87517 171.61791,310.48925 163.08366,296.13882 159.25656,288.5 156.18806,282.37533 154,274.2379 154,268.95078 V 266 h 155.91821 c 85.75502,0 156.63002,0.27314 157.5,0.60699 1.41269,0.5421 1.58179,5.86051 1.58183,49.75 l 4e-5,49.14301 H 341.25004 213.5 v 77.7501 77.7501 l -6.64301,-10e-5 c -5.135,-8e-5 -6.7808,-0.35918 -7.25,-1.58189 z M 199,85.581787 c 0,-45.330016 0.27314,-83.1300164 0.60699,-83.9999995 0.46919,-1.22270259 2.11503,-1.581822985007 7.25,-1.58194381328 L 213.5,-3.1262656e-4 213.23152,76.121659 c -0.14767,41.867081 -0.59767,76.708351 -1,77.425031 -1.31754,2.34694 -11.71306,14.33677 -12.48152,14.39575 C 199.3375,167.9741 199,130.9118 199,85.581787 Z"
       id="path4761"
       inkscape:connector-curvature="0" />
    <path
       style="fill:#008100"
       d="M 0,260.5 V 0 h 42.893011 c 38.190326,0 42.95956,0.17342334 43.5,1.5817875 0.79359,2.0680621 0.79359,515.7683625 0,517.8364225 -0.54044,1.40837 -5.309674,1.58179 -43.5,1.58179 H 0 Z m 205,178.96016 c 0,-81.34055 -0.005,-81.55013 -2.14007,-85.75 C 201.6829,351.39457 198.84067,347.025 196.54387,344 173.41418,313.53705 157,286.77539 157,279.52773 V 277 h 154.41821 c 84.93002,0 155.13002,0.27314 156,0.60699 1.40895,0.54066 1.5818,5.37581 1.58185,44.25 l 6e-5,43.64301 -127.25006,-0.26318 C 222.83468,364.99087 214.41813,365.08526 213.25,366.67795 211.64488,368.86645 211.39847,519 213,519 c 0.55,0 1,0.45 1,1 0,0.55 -2.025,1 -4.5,1 H 205 Z M 205.02706,80.75 205,0 h 4.5 c 2.475,0 4.5,0.45 4.5,1 0,0.55 -0.45,1 -1,1 -0.6579,0 -1,26.004895 -1,76.014685 v 76.014685 l -3.47294,3.73532 -3.47294,3.73531 -0.0271,-80.75 z"
       id="path4759"
       inkscape:connector-curvature="0" />
    <path
       style="fill:#007b00"
       d="M 0,260.5 V 0 h 30.571429 c 25.161904,0 30.82421,0.25278149 32,1.4285714 2.155276,2.1552764 2.155276,515.9875786 0,518.1428586 -1.17579,1.17579 -6.838096,1.42857 -32,1.42857 H 0 Z m 209,180.61627 v -79.88373 l -4.65633,-6.86627 C 201.78269,350.58982 196.00449,342.55 191.50321,336.5 c -4.50127,-6.05 -9.01607,-12.35 -10.03287,-14 -1.0168,-1.65 -3.27625,-4.8 -5.02099,-7 -4.0571,-5.11572 -14.64205,-24.97397 -13.77429,-25.84172 0.82732,-0.82732 302.58849,-0.87811 304.74315,-0.0513 1.40362,0.53862 1.5818,4.84702 1.58185,38.25 l 6e-5,37.64301 -127.13392,-0.26135 c -93.62959,-0.19248 -127.49394,0.0374 -128.50006,0.87244 C 212.23325,367.05131 212,380.19993 212,443.12244 212,493.04081 212.34212,519 213,519 c 0.55,0 1,0.45 1,1 0,0.55 -1.125,1 -2.5,1 H 209 Z M 209.0318,78.25 209,0 h 2.5 c 1.375,0 2.5,0.45 2.5,1 0,0.55 -0.45,1 -1,1 -0.65781,0 -1,25.769623 -1,75.30887 0,64.66812 -0.20745,75.58314 -1.4682,77.25 -1.29504,1.7122 -1.47194,-7.28737 -1.5,-76.30887 z"
       id="path4757"
       inkscape:connector-curvature="0" />
    <path
       style="fill:#007300"
       d="M 0,260.5 V 0 h 18.393011 c 15.84953,0 18.476949,0.2187378 19,1.5817875 0.79359,2.0680621 0.79359,515.7683625 0,517.8364225 -0.523051,1.36305 -3.15047,1.58179 -19,1.58179 H 0 Z M 212,520 c 0,-0.55 0.45,-1 1,-1 0.55,0 1,0.45 1,1 0,0.55 -0.45,1 -1,1 -0.55,0 -1,-0.45 -1,-1 z m -2.13183,-158.47748 c -1.14027,-2.18762 -3.03958,-5.19706 -4.22069,-6.68765 -1.18111,-1.49059 -3.53177,-4.65072 -5.22368,-7.02252 -1.69192,-2.37179 -5.78191,-7.91768 -9.08888,-12.32419 C 181.29505,322.11011 171,305.8572 171,303.38519 c 0,-0.64792 294.72647,-0.42738 296.41821,0.2218 1.39477,0.53522 1.58179,4.23008 1.58181,31.25 l 2e-5,30.64301 H 340.47071 211.94137 Z M 212,1 c 0,-0.55 0.45,-1 1,-1 0.55,0 1,0.45 1,1 0,0.55 -0.45,1 -1,1 -0.55,0 -1,-0.45 -1,-1 z"
       id="path4755"
       inkscape:connector-curvature="0" />
    <path
       style="fill:#006a00"
       d="M 2.6069888,519.41821 C 1.8133989,517.35015 1.8133989,3.6498496 2.6069888,1.5817875 3.0895418,0.32427458 4.8320856,0 11.106989,0 H 19 V 260.5 521 h -7.893011 c -6.2749034,0 -8.0174472,-0.32427 -8.5000002,-1.58179 z M 340.37957,365.00573 213.25915,364.5 l -10.7963,-15 C 187.70073,328.99002 182,320.71159 182,319.78444 182,319.353 246.575,319 325.5,319 H 469 v 23.5 c 0,12.925 -0.3375,23.39008 -0.75,23.25573 -0.4125,-0.13436 -57.95419,-0.47186 -127.87043,-0.75 z"
       id="path4753"
       inkscape:connector-curvature="0" />
    <path
       style="fill:#005700"
       d="m 467,365 c 0,-0.66124 -42.93774,-1.01071 -126.75,-1.03161 l -126.75,-0.0316 -2.70796,-4.21839 c -1.48938,-2.32012 -5.19747,-7.8184 -8.24021,-12.2184 -3.04274,-4.4 -5.53666,-8.3375 -5.54204,-8.75 C 197.00441,338.3375 258.2,338 333,338 h 136 v 14 c 0,8.66667 -0.38095,14 -1,14 -0.55,0 -1,-0.45 -1,-1 z"
       id="path4751"
       inkscape:connector-curvature="0" />
  </g>
</svg>
