<?xml version="1.0" encoding="UTF-8" standalone="no"?>
<!-- Created with Inkscape (http://www.inkscape.org/) -->

<svg
   xmlns:dc="http://purl.org/dc/elements/1.1/"
   xmlns:cc="http://creativecommons.org/ns#"
   xmlns:rdf="http://www.w3.org/1999/02/22-rdf-syntax-ns#"
   xmlns:svg="http://www.w3.org/2000/svg"
   xmlns="http://www.w3.org/2000/svg"
   xmlns:sodipodi="http://sodipodi.sourceforge.net/DTD/sodipodi-0.dtd"
   xmlns:inkscape="http://www.inkscape.org/namespaces/inkscape"
   version="1.1"
   id="svg2"
   width="292.0022"
   height="262.00049"
   viewBox="0 0 292.0022 262.00049"
   sodipodi:docname="tuberia_cruze__arriba_verde.svg"
   inkscape:version="0.92.5 (2060ec1f9f, 2020-04-08)">
  <metadata
     id="metadata8">
    <rdf:RDF>
      <cc:Work
         rdf:about="">
        <dc:format>image/svg+xml</dc:format>
        <dc:type
           rdf:resource="http://purl.org/dc/dcmitype/StillImage" />
        <dc:title></dc:title>
      </cc:Work>
    </rdf:RDF>
  </metadata>
  <defs
     id="defs6" />
  <sodipodi:namedview
     pagecolor="#ffffff"
     bordercolor="#666666"
     borderopacity="1"
     objecttolerance="10"
     gridtolerance="10"
     guidetolerance="10"
     inkscape:pageopacity="0"
     inkscape:pageshadow="2"
     inkscape:window-width="1920"
     inkscape:window-height="1017"
     id="namedview4"
     showgrid="false"
     inkscape:pagecheckerboard="true"
     fit-margin-top="0"
     fit-margin-left="0"
     fit-margin-right="0"
     fit-margin-bottom="0"
     inkscape:zoom="0.90076336"
     inkscape:cx="-66.041194"
     inkscape:cy="337.49153"
     inkscape:window-x="-8"
     inkscape:window-y="-8"
     inkscape:window-maximized="1"
     inkscape:current-layer="svg2" />
  <g
     id="g4749"
     transform="translate(0.00117571,4.9332351e-4)">
    <path
       style="fill:#a6e5a6"
       d="m 0,192 c 0,-38.5 0.1125,-70.09786 0.25,-70.21747 0.1375,-0.11961 16,-0.45711 35.25,-0.75 l 35,-0.53253 0.519691,-60 c 0.28583,-33 0.62333,-60.1125 0.75,-60.25 C 71.896361,0.1125 103.725,0 142.5,0 c 38.775,0 70.60364,0.1125 70.73031,0.25 0.12667,0.1375 0.46417,27.25 0.75,60.25 l 0.51969,60 38.5,0.5298 c 21.175,0.29139 38.6125,0.62889 38.75,0.75 C 291.8875,121.90091 292,153.5 292,192 v 70 H 146 0 Z"
       id="path4777"
       inkscape:connector-curvature="0" />
    <path
       style="fill:#a6cea6"
       d="M 0,192 V 122 H 35.5 71 V 62.581787 C 71,29.901771 71.273145,2.4517706 71.606989,1.5817875 72.152517,0.16016484 79.330831,0 142.5,0 205.66917,0 212.84748,0.16016484 213.39301,1.5817875 213.72686,2.4517706 214,29.901771 214,62.581787 V 122 h 39 39 v 70 70 H 146 0 Z"
       id="path4775"
       inkscape:connector-curvature="0" />
    <path
       style="fill:#58cf58"
       d="M 0,192.01263 V 122.02526 L 35.75,121.76263 71.5,121.5 71.757746,60.75 72.015492,0 H 142.5 212.98451 l 0.25774,60.75 0.25775,60.75 39.25,0.26161 39.25,0.2616 V 192.01161 262 H 146 0 Z"
       id="path4773"
       inkscape:connector-curvature="0" />
    <path
       style="fill:#58a358"
       d="M -3.8010681e-4,192.25 -7.6021362e-4,122.5 H 35.74962 71.5 L 71.757687,61.25 72.015373,0 H 142.5 212.98463 l 0.25768,61.25 0.25769,61.25 h 39.25033 39.25033 l -3.3e-4,69.75 L 292,262 H 146 0 Z"
       id="path4771"
       inkscape:connector-curvature="0" />
    <path
       style="fill:#1bc01b"
       d="M -5.878543e-4,192.25 -0.00117571,122.5 34.249412,122.79208 c 18.837823,0.16064 35.273214,0.037 36.523091,-0.2747 L 73.045007,121.9506 72.772503,60.97507 72.5,-4.5920785e-4 h 70 70 L 212.2275,60.97507 l -0.27251,60.97553 2.27251,0.56513 c 1.24987,0.31081 19.26023,0.43443 40.02301,0.2747 L 292.00102,122.5 292.00051,192.25 292,262 H 146 0 Z"
       id="path4769"
       inkscape:connector-curvature="0" />
    <path
       style="fill:#00b800"
       d="m 0,192 c 0,-46 0.34285714,-70 1,-70 0.55,0 1,0.45576 1,1.01279 0,0.66954 11.946856,0.92373 35.25,0.75 L 72.5,123.5 V 61.749847 -3.0617538e-4 h 70 70 V 61.749847 123.5 l 38.75,0.26174 c 25.63898,0.17319 38.75,-0.0806 38.75,-0.75 0,-0.55646 0.45,-1.01174 1,-1.01174 0.65714,0 1,24 1,70 v 70 H 146 0 Z"
       id="path4767"
       inkscape:connector-curvature="0" />
    <path
       style="fill:#00a700"
       d="M 0,207.5 V 153 l 54.75,-0.041 54.75,-0.041 -4.5,-4.07287 c -4.94688,-4.47734 -11.216131,-9.51194 -23.736974,-19.0623 L 73.026053,123.5 73.013026,63.331787 C 73.005862,30.239271 72.726855,2.4517706 72.393011,1.5817875 71.843043,0.14859424 78.428944,0 142.5,0 c 64.07106,0 70.65696,0.14859424 70.10699,1.5817875 -0.33385,0.8699831 -0.60984,28.6574835 -0.61331,61.7499995 l -0.006,60.168213 -2.74367,1.57614 c -3.8341,2.20256 -22.7235,17.40925 -28.74368,23.13978 l -5,4.75943 58.25,0.0123 L 292,153 V 207.5 262 H 146 0 Z"
       id="path4765"
       inkscape:connector-curvature="0" />
    <path
       style="fill:#009400"
       d="M 0,216.5 V 171 H 146 292 V 216.5 262 H 146 0 Z m 127.70105,-55.87799 c -10.34743,-4.58551 -10.50636,-4.69468 -43.139777,-29.63438 -3.967095,-3.03181 -8.190413,-6.18181 -9.385152,-7 L 73.00387,122.5 72.751935,61.24977 72.5,-4.5920785e-4 142.85699,-2.2960393e-4 C 206.60246,-2.1576117e-5 213.15694,0.1486422 212.60699,1.5817875 212.27314,2.4517706 211.97202,30.014271 211.93783,62.831787 l -0.0622,59.668213 -7.18783,4.80734 c -3.95331,2.64404 -10.71123,7.59404 -15.0176,11 -15.03631,11.89239 -22.23171,16.80707 -30.67023,20.94872 -7.26149,3.56395 -9.5928,4.21919 -16,4.49695 -6.76176,0.29314 -8.26766,-0.0151 -15.29895,-3.131 z"
       id="path4763"
       inkscape:connector-curvature="0" />
    <path
       style="fill:#008b00"
       d="m 0,223.10699 c 0,-34.54285 0.17692208,-38.9609 1.5817875,-39.5 2.0676991,-0.79345 286.7687225,-0.79345 288.8364225,0 1.40487,0.5391 1.58179,4.95715 1.58179,39.5 L 292,262 H 146 0 Z M 127.5,159.14703 C 120.0336,156.17739 111.30701,150.59929 96,139.01198 90.775,135.05669 83.4625,129.55563 79.75,126.7874 L 73,121.75426 V 62.458918 C 73,29.846479 72.726855,2.4517706 72.393011,1.5817875 71.845226,0.1542826 76.046278,0 115.46444,0 c 36.61027,0 43.91061,0.23218844 45.11325,1.4348345 1.22593,1.2259237 1.39752,12.5462675 1.17857,77.7500005 L 161.5,155.5 155,158.72639 c -8.76104,4.34869 -17.29566,4.47924 -27.5,0.42064 z M 187,69.928571 C 187,13.133333 187.21888,2.6382677 188.42857,1.4285714 189.50357,0.35357722 192.7476,0 201.53556,0 211.77391,0 213.13913,0.19505091 212.60699,1.5817875 212.27314,2.4517706 212,29.912908 212,62.606538 V 122.0495 l -2.25,0.87036 c -1.2375,0.4787 -6.43681,3.84256 -11.55403,7.47525 C 193.07875,134.0278 188.46625,137 187.94597,137 187.36075,137 187,111.42228 187,69.928571 Z"
       id="path4761"
       inkscape:connector-curvature="0" />
    <path
       style="fill:#008300"
       d="M 0,229.5 V 197 H 146 292 V 229.5 262 H 146 0 Z M 131.25067,159.45486 C 122.41674,157.07608 113.5382,151.89758 98,140.06105 93.325,136.49978 86.520338,131.31666 82.87853,128.54301 79.236721,125.76935 75.524574,123.05 74.629314,122.5 73.159018,121.59673 72.977311,115.62374 72.750785,60.749767 L 72.5,-4.6574545e-4 104.64301,-2.3287273e-4 C 133.0306,-2.7207607e-5 136.85694,0.18480761 137.39301,1.5817875 138.27887,3.890308 138.13786,161.0121 137.25,160.93419 c -0.4125,-0.0362 -3.1122,-0.7019 -5.99933,-1.47933 z M 203,64.081787 c 0,-33.505016 0.27314,-61.6300164 0.60699,-62.4999995 0.41832,-1.09011658 1.89477,-1.581864170486 4.75,-1.58203416176 L 212.5,-4.9332351e-4 212.25991,58.749753 c -0.13204,32.312636 -0.45552,59.672717 -0.71883,60.800177 C 211.15771,121.19142 205.5148,125 203.46607,125 203.20973,125 203,97.586804 203,64.081787 Z"
       id="path4759"
       inkscape:connector-curvature="0" />
    <path
       style="fill:#007b00"
       d="m 0,236.60699 c 0,-22.23262 0.19686818,-25.46856 1.5817875,-26 2.0676991,-0.79345 286.7687225,-0.79345 288.8364225,0 1.38492,0.53144 1.58179,3.76738 1.58179,26 L 292,262 H 146 0 Z m 115.56401,-85.50342 c -0.30471,-0.49304 -2.33678,-1.82566 -4.51571,-2.96138 -2.17892,-1.13571 -11.631169,-7.74943 -21.00499,-14.69715 L 73,120.81283 V 61.988204 C 73,29.634658 72.726855,2.4517706 72.393011,1.5817875 71.8506,0.1682871 74.179808,0 94.286022,0 113.88059,0 116.8644,0.20425681 117.39301,1.5817875 118.42316,4.2663103 118.09513,152 117.05902,152 c -0.51754,0 -1.1903,-0.40339 -1.49501,-0.89643 z M 209,60.5 C 209,0.66666667 209.022,0 211,0 c 1.1,0 2,0.45 2,1 0,0.55 -0.45,1 -1,1 -0.65546,0 -1,20.5 -1,59.5 0,39 -0.34454,59.5 -1,59.5 -0.65565,0 -1,-20.83333 -1,-60.5 z"
       id="path4757"
       inkscape:connector-curvature="0" />
    <path
       style="fill:#007300"
       d="m 0,242.10699 c 0,-17.21733 0.21275578,-19.97465 1.5817875,-20.5 2.0676991,-0.79345 286.7687225,-0.79345 288.8364225,0 1.36903,0.52535 1.58179,3.28267 1.58179,20.5 L 292,262 H 146 0 Z M 93,134.88972 C 87.740662,130.60163 75.611547,122 74.824262,122 74.370918,122 74,95 74,62 74,22.666667 73.655556,2 73,2 72.45,2 72,1.55 72,1 72,0.38712709 76.79767,0 84.393011,0 c 10.378315,0 12.491688,0.25714668 13,1.5817875 C 97.726855,2.4517706 98,33.276771 98,70.081787 c 0,52.887093 -0.262095,66.910673 -1.25,66.882233 -0.6875,-0.0198 -2.375,-0.95322 -3.75,-2.0743 z"
       id="path4755"
       inkscape:connector-curvature="0" />
    <path
       style="fill:#006800"
       d="M 0,247.5 V 233 H 146 292 V 247.5 262 H 146 0 Z M 78.73812,123.34029 75,120.68058 V 61.922076 C 75,29.6049 75.273145,2.4517706 75.606989,1.5817875 76.016651,0.51422565 77.479562,0 80.106989,0 H 84 v 63 c 0,34.65 -0.342846,63 -0.76188,63 -0.419034,0 -2.444034,-1.19687 -4.5,-2.65971 z"
       id="path4753"
       inkscape:connector-curvature="0" />
    <path
       style="fill:#005700"
       d="M 0,253.5 V 245 h 146 146 v 8.5 8.5 H 146 0 Z"
       id="path4751"
       inkscape:connector-curvature="0" />
  </g>
</svg>
