<?xml version="1.0" encoding="UTF-8" standalone="no"?>
<!-- Created with Inkscape (http://www.inkscape.org/) -->

<svg
   xmlns:dc="http://purl.org/dc/elements/1.1/"
   xmlns:cc="http://creativecommons.org/ns#"
   xmlns:rdf="http://www.w3.org/1999/02/22-rdf-syntax-ns#"
   xmlns:svg="http://www.w3.org/2000/svg"
   xmlns="http://www.w3.org/2000/svg"
   xmlns:sodipodi="http://sodipodi.sourceforge.net/DTD/sodipodi-0.dtd"
   xmlns:inkscape="http://www.inkscape.org/namespaces/inkscape"
   version="1.1"
   id="svg2"
   width="292"
   height="262"
   viewBox="0 0 292 262"
   sodipodi:docname="tuberia_cruze__arriba_gris.svg"
   inkscape:version="0.92.5 (2060ec1f9f, 2020-04-08)">
  <metadata
     id="metadata8">
    <rdf:RDF>
      <cc:Work
         rdf:about="">
        <dc:format>image/svg+xml</dc:format>
        <dc:type
           rdf:resource="http://purl.org/dc/dcmitype/StillImage" />
        <dc:title></dc:title>
      </cc:Work>
    </rdf:RDF>
  </metadata>
  <defs
     id="defs6" />
  <sodipodi:namedview
     pagecolor="#ffffff"
     bordercolor="#666666"
     borderopacity="1"
     objecttolerance="10"
     gridtolerance="10"
     guidetolerance="10"
     inkscape:pageopacity="0"
     inkscape:pageshadow="2"
     inkscape:window-width="1920"
     inkscape:window-height="1017"
     id="namedview4"
     showgrid="false"
     inkscape:pagecheckerboard="true"
     fit-margin-top="0"
     fit-margin-left="0"
     fit-margin-right="0"
     fit-margin-bottom="0"
     inkscape:zoom="0.90076336"
     inkscape:cx="-233.67797"
     inkscape:cy="291.97458"
     inkscape:window-x="-8"
     inkscape:window-y="-8"
     inkscape:window-maximized="1"
     inkscape:current-layer="svg2" />
  <g
     id="g4749">
    <path
       style="fill:#e5e0db"
       d="M 0,192 V 122 H 36 72 V 61 0 h 70.5 70.5 v 61 61 h 39.5 39.5 v 70 70 H 146 0 Z"
       id="path4777"
       inkscape:connector-curvature="0" />
    <path
       style="fill:#e2dcd7"
       d="M 0,203.50908 V 145.01816 L 51.235013,144.75908 102.47003,144.5 96.223846,139.75 89.977665,135 H 44.988833 0 V 128.5 122 H 36 72 V 61 0 h 70.5 70.5 v 61 61 h 39.5 39.5 v 6.5 6.5 h -48.48883 -48.48884 l -6.24614,4.75 -6.24614,4.75 54.73498,0.25854 L 292,145.01708 V 203.50854 262 H 146 0 Z"
       id="path4775"
       inkscape:connector-curvature="0" />
    <path
       style="fill:#d6d1cb"
       d="M 0,205.5 V 149 h 54.147739 54.147741 l -6.26097,-4.75 c -3.443539,-2.6125 -9.459922,-7.3375 -13.369746,-10.5 L 81.555995,128 H 40.777997 0 v -3 -3 H 36 72 V 61 0 h 70.5 70.5 v 61 61 h 39.5 39.5 v 3 3 l -44.25,0.001 -44.25,0.001 -7.11095,5.74878 c -3.91102,3.16183 -9.94,7.88628 -13.39773,10.49878 l -6.2868,4.75 H 234.35226 292 v 56.5 56.5 H 146 0 v -56.5 z"
       id="path4773"
       inkscape:connector-curvature="0" />
    <path
       style="fill:#c6c1bc"
       d="M 0,209.00793 V 156.01586 L 59.230457,155.75793 118.46091,155.5 112.48046,151.55704 C 105.95484,147.25466 98.839947,141.91492 86.5,132.05868 82.1,128.54429 77.0375,124.79893 75.25,123.73566 L 72,121.80245 V 60.901224 0 h 70.5 70.5 v 60.901224 60.901226 l -3.25,1.92171 c -1.7875,1.05694 -5.725,3.93602 -8.75,6.39796 -9.60582,7.81782 -22.30045,17.37532 -28.48043,21.44226 L 166.53915,155.5 229.26957,155.75751 292,156.01503 V 209.00751 262 H 146 0 Z"
       id="path4771"
       inkscape:connector-curvature="0" />
    <path
       style="fill:#c1bdb8"
       d="M 0,211.5 V 161 l 64.75,-0.0576 64.75,-0.0576 -5.04741,-2.29639 c -7.75132,-3.52658 -18.9786,-11.3747 -37.95259,-26.52973 -4.4,-3.51439 -9.4625,-7.25975 -11.25,-8.32302 L 72,121.80245 V 60.901224 0 h 70.5 70.5 v 60.901224 60.901226 l -3.25,1.92171 c -1.7875,1.05694 -5.725,3.93602 -8.75,6.39796 -17.45505,14.20603 -32.72134,24.94884 -40.45259,28.46628 l -5.04741,2.29639 68.25,0.0576 L 292,161 V 211.5 262 H 146 0 Z"
       id="path4769"
       inkscape:connector-curvature="0" />
    <path
       style="fill:#b3afaa"
       d="m 0,215 v -47 h 146 146 v 47 47 H 146 0 Z M 128.15108,160.03226 C 118.24456,156.12449 108.10045,149.31153 86.5,132.05868 82.1,128.54429 77.0375,124.79893 75.25,123.73566 L 72,121.80245 V 60.901224 0 h 70.5 70.5 v 60.901224 60.901226 l -3.25,1.92171 c -1.7875,1.05694 -5.725,3.93602 -8.75,6.39796 -38.79494,31.5738 -53.41461,37.5763 -72.84892,29.91014 z"
       id="path4767"
       inkscape:connector-curvature="0" />
    <path
       style="fill:#a6a19d"
       d="m 0,220 v -42 h 146 146 v 42 42 H 146 0 Z M 128.15108,160.03226 C 118.24456,156.12449 108.10045,149.31153 86.5,132.05868 82.1,128.54429 77.0375,124.79893 75.25,123.73566 L 72,121.80245 V 60.901224 0 h 70.5 70.5 v 60.901224 60.901226 l -3.25,1.92171 c -1.7875,1.05694 -5.725,3.93602 -8.75,6.39796 -38.79494,31.5738 -53.41461,37.5763 -72.84892,29.91014 z"
       id="path4765"
       inkscape:connector-curvature="0" />
    <path
       style="fill:#a19d99"
       d="m 0,224 v -38 h 146 146 v 38 38 H 146 0 Z M 128.15108,160.03226 C 118.24456,156.12449 108.10045,149.31153 86.5,132.05868 82.1,128.54429 77.0375,124.79893 75.25,123.73566 L 72,121.80245 V 60.901224 0 h 40.5 40.5 v 80.883369 80.883371 l -2.25,0.60297 c -5.72142,1.53329 -15.29715,0.54285 -22.59892,-2.33745 z M 194,67.5 V 0 h 9.5 9.5 v 60.901224 60.901226 l -3.25,1.92171 c -1.7875,1.05694 -5.83114,4.02639 -8.98587,6.59877 C 197.6094,132.89532 194.7969,135 194.51413,135 194.23136,135 194,104.625 194,67.5 Z"
       id="path4763"
       inkscape:connector-curvature="0" />
    <path
       style="fill:#9b9793"
       d="m 0,228 v -34 h 146 146 v 34 34 H 146 0 Z M 128.15108,160.03226 C 118.24456,156.12449 108.10045,149.31153 86.5,132.05868 82.1,128.54429 77.0375,124.79893 75.25,123.73566 L 72,121.80245 V 60.901224 0 H 106.5 141 V 81.5 163 l -2.75,-0.0344 c -1.5125,-0.0189 -6.05702,-1.33892 -10.09892,-2.93332 z M 201,65.084029 V 0 h 6 6 v 60.964816 60.964814 l -2.25,1.17988 c -1.2375,0.64893 -3.9375,2.50258 -6,4.11921 l -3.75,2.93934 z"
       id="path4761"
       inkscape:connector-curvature="0" />
    <path
       style="fill:#8b8784"
       d="M 0,236.5 V 211 H 146 292 V 236.5 262 H 146 0 Z M 112.5,151.72553 C 103.2181,145.03217 93.585889,137.74649 86.512325,132.06878 82.105546,128.53161 77.0375,124.77466 75.25,123.72 L 72,121.80245 V 60.901224 0 H 94.5 117 v 77 c 0,42.35 -0.3375,76.975 -0.75,76.94444 -0.4125,-0.0305 -2.1,-1.02906 -3.75,-2.21891 z M 209,62.035184 C 209,0.66666667 209.02149,0 211,0 c 1.97813,0 2,0.66666667 2,60.964816 0,59.941364 -0.0336,60.982784 -2,62.035184 -1.99001,1.06502 -2,0.76049 -2,-60.964816 z"
       id="path4759"
       inkscape:connector-curvature="0" />
    <path
       style="fill:#84817d"
       d="m 0,243 v -19 h 146 146 v 19 19 H 146 0 Z M 87.5,132.88791 c -3.3,-2.75022 -8.1375,-6.40087 -10.75,-8.11257 L 72,121.66317 V 60.831585 0 h 11 11 v 69 c 0,37.95 -0.1125,68.97487 -0.25,68.94415 -0.1375,-0.0307 -2.95,-2.30602 -6.25,-5.05624 z M 212.47001,61 c 0,-33.825 0.12575,-47.6625 0.27945,-30.75 0.15369,16.9125 0.15369,44.5875 0,61.5 -0.1537,16.9125 -0.27945,3.075 -0.27945,-30.75 z"
       id="path4757"
       inkscape:connector-curvature="0" />
    <path
       style="fill:#817e7a"
       d="M 0,245.5 V 229 H 146 292 V 245.5 262 H 146 0 Z M 82.5,128.90658 c -2.75,-2.19409 -6.2375,-4.65721 -7.75,-5.4736 L 72,121.94864 V 60.97432 0 h 8 8 v 66.5 c 0,36.575 -0.1125,66.47657 -0.25,66.44793 -0.1375,-0.0287 -2.5,-1.84725 -5.25,-4.04135 z"
       id="path4755"
       inkscape:connector-curvature="0" />
    <path
       style="fill:#74716e"
       d="m 0,249 v -13 h 146 146 v 13 13 H 146 0 Z"
       id="path4753"
       inkscape:connector-curvature="0" />
    <path
       style="fill:#625f5d"
       d="M 0,254.5 V 247 h 146 146 v 7.5 7.5 H 146 0 Z"
       id="path4751"
       inkscape:connector-curvature="0" />
  </g>
</svg>
