<?xml version="1.0" encoding="UTF-8" standalone="no"?>
<!-- Created with Inkscape (http://www.inkscape.org/) -->

<svg
   xmlns:dc="http://purl.org/dc/elements/1.1/"
   xmlns:cc="http://creativecommons.org/ns#"
   xmlns:rdf="http://www.w3.org/1999/02/22-rdf-syntax-ns#"
   xmlns:svg="http://www.w3.org/2000/svg"
   xmlns="http://www.w3.org/2000/svg"
   xmlns:sodipodi="http://sodipodi.sourceforge.net/DTD/sodipodi-0.dtd"
   xmlns:inkscape="http://www.inkscape.org/namespaces/inkscape"
   version="1.1"
   id="svg2"
   width="186"
   height="527"
   viewBox="0 0 186 527"
   sodipodi:docname="TUBERIA_VERDE_VERTICAL.svg"
   inkscape:version="0.92.5 (2060ec1f9f, 2020-04-08)">
  <metadata
     id="metadata8">
    <rdf:RDF>
      <cc:Work
         rdf:about="">
        <dc:format>image/svg+xml</dc:format>
        <dc:type
           rdf:resource="http://purl.org/dc/dcmitype/StillImage" />
        <dc:title></dc:title>
      </cc:Work>
    </rdf:RDF>
  </metadata>
  <defs
     id="defs6" />
  <sodipodi:namedview
     pagecolor="#ffffff"
     bordercolor="#666666"
     borderopacity="1"
     objecttolerance="10"
     gridtolerance="10"
     guidetolerance="10"
     inkscape:pageopacity="0"
     inkscape:pageshadow="2"
     inkscape:window-width="1920"
     inkscape:window-height="1017"
     id="namedview4"
     showgrid="false"
     fit-margin-top="0"
     fit-margin-left="0"
     fit-margin-right="0"
     fit-margin-bottom="0"
     inkscape:zoom="0.44781784"
     inkscape:cx="-47.682204"
     inkscape:cy="274.66525"
     inkscape:window-x="-8"
     inkscape:window-y="-8"
     inkscape:window-maximized="1"
     inkscape:current-layer="svg2" />
  <g
     id="g5381"
     transform="translate(-332.72458,-326.02542)">
    <path
       style="fill:#009000"
       d="m 332.72458,589.52542 v -263.5 h 93 93 v 263.5 263.5 h -93 -93 z"
       id="path5401"
       inkscape:connector-curvature="0" />
    <path
       style="fill:#008d00"
       d="m 332.72458,589.52542 v -263.5 h 55 55 v 263.5 263.5 h -55 -55 z m 158,0 v -263.5 h 14 14 v 263.5 263.5 h -14 -14 z"
       id="path5399"
       inkscape:connector-curvature="0" />
    <path
       style="fill:#008900"
       d="m 332.72458,589.52542 v -263.5 h 49 49 v 263.5 263.5 h -49 -49 z m 167,0 v -263.5 h 9.5 9.5 v 263.5 263.5 h -9.5 -9.5 z"
       id="path5397"
       inkscape:connector-curvature="0" />
    <path
       style="fill:#008500"
       d="m 332.72458,589.52542 v -263.5 h 42.5 42.5 v 263.5 263.5 h -42.5 -42.5 z m 174,0 v -263.5 h 6 6 v 263.5 263.5 h -6 -6 z"
       id="path5395"
       inkscape:connector-curvature="0" />
    <path
       style="fill:#008100"
       d="m 332.72458,589.52542 v -263.5 h 36.5 36.5 v 263.5 263.5 h -36.5 -36.5 z m 178,0 v -263.5 h 4 4 v 263.5 263.5 h -4 -4 z"
       id="path5393"
       inkscape:connector-curvature="0" />
    <path
       style="fill:#007d00"
       d="m 332.72458,589.52542 v -263.5 h 29.5 29.5 v 263.5 263.5 h -29.5 -29.5 z m 181,0 v -263.5 h 2.5 2.5 v 263.5 263.5 h -2.5 -2.5 z"
       id="path5391"
       inkscape:connector-curvature="0" />
    <path
       style="fill:#007900"
       d="m 332.72458,589.52542 v -263.5 h 21.5 21.5 v 263.5 263.5 h -21.5 -21.5 z m 183,0 c 0,-233.55556 0.17046,-263.5 1.5,-263.5 1.32954,0 1.5,29.94444 1.5,263.5 0,233.55556 -0.17046,263.5 -1.5,263.5 -1.32954,0 -1.5,-29.94444 -1.5,-263.5 z"
       id="path5389"
       inkscape:connector-curvature="0" />
    <path
       style="fill:#007500"
       d="m 332.72458,589.52542 v -263.5 h 16 16 v 263.5 263.5 h -16 -16 z m 185.49257,0 c 1e-5,-145.2 0.11584,-204.45126 0.25741,-131.66946 0.14156,72.7818 0.14155,191.5818 -2e-5,264 -0.14157,72.4182 -0.2574,12.86946 -0.25739,-132.33054 z"
       id="path5387"
       inkscape:connector-curvature="0" />
    <path
       style="fill:#007100"
       d="m 332.72458,589.52542 v -263.5 h 12 12 v 263.5 263.5 h -12 -12 z m 185.49257,0 c 1e-5,-145.2 0.11584,-204.45126 0.25741,-131.66946 0.14156,72.7818 0.14155,191.5818 -2e-5,264 -0.14157,72.4182 -0.2574,12.86946 -0.25739,-132.33054 z"
       id="path5385"
       inkscape:connector-curvature="0" />
    <path
       style="fill:#006d00"
       d="m 333.72458,589.52542 v -263.5 h 8.5 8.5 v 263.5 263.5 h -8.5 -8.5 z"
       id="path5383"
       inkscape:connector-curvature="0" />
  </g>
</svg>
