<?xml version="1.0" encoding="UTF-8" standalone="no"?>
<!-- Created with Inkscape (http://www.inkscape.org/) -->

<svg
   xmlns:dc="http://purl.org/dc/elements/1.1/"
   xmlns:cc="http://creativecommons.org/ns#"
   xmlns:rdf="http://www.w3.org/1999/02/22-rdf-syntax-ns#"
   xmlns:svg="http://www.w3.org/2000/svg"
   xmlns="http://www.w3.org/2000/svg"
   xmlns:sodipodi="http://sodipodi.sourceforge.net/DTD/sodipodi-0.dtd"
   xmlns:inkscape="http://www.inkscape.org/namespaces/inkscape"
   version="1.1"
   id="svg2"
   width="469.00012"
   height="521.00067"
   viewBox="0 0 469.00012 521.00067"
   sodipodi:docname="tuberia_cruze_gris.svg"
   inkscape:version="0.92.5 (2060ec1f9f, 2020-04-08)">
  <metadata
     id="metadata8">
    <rdf:RDF>
      <cc:Work
         rdf:about="">
        <dc:format>image/svg+xml</dc:format>
        <dc:type
           rdf:resource="http://purl.org/dc/dcmitype/StillImage" />
        <dc:title></dc:title>
      </cc:Work>
    </rdf:RDF>
  </metadata>
  <defs
     id="defs6" />
  <sodipodi:namedview
     pagecolor="#ffffff"
     bordercolor="#666666"
     borderopacity="1"
     objecttolerance="10"
     gridtolerance="10"
     guidetolerance="10"
     inkscape:pageopacity="0"
     inkscape:pageshadow="2"
     inkscape:window-width="1920"
     inkscape:window-height="1017"
     id="namedview4"
     showgrid="false"
     inkscape:pagecheckerboard="true"
     fit-margin-top="0"
     fit-margin-left="0"
     fit-margin-right="0"
     fit-margin-bottom="0"
     inkscape:zoom="0.45297505"
     inkscape:cx="-403.50424"
     inkscape:cy="717.47913"
     inkscape:window-x="-8"
     inkscape:window-y="-8"
     inkscape:window-maximized="1"
     inkscape:current-layer="svg2" />
  <g
     id="g4749"
     transform="translate(0,3.2388101e-4)">
    <path
       style="fill:#e2dcd7"
       d="M 0,260.5 V 0 h 107 c 58.85,0 107.10533,0.1125 107.23408,0.25 0.12874,0.1375 0.46624,34 0.75,75.25 l 0.51592,75 126.5,0.50961 c 69.575,0.28029 126.6125,0.61779 126.75,0.75 C 468.8875,151.89183 469,200.15 469,259 c 0,58.85 -0.1125,107.10817 -0.25,107.24039 -0.1375,0.13221 -57.175,0.46971 -126.75,0.75 L 215.5,367.5 214.98437,444 c -0.28359,42.075 -0.62109,76.6125 -0.75,76.75 C 214.10547,520.8875 165.85,521 107,521 H 0 Z"
       id="path4777"
       inkscape:connector-curvature="0" />
    <path
       style="fill:#d6d1cc"
       d="M 0,260.5 V 0 h 106.89301 c 96.54996,0 106.95175,0.15305506 107.5,1.5817875 C 214.72686,2.4517706 215,36.881864 215,78.093105 v 74.929535 l 127.00006,-0.26132 127.00006,-0.26132 -6e-5,4.64301 c -4e-5,3.31129 -0.45375,4.81711 -1.58185,5.25 C 466.54823,162.72686 408.30398,163 337.98654,163 H 210.13666 l -4.56752,4.82417 C 198.42625,175.36841 187,190.5401 187,192.48013 187,192.76606 250.45,193 328,193 h 141 v 86.39301 c 0,77.85664 -0.15629,86.45299 -1.58179,87 -0.86998,0.33385 -58.01998,0.60699 -127,0.60699 H 215 v 75.41821 c 0,41.48002 -0.27314,76.13002 -0.60699,77 C 213.84476,520.84694 203.44297,521 106.89301,521 H 0 Z"
       id="path4775"
       inkscape:connector-curvature="0" />
    <path
       style="fill:#c6c2bd"
       d="M 0,260.5 V 0 h 107 107 l 0.0137,75.25 c 0.008,41.3875 0.2509,76.15 0.54086,77.25 0.3834,1.45447 -1.61261,4.59128 -7.31766,11.5 C 189.62034,185.33333 180,198.69805 180,201.83786 180,202.71535 215.39288,203 324.5,203 H 469 v 81.5 c 0,44.825 -0.1125,81.60819 -0.25,81.74042 -0.1375,0.13224 -57.4,0.46974 -127.25,0.75 L 214.5,367.5 214.24379,444.25 213.98758,521 H 106.99379 0 Z"
       id="path4773"
       inkscape:connector-curvature="0" />
    <path
       style="fill:#c1bcb8"
       d="M 0,260.5 V 0 h 107 107 v 77.461258 77.461262 l -9.25,11.29102 c -17.30538,21.12383 -29.44786,38.10843 -31.20734,43.65204 L 172.86522,212 H 320.93261 469 v 77 77 H 343.08179 c -69.25502,0 -126.63002,0.27314 -127.5,0.60699 -1.42341,0.54621 -1.58179,8.30612 -1.58179,77.5 V 521 H 107 0 Z"
       id="path4771"
       inkscape:connector-curvature="0" />
    <path
       style="fill:#b3aeaa"
       d="M 0,260.5 V 0 h 107 107 v 76.985439 76.985441 l -11.81624,14.76456 c -19.33104,24.15441 -29.09898,37.72458 -32.61114,45.30523 -1.35634,2.9275 -2.23848,5.69096 -1.96032,6.14103 0.27815,0.45006 68.20418,0.8183 150.94672,0.8183 L 469,221 v 72.49618 72.49619 L 341.75,366.24618 214.5,366.5 214.24383,443.75 213.98766,521 H 106.99383 0 Z"
       id="path4769"
       inkscape:connector-curvature="0" />
    <path
       style="fill:#a6a19d"
       d="M 0,260.5 V 0 L 106.75,-1.5272208e-4 213.5,-3.0544417e-4 213.23172,77.158297 l -0.26828,77.158603 -7.35446,9.09155 C 181.115,193.68782 173.73223,203.45833 167.3811,214 162.46278,222.16349 158,232.09417 158,234.87505 V 237 H 313.5 469 V 301.5 366 H 341.51905 214.0381 l -0.55087,2.25 c -0.30299,1.2375 -0.42406,36.11257 -0.26906,77.50016 L 213.5,521.00032 106.75,521.00016 0,521 Z"
       id="path4767"
       inkscape:connector-curvature="0" />
    <path
       style="fill:#a19d99"
       d="M 0,260.5 V 0 H 61.571429 C 113.6,0 123.36427,0.221412 124.57143,1.4285714 c 2.15527,2.1552764 2.15527,515.9875786 0,518.1428586 C 123.36427,520.77859 113.6,521 61.571429,521 H 0 Z m 183.60699,258.91821 c -0.33385,-0.86998 -0.60885,-43.95748 -0.61113,-95.75 l -0.004,-94.16821 -3.24587,-5.21389 c -1.78522,-2.86764 -4.86493,-7.59264 -6.8438,-10.5 -4.401,-6.46597 -12.89432,-20.73141 -15.86857,-26.65296 -5.32933,-10.61037 -7.85657,-29.55706 -4.79468,-35.94558 l 1.2881,-2.68757 155.48655,-0.27376 c 85.5176,-0.15057 156.49904,-0.0295 157.73654,0.26905 l 2.25,0.54281 v 58.47715 58.47715 l -127.75,0.2538 -127.75,0.2538 v 77.2501 77.25011 l -14.64301,-1.1e-4 c -12.42996,-8e-5 -14.73475,-0.23916 -15.25,-1.58189 z M 183,95.631478 C 183,44.774131 183.27314,2.4517706 183.60699,1.5817875 184.12315,0.23668312 186.45843,0 199.21398,0 212.48117,0 214.14386,0.18272856 213.60699,1.5817875 213.27314,2.4517706 213,37.085119 213,78.544784 v 75.381206 l -10.25,12.09026 c -5.6375,6.64965 -11.74992,13.9788 -13.58316,16.28701 C 182.51617,190.67705 183,197.47707 183,95.631478 Z"
       id="path4765"
       inkscape:connector-curvature="0" />
    <path
       style="fill:#9b9793"
       d="M 0,260.5 V 0 h 52.393011 c 46.853083,0 52.457189,0.16725492 52.999999,1.5817875 0.79359,2.0680621 0.79359,515.7683625 0,517.8364225 C 104.8502,520.83275 99.246094,521 52.393011,521 H 0 Z m 195.60699,258.91821 c -0.33385,-0.86998 -0.61466,-40.58248 -0.62404,-88.25 L 194.96595,344.5 192.233,339.97196 c -1.50312,-2.49042 -4.8869,-7.44042 -7.51951,-11 -16.79569,-22.70965 -27.56551,-41.02159 -29.78065,-50.6361 -1.6441,-7.13602 -2.73913,-15.65881 -2.19523,-17.08586 0.37833,-0.99264 32.65942,-1.25 156.78764,-1.25 85.97117,0 157.02303,0.27314 157.89301,0.60699 1.41453,0.54281 1.58179,6.14658 1.58179,52.9962 v 52.38921 l -127.75,0.2538 -127.75,0.2538 v 77.2501 77.25011 l -8.64301,-1.1e-4 c -6.95874,-8e-5 -8.7613,-0.30834 -9.25,-1.58189 z M 195.0432,88.331787 c -0.0238,-46.842516 0.22994,-85.8800164 0.56379,-86.7499995 0.4887,-1.27353725 2.29129,-1.581817961493 9.25,-1.58194381328 L 213.5,-3.1262656e-4 213.23144,76.228694 l -0.26856,76.229006 -2.34103,3.52115 c -1.28757,1.93663 -5.30977,6.67115 -8.93824,10.52115 l -6.5972,7 -0.0432,-85.168213 z"
       id="path4763"
       inkscape:connector-curvature="0" />
    <path
       style="fill:#918d8a"
       d="M 0,260.5 V 0 h 41.393011 c 36.822522,0 41.460033,0.17465612 42,1.5817875 0.79359,2.0680621 0.79359,515.7683625 0,517.8364225 -0.539967,1.40713 -5.177478,1.58179 -42,1.58179 H 0 Z m 205.98295,179.25 -0.017,-81.25 -2.73295,-4.54346 c -2.97734,-4.94976 -9.85075,-14.68105 -17.71932,-25.08679 -2.7575,-3.64664 -5.79081,-7.92164 -6.74069,-9.5 -0.94989,-1.57836 -3.50165,-5.34651 -5.67057,-8.37366 C 168.2875,304.27602 158,284.43178 158,281.86413 158,280.05336 162.4062,280 311.91821,280 c 84.65502,0 154.63002,0.27314 155.5,0.60699 1.40776,0.54021 1.5818,5.24361 1.58185,42.75 l 7e-5,42.14301 -125.75007,-0.27807 c -69.16253,-0.15294 -126.77068,-0.0298 -128.0181,0.27358 l -2.26805,0.55165 0.26805,77.47657 0.26804,77.47657 -3.75,-1.5e-4 L 206,521 Z M 206,80.034478 V 0 l 3.75,-1.6194051e-4 3.75,-1.619405e-4 L 213.26238,74.749838 c -0.13069,41.112592 -0.47448,75.753592 -0.76399,76.979992 -0.2895,1.22641 -1.87008,3.60443 -3.51238,5.28448 L 206,160.06896 Z"
       id="path4761"
       inkscape:connector-curvature="0" />
    <path
       style="fill:#8b8784"
       d="M 0,260.5 V 0 h 23.571429 c 19.095238,0 23.842712,0.27128427 25,1.4285714 2.155276,2.1552764 2.155276,515.9875786 0,518.1428586 -1.157288,1.15729 -5.904762,1.42857 -25,1.42857 H 0 Z m 211,182.96788 c 0,-63.3928 -0.2497,-78.11895 -1.36922,-80.75 -1.4892,-3.49984 -5.09548,-8.85521 -16.63078,-24.69689 -17.14862,-23.55058 -26,-37.50718 -26,-40.99603 0,-1.11398 297.52569,-1.52794 300.41821,-0.41797 1.39965,0.53709 1.5818,4.53857 1.58185,34.75 l 6e-5,34.14301 -126.25006,-0.27805 C 273.31253,365.06903 215.4875,365.1901 214.25,365.49101 L 212,366.0381 v 76.48095 C 212,492.83968 212.34205,519 213,519 c 0.55,0 1,0.45 1,1 0,0.55 -0.675,1 -1.5,1 -1.32044,0 -1.5,-9.28135 -1.5,-77.53212 z M 211.24358,76.25 C 211.02885,9.0306318 211.17765,0 212.5,0 c 0.825,0 1.5,0.45 1.5,1 0,0.55 -0.44715,1 -0.99367,1 -0.64711,0 -1.08532,26.245651 -1.25643,75.25 l -0.26274,75.25 z"
       id="path4759"
       inkscape:connector-curvature="0" />
    <path
       style="fill:#84817d"
       d="M 0,260.5 V 0 h 15.893011 c 13.569857,0 15.981738,0.23121712 16.5,1.5817875 0.79359,2.0680621 0.79359,515.7683625 0,517.8364225 C 31.874749,520.76878 29.462868,521 15.893011,521 H 0 Z M 339.87782,365.0057 212.25564,364.5 l -4.77858,-7 C 204.84885,353.65 199.53082,346.225 195.65923,341 185.36938,327.11308 174,309.99696 174,308.39295 174,307.20872 195.864,307 319.91821,307 c 80.25502,0 146.63002,0.27314 147.5,0.60699 1.39188,0.53411 1.58179,4.07584 1.58179,29.5 0,15.89115 -0.3375,28.78308 -0.75,28.64871 -0.4125,-0.13436 -58.17998,-0.47186 -128.37218,-0.75 z"
       id="path4757"
       inkscape:connector-curvature="0" />
    <path
       style="fill:#807d7a"
       d="M 0,260.5 V 0 h 10.893011 c 9.010511,0 10.99791,0.27336017 11.5,1.5817875 0.79359,2.0680621 0.79359,515.7683625 0,517.8364225 -0.50209,1.30843 -2.489489,1.58179 -11.5,1.58179 H 0 Z M 339.75,365.25003 C 269.4875,365.10833 212,364.61285 212,364.14895 212,363.22337 189.8694,331.71827 186.95856,328.5 185.24051,326.60049 180,316.88906 180,315.60477 c 0,-0.79215 285.35386,-0.78995 287.41821,0.002 1.38377,0.531 1.58179,3.72332 1.58179,25.5 0,13.69115 -0.3375,24.78224 -0.75,24.64685 -0.4125,-0.1354 -58.2375,-0.36211 -128.5,-0.50381 z"
       id="path4755"
       inkscape:connector-curvature="0" />
    <path
       style="fill:#777471"
       d="M 10.606989,519.41821 C 9.8133989,517.35015 9.8133989,3.6498496 10.606989,1.5817875 10.940833,0.71180436 11.840833,0 12.606989,0 13.794105,0 14,38.503305 14,260.5 14,482.49669 13.794105,521 12.606989,521 c -0.766156,0 -1.666156,-0.7118 -2,-1.58179 z M 340.28432,365.00573 213.06865,364.5 210.09485,360 c -1.6356,-2.475 -5.25067,-7.65 -8.0335,-11.5 C 194.37476,337.86573 186,325.44646 186,324.68196 186,324.30688 249.675,324 327.5,324 H 469 v 21 c 0,11.55 -0.3375,20.89008 -0.75,20.75573 -0.4125,-0.13436 -57.99705,-0.47186 -127.96568,-0.75 z"
       id="path4753"
       inkscape:connector-curvature="0" />
    <path
       style="fill:#625f5d"
       d="m 467,365 c 0,-0.66139 -42.77065,-1 -126.31194,-1 H 214.37612 l -2.39824,-3.24379 c -3.89234,-5.26467 -10.61109,-15.20234 -11.8757,-17.56529 L 198.92963,341 H 333.96482 469 v 12.5 c 0,7.66667 -0.38667,12.5 -1,12.5 -0.55,0 -1,-0.45 -1,-1 z"
       id="path4751"
       inkscape:connector-curvature="0" />
  </g>
</svg>
