<?xml version="1.0" encoding="UTF-8" standalone="no"?>
<!-- Created with Inkscape (http://www.inkscape.org/) -->

<svg
   xmlns:dc="http://purl.org/dc/elements/1.1/"
   xmlns:cc="http://creativecommons.org/ns#"
   xmlns:rdf="http://www.w3.org/1999/02/22-rdf-syntax-ns#"
   xmlns:svg="http://www.w3.org/2000/svg"
   xmlns="http://www.w3.org/2000/svg"
   xmlns:sodipodi="http://sodipodi.sourceforge.net/DTD/sodipodi-0.dtd"
   xmlns:inkscape="http://www.inkscape.org/namespaces/inkscape"
   version="1.1"
   id="svg2"
   width="709.00037"
   height="595.0191"
   viewBox="0 0 709.00037 595.0191"
   sodipodi:docname="tuberia_cruze_gris_abajo.svg"
   inkscape:version="0.92.5 (2060ec1f9f, 2020-04-08)">
  <metadata
     id="metadata8">
    <rdf:RDF>
      <cc:Work
         rdf:about="">
        <dc:format>image/svg+xml</dc:format>
        <dc:type
           rdf:resource="http://purl.org/dc/dcmitype/StillImage" />
        <dc:title></dc:title>
      </cc:Work>
    </rdf:RDF>
  </metadata>
  <defs
     id="defs6" />
  <sodipodi:namedview
     pagecolor="#ffffff"
     bordercolor="#666666"
     borderopacity="1"
     objecttolerance="10"
     gridtolerance="10"
     guidetolerance="10"
     inkscape:pageopacity="0"
     inkscape:pageshadow="2"
     inkscape:window-width="1920"
     inkscape:window-height="1017"
     id="namedview4"
     showgrid="false"
     inkscape:pagecheckerboard="true"
     fit-margin-top="0"
     fit-margin-left="0"
     fit-margin-right="0"
     fit-margin-bottom="0"
     inkscape:zoom="0.39663866"
     inkscape:cx="-6.0294812"
     inkscape:cy="786.62929"
     inkscape:window-x="-8"
     inkscape:window-y="-8"
     inkscape:window-maximized="1"
     inkscape:current-layer="svg2" />
  <g
     id="g4749"
     transform="translate(1.7882895e-4)">
    <path
       style="fill:#e5e0da"
       d="M 210.60699,593.41821 C 210.27314,592.54823 210,524.59823 210,442.41821 V 293 H 106.42857 C 18,293 2.6482759,292.79113 1.4285714,291.57143 0.20360601,290.34646 0,269.46667 0,145.07143 V 0 H 354.5 709 v 145.07143 c 0,124.39524 -0.20361,145.27503 -1.42857,146.5 C 706.35199,292.79086 691.2,293 604.07143,293 H 502 v 149.41821 c 0,82.18002 -0.27314,150.13002 -0.60699,151 C 500.84338,594.85052 487.10343,595 356,595 224.89657,595 211.15662,594.85052 210.60699,593.41821 Z"
       id="path4777"
       inkscape:connector-curvature="0" />
    <path
       style="fill:#e2ddd8"
       d="M 210.60699,593.41821 C 210.27314,592.54823 210,524.37323 210,441.91821 V 292 H 106.58179 C 49.701771,292 2.4517706,291.72686 1.5817875,291.39301 0.15141744,290.84413 0,279.15877 0,169.32158 0,65.385735 0.20615783,47.650985 1.4285714,46.428571 3.5851959,44.271947 705.4148,44.271947 707.57143,46.428571 708.79384,47.650985 709,65.385735 709,169.32158 709,279.15877 708.84858,290.84413 707.41821,291.39301 706.54823,291.72686 659.97323,292 603.91821,292 H 502 v 149.91821 c 0,82.45502 -0.27314,150.63002 -0.60699,151.5 C 500.84338,594.85052 487.10343,595 356,595 224.89657,595 211.15662,594.85052 210.60699,593.41821 Z M 1.25,27.337719 C 0.33717446,26.969386 0,23.214327 0,13.416667 V 0 H 354.5 709 v 13.393011 c 0,11.290184 -0.24836,13.488314 -1.58179,14 C 705.52511,28.119462 3.0510504,28.064459 1.25,27.337719 Z"
       id="path4775"
       inkscape:connector-curvature="0" />
    <path
       style="fill:#d6d1cc"
       d="M 210.60699,593.41821 C 210.27314,592.54823 210,524.37323 210,441.91821 V 292 H 106.58179 C 49.701771,292 2.4517706,291.72686 1.5817875,291.39301 0.15179261,290.84427 0,279.48296 0,173 0,66.517043 0.15179261,55.155729 1.5817875,54.606989 3.649971,53.813352 705.35003,53.813352 707.41821,54.606989 708.84821,55.155729 709,66.517043 709,173 709,279.48296 708.84821,290.84427 707.41821,291.39301 706.54823,291.72686 659.97323,292 603.91821,292 H 502 v 149.91821 c 0,82.45502 -0.27314,150.63002 -0.60699,151.5 C 500.84338,594.85052 487.10343,595 356,595 224.89657,595 211.15662,594.85052 210.60699,593.41821 Z M 1.25,13.337719 C 0.43227387,13.00776 0,10.614327 0,6.4166667 V 0 H 354.5 709 v 6.3930112 c 0,4.9070998 -0.36765,6.5340918 -1.58179,6.9999998 C 705.52511,14.119462 3.0510504,14.064459 1.25,13.337719 Z"
       id="path4773"
       inkscape:connector-curvature="0" />
    <path
       style="fill:#c6c1bc"
       d="M 210.75323,443.75 210.5,292.5 105.5,291.98848 C 47.75,291.70714 0.3875,291.36964 0.25,291.23848 0.1125,291.10732 0,241.05 0,180 V 69 H 354.5 709 v 111 c 0,61.05 -0.1125,111.10724 -0.25,111.23832 -0.1375,0.13107 -46.825,0.46857 -103.75,0.75 L 501.5,292.5 501.24677,443.75 500.99355,595 H 356 211.00645 Z"
       id="path4771"
       inkscape:connector-curvature="0" />
    <path
       style="fill:#c1bcb8"
       d="m 211,443.60699 c 0,-137.12814 -0.14904,-151.45021 -1.58179,-152 C 208.54823,291.27314 161.07323,291 103.91821,291 H 0 V 186.5 82 H 354.5 709 V 186.49535 290.9907 L 605.25,291.24535 501.5,291.5 501.24678,443.25 500.99357,595 H 355.99678 211 Z"
       id="path4769"
       inkscape:connector-curvature="0" />
    <path
       style="fill:#b3aeaa"
       d="M 210.75322,443.25 210.5,291.5 105.25,291.24541 0,290.99083 V 192.49541 94 H 354.5 709 v 98.49535 98.49535 L 605.25,291.24535 501.5,291.5 501.24678,443.25 500.99357,595 H 356 211.00643 Z"
       id="path4767"
       inkscape:connector-curvature="0" />
    <path
       style="fill:#a5a19d"
       d="M 211.77714,445.25005 C 211.92957,362.88752 211.8085,294.4875 211.50809,293.25 L 210.9619,291 H 105.48095 0 v -87.39301 c 0,-78.76851 0.15610098,-87.45291 1.5817875,-88 2.0681835,-0.79364 703.7682425,-0.79364 705.8364225,0 1.42569,0.54709 1.58179,9.23109 1.58179,87.99537 v 87.38838 L 604.75,291.24537 500.5,291.5 v 151.75003 151.75003 l -144.5,1e-5 -144.5,2e-5 z"
       id="path4765"
       inkscape:connector-curvature="0" />
    <path
       style="fill:#a19d99"
       d="M 211.5,443.25003 V 291.5 L 105.75,291.24543 0,290.99087 v -79.88845 c 0,-71.92532 0.15766945,-79.94895 1.5817875,-80.49543 2.0681835,-0.79364 703.7682425,-0.79364 705.8364225,0 1.42412,0.54648 1.58179,8.5701 1.58179,80.49537 v 79.88838 L 604.75,291.24537 500.5,291.5 v 151.75003 151.75003 l -18.82143,-3e-5 c -14.97854,-2e-5 -19.11311,-0.29171 -20.25,-1.4286 C 460.20211,592.34497 460,568.97991 460,428.42076 V 264.69867 l -5.44825,-5.27693 c -2.99654,-2.90232 -8.28404,-7.1713 -11.75,-9.48664 -3.46596,-2.31534 -6.97675,-4.98103 -7.80175,-5.92376 -2.12364,-2.4267 -18.04278,-13.48286 -23.18877,-16.10506 -2.37118,-1.20826 -7.0773,-3.94248 -10.45806,-6.07604 C 396.65128,218.86292 382.68932,213 380.32485,213 380.14618,213 380,298.30714 380,402.57143 c 0,162.9619 -0.20052,189.77195 -1.42857,191 -1.2151,1.21509 -13.80479,1.42857 -84.25,1.4286 l -82.82143,3e-5 z"
       id="path4763"
       inkscape:connector-curvature="0" />
    <path
       style="fill:#9b9793"
       d="M 211.5,443.25003 V 291.5 L 105.75,291.24543 0,290.99087 v -71.06686 c 0,-60.25795 0.21727858,-71.28415 1.4285714,-72.49544 2.1566245,-2.15662 703.9862286,-2.15662 706.1428586,0 1.21129,1.21129 1.42857,12.23748 1.42857,72.49537 v 71.0668 L 604.75,291.24537 500.5,291.5 v 151.75003 151.75003 l -11.14301,-3e-5 c -9.23846,-2e-5 -11.24676,-0.27039 -11.75,-1.58182 -0.33385,-0.86998 -0.6129,-72.30748 -0.62013,-158.75 L 476.97372,277.5 l -6.54723,-5.90242 c -3.60098,-3.24633 -8.20757,-7.10881 -10.23686,-8.58328 -2.0293,-1.47447 -4.34583,-3.47739 -5.14785,-4.45093 -0.80202,-0.97354 -5.75202,-4.90317 -11,-8.73251 C 438.7938,246.00151 430.675,239.97137 426,236.43055 c -4.675,-3.54083 -10.075,-7.2129 -12,-8.16016 -1.925,-0.94725 -5.975,-3.35726 -9,-5.35558 -12.92357,-8.53731 -26.73545,-13.47191 -40.25,-14.3802 L 355,207.87933 v 192.13176 c 0,165.18087 -0.20039,192.33216 -1.42857,193.56034 -1.21101,1.21101 -12.13812,1.42857 -71.75,1.4286 l -70.32143,3e-5 z"
       id="path4761"
       inkscape:connector-curvature="0" />
    <path
       style="fill:#8b8784"
       d="m 211.75952,443.02148 0.25952,-151.9786 -2.25952,-0.55071 c -1.24274,-0.3029 -48.94706,-0.42504 -106.00961,-0.27144 L -1.7882895e-4,290.5 -8.9414473e-5,237.35699 C -9.4323709e-6,189.82006 0.16686343,184.14995 1.5817875,183.60699 c 2.0681835,-0.79364 703.7682425,-0.79364 705.8364225,0 1.41493,0.54296 1.5818,6.21307 1.58188,53.75 l 9e-5,53.14301 -103.03998,-0.26384 c -70.4787,-0.18046 -103.65939,0.0677 -105.00009,0.78519 C 499.02663,292.05612 499,294.11451 499,442.53518 499,542.17839 499.33776,593 500,593 c 0.55,0 1,0.45 1,1 0,1.67243 -5.72802,1.15116 -6.39301,-0.58179 C 494.27314,592.54823 494,523.77073 494,440.57932 V 289.32222 L 480.83098,278.41111 C 452.128,254.62943 416.73015,227.6589 412.53822,226.3771 c -1.12102,-0.34278 -4.94673,-2.68411 -8.50158,-5.20295 -16.14813,-11.44199 -37.83394,-16.76459 -57.71964,-14.16681 -8.05992,1.05292 -11.65575,2.14392 -20.09031,6.09555 -6.12851,2.87124 -12.4778,6.74644 -15.73738,9.6051 l -5.46407,4.79201 -0.0126,182.32143 c -0.0108,156.6667 -0.21364,182.52244 -1.44119,183.75 -1.19607,1.19606 -8.80481,1.42858 -46.75,1.42861 l -45.32143,5e-5 0.25952,-151.97861 z"
       id="path4759"
       inkscape:connector-curvature="0" />
    <path
       style="fill:#84817d"
       d="m 211,594 c 0,-0.55 0.45,-1 1,-1 0.66223,0 1,-50.79252 1,-150.37756 0,-126.04689 -0.22148,-150.56136 -1.36888,-151.51362 -1.00722,-0.83592 -29.14375,-1.06641 -106.50008,-0.87244 L -1.7415998e-4,290.5 -8.7079991e-5,250.76905 0,211.0381 2.25,210.49534 c 1.2375,-0.29853 74.25,-0.4196 162.25,-0.26906 l 160,0.27372 -6.05983,3.1684 c -3.33291,1.74262 -6.66216,3.89415 -7.39833,4.78119 -0.73618,0.88704 -5.29111,4.05778 -10.12208,7.04609 -12.00936,7.42869 -36.30949,26.46179 -41.86961,32.79443 L 256,261.76403 v 165.0362 c 0,90.76991 -0.27314,165.748 -0.60699,166.61798 C 254.86509,594.79395 251.93408,595 232.89301,595 218.96434,595 211,594.63622 211,594 Z M 493.06631,287.0716 c -2.51147,-1.88561 -8.75016,-6.83561 -13.86376,-11 -5.1136,-4.16438 -11.90606,-9.5966 -15.09435,-12.0716 -3.18829,-2.475 -8.48875,-6.75 -11.77881,-9.5 -3.29006,-2.75 -7.9726,-6.45684 -10.40566,-8.23742 C 439.49068,244.482 433,239.62867 427.5,235.47741 c -5.5,-4.15126 -11.8,-8.49437 -14,-9.65134 -2.2,-1.15698 -6.9108,-4.17866 -10.46843,-6.71484 -3.55764,-2.53617 -8.28264,-5.51123 -10.5,-6.61123 l -4.03157,-2 158,-0.27374 c 86.9,-0.15055 159.0125,-0.0295 160.25,0.26906 l 2.25,0.54278 -3e-5,39.73095 -3e-5,39.73095 H 603.31628 497.63262 Z"
       id="path4757"
       inkscape:connector-curvature="0" />
    <path
       style="fill:#817d7a"
       d="m 211,594 c 0,-0.55 0.45,-1 1,-1 0.66225,0 1,-50.99365 1,-150.98095 V 291.0381 l -2.25,-0.54829 c -1.2375,-0.30156 -49.16254,-0.42263 -106.50009,-0.26905 L -1.7725205e-4,290.5 -8.8626024e-5,255.76905 0,221.0381 2.25,220.49524 c 1.2375,-0.29857 70.19656,-0.41964 153.24236,-0.26905 l 150.99235,0.27381 -7.49235,4.91415 c -8.29319,5.43941 -30.85732,23.03735 -40.49947,31.58585 -3.412,3.025 -8.06872,7.14166 -10.34826,9.14813 L 244,269.79627 v 161.02008 c 0,88.56104 -0.27314,161.73188 -0.60699,162.60186 C 242.87475,594.76878 240.46287,595 226.89301,595 216.96434,595 211,594.62472 211,594 Z M 495.45291,288.40341 c -1.69928,-1.15312 -8.61937,-6.55312 -15.37799,-12 -6.75861,-5.44687 -14.60286,-11.61648 -17.43166,-13.71023 -2.82879,-2.09376 -6.71826,-5.33094 -8.64326,-7.19374 -1.925,-1.8628 -6.50045,-5.54973 -10.16766,-8.19318 -3.66721,-2.64344 -11.35752,-8.44939 -17.08956,-12.9021 -5.73205,-4.45272 -12.2941,-9.14808 -14.58234,-10.43415 C 409.8722,222.68395 408,221.26458 408,220.81586 c 0,-0.93089 296.99674,-1.13808 299.41821,-0.20887 1.40026,0.53733 1.58179,4.58261 1.58182,35.25 l 3e-5,34.64301 H 603.77128 c -105.19561,0 -105.22975,-6.6e-4 -108.31837,-2.09659 z"
       id="path4755"
       inkscape:connector-curvature="0" />
    <path
       style="fill:#75726f"
       d="M 2.6493688e-5,262.85699 C 3.2190304e-6,238.57265 0.19219,235.14023 1.5817875,234.60699 4.0568993,233.6572 282,233.89585 282,234.84776 c 0,1.12678 -21.23012,19.63266 -33.3713,29.0891 -2.8132,2.19113 -6.69095,5.61685 -17.64515,15.58823 -1.93405,1.76053 -6.0903,4.84742 -9.23611,6.85978 l -5.71966,3.65882 -108.01386,0.22815 L 5.2987375e-5,290.5 Z M 602.5,290.00912 497.5,289.5 490,283.82054 c -4.125,-3.1237 -10.2,-7.96346 -13.5,-10.75503 -3.3,-2.79157 -7.99686,-6.53581 -10.43747,-8.32054 -2.4406,-1.78473 -6.83471,-5.38414 -9.76468,-7.99868 -2.92997,-2.61454 -8.69561,-7.24475 -12.81253,-10.28936 -4.11693,-3.04461 -7.48661,-5.85544 -7.4882,-6.24629 C 435.99554,239.81979 434.64684,238.6 433,237.5 c -1.64684,-1.1 -2.99554,-2.3375 -2.99712,-2.75 -0.003,-0.88762 275.10532,-1.02945 277.41533,-0.14301 1.39007,0.53342 1.58179,3.98771 1.58179,28.5 0,15.34115 -0.3375,27.78461 -0.75,27.65213 -0.4125,-0.13249 -48,-0.46999 -105.75,-0.75 z"
       id="path4753"
       inkscape:connector-curvature="0" />
    <path
       style="fill:#625f5d"
       d="m 0,274.60699 c 0,-14.02579 0.22841675,-16.48066 1.5817875,-17 2.6265161,-1.00789 250.6206625,-0.70497 250.2515425,0.30568 -0.83711,2.292 -23.49892,21.45053 -33.01351,27.90997 L 214.13965,289 H 108.06982 C 38.023275,289 2,289.33962 2,290 c 0,0.55 -0.45,1 -1,1 -0.62599893,0 -1,-6.131 -1,-16.39301 z M 707,290 c 0,-0.66023 -35.18858,-1 -103.56574,-1 -75.77071,0 -104.15196,-0.30691 -105.75,-1.14355 C 496.48292,287.2275 489.875,282.269 483,276.83756 464.84659,262.49587 460.15793,258.59215 460.07439,257.75 c -0.088,-0.88765 245.03398,-1.02938 247.34382,-0.14301 1.35337,0.51934 1.58179,2.97421 1.58179,17 C 709,284.869 708.626,291 708,291 c -0.55,0 -1,-0.45 -1,-1 z"
       id="path4751"
       inkscape:connector-curvature="0" />
  </g>
</svg>
