<?xml version="1.0" encoding="UTF-8" standalone="no"?>
<!-- Created with Inkscape (http://www.inkscape.org/) -->

<svg
   xmlns:dc="http://purl.org/dc/elements/1.1/"
   xmlns:cc="http://creativecommons.org/ns#"
   xmlns:rdf="http://www.w3.org/1999/02/22-rdf-syntax-ns#"
   xmlns:svg="http://www.w3.org/2000/svg"
   xmlns="http://www.w3.org/2000/svg"
   xmlns:sodipodi="http://sodipodi.sourceforge.net/DTD/sodipodi-0.dtd"
   xmlns:inkscape="http://www.inkscape.org/namespaces/inkscape"
   version="1.1"
   id="svg2"
   width="599.00006"
   height="715.00073"
   viewBox="0 0 599.00006 715.00073"
   sodipodi:docname="tuberia_cruze_gris_izq.svg"
   inkscape:version="0.92.5 (2060ec1f9f, 2020-04-08)">
  <metadata
     id="metadata8">
    <rdf:RDF>
      <cc:Work
         rdf:about="">
        <dc:format>image/svg+xml</dc:format>
        <dc:type
           rdf:resource="http://purl.org/dc/dcmitype/StillImage" />
        <dc:title></dc:title>
      </cc:Work>
    </rdf:RDF>
  </metadata>
  <defs
     id="defs6" />
  <sodipodi:namedview
     pagecolor="#ffffff"
     bordercolor="#666666"
     borderopacity="1"
     objecttolerance="10"
     gridtolerance="10"
     guidetolerance="10"
     inkscape:pageopacity="0"
     inkscape:pageshadow="2"
     inkscape:window-width="1920"
     inkscape:window-height="1017"
     id="namedview4"
     showgrid="false"
     inkscape:pagecheckerboard="true"
     fit-margin-top="0"
     fit-margin-left="0"
     fit-margin-right="0"
     fit-margin-bottom="0"
     inkscape:zoom="0.33006993"
     inkscape:cx="984.20347"
     inkscape:cy="1008.8773"
     inkscape:window-x="-8"
     inkscape:window-y="-8"
     inkscape:window-maximized="1"
     inkscape:current-layer="svg2" />
  <g
     id="g4749"
     transform="translate(-551.39823,-615.02068)">
    <path
       style="fill:#e2dcd7"
       d="m 857.15995,1329.7712 c -0.13111,-0.1375 -0.46861,-47.05 -0.75,-104.25 l -0.51163,-104 -152,-0.508 c -83.6,-0.2794 -152.1125,-0.6169 -152.25,-0.75 -0.1375,-0.1331 -0.25,-66.167 -0.25,-146.74196 0,-80.575 0.1125,-146.60888 0.25,-146.74196 0.1375,-0.13308 68.65,-0.47058 152.25,-0.75 l 152,-0.50804 0.51152,-105 c 0.28134,-57.75 0.61884,-105.1125 0.75,-105.25 0.13116,-0.1375 66.16348,-0.25 146.73846,-0.25 h 146.5 v 357.5 357.49996 h -146.5 c -80.57498,0 -146.60725,-0.1125 -146.73835,-0.25 z"
       id="path4777"
       inkscape:connector-curvature="0" />
    <path
       style="fill:#d6d1cc"
       d="m 857.00531,1328.4395 c -0.33385,-0.87 -0.60699,-47.895 -0.60699,-104.5 V 1121.0212 H 705.48011 c -83.00502,0 -151.63002,-0.2731 -152.5,-0.6069 -1.43006,-0.5488 -1.58179,-11.9636 -1.58179,-119 V 883.02124 H 723.424 895.44968 l -1.51134,-2.92262 c -0.83124,-1.60743 -3.3178,-5.0098 -5.52568,-7.56081 -2.20789,-2.55102 -4.01434,-5.05608 -4.01434,-5.5668 0,-0.51073 -2.1375,-3.34862 -4.75,-6.30643 -2.6125,-2.95781 -7.36548,-8.36258 -10.56217,-12.01059 l -5.81218,-6.63275 H 708.91793 c -84.89582,0 -155.06784,-0.27314 -155.93782,-0.60699 -1.22272,-0.4692 -1.5818,-2.11495 -1.58182,-7.25 l -3e-5,-6.64301 h 152.25003 152.25003 l 0.51141,-106 c 0.28128,-58.3 0.61878,-106.1125 0.75,-106.25 0.13123,-0.1375 66.16359,-0.25 146.73857,-0.25 h 146.5 v 357.5 357.49996 h -146.393 c -132.56878,0 -146.45032,-0.1493 -146.99999,-1.5817 z"
       id="path4775"
       inkscape:connector-curvature="0" />
    <path
       style="fill:#c7c2bd"
       d="m 857.15295,1225.7712 -0.25463,-104.25 -152.5,-0.508 c -83.875,-0.2794 -152.6125,-0.6169 -152.75,-0.75 -0.1375,-0.1331 -0.25,-50.3688 -0.25,-111.635 0,-100.65334 0.1525,-111.4515 1.58179,-111.99997 0.86998,-0.33385 80.29498,-0.60699 176.5,-0.60699 96.20501,0 174.91821,-0.36134 174.91821,-0.80298 0,-1.60264 -11.31911,-18.80199 -15.02646,-22.83266 -2.09215,-2.2746 -4.4874,-5.45738 -5.32279,-7.07283 -0.83538,-1.61546 -2.25354,-3.54691 -3.15145,-4.29211 -2.31359,-1.92011 -16.41457,-19.44911 -20.89699,-25.97714 -2.95558,-4.30442 -3.6371,-6.09831 -3.18177,-8.375 0.3187,-1.5935 0.57946,-49.86603 0.57946,-107.27228 v -104.375 h 146.49998 146.5 v 357.5 357.49996 H 1003.903 857.40758 Z"
       id="path4773"
       inkscape:connector-curvature="0" />
    <path
       style="fill:#c2bdb8"
       d="m 857.39832,1225.6282 c 0,-94.2702 -0.15338,-104.4518 -1.58179,-105 -0.86998,-0.3338 -69.71998,-0.607 -153,-0.607 H 551.39832 v -105.393 c 0,-95.18212 0.15325,-105.45179 1.58179,-105.99997 0.86998,-0.33385 82.31998,-0.60699 181,-0.60699 98.68001,0 179.41081,-0.3375 179.40176,-0.75 -0.0446,-2.03264 -18.85131,-29.8733 -22.44928,-33.23294 -1.4625,-1.36562 -3.61164,-4.06562 -4.77587,-6 -1.16424,-1.93438 -3.72366,-5.3453 -5.6876,-7.57981 -11.50073,-13.08519 -24.37992,-31.18932 -23.61184,-33.19091 0.29757,-0.77545 0.54104,-48.84811 0.54104,-106.82813 V 615.02124 h 146.49998 146.5 v 357.5 357.49996 h -146.5 -146.49998 z"
       id="path4771"
       inkscape:connector-curvature="0" />
    <path
       style="fill:#b3afaa"
       d="m 857.15293,1225.2712 -0.25461,-104.75 -152.75,-0.2531 -152.75,-0.2532 v -98.9968 -98.99686 h 185 c 161.11505,0 185,-0.18759 185,-1.45295 0,-2.4858 -2.23051,-6.70126 -8.75547,-16.54705 -12.62266,-19.04686 -19.00419,-28.01561 -23.08074,-32.43813 -2.29008,-2.48445 -4.16379,-4.92046 -4.16379,-5.41336 0,-0.4929 -2.3625,-3.60585 -5.25,-6.91765 -7.3895,-8.47537 -14.78867,-17.81779 -19.08166,-24.09307 l -3.66834,-5.36221 V 722.40903 615.02124 h 146.49998 146.5 v 357.5 357.49996 H 1003.9029 857.40753 Z"
       id="path4769"
       inkscape:connector-curvature="0" />
    <path
       style="fill:#a6a19d"
       d="m 858.17766,1227.2713 c 0.15364,-56.5125 0.0326,-103.7626 -0.26905,-105.0001 l -0.54839,-2.25 H 704.37927 551.39832 v -88.5 -88.49996 h 191 191 v -2.35908 c 0,-5.01443 -16.14875,-33.17193 -27.03602,-47.14092 -2.57199,-3.3 -5.92862,-8.025 -7.45918,-10.5 -1.53056,-2.475 -4.63278,-6.5407 -6.89382,-9.03488 -2.26104,-2.49418 -5.5823,-6.54418 -7.38059,-9 -1.79828,-2.45582 -5.77585,-7.61512 -8.83905,-11.46512 -9.0394,-11.36125 -15.98408,-20.86439 -16.74373,-22.91224 -0.39015,-1.05174 -0.80796,-49.98921 -0.92848,-108.74994 l -0.21913,-106.8377 146.24998,-6e-5 146.25,-6e-5 v 357.5 357.49996 l -146.25,1e-4 -146.24998,10e-5 z"
       id="path4767"
       inkscape:connector-curvature="0" />
    <path
       style="fill:#a19d99"
       d="m 857.89832,1225.2713 v -104.7501 l -153.25,-0.2531 -153.25,-0.2532 v -79.8899 c 0,-71.92654 0.15767,-79.95029 1.58179,-80.49677 0.86998,-0.33385 88.12716,-0.60699 193.90484,-0.60699 h 192.32306 l -0.4916,-4.25 c -0.82283,-7.11375 -5.1933,-19.19185 -9.3715,-25.89881 -2.17611,-3.49315 -5.28838,-8.8943 -6.91617,-12.00254 -1.62779,-3.10824 -5.93352,-9.85824 -9.5683,-15 -3.63477,-5.14176 -8.9382,-12.69275 -11.7854,-16.77999 -2.8472,-4.08724 -7.29302,-9.8061 -9.87962,-12.70858 -2.58659,-2.90248 -5.36942,-6.56615 -6.18406,-8.14149 -0.81464,-1.57534 -2.24123,-3.49505 -3.1702,-4.26603 -2.27844,-1.89094 -15.25075,-18.15885 -19.78772,-24.81477 l -3.65512,-5.36221 v -105.806 c 0,-58.19331 -0.27314,-106.51781 -0.60699,-107.38779 -0.55055,-1.43471 7.26663,-1.58179 84.07143,-1.58179 72.05464,0 84.89144,0.21297 86.10704,1.42857 2.1566,2.15666 2.1566,709.98619 0,712.14289 -1.2156,1.2155 -14.0049,1.4286 -85.75005,1.4286 l -84.32143,10e-5 z m 251.74998,103.2541 c -0.995,-1.1301 -1.25,-73.7663 -1.25,-356.03338 0,-305.99849 0.1959,-354.80948 1.4286,-356.04221 1.1408,-1.14077 5.3714,-1.42857 21,-1.42857 h 19.5714 v 357.5 357.49996 l -19.75,-0.038 c -15.77,-0.03 -20.0019,-0.3241 -21,-1.4577 z"
       id="path4765"
       inkscape:connector-curvature="0" />
    <path
       style="fill:#9b9793"
       d="m 857.89832,1225.2713 v -104.7501 l -153.25,-0.2531 -153.25,-0.2532 v -71.0683 c 0,-60.25912 0.21728,-71.2855 1.42857,-72.49679 1.22826,-1.22825 28.57143,-1.42857 195,-1.42857 h 193.57143 v -4.42764 c 0,-13.92849 -5.03907,-31.68116 -12.08858,-42.58811 -2.15256,-3.33044 -5.10049,-8.40185 -6.55095,-11.2698 -1.45045,-2.86795 -5.83742,-9.62642 -9.74883,-15.01884 -3.9114,-5.39241 -9.46181,-13.20755 -12.33423,-17.36699 -2.87243,-4.15944 -7.14743,-9.70729 -9.5,-12.32856 -2.35258,-2.62128 -5.5262,-6.50613 -7.05251,-8.63301 -1.5263,-2.12688 -5.27888,-7.01705 -8.33905,-10.86705 -3.06017,-3.85 -8.11138,-10.375 -11.2249,-14.5 l -5.66095,-7.5 -0.25,-53.75 c -0.1375,-29.5625 -0.3625,-78.05013 -0.5,-107.75028 l -0.25,-54.00028 71.32143,2.8e-4 c 60.4783,2.4e-4 71.53865,0.21747 72.74995,1.42885 2.1567,2.15666 2.1567,709.98619 0,712.14289 -1.2113,1.2114 -12.27144,1.4286 -72.74995,1.4286 l -71.32143,10e-5 z m 268.10698,103.1681 c -0.7936,-2.0681 -0.7936,-709.76819 0,-711.83637 0.5064,-1.31969 2.5776,-1.58179 12.5,-1.58179 h 11.893 v 357.5 357.49996 h -11.893 c -9.9224,0 -11.9936,-0.2621 -12.5,-1.5818 z"
       id="path4763"
       inkscape:connector-curvature="0" />
    <path
       style="fill:#95918d"
       d="m 858.16187,1225.0692 0.26355,-104.9522 -3.26355,-0.5845 c -1.79495,-0.3214 -70.87607,-0.4554 -153.51359,-0.2978 l -150.25005,0.2865 5e-5,-60.75 c 2e-5,-33.4125 0.11254,-60.8596 0.25004,-60.9936 0.1375,-0.134 87.08131,-0.4715 193.20847,-0.75 l 192.95847,-0.50636 1.20263,-3.5 c 0.66144,-1.925 1.93151,-6.875 2.82236,-11 1.46219,-6.77049 1.47679,-8.61858 0.15016,-19 -1.73763,-13.59765 -6.24083,-26.64139 -12.26802,-35.53493 -2.22341,-3.28079 -5.06922,-7.99007 -6.32402,-10.46507 -1.25481,-2.475 -5.48065,-8.92356 -9.39076,-14.33014 -3.91011,-5.40658 -9.72096,-13.50658 -12.91299,-18 -3.19204,-4.49342 -7.30152,-9.74486 -9.13218,-11.66986 -1.83066,-1.925 -4.39399,-5.134 -5.6963,-7.13111 -1.3023,-1.99712 -4.61782,-6.33069 -7.36782,-9.63017 -8.88319,-10.65816 -14.21078,-17.62872 -17.37917,-22.73872 l -3.10019,-5 -0.26032,-106.75008 -0.26032,-106.75009 60.14301,9e-5 c 53.92002,7e-5 60.20582,0.16375 60.75,1.58187 0.79364,2.06818 0.79364,709.76827 0,711.83647 -0.54418,1.4181 -6.82998,1.5818 -60.75,1.5818 l -60.14301,10e-5 z M 1137.3983,972.52124 v -357.5 h 6.5 6.5 v 357.5 357.49996 h -6.5 -6.5 z"
       id="path4761"
       inkscape:connector-curvature="0" />
    <path
       style="fill:#918d8a"
       d="m 858.16188,1225.0438 0.26356,-104.9776 -2.26356,-0.5496 c -1.24496,-0.3022 -70.32608,-0.4249 -153.5136,-0.2725 l -151.25005,0.2771 5e-5,-53.143 c 4e-5,-47.5369 0.1669,-53.207 1.58183,-53.75 0.86998,-0.3338 86.33732,-0.607 189.92742,-0.607 h 188.34563 l 2.08255,-2.6475 c 4.28189,-5.4435 8.09222,-14.90391 9.49144,-23.56557 0.77414,-4.79221 1.67367,-9.14372 1.99895,-9.67004 0.94766,-1.53335 -2.15072,-21.09996 -4.29396,-27.11685 -3.66243,-10.28178 -6.62595,-16.48851 -10.74307,-22.5 -2.26008,-3.3 -5.13503,-8.025 -6.38876,-10.5 -4.58841,-9.05798 -26.32888,-38.3381 -41.10067,-55.3545 -1.97927,-2.28002 -5.12927,-6.20639 -7,-8.72525 -1.87072,-2.51886 -5.90302,-7.91886 -8.96064,-12 -3.05763,-4.08114 -6.09551,-8.77025 -6.75085,-10.42025 -0.88988,-2.24054 -1.25459,-29.77082 -1.44067,-108.75009 l -0.24916,-105.75008 45.82143,8e-5 c 38.37849,8e-5 46.05348,0.23214 47.25,1.42866 2.15665,2.15666 2.15665,709.98619 0,712.14289 -1.19652,1.1965 -8.87151,1.4286 -47.25,1.4286 l -45.82143,10e-5 z M 1143.3983,972.52124 v -357.5 h 3.5 3.5 v 357.5 357.49996 h -3.5 -3.5 z"
       id="path4759"
       inkscape:connector-curvature="0" />
    <path
       style="fill:#8b8884"
       d="m 857.39832,1329.0212 c 0,-0.55 0.45,-1 1,-1 1.60521,0 1.35785,-205.1302 -0.25,-207.3206 -1.16932,-1.5931 -11.10878,-1.6861 -154.00004,-1.4412 l -152.75005,0.2618 5e-5,-47.143 c 4e-5,-42.0657 0.1704,-47.2083 1.58183,-47.75 1.90561,-0.7312 370.68312,-0.8262 372.58642,-0.096 2.05285,0.7877 1.44904,302.0147 -0.60952,304.0732 -1.16403,1.164 -7.29752,1.4158 -34.48726,1.4158 -21.38095,0 -33.07143,-0.3534 -33.07143,-1 z m 289.60698,-0.5817 c -0.7936,-2.0682 -0.7936,-709.76829 0,-711.83647 0.3339,-0.86999 1.2338,-1.58179 2,-1.58179 1.1881,0 1.393,52.59219 1.393,357.5 0,304.90786 -0.2049,357.49996 -1.393,357.49996 -0.7662,0 -1.6661,-0.7118 -2,-1.5817 z M 922.61148,912.79867 c -1.80776,-2.90259 -5.40776,-8.03814 -8,-11.41233 -2.59224,-3.3742 -7.63816,-10.08499 -11.21316,-14.91287 -3.575,-4.82788 -8.8625,-11.46144 -11.75,-14.74126 -2.8875,-3.27981 -5.25,-6.36658 -5.25,-6.85948 0,-0.4929 -1.74304,-2.79862 -3.87341,-5.12383 -5.63932,-6.15507 -13.54716,-16.19101 -18.69975,-23.73209 l -4.49777,-6.58272 0.0527,-106.20642 c 0.0354,-71.37196 -0.28094,-106.20643 -0.96453,-106.20643 -0.55948,0 -1.01724,-0.45 -1.01724,-1 0,-0.64651 11.69048,-1 33.07143,-1 27.36361,0 33.31855,0.24712 34.50325,1.43182 1.23198,1.23198 1.39647,22.3812 1.17857,151.52743 l -0.25325,150.0956 z"
       id="path4757"
       inkscape:connector-curvature="0" />
    <path
       style="fill:#84817d"
       d="m 857.39832,1329.0212 c 0,-0.55 0.45,-1 1,-1 0.66022,0 1,-35.1258 1,-103.3775 0,-86.0876 -0.22812,-103.5669 -1.36393,-104.5095 -1.00519,-0.8343 -41.51056,-1.0637 -154.00004,-0.8725 l -152.63612,0.2595 5e-5,-39.643 c 4e-5,-35.2267 0.17625,-39.7106 1.58183,-40.25 0.86998,-0.3338 82.54498,-0.607 181.5,-0.607 160.75247,0 179.91821,0.1629 179.91821,1.5286 0,1.8608 -4.99844,11.9067 -8.46868,17.0204 l -2.53132,3.7301 v 132.7787 c 0,73.0283 -0.27314,133.4905 -0.60699,134.3605 -0.52849,1.3772 -3.50299,1.5817 -23,1.5817 -14.26201,0 -22.39301,-0.3631 -22.39301,-1 z M 1149.8928,972.52124 c 0,-196.9 0.115,-277.30093 0.2555,-178.66873 0.1405,98.63219 0.1405,259.73219 0,357.99999 -0.1405,98.2678 -0.2555,17.5687 -0.2555,-179.33126 z M 900.39832,880.93856 c -1.375,-1.83969 -4.75,-5.90231 -7.5,-9.02803 -12.19084,-13.85643 -21.14024,-25.09195 -28.4544,-35.72307 l -5.0456,-7.33377 V 722.93746 c 0,-69.94415 -0.33963,-105.91622 -1,-105.91622 -0.55,0 -1,-0.45 -1,-1 0,-0.63701 8.16032,-1 22.48095,-1 h 22.48095 l 0.54309,2.25 c 0.2987,1.2375 0.41977,61.8215 0.26905,134.6311 l -0.27404,132.38111 z"
       id="path4755"
       inkscape:connector-curvature="0" />
    <path
       style="fill:#817d7a"
       d="m 857.39832,1329.0212 c 0,-0.55 0.45208,-1 1.00463,-1 0.66804,0 0.91932,-34.9275 0.75,-104.25 l -0.25463,-104.25 H 705.14829 551.39826 l 3e-5,-34.143 c 3e-5,-30.2114 0.18217,-34.2129 1.58182,-34.75 0.86998,-0.3338 80.74498,-0.607 177.5,-0.607 148.58609,0 175.91821,0.2136 175.91821,1.3749 0,1.1832 -3.29233,7.0347 -13.73355,24.4086 l -2.23355,3.7165 -0.0164,123.6683 c -0.009,68.0175 -0.28959,124.38 -0.62344,125.25 -0.51831,1.3505 -2.93019,1.5817 -16.50005,1.5817 -9.92867,0 -15.89301,-0.3752 -15.89301,-1 z m 32.24606,-461.59053 c -0.13533,-0.59981 -3.28356,-4.47564 -6.99606,-8.61294 -8.42002,-9.3835 -11.38915,-13.199 -18,-23.13107 l -5.25,-7.88754 V 722.41018 c 0,-69.59263 -0.33966,-105.38894 -1,-105.38894 -0.55,0 -1,-0.45 -1,-1 0,-0.62495 5.99365,-1 15.98095,-1 15.74521,0 15.98896,0.0332 16.52416,2.25 0.29876,1.2375 0.41806,58.275 0.26511,126.75 -0.15296,68.475 -0.38883,124.00924 -0.52416,123.40943 z"
       id="path4753"
       inkscape:connector-curvature="0" />
    <path
       style="fill:#726f6c"
       d="m 551.39832,1093.7352 c 0,-23.242 0.19447,-26.5746 1.58179,-27.107 0.86998,-0.3338 78.04498,-0.607 171.5,-0.607 135.26841,0 169.91801,0.2549 169.91725,1.25 -0.001,1.7221 -18.00063,29.3162 -22.36954,34.294 -1.95212,2.2242 -5.70486,7.0533 -8.33941,10.7312 l -4.79009,6.6873 -152.16821,0.019 c -83.69252,0.01 -152.88002,0.2919 -153.75,0.6257 -1.41786,0.5441 -1.58179,-2.1393 -1.58179,-25.893 z"
       id="path4751"
       inkscape:connector-curvature="0" />
  </g>
</svg>
