<?xml version="1.0" encoding="UTF-8" standalone="no"?>
<!-- Created with Inkscape (http://www.inkscape.org/) -->

<svg
   xmlns:dc="http://purl.org/dc/elements/1.1/"
   xmlns:cc="http://creativecommons.org/ns#"
   xmlns:rdf="http://www.w3.org/1999/02/22-rdf-syntax-ns#"
   xmlns:svg="http://www.w3.org/2000/svg"
   xmlns="http://www.w3.org/2000/svg"
   xmlns:sodipodi="http://sodipodi.sourceforge.net/DTD/sodipodi-0.dtd"
   xmlns:inkscape="http://www.inkscape.org/namespaces/inkscape"
   version="1.1"
   id="svg2"
   width="709.00037"
   height="595.00006"
   viewBox="0 0 709.00037 595.00006"
   sodipodi:docname="tuberia_cruze_rojo_abajo.svg"
   inkscape:version="0.92.5 (2060ec1f9f, 2020-04-08)">
  <metadata
     id="metadata8">
    <rdf:RDF>
      <cc:Work
         rdf:about="">
        <dc:format>image/svg+xml</dc:format>
        <dc:type
           rdf:resource="http://purl.org/dc/dcmitype/StillImage" />
        <dc:title></dc:title>
      </cc:Work>
    </rdf:RDF>
  </metadata>
  <defs
     id="defs6" />
  <sodipodi:namedview
     pagecolor="#ffffff"
     bordercolor="#666666"
     borderopacity="1"
     objecttolerance="10"
     gridtolerance="10"
     guidetolerance="10"
     inkscape:pageopacity="0"
     inkscape:pageshadow="2"
     inkscape:window-width="1920"
     inkscape:window-height="1017"
     id="namedview4"
     showgrid="false"
     fit-margin-top="0"
     fit-margin-left="0"
     fit-margin-right="0"
     fit-margin-bottom="0"
     inkscape:pagecheckerboard="true"
     inkscape:zoom="0.39663866"
     inkscape:cx="-517.83034"
     inkscape:cy="632.81786"
     inkscape:window-x="-8"
     inkscape:window-y="-8"
     inkscape:window-maximized="1"
     inkscape:current-layer="svg2" />
  <g
     id="g4749"
     transform="translate(1.7415998e-4)">
    <path
       style="fill:#c6a6a6"
       d="m 210.75809,594.75 c -0.13305,-0.1375 -0.47055,-68.2 -0.75,-151.25 L 209.5,292.5 105,291.98843 C 47.525,291.70706 0.3875,291.36956 0.25,291.23843 0.1125,291.10729 0,225.525 0,145.5 V 0 H 354.5 709 v 145.5 c 0,80.025 -0.1125,145.60722 -0.25,145.73826 -0.1375,0.13105 -46.6,0.46855 -103.25,0.75 l -103,0.51174 -0.50809,151 c -0.27945,83.05 -0.61695,151.1125 -0.75,151.25 C 501.10886,594.8875 435.75,595 356,595 c -79.75,0 -145.10886,-0.1125 -145.24191,-0.25 z"
       id="path4777"
       inkscape:connector-curvature="0" />
    <path
       style="fill:#935757"
       d="M 210.75322,443.25 210.5,291.5 105.25,291.24541 0,290.99083 V 145.49541 0 H 354.5 709 V 145.49535 290.9907 L 605.25,291.24535 501.5,291.5 501.24678,443.25 500.99357,595 H 356 211.00643 Z"
       id="path4775"
       inkscape:connector-curvature="0" />
    <path
       style="fill:#a90000"
       d="M 211.5,442.75003 V 290.5 H 105.74994 -1.1587305e-4 L -5.7936527e-5,145.25 0,0 H 354.5 709 l 6e-5,145.25 6e-5,145.25 H 604.75006 500.5 V 442.75003 595.00006 H 356 211.5 Z"
       id="path4773"
       inkscape:connector-curvature="0" />
    <path
       style="fill:#a30000"
       d="M 211.5,442.75003 V 290.5 H 105.74994 -1.1587305e-4 L -5.7936527e-5,165.67857 C -8.3437694e-6,58.833388 0.20573671,40.651406 1.4285714,39.428571 c 2.1566245,-2.156624 703.9862286,-2.156624 706.1428586,0 1.22283,1.222835 1.42858,19.404818 1.42863,126.249999 l 6e-5,124.82143 H 604.75006 500.5 V 442.75003 595.00006 H 356 211.5 Z M 1.25,2.3377193 C 0.5625,2.060307 0,1.4208333 0,0.91666667 0,0.36283498 140.31818,0 354.5,0 561.85233,0 709,0.37067565 709,0.8930112 c 0,0.4911562 -0.7118,1.1661562 -1.58179,1.5 C 705.52511,3.1194616 3.0510504,3.0644589 1.25,2.3377193 Z"
       id="path4771"
       inkscape:connector-curvature="0" />
    <path
       style="fill:#9b0000"
       d="M 211.5,442.75003 V 290.5 H 105.74994 -1.1587305e-4 L -5.7936527e-5,175.85699 C -5.5722031e-6,72.240081 0.15213272,61.155599 1.5817875,60.606989 c 2.0681835,-0.793637 703.7682425,-0.793637 705.8364225,0 1.42966,0.54861 1.5818,11.633093 1.58185,115.250001 l 6e-5,114.64301 H 604.75006 500.5 V 442.75003 595.00006 H 356 211.5 Z"
       id="path4769"
       inkscape:connector-curvature="0" />
    <path
       style="fill:#930000"
       d="M 211.5,442.75003 V 290.5 H 105.74994 -1.1587305e-4 L -5.7936527e-5,185.35699 C -5.6143267e-6,90.402839 0.15328278,80.155157 1.5817875,79.606989 c 2.0681835,-0.793637 703.7682425,-0.793637 705.8364225,0 1.42851,0.548168 1.5818,10.795851 1.58185,105.750001 l 6e-5,105.14301 H 604.75006 500.5 V 442.75003 595.00006 H 356 211.5 Z"
       id="path4767"
       inkscape:connector-curvature="0" />
    <path
       style="fill:#8b0000"
       d="M 211.5,442.75003 V 290.5 H 105.74994 -1.1587305e-4 l 5.7936523e-5,-96.64301 C -5.6590362e-6,106.65373 0.15450344,97.154689 1.5817875,96.606989 c 2.0681835,-0.793637 703.7682425,-0.793637 705.8364225,0 1.42729,0.5477 1.5818,10.046741 1.58185,97.250001 l 6e-5,96.64301 H 604.75006 500.5 V 442.75003 595.00006 H 356 211.5 Z"
       id="path4765"
       inkscape:connector-curvature="0" />
    <path
       style="fill:#820000"
       d="M 211.5,442.75003 V 290.5 H 105.74994 -1.1587305e-4 l 5.7936523e-5,-87.14301 C -5.719327e-6,124.81648 0.1561495,116.15406 1.5817875,115.60699 c 2.0681835,-0.79364 703.7682425,-0.79364 705.8364225,0 1.42564,0.54707 1.5818,9.2095 1.58185,87.75 l 6e-5,87.14301 H 604.75006 500.5 V 442.75003 595.00006 H 356 211.5 Z"
       id="path4763"
       inkscape:connector-curvature="0" />
    <path
       style="fill:#7b0000"
       d="M 211.5,442.75003 V 290.5 H 105.74994 -1.1587305e-4 l 5.7936523e-5,-78.14301 C -5.7899669e-6,142.02331 0.15807812,134.15332 1.5817875,133.60699 c 2.0681835,-0.79364 703.7682425,-0.79364 705.8364225,0 1.42371,0.54633 1.5818,8.41632 1.58185,78.75 l 6e-5,78.14301 H 604.75006 500.5 v 152.25003 152.25003 l -15.82143,-3e-5 c -12.37854,-2e-5 -16.1323,-0.3109 -17.25,-1.4286 C 466.20224,592.3451 466,569.21994 466,430.221 V 268.29913 l -3.23092,-2.39956 C 459.93097,263.79174 450.36335,255.47731 449,253.934 c -0.275,-0.3113 -2.75,-2.06403 -5.5,-3.89497 -2.75,-1.83093 -6.35,-4.54723 -8,-6.03622 -4.24997,-3.83525 -20.24503,-14.95537 -23.0403,-16.01813 -1.28801,-0.4897 -5.40586,-2.91698 -9.15077,-5.39396 -6.44071,-4.26003 -20.94339,-10.48246 -28.05893,-12.03879 L 372,209.84109 v 191.15088 c 0,164.33077 -0.20044,191.35133 -1.42857,192.57946 -1.21393,1.21393 -13.27146,1.42857 -80.25,1.4286 l -78.82143,3e-5 z"
       id="path4761"
       inkscape:connector-curvature="0" />
    <path
       style="fill:#730000"
       d="M 211.5,442.75003 V 290.5 H 105.74994 -1.1587305e-4 l 5.7936523e-5,-61.82143 C -8.9744679e-6,176.43339 0.22128818,166.63585 1.4285714,165.42857 c 2.1566245,-2.15662 703.9862286,-2.15662 706.1428586,0 1.20728,1.20728 1.42858,11.00485 1.42866,63.25 l 9e-5,61.82143 -103.63099,-0.26381 c -76.24669,-0.1941 -103.99277,0.0365 -105.00009,0.87245 C 499.22141,292.06114 499,316.56344 499,442.62244 499,542.20748 499.33777,593 500,593 c 0.55,0 1,0.45 1,1 0,0.56239 -2.79767,1 -6.39301,1 -4.9071,0 -6.53409,-0.36765 -7,-1.58179 C 487.27314,592.54823 487,522.823 487,438.47327 V 285.11011 l -4.25,-3.93439 c -4.98653,-4.61622 -15.88671,-13.84195 -19.63118,-16.6155 -1.44035,-1.06688 -4.64382,-3.78883 -7.11882,-6.04877 -2.475,-2.25995 -7.425,-6.06161 -11,-8.44813 -3.575,-2.38652 -7.85,-5.56057 -9.5,-7.05344 -4.38947,-3.97148 -20.28043,-14.9759 -23.26409,-16.11029 -1.41109,-0.53649 -5.51404,-3.03654 -9.11767,-5.55565 -3.60362,-2.51911 -11.65111,-6.57398 -17.8833,-9.01081 -11.18892,-4.37495 -11.49711,-4.43313 -24.5331,-4.63187 -12.71535,-0.19384 -22.15472,1.14473 -25.45184,3.60928 -0.99233,0.74175 -1.25,40.08913 -1.25,190.88333 0,163.28912 -0.2005,190.14949 -1.42857,191.37756 -1.20626,1.20625 -10.73812,1.42857 -61.25,1.4286 l -59.82143,3e-5 z"
       id="path4759"
       inkscape:connector-curvature="0" />
    <path
       style="fill:#6b0000"
       d="m 211,594 c 0,-0.55 0.45,-1 1,-1 0.66223,0 1,-50.79252 1,-150.37756 0,-126.04689 -0.22148,-150.56136 -1.36888,-151.51362 -1.00722,-0.83592 -29.14375,-1.06641 -106.50008,-0.87244 L -1.7415998e-4,290.5 -8.7079991e-5,242.35699 C -9.3431016e-6,199.3794 0.16971523,194.14885 1.5817875,193.60699 c 2.0681835,-0.79364 703.7682425,-0.79364 705.8364225,0 1.41207,0.54186 1.5818,5.77241 1.58188,48.75 l 9e-5,48.14301 -102.75009,-0.27934 C 549.73754,290.06702 502.4875,290.1881 501.25,290.48971 L 499,291.0381 V 442.01905 C 499,542.00635 499.33775,593 500,593 c 0.55,0 1,0.45 1,1 0,1.61404 -2.73002,1.14594 -3.39301,-0.58179 C 497.27314,592.54823 497,524.1674 497,441.46081 V 291.08519 l -7.15967,-5.7926 c -3.93782,-3.18592 -10.35032,-8.37952 -14.25,-11.54132 -3.89968,-3.1618 -9.09733,-7.2118 -11.55034,-9 -2.45301,-1.7882 -6.27801,-4.97124 -8.5,-7.07343 -2.22199,-2.10219 -7.41499,-6.26753 -11.53999,-9.2563 -4.125,-2.98878 -9.525,-7.0149 -12,-8.94695 C 424.27561,233.44476 414.72726,226.8468 412.5,226 c -1.17407,-0.44638 -5.02937,-2.82599 -8.56734,-5.28802 -16.85157,-11.72684 -38.51299,-17.29002 -57.30496,-14.71731 -10.67348,1.46125 -27.06827,8.04117 -35.1277,14.09824 -2.75,2.06676 -7.57733,5.30842 -10.72739,7.20368 -5.61502,3.37834 -10.20017,6.74324 -15.9103,11.67609 L 282,241.44537 v 175.34874 c 0,150.63558 -0.20134,175.55009 -1.42857,176.77732 C 279.38924,594.75362 273.26667,595 245.07143,595 223.02381,595 211,594.6471 211,594 Z"
       id="path4757"
       inkscape:connector-curvature="0" />
    <path
       style="fill:#630000"
       d="m 211,594 c 0,-0.55 0.45145,-1 1.00323,-1 0.66766,0 0.91852,-50.59088 0.75,-151.25 L 212.5,290.5 H 106.24994 -1.1486407e-4 l 5.7432035e-5,-36.64301 C -6.5074399e-6,221.36588 0.17922727,217.1452 1.5817875,216.60699 2.4517706,216.27314 72.442603,216 157.11697,216 c 146.65577,0 153.90874,0.0834 153.01131,1.76031 -0.51815,0.96816 -4.13978,3.78066 -8.04807,6.25 -3.90829,2.46933 -11.03768,7.5188 -15.84309,11.22105 -4.80542,3.70225 -11.21131,8.63646 -14.23533,10.96491 -3.02402,2.32845 -9.43652,7.76466 -14.25,12.08047 L 249,266.12366 v 163.0096 c 0,139.94165 -0.20216,163.21176 -1.42857,164.43817 -1.1297,1.12969 -5.10476,1.42857 -19,1.42857 C 217.52381,595 211,594.62873 211,594 Z M 493.14037,286.991 c -2.5522,-1.92996 -9.05168,-7.10496 -14.44328,-11.5 -5.3916,-4.39505 -12.20056,-9.791 -15.13102,-11.991 -2.93046,-2.2 -7.74415,-6.11886 -10.69709,-8.70858 -2.95294,-2.58971 -7.72017,-6.41471 -10.59384,-8.5 -2.87368,-2.08528 -9.74494,-7.2556 -15.26947,-11.4896 -5.52453,-4.234 -12.17334,-8.87369 -14.77513,-10.31043 -2.6018,-1.43673 -6.28854,-3.93505 -8.19277,-5.55182 L 400.57555,216 h 152.63044 c 83.94674,0 153.34224,0.27314 154.21222,0.60699 1.40256,0.53821 1.58179,4.75886 1.58179,37.25 V 290.5 H 603.39037 497.78074 Z"
       id="path4755"
       inkscape:connector-curvature="0" />
    <path
       style="fill:#570000"
       d="m 0,265.60699 c 0,-22.23262 0.19686818,-25.46856 1.5817875,-26 C 2.4517706,239.27314 64.537647,239 139.5504,239 c 115.19099,0 136.30498,0.2133 135.86015,1.3725 -0.28967,0.75488 -3.53805,3.77153 -7.21861,6.70368 -3.68057,2.93214 -8.99965,7.37702 -11.82018,9.8775 -2.82053,2.50047 -8.57582,7.47132 -12.78955,11.04632 -4.21372,3.575 -9.78101,8.34667 -12.37176,10.60371 -2.59075,2.25704 -7.59105,5.91859 -11.11179,8.13679 -5.56272,3.50472 -6.80642,3.91691 -9.4934,3.14629 C 206.17447,288.61606 2,288.72686 2,290 c 0,0.55 -0.45,1 -1,1 -0.64041272,0 -1,-9.131 -1,-25.39301 z m 707,24.37175 c 0,-0.68895 -34.14647,-1 -104.9373,-0.9559 l -104.9373,0.0654 -7.90955,-6.04493 c -4.35025,-3.32471 -11.01596,-8.64419 -14.8127,-11.82107 -3.79673,-3.17688 -8.70315,-7.09525 -10.90315,-8.70747 -2.2,-1.61223 -6.50553,-5.2001 -9.56785,-7.97304 -3.06231,-2.77294 -8.12481,-6.95185 -11.25,-9.28647 -3.12518,-2.33462 -5.68215,-4.69712 -5.68215,-5.25 0,-1.09585 267.5734,-1.48991 270.41821,-0.39825 1.38492,0.53144 1.58179,3.76738 1.58179,26 C 709,281.869 708.64041,291 708,291 c -0.55,0 -1,-0.45957 -1,-1.02126 z"
       id="path4753"
       inkscape:connector-curvature="0" />
    <path
       style="fill:#4c0000"
       d="m 0,276.60699 c 0,-12.20205 0.24078562,-14.48541 1.5817875,-15 2.3097411,-0.88633 244.4219025,-0.74466 244.3981225,0.14301 -0.0613,2.28849 -16.42905,16.52241 -27.08342,23.55258 L 213.29299,289 H 107.64649 C 37.882165,289 2,289.33964 2,290 c 0,0.55 -0.45,1 -1,1 -0.62034789,0 -1,-5.46434 -1,-14.39301 z M 707,290 c 0,-0.66025 -35.29839,-1 -103.89516,-1 H 499.20968 l -11.99411,-9.00106 C 476.64185,272.06383 466,262.7613 466,261.45344 c 0,-0.69259 239.61034,-0.5402 241.41821,0.15355 1.341,0.51459 1.58179,2.79795 1.58179,15 0,8.92867 -0.37965,14.39301 -1,14.39301 -0.55,0 -1,-0.45 -1,-1 z"
       id="path4751"
       inkscape:connector-curvature="0" />
  </g>
</svg>
