<?xml version="1.0" encoding="UTF-8" standalone="no"?>
<!-- Created with Inkscape (http://www.inkscape.org/) -->

<svg
   xmlns:dc="http://purl.org/dc/elements/1.1/"
   xmlns:cc="http://creativecommons.org/ns#"
   xmlns:rdf="http://www.w3.org/1999/02/22-rdf-syntax-ns#"
   xmlns:svg="http://www.w3.org/2000/svg"
   xmlns="http://www.w3.org/2000/svg"
   xmlns:sodipodi="http://sodipodi.sourceforge.net/DTD/sodipodi-0.dtd"
   xmlns:inkscape="http://www.inkscape.org/namespaces/inkscape"
   version="1.1"
   id="svg2"
   width="293"
   height="262.00052"
   viewBox="0 0 293 262.00052"
   sodipodi:docname="tuberia_cruze__arriba_rojo.svg"
   inkscape:version="0.92.5 (2060ec1f9f, 2020-04-08)">
  <metadata
     id="metadata8">
    <rdf:RDF>
      <cc:Work
         rdf:about="">
        <dc:format>image/svg+xml</dc:format>
        <dc:type
           rdf:resource="http://purl.org/dc/dcmitype/StillImage" />
        <dc:title></dc:title>
      </cc:Work>
    </rdf:RDF>
  </metadata>
  <defs
     id="defs6" />
  <sodipodi:namedview
     pagecolor="#ffffff"
     bordercolor="#666666"
     borderopacity="1"
     objecttolerance="10"
     gridtolerance="10"
     guidetolerance="10"
     inkscape:pageopacity="0"
     inkscape:pageshadow="2"
     inkscape:window-width="1920"
     inkscape:window-height="1017"
     id="namedview4"
     showgrid="false"
     inkscape:pagecheckerboard="true"
     fit-margin-top="0"
     fit-margin-left="0"
     fit-margin-right="0"
     fit-margin-bottom="0"
     inkscape:zoom="0.90076336"
     inkscape:cx="-61.10169"
     inkscape:cy="315.28866"
     inkscape:window-x="-8"
     inkscape:window-y="-8"
     inkscape:window-maximized="1"
     inkscape:current-layer="svg2" />
  <g
     id="g4749"
     transform="translate(0.5)">
    <path
       style="fill:#a90000"
       d="M 0,192 V 122 H 36 72 V 61 0 h 70.5 70.5 v 61 61 h 39.5 39.5 v 70 70 H 146 0 Z"
       id="path4777"
       inkscape:connector-curvature="0" />
    <path
       style="fill:#a30000"
       d="M 0,201.5 V 141 l 48.75,-0.0222 c 46.336403,-0.0211 48.645847,-0.10777 46.646303,-1.75 -1.157034,-0.95027 -6.263724,-4.99026 -11.3482,-8.97776 L 74.8036,123 37.1518,122.76287 -0.5,122.52574 35.75,122.2504 72,121.97505 V 60.987526 0 h 70.5 70.5 v 60.988526 60.988524 l 39.75,0.27328 39.75,0.27328 -41.06939,0.2382 -41.0694,0.23819 -4.96186,3.75 c -2.72903,2.0625 -7.74732,6 -11.15176,8.75 l -6.1899,5 51.97116,0.25892 L 292,141.01784 V 201.50892 262 H 146 0 Z"
       id="path4775"
       inkscape:connector-curvature="0" />
    <path
       style="fill:#9b0000"
       d="m 0,207 v -55 l 56.75,-0.004 56.75,-0.004 -3.33269,-2.03185 C 106.55077,147.75577 99.037595,142.07279 86.5,132.05868 82.1,128.54429 77.0375,124.79893 75.25,123.73566 L 72,121.80245 V 60.901224 0 h 70.5 70.5 v 60.901224 60.901226 l -3.25,1.92171 c -1.7875,1.05694 -5.725,3.93602 -8.75,6.39796 -9.60621,7.81814 -22.5137,17.61137 -26.06636,19.77716 l -3.43364,2.09324 60.25,0.004 60.25,0.004 v 55 55 H 146 0 v -55 z"
       id="path4773"
       inkscape:connector-curvature="0" />
    <path
       style="fill:#930000"
       d="M 0,211.5 V 161 l 64.75,-0.0576 64.75,-0.0576 -5.04741,-2.29639 c -7.75132,-3.52658 -18.9786,-11.3747 -37.95259,-26.52973 -4.4,-3.51439 -9.4625,-7.25975 -11.25,-8.32302 L 72,121.80245 V 60.901224 0 h 70.5 70.5 v 60.901224 60.901226 l -3.25,1.92171 c -1.7875,1.05694 -5.725,3.93602 -8.75,6.39796 -17.45505,14.20603 -32.72134,24.94884 -40.45259,28.46628 l -5.04741,2.29639 68.25,0.0576 L 292,161 V 211.5 262 H 146 0 Z"
       id="path4771"
       inkscape:connector-curvature="0" />
    <path
       style="fill:#8b0000"
       d="M 0,215.5 V 169 H 146 292 V 215.5 262 H 146 0 Z M 128.15108,160.03226 C 118.24456,156.12449 108.10045,149.31153 86.5,132.05868 82.1,128.54429 77.0375,124.79893 75.25,123.73566 L 72,121.80245 V 60.901224 0 h 70.5 70.5 v 60.901224 60.901226 l -3.25,1.92171 c -1.7875,1.05694 -5.725,3.93602 -8.75,6.39796 -38.79494,31.5738 -53.41461,37.5763 -72.84892,29.91014 z"
       id="path4769"
       inkscape:connector-curvature="0" />
    <path
       style="fill:#820000"
       d="m 0,220 v -42 h 146 146 v 42 42 H 146 0 Z M 128.15108,160.03226 C 118.24456,156.12449 108.10045,149.31153 86.5,132.05868 82.1,128.54429 77.0375,124.79893 75.25,123.73566 L 72,121.80245 V 60.901224 0 h 70.5 70.5 v 60.901224 60.901226 l -3.25,1.92171 c -1.7875,1.05694 -5.725,3.93602 -8.75,6.39796 -38.79494,31.5738 -53.41461,37.5763 -72.84892,29.91014 z"
       id="path4767"
       inkscape:connector-curvature="0" />
    <path
       style="fill:#7d0000"
       d="M 0,224.5 V 187 H 146 292 V 224.5 262 H 146 0 Z M 128.15108,160.03226 C 118.24456,156.12449 108.10045,149.31153 86.5,132.05868 82.1,128.54429 77.0375,124.79893 75.25,123.73566 L 72,121.80245 V 60.901224 0 h 40.5 40.5 v 80.883369 80.883371 l -2.25,0.60297 c -5.72142,1.53329 -15.29715,0.54285 -22.59892,-2.33745 z M 194,67.5 V 0 h 9.5 9.5 v 60.901224 60.901226 l -3.25,1.92171 c -1.7875,1.05694 -5.83114,4.02639 -8.98587,6.59877 C 197.6094,132.89532 194.7969,135 194.51413,135 194.23136,135 194,104.625 194,67.5 Z"
       id="path4765"
       inkscape:connector-curvature="0" />
    <path
       style="fill:#790000"
       d="m 0,228 v -34 h 146 146 v 34 34 H 146 0 Z M 128.15108,160.03226 C 118.24456,156.12449 108.10045,149.31153 86.5,132.05868 82.1,128.54429 77.0375,124.79893 75.25,123.73566 L 72,121.80245 V 60.901224 0 h 34 34 V 81.5 163 l -2.25,-0.0344 c -1.2375,-0.0189 -5.55702,-1.33892 -9.59892,-2.93332 z M 202,64.491981 V 0 h 5.5 5.5 v 60.787824 60.787826 l -5.5,3.70415 -5.5,3.70416 z"
       id="path4763"
       inkscape:connector-curvature="0" />
    <path
       style="fill:#730000"
       d="M 0,233.5 V 205 H 146 292 V 233.5 262 H 146 0 Z M 123.42529,158.10541 C 116.66489,155.03494 104.69501,146.59152 86.5,132.05868 82.1,128.54429 77.0375,124.79893 75.25,123.73566 L 72,121.80245 V 60.901224 0 h 28.5 28.5 v 80 c 0,44 -0.3375,79.99012 -0.75,79.97804 -0.4125,-0.0121 -2.58362,-0.85476 -4.82471,-1.87263 z M 207,62.52568 V 0 h 3 3 v 60.97432 60.97432 l -3,1.55136 -3,1.55136 z"
       id="path4761"
       inkscape:connector-curvature="0" />
    <path
       style="fill:#6b0000"
       d="m 0,239 v -23 h 146 146 v 23 23 H 146 0 Z m 99.40735,-96.78637 c -3.350958,-2.5925 -9.875958,-7.68644 -14.5,-11.31987 C 80.283307,127.26033 75.4875,123.757 74.25,123.10858 L 72,121.92963 V 60.964816 0 h 17 17 v 73.5 c 0,40.425 -0.1125,73.48363 -0.25,73.46363 -0.1375,-0.02 -2.99169,-2.15751 -6.34265,-4.75 z M 211,61.559017 C 211,21.186339 211.34416,0 212,0 c 1.37893,0 1.37893,121.64777 0,122.5 -0.66253,0.40947 -1,-20.15628 -1,-60.940983 z"
       id="path4759"
       inkscape:connector-curvature="0" />
    <path
       style="fill:#630000"
       d="M 0,244.5 V 227 H 146 292 V 244.5 262 H 146 0 Z M 85,130.89571 c -1.925,-1.66265 -5.6375,-4.42015 -8.25,-6.12777 L 72,121.66317 V 60.831585 0 h 9 9 v 67 c 0,36.85 -0.3375,66.98171 -0.75,66.95936 -0.4125,-0.0224 -2.325,-1.401 -4.25,-3.06365 z M 212.47001,61 c 0,-33.825 0.12575,-47.6625 0.27945,-30.75 0.15369,16.9125 0.15369,44.5875 0,61.5 -0.1537,16.9125 -0.27945,3.075 -0.27945,-30.75 z"
       id="path4757"
       inkscape:connector-curvature="0" />
    <path
       style="fill:#5b0000"
       d="m 0,249 v -13 h 146 146 v 13 13 H 146 0 Z"
       id="path4755"
       inkscape:connector-curvature="0" />
    <path
       style="fill:#520000"
       d="m 0,253 v -9 h 146 146 v 9 9 H 146 0 Z"
       id="path4753"
       inkscape:connector-curvature="0" />
    <path
       style="fill:#4c0000"
       d="M 0,256.5 V 251 h 146 146 v 5.5 5.5 H 146 0 Z"
       id="path4751"
       inkscape:connector-curvature="0" />
  </g>
</svg>
