<?xml version="1.0" encoding="UTF-8" standalone="no"?>
<!-- Created with Inkscape (http://www.inkscape.org/) -->

<svg
   xmlns:dc="http://purl.org/dc/elements/1.1/"
   xmlns:cc="http://creativecommons.org/ns#"
   xmlns:rdf="http://www.w3.org/1999/02/22-rdf-syntax-ns#"
   xmlns:svg="http://www.w3.org/2000/svg"
   xmlns="http://www.w3.org/2000/svg"
   xmlns:sodipodi="http://sodipodi.sourceforge.net/DTD/sodipodi-0.dtd"
   xmlns:inkscape="http://www.inkscape.org/namespaces/inkscape"
   version="1.1"
   id="svg2"
   width="186"
   height="527"
   viewBox="0 0 186 527"
   sodipodi:docname="TUBERIA_ROJO_VERTICAL.svg"
   inkscape:version="0.92.5 (2060ec1f9f, 2020-04-08)">
  <metadata
     id="metadata8">
    <rdf:RDF>
      <cc:Work
         rdf:about="">
        <dc:format>image/svg+xml</dc:format>
        <dc:type
           rdf:resource="http://purl.org/dc/dcmitype/StillImage" />
        <dc:title></dc:title>
      </cc:Work>
    </rdf:RDF>
  </metadata>
  <defs
     id="defs6" />
  <sodipodi:namedview
     pagecolor="#ffffff"
     bordercolor="#666666"
     borderopacity="1"
     objecttolerance="10"
     gridtolerance="10"
     guidetolerance="10"
     inkscape:pageopacity="0"
     inkscape:pageshadow="2"
     inkscape:window-width="1920"
     inkscape:window-height="1017"
     id="namedview4"
     showgrid="false"
     fit-margin-top="0"
     fit-margin-left="0"
     fit-margin-right="0"
     fit-margin-bottom="0"
     inkscape:zoom="0.44781784"
     inkscape:cx="-217.39407"
     inkscape:cy="317.09322"
     inkscape:window-x="-8"
     inkscape:window-y="-8"
     inkscape:window-maximized="1"
     inkscape:current-layer="svg2" />
  <g
     id="g4749">
    <path
       style="fill:#820000"
       d="M 0,263.5 V 0 h 93 93 V 263.5 527 H 93 0 Z"
       id="path4769"
       inkscape:connector-curvature="0" />
    <path
       style="fill:#800000"
       d="M 0,263.5 V 0 h 59.071429 c 49.861901,0 59.294151,0.22272125 60.500001,1.4285714 2.15533,2.1553344 2.15533,521.9875186 0,524.1428586 C 118.36558,526.77728 108.93333,527 59.071429,527 H 0 Z M 152.25,525.50417 C 151.25683,524.37612 151,470.53782 151,263.47078 151,38.938961 151.19778,2.6593579 152.42857,1.4285714 153.54815,0.30899471 157.33333,0 169.92857,0 H 186 V 263.5 527 l -16.25,-0.038 c -12.74638,-0.0298 -16.51951,-0.34414 -17.5,-1.45779 z"
       id="path4767"
       inkscape:connector-curvature="0" />
    <path
       style="fill:#7d0000"
       d="M 0,263.5 V 0 h 50.571429 c 42.495238,0 50.799571,0.22814097 52.000001,1.4285714 2.15533,2.1553344 2.15533,521.9875186 0,524.1428586 C 101.371,526.77186 93.066667,527 50.571429,527 H 0 Z M 164.25,525.50417 C 163.25683,524.37612 163,470.53782 163,263.47078 163,38.938961 163.19778,2.6593579 164.42857,1.4285714 165.47754,0.37960149 168.53333,0 175.92857,0 H 186 V 263.5 527 l -10.25,-0.038 c -7.56221,-0.0281 -10.57778,-0.41033 -11.5,-1.45779 z"
       id="path4765"
       inkscape:connector-curvature="0" />
    <path
       style="fill:#790000"
       d="M 0,263.5 V 0 h 44.893011 c 40.014064,0 44.958979,0.17190777 45.5,1.5817875 0.793592,2.0680673 0.793592,521.7683625 0,523.8364225 C 89.85199,526.82809 84.907075,527 44.893011,527 H 0 Z m 170.60699,261.91821 c -0.79359,-2.06806 -0.79359,-521.7683552 0,-523.8364225 C 171.08474,0.33677763 172.78802,0 178.60699,0 H 186 V 263.5 527 h -7.39301 c -5.81897,0 -7.52225,-0.33678 -8,-1.58179 z"
       id="path4763"
       inkscape:connector-curvature="0" />
    <path
       style="fill:#750000"
       d="M 0,263.5 V 0 h 38.893011 c 34.542849,0 38.960903,0.17692208 39.5,1.5817875 0.793592,2.0680673 0.793592,521.7683625 0,523.8364225 C 77.853914,526.82308 73.43586,527 38.893011,527 H 0 Z m 176.60699,261.91821 c -0.79359,-2.06806 -0.79359,-521.7683552 0,-523.8364225 C 177.03302,0.47156454 178.52363,0 181.60699,0 H 186 V 263.5 527 h -4.39301 c -3.08336,0 -4.57397,-0.47156 -5,-1.58179 z"
       id="path4761"
       inkscape:connector-curvature="0" />
    <path
       style="fill:#710000"
       d="M 0,263.5 V 0 h 30.571429 c 25.161904,0 30.82421,0.25278149 32,1.4285714 2.155334,2.1553344 2.155334,521.9875186 0,524.1428586 -1.17579,1.17579 -6.838096,1.42857 -32,1.42857 H 0 Z m 180.60699,261.91821 c -0.79359,-2.06806 -0.79359,-521.7683552 0,-523.8364225 C 180.94083,0.71180436 182.29083,0 183.60699,0 H 186 V 263.5 527 h -2.39301 c -1.31616,0 -2.66616,-0.7118 -3,-1.58179 z"
       id="path4759"
       inkscape:connector-curvature="0" />
    <path
       style="fill:#6d0000"
       d="M 0,263.5 V 0 h 21.571429 c 17.361904,0 21.850205,0.27877641 23,1.4285714 2.155334,2.1553344 2.155334,521.9875186 0,524.1428586 -1.149795,1.14979 -5.638096,1.42857 -23,1.42857 H 0 Z m 183,0 C 183,29.944444 183.17046,0 184.5,0 c 1.32954,0 1.5,29.944444 1.5,263.5 0,233.55556 -0.17046,263.5 -1.5,263.5 -1.32954,0 -1.5,-29.94444 -1.5,-263.5 z"
       id="path4757"
       inkscape:connector-curvature="0" />
    <path
       style="fill:#690000"
       d="M 0,263.5 V 0 h 15.893011 c 13.569857,0 15.981738,0.23121712 16.5,1.5817875 0.793592,2.0680673 0.793592,521.7683625 0,523.8364225 C 31.874749,526.76878 29.462868,527 15.893011,527 H 0 Z m 185.49257,0 c 1e-5,-145.2 0.11584,-204.451256 0.25741,-131.66946 0.14156,72.7818 0.14155,191.5818 -2e-5,264 -0.14157,72.4182 -0.2574,12.86946 -0.25739,-132.33054 z"
       id="path4755"
       inkscape:connector-curvature="0" />
    <path
       style="fill:#650000"
       d="M 0,263.5 V 0 h 11.393011 c 9.466446,0 11.495654,0.26748131 12,1.5817875 0.793592,2.0680673 0.793592,521.7683625 0,523.8364225 -0.504346,1.31431 -2.533554,1.58179 -12,1.58179 H 0 Z m 185.49257,0 c 1e-5,-145.2 0.11584,-204.451256 0.25741,-131.66946 0.14156,72.7818 0.14155,191.5818 -2e-5,264 -0.14157,72.4182 -0.2574,12.86946 -0.25739,-132.33054 z"
       id="path4753"
       inkscape:connector-curvature="0" />
    <path
       style="fill:#610000"
       d="M 2,263.5 V 0 h 6.8930112 c 5.3630338,0 7.0277388,0.35109456 7.4999998,1.5817875 0.793592,2.0680673 0.793592,521.7683625 0,523.8364225 C 15.92075,526.64891 14.256045,527 8.8930112,527 H 2 Z"
       id="path4751"
       inkscape:connector-curvature="0" />
  </g>
</svg>
