<?xml version="1.0" encoding="UTF-8" standalone="no"?>
<!-- Created with Inkscape (http://www.inkscape.org/) -->

<svg
   xmlns:dc="http://purl.org/dc/elements/1.1/"
   xmlns:cc="http://creativecommons.org/ns#"
   xmlns:rdf="http://www.w3.org/1999/02/22-rdf-syntax-ns#"
   xmlns:svg="http://www.w3.org/2000/svg"
   xmlns="http://www.w3.org/2000/svg"
   xmlns:sodipodi="http://sodipodi.sourceforge.net/DTD/sodipodi-0.dtd"
   xmlns:inkscape="http://www.inkscape.org/namespaces/inkscape"
   version="1.1"
   id="svg2"
   width="599.00006"
   height="715.00031"
   viewBox="0 0 599.00006 715.00031"
   sodipodi:docname="tuberia_cruze_verde_izq.svg"
   inkscape:version="0.92.5 (2060ec1f9f, 2020-04-08)">
  <metadata
     id="metadata8">
    <rdf:RDF>
      <cc:Work
         rdf:about="">
        <dc:format>image/svg+xml</dc:format>
        <dc:type
           rdf:resource="http://purl.org/dc/dcmitype/StillImage" />
        <dc:title></dc:title>
      </cc:Work>
    </rdf:RDF>
  </metadata>
  <defs
     id="defs6" />
  <sodipodi:namedview
     pagecolor="#ffffff"
     bordercolor="#666666"
     borderopacity="1"
     objecttolerance="10"
     gridtolerance="10"
     guidetolerance="10"
     inkscape:pageopacity="0"
     inkscape:pageshadow="2"
     inkscape:window-width="1920"
     inkscape:window-height="1017"
     id="namedview4"
     showgrid="false"
     inkscape:pagecheckerboard="true"
     fit-margin-top="0"
     fit-margin-left="0"
     fit-margin-right="0"
     fit-margin-bottom="0"
     inkscape:zoom="0.33006993"
     inkscape:cx="-694.22872"
     inkscape:cy="1208.8349"
     inkscape:window-x="-8"
     inkscape:window-y="-8"
     inkscape:window-maximized="1"
     inkscape:current-layer="svg2" />
  <g
     id="g4781"
     transform="translate(8.5706366e-5,1.7264411e-4)">
    <path
       style="fill:#a5d1a5"
       d="m 305.76163,714.75 c -0.13111,-0.1375 -0.46861,-47.05 -0.75,-104.25 L 304.5,506.5 152.5,505.99196 C 68.9,505.71254 0.3875,505.37504 0.25,505.24196 0.1125,505.10888 0,439.075 0,358.5 0,277.925 0.1125,211.89112 0.25,211.75804 c 0.1375,-0.13308 68.65,-0.47058 152.25,-0.75 l 152,-0.50804 0.51152,-105 C 305.29286,47.75 305.63036,0.3875 305.76152,0.25 305.89268,0.1125 371.925,0 452.5,0 H 599 V 357.5 715 H 452.5 c -80.575,0 -146.60727,-0.1125 -146.73837,-0.25 z"
       id="path4809"
       inkscape:connector-curvature="0" />
    <path
       style="fill:#57cd57"
       d="M 305.75461,610.25 305.5,505.5 152.75,505.24681 0,504.99361 V 358.5 212.00639 L 152.75,211.75319 305.5,211.5 305.75457,105.75 306.00913,0 H 452.50457 599 V 357.5 715 H 452.50461 306.00921 Z"
       id="path4807"
       inkscape:connector-curvature="0" />
    <path
       style="fill:#589958"
       d="M 305.75461,610.25 305.5,505.5 152.75,505.24681 0,504.99361 -2.9046346e-5,358.74681 -5.8092692e-5,212.5 H 152.74997 305.5 L 305.75454,106.25 306.00909,0 H 452.50454 599 V 357.5 715 H 452.50461 306.00921 Z"
       id="path4805"
       inkscape:connector-curvature="0" />
    <path
       style="fill:#00bb00"
       d="M 306.5,609.75006 V 504.5 H 153.24997 -5.7733306e-5 v -146 -146 H 153.24997 306.5 V 106.24994 -1.1486407e-4 L 452.75,-5.7432035e-5 599,0 V 357.5 715 l -146.25,6e-5 -146.25,6e-5 z"
       id="path4803"
       inkscape:connector-curvature="0" />
    <path
       style="fill:#00b300"
       d="M 306.5,609.75006 V 504.5 H 153.24997 -5.7733306e-5 L -2.8866653e-5,380.85699 C -2.7594166e-6,269.03324 0.15120598,257.15595 1.5817875,256.60699 2.4517706,256.27314 77.560933,256 168.49104,256 H 333.8185 l -1.90187,-3.93642 c -1.04603,-2.16504 -2.38082,-4.23243 -2.9662,-4.59422 -1.10467,-0.68272 -20.1675,-25.92337 -23.14117,-30.6407 -1.47156,-2.33441 -1.50223,-2.83858 -0.23661,-3.88896 1.2585,-1.04445 1.4187,-15.45054 1.19075,-107.07335 L 306.5,-1.7114787e-4 452.75,-8.5573935e-5 599,0 V 357.5 715 l -146.25,6e-5 -146.25,6e-5 z M 0,213 c 0,-0.55 0.45,-1 1,-1 0.55,0 1,0.45 1,1 0,0.55 -0.45,1 -1,1 -0.55,0 -1,-0.45 -1,-1 z"
       id="path4801"
       inkscape:connector-curvature="0" />
    <path
       style="fill:#00a700"
       d="M 306.5,609.75006 V 504.5 H 153.24997 -5.7733306e-5 L -2.8866653e-5,393.35699 C -2.7836394e-6,292.93161 0.15253331,282.15545 1.5817875,281.60699 2.4517706,281.27314 81.876771,281 178.08179,281 274.2868,281 353,280.7899 353,280.5331 c 0,-1.29839 -10.78405,-17.50943 -13.72878,-20.63767 -1.86621,-1.98252 -4.82818,-5.65916 -6.58216,-8.17031 C 329.06444,246.5358 321.98018,237.09236 315.64119,229 c -8.28455,-10.57606 -10.8947,-14.98961 -9.7094,-16.41782 0.78223,-0.94252 1.01999,-31.51452 0.83177,-106.95107 L 306.5,-1.7264411e-4 452.75,-8.6322053e-5 599,0 V 357.5 715 l -146.25,6e-5 -146.25,6e-5 z"
       id="path4799"
       inkscape:connector-curvature="0" />
    <path
       style="fill:#009200"
       d="M 306.5,609.75006 V 504.5 H 153.24997 -5.7733306e-5 l 2.8866653e-5,-94.14301 C -2.8269052e-6,325.43338 0.15490412,316.15454 1.5817875,315.60699 2.4517706,315.27314 86.826771,315 189.08179,315 312.27823,315 375,314.66286 375,314.00066 375,311.76127 365.95796,294.99913 360.90653,287.87418 357.93294,283.67997 353.025,276.72805 350,272.42546 c -3.025,-4.30259 -7.11498,-9.64596 -9.08884,-11.87417 -1.97387,-2.22821 -5.45918,-6.83588 -7.74515,-10.23927 -2.28597,-3.40339 -4.57882,-6.44911 -5.09522,-6.76827 -0.9988,-0.61729 -16.6607,-21.26823 -19.44458,-25.63858 -1.507,-2.36581 -1.67377,-12.09618 -1.88955,-110.25 L 306.5,-3.1834271e-6 452.75,-1.5917136e-6 599,0 V 357.5 715 l -146.25,6e-5 -146.25,6e-5 z"
       id="path4797"
       inkscape:connector-curvature="0" />
    <path
       style="fill:#008d00"
       d="M 306.5,609.75006 V 504.5 H 153.24997 -5.7733306e-5 l 2.8866653e-5,-82.64301 C -2.8662667e-6,347.41988 0.15706098,339.15371 1.5817875,338.60699 2.4517706,338.27314 89.535344,338 195.10084,338 H 387.0381 l -0.67725,-2.75 c -1.87399,-7.60938 -5.76771,-17.28756 -8.78179,-21.82789 -1.85401,-2.79283 -4.60016,-7.51783 -6.10254,-10.5 C 369.97414,299.93995 365.35015,292.775 361.20098,287 c -4.14918,-5.775 -9.56351,-13.425 -12.03185,-17 -2.46835,-3.575 -6.14627,-8.3 -8.17315,-10.5 -2.02689,-2.2 -4.7534,-5.575 -6.0589,-7.5 -1.30551,-1.925 -4.63792,-6.28426 -7.40537,-9.68724 -7.65434,-9.41215 -12.86997,-16.26039 -16.88849,-22.17497 L 307,214.77558 v -105.806 C 307,50.776275 306.72686,2.4517706 306.39301,1.5817875 305.84227,0.14657089 314.18843,0 396.46444,0 c 77.25463,0 90.8899,0.21148187 92.10699,1.4285714 2.15665,2.1566557 2.15665,709.9861986 0,712.1428586 -1.21701,1.217 -14.80482,1.42858 -91.75,1.42863 l -90.32143,6e-5 z M 549.25,713.50417 C 548.25502,712.37406 548,639.73782 548,357.47078 548,51.472294 548.19585,2.6612953 549.42857,1.4285714 550.58754,0.26960577 555.4,0 574.92857,0 H 599 V 357.5 715 l -24.25,-0.038 c -19.65742,-0.0308 -24.48673,-0.30691 -25.5,-1.45779 z"
       id="path4795"
       inkscape:connector-curvature="0" />
    <path
       style="fill:#008900"
       d="M 306.5,609.75006 V 504.5 H 153.24997 -5.7733306e-5 l 2.8866653e-5,-74.82143 C -4.3633074e-6,366.16669 0.21593415,354.64121 1.4285714,353.42857 2.6568086,352.20033 29.952898,352 196.07531,352 h 193.21816 l -0.61892,-7.25 c -0.80122,-9.38543 -5.51656,-23.20033 -10.74391,-31.47725 -2.27467,-3.60168 -5.334,-8.84896 -6.79852,-11.66063 -1.46451,-2.81167 -6.03086,-9.76068 -10.14744,-15.44226 -4.11657,-5.68158 -10.04616,-13.92803 -13.17686,-18.32545 -3.13071,-4.39742 -7.40571,-9.98032 -9.5,-12.40645 -2.0943,-2.42614 -5.22708,-6.11152 -6.96174,-8.18975 -4.44472,-5.32505 -18.46922,-23.96297 -21.65397,-28.77714 L 307.02682,214.44214 306.76341,107.22099 306.5,-1.6821299e-4 l 76.82143,8.4106496e-5 c 65.24516,7.1432432e-5 77.0367,0.215356456494 78.25,1.428655506494 2.15665,2.1566557 2.15665,709.9861986 0,712.1428586 -1.2133,1.2133 -13.00482,1.42858 -78.25,1.42863 l -76.82143,6e-5 z M 569.25,713.50417 C 568.25502,712.37406 568,639.73782 568,357.47078 568,51.472294 568.19585,2.6612953 569.42857,1.4285714 570.5313,0.32583998 574.06667,0 584.92857,0 H 599 V 357.5 715 l -14.25,-0.038 c -11.01847,-0.0294 -14.53347,-0.36 -15.5,-1.45779 z"
       id="path4793"
       inkscape:connector-curvature="0" />
    <path
       style="fill:#008300"
       d="M 306.5,609.75006 V 504.5 H 153.24997 -5.7733306e-5 l 2.8866653e-5,-64.82143 C -4.442667e-6,384.83336 0.21986155,374.63728 1.4285714,373.42857 2.6567704,372.20037 29.853623,372 195.33075,372 h 192.4736 l 1.13629,-3.25 c 4.93835,-14.12465 -0.26773,-40.04302 -11.43188,-56.91345 -2.42527,-3.66489 -5.05178,-8.16489 -5.83669,-10 -0.7849,-1.8351 -5.52731,-8.96155 -10.53869,-15.83655 -5.01138,-6.875 -10.97772,-15.2 -13.25855,-18.5 -2.28082,-3.3 -5.68815,-7.62206 -7.57183,-9.60457 -1.88369,-1.98252 -4.85996,-5.66749 -6.61394,-8.18883 -1.75398,-2.52133 -5.11732,-6.97428 -7.47409,-9.89542 C 316.22505,227.42894 313.05171,223.22694 310.12083,218.5 l -3.10019,-5 L 306.76032,106.74992 306.5,-1.6967094e-4 l 64.32143,8.4835469e-5 c 54.41182,7.1765394e-5 64.54152,0.220176005471 65.75,1.428656235471 2.15665,2.1566557 2.15665,709.9861986 0,712.1428586 -1.20848,1.20848 -11.33815,1.42858 -65.75,1.42863 l -64.32143,6e-5 z m 276.10699,103.66815 c -0.79364,-2.06818 -0.79364,-709.7682362 0,-711.8364225 C 583.08954,0.32427458 584.83209,0 591.10699,0 H 599 V 357.5 715 h -7.89301 c -6.2749,0 -8.01745,-0.32427 -8.5,-1.58179 z"
       id="path4791"
       inkscape:connector-curvature="0" />
    <path
       style="fill:#007b00"
       d="M 306.5,609.75006 V 504.5 H 153.24997 -5.7733306e-5 l 2.8866653e-5,-53.14301 C -3.0451361e-6,403.82002 0.16686237,398.14995 1.5817875,397.60699 2.4517706,397.27314 87.91911,397 191.50921,397 h 188.34563 l 2.08255,-2.64753 c 6.36477,-8.09149 11.59228,-25.88992 11.19489,-38.11591 -0.45491,-13.99537 -6.12959,-31.38029 -14.35662,-43.98284 -2.62084,-4.01472 -5.84325,-9.4267 -7.16091,-12.02661 -2.7961,-5.51705 -22.33149,-32.23003 -29.41837,-40.22711 -2.68071,-3.025 -5.70183,-6.85 -6.7136,-8.5 -1.01178,-1.65 -3.2779,-4.575 -5.03583,-6.5 -1.75793,-1.925 -4.71515,-5.56089 -6.5716,-8.07975 -1.85644,-2.51886 -5.87705,-7.91886 -8.93467,-12 -3.05763,-4.08114 -6.09551,-8.77025 -6.75085,-10.42025 -0.88988,-2.24054 -1.25459,-29.77082 -1.44067,-108.75009 L 306.5,-1.7264411e-4 l 45.82143,8.6322057e-5 c 38.37849,7.230045e-5 46.05348,0.232134342053 47.25,1.428657722053 2.15665,2.1566557 2.15665,709.9861986 0,712.1428586 -1.19653,1.19652 -8.87149,1.42858 -47.25,1.42863 l -45.82143,6e-5 z M 592,357.5 V 0 h 3.5 3.5 V 357.5 715 h -3.5 -3.5 z"
       id="path4789"
       inkscape:connector-curvature="0" />
    <path
       style="fill:#007300"
       d="m 306,714 c 0,-0.55 0.45208,-1 1.00463,-1 0.66804,0 0.91932,-34.9275 0.75,-104.25 L 307.5,504.5 H 153.74997 -5.7377241e-5 l 2.868862e-5,-41.64301 C -3.1638829e-6,425.80652 0.17444514,421.14704 1.5817875,420.60699 2.4517706,420.27314 85.057095,420 185.14918,420 h 181.9856 l -0.68274,2.25 c -0.37551,1.2375 -1.98083,4.9433 -3.56739,8.23511 L 360,436.47022 v 137.83632 c 0,118.12481 -0.2043,138.04061 -1.42857,139.26489 C 357.40782,714.73504 352.4,715 331.57143,715 315.19048,715 306,714.6406 306,714 Z M 598.49449,357.5 c 10e-6,-196.9 0.11498,-277.30093 0.2555,-178.66873 0.14051,98.63219 0.14051,259.73219 -10e-6,358 C 598.60946,635.09907 598.49449,554.4 598.49449,357.5 Z m -241.06751,-80 c -1.14016,-1.1 -4.05277,-4.7 -6.47245,-8 -2.41969,-3.3 -6.99933,-8.82896 -10.17698,-12.28659 C 337.5999,253.75579 335,250.47401 335,249.92057 c 0,-0.55344 -1.95026,-3.12447 -4.33392,-5.71341 C 328.28242,241.61822 322.31992,234.1 317.41608,227.5 L 308.5,215.5 308.23667,108.75 C 308.06557,39.389269 307.62776,2 306.98667,2 306.444,2 306,1.55 306,1 c 0,-0.6405959 9.19048,-1 25.57143,-1 20.85785,0 25.8354,0.26397614 27.00351,1.4320848 1.23144,1.2314396 1.39657,20.8114072 1.17857,139.7499952 L 359.5,279.5 Z"
       id="path4787"
       inkscape:connector-curvature="0" />
    <path
       style="fill:#006a00"
       d="m 309.60699,713.41821 c -0.33385,-0.86998 -0.61388,-47.78248 -0.6223,-104.25 -0.008,-56.46751 -0.37512,-103.23497 -0.81487,-103.92768 -0.63835,-1.00553 -31.78494,-1.20715 -154.48473,-1 L -8.5706366e-5,504.5 -4.2853183e-5,472.85699 C -5.0260207e-6,444.92522 0.1855194,441.14279 1.5817875,440.60699 2.4517706,440.27314 81.475554,440 177.1902,440 h 174.02662 l -0.67921,2.75 c -0.70863,2.86918 -5.05225,10.25496 -9.55672,16.25 -1.44638,1.925 -3.83378,5.69418 -5.30533,8.37595 L 333,472.25191 v 119.79226 c 0,65.88574 -0.27314,120.50406 -0.60699,121.37404 C 331.89143,714.72531 329.91295,715 321,715 c -8.91295,0 -10.89143,-0.27469 -11.39301,-1.58179 z m 20.71842,-471.05544 c -3.2294,-2.76633 -18.42616,-23.36373 -19.9801,-27.08065 C 309.24736,212.6559 309,192.85939 309,107.61391 309,50.166224 309.27314,2.4517706 309.60699,1.5817875 310.10899,0.27359488 312.0948,0 321.08794,0 c 10.44906,0 10.89518,0.0879189 11.41724,2.25 0.29881,1.2375 0.41988,56.188247 0.26905,122.11277 L 332.5,244.22554 Z"
       id="path4785"
       inkscape:connector-curvature="0" />
    <path
       style="fill:#005700"
       d="m 0,486 v -19 h 165.5 c 91.025,0 165.5,0.38345 165.5,0.85212 0,0.46866 -1.10587,2.38116 -2.45748,4.25 -1.35161,1.86883 -3.2139,4.74788 -4.13841,6.39788 -0.92451,1.65 -3.33686,5.025 -5.36078,7.5 -2.02392,2.475 -5.62683,7.3125 -8.00648,10.75 L 306.71022,503 H 154.35511 C 53.451703,503 2,503.33771 2,504 c 0,0.55 -0.45,1 -1,1 -0.63157895,0 -1,-7 -1,-19 z"
       id="path4783"
       inkscape:connector-curvature="0" />
  </g>
</svg>
