<?xml version="1.0" encoding="utf-8"?>
<!-- Generator: Adobe Illustrator 23.0.3, SVG Export Plug-In . SVG Version: 6.00 Build 0)  -->
<svg version="1.2" baseProfile="tiny" id="Capa_1" xmlns="http://www.w3.org/2000/svg" xmlns:xlink="http://www.w3.org/1999/xlink"
	 x="0px" y="0px" viewBox="0 0 70.07 65.21" xml:space="preserve">
<g>
	<path fill="#BE1622" d="M57.38,38.99c0,0-3.71,14.47,10.51,14.99c0,0-5.31-6.28-4.38-13.39C63.51,40.59,59.44,40.54,57.38,38.99z"
		/>
	<g>
		<path fill="#741518" d="M15.67,40.23H14.1v6.91h1.62c0,0,0.2,0.57,0.36,1.45h0.19V37.18h-0.01C16.2,38.99,15.67,40.23,15.67,40.23
			z"/>
		<path fill-rule="evenodd" fill="#CD5261" d="M14.1,40.23h1.62c0,0,0.56,1.53,0.56,3.53c0,2-0.61,3.39-0.61,3.39H14.1V40.23z"/>
		<path fill="#BE1622" d="M16.27,37.18H14.1v3.06h1.56C15.67,40.23,16.2,38.99,16.27,37.18z"/>
		<path fill="#BE1622" d="M14.1,47.15v1.45h1.98c-0.16-0.88-0.36-1.45-0.36-1.45H14.1z"/>
	</g>
	<path fill="#BE1622" d="M17.6,32.62h0.98v3.2v13.13v3.2H17.6c-0.73,0-1.32-4.37-1.32-9.76C16.28,36.99,16.87,32.62,17.6,32.62z"/>
	<ellipse fill-rule="evenodd" fill="#741518" cx="18.58" cy="42.39" rx="0.92" ry="9.76"/>
	<path fill="#BE1622" d="M32.38,32.62h0.98v3.2v13.13v3.2h-0.98c-0.73,0-1.32-4.37-1.32-9.76C31.06,36.99,31.65,32.62,32.38,32.62z"
		/>
	<ellipse fill-rule="evenodd" fill="#741518" cx="33.36" cy="42.39" rx="0.92" ry="9.76"/>
	<rect y="2.27" fill-rule="evenodd" fill="#BE1622" width="17.1" height="19.78"/>
	<polygon fill-rule="evenodd" fill="#741518" points="17.1,2.27 0,2.27 2.86,0 14.71,0 	"/>
	<polygon fill-rule="evenodd" fill="#741518" points="1.31,24.06 16.15,24.06 13.17,26.05 3.86,26.05 	"/>
	<polygon fill-rule="evenodd" fill="#741518" points="2.88,30.09 14.58,30.09 13.17,32.08 3.86,32.08 	"/>
	<rect x="1.31" y="22.04" fill-rule="evenodd" fill="#CD5261" width="14.83" height="2.02"/>
	<rect x="3.86" y="26.05" fill-rule="evenodd" fill="#BE1622" width="9.31" height="2.02"/>
	<rect x="3.86" y="32.08" fill-rule="evenodd" fill="#BE1622" width="9.31" height="5.1"/>
	<rect x="3.86" y="37.18" fill-rule="evenodd" fill="#BE1622" width="10.19" height="11.42"/>
	<rect x="5.38" y="38.41" fill-rule="evenodd" fill="#BE1622" width="6.61" height="11.07"/>
	<rect x="2.88" y="37.7" fill-rule="evenodd" fill="#741518" width="8.29" height="10.02"/>
	<rect x="4.71" y="41.87" fill-rule="evenodd" fill="#CD5261" width="6.46" height="3.19"/>
	<rect x="2.88" y="28.07" fill-rule="evenodd" fill="#CD5261" width="11.69" height="2.02"/>
	<path fill-rule="evenodd" fill="#BE1622" d="M21.33,5.07h-3.32V16.1h3.32c0.38,0,0.69-0.31,0.69-0.69V5.76
		C22.02,5.38,21.71,5.07,21.33,5.07z"/>
	<path fill-rule="evenodd" fill="#BE1622" d="M22.72,5.07h-0.7V16.1h0.7c0.38,0,0.69-0.31,0.69-0.69V5.76
		C23.41,5.38,23.1,5.07,22.72,5.07z"/>
	<path fill-rule="evenodd" fill="#CD5261" d="M22.72,6.95h-0.7v7.26h0.7c0.38,0,0.69-0.31,0.69-0.69V7.64
		C23.41,7.26,23.1,6.95,22.72,6.95z"/>
	<rect x="17.1" y="5.61" fill-rule="evenodd" fill="#741518" width="0.91" height="9.1"/>
	<path fill="#CD5261" d="M19.31,36.21c-0.51,0-0.92,2.85-0.92,6.36c0,3.51,0.41,6.36,0.92,6.36h12.41V36.21H19.31z"/>
	<path fill="#BE1622" d="M58.65,40.79H34.28c-0.36,0-0.67,0.41-0.82,1h25.19V40.79z"/>
	<path fill="#CD5261" d="M33.46,41.8c-0.06,0.24-0.1,0.49-0.1,0.77c0,0.98,0.41,1.78,0.92,1.78h24.37V41.8H33.46z"/>
	<path fill="#741518" d="M61.65,42.57c0,0-2.27-6.1-2.27-19.29c0-0.36-0.26-2.73-0.26-2.73l1.26-1.08c0,0,2.45,6.85,7.49,10.71v1.75
		c0,0-4.79,5.31-4.79,8.86L61.65,42.57z"/>
	<path fill="#741518" d="M59.13,65.21c0,0-0.82-12.05,1.55-20.86l0.98-1.78c0,0,4.07-0.85,8.16,0v0.81c0,0-6.15,6.69-7.96,14.52
		C61.86,57.89,59.28,61.14,59.13,65.21z"/>
	<path fill="#CD5261" d="M57.22,40.79c-0.56,0-1.01,0.8-1.01,1.78c0,0.98,0.45,1.78,1.01,1.78h5.93v-3.55H57.22z"/>
	<g>
		<path fill="#741518" d="M38.83,41.27h-2.29v4.22h2.37c0,0,0.3,0.35,0.53,0.88h0.28V39.4h-0.02
			C39.62,40.51,38.83,41.27,38.83,41.27z"/>
		<path fill-rule="evenodd" fill="#CD5261" d="M36.54,41.27h2.37c0,0,0.82,0.93,0.82,2.15s-0.9,2.07-0.9,2.07h-2.29V41.27z"/>
		<path fill="#BE1622" d="M39.71,39.4h-3.16v1.87h2.29C38.83,41.27,39.62,40.51,39.71,39.4z"/>
		<path fill="#BE1622" d="M36.54,45.49v0.88h2.9c-0.24-0.54-0.53-0.88-0.53-0.88H36.54z"/>
	</g>
	<path fill="#CD5261" d="M63.95,52.15c0,0-0.94-3.37-0.85-7.8h-4.44c0,0,4.6,7.1,4.44,9.7L63.95,52.15z"/>
	<path fill="none" stroke="#F3F2F2" stroke-miterlimit="10" d="M59.13,65.21c0,0-0.01-3.89,2.73-7.31c0,0,1.08-6.49,7.96-14.52
		v-0.81"/>
	<path fill="none" stroke="#F3F2F2" stroke-miterlimit="10" d="M61.14,40.79c0,0-1.54-4.64-1.75-17c0,0,0-1.6-0.26-3.25"/>
	<rect x="7.73" y="30.09" fill="#CD5261" width="1.58" height="7.61"/>
</g>
</svg>
