<?xml version="1.0" encoding="UTF-8" standalone="no"?>
<svg
   xmlns:dc="http://purl.org/dc/elements/1.1/"
   xmlns:cc="http://creativecommons.org/ns#"
   xmlns:rdf="http://www.w3.org/1999/02/22-rdf-syntax-ns#"
   xmlns:svg="http://www.w3.org/2000/svg"
   xmlns="http://www.w3.org/2000/svg"
   xmlns:sodipodi="http://sodipodi.sourceforge.net/DTD/sodipodi-0.dtd"
   xmlns:inkscape="http://www.inkscape.org/namespaces/inkscape"
   version="1.1"
   x="0px"
   y="0px"
   viewBox="0 0 1538 1000"
   enable-background="new 0 0 1000 1000"
   xml:space="preserve"
   id="svg8"
   sodipodi:docname="aviso_s_off.svg"
   inkscape:version="0.92.5 (2060ec1f9f, 2020-04-08)"
   width="1538"
   height="1000"><metadata
   id="metadata14"><rdf:RDF><cc:Work
       rdf:about=""><dc:format>image/svg+xml</dc:format><dc:type
         rdf:resource="http://purl.org/dc/dcmitype/StillImage" /><dc:title></dc:title></cc:Work></rdf:RDF></metadata><defs
   id="defs12">
	

		
	
</defs><sodipodi:namedview
   pagecolor="#ffffff"
   bordercolor="#666666"
   borderopacity="1"
   objecttolerance="10"
   gridtolerance="10"
   guidetolerance="10"
   inkscape:pageopacity="0"
   inkscape:pageshadow="2"
   inkscape:window-width="1920"
   inkscape:window-height="1057"
   id="namedview10"
   showgrid="false"
   inkscape:zoom="0.236"
   inkscape:cx="-1063.5593"
   inkscape:cy="-8.4745763"
   inkscape:window-x="-8"
   inkscape:window-y="-8"
   inkscape:window-maximized="1"
   inkscape:current-layer="svg8"
   inkscape:pagecheckerboard="true" />

<path
   style="fill:#014898;stroke-width:0.1"
   d="M 769.24219 67.056641 C 761.48244 66.967911 753.71828 67.772969 749.23828 69.199219 C 737.57828 73.089219 727.74836 79.229453 719.56836 88.439453 C 715.88836 92.529453 686.41711 141.64078 654.28711 197.30078 C 389.70711 654.86078 288.81836 830.21984 284.31836 839.83984 C 280.22836 848.63984 279.19805 854.36945 278.99805 866.43945 C 278.99805 879.93945 280.01805 883.82922 285.74805 895.69922 C 293.11805 910.42922 303.34727 920.66023 318.69727 928.24023 L 328.10742 932.94922 L 769.08789 932.94922 L 1210.0684 932.94922 L 1219.4785 928.24023 C 1234.8285 920.67023 1245.0577 910.43922 1252.4277 895.69922 C 1258.1577 883.82922 1259.1785 879.93945 1258.9785 866.43945 C 1258.9785 855.17945 1257.7485 848.42953 1254.4785 841.26953 C 1252.0185 835.73953 1218.2581 776.3993 1179.5781 709.2793 C 1140.6981 641.9593 1045.5483 477.03008 967.98828 342.58008 C 889.40828 206.50008 823.10844 93.749686 818.39844 88.429688 C 806.52844 75.129687 791.17859 67.970391 772.55859 67.150391 C 771.45984 67.100391 770.35073 67.069321 769.24219 67.056641 z M 780.23047 354.39062 C 809.09332 354.39062 837.73915 357.32031 866.16797 363.17969 C 894.8138 369.03906 920.42079 376.96072 942.99023 386.94336 L 942.99023 497.61914 L 932.24805 497.61914 C 914.23589 482.21115 892.20964 469.19032 866.16797 458.55664 C 840.34332 447.92296 813.75977 442.60742 786.41602 442.60742 C 775.78233 442.60742 766.23307 443.36567 757.76953 444.88477 C 749.30599 446.40386 740.40777 449.33355 731.07617 453.67383 C 723.48069 457.14605 716.86306 462.35438 711.2207 469.29883 C 705.79536 476.02626 703.08203 483.6224 703.08203 492.08594 C 703.08203 504.45573 707.42296 514.33051 716.10352 521.70898 C 725.00109 528.87044 742.03537 535.38086 767.20898 541.24023 C 783.48503 544.92947 799.11003 548.5102 814.08398 551.98242 C 829.27496 555.45464 845.44379 560.2283 862.58789 566.30469 C 896.22504 578.45747 921.18099 594.84266 937.45703 615.45898 C 953.95009 635.85829 962.19727 662.87652 962.19727 696.51367 C 962.19727 744.69076 943.2079 783.42773 905.23047 812.72461 C 867.47005 842.02149 816.36328 856.66992 751.91016 856.66992 C 714.80078 856.66992 682.13954 853.08919 653.92773 845.92773 C 625.93294 838.76628 599.89128 829.86806 575.80273 819.23438 L 575.80273 704 L 586.87109 704 C 611.17665 724.61632 637.97851 740.45768 667.27539 751.52539 C 696.57227 762.5931 724.99978 768.12695 752.56055 768.12695 C 759.50499 768.12695 768.61957 767.36871 779.9043 765.84961 C 791.40603 764.33051 800.62977 761.94271 807.57422 758.6875 C 816.03776 754.99826 823.19922 749.89909 829.05859 743.38867 C 834.91797 736.66124 837.84766 727.87218 837.84766 717.02148 C 837.84766 704.86871 833.074 694.99392 823.52539 687.39844 C 813.97678 679.80295 802.58355 674.2691 789.3457 670.79688 C 772.85265 666.4566 755.16537 662.33398 736.28516 658.42773 C 717.62196 654.52148 700.153 649.74588 683.87695 644.10352 C 646.33355 630.86567 619.42253 613.07118 603.14648 590.71875 C 586.87044 568.36632 578.73242 540.37153 578.73242 506.73438 C 578.73242 461.37847 597.93815 424.70378 636.34961 396.70898 C 674.76107 368.49718 722.72179 354.39062 780.23047 354.39062 z "
   id="path2" />
</svg>