<?xml version="1.0" encoding="utf-8"?>
<!-- Svg Vector Icons : http://www.onlinewebfonts.com/icon -->
<!DOCTYPE svg PUBLIC "-//W3C//DTD SVG 1.1//EN" "http://www.w3.org/Graphics/SVG/1.1/DTD/svg11.dtd">
<svg version="1.1" xmlns="http://www.w3.org/2000/svg" xmlns:xlink="http://www.w3.org/1999/xlink" x="0px" y="0px" viewBox="0 0 1000 1000" enable-background="new 0 0 1000 1000" xml:space="preserve">
<metadata> Svg Vector Icons : http://www.onlinewebfonts.com/icon </metadata>
<g>
	<path style="fill:rgb(1, 72, 152);" d="M500,10C229.4,10,10,229.4,10,500c0,270.6,219.4,490,490,490c270.6,0,490-219.4,490-490C990,229.4,770.6,10,500,10z M801.7,394.1L464.3,731.4c-7.8,7.8-18.1,11.7-28.3,11.7s-20.5-3.9-28.3-11.7L226.4,550.1c-15.6-15.6-15.6-40.9,0-56.6c15.6-15.6,40.9-15.6,56.6,0l153.1,153.1l309.1-309.1c15.6-15.6,40.9-15.6,56.6,0C817.3,353.2,817.3,378.5,801.7,394.1z"/>
</g>
</svg>