<svg width="512" height="512" xmlns="http://www.w3.org/2000/svg">
 <g>
  <path id="svg_1" fill="#014898" d="m437.019989,74.980003c-48.35199,-48.351004 -112.639984,-74.980003 -181.019989,-74.980003s-132.667,26.629 -181.018997,74.980003c-99.814003,99.814003 -99.815002,262.223 -0.002007,362.038002c48.352005,48.352997 112.640999,74.981995 181.021004,74.981995s132.667999,-26.628998 181.019989,-74.981995c99.813019,-99.815002 99.813019,-262.223999 0,-362.038002z"/>
  <path fill="#FFFFFF" d="m371.192993,338.279999l-82.281006,-82.279999l82.279999,-82.281006c9.088989,-9.08699 9.088989,-23.82399 0,-32.911987c-9.087006,-9.089005 -23.824005,-9.087006 -32.911987,0l-82.279999,82.280991l-82.281998,-82.281998c-9.087006,-9.089005 -23.824005,-9.089005 -32.912003,0c-9.089005,9.087006 -9.089005,23.824005 0,32.912003l82.281006,82.281998l-82.281998,82.282013c-9.089005,9.086975 -9.089005,23.823975 0,32.911987c4.544006,4.54599 10.501007,6.816986 16.455002,6.816986c5.955002,0 11.912994,-2.27298 16.455002,-6.816986l82.284988,-82.282013l82.281006,82.279999c4.544006,4.544006 10.501007,6.817017 16.454987,6.817017s11.912994,-2.27301 16.455017,-6.817017c9.091003,-9.086975 9.091003,-23.822998 0.001984,-32.911987z" id="SVGCleanerId_0"/>
  <g id="svg_3">
   <path fill="#FFFFFF" d="m371.192993,338.279999l-82.281006,-82.279999l82.279999,-82.281006c9.088989,-9.08699 9.088989,-23.82399 0,-32.911987c-9.087006,-9.089005 -23.824005,-9.087006 -32.911987,0l-82.279999,82.280991l-82.281998,-82.281998c-9.087006,-9.089005 -23.824005,-9.089005 -32.912003,0c-9.089005,9.087006 -9.089005,23.824005 0,32.912003l82.281006,82.281998l-82.281998,82.282013c-9.089005,9.086975 -9.089005,23.823975 0,32.911987c4.544006,4.54599 10.501007,6.816986 16.455002,6.816986c5.955002,0 11.912994,-2.27298 16.455002,-6.816986l82.284988,-82.282013l82.281006,82.279999c4.544006,4.544006 10.501007,6.817017 16.454987,6.817017s11.912994,-2.27301 16.455017,-6.817017c9.091003,-9.086975 9.091003,-23.822998 0.001984,-32.911987z" id="SVGCleanerId_0_1_"/>
  </g>
 </g>
</svg>