<?xml version="1.0" encoding="utf-8"?>
<svg version="1.1" xmlns="http://www.w3.org/2000/svg" xmlns:xlink="http://www.w3.org/1999/xlink" x="0px" y="0px" viewBox="0 0 1000 1000" enable-background="new 0 0 1000 1000" xml:space="preserve">
<g>
	<g transform="translate(0.000000,511.000000) scale(0.100000,-0.100000)">
		<path style="fill:rgb(1, 72, 152);" d="M4802.4,4418c-116.6-38.9-214.9-100.3-296.7-192.4c-36.8-40.9-331.5-532-652.8-1088.6C1207.1-1438.6,198.2-3192.2,153.2-3288.4c-40.9-88-51.2-145.3-53.2-266c0-135,10.2-173.9,67.5-292.6c73.7-147.3,176-249.6,329.5-325.4l94.1-47.1h4409.8h4409.8l94.1,47.1c153.5,75.7,255.8,178,329.5,325.4c57.3,118.7,67.5,157.6,65.5,292.6c0,112.6-12.3,180.1-45,251.7c-24.6,55.3-362.2,648.7-749,1319.9c-388.8,673.2-1340.3,2322.5-2115.9,3667c-785.8,1360.8-1448.8,2488.3-1495.9,2541.5c-118.7,133-272.2,204.6-458.4,212.8C4947.7,4442.5,4853.6,4434.3,4802.4,4418z M5547.3,2230.5c69.6-36.8,102.3-81.8,128.9-182.1c16.4-55.2-106.4-2877.1-135-3081.7c-14.3-114.6-106.4-221-219-251.7c-49.1-12.3-198.5-18.4-360.1-14.3c-233.3,4.1-290.6,12.3-349.9,47.1c-145.3,83.9-139.1,32.7-225.1,1718.9c-45,888.1-71.6,1549.1-61.4,1583.8c59.3,208.7,118.7,227.1,726.4,221C5414.3,2267.3,5492,2261.2,5547.3,2230.5z M5318.1-1823.3c153.5-69.6,300.8-210.8,384.7-370.4c61.4-114.6,65.5-135.1,65.5-337.6c0-190.3-6.1-229.2-55.3-331.5c-147.3-313.1-509.5-503.4-845.1-444c-251.7,45-472.7,212.8-579.1,444c-69.6,147.3-85.9,394.9-36.8,560.7c63.4,223,266,429.7,503.4,513.6C4900.6-1735.3,5162.6-1751.6,5318.1-1823.3z"/>
	</g>
</g>
</svg>