<?xml version="1.0" encoding="UTF-8" standalone="no"?>
<svg
   xmlns:dc="http://purl.org/dc/elements/1.1/"
   xmlns:cc="http://creativecommons.org/ns#"
   xmlns:rdf="http://www.w3.org/1999/02/22-rdf-syntax-ns#"
   xmlns:svg="http://www.w3.org/2000/svg"
   xmlns="http://www.w3.org/2000/svg"
   xmlns:xlink="http://www.w3.org/1999/xlink"
   xmlns:sodipodi="http://sodipodi.sourceforge.net/DTD/sodipodi-0.dtd"
   xmlns:inkscape="http://www.inkscape.org/namespaces/inkscape"
   version="1.1"
   preserveAspectRatio="xMidYMid meet"
   viewBox="0 0 640 640"
   width="640"
   height="640"
   id="svg28"
   sodipodi:docname="on_on_blanco_inv.svg"
   inkscape:version="0.92.5 (2060ec1f9f, 2020-04-08)">
  <metadata
     id="metadata32">
    <rdf:RDF>
      <cc:Work
         rdf:about="">
        <dc:format>image/svg+xml</dc:format>
        <dc:type
           rdf:resource="http://purl.org/dc/dcmitype/StillImage" />
        <dc:title></dc:title>
      </cc:Work>
    </rdf:RDF>
  </metadata>
  <sodipodi:namedview
     pagecolor="#ffffff"
     bordercolor="#666666"
     borderopacity="1"
     objecttolerance="10"
     gridtolerance="10"
     guidetolerance="10"
     inkscape:pageopacity="0"
     inkscape:pageshadow="2"
     inkscape:window-width="1920"
     inkscape:window-height="1017"
     id="namedview30"
     showgrid="false"
     inkscape:zoom="0.36875"
     inkscape:cx="-180.33898"
     inkscape:cy="320"
     inkscape:window-x="-8"
     inkscape:window-y="-8"
     inkscape:window-maximized="1"
     inkscape:current-layer="svg28" />
  <defs
     id="defs6">
    <path
       d="M0 0L640 0L640 647.32L0 647.32L0 0Z"
       id="a1SpOuxasi" />
    <path
       d="M344.57 21L356.66 22.23L368.6 23.94L380.38 26.11L392.01 28.74L403.46 31.81L414.72 35.32L425.79 39.26L436.66 43.62L447.32 48.38L457.75 53.54L467.95 59.09L477.91 65.02L487.62 71.31L497.06 77.96L506.24 84.97L515.13 92.31L523.73 99.98L532.03 107.97L540.02 116.27L547.7 124.88L555.04 133.77L562.04 142.94L568.7 152.39L574.99 162.1L580.92 172.05L586.46 182.26L591.62 192.69L596.39 203.34L600.74 214.21L604.68 225.28L608.19 236.55L611.27 248L613.89 259.62L616.07 271.41L617.77 283.35L619 295.44L619.75 307.66L620 320.01L619.75 332.35L619 344.58L617.77 356.66L616.07 368.6L613.89 380.39L611.27 392.01L608.19 403.46L604.68 414.73L600.74 425.8L596.39 436.67L591.62 447.32L586.46 457.76L580.92 467.96L574.99 477.92L568.7 487.62L562.04 497.07L555.04 506.24L547.7 515.13L540.02 523.74L532.03 532.04L523.73 540.03L515.13 547.7L506.24 555.04L497.06 562.05L487.62 568.7L477.91 575L467.95 580.92L457.75 586.47L447.32 591.63L436.66 596.39L425.79 600.75L414.72 604.69L403.46 608.2L392.01 611.27L380.38 613.9L368.6 616.07L356.66 617.78L344.57 619.01L332.35 619.75L320 620L307.65 619.75L295.43 619.01L283.34 617.78L271.4 616.07L259.62 613.9L247.99 611.27L236.54 608.2L225.28 604.69L214.21 600.75L203.34 596.39L192.68 591.63L182.25 586.47L172.05 580.92L162.09 575L152.38 568.7L142.94 562.05L133.76 555.04L124.87 547.7L116.27 540.03L107.97 532.04L99.98 523.74L92.3 515.13L84.96 506.24L77.96 497.07L71.3 487.62L65.01 477.92L59.08 467.96L53.54 457.76L48.38 447.32L43.61 436.67L39.26 425.8L35.32 414.73L31.81 403.46L28.73 392.01L26.11 380.39L23.93 368.6L22.23 356.66L21 344.58L20.25 332.35L20 320.01L20.25 307.66L21 295.44L22.23 283.35L23.93 271.41L26.11 259.62L28.73 248L31.81 236.55L35.32 225.28L39.26 214.21L43.61 203.34L48.38 192.69L53.54 182.26L59.08 172.05L65.01 162.1L71.3 152.39L77.96 142.94L84.96 133.77L92.3 124.88L99.98 116.27L107.97 107.97L116.27 99.98L124.87 92.31L133.76 84.97L142.94 77.96L152.38 71.31L162.09 65.02L172.05 59.09L182.25 53.54L192.68 48.38L203.34 43.62L214.21 39.26L225.28 35.32L236.54 31.81L247.99 28.74L259.62 26.11L271.4 23.94L283.34 22.23L295.43 21L307.65 20.26L320 20L332.35 20.26L344.57 21ZM303.22 115.82L294.97 116.66L286.81 117.83L278.76 119.31L270.83 121.11L263.01 123.21L255.32 125.6L247.76 128.29L240.33 131.27L233.06 134.52L225.93 138.04L218.97 141.83L212.17 145.88L205.54 150.18L199.09 154.72L192.82 159.5L186.75 164.52L180.88 169.75L175.21 175.21L169.75 180.88L164.51 186.76L159.5 192.83L154.72 199.09L150.17 205.54L145.87 212.17L141.83 218.97L138.04 225.94L134.51 233.06L131.26 240.34L128.29 247.76L125.6 255.32L123.2 263.01L121.1 270.83L119.31 278.77L117.82 286.82L116.66 294.97L115.82 303.23L115.31 311.57L115.14 320.01L115.31 328.44L115.82 336.78L116.66 345.04L117.82 353.19L119.31 361.24L121.1 369.18L123.2 377L125.6 384.69L128.29 392.25L131.26 399.67L134.51 406.95L138.04 414.07L141.83 421.04L145.87 427.84L150.17 434.47L154.72 440.92L159.5 447.18L164.51 453.25L169.75 459.13L175.21 464.8L180.88 470.26L186.75 475.49L192.82 480.51L199.09 485.29L205.54 489.83L212.17 494.13L218.97 498.18L225.93 501.97L233.06 505.49L240.33 508.74L247.76 511.72L255.32 514.41L263.01 516.8L270.83 518.9L278.76 520.7L286.81 522.18L294.97 523.35L303.22 524.19L311.57 524.7L320 524.87L328.43 524.7L336.78 524.19L345.03 523.35L353.19 522.18L361.24 520.7L369.17 518.9L376.99 516.8L384.68 514.41L392.24 511.72L399.67 508.74L406.94 505.49L414.07 501.97L421.03 498.18L427.83 494.13L434.46 489.83L440.91 485.29L447.18 480.51L453.25 475.49L459.12 470.25L464.79 464.8L470.25 459.13L475.49 453.25L480.5 447.18L485.28 440.92L489.83 434.47L494.13 427.84L498.17 421.04L501.96 414.07L505.49 406.95L508.74 399.67L511.71 392.25L514.4 384.69L516.8 377L518.9 369.18L520.69 361.24L522.18 353.19L523.34 345.04L524.18 336.78L524.69 328.44L524.86 320.01L524.69 311.57L524.18 303.23L523.34 294.97L522.18 286.82L520.69 278.77L518.9 270.83L516.8 263.01L514.4 255.32L511.71 247.76L508.74 240.34L505.49 233.06L501.96 225.94L498.17 218.97L494.13 212.17L489.83 205.54L485.28 199.09L480.5 192.83L475.49 186.76L470.25 180.88L464.79 175.21L459.12 169.75L453.25 164.52L447.18 159.5L440.91 154.72L434.46 150.18L427.83 145.88L421.03 141.83L414.07 138.04L406.94 134.52L399.67 131.27L392.24 128.29L384.68 125.6L376.99 123.21L369.17 121.11L361.24 119.31L353.19 117.83L345.03 116.66L336.78 115.82L328.43 115.31L320 115.14L311.57 115.31L303.22 115.82Z"
       id="cFMewT9qI" />
    <path
       d="M428.65 171.72C428.65 154.77 415.09 143.21 401.64 150.67C383.35 160.83 168.79 285.61 152.99 294.09C136.46 302.91 132.22 319.1 150.99 330.52C172.19 343.48 384.4 481.71 397.05 488.89C412.78 497.93 428.65 483.15 428.65 467.77C428.65 438.16 428.65 201.33 428.65 171.72Z"
       id="o9Yctqmaq" />
    <path
       d="M525.62 271.72C525.62 254.77 512.06 243.21 498.61 250.67C480.32 260.83 265.76 385.61 249.96 394.09C233.43 402.91 229.19 419.1 247.96 430.52C269.16 443.48 481.37 581.71 494.02 588.89C509.75 597.93 525.62 583.15 525.62 567.77C525.62 538.16 525.62 301.33 525.62 271.72Z"
       id="cFmJ2qnhY" />
  </defs>
  <g
     id="g26"
     transform="matrix(0.96666667,0,0,0.96666667,10.666667,10.666667)">
    <g
       id="g24">
      <g
         id="g14">
        <use
           xlink:href="#cFMewT9qI"
           id="use8"
           style="opacity:1;fill:#00ff00;fill-opacity:1"
           x="0"
           y="0"
           width="100%"
           height="100%" />
        <g
           id="g12">
          <use
             xlink:href="#cFMewT9qI"
             id="use10"
             style="opacity:1;fill-opacity:0"
             x="0"
             y="0"
             width="100%"
             height="100%" />
        </g>
      </g>
      <g
         id="g22">
        <use
           xlink:href="#o9Yctqmaq"
           id="use16"
           style="opacity:1;fill:#00ff00;fill-opacity:1"
           x="0"
           y="0"
           width="100%"
           height="100%" />
        <g
           id="g20">
          <use
             xlink:href="#o9Yctqmaq"
             id="use18"
             style="opacity:1;fill-opacity:0"
             x="0"
             y="0"
             width="100%"
             height="100%" />
        </g>
      </g>
    </g>
  </g>
  <path
     style="fill:#01ff00;fill-opacity:1;fill-rule:nonzero;stroke:#01ff00;stroke-width:9.01408482;stroke-linecap:round;stroke-linejoin:round;stroke-miterlimit:4;stroke-dasharray:none;stroke-opacity:1"
     d="M 4.5070412,4.5070412 V 635.49296 H 635.49296 V 4.5070412 Z M 18.468368,17.306346 H 621.53163 V 622.6919 H 18.468368 Z"
     id="rect831"
     inkscape:connector-curvature="0" />
</svg>
