<?xml version="1.0" encoding="UTF-8" standalone="no"?>
<svg
   xmlns:dc="http://purl.org/dc/elements/1.1/"
   xmlns:cc="http://creativecommons.org/ns#"
   xmlns:rdf="http://www.w3.org/1999/02/22-rdf-syntax-ns#"
   xmlns:svg="http://www.w3.org/2000/svg"
   xmlns="http://www.w3.org/2000/svg"
   xmlns:xlink="http://www.w3.org/1999/xlink"
   xmlns:sodipodi="http://sodipodi.sourceforge.net/DTD/sodipodi-0.dtd"
   xmlns:inkscape="http://www.inkscape.org/namespaces/inkscape"
   version="1.1"
   preserveAspectRatio="xMidYMid meet"
   viewBox="0 0 640 640"
   width="640"
   height="640"
   id="svg35"
   sodipodi:docname="on_off_inv.svg"
   inkscape:version="0.92.5 (2060ec1f9f, 2020-04-08)">
  <metadata
     id="metadata39">
    <rdf:RDF>
      <cc:Work
         rdf:about="">
        <dc:format>image/svg+xml</dc:format>
        <dc:type
           rdf:resource="http://purl.org/dc/dcmitype/StillImage" />
      </cc:Work>
    </rdf:RDF>
  </metadata>
  <sodipodi:namedview
     pagecolor="#ffffff"
     bordercolor="#666666"
     borderopacity="1"
     objecttolerance="10"
     gridtolerance="10"
     guidetolerance="10"
     inkscape:pageopacity="0"
     inkscape:pageshadow="2"
     inkscape:window-width="760"
     inkscape:window-height="480"
     id="namedview37"
     showgrid="false"
     inkscape:zoom="0.36875"
     inkscape:cx="320"
     inkscape:cy="320"
     inkscape:window-x="0"
     inkscape:window-y="0"
     inkscape:window-maximized="0"
     inkscape:current-layer="svg35" />
  <defs
     id="defs5">
    <path
       d="M344.57 21L356.66 22.23L368.6 23.94L380.38 26.11L392.01 28.74L403.46 31.81L414.72 35.32L425.79 39.26L436.66 43.62L447.32 48.38L457.75 53.54L467.95 59.09L477.91 65.02L487.62 71.31L497.06 77.96L506.24 84.97L515.13 92.31L523.73 99.98L532.03 107.97L540.02 116.27L547.7 124.88L555.04 133.77L562.04 142.94L568.7 152.39L574.99 162.1L580.92 172.05L586.46 182.26L591.62 192.69L596.39 203.34L600.74 214.21L604.68 225.28L608.19 236.55L611.27 248L613.89 259.62L616.07 271.41L617.77 283.35L619 295.44L619.75 307.66L620 320.01L619.75 332.35L619 344.58L617.77 356.66L616.07 368.6L613.89 380.39L611.27 392.01L608.19 403.46L604.68 414.73L600.74 425.8L596.39 436.67L591.62 447.32L586.46 457.76L580.92 467.96L574.99 477.92L568.7 487.62L562.04 497.07L555.04 506.24L547.7 515.13L540.02 523.74L532.03 532.04L523.73 540.03L515.13 547.7L506.24 555.04L497.06 562.05L487.62 568.7L477.91 575L467.95 580.92L457.75 586.47L447.32 591.63L436.66 596.39L425.79 600.75L414.72 604.69L403.46 608.2L392.01 611.27L380.38 613.9L368.6 616.07L356.66 617.78L344.57 619.01L332.35 619.75L320 620L307.65 619.75L295.43 619.01L283.34 617.78L271.4 616.07L259.62 613.9L247.99 611.27L236.54 608.2L225.28 604.69L214.21 600.75L203.34 596.39L192.68 591.63L182.25 586.47L172.05 580.92L162.09 575L152.38 568.7L142.94 562.05L133.76 555.04L124.87 547.7L116.27 540.03L107.97 532.04L99.98 523.74L92.3 515.13L84.96 506.24L77.96 497.07L71.3 487.62L65.01 477.92L59.08 467.96L53.54 457.76L48.38 447.32L43.61 436.67L39.26 425.8L35.32 414.73L31.81 403.46L28.73 392.01L26.11 380.39L23.93 368.6L22.23 356.66L21 344.58L20.25 332.35L20 320.01L20.25 307.66L21 295.44L22.23 283.35L23.93 271.41L26.11 259.62L28.73 248L31.81 236.55L35.32 225.28L39.26 214.21L43.61 203.34L48.38 192.69L53.54 182.26L59.08 172.05L65.01 162.1L71.3 152.39L77.96 142.94L84.96 133.77L92.3 124.88L99.98 116.27L107.97 107.97L116.27 99.98L124.87 92.31L133.76 84.97L142.94 77.96L152.38 71.31L162.09 65.02L172.05 59.09L182.25 53.54L192.68 48.38L203.34 43.62L214.21 39.26L225.28 35.32L236.54 31.81L247.99 28.74L259.62 26.11L271.4 23.94L283.34 22.23L295.43 21L307.65 20.26L320 20L332.35 20.26L344.57 21ZM303.22 115.82L294.97 116.66L286.81 117.83L278.76 119.31L270.83 121.11L263.01 123.21L255.32 125.6L247.76 128.29L240.33 131.27L233.06 134.52L225.93 138.04L218.97 141.83L212.17 145.88L205.54 150.18L199.09 154.72L192.82 159.5L186.75 164.52L180.88 169.75L175.21 175.21L169.75 180.88L164.51 186.76L159.5 192.83L154.72 199.09L150.17 205.54L145.87 212.17L141.83 218.97L138.04 225.94L134.51 233.06L131.26 240.34L128.29 247.76L125.6 255.32L123.2 263.01L121.1 270.83L119.31 278.77L117.82 286.82L116.66 294.97L115.82 303.23L115.31 311.57L115.14 320.01L115.31 328.44L115.82 336.78L116.66 345.04L117.82 353.19L119.31 361.24L121.1 369.18L123.2 377L125.6 384.69L128.29 392.25L131.26 399.67L134.51 406.95L138.04 414.07L141.83 421.04L145.87 427.84L150.17 434.47L154.72 440.92L159.5 447.18L164.51 453.25L169.75 459.13L175.21 464.8L180.88 470.26L186.75 475.49L192.82 480.51L199.09 485.29L205.54 489.83L212.17 494.13L218.97 498.18L225.93 501.97L233.06 505.49L240.33 508.74L247.76 511.72L255.32 514.41L263.01 516.8L270.83 518.9L278.76 520.7L286.81 522.18L294.97 523.35L303.22 524.19L311.57 524.7L320 524.87L328.43 524.7L336.78 524.19L345.03 523.35L353.19 522.18L361.24 520.7L369.17 518.9L376.99 516.8L384.68 514.41L392.24 511.72L399.67 508.74L406.94 505.49L414.07 501.97L421.03 498.18L427.83 494.13L434.46 489.83L440.91 485.29L447.18 480.51L453.25 475.49L459.12 470.25L464.79 464.8L470.25 459.13L475.49 453.25L480.5 447.18L485.28 440.92L489.83 434.47L494.13 427.84L498.17 421.04L501.96 414.07L505.49 406.95L508.74 399.67L511.71 392.25L514.4 384.69L516.8 377L518.9 369.18L520.69 361.24L522.18 353.19L523.34 345.04L524.18 336.78L524.69 328.44L524.86 320.01L524.69 311.57L524.18 303.23L523.34 294.97L522.18 286.82L520.69 278.77L518.9 270.83L516.8 263.01L514.4 255.32L511.71 247.76L508.74 240.34L505.49 233.06L501.96 225.94L498.17 218.97L494.13 212.17L489.83 205.54L485.28 199.09L480.5 192.83L475.49 186.76L470.25 180.88L464.79 175.21L459.12 169.75L453.25 164.52L447.18 159.5L440.91 154.72L434.46 150.18L427.83 145.88L421.03 141.83L414.07 138.04L406.94 134.52L399.67 131.27L392.24 128.29L384.68 125.6L376.99 123.21L369.17 121.11L361.24 119.31L353.19 117.83L345.03 116.66L336.78 115.82L328.43 115.31L320 115.14L311.57 115.31L303.22 115.82Z"
       id="avSKTN5z" />
    <path
       d="M344.57 20.99L356.66 22.22L368.6 23.93L380.38 26.1L392.01 28.73L403.46 31.8L414.72 35.31L425.79 39.25L436.66 43.61L447.32 48.37L457.75 53.53L467.95 59.08L477.91 65L487.62 71.3L497.06 77.95L506.24 84.96L515.13 92.3L523.73 99.97L532.03 107.96L540.02 116.26L547.7 124.87L555.04 133.76L562.04 142.93L568.7 152.38L574.99 162.08L580.92 172.04L586.46 182.24L591.62 192.68L596.39 203.33L600.74 214.2L604.68 225.27L608.19 236.54L611.27 247.99L613.89 259.61L616.07 271.4L617.77 283.34L619 295.42L619.75 307.65L620 319.99L619.75 332.34L619 344.56L617.77 356.65L616.07 368.59L613.89 380.38L611.27 392L608.19 403.45L604.68 414.72L600.74 425.79L596.39 436.66L591.62 447.31L586.46 457.74L580.92 467.95L574.99 477.9L568.7 487.61L562.04 497.06L555.04 506.23L547.7 515.12L540.02 523.73L532.03 532.03L523.73 540.02L515.13 547.69L506.24 555.03L497.06 562.04L487.62 568.69L477.91 574.98L467.95 580.91L457.75 586.46L447.32 591.62L436.66 596.38L425.79 600.74L414.72 604.68L403.46 608.19L392.01 611.26L380.38 613.89L368.6 616.06L356.66 617.77L344.57 619L332.35 619.74L320 620L307.65 619.74L295.43 619L283.34 617.77L271.4 616.06L259.62 613.89L247.99 611.26L236.54 608.19L225.28 604.68L214.21 600.74L203.34 596.38L192.68 591.62L182.25 586.46L172.05 580.91L162.09 574.98L152.38 568.69L142.94 562.04L133.76 555.03L124.87 547.69L116.27 540.02L107.97 532.03L99.98 523.73L92.3 515.12L84.96 506.23L77.96 497.06L71.3 487.61L65.01 477.9L59.08 467.95L53.54 457.74L48.38 447.31L43.61 436.66L39.26 425.79L35.32 414.72L31.81 403.45L28.73 392L26.11 380.38L23.93 368.59L22.23 356.65L21 344.56L20.25 332.34L20 319.99L20.25 307.65L21 295.42L22.23 283.34L23.93 271.4L26.11 259.61L28.73 247.99L31.81 236.54L35.32 225.27L39.26 214.2L43.61 203.33L48.38 192.68L53.54 182.24L59.08 172.04L65.01 162.08L71.3 152.38L77.96 142.93L84.96 133.76L92.3 124.87L99.98 116.26L107.97 107.96L116.27 99.97L124.87 92.3L133.76 84.96L142.94 77.95L152.38 71.3L162.09 65L172.05 59.08L182.25 53.53L192.68 48.37L203.34 43.61L214.21 39.25L225.28 35.31L236.54 31.8L247.99 28.73L259.62 26.1L271.4 23.93L283.34 22.22L295.43 20.99L307.65 20.25L320 20L332.35 20.25L344.57 20.99ZM303.22 115.81L294.97 116.65L286.81 117.82L278.76 119.3L270.83 121.1L263.01 123.2L255.32 125.59L247.76 128.28L240.33 131.26L233.06 134.51L225.93 138.03L218.97 141.82L212.17 145.87L205.54 150.17L199.09 154.71L192.82 159.49L186.75 164.51L180.88 169.74L175.21 175.2L169.75 180.87L164.51 186.75L159.5 192.82L154.72 199.08L150.17 205.53L145.87 212.16L141.83 218.96L138.04 225.93L134.51 233.05L131.26 240.33L128.29 247.75L125.6 255.31L123.2 263L121.1 270.82L119.31 278.76L117.82 286.81L116.66 294.96L115.82 303.22L115.31 311.56L115.14 319.99L115.31 328.43L115.82 336.77L116.66 345.03L117.82 353.18L119.31 361.23L121.1 369.17L123.2 376.99L125.6 384.68L128.29 392.24L131.26 399.66L134.51 406.94L138.04 414.06L141.83 421.03L145.87 427.83L150.17 434.46L154.72 440.91L159.5 447.17L164.51 453.24L169.75 459.12L175.21 464.79L180.88 470.25L186.75 475.48L192.82 480.5L199.09 485.28L205.54 489.82L212.17 494.12L218.97 498.17L225.93 501.96L233.06 505.48L240.33 508.73L247.76 511.71L255.32 514.4L263.01 516.79L270.83 518.89L278.76 520.69L286.81 522.17L294.97 523.34L303.22 524.18L311.57 524.69L320 524.86L328.43 524.69L336.78 524.18L345.03 523.34L353.19 522.17L361.24 520.69L369.17 518.89L376.99 516.79L384.68 514.4L392.24 511.71L399.67 508.73L406.94 505.48L414.07 501.96L421.03 498.17L427.83 494.12L434.46 489.82L440.91 485.28L447.18 480.5L453.25 475.48L459.12 470.25L464.79 464.79L470.25 459.12L475.49 453.24L480.5 447.17L485.28 440.91L489.83 434.46L494.13 427.83L498.17 421.03L501.96 414.06L505.49 406.94L508.74 399.66L511.71 392.24L514.4 384.68L516.8 376.99L518.9 369.17L520.69 361.23L522.18 353.18L523.34 345.03L524.18 336.77L524.69 328.43L524.86 319.99L524.69 311.56L524.18 303.22L523.34 294.96L522.18 286.81L520.69 278.76L518.9 270.82L516.8 263L514.4 255.31L511.71 247.75L508.74 240.33L505.49 233.05L501.96 225.93L498.17 218.96L494.13 212.16L489.83 205.53L485.28 199.08L480.5 192.82L475.49 186.75L470.25 180.87L464.79 175.2L459.12 169.75L453.25 164.51L447.18 159.49L440.91 154.71L434.46 150.17L427.83 145.87L421.03 141.82L414.07 138.03L406.94 134.51L399.67 131.26L392.24 128.28L384.68 125.59L376.99 123.2L369.17 121.1L361.24 119.3L353.19 117.82L345.03 116.65L336.78 115.81L328.43 115.3L320 115.13L311.57 115.3L303.22 115.81Z"
       id="a39G2EyRyf" />
    <path
       d="M428.65 467.77C428.65 438.16 428.65 201.33 428.65 171.72C428.65 154.77 415.09 143.21 401.64 150.67C383.35 160.83 168.79 285.61 152.99 294.09C136.46 302.91 132.22 319.1 150.99 330.52C172.19 343.48 384.4 481.71 397.05 488.89C412.78 497.93 428.65 483.15 428.65 467.77Z"
       id="b2Q3S3BGRi" />
  </defs>
  <g
     id="g33"
     transform="matrix(0.96666667,0,0,0.96666667,10.666667,10.666667)">
    <g
       id="g31">
      <g
         id="g13">
        <use
           xlink:href="#avSKTN5z"
           id="use7"
           style="opacity:1;fill:#b3c8e0;fill-opacity:1"
           x="0"
           y="0"
           width="100%"
           height="100%" />
        <g
           id="g11">
          <use
             xlink:href="#avSKTN5z"
             id="use9"
             style="opacity:1;fill-opacity:0"
             x="0"
             y="0"
             width="100%"
             height="100%" />
        </g>
      </g>
      <g
         id="g21">
        <use
           xlink:href="#a39G2EyRyf"
           id="use15"
           style="opacity:1;fill:#000000;fill-opacity:0"
           x="0"
           y="0"
           width="100%"
           height="100%" />
        <g
           id="g19">
          <use
             xlink:href="#a39G2EyRyf"
             id="use17"
             style="opacity:1;fill-opacity:0"
             x="0"
             y="0"
             width="100%"
             height="100%" />
        </g>
      </g>
      <g
         id="g29">
        <use
           xlink:href="#b2Q3S3BGRi"
           id="use23"
           style="opacity:1;fill:#014898;fill-opacity:1"
           x="0"
           y="0"
           width="100%"
           height="100%" />
        <g
           id="g27">
          <use
             xlink:href="#b2Q3S3BGRi"
             id="use25"
             style="opacity:1;fill-opacity:0"
             x="0"
             y="0"
             width="100%"
             height="100%" />
        </g>
      </g>
    </g>
  </g>
  <path
     style="fill:#014898;fill-opacity:1;fill-rule:nonzero;stroke:#014b98;stroke-width:9.01408482;stroke-linecap:round;stroke-linejoin:round;stroke-miterlimit:4;stroke-dasharray:none;stroke-opacity:1"
     d="M 4.5070412,4.5070412 V 635.49296 H 635.49296 V 4.5070412 Z M 18.468368,17.306346 H 621.53163 V 622.6919 H 18.468368 Z"
     id="rect831"
     inkscape:connector-curvature="0" />
</svg>
