<?xml version="1.0" encoding="utf-8"?>
<!-- Generator: Adobe Illustrator 23.0.3, SVG Export Plug-In . SVG Version: 6.00 Build 0)  -->
<svg version="1.1" xmlns="http://www.w3.org/2000/svg" xmlns:xlink="http://www.w3.org/1999/xlink" x="0px" y="0px"
	 viewBox="0 0 86 105.7" style="enable-background:new 0 0 86 105.7;" xml:space="preserve">
<style type="text/css">
	.st0{fill:#FFFFFF;}
	.st1{fill:none;stroke:#808080;stroke-width:0.1065;stroke-miterlimit:10;}
	.st2{enable-background:new    ;}
	.st3{fill:#E7E6E6;}
	.st4{fill:#CDCCCC;}
	.st5{fill:#751518;}
	.st6{fill:#BD1622;}
	.st7{fill:#CC5261;}
	.st8{fill:#5C637D;}
	.st9{fill:#50566C;}
	.st10{fill:none;stroke:#CDCCCC;stroke-width:0.1107;stroke-miterlimit:10;}
	.st11{fill:#D9D9D9;}
	.st12{fill:#F2F1F1;}
	.st13{fill:#006E32;}
	.st14{fill:#31AA59;}
	.st15{fill:#6ABA82;}
	.st16{fill:#868686;}
	.st17{fill:#3458A3;}
	.st18{fill:#9FABD8;}
	.st19{fill:#BFC9E8;}
</style>
<g id="Capa_2">
</g>
<g id="Capa_1">
	<g>
		<g class="st2">
			<g>
				<path class="st3" d="M69.3,81.6c0.5,0.2,10.5,4.1,10.4,8c0,3-9,13.4-12.9,15.7c-1.3,0.7-2,0.6-1.7-1c1.4-7.4,2.5-20.6,2.5-21.3
					L69.3,81.6z"/>
			</g>
			<g>
				<path class="st4" d="M69.5,81.7c0.1,0,0.2,0.1,0.3,0.1c0,0,0.1,0,0.1,0c0.1,0.1,0.3,0.1,0.5,0.2c0,0,0,0,0.1,0
					c0.2,0.1,0.3,0.2,0.5,0.2c0.1,0,0.1,0,0.2,0.1c0.2,0.1,0.5,0.2,0.7,0.3c0,0,0.1,0,0.1,0c0.2,0.1,0.5,0.2,0.7,0.3
					c0.1,0,0.1,0.1,0.2,0.1c0.3,0.1,0.5,0.3,0.8,0.4c0,0,0.1,0,0.1,0.1c0.3,0.2,0.6,0.3,0.9,0.5l-1.4-0.8c-0.1-0.1-0.3-0.1-0.4-0.2
					c-0.2-0.1-0.3-0.2-0.5-0.3c0,0-0.1,0-0.1-0.1c-0.3-0.1-0.6-0.3-0.8-0.4c-0.1,0-0.1-0.1-0.2-0.1c-0.2-0.1-0.5-0.2-0.7-0.3
					c0,0-0.1,0-0.1,0c-0.2-0.1-0.5-0.2-0.7-0.3c-0.1,0-0.1-0.1-0.2-0.1c-0.2-0.1-0.4-0.2-0.5-0.2c0,0,0,0-0.1,0
					c-0.1-0.1-0.3-0.1-0.4-0.2c0,0-0.1,0-0.1,0c0,0-0.1,0-0.1,0c-0.1-0.1-0.2-0.1-0.3-0.1c0,0,0,0-0.1,0c-0.1,0-0.1-0.1-0.2-0.1
					l1.4,0.8C69.3,81.6,69.4,81.7,69.5,81.7C69.5,81.7,69.5,81.7,69.5,81.7z"/>
				<path class="st4" d="M66.3,96.3c0-0.4,0.1-0.7,0.1-1.1c0-0.1,0-0.2,0-0.2c0-0.3,0.1-0.6,0.1-1c0-0.1,0-0.1,0-0.2
					c0-0.4,0.1-0.7,0.1-1.1c0-0.1,0-0.2,0-0.3c0-0.3,0.1-0.6,0.1-0.9c0-0.1,0-0.1,0-0.2c0-0.4,0.1-0.7,0.1-1.1c0-0.1,0-0.1,0-0.2
					c0-0.3,0.1-0.6,0.1-0.8c0-0.1,0-0.2,0-0.3c0-0.3,0.1-0.6,0.1-0.9c0-0.1,0-0.2,0-0.2c0-0.2,0-0.5,0.1-0.7c0-0.1,0-0.1,0-0.2
					c0-0.3,0-0.5,0.1-0.8c0-0.1,0-0.1,0-0.2c0-0.2,0-0.4,0-0.5c0-0.1,0-0.1,0-0.2c0-0.2,0-0.4,0-0.6c0,0,0-0.1,0-0.1
					c0-0.1,0-0.3,0-0.4c0-0.1,0-0.2,0-0.2c0,0,0-0.1,0-0.1c0-0.1,0-0.2,0-0.3c0-0.1,0-0.2,0-0.2c0,0,0,0,0,0c0-0.1,0-0.1,0-0.1
					l-1.4-0.8c0,0,0,0.1,0,0.1c0,0,0,0,0,0c0,0.2,0,0.4-0.1,0.7c0,0,0,0.1,0,0.1c0,0.1,0,0.3,0,0.4c0,0,0,0.1,0,0.1
					c0,0.2,0,0.4,0,0.6c0,0.1,0,0.1,0,0.2c0,0.2,0,0.4-0.1,0.6c0,0,0,0.1,0,0.1c0,0.3,0,0.5-0.1,0.8c0,0.1,0,0.2,0,0.2
					c0,0.2,0,0.5-0.1,0.7c0,0.1,0,0.1,0,0.2c0,0.3-0.1,0.6-0.1,0.9c0,0.1,0,0.1,0,0.2c0,0.3-0.1,0.5-0.1,0.8c0,0.1,0,0.2,0,0.3
					c0,0.3-0.1,0.7-0.1,1c0,0.1,0,0.2,0,0.3c0,0.3-0.1,0.6-0.1,0.9c0,0.1,0,0.1,0,0.2c0,0.4-0.1,0.7-0.1,1.1c0,0.1,0,0.1,0,0.2
					c0,0.3-0.1,0.6-0.1,1c0,0.1,0,0.2,0,0.3c0,0.4-0.1,0.7-0.1,1.1c0,0.1,0,0.1,0,0.2c0,0.3-0.1,0.7-0.1,1c0,0.1,0,0.1,0,0.2
					c-0.1,0.5-0.1,1.1-0.2,1.6c0,0.1,0,0.1,0,0.2c-0.1,0.5-0.2,1.1-0.2,1.6c0,0,0,0.1,0,0.1c-0.1,0.5-0.2,1-0.2,1.5c0,0,0,0.1,0,0.1
					c-0.1,0.5-0.2,1-0.3,1.5c0,0.1,0,0.2,0,0.3c0,0,0,0.1,0,0.1c0,0.1,0,0.1,0,0.2c0,0.1,0,0.2,0,0.2c0,0,0,0.1,0,0.1
					c0,0.1,0,0.1,0.1,0.2c0,0,0,0.1,0,0.1c0,0.1,0.1,0.1,0.2,0.2l1.4,0.8c-0.1,0-0.1-0.1-0.2-0.2c0,0,0-0.1,0-0.1
					c0-0.1,0-0.1-0.1-0.2c0,0,0-0.1,0-0.1c0-0.1,0-0.1,0-0.2c0-0.1,0-0.1,0-0.2c0-0.1,0-0.3,0.1-0.4c0.1-0.5,0.2-1,0.3-1.5
					c0,0,0,0,0-0.1c0.1-0.5,0.2-1,0.3-1.6c0,0,0-0.1,0-0.1c0.1-0.5,0.2-1,0.2-1.6c0-0.1,0-0.1,0-0.2c0.1-0.5,0.1-1.1,0.2-1.6
					c0,0,0-0.1,0-0.1c0-0.1,0-0.1,0-0.2c0-0.3,0.1-0.6,0.1-0.9C66.3,96.5,66.3,96.4,66.3,96.3z"/>
			</g>
			<g>
				<polygon class="st4" points="67.7,83 66.2,82.2 67.9,80.8 69.3,81.6 				"/>
			</g>
		</g>
		<g>
			<g class="st2">
				<g>
					<path class="st3" d="M75.4,57.1c3.2-1.9,11.6,2.5,10.6,7.7c-1.3,6.5-15.5,15.9-16.3,16.4l-1.1-0.8c0.3-0.8,5.9-16.7,5.6-20.5
						C74.1,58.4,74.5,57.6,75.4,57.1z"/>
				</g>
				<path class="st4" d="M74.2,58.9c0-0.3,0.1-0.5,0.2-0.7c0,0,0,0,0,0c0.1-0.2,0.2-0.4,0.4-0.6c0,0,0,0,0,0
					c0.2-0.2,0.3-0.3,0.5-0.4c0.2-0.1,0.4-0.2,0.6-0.2c0,0,0.1,0,0.1,0c0.2-0.1,0.4-0.1,0.6-0.1c0.1,0,0.1,0,0.2,0
					c0.2,0,0.4,0,0.5,0c0.1,0,0.1,0,0.2,0c0.2,0,0.3,0,0.5,0.1c0.1,0,0.2,0,0.3,0c0.1,0,0.2,0,0.3,0.1c0.2,0,0.4,0.1,0.6,0.1
					c0.1,0,0.2,0.1,0.3,0.1c0.2,0.1,0.5,0.2,0.7,0.3c0.1,0,0.2,0.1,0.3,0.1c0.3,0.1,0.6,0.3,0.9,0.4c0.1,0.1,0.2,0.1,0.3,0.2
					l-1.4-0.8c0,0-0.1-0.1-0.1-0.1c-0.1,0-0.1-0.1-0.2-0.1c-0.3-0.2-0.6-0.3-0.9-0.4c-0.1,0-0.1-0.1-0.2-0.1c-0.1,0-0.1,0-0.2-0.1
					c-0.2-0.1-0.5-0.2-0.7-0.3c-0.1,0-0.1-0.1-0.2-0.1c0,0-0.1,0-0.1,0c-0.2-0.1-0.4-0.1-0.6-0.1c-0.1,0-0.2,0-0.3-0.1
					c0,0,0,0-0.1,0c-0.1,0-0.2,0-0.3,0c-0.1,0-0.3,0-0.4-0.1c0,0-0.1,0-0.1,0c-0.1,0-0.1,0-0.2,0c-0.1,0-0.2,0-0.3,0
					c-0.1,0-0.1,0-0.2,0c-0.1,0-0.1,0-0.2,0c0,0-0.1,0-0.1,0c-0.1,0-0.3,0.1-0.4,0.1c0,0,0,0-0.1,0c0,0-0.1,0-0.1,0
					c-0.1,0-0.2,0.1-0.3,0.1c-0.1,0-0.2,0.1-0.3,0.1c-0.2,0.1-0.3,0.2-0.5,0.4c0,0,0,0-0.1,0.1c0,0,0,0,0,0c0,0,0,0,0,0.1
					c0,0-0.1,0.1-0.1,0.1c0,0,0,0.1-0.1,0.1c0,0,0,0.1-0.1,0.1c0,0,0,0.1,0,0.1c0,0,0,0.1,0,0.1c0,0,0,0.1,0,0.1c0,0,0,0,0,0
					c0,0,0,0,0,0c0,0,0,0.1,0,0.1c0,0,0,0.1,0,0.1c0,0,0,0.1,0,0.1c0,0,0,0.1,0,0.1c0,0.1,0,0.1,0,0.2c0,0,0,0.1,0,0.1c0,0,0,0,0,0
					c0,0,0,0.1,0,0.1c0,0.2,0,0.5,0,0.8c0,0.2,0,0.3,0,0.5c0,0,0,0.1,0,0.2c0,0.2,0,0.4-0.1,0.6c0,0,0,0,0,0c0,0.3-0.1,0.5-0.1,0.8
					c0,0.1,0,0.1,0,0.2c-0.1,0.3-0.1,0.6-0.2,0.9c0,0.1,0,0.1,0,0.2c0,0.2-0.1,0.4-0.1,0.7c0,0.1,0,0.2-0.1,0.3
					c-0.1,0.2-0.1,0.4-0.2,0.7c0,0.1,0,0.2-0.1,0.2c-0.1,0.3-0.2,0.6-0.2,0.9c0,0.1,0,0.1,0,0.2c-0.1,0.3-0.1,0.5-0.2,0.8
					c0,0.1-0.1,0.2-0.1,0.3c-0.1,0.3-0.2,0.7-0.3,1c0,0.1,0,0.1,0,0.2c-0.1,0.4-0.2,0.8-0.3,1.1c0,0.1-0.1,0.2-0.1,0.3
					c-0.1,0.3-0.2,0.7-0.3,1c0,0,0,0.1,0,0.1c-0.1,0.4-0.2,0.7-0.3,1.1c0,0.1-0.1,0.2-0.1,0.3c-0.1,0.3-0.2,0.6-0.3,0.9
					c0,0.1,0,0.1-0.1,0.2c-0.1,0.3-0.2,0.7-0.3,1c0,0.1-0.1,0.2-0.1,0.3c-0.1,0.3-0.2,0.5-0.3,0.8c0,0.1,0,0.1-0.1,0.2
					c-0.1,0.3-0.2,0.6-0.3,0.9c0,0.1-0.1,0.2-0.1,0.3c0,0.1-0.1,0.2-0.1,0.3c0,0.1-0.1,0.2-0.1,0.3c0,0.1-0.1,0.2-0.1,0.3
					c0,0.1-0.1,0.2-0.1,0.2c0,0.1-0.1,0.2-0.1,0.3c0,0.1,0,0.1-0.1,0.2c0,0.1-0.1,0.2-0.1,0.3c0,0,0,0.1,0,0.1
					c0,0.1-0.1,0.2-0.1,0.3c0,0,0,0.1,0,0.1c-0.1,0.2-0.1,0.4-0.2,0.5c0,0.1-0.1,0.1-0.1,0.2l1.1,0.8l1.4,0.8l-1.1-0.8
					c0,0,0-0.1,0.1-0.2c0-0.1,0.1-0.3,0.2-0.5c0,0,0-0.1,0-0.1c0-0.1,0.1-0.2,0.1-0.3c0,0,0-0.1,0-0.1c0-0.1,0.1-0.2,0.1-0.3
					c0-0.1,0-0.1,0.1-0.2c0-0.1,0.1-0.2,0.1-0.3c0-0.1,0.1-0.2,0.1-0.3c0-0.1,0.1-0.2,0.1-0.3c0-0.1,0.1-0.2,0.1-0.3
					c0-0.1,0.1-0.2,0.1-0.4c0-0.1,0-0.1,0.1-0.2c0,0,0-0.1,0-0.1c0.1-0.3,0.2-0.6,0.3-0.9c0,0,0-0.1,0-0.1c0.1-0.3,0.2-0.6,0.3-0.9
					c0-0.1,0.1-0.2,0.1-0.2c0.1-0.3,0.2-0.7,0.3-1.1c0,0,0-0.1,0-0.1c0.1-0.3,0.2-0.6,0.3-1c0-0.1,0.1-0.2,0.1-0.3
					c0.1-0.4,0.2-0.7,0.3-1.1c0-0.1,0-0.1,0.1-0.2c0.1-0.3,0.2-0.7,0.3-1c0-0.1,0.1-0.2,0.1-0.3c0.1-0.4,0.2-0.8,0.3-1.2
					c0,0,0-0.1,0-0.1c0.1-0.3,0.2-0.7,0.3-1c0-0.1,0-0.1,0-0.2c0,0,0-0.1,0-0.1c0.1-0.3,0.2-0.5,0.2-0.8c0-0.1,0-0.1,0-0.2
					c0.1-0.3,0.2-0.6,0.2-0.9c0-0.1,0-0.2,0.1-0.3c0.1-0.2,0.1-0.4,0.2-0.7c0-0.1,0-0.2,0.1-0.3c0.1-0.2,0.1-0.4,0.1-0.7
					c0-0.1,0-0.1,0-0.2c0,0,0,0,0,0c0.1-0.3,0.1-0.6,0.2-0.9c0-0.1,0-0.1,0-0.2c0.1-0.3,0.1-0.6,0.1-0.8c0,0,0,0,0,0c0,0,0,0,0,0
					c0-0.2,0-0.4,0.1-0.6c0-0.1,0-0.1,0-0.2c0-0.2,0-0.4,0-0.5C74.1,59.5,74.1,59.2,74.2,58.9C74.2,58.9,74.2,58.9,74.2,58.9z"/>
			</g>
		</g>
		<g>
			<path class="st13" d="M19.3,68.9V52L19.2,51L6.3,43.5L5,43.7c0,0,0.1,16.9,0,16.9L19.3,68.9"/>
			<polygon class="st14" points="31.1,61.7 31.1,45 19.3,52 19.3,68.9 			"/>
			<polygon class="st15" points="19.3,52 31.1,45 16.6,36.7 5,43.7 			"/>
		</g>
		<g>
			<g>
				<polygon class="st14" points="18.7,67.2 18.7,51.5 15.9,53.1 15.9,69 				"/>
				<polygon class="st15" points="16,53.1 18.6,51.5 5,43.7 2.5,45.3 				"/>
				<path class="st13" d="M15.9,69V53.1L2.5,45.3c0,0,0.1,15.8,0,15.8L15.9,69"/>
			</g>
			<g>
				<polygon class="st14" points="16.2,68.8 16.2,56.7 13.4,61.9 13.4,70.6 				"/>
				<polygon class="st15" points="13.5,61.9 16,57.1 2.5,49.4 0,54.1 				"/>
				<path class="st13" d="M13.4,70.6v-8.7L0,54.1c0,0,0.1,8.7,0,8.7"/>
			</g>
		</g>
		<g>
			<path class="st13" d="M23.6,41.8c0,0,0,0.8,0.1,2.1c0,1,0.1,1.8-0.5,2.7c-1.3,1.9-4,2.5-6.1,2.6c-2.2,0.1-4.6-0.3-6.5-1.6
				c-0.8-0.5-1.5-1.3-1.6-2.3c-0.2-0.6-0.1-3.4-0.1-3.4L23.6,41.8z"/>
			<g>
				
					<ellipse transform="matrix(1 -2.835001e-03 2.835001e-03 1 -0.1186 4.597291e-02)" class="st13" cx="16.2" cy="41.8" rx="7.4" ry="4.3"/>
			</g>
		</g>
		<g>
			<g>
				<g>
					<polygon class="st15" points="25,28.1 28,29.8 28,22.1 25,20.5 					"/>
					<polygon class="st14" points="28,29.8 32.1,27.5 32.1,19.7 28,22.1 					"/>
				</g>
				<polygon class="st13" points="28,22.1 25,20.4 29.1,18 32.1,19.7 				"/>
			</g>
			<g>
				<g>
					<path class="st14" d="M26.3,32.3c0,0,0,1.1,0.1,2.8c0,1.3,0.1,2.5-0.7,3.7c-1.8,2.6-5.5,3.5-8.5,3.6c-3,0.1-6.4-0.4-8.9-2.2
						c-1.1-0.7-2-1.9-2.2-3.2c-0.2-0.8-0.1-4.7-0.1-4.7L26.3,32.3z"/>
					<g>
						
							<ellipse transform="matrix(1 -2.835001e-03 2.835001e-03 1 -9.167556e-02 4.566965e-02)" class="st14" cx="16.1" cy="32.4" rx="10.3" ry="5.9"/>
					</g>
				</g>
				<path class="st14" d="M3.3,11.8c1.1,3.2,6.1,4.4,9.6,5c4.2,0.7,7.7,1.2,11-1.6c3.9-3.3,5-1.4,5-3.9c0,3.6,0,14.3,0.1,16.5
					c0,1.7,0.1,3.2-0.9,4.6c-2.2,3.2-6.9,4.4-10.6,4.5c-3.8,0.2-8-0.5-11.1-2.7c-1.4-0.9-2.5-2.3-2.8-4C3.4,30,3.4,29.5,3.4,29
					c0-1.9-0.1-13.2-0.1-17.5c0-0.1,0-0.2,0-0.3C3.3,11.6,3.3,11.8,3.3,11.8z"/>
				<g>
					
						<ellipse transform="matrix(1 -2.835001e-03 2.835001e-03 1 -2.099006e-02 4.556190e-02)" class="st14" cx="16.1" cy="7.4" rx="12.8" ry="7.4"/>
				</g>
				<g>
					
						<ellipse transform="matrix(1 -2.835001e-03 2.835001e-03 1 -1.353578e-02 4.555133e-02)" class="st15" cx="16.1" cy="4.8" rx="8.3" ry="4.8"/>
				</g>
				<g>
					<g class="st2">
						<g>
							<polygon class="st3" points="9,16.3 7.5,17.2 6.9,16.8 8.3,15.9 							"/>
						</g>
						<g>
							<polygon class="st3" points="9,16.3 9,35.9 7.5,36.8 7.5,17.2 							"/>
						</g>
						<g>
							<polygon class="st4" points="7.5,17.2 7.5,36.8 6.8,36.4 6.9,16.8 							"/>
						</g>
					</g>
					<g class="st2">
						<g>
							<polygon class="st3" points="25.8,16.8 25.1,17.2 23.6,16.3 24.3,15.9 							"/>
						</g>
						<g>
							<polygon class="st3" points="25.8,16.8 25.7,36.4 25,36.8 25.1,17.2 							"/>
						</g>
						<g>
							<polygon class="st4" points="25.1,17.2 25,36.8 23.5,35.9 23.6,16.3 							"/>
						</g>
					</g>
					<g class="st2">
						<g>
							<rect x="15.8" y="18" class="st3" width="1" height="1.2"/>
						</g>
						<g>
							<polygon class="st3" points="16.8,19.2 16.7,38.8 15.8,38.8 15.9,19.2 							"/>
						</g>
						<g>
							<polygon class="st4" points="15.9,19.2 15.8,38.8 15.8,37.6 15.8,18 							"/>
						</g>
					</g>
					<g class="st2">
						<g>
							<polygon class="st8" points="5.5,11.4 5.4,31 5.4,31.6 5.5,12 							"/>
						</g>
						<g>
							<polygon class="st3" points="5.5,11.4 5.5,12 3.4,12 3.4,11.4 							"/>
						</g>
						<g>
							<polygon class="st4" points="5.5,12 5.4,31.6 3.4,31.6 3.4,12 							"/>
						</g>
						<g>
							<polygon class="st3" points="3.4,12 3.4,31.6 3.4,31 3.4,11.4 							"/>
						</g>
					</g>
					<g class="st2">
						<g>
							<polygon class="st8" points="29.2,11.4 29.1,31 29.1,31.6 29.2,12 							"/>
						</g>
						<g>
							<polygon class="st3" points="29.2,11.4 29.2,12 27.1,12 27.1,11.4 							"/>
						</g>
						<g>
							<polygon class="st4" points="29.2,12 29.1,31.6 27,31.6 27.1,12 							"/>
						</g>
						<g>
							<polygon class="st9" points="27.1,12 27,31.6 27,31 27.1,11.4 							"/>
						</g>
					</g>
					<g class="st2">
						<g>
							<polygon class="st3" points="12.9,17.7 12.2,18.8 11.3,18.6 12,17.5 							"/>
						</g>
						<g>
							<polygon class="st3" points="12.9,17.7 12.9,37.3 12.1,38.4 12.2,18.8 							"/>
						</g>
						<g>
							<polygon class="st4" points="12.2,18.8 12.1,38.4 11.3,38.2 11.3,18.6 							"/>
						</g>
					</g>
					<g class="st2">
						<g>
							<polygon class="st3" points="6.1,13.8 6.5,14.4 4.6,14.8 4.2,14.3 							"/>
						</g>
						<g>
							<polygon class="st3" points="6.5,14.4 6.5,34 4.5,34.4 4.6,14.8 							"/>
						</g>
						<g>
							<polygon class="st4" points="4.6,14.8 4.5,34.4 4.2,33.9 4.2,14.3 							"/>
						</g>
					</g>
					<g class="st2">
						<g>
							<polygon class="st3" points="28.4,14.3 28.1,14.8 26.1,14.3 26.5,13.8 							"/>
						</g>
						<g>
							<polygon class="st3" points="28.4,14.3 28.4,33.9 28,34.4 28.1,14.8 							"/>
						</g>
						<g>
							<polygon class="st4" points="28.1,14.8 28,34.4 26.1,33.9 26.1,14.3 							"/>
						</g>
					</g>
					<g class="st2">
						<g>
							<polygon class="st3" points="20.6,17.5 21.4,18.6 20.5,18.8 19.7,17.7 							"/>
						</g>
						<g>
							<polygon class="st3" points="21.4,18.6 21.3,38.2 20.4,38.4 20.5,18.8 							"/>
						</g>
						<g>
							<polygon class="st4" points="20.5,18.8 20.4,38.4 19.7,37.3 19.7,17.7 							"/>
						</g>
					</g>
				</g>
				<g>
					<path class="st14" d="M29.1,7.9c0,0,0,1.3,0.1,3.6c0,1.7,0.1,3.2-0.9,4.7c-2.3,3.3-7,4.5-10.8,4.6c-3.9,0.2-8.2-0.5-11.4-2.7
						c-1.4-0.9-2.6-2.4-2.8-4.1c-0.3-1.1-0.2-6-0.2-6L29.1,7.9z"/>
					<g>
						
							<ellipse transform="matrix(1 -2.835001e-03 2.835001e-03 1 -2.236289e-02 4.549573e-02)" class="st14" cx="16" cy="7.9" rx="13.1" ry="7.6"/>
					</g>
					<g>
						
							<ellipse transform="matrix(1 -2.835001e-03 2.835001e-03 1 -1.475269e-02 4.548494e-02)" class="st15" cx="16" cy="5.2" rx="8.4" ry="4.9"/>
					</g>
				</g>
			</g>
		</g>
		<g>
			<g>
				<path class="st4" d="M30.2,44.2L30.1,44c-1.9-1.4-4.5-1.2-7.4,0.4c-5.3,3.1-9.7,10.8-9.7,17c0,3.1,1.1,5.3,3,6.3l0.2,0.1
					c1.8,1.7,4.7,1.9,7.9,0c5.3-3.1,9.7-10.7,9.7-17C33.8,47.3,32.4,45,30.2,44.2z"/>
				<g>
					<path class="st3" d="M24,45.2c-5.5,3.1-9.9,10.7-9.7,17c0,6.2,4.4,8.8,9.9,5.6c5.3-3.1,9.7-10.7,9.7-17
						C33.8,44.5,29.3,42.1,24,45.2z"/>
				</g>
			</g>
			<g>
				<path class="st4" d="M39.5,54.2l-8.9-5.1c-1.4-1-3.2-0.9-5.2,0.3c-3.8,2.2-6.9,7.6-6.9,12c0,2.2,0.8,3.8,2.1,4.4l8.9,5.1
					c1.3,1.2,3.3,1.4,5.6,0c3.8-2.2,6.9-7.5,6.9-12C42,56.4,41,54.8,39.5,54.2z"/>
				<g>
					<path class="st3" d="M35.1,54.9c-3.9,2.2-7,7.5-6.9,12c0,4.4,3.1,6.2,7,4c3.8-2.2,6.9-7.5,6.9-12C42,54.5,38.8,52.7,35.1,54.9z
						"/>
				</g>
			</g>
			<g>
				<path class="st4" d="M39.8,49.6l-0.1-0.1c-1.9-1.4-4.5-1.2-7.4,0.4c-5.3,3.1-9.7,10.8-9.7,17c0,3.1,1.1,5.3,3,6.3l0.2,0.1
					c1.8,1.7,4.7,1.9,7.9,0c5.3-3.1,9.7-10.7,9.7-17C43.4,52.7,42,50.4,39.8,49.6z"/>
				<g>
					<path class="st3" d="M33.5,50.7c-5.5,3.1-9.9,10.7-9.7,17c0,6.2,4.4,8.8,9.9,5.6c5.3-3.1,9.7-10.7,9.7-17
						C43.4,50,38.9,47.5,33.5,50.7z"/>
				</g>
			</g>
			<g>
				<path class="st4" d="M35.7,59.6L35.7,59.6c-0.5-0.3-1.1-0.3-1.7,0.1c-1.2,0.7-2.2,2.5-2.2,3.9c0,0.7,0.3,1.2,0.7,1.4l0,0
					c0.4,0.4,1.1,0.4,1.8,0c1.2-0.7,2.2-2.4,2.2-3.9C36.6,60.3,36.2,59.8,35.7,59.6z"/>
				<g>
					<path class="st3" d="M34.3,59.9c-1.3,0.7-2.3,2.4-2.2,3.9c0,1.4,1,2,2.3,1.3c1.2-0.7,2.2-2.4,2.2-3.9
						C36.6,59.7,35.5,59.1,34.3,59.9z"/>
				</g>
			</g>
			<g>
				<path class="st4" d="M35.7,60.8L35.7,60.8c-0.3-0.2-0.7-0.2-1.1,0c-0.8,0.5-1.5,1.6-1.5,2.6c0,0.5,0.2,0.8,0.5,1l0,0
					c0.3,0.3,0.7,0.3,1.2,0c0.8-0.5,1.5-1.6,1.5-2.6C36.3,61.2,36.1,60.9,35.7,60.8z"/>
				<g>
					<path class="st3" d="M34.8,60.9c-0.8,0.5-1.5,1.6-1.5,2.6c0,0.9,0.7,1.3,1.5,0.9c0.8-0.5,1.5-1.6,1.5-2.6
						C36.3,60.8,35.6,60.4,34.8,60.9z"/>
				</g>
			</g>
			<g>
				<path class="st4" d="M68.1,79.7L36.2,61.3c-0.3-0.2-0.6-0.2-1,0.1c-0.7,0.4-1.3,1.5-1.3,2.3c0,0.4,0.2,0.7,0.4,0.9l31.9,18.4
					c0.2,0.2,0.6,0.3,1.1,0c0.7-0.4,1.3-1.5,1.3-2.3C68.6,80.1,68.4,79.8,68.1,79.7z"/>
				<g>
					<path class="st3" d="M67.2,79.8c-0.8,0.4-1.4,1.5-1.3,2.3c0,0.8,0.6,1.2,1.4,0.8c0.7-0.4,1.3-1.5,1.3-2.3
						C68.6,79.7,67.9,79.4,67.2,79.8z"/>
				</g>
			</g>
			<g>
				<path class="st10" d="M33.7,54.2c-3.8,2.2-6.9,7.5-6.8,11.9c0,4.3,3.1,6.1,6.9,3.9c3.7-2.2,6.8-7.5,6.8-11.9
					C40.6,53.8,37.5,52,33.7,54.2z"/>
			</g>
			<g>
				<path class="st11" d="M39.3,51.5c-0.3,0.2-0.6,0.7-0.6,1.1c0,0.4,0.3,0.5,0.6,0.4c0.3-0.2,0.6-0.7,0.6-1.1S39.7,51.3,39.3,51.5z
					"/>
			</g>
			<g>
				<path class="st11" d="M34.7,51.8c-0.3,0.2-0.6,0.7-0.6,1.1c0,0.4,0.3,0.5,0.6,0.4c0.3-0.2,0.6-0.7,0.6-1.1S35,51.6,34.7,51.8z"
					/>
			</g>
			<g>
				<path class="st11" d="M27,60.6c-0.3,0.2-0.6,0.7-0.6,1.1c0,0.4,0.3,0.5,0.6,0.4c0.3-0.2,0.6-0.7,0.6-1.1
					C27.6,60.5,27.3,60.4,27,60.6z"/>
			</g>
			<g>
				<path class="st11" d="M30.2,55.3c-0.3,0.2-0.6,0.7-0.6,1.1c0,0.4,0.3,0.5,0.6,0.4c0.3-0.2,0.6-0.7,0.6-1.1
					C30.9,55.2,30.6,55.1,30.2,55.3z"/>
			</g>
			<g>
				<path class="st11" d="M25.9,67.1c-0.3,0.2-0.6,0.7-0.6,1.1c0,0.4,0.3,0.5,0.6,0.4c0.3-0.2,0.6-0.7,0.6-1.1
					C26.5,67.1,26.2,66.9,25.9,67.1z"/>
			</g>
			<g>
				<path class="st11" d="M29.1,71.5c-0.3,0.2-0.6,0.7-0.6,1.1c0,0.4,0.3,0.5,0.6,0.4c0.3-0.2,0.6-0.7,0.6-1.1
					C29.8,71.5,29.5,71.3,29.1,71.5z"/>
			</g>
			<g>
				<path class="st11" d="M41.6,55.2c-0.3,0.2-0.6,0.7-0.6,1.1c0,0.4,0.3,0.5,0.6,0.4c0.3-0.2,0.6-0.7,0.6-1.1
					C42.2,55.2,41.9,55,41.6,55.2z"/>
			</g>
			<g>
				<path class="st11" d="M33.9,70.4c-0.3,0.2-0.6,0.7-0.6,1.1c0,0.4,0.3,0.5,0.6,0.4c0.3-0.2,0.6-0.7,0.6-1.1
					C34.6,70.4,34.3,70.3,33.9,70.4z"/>
			</g>
			<g>
				<path class="st11" d="M37.8,67c-0.3,0.2-0.6,0.7-0.6,1.1c0,0.4,0.3,0.5,0.6,0.4c0.3-0.2,0.6-0.7,0.6-1.1
					C38.4,67,38.2,66.8,37.8,67z"/>
			</g>
			<g>
				<path class="st11" d="M40.9,61.4c-0.3,0.2-0.6,0.7-0.6,1.1c0,0.4,0.3,0.5,0.6,0.4c0.3-0.2,0.6-0.7,0.6-1.1
					C41.5,61.4,41.2,61.2,40.9,61.4z"/>
			</g>
			<g>
				<g class="st2">
					<g>
						<polygon class="st4" points="37.7,67.7 36.3,66.9 35.2,65.3 36.6,66.1 						"/>
					</g>
					<g>
						<polygon class="st3" points="39.9,62 41.1,63.5 40,66.4 37.7,67.7 36.6,66.1 37.7,63.3 						"/>
					</g>
					<g>
						<polygon class="st4" points="36.6,66.1 35.2,65.3 36.3,62.4 37.7,63.3 						"/>
					</g>
					<g>
						<polygon class="st12" points="37.7,63.3 36.3,62.4 38.5,61.1 39.9,62 						"/>
					</g>
				</g>
			</g>
			<g>
				<path class="st4" d="M68.1,79.7l-28-16.1c-0.3-0.2-0.6-0.2-1,0.1c-0.7,0.4-1.3,1.5-1.3,2.3c0,0.4,0.2,0.7,0.4,0.9l28,16.1
					c0.2,0.2,0.6,0.3,1.1,0c0.7-0.4,1.3-1.5,1.3-2.3C68.6,80.1,68.4,79.8,68.1,79.7z"/>
				<g>
					<path class="st3" d="M67.2,79.8c-0.8,0.4-1.4,1.5-1.3,2.3c0,0.8,0.6,1.2,1.4,0.8c0.7-0.4,1.3-1.5,1.3-2.3
						C68.6,79.7,67.9,79.4,67.2,79.8z"/>
				</g>
			</g>
		</g>
		<g class="st2">
			<path class="st4" d="M67.1,81.9c0.1-0.2,0.1-0.4,0.3-0.6c0,0,0,0,0,0c0.1-0.2,0.2-0.4,0.4-0.5c0,0,0,0,0,0
				c0.1-0.1,0.3-0.3,0.5-0.4c0.1,0,0.1-0.1,0.2-0.1c0,0,0,0,0,0c0.1,0,0.1,0,0.2,0c0,0,0,0,0,0c0.1,0,0.1,0,0.2,0c0,0,0,0,0,0
				c0.1,0,0.1,0,0.2,0.1l-1.4-0.8c0,0,0,0,0,0c0,0,0,0-0.1,0c0,0,0,0-0.1,0c0,0,0,0,0,0c0,0,0,0,0,0c0,0,0,0,0,0c0,0,0,0-0.1,0
				c0,0-0.1,0-0.1,0c0,0,0,0,0,0c0,0,0,0,0,0c0,0,0,0,0,0c0,0-0.1,0-0.1,0c0,0,0,0,0,0c0,0,0,0,0,0c0,0,0,0-0.1,0
				c-0.1,0-0.1,0.1-0.2,0.1c-0.1,0.1-0.3,0.2-0.4,0.3c0,0,0,0-0.1,0.1c0,0,0,0,0,0c0,0,0,0-0.1,0.1c0,0-0.1,0.1-0.1,0.1
				c0,0-0.1,0.1-0.1,0.1c0,0,0,0.1-0.1,0.1c0,0,0,0.1-0.1,0.1c0,0,0,0,0,0c0,0,0,0,0,0c0,0,0,0.1-0.1,0.1c0,0,0,0.1-0.1,0.1
				c0,0,0,0.1,0,0.1c0,0,0,0.1,0,0.1c0,0,0,0.1,0,0.1c0,0,0,0,0,0.1c0,0,0,0,0,0c0,0,0,0,0,0c0,0,0,0.1,0,0.1c0,0.1,0,0.1,0,0.2
				c0,0.1,0,0.2,0,0.2c0,0.4,0.1,0.7,0.4,0.8l1.4,0.8c-0.2-0.1-0.4-0.4-0.4-0.8C67,82.4,67,82.2,67.1,81.9
				C67.1,82,67.1,81.9,67.1,81.9z"/>
			<g>
				<path class="st3" d="M68.2,80.5c0.7-0.4,1.2-0.1,1.2,0.7c0,0.8-0.5,1.7-1.2,2.1c-0.7,0.4-1.2,0.1-1.2-0.7
					C67,81.8,67.5,80.8,68.2,80.5z"/>
			</g>
		</g>
		<g>
			<g class="st2">
				<path class="st4" d="M54.1,76.4c0.2-0.1,0.4-0.2,0.6-0.3c0,0,0.1,0,0.1,0c0.2-0.1,0.3-0.1,0.5-0.2c0.1,0,0.2,0,0.2-0.1
					c0.1,0,0.2-0.1,0.4-0.1c0.1,0,0.2,0,0.2,0c0.1,0,0.3,0,0.4,0c0.1,0,0.2,0,0.2,0c0.2,0,0.4,0,0.6,0c0,0,0.1,0,0.1,0
					c0.3,0,0.5,0.1,0.8,0.1c0.1,0,0.1,0,0.2,0c0.3,0.1,0.7,0.1,1,0.2c0,0,0.1,0,0.1,0c0.5,0.1,0.9,0.3,1.4,0.5c0,0,0,0,0.1,0
					c0.3,0.1,0.6,0.3,0.9,0.4c0,0,0.1,0,0.1,0.1c0.3,0.1,0.6,0.3,0.9,0.5c0.1,0.1,0.2,0.1,0.3,0.2L61.8,77c-0.1,0-0.2-0.1-0.3-0.1
					c0,0,0,0-0.1,0c-0.3-0.2-0.6-0.3-0.9-0.5c0,0-0.1,0-0.1-0.1c-0.3-0.1-0.6-0.3-0.9-0.4c0,0,0,0,0,0c0,0,0,0,0,0
					c-0.5-0.2-0.9-0.4-1.4-0.5c0,0,0,0-0.1,0c0,0,0,0-0.1,0c-0.3-0.1-0.7-0.2-1-0.2c0,0-0.1,0-0.1,0c0,0-0.1,0-0.1,0
					c-0.3,0-0.5-0.1-0.8-0.1c0,0,0,0,0,0c0,0-0.1,0-0.1,0c-0.2,0-0.4,0-0.6,0c0,0-0.1,0-0.1,0c0,0-0.1,0-0.1,0c-0.1,0-0.3,0-0.4,0
					c0,0-0.1,0-0.1,0c0,0-0.1,0-0.1,0c-0.1,0-0.2,0-0.4,0.1c-0.1,0-0.1,0-0.2,0c0,0,0,0-0.1,0c-0.2,0-0.3,0.1-0.5,0.2
					c0,0-0.1,0-0.1,0c0,0,0,0,0,0c-0.2,0.1-0.4,0.2-0.6,0.3c-0.2,0.1-0.4,0.2-0.5,0.4c-0.1,0-0.1,0.1-0.2,0.1
					c-0.1,0.1-0.2,0.2-0.4,0.3c0,0,0,0,0,0c-0.1,0.1-0.2,0.2-0.2,0.3c0,0-0.1,0.1-0.1,0.1c0,0-0.1,0.1-0.1,0.1c0,0-0.1,0.1-0.1,0.1
					c-0.1,0.1-0.1,0.2-0.2,0.3c0,0,0,0,0,0c0,0,0,0,0,0c-0.1,0.1-0.2,0.2-0.2,0.3c0,0,0,0.1-0.1,0.1c0,0,0,0.1-0.1,0.1
					c0,0-0.1,0.1-0.1,0.1c0,0.1-0.1,0.2-0.1,0.3c0,0.1-0.1,0.1-0.1,0.2c0,0,0,0,0,0.1c-0.1,0.2-0.2,0.3-0.3,0.5l0,0c0,0,0,0,0,0
					c0,0,0,0,0,0c-0.1,0.2-0.2,0.4-0.3,0.7c0,0,0,0,0,0c0,0,0,0.1,0,0.1c-0.1,0.2-0.2,0.4-0.3,0.7c0,0,0,0,0,0.1c0,0,0,0.1,0,0.1
					c-0.1,0.3-0.2,0.6-0.3,0.9c0,0,0,0.1,0,0.1c0,0,0,0,0,0.1c-0.2,0.5-0.3,1.1-0.5,1.6c0,0,0,0,0,0.1c0,0,0,0,0,0
					c-0.2,0.8-0.4,1.6-0.6,2.4c0,0,0,0,0,0c0,0,0,0,0,0c-0.1,0.6-0.2,1.2-0.3,1.8c0,0,0,0,0,0c-0.1,0.6-0.2,1.2-0.3,1.8c0,0,0,0,0,0
					c0,0.2-0.1,0.5-0.1,0.7c0,0,0,0,0,0c0,0.3-0.1,0.5-0.1,0.7c0,0.1,0,0.2,0,0.2c0,0.2,0,0.3,0,0.5c0,0.1,0,0.2,0,0.3
					c0,0.1,0,0.3,0,0.4c0,0.1,0,0.2,0,0.3c0,0.1,0,0.3,0,0.4c0,0.1,0,0.2,0,0.2c0,0.1,0,0.3,0,0.4c0,0.1,0,0.1,0,0.2
					c0,0.2,0,0.3,0,0.4c0,0,0,0.1,0,0.1c0,0.2,0,0.4,0,0.5c0,0,0,0.1,0,0.1c0,0.1,0,0.2,0,0.4c0,0.1,0,0.1,0,0.2
					c0,0.1,0,0.2,0.1,0.3c0,0.1,0,0.1,0,0.1c0,0.1,0,0.2,0.1,0.2c0,0,0,0.1,0,0.1c0,0.1,0.1,0.1,0.1,0.2c0,0,0,0.1,0.1,0.1
					c0,0.1,0.1,0.1,0.1,0.1c0,0,0,0,0.1,0.1c0.1,0.1,0.1,0.1,0.2,0.1l1.4,0.8c-0.1,0-0.1-0.1-0.2-0.1c0,0,0,0-0.1-0.1
					c0,0-0.1-0.1-0.1-0.1c0,0,0-0.1-0.1-0.1c0-0.1-0.1-0.1-0.1-0.2c0,0,0-0.1,0-0.1c0-0.1,0-0.1-0.1-0.2c0,0,0-0.1,0-0.1
					c0-0.1,0-0.2-0.1-0.3c0-0.1,0-0.1,0-0.2c0-0.1,0-0.2,0-0.4c0,0,0-0.1,0-0.1c0-0.2,0-0.3,0-0.5c0,0,0-0.1,0-0.1
					c0-0.1,0-0.3,0-0.4c0-0.1,0-0.1,0-0.2c0-0.1,0-0.3,0-0.4c0-0.1,0-0.2,0-0.2c0-0.1,0-0.3,0-0.4c0-0.1,0-0.2,0-0.3
					c0-0.1,0-0.3,0-0.4c0-0.1,0-0.2,0-0.3c0-0.2,0-0.3,0-0.5c0-0.1,0-0.2,0-0.2c0-0.2,0-0.5,0.1-0.7c0,0,0,0,0,0
					c0-0.2,0.1-0.5,0.1-0.7c0.1-0.6,0.2-1.2,0.3-1.8c0,0,0,0,0,0c0.1-0.6,0.2-1.2,0.3-1.8c0,0,0-0.1,0-0.1c0.2-0.8,0.4-1.6,0.6-2.4
					c0,0,0-0.1,0-0.1c0.2-0.5,0.3-1.1,0.5-1.6c0-0.1,0-0.1,0.1-0.2c0.1-0.3,0.2-0.6,0.3-0.9c0-0.1,0.1-0.1,0.1-0.2
					c0.1-0.2,0.2-0.5,0.3-0.7c0,0,0-0.1,0-0.1c0.1-0.2,0.2-0.5,0.3-0.7c0,0,0,0,0,0c0,0,0,0,0,0c0.1-0.2,0.2-0.4,0.3-0.6
					c0-0.1,0.1-0.1,0.1-0.2c0.1-0.1,0.1-0.3,0.2-0.4c0,0,0-0.1,0.1-0.1c0.1-0.2,0.2-0.3,0.3-0.5c0,0,0,0,0,0
					c0.1-0.1,0.2-0.3,0.3-0.4c0,0,0.1-0.1,0.1-0.1c0.1-0.1,0.2-0.2,0.3-0.4c0.1-0.1,0.2-0.2,0.3-0.3c0.1,0,0.1-0.1,0.2-0.1
					C53.7,76.7,53.9,76.5,54.1,76.4z"/>
				<g>
					<path class="st3" d="M54.1,76.4c5-2.9,12.7,3.9,13.2,4.2l-0.4,2.2c-0.7,0.5-13,9.3-15.6,13.3c-0.6,0.9-1.1,1.5-1.5,1.7
						c-3.2,1.9-1-16.3,3.3-20.6C53.4,76.9,53.7,76.7,54.1,76.4z"/>
				</g>
			</g>
		</g>
	</g>
</g>
</svg>
