<?xml version="1.0" encoding="UTF-8" standalone="no"?>
<svg
   xmlns:dc="http://purl.org/dc/elements/1.1/"
   xmlns:cc="http://creativecommons.org/ns#"
   xmlns:rdf="http://www.w3.org/1999/02/22-rdf-syntax-ns#"
   xmlns:svg="http://www.w3.org/2000/svg"
   xmlns="http://www.w3.org/2000/svg"
   xmlns:xlink="http://www.w3.org/1999/xlink"
   xmlns:sodipodi="http://sodipodi.sourceforge.net/DTD/sodipodi-0.dtd"
   xmlns:inkscape="http://www.inkscape.org/namespaces/inkscape"
   width="677.39282"
   height="519.0141"
   preserveAspectRatio="xMidYMid meet"
   version="1.1"
   id="svg14"
   sodipodi:docname="funcionamiento_off.svg"
   inkscape:version="0.92.5 (2060ec1f9f, 2020-04-08)">
  <metadata
     id="metadata18">
    <rdf:RDF>
      <cc:Work
         rdf:about="">
        <dc:format>image/svg+xml</dc:format>
        <dc:type
           rdf:resource="http://purl.org/dc/dcmitype/StillImage" />
        <dc:title></dc:title>
      </cc:Work>
    </rdf:RDF>
  </metadata>
  <sodipodi:namedview
     pagecolor="#ffffff"
     bordercolor="#666666"
     borderopacity="1"
     objecttolerance="10"
     gridtolerance="10"
     guidetolerance="10"
     inkscape:pageopacity="0"
     inkscape:pageshadow="2"
     inkscape:window-width="1920"
     inkscape:window-height="1017"
     id="namedview16"
     showgrid="false"
     inkscape:zoom="0.34705882"
     inkscape:cx="-43.047834"
     inkscape:cy="181.71044"
     inkscape:window-x="-8"
     inkscape:window-y="-8"
     inkscape:window-maximized="1"
     inkscape:current-layer="svg14"
     fit-margin-top="0"
     fit-margin-left="0"
     fit-margin-right="0"
     fit-margin-bottom="0" />
  <defs
     id="defs5">
    <path
       id="b3xlRC9Z0i"
       d="m 640,-1 c 0,0 0,0 0,0 0,64.75 0,582.71002 0,647.45001 0,0 0,0 0,0 -64.09998,0 -576.900002,0 -641,0 0,0 0,0 0,0 C -1,581.71002 -1,63.75 -1,-1 c 0,0 0,0 0,0 128.2,0 576.90002,0 641,0 z"
       inkscape:connector-curvature="0" />
    <path
       id="a4pGd7cuE9"
       d="m 344.57001,21 12.08999,1.23 11.94,1.710001 11.78,2.17 11.63001,2.629999 11.44998,3.07 11.26001,3.51 11.07001,3.939999 L 436.66,43.62 l 10.66001,4.760002 10.42999,5.16 10.20001,5.549999 9.95999,5.929996 9.70999,6.290001 9.44001,6.650002 9.17999,7.010002 8.89001,7.339996 8.59998,7.670006 8.30005,7.989996 7.98999,8.3 7.67999,8.61 7.33997,8.89 7,9.17 6.66003,9.45 6.28998,9.71001 5.92999,9.94999 5.54004,10.20999 5.15997,10.43001 4.77002,10.65 4.34998,10.87001 3.94,11.06999 3.51001,11.27 3.08002,11.45 2.61999,11.61999 2.18,11.79001 1.70001,11.94001 L 619,295.44 l 0.75,12.22 0.25,12.35001 -0.25,12.33999 -0.75,12.22998 -1.22998,12.08002 -1.70001,11.94 -2.18,11.79001 -2.61999,11.62 -3.08002,11.44998 -3.51001,11.27002 -3.94,11.06998 -4.34998,10.87002 -4.77002,10.65 -5.15997,10.44 -5.54004,10.19998 -5.92999,9.96002 -6.28998,9.69998 -6.66003,9.45002 -7,9.16998 -7.33997,8.89001 -7.67999,8.60999 -7.98999,8.29999 -8.30005,7.99005 -8.59998,7.66998 -8.89001,7.33997 -9.17999,7.01001 -9.44001,6.65002 L 477.91,575 467.95001,580.91998 457.75,586.46997 447.32001,591.63 436.66,596.39001 425.79001,600.75 414.72,604.69 l -11.26001,3.51001 -11.44998,3.07001 -11.63001,2.63 -11.78,2.16999 -11.94,1.71002 -12.08999,1.22998 -12.22,0.73999 L 320,620 l -12.35001,-0.25 -12.22,-0.73999 -12.08999,-1.22998 -11.94001,-1.71002 -11.77999,-2.16999 -11.62999,-2.63 -11.45002,-3.07001 L 225.28,604.69 214.21001,600.75 203.34,596.39001 192.67999,591.63 182.25,586.46997 172.05,580.91998 162.09,575 l -9.71,-6.29999 -9.44,-6.65002 -9.18001,-7.01001 -8.88999,-7.33997 -8.6,-7.66998 -8.3,-7.99005 -7.989996,-8.29999 -7.68,-8.60999 -7.340004,-8.89001 -7,-9.16998 -6.659996,-9.45002 -6.290001,-9.69998 -5.93,-9.96002 -5.540001,-10.19998 -5.16,-10.44 -4.77,-10.65 -4.350002,-10.87002 -3.939999,-11.06998 -3.51,-11.27002 -3.08,-11.44998 -2.619999,-11.62 -2.18,-11.79001 -1.700001,-11.94 -1.23,-12.08002 -0.75,-12.22998 -0.25,-12.33999 0.25,-12.35001 0.75,-12.22 1.23,-12.08999 1.700001,-11.94001 2.18,-11.79001 L 28.730001,248 l 3.08,-11.45 3.51,-11.27 L 39.26,214.21001 43.610002,203.34 l 4.77,-10.65 5.16,-10.43001 5.540001,-10.20999 5.93,-9.94999 6.290001,-9.71001 6.659996,-9.45 7,-9.17 7.340004,-8.89 7.68,-8.61 7.989996,-8.3 8.3,-7.989996 8.6,-7.670006 8.88999,-7.339996 L 142.94,77.96 l 9.44,-6.650002 9.71,-6.290001 9.96,-5.929996 10.2,-5.549999 10.42999,-5.16 L 203.34,43.62 214.21001,39.259999 225.28,35.32 l 11.25999,-3.51 11.45002,-3.07 11.62999,-2.629999 11.77999,-2.17 L 283.34,22.23 295.42999,21 307.64999,20.26 320,20 l 12.35001,0.26 z m -41.35001,94.82 -8.25,0.84 -8.16,1.17 -8.04999,1.48 -7.93002,1.8 -7.81998,2.1 -7.69,2.39 -7.56002,2.68999 -7.42999,2.98001 -7.27,3.25 -7.13001,3.51999 -6.95999,3.79001 -6.8,4.05 -6.63001,4.29999 -6.44999,4.54001 -6.26999,4.78 -6.07001,5.02001 -5.87,5.22999 -5.66999,5.46001 -5.46001,5.67 -5.24001,5.87999 -5.00999,6.07 -4.78,6.26 -4.55,6.44999 -4.30001,6.63001 -4.03999,6.8 -3.79001,6.97 -3.53,7.12 -3.25,7.28 -2.97,7.42 -2.68999,7.56001 -2.4,7.69 -2.1,7.81998 -1.79,7.94 -1.49,8.05002 -1.16,8.14999 -0.84,8.26001 -0.51,8.34 -0.17,8.44 0.17,8.42999 0.51,8.34 0.84,8.26001 1.16,8.14999 1.49,8.04999 1.79,7.94 2.1,7.82001 2.4,7.69 2.68999,7.56 2.97,7.42001 3.25,7.28 3.53,7.12 3.79001,6.97 4.03999,6.79999 4.30001,6.63 4.55,6.45001 4.78,6.25998 5.00999,6.07001 5.24001,5.88 5.46001,5.66999 5.66999,5.46002 5.87,5.22998 6.07001,5.02002 6.26999,4.78 6.44999,4.53998 6.63001,4.30001 6.8,4.04999 6.95999,3.79001 7.13001,3.51999 7.27,3.25 7.42999,2.98001 7.56002,2.68997 7.69,2.39002 7.81998,2.10003 7.93002,1.79999 8.04999,1.47998 8.16,1.16999 8.25,0.84002 8.35001,0.51001 L 320,524.87 l 8.42999,-0.16999 8.35001,-0.51001 8.25,-0.84002 8.16,-1.16999 8.04999,-1.47998 7.93002,-1.79999 7.81998,-2.10003 7.69,-2.39002 7.56,-2.68997 7.43002,-2.98001 7.26999,-3.25 7.13001,-3.51999 6.95999,-3.79001 6.79999,-4.04999 6.63,-4.30001 6.45001,-4.53998 6.26999,-4.78 6.07001,-5.02002 5.87,-5.23999 5.67001,-5.45001 5.45999,-5.66999 5.23999,-5.88 5.01001,-6.07001 4.78,-6.25998 4.54999,-6.45001 4.30001,-6.63 4.04001,-6.79999 3.78998,-6.97 3.53,-7.12 3.25,-7.28 2.97,-7.42001 2.69003,-7.56 2.39997,-7.69 2.10003,-7.82001 1.78998,-7.94 1.48999,-8.04999 1.16004,-8.14999 0.83996,-8.26001 0.51001,-8.34 0.16999,-8.42999 -0.16999,-8.44 -0.51001,-8.34 -0.83996,-8.26001 -1.16004,-8.14999 -1.48999,-8.05002 -1.78998,-7.94 -2.10003,-7.81998 -2.39997,-7.69 -2.69003,-7.56001 -2.97,-7.42 -3.25,-7.28 -3.53,-7.12 -3.78998,-6.97 -4.04001,-6.8 -4.30001,-6.63 -4.54999,-6.45 -4.78,-6.26 -5.01001,-6.07 -5.23999,-5.87999 -5.45999,-5.67 L 459.12,169.75 453.25,164.52001 447.17999,159.5 440.91,154.72 l -6.45001,-4.54001 -6.63,-4.29998 L 421.03,141.83 414.07001,138.03999 406.94,134.52 l -7.26999,-3.25 -7.43002,-2.98001 -7.56,-2.68999 -7.69,-2.39 -7.81998,-2.1 -7.93002,-1.8 -8.04999,-1.48 -8.16,-1.17 -8.25,-0.84 -8.35001,-0.51 -8.42999,-0.17 -8.42999,0.17 z"
       inkscape:connector-curvature="0" />
    <path
       id="d16cqKKkos"
       d="m 214.41,166.32001 c 0,29.60998 0,266.44 0,296.04999 0,16.95001 13.56,28.51001 27.01,21.05001 18.28999,-10.16 232.84999,-134.94 248.65001,-143.42001 16.53,-8.82001 20.76999,-25.01001 2,-36.42999 C 470.87,290.60998 258.66,152.38 246.01,145.2 c -15.73,-9.04 -31.6,5.74 -31.6,21.12001 z"
       inkscape:connector-curvature="0" />
  </defs>
  <g
     id="g12"
     transform="matrix(0.30847457,0,0,0.30847457,479.96913,312.86301)">
    <g
       id="svg_5">
      <g
         id="svg_1">
        <use
           x="20"
           y="20"
           id="svg_2"
           xlink:href="#a4pGd7cuE9"
           style="fill:#b3c8e0"
           width="100%"
           height="100%" />
      </g>
      <g
         id="svg_3">
        <use
           x="20"
           y="20"
           id="svg_4"
           xlink:href="#d16cqKKkos"
           style="fill:#b3c8e0"
           width="100%"
           height="100%" />
      </g>
    </g>
  </g>
  <g
     id="g4774"
     transform="matrix(0.52958028,0,0,0.52958028,-5.2958028,-5.2834038)"
     style="fill:#b3c8e0;fill-opacity:1">
    <g
       id="g4772"
       transform="matrix(0.1,0,0,-0.1,0,511)"
       style="fill:#b3c8e0;fill-opacity:1">
      <path
         id="path4762"
         d="M 4536,5006.9 C 3877.1,4926.8 3362.4,4778.6 2831.7,4516.2 1521.9,3865.3 580.7,2699.8 230.2,1293.8 120,851.3 100,669.1 100,112.3 c 0,-556.8 20,-739 130.2,-1181.6 500.7,-2014.7 2225,-3502.7 4291.8,-3705 310.4,-30 919.2,-16 1205.6,28 883.2,138.2 1734.3,522.7 2415.3,1089.5 909.2,759 1528.1,1856.5 1710.3,3028.1 46.1,296.4 62.1,901.2 30,1215.6 C 9683,2639.7 8205,4364.1 6208.3,4872.8 5803.7,4974.9 5597.5,5001 5086.8,5009 c -264.4,1.9 -512.7,1.9 -550.8,-2.1 z m 843.1,-989.3 c 751,-76.1 1448,-358.5 2050.8,-831.1 184.3,-146.2 506.7,-466.6 642.9,-640.9 626.9,-803.1 925.3,-1814.5 829.1,-2795.8 -78.1,-777 -372.5,-1504 -855.2,-2100.8 -144.2,-178.3 -486.7,-514.7 -656.9,-642.9 -590.8,-450.6 -1285.7,-725 -2030.8,-799.1 -965.3,-96.1 -1964.7,194.3 -2755.7,799.1 -170.2,128.2 -512.7,464.6 -656.9,642.9 -1151.6,1425.9 -1163.6,3438.7 -26,4896.6 136.2,174.2 458.6,494.7 642.9,640.9 813.1,636.8 1814.5,931.2 2815.8,831.1 z"
         inkscape:connector-curvature="0"
         style="fill:#b3c8e0;fill-opacity:1" />
      <path
         id="path4764"
         d="M 4818.4,3288.6 C 4716.3,3252.5 4606.1,3148.4 4554,3042.3 l -48.1,-96.1 -6,-1107.5 -6,-1109.5 -80.1,-82.1 C 4075.3,294.6 4159.5,-310.2 4578,-562.5 c 210.3,-126.2 456.6,-154.2 674.9,-78.1 l 88.1,32.1 546.8,-280.5 c 540.7,-276.4 548.8,-280.4 680.9,-280.4 154.2,0 254.4,36 346.5,126.2 190.3,182.2 210.3,454.6 52.1,664.9 -62.1,80.1 -122.2,116.2 -626.9,370.5 l -558.7,278.4 -34.1,100.1 c -36,108.1 -170.2,310.4 -220.3,330.4 -26,10 -30,140.2 -30,1089.5 0,1197.6 -2,1209.6 -130.2,1359.8 -94.1,110.1 -218.3,166.2 -364.5,164.2 -64.1,0 -146.2,-12 -184.2,-26 z"
         inkscape:connector-curvature="0"
         style="fill:#b3c8e0;fill-opacity:1" />
      <path
         id="path4766"
         d="m 1696.2,490.8 c -400.5,-198.3 -262.4,-799.1 186.3,-799.1 364.5,0 558.8,408.5 328.4,688.9 -122.2,146.3 -344.5,194.3 -514.7,110.2 z"
         inkscape:connector-curvature="0"
         style="fill:#b3c8e0;fill-opacity:1" />
      <path
         id="path4768"
         d="m 7906.6,482.8 c -146.2,-74.1 -212.3,-178.2 -222.3,-348.5 -6,-110.2 2,-148.2 40,-222.3 74.1,-138.2 188.2,-208.3 352.5,-216.3 112.2,-6 148.2,0 224.3,40 238.3,128.2 294.4,446.6 114.2,650.9 -130.2,148.3 -328.5,186.3 -508.7,96.2 z"
         inkscape:connector-curvature="0"
         style="fill:#b3c8e0;fill-opacity:1" />
      <path
         id="path4770"
         d="m 4804.4,-2621.4 c -180.2,-90.1 -268.4,-278.4 -224.3,-478.7 28,-138.2 168.2,-276.4 308.4,-310.4 200.3,-48 388.5,40.1 478.6,228.3 48.1,94.1 54.1,128.2 44.1,222.3 -32.1,300.4 -342.5,474.7 -606.8,338.5 z"
         inkscape:connector-curvature="0"
         style="fill:#b3c8e0;fill-opacity:1" />
    </g>
  </g>
</svg>
