<svg width="40" height="40" xmlns="http://www.w3.org/2000/svg">
 <g>
  <path id="svg_27" fill="rgb(255, 255, 255)" d="m20.000011,5.000652c-8.192641,0 -14.824211,6.710005 -14.824211,14.999545c0,8.283411 6.631569,14.996469 14.824211,14.999529c8.186607,-0.003059 14.821198,-6.716118 14.82423,-14.999529c-0.003033,-8.289539 -6.637623,-14.999545 -14.82423,-14.999545zm0,26.469594c-6.25944,-0.012238 -11.326901,-5.139641 -11.339,-11.470049c0.01512,-6.333481 5.079559,-11.46088 11.342029,-11.47312c6.256432,0.012239 11.323891,5.139639 11.335999,11.47312c-0.015129,6.330408 -5.082588,11.4578 -11.339027,11.470049z"/>
  <polygon id="svg_38" fill="rgb(255, 255, 255)" points="24.688037872314453,13.289035320281982 18.438278198242188,19.999996662139893 15.3119478225708,16.64452028274536 12.185627937316895,19.999996662139893 18.438278198242188,26.710964679718018 27.814373016357422,16.64452028274536 "/>
 </g>
</svg>