<?xml version="1.0" encoding="UTF-8" standalone="no"?>
<svg
   width="21.909616"
   height="19.665596"
   viewBox="0 0 21.909616 19.665596"
   aria-labelledby="clipIconTitle"
   stroke="#000000"
   stroke-width="2"
   stroke-linecap="round"
   stroke-linejoin="round"
   fill="none"
   color="#000000"
   version="1.1"
   id="svg5"
   sodipodi:docname="clip-svgrepo-com.svg"
   inkscape:version="1.1 (c68e22c387, 2021-05-23)"
   xmlns:inkscape="http://www.inkscape.org/namespaces/inkscape"
   xmlns:sodipodi="http://sodipodi.sourceforge.net/DTD/sodipodi-0.dtd"
   xmlns="http://www.w3.org/2000/svg"
   xmlns:svg="http://www.w3.org/2000/svg"
   xmlns:rdf="http://www.w3.org/1999/02/22-rdf-syntax-ns#"
   xmlns:cc="http://creativecommons.org/ns#"
   xmlns:dc="http://purl.org/dc/elements/1.1/">
  <defs
     id="defs9" />
  <sodipodi:namedview
     id="namedview7"
     pagecolor="#505050"
     bordercolor="#ffffff"
     borderopacity="1"
     inkscape:pageshadow="0"
     inkscape:pageopacity="0"
     inkscape:pagecheckerboard="1"
     showgrid="false"
     fit-margin-top="0"
     fit-margin-left="0"
     fit-margin-right="0"
     fit-margin-bottom="0"
     inkscape:zoom="33.666667"
     inkscape:cx="8.0346535"
     inkscape:cy="6.6831683"
     inkscape:window-width="1920"
     inkscape:window-height="986"
     inkscape:window-x="-11"
     inkscape:window-y="-11"
     inkscape:window-maximized="1"
     inkscape:current-layer="svg5" />
  <title
     id="clipIconTitle">Attachment (paper clip)</title>
  <path
     style="fill:#ffffff;stroke-width:0.0594059"
     d="M 4.2854294,19.619058 C 1.5449752,19.309183 -0.36208135,16.79728 0.09830198,14.103931 0.20818788,13.461072 0.52346508,12.705568 0.90731018,12.16529 1.1587947,11.811315 1.3539698,11.614455 5.6963204,7.3349438 7.6322114,5.4270676 9.724042,3.363299 10.344834,2.748791 c 1.439137,-1.4245689 1.763055,-1.6849539 2.607553,-2.09611259 2.328375,-1.1336089 5.132295,-0.692899 6.998391,1.09998149 1.082842,1.0403571 1.736251,2.3587537 1.905843,3.8454587 0.0451,0.395384 0.02027,1.3200482 -0.04512,1.6802232 -0.208235,1.14691 -0.679606,2.157732 -1.4059,3.0148522 -0.131509,0.155198 -1.894277,1.934284 -3.917261,3.953526 -3.033404,3.027791 -3.704187,3.683294 -3.826669,3.739501 -0.490405,0.225049 -1.079967,-0.0045 -1.306175,-0.508551 -0.07116,-0.158563 -0.0796,-0.209327 -0.07022,-0.422447 0.0078,-0.1773 0.02962,-0.282036 0.08138,-0.390742 0.05713,-0.119992 0.790906,-0.870145 3.820653,-3.905941 2.552378,-2.557475 3.806417,-3.8344952 3.926792,-3.9987542 0.742071,-1.012608 0.985228,-2.33335 0.661157,-3.5911742 -0.417926,-1.622108 -1.788256,-2.8573137 -3.45996,-3.1187851 -0.423907,-0.066303 -1.150203,-0.047097 -1.544715,0.040849 -0.555521,0.1238387 -1.070598,0.3469188 -1.544554,0.6689478 -0.306859,0.2084943 -0.03864,-0.052352 -6.2319536,6.0606865 -3.884229,3.8338832 -4.380105,4.3335452 -4.5368742,4.5715092 -0.2022791,0.307046 -0.3286818,0.61242 -0.4007798,0.968239 -0.06849,0.33801 -0.047192,0.993879 0.042037,1.294522 0.089113,0.300253 0.3339165,0.771704 0.516442,0.994581 0.418297,0.51077 1.052686,0.878121 1.695545,0.981826 0.28344,0.04572 0.891138,0.02192 1.148257,-0.04498 0.292883,-0.0762 0.819039,-0.344085 1.039604,-0.529295 0.178296,-0.149715 6.7208576,-6.591689 9.2027056,-9.0612192 0.59342,-0.590474 1.112714,-1.130529 1.153987,-1.200123 0.240581,-0.405662 0.212563,-1.0016262 -0.06487,-1.3798062 -0.358251,-0.488348 -0.979785,-0.649549 -1.565831,-0.406115 -0.13901,0.05774 -0.58222,0.489782 -3.928962,3.8299422 -2.4799595,2.4750802 -3.8133026,3.7852702 -3.8920306,3.8244462 -0.503778,0.250683 -1.1072,0.0404 -1.347718,-0.469655 -0.06288,-0.133345 -0.07704,-0.207035 -0.07704,-0.40099 0,-0.461688 -0.303748,-0.125012 3.9293156,-4.3552792 3.86216,-3.8596112 3.944214,-3.9373042 4.402314,-4.1683002 0.863412,-0.4353737 1.941584,-0.4545969 2.804949,-0.050011 1.452268,0.680556 2.193534,2.295087 1.754356,3.8211162 -0.103121,0.358322 -0.302051,0.760939 -0.516005,1.044352 -0.157569,0.208724 -1.654094,1.694641 -9.3888935,9.3223412 -0.6131411,0.604651 -1.2183271,1.176764 -1.3448591,1.271362 -0.62364,0.46625 -1.346371,0.777236 -2.085889,0.897543 -0.346606,0.05639 -0.946194,0.07691 -1.24841,0.04274 z"
     id="path120" />
  <metadata
     id="metadata356">
    <rdf:RDF>
      <cc:Work
         rdf:about="">
        <dc:title>Attachment (paper clip)</dc:title>
      </cc:Work>
    </rdf:RDF>
  </metadata>
</svg>
