<svg width="560" height="360" xmlns="http://www.w3.org/2000/svg">
  <g transform="rotate(180, 280, 180)" id="svg_1">
   <g fill="#00FF00" id="svg_2" transform="translate(0, 293) scale(0.1, -0.1)">
    <path id="svg_3" d="m1941.368774,2555.89624c-301.102539,-64.879883 -487.293701,-355.871338 -424.904663,-663.54126c43.580078,-211.370361 176.324219,-383.363525 367.448975,-472.828613c152.529785,-71.765991 56.479126,-68.807617 1804.610596,-65.849243l1567.900635,2.958374l24.770508,24.585083c52.470703,52.077393 48.56543,133.687622 -7.914063,167.096802c-30.731934,19.637207 -60.436035,19.637207 -1588.663086,19.637207c-1115.24585,0 -1571.858887,2.958496 -1609.477295,10.813477c-317.907349,66.818115 -467.507813,464.973633 -254.54187,676.34375c64.393677,63.911133 135.673584,93.392578 226.790649,93.392578c144.615234,0.968994 235.732422,-81.610107 256.545898,-231.976807c6.937988,-50.13916 13.875732,-64.879883 39.622803,-88.49585c58.432129,-52.077393 144.615479,-28.512695 169.386475,45.242432c28.727783,87.476074 -36.642334,264.416748 -134.697021,361.737061c-115.990479,114.968262 -268.520264,157.252441 -436.87854,120.88501z"/>
    <path id="svg_4" d="m591.366882,2202.014404c-204.023987,-57.025146 -332.759552,-254.623779 -306.036011,-467.932129c19.785706,-161.230957 105.969147,-290.990967 249.608215,-376.477661c99.031372,-58.963257 150.525574,-64.880005 528.920654,-64.880005c312.973877,0 336.768188,0.969116 365.495972,18.668335c65.369995,39.325806 65.369995,139.60437 0,178.930054c-28.727783,17.699219 -52.522095,18.668457 -363.491699,18.668457c-375.363037,0 -391.24292,1.989258 -469.460754,70.796631c-64.393494,57.025146 -97.0784,123.843506 -98.05484,204.484375c-0.97644,78.651855 22.766388,128.791016 81.198395,173.982666c44.556458,33.40918 110.954163,49.170166 157.46344,37.33667c14.852112,-2.958496 43.579956,-22.595947 63.365662,-43.253418c30.680664,-29.481689 38.646362,-47.180908 44.556335,-88.496094c11.87146,-89.465088 74.260681,-134.656738 145.59198,-105.175049c54.474915,22.595947 70.303406,53.097656 64.393372,131.749512c-5.961304,85.537598 -33.661377,146.490234 -97.078308,212.339355c-91.117065,96.299805 -235.732544,134.605469 -366.472412,99.258301z"/>
    <path id="svg_5" d="m2413.810303,1184.540161c-878.536743,-6.885864 -823.085449,-1.989258 -985.482422,-77.682495c-343.705933,-161.231201 -540.792114,-564.231934 -445.717896,-915.206665c48.51355,-181.837456 182.234131,-344.03772 351.620239,-425.647827c259.475342,-125.832458 511.087769,-91.403198 698.255371,95.331055c258.499023,258.550903 203.047852,671.395996 -109.92627,818.855347c-68.350464,32.440186 -86.183472,36.367554 -176.323975,40.295166c-84.179077,2.958252 -109.926147,0.968994 -163.424805,-17.699341c-102.988281,-34.429321 -188.195313,-102.216553 -217.899658,-174.95166c-30.680664,-71.765869 21.789917,-149.397583 100.059082,-149.397583c36.642212,0 45.532837,5.916931 91.117065,54.066772c59.408569,62.890869 85.155518,73.755249 167.381958,73.755249c150.525635,-0.96936 254.54187,-106.144348 254.54187,-257.581909c0,-218.256096 -206.02832,-378.46698 -428.861572,-332.255119c-216.92334,44.222168 -373.410278,233.965813 -373.410278,452.17083c0.97644,275.230286 194.105469,521.029602 460.57019,583.920471c66.346191,15.709839 1041.961548,25.554199 2529.640015,25.554199l795.334473,0l33.661133,33.40918c51.494629,51.108154 43.580078,125.83252 -17.83252,163.169067c-31.708984,19.637573 -48.51416,19.637573 -904.283691,17.699341c-479.379395,-1.887329 -1226.199707,-4.845703 -1659.018311,-7.804077z"/>
    <path id="svg_6" d="m2542.597168,792.301514c-86.183594,-26.523315 -172.31543,-101.247559 -209.985596,-182.857666c-33.661133,-73.755249 -32.684814,-196.629395 2.980957,-270.333496c50.517822,-105.175049 151.553223,-175.971802 263.483887,-184.796021c47.537109,-3.927368 67.322754,-0.969116 88.13623,11.782471c31.70874,21.626831 57.455811,78.651855 48.513428,113.030029c-9.918457,38.356873 -53.498291,78.651855 -93.12085,85.53772c-87.160156,13.771606 -119.845215,46.211731 -119.845215,117.977539c0,27.543335 7.914307,43.253418 33.661377,68.807617l33.661377,33.409058l1021.148193,0c1119.20166,0 1073.669434,-1.98938 1104.350586,57.994141c29.704102,55.035889 9.918457,124.863525 -40.599609,147.459351c-27.700195,12.853638 -2091.7854,13.822754 -2132.384766,1.989258z"/>
   </g>
  </g>
</svg>