<?xml version="1.0" encoding="UTF-8" standalone="no"?>
<svg
   xmlns:dc="http://purl.org/dc/elements/1.1/"
   xmlns:cc="http://creativecommons.org/ns#"
   xmlns:rdf="http://www.w3.org/1999/02/22-rdf-syntax-ns#"
   xmlns:svg="http://www.w3.org/2000/svg"
   xmlns="http://www.w3.org/2000/svg"
   xmlns:sodipodi="http://sodipodi.sourceforge.net/DTD/sodipodi-0.dtd"
   xmlns:inkscape="http://www.inkscape.org/namespaces/inkscape"
   id="svg1"
   viewBox="0 0 60 60"
   sodipodi:version="0.32"
   _SVGFile__filename="oldscale/actions/edit_add.svg"
   version="1.0"
   inkscape:version="0.92.5 (2060ec1f9f, 2020-04-08)"
   y="0"
   x="0"
   sodipodi:docname="añadir.svg">
  <defs
     id="defs8" />
  <sodipodi:namedview
     id="base"
     bordercolor="#666666"
     inkscape:window-x="-8"
     inkscape:window-y="-8"
     pagecolor="#ffffff"
     inkscape:zoom="9.1989988"
     inkscape:pageshadow="2"
     borderopacity="1.0"
     inkscape:current-layer="svg1"
     inkscape:cx="31.300295"
     inkscape:cy="35.728519"
     inkscape:window-width="1920"
     inkscape:pageopacity="0.0"
     inkscape:window-height="1017"
     showgrid="false"
     inkscape:window-maximized="1" />
  <path
     id="path1092"
     style="stroke-linejoin:round;stroke:#ffffff;stroke-linecap:round;stroke-width:5;fill:none"
     d="m23.78 23.78v-13.999c0-1.9588 0.536-3.55 1.607-4.7741 1.071-1.2546 2.601-1.8819 4.59-1.8819s3.519 0.6273 4.59 1.8819c1.102 1.2241 1.653 2.8153 1.653 4.7737v13.999h13.816c2.019 0 3.611 0.551 4.773 1.653 1.194 1.071 1.791 2.586 1.791 4.544 0 1.989-0.597 3.534-1.791 4.636-1.162 1.102-2.754 1.652-4.773 1.652h-13.816v13.954c0 1.989-0.551 3.596-1.653 4.82-1.101 1.224-2.632 1.836-4.59 1.836s-3.488-0.612-4.59-1.836c-1.071-1.224-1.607-2.831-1.607-4.82v-13.954h-13.816c-1.9582 0-3.5494-0.596-4.7735-1.79-1.1934-1.224-1.7901-2.723-1.7901-4.498 0-1.958 0.5814-3.473 1.7442-4.544 1.1935-1.102 2.8-1.653 4.8196-1.653h13.816z" />
  <path
     id="path837"
     style="fill:#014898;fill-opacity:1"
     d="m23.78 23.78v-13.999c0-1.9588 0.536-3.55 1.607-4.7741 1.071-1.2546 2.601-1.8819 4.59-1.8819s3.519 0.6273 4.59 1.8819c1.102 1.2241 1.653 2.8153 1.653 4.7737v13.999h13.816c2.019 0 3.611 0.551 4.773 1.653 1.194 1.071 1.791 2.586 1.791 4.544 0 1.989-0.597 3.534-1.791 4.636-1.162 1.102-2.754 1.652-4.773 1.652h-13.816v13.954c0 1.989-0.551 3.596-1.653 4.82-1.101 1.224-2.632 1.836-4.59 1.836s-3.488-0.612-4.59-1.836c-1.071-1.224-1.607-2.831-1.607-4.82v-13.954h-13.816c-1.9582 0-3.5494-0.596-4.7735-1.79-1.1934-1.224-1.7901-2.723-1.7901-4.498 0-1.958 0.5814-3.473 1.7442-4.544 1.1935-1.102 2.8-1.653 4.8196-1.653h13.816z" />
  <metadata
     id="metadata5">
    <rdf:RDF>
      <cc:Work>
        <dc:format>image/svg+xml</dc:format>
        <dc:type
           rdf:resource="http://purl.org/dc/dcmitype/StillImage" />
        <cc:license
           rdf:resource="http://creativecommons.org/publicdomain/zero/1.0/" />
        <dc:publisher>
          <cc:Agent
             rdf:about="http://openclipart.org/">
            <dc:title>Openclipart</dc:title>
          </cc:Agent>
        </dc:publisher>
        <dc:title></dc:title>
      </cc:Work>
      <cc:License
         rdf:about="http://creativecommons.org/publicdomain/zero/1.0/">
        <cc:permits
           rdf:resource="http://creativecommons.org/ns#Reproduction" />
        <cc:permits
           rdf:resource="http://creativecommons.org/ns#Distribution" />
        <cc:permits
           rdf:resource="http://creativecommons.org/ns#DerivativeWorks" />
      </cc:License>
    </rdf:RDF>
  </metadata>
</svg>
