<?xml version="1.0" encoding="UTF-8" standalone="no"?>
<!-- Svg Vector Icons : http://www.onlinewebfonts.com/icon -->

<svg
   xmlns:dc="http://purl.org/dc/elements/1.1/"
   xmlns:cc="http://creativecommons.org/ns#"
   xmlns:rdf="http://www.w3.org/1999/02/22-rdf-syntax-ns#"
   xmlns:svg="http://www.w3.org/2000/svg"
   xmlns="http://www.w3.org/2000/svg"
   xmlns:sodipodi="http://sodipodi.sourceforge.net/DTD/sodipodi-0.dtd"
   xmlns:inkscape="http://www.inkscape.org/namespaces/inkscape"
   version="1.1"
   x="0px"
   y="0px"
   viewBox="0 0 1000 1000"
   enable-background="new 0 0 1000 1000"
   xml:space="preserve"
   id="svg14"
   sodipodi:docname="bocina_on.svg"
   inkscape:version="0.92.5 (2060ec1f9f, 2020-04-08)"><defs
   id="defs18" /><sodipodi:namedview
   pagecolor="#ffffff"
   bordercolor="#666666"
   borderopacity="1"
   objecttolerance="10"
   gridtolerance="10"
   guidetolerance="10"
   inkscape:pageopacity="0"
   inkscape:pageshadow="2"
   inkscape:window-width="1920"
   inkscape:window-height="1057"
   id="namedview16"
   showgrid="false"
   inkscape:zoom="0.236"
   inkscape:cx="500"
   inkscape:cy="500"
   inkscape:window-x="1592"
   inkscape:window-y="-8"
   inkscape:window-maximized="1"
   inkscape:current-layer="svg14" />
<metadata
   id="metadata2"> Svg Vector Icons : http://www.onlinewebfonts.com/icon <rdf:RDF><cc:Work
     rdf:about=""><dc:format>image/svg+xml</dc:format><dc:type
       rdf:resource="http://purl.org/dc/dcmitype/StillImage" /><dc:title></dc:title></cc:Work></rdf:RDF></metadata>
<g
   id="g12"
   style="fill:#00ff00;fill-opacity:1"><path
     d="M10,727.1c0,19.2,15.7,35,35,35h85.3c19.2,0,35-15.7,35-35V273.8c0-19.2-15.7-35-35-35H45c-19.2,0-35,15.7-35,35V727.1z M207,726.4c0,19.2,13.2,43.6,29.3,54.1l257.1,167.9c16.1,10.5,29.3,3.4,29.3-15.8V67.3c0-19.2-13.2-26.4-29.3-15.9L236.3,219.1C220.2,229.6,207,254,207,273.2V726.4z"
     id="path4"
     style="fill:#00ff00;fill-opacity:1" /><path
     d="M946.3,543.7H664.7c-24.1,0-43.7-19.6-43.7-43.7c0-24.1,19.6-43.7,43.7-43.7h281.6c24.1,0,43.7,19.6,43.7,43.7C990,524.1,970.4,543.7,946.3,543.7z"
     id="path6"
     style="fill:#00ff00;fill-opacity:1" /><path
     d="M863.8,963.4c-11.2,0-22.4-4.3-30.9-12.8L633.7,751.4c-17.1-17.1-17.1-44.8,0-61.9s44.8-17.1,61.9,0l199.1,199.1c17.1,17.1,17.1,44.8,0,61.9C886.2,959.1,875,963.4,863.8,963.4z"
     id="path8"
     style="fill:#00ff00;fill-opacity:1" /><path
     d="M664.7,323.2c-11.2,0-22.4-4.3-30.9-12.8c-17.1-17.1-17.1-44.8,0-61.9L832.8,49.4c17-17.1,44.8-17.1,61.9,0c17.1,17.1,17.1,44.8,0,61.9L695.6,310.4C687.1,319,675.9,323.2,664.7,323.2z"
     id="path10"
     style="fill:#00ff00;fill-opacity:1" /></g>
</svg>