<?xml version="1.0" encoding="UTF-8" standalone="no"?>
<!-- Svg Vector Icons : http://www.onlinewebfonts.com/icon -->

<svg
   version="1.1"
   x="0px"
   y="0px"
   viewBox="0 0 1000 1000"
   enable-background="new 0 0 1000 1000"
   xml:space="preserve"
   id="svg14"
   sodipodi:docname="bocina_off.svg"
   inkscape:version="1.1 (c68e22c387, 2021-05-23)"
   xmlns:inkscape="http://www.inkscape.org/namespaces/inkscape"
   xmlns:sodipodi="http://sodipodi.sourceforge.net/DTD/sodipodi-0.dtd"
   xmlns="http://www.w3.org/2000/svg"
   xmlns:svg="http://www.w3.org/2000/svg"
   xmlns:rdf="http://www.w3.org/1999/02/22-rdf-syntax-ns#"
   xmlns:cc="http://creativecommons.org/ns#"
   xmlns:dc="http://purl.org/dc/elements/1.1/"><defs
   id="defs18" /><sodipodi:namedview
   pagecolor="#ffffff"
   bordercolor="#666666"
   borderopacity="1"
   objecttolerance="10"
   gridtolerance="10"
   guidetolerance="10"
   inkscape:pageopacity="0"
   inkscape:pageshadow="2"
   inkscape:window-width="1920"
   inkscape:window-height="1017"
   id="namedview16"
   showgrid="false"
   inkscape:zoom="0.236"
   inkscape:cx="497.88136"
   inkscape:cy="497.88136"
   inkscape:window-x="-8"
   inkscape:window-y="-8"
   inkscape:window-maximized="1"
   inkscape:current-layer="svg14"
   inkscape:pagecheckerboard="1" />
<metadata
   id="metadata2"> Svg Vector Icons : http://www.onlinewebfonts.com/icon <rdf:RDF><cc:Work
     rdf:about=""><dc:format>image/svg+xml</dc:format><dc:type
       rdf:resource="http://purl.org/dc/dcmitype/StillImage" /></cc:Work></rdf:RDF></metadata>
<g
   id="g12"
   style="fill:#b3c8e0;fill-opacity:1"><path
     d="M10,727.1c0,19.2,15.7,35,35,35h85.3c19.2,0,35-15.7,35-35V273.8c0-19.2-15.7-35-35-35H45c-19.2,0-35,15.7-35,35V727.1z M207,726.4c0,19.2,13.2,43.6,29.3,54.1l257.1,167.9c16.1,10.5,29.3,3.4,29.3-15.8V67.3c0-19.2-13.2-26.4-29.3-15.9L236.3,219.1C220.2,229.6,207,254,207,273.2V726.4z"
     id="path4"
     style="fill:#b3c8e0;fill-opacity:1" /></g>
</svg>
