<svg width="40" height="40" xmlns="http://www.w3.org/2000/svg">
  <path d="m20.000011,5.000652c-8.192641,0 -14.824212,6.710005 -14.824212,14.999545c0,8.283411 6.631569,14.996469 14.824212,14.999529c8.186607,-0.003059 14.821198,-6.716118 14.82423,-14.999529c-0.003033,-8.289538 -6.637623,-14.999545 -14.82423,-14.999545zm0,26.469594c-6.25944,-0.012238 -11.326901,-5.139641 -11.339,-11.470049c0.015121,-6.333482 5.079559,-11.46088 11.342029,-11.473121c6.256432,0.012239 11.323891,5.139639 11.335999,11.473121c-0.015129,6.330408 -5.082588,11.4578 -11.339027,11.470049z" fill="rgb(255, 255, 255)" id="svg_27"/>
  <g transform="matrix(0.0647959, 0, 0, 0.0641554, 19.4684, 16.659)" id="svg_10">
   <path fill="#ffffff" d="m-13.736973,-40.185215c-1.100006,0.399998 -3.100006,2.000004 -4.5,3.500004c-2.399994,2.599991 -2.5,3.099991 -3,22.299988c-0.399994,14.700012 -0.799988,19.700012 -1.700012,19.800018c-0.699982,0.099976 -12.099991,0.199982 -25.399994,0.299988l-24.099987,0.100006l-3.400009,3.399994l-3.399994,3.399994l0,39.100006c0,34.700012 0.199997,39.5 1.600006,41.700012c3.399994,5.099976 5.299988,5.399994 31.89999,5.399994l24.5,0l0,18.699982c0,17.100006 0.200012,19.100006 2,22.100006c2.899994,4.700012 8.100006,6.700012 13.100006,5c2.699982,-0.899994 17.699982,-13.399994 49.399994,-41.100006c25.000004,-22 46.799992,-41.299988 48.400028,-42.899994c1.699982,-1.699982 3.299988,-4.399994 3.599976,-5.899994c1.5,-6.799988 0.799988,-7.600006 -47.700016,-50c-25.299988,-22.199982 -47.899994,-41.600006 -50.099976,-43.199997c-4,-2.700001 -7.5,-3.300007 -11.200012,-1.700001z" id="svg_6" transform="rotate(-180, 8.20198, 52.0762)"/>
  </g>
</svg>