<svg width="360" height="360" xmlns="http://www.w3.org/2000/svg">

 <g>
  <title>background</title>
  <rect fill="none" id="canvas_background" height="362" width="362" y="-1" x="-1"/>
 </g>
 <g>
  <title>Layer 1</title>
  <path fill="rgb(255, 255, 255)" d="m330,300l-113.785995,0l124.39299,-124.393997c5.858002,-5.85701 5.858002,-15.354996 0,-21.212997l-120,-120.000008c-5.856995,-5.857998 -15.354996,-5.857998 -21.212997,0l-179.999996,179.999001c-2.814001,2.813004 -4.394001,6.628006 -4.394001,10.606995s1.58,7.793991 4.394001,10.606995l89.999996,90c2.813004,2.812988 6.628006,4.393005 10.606003,4.393005l60,0.001007c0.005997,0 0.011002,-0.001007 0.016998,-0.001007l149.983002,0.001007c8.28299,0 15,-6.716003 15,-15c0,-8.283997 -6.716003,-15 -15,-15zm-120,-233.787003l98.786987,98.787003l-86.786987,86.787003l-98.787003,-98.787003l86.787003,-86.787003z" id="XMLID_85_"/>
 </g>
</svg>