<?xml version="1.0" encoding="UTF-8" standalone="no"?>
<!DOCTYPE svg PUBLIC "-//W3C//DTD SVG 1.1//EN" "http://www.w3.org/Graphics/SVG/1.1/DTD/svg11.dtd">
<svg version="1.1" xmlns="http://www.w3.org/2000/svg" xmlns:xlink="http://www.w3.org/1999/xlink" preserveAspectRatio="xMidYMid meet" viewBox="0 0 640 640" width="640" height="640"><defs><path d="M194.9 291.54C194.9 290.32 194.82 280.54 194.81 279.32C194.81 279.32 189.05 244.64 235.31 244.64C247.79 244.72 310.22 245.15 422.59 245.92C422.59 275.6 422.59 292.09 422.59 295.38C431.65 304.44 446.39 304.44 455.49 295.38C462.73 288.15 520.6 230.32 527.83 223.09C536.89 213.98 536.89 199.25 527.83 190.19C520.59 182.52 462.68 121.21 455.45 113.54C446.39 104.48 431.65 104.48 422.55 113.54C422.55 118.73 422.55 160.24 422.55 165.43C418.02 164.11 241.12 163.37 241.12 163.37C136.79 163.37 113.96 231.64 113.96 259.14C113.96 262.04 113.96 285.25 113.96 288.15C113.96 311.4 132.86 330.3 156.15 330.3C156.15 330.3 156.15 330.3 156.15 330.3C181.99 319.95 194.9 307.04 194.9 291.54Z" id="c2k5SBQgv8"></path><path d="M450.23 371.2C450.23 373.89 450.27 395.42 450.27 398.11C448.99 408.13 432.15 414.72 407.4 414.72C395.15 414.72 333.88 414.72 223.59 414.72C223.57 388.42 223.55 373.8 223.55 370.88C214.49 361.82 199.75 361.82 190.65 370.88C183.42 378.11 125.58 435.95 118.35 443.18C109.29 452.28 109.29 467.02 118.35 476.08C125.58 483.31 183.42 541.14 190.65 548.37C199.75 557.48 214.49 557.48 223.55 548.37C223.55 544.91 223.57 527.56 223.59 496.35C333.91 496.35 395.19 496.35 407.45 496.35C511.77 496.35 534.6 427.67 534.6 400.17C534.6 397.27 534.6 374.06 534.6 371.16C534.6 347.87 515.71 331.49 492.42 331.49C492.42 331.49 492.42 331.49 492.42 331.49C464.29 342.44 450.23 355.68 450.23 371.2Z" id="bsX0A5oQJ"></path></defs><g><g><g><use xlink:href="#c2k5SBQgv8" opacity="1" fill="#ffffff" fill-opacity="1"></use><g><use xlink:href="#c2k5SBQgv8" opacity="1" fill-opacity="0" stroke="#000000" stroke-width="0" stroke-opacity="0"></use></g></g><g><use xlink:href="#bsX0A5oQJ" opacity="1" fill="#ffffff" fill-opacity="1"></use><g><use xlink:href="#bsX0A5oQJ" opacity="1" fill-opacity="0" stroke="#000000" stroke-width="0" stroke-opacity="0"></use></g></g></g></g></svg>