<svg width="40" height="40" xmlns="http://www.w3.org/2000/svg">
 <g>
  <path fill="#FFFFFF" d="m19.999777,34.937149c-8.165161,0 -14.76902,-6.751976 -14.76902,-14.936653c0,-8.331001 6.603859,-14.936663 14.76902,-14.936663c8.165155,0 14.769007,6.605661 14.769007,14.936663c0,8.184677 -6.603851,14.936653 -14.769007,14.936653l0,0zm0,-26.425686c-6.248198,0 -11.36009,5.026638 -11.36009,11.489033c0,6.24596 5.111893,11.489029 11.36009,11.489029c6.248198,0 11.360086,-5.243069 11.360086,-11.489029c0,-6.462395 -5.111889,-11.489033 -11.360086,-11.489033l0,0zm5.184217,15.509731l-1.205627,1.149208c-0.283325,0.286537 -0.42498,0.286537 -0.711323,0l-3.267267,-3.304348l-3.267271,3.304348c-0.283325,0.286537 -0.49733,0.286537 -0.780645,0l-1.136307,-1.149208c-0.283329,-0.286537 -0.283329,-0.502964 0,-0.789501l3.267262,-3.304352l-3.267262,-3.231209c-0.214001,-0.359688 -0.355667,-0.429806 0,-0.789505l1.136307,-1.222366c0.213993,-0.216427 0.56966,-0.216427 0.780645,0l3.267271,3.304356l3.267267,-3.304356c0.213999,-0.216427 0.497328,-0.216427 0.711323,0l1.205627,1.222366c0.214006,0.216434 0.141663,0.502968 0,0.789505l-3.267262,3.231205l3.267262,3.304356c0.210991,0.216419 0.210991,0.576122 0,0.789501z"/>
 </g>
</svg>