<?xml version="1.0" encoding="UTF-8" standalone="no"?>
<!-- Svg Vector Icons : http://www.onlinewebfonts.com/icon -->

<svg
   xmlns:dc="http://purl.org/dc/elements/1.1/"
   xmlns:cc="http://creativecommons.org/ns#"
   xmlns:rdf="http://www.w3.org/1999/02/22-rdf-syntax-ns#"
   xmlns:svg="http://www.w3.org/2000/svg"
   xmlns="http://www.w3.org/2000/svg"
   xmlns:sodipodi="http://sodipodi.sourceforge.net/DTD/sodipodi-0.dtd"
   xmlns:inkscape="http://www.inkscape.org/namespaces/inkscape"
   version="1.1"
   x="0px"
   y="0px"
   viewBox="0 0 1088.6999 1070.125"
   enable-background="new 0 0 1000 1000"
   xml:space="preserve"
   id="svg40"
   sodipodi:docname="cargar.svg"
   width="1088.7"
   height="1070.125"
   inkscape:version="0.92.5 (2060ec1f9f, 2020-04-08)"><defs
   id="defs44" /><sodipodi:namedview
   pagecolor="#ffffff"
   bordercolor="#666666"
   borderopacity="1"
   objecttolerance="10"
   gridtolerance="10"
   guidetolerance="10"
   inkscape:pageopacity="0"
   inkscape:pageshadow="2"
   inkscape:window-width="1920"
   inkscape:window-height="1017"
   id="namedview42"
   showgrid="false"
   fit-margin-top="120"
   fit-margin-left="120"
   fit-margin-right="120"
   fit-margin-bottom="120"
   inkscape:zoom="0.472"
   inkscape:cx="14.353159"
   inkscape:cy="772.67872"
   inkscape:window-x="-8"
   inkscape:window-y="-8"
   inkscape:window-maximized="1"
   inkscape:current-layer="svg40"
   inkscape:pagecheckerboard="true" />
<metadata
   id="metadata2"> Svg Vector Icons : http://www.onlinewebfonts.com/icon <rdf:RDF><cc:Work
     rdf:about=""><dc:format>image/svg+xml</dc:format><dc:type
       rdf:resource="http://purl.org/dc/dcmitype/StillImage" /><dc:title></dc:title></cc:Work></rdf:RDF></metadata>
<path
   sodipodi:nodetypes="ssssssssccsssccssscssccccccc"
   d="m 968.7,660.425 v 222.3 c 0,37.2 -30.2,67.4 -67.4,67.4 H 187.4 c -37.2,0 -67.4,-30.1 -67.4,-67.4 v -222.3 c 0,-37.2 30.2,-67.4 67.4,-67.4 37.2,0 67.4,30.2 67.4,67.4 v 154.9 H 834 v -154.9 c 0,-37.2 30.2,-67.4 67.4,-67.4 37.2,0 67.3,30.2 67.3,67.4 z m -578.7,-223.4 87.1,-87 v 320.6 c 0,37.2 30.2,67.4 67.4,67.4 37.2,0 67.4,-30.2 67.4,-67.4 v -320.7 l 87,87 c 13.1,13.1 30.4,19.7 47.7,19.7 17.3,0 34.5,-6.6 47.6,-19.7 26.4,-26.3 26.4,-69 0,-95.2 l -202.1,-202 c -26.3,-26.3 -68.9,-26.3 -95.2,0 l -202.1,202 c -26.3,26.3 -26.3,68.9 0,95.2 26.2,26.4 68.9,26.4 95.2,0.1 z"
   id="path4"
   inkscape:connector-curvature="0"
   style="fill:#ffffff;fill-opacity:1" /><g
   id="g8"
   transform="translate(44.4,-39.975)" /><g
   id="g10"
   transform="translate(44.4,-39.975)" /><g
   id="g12"
   transform="translate(44.4,-39.975)" /><g
   id="g14"
   transform="translate(44.4,-39.975)" /><g
   id="g16"
   transform="translate(44.4,-39.975)" /><g
   id="g18"
   transform="translate(44.4,-39.975)" /><g
   id="g20"
   transform="translate(44.4,-39.975)" /><g
   id="g22"
   transform="translate(44.4,-39.975)" /><g
   id="g24"
   transform="translate(44.4,-39.975)" /><g
   id="g26"
   transform="translate(44.4,-39.975)" /><g
   id="g28"
   transform="translate(44.4,-39.975)" /><g
   id="g30"
   transform="translate(44.4,-39.975)" /><g
   id="g32"
   transform="translate(44.4,-39.975)" /><g
   id="g34"
   transform="translate(44.4,-39.975)" /><g
   id="g36"
   transform="translate(44.4,-39.975)" />
</svg>