<?xml version="1.0" encoding="UTF-8" standalone="no"?>
<!-- Generator: Adobe Illustrator 18.0.0, SVG Export Plug-In . SVG Version: 6.00 Build 0)  -->

<svg
   xmlns:dc="http://purl.org/dc/elements/1.1/"
   xmlns:cc="http://creativecommons.org/ns#"
   xmlns:rdf="http://www.w3.org/1999/02/22-rdf-syntax-ns#"
   xmlns:svg="http://www.w3.org/2000/svg"
   xmlns="http://www.w3.org/2000/svg"
   xmlns:sodipodi="http://sodipodi.sourceforge.net/DTD/sodipodi-0.dtd"
   xmlns:inkscape="http://www.inkscape.org/namespaces/inkscape"
   version="1.1"
   id="Capa_1"
   x="0px"
   y="0px"
   viewBox="0 0 100.0 100.0"
   style="enable-background:new 0 0 322.944 322.944;"
   xml:space="preserve"
   sodipodi:docname="config_icon.svg"
   inkscape:version="0.92.4 (5da689c313, 2019-01-14)"><metadata
   id="metadata47"><rdf:RDF><cc:Work
       rdf:about=""><dc:format>image/svg+xml</dc:format><dc:type
         rdf:resource="http://purl.org/dc/dcmitype/StillImage" /><dc:title /></cc:Work></rdf:RDF></metadata><defs
   id="defs45" /><sodipodi:namedview
   pagecolor="#ffffff"
   bordercolor="#666666"
   borderopacity="1"
   objecttolerance="10"
   gridtolerance="10"
   guidetolerance="10"
   inkscape:pageopacity="0"
   inkscape:pageshadow="2"
   inkscape:window-width="1920"
   inkscape:window-height="1017"
   id="namedview43"
   showgrid="false"
   inkscape:zoom="2.0669491"
   inkscape:cx="-8.6317837"
   inkscape:cy="5.4429035"
   inkscape:window-x="1592"
   inkscape:window-y="-8"
   inkscape:window-maximized="1"
   inkscape:current-layer="Capa_1" />
<path
   style="fill:#014898;fill-opacity:1;stroke:none;stroke-width:0.66787052;stroke-linejoin:round;stroke-miterlimit:4;stroke-dasharray:none;stroke-opacity:1"
   d="m 54.930497,73.497309 c -0.878906,-0.5537 -0.993366,-1.084999 -0.993366,-4.611068 V 65.752719 L 53.174826,65.460355 C 52.755564,65.299553 51.81079,64.904812 51.075337,64.583149 l -1.3372,-0.584841 -2.113211,2.163389 c -1.162267,1.189862 -2.270953,2.24607 -2.463751,2.347124 -0.192797,0.101047 -0.695708,0.183735 -1.117588,0.183735 H 43.27654 l -5.100708,-5.261073 c -3.553985,-3.665726 -5.154333,-5.428977 -5.277554,-5.814775 -0.367691,-1.151211 -0.132965,-1.573922 2.278064,-4.102485 L 37.41279,51.168758 36.874908,49.939543 C 36.579077,49.263475 36.20434,48.323914 36.042164,47.851628 l -0.294868,-0.858696 -3.222238,-0.05336 c -3.507793,-0.05809 -3.725272,-0.112828 -4.374604,-1.101294 -0.271685,-0.413583 -0.291999,-0.965679 -0.291999,-7.936048 0,-7.315991 0.0078,-7.50251 0.332378,-7.959725 0.66812,-0.94112 1.125523,-1.048042 4.484603,-1.048327 l 3.051649,-2.56e-4 0.296663,-0.870595 c 0.163164,-0.478828 0.553464,-1.453915 0.867337,-2.166862 L 37.461751,24.5602 35.285276,22.291173 c -1.197062,-1.247963 -2.256482,-2.432021 -2.354264,-2.631237 -0.295764,-0.602566 -0.20232,-1.27497 0.285063,-2.05128 0.732679,-1.167013 9.459018,-10.0437257 10.17768,-10.3530546 1.175313,-0.5058849 1.545468,-0.2985853 4.073061,2.2810603 l 2.276071,2.3229423 1.495303,-0.668354 c 0.822425,-0.367593 1.766124,-0.756825 2.097126,-0.864962 l 0.601815,-0.196605 6.37e-4,-3.2622363 c 6.37e-4,-2.9430025 0.03123,-3.3141836 0.313866,-3.7931231 0.623502,-1.0566905 0.523991,-1.0444739 8.506508,-1.0444739 h 7.232106 l 0.567821,0.5389404 c 0.75759,0.7190575 0.86339,1.2935884 0.868,4.7132253 l 0.004,2.8476676 0.60181,0.201501 c 0.331,0.110824 1.24128,0.497204 2.02284,0.858617 l 1.42103,0.657114 2.18987,-2.2335482 c 2.40452,-2.4524851 2.90221,-2.7591782 3.98487,-2.4556148 0.50062,0.140368 1.50901,1.1020923 5.53027,5.274324 2.70491,2.806461 4.99783,5.265651 5.09538,5.464867 0.2467,0.503829 0.22141,1.475361 -0.0523,2.009067 -0.12631,0.246287 -1.16869,1.411879 -2.3164,2.590212 l -2.08677,2.142414 0.32506,0.658371 c 0.17877,0.362103 0.56532,1.300888 0.85898,2.086187 l 0.53393,1.427815 3.18262,0.08291 c 3.32719,0.08669 3.51716,0.127594 4.22577,0.910053 l 0.40121,0.443023 0.0422,7.490474 c 0.0405,7.197144 0.0298,7.511226 -0.27319,8.020404 -0.62648,1.052666 -0.86928,1.119781 -4.38178,1.211258 l -3.18365,0.08292 -0.62213,1.598415 c -0.34217,0.879128 -0.73188,1.817705 -0.86601,2.085731 l -0.24389,0.487314 2.08721,2.142873 c 1.14796,1.178584 2.19053,2.34438 2.31684,2.590667 0.27371,0.533721 0.29899,1.505252 0.0523,2.009069 -0.25261,0.515855 -9.60386,10.202203 -10.12576,10.488615 -0.23835,0.1308 -0.77439,0.237819 -1.1912,0.237819 h -0.75783 l -2.2661,-2.321583 c -1.24634,-1.276874 -2.34327,-2.321588 -2.43762,-2.321588 -0.0943,0 -0.66899,0.233942 -1.27699,0.519875 -0.60801,0.285933 -1.46655,0.647333 -1.90789,0.803115 l -0.80241,0.283242 -0.0803,3.308729 c -0.0885,3.651175 -0.1534,3.902607 -1.17222,4.54451 -0.488065,0.307493 -0.858213,0.323118 -7.654411,0.323118 -6.880484,0 -7.160959,-0.01225 -7.672772,-0.334665 z M 66.454892,53.445861 c 5.211377,-1.401477 9.355037,-5.450306 10.960107,-10.709249 1.20461,-3.946917 0.91108,-8.062085 -0.83954,-11.769841 -1.83522,-3.886954 -4.83981,-6.692797 -8.685637,-8.111118 -2.096243,-0.77308 -3.578246,-0.989054 -6.045212,-0.880969 -2.459753,0.107764 -3.789302,0.460763 -6.061912,1.609438 -4.295458,2.171111 -7.326975,6.230088 -8.362457,11.196687 -0.390553,1.873268 -0.320611,4.974104 0.155663,6.901561 1.50303,6.082621 6.020579,10.585343 11.978168,11.93888 1.861115,0.422835 4.970155,0.343818 6.90082,-0.175389 z"
   id="path840"
   inkscape:connector-curvature="0" /><path
   style="fill:#014898;fill-opacity:1;stroke:none;stroke-width:0.66787052;stroke-linejoin:round;stroke-miterlimit:4;stroke-dasharray:none;stroke-opacity:1"
   d="m 17.677608,97.741034 c -0.840828,-0.465956 -1.133285,-1.190529 -1.133285,-2.807773 0,-1.338168 -0.01144,-1.37926 -0.429731,-1.543592 -0.393508,-0.154594 -0.505121,-0.09293 -1.323994,0.731471 -0.491846,0.495161 -1.052001,0.983403 -1.244797,1.084978 -0.44943,0.236787 -1.415596,0.237345 -1.86667,9.74e-4 C 11.17801,94.944694 6.296728,89.923654 6.021703,89.387766 5.895306,89.141482 5.79189,88.593214 5.79189,88.169393 c 0,-0.723693 0.06376,-0.83882 1.047736,-1.891985 0.963008,-1.030711 1.03471,-1.156809 0.886636,-1.559237 -0.156244,-0.424638 -0.201214,-0.43784 -1.491572,-0.43784 -1.565132,0 -2.266355,-0.302191 -2.717299,-1.171016 -0.260538,-0.50198 -0.293247,-1.006385 -0.293247,-4.522389 0,-4.477044 0.06267,-4.781112 1.110932,-5.389884 0.49278,-0.286181 0.88225,-0.358816 1.923969,-0.358816 1.264033,0 1.311307,-0.01412 1.467217,-0.437837 0.148074,-0.40243 0.07637,-0.528526 -0.886636,-1.55924 C 5.855645,69.787987 5.79189,69.672857 5.79189,68.949167 c 0,-0.423821 0.103416,-0.972088 0.229813,-1.218376 0.275025,-0.535887 5.156307,-5.556925 5.657428,-5.819408 0.451074,-0.236266 1.41724,-0.235709 1.86667,9.72e-4 0.192796,0.101579 0.752951,0.589817 1.244797,1.08498 0.818873,0.8244 0.930486,0.886062 1.323994,0.731472 0.418293,-0.164332 0.429731,-0.205424 0.429731,-1.543596 0,-1.617246 0.292457,-2.341816 1.133285,-2.807772 0.486264,-0.269471 0.975237,-0.303013 4.417303,-0.303013 3.756792,0 3.886532,0.01106 4.415818,0.376418 0.815902,0.563206 1.106458,1.303363 1.10675,2.819321 1.62e-4,1.219259 0.02224,1.299068 0.408182,1.480774 0.380188,0.178991 0.475724,0.122627 1.404573,-0.828619 1.067173,-1.092906 1.592824,-1.318074 2.614601,-1.120004 0.47438,0.09195 1.032329,0.564421 2.911607,2.46551 2.74571,2.777577 3.2413,3.390945 3.362283,4.161287 0.145295,0.925129 -0.06515,1.405592 -1.106461,2.526108 -0.889458,0.957121 -0.963557,1.090837 -0.804459,1.451643 0.16283,0.369277 0.277459,0.401548 1.618995,0.455793 1.629684,0.0659 2.139962,0.320814 2.630019,1.313869 0.243056,0.492538 0.280598,1.07888 0.280598,4.382645 0,4.270788 -0.0749,4.632528 -1.106499,5.344638 -0.458523,0.316509 -0.759182,0.376414 -1.889133,0.376414 -1.28335,0 -1.352179,0.01895 -1.529575,0.421248 -0.172102,0.390312 -0.120162,0.490768 0.707373,1.368078 0.491216,0.520757 0.973544,1.109826 1.07185,1.309042 0.251122,0.508902 0.222213,1.317105 -0.06983,1.953108 -0.354247,0.77137 -5.361056,5.84332 -5.9084,5.985267 -1.015695,0.263412 -1.696528,-0.0083 -2.766735,-1.104357 -0.9446,-0.967375 -1.040323,-1.024318 -1.420772,-0.845203 -0.385946,0.181704 -0.407944,0.261512 -0.408182,1.480775 -3.18e-4,1.515957 -0.290848,2.256114 -1.10675,2.81932 -0.529287,0.365356 -0.659027,0.376415 -4.415819,0.376415 -3.442065,0 -3.931039,-0.03355 -4.417302,-0.303012 z m 6.21799,-11.391858 c 2.493155,-0.585937 4.597239,-2.559848 5.519789,-5.1783 0.472498,-1.341091 0.472498,-3.882057 0,-5.22315 -2.02795,-5.755888 -9.085647,-7.267248 -13.057347,-2.796146 -2.884173,3.246833 -2.711562,8.259323 0.386476,11.223064 2.038664,1.950285 4.436774,2.612445 7.151082,1.974532 z"
   id="path842"
   inkscape:connector-curvature="0" /></svg>