<svg width="600" height="450" xmlns="http://www.w3.org/2000/svg">

 <g>
  <title>background</title>
  <rect fill="none" id="canvas_background" height="452" width="602" y="-1" x="-1"/>
 </g>
 <g>
  <title>Layer 1</title>
  <g id="svg_1">
   <path fill="#ffffff" id="svg_2" d="m524.049194,160.899216c-11.5,0 -20.899963,9.400009 -20.899963,20.900009l0,24l-44.799988,0l0,-1c0,-31.300003 -25,-56.300003 -56.300018,-56.300003l-81.300018,0l0,-55.300003l28.200012,0c11.5,0 20.899994,-9.400002 20.899994,-20.900002s-9.399994,-20.900002 -20.899994,-20.900002l-98,0c-11.5,0 -20.899994,9.400002 -20.899994,20.900002s9.399994,20.900002 20.899994,20.900002l28.100006,0l0,55.300003l-81.300003,0c-31.300003,0 -56.300003,25 -56.300003,56.300003l0,1l-44.800003,0l0,-24c0,-11.5 -9.399994,-20.900009 -20.899994,-20.900009s-20.800003,9.400009 -20.800003,20.800003l0,183.5c0,11.5 9.400002,20.899994 20.900002,20.899994c10.400002,0 19.799995,-9.399994 20.900002,-20.899994l0,-22.899994l44.800003,0c0,31.299988 25,56.299988 56.299988,56.299988l204.300018,0c31.299988,0 56.299988,-25 56.299988,-56.299988l44.799988,-0.100006l0,23c0,11.5 9.400024,20.899994 20.900024,20.899994s20.899963,-9.399994 20.899963,-20.899994l0,-183.5c-0.099976,-11.399994 -9.5,-20.800003 -21,-20.800003zm-383.599976,138.599991l-43.800003,0l0,-52.100006l43.800003,0l0,52.100006zm277.299988,42.800018c0,8.300018 -7.299988,15.600006 -15.600006,15.600006l-204.399979,0c-8.300003,0 -15.600006,-7.299988 -15.600006,-15.600006l0,-137.600006c0,-8.300003 7.300003,-15.600006 15.600006,-15.600006l204.300003,0c8.300018,0 15.600006,7.300003 15.600006,15.600006l0,137.600006l0.099976,0zm40.700012,-42.800018l0,-52.100006l44.799988,0l0,52.100006l-44.799988,0z"/>
  </g>
  <g id="svg_3"/>
  <g id="svg_4"/>
  <g id="svg_5"/>
  <g id="svg_6"/>
  <g id="svg_7"/>
  <g id="svg_8"/>
  <g id="svg_9"/>
  <g id="svg_10"/>
  <g id="svg_11"/>
  <g id="svg_12"/>
  <g id="svg_13"/>
  <g id="svg_14"/>
  <g id="svg_15"/>
  <g id="svg_16"/>
  <g id="svg_17"/>
 </g>
</svg>