<?xml version="1.0" encoding="UTF-8" standalone="no"?>
<!-- Svg Vector Icons : http://www.onlinewebfonts.com/icon -->

<svg
   xmlns:dc="http://purl.org/dc/elements/1.1/"
   xmlns:cc="http://creativecommons.org/ns#"
   xmlns:rdf="http://www.w3.org/1999/02/22-rdf-syntax-ns#"
   xmlns:svg="http://www.w3.org/2000/svg"
   xmlns="http://www.w3.org/2000/svg"
   xmlns:sodipodi="http://sodipodi.sourceforge.net/DTD/sodipodi-0.dtd"
   xmlns:inkscape="http://www.inkscape.org/namespaces/inkscape"
   version="1.1"
   x="0px"
   y="0px"
   viewBox="0 0 1000 1000"
   enable-background="new 0 0 1000 1000"
   xml:space="preserve"
   id="svg12"
   sodipodi:docname="embrague_on.svg"
   inkscape:version="0.92.5 (2060ec1f9f, 2020-04-08)"><defs
   id="defs16" /><sodipodi:namedview
   pagecolor="#ffffff"
   bordercolor="#666666"
   borderopacity="1"
   objecttolerance="10"
   gridtolerance="10"
   guidetolerance="10"
   inkscape:pageopacity="0"
   inkscape:pageshadow="2"
   inkscape:window-width="1920"
   inkscape:window-height="1057"
   id="namedview14"
   showgrid="false"
   inkscape:zoom="0.236"
   inkscape:cx="500"
   inkscape:cy="500"
   inkscape:window-x="-8"
   inkscape:window-y="-8"
   inkscape:window-maximized="1"
   inkscape:current-layer="svg12" />
<metadata
   id="metadata2"> Svg Vector Icons : http://www.onlinewebfonts.com/icon <rdf:RDF><cc:Work
     rdf:about=""><dc:format>image/svg+xml</dc:format><dc:type
       rdf:resource="http://purl.org/dc/dcmitype/StillImage" /><dc:title></dc:title></cc:Work></rdf:RDF></metadata>
<g
   id="g10"
   style="fill:#01ff00;fill-opacity:1"><g
     transform="translate(0.000000,512.000000) scale(0.100000,-0.100000)"
     id="g8"
     style="fill:#01ff00;fill-opacity:1"><path
       d="M2793.9,5009.1c-554.2-88.2-941.5-360.5-1204.2-847.6c-136.1-253.1-147.7-519.7-32.6-770.9c69-149.6,186-266.5,425.7-425.7c293.4-195.6,485.1-352.8,709.5-584.9c235.9-241.6,347.1-398.8,498.6-688.4c113.1-218.6,117-220.5,230.1-278c105.5-53.7,130.4-57.5,306.8-55.6c326,1.9,701.8,141.9,870.6,324.1c101.6,111.2,111.2,155.3,61.4,322.1c-69,235.9-49.9,477.5,59.4,694.2c97.8,195.6,120.8,293.4,118.9,517.7c-1.9,431.5-163,839.9-456.4,1154.4c-251.2,270.4-669.2,535-960.7,609.8C3280.9,5016.8,2941.5,5032.1,2793.9,5009.1z"
       id="path4"
       style="fill:#01ff00;fill-opacity:1" /><path
       d="M4657.7,1287.1c-182.2-143.8-477.5-247.4-699.9-247.4h-118.9l542.7-1323.1c299.1-728.7,544.6-1330.8,544.6-1338.4s-239.7-113.1-531.2-233.9c-490.9-203.3-538.8-228.2-630.9-318.3c-82.5-80.5-103.5-115-124.6-205.2c-17.3-80.5-19.2-134.2-3.8-195.6c19.2-82.5,17.3-84.4-38.3-107.4c-193.7-80.5-320.2-327.9-266.5-519.7c19.2-67.1,17.3-70.9-40.3-93.9c-193.7-80.5-320.2-326-266.5-519.7c19.2-67.1,17.3-71-40.3-94c-295.3-122.7-368.2-531.2-134.2-747.8c28.8-28.8,84.4-67.1,120.8-86.3c65.2-34.5,164.9-36.4,2579.1-36.4h2512l107.4,49.9c226.3,105.5,352.8,306.8,352.8,554.2c-1.9,109.3-11.5,168.7-46,245.4c-24.9,53.7-47.9,99.7-51.8,99.7c-3.8,0-138.1-21.1-299.2-47.9c-1073.8-172.6-2197.5-312.6-2945.3-366.3c-155.3-11.5-182.2-7.7-214.8,21.1c-47.9,44.1-49.9,128.5-3.8,168.7c80.5,72.9,1499.5,372,2717.2,569.5c358.6,59.4,506.2,90.1,523.5,113.1c59.5,70.9-17.2,406.5-113.1,492.8c-34.5,30.7-44.1,30.7-184.1,0C7202.3-3035,6397-3188.4,5894.6-3261.3c-538.8-78.6-538.8-78.6-582.9-34.5c-49.9,49.9-51.8,120.8-1.9,164.9c74.8,67.1,1047,352.8,1965.5,575.3c285.7,69,544.6,132.3,575.3,140c55.6,15.4,57.5,19.2,55.6,122.7c-1.9,115-63.3,268.5-147.7,370.1l-47.9,55.6l-456.4-147.6c-559.9-180.3-1041.2-314.5-1447.8-406.5c-280-63.3-312.6-67.1-352.8-40.3c-53.7,34.5-69.1,90.1-40.3,147.7c40.3,82.4,949.2,467.9,1800.6,767l400.8,140l-13.4,76.7c-42.2,274.2-268.5,490.9-544.6,523.5c-138,15.3-214.8-9.6-770.8-247.4c-274.2-115-502.4-207.1-508.2-203.3c-3.8,5.8-245.4,586.8-535,1290.5c-291.5,705.6-529.3,1284.8-533.1,1286.7C4707.6,1323.6,4684.6,1308.2,4657.7,1287.1z"
       id="path6"
       style="fill:#01ff00;fill-opacity:1" /></g></g>
</svg>