<?xml version="1.0" encoding="UTF-8" standalone="no"?>
<!-- Generator: Adobe Illustrator 17.1.0, SVG Export Plug-In . SVG Version: 6.00 Build 0)  -->

<svg
   version="1.1"
   id="Capa_1"
   x="0px"
   y="0px"
   viewBox="0 0 345.83498 175.313"
   xml:space="preserve"
   sodipodi:docname="mail-send-svgrepo-com.svg"
   width="345.83499"
   height="175.313"
   inkscape:version="1.1 (c68e22c387, 2021-05-23)"
   xmlns:inkscape="http://www.inkscape.org/namespaces/inkscape"
   xmlns:sodipodi="http://sodipodi.sourceforge.net/DTD/sodipodi-0.dtd"
   xmlns="http://www.w3.org/2000/svg"
   xmlns:svg="http://www.w3.org/2000/svg"><defs
   id="defs45" /><sodipodi:namedview
   id="namedview43"
   pagecolor="#505050"
   bordercolor="#ffffff"
   borderopacity="1"
   inkscape:pageshadow="0"
   inkscape:pageopacity="0"
   inkscape:pagecheckerboard="1"
   showgrid="false"
   fit-margin-top="0"
   fit-margin-left="0"
   fit-margin-right="0"
   fit-margin-bottom="0"
   inkscape:zoom="2.3363809"
   inkscape:cx="173.13101"
   inkscape:cy="87.742541"
   inkscape:window-width="1920"
   inkscape:window-height="986"
   inkscape:window-x="-11"
   inkscape:window-y="-11"
   inkscape:window-maximized="1"
   inkscape:current-layer="Capa_1" />

<g
   id="g12"
   transform="translate(0,-85.26)">
</g>
<g
   id="g14"
   transform="translate(0,-85.26)">
</g>
<g
   id="g16"
   transform="translate(0,-85.26)">
</g>
<g
   id="g18"
   transform="translate(0,-85.26)">
</g>
<g
   id="g20"
   transform="translate(0,-85.26)">
</g>
<g
   id="g22"
   transform="translate(0,-85.26)">
</g>
<g
   id="g24"
   transform="translate(0,-85.26)">
</g>
<g
   id="g26"
   transform="translate(0,-85.26)">
</g>
<g
   id="g28"
   transform="translate(0,-85.26)">
</g>
<g
   id="g30"
   transform="translate(0,-85.26)">
</g>
<g
   id="g32"
   transform="translate(0,-85.26)">
</g>
<g
   id="g34"
   transform="translate(0,-85.26)">
</g>
<g
   id="g36"
   transform="translate(0,-85.26)">
</g>
<g
   id="g38"
   transform="translate(0,-85.26)">
</g>
<g
   id="g40"
   transform="translate(0,-85.26)">
</g>
<g
   id="g365"
   transform="translate(0,-85.26)"><g
     id="g10">
	<path
   d="m 339.798,260.429 c 0.13,-0.026 0.257,-0.061 0.385,-0.094 0.109,-0.028 0.219,-0.051 0.326,-0.084 0.125,-0.038 0.247,-0.085 0.369,-0.129 0.108,-0.039 0.217,-0.074 0.324,-0.119 0.115,-0.048 0.226,-0.104 0.338,-0.157 0.109,-0.052 0.22,-0.1 0.327,-0.158 0.107,-0.057 0.208,-0.122 0.312,-0.184 0.107,-0.064 0.215,-0.124 0.319,-0.194 0.111,-0.074 0.214,-0.156 0.321,-0.236 0.09,-0.067 0.182,-0.13 0.27,-0.202 0.162,-0.133 0.316,-0.275 0.466,-0.421 0.027,-0.026 0.056,-0.048 0.083,-0.075 0.028,-0.028 0.052,-0.059 0.079,-0.088 0.144,-0.148 0.284,-0.3 0.416,-0.46 0.077,-0.094 0.144,-0.192 0.216,-0.289 0.074,-0.1 0.152,-0.197 0.221,-0.301 0.074,-0.111 0.139,-0.226 0.207,-0.34 0.057,-0.096 0.118,-0.19 0.171,-0.289 0.062,-0.115 0.114,-0.234 0.169,-0.351 0.049,-0.104 0.101,-0.207 0.146,-0.314 0.048,-0.115 0.086,-0.232 0.128,-0.349 0.041,-0.114 0.085,-0.227 0.12,-0.343 0.036,-0.118 0.062,-0.238 0.092,-0.358 0.029,-0.118 0.063,-0.234 0.086,-0.353 0.028,-0.141 0.045,-0.283 0.065,-0.425 0.014,-0.1 0.033,-0.199 0.043,-0.3 0.025,-0.249 0.038,-0.498 0.038,-0.748 V 92.76 c 0,-4.143 -3.357,-7.5 -7.5,-7.5 h -236.25 c -0.066,0 -0.13,0.008 -0.196,0.01 -0.143,0.004 -0.285,0.01 -0.427,0.022 -0.113,0.009 -0.225,0.022 -0.337,0.037 -0.128,0.016 -0.255,0.035 -0.382,0.058 -0.119,0.021 -0.237,0.046 -0.354,0.073 -0.119,0.028 -0.238,0.058 -0.356,0.092 -0.117,0.033 -0.232,0.069 -0.346,0.107 -0.117,0.04 -0.234,0.082 -0.349,0.128 -0.109,0.043 -0.216,0.087 -0.322,0.135 -0.118,0.053 -0.235,0.11 -0.351,0.169 -0.099,0.051 -0.196,0.103 -0.292,0.158 -0.116,0.066 -0.23,0.136 -0.343,0.208 -0.093,0.06 -0.184,0.122 -0.274,0.185 -0.106,0.075 -0.211,0.153 -0.314,0.235 -0.094,0.075 -0.186,0.152 -0.277,0.231 -0.09,0.079 -0.179,0.158 -0.266,0.242 -0.099,0.095 -0.194,0.194 -0.288,0.294 -0.047,0.05 -0.097,0.094 -0.142,0.145 -0.027,0.03 -0.048,0.063 -0.074,0.093 -0.094,0.109 -0.182,0.223 -0.27,0.338 -0.064,0.084 -0.13,0.168 -0.19,0.254 -0.078,0.112 -0.15,0.227 -0.222,0.343 -0.059,0.095 -0.12,0.189 -0.174,0.286 -0.063,0.112 -0.118,0.227 -0.175,0.342 -0.052,0.105 -0.106,0.21 -0.153,0.317 -0.049,0.113 -0.092,0.23 -0.135,0.345 -0.043,0.113 -0.087,0.225 -0.124,0.339 -0.037,0.115 -0.067,0.232 -0.099,0.349 -0.032,0.12 -0.066,0.239 -0.093,0.36 -0.025,0.113 -0.042,0.228 -0.062,0.342 -0.022,0.13 -0.044,0.26 -0.06,0.39 -0.013,0.108 -0.019,0.218 -0.027,0.328 -0.01,0.14 -0.019,0.28 -0.021,0.421 -0.001,0.041 -0.006,0.081 -0.006,0.122 v 46.252 c 0,4.143 3.357,7.5 7.5,7.5 4.143,0 7.5,-3.357 7.5,-7.5 v -29.595 l 66.681,59.037 c -0.348,0.245 -0.683,0.516 -0.995,0.827 l -65.687,65.687 v -49.288 c 0,-4.143 -3.357,-7.5 -7.5,-7.5 -4.143,0 -7.5,3.357 -7.5,7.5 v 9.164 h -38.75 c -4.143,0 -7.5,3.357 -7.5,7.5 0,4.143 3.357,7.5 7.5,7.5 h 38.75 v 43.231 c 0,4.143 3.357,7.5 7.5,7.5 h 236.25 c 0.247,0 0.494,-0.013 0.74,-0.037 0.115,-0.011 0.226,-0.033 0.339,-0.049 0.13,-0.018 0.258,-0.033 0.386,-0.058 z m -8.964,-25.462 -65.688,-65.687 c -0.042,-0.042 -0.087,-0.077 -0.13,-0.117 l 49.383,-41.897 c 3.158,-2.68 3.546,-7.412 0.866,-10.571 -2.678,-3.157 -7.41,-3.547 -10.571,-0.866 l -84.381,71.59 -98.444,-87.158 H 330.834 Z M 185.878,179.888 c 0.535,-0.535 0.969,-1.131 1.308,-1.765 l 28.051,24.835 c 1.418,1.255 3.194,1.885 4.972,1.885 1.726,0 3.451,-0.593 4.853,-1.781 l 28.587,-24.254 c 0.26,0.38 0.553,0.743 0.89,1.08 l 65.687,65.687 H 120.191 Z"
   id="path2" />
	<path
   d="m 7.5,170.676 h 126.667 c 4.143,0 7.5,-3.357 7.5,-7.5 0,-4.143 -3.357,-7.5 -7.5,-7.5 H 7.5 c -4.143,0 -7.5,3.357 -7.5,7.5 0,4.143 3.357,7.5 7.5,7.5 z"
   id="path4" />
	<path
   d="M 20.625,129.345 H 77.5 c 4.143,0 7.5,-3.357 7.5,-7.5 0,-4.143 -3.357,-7.5 -7.5,-7.5 H 20.625 c -4.143,0 -7.5,3.357 -7.5,7.5 0,4.143 3.357,7.5 7.5,7.5 z"
   id="path6" />
	<path
   d="m 62.5,226.51 h -55 c -4.143,0 -7.5,3.357 -7.5,7.5 0,4.143 3.357,7.5 7.5,7.5 h 55 c 4.143,0 7.5,-3.357 7.5,-7.5 0,-4.143 -3.357,-7.5 -7.5,-7.5 z"
   id="path8" />
</g><path
     style="fill:#ffffff;stroke-width:0.428012"
     d="m 17.316261,128.24838 c -0.716254,-0.43678 -1.816072,-1.40476 -2.444041,-2.15106 -2.883649,-3.42702 -1.452087,-8.83542 2.856653,-10.79235 1.64442,-0.74686 3.44653,-0.79326 31.06454,-0.79987 17.951606,-0.004 29.907019,0.15639 30.835879,0.41443 1.720952,0.47809 3.987299,2.62482 4.6629,4.41679 1.214973,3.22262 -0.349789,7.29839 -3.399262,8.85411 -1.629417,0.83127 -2.528042,0.85526 -31.975463,0.85371 -28.757258,-0.001 -30.365191,-0.042 -31.601206,-0.79576 z"
     id="path120" /><path
     style="fill:#ffffff;stroke-width:0.428012"
     d="m 5.2458911,170.08758 c -2.072756,-0.60276 -4.26609792,-3.01671 -4.70859332,-5.18219 -0.67583966,-3.30742 0.44043708,-5.97856 3.31641412,-7.93586 l 1.4209344,-0.96704 65.8133247,0.11102 65.813329,0.11101 1.20837,0.89538 c 2.08729,1.54665 3.13442,3.49912 3.13442,5.84443 0,2.79851 -1.03158,4.85131 -3.13864,6.24576 l -1.72083,1.13884 -64.875215,0.0712 c -39.607969,0.0435 -65.4159209,-0.0861 -66.2635139,-0.33253 z"
     id="path159" /><path
     style="fill:#ffffff;stroke-width:0.428012"
     d="m 98.973689,259.54363 c -2.103296,-1.04255 -3.232932,-2.45352 -3.903978,-4.87626 -0.318048,-1.14828 -0.474983,-8.86483 -0.476583,-23.43367 l -0.0024,-21.72163 H 74.238895 c -22.283268,0 -21.664827,0.0666 -23.885199,-2.57216 -3.088229,-3.67016 -1.92463,-8.97949 2.42995,-11.0875 1.788548,-0.86583 2.445604,-0.89276 21.775035,-0.89276 h 19.930838 l 0.180702,-5.45716 c 0.210963,-6.3712 0.825221,-8.12083 3.464157,-9.86719 3.521112,-2.33017 8.538412,-0.99626 10.406872,2.76679 0.76732,1.54537 0.82866,3.16653 1.02992,27.21835 l 0.21401,25.5751 33.37851,-33.3809 c 33.07374,-33.07612 33.37075,-33.38835 32.52894,-34.1969 -0.46726,-0.4488 -15.48759,-13.76132 -33.37851,-29.58338 l -32.52894,-28.76738 -0.21401,15.77455 c -0.22562,16.63089 -0.2253,16.62823 -2.30055,18.9183 -1.38974,1.53361 -3.01169,2.2064 -5.31912,2.2064 -3.724196,0 -6.64726,-2.85405 -7.145501,-6.9768 -0.147921,-1.224 -0.208715,-12.52986 -0.135102,-25.12413 0.151037,-25.839003 0.05036,-25.049997 3.486581,-27.323982 l 1.720901,-1.138839 h 120.334001 120.334 l 1.7209,1.138839 c 0.94649,0.626362 2.08806,1.878298 2.53681,2.782081 0.79397,1.599027 0.81592,3.842864 0.81592,83.393611 0,79.55074 -0.022,81.79458 -0.81592,83.39361 -0.44875,0.90378 -1.59031,2.15572 -2.53679,2.78208 l -1.72089,1.13884 -119.87475,0.1079 -119.87474,0.10791 z M 320.08193,245.46824 c -0.13182,-0.39259 -66.32794,-66.77307 -66.58761,-66.77307 -0.0638,0 -6.57941,5.49063 -14.47906,12.20139 -7.89964,6.71076 -14.96882,12.51467 -15.70928,12.89758 -1.69052,0.8742 -3.9594,0.94838 -5.79074,0.18933 -0.7772,-0.32214 -7.89745,-6.32651 -15.82276,-13.34304 -7.92532,-7.01654 -14.41583,-12.7137 -14.42336,-12.66036 -0.008,0.0533 -15.2267,15.3556 -33.82037,34.00502 l -33.80668,33.90803 h 100.29127 c 66.17859,0 100.24274,-0.14452 100.14859,-0.42488 z m 10.62944,-145.38421 c -0.0797,-0.0797 -47.20345,-0.09632 -104.7195,-0.037 l -104.57465,0.10787 16.44062,14.57165 c 9.04235,8.0144 30.88605,27.34959 48.54156,42.96708 17.65551,15.6175 32.51177,28.76659 33.01391,29.22022 l 0.91298,0.82477 42.61545,-36.15589 c 23.43849,-19.88573 42.84059,-36.29503 43.11577,-36.4651 1.15051,-0.71105 3.68898,-0.99778 5.22012,-0.58963 2.12125,0.56545 4.41933,2.62872 5.04734,4.53159 0.61291,1.85712 0.32555,4.89507 -0.59605,6.30162 -0.37333,0.56977 -11.95364,10.60232 -25.73402,22.29453 -13.78038,11.69222 -25.05523,21.38829 -25.05523,21.54684 0,0.15854 14.78248,15.07168 32.84995,33.1403 l 32.84995,32.85204 0.10834,-67.48301 c 0.0596,-37.11566 0.0431,-67.54821 -0.0365,-67.62788 z"
     id="path198" /><path
     style="fill:#ffffff;stroke-width:0.428012"
     d="m 4.7083559,240.70413 c -5.21032849,-2.07764 -5.8839017,-9.58011 -1.1418891,-12.71872 l 1.7206316,-1.13884 28.9223646,-0.1198 c 32.156405,-0.1332 31.246169,-0.20608 33.803453,2.70651 2.943531,3.35249 1.868385,8.87167 -2.125086,10.90898 -1.59706,0.81476 -2.621674,0.84182 -30.880766,0.81559 -18.353975,-0.017 -29.6269315,-0.18584 -30.2987081,-0.45372 z"
     id="path237" /></g></svg>
