<?xml version="1.0" encoding="UTF-8" standalone="no"?>
<!-- Generator: Adobe Illustrator 16.0.0, SVG Export Plug-In . SVG Version: 6.00 Build 0)  -->

<svg
   xmlns:dc="http://purl.org/dc/elements/1.1/"
   xmlns:cc="http://creativecommons.org/ns#"
   xmlns:rdf="http://www.w3.org/1999/02/22-rdf-syntax-ns#"
   xmlns:svg="http://www.w3.org/2000/svg"
   xmlns="http://www.w3.org/2000/svg"
   xmlns:sodipodi="http://sodipodi.sourceforge.net/DTD/sodipodi-0.dtd"
   xmlns:inkscape="http://www.inkscape.org/namespaces/inkscape"
   version="1.1"
   id="Capa_1"
   x="0px"
   y="0px"
   width="439.176px"
   height="439.176px"
   viewBox="0 0 439.176 439.176"
   style="enable-background:new 0 0 439.176 439.176;"
   xml:space="preserve"
   sodipodi:docname="eye_no_visibility_blanco.svg"
   inkscape:version="0.92.5 (2060ec1f9f, 2020-04-08)"><metadata
   id="metadata47"><rdf:RDF><cc:Work
       rdf:about=""><dc:format>image/svg+xml</dc:format><dc:type
         rdf:resource="http://purl.org/dc/dcmitype/StillImage" /><dc:title /></cc:Work></rdf:RDF></metadata><defs
   id="defs45" /><sodipodi:namedview
   pagecolor="#ffffff"
   bordercolor="#666666"
   borderopacity="1"
   objecttolerance="10"
   gridtolerance="10"
   guidetolerance="10"
   inkscape:pageopacity="0"
   inkscape:pageshadow="2"
   inkscape:window-width="1920"
   inkscape:window-height="1057"
   id="namedview43"
   showgrid="false"
   inkscape:zoom="0.53736999"
   inkscape:cx="-123.75086"
   inkscape:cy="219.588"
   inkscape:window-x="1592"
   inkscape:window-y="-8"
   inkscape:window-maximized="1"
   inkscape:current-layer="Capa_1" />
<g
   id="g10"
   style="fill:#ffffff;fill-opacity:1">
	<g
   id="g8"
   style="fill:#ffffff;fill-opacity:1">
		<path
   d="m 436.58237,210.4645 c -1.03,-1.656 -25.684,-40.974 -65.189,-79.166 -34.989,-33.826003 -89.729,-74.148003 -151.806,-74.148003 -62.077,0 -116.816,40.322 -151.805997,74.148003 -39.609,38.293 -64.1560003,77.512 -65.1810003,79.161 -3.46600005,5.545 -3.46700005,12.707 -0.005,18.248 1.028,1.654 25.6030003,40.9 65.1870003,79.17 34.988997,33.826 89.728997,74.148 151.805997,74.148 120.236,0 213.097,-147.055 216.993,-153.312 3.459,-5.545 3.46,-12.706 0.001,-18.249 z m -36.609,10.859 c -11.508,16.269 -35.521,47.647 -67.053,75.038 -39.101,33.967 -77.231,51.189 -113.333,51.189 -36.103,0 -74.232,-17.223 -113.332,-51.188 -31.526997,-27.388 -55.544997,-58.771 -67.055997,-75.038 l -1.226,-1.732 1.226,-1.732 c 11.506,-16.268 35.519,-47.647 67.055997,-75.046 39.101,-33.967 77.23,-51.189003 113.332,-51.189003 36.101,0 74.232,17.223003 113.333,51.189003 31.542,27.403 55.55,58.78 67.053,75.046 l 1.227,1.732 z"
   id="path2"
   inkscape:connector-curvature="0"
   style="fill:#ffffff;fill-opacity:1" />
		<path
   d="M219.588,106.224c-62.509,0-113.364,50.856-113.364,113.367c0,62.509,50.855,113.364,113.364,113.364    c62.508,0,113.364-50.854,113.364-113.364C332.952,157.081,282.096,106.224,219.588,106.224z M219.588,298.477    c-43.5,0-78.891-35.387-78.891-78.885c0-43.502,35.391-78.893,78.891-78.893s78.889,35.391,78.889,78.893    C298.477,263.09,263.087,298.477,219.588,298.477z"
   id="path4"
   style="fill:#ffffff;fill-opacity:1" />
		<path
   d="M219.588,182.108c-20.664,0-37.475,16.814-37.475,37.482c0,20.662,16.811,37.473,37.475,37.473    c20.665,0,37.476-16.812,37.476-37.473C257.064,198.923,240.252,182.108,219.588,182.108z"
   id="path6"
   style="fill:#ffffff;fill-opacity:1" />
	</g>
</g>
<g
   id="g12"
   style="fill:#ffffff;fill-opacity:1">
</g>
<g
   id="g14"
   style="fill:#ffffff;fill-opacity:1">
</g>
<g
   id="g16"
   style="fill:#ffffff;fill-opacity:1">
</g>
<g
   id="g18"
   style="fill:#ffffff;fill-opacity:1">
</g>
<g
   id="g20"
   style="fill:#ffffff;fill-opacity:1">
</g>
<g
   id="g22"
   style="fill:#ffffff;fill-opacity:1">
</g>
<g
   id="g24"
   style="fill:#ffffff;fill-opacity:1">
</g>
<g
   id="g26"
   style="fill:#ffffff;fill-opacity:1">
</g>
<g
   id="g28"
   style="fill:#ffffff;fill-opacity:1">
</g>
<g
   id="g30"
   style="fill:#ffffff;fill-opacity:1">
</g>
<g
   id="g32"
   style="fill:#ffffff;fill-opacity:1">
</g>
<g
   id="g34"
   style="fill:#ffffff;fill-opacity:1">
</g>
<g
   id="g36"
   style="fill:#ffffff;fill-opacity:1">
</g>
<g
   id="g38"
   style="fill:#ffffff;fill-opacity:1">
</g>
<g
   id="g40"
   style="fill:#ffffff;fill-opacity:1">
</g>
<rect
   style="fill:#ffffff;fill-opacity:1;stroke:none;stroke-width:180.84603882;stroke-linecap:round;stroke-linejoin:round;stroke-miterlimit:4;stroke-dasharray:none;stroke-opacity:1"
   id="rect4557"
   width="43.229237"
   height="451.74551"
   x="-21.61462"
   y="84.671562"
   transform="rotate(-45)" /></svg>