<?xml version="1.0" encoding="UTF-8" standalone="no"?>
<!-- Generator: Adobe Illustrator 16.0.0, SVG Export Plug-In . SVG Version: 6.00 Build 0)  -->

<svg
   xmlns:dc="http://purl.org/dc/elements/1.1/"
   xmlns:cc="http://creativecommons.org/ns#"
   xmlns:rdf="http://www.w3.org/1999/02/22-rdf-syntax-ns#"
   xmlns:svg="http://www.w3.org/2000/svg"
   xmlns="http://www.w3.org/2000/svg"
   xmlns:sodipodi="http://sodipodi.sourceforge.net/DTD/sodipodi-0.dtd"
   xmlns:inkscape="http://www.inkscape.org/namespaces/inkscape"
   version="1.1"
   id="Capa_1"
   x="0px"
   y="0px"
   width="439.176px"
   height="439.176px"
   viewBox="0 0 439.176 439.176"
   style="enable-background:new 0 0 439.176 439.176;"
   xml:space="preserve"
   sodipodi:docname="eye_visibility_rojo.svg"
   inkscape:version="0.92.5 (2060ec1f9f, 2020-04-08)"><metadata
   id="metadata47"><rdf:RDF><cc:Work
       rdf:about=""><dc:format>image/svg+xml</dc:format><dc:type
         rdf:resource="http://purl.org/dc/dcmitype/StillImage" /></cc:Work></rdf:RDF></metadata><defs
   id="defs45" /><sodipodi:namedview
   pagecolor="#ffffff"
   bordercolor="#666666"
   borderopacity="1"
   objecttolerance="10"
   gridtolerance="10"
   guidetolerance="10"
   inkscape:pageopacity="0"
   inkscape:pageshadow="2"
   inkscape:window-width="1920"
   inkscape:window-height="1057"
   id="namedview43"
   showgrid="false"
   inkscape:zoom="0.53736999"
   inkscape:cx="219.588"
   inkscape:cy="219.588"
   inkscape:window-x="1592"
   inkscape:window-y="-8"
   inkscape:window-maximized="1"
   inkscape:current-layer="Capa_1" />
<g
   id="g10"
   style="fill:#ff0000;fill-opacity:1">
	<g
   id="g8"
   style="fill:#ff0000;fill-opacity:1">
		<path
   d="M436.583,210.464c-1.03-1.656-25.684-40.974-65.189-79.166C336.405,97.472,281.665,57.15,219.588,57.15    c-62.077,0-116.816,40.322-151.806,74.148C28.173,169.591,3.626,208.81,2.601,210.459c-3.466,5.545-3.467,12.707-0.005,18.248    c1.028,1.654,25.603,40.9,65.187,79.17c34.989,33.826,89.729,74.148,151.806,74.148c120.236,0,213.097-147.055,216.993-153.312    C440.041,223.168,440.042,216.007,436.583,210.464z M399.974,221.323c-11.508,16.269-35.521,47.647-67.053,75.038    c-39.101,33.967-77.231,51.189-113.333,51.189c-36.103,0-74.232-17.223-113.332-51.188    c-31.527-27.388-55.545-58.771-67.056-75.038l-1.226-1.732l1.226-1.732c11.506-16.268,35.519-47.647,67.056-75.046    c39.101-33.967,77.23-51.189,113.332-51.189c36.101,0,74.232,17.223,113.333,51.189c31.542,27.403,55.55,58.78,67.053,75.046    l1.227,1.732L399.974,221.323z"
   id="path2"
   style="fill:#ff0000;fill-opacity:1" />
		<path
   d="M219.588,106.224c-62.509,0-113.364,50.856-113.364,113.367c0,62.509,50.855,113.364,113.364,113.364    c62.508,0,113.364-50.854,113.364-113.364C332.952,157.081,282.096,106.224,219.588,106.224z M219.588,298.477    c-43.5,0-78.891-35.387-78.891-78.885c0-43.502,35.391-78.893,78.891-78.893s78.889,35.391,78.889,78.893    C298.477,263.09,263.087,298.477,219.588,298.477z"
   id="path4"
   style="fill:#ff0000;fill-opacity:1" />
		<path
   d="M219.588,182.108c-20.664,0-37.475,16.814-37.475,37.482c0,20.662,16.811,37.473,37.475,37.473    c20.665,0,37.476-16.812,37.476-37.473C257.064,198.923,240.252,182.108,219.588,182.108z"
   id="path6"
   style="fill:#ff0000;fill-opacity:1" />
	</g>
</g>
<g
   id="g12">
</g>
<g
   id="g14">
</g>
<g
   id="g16">
</g>
<g
   id="g18">
</g>
<g
   id="g20">
</g>
<g
   id="g22">
</g>
<g
   id="g24">
</g>
<g
   id="g26">
</g>
<g
   id="g28">
</g>
<g
   id="g30">
</g>
<g
   id="g32">
</g>
<g
   id="g34">
</g>
<g
   id="g36">
</g>
<g
   id="g38">
</g>
<g
   id="g40">
</g>
</svg>