<?xml version="1.0" encoding="UTF-8" standalone="no"?>
<!-- Svg Vector Icons : http://www.onlinewebfonts.com/icon -->

<svg
   xmlns:dc="http://purl.org/dc/elements/1.1/"
   xmlns:cc="http://creativecommons.org/ns#"
   xmlns:rdf="http://www.w3.org/1999/02/22-rdf-syntax-ns#"
   xmlns:svg="http://www.w3.org/2000/svg"
   xmlns="http://www.w3.org/2000/svg"
   xmlns:sodipodi="http://sodipodi.sourceforge.net/DTD/sodipodi-0.dtd"
   xmlns:inkscape="http://www.inkscape.org/namespaces/inkscape"
   version="1.1"
   x="0px"
   y="0px"
   viewBox="0 0 1950.9499 977.81643"
   enable-background="new 0 0 1000 1000"
   xml:space="preserve"
   id="svg8"
   sodipodi:docname="flecha_izq_on.svg"
   width="1950.95"
   height="977.81641"
   inkscape:version="0.92.5 (2060ec1f9f, 2020-04-08)"><defs
   id="defs12" /><sodipodi:namedview
   pagecolor="#ffffff"
   bordercolor="#666666"
   borderopacity="1"
   objecttolerance="10"
   gridtolerance="10"
   guidetolerance="10"
   inkscape:pageopacity="0"
   inkscape:pageshadow="2"
   inkscape:window-width="1920"
   inkscape:window-height="1057"
   id="namedview10"
   showgrid="false"
   fit-margin-top="150"
   fit-margin-left="150"
   fit-margin-right="150"
   fit-margin-bottom="150"
   inkscape:zoom="0.236"
   inkscape:cx="190.17563"
   inkscape:cy="488.78745"
   inkscape:window-x="-8"
   inkscape:window-y="-8"
   inkscape:window-maximized="1"
   inkscape:current-layer="svg8" />
<metadata
   id="metadata2"> Svg Vector Icons : http://www.onlinewebfonts.com/icon <rdf:RDF><cc:Work
     rdf:about=""><dc:format>image/svg+xml</dc:format><dc:type
       rdf:resource="http://purl.org/dc/dcmitype/StillImage" /><dc:title></dc:title></cc:Work></rdf:RDF></metadata>
<path
   inkscape:connector-curvature="0"
   id="path4"
   d="m 1800.1255,553.08733 c 0,30.5 -9.312,51 -28.0619,61.5 -18.7498,10.5 -48.1958,15.8 -88.3381,15.8 -18.2465,0 -47.0633,-0.2 -86.3247,-0.5 -39.2614,-0.4 -498.821,-0.5 -543.1159,-0.5 -44.2949,0 -87.45721,-0.2 -129.48708,-0.5 -42.0298,-0.4 -75.3768,-0.5 -100.041,-0.5 -34.7312,-0.7 -62.1638,1.6 -82.1721,7.1 -20.134,5.4 -30.201,18 -30.201,37.6 0,14.5 -0.6292,31.8 -2.0134,51.7 -1.3842,19.9 -2.0134,37.2 -2.0134,51.7 -0.8809,25.4 -10.0671,41.5 -27.4327,48.4 -17.3656,6.9 -39.2614,1.6 -65.8131,-15.8 -27.4327,-17.4 -59.39551,-38.1 -95.88841,-62.1 -36.493,-23.9 -74.4961,-48.4 -113.7575,-73.5 -39.26139,-25 -77.64189,-49.7 -115.01569,-74 -37.3738,-24.3 -70.7208,-45.5 -100.041,-63.7 -26.426,-17.4 -40.0165,-33.90001 -40.394,-49.50001 -0.5033,-15.6 12.0805,-31.8 37.6255,-48.4 26.426,-17.4 57.7596,-37.4 93.875,-59.9 36.1154,-22.5 73.4893,-45.7 112.37309,-69.7 38.7581,-24 76.887,-47.7 114.3867,-71.3 37.4997,-23.6 70.7208,-44.5 100.04101,-62.6 31.9628,-20.3 58.2629,-27.9 78.7745,-22.9 20.5115,5.1 30.3269,20.7 29.446,46.8 v 26.1 31.6 c 0,10.9 0.2517,21.6 0.6292,32.1 0.5034,10.5 0.6292,20.1 0.6292,28.8 0,18.1 6.7952,29.6 20.5116,34.3 13.7163,4.7 32.4661,7.1 56.1236,7.1 26.4259,0 61.1572,0.2 104.0678,0.5 42.9107,0.4 87.70898,0.5 134.26898,0.5 46.56,0 509.5172,0.2 553.4345,0.5 43.7916,0.4 79.4037,0.5 106.8363,0.5 11.8288,0 24.1609,0.9 36.9963,2.7 12.8355,1.8 24.4126,5.3 34.9829,10.3 10.4446,5.1 19.0015,12.5 25.2934,22.3 6.2919,9.8 9.5637,23 9.5637,39.7 0,19.6 0.2517,38.5 0.6292,56.6 0.755,18.4 0.5033,38.70001 -0.3775,61.20001 z"
   style="fill:#01dc00;fill-opacity:1;stroke-width:1.12177444"
   sodipodi:nodetypes="csscscccsscscccscccscsccccscssscscsscsscc" />
</svg>