<?xml version="1.0" encoding="UTF-8" standalone="no"?>
<!-- Svg Vector Icons : http://www.onlinewebfonts.com/icon -->

<svg
   xmlns:dc="http://purl.org/dc/elements/1.1/"
   xmlns:cc="http://creativecommons.org/ns#"
   xmlns:rdf="http://www.w3.org/1999/02/22-rdf-syntax-ns#"
   xmlns:svg="http://www.w3.org/2000/svg"
   xmlns="http://www.w3.org/2000/svg"
   xmlns:sodipodi="http://sodipodi.sourceforge.net/DTD/sodipodi-0.dtd"
   xmlns:inkscape="http://www.inkscape.org/namespaces/inkscape"
   version="1.1"
   x="0px"
   y="0px"
   viewBox="0 0 977.81644 1950.95"
   enable-background="new 0 0 1000 1000"
   xml:space="preserve"
   id="svg8"
   sodipodi:docname="flecha_abajo_off.svg"
   width="977.81647"
   height="1950.95"
   inkscape:version="0.92.5 (2060ec1f9f, 2020-04-08)"><defs
   id="defs12" /><sodipodi:namedview
   pagecolor="#ffffff"
   bordercolor="#666666"
   borderopacity="1"
   objecttolerance="10"
   gridtolerance="10"
   guidetolerance="10"
   inkscape:pageopacity="0"
   inkscape:pageshadow="2"
   inkscape:window-width="1920"
   inkscape:window-height="1057"
   id="namedview10"
   showgrid="false"
   fit-margin-top="150"
   fit-margin-left="150"
   fit-margin-right="150"
   fit-margin-bottom="150"
   inkscape:zoom="0.236"
   inkscape:cx="-296.39114"
   inkscape:cy="975.35415"
   inkscape:window-x="-8"
   inkscape:window-y="-8"
   inkscape:window-maximized="1"
   inkscape:current-layer="svg8" />
<metadata
   id="metadata2"> Svg Vector Icons : http://www.onlinewebfonts.com/icon <rdf:RDF><cc:Work
     rdf:about=""><dc:format>image/svg+xml</dc:format><dc:type
       rdf:resource="http://purl.org/dc/dcmitype/StillImage" /><dc:title></dc:title></cc:Work></rdf:RDF></metadata>
<path
   inkscape:connector-curvature="0"
   id="path4"
   d="m 553.08736,150.82458 c 30.5,0 51,9.31199 61.5,28.06182 10.5,18.74983 15.8,48.19587 15.8,88.33812 0,18.24648 -0.2,47.06333 -0.5,86.32472 -0.4,39.26139 -0.5,498.82094 -0.5,543.11584 0,44.2949 -0.2,87.45725 -0.5,129.48712 -0.4,42.0298 -0.5,75.3768 -0.5,100.041 -0.7,34.7312 1.6,62.1638 7.1,82.1721 5.4,20.134 18,30.201 37.6,30.201 14.5,0 31.8,0.6292 51.7,2.0134 19.9,1.3842 37.2,2.0134 51.7,2.0134 25.4,0.8809 41.5,10.0671 48.4,27.4327 6.9,17.3656 1.6,39.2614 -15.8,65.8131 -17.4,27.4327 -38.1,59.3955 -62.1,95.8884 -23.9,36.493 -48.4,74.4961 -73.5,113.7575 -25,39.2614 -49.7,77.6419 -74,115.0157 -24.3,37.3738 -45.5,70.7208 -63.7,100.041 -17.4,26.426 -33.90004,40.0165 -49.50004,40.394 -15.6,0.5033 -31.8,-12.0805 -48.4,-37.6255 -17.4,-26.426 -37.4,-57.7596 -59.9,-93.875 -22.5,-36.1154 -45.7,-73.4893 -69.7,-112.3731 -24,-38.7581 -47.7,-76.887 -71.3,-114.3867 -23.6,-37.4997 -44.5,-70.7208 -62.6,-100.041 -20.3,-31.9628 -27.9,-58.2629 -22.9,-78.7745 5.1,-20.5115 20.7,-30.3269 46.8,-29.446 h 26.1 31.6 c 10.9,0 21.6,-0.2517 32.1,-0.6292 10.5,-0.5034 20.1,-0.6292 28.8,-0.6292 18.1,0 29.6,-6.7952 34.3,-20.5116 4.7,-13.7163 7.1,-32.4661 7.1,-56.1236 0,-26.4259 0.2,-61.1572 0.5,-104.0678 0.4,-42.9107 0.5,-87.70898 0.5,-134.26896 0,-46.55998 0.2,-509.51715 0.5,-553.43454 0.4,-43.79155 0.5,-79.40364 0.5,-106.83627 0,-11.82876 0.9,-24.16086 2.7,-36.99631 1.8,-12.83545 5.3,-24.41253 10.3,-34.9829 5.1,-10.44454 12.5,-19.00151 22.3,-25.2934 9.8,-6.29188 23,-9.56367 39.7,-9.56367 19.6,0 38.5,-0.25167 56.6,-0.62919 18.4,-0.75502 38.70004,-0.50335 61.20004,0.37752 z"
   style="fill:#014898;fill-opacity:1;stroke-width:1.12177444"
   sodipodi:nodetypes="csscscccsscscccscccscsccccscssscscsscsscc" />
</svg>