<?xml version="1.0" encoding="UTF-8" standalone="no"?>
<!-- Svg Vector Icons : http://www.onlinewebfonts.com/icon -->

<svg
   xmlns:dc="http://purl.org/dc/elements/1.1/"
   xmlns:cc="http://creativecommons.org/ns#"
   xmlns:rdf="http://www.w3.org/1999/02/22-rdf-syntax-ns#"
   xmlns:svg="http://www.w3.org/2000/svg"
   xmlns="http://www.w3.org/2000/svg"
   xmlns:sodipodi="http://sodipodi.sourceforge.net/DTD/sodipodi-0.dtd"
   xmlns:inkscape="http://www.inkscape.org/namespaces/inkscape"
   version="1.1"
   x="0px"
   y="0px"
   viewBox="0 0 977.81638 1950.9501"
   enable-background="new 0 0 1000 1000"
   xml:space="preserve"
   id="svg8"
   sodipodi:docname="flecha_arriba_on.svg"
   width="977.81641"
   height="1950.9501"
   inkscape:version="0.92.5 (2060ec1f9f, 2020-04-08)"><defs
   id="defs12" /><sodipodi:namedview
   pagecolor="#ffffff"
   bordercolor="#666666"
   borderopacity="1"
   objecttolerance="10"
   gridtolerance="10"
   guidetolerance="10"
   inkscape:pageopacity="0"
   inkscape:pageshadow="2"
   inkscape:window-width="1920"
   inkscape:window-height="1057"
   id="namedview10"
   showgrid="false"
   fit-margin-top="150"
   fit-margin-left="150"
   fit-margin-right="150"
   fit-margin-bottom="150"
   inkscape:zoom="0.236"
   inkscape:cx="-296.39117"
   inkscape:cy="975.35428"
   inkscape:window-x="-8"
   inkscape:window-y="-8"
   inkscape:window-maximized="1"
   inkscape:current-layer="svg8" />
<metadata
   id="metadata2"> Svg Vector Icons : http://www.onlinewebfonts.com/icon <rdf:RDF><cc:Work
     rdf:about=""><dc:format>image/svg+xml</dc:format><dc:type
       rdf:resource="http://purl.org/dc/dcmitype/StillImage" /><dc:title></dc:title></cc:Work></rdf:RDF></metadata>
<path
   inkscape:connector-curvature="0"
   id="path4"
   d="m 424.72911,1800.1255 c -30.5,0 -51,-9.312 -61.5,-28.0619 -10.5,-18.7498 -15.8,-48.1958 -15.8,-88.3381 0,-18.2465 0.2,-47.0633 0.5,-86.3247 0.4,-39.2614 0.5,-498.821 0.5,-543.1159 0,-44.2949 0.2,-87.45721 0.5,-129.48708 0.4,-42.0298 0.5,-75.3768 0.5,-100.041 0.7,-34.7312 -1.6,-62.1638 -7.1,-82.1721 -5.4,-20.134 -18,-30.201 -37.6,-30.201 -14.5,0 -31.8,-0.6292 -51.7,-2.0134 -19.9,-1.3842 -37.2,-2.0134 -51.7,-2.0134 -25.4,-0.8809 -41.5,-10.0671 -48.4,-27.4327 -6.9,-17.3656 -1.6,-39.2614 15.8,-65.8131 17.4,-27.4327 38.1,-59.39551 62.1,-95.88841 23.9,-36.493 48.4,-74.4961 73.5,-113.7575 25,-39.26139 49.7,-77.64189 74,-115.01569 24.3,-37.3738 45.5,-70.7208 63.7,-100.041 17.4,-26.426 33.90001,-40.0165 49.50001,-40.394 15.6,-0.5033 31.79998,12.0805 48.39998,37.6255 17.4,26.426 37.4,57.7596 59.9,93.875 22.5,36.1154 45.7,73.4893 69.7,112.37309 24,38.7581 47.7,76.887 71.3,114.3867 23.6,37.4997 44.5,70.7208 62.6,100.04101 20.3,31.9628 27.9,58.2629 22.9,78.7745 -5.1,20.5115 -20.7,30.3269 -46.8,29.446 h -26.1 -31.6 c -10.9,0 -21.6,0.2517 -32.1,0.6292 -10.5,0.5034 -20.1,0.6292 -28.8,0.6292 -18.1,0 -29.6,6.7952 -34.3,20.5116 -4.7,13.7163 -7.1,32.4661 -7.1,56.1236 0,26.4259 -0.2,61.1572 -0.5,104.0678 -0.4,42.9107 -0.5,87.70898 -0.5,134.26898 0,46.56 -0.2,509.5172 -0.5,553.4345 -0.4,43.7916 -0.5,79.4037 -0.5,106.8363 0,11.8288 -0.9,24.1609 -2.7,36.9963 -1.8,12.8355 -5.3,24.4126 -10.3,34.9829 -5.1,10.4446 -12.5,19.0015 -22.3,25.2934 -9.8,6.2919 -23,9.5637 -39.7,9.5637 -19.6,0 -38.49998,0.2517 -56.59998,0.6292 -18.4,0.755 -38.70001,0.5033 -61.20001,-0.3775 z"
   style="fill:#01dc00;fill-opacity:1;stroke-width:1.12177444"
   sodipodi:nodetypes="csscscccsscscccscccscsccccscssscscsscsscc" />
</svg>