<?xml version="1.0" encoding="UTF-8" standalone="no"?>
<!-- Svg Vector Icons : http://www.onlinewebfonts.com/icon -->

<svg
   xmlns:dc="http://purl.org/dc/elements/1.1/"
   xmlns:cc="http://creativecommons.org/ns#"
   xmlns:rdf="http://www.w3.org/1999/02/22-rdf-syntax-ns#"
   xmlns:svg="http://www.w3.org/2000/svg"
   xmlns="http://www.w3.org/2000/svg"
   xmlns:sodipodi="http://sodipodi.sourceforge.net/DTD/sodipodi-0.dtd"
   xmlns:inkscape="http://www.inkscape.org/namespaces/inkscape"
   version="1.1"
   x="0px"
   y="0px"
   viewBox="0 0 1650.9498 677.81641"
   enable-background="new 0 0 1000 1000"
   xml:space="preserve"
   id="svg8"
   sodipodi:docname="flecha_on.svg"
   width="1650.9498"
   height="677.81641"
   inkscape:version="0.92.5 (2060ec1f9f, 2020-04-08)"><defs
   id="defs12" /><sodipodi:namedview
   pagecolor="#ffffff"
   bordercolor="#666666"
   borderopacity="1"
   objecttolerance="10"
   gridtolerance="10"
   guidetolerance="10"
   inkscape:pageopacity="0"
   inkscape:pageshadow="2"
   inkscape:window-width="1920"
   inkscape:window-height="1057"
   id="namedview10"
   showgrid="false"
   fit-margin-top="0"
   fit-margin-left="0"
   fit-margin-right="0"
   fit-margin-bottom="0"
   inkscape:zoom="0.236"
   inkscape:cx="821.95527"
   inkscape:cy="338.78732"
   inkscape:window-x="-8"
   inkscape:window-y="-8"
   inkscape:window-maximized="1"
   inkscape:current-layer="svg8" />
<metadata
   id="metadata2"> Svg Vector Icons : http://www.onlinewebfonts.com/icon <rdf:RDF><cc:Work
     rdf:about=""><dc:format>image/svg+xml</dc:format><dc:type
       rdf:resource="http://purl.org/dc/dcmitype/StillImage" /><dc:title></dc:title></cc:Work></rdf:RDF></metadata>
<path
   inkscape:connector-curvature="0"
   id="path4"
   d="m 0.82458105,274.72911 c 0,-30.5 9.31198995,-51 28.06181995,-61.5 18.74983,-10.5 48.19587,-15.8 88.338119,-15.8 18.24648,0 47.06333,0.2 86.32472,0.5 39.26138,0.4 498.82094,0.5 543.11584,0.5 44.2949,0 87.45725,0.2 129.48707,0.5 42.02982,0.4 75.37683,0.5 100.04103,0.5 34.73122,0.7 62.16382,-1.6 82.17212,-7.1 20.134,-5.4 30.201,-18 30.201,-37.6 0,-14.5 0.6292,-31.8 2.0134,-51.7 1.3842,-19.9 2.0134,-37.2 2.0134,-51.7 0.8809,-25.4 10.0671,-41.5000004 27.4327,-48.4000004 17.3656,-6.9 39.2614,-1.6 65.8131,15.8000004 27.4327,17.4 59.3955,38.1 95.8884,62.1 36.493,23.9 74.496,48.4 113.7574,73.5 39.2614,25 77.6419,49.7 115.0157,74 37.3738,24.3 70.7208,45.5 100.041,63.7 26.426,17.4 40.0165,33.9 40.394,49.5 0.5033,15.6 -12.0805,31.8 -37.6255,48.4 -26.426,17.4 -57.7596,37.4 -93.875,59.9 -36.1154,22.5 -73.4893,45.7 -112.3731,69.7 -38.7581,24 -76.8869,47.7 -114.3866,71.3 -37.4997,23.6 -70.7208,44.5 -100.041,62.6 -31.9628,20.3 -58.2629,27.9 -78.7745,22.9 -20.5115,-5.1 -30.3269,-20.7 -29.446,-46.8 v -26.1 -31.6 c 0,-10.9 -0.2517,-21.6 -0.6292,-32.1 -0.5034,-10.5 -0.6292,-20.1 -0.6292,-28.8 0,-18.1 -6.7952,-29.6 -20.5116,-34.3 -13.7163,-4.7 -32.4661,-7.1 -56.1236,-7.1 -26.42595,0 -61.15717,-0.2 -104.06785,-0.5 -42.91069,-0.4 -87.70893,-0.5 -134.26891,-0.5 -46.55998,0 -509.51716,-0.2 -553.43454,-0.5 -43.79155,-0.4 -79.40364,-0.5 -106.83627,-0.5 -11.828759,0 -24.160859,-0.9 -36.996309,-2.7 -12.83545,-1.8 -24.41253,-5.3 -34.9829,-10.3 -10.44454,-5.1 -19.00151,-12.5 -25.2934,-22.3 -6.2918799,-9.8 -9.5636699,-23 -9.5636699,-39.7 0,-19.6 -0.25167005,-38.5 -0.62919005,-56.6 -0.75502,-18.4 -0.50335,-38.7 0.37752,-61.2 z"
   style="fill:#01dc00;fill-opacity:1;stroke-width:1.12177444"
   sodipodi:nodetypes="csscscccsscscccscccscsccccscssscscsscsscc" />
</svg>