<svg width="550" height="550" xmlns="http://www.w3.org/2000/svg">

 <g>
  <title>background</title>
  <rect fill="none" id="canvas_background" height="552" width="552" y="-1" x="-1"/>
 </g>
 <g>
  <title>Layer 1</title>
  <g id="svg_1">
   <g id="svg_2">
    <path id="svg_3" fill="#ffffff" d="m64.628906,393.999908l0,78.899994c0,4.800018 3.900002,8.800018 8.800003,8.800018l61,0c4.800003,0 8.800003,-3.900024 8.800003,-8.800018l0,-138.799988l-44.300003,44.299988c-9.400002,9.300018 -21.400002,14.700012 -34.300003,15.600006z"/>
    <path id="svg_4" fill="#ffffff" d="m173.628906,333.099915l0,139.799988c0,4.800018 3.899994,8.800018 8.800003,8.800018l61,0c4.800003,0 8.800003,-3.899994 8.800003,-8.800018l0,-82.299988c-13.900009,-0.299988 -26.900009,-5.799988 -36.700012,-15.600006l-41.899994,-41.899994z"/>
    <path id="svg_5" fill="#ffffff" d="m282.628906,381.899902l0,91c0,4.800018 3.899994,8.800018 8.799988,8.800018l61,0c4.800018,0 8.800018,-3.900024 8.800018,-8.800018l0,-167.899994l-69.899994,69.899994c-2.700012,2.700012 -5.600006,5 -8.700012,7z"/>
    <path id="svg_6" fill="#ffffff" d="m464.328918,201.799911l-72.699982,72.699997l0,198.399994c0,4.800018 3.899994,8.800018 8.799988,8.800018l61,0c4.799988,0 8.799988,-3.900024 8.799988,-8.800018l0,-265.600006c-2,-1.699997 -3.5,-3.199997 -4.599976,-4.199997l-1.300018,-1.299988z"/>
    <path id="svg_7" fill="#ffffff" d="m514.228882,72.999908c-2.899963,-3.100006 -7.299957,-4.699997 -12.899963,-4.699997c-0.5,0 -1.100006,0 -1.600006,0c-28.399994,1.299995 -56.699982,2.699997 -85.100006,4c-3.799988,0.199997 -9,0.399994 -13.099976,4.5c-1.300018,1.299995 -2.300018,2.799995 -3.100006,4.599991c-4.200012,9.100006 1.699982,15.000008 4.5,17.800003l7.100006,7.200005c4.899994,5 9.899994,10 14.899994,14.899994l-171.600021,171.700005l-77.099991,-77.100006c-4.600006,-4.599991 -10.800003,-7.199997 -17.400009,-7.199997c-6.599991,0 -12.699997,2.600006 -17.300003,7.199997l-102.699993,102.600006c-9.6,9.600006 -9.6,25.100006 0,34.700012l4.599998,4.599976c4.600002,4.600006 10.799999,7.200012 17.400002,7.200012s12.700001,-2.600006 17.299999,-7.200012l80.699997,-80.699982l77.099991,77.100006c4.600006,4.599976 10.800003,7.199982 17.400009,7.199982c6.599991,0 12.699997,-2.600006 17.399979,-7.199982l193.600037,-193.600021l21.899994,21.800003c2.600006,2.600006 6.199982,6.199997 11.699982,6.199997c2.300018,0 4.600006,-0.599991 7,-1.899994c1.600006,-0.899994 3,-1.899994 4.200012,-3.100006c4.299988,-4.299988 5.099976,-9.799988 5.299988,-14.099991c0.799988,-18.399994 1.700012,-36.800003 2.600037,-55.300003l1.299988,-27.699997c0.299988,-5.800003 -1,-10.300003 -4.100037,-13.5z"/>
   </g>
  </g>
 </g>
</svg>