<svg width="500" height="500" xmlns="http://www.w3.org/2000/svg">
 <metadata>Svg Vector Icons : http://www.onlinewebfonts.com/icon</metadata>

 <g>
  <title>Layer 1</title>
  <g stroke="null" id="svg_1">
   <path stroke="#ffffff" d="m165.11374,373.38148l169.53056,0l0,-49.42249l-169.53056,0l0,49.42249zm0,-123.38148l169.53056,0l0,-73.95898l-30.18377,0c-4.98241,0 -9.25764,-1.85247 -12.88998,-5.52246c-3.63234,-3.70494 -5.43244,-8.07397 -5.43244,-13.14205l0,-30.75799l-121.02438,0l0,123.38148zm218.0046,12.44301c0,-3.46028 -1.12506,-6.32636 -3.37518,-8.63321c-2.25013,-2.30685 -5.20742,-3.56513 -8.80762,-3.8098s-6.42891,1.04857 -8.48617,3.8098s-3.15017,5.66227 -3.37518,8.63321c-0.22501,3.0059 0.90005,5.87197 3.37518,8.63321c2.47514,2.76123 5.30386,3.91465 8.48617,3.46027c3.15017,-0.45438 6.10748,-1.6078 8.80762,-3.46027c2.668,-1.85247 3.8252,-4.71856 3.37518,-8.63321zm24.39775,0l0,80.18048c0,1.6078 -0.67504,3.0059 -2.02511,4.15932s-2.70014,1.85247 -4.08236,2.06219l-42.36657,0l0,30.75799c0,5.06807 -1.8001,9.43711 -5.43244,13.14205c-3.63234,3.66999 -7.90757,5.52245 -12.88998,5.52245l-181.71336,0c-4.98242,0 -9.16121,-1.85246 -12.53639,-5.52245c-3.37518,-3.66999 -5.20743,-8.07398 -5.43244,-13.14205l0,-30.75799l-42.39872,0c-1.57508,0 -3.05373,-0.69905 -4.4038,-2.06219c-1.35007,-1.39809 -1.92868,-2.76123 -1.70367,-4.15932l0,-80.18048c0,-10.13615 3.63234,-18.90917 10.86487,-26.2841c7.23253,-7.37493 15.7187,-10.94006 25.42637,-10.73034l12.21494,0l0,-105.03154c0,-5.06808 1.80009,-9.43711 5.43244,-13.14206s7.81113,-5.52245 12.53639,-5.52245l127.13185,0c5.20742,0 10.86487,1.39809 16.9402,4.15932c6.10747,2.76123 10.86487,5.76712 14.24005,8.98273l28.8337,29.3599c3.37518,3.66999 6.42892,8.63321 9.16121,14.85471s3.95378,11.84882 3.72877,16.95185l0,49.42249l11.86135,0c10.15769,0 18.77245,3.56513 25.77997,10.73034c6.97537,7.13026 10.60771,15.86833 10.83272,26.24915z" id="svg_2" fill="#ffffff"/>
  </g>
 </g>
</svg>