<?xml version="1.0" encoding="UTF-8" standalone="no"?>
<!DOCTYPE svg PUBLIC "-//W3C//DTD SVG 1.1//EN" "http://www.w3.org/Graphics/SVG/1.1/DTD/svg11.dtd">
<svg version="1.1" xmlns="http://www.w3.org/2000/svg" xmlns:xlink="http://www.w3.org/1999/xlink" preserveAspectRatio="xMidYMid meet" viewBox="0 0 640 640" width="640" height="640"><defs><path d="M177.39 182.5C171.54 182.5 124.73 182.5 118.88 182.5C89.18 182.5 64.05 206.42 60.45 238.16C58.93 251.47 46.77 357.95 45.26 371.26C44 382.4 47.43 393.45 54.67 401.58C60.91 408.6 69.23 412.65 78.21 413.16C79.47 430.28 89.59 567.27 90.86 584.39C91.34 590.37 96.31 595 102.32 595C111.48 595 184.81 595 193.98 595C199.98 595 204.95 590.37 205.41 584.39C206.68 567.27 216.8 430.28 218.06 413.16C227.07 412.65 235.36 408.57 241.59 401.58C248.84 393.47 252.27 382.4 251.01 371.26C250 362.39 244.94 318.02 235.82 238.16C216.66 201.05 197.19 182.5 177.39 182.5Z" id="akrRlNqbf"></path><path d="M205.44 102.29C205.44 70.64 179.77 45 148.15 45C116.5 45 90.86 70.64 90.86 102.29C90.86 133.94 116.5 159.58 148.15 159.58C179.79 159.58 205.44 133.94 205.44 102.29Z" id="b1lv4AKNzv"></path><path d="M432.58 54.14C431.48 48.83 426.78 45 421.35 45C410.07 45 319.83 45 308.56 45C289.6 45 274.18 60.42 274.18 79.37C274.18 120.62 274.18 450.62 274.18 491.87C274.18 510.83 289.6 526.25 308.56 526.25C310.85 526.25 329.18 526.25 331.47 526.25C337.8 526.25 342.93 521.12 342.93 514.79C342.93 478.34 342.93 186.73 342.93 150.28C342.93 121.29 360.16 95.16 386.81 83.73C389.41 82.61 402.43 77.03 425.86 66.98C431.05 61.97 433.29 57.69 432.58 54.14Z" id="bK2QbHaqJ"></path><path d="M549.58 45.16L551.57 45.37L553.54 45.65L555.48 46.01L557.4 46.44L559.28 46.95L561.14 47.53L562.97 48.18L564.76 48.9L566.52 49.68L568.24 50.53L569.92 51.45L571.56 52.43L573.16 53.46L574.72 54.56L576.23 55.72L577.7 56.93L579.12 58.19L580.49 59.51L581.81 60.88L583.07 62.3L584.28 63.77L585.44 65.28L586.54 66.84L587.57 68.44L588.55 70.08L589.47 71.76L590.32 73.48L591.1 75.24L591.82 77.03L592.47 78.86L593.05 80.72L593.56 82.61L593.99 84.52L594.35 86.47L594.63 88.43L594.84 90.43L594.96 92.44L595 94.48L595 489.72L594.98 491.2L594.91 492.68L594.8 494.14L594.65 495.6L594.46 497.05L594.22 498.48L593.95 499.9L593.63 501.31L593.27 502.71L592.88 504.09L592.44 505.46L591.96 506.81L591.45 508.15L590.9 509.46L590.31 510.76L589.69 512.04L589.03 513.31L588.33 514.55L587.6 515.77L586.84 516.97L586.04 518.14L585.2 519.29L584.34 520.42L583.44 521.53L582.51 522.6L581.54 523.66L580.55 524.68L579.52 525.68L578.47 526.65L577.39 527.58L576.27 528.49L575.13 529.37L573.96 530.22L572.76 531.03L571.54 531.81L570.29 532.56L569.01 533.27L567.71 533.94L566.38 534.58L565.03 535.19L434.84 590.99L434.38 591.19L433.91 591.38L433.44 591.57L432.97 591.75L432.5 591.93L432.03 592.1L431.55 592.27L431.08 592.43L430.6 592.59L430.12 592.74L429.64 592.89L429.16 593.03L428.68 593.17L428.2 593.3L427.72 593.43L427.23 593.55L426.75 593.67L426.26 593.78L425.78 593.89L425.29 593.99L424.8 594.09L424.31 594.18L423.82 594.27L423.32 594.35L422.83 594.43L422.34 594.51L421.84 594.57L421.34 594.64L420.85 594.69L420.35 594.75L419.85 594.8L419.35 594.84L418.85 594.88L418.35 594.91L417.84 594.94L417.34 594.96L416.84 594.98L416.33 594.99L415.83 595L415.32 595L413.28 594.96L411.27 594.84L409.28 594.63L407.31 594.35L405.36 593.99L403.45 593.56L401.56 593.05L399.7 592.47L397.88 591.82L396.08 591.1L394.33 590.32L392.61 589.47L390.92 588.55L389.28 587.57L387.68 586.54L386.12 585.44L384.61 584.28L383.14 583.07L381.72 581.81L380.36 580.49L379.04 579.12L377.77 577.7L376.56 576.23L375.41 574.72L374.31 573.16L373.27 571.56L372.29 569.92L371.38 568.24L370.53 566.52L369.74 564.76L369.02 562.97L368.37 561.14L367.79 559.28L367.28 557.39L366.85 555.48L366.49 553.53L366.21 551.57L366.01 549.57L365.89 547.56L365.84 545.52L365.84 150.28L365.87 148.8L365.93 147.32L366.04 145.86L366.19 144.4L366.39 142.95L366.62 141.52L366.9 140.1L367.21 138.69L367.57 137.29L367.97 135.91L368.4 134.54L368.88 133.19L369.39 131.85L369.94 130.54L370.53 129.24L371.15 127.96L371.81 126.69L372.51 125.45L373.24 124.23L374.01 123.03L374.81 121.86L375.64 120.71L376.51 119.58L377.41 118.47L378.34 117.4L379.3 116.34L380.29 115.32L381.32 114.32L382.37 113.35L383.46 112.42L384.57 111.51L385.71 110.63L386.88 109.78L388.08 108.97L389.31 108.19L390.56 107.44L391.83 106.73L393.14 106.06L394.46 105.42L395.82 104.81L526 49.01L526.47 48.81L526.93 48.62L527.4 48.43L527.87 48.25L528.35 48.07L528.82 47.9L529.29 47.73L529.77 47.57L530.24 47.41L530.72 47.26L531.2 47.11L531.68 46.97L532.16 46.83L532.64 46.7L533.12 46.57L533.61 46.45L534.09 46.33L534.58 46.22L535.07 46.11L535.56 46.01L536.05 45.91L536.54 45.82L537.03 45.73L537.52 45.65L538.01 45.57L538.51 45.49L539 45.43L539.5 45.36L540 45.31L540.5 45.25L540.99 45.2L541.49 45.16L542 45.12L542.5 45.09L543 45.06L543.5 45.04L544.01 45.02L544.51 45.01L545.02 45L545.52 45L547.56 45.04L549.58 45.16ZM421.96 297.14L421.39 297.21L420.82 297.32L420.27 297.44L419.73 297.6L419.19 297.78L418.67 297.98L418.17 298.21L417.67 298.47L417.19 298.74L416.73 299.04L416.28 299.36L415.85 299.7L415.43 300.06L415.03 300.44L414.65 300.84L414.29 301.25L413.95 301.69L413.63 302.14L413.33 302.6L413.06 303.08L412.8 303.57L412.58 304.08L412.37 304.6L412.19 305.14L412.04 305.68L411.91 306.23L411.81 306.8L411.73 307.37L411.69 307.95L411.67 308.54L411.67 354.38L411.69 354.96L411.73 355.55L411.81 356.12L411.91 356.68L412.04 357.24L412.19 357.78L412.37 358.31L412.58 358.83L412.8 359.34L413.06 359.84L413.33 360.32L413.63 360.78L413.95 361.23L414.29 361.66L414.65 362.08L415.03 362.48L415.43 362.86L415.85 363.22L416.28 363.56L416.73 363.88L417.19 364.17L417.67 364.45L418.17 364.7L418.67 364.93L419.19 365.14L419.73 365.32L420.27 365.47L420.82 365.6L421.39 365.7L421.96 365.77L422.54 365.82L423.13 365.83L423.53 365.82L423.92 365.79L424.31 365.73L424.69 365.65L425.08 365.55L425.46 365.43L425.84 365.29L426.22 365.12L426.6 364.93L426.97 364.71L427.34 364.48L427.71 364.22L428.07 363.94L428.44 363.64L428.8 363.32L429.16 362.97L429.52 362.6L429.87 362.21L430.22 361.79L430.57 361.36L430.92 360.9L431.27 360.42L431.61 359.91L431.95 359.39L432.29 358.84L432.62 358.27L432.96 357.68L433.29 357.06L433.62 356.42L433.94 355.76L434.27 355.08L434.59 354.38L434.59 308.54L434.58 307.95L434.53 307.37L434.46 306.8L434.36 306.23L434.23 305.68L434.08 305.14L433.89 304.6L433.69 304.08L433.46 303.57L433.21 303.08L432.93 302.6L432.63 302.14L432.31 301.69L431.97 301.25L431.61 300.84L431.23 300.44L430.84 300.06L430.42 299.7L429.99 299.36L429.54 299.04L429.07 298.74L428.59 298.47L428.1 298.21L427.59 297.98L427.07 297.78L426.54 297.6L425.99 297.44L425.44 297.32L424.88 297.21L424.3 297.14L423.72 297.1L423.13 297.08L422.54 297.1L421.96 297.14Z" id="emio5DMuB"></path></defs><g><g><g><use xlink:href="#akrRlNqbf" opacity="1" fill="#ffffff" fill-opacity="1"></use><g><use xlink:href="#akrRlNqbf" opacity="1" fill-opacity="0" stroke="#000000" stroke-width="0" stroke-opacity="0"></use></g></g><g><use xlink:href="#b1lv4AKNzv" opacity="1" fill="#ffffff" fill-opacity="1"></use><g><use xlink:href="#b1lv4AKNzv" opacity="1" fill-opacity="0" stroke="#000000" stroke-width="0" stroke-opacity="0"></use></g></g><g><use xlink:href="#bK2QbHaqJ" opacity="1" fill="#ffffff" fill-opacity="1"></use><g><use xlink:href="#bK2QbHaqJ" opacity="1" fill-opacity="0" stroke="#000000" stroke-width="0" stroke-opacity="0"></use></g></g><g><use xlink:href="#emio5DMuB" opacity="1" fill="#ffffff" fill-opacity="1"></use><g><use xlink:href="#emio5DMuB" opacity="1" fill-opacity="0" stroke="#000000" stroke-width="0" stroke-opacity="0"></use></g></g></g></g></svg>