<svg width="1100" height="1150" xmlns="http://www.w3.org/2000/svg">
  <g id="svg_1" transform="translate(0, 511) scale(0.1, -0.1)" fill="#ffffff">
   <path id="svg_2" d="m7434.899414,4268.000488c-74.899414,-110 -84.199219,-117 -184.798828,-117c-58.5,0 -128.700684,-7 -156.700684,-14c-51.5,-14 -49.100098,-16.399902 37.399902,-135.700195l88.900391,-119.299805l-32.800781,-117c-39.798828,-156.700195 -39.798828,-182.5 11.701172,-168.400391c266.699219,77.200195 245.599609,77.200195 362.599609,-2.299805c58.5,-42.099609 116.999512,-74.900391 130.999512,-74.900391c16.299805,0 25.699219,58.5 25.699219,152.100586c0,149.700195 0,149.700195 105.300781,238.599609c58.5,46.799805 105.299805,93.600586 105.299805,102.900391c0,7 -63.200195,32.700195 -138,56.100098c-138,42.100098 -140.399414,42.100098 -191.799316,177.799805c-28.099609,77.200195 -58.5,138 -67.900391,138c-9.299805,0.100098 -51.5,-51.399902 -95.900391,-116.899902z"/>
   <path id="svg_3" d="m5554.100098,3877.399902c-9.299805,-126.299805 -25.700195,-245.599609 -37.399902,-266.700195c-9.399902,-21 -102.899902,-93.599609 -208.200195,-161.399414c-102.899902,-67.799805 -187.100098,-128.700195 -187.100098,-138c0,-7 102.900391,-56.100098 226.900391,-110l226.899902,-93.600098l63.199707,-226.900146c32.700195,-126.299805 67.800293,-233.899902 74.800293,-240.899902c4.699707,-7 86.600098,72.5 177.799805,173.100098l168.399902,187.099854l243.300293,-14c138,-7 245.600098,-2.300049 245.600098,9.400146c0,11.699951 -53.800293,109.899902 -119.300293,219.899658l-121.600098,198.800293l84.200195,240.899902c53.799805,154.400391 74.899902,238.599609 56.200195,238.599609c-16.400391,0 -117,-21.099609 -226.900391,-46.799805c-109.899902,-25.700195 -210.5,-46.799805 -224.599609,-46.799805c-14.100098,0 -112.300293,67.799805 -219.900391,152.099609c-107.599609,84.200684 -196.5,152.000488 -201.199707,152.000488c-2.300293,0.100098 -11.700195,-102.799805 -21.100098,-226.800293z"/>
   <path id="svg_4" d="m8265.298828,2878.500244c-60.799805,-98.300049 -117,-177.800049 -123.999512,-177.800049s-91.200195,42.100098 -187.099609,93.600098c-95.900391,51.5 -180.100586,88.899902 -184.800781,81.899902c-4.699219,-4.699951 18.700195,-95.899902 53.800781,-201.199951c72.5,-217.5 84.199219,-196.5 -156.700195,-294.699951c-88.899902,-37.400146 -159.100098,-70.199951 -159.100098,-79.5c0,-7 56.100586,-30.400146 124,-56.100098c65.499512,-23.399902 154.399902,-56.099854 196.499512,-74.899902l74.900391,-30.400146l-56.200195,-203.499878c-30.399414,-112.299805 -53.799805,-205.899902 -51.5,-208.199951c2.400391,-4.699951 81.900391,39.800049 175.400391,98.300049c93.599609,56.100098 180.099121,102.899902 189.499512,102.899902c11.700195,0 77.200195,-77.199951 145,-168.399902l124,-170.800049l16.299805,105.300049c9.400391,58.5 23.400391,154.399902 32.799805,217.5l14,110l212.900391,0l213,0l-145,152.099976l-147.399414,152.099854l74.899414,93.600098c39.799805,51.5 81.900391,98.300049 93.599609,105.300049c11.700195,7 44.5,44.399902 72.5,84.199951c46.800781,67.800049 49.100586,72.5 7,60.800049c-23.399414,-7 -124,-18.700195 -222.199219,-28.100098l-180.100586,-14l-37.400391,203.5c-21.099609,112.300049 -42.099609,208.199951 -46.798828,212.899902c-4.800781,4.400146 -58.600586,-70.5 -121.800781,-166.399902z"/>
   <path id="svg_5" d="m3930.699951,2799.000244l-98.300293,-121.699951l-142.699707,72.5l-142.700195,72.5l16.399902,-114.600098c9.399902,-60.800049 21,-131 28.100098,-152.099854c9.399902,-30.400146 -18.700195,-56.100098 -117.000244,-105.300049c-72.5,-35.100098 -131,-72.5 -131,-81.900146s53.799805,-44.5 117,-77.199951c126.300049,-63.199951 131.000244,-77.199951 91.200439,-236.300049c-14.000244,-58.499878 -21.000244,-109.89978 -14.000244,-116.999878c7,-7 63.199951,9.400146 121.599854,35.100098c60.799805,28.100098 124,49.100098 138,49.100098c16.400391,0 63.200195,-46.800049 107.600098,-105.300049s86.600098,-105.300049 93.600098,-105.300049c9.399902,0 32.700195,63.199951 53.800049,140.300049l39.799805,137.999878l152.100586,7l154.399414,7l-86.599609,121.599854l-86.5,124l86.5,109.900146c46.799805,58.5 84.200195,117 84.200195,126.300049s-65.5,21.099854 -145,25.699951l-145,7l-37.400391,149.699951l-37.400146,149.699951l-100.699707,-118.699951z"/>
   <path id="svg_6" d="m5729.600098,1563.900269c-44.399902,-4.699951 -187.100098,-21 -315.799805,-35.100098c-128.700195,-14 -262,-30.399902 -294.700195,-37.399902l-63.200195,-11.699951l60.800293,-131c91.199707,-201.199951 98.299805,-519.300049 16.399902,-734.5c-11.700195,-28.100098 9.399902,-30.399902 156.700195,-4.699951c1099.399902,189.5 2502.999023,4.699951 2949.799316,-388.300079c411.699219,-360.199951 -11.701172,-757.899994 -994.200195,-935.700043c-795.299316,-142.699829 -1763.799316,-100.599854 -2439.799316,105.200195c-112.299805,32.799927 -212.899902,53.799927 -222.200195,42.099976c-39.799805,-44.400024 -608.199951,-1300.599854 -596.499756,-1319.300049c23.399414,-35.100098 580.099854,-203.500122 884.199951,-264.400024c510,-105.300049 898.299805,-138 1525.200195,-124c778.999512,16.399902 1314.699219,105.299805 1915.898926,313.500122c1005.799805,348.599976 1649.099609,970.799927 1651.399414,1597.699921c2.299805,886.599884 -1136.900391,1649.199982 -2807.099609,1885.399933c-233.898926,32.800049 -1249.099121,63.199951 -1426.898926,42.199951z"/>
   <path id="svg_7" d="m4021.999756,1496.000366c-217.5,-70.199951 -168.399902,28.100098 -1674.900146,-3204.800049c-1012.900146,-2170.800171 -1398.900024,-3022.299927 -1408.299927,-3099.400024c-23.399902,-247.899902 121.599731,-463.200195 378.999878,-559.100098c229.300049,-86.5 404.699951,-56.100098 561.399902,98.200195c88.900146,88.899902 248,416.399902 1499.500244,3104.199707c1333.300293,2856.200317 1401.200195,3013.000366 1401.200195,3134.60022c-2.299805,219.900146 -128.700195,395.300049 -353.199707,495.899902c-133.400391,58.500244 -280.800293,70.200195 -404.700439,30.400146zm343.800049,-271.300049c112.300293,-53.800049 170.800293,-142.699951 170.800293,-257.300049c0,-49.099854 -126.300293,-350.899902 -353.199707,-837.499908c-196.500244,-418.700012 -364.900635,-771.999969 -374.300537,-783.700043c-11.699707,-14 -37.399902,-7 -60.800293,14c-58.5,51.5 -304.099854,170.800018 -423.399658,208.200043c-56.100586,16.400024 -95.900391,39.799988 -88.900391,53.799988c138,336.899963 732.200439,1560.300018 776.600342,1599.999969c74.900146,68 217.600342,68 353.199951,2.5z"/>
   <path id="svg_8" d="m3975.199951,-2578.899658c0,-11.699951 -21,-271.400146 -46.800293,-580.100098c-28.100098,-308.800049 -51.5,-713.5 -53.800293,-900.600098c-4.699707,-325.199951 -2.299805,-343.899658 58.5,-474.799561c145.000244,-306.5 528.700439,-563.799805 1076.000732,-715.799805c481.899902,-135.700195 1188.299805,-196.5 1667.899902,-145c994.199707,107.599609 1651.499023,404.699707 1864.398438,839.799805l77.201172,156.699707l-4.701172,350.899902c-4.699219,325.200195 -88.899414,1457.300293 -109.899414,1478.400146c-4.700195,4.699951 -112.299805,-21.100098 -238.600586,-58.5c-603.499512,-180.100098 -1249.198242,-266.699951 -1985.998535,-269c-755.600098,-2.300049 -1359.100098,74.899902 -1995.399902,252.600098c-322.900146,91.099854 -308.800049,88.799805 -308.800049,65.399902z"/>
  </g>
</svg>