<svg width="199.99999999999997" height="180.00000000000003" xmlns="http://www.w3.org/2000/svg">

 <g>
  <title>background</title>
  <rect fill="none" id="canvas_background" height="182" width="202" y="-1" x="-1"/>
 </g>
 <g>
  <title>Layer 1</title>
  <path id="svg_8" fill="#ffffff" d="m124.938202,122.538528c-5.56456,0 -10.075821,-2.150085 -10.075821,-4.802704l0,-32.072426l-5.600754,6.229027c-1.587349,1.765938 -5.230095,2.910919 -9.261093,2.910919c-4.030029,0 -7.673241,-1.144981 -9.261086,-2.910919l-5.600761,-6.229027l0,32.072426c0,2.652412 -4.510773,4.802704 -10.075836,4.802704c-5.564583,0 -10.075806,-2.150085 -10.075806,-4.802704l0,-55.470398c0,-2.28038 3.363968,-4.246105 8.049797,-4.704605c4.686775,-0.45874 9.402443,0.716763 11.286652,2.812542l15.677505,17.435162l15.676109,-17.434925c1.884209,-2.095776 6.602798,-3.271038 11.286621,-2.812538c4.686325,0.458736 8.04982,2.424427 8.04982,4.704601l0,55.470398c0.000473,2.652176 -4.510757,4.802467 -10.075348,4.802467z"/>
  <g id="svg_9"/>
  <g id="svg_10"/>
  <g id="svg_11"/>
  <g id="svg_12"/>
  <g id="svg_13"/>
  <g id="svg_14"/>
  <g id="svg_15"/>
  <g id="svg_16"/>
  <g id="svg_17"/>
  <g id="svg_18"/>
  <g id="svg_19"/>
  <g id="svg_20"/>
  <g id="svg_21"/>
  <g id="svg_22"/>
  <g id="svg_23"/>
  <path fill="#ffffff" id="svg_28" d="m185.332703,85.562805l-19.529877,0c-2.290283,-34.201477 -30.841431,-61.327744 -65.612732,-61.327744s-63.321945,27.126266 -65.612762,61.327744l-19.911301,0l0,9.16333l19.929062,0c2.430557,34.066345 30.920441,61.041412 65.595001,61.041412s63.164398,-26.975067 65.594971,-61.041412l19.547638,0l0,-9.16333zm-28.539703,4.438477c0,31.210815 -25.39209,56.602936 -56.602905,56.602936s-56.602936,-25.39212 -56.602936,-56.602936s25.39212,-56.602921 56.602936,-56.602921s56.602905,25.392105 56.602905,56.602921z"/>
 </g>
</svg>