<svg width="1200" height="1200" xmlns="http://www.w3.org/2000/svg">
 <metadata>Svg Vector Icons : http://www.onlinewebfonts.com/icon</metadata>

 <g>
  <title>background</title>
  <rect fill="none" id="canvas_background" height="1202" width="1202" y="-1" x="-1"/>
 </g>
 <g>
  <title>Layer 1</title>
  <g id="svg_1">
   <path id="svg_2" d="m271.600006,109.949219l166.799988,0c44.200012,0 80.000031,36.600006 80.000031,81.699997l0,816.700027c0,45.099976 -35.800018,81.699951 -80.000031,81.699951l-166.799988,0c-44.200012,0 -80,-36.599976 -80,-81.699951l0,-816.700027c0.099991,-45.099991 35.799988,-81.699997 80,-81.699997z" fill="#ffffff"/>
   <path id="svg_3" d="m761.599976,109.949219l166.799988,0c44.200012,0 80,36.600006 80,81.699997l0,816.700027c0,45.099976 -35.799988,81.699951 -80,81.699951l-166.799988,0c-44.200012,0 -80,-36.599976 -80,-81.699951l0,-816.700027c0.100037,-45.099991 35.800049,-81.699997 80,-81.699997z" fill="#ffffff"/>
  </g>
 </g>
</svg>