<?xml version="1.0" encoding="UTF-8" standalone="no"?>
<!-- Generator: Adobe Illustrator 23.0.3, SVG Export Plug-In . SVG Version: 6.00 Build 0)  -->

<svg
   xmlns:osb="http://www.openswatchbook.org/uri/2009/osb"
   xmlns:dc="http://purl.org/dc/elements/1.1/"
   xmlns:cc="http://creativecommons.org/ns#"
   xmlns:rdf="http://www.w3.org/1999/02/22-rdf-syntax-ns#"
   xmlns:svg="http://www.w3.org/2000/svg"
   xmlns="http://www.w3.org/2000/svg"
   xmlns:xlink="http://www.w3.org/1999/xlink"
   xmlns:sodipodi="http://sodipodi.sourceforge.net/DTD/sodipodi-0.dtd"
   xmlns:inkscape="http://www.inkscape.org/namespaces/inkscape"
   version="1.2"
   id="Capa_1"
   x="0px"
   y="0px"
   viewBox="0 0 49.871181 49.871183"
   xml:space="preserve"
   sodipodi:docname="valvula_icono.svg"
   inkscape:version="0.92.5 (2060ec1f9f, 2020-04-08)"
   width="49.871181"
   height="49.871181"><metadata
   id="metadata1023"><rdf:RDF><cc:Work
       rdf:about=""><dc:format>image/svg+xml</dc:format><dc:type
         rdf:resource="http://purl.org/dc/dcmitype/StillImage" /><dc:title /></cc:Work></rdf:RDF></metadata><defs
   id="defs1021"><linearGradient
   inkscape:collect="always"
   id="linearGradient2599"><stop
     style="stop-color:#b3c8e0;stop-opacity:1;"
     offset="0"
     id="stop2595" /><stop
     style="stop-color:#b3c8e0;stop-opacity:0;"
     offset="1"
     id="stop2597" /></linearGradient><linearGradient
   id="linearGradient1141"
   osb:paint="gradient"><stop
     style="stop-color:#b3c8e0;stop-opacity:1;"
     offset="0"
     id="stop1137" /><stop
     style="stop-color:#b3c8e0;stop-opacity:0;"
     offset="1"
     id="stop1139" /></linearGradient><linearGradient
   inkscape:collect="always"
   xlink:href="#linearGradient2599"
   id="linearGradient2603"
   x1="50.90992"
   y1="30.032587"
   x2="51.532402"
   y2="29.641724"
   gradientUnits="userSpaceOnUse"
   gradientTransform="translate(-2.9315256,-15.357141)" />
	
	
	
	
	
	
	
	
	
	
	
	
	
	
	
	
	
	
	
	
	
	
	
	
	
	
	
	
	
	
	
	
	
	
	
	
</defs><sodipodi:namedview
   pagecolor="#ffffff"
   bordercolor="#666666"
   borderopacity="1"
   objecttolerance="10"
   gridtolerance="10"
   guidetolerance="10"
   inkscape:pageopacity="0"
   inkscape:pageshadow="2"
   inkscape:window-width="1920"
   inkscape:window-height="1046"
   id="namedview1019"
   showgrid="false"
   inkscape:zoom="28.945481"
   inkscape:cx="19.215594"
   inkscape:cy="25.626774"
   inkscape:window-x="2389"
   inkscape:window-y="-11"
   inkscape:window-maximized="1"
   inkscape:current-layer="Capa_1"
   fit-margin-top="0"
   fit-margin-left="0"
   fit-margin-right="0"
   fit-margin-bottom="0" />

<circle
   style="fill:url(#linearGradient2603);fill-opacity:1;stroke:#014898;stroke-width:0.51599997;stroke-linecap:round;stroke-linejoin:round;stroke-miterlimit:4;stroke-dasharray:none;stroke-opacity:1"
   id="path1025"
   cx="24.935591"
   cy="24.935591"
   r="24.677591" /><polygon
   style="fill:#ffffff;fill-opacity:1;stroke:#014898;stroke-width:0.6240918;stroke-linecap:round;stroke-miterlimit:4;stroke-dasharray:none;stroke-opacity:1"
   id="polygon922"
   points="31.37,56.83 31.37,71.89 52.11,63.67 52.11,48.61 "
   transform="matrix(0.50633578,0,0,0.50633578,9.8594434,3.5675601)" /><path
   inkscape:connector-curvature="0"
   style="fill:#ffffff;fill-opacity:1;stroke:#014898;stroke-width:0.31600001;stroke-linecap:round;stroke-miterlimit:4;stroke-dasharray:none;stroke-opacity:1"
   id="path924"
   d="m 14.026587,30.226139 c 0.232914,-0.177218 4.891204,-2.551932 4.891204,-2.551932 l 0.101267,4.607655 z" /><path
   inkscape:connector-curvature="0"
   style="fill:#ffffff;fill-opacity:1;stroke:#014898;stroke-width:0.31600001;stroke-linecap:round;stroke-miterlimit:4;stroke-dasharray:none;stroke-opacity:1"
   id="path926"
   d="m 11.312627,22.874143 h 1.073432 v 3.508907 14.395127 3.508907 h -1.073432 c -0.805074,0 -1.4531836,-4.789937 -1.4531836,-10.703939 0,-5.914002 0.6481096,-10.709002 1.4531836,-10.709002 z" /><ellipse
   style="fill:#ffffff;fill-opacity:1;fill-rule:evenodd;stroke:#014898;stroke-width:0.31600001;stroke-linecap:round;stroke-miterlimit:4;stroke-dasharray:none;stroke-opacity:1"
   id="ellipse928"
   ry="10.709002"
   rx="1.0076082"
   cy="33.583145"
   cx="12.380996" /><path
   inkscape:connector-curvature="0"
   style="fill:#ffffff;fill-opacity:1;stroke:#014898;stroke-width:0.31600001;stroke-linecap:round;stroke-miterlimit:4;stroke-dasharray:none;stroke-opacity:1"
   id="path930"
   d="m 38.558555,22.874143 h -1.073431 v 3.508907 14.395127 3.508907 h 1.073431 c 0.800011,0 1.453184,-4.795 1.453184,-10.709002 -0.0051,-5.908939 -0.653173,-10.703939 -1.453184,-10.703939 z" /><ellipse
   style="fill:#ffffff;fill-opacity:1;fill-rule:evenodd;stroke:#014898;stroke-width:0.31600001;stroke-linecap:round;stroke-miterlimit:4;stroke-dasharray:none;stroke-opacity:1"
   id="ellipse932"
   ry="10.709002"
   rx="1.0076082"
   cy="33.583145"
   cx="37.485123" /><path
   inkscape:connector-curvature="0"
   style="fill:#ffffff;fill-opacity:1;stroke:#014898;stroke-width:0.31600001;stroke-linecap:round;stroke-miterlimit:4;stroke-dasharray:none;stroke-opacity:1"
   id="path934"
   d="m 24.295076,35.512284 c -2.830417,-0.07595 -5.276018,-3.230422 -5.276018,-3.230422 l -5.665898,-2.329144 -0.212661,-0.08608 c -0.556969,0 -1.007608,1.701288 -1.007608,3.802581 0,1.827872 0.344308,3.357006 0.800011,3.721568 l 0.207597,0.08101 8.946953,3.54435 c 0,0 4.060813,0.911405 5.569694,-1.807618 v -4.238031 c 0,0 -1.174699,0.60254 -3.36207,0.541779 z" /><path
   inkscape:connector-curvature="0"
   style="fill:#ffffff;fill-opacity:1;stroke:#014898;stroke-width:0.31600001;stroke-linecap:round;stroke-miterlimit:4;stroke-dasharray:none;stroke-opacity:1"
   id="path936"
   d="m 37.707911,33.218583 c 0,-0.379751 -0.01013,-0.744313 -0.02532,-1.093685 v 2.187371 c 0.02025,-0.344309 0.02532,-0.70887 0.02532,-1.093686 z" /><polygon
   style="fill:#ffffff;fill-opacity:1;stroke:#014898;stroke-width:0.6240918;stroke-linecap:round;stroke-miterlimit:4;stroke-dasharray:none;stroke-opacity:1"
   id="polygon938"
   points=""
   transform="matrix(0.50633578,0,0,0.50633578,9.8594434,3.5675601)" /><path
   inkscape:connector-curvature="0"
   style="fill:#ffffff;fill-opacity:1;stroke:#014898;stroke-width:0.31600001;stroke-linecap:round;stroke-miterlimit:4;stroke-dasharray:none;stroke-opacity:1"
   id="path940"
   d="m 37.095245,29.390685 v 0 l -9.908991,-2.597503 0.06076,0.410132 -8.329223,0.982292 v 4.10132 c 1.868379,4.896267 9.569746,3.108901 9.569746,3.108901 l 8.607708,1.660782 c 0.278485,0 0.516463,-1.154446 0.592413,-2.739277 V 32.129961 C 37.606644,30.54513 37.37373,29.390685 37.095245,29.390685 Z" /><path
   inkscape:connector-curvature="0"
   style="fill:#ffffff;fill-opacity:1;stroke:#014898;stroke-width:0.31600001;stroke-linecap:round;stroke-miterlimit:4;stroke-dasharray:none;stroke-opacity:1"
   id="path948"
   d="m 13.140499,29.861577 v 0 l 0.212661,0.08608 c -0.06582,-0.0557 -0.141774,-0.08608 -0.212661,-0.08608 z" /><path
   inkscape:connector-curvature="0"
   style="fill:#ffffff;fill-opacity:1;stroke:#014898;stroke-width:0.31600001;stroke-linecap:round;stroke-miterlimit:4;stroke-dasharray:none;stroke-opacity:1"
   id="path950"
   d="m 13.140499,37.471804 -0.207597,-0.08101 c 0.06582,0.05063 0.13671,0.08101 0.207597,0.08101 z" /><rect
   style="fill:#ffffff;fill-opacity:1;stroke:#014898;stroke-width:0.31600001;stroke-linecap:round;stroke-miterlimit:4;stroke-dasharray:none;stroke-opacity:1"
   id="rect952"
   height="0.6987434"
   width="8.0254221"
   y="14.099344"
   x="20.295025" /><g
   style="fill:#ffffff;fill-opacity:1;stroke:#014898;stroke-width:0.6240918;stroke-linecap:round;stroke-miterlimit:4;stroke-dasharray:none;stroke-opacity:1"
   id="g966"
   transform="matrix(0.50633578,0,0,0.50633578,9.8594434,3.5675601)">
		<path
   inkscape:connector-curvature="0"
   style="fill:#ffffff;fill-opacity:1;stroke:#014898;stroke-width:0.6240918;stroke-linecap:round;stroke-miterlimit:4;stroke-dasharray:none;stroke-opacity:1"
   id="path958"
   d="m 18.14,37.8 v 1.76 h 3.25 v -1.82 c 0,0 0.27,-0.23 0.68,-0.41 V 37.11 H 16.7 v 0.01 c 0.85,0.07 1.44,0.68 1.44,0.68 z" />
		<path
   inkscape:connector-curvature="0"
   style="fill:#ffffff;fill-opacity:1;fill-rule:evenodd;stroke:#014898;stroke-width:0.6240918;stroke-linecap:round;stroke-miterlimit:4;stroke-dasharray:none;stroke-opacity:1"
   id="path960"
   d="m 18.14,39.56 v -1.82 c 0,0 0.72,-0.63 1.66,-0.63 0.94,0 1.59,0.69 1.59,0.69 v 1.76 z" />
		<path
   inkscape:connector-curvature="0"
   style="fill:#ffffff;fill-opacity:1;stroke:#014898;stroke-width:0.6240918;stroke-linecap:round;stroke-miterlimit:4;stroke-dasharray:none;stroke-opacity:1"
   id="path962"
   d="m 16.7,37.12 v 2.44 h 1.44 V 37.8 c 0,0 -0.59,-0.61 -1.44,-0.68 z" />
		<path
   inkscape:connector-curvature="0"
   style="fill:#ffffff;fill-opacity:1;stroke:#014898;stroke-width:0.6240918;stroke-linecap:round;stroke-miterlimit:4;stroke-dasharray:none;stroke-opacity:1"
   id="path964"
   d="m 21.38,39.56 h 0.68 v -2.23 c -0.42,0.18 -0.68,0.41 -0.68,0.41 z" />
	</g><g
   style="fill:#ffffff;fill-opacity:1;stroke:#014898;stroke-width:0.6240918;stroke-linecap:round;stroke-miterlimit:4;stroke-dasharray:none;stroke-opacity:1"
   id="g976"
   transform="matrix(0.50633578,0,0,0.50633578,9.8594434,3.5675601)">
		<path
   inkscape:connector-curvature="0"
   style="fill:#ffffff;fill-opacity:1;stroke:#014898;stroke-width:0.6240918;stroke-linecap:round;stroke-miterlimit:4;stroke-dasharray:none;stroke-opacity:1"
   id="path968"
   d="m 26.77,1.21 v 3.08 h 5.68 V 1.1 c 0,0 0.46,-0.4 1.19,-0.72 V 0 h -9.38 v 0.02 c 1.49,0.13 2.51,1.19 2.51,1.19 z" />
		<path
   inkscape:connector-curvature="0"
   style="fill:#ffffff;fill-opacity:1;fill-rule:evenodd;stroke:#014898;stroke-width:0.6240918;stroke-linecap:round;stroke-miterlimit:4;stroke-dasharray:none;stroke-opacity:1"
   id="path970"
   d="M 26.77,4.28 V 1.1 c 0,0 1.26,-1.1 2.9,-1.1 1.64,0 2.78,1.21 2.78,1.21 v 3.08 h -5.68 z" />
		<path
   inkscape:connector-curvature="0"
   style="fill:#ffffff;fill-opacity:1;stroke:#014898;stroke-width:0.6240918;stroke-linecap:round;stroke-miterlimit:4;stroke-dasharray:none;stroke-opacity:1"
   id="path972"
   d="m 24.26,0.02 v 4.26 h 2.51 V 1.21 c 0,0 -1.02,-1.06 -2.51,-1.19 z" />
		<path
   inkscape:connector-curvature="0"
   style="fill:#ffffff;fill-opacity:1;stroke:#014898;stroke-width:0.6240918;stroke-linecap:round;stroke-miterlimit:4;stroke-dasharray:none;stroke-opacity:1"
   id="path974"
   d="m 32.45,4.28 h 1.19 V 0.38 C 32.91,0.7 32.45,1.1 32.45,1.1 Z" />
	</g><g
   style="fill:#ffffff;fill-opacity:1;stroke:#014898;stroke-width:0.6240918;stroke-linecap:round;stroke-miterlimit:4;stroke-dasharray:none;stroke-opacity:1"
   id="g986"
   transform="matrix(0.50633578,0,0,0.50633578,9.8594434,3.5675601)">
		<path
   inkscape:connector-curvature="0"
   style="fill:#ffffff;fill-opacity:1;stroke:#014898;stroke-width:0.6240918;stroke-linecap:round;stroke-miterlimit:4;stroke-dasharray:none;stroke-opacity:1"
   id="path978"
   d="m 37.03,37.83 v 1.73 h 3.19 v -1.79 c 0,0 0.26,-0.23 0.67,-0.4 v -0.21 h -5.27 v 0.01 c 0.84,0.06 1.41,0.66 1.41,0.66 z" />
		<path
   inkscape:connector-curvature="0"
   style="fill:#ffffff;fill-opacity:1;fill-rule:evenodd;stroke:#014898;stroke-width:0.6240918;stroke-linecap:round;stroke-miterlimit:4;stroke-dasharray:none;stroke-opacity:1"
   id="path980"
   d="m 37.03,39.56 v -1.79 c 0,0 0.71,-0.62 1.63,-0.62 0.92,0 1.56,0.68 1.56,0.68 v 1.73 z" />
		<path
   inkscape:connector-curvature="0"
   style="fill:#ffffff;fill-opacity:1;stroke:#014898;stroke-width:0.6240918;stroke-linecap:round;stroke-miterlimit:4;stroke-dasharray:none;stroke-opacity:1"
   id="path982"
   d="m 35.62,37.16 v 2.4 h 1.41 v -1.73 c 0,0 -0.57,-0.6 -1.41,-0.67 z" />
		<path
   inkscape:connector-curvature="0"
   style="fill:#ffffff;fill-opacity:1;stroke:#014898;stroke-width:0.6240918;stroke-linecap:round;stroke-miterlimit:4;stroke-dasharray:none;stroke-opacity:1"
   id="path984"
   d="m 40.23,39.56 h 0.67 v -2.19 c -0.41,0.18 -0.67,0.4 -0.67,0.4 z" />
	</g><path
   inkscape:connector-curvature="0"
   style="fill:#ffffff;fill-opacity:1;stroke:#014898;stroke-width:0.31600001;stroke-linecap:round;stroke-miterlimit:4;stroke-dasharray:none;stroke-opacity:1"
   id="path988"
   d="m 26.512827,21.228552 h -3.984862 c -2.08104,0 -3.772202,-1.691161 -3.772202,-3.772201 v -3.984863 c 0,-2.08104 1.691162,-3.7722016 3.772202,-3.7722016 h 3.984862 c 2.08104,0 3.772202,1.6911616 3.772202,3.7722016 v 3.984863 c 0,2.075976 -1.691162,3.772201 -3.772202,3.772201 z m -3.989926,-9.569746 c -0.997481,0 -1.807618,0.810137 -1.807618,1.807619 v 3.984862 c 0,0.997482 0.810137,1.807619 1.807618,1.807619 h 3.984863 c 0.997481,0 1.807619,-0.810137 1.807619,-1.807619 v -3.984862 c 0,-0.997482 -0.810138,-1.807619 -1.807619,-1.807619 z" /><rect
   style="fill:#ffffff;fill-opacity:1;stroke:#014898;stroke-width:0.31600001;stroke-linecap:round;stroke-miterlimit:4;stroke-dasharray:none;stroke-opacity:1"
   id="rect990"
   height="7.6051636"
   width="1.3620433"
   y="11.658806"
   x="23.839375" /><path
   inkscape:connector-curvature="0"
   style="fill:#ffffff;fill-opacity:1;stroke:#014898;stroke-width:0.30389759;stroke-linecap:round;stroke-miterlimit:4;stroke-dasharray:none;stroke-opacity:1"
   id="path992"
   d="M 26.791312,9.6173771 H 22.239353 V 7.7582484 c 0,-0.4917092 0.430386,-0.8944424 0.967102,-0.8944424 h 2.617756 c 0.531652,0 0.967101,0.3980502 0.967101,0.8944424 z" /><path
   inkscape:connector-curvature="0"
   style="fill:#ffffff;fill-opacity:1;stroke:#014898;stroke-width:0.31600001;stroke-linecap:round;stroke-miterlimit:4;stroke-dasharray:none;stroke-opacity:1"
   id="path994"
   d="M 36.371185,7.9929348 H 12.973408 c -0.339245,0 -0.612666,-0.2734213 -0.612666,-0.6126663 v -1.032925 c 0,-0.3392449 0.273421,-0.6126663 0.612666,-0.6126663 h 23.397777 c 0.339245,0 0.612666,0.2734214 0.612666,0.6126663 v 1.032925 c 0,0.339245 -0.273421,0.6126663 -0.612666,0.6126663 z" /><path
   inkscape:connector-curvature="0"
   style="fill:#ffffff;fill-opacity:1;stroke:#014898;stroke-width:0.31600001;stroke-linecap:round;stroke-miterlimit:4;stroke-dasharray:none;stroke-opacity:1"
   id="path1002"
   d="m 27.940694,23.598204 h -6.911483 v -2.227878 c 0,-0.283548 0.232914,-0.516462 0.516462,-0.516462 h 5.878559 c 0.283548,0 0.516462,0.232914 0.516462,0.516462 z" /><path
   inkscape:connector-curvature="0"
   style="fill:#ffffff;fill-opacity:1;stroke:#014898;stroke-width:0.31600001;stroke-linecap:round;stroke-miterlimit:4;stroke-dasharray:none;stroke-opacity:1"
   id="path1004"
   d="m 26.30523,20.853864 h -3.640555 v -2.227878 c 0,-0.283548 0.232915,-0.516462 0.516463,-0.516462 h 2.607629 c 0.283548,0 0.516463,0.232914 0.516463,0.516462 z" /><path
   inkscape:connector-curvature="0"
   style="fill:#ffffff;fill-opacity:1;stroke:#014898;stroke-width:0.31600001;stroke-linecap:round;stroke-miterlimit:4;stroke-dasharray:none;stroke-opacity:1"
   id="path1010"
   d="m 25.712817,15.967723 h -2.389905 c -0.232915,0 -0.420259,-0.187344 -0.420259,-0.420258 v -0.612667 c 0,-0.232914 0.187344,-0.420258 0.420259,-0.420258 h 2.389905 c 0.232914,0 0.420258,0.187344 0.420258,0.420258 v 0.612667 c 0,0.232914 -0.187344,0.420258 -0.420258,0.420258 z" /><rect
   style="fill:#ffffff;fill-opacity:1;stroke:#014898;stroke-width:0.31600001;stroke-linecap:round;stroke-miterlimit:4;stroke-dasharray:none;stroke-opacity:1"
   id="rect920"
   height="4.5823388"
   width="12.253326"
   y="23.598204"
   x="18.31525" /></svg>