<svg width="150" height="170" xmlns="http://www.w3.org/2000/svg" xmlns:xlink="http://www.w3.org/1999/xlink" preserveAspectRatio="xMidYMid meet">
 <defs>
  <path id="b1tqcOMeE" d="m479.799988,194.389999c0,3.5 0,20.960007 0,52.389999l-52.48999,0l0,-27.639999l-77.380005,-77.490005l-36.72998,0l0,-43.869995l-78.960007,0l0,43.869995l-35.960007,0l0,47.290009c-41.720001,13.559998 -64.889999,21.089996 -69.529999,22.589996c0,0 -0.050003,20.050003 -0.149994,44.229996c-2.910004,0 -17.450005,0 -43.610008,0l0,-43.869995l-34.999996,0l0,122.830002l34.999996,0l0,-43.809998c26.099998,0 40.610001,0 43.510002,0c-0.050003,15.559998 -0.050003,29.73999 -0.050003,38.609985c0,29.380005 30.960007,31.170013 53.76001,31.170013c22.849991,0 54.429993,44.329987 63.809998,44.329987c9.389999,0 138.749985,0 157.520004,0c14.079987,0 24.079987,-15.149994 24.079987,-29.179993c0,-10.51001 0,-23.470001 0,-23.470001c3.48999,0 20.950012,0 52.390015,0c0,31.5 0,48.98999 0,52.48999c0,0 30.349976,0.210022 45.140015,0.210022c18.519958,0 24.839966,-16.630005 24.839966,-29.790009c0,-13.369995 0,-127.529999 0,-150.229996c-0.099976,-15.400009 -16.72998,-30.76001 -28.820007,-30.76001c-12.089996,0 -33.089996,0.080002 -41.369995,0.100006z"/>
  <path id="afoGAX7Wu" d="m209.039993,73l131.509995,0l0,26.120003l-131.509995,0l0,-26.120003z"/>
  <path id="a2y6b1Jko7" d="m454.519989,145.169998c-14.819977,-14.819992 -23.049988,-23.049995 -24.690002,-24.699997c-2.949982,-2.940002 -7.689972,-2.940002 -10.629974,-0.010002c-3,3 -27,27.010002 -30,30.010002c-2.930023,2.919998 -2.930023,7.679993 0,10.600006c2.919983,2.929993 7.679993,2.929993 10.599976,0c1.650024,-1.640015 9.890015,-9.87001 24.710022,-24.690002c14.819977,14.819992 23.049988,23.059998 24.699982,24.709991c2.930023,2.919998 7.680023,2.919998 10.610016,0c1.639984,-1.649994 9.880005,-9.889999 24.709991,-24.709991c14.820007,14.819992 23.049988,23.049988 24.690002,24.690002c2.930023,2.929993 7.680023,2.929993 10.610016,0c1.469971,-1.450012 2.209961,-3.37001 2.209961,-5.290009c0,-1.919998 -0.73999,-3.839996 -2.190002,-5.309998c-3.009949,-3 -27.009979,-27.010002 -30.009979,-30.010002c-2.929993,-2.93 -7.679993,-2.93 -10.609985,0c0,0 -8.240021,8.239998 -24.710022,24.709999z"/>
  <path id="b7GKdLbmJ" d="m424.51001,88.559998c14.819977,14.82 23.049988,23.050003 24.690002,24.700005c2.940002,2.939995 7.679993,2.939995 10.629974,0.009995c1.640015,-1.639999 9.870026,-9.879997 24.690002,-24.709999c14.820007,14.82 23.050018,23.050003 24.700012,24.700005c2.920013,2.919998 7.680023,2.919998 10.600006,0c2.929993,-2.93 2.929993,-7.68 0,-10.610001c-3,-3 -27,-27.010002 -30,-30.010002c-2.929993,-2.919998 -7.679993,-2.919998 -10.610016,0c-1.649994,1.650002 -9.880005,9.889999 -24.699982,24.709999c-14.809998,-14.809998 -23.040009,-23.049995 -24.690002,-24.689995c-2.929993,-2.93 -7.679993,-2.93 -10.610016,0c-3,3 -27,27 -30.009979,30.009995c-1.470001,1.450005 -2.200012,3.370003 -2.200012,5.290001c0,1.919998 0.730011,3.840004 2.190002,5.309998c2.929993,2.93 7.679993,2.93 10.609985,0c0,0 8.230011,-8.229996 24.710022,-24.709999z"/>
  <path id="aB0PTp95" d="m438.459991,217.080002l0,-27.759995l-7.459991,8.969986l0,-11.779999l11.190002,-13.459991l11.200012,13.459991l0,11.779999l-7.460022,-8.969986l0,27.759995l-7.470001,0zm26.130005,-35.900009l0,27.76001l7.459991,-8.970001l0,11.779999l-11.199982,13.460007l-11.190002,-13.460007l0,-11.779999l7.459991,8.970001l0,-27.76001l7.470001,0z"/>
  <path id="aTmqmcfdw" d="m438.459991,416.529999l0,-27.769989l-7.459991,8.97998l0,-11.779999l11.190002,-13.459991l11.200012,13.459991l0,11.779999l-7.460022,-8.97998l0,27.769989l-7.470001,0zm26.130005,-35.899994l0,27.76001l7.459991,-8.970001l0,11.779999l-11.199982,13.459991l-11.190002,-13.459991l0,-11.779999l7.459991,8.970001l0,-27.76001l7.470001,0z"/>
 </defs>
 <g>
  <g transform="rotate(-90, 75, 85)" id="svg_27">
    <use x="-379.51852" y="-31.865265" id="svg_12" fill="#B3C8E0" xlink:href="#a2y6b1Jko7"/>
    <use x="-379.51852" y="-31.865265" id="svg_14" stroke-opacity="0" stroke="#000000" fill-opacity="0" xlink:href="#a2y6b1Jko7"/>
    <use x="-379.51852" y="-31.865265" id="svg_16" fill="#b3c8e0" xlink:href="#b7GKdLbmJ"/>
    <use x="-379.51852" y="-31.865265" id="svg_18" stroke-opacity="0" stroke="#000000" fill-opacity="0" xlink:href="#b7GKdLbmJ"/>
   </g>
  </g>
</svg>