<?xml version="1.0" encoding="utf-8"?>
<!-- Generator: Adobe Illustrator 23.0.3, SVG Export Plug-In . SVG Version: 6.00 Build 0)  -->
<svg version="1.2" baseProfile="tiny" id="Capa_1" xmlns="http://www.w3.org/2000/svg" xmlns:xlink="http://www.w3.org/1999/xlink"
	 x="0px" y="0px" viewBox="0 0 70.07 65.21" xml:space="preserve">
<g>
	<path fill="#BE1622" d="M12.69,38.99c0,0,3.71,14.47-10.51,14.99c0,0,5.31-6.28,4.38-13.39C6.56,40.59,10.63,40.54,12.69,38.99z"/>
	<g>
		<path fill="#741518" d="M54.4,40.23h1.56v6.91h-1.62c0,0-0.2,0.57-0.36,1.45h-0.19V37.18h0.01C53.86,38.99,54.4,40.23,54.4,40.23z
			"/>
		<path fill-rule="evenodd" fill="#CD5261" d="M55.96,40.23h-1.62c0,0-0.56,1.53-0.56,3.53c0,2,0.61,3.39,0.61,3.39h1.56V40.23z"/>
		<path fill="#BE1622" d="M53.8,37.18h2.16v3.06H54.4C54.4,40.23,53.86,38.99,53.8,37.18z"/>
		<path fill="#BE1622" d="M55.96,47.15v1.45h-1.98c0.16-0.88,0.36-1.45,0.36-1.45H55.96z"/>
	</g>
	<path fill="#BE1622" d="M52.47,32.62h-0.98v3.2v13.13v3.2h0.98c0.73,0,1.32-4.37,1.32-9.76C53.79,36.99,53.2,32.62,52.47,32.62z"/>
	<ellipse fill-rule="evenodd" fill="#741518" cx="51.49" cy="42.39" rx="0.92" ry="9.76"/>
	<path fill="#BE1622" d="M37.69,32.62h-0.98v3.2v13.13v3.2h0.98c0.73,0,1.32-4.37,1.32-9.76C39.01,36.99,38.42,32.62,37.69,32.62z"
		/>
	<ellipse fill-rule="evenodd" fill="#741518" cx="36.71" cy="42.39" rx="0.92" ry="9.76"/>
	
		<rect x="52.97" y="2.27" transform="matrix(-1 -4.499613e-11 4.499613e-11 -1 123.0333 24.3109)" fill-rule="evenodd" fill="#BE1622" width="17.1" height="19.78"/>
	<polygon fill-rule="evenodd" fill="#741518" points="52.97,2.27 70.07,2.27 67.21,0 55.36,0 	"/>
	<polygon fill-rule="evenodd" fill="#741518" points="68.75,24.06 53.92,24.06 56.89,26.05 66.2,26.05 	"/>
	<polygon fill-rule="evenodd" fill="#741518" points="67.18,30.09 55.49,30.09 56.89,32.08 66.2,32.08 	"/>
	
		<rect x="53.92" y="22.04" transform="matrix(-1 -4.500368e-11 4.500368e-11 -1 122.6727 46.1092)" fill-rule="evenodd" fill="#CD5261" width="14.83" height="2.02"/>
	
		<rect x="56.89" y="26.05" transform="matrix(-1 -4.494239e-11 4.494239e-11 -1 123.0984 54.1219)" fill-rule="evenodd" fill="#BE1622" width="9.31" height="2.02"/>
	
		<rect x="56.89" y="32.08" transform="matrix(-1 -4.494239e-11 4.494239e-11 -1 123.0984 69.2534)" fill-rule="evenodd" fill="#BE1622" width="9.31" height="5.1"/>
	
		<rect x="56.02" y="37.18" transform="matrix(-1 -4.500457e-11 4.500457e-11 -1 122.222 85.7724)" fill-rule="evenodd" fill="#BE1622" width="10.19" height="11.42"/>
	
		<rect x="58.08" y="38.41" transform="matrix(-1 -4.502277e-11 4.502277e-11 -1 122.7628 87.897)" fill-rule="evenodd" fill="#BE1622" width="6.61" height="11.07"/>
	
		<rect x="58.89" y="37.7" transform="matrix(-1 -4.485757e-11 4.485757e-11 -1 126.0722 85.4248)" fill-rule="evenodd" fill="#741518" width="8.29" height="10.02"/>
	
		<rect x="58.89" y="41.87" transform="matrix(-1 -4.488377e-11 4.488377e-11 -1 124.2437 86.9425)" fill-rule="evenodd" fill="#CD5261" width="6.46" height="3.19"/>
	
		<rect x="55.49" y="28.07" transform="matrix(-1 -4.496193e-11 4.496193e-11 -1 122.6727 58.1617)" fill-rule="evenodd" fill="#CD5261" width="11.69" height="2.02"/>
	<path fill-rule="evenodd" fill="#BE1622" d="M48.73,5.07h3.32V16.1h-3.32c-0.38,0-0.69-0.31-0.69-0.69V5.76
		C48.04,5.38,48.35,5.07,48.73,5.07z"/>
	<path fill-rule="evenodd" fill="#BE1622" d="M47.34,5.07h0.7V16.1h-0.7c-0.38,0-0.69-0.31-0.69-0.69V5.76
		C46.65,5.38,46.96,5.07,47.34,5.07z"/>
	<path fill-rule="evenodd" fill="#CD5261" d="M47.34,6.95h0.7v7.26h-0.7c-0.38,0-0.69-0.31-0.69-0.69V7.64
		C46.65,7.26,46.96,6.95,47.34,6.95z"/>
	
		<rect x="52.05" y="5.61" transform="matrix(-1 -4.476698e-11 4.476698e-11 -1 105.019 20.3321)" fill-rule="evenodd" fill="#741518" width="0.91" height="9.1"/>
	<path fill="#CD5261" d="M50.75,36.21c0.51,0,0.92,2.85,0.92,6.36c0,3.51-0.41,6.36-0.92,6.36H38.34V36.21H50.75z"/>
	<path fill="#BE1622" d="M11.41,40.79h24.37c0.36,0,0.67,0.41,0.82,1H11.41V40.79z"/>
	<path fill="#CD5261" d="M36.61,41.8c0.06,0.24,0.1,0.49,0.1,0.77c0,0.98-0.41,1.78-0.92,1.78H11.41V41.8H36.61z"/>
	<path fill="#741518" d="M8.41,42.57c0,0,2.27-6.1,2.27-19.29c0-0.36,0.26-2.73,0.26-2.73l-1.26-1.08c0,0-2.45,6.85-7.49,10.71v1.75
		c0,0,4.79,5.31,4.79,8.86L8.41,42.57z"/>
	<path fill="#741518" d="M10.94,65.21c0,0,0.82-12.05-1.55-20.86l-0.98-1.78c0,0-4.07-0.85-8.16,0v0.81c0,0,6.15,6.69,7.96,14.52
		C8.21,57.89,10.78,61.14,10.94,65.21z"/>
	<path fill="#CD5261" d="M12.85,40.79c0.56,0,1.01,0.8,1.01,1.78c0,0.98-0.45,1.78-1.01,1.78H6.91v-3.55H12.85z"/>
	<g>
		<path fill="#741518" d="M31.24,41.27h2.29v4.22h-2.37c0,0-0.3,0.35-0.53,0.88h-0.28V39.4h0.02
			C30.45,40.51,31.24,41.27,31.24,41.27z"/>
		<path fill-rule="evenodd" fill="#CD5261" d="M33.52,41.27h-2.37c0,0-0.82,0.93-0.82,2.15s0.9,2.07,0.9,2.07h2.29V41.27z"/>
		<path fill="#BE1622" d="M30.36,39.4h3.16v1.87h-2.29C31.24,41.27,30.45,40.51,30.36,39.4z"/>
		<path fill="#BE1622" d="M33.52,45.49v0.88h-2.9c0.24-0.54,0.53-0.88,0.53-0.88H33.52z"/>
	</g>
	<path fill="#CD5261" d="M6.12,52.15c0,0,0.94-3.37,0.85-7.8h4.44c0,0-4.6,7.1-4.44,9.7L6.12,52.15z"/>
	<path fill="none" stroke="#F3F2F2" stroke-miterlimit="10" d="M10.94,65.21c0,0,0.01-3.89-2.73-7.31c0,0-1.08-6.49-7.96-14.52
		v-0.81"/>
	<path fill="none" stroke="#F3F2F2" stroke-miterlimit="10" d="M8.93,40.79c0,0,1.54-4.64,1.75-17c0,0,0-1.6,0.26-3.25"/>
	
		<rect x="60.76" y="30.09" transform="matrix(-1 -4.479096e-11 4.479096e-11 -1 123.0984 67.7934)" fill="#CD5261" width="1.58" height="7.61"/>
</g>
</svg>
