<svg width="1450" height="640" xmlns="http://www.w3.org/2000/svg" xmlns:xlink="http://www.w3.org/1999/xlink" preserveAspectRatio="xMidYMid meet">
 <defs>
  <path d="m310.359985,170.559998c-2.72998,3.949997 -4.319977,8.059998 -4.319977,12.320007c0,3.679993 0,33.080002 0,36.759995c0,28.399994 64.690002,51.439987 144.440002,51.439987c79.809967,0 144.519989,-23.039993 144.519989,-51.439987c0,-3.679993 0,-33.080002 0,-36.759995c0,-4.26001 -1.619995,-8.37001 -4.369995,-12.320007c-15.51001,22.449997 -72.280029,39.119995 -140.149994,39.119995c-67.790009,0 -124.610016,-16.659988 -140.120026,-39.119995l0.000001,0z" id="a1xOMDznA"/>
  <path d="m310.359985,246.509995c-2.72998,3.930008 -4.319977,8.040009 -4.319977,12.289993c0,3.680023 0,33.110016 0,36.790009c0,28.410004 64.690002,51.440002 144.440002,51.440002c79.809967,0 144.519989,-23.019989 144.519989,-51.440002c0,-3.679993 0,-33.109985 0,-36.790009c0,-4.249985 -1.619995,-8.359985 -4.369995,-12.279984c-15.51001,22.409988 -72.280029,39.089981 -140.149994,39.089981c-67.790009,0 -124.610016,-16.679993 -140.120026,-39.099991l0.000001,0.000001z" id="a2bRF1pue7"/>
  <path d="m450.480011,134.5c-75.960022,0 -137.690002,-16.650002 -140.52002,-37.449997c-2.47998,3.779999 -3.919983,7.729996 -3.919983,11.779999c0,3.68 0,33.080002 0,36.759995c0,28.410004 64.690002,51.430008 144.440002,51.430008c79.809967,0 144.519989,-23.01001 144.519989,-51.430008c0,-3.679993 0,-33.079994 0,-36.759995c0,-4.050003 -1.469971,-8 -3.950012,-11.790001c-2.839966,20.809998 -64.559998,37.459999 -140.569977,37.459999l0.000001,0z" id="be6kjtzYl"/>
  <path d="m591.289978,83.910004c0,-21.490005 -63.029968,-38.910004 -140.809967,-38.910004c-77.730011,0.009998 -140.77002,17.43 -140.77002,38.919998c0,21.510002 63.040009,38.919998 140.77002,38.919998c77.779999,0 140.809967,-17.409996 140.809967,-38.929993l0,0.000001z" id="bdMHVcaT7"/>
  <path d="m446.839996,441.640015c-0.139984,-0.26001 -0.290009,-0.51001 -0.5,-0.870026c-6.669983,-10.699982 -9.169983,-37.389984 -10.660004,-53.339996c-0.22998,-2.399994 -0.440002,-4.690002 -0.660004,-6.829987c-0.019989,-0.220001 -0.039978,-0.429993 -0.089996,-0.76001c-3.419983,-24.019989 -11.919983,-58.660004 -32.98999,-87.26001c-14.570007,-19.789978 -32.670013,-33.159973 -53.880005,-39.799988c-2.179993,-15.429993 -15.440002,-27.330002 -31.410004,-27.330002c-15.97998,0 -29.22998,11.900009 -31.410004,27.330002c-21.209991,6.640015 -39.309998,20.01001 -53.889984,39.799988c-21.060013,28.590027 -29.560013,63.240021 -32.980011,87.26001c-0.009995,0.019989 -0.029999,0.170013 -0.029999,0.190002c-0.019989,0.209991 -0.050003,0.410004 -0.059998,0.559998c-0.220001,2.149994 -0.429993,4.440002 -0.660004,6.830017c-1.48999,15.959991 -3.98999,42.659973 -10.720001,53.449982c-0.119995,0.200012 -0.229996,0.399994 -0.399994,0.690002c-1.779999,3.220001 -5.380005,6.390015 -9.190002,9.73999c-9.369995,8.240021 -28.869995,25.390015 -12.809998,55.320007c3.110001,5.789978 9.119995,9.390015 15.669998,9.390015c27.300003,0 245.659988,0 272.960007,0c6.549988,0 12.559998,-3.600037 15.669983,-9.390015c16.059998,-29.929993 -3.429993,-47.070007 -12.799988,-55.320007c-3.820007,-3.349976 -7.420013,-6.519989 -9.160004,-9.659973l0.000002,0.000001z" id="bbevaGQ50"/>
  <path d="m284.51001,545.909973c-2.589996,0 -5.029999,1.140015 -6.690002,3.120056c-3.110016,3.719971 -2.240021,8.679993 -1.720001,11.639954c0,0.02002 0.040009,0.210022 0.040009,0.23999c3.439972,19.75 20.459991,34.090027 40.469971,34.090027c20.390015,0 37.880005,-15.26001 40.690002,-35.460022c0,-0.029968 0.050018,-0.299988 0.059998,-0.329956c0.350006,-1.840027 1.160004,-6.130005 -1.869995,-9.800049c-1.079987,-1.309998 -3.529999,-3.5 -7.839996,-3.5c0,0 -56.820007,0 -63.139984,0l-0.000002,0z" id="aiiX7dToj"/>
  <path d="m177.529999,87.669998c-35.490005,5.830002 -68.269997,23.840004 -92.299995,50.699997c-24.110004,26.970001 -38.010002,60.350006 -40.190002,96.51001c-0.780003,13.029999 9.110001,24.22998 22.089996,25.01001c0.490005,0.029999 0.970001,0.049988 1.440002,0.049988c12.360001,0 22.739998,-9.669998 23.489998,-22.210007c1.529999,-25.409988 11.300003,-48.860001 28.240005,-67.800003c17.119995,-19.159988 39.539993,-31.479996 64.839996,-35.62999c12.839996,-2.110001 21.539993,-14.260002 19.440002,-27.139999c-2.100006,-12.870003 -14.210007,-21.610001 -27.050003,-19.490005l0.000001,-0.000001z" id="d5hrMaKs"/>
  <path d="m190.570007,234.610001c9.119995,-10.199997 21.059998,-16.759995 34.529999,-18.979996c12.839996,-2.110001 21.539993,-14.25 19.439987,-27.130005c-2.099991,-12.880005 -14.199997,-21.619995 -27.049988,-19.5c-23.840012,3.910004 -45.850006,16.009995 -61.990005,34.050003c-15.960007,17.860001 -25.550003,40.869995 -26.990005,64.819992c-0.779991,13.02002 9.110001,24.220001 22.090012,25.01001c0.48999,0.019989 0.959991,0.040009 1.439987,0.040009c12.360001,0 22.740005,-9.670013 23.490005,-22.210022c0.820007,-13.529999 6.020004,-26.009995 15.040009,-36.099991l-0.000001,0z" id="e8eDubI0FA"/>
 </defs>
 <g>
  <g id="svg_1">
   <g id="svg_4">
    <use xlink:href="#a1xOMDznA" fill="#ffffff" id="svg_5"/>
    <g id="svg_6">
     <use xlink:href="#a1xOMDznA" fill-opacity="0" stroke="#000000" stroke-width="0.14" stroke-opacity="0" id="svg_7"/>
    </g>
   </g>
   <g id="svg_8">
    <use xlink:href="#a2bRF1pue7" fill="#ffffff" id="svg_9"/>
    <g id="svg_10">
     <use xlink:href="#a2bRF1pue7" fill-opacity="0" stroke="#000000" stroke-width="0.14" stroke-opacity="0" id="svg_11"/>
    </g>
   </g>
   <g id="svg_12">
    <use xlink:href="#be6kjtzYl" fill="#ffffff" id="svg_13"/>
    <g id="svg_14">
     <use xlink:href="#be6kjtzYl" fill-opacity="0" stroke="#000000" stroke-width="0.14" stroke-opacity="0" id="svg_15"/>
    </g>
   </g>
   <g id="svg_16">
    <use xlink:href="#bdMHVcaT7" fill="#ffffff" id="svg_17"/>
    <g id="svg_18">
     <use xlink:href="#bdMHVcaT7" fill-opacity="0" stroke="#000000" stroke-width="0.14" stroke-opacity="0" id="svg_19"/>
    </g>
   </g>
   <g id="svg_20">
    <use xlink:href="#bbevaGQ50" fill="#ffffff" id="svg_21"/>
    <g id="svg_22">
     <use xlink:href="#bbevaGQ50" fill-opacity="0" stroke="#000000" stroke-width="0.26" stroke-opacity="0" id="svg_23"/>
    </g>
   </g>
   <g id="svg_24">
    <use xlink:href="#aiiX7dToj" fill="#ffffff" id="svg_25"/>
    <g id="svg_26">
     <use xlink:href="#aiiX7dToj" fill-opacity="0" stroke="#000000" stroke-width="0.26" stroke-opacity="0" id="svg_27"/>
    </g>
   </g>
   <g id="svg_28">
    <use xlink:href="#d5hrMaKs" fill="#ffffff" id="svg_29"/>
    <g id="svg_30">
     <use xlink:href="#d5hrMaKs" fill-opacity="0" stroke="#000000" stroke-width="0.26" stroke-opacity="0" id="svg_31"/>
    </g>
   </g>
   <g id="svg_32">
    <use xlink:href="#e8eDubI0FA" fill="#ffffff" id="svg_33"/>
    <g id="svg_34">
     <use xlink:href="#e8eDubI0FA" fill-opacity="0" stroke="#000000" stroke-width="0.26" stroke-opacity="0" id="svg_35"/>
    </g>
   </g>
  </g>
  <g id="svg_37">
   <text font-weight="bold" xml:space="preserve" text-anchor="start" font-family="'Trebuchet MS', Gadget, sans-serif" font-size="110" id="svg_2" y="268.184184" x="730" stroke-width="null" stroke="#ffffff" fill="#ffffff">Alarm</text>
   <text font-weight="bold" xml:space="preserve" text-anchor="start" font-family="'Trebuchet MS', Gadget, sans-serif" font-size="150" id="svg_3" y="442.729019" x="730" stroke-width="null" stroke="#ffffff" fill="#ffffff">HISTORIE</text>
  </g>
 </g>
</svg>