<svg width="1540" height="640" xmlns="http://www.w3.org/2000/svg" preserveAspectRatio="xMidYMid meet">
 <defs>
  <path id="ebhoJeEao" d="m441,66.15c0,-11.65 9.85998,-21.15 22,-21.15c11,0 99,0 110,0c12.12,0 22,9.5 22,21.15c0,50.77 0,456.93002 0,507.69998c0,11.65002 -9.88,21.15002 -22,21.15002c-7.33002,0 -44,0 -110,0c-14.67001,-6.33002 -22,-13.38 -22,-21.15002c0,-50.76996 0,-456.92998 0,-507.69998z"/>
  <path id="awQeqoTxE" d="m256,191.83c0,-11.66 9.85998,-21.16 22,-21.16c11,0 99,0 110,0c12.12,0 22,9.5 22,21.16c0,38.06999 0,342.69002 0,380.76998c0,11.65002 -9.88,21.15002 -22,21.15002c-7.32999,0 -44,0 -110,0c-14.67001,-6.33002 -22,-13.38 -22,-21.15002c0,-38.07996 0,-342.69999 0,-380.76998z"/>
  <path id="a20riFUTuB" d="m45,320c0,-11.66 9.86,-21.14999 22,-21.14999c11,0 99,0 110,0c12.11999,0 22,9.48999 22,21.14999c0,25.38 0,228.46002 0,253.84998c0,11.65002 -9.88001,21.15002 -22,21.15002c-7.33,0 -44,0 -110,0c-14.67,-6.33002 -22,-13.38 -22,-21.15002c0,-25.38996 0,-228.46998 0,-253.84998z"/>
 </defs>
 <g>
  <text fill="#B3C8E0" x="793.52498" y="301.64693" id="svg_2" font-size="180" font-family="'Trebuchet MS', Gadget, sans-serif" text-anchor="start" xml:space="preserve" font-weight="bold">AUDIT</text>
  <g>
   <g>
    <g id="svg_23">
     <path d="m560.17234,494.063l-126.914,-126.91c18.263,-30.165 28.976,-65.391 28.976,-103.153c0,-110.281 -89.719,-200 -200,-200c-110.281,0 -200,89.719 -200,200c0,110.281 89.719,200 200,200c37.762,0 72.984,-10.711 103.148,-28.973l126.914,126.91c9.376,9.376 21.657,14.063 33.938,14.063c12.281,0 24.563,-4.688 33.938,-14.063c18.75,-18.742 18.75,-49.132 0,-67.874zm-433.938,-230.063c0,-74.992 61.016,-136 136,-136s136,61.008 136,136s-61.016,136 -136,136s-136,-61.008 -136,-136z" fill="#b3c8e0" id="svg_24"/>
    </g>
     <path fill="#b3c8e0" d="m194.69518,237.30327c9.74707,-4.09748 20.59982,4.22112 27.42307,15.02714c0.09046,5.68463 2.84046,10.67597 6.19887,14.68095l-13.057,9.34251c-17.57016,-6.16728 -35.04276,-29.13936 -23.54612,-37.36637a14.86274,11.51076 0 0 1 2.98827,-1.6792l-0.0071,-0.00504l0.00001,0.00001zm38.21964,34.09681l-13.29528,9.50644c16.24808,22.35892 38.98829,-0.14653 13.29469,-9.50644l0.00059,0zm51.83658,52.16638a14.86214,11.51031 0 0 0 -2.98827,1.67965c-11.49664,8.22655 5.97537,31.19817 23.54612,37.36545l13.057,-9.34251c-3.35841,-4.00498 -6.1019,-8.99586 -6.20005,-14.68095c-6.82206,-10.80557 -17.67481,-19.12416 -27.42307,-15.02714l0.00828,0.0055l-0.00001,0zm38.21964,34.09773l-13.29587,9.50507c16.24808,22.34839 38.98948,-0.15203 13.28819,-9.50553l0.00769,0.00046l-0.00001,0zm-38.53538,-108.9541c-8.67629,5.34852 -3.02257,16.33268 7.1514,25.41554c6.71682,2.28686 11.5806,6.1943 15.03006,10.15028l16.22029,-5.66311c-0.47597,-14.93556 -20.95695,-36.36352 -35.22487,-31.37676a14.86214,11.51031 0 0 0 -3.16329,1.47359l-0.0136,0.00046l0.00001,0zm25.61083,40.56266c1.09148,21.97472 36.72196,14.54495 16.48459,-5.7666l-16.48459,5.7666zm-122.21536,-120.62697c-6.68962,6.84913 2.30181,16.38167 15.04366,23.24774c7.24305,0.92134 13.20423,3.79342 17.80903,6.94758l13.88182,-8.59976c-5.21263,-14.37781 -31.91494,-31.22565 -44.13825,-23.63927a14.86214,11.51031 0 0 0 -2.59685,2.03225l0.00059,0.01145l0,0.00001zm37.78506,34.3734c8.08856,21.08086 40.23469,7.04512 14.12779,-8.75179l-14.12069,8.75179l-0.0071,0z" stroke="null"/>
   </g>
  </g>
  <text fill="#B3C8E0" x="793.52585" y="493.41194" id="svg_25" font-size="150" font-family="'Trebuchet MS', Gadget, sans-serif" text-anchor="start" xml:space="preserve" font-weight="bold">TRAIL</text>
 </g>
</svg>