<svg width="495.398" height="495.398" xmlns="http://www.w3.org/2000/svg">
 <g>
  <path id="svg_4" fill="#B3C8E0" d="m487.083008,225.514008l-75.079987,-75.080002l0,-86.730007c0,-15.681999 -12.708008,-28.390999 -28.413025,-28.390999c-15.668976,0 -28.376984,12.708996 -28.376984,28.390999l0,29.940998l-55.903015,-55.904995c-27.639008,-27.624001 -75.694,-27.575001 -103.269989,0.049999l-187.728008,187.724007c-11.082,11.104004 -11.082,29.070999 0,40.15799c11.087,11.101013 29.089001,11.101013 40.172001,0l187.710014,-187.728989c6.11499,-6.083008 16.89299,-6.083008 22.975998,-0.018005l187.742004,187.746994c5.566986,5.550995 12.824982,8.312012 20.080994,8.312012c7.270996,0 14.541016,-2.764008 20.091003,-8.312012c11.085999,-11.085999 11.085999,-29.052994 -0.001007,-40.15799z"/>
  <path id="svg_5" fill="#B3C8E0" d="m257.561005,131.835999c-5.453995,-5.451004 -14.285004,-5.451004 -19.723007,0l-165.125999,165.076996c-2.607002,2.605988 -4.084999,6.164001 -4.084999,9.877014l0,120.401001c0,28.252991 22.907997,51.159973 51.159996,51.159973l81.754005,0l0,-126.609985l92.298996,0l0,126.609985l81.755005,0c28.251007,0 51.158997,-22.906982 51.158997,-51.158997l0,-120.401978c0,-3.713013 -1.464996,-7.270996 -4.084991,-9.877014l-165.108002,-165.076996z"/>
 </g>
</svg>