<?xml version="1.0" encoding="UTF-8" standalone="no"?>
<svg
   xmlns:dc="http://purl.org/dc/elements/1.1/"
   xmlns:cc="http://creativecommons.org/ns#"
   xmlns:rdf="http://www.w3.org/1999/02/22-rdf-syntax-ns#"
   xmlns:svg="http://www.w3.org/2000/svg"
   xmlns="http://www.w3.org/2000/svg"
   xmlns:xlink="http://www.w3.org/1999/xlink"
   xmlns:sodipodi="http://sodipodi.sourceforge.net/DTD/sodipodi-0.dtd"
   xmlns:inkscape="http://www.inkscape.org/namespaces/inkscape"
   width="640"
   height="640"
   preserveAspectRatio="xMidYMid meet"
   version="1.1"
   id="svg30"
   sodipodi:docname="fp_cerrar_blanco_off.svg"
   inkscape:version="0.92.5 (2060ec1f9f, 2020-04-08)">
  <metadata
     id="metadata34">
    <rdf:RDF>
      <cc:Work
         rdf:about="">
        <dc:format>image/svg+xml</dc:format>
        <dc:type
           rdf:resource="http://purl.org/dc/dcmitype/StillImage" />
        <dc:title></dc:title>
      </cc:Work>
    </rdf:RDF>
  </metadata>
  <sodipodi:namedview
     pagecolor="#ffffff"
     bordercolor="#666666"
     borderopacity="1"
     objecttolerance="10"
     gridtolerance="10"
     guidetolerance="10"
     inkscape:pageopacity="0"
     inkscape:pageshadow="2"
     inkscape:window-width="1920"
     inkscape:window-height="1017"
     id="namedview32"
     showgrid="false"
     inkscape:zoom="0.36875"
     inkscape:cx="-180.33898"
     inkscape:cy="320"
     inkscape:window-x="-8"
     inkscape:window-y="-8"
     inkscape:window-maximized="1"
     inkscape:current-layer="svg30"
     inkscape:pagecheckerboard="true" />
  <defs
     id="defs5">
    <path
       d="m343.570007,6.91l12.089996,1.23l11.940002,1.71l11.779999,2.17l11.630005,2.629999l11.449982,3.07l11.26001,3.51l11.070007,3.940001l10.869995,4.360001l10.660004,4.76l10.429993,5.16l10.200012,5.549999l9.959991,5.93l9.709991,6.290001l9.440002,6.649998l9.179993,7.009998l8.890015,7.340004l8.599976,7.669998l8.300049,7.989998l7.98999,8.300003l7.679993,8.610001l7.339966,8.889999l7,9.170006l6.660034,9.449997l6.289978,9.709991l5.929993,9.950012l5.540039,10.209991l5.159973,10.430008l4.77002,10.649994l4.349976,10.869995l3.940002,11.070007l3.51001,11.270004l3.080017,11.449997l2.619995,11.619995l2.179993,11.790009l1.700012,11.940002l1.22998,12.089996l0.75,12.220001l0.25,12.350006l-0.25,12.339996l-0.75,12.22998l-1.22998,12.080017l-1.700012,11.940002l-2.179993,11.789978l-2.619995,11.620026l-3.080017,11.449982l-3.51001,11.27002l-3.940002,11.069977l-4.349976,10.869995l-4.77002,10.650024l-5.159973,10.440002l-5.540039,10.199982l-5.929993,9.959991l-6.289978,9.700012l-6.660034,9.450012l-7,9.169983l-7.339966,8.890015l-7.679993,8.609985l-7.98999,8.300018l-8.300049,7.98999l-8.599976,7.669983l-8.890015,7.340027l-9.179993,7.01001l-9.440002,6.649963l-9.709991,6.299988l-9.959991,5.920044l-10.200012,5.549988l-10.429993,5.159973l-10.660004,4.76001l-10.869995,4.359985l-11.070007,3.940002l-11.26001,3.51001l-11.449982,3.070007l-11.630005,2.630005l-11.779999,2.169983l-11.940002,1.710022l-12.089996,1.22998l-12.220001,0.73999l-12.350006,0.25l-12.350006,-0.25l-12.220001,-0.73999l-12.089996,-1.22998l-11.940002,-1.710022l-11.779999,-2.169983l-11.62999,-2.630005l-11.450012,-3.070007l-11.259995,-3.51001l-11.069992,-3.940002l-10.87001,-4.359985l-10.660004,-4.76001l-10.429993,-5.159973l-10.199997,-5.549988l-9.960007,-5.920044l-9.709991,-6.299988l-9.440002,-6.649963l-9.180008,-7.01001l-8.889992,-7.340027l-8.600006,-7.669983l-8.299995,-7.98999l-7.989998,-8.300018l-7.68,-8.609985l-7.340004,-8.890015l-7,-9.169983l-6.659996,-9.450012l-6.290001,-9.700012l-5.93,-9.959991l-5.540001,-10.199982l-5.16,-10.440002l-4.77,-10.650024l-4.350002,-10.869995l-3.939999,-11.069977l-3.51,-11.27002l-3.08,-11.449982l-2.619999,-11.620026l-2.18,-11.789978l-1.700001,-11.940002l-1.23,-12.080017l-0.75,-12.22998l-0.25,-12.339996l0.25,-12.350006l0.75,-12.220001l1.23,-12.089996l1.700001,-11.940002l2.18,-11.790009l2.619999,-11.619995l3.08,-11.449997l3.51,-11.270004l3.939999,-11.070007l4.350002,-10.869995l4.77,-10.649994l5.16,-10.430008l5.540001,-10.209991l5.93,-9.950012l6.290001,-9.709991l6.659996,-9.449997l7,-9.170006l7.340004,-8.889999l7.68,-8.610001l7.989998,-8.300003l8.299995,-7.989998l8.600006,-7.669998l8.889992,-7.340004l9.180008,-7.009998l9.440002,-6.649998l9.709991,-6.290001l9.960007,-5.93l10.199997,-5.549999l10.429993,-5.16l10.660004,-4.76l10.87001,-4.360001l11.069992,-3.940001l11.259995,-3.51l11.450012,-3.07l11.62999,-2.629999l11.779999,-2.17l11.940002,-1.71l12.089996,-1.23l12.220001,-0.74l12.350006,-0.26l12.350006,0.26l12.220001,0.74zm-41.350006,94.820011l-8.25,0.839989l-8.160004,1.169998l-8.049988,1.480003l-7.930023,1.799995l-7.819977,2.100014l-7.690002,2.389992l-7.560013,2.689995l-7.429993,2.980003l-7.270004,3.25l-7.130005,3.519997l-6.959991,3.790001l-6.800003,4.049995l-6.630005,4.300003l-6.449997,4.540009l-6.269989,4.779999l-6.070007,5.019989l-5.869995,5.230011l-5.669998,5.459991l-5.460007,5.669998l-5.240005,5.880005l-5.009995,6.070007l-4.779999,6.259995l-4.550003,6.449997l-4.300003,6.630005l-4.039993,6.800003l-3.790009,6.970001l-3.529999,7.119995l-3.25,7.279999l-2.969994,7.419998l-2.690002,7.559998l-2.400002,7.690002l-2.099998,7.819992l-1.790001,7.940002l-1.489998,8.050018l-1.159996,8.149994l-0.840004,8.26001l-0.510002,8.339996l-0.169998,8.440002l0.169998,8.429993l0.510002,8.339996l0.840004,8.26001l1.159996,8.149994l1.489998,8.049988l1.790001,7.940002l2.099998,7.820007l2.400002,7.690002l2.690002,7.559998l2.969994,7.419983l3.25,7.279999l3.529999,7.120026l3.790009,6.970001l4.039993,6.799988l4.300003,6.630005l4.550003,6.449982l4.779999,6.26001l5.009995,6.070007l5.240005,5.880005l5.460007,5.669983l5.669998,5.460022l5.869995,5.22998l6.070007,5.02002l6.269989,4.779999l6.449997,4.539978l6.630005,4.300018l6.800003,4.049988l6.959991,3.790009l7.130005,3.519989l7.270004,3.25l7.429993,2.980011l7.560013,2.690002l7.690002,2.389984l7.819977,2.100006l7.930023,1.799988l8.049988,1.480011l8.160004,1.170013l8.25,0.839996l8.350006,0.509979l8.429993,0.170013l8.429993,-0.170013l8.350006,-0.509979l8.25,-0.839996l8.160004,-1.170013l8.049988,-1.480011l7.930023,-1.799988l7.819977,-2.100006l7.690002,-2.389984l7.559998,-2.690002l7.430023,-2.980011l7.269989,-3.25l7.130005,-3.519989l6.959991,-3.790009l6.799988,-4.049988l6.630005,-4.300018l6.450012,-4.539978l6.269989,-4.779999l6.070007,-5.02002l5.869995,-5.23999l5.670013,-5.450012l5.459991,-5.669983l5.23999,-5.880005l5.01001,-6.070007l4.779999,-6.26001l4.549988,-6.449982l4.300018,-6.630005l4.040009,-6.799988l3.789978,-6.970001l3.529999,-7.120026l3.25,-7.279999l2.970001,-7.419983l2.690033,-7.559998l2.399963,-7.690002l2.100037,-7.820007l1.789978,-7.940002l1.48999,-8.049988l1.160034,-8.149994l0.839966,-8.26001l0.51001,-8.339996l0.169983,-8.429993l-0.169983,-8.440002l-0.51001,-8.339996l-0.839966,-8.26001l-1.160034,-8.149994l-1.48999,-8.050018l-1.789978,-7.940002l-2.100037,-7.819992l-2.399963,-7.690002l-2.690033,-7.559998l-2.970001,-7.419998l-3.25,-7.279999l-3.529999,-7.119995l-3.789978,-6.970001l-4.040009,-6.800003l-4.300018,-6.630005l-4.549988,-6.449997l-4.779999,-6.259995l-5.01001,-6.070007l-5.23999,-5.880005l-5.459991,-5.669998l-5.670013,-5.459991l-5.869995,-5.230011l-6.070007,-5.019989l-6.269989,-4.779999l-6.450012,-4.540009l-6.630005,-4.300003l-6.799988,-4.049995l-6.959991,-3.790001l-7.130005,-3.519997l-7.269989,-3.25l-7.430023,-2.980003l-7.559998,-2.689995l-7.690002,-2.389999l-7.819977,-2.100006l-7.930023,-1.799995l-8.049988,-1.480003l-8.160004,-1.169998l-8.25,-0.839989l-8.350006,-0.51001l-8.429993,-0.169991l-8.429993,0.169991l-8.350006,0.51001z"
       id="a1cmvLBBPC" />
    <path
       d="m280.01001,187.679993c10.669983,0 19.299988,8.830002 19.299988,19.710007c0,19.710007 0,177.340012 0,197.039993c0,10.890015 -8.630005,19.720001 -19.299988,19.720001c-4.02002,0 -36.220016,0 -40.240005,0c-10.669998,0 -19.300003,-8.829987 -19.300003,-19.720001c0,-19.699982 0,-177.329987 0,-197.039993c0.020004,-10.880005 8.630005,-19.710007 19.300003,-19.710007c0,0 36.219986,0 40.240005,0z"
       id="bjCgs8ehv" />
    <path
       d="m398.230011,187.679993c10.669983,0 19.299988,8.830002 19.299988,19.710007c0,19.710007 0,177.340012 0,197.039993c0,10.890015 -8.630005,19.720001 -19.299988,19.720001c-4.02002,0 -36.220001,0 -40.240021,0c-10.669983,0 -19.299988,-8.829987 -19.299988,-19.720001c0,-19.699982 0,-177.329987 0,-197.039993c0.019989,-10.880005 8.630005,-19.710007 19.299988,-19.710007c0,0 36.220001,0 40.240021,0z"
       id="d7CKT4tzrz" />
    <defs
       id="defs18">
      <path
         inkscape:connector-curvature="0"
         d="m 344.57001,21 12.08999,1.23 11.94,1.710001 11.78,2.17 11.63001,2.629999 11.44998,3.07 11.26001,3.51 11.07001,3.939999 L 436.66,43.62 l 10.66001,4.760002 10.42999,5.16 10.20001,5.549999 9.95999,5.929996 9.70999,6.290001 9.44001,6.650002 9.17999,7.010002 8.89001,7.339996 8.59998,7.670006 8.30005,7.989996 7.98999,8.3 7.67999,8.61 7.33997,8.89 7,9.17 6.66003,9.45 6.28998,9.71001 5.92999,9.94999 5.54004,10.20999 5.15997,10.43001 4.77002,10.65 4.34998,10.87001 3.94,11.06999 3.51001,11.27 3.08002,11.45 2.61999,11.61999 2.18,11.79001 1.70001,11.94001 L 619,295.44 l 0.75,12.22 0.25,12.35001 -0.25,12.33999 -0.75,12.22998 -1.22998,12.08002 -1.70001,11.94 -2.18,11.79001 -2.61999,11.62 -3.08002,11.44998 -3.51001,11.27002 -3.94,11.06998 -4.34998,10.87002 -4.77002,10.65 -5.15997,10.44 -5.54004,10.19998 -5.92999,9.96002 -6.28998,9.69998 -6.66003,9.45002 -7,9.16998 -7.33997,8.89001 -7.67999,8.60999 -7.98999,8.29999 -8.30005,7.99005 -8.59998,7.66998 -8.89001,7.33997 -9.17999,7.01001 -9.44001,6.65002 L 477.91,575 467.95001,580.91998 457.75,586.46997 447.32001,591.63 436.66,596.39001 425.79001,600.75 414.72,604.69 l -11.26001,3.51001 -11.44998,3.07001 -11.63001,2.63 -11.78,2.16999 -11.94,1.71002 -12.08999,1.22998 -12.22,0.73999 L 320,620 l -12.35001,-0.25 -12.22,-0.73999 -12.08999,-1.22998 -11.94001,-1.71002 -11.77999,-2.16999 -11.62999,-2.63 -11.45002,-3.07001 L 225.28,604.69 214.21001,600.75 203.34,596.39001 192.67999,591.63 182.25,586.46997 172.05,580.91998 162.09,575 l -9.71,-6.29999 -9.44,-6.65002 -9.18001,-7.01001 -8.88999,-7.33997 -8.6,-7.66998 -8.3,-7.99005 -7.989996,-8.29999 -7.68,-8.60999 -7.340004,-8.89001 -7,-9.16998 -6.659996,-9.45002 -6.290001,-9.69998 -5.93,-9.96002 -5.540001,-10.19998 -5.16,-10.44 -4.77,-10.65 -4.350002,-10.87002 -3.939999,-11.06998 -3.51,-11.27002 -3.08,-11.44998 -2.619999,-11.62 -2.18,-11.79001 -1.700001,-11.94 -1.23,-12.08002 -0.75,-12.22998 -0.25,-12.33999 0.25,-12.35001 0.75,-12.22 1.23,-12.08999 1.700001,-11.94001 2.18,-11.79001 L 28.730001,248 l 3.08,-11.45 3.51,-11.27 L 39.26,214.21001 43.610002,203.34 l 4.77,-10.65 5.16,-10.43001 5.540001,-10.20999 5.93,-9.94999 6.290001,-9.71001 6.659996,-9.45 7,-9.17 7.340004,-8.89 7.68,-8.61 7.989996,-8.3 8.3,-7.989996 8.6,-7.670006 8.88999,-7.339996 L 142.94,77.96 l 9.44,-6.650002 9.71,-6.290001 9.96,-5.929996 10.2,-5.549999 10.42999,-5.16 L 203.34,43.62 214.21001,39.259999 225.28,35.32 l 11.25999,-3.51 11.45002,-3.07 11.62999,-2.629999 11.77999,-2.17 L 283.34,22.23 295.42999,21 307.64999,20.26 320,20 l 12.35001,0.26 z m -41.35001,94.82 -8.25,0.84 -8.16,1.17 -8.04999,1.48 -7.93002,1.8 -7.81998,2.1 -7.69,2.39 -7.56002,2.68999 -7.42999,2.98001 -7.27,3.25 -7.13001,3.51999 -6.95999,3.79001 -6.8,4.05 -6.63001,4.29999 -6.44999,4.54001 -6.26999,4.78 -6.07001,5.02001 -5.87,5.22999 -5.66999,5.46001 -5.46001,5.67 -5.24001,5.87999 -5.00999,6.07 -4.78,6.26 -4.55,6.44999 -4.30001,6.63001 -4.03999,6.8 -3.79001,6.97 -3.53,7.12 -3.25,7.28 -2.97,7.42 -2.68999,7.56001 -2.4,7.69 -2.1,7.81998 -1.79,7.94 -1.49,8.05002 -1.16,8.14999 -0.84,8.26001 -0.51,8.34 -0.17,8.44 0.17,8.42999 0.51,8.34 0.84,8.26001 1.16,8.14999 1.49,8.04999 1.79,7.94 2.1,7.82001 2.4,7.69 2.68999,7.56 2.97,7.42001 3.25,7.28 3.53,7.12 3.79001,6.97 4.03999,6.79999 4.30001,6.63 4.55,6.45001 4.78,6.25998 5.00999,6.07001 5.24001,5.88 5.46001,5.66999 5.66999,5.46002 5.87,5.22998 6.07001,5.02002 6.26999,4.78 6.44999,4.53998 6.63001,4.30001 6.8,4.04999 6.95999,3.79001 7.13001,3.51999 7.27,3.25 7.42999,2.98001 7.56002,2.68997 7.69,2.39002 7.81998,2.10003 7.93002,1.79999 8.04999,1.47998 8.16,1.16999 8.25,0.84002 8.35001,0.51001 L 320,524.87 l 8.42999,-0.16999 8.35001,-0.51001 8.25,-0.84002 8.16,-1.16999 8.04999,-1.47998 7.93002,-1.79999 7.81998,-2.10003 7.69,-2.39002 7.56,-2.68997 7.43002,-2.98001 7.26999,-3.25 7.13001,-3.51999 6.95999,-3.79001 6.79999,-4.04999 6.63,-4.30001 6.45001,-4.53998 6.26999,-4.78 6.07001,-5.02002 5.87,-5.23999 5.67001,-5.45001 5.45999,-5.66999 5.23999,-5.88 5.01001,-6.07001 4.78,-6.25998 4.54999,-6.45001 4.30001,-6.63 4.04001,-6.79999 3.78998,-6.97 3.53,-7.12 3.25,-7.28 2.97,-7.42001 2.69003,-7.56 2.39997,-7.69 2.10003,-7.82001 1.78998,-7.94 1.48999,-8.04999 1.16004,-8.14999 0.83996,-8.26001 0.51001,-8.34 0.16999,-8.42999 -0.16999,-8.44 -0.51001,-8.34 -0.83996,-8.26001 -1.16004,-8.14999 -1.48999,-8.05002 -1.78998,-7.94 -2.10003,-7.81998 -2.39997,-7.69 -2.69003,-7.56001 -2.97,-7.42 -3.25,-7.28 -3.53,-7.12 -3.78998,-6.97 -4.04001,-6.8 -4.30001,-6.63 -4.54999,-6.45 -4.78,-6.26 -5.01001,-6.07 -5.23999,-5.87999 -5.45999,-5.67 L 459.12,169.75 453.25,164.52001 447.17999,159.5 440.91,154.72 l -6.45001,-4.54001 -6.63,-4.29998 L 421.03,141.83 414.07001,138.03999 406.94,134.52 l -7.26999,-3.25 -7.43002,-2.98001 -7.56,-2.68999 -7.69,-2.39 -7.81998,-2.1 -7.93002,-1.8 -8.04999,-1.48 -8.16,-1.17 -8.25,-0.84 -8.35001,-0.51 -8.42999,-0.17 -8.42999,0.17 z"
         id="svg_16" />
      <path
         inkscape:connector-curvature="0"
         d="m 344.57001,20.99 12.08999,1.23 11.94,1.710001 11.78,2.17 11.63001,2.629999 11.44998,3.07 11.26001,3.510002 11.07001,3.939999 10.86999,4.360001 10.66001,4.759998 10.42999,5.16 10.20001,5.550003 9.95999,5.919998 9.70999,6.300003 9.44001,6.649994 9.17999,7.010002 8.89001,7.340004 8.59998,7.669998 8.30005,7.989998 7.98999,8.3 7.67999,8.61 7.33997,8.89 7,9.16999 6.66003,9.45002 6.28998,9.69999 5.92999,9.95999 5.54004,10.20002 5.15997,10.43998 4.77002,10.65001 4.34998,10.87 3.94,11.07 3.51001,11.26999 3.08002,11.45001 2.61999,11.61998 2.18,11.79001 1.70001,11.94001 1.22998,12.08001 0.75,12.22998 0.25,12.34 -0.25,12.35 -0.75,12.22001 -1.22998,12.08999 -1.70001,11.94 -2.18,11.79001 -2.61999,11.62 -3.08002,11.45001 -3.51001,11.26999 -3.94,11.07001 -4.34998,10.86999 -4.77002,10.65 -5.15997,10.42999 -5.54004,10.21002 -5.92999,9.94998 -6.28998,9.70999 -6.66003,9.45002 -7,9.17001 -7.33997,8.88998 -7.67999,8.60999 -7.98999,8.30005 -8.30005,7.98999 -8.59998,7.66998 -8.89001,7.34003 -9.17999,7.00995 -9.44001,6.65002 -9.70999,6.28998 -9.95999,5.92999 -10.20001,5.55005 -10.42999,5.15997 -10.66001,4.76001 -10.86999,4.35999 -11.07001,3.94 -11.26001,3.51001 -11.44998,3.07001 -11.63001,2.63 -11.78,2.16998 -11.94,1.71003 -12.08999,1.22998 -12.22,0.73999 L 320,620 307.64999,619.73999 295.42999,619 283.34,617.77002 271.39999,616.05999 259.62,613.89001 247.99001,611.26001 236.53999,608.19 225.28,604.67999 214.21001,600.73999 203.34,596.38 192.67999,591.61999 182.25,586.46002 l -10.2,-5.55005 -9.96,-5.92999 -9.71,-6.28998 -9.44,-6.65002 -9.18001,-7.00995 -8.88999,-7.34003 -8.6,-7.66998 -8.3,-7.98999 -7.989996,-8.30005 -7.68,-8.60999 -7.340004,-8.88998 -7,-9.17001 -6.659996,-9.45002 -6.290001,-9.70999 -5.93,-9.94998 -5.540001,-10.21002 -5.16,-10.42999 -4.77,-10.65 L 39.26,425.79001 35.320001,414.72 l -3.51,-11.26999 -3.08,-11.45001 -2.619999,-11.62 -2.18,-11.79001 -1.700001,-11.94 -1.23,-12.08999 -0.75,-12.22001 -0.25,-12.35 0.25,-12.34 0.75,-12.22998 1.23,-12.08001 1.700001,-11.94001 2.18,-11.79001 2.619999,-11.61998 3.08,-11.45001 3.51,-11.26999 3.939999,-11.07 4.350002,-10.87 4.77,-10.65001 5.16,-10.43998 5.540001,-10.20002 5.93,-9.95999 6.290001,-9.69999 6.659996,-9.45002 7,-9.16999 7.340004,-8.89 7.68,-8.61 7.989996,-8.3 8.3,-7.989998 8.6,-7.669998 8.88999,-7.340004 9.18001,-7.010002 9.44,-6.649994 9.71,-6.300003 9.96,-5.919998 L 182.25,53.53 192.67999,48.37 203.34,43.610002 214.21001,39.250001 225.28,35.310002 236.53999,31.8 247.99001,28.73 259.62,26.100001 l 11.77999,-2.17 L 283.34,22.22 l 12.08999,-1.23 12.22,-0.74 L 320,20 l 12.35001,0.25 z m -41.35001,94.82 -8.25,0.84 -8.16,1.17 -8.04999,1.48 -7.93002,1.8 -7.81998,2.1 -7.69,2.38999 -7.56002,2.69001 -7.42999,2.97999 -7.27,3.25 -7.13001,3.52001 -6.95999,3.79001 -6.8,4.04998 -6.63001,4.30001 -6.44999,4.54001 -6.26999,4.77999 -6.07001,5.01999 -5.87,5.23001 -5.66999,5.46 -5.46001,5.66999 -5.24001,5.88001 -5.00999,6.07001 -4.78,6.25999 -4.55,6.45 -4.30001,6.63 -4.03999,6.80001 -3.79001,6.96998 -3.53,7.12001 -3.25,7.28 -2.97,7.42 -2.68999,7.56 -2.4,7.69 -2.1,7.82001 -1.79,7.94 -1.49,8.04999 -1.16,8.14999 -0.84,8.26001 -0.51,8.34 -0.17,8.42999 0.17,8.44 0.51,8.34 0.84,8.26001 1.16,8.14999 1.49,8.05002 1.79,7.94 2.1,7.81998 2.4,7.69 2.68999,7.56 2.97,7.42001 3.25,7.28 3.53,7.12 3.79001,6.97 4.03999,6.79998 4.30001,6.63001 4.55,6.45001 4.78,6.26001 5.00999,6.06998 5.24001,5.88 5.46001,5.67002 5.66999,5.45999 5.87,5.23001 6.07001,5.01999 6.26999,4.78 6.44999,4.54 6.63001,4.29999 6.8,4.05002 6.95999,3.78998 7.13001,3.52002 7.27,3.25 7.42999,2.97998 7.56002,2.69003 7.69,2.38996 7.81998,2.10003 7.93002,1.79999 8.04999,1.47998 8.16,1.17004 8.25,0.83997 8.35001,0.51001 8.42999,0.16998 8.42999,-0.16998 8.35001,-0.51001 8.25,-0.83997 8.16,-1.17004 8.04999,-1.47998 7.93002,-1.79999 7.81998,-2.10003 7.69,-2.38996 7.56,-2.69003 7.43002,-2.97998 7.26999,-3.25 7.13001,-3.52002 6.95999,-3.78998 6.79999,-4.05002 6.63,-4.29999 6.45001,-4.54 6.26999,-4.78 6.07001,-5.01999 5.87,-5.23001 5.67001,-5.45999 5.45999,-5.67002 5.23999,-5.88 5.01001,-6.06998 4.78,-6.26001 4.54999,-6.45001 4.30001,-6.63001 4.04001,-6.79998 3.78998,-6.97 3.53,-7.12 3.25,-7.28 2.97,-7.42001 2.69003,-7.56 2.39997,-7.69 2.10003,-7.81998 1.78998,-7.94 1.48999,-8.05002 1.16004,-8.14999 0.83996,-8.26001 0.51001,-8.34 0.16999,-8.44 -0.16999,-8.42999 -0.51001,-8.34 -0.83996,-8.26001 -1.16004,-8.14999 -1.48999,-8.04999 -1.78998,-7.94 -2.10003,-7.82001 -2.39997,-7.69 -2.69003,-7.56 -2.97,-7.42 -3.25,-7.28 -3.53,-7.12001 -3.78998,-6.96998 L 494.13,212.16 489.82999,205.53 485.28,199.08 480.5,192.82001 475.48999,186.75 470.25,180.86999 464.79001,175.2 459.12,169.75 l -5.87,-5.24001 -6.07001,-5.01998 -6.26999,-4.78 -6.45001,-4.54001 -6.63,-4.30001 -6.79999,-4.04998 -6.95999,-3.79001 -7.13001,-3.52001 -7.26999,-3.25 -7.43002,-2.97999 -7.56,-2.69 -7.69,-2.39 -7.81998,-2.1 -7.93002,-1.8 -8.04999,-1.48 -8.16,-1.17 -8.25,-0.84 -8.35001,-0.51 -8.42999,-0.17 -8.42999,0.17 z"
         id="svg_15" />
      <path
         inkscape:connector-curvature="0"
         d="m 428.64999,467.76999 c 0,-29.60999 0,-266.43999 0,-296.04999 0,-16.95 -13.55999,-28.50999 -27.00998,-21.05 -18.29,10.16 -232.85002,134.93999 -248.65,143.42 -16.53,8.82 -20.77001,25.01001 -2,36.42999 21.19999,12.96002 233.40998,151.19 246.05998,158.37003 15.73001,9.03997 31.6,-5.74003 31.6,-21.12003 z"
         id="svg_14" />
    </defs>
  </defs>
  <g
     id="svg_3"
     transform="matrix(0.96666667,0,0,0.96666672,10.666666,10.666817)">
    <use
       height="100%"
       width="100%"
       style="fill:#b3c8e0"
       x="1"
       y="14.089844"
       id="svg_4"
       xlink:href="#a1cmvLBBPC" />
    <g
       id="svg_5">
      <use
         height="100%"
         width="100%"
         style="fill-opacity:0"
         x="1"
         y="14.089844"
         id="svg_6"
         xlink:href="#a1cmvLBBPC" />
    </g>
  </g>
  <g
     id="svg_7"
     transform="matrix(0.96666667,0,0,0.96666672,10.666666,10.666817)"
     style="fill:#ffffff;fill-opacity:1">
    <use
       height="100%"
       width="100%"
       style="fill:#ffffff;fill-opacity:1"
       x="83.59687"
       y="4.2605481"
       id="svg_8"
       xlink:href="#bjCgs8ehv"
       transform="matrix(0.601363,0,0,1.09062,113.44,-18.2838)" />
    <g
       id="svg_9"
       style="fill:#ffffff;fill-opacity:1">
      <use
         height="100%"
         width="100%"
         style="fill-opacity:1;fill:#ffffff"
         x="83.59687"
         y="4.2605481"
         id="svg_10"
         xlink:href="#bjCgs8ehv"
         transform="matrix(0.601363,0,0,1.09062,113.44,-18.2838)" />
    </g>
  </g>
  <g
     id="svg_28"
     transform="matrix(0.50072754,0,0,0.49454669,-169.82353,-385.58727)"
     style="fill:#ffffff;fill-opacity:1">
    <use
       height="100%"
       width="100%"
       style="fill:#ffffff;fill-opacity:1"
       xlink:href="#svg_14"
       id="svg_29"
       y="1106.7351"
       x="896.93866" />
    <g
       id="svg_30"
       style="fill:#ffffff;fill-opacity:1">
      <use
         height="100%"
         width="100%"
         style="fill-opacity:1;fill:#ffffff"
         xlink:href="#svg_14"
         id="svg_31"
         y="1106.7351"
         x="896.93866" />
    </g>
  </g>
  <g
     id="svg_36"
     transform="matrix(-0.50072754,0,0,-0.49454669,606.58187,1011.8145)"
     style="fill:#ffffff;fill-opacity:1">
    <use
       height="100%"
       width="100%"
       style="fill:#ffffff;fill-opacity:1"
       xlink:href="#svg_14"
       id="svg_33"
       y="1092.765"
       x="491.52539" />
    <g
       id="svg_35"
       style="fill:#ffffff;fill-opacity:1">
      <use
         height="100%"
         width="100%"
         style="fill-opacity:1;fill:#ffffff"
         xlink:href="#svg_14"
         id="svg_34"
         y="1092.765"
         x="491.52539" />
    </g>
  </g>
  <path
     style="fill:#ffffff;fill-opacity:1;fill-rule:nonzero;stroke:#ffffff;stroke-width:9.01408482;stroke-linecap:round;stroke-linejoin:round;stroke-miterlimit:4;stroke-dasharray:none;stroke-opacity:1"
     d="M 4.5070412,4.5070412 V 635.49296 H 635.49296 V 4.5070412 Z M 18.468368,17.306346 H 621.53163 V 622.6919 H 18.468368 Z"
     id="rect831"
     inkscape:connector-curvature="0" />
</svg>
