<?xml version="1.0" encoding="utf-8"?>
<!-- Generator: Adobe Illustrator 23.0.3, SVG Export Plug-In . SVG Version: 6.00 Build 0)  -->
<svg version="1.2" baseProfile="tiny" id="Capa_1" xmlns="http://www.w3.org/2000/svg" xmlns:xlink="http://www.w3.org/1999/xlink"
	 x="0px" y="0px" viewBox="0 0 152.84 136.36" xml:space="preserve">
<g>
	<g>
		<path fill="#E57DB0" d="M16.27,132.29l-14.14-6.94c-0.59,0.58-0.97,1.75-0.72,2.55c0.23,0.71,0.93,1.11,0.93,1.11l13.27,6.99
			l0.26,0.07c0.2,0.13,0.71-0.29,0.84-0.58c0.23-0.53,0.3-1.78,0.11-2.45C16.66,132.42,16.27,132.29,16.27,132.29z"/>
		<polygon fill="#CECECD" points="100.04,83.64 16.24,132.44 2.13,125.36 85.82,76.36 		"/>
		<line fill="#878787" x1="1.95" y1="125.53" x2="16.18" y2="132.81"/>
		<path fill="#878787" d="M16.67,135.88l82.8-48.31c1.14-0.65,1.85-1.87,1.85-3.18c0-0.68-0.73-1.1-1.32-0.77l-82.96,48.4
			c-0.64,0.36-1.13,0.91-1.43,1.56"/>
		<polyline fill="none" stroke="#F3F2F2" stroke-miterlimit="10" points="96.2,85.86 75.5,90.09 75.5,90.09 83.14,78.18 		"/>
		<polyline fill="none" stroke="#F3F2F2" stroke-miterlimit="10" points="79.03,95.59 60.34,98.56 60.34,98.56 64.8,88.31 		"/>
		<polyline fill="none" stroke="#F3F2F2" stroke-miterlimit="10" points="65.08,104.04 46.39,107.01 46.39,107.01 50.85,96.77 		"/>
		<polyline fill="none" stroke="#F3F2F2" stroke-miterlimit="10" points="50.63,112.5 31.94,115.46 31.94,115.46 36.4,105.22 		"/>
		<polyline fill="none" stroke="#F3F2F2" stroke-miterlimit="10" points="36.41,120.95 17.72,123.91 17.72,123.91 22.19,113.67 		
			"/>
		<g>
			<path fill="#878787" d="M17.47,132.28c-0.11-0.06-0.23-0.11-0.36-0.12c-0.76-0.04-1.66,0.86-2.01,2.02
				c-0.29,0.94-0.11,1.76,0.37,2.05c0.11,0.07,0.23,0.12,0.37,0.13c0.76,0.04,1.66-0.86,2.01-2.02
				C18.13,133.39,17.96,132.57,17.47,132.28z"/>
			<path fill="#878787" d="M2.27,124.69c-0.04-0.01-0.08-0.02-0.12-0.03c-0.76-0.04-1.66,0.86-2.01,2.02
				c-0.29,0.96-0.11,1.78,0.39,2.07c0,0,0.01,0.01,0.01,0.01l14.93,7.48c0,0,0-0.01,0-0.01c-0.48-0.3-0.65-1.11-0.37-2.05
				c0.35-1.16,1.25-2.06,2.01-2.02c0.14,0.01,0.26,0.06,0.36,0.12c0,0,0.01,0,0.01,0S2.31,124.67,2.27,124.69z"/>
		</g>
	</g>
	<g>
		<path fill="#E57DB0" d="M119.29,25.94l-14.14-6.94c-0.59,0.58-0.97,1.75-0.72,2.55c0.23,0.71,0.93,1.11,0.93,1.11l13.27,6.99
			l0.26,0.07c0.2,0.13,0.71-0.29,0.84-0.58c0.23-0.53,0.3-1.78,0.11-2.45C119.68,26.07,119.29,25.94,119.29,25.94z"/>
		<polygon fill="#CECECD" points="152.32,7.44 119.26,26.09 105.15,19.01 137.7,0 		"/>
		<polygon fill="#CECECD" points="119.2,26.46 99.96,83.74 85.6,76.47 104.97,19.18 		"/>
		<path fill="#878787" d="M151.53,7.48l-31.45,18.19c-0.64,0.36-1.13,0.91-1.43,1.56c0,0-18.51,56.2-18.6,56.25l-0.5,0.19
			c0,0,0.63,3.04,0.77,2.91l0.61-0.78c0.4-0.38,18.74-56.25,18.76-56.26l31.3-18.11c1.14-0.65,1.85-1.87,1.85-3.18
			C152.84,7.57,152.11,7.14,151.53,7.48z"/>
		<polyline fill="none" stroke="#F3F2F2" stroke-miterlimit="10" points="149.63,8.36 127.83,13.37 135.2,1.79 		"/>
		<polyline fill="none" stroke="#F3F2F2" stroke-miterlimit="10" points="130.55,19.45 111.86,22.41 111.86,22.41 116.32,12.17 		
			"/>
		<polyline fill="none" stroke="#F3F2F2" stroke-miterlimit="10" points="104.87,19.49 105.15,40.19 118.64,27.23 		"/>
		<polyline fill="none" stroke="#F3F2F2" stroke-miterlimit="10" points="97.82,38.68 98.67,59.39 112.16,46.42 		"/>
		<polyline fill="none" stroke="#F3F2F2" stroke-miterlimit="10" points="91.41,57.88 92.2,78.58 105.68,65.62 		"/>
		<g>
			<path fill="#878787" d="M120.49,25.93c-0.11-0.06-0.23-0.11-0.36-0.12c-0.76-0.04-1.66,0.86-2.01,2.02
				c-0.29,0.94-0.11,1.76,0.37,2.05c0.11,0.07,0.23,0.12,0.37,0.13c0.76,0.04,1.66-0.86,2.01-2.02
				C121.15,27.04,120.97,26.22,120.49,25.93z"/>
			<path fill="#878787" d="M105.29,18.34c-0.04-0.01-0.08-0.02-0.12-0.03c-0.76-0.04-1.66,0.86-2.01,2.02
				c-0.29,0.96-0.11,1.78,0.39,2.07c0,0,0.01,0.01,0.01,0.01l14.93,7.48c0,0,0-0.01,0-0.01c-0.48-0.3-0.65-1.11-0.37-2.05
				c0.35-1.16,1.25-2.06,2.01-2.02c0.14,0.01,0.26,0.06,0.36,0.12c0,0,0.01,0,0.01,0S105.33,18.32,105.29,18.34z"/>
		</g>
		<g>
			<path fill="#878787" d="M100.81,83.2c-0.11-0.06-0.23-0.11-0.36-0.12c-0.76-0.04-1.66,0.86-2.01,2.02
				c-0.29,0.94-0.11,1.76,0.37,2.05c0.11,0.07,0.23,0.12,0.37,0.13c0.76,0.04,1.66-0.86,2.01-2.02
				C101.47,84.31,101.3,83.49,100.81,83.2z"/>
			<path fill="#878787" d="M85.61,75.61c-0.04-0.01-0.08-0.02-0.12-0.03c-0.76-0.04-1.66,0.86-2.01,2.02
				c-0.29,0.96-0.11,1.78,0.39,2.07c0,0,0.01,0.01,0.01,0.01l14.93,7.48c0,0,0-0.01,0-0.01c-0.48-0.3-0.65-1.11-0.37-2.05
				c0.35-1.16,1.25-2.06,2.01-2.02c0.14,0.01,0.26,0.06,0.36,0.12c0,0,0.01,0,0.01,0S85.65,75.59,85.61,75.61z"/>
		</g>
	</g>
	<path fill="#878787" d="M152.84,8.5c0,0.05,0,4.03,0,4.03l-1.91-1.06L152.84,8.5z"/>
</g>
</svg>
