<?xml version="1.0" encoding="UTF-8" standalone="no"?>
<!DOCTYPE svg PUBLIC "-//W3C//DTD SVG 1.1//EN" "http://www.w3.org/Graphics/SVG/1.1/DTD/svg11.dtd">
<svg version="1.1" xmlns="http://www.w3.org/2000/svg" xmlns:xlink="http://www.w3.org/1999/xlink" preserveAspectRatio="xMidYMid meet" viewBox="0 0 640 640" width="640" height="640">
<defs>
<path d="M447.94 12.99L451.57 16.44L451.93 16.78L452.27 17.13L452.59 17.47L452.9 17.81L453.2 18.16L453.48 18.51L453.75 18.87L454.01 19.24L454.25 19.62L454.48 20.02L454.7 20.42L454.9 20.85L455.1 21.29L455.28 21.75L455.45 22.24L455.61 22.74L455.76 23.28L455.9 23.83L456.03 24.42L456.16 25.04L456.27 25.69L456.37 26.38L456.47 27.1L456.56 27.86L456.63 28.66L456.71 29.5L456.77 30.38L456.83 31.31L456.88 32.28L456.93 33.31L456.97 34.38L457 35.51L457.03 36.69L457.06 37.92L457.08 39.21L457.1 40.57L457.11 41.98L457.12 43.46L457.12 45L457.13 46.6L457.15 64.83L461 66.12L461.17 66.18L461.35 66.24L461.54 66.31L461.75 66.38L461.96 66.46L462.19 66.55L462.43 66.64L462.68 66.74L462.95 66.84L463.22 66.95L463.5 67.06L463.79 67.18L464.09 67.3L464.4 67.43L464.71 67.56L465.04 67.69L465.37 67.83L465.7 67.97L466.05 68.12L466.4 68.27L466.75 68.42L467.11 68.57L467.47 68.73L467.84 68.89L468.21 69.05L468.59 69.21L468.97 69.37L469.35 69.54L469.73 69.71L470.12 69.88L470.5 70.05L470.89 70.22L471.27 70.4L471.66 70.57L472.04 70.74L472.43 70.92L472.81 71.09L473.19 71.27L473.57 71.44L473.95 71.61L483.04 75.82L497.06 61.53L498.19 60.37L499.28 59.27L500.32 58.22L501.33 57.22L502.29 56.26L503.22 55.36L504.1 54.49L504.96 53.68L505.78 52.9L506.56 52.18L507.32 51.49L508.05 50.84L508.74 50.24L509.42 49.67L510.07 49.14L510.69 48.65L511.29 48.2L511.87 47.78L512.44 47.4L512.98 47.05L513.51 46.74L514.03 46.46L514.53 46.2L515.02 45.98L515.51 45.79L515.98 45.63L516.45 45.49L516.91 45.38L517.36 45.3L517.82 45.24L518.27 45.2L518.73 45.19L519.18 45.2L519.64 45.23L520.11 45.28L520.58 45.35L521.06 45.44L521.55 45.55L522.05 45.67L522.56 45.81L522.81 45.89L523.07 45.99L523.35 46.11L523.64 46.25L523.95 46.42L524.28 46.62L524.63 46.85L525 47.1L525.4 47.39L525.83 47.71L526.28 48.06L526.76 48.45L527.27 48.88L527.81 49.34L528.38 49.84L528.99 50.39L529.64 50.98L530.32 51.61L531.05 52.29L531.81 53.01L532.62 53.78L533.47 54.61L534.36 55.48L535.3 56.41L536.29 57.39L537.33 58.42L538.42 59.52L539.57 60.67L540.77 61.88L542.02 63.15L543.33 64.49L544.7 65.89L546.13 67.35L547.62 68.88L549.18 70.49L550.8 72.16L552.48 73.9L554.24 75.71L556.06 77.6L557.96 79.57L559.25 80.91L560.53 82.24L561.8 83.56L563.06 84.87L564.3 86.17L565.53 87.46L566.74 88.73L567.94 89.98L569.11 91.21L570.27 92.43L571.4 93.62L572.52 94.8L573.61 95.95L574.68 97.08L575.72 98.19L576.73 99.27L577.72 100.32L578.69 101.35L579.62 102.34L580.52 103.31L581.39 104.25L582.23 105.15L583.03 106.02L583.8 106.85L584.54 107.65L585.24 108.41L585.9 109.13L586.52 109.82L587.1 110.46L587.64 111.06L588.14 111.62L588.6 112.14L589.01 112.61L589.38 113.03L589.7 113.41L589.97 113.74L590.19 114.01L590.37 114.24L590.49 114.42L590.57 114.54L590.68 114.79L590.79 115.05L590.89 115.31L590.99 115.59L591.08 115.88L591.16 116.17L591.24 116.48L591.31 116.79L591.37 117.11L591.43 117.43L591.48 117.76L591.52 118.09L591.56 118.43L591.59 118.78L591.62 119.13L591.64 119.48L591.65 119.83L591.66 120.18L591.66 120.54L591.65 120.9L591.64 121.26L591.62 121.61L591.59 121.97L591.56 122.33L591.52 122.68L591.48 123.03L591.43 123.38L591.38 123.72L591.31 124.07L591.25 124.4L591.17 124.73L591.09 125.06L591.01 125.38L590.91 125.69L590.81 126L590.71 126.3L590.6 126.59L590.48 126.87L590.36 127.14L590.23 127.4L590.16 127.53L590.07 127.68L589.95 127.85L589.82 128.04L589.66 128.25L589.49 128.49L589.3 128.74L589.09 129L588.86 129.29L588.61 129.59L588.34 129.91L588.06 130.25L587.76 130.6L587.45 130.97L587.12 131.35L586.78 131.74L586.42 132.15L586.05 132.57L585.67 133.01L585.27 133.45L584.86 133.91L584.44 134.37L584.01 134.85L583.57 135.34L583.11 135.83L582.65 136.34L582.18 136.85L581.7 137.37L581.21 137.89L580.71 138.43L580.2 138.96L579.69 139.51L579.17 140.06L578.65 140.61L578.12 141.16L577.59 141.72L577.05 142.28L576.5 142.85L575.96 143.41L575.41 143.98L562.05 157.69L564.13 161.9L564.22 162.08L564.31 162.28L564.41 162.48L564.51 162.7L564.62 162.93L564.73 163.18L564.85 163.43L564.96 163.7L565.08 163.97L565.21 164.26L565.34 164.55L565.47 164.86L565.6 165.17L565.74 165.49L565.88 165.82L566.02 166.15L566.16 166.5L566.31 166.85L566.46 167.2L566.61 167.56L566.76 167.93L566.91 168.3L567.06 168.67L567.21 169.05L567.37 169.43L567.52 169.81L567.68 170.2L567.83 170.59L567.98 170.98L568.14 171.37L568.29 171.76L568.45 172.16L568.6 172.55L568.75 172.94L568.9 173.33L569.05 173.72L569.2 174.11L569.34 174.49L569.49 174.87L569.63 175.25L573.05 184.39L593.42 184.92L594.98 184.96L596.46 185L597.88 185.04L599.23 185.08L600.51 185.13L601.72 185.17L602.88 185.21L603.97 185.26L605.01 185.31L605.99 185.36L606.91 185.42L607.79 185.48L608.62 185.54L609.4 185.61L610.14 185.69L610.83 185.77L611.48 185.86L612.1 185.95L612.68 186.05L613.22 186.16L613.74 186.28L614.22 186.41L614.68 186.55L615.11 186.69L615.53 186.85L615.92 187.02L616.29 187.19L616.64 187.38L616.99 187.59L617.32 187.8L617.64 188.03L617.95 188.27L618.26 188.53L618.57 188.8L618.87 189.08L619.18 189.38L619.49 189.7L619.8 190.03L620.13 190.38L620.46 190.75L623.03 193.58L623.3 241.52L623.32 244.89L623.34 248.1L623.35 251.16L623.37 254.06L623.38 256.82L623.39 259.43L623.4 261.9L623.4 264.23L623.41 266.44L623.41 268.51L623.41 270.47L623.4 272.3L623.39 274.03L623.38 275.64L623.37 277.14L623.35 278.55L623.33 279.86L623.31 281.07L623.28 282.2L623.25 283.24L623.21 284.2L623.17 285.08L623.13 285.89L623.08 286.64L623.02 287.32L622.97 287.95L622.9 288.51L622.83 289.03L622.76 289.5L622.68 289.93L622.59 290.32L622.5 290.68L622.4 291.01L622.3 291.32L622.19 291.6L622.08 291.86L621.96 292.12L621.83 292.37L621.69 292.61L621.55 292.85L621.25 293.34L620.96 293.81L620.68 294.26L620.4 294.69L620.12 295.09L619.83 295.48L619.55 295.84L619.25 296.19L618.95 296.51L618.64 296.82L618.31 297.11L617.97 297.39L617.62 297.64L617.24 297.88L616.84 298.11L616.42 298.32L615.97 298.52L615.5 298.7L614.99 298.87L614.46 299.03L613.88 299.18L613.27 299.32L612.62 299.44L611.93 299.56L611.2 299.67L610.42 299.77L609.6 299.86L608.72 299.94L607.79 300.02L606.81 300.09L605.77 300.16L604.67 300.22L603.51 300.27L602.29 300.33L601 300.38L599.65 300.43L598.22 300.47L596.72 300.51L595.15 300.56L593.51 300.6L573.13 301.13L569.15 311.36L568.99 311.79L568.82 312.21L568.65 312.63L568.49 313.06L568.32 313.48L568.15 313.9L567.98 314.33L567.82 314.75L567.65 315.17L567.48 315.58L567.31 315.99L567.15 316.4L566.99 316.81L566.82 317.21L566.66 317.61L566.5 318L566.34 318.38L566.19 318.76L566.03 319.14L565.88 319.5L565.73 319.86L565.58 320.21L565.44 320.56L565.3 320.89L565.16 321.22L565.03 321.53L564.9 321.84L564.77 322.14L564.65 322.42L564.53 322.69L564.41 322.96L564.3 323.2L564.2 323.44L564.1 323.67L564 323.88L563.91 324.07L563.83 324.26L563.75 324.42L563.67 324.58L563.61 324.71L562.05 327.83L575.4 341.54L575.95 342.11L576.5 342.67L577.04 343.24L577.58 343.8L578.12 344.36L578.65 344.91L579.17 345.47L579.69 346.01L580.2 346.56L580.71 347.1L581.21 347.63L581.69 348.15L582.18 348.67L582.65 349.19L583.11 349.69L583.57 350.19L584.01 350.67L584.44 351.15L584.86 351.62L585.27 352.07L585.67 352.52L586.05 352.95L586.42 353.37L586.78 353.78L587.12 354.18L587.45 354.56L587.76 354.92L588.06 355.27L588.34 355.61L588.61 355.93L588.86 356.23L589.09 356.52L589.3 356.79L589.49 357.04L589.66 357.27L589.82 357.48L589.95 357.67L590.07 357.85L590.16 358L590.23 358.13L590.36 358.39L590.48 358.66L590.6 358.94L590.71 359.23L590.81 359.53L590.91 359.83L591.01 360.14L591.09 360.46L591.17 360.79L591.25 361.12L591.31 361.46L591.38 361.8L591.43 362.14L591.48 362.49L591.52 362.84L591.56 363.2L591.59 363.55L591.62 363.91L591.64 364.27L591.65 364.63L591.66 364.98L591.66 365.34L591.65 365.69L591.64 366.05L591.62 366.4L591.59 366.75L591.56 367.09L591.52 367.43L591.48 367.76L591.43 368.09L591.37 368.42L591.31 368.74L591.24 369.05L591.16 369.35L591.08 369.65L590.99 369.93L590.89 370.21L590.79 370.48L590.68 370.74L590.57 370.98L590.34 371.34L589.9 371.9L589.27 372.67L588.45 373.62L587.46 374.74L586.3 376.03L584.98 377.47L583.53 379.06L581.94 380.77L580.23 382.61L578.41 384.55L576.49 386.59L574.48 388.72L572.39 390.92L570.23 393.19L568.02 395.51L565.76 397.87L563.46 400.26L561.14 402.68L558.81 405.1L556.47 407.52L554.14 409.92L551.83 412.3L549.55 414.64L547.31 416.94L545.12 419.17L542.99 421.34L540.93 423.43L538.95 425.42L537.07 427.31L535.29 429.09L533.63 430.74L532.09 432.26L530.69 433.63L529.44 434.84L528.34 435.87L527.42 436.73L526.67 437.4L526.12 437.86L525.76 438.11L525.64 438.17L525.52 438.23L525.39 438.3L525.25 438.36L525.11 438.42L524.96 438.47L524.8 438.53L524.64 438.59L524.47 438.65L524.3 438.7L524.13 438.76L523.95 438.81L523.76 438.86L523.57 438.91L523.38 438.96L523.19 439.01L522.99 439.05L522.79 439.1L522.59 439.14L522.38 439.19L522.17 439.23L521.96 439.26L521.75 439.3L521.54 439.34L521.32 439.37L521.11 439.4L520.89 439.43L520.67 439.46L520.46 439.49L520.24 439.51L520.02 439.53L519.81 439.55L519.6 439.57L519.38 439.59L519.17 439.6L518.96 439.61L518.75 439.62L518.54 439.63L518.34 439.63L518.14 439.63L513.29 439.63L498.79 424.77L498.19 424.16L497.6 423.56L497.01 422.96L496.43 422.37L495.85 421.79L495.28 421.21L494.72 420.65L494.16 420.09L493.61 419.54L493.07 419.01L492.54 418.48L492.01 417.96L491.5 417.46L491 416.96L490.5 416.48L490.02 416.01L489.55 415.56L489.1 415.12L488.65 414.69L488.22 414.28L487.8 413.88L487.4 413.5L487.01 413.14L486.64 412.79L486.28 412.46L485.94 412.15L485.62 411.86L485.31 411.58L485.03 411.32L484.76 411.09L484.5 410.87L484.27 410.68L484.06 410.5L483.87 410.35L483.7 410.22L483.55 410.11L483.43 410.03L483.32 409.97L483.24 409.93L483.18 409.92L483.13 409.92L483.07 409.93L483 409.94L482.91 409.96L482.82 409.98L482.72 410.01L482.6 410.05L482.48 410.09L482.34 410.13L482.2 410.18L482.05 410.23L481.89 410.29L481.72 410.35L481.54 410.42L481.36 410.49L481.17 410.56L480.97 410.64L480.76 410.72L480.55 410.8L480.33 410.89L480.11 410.99L479.87 411.08L479.64 411.18L479.4 411.28L479.15 411.39L478.9 411.49L478.64 411.6L478.38 411.72L478.11 411.83L477.85 411.95L477.57 412.07L477.3 412.19L477.02 412.32L476.74 412.45L476.46 412.57L476.17 412.71L475.88 412.84L475.59 412.97L475.3 413.11L475.01 413.24L474.72 413.38L474.42 413.52L474.11 413.66L473.8 413.8L473.49 413.95L473.17 414.09L472.84 414.24L472.52 414.38L472.19 414.53L471.86 414.68L471.53 414.83L471.19 414.97L470.86 415.12L470.52 415.27L470.18 415.41L469.85 415.56L469.51 415.7L469.17 415.84L468.84 415.99L468.51 416.13L468.18 416.26L467.85 416.4L467.52 416.54L467.2 416.67L466.88 416.8L466.57 416.93L466.25 417.06L465.95 417.18L465.65 417.3L465.35 417.42L465.07 417.53L464.78 417.64L464.51 417.75L464.24 417.85L463.98 417.95L463.72 418.05L463.48 418.14L463.24 418.22L463.02 418.31L462.8 418.38L457.67 420.2L457.15 441.37L457.11 443.08L457.07 444.72L457.02 446.27L456.98 447.75L456.93 449.16L456.89 450.5L456.84 451.77L456.78 452.98L456.72 454.12L456.66 455.2L456.59 456.22L456.51 457.18L456.43 458.09L456.34 458.95L456.25 459.76L456.14 460.52L456.03 461.24L455.91 461.91L455.78 462.54L455.63 463.14L455.48 463.69L455.31 464.22L455.14 464.71L454.94 465.17L454.74 465.61L454.52 466.02L454.29 466.41L454.04 466.78L453.77 467.13L453.49 467.47L453.2 467.79L452.88 468.1L452.55 468.4L452.19 468.69L451.82 468.99L451.43 469.27L451.02 469.56L450.58 469.86L450.13 470.15L449.65 470.46L449.42 470.6L449.18 470.74L448.94 470.87L448.69 470.99L448.43 471.11L448.15 471.22L447.86 471.33L447.53 471.43L447.18 471.52L446.79 471.61L446.37 471.69L445.91 471.77L445.41 471.84L444.85 471.91L444.25 471.98L443.58 472.03L442.86 472.09L442.08 472.14L441.22 472.19L440.3 472.23L439.29 472.27L438.21 472.3L437.05 472.33L435.8 472.36L434.45 472.39L433.01 472.41L431.48 472.43L429.83 472.45L428.09 472.47L426.23 472.48L424.25 472.49L422.16 472.5L419.94 472.51L417.6 472.51L415.13 472.52L412.52 472.52L409.77 472.52L406.88 472.52L403.85 472.52L400.66 472.52L397.44 472.52L394.37 472.52L391.45 472.52L388.67 472.52L386.04 472.52L383.55 472.51L381.19 472.51L378.96 472.5L376.86 472.49L374.87 472.48L373.01 472.47L371.25 472.45L369.61 472.43L368.07 472.41L366.64 472.39L365.3 472.36L364.05 472.34L362.89 472.3L361.82 472.27L360.82 472.23L359.91 472.18L359.06 472.14L358.29 472.08L357.57 472.03L356.92 471.97L356.33 471.9L355.78 471.83L355.28 471.76L354.83 471.67L354.42 471.59L354.04 471.5L353.69 471.4L353.37 471.29L353.08 471.18L352.8 471.07L352.54 470.94L352.29 470.81L352.04 470.68L351.8 470.53L351.56 470.38L351.14 470.12L350.75 469.85L350.37 469.58L350.01 469.3L349.67 469.02L349.34 468.73L349.03 468.43L348.73 468.12L348.45 467.79L348.19 467.45L347.94 467.09L347.7 466.71L347.48 466.31L347.27 465.89L347.07 465.44L346.89 464.96L346.72 464.46L346.55 463.93L346.41 463.36L346.27 462.76L346.14 462.13L346.02 461.45L345.91 460.74L345.82 459.99L345.73 459.19L345.65 458.35L345.57 457.46L345.51 456.53L345.45 455.54L345.4 454.51L345.36 453.41L345.32 452.27L345.29 451.06L345.26 449.8L345.24 448.47L345.22 447.09L345.21 445.63L345.2 444.12L345.2 442.53L345.2 440.87L345.2 420.82L340.32 418.95L340.11 418.87L339.89 418.78L339.66 418.69L339.42 418.59L339.16 418.49L338.9 418.39L338.63 418.28L338.34 418.16L338.05 418.05L337.75 417.92L337.44 417.8L337.12 417.67L336.8 417.54L336.47 417.4L336.13 417.26L335.79 417.12L335.44 416.97L335.08 416.83L334.72 416.68L334.36 416.53L333.99 416.37L333.62 416.22L333.25 416.06L332.87 415.9L332.49 415.74L332.12 415.58L331.73 415.42L331.35 415.26L330.97 415.1L330.59 414.93L330.21 414.77L329.83 414.61L329.45 414.45L329.07 414.28L328.7 414.12L328.33 413.96L327.96 413.8L327.6 413.64L327.24 413.49L326.88 413.33L318.32 409.59L304.8 423.43L304.24 424L303.69 424.57L303.13 425.13L302.58 425.69L302.04 426.24L301.49 426.79L300.96 427.33L300.42 427.86L299.89 428.39L299.37 428.9L298.86 429.41L298.35 429.92L297.85 430.41L297.35 430.89L296.87 431.36L296.39 431.83L295.92 432.28L295.47 432.72L295.02 433.14L294.59 433.56L294.17 433.96L293.76 434.35L293.36 434.72L292.97 435.08L292.6 435.43L292.24 435.76L291.9 436.07L291.58 436.37L291.26 436.65L290.97 436.91L290.69 437.15L290.43 437.38L290.19 437.58L289.96 437.77L289.76 437.94L289.57 438.08L289.41 438.21L289.26 438.31L289.13 438.4L289.03 438.46L288.94 438.5L288.83 438.55L288.72 438.6L288.6 438.65L288.48 438.69L288.35 438.74L288.21 438.78L288.07 438.83L287.93 438.87L287.77 438.91L287.62 438.95L287.45 439L287.29 439.04L287.11 439.07L286.94 439.11L286.76 439.15L286.57 439.19L286.39 439.22L286.2 439.25L286.01 439.29L285.81 439.32L285.61 439.35L285.41 439.38L285.21 439.4L285 439.43L284.8 439.46L284.59 439.48L284.38 439.5L284.17 439.52L283.96 439.54L283.75 439.56L283.54 439.57L283.33 439.59L283.12 439.6L282.91 439.61L282.7 439.62L282.49 439.62L282.29 439.63L282.08 439.63L281.88 439.63L276.97 439.63L244.33 405.96L242.64 404.22L241.01 402.53L239.42 400.89L237.87 399.29L236.38 397.73L234.92 396.21L233.52 394.75L232.15 393.32L230.84 391.94L229.56 390.6L228.33 389.3L227.15 388.04L226.01 386.83L224.91 385.66L223.85 384.53L222.84 383.44L221.87 382.39L220.94 381.38L220.05 380.41L219.2 379.48L218.4 378.59L217.63 377.74L216.91 376.93L216.23 376.16L215.59 375.42L214.98 374.72L214.42 374.06L213.89 373.44L213.41 372.85L212.96 372.3L212.55 371.79L212.18 371.31L211.85 370.87L211.55 370.46L211.29 370.09L211.07 369.76L210.89 369.45L210.74 369.18L210.63 368.95L210.55 368.75L210.38 368.2L210.23 367.67L210.09 367.16L209.97 366.66L209.87 366.17L209.78 365.68L209.72 365.21L209.68 364.74L209.66 364.28L209.66 363.81L209.69 363.35L209.74 362.89L209.82 362.42L209.93 361.95L210.06 361.47L210.22 360.98L210.41 360.49L210.63 359.98L210.88 359.46L211.17 358.92L211.49 358.37L211.84 357.8L212.23 357.21L212.65 356.6L213.11 355.97L213.61 355.31L214.15 354.62L214.73 353.91L215.35 353.16L216.01 352.38L216.71 351.57L217.46 350.73L218.25 349.85L219.09 348.92L219.98 347.96L220.91 346.96L221.89 345.91L222.92 344.82L224 343.68L225.13 342.49L239.44 327.48L236 319.61L235.86 319.29L235.71 318.95L235.57 318.61L235.42 318.27L235.27 317.92L235.12 317.57L234.97 317.21L234.82 316.85L234.67 316.49L234.51 316.12L234.36 315.76L234.21 315.39L234.06 315.02L233.91 314.65L233.75 314.28L233.6 313.91L233.45 313.54L233.31 313.17L233.16 312.81L233.01 312.44L232.87 312.08L232.73 311.72L232.59 311.37L232.45 311.01L232.31 310.67L232.18 310.32L232.05 309.98L231.92 309.65L231.8 309.33L231.67 309.01L231.56 308.69L231.44 308.39L231.33 308.09L231.22 307.8L231.12 307.51L231.02 307.24L230.93 306.98L230.84 306.73L230.75 306.48L230.67 306.25L228.78 300.75L208.16 300.41L206.52 300.39L204.95 300.36L203.45 300.33L202.03 300.3L200.68 300.26L199.4 300.23L198.18 300.19L197.03 300.14L195.93 300.1L194.9 300.04L193.92 299.99L193 299.92L192.13 299.85L191.31 299.77L190.53 299.69L189.8 299.59L189.12 299.49L188.48 299.38L187.87 299.26L187.3 299.12L186.77 298.98L186.26 298.82L185.79 298.65L185.35 298.47L184.93 298.28L184.53 298.07L184.16 297.85L183.8 297.61L183.46 297.35L183.13 297.08L182.82 296.8L182.52 296.49L182.22 296.17L181.93 295.83L181.64 295.47L181.35 295.09L181.06 294.69L180.77 294.27L180.47 293.83L180.16 293.36L180.04 293.16L179.91 292.96L179.8 292.74L179.69 292.5L179.58 292.25L179.48 291.98L179.39 291.68L179.3 291.35L179.22 290.99L179.14 290.59L179.06 290.14L178.99 289.66L178.93 289.12L178.87 288.54L178.81 287.89L178.75 287.19L178.7 286.42L178.66 285.59L178.62 284.69L178.58 283.71L178.54 282.65L178.51 281.51L178.48 280.28L178.45 278.96L178.43 277.55L178.41 276.04L178.39 274.43L178.37 272.72L178.35 270.89L178.34 268.96L178.33 266.91L178.32 264.73L178.31 262.44L178.31 260.01L178.3 257.46L178.3 254.77L178.3 251.94L178.3 248.96L178.29 245.84L178.29 242.57L178.29 239.15L178.29 235.89L178.3 232.79L178.3 229.85L178.3 227.06L178.3 224.42L178.31 221.93L178.32 219.58L178.32 217.36L178.33 215.27L178.35 213.31L178.36 211.48L178.38 209.76L178.4 208.15L178.42 206.65L178.44 205.26L178.47 203.97L178.5 202.77L178.54 201.66L178.58 200.64L178.62 199.7L178.67 198.85L178.72 198.06L178.78 197.34L178.84 196.69L178.9 196.1L178.97 195.56L179.05 195.08L179.13 194.64L179.21 194.24L179.3 193.88L179.4 193.56L179.51 193.26L179.62 192.99L179.73 192.74L179.86 192.51L179.99 192.28L180.12 192.06L180.27 191.85L180.42 191.63L180.74 191.19L181.06 190.77L181.37 190.36L181.68 189.98L182 189.61L182.32 189.27L182.65 188.94L182.98 188.62L183.33 188.32L183.69 188.04L184.06 187.78L184.44 187.53L184.85 187.29L185.27 187.07L185.71 186.86L186.18 186.67L186.67 186.49L187.19 186.32L187.74 186.16L188.31 186.02L188.92 185.89L189.57 185.76L190.25 185.65L190.96 185.55L191.72 185.46L192.52 185.38L193.36 185.3L194.25 185.23L195.19 185.18L196.17 185.12L197.21 185.08L198.29 185.04L199.44 185.01L200.63 184.99L201.89 184.96L203.21 184.95L204.59 184.94L206.03 184.93L207.54 184.92L209.12 184.92L228.65 184.92L230.55 179.35L230.63 179.11L230.72 178.87L230.81 178.61L230.91 178.34L231.01 178.06L231.11 177.77L231.22 177.47L231.34 177.17L231.46 176.85L231.58 176.53L231.7 176.2L231.83 175.86L231.96 175.52L232.1 175.17L232.24 174.82L232.38 174.46L232.52 174.09L232.67 173.73L232.82 173.35L232.97 172.98L233.12 172.6L233.27 172.22L233.43 171.84L233.58 171.45L233.74 171.07L233.9 170.68L234.06 170.3L234.22 169.91L234.38 169.53L234.53 169.14L234.69 168.76L234.85 168.38L235.01 168.01L235.17 167.63L235.33 167.26L235.49 166.9L235.64 166.53L235.8 166.18L235.95 165.83L236.1 165.48L239.76 157.19L225.83 142.66L225.25 142.07L224.68 141.47L224.12 140.88L223.56 140.29L223 139.7L222.46 139.12L221.91 138.54L221.38 137.97L220.85 137.4L220.33 136.84L219.81 136.29L219.31 135.74L218.82 135.21L218.33 134.68L217.86 134.16L217.39 133.65L216.94 133.15L216.5 132.67L216.07 132.19L215.65 131.73L215.25 131.28L214.86 130.84L214.49 130.41L214.13 130L213.78 129.61L213.45 129.23L213.14 128.86L212.84 128.51L212.56 128.18L212.3 127.87L212.06 127.57L211.83 127.3L211.62 127.04L211.44 126.8L211.27 126.59L211.13 126.39L211 126.21L210.9 126.06L210.82 125.93L210.76 125.82L210.62 125.53L210.49 125.24L210.37 124.95L210.27 124.65L210.17 124.36L210.07 124.06L209.99 123.76L209.92 123.45L209.86 123.15L209.81 122.84L209.76 122.54L209.73 122.23L209.7 121.91L209.69 121.6L209.68 121.29L209.68 120.97L209.7 120.65L209.72 120.33L209.75 120L209.79 119.68L209.84 119.35L209.9 119.02L209.97 118.69L210.05 118.35L210.14 118.02L210.23 117.68L210.34 117.34L210.46 116.99L210.58 116.65L210.72 116.3L210.86 115.95L211.01 115.6L211.18 115.24L211.35 114.89L211.53 114.53L211.72 114.17L211.92 113.8L212.13 113.44L212.35 113.07L212.58 112.7L213.03 112.04L213.66 111.22L214.46 110.23L215.42 109.08L216.54 107.79L217.8 106.36L219.2 104.8L220.72 103.13L222.35 101.35L224.09 99.47L225.93 97.51L227.85 95.46L229.85 93.35L231.92 91.19L234.04 88.97L236.21 86.72L238.42 84.43L240.66 82.13L242.92 79.82L245.19 77.51L247.45 75.21L249.71 72.93L251.95 70.67L254.16 68.46L256.33 66.3L258.45 64.2L260.51 62.16L262.51 60.21L264.43 58.34L266.26 56.57L268 54.91L269.63 53.37L271.15 51.95L272.54 50.68L273.79 49.54L274.91 48.57L275.86 47.76L276.66 47.13L277.28 46.69L277.72 46.44L278.27 46.2L278.81 45.99L279.33 45.79L279.84 45.61L280.34 45.46L280.82 45.32L281.3 45.21L281.77 45.13L282.23 45.06L282.69 45.03L283.15 45.02L283.61 45.04L284.07 45.09L284.54 45.17L285.01 45.28L285.49 45.42L285.97 45.6L286.47 45.81L286.98 46.05L287.51 46.33L288.05 46.65L288.61 47L289.19 47.4L289.79 47.83L290.41 48.31L291.06 48.82L291.74 49.38L292.44 49.99L293.18 50.64L293.95 51.33L294.75 52.08L295.59 52.87L296.46 53.71L297.38 54.59L298.33 55.53L299.33 56.53L300.37 57.57L301.46 58.67L302.6 59.82L303.79 61.03L318.35 75.9L327.92 71.62L328.32 71.45L328.72 71.27L329.12 71.09L329.52 70.92L329.93 70.74L330.33 70.56L330.73 70.39L331.14 70.21L331.54 70.04L331.94 69.86L332.35 69.69L332.74 69.52L333.14 69.35L333.53 69.19L333.93 69.02L334.31 68.86L334.7 68.7L335.07 68.54L335.45 68.39L335.81 68.23L336.18 68.08L336.53 67.94L336.88 67.8L337.22 67.66L337.56 67.52L337.88 67.39L338.2 67.27L338.51 67.14L338.81 67.03L339.1 66.91L339.37 66.81L339.64 66.7L339.9 66.61L340.14 66.51L340.38 66.43L340.6 66.35L340.81 66.27L341 66.21L341.18 66.14L341.35 66.09L345.2 64.83L345.2 43.95L345.2 42.57L345.2 41.25L345.21 39.98L345.21 38.78L345.22 37.63L345.22 36.53L345.23 35.48L345.24 34.49L345.25 33.54L345.26 32.64L345.28 31.79L345.3 30.98L345.32 30.21L345.34 29.49L345.36 28.8L345.39 28.15L345.42 27.54L345.45 26.96L345.49 26.41L345.53 25.9L345.57 25.41L345.62 24.96L345.67 24.53L345.72 24.12L345.78 23.74L345.84 23.38L345.91 23.03L345.98 22.71L346.05 22.4L346.13 22.11L346.22 21.84L346.31 21.57L346.4 21.31L346.5 21.07L346.6 20.83L346.71 20.59L346.83 20.36L346.95 20.13L347.08 19.9L347.21 19.68L347.5 19.18L347.78 18.71L348.05 18.27L348.33 17.85L348.6 17.45L348.88 17.07L349.18 16.72L349.5 16.38L349.84 16.07L350.22 15.78L350.62 15.5L351.07 15.25L351.57 15.01L352.12 14.79L352.72 14.59L353.38 14.4L354.12 14.23L354.92 14.07L355.8 13.93L356.77 13.8L357.82 13.68L358.97 13.57L360.22 13.48L361.57 13.4L363.03 13.32L364.6 13.26L366.3 13.2L368.12 13.16L370.07 13.12L372.15 13.08L374.38 13.06L376.76 13.04L379.28 13.02L381.96 13.01L384.81 13L387.82 13L391.01 12.99L394.37 12.99L397.92 12.99L401.65 12.99L447.94 12.99ZM400.36 140.49L399.26 140.52L398.13 140.55L396.98 140.59L395.81 140.64L394.64 140.69L393.5 140.75L392.38 140.82L391.29 140.9L390.22 140.98L389.16 141.07L388.13 141.16L387.12 141.27L386.13 141.38L385.15 141.5L384.18 141.64L383.23 141.78L382.29 141.93L381.37 142.09L380.45 142.26L379.54 142.44L378.63 142.64L377.74 142.84L376.85 143.06L375.96 143.29L375.07 143.53L374.19 143.79L373.3 144.05L372.42 144.34L371.53 144.63L370.63 144.94L369.73 145.26L368.83 145.6L367.92 145.96L366.99 146.32L366.06 146.71L365.12 147.11L364.16 147.53L363.19 147.96L362.21 148.41L361.2 148.88L360.19 149.37L359.15 149.87L358.09 150.4L357.01 150.94L354.96 152L352.95 153.11L350.96 154.27L349.01 155.46L347.09 156.7L345.2 157.99L343.34 159.31L341.52 160.68L339.73 162.08L337.98 163.53L336.26 165.01L334.58 166.54L332.93 168.1L331.32 169.7L329.74 171.34L328.2 173.01L326.7 174.72L325.24 176.47L323.81 178.24L322.43 180.06L321.08 181.91L319.77 183.79L318.5 185.7L317.27 187.64L316.09 189.62L314.94 191.63L313.84 193.66L312.78 195.73L311.76 197.82L310.78 199.94L309.85 202.1L308.96 204.27L308.12 206.48L307.32 208.71L306.56 210.96L305.86 213.24L305.19 215.55L304.58 217.87L304.01 220.22L303.49 222.6L303.31 223.51L303.14 224.45L302.98 225.42L302.83 226.41L302.69 227.43L302.56 228.47L302.45 229.53L302.34 230.61L302.25 231.71L302.16 232.82L302.09 233.95L302.03 235.09L301.97 236.25L301.93 237.41L301.9 238.59L301.88 239.77L301.87 240.96L301.87 242.15L301.89 243.35L301.91 244.55L301.94 245.75L301.98 246.95L302.04 248.15L302.1 249.34L302.17 250.53L302.26 251.71L302.35 252.89L302.45 254.05L302.57 255.21L302.69 256.35L302.83 257.48L302.97 258.59L303.13 259.68L303.29 260.76L303.47 261.82L303.65 262.86L303.84 263.87L304.05 264.86L304.26 265.83L304.49 266.77L305.24 269.67L306.07 272.53L306.97 275.35L307.94 278.13L308.98 280.87L310.08 283.57L311.25 286.22L312.49 288.83L313.79 291.39L315.16 293.91L316.59 296.38L318.08 298.8L319.63 301.17L321.24 303.5L322.92 305.77L324.64 307.99L326.43 310.15L328.27 312.26L330.17 314.32L332.12 316.32L334.13 318.27L336.19 320.15L338.3 321.98L340.46 323.75L342.67 325.46L344.93 327.1L347.24 328.69L349.59 330.21L351.99 331.67L354.44 333.06L356.92 334.38L359.46 335.64L362.03 336.83L364.64 337.95L367.3 339L369.99 339.98L372.73 340.89L375.5 341.73L378.3 342.49L381.15 343.18L382.05 343.37L382.99 343.56L383.95 343.73L384.94 343.89L385.96 344.04L386.99 344.18L388.05 344.3L389.13 344.42L390.22 344.52L391.33 344.61L392.46 344.69L393.6 344.75L394.76 344.81L395.92 344.85L397.1 344.89L398.28 344.91L399.47 344.92L400.66 344.91L401.86 344.9L403.06 344.88L404.26 344.84L405.46 344.79L406.66 344.73L407.86 344.66L409.05 344.58L410.23 344.49L411.41 344.39L412.57 344.27L413.73 344.15L414.87 344.01L416 343.86L417.12 343.71L418.21 343.54L419.29 343.36L420.35 343.17L421.39 342.97L422.41 342.75L423.4 342.53L424.37 342.3L425.31 342.05L427.8 341.35L430.26 340.58L432.7 339.75L435.1 338.86L437.48 337.91L439.83 336.9L442.14 335.84L444.43 334.71L446.68 333.53L448.9 332.29L451.08 331L453.23 329.65L455.34 328.26L457.42 326.8L459.45 325.3L461.45 323.75L463.41 322.14L465.33 320.49L467.2 318.79L469.04 317.04L470.83 315.25L472.58 313.41L474.28 311.52L475.93 309.6L477.54 307.63L479.1 305.61L480.62 303.56L482.08 301.47L483.49 299.33L484.85 297.16L486.16 294.95L487.42 292.71L488.62 290.42L489.77 288.11L490.86 285.75L491.9 283.37L492.87 280.95L493.79 278.5L494.66 276.02L495.46 273.51L496.02 271.62L496.54 269.72L497.03 267.81L497.48 265.91L497.9 264L498.28 262.09L498.62 260.17L498.93 258.26L499.21 256.34L499.44 254.42L499.65 252.51L499.81 250.59L499.94 248.67L500.04 246.75L500.1 244.84L500.12 242.92L500.11 241.01L500.06 239.09L499.98 237.18L499.86 235.28L499.71 233.37L499.52 231.47L499.29 229.57L499.03 227.68L498.74 225.79L498.41 223.9L498.04 222.02L497.64 220.15L497.21 218.28L496.73 216.42L496.23 214.56L495.68 212.71L495.11 210.87L494.49 209.03L493.85 207.2L493.16 205.38L492.45 203.57L491.69 201.77L490.91 199.97L490.08 198.19L489.19 196.33L488.27 194.51L487.31 192.71L486.34 190.93L485.33 189.19L484.3 187.47L483.24 185.77L482.15 184.11L481.04 182.47L479.9 180.86L478.74 179.27L477.55 177.72L476.33 176.19L475.09 174.69L473.82 173.22L472.53 171.78L471.21 170.37L469.87 168.99L468.51 167.63L467.11 166.31L465.7 165.01L464.26 163.75L462.8 162.51L461.31 161.31L459.8 160.13L458.27 158.99L456.71 157.87L455.14 156.79L453.54 155.74L451.91 154.72L450.27 153.73L448.6 152.77L446.91 151.85L445.2 150.95L443.47 150.09L441.72 149.26L439.94 148.47L438.15 147.7L436.33 146.97L434.49 146.28L433.5 145.91L432.51 145.56L431.54 145.22L430.58 144.9L429.63 144.59L428.69 144.29L427.76 144L426.84 143.72L425.92 143.46L425.01 143.21L424.11 142.97L423.21 142.75L422.31 142.53L421.41 142.33L420.52 142.14L419.63 141.95L418.73 141.79L417.84 141.63L416.94 141.48L416.04 141.34L415.13 141.22L414.22 141.1L413.31 140.99L412.38 140.9L411.45 140.81L410.51 140.74L409.55 140.67L408.59 140.62L407.61 140.57L406.62 140.53L405.62 140.5L404.6 140.48L403.57 140.47L402.52 140.47L401.45 140.48L400.36 140.49Z" id="cFSBnBlZi"></path><path d="M144.84 378.08L146.44 378.08L147.95 378.08L149.39 378.08L150.75 378.09L152.04 378.09L153.25 378.1L154.4 378.11L155.49 378.12L156.51 378.14L157.47 378.15L158.38 378.17L159.23 378.2L160.02 378.22L160.77 378.25L161.46 378.28L162.11 378.32L162.72 378.36L163.28 378.4L163.81 378.45L164.3 378.51L164.76 378.56L165.18 378.63L165.58 378.7L165.95 378.77L166.29 378.85L166.61 378.93L166.92 379.03L167.2 379.12L167.48 379.23L167.74 379.34L167.99 379.45L168.23 379.58L168.47 379.71L168.7 379.85L168.94 380L169.18 380.15L169.42 380.31L169.67 380.49L170.05 380.76L170.43 381.04L170.79 381.32L171.14 381.6L171.47 381.9L171.8 382.2L172.11 382.5L172.41 382.81L172.7 383.13L172.98 383.46L173.25 383.8L173.5 384.14L173.75 384.49L173.98 384.85L174.2 385.22L174.42 385.6L174.62 385.99L174.81 386.39L175 386.8L175.17 387.22L175.33 387.65L175.48 388.1L175.63 388.56L175.76 389.02L175.89 389.51L176 390L176.11 390.51L176.21 391.03L176.3 391.57L176.38 392.12L176.45 392.69L176.52 393.27L176.57 393.87L176.62 394.49L176.66 395.12L176.69 395.76L176.72 396.43L176.74 397.11L176.75 397.81L176.75 398.53L176.75 399.1L176.75 399.65L176.76 400.17L176.76 400.66L176.76 401.13L176.77 401.58L176.78 402L176.79 402.4L176.8 402.78L176.81 403.14L176.83 403.48L176.85 403.8L176.87 404.1L176.9 404.38L176.93 404.65L176.96 404.9L177 405.14L177.04 405.36L177.08 405.56L177.13 405.76L177.19 405.94L177.24 406.11L177.31 406.27L177.38 406.42L177.45 406.55L177.53 406.68L177.62 406.81L177.71 406.92L177.81 407.03L177.91 407.13L178.03 407.23L178.14 407.32L178.27 407.41L178.4 407.5L178.54 407.58L178.69 407.67L178.85 407.75L179.01 407.84L179.18 407.92L179.36 408.01L179.54 408.09L179.72 408.17L179.88 408.24L180.05 408.3L180.21 408.36L180.36 408.41L180.51 408.45L180.66 408.48L180.81 408.5L180.96 408.52L181.11 408.52L181.26 408.52L181.4 408.5L181.56 408.47L181.71 408.44L181.87 408.39L182.03 408.33L182.19 408.25L182.37 408.17L182.54 408.07L182.73 407.95L182.92 407.83L183.11 407.69L183.32 407.53L183.54 407.36L183.76 407.17L184 406.97L184.25 406.75L184.51 406.51L184.78 406.26L185.07 405.99L185.37 405.7L185.68 405.4L186.01 405.07L186.36 404.73L186.72 404.36L187.1 403.98L187.5 403.57L187.92 403.15L188.35 402.7L188.86 402.19L189.35 401.69L189.83 401.22L190.31 400.77L190.77 400.33L191.22 399.92L191.66 399.53L192.09 399.15L192.51 398.79L192.93 398.45L193.34 398.13L193.74 397.83L194.14 397.55L194.54 397.28L194.93 397.03L195.31 396.79L195.69 396.58L196.07 396.37L196.45 396.19L196.83 396.02L197.21 395.87L197.58 395.73L197.96 395.6L198.34 395.5L198.72 395.4L199.1 395.32L199.49 395.25L199.88 395.2L200.27 395.16L200.67 395.14L201.08 395.12L201.49 395.12L201.91 395.13L202.34 395.16L202.77 395.19L203.21 395.24L203.67 395.3L204.13 395.37L204.6 395.44L205.09 395.53L205.32 395.58L205.55 395.64L205.78 395.71L206.02 395.79L206.27 395.88L206.52 395.99L206.77 396.1L207.04 396.23L207.31 396.38L207.59 396.54L207.88 396.71L208.18 396.9L208.49 397.11L208.81 397.34L209.15 397.58L209.49 397.84L209.86 398.12L210.23 398.42L210.62 398.74L211.03 399.08L211.46 399.45L211.9 399.83L212.36 400.24L212.84 400.67L213.34 401.13L213.86 401.61L214.4 402.12L214.97 402.65L215.55 403.21L216.16 403.8L216.8 404.41L217.46 405.06L218.14 405.73L218.85 406.43L219.59 407.17L220.36 407.93L221.15 408.73L221.98 409.56L222.83 410.42L223.72 411.31L225.01 412.62L226.25 413.88L227.44 415.09L228.57 416.25L229.66 417.36L230.7 418.43L231.69 419.45L232.63 420.44L233.53 421.38L234.39 422.28L235.2 423.15L235.97 423.97L236.7 424.77L237.39 425.53L238.05 426.25L238.66 426.95L239.24 427.61L239.79 428.25L240.3 428.86L240.78 429.45L241.23 430.01L241.64 430.55L242.03 431.06L242.39 431.56L242.72 432.04L243.03 432.5L243.31 432.95L243.57 433.38L243.81 433.8L244.02 434.2L244.22 434.6L244.39 434.99L244.55 435.37L244.69 435.75L244.81 436.12L244.92 436.48L245.02 436.85L245.1 437.21L245.18 437.58L245.24 437.95L245.31 438.39L245.36 438.81L245.41 439.23L245.45 439.64L245.48 440.05L245.49 440.44L245.5 440.83L245.5 441.21L245.49 441.59L245.46 441.96L245.43 442.33L245.38 442.69L245.32 443.06L245.25 443.41L245.17 443.77L245.07 444.13L244.96 444.49L244.83 444.84L244.7 445.2L244.55 445.56L244.38 445.92L244.2 446.29L244.01 446.66L243.8 447.03L243.57 447.41L243.33 447.79L243.08 448.18L242.8 448.58L242.51 448.98L242.21 449.39L241.88 449.82L241.54 450.25L241.19 450.69L240.81 451.14L240.41 451.6L240 452.08L239.57 452.57L239.12 453.07L238.65 453.58L238.16 454.11L237.74 454.56L237.34 454.99L236.96 455.41L236.6 455.8L236.26 456.18L235.94 456.54L235.63 456.88L235.34 457.21L235.07 457.52L234.81 457.82L234.57 458.11L234.34 458.39L234.13 458.65L233.94 458.9L233.76 459.14L233.59 459.36L233.44 459.58L233.3 459.79L233.18 460L233.07 460.19L232.97 460.38L232.88 460.56L232.81 460.73L232.74 460.9L232.69 461.06L232.65 461.23L232.62 461.38L232.6 461.54L232.59 461.69L232.58 461.84L232.59 461.99L232.61 462.14L232.63 462.29L232.67 462.44L232.71 462.59L232.75 462.75L232.81 462.91L232.87 463.07L232.94 463.23L233.01 463.4L233.09 463.58L233.16 463.74L233.24 463.9L233.32 464.05L233.4 464.19L233.49 464.33L233.57 464.46L233.66 464.58L233.76 464.7L233.86 464.81L233.97 464.91L234.08 465.01L234.21 465.1L234.34 465.19L234.48 465.27L234.63 465.35L234.8 465.42L234.97 465.49L235.16 465.56L235.36 465.62L235.58 465.68L235.81 465.73L236.05 465.78L236.32 465.82L236.59 465.87L236.89 465.91L237.21 465.95L237.54 465.98L237.9 466.02L238.28 466.05L238.68 466.08L239.1 466.11L239.54 466.14L240.01 466.17L240.5 466.19L241.02 466.22L241.57 466.24L242.14 466.27L242.74 466.3L243.37 466.32L244.14 466.35L244.88 466.39L245.6 466.44L246.29 466.49L246.96 466.54L247.61 466.6L248.23 466.67L248.83 466.75L249.4 466.83L249.96 466.92L250.5 467.02L251.01 467.12L251.51 467.24L251.99 467.36L252.45 467.49L252.9 467.63L253.33 467.78L253.74 467.95L254.14 468.12L254.52 468.3L254.89 468.49L255.25 468.7L255.59 468.92L255.93 469.15L256.25 469.39L256.56 469.64L256.86 469.91L257.16 470.19L257.44 470.49L257.72 470.79L257.99 471.12L258.25 471.46L258.51 471.81L258.76 472.18L259.01 472.56L259.25 472.96L259.49 473.38L259.73 473.81L259.97 474.26L260.2 474.73L260.32 474.97L260.43 475.21L260.53 475.46L260.63 475.71L260.73 475.97L260.82 476.25L260.91 476.53L260.99 476.83L261.07 477.14L261.14 477.47L261.21 477.82L261.28 478.18L261.34 478.57L261.4 478.98L261.46 479.41L261.51 479.88L261.56 480.36L261.6 480.88L261.65 481.43L261.68 482.01L261.72 482.62L261.76 483.27L261.79 483.96L261.82 484.68L261.84 485.44L261.87 486.25L261.89 487.1L261.91 487.99L261.92 488.93L261.94 489.92L261.95 490.96L261.96 492.04L261.97 493.19L261.98 494.38L261.99 495.63L261.99 496.94L261.99 498.31L262 499.74L262 501.23L262 502.78L262 504.78L262 506.69L261.99 508.52L261.98 510.26L261.97 511.91L261.95 513.48L261.93 514.98L261.9 516.39L261.86 517.74L261.82 519.01L261.77 520.22L261.72 521.36L261.65 522.44L261.58 523.45L261.5 524.41L261.41 525.31L261.31 526.16L261.19 526.96L261.07 527.72L260.93 528.42L260.79 529.09L260.63 529.71L260.45 530.3L260.26 530.85L260.06 531.37L259.84 531.85L259.61 532.32L259.36 532.75L259.09 533.17L258.81 533.56L258.51 533.94L258.19 534.3L257.85 534.65L257.49 534.99L257.12 535.33L256.72 535.66L256.3 535.99L255.86 536.31L255.4 536.65L254.92 536.98L254.7 537.13L254.48 537.28L254.27 537.41L254.06 537.54L253.85 537.67L253.64 537.79L253.44 537.9L253.23 538.01L253.02 538.12L252.81 538.22L252.59 538.31L252.38 538.4L252.16 538.48L251.94 538.56L251.71 538.64L251.48 538.71L251.24 538.77L250.99 538.84L250.74 538.89L250.48 538.95L250.22 539L249.94 539.05L249.66 539.09L249.36 539.13L249.06 539.17L248.74 539.2L248.41 539.23L248.07 539.26L247.72 539.28L247.35 539.3L246.97 539.32L246.58 539.34L246.17 539.35L245.74 539.36L245.3 539.37L244.84 539.38L244.37 539.39L243.87 539.39L243.36 539.39L242.83 539.39L242.23 539.39L241.65 539.39L241.11 539.4L240.59 539.4L240.1 539.4L239.63 539.41L239.18 539.42L238.76 539.43L238.37 539.44L237.99 539.45L237.64 539.47L237.31 539.49L236.99 539.51L236.7 539.54L236.42 539.57L236.16 539.6L235.92 539.64L235.69 539.68L235.48 539.73L235.28 539.78L235.09 539.83L234.92 539.89L234.76 539.96L234.61 540.03L234.47 540.1L234.34 540.19L234.22 540.28L234.1 540.37L233.99 540.47L233.89 540.58L233.8 540.7L233.7 540.82L233.62 540.95L233.53 541.09L233.45 541.23L233.37 541.39L233.29 541.55L233.2 541.72L233.12 541.9L233.04 542.09L232.96 542.27L232.88 542.45L232.82 542.62L232.75 542.79L232.7 542.95L232.65 543.11L232.61 543.27L232.58 543.42L232.55 543.57L232.54 543.72L232.53 543.87L232.53 544.02L232.54 544.17L232.56 544.32L232.59 544.48L232.63 544.63L232.68 544.79L232.74 544.96L232.82 545.13L232.9 545.3L233 545.48L233.11 545.66L233.23 545.86L233.37 546.06L233.52 546.27L233.68 546.48L233.85 546.71L234.04 546.95L234.25 547.2L234.47 547.46L234.7 547.73L234.96 548.02L235.22 548.32L235.51 548.63L235.81 548.96L236.12 549.3L236.46 549.66L236.81 550.04L237.18 550.43L237.57 550.85L237.8 551.1L238.04 551.35L238.27 551.6L238.5 551.86L238.74 552.11L238.97 552.36L239.2 552.62L239.43 552.87L239.65 553.13L239.87 553.38L240.1 553.63L240.31 553.88L240.53 554.13L240.74 554.38L240.95 554.62L241.16 554.87L241.36 555.11L241.56 555.34L241.75 555.58L241.94 555.81L242.12 556.03L242.3 556.25L242.48 556.47L242.64 556.68L242.81 556.89L242.96 557.09L243.12 557.29L243.26 557.48L243.4 557.67L243.53 557.84L243.65 558.02L243.77 558.18L243.88 558.34L243.98 558.49L244.08 558.63L244.17 558.77L244.24 558.9L244.31 559.01L244.37 559.12L244.43 559.22L244.54 559.47L244.65 559.73L244.76 559.99L244.85 560.25L244.94 560.53L245.03 560.81L245.1 561.09L245.18 561.38L245.24 561.68L245.3 561.98L245.35 562.28L245.39 562.59L245.43 562.9L245.46 563.22L245.48 563.54L245.5 563.86L245.51 564.18L245.52 564.51L245.51 564.84L245.51 565.17L245.49 565.5L245.47 565.83L245.44 566.17L245.41 566.5L245.36 566.84L245.32 567.17L245.26 567.51L245.2 567.84L245.14 568.18L245.06 568.51L244.98 568.84L244.9 569.17L244.8 569.5L244.71 569.83L244.6 570.15L244.49 570.47L244.37 570.79L244.25 571.1L244.12 571.42L243.98 571.72L243.75 572.14L243.42 572.66L242.99 573.27L242.46 573.97L241.85 574.75L241.14 575.6L240.36 576.53L239.51 577.52L238.59 578.56L237.61 579.66L236.57 580.81L235.47 582L234.33 583.23L233.16 584.49L231.94 585.77L230.7 587.08L229.43 588.4L228.14 589.72L226.84 591.06L225.53 592.39L224.22 593.71L222.92 595.02L221.62 596.31L220.34 597.57L219.07 598.81L217.83 600.01L216.62 601.17L215.45 602.29L214.32 603.35L213.23 604.35L212.2 605.3L211.22 606.17L210.31 606.97L209.47 607.69L208.7 608.32L208.01 608.87L207.41 609.32L206.9 609.66L206.48 609.9L206.16 610.03L205.68 610.15L205.2 610.26L204.74 610.35L204.27 610.43L203.82 610.5L203.37 610.55L202.92 610.59L202.48 610.61L202.05 610.63L201.62 610.62L201.19 610.6L200.77 610.57L200.35 610.52L199.93 610.46L199.51 610.38L199.1 610.29L198.68 610.18L198.27 610.06L197.86 609.91L197.44 609.76L197.03 609.58L196.61 609.39L196.2 609.19L195.78 608.96L195.36 608.72L194.93 608.47L194.5 608.19L194.07 607.9L193.64 607.59L193.2 607.26L192.76 606.92L192.31 606.55L191.85 606.17L191.39 605.77L190.92 605.35L190.44 604.91L189.96 604.45L189.47 603.97L188.97 603.48L188.46 602.96L188.01 602.51L187.59 602.08L187.19 601.66L186.8 601.27L186.43 600.9L186.08 600.55L185.74 600.22L185.42 599.91L185.12 599.62L184.83 599.34L184.55 599.09L184.29 598.85L184.04 598.62L183.8 598.42L183.57 598.23L183.35 598.05L183.14 597.89L182.94 597.75L182.74 597.62L182.56 597.5L182.38 597.4L182.21 597.31L182.04 597.24L181.88 597.18L181.72 597.13L181.56 597.09L181.41 597.06L181.26 597.04L181.11 597.04L180.96 597.04L180.81 597.06L180.66 597.08L180.51 597.11L180.36 597.15L180.21 597.2L180.05 597.26L179.88 597.32L179.72 597.39L179.54 597.47L179.36 597.55L179.18 597.64L179.01 597.72L178.85 597.81L178.69 597.89L178.54 597.97L178.4 598.06L178.27 598.14L178.14 598.23L178.03 598.33L177.91 598.43L177.81 598.53L177.71 598.64L177.62 598.75L177.53 598.87L177.45 599L177.38 599.14L177.31 599.29L177.25 599.45L177.19 599.62L177.13 599.8L177.08 599.99L177.04 600.2L177 600.42L176.96 600.66L176.93 600.91L176.9 601.17L176.87 601.46L176.85 601.76L176.83 602.08L176.81 602.42L176.8 602.78L176.79 603.16L176.78 603.56L176.77 603.98L176.76 604.43L176.76 604.9L176.76 605.39L176.75 605.91L176.75 606.46L176.75 607.03L176.75 607.75L176.74 608.45L176.72 609.13L176.69 609.79L176.66 610.44L176.62 611.07L176.57 611.69L176.52 612.28L176.45 612.87L176.38 613.43L176.3 613.99L176.21 614.52L176.11 615.05L176 615.56L175.89 616.05L175.76 616.53L175.63 617L175.48 617.46L175.33 617.9L175.17 618.34L175 618.76L174.81 619.17L174.62 619.57L174.42 619.96L174.2 620.34L173.98 620.71L173.75 621.07L173.5 621.42L173.25 621.76L172.98 622.1L172.7 622.42L172.41 622.74L172.11 623.06L171.8 623.36L171.47 623.66L171.14 623.95L170.79 624.24L170.43 624.52L170.05 624.8L169.67 625.07L169.42 625.24L169.18 625.41L168.94 625.56L168.7 625.71L168.47 625.85L168.23 625.98L167.99 626.1L167.74 626.22L167.48 626.33L167.21 626.43L166.92 626.53L166.61 626.62L166.29 626.71L165.95 626.79L165.58 626.86L165.18 626.93L164.76 626.99L164.3 627.05L163.81 627.1L163.28 627.15L162.72 627.2L162.11 627.24L161.46 627.27L160.77 627.31L160.02 627.34L159.23 627.36L158.38 627.38L157.48 627.4L156.51 627.42L155.49 627.43L154.41 627.45L153.25 627.45L152.04 627.46L150.75 627.47L149.39 627.47L147.95 627.48L146.44 627.48L144.84 627.48L143.17 627.48L141.41 627.48L139.79 627.48L138.24 627.48L136.76 627.48L135.35 627.47L134 627.47L132.71 627.46L131.48 627.45L130.31 627.44L129.19 627.43L128.13 627.42L127.13 627.41L126.17 627.39L125.27 627.37L124.41 627.35L123.6 627.32L122.84 627.3L122.11 627.27L121.43 627.23L120.79 627.2L120.18 627.16L119.61 627.12L119.07 627.07L118.56 627.02L118.09 626.97L117.64 626.91L117.22 626.85L116.82 626.79L116.45 626.72L116.1 626.65L115.77 626.57L115.46 626.49L115.16 626.41L114.87 626.32L114.6 626.22L114.34 626.12L114.09 626.02L113.85 625.9L113.61 625.79L113.37 625.67L113.14 625.54L112.74 625.32L112.36 625.08L111.98 624.84L111.63 624.59L111.28 624.34L110.95 624.07L110.63 623.8L110.32 623.52L110.02 623.23L109.73 622.93L109.46 622.62L109.2 622.3L108.95 621.97L108.71 621.63L108.48 621.28L108.26 620.91L108.05 620.53L107.85 620.14L107.67 619.74L107.49 619.32L107.33 618.89L107.17 618.44L107.02 617.99L106.89 617.51L106.76 617.02L106.64 616.52L106.53 615.99L106.43 615.46L106.34 614.9L106.26 614.33L106.19 613.74L106.12 613.13L106.06 612.5L106.02 611.86L105.97 611.19L105.94 610.51L105.92 609.81L105.9 609.08L105.89 608.34L105.88 607.57L105.88 606.95L105.88 606.35L105.88 605.78L105.88 605.24L105.88 604.73L105.87 604.25L105.86 603.79L105.85 603.36L105.84 602.95L105.83 602.56L105.81 602.2L105.8 601.86L105.77 601.54L105.75 601.24L105.72 600.96L105.69 600.7L105.65 600.45L105.61 600.23L105.56 600.01L105.51 599.82L105.46 599.63L105.4 599.46L105.33 599.31L105.26 599.16L105.18 599.02L105.1 598.9L105.01 598.78L104.91 598.67L104.8 598.57L104.69 598.48L104.57 598.39L104.45 598.3L104.31 598.22L104.17 598.14L104.02 598.07L103.86 597.99L103.69 597.92L103.52 597.85L103.33 597.77L103.13 597.69L102.95 597.62L102.77 597.56L102.59 597.5L102.43 597.44L102.26 597.39L102.1 597.35L101.94 597.32L101.79 597.29L101.64 597.28L101.48 597.27L101.33 597.26L101.18 597.27L101.03 597.29L100.88 597.31L100.73 597.35L100.57 597.39L100.41 597.45L100.25 597.52L100.09 597.6L99.92 597.69L99.74 597.79L99.56 597.9L99.38 598.02L99.18 598.16L98.98 598.31L98.77 598.48L98.55 598.66L98.33 598.85L98.09 599.06L97.84 599.28L97.58 599.52L97.31 599.77L97.03 600.04L96.73 600.32L96.43 600.62L96.1 600.94L95.77 601.27L95.41 601.62L95.04 601.99L94.66 602.38L94.42 602.61L94.18 602.85L93.95 603.09L93.71 603.32L93.46 603.56L93.22 603.79L92.98 604.02L92.74 604.25L92.5 604.48L92.26 604.71L92.02 604.93L91.78 605.15L91.55 605.37L91.31 605.58L91.08 605.79L90.85 606L90.62 606.21L90.4 606.41L90.18 606.6L89.96 606.79L89.74 606.98L89.53 607.16L89.33 607.34L89.12 607.51L88.93 607.67L88.73 607.83L88.55 607.98L88.36 608.13L88.19 608.27L88.02 608.41L87.85 608.53L87.69 608.65L87.54 608.76L87.4 608.87L87.26 608.96L87.13 609.05L87.01 609.13L86.9 609.2L86.79 609.27L86.69 609.32L86.47 609.43L86.24 609.54L85.99 609.63L85.74 609.73L85.47 609.82L85.2 609.9L84.91 609.98L84.62 610.05L84.32 610.11L84.02 610.17L83.71 610.23L83.39 610.27L83.07 610.32L82.74 610.35L82.41 610.39L82.08 610.41L81.74 610.43L81.4 610.45L81.06 610.45L80.72 610.46L80.38 610.46L80.04 610.45L79.71 610.43L79.37 610.41L79.04 610.39L78.71 610.36L78.38 610.32L78.06 610.28L77.74 610.23L77.43 610.18L77.12 610.12L76.82 610.05L76.53 609.98L76.25 609.9L75.97 609.82L75.7 609.73L75.45 609.64L75.2 609.54L74.97 609.44L74.75 609.33L74.45 609.14L74.06 608.85L73.58 608.46L73 607.97L72.34 607.38L71.61 606.71L70.8 605.96L69.92 605.14L68.98 604.24L67.98 603.28L66.94 602.26L65.84 601.19L64.71 600.07L63.54 598.91L62.34 597.71L61.12 596.48L59.88 595.22L58.63 593.95L57.37 592.66L56.1 591.36L54.84 590.06L53.58 588.76L52.34 587.47L51.12 586.19L49.92 584.93L48.76 583.7L47.62 582.49L46.53 581.32L45.48 580.19L44.49 579.11L43.55 578.08L42.67 577.11L41.86 576.2L41.13 575.36L40.47 574.6L39.89 573.91L39.41 573.31L39.02 572.8L38.73 572.39L38.54 572.08L38.48 571.96L38.42 571.83L38.36 571.7L38.3 571.55L38.24 571.41L38.19 571.25L38.13 571.09L38.08 570.93L38.02 570.76L37.97 570.58L37.92 570.4L37.86 570.21L37.81 570.03L37.77 569.83L37.72 569.64L37.67 569.44L37.63 569.23L37.58 569.03L37.54 568.82L37.5 568.61L37.46 568.4L37.42 568.18L37.39 567.96L37.35 567.75L37.32 567.53L37.29 567.31L37.26 567.09L37.23 566.87L37.21 566.65L37.18 566.43L37.16 566.2L37.14 565.99L37.13 565.77L37.11 565.55L37.1 565.33L37.09 565.12L37.08 564.91L37.07 564.7L37.07 564.49L37.07 564.28L37.07 563.94L37.07 563.62L37.08 563.3L37.09 563L37.1 562.71L37.11 562.43L37.13 562.16L37.16 561.89L37.19 561.64L37.23 561.39L37.27 561.14L37.33 560.9L37.39 560.66L37.45 560.43L37.53 560.19L37.61 559.96L37.71 559.73L37.82 559.5L37.93 559.26L38.06 559.02L38.2 558.78L38.35 558.53L38.51 558.28L38.69 558.02L38.88 557.75L39.09 557.47L39.31 557.18L39.55 556.89L39.8 556.58L40.07 556.26L40.35 555.93L40.66 555.58L40.98 555.22L41.32 554.84L41.68 554.44L42.06 554.03L42.45 553.59L42.87 553.14L43.31 552.67L43.77 552.18L44.23 551.69L44.66 551.23L45.07 550.79L45.46 550.36L45.83 549.96L46.18 549.57L46.51 549.2L46.82 548.85L47.12 548.52L47.39 548.2L47.65 547.89L47.9 547.6L48.12 547.32L48.33 547.05L48.53 546.8L48.71 546.55L48.87 546.32L49.02 546.1L49.16 545.88L49.28 545.68L49.39 545.48L49.48 545.29L49.56 545.1L49.64 544.92L49.69 544.75L49.74 544.57L49.78 544.41L49.81 544.24L49.82 544.08L49.83 543.91L49.83 543.75L49.81 543.59L49.79 543.43L49.77 543.26L49.73 543.09L49.69 542.92L49.64 542.75L49.58 542.57L49.52 542.39L49.45 542.2L49.37 542L49.3 541.81L49.23 541.63L49.16 541.46L49.09 541.3L49.02 541.14L48.94 541L48.86 540.86L48.78 540.73L48.7 540.61L48.6 540.5L48.51 540.39L48.4 540.29L48.29 540.2L48.17 540.12L48.03 540.04L47.89 539.96L47.74 539.89L47.57 539.83L47.4 539.78L47.21 539.72L47 539.68L46.78 539.64L46.54 539.6L46.29 539.56L46.02 539.53L45.73 539.51L45.42 539.49L45.09 539.47L44.74 539.45L44.36 539.44L43.97 539.42L43.55 539.42L43.11 539.41L42.64 539.4L42.15 539.4L41.63 539.4L41.08 539.4L40.51 539.39L39.9 539.39L39.16 539.39L38.44 539.38L37.74 539.36L37.06 539.33L36.4 539.3L35.75 539.26L35.13 539.21L34.52 539.15L33.94 539.08L33.36 539.01L32.81 538.92L32.27 538.83L31.75 538.72L31.25 538.61L30.76 538.49L30.28 538.36L29.83 538.22L29.38 538.06L28.95 537.9L28.53 537.73L28.13 537.55L27.74 537.36L27.36 537.15L26.99 536.94L26.64 536.71L26.3 536.48L25.97 536.23L25.65 535.97L25.34 535.7L25.04 535.42L24.75 535.12L24.47 534.81L24.19 534.49L23.93 534.16L23.68 533.82L23.43 533.46L23.19 533.09L22.96 532.71L22.73 532.31L22.51 531.9L22.39 531.66L22.27 531.42L22.16 531.17L22.05 530.92L21.95 530.66L21.86 530.39L21.76 530.11L21.68 529.82L21.59 529.51L21.51 529.19L21.44 528.85L21.37 528.48L21.3 528.1L21.24 527.69L21.18 527.26L21.13 526.8L21.08 526.32L21.03 525.8L20.99 525.25L20.95 524.66L20.91 524.04L20.88 523.38L20.84 522.68L20.81 521.94L20.79 521.16L20.76 520.33L20.74 519.45L20.72 518.52L20.71 517.55L20.69 516.52L20.68 515.44L20.67 514.3L20.66 513.1L20.65 511.85L20.65 510.53L20.64 509.15L20.64 507.7L20.64 506.19L20.63 504.61L20.63 502.96L20.64 500.86L20.64 498.86L20.64 496.95L20.65 495.13L20.66 493.41L20.68 491.77L20.7 490.21L20.73 488.74L20.76 487.35L20.8 486.03L20.85 484.78L20.9 483.61L20.96 482.5L21.04 481.46L21.12 480.48L21.21 479.56L21.31 478.7L21.42 477.89L21.54 477.13L21.67 476.42L21.82 475.76L21.98 475.15L22.16 474.57L22.34 474.03L22.55 473.53L22.77 473.06L23 472.63L23.25 472.21L23.52 471.83L23.8 471.47L24.11 471.12L24.43 470.79L24.77 470.48L25.13 470.18L25.51 469.89L25.92 469.6L26.34 469.32L26.78 469.03L27.25 468.75L27.74 468.46L27.98 468.33L28.21 468.2L28.44 468.07L28.68 467.95L28.91 467.84L29.14 467.73L29.37 467.62L29.6 467.52L29.83 467.42L30.06 467.33L30.3 467.24L30.53 467.16L30.78 467.08L31.02 467L31.27 466.93L31.52 466.86L31.78 466.8L32.04 466.74L32.31 466.68L32.58 466.63L32.86 466.58L33.15 466.53L33.45 466.49L33.75 466.45L34.06 466.41L34.38 466.37L34.71 466.34L35.05 466.31L35.4 466.29L35.76 466.27L36.14 466.25L36.52 466.23L36.92 466.21L37.32 466.2L37.74 466.19L38.18 466.18L38.63 466.17L39.09 466.17L39.57 466.17L40.06 466.16L40.65 466.16L41.21 466.16L41.75 466.16L42.26 466.16L42.74 466.16L43.2 466.15L43.64 466.14L44.05 466.13L44.43 466.12L44.8 466.11L45.14 466.09L45.47 466.07L45.77 466.05L46.05 466.02L46.32 465.99L46.57 465.96L46.8 465.92L47.02 465.88L47.22 465.83L47.41 465.78L47.59 465.72L47.75 465.66L47.9 465.59L48.04 465.52L48.17 465.44L48.29 465.36L48.4 465.26L48.51 465.16L48.61 465.06L48.7 464.94L48.78 464.82L48.86 464.7L48.94 464.56L49.02 464.41L49.09 464.26L49.16 464.1L49.23 463.93L49.3 463.75L49.37 463.56L49.45 463.36L49.52 463.17L49.58 462.99L49.64 462.81L49.69 462.64L49.73 462.46L49.77 462.3L49.79 462.13L49.81 461.97L49.83 461.81L49.83 461.64L49.82 461.48L49.81 461.32L49.78 461.15L49.74 460.98L49.69 460.81L49.64 460.64L49.56 460.46L49.48 460.27L49.39 460.08L49.28 459.88L49.16 459.67L49.02 459.46L48.87 459.24L48.71 459L48.53 458.76L48.33 458.51L48.12 458.24L47.9 457.96L47.65 457.67L47.39 457.36L47.12 457.04L46.82 456.71L46.51 456.36L46.18 455.99L45.83 455.6L45.46 455.2L45.07 454.77L44.66 454.33L44.23 453.87L43.77 453.38L43.31 452.89L42.87 452.42L42.45 451.96L42.06 451.53L41.68 451.12L41.32 450.72L40.98 450.34L40.66 449.98L40.35 449.63L40.07 449.3L39.8 448.98L39.55 448.67L39.31 448.37L39.09 448.09L38.88 447.81L38.69 447.54L38.51 447.28L38.35 447.03L38.2 446.78L38.06 446.54L37.93 446.3L37.82 446.06L37.71 445.83L37.61 445.6L37.53 445.36L37.45 445.13L37.39 444.9L37.33 444.66L37.27 444.42L37.23 444.17L37.19 443.92L37.16 443.67L37.13 443.4L37.11 443.13L37.1 442.85L37.09 442.56L37.08 442.26L37.07 441.94L37.07 441.61L37.07 441.27L37.07 441.07L37.07 440.86L37.08 440.65L37.09 440.44L37.1 440.23L37.11 440.01L37.13 439.79L37.14 439.57L37.16 439.35L37.18 439.13L37.21 438.91L37.23 438.69L37.26 438.47L37.29 438.25L37.32 438.03L37.35 437.81L37.39 437.59L37.42 437.38L37.46 437.16L37.5 436.95L37.54 436.74L37.58 436.53L37.63 436.32L37.67 436.12L37.72 435.92L37.77 435.73L37.81 435.53L37.86 435.34L37.92 435.16L37.97 434.98L38.02 434.8L38.08 434.63L38.13 434.47L38.19 434.31L38.24 434.15L38.3 434.01L38.36 433.86L38.42 433.73L38.48 433.6L38.54 433.48L38.73 433.17L39.02 432.75L39.41 432.25L39.89 431.65L40.47 430.96L41.13 430.2L41.86 429.36L42.67 428.45L43.55 427.48L44.49 426.45L45.48 425.37L46.53 424.24L47.62 423.07L48.76 421.86L49.92 420.63L51.12 419.37L52.34 418.09L53.58 416.8L54.84 415.5L56.1 414.2L57.37 412.9L58.63 411.61L59.88 410.34L61.12 409.08L62.34 407.85L63.54 406.65L64.71 405.49L65.84 404.37L66.94 403.3L67.98 402.28L68.98 401.32L69.92 400.42L70.8 399.6L71.61 398.84L72.34 398.17L73 397.59L73.58 397.1L74.06 396.71L74.45 396.42L74.75 396.23L74.97 396.12L75.2 396.02L75.45 395.92L75.7 395.82L75.97 395.74L76.25 395.65L76.53 395.58L76.82 395.51L77.12 395.44L77.43 395.38L77.74 395.33L78.06 395.28L78.38 395.24L78.71 395.2L79.04 395.17L79.37 395.15L79.71 395.13L80.04 395.11L80.38 395.1L80.72 395.1L81.06 395.1L81.4 395.11L81.74 395.13L82.08 395.15L82.41 395.17L82.74 395.2L83.07 395.24L83.39 395.28L83.71 395.33L84.02 395.39L84.32 395.45L84.62 395.51L84.91 395.58L85.2 395.66L85.47 395.74L85.74 395.83L85.99 395.92L86.24 396.02L86.47 396.13L86.69 396.24L86.79 396.29L86.9 396.35L87.01 396.43L87.13 396.51L87.26 396.59L87.4 396.69L87.54 396.79L87.69 396.91L87.85 397.03L88.02 397.15L88.19 397.29L88.36 397.43L88.55 397.57L88.73 397.73L88.93 397.89L89.12 398.05L89.33 398.22L89.53 398.4L89.74 398.58L89.96 398.77L90.18 398.96L90.4 399.15L90.62 399.35L90.85 399.56L91.08 399.76L91.31 399.98L91.55 400.19L91.78 400.41L92.02 400.63L92.26 400.85L92.5 401.08L92.74 401.31L92.98 401.54L93.22 401.77L93.46 402L93.71 402.24L93.95 402.47L94.18 402.71L94.42 402.95L94.66 403.18L95.04 403.57L95.41 403.94L95.77 404.29L96.1 404.62L96.43 404.94L96.73 405.24L97.03 405.52L97.31 405.79L97.58 406.04L97.84 406.28L98.09 406.5L98.33 406.71L98.55 406.9L98.77 407.08L98.98 407.24L99.18 407.4L99.38 407.53L99.56 407.66L99.74 407.77L99.92 407.87L100.09 407.96L100.25 408.04L100.41 408.11L100.57 408.16L100.73 408.21L100.88 408.24L101.03 408.27L101.18 408.29L101.33 408.29L101.48 408.29L101.64 408.28L101.79 408.26L101.94 408.24L102.1 408.2L102.26 408.16L102.43 408.12L102.59 408.06L102.77 408L102.95 407.94L103.13 407.86L103.33 407.79L103.52 407.71L103.69 407.64L103.86 407.56L104.02 407.49L104.17 407.41L104.31 407.34L104.45 407.26L104.57 407.17L104.69 407.08L104.8 406.99L104.91 406.89L105.01 406.78L105.1 406.66L105.18 406.53L105.26 406.4L105.33 406.25L105.4 406.1L105.46 405.93L105.51 405.74L105.56 405.54L105.61 405.33L105.65 405.1L105.69 404.86L105.72 404.6L105.75 404.32L105.77 404.02L105.8 403.7L105.81 403.36L105.83 402.99L105.84 402.61L105.85 402.2L105.86 401.77L105.87 401.31L105.88 400.83L105.88 400.31L105.88 399.78L105.88 399.21L105.88 398.61L105.88 397.99L105.89 397.22L105.9 396.48L105.92 395.75L105.94 395.05L105.97 394.36L106.02 393.7L106.06 393.05L106.12 392.43L106.19 391.82L106.26 391.23L106.34 390.66L106.43 390.1L106.53 389.56L106.64 389.04L106.76 388.54L106.89 388.05L107.02 387.57L107.17 387.11L107.33 386.67L107.49 386.24L107.67 385.82L107.85 385.42L108.05 385.03L108.26 384.65L108.48 384.28L108.71 383.93L108.95 383.59L109.2 383.26L109.46 382.94L109.73 382.63L110.02 382.33L110.32 382.04L110.63 381.76L110.95 381.48L111.28 381.22L111.63 380.96L111.98 380.72L112.36 380.48L112.74 380.24L113.14 380.02L113.37 379.89L113.61 379.77L113.85 379.65L114.09 379.54L114.34 379.44L114.6 379.34L114.87 379.24L115.16 379.15L115.46 379.07L115.77 378.99L116.1 378.91L116.45 378.84L116.82 378.77L117.22 378.7L117.64 378.64L118.09 378.59L118.56 378.54L119.07 378.49L119.61 378.44L120.18 378.4L120.78 378.36L121.43 378.32L122.11 378.29L122.84 378.26L123.6 378.24L124.41 378.21L125.27 378.19L126.17 378.17L127.13 378.15L128.13 378.14L129.19 378.12L130.31 378.11L131.48 378.1L132.71 378.1L134 378.09L135.35 378.08L136.76 378.08L138.24 378.08L139.79 378.08L141.41 378.08L143.17 378.08L144.84 378.08ZM136.41 451.72L133.95 452.02L131.5 452.45L129.06 453.02L126.65 453.71L124.26 454.54L121.9 455.51L119.57 456.61L117.29 457.84L115.05 459.21L112.86 460.72L110.72 462.37L108.65 464.16L106.63 466.1L104.69 468.17L103.34 469.75L102.07 471.37L100.87 473.03L99.74 474.72L98.68 476.44L97.7 478.2L96.79 479.99L95.96 481.8L95.19 483.63L94.5 485.49L93.88 487.37L93.34 489.26L92.86 491.17L92.46 493.09L92.13 495.03L91.88 496.97L91.69 498.91L91.58 500.86L91.54 502.81L91.57 504.76L91.67 506.71L91.85 508.65L92.09 510.58L92.41 512.5L92.8 514.41L93.26 516.31L93.79 518.19L94.4 520.05L95.07 521.88L95.82 523.69L96.63 525.48L97.52 527.24L98.48 528.97L99.51 530.66L100.61 532.32L101.78 533.94L103.02 535.52L104.33 537.06L105.71 538.55L107.16 540L108.15 540.92L109.14 541.81L110.14 542.67L111.15 543.49L112.16 544.29L113.19 545.06L114.22 545.79L115.27 546.5L116.32 547.17L117.38 547.81L118.45 548.42L119.52 549L120.61 549.55L121.7 550.07L122.8 550.56L123.91 551.01L125.03 551.44L126.15 551.83L127.28 552.2L128.43 552.53L129.58 552.83L130.73 553.1L131.9 553.34L133.08 553.54L134.26 553.72L135.45 553.87L136.65 553.98L137.85 554.06L139.07 554.12L140.29 554.14L141.52 554.13L142.75 554.09L144 554.01L145.25 553.91L146.51 553.78L147.78 553.61L149.06 553.41L150.34 553.18L151.63 552.93L152.93 552.63L154.12 552.34L155.31 552.01L156.48 551.64L157.64 551.25L158.79 550.82L159.93 550.36L161.05 549.88L162.17 549.36L163.27 548.81L164.35 548.23L165.43 547.62L166.48 546.99L167.53 546.33L168.55 545.64L169.56 544.92L170.56 544.18L171.54 543.41L172.5 542.61L173.44 541.79L174.36 540.94L175.27 540.07L176.16 539.18L177.02 538.26L177.87 537.32L178.69 536.36L179.5 535.37L180.28 534.36L181.04 533.33L181.78 532.28L182.49 531.21L183.18 530.12L183.85 529.02L184.49 527.89L185.11 526.74L185.7 525.58L186.27 524.39L186.8 523.19L187.32 521.98L187.8 520.74L188.26 519.49L188.48 518.84L188.69 518.15L188.89 517.44L189.07 516.7L189.25 515.95L189.42 515.16L189.57 514.36L189.71 513.55L189.84 512.71L189.96 511.86L190.07 510.99L190.16 510.11L190.25 509.22L190.32 508.32L190.38 507.41L190.44 506.49L190.48 505.57L190.5 504.64L190.52 503.71L190.53 502.78L190.52 501.85L190.5 500.92L190.48 499.99L190.44 499.07L190.38 498.15L190.32 497.24L190.25 496.34L190.16 495.45L190.07 494.57L189.96 493.7L189.84 492.85L189.71 492.01L189.57 491.19L189.42 490.39L189.25 489.61L189.07 488.86L188.89 488.12L188.69 487.41L188.48 486.72L188.26 486.07L187.23 483.35L186.08 480.74L184.82 478.24L183.45 475.84L181.98 473.55L180.42 471.36L178.77 469.28L177.02 467.31L175.2 465.45L173.3 463.7L171.33 462.07L169.29 460.55L167.19 459.14L165.03 457.85L162.82 456.67L160.56 455.61L158.25 454.67L155.91 453.85L153.54 453.15L151.14 452.57L148.72 452.12L146.27 451.79L143.82 451.58L141.35 451.5L138.88 451.54L136.41 451.72Z" id="a3DdSTgK7o"></path></defs><g><g><g><use xlink:href="#cFSBnBlZi" opacity="1" fill="#FFFFFF" fill-opacity="1"></use><g><use xlink:href="#cFSBnBlZi" opacity="1" fill-opacity="0"></use></g></g><g><use xlink:href="#a3DdSTgK7o" opacity="1" fill="#FFFFFF" fill-opacity="1"></use><g><use xlink:href="#a3DdSTgK7o" opacity="1" fill-opacity="0"></use></g></g></g></g></svg>