<?xml version="1.0" encoding="utf-8"?>
<!-- Generator: Adobe Illustrator 23.0.3, SVG Export Plug-In . SVG Version: 6.00 Build 0)  -->
<svg version="1.2" baseProfile="tiny" id="Capa_1" xmlns="http://www.w3.org/2000/svg" xmlns:xlink="http://www.w3.org/1999/xlink"
	 x="0px" y="0px" viewBox="0 0 90.28 124.65" xml:space="preserve">
<g>
	<polygon fill="#6ABB83" points="4.1,61.5 23.1,50.86 42.14,40.2 42.14,34.44 4.1,55.75 	"/>
	<polygon fill="#036E32" points="86.73,62.44 67.73,51.8 48.69,41.14 48.69,35.38 86.73,56.69 	"/>
	<polygon fill="#036E32" points="86.73,95.06 67.73,84.42 48.69,73.76 48.69,68 86.73,89.31 	"/>
	<polygon fill="#6ABB83" points="4.1,94.12 23.1,83.48 42.14,72.81 42.14,67.06 4.1,88.36 	"/>
	<g>
		<polygon fill="#6ABB83" points="85.17,63.44 45.14,85.87 5.11,62.78 45.06,40.21 		"/>
		<polygon fill="#33AB59" points="74.76,98.32 45.13,115.03 45.12,85.87 85.17,63.44 		"/>
		<polygon fill="#036E32" points="45.13,85.87 5.11,62.78 13.64,96.94 45.13,115.03 		"/>
		<g>
			<polygon fill="#6ABB83" points="73.82,93.68 67.41,97.25 65.57,96.1 71.96,92.49 			"/>
			<polygon fill="#33AB59" points="78.7,103.05 66.76,109.78 67.4,97.25 73.82,93.68 			"/>
			<polygon fill="#036E32" points="67.4,97.25 65.57,96.1 61.02,106.47 66.76,109.78 			"/>
		</g>
		<g>
			<polygon fill="#6ABB83" points="60.21,101.58 53.79,105.15 51.96,104 58.35,100.39 			"/>
			<polygon fill="#33AB59" points="65.08,110.94 53.15,117.67 53.79,105.15 60.21,101.58 			"/>
			<polygon fill="#036E32" points="53.79,105.15 51.96,104 47.4,114.37 53.15,117.67 			"/>
		</g>
		<polygon fill="#33AB59" points="12.64,62.85 45.07,81.56 45.07,44.54 		"/>
		<polygon fill="#036E32" points="77.64,63.39 45.07,44.54 45.07,81.56 45.14,81.6 		"/>
	</g>
	<g>
		<polygon fill="#6ABB83" points="81.22,26.09 45.14,46.31 9.06,25.5 45.07,5.16 		"/>
		<polygon fill="#33AB59" points="71.84,57.53 45.13,72.59 45.12,46.31 81.22,26.09 		"/>
		<polygon fill="#036E32" points="45.13,46.31 9.06,25.5 16.75,56.28 45.13,72.59 		"/>
		<g>
			<polygon fill="#6ABB83" points="70.99,53.35 65.21,56.57 63.55,55.53 69.31,52.28 			"/>
			<polygon fill="#33AB59" points="75.38,61.79 64.63,67.86 65.2,56.57 70.99,53.35 			"/>
			<polygon fill="#036E32" points="65.21,56.57 63.55,55.53 59.45,64.88 64.63,67.86 			"/>
		</g>
		<g>
			<polygon fill="#6ABB83" points="58.72,60.47 52.94,63.69 51.28,62.65 57.04,59.4 			"/>
			<polygon fill="#33AB59" points="63.11,68.91 52.36,74.97 52.93,63.69 58.72,60.47 			"/>
			<polygon fill="#036E32" points="52.94,63.68 51.28,62.65 47.18,72 52.36,74.97 			"/>
		</g>
		<polygon fill="#33AB59" points="15.85,25.57 45.08,42.43 45.08,9.06 		"/>
		<polygon fill="#036E32" points="74.43,26.05 45.08,9.06 45.08,42.43 45.14,42.46 		"/>
	</g>
	<path fill="#6ABB83" d="M45.06,0L0.04,25.43l45.11,26.02l45.12-25.28L45.06,0z M9.24,25.51L45.08,5.27l35.99,20.84L45.15,46.23
		L9.24,25.51z"/>
	<path fill="#036E32" d="M45.14,61.69l0-10.35L0.05,25.31L0.05,35.67L0,98.49l45.14,26.17l0-31.5l0,0l0-10.35l0,0L45.14,61.69z
		 M41.04,115.5L4.1,94.08l0.02-26.54L22.6,78.21l18.45,10.64L41.04,115.5z M41.07,82.41L4.1,61.07l0.02-26.62L22.6,45.11
		l18.48,10.66L41.07,82.41z"/>
	<g>
		<path fill="#6ABB83" d="M74.38,100.31c-0.04-0.02-0.12-0.04-0.17-0.04c-0.36-0.05-0.81,0.56-0.87,1
			c-0.05,0.38-0.01,0.72,0.29,0.84v0l3.67,2.18l1.81-1.12L74.38,100.31z"/>
		<path fill="#6ABB83" d="M70.44,102.26c-0.04-0.02-0.12-0.04-0.17-0.04c-0.36-0.05-0.81,0.56-0.87,1
			c-0.05,0.38-0.02,0.72,0.29,0.84v0l4.11,2.39l1.83-1.13L70.44,102.26z"/>
	</g>
	<g>
		<path fill="#6ABB83" d="M60.66,108.42c-0.04-0.02-0.12-0.04-0.17-0.04c-0.36-0.05-0.81,0.56-0.87,1
			c-0.05,0.38-0.01,0.72,0.29,0.84v0l3.67,2.18l1.81-1.12L60.66,108.42z"/>
		<path fill="#6ABB83" d="M56.72,110.37c-0.04-0.02-0.12-0.04-0.17-0.04c-0.36-0.05-0.81,0.56-0.87,1
			c-0.05,0.38-0.02,0.72,0.29,0.84v0l4.11,2.39l1.83-1.13L56.72,110.37z"/>
	</g>
	<g>
		<path fill="#6ABB83" d="M72.77,61.3c-0.04-0.02-0.12-0.04-0.17-0.04c-0.36-0.05-0.81,0.56-0.87,1c-0.05,0.38-0.01,0.72,0.29,0.84
			v0l6.05,3.55l1.81-1.12L72.77,61.3z"/>
		<path fill="#6ABB83" d="M68.83,63.25c-0.04-0.02-0.12-0.04-0.17-0.04c-0.36-0.05-0.81,0.56-0.87,1c-0.05,0.38-0.02,0.72,0.29,0.84
			v0l6.5,3.76l1.83-1.13L68.83,63.25z"/>
	</g>
	<g>
		<path fill="#6ABB83" d="M60.66,68.37c-0.04-0.02-0.12-0.04-0.17-0.04c-0.36-0.05-0.81,0.56-0.87,1c-0.05,0.38-0.01,0.72,0.29,0.84
			v0l6.05,3.55l1.81-1.12L60.66,68.37z"/>
		<path fill="#6ABB83" d="M56.72,70.32c-0.04-0.02-0.12-0.04-0.17-0.04c-0.36-0.05-0.81,0.56-0.87,1c-0.05,0.38-0.02,0.72,0.29,0.84
			v0l6.5,3.76l1.83-1.13L56.72,70.32z"/>
	</g>
	<path fill="#33AB59" d="M90.28,34.86l0-8.8L45.15,51.34l0,8.8l0,64.51l45.13-26.4l0-33.65l0,0l0-8.8l0,0L90.28,34.86z M86.04,95.57
		l-36.83,21.54l0-28.16l0.05-0.03l18.37-10.29l18.41-10.31L86.04,95.57z M86.04,62.03L86.04,62.03L49.21,82.68l-0.05,0.03l0-26.05
		l18.46-10.38l18.41-10.3L86.04,62.03z"/>
</g>
</svg>
