<?xml version="1.0" encoding="UTF-8" standalone="no"?>
<!-- Created with Inkscape (http://www.inkscape.org/) -->

<svg
   version="1.1"
   id="svg2"
   width="82.800003"
   height="101.6"
   viewBox="0 0 82.800003 101.6"
   sodipodi:docname="piston_rojo.svg"
   inkscape:version="1.1.2 (b8e25be833, 2022-02-05)"
   xmlns:inkscape="http://www.inkscape.org/namespaces/inkscape"
   xmlns:sodipodi="http://sodipodi.sourceforge.net/DTD/sodipodi-0.dtd"
   xmlns="http://www.w3.org/2000/svg"
   xmlns:svg="http://www.w3.org/2000/svg">
  <defs
     id="defs6" />
  <sodipodi:namedview
     id="namedview4"
     pagecolor="#ffffff"
     bordercolor="#666666"
     borderopacity="1.0"
     inkscape:pageshadow="2"
     inkscape:pageopacity="0.0"
     inkscape:pagecheckerboard="0"
     showgrid="false"
     fit-margin-top="0"
     fit-margin-left="0"
     fit-margin-right="0"
     fit-margin-bottom="0"
     inkscape:zoom="3.8621499"
     inkscape:cx="51.655167"
     inkscape:cy="76.123404"
     inkscape:window-width="1920"
     inkscape:window-height="1009"
     inkscape:window-x="-8"
     inkscape:window-y="-8"
     inkscape:window-maximized="1"
     inkscape:current-layer="g8" />
  <g
     inkscape:groupmode="layer"
     inkscape:label="Image"
     id="g8"
     transform="translate(-185.81866,-118.91207)">
    <g
       id="g971"
       transform="matrix(0.39320388,0,0,0.39505847,185.93225,143.65796)">
      <path
         style="fill:#f1d2d1"
         d="M 44.75,108.25373 2,88.576268 V 64.387875 40.199482 L 6.7890225,39.050613 C 11.526189,37.914184 11.714947,37.966352 24.221198,43.868425 L 36.864352,49.835107 42.682176,48.109962 48.5,46.384818 48.783255,35.749242 c 0.240649,-9.035794 0.541485,-10.712104 2,-11.144341 C 51.727465,24.32508 67.38471,19.574505 85.577133,14.048068 103.76956,8.5216304 119.06956,3.9988877 119.57713,3.9975282 c 0.50758,-0.00136 4.18537,1.4299637 8.17287,3.1807182 L 135,10.361437 v 4.769591 c 0,6.053409 1.70925,7.246852 7.43181,5.189095 2.2375,-0.804578 7.2911,-1.685092 11.23022,-1.956699 8.38571,-0.578206 13.01495,1.226776 18.1521,7.077662 C 173.53275,27.398489 175.45079,29 176.07644,29 c 0.62564,0 0.87852,0.675 0.56193,1.5 -0.35529,0.925873 0.003,1.5 0.93685,1.5 0.83185,0 1.4045,0.5625 1.27257,1.25 -0.33576,1.749551 1.12101,5.75 2.09387,5.75 0.44379,0 2.69025,-0.664489 4.99214,-1.476642 4.11912,-1.453311 4.32256,-1.414617 12.87572,2.448952 L 207.5,43.897904 v 27.208871 27.20887 l -21,6.356085 c -11.55,3.49585 -26.93354,8.14983 -34.18563,10.34218 -7.2521,2.19235 -13.87756,3.98609 -14.72325,3.98609 -0.84569,0 -3.57466,-0.98967 -6.06437,-2.19927 C 128.15178,115.16105 127,114.02931 127,112.35275 c 0,-2.04156 -0.26433,-2.15656 -2.86939,-1.24844 -4.29282,1.49649 -12.50572,-2.53992 -12.94703,-6.36309 -0.37158,-3.21906 -1.55938,-3.33253 -8.68358,-0.82952 l -5,1.7567 -0.284034,10.07984 -0.284034,10.07984 -3.115189,1.08596 c -1.713354,0.59728 -3.835539,1.07048 -4.715966,1.05155 C 88.22035,127.94667 68.2625,119.07633 44.75,108.25373 Z"
         id="path1009" />
      <path
         style="fill:#e6a7a5"
         d="M 45,108.13902 2.5,88.449542 V 64.518746 40.58795 L 6.8703107,39.322627 C 11.189631,38.072068 11.392386,38.127543 24.248084,44.077308 L 37.255547,50.097312 43.377774,48.271071 49.5,46.44483 l 0.283449,-10.684647 0.283448,-10.684646 3.216552,-0.90829 c 1.769103,-0.499559 17.446469,-5.256435 34.83859,-10.570835 L 119.74408,3.9338671 127.37204,7.4100405 135,10.886214 v 4.940262 c 0,5.923349 1.78492,6.890646 8.33019,4.514344 6.12401,-2.223366 16.02822,-2.635734 20.31233,-0.845718 3.62481,1.514542 13.06267,10.287005 12.60748,11.718619 C 176.1125,31.646175 176.63287,32 177.40638,32 c 0.8458,0 1.22531,0.69755 0.95211,1.75 -0.24984,0.9625 0.19276,2.631884 0.98358,3.709743 1.36601,1.861847 1.68061,1.883671 6.29788,0.436888 l 4.86005,-1.522856 8.75,3.970661 8.75,3.97066 v 26.7649 26.7649 l -3.25,1.028809 C 193.74408,102.3577 138.23226,119 137.61701,119 c -0.41044,0 -2.96717,-0.95541 -5.68163,-2.12314 -3.93405,-1.69239 -4.93538,-2.60539 -4.93538,-4.5 0,-2.71585 0.0106,-2.71157 -3.44847,-1.39645 -2.02022,0.76808 -3.55029,0.50836 -7.0651,-1.19927 C 112.47531,107.83239 112,107.24044 112,104.19375 c 0,-2.38883 -0.38949,-3.25826 -1.30268,-2.90784 -0.71647,0.27493 -4.09147,1.28238 -7.5,2.23876 L 97,105.26355 v 10.20994 10.20993 l -3.86602,1.15829 c -2.12631,0.63706 -4.26381,1.1197 -4.75,1.07254 C 87.897791,127.86709 68.375,118.96823 45,108.13902 Z"
         id="path1007" />
      <path
         style="fill:#e1827c"
         d="M 45.738416,108.20775 2.9768312,88.5 3.2384156,64.600089 3.5,40.700178 7.2714772,39.395001 c 3.6726218,-1.270966 4.1106338,-1.14554 16.7107168,4.785168 l 12.93924,6.090344 6.539283,-1.872768 L 50,46.524978 V 35.92895 25.332922 L 60.25,22.275659 C 65.8875,20.594165 81.615099,15.813188 95.200219,11.651267 L 119.90044,4.0841362 127.45022,7.5723496 135,11.060563 v 4.902331 c 0,6.106981 1.27823,6.673952 9.5,4.213825 7.01514,-2.099076 15.90588,-2.053659 20.06741,0.102512 C 168.88182,22.514617 178,31.778347 178,33.926242 c 0,0.518957 0.41924,2.046243 0.93164,3.393968 l 0.93165,2.45041 5.4519,-1.517459 5.4519,-1.517458 7.36645,3.320933 c 4.05155,1.826514 7.92896,3.741081 8.61646,4.254594 0.94445,0.705435 1.25,7.339496 1.25,27.139751 v 26.206092 l -35.1639,10.722697 -35.1639,10.7227 -5.31904,-2.30124 c -4.21911,-1.82536 -5.32256,-2.78044 -5.33609,-4.61862 -0.0143,-1.93631 -0.38706,-2.20514 -2.26707,-1.63481 -1.2375,0.37541 -2.475,0.7391 -2.75,0.80819 -0.275,0.0691 -2.6375,-0.69495 -5.25,-1.69789 C 112.36574,107.97499 112,107.57146 112,104.41729 112,102.53778 111.69443,101 111.32095,101 c -0.37348,0 -3.74848,0.98857 -7.5,2.19683 L 97,105.39367 V 115.57183 125.75 l -2.75,0.55497 c -1.5125,0.30523 -3.425,0.79247 -4.25,1.08275 -0.825,0.29028 -20.742713,-8.34071 -44.261584,-19.17997 z"
         id="path1005" />
      <path
         style="fill:#b88888"
         d="M 57.5,113.45388 C 40.45,105.56476 21.2125,96.641249 14.75,93.623862 L 3,88.137704 V 64.544101 40.950498 l 2.5650997,-0.975249 c 4.3475187,-1.652924 6.3643233,-1.161234 19.0870423,4.653352 l 12.315771,5.628601 6.48453,-1.857087 6.484529,-1.857087 L 50.218486,36.031351 50.5,25.519673 64,21.363136 C 71.425,19.07704 87.06449,14.290719 98.754423,10.726867 L 120.00885,4.2471354 127.50442,7.7902257 135,11.333316 v 4.765954 c 0,5.956132 1.32329,6.524093 9.5,4.077449 7.02015,-2.100574 15.90984,-2.053333 20.06741,0.106642 4.55911,2.368588 13.09168,11.887981 13.88235,15.487902 0.38726,1.763191 1.04706,3.417754 1.46621,3.676806 0.41916,0.259052 2.97204,-0.23489 5.67307,-1.097648 l 4.91096,-1.568652 8.75,4.044506 8.75,4.044506 v 26.393146 26.393146 l -34.98494,10.668127 -34.98493,10.66812 -5.51367,-2.24666 c -4.45129,-1.81377 -5.51394,-2.69318 -5.51507,-4.56405 -0.001,-1.93859 -0.36917,-2.20581 -2.25139,-1.63481 -1.2375,0.37541 -2.475,0.7391 -2.75,0.80819 -0.275,0.0691 -2.6375,-0.69495 -5.25,-1.69789 C 112.36574,107.97499 112,107.57146 112,104.41729 112,102.53778 111.69443,101 111.32095,101 c -0.37348,0 -3.74848,0.98857 -7.5,2.19683 L 97,105.39367 V 115.57183 125.75 l -2.75,0.55497 c -1.5125,0.30523 -3.425,0.76597 -4.25,1.02387 -0.825,0.2579 -15.45,-5.98583 -32.5,-13.87496 z"
         id="path1003" />
      <path
         style="fill:#b57979"
         d="M 57.5,113.44421 C 40.45,105.56041 21.2125,96.641249 14.75,93.623862 L 3,88.137704 V 64.544101 40.950498 L 5.5650997,39.975249 C 9.9301475,38.315661 12.118022,38.842099 24.407834,44.509117 30.957142,47.529103 36.992591,50 37.819942,50 c 0.82735,0 3.891888,-0.752629 6.810084,-1.672509 l 5.30581,-1.67251 L 50.217918,36.087327 50.5,25.519673 64,21.363136 C 71.425,19.07704 87.06449,14.290719 98.754423,10.726867 L 120.00885,4.2471354 127.50442,7.7902257 135,11.333316 v 4.765954 c 0,5.849877 1.80359,6.776795 8.76998,4.507163 6.95252,-2.265109 16.88133,-2.359064 21.03722,-0.199072 4.35868,2.265396 12.87122,11.851993 13.64256,15.363902 0.38726,1.763191 1.04706,3.417754 1.46621,3.676806 0.41916,0.259052 2.97204,-0.23489 5.67307,-1.097648 l 4.91096,-1.568652 8.75,4.044506 8.75,4.044506 v 26.005592 c 0,17.637055 -0.3496,26.221657 -1.08639,26.67702 -0.59752,0.369286 -16.45039,5.331737 -35.2286,11.027667 l -34.1422,10.35624 -5.27141,-2.41332 C 128.30938,114.7101 127,113.58038 127,111.97587 c 0,-1.85658 -0.39499,-2.04803 -3.03095,-1.46907 -1.9902,0.43712 -4.56423,0.0352 -7.49625,-1.17055 -3.99274,-1.64192 -4.4657,-2.18019 -4.46905,-5.08625 -0.002,-1.7875 -0.29273,-3.25 -0.64594,-3.25 -0.3532,0 -3.7282,0.91906 -7.5,2.04235 L 97,105.08469 v 9.98241 c 0,10.83199 0.212107,10.43426 -6.5,12.18857 -1.275736,0.33343 -13.226087,-4.66814 -33,-13.81146 z"
         id="path1001" />
      <path
         style="fill:#fd5444"
         d="M 57.5,113.35668 C 40.45,105.52101 21.204292,96.637413 14.731759,93.615339 L 2.9635178,88.120658 3.2317589,64.31428 3.5,40.507901 l 4,-0.842372 c 3.631112,-0.764686 5.198886,-0.298102 17,5.05936 l 13,5.901731 6.216431,-1.839199 6.216431,-1.8392 0.283569,-10.68281 L 50.5,25.582601 84,15.28424 c 18.425,-5.6640986 34.175,-10.3648003 35,-10.4460037 0.825,-0.081203 4.7625,1.332223 8.75,3.1409477 l 7.25,3.28859 v 4.897498 c 0,6.082708 1.06119,6.604383 9.31331,4.578388 8.29653,-2.036898 16.89627,-2.204701 20.38131,-0.397693 C 167.93005,22.023554 176,30.342574 176,32.000276 c 0,0.614767 0.45,0.839643 1,0.499724 0.55913,-0.345559 1,0.425906 1,1.749853 0,1.302338 0.5625,3.12379 1.25,4.047671 1.14685,1.541169 1.66154,1.554996 6.23723,0.167563 l 4.98724,-1.512219 8.26276,3.681751 L 207,44.31637 v 26.683314 26.683315 l -34.73315,10.536821 -34.73315,10.53683 -5.01685,-2.19362 c -3.556,-1.55485 -5.1111,-2.83894 -5.34053,-4.40981 -0.28155,-1.92774 -0.75267,-2.13572 -3.61963,-1.59788 -2.33235,0.43756 -4.5035,0.002 -7.42632,-1.48883 C 112.68545,107.30904 112,106.46487 112,103.97968 c 0,-3.50377 -0.51362,-3.56908 -8.5,-1.08092 l -6,1.8693 -0.5,10.25882 -0.5,10.25882 -4,1.15882 c -3.953133,1.14523 -4.363219,0.99189 -35,-13.08784 z"
         id="path999" />
      <path
         style="fill:#f94a3b"
         d="M 88,104.01917 V 80.249345 L 71.25,72.557253 C 19.641467,48.857096 4,41.486082 4,40.865809 4,40.486302 5.7175894,39.885611 7.8168654,39.53094 11.087308,38.978403 13.485239,39.726473 24.566865,44.756353 L 37.5,50.62662 43.75,48.777535 C 48.774672,47.290967 50,46.527781 50,44.884769 c 0,-1.74087 0.435264,-1.948079 2.937628,-1.398468 2.115631,0.46467 4.072192,-0.0028 6.992298,-1.670545 3.534503,-2.018672 4.055658,-2.769302 4.062372,-5.851124 0.0073,-3.367769 -0.312293,-3.694938 -6.742298,-6.901327 L 50.5,25.697347 61,22.432333 C 66.775,20.636576 82.347338,15.846757 95.605195,11.78829 L 119.71039,4.4092607 127.35519,7.8445321 135,11.279803 v 4.891484 c 0,6.076052 1.06299,6.597926 9.31331,4.572373 8.29653,-2.036898 16.89627,-2.204701 20.38131,-0.397693 C 167.93005,22.023554 176,30.342574 176,32.000276 c 0,0.614767 0.45,0.839643 1,0.499724 0.55913,-0.345559 1,0.425906 1,1.749853 0,1.302338 0.5625,3.12379 1.25,4.047671 1.14685,1.541169 1.66154,1.554996 6.23723,0.167563 l 4.98724,-1.512219 8.26276,3.681751 L 207,44.31637 v 26.683314 26.683315 l -34.73315,10.536821 -34.73315,10.53683 -5.01685,-2.19362 c -3.556,-1.55485 -5.1111,-2.83894 -5.34053,-4.40981 -0.28155,-1.92774 -0.75267,-2.13572 -3.61963,-1.59788 -2.33235,0.43756 -4.5035,0.002 -7.42632,-1.48883 C 112.68545,107.30904 112,106.46487 112,103.97968 c 0,-3.50377 -0.51362,-3.56908 -8.5,-1.08092 l -6,1.8693 -0.5,10.25882 -0.5,10.25882 -4.25,1.25165 L 88,127.789 Z m 49,-35.076063 c 0,-2.83565 -0.54682,-3.306089 -7.5554,-6.5 C 120.73164,58.472482 121,58.534233 121,60.5 c 0,0.825 0.45,1.5 1,1.5 0.55,0 1.82699,0.7875 2.83775,1.75 2.4828,2.364248 5.11621,4.08773 8.41225,5.505545 1.5125,0.650611 2.75,1.534273 2.75,1.963693 C 136,71.648657 136.225,72 136.5,72 c 0.275,0 0.5,-1.375602 0.5,-3.056893 z m 3.72917,-12.547274 c -0.3323,-0.332291 -1.1948,-0.367818 -1.91667,-0.07895 -0.79773,0.319226 -0.56078,0.556183 0.60417,0.604167 1.05416,0.04342 1.64479,-0.192928 1.3125,-0.52522 z M 105,52.197346 c 0,-1.352432 -8.321416,-9.305474 -11.412747,-10.907525 -1.863733,-0.96586 -4.346623,-1.317178 -6.89412,-0.975487 -3.972059,0.532765 -6.781439,2.812723 -4.411087,3.579825 C 82.951921,44.110946 86.425,45.6739 90,47.367388 c 3.575,1.693489 6.725,3.129982 7,3.192208 0.275,0.06222 1.175,0.376119 2,0.697542 4.67356,1.820835 6,2.02869 6,0.940208 z M 82.571429,120.42857 c -3.016421,-3.01642 -1.187996,-8.01509 1.972376,-5.39222 1.594174,1.32305 2.021553,6.96365 0.527624,6.96365 -0.510715,0 -1.635715,-0.70714 -2.5,-1.57143 z M 66.683333,96.35 C 65.618063,95.28473 65.880881,92 67.031385,92 c 1.478521,0 2.409436,2.959179 1.284731,4.083884 -0.522197,0.522197 -1.256949,0.641949 -1.632783,0.266116 z M 82.556704,86.777494 C 80.663021,84.073883 80.526443,81 82.3,81 c 2.126033,0 3.7,2.212062 3.7,5.2 0,3.371491 -1.330059,3.594563 -3.443296,0.577494 z M 6.4131016,84.50772 C 4.7731212,82.004794 5.0636106,79 6.9455622,79 8.5354003,79 11.281507,83.824021 10.641336,85.49228 9.7958275,87.69564 8.2689485,87.340101 6.4131016,84.50772 Z M 23.2375,75.8375 C 21.735454,74.335454 21.610015,72 23.031385,72 24.23933,72 25.346109,74.461674 24.83183,76.004511 24.593274,76.720177 24.06482,76.66482 23.2375,75.8375 Z M 6.4131016,51.50772 C 4.7731212,49.004794 5.0636106,46 6.9455622,46 c 1.5898381,0 4.3359448,4.824021 3.6957738,6.49228 -0.8455085,2.20336 -2.3723875,1.847821 -4.2282344,-0.98456 z"
         id="path997" />
      <path
         style="fill:#ca4849"
         d="M 87.767527,103.79803 87.5,79.817403 45.761284,60.658702 C 22.804991,50.121416 4.0174908,41.202054 4.0112844,40.837898 4.005078,40.473742 5.7175894,39.885611 7.8168654,39.53094 11.087664,38.978343 13.484035,39.726282 24.566865,44.758838 L 37.5,50.63159 43.490643,48.846939 c 3.294854,-0.981559 6.444854,-2.382716 7,-3.113682 1.815107,-2.389971 9.089801,-1.508261 12.22099,1.481212 3.058081,2.919674 58.820157,28.964855 61.269527,28.617584 2.35216,-0.333488 5.77555,1.09157 6.37501,2.653729 0.29751,0.775306 1.91408,2.119732 3.59238,2.987613 L 137,83.05136 v -8.876786 -8.876786 l -7.25,-3.239989 c -3.9875,-1.781994 -7.8125,-3.472141 -8.5,-3.755883 C 120.35623,57.933044 120,59.098943 120,62.393011 120,64.926855 119.78704,67 119.52675,67 c -0.26029,0 -2.53984,-1.004026 -5.06567,-2.231169 -3.90998,-1.899619 -4.75972,-2.856693 -5.71828,-6.440645 -0.61922,-2.315212 -1.48967,-3.984628 -1.93433,-3.709814 C 106.36381,54.893186 106,54.44537 106,53.623225 106,51.394612 98.320923,43.380171 94.405177,41.522028 90.304408,39.576086 81.000494,39.775274 81.000193,41.809017 81.000087,42.528976 80.55,42.839919 80,42.5 c -0.55,-0.339919 -1,-0.227485 -1,0.249853 0,0.477338 -0.582293,1.664221 -1.293985,2.637517 -1.224754,1.674951 -1.599267,1.634619 -7,-0.753841 L 65,42.110058 V 37.188916 32.267774 L 57.75,28.986092 50.5,25.70441 61,22.435865 c 5.775,-1.7977 21.347338,-6.589108 34.605195,-10.647575 L 119.71039,4.4092607 127.35519,7.8445321 135,11.279803 v 4.891484 c 0,6.076052 1.06299,6.597926 9.31331,4.572373 8.29653,-2.036898 16.89627,-2.204701 20.38131,-0.397693 C 167.93005,22.023554 176,30.342574 176,32.000276 c 0,0.614767 0.45,0.839643 1,0.499724 0.55913,-0.345559 1,0.425906 1,1.749853 0,1.302338 0.5625,3.12379 1.25,4.047671 1.14685,1.541169 1.66154,1.554996 6.23723,0.167563 l 4.98724,-1.512219 8.26276,3.681751 L 207,44.31637 v 26.683314 26.683315 l -34.73315,10.536821 -34.73315,10.53683 -5.01685,-2.19362 c -3.556,-1.55485 -5.1111,-2.83894 -5.34053,-4.40981 -0.28155,-1.92774 -0.75267,-2.13572 -3.61963,-1.59788 -2.33235,0.43756 -4.5035,0.002 -7.42632,-1.48883 C 112.68545,107.30904 112,106.46487 112,103.97968 c 0,-3.50377 -0.51362,-3.56908 -8.5,-1.08092 l -6,1.8693 -0.5,10.25882 -0.5,10.25882 -4.232473,1.24647 -4.232472,1.24648 z M 140.75854,57.224382 c 0.38372,-1.151177 -4.40752,-2.908735 -5.35273,-1.963526 -0.77932,0.779316 2.69395,3.872556 3.89776,3.471287 0.58929,-0.196429 1.24402,-0.874921 1.45497,-1.507761 z M 192.28109,41.5 C 192.00553,40.241226 187,39.546388 187,40.766911 c 0,1.546022 1.33717,2.328981 3.45885,2.025272 C 191.58148,42.631482 192.40149,42.05 192.28109,41.5 Z M 82.506902,119.65088 C 80.734394,116.94569 81.166575,115 83.539965,115 c 1.776946,0 3.077078,4.78296 1.679917,6.18012 -0.711582,0.71158 -1.556967,0.23506 -2.71298,-1.52924 z M 66,94 c 0,-2.384246 1.535591,-2.652613 2.393011,-0.418213 C 69.250687,95.816854 69.183053,96 67.5,96 66.666667,96 66,95.111111 66,94 Z m 15.96579,-8.063922 c -0.830226,-1.551292 -0.789939,-2.44304 0.162203,-3.5903 1.127127,-1.358105 1.410385,-1.329988 2.569394,0.255052 C 86.441486,84.986027 86.350939,88 84.535184,88 83.729535,88 82.573308,87.071235 81.96579,85.936078 Z M 7.2,85.8 C 6.54,85.14 6,83.532004 6,82.226676 6,78.392773 9.4277997,79.76944 9.8133585,83.758189 10.14012,87.138659 9.2410782,87.841078 7.2,85.8 Z M 22.5,75 C 21.684495,73.680485 22.880209,71.807931 24.069098,72.542705 25.283714,73.293379 25.275822,76 24.059017,76 23.541476,76 22.839919,75.55 22.5,75 Z M 7.2,52.8 C 6.54,52.14 6,50.532004 6,49.226676 6,46.045017 9.3714087,46.615503 9.8346649,49.875551 10.252657,52.817064 8.8139801,54.41398 7.2,52.8 Z"
         id="path995" />
      <path
         style="fill:#bd4246"
         d="M 88.768099,103.38118 88.5,79.762359 46.839446,60.640961 C 23.926141,50.124192 5.3688018,41.212283 5.6009136,40.836718 c 0.2321119,-0.375565 1.6764018,-0.958353 3.2095333,-1.295085 2.5680391,-0.564036 10.0344701,2.355243 25.4138241,9.93648 2.362947,1.164812 3.597207,1.081039 9.305956,-0.631627 3.619928,-1.086004 6.802979,-2.551232 7.073447,-3.256062 0.310872,-0.810119 2.126259,-1.226317 4.935266,-1.131467 3.304324,0.111576 5.150773,0.825274 7.202282,2.78386 3.037661,2.900071 58.804968,28.934465 61.239938,28.589236 2.35216,-0.333488 5.77555,1.09157 6.37501,2.653729 0.29751,0.775306 1.91408,2.119732 3.59238,2.987613 L 137,83.05136 v -8.995398 -8.995399 l -7.64083,-3.530281 C 125.15671,59.588627 121.33171,58 120.85917,58 120.38663,58 120,60.025 120,62.5 c 0,2.475 -0.21296,4.5 -0.47325,4.5 -0.26029,0 -2.53984,-1.004026 -5.06567,-2.231169 -3.90998,-1.899619 -4.75972,-2.856693 -5.71828,-6.440645 -0.61922,-2.315212 -1.48967,-3.984628 -1.93433,-3.709814 C 106.36381,54.893186 106,54.437563 106,53.605876 106,51.381558 97.161782,42.170605 93.24326,40.311145 90.509214,39.013755 89.174042,38.917932 86.2661,39.810404 84.288242,40.417426 82.294247,40.681854 81.834998,40.398023 81.375749,40.114192 81,40.610081 81,41.5 c 0,0.889919 -0.45,1.339919 -1,1 -0.55,-0.339919 -1,-0.227485 -1,0.249853 0,0.477338 -0.582293,1.664221 -1.293985,2.637517 -1.224754,1.674951 -1.599267,1.634619 -7,-0.753841 L 65,42.110058 V 36.992706 31.875354 L 58.079834,28.669996 51.159669,25.464638 71.829834,19.227679 C 83.198425,15.797352 98.644459,11.122013 106.15435,8.8380385 L 119.80871,4.6853568 127.40435,8.0233967 135,11.361437 v 4.850666 c 0,6.02973 1.0736,6.552727 9.31331,4.536911 8.55739,-2.093537 15.97704,-2.179599 20.07939,-0.232905 3.62779,1.721498 11.6073,9.61636 11.6073,11.484167 0,0.614767 0.45,0.839643 1,0.499724 0.55913,-0.345559 1,0.425906 1,1.749853 0,1.302338 0.59049,3.175432 1.3122,4.162431 1.23612,1.690497 1.58748,1.701084 6.06006,0.182605 l 4.74785,-1.611938 8.43995,3.745838 L 207,44.474627 v 26.604186 26.604186 l -34.73315,10.536821 -34.73315,10.53683 -5.01685,-2.19362 c -3.556,-1.55485 -5.1111,-2.83894 -5.34053,-4.40981 -0.28155,-1.92774 -0.75267,-2.13572 -3.61963,-1.59788 -2.33235,0.43756 -4.5035,0.002 -7.42632,-1.48883 C 112.68545,107.30904 112,106.46487 112,103.97968 c 0,-3.50377 -0.51362,-3.56908 -8.5,-1.08092 l -6,1.8693 -0.5,10.32399 c -0.483187,9.97683 -0.584066,10.34727 -3,11.01629 -1.375,0.38076 -3.054356,0.73716 -3.731901,0.79198 -0.936991,0.0758 -1.296083,-5.55454 -1.5,-23.51914 z M 141,57.984687 c 1.33333,-0.875277 1.33333,-1.094097 0,-1.969374 -1.48304,-0.973552 -6,-1.415267 -6,-0.586742 0,0.700719 3.08626,3.572706 3.82143,3.556116 0.37321,-0.0084 1.35357,-0.458422 2.17857,-1 z M 193,41.5 c 0,-1.535258 -2.21034,-2.5 -5.72781,-2.5 h -2.56424 l 2.65851,2.463824 C 190.02358,43.926356 193,43.94547 193,41.5 Z M 82.506902,119.65088 C 80.734394,116.94569 81.166575,115 83.539965,115 c 1.776946,0 3.077078,4.78296 1.679917,6.18012 -0.711582,0.71158 -1.556967,0.23506 -2.71298,-1.52924 z M 66,94 c 0,-2.384246 1.535591,-2.652613 2.393011,-0.418213 C 69.250687,95.816854 69.183053,96 67.5,96 66.666667,96 66,95.111111 66,94 Z m 15.96579,-8.063922 c -0.830226,-1.551292 -0.789939,-2.44304 0.162203,-3.5903 1.127127,-1.358105 1.410385,-1.329988 2.569394,0.255052 C 86.441486,84.986027 86.350939,88 84.535184,88 83.729535,88 82.573308,87.071235 81.96579,85.936078 Z M 7.2,85.8 C 6.54,85.14 6,83.532004 6,82.226676 6,78.392773 9.4277997,79.76944 9.8133585,83.758189 10.14012,87.138659 9.2410782,87.841078 7.2,85.8 Z M 22.5,75 C 21.684495,73.680485 22.880209,71.807931 24.069098,72.542705 25.283714,73.293379 25.275822,76 24.059017,76 23.541476,76 22.839919,75.55 22.5,75 Z M 7.2,52.8 C 6.54,52.14 6,50.532004 6,49.226676 6,46.045017 9.3714087,46.615503 9.8346649,49.875551 10.252657,52.817064 8.8139801,54.41398 7.2,52.8 Z"
         id="path993" />
      <path
         style="fill:#ba3e41"
         d="M 89,103.11129 V 79.222582 l 3.673263,-0.689109 c 3.517297,-0.659848 2.615026,-1.17526 -21.25,-12.138814 C 57.715468,60.09732 44.475,53.98601 42,52.81397 l -4.5,-2.130982 5.990643,-1.810351 c 3.294854,-0.995692 6.444854,-2.408414 7,-3.13938 1.815107,-2.389971 9.089801,-1.508261 12.22099,1.481212 3.058081,2.919674 58.820157,28.964855 61.269527,28.617584 2.35216,-0.333488 5.77555,1.09157 6.37501,2.653729 0.29751,0.775306 1.91408,2.119732 3.59238,2.987613 L 137,83.05136 v -8.490496 c 0,-7.068184 0.29316,-8.644992 1.75,-9.412755 1.51745,-0.799704 29.37069,-9.383239 59,-18.182034 L 207,44.219172 V 70.903321 97.58747 l -34.75,10.53823 -34.75,10.53823 -5,-2.19936 c -3.50629,-1.54233 -5.09791,-2.8551 -5.32773,-4.39435 -0.27713,-1.85612 -0.77126,-2.09757 -3.20066,-1.56398 -1.88174,0.41329 -4.44251,-0.0633 -7.42227,-1.38139 C 112.58155,107.36971 112,106.72177 112,104.05623 c 0,-3.5751 -0.45332,-3.64097 -8.5,-1.23519 l -6,1.79387 -0.284034,10.10658 -0.284034,10.10659 -3.115189,1.08596 C 92.103389,126.51132 90.318704,127 89.850777,127 89.38285,127 89,116.25008 89,103.11129 Z m -6.493098,16.53959 C 80.734394,116.94569 81.166575,115 83.539965,115 c 1.776946,0 3.077078,4.78296 1.679917,6.18012 -0.711582,0.71158 -1.556967,0.23506 -2.71298,-1.52924 z M 66,94 c 0,-2.384246 1.535591,-2.652613 2.393011,-0.418213 C 69.250687,95.816854 69.183053,96 67.5,96 66.666667,96 66,95.111111 66,94 Z m 15.96579,-8.063922 c -0.830226,-1.551292 -0.789939,-2.44304 0.162203,-3.5903 1.127127,-1.358105 1.410385,-1.329988 2.569394,0.255052 C 86.441486,84.986027 86.350939,88 84.535184,88 83.729535,88 82.573308,87.071235 81.96579,85.936078 Z M 7.2,85.8 C 6.54,85.14 6,83.532004 6,82.226676 6,78.392773 9.4277997,79.76944 9.8133585,83.758189 10.14012,87.138659 9.2410782,87.841078 7.2,85.8 Z M 22.5,75 C 21.684495,73.680485 22.880209,71.807931 24.069098,72.542705 25.283714,73.293379 25.275822,76 24.059017,76 23.541476,76 22.839919,75.55 22.5,75 Z m 91.68506,-10.290502 c -3.59229,-1.803601 -4.50363,-2.87188 -5.44153,-6.37861 -0.61963,-2.316698 -1.4904,-3.98733 -1.93506,-3.712516 C 106.36381,54.893186 106,54.423226 106,53.574015 c 0,-0.84921 -2.21877,-3.907002 -4.93059,-6.795093 -2.711825,-2.888092 -4.806341,-5.375325 -4.65448,-5.527185 0.151861,-0.151861 12.15813,-3.879683 26.68059,-8.284049 14.52246,-4.404366 29.29276,-8.898882 32.82289,-9.987813 C 159.44853,21.890944 163.22116,21 164.30203,21 166.32248,21 176,30.053563 176,31.94375 176,32.524687 176.33989,33 176.75531,33 c 1.37653,0 3.12917,7.107749 1.87025,7.584712 -1.56612,0.59335 -25.22437,7.794725 -36.26739,11.039489 l -9.14183,2.686139 3.11469,2.84483 3.11469,2.84483 -2.47286,-0.01365 c -4.59178,-0.02535 -7.16108,-1.158605 -6.69216,-2.951743 0.40979,-1.567045 0.052,-1.581427 -4.91938,-0.197724 L 120,58.329125 v 4.335437 c 0,2.384491 -0.3375,4.307522 -0.75,4.273403 -0.4125,-0.03412 -2.69172,-1.036929 -5.06494,-2.228467 z M 7.2,52.8 C 6.54,52.14 6,50.532004 6,49.226676 6,46.045017 9.3714087,46.615503 9.8346649,49.875551 10.252657,52.817064 8.8139801,54.41398 7.2,52.8 Z M 70.196595,44.475423 64.89319,42.066057 65.196595,36.873858 65.5,31.68166 l 9,-2.750398 C 122.62818,14.223297 133.34385,11 134.11144,11 134.60015,11 135,13.264123 135,16.031385 c 0,6.262944 1.12106,6.818909 9.2132,4.569093 10.01642,-2.784813 7.70291,-0.969064 -2.95631,2.32025 C 99.232335,35.889022 82.492136,40.804157 81.80179,40.3775 81.360806,40.104956 81,40.610081 81,41.5 c 0,0.889919 -0.384197,1.380587 -0.853772,1.090374 -0.469575,-0.290213 -1.359927,0.583229 -1.978561,1.940983 -1.352623,2.968683 -1.312782,2.968963 -7.971072,-0.05593 z M 182.25,43.337719 C 181.5625,43.060307 181,42.195833 181,41.416667 181,39.290966 185.68105,39.681054 188,42 l 2,2 -3.25,-0.07895 c -1.7875,-0.04342 -3.8125,-0.305921 -4.5,-0.583334 z"
         id="path991" />
      <path
         style="fill:#d13830"
         d="M 89,103.6357 V 80.271392 L 92.60705,78.885696 96.2141,77.5 66.871122,64.032557 37.528144,50.565113 44.264072,48.638811 C 47.968833,47.579345 51,46.170975 51,45.509101 c 0,-0.781757 1.573637,-1.150272 4.491222,-1.051755 3.355004,0.113287 5.189157,0.817974 7.25,2.785471 3.037661,2.900071 58.804968,28.934465 61.239938,28.589236 2.17007,-0.307671 6.01884,1.131122 6.01884,2.250033 0,0.521021 1.4625,1.838962 3.25,2.928759 l 3.25,1.981448 0.5,-8.696186 0.5,-8.696186 32,-9.759804 c 17.6,-5.367892 33.2375,-10.038629 34.75,-10.379415 L 207,44.841089 V 71.295545 97.75 l -2.75,0.630062 c -1.5125,0.346534 -17.15,5.053778 -34.75,10.460538 l -32,9.83047 -5,-2.30552 c -3.32672,-1.53397 -5.10968,-3.00576 -5.32773,-4.39792 -0.27315,-1.74401 -0.80607,-1.98733 -3.20066,-1.46139 -1.88174,0.41329 -4.44251,-0.0633 -7.42227,-1.38139 C 112.58155,107.36971 112,106.72177 112,104.05623 c 0,-3.5751 -0.45332,-3.64097 -8.5,-1.23519 l -6,1.79387 -0.284034,10.10658 -0.284034,10.10659 -3.115189,1.08596 C 92.103389,126.51132 90.318704,127 89.850777,127 89.38285,127 89,116.48606 89,103.6357 Z m -6.493098,16.01518 C 80.734394,116.94569 81.166575,115 83.539965,115 c 1.776946,0 3.077078,4.78296 1.679917,6.18012 -0.711582,0.71158 -1.556967,0.23506 -2.71298,-1.52924 z M 66,94 c 0,-2.384246 1.535591,-2.652613 2.393011,-0.418213 C 69.250687,95.816854 69.183053,96 67.5,96 66.666667,96 66,95.111111 66,94 Z m 15.96579,-8.063922 c -0.830226,-1.551292 -0.789939,-2.44304 0.162203,-3.5903 1.127127,-1.358105 1.410385,-1.329988 2.569394,0.255052 C 86.441486,84.986027 86.350939,88 84.535184,88 83.729535,88 82.573308,87.071235 81.96579,85.936078 Z M 7.2,85.8 C 6.54,85.14 6,83.532004 6,82.226676 6,78.392773 9.4277997,79.76944 9.8133585,83.758189 10.14012,87.138659 9.2410782,87.841078 7.2,85.8 Z M 22.5,75 C 21.684495,73.680485 22.880209,71.807931 24.069098,72.542705 25.283714,73.293379 25.275822,76 24.059017,76 23.541476,76 22.839919,75.55 22.5,75 Z m 91.68506,-10.290502 c -3.59229,-1.803601 -4.50363,-2.87188 -5.44153,-6.37861 -0.61963,-2.316698 -1.4904,-3.98733 -1.93506,-3.712516 C 106.36381,54.893186 106,54.239621 106,53.166006 c 0,-1.073616 -0.675,-2.21105 -1.5,-2.527632 -0.825,-0.316583 -1.5,-1.080096 -1.5,-1.696697 0,-0.6166 -1.0125,-2.015008 -2.25,-3.107572 -1.2375,-1.092564 -1.766298,-1.749338 -1.175107,-1.459498 1.302847,0.638739 10.256587,-1.55992 20.425107,-5.015535 4.125,-1.401819 8.175,-2.683763 9,-2.848765 0.825,-0.165002 4.875,-1.343333 9,-2.618514 4.125,-1.27518 7.725,-2.352866 8,-2.394856 0.275,-0.04199 4.55,-1.358178 9.5,-2.924862 4.95,-1.566683 9,-2.710275 9,-2.541315 0,0.16896 1.04203,-0.250477 2.31562,-0.932083 2.09565,-1.121559 2.64186,-0.893366 5.75,2.402223 1.88891,2.002827 3.43438,4.021963 3.43438,4.486969 0,0.465005 0.4346,0.995464 0.96578,1.178798 0.53117,0.183333 1.09367,1.843666 1.25,3.689629 L 178.5,40.212591 156,47.123419 c -12.375,3.800956 -25.5375,7.822178 -29.25,8.93605 L 120,58.08469 v 4.457655 c 0,2.45171 -0.3375,4.429739 -0.75,4.39562 -0.4125,-0.03412 -2.69172,-1.036929 -5.06494,-2.228467 z M 131.75,58.919901 c -2.36897,-1.379798 -2.20096,-2.568711 0.46139,-3.26493 1.96732,-0.514465 5.78861,1.996191 5.78861,3.803216 0,0.918153 -4.40008,0.539193 -6.25,-0.538286 z M 7.2,52.8 C 6.54,52.14 6,50.532004 6,49.226676 6,46.045017 9.3714087,46.615503 9.8346649,49.875551 10.252657,52.817064 8.8139801,54.41398 7.2,52.8 Z M 70.25,44.498992 65,42.113195 v -4.979046 c 0,-4.740334 0.155815,-5.028216 3.25,-6.004665 7.974384,-2.51652 48.22765,-14.742726 65,-19.742582 1.51958,-0.452989 1.75,0.211369 1.75,5.04571 C 135,21.87383 135.064,22 137.82186,22 c 1.55202,0 4.95141,-0.725611 7.5542,-1.612469 2.60278,-0.886858 4.93499,-1.40981 5.18269,-1.162115 C 151.11544,19.782111 83.983415,40.553713 82.25,40.361111 81.5625,40.284722 81,40.87378 81,41.670128 c 0,0.796348 -0.384197,1.210459 -0.853772,0.920246 -0.469575,-0.290213 -1.359927,0.583229 -1.978561,1.940983 -1.351536,2.966297 -1.318747,2.966431 -7.917667,-0.03236 z m 111.88112,-1.841001 c -0.61257,-0.738105 -0.81767,-1.638105 -0.45578,-2 1.36129,-1.361291 4.88972,-0.584087 6.09259,1.342009 1.14068,1.826525 0.99869,2 -1.63701,2 -1.58732,0 -3.38723,-0.603904 -3.9998,-1.342009 z"
         id="path989" />
      <path
         style="fill:#b43433"
         d="M 89,103.6357 V 80.271392 L 92.60705,78.885696 96.2141,77.5 66.871122,64.032557 37.528144,50.565113 44.215771,48.652624 c 4.157412,-1.188913 6.800486,-2.498413 6.985928,-3.461149 0.268875,-1.395891 0.451858,-1.395101 1.85495,0.008 0.856157,0.856169 2.948169,1.8623 4.648916,2.235846 4.284731,0.941085 62.931845,28.059226 64.866645,29.994019 0.86385,0.863857 2.326,1.580533 3.24922,1.592612 0.92321,0.01208 3.59107,0.890078 5.92857,1.951108 l 4.25,1.929146 v 17.500004 17.5 l -4.25,-1.89504 c -2.76275,-1.23188 -4.36468,-2.63636 -4.57773,-4.01349 -0.2742,-1.77248 -0.79692,-2.0154 -3.20066,-1.48745 -1.88174,0.41329 -4.44251,-0.0633 -7.42227,-1.38139 C 112.58155,107.36971 112,106.72177 112,104.05623 c 0,-3.5751 -0.45332,-3.64097 -8.5,-1.23519 l -6,1.79387 -0.284034,10.10658 -0.284034,10.10659 -3.115189,1.08596 C 92.103389,126.51132 90.318704,127 89.850777,127 89.38285,127 89,116.48606 89,103.6357 Z m -6.583215,14.88877 c -0.361338,-1.43969 -0.341142,-2.93345 0.04488,-3.31947 0.854935,-0.85493 3.69606,2.82182 3.239314,4.19206 -0.707746,2.12324 -2.662651,1.60383 -3.284194,-0.87259 z M 138,91.706435 V 65.41287 l 33.75,-10.219877 c 18.5625,-5.620933 34.0875,-10.213829 34.5,-10.206436 0.4125,0.0074 0.75,11.885983 0.75,26.396866 v 26.383423 l -2.25,0.488449 C 203.5125,98.523942 188.37637,103.0764 171.11416,108.37187 153.85195,113.66734 139.33945,118 138.86416,118 138.38887,118 138,106.1679 138,91.706435 Z m -71.417051,3.42778 c -0.430771,-0.697003 -0.513159,-1.537338 -0.183085,-1.867413 0.894961,-0.894961 1.870768,0.421303 1.387387,1.871444 -0.338725,1.016175 -0.574267,1.015386 -1.204302,-0.004 z m 15.833836,-9.609746 c -0.361338,-1.439685 -0.341142,-2.933445 0.04488,-3.319467 0.854935,-0.854935 3.69606,2.821822 3.239314,4.192061 -0.707746,2.123239 -2.662651,1.60383 -3.284194,-0.872594 z M 6.4680508,83.899337 C 5.6083501,81.19066 7.6692164,78.861781 9.026328,81.008359 10.442258,83.247972 10.189232,86 8.5673877,86 7.7794509,86 6.8347493,85.054702 6.4680508,83.899337 Z M 23,73.940983 c 0,-1.132459 0.45,-1.780902 1,-1.440983 0.55,0.339919 1,1.266476 1,2.059017 C 25,75.351558 24.55,76 24,76 23.45,76 23,75.073442 23,73.940983 Z m 91.73963,-9.564156 c -4.11289,-2.09577 -4.92104,-3.026383 -5.94153,-6.841911 -0.64964,-2.428914 -1.60335,-4.155278 -2.11936,-3.836365 -0.51601,0.318912 -0.74943,0.01352 -0.51871,-0.678655 0.23073,-0.692173 -0.83417,-2.600562 -2.36645,-4.240865 -1.53227,-1.640302 -2.56763,-3.335604 -2.30081,-3.767337 0.26683,-0.431732 2.17761,-1.098269 4.24618,-1.481191 2.06858,-0.382923 7.81105,-2.041907 12.76105,-3.686632 4.95,-1.644724 9.675,-3.135118 10.5,-3.311987 0.825,-0.176869 4.875,-1.36491 9,-2.640091 4.125,-1.27518 7.725,-2.352866 8,-2.394856 0.275,-0.04199 4.55,-1.358178 9.5,-2.924862 4.95,-1.566683 9,-2.710275 9,-2.541315 0,0.16896 1.04203,-0.250477 2.31562,-0.932083 2.09565,-1.121559 2.64186,-0.893366 5.75,2.402223 1.88891,2.002827 3.43438,4.021963 3.43438,4.486969 0,0.465005 0.4346,0.995464 0.96578,1.178798 0.53117,0.183333 1.09367,1.843666 1.25,3.689629 L 178.5,40.212591 156,47.123419 c -12.375,3.800956 -25.51333,7.814979 -29.19628,8.920053 l -6.69629,2.009224 -0.30371,4.374918 L 119.5,66.802533 Z M 131.75,58.919901 C 130.7875,58.359296 130,57.47298 130,56.95031 c 0,-1.643103 3.67772,-1.034212 6.13922,1.016421 l 2.36078,1.96673 -2.5,0.0029 c -1.375,0.0016 -3.2875,-0.455816 -4.25,-1.016421 z M 7.2,51.8 C 5.6967597,50.29676 5.6570575,48.329984 7.1118034,47.430902 8.4006904,46.634326 9.9624661,48.710489 9.9846872,51.25 10.002506,53.286394 8.9034647,53.503465 7.2,51.8 Z M 69.75,43.839899 C 65.035009,41.760467 65,41.709686 65,36.950065 c 0,-4.532649 0.177794,-4.851068 3.25,-5.820581 7.974384,-2.51652 48.22765,-14.742726 65,-19.742582 1.51958,-0.452989 1.75,0.211369 1.75,5.04571 C 135,21.87383 135.064,22 137.82186,22 c 1.55202,0 4.95141,-0.725611 7.5542,-1.612469 2.60278,-0.886858 4.93948,-1.405324 5.19266,-1.152147 C 150.97386,19.640525 85.055586,40.13353 82.5,40.396931 81.95,40.453619 81.169391,40.95 80.765313,41.5 c -0.454997,0.619307 -0.740517,0.524133 -0.75,-0.25 -0.0084,-0.6875 -0.45119,-1.25 -0.983928,-1.25 -0.532739,0 -0.707395,0.680731 -0.388125,1.512735 0.645646,1.682525 -1.2653,4.505281 -3.015705,4.454651 C 75.0074,45.949448 72.3625,44.992079 69.75,43.839899 Z m 112.38112,-1.181908 c -1.16881,-1.408326 -0.55175,-2.673466 1.28555,-2.635755 C 184.0125,40.034466 185.625,40.924459 187,42 l 2.5,1.955528 -3.12756,0.02224 c -1.72015,0.01223 -3.62875,-0.581668 -4.24132,-1.319773 z"
         id="path987" />
      <path
         style="fill:#982a2a"
         d="M 89,103.57946 V 80.158911 l 2.988532,-0.656392 c 1.643693,-0.361016 3.20697,-1.009831 3.473949,-1.441812 C 95.72946,77.628726 82.848696,71.260324 66.838561,63.908703 L 37.729225,50.542119 44.114613,48.664873 c 3.511963,-1.032485 6.715996,-2.391962 7.120074,-3.02106 0.550065,-0.856379 0.738535,-0.85476 0.75,0.0064 0.0084,0.632643 2.377813,1.69322 5.265313,2.356838 5.242508,1.204856 7.430612,2.116 26.25,10.93071 5.5,2.576115 16.075,7.455936 23.5,10.844048 7.425,3.388111 13.5,6.720681 13.5,7.405711 0,0.685031 2.25,1.84938 5,2.587442 2.75,0.738063 6.2375,1.820215 7.75,2.404783 l 2.75,1.06285 v 17.329785 17.32979 l -4.25,-1.89504 c -2.76275,-1.23188 -4.36468,-2.63636 -4.57773,-4.01349 -0.2742,-1.77248 -0.79692,-2.0154 -3.20066,-1.48745 -1.88174,0.41329 -4.44251,-0.0633 -7.42227,-1.38139 C 112.58155,107.36971 112,106.72177 112,104.05623 c 0,-3.5751 -0.45332,-3.64097 -8.5,-1.23519 l -6,1.79387 -0.284034,10.10658 -0.284034,10.10659 -3.115189,1.08596 C 92.103389,126.51132 90.318704,127 89.850777,127 89.38285,127 89,116.46075 89,103.57946 Z m 23.5,-17.115575 c -3.41488,-1.563647 -8.12334,-1.882357 -8.9138,-0.603365 -0.9821,1.589079 0.71229,2.139987 6.33047,2.058261 5.54497,-0.08066 5.56272,-0.09066 2.58333,-1.454896 z M 82,116.91667 c 0,-2.43705 2.336773,-2.09257 2.823324,0.4162 C 85.014697,118.31963 84.504563,119 83.573324,119 82.645689,119 82,118.145 82,116.91667 Z M 138.2334,91.792496 138.5,65.584991 172,55.313417 c 18.425,-5.649366 33.8375,-10.280989 34.25,-10.292496 0.4125,-0.01151 0.75,11.851619 0.75,26.362502 v 26.383423 l -2.25,0.488449 C 203.5125,98.523942 188.37637,103.0764 171.11416,108.37187 153.85195,113.66734 139.33198,118 138.84756,118 138.3555,118 138.08445,106.434 138.2334,91.792496 Z M 66,94 c 0,-0.55 0.45,-1 1,-1 0.55,0 1,0.45 1,1 0,0.55 -0.45,1 -1,1 -0.55,0 -1,-0.45 -1,-1 z M 82,83.916667 c 0,-2.437045 2.336773,-2.09257 2.823324,0.416199 C 85.014697,85.31963 84.504563,86 83.573324,86 82.645689,86 82,85.145004 82,83.916667 Z M 6.5795145,83.346616 C 5.7074992,81.07418 6.9272128,79.694703 8.5890277,81.073886 10.383313,82.563011 10.38124,83.639727 8.5827588,84.329869 7.8032762,84.628984 6.9018162,84.18652 6.5795145,83.346616 Z M 23,74 c 0,-0.55 0.45,-1 1,-1 0.55,0 1,0.45 1,1 0,0.55 -0.45,1 -1,1 -0.55,0 -1,-0.45 -1,-1 z m 87.53563,-12.767757 c -0.32112,-0.836813 0.17174,-2.356401 1.09525,-3.376861 C 113.22806,56.090519 113.17447,56 110.53254,56 108.1771,56 107.94425,55.772099 109,54.5 c 0.68469,-0.825 1.93979,-1.5 2.78911,-1.5 0.84932,0 1.26719,-0.277029 0.9286,-0.61562 -0.33859,-0.338591 -2.02219,-0.125286 -3.74133,0.474011 -2.40977,0.84005 -3.03318,0.80927 -2.7217,-0.13438 0.2222,-0.673206 6.66831,-3.164696 14.32467,-5.536643 C 148.56361,38.517816 173.78049,31 174.87635,31 c 1.52556,0 1.42867,1.749029 -0.12635,2.280876 -0.6875,0.235138 -0.28797,0.272229 0.88784,0.08242 1.74075,-0.281001 2.22952,0.256872 2.63147,2.8958 0.2715,1.782496 0.43254,3.317841 0.35785,3.411879 -0.20117,0.25331 -33.32612,10.43283 -46.84214,14.394903 -7.04143,2.06412 -11.82869,3.989078 -12,4.825212 -0.15676,0.765101 -2.17064,1.947189 -4.47528,2.626861 -3.59536,1.06032 -4.27316,1.019756 -4.77411,-0.285711 z m 9.19354,-10.83641 c -0.3323,-0.332291 -1.1948,-0.367818 -1.91667,-0.07895 -0.79773,0.319226 -0.56078,0.556183 0.60417,0.604167 1.05416,0.04342 1.64479,-0.192928 1.3125,-0.52522 z M 131.5,47 c 1.26064,-0.541715 1.44548,-0.859429 0.5,-0.859429 -0.825,0 -2.4,0.386743 -3.5,0.859429 -1.26064,0.541715 -1.44548,0.859429 -0.5,0.859429 0.825,0 2.4,-0.386743 3.5,-0.859429 z m 13,-4 c 1.26064,-0.541715 1.44548,-0.859429 0.5,-0.859429 -0.825,0 -2.4,0.386743 -3.5,0.859429 -1.26064,0.541715 -1.44548,0.859429 -0.5,0.859429 0.825,0 2.4,-0.386743 3.5,-0.859429 z m 10,-3 c 1.26064,-0.541715 1.44548,-0.859429 0.5,-0.859429 -0.825,0 -2.4,0.386743 -3.5,0.859429 -1.26064,0.541715 -1.44548,0.859429 -0.5,0.859429 0.825,0 2.4,-0.386743 3.5,-0.859429 z m 13,-4 c 1.26064,-0.541715 1.44548,-0.859429 0.5,-0.859429 -0.825,0 -2.4,0.386743 -3.5,0.859429 -1.26064,0.541715 -1.44548,0.859429 -0.5,0.859429 0.825,0 2.4,-0.386743 3.5,-0.859429 z m -35.41952,22.90613 c -1.82256,-0.728491 -2.13595,-1.250661 -1.2702,-2.116408 0.86574,-0.865746 1.77111,-0.816533 3.66951,0.199464 4.55274,2.436551 2.668,3.94238 -2.39931,1.916944 z M 6.4461493,49.912868 C 6.0766127,49.314945 6.2937934,48.306207 6.9287731,47.671227 7.8014511,46.798549 8.3134914,46.880847 9.026328,48.008359 9.5450036,48.828762 9.9762652,49.8375 9.9846872,50.25 10.00827,51.405072 7.2032122,51.137821 6.4461493,49.912868 Z M 183.25,43.337719 C 182.03875,42.848968 181.44096,40 182.54966,40 183.47454,40 189,43.020154 189,43.52568 c 0,0.607583 -4.11152,0.473182 -5.75,-0.187961 z M 65,37.225311 v -4.909464 l 34.75,-10.560668 34.75,-10.560668 0.30918,4.51023 c 0.17005,2.480627 0.0736,4.74577 -0.21424,5.033653 C 133.91303,21.420301 111.83632,28.213414 66.75,41.614615 65.250336,42.060367 65,41.432481 65,37.225311 Z m 22,0.666899 c 10.386765,-3.704597 49.09918,-15.025816 50.16513,-14.670498 0.58646,0.195486 -11.24828,4.056819 -26.29942,8.58074 C 84.650837,39.681855 75.27346,42.074658 87,37.89221 Z m 55.8125,-16.575324 c 0.72187,-0.288871 1.58437,-0.253344 1.91667,0.07895 0.33229,0.332292 -0.25834,0.568641 -1.3125,0.52522 -1.16495,-0.04798 -1.4019,-0.284941 -0.60417,-0.604167 z"
         id="path985" />
      <path
         style="fill:#8c2d2d"
         d="M 89,103.61129 V 80.222582 l 3.5,-0.656604 C 94.425,79.204846 96,78.547204 96,78.104551 96,77.276981 85.372374,72.138846 55.211024,58.384319 L 37.922048,50.5 44.191372,48.646389 c 6.210387,-1.836186 6.325914,-1.833741 12.288976,0.260121 3.310809,1.162554 6.756409,2.109179 7.656889,2.103612 0.900481,-0.0056 7.200481,2.660156 14,5.923828 10.156316,4.874887 11.961194,6.055792 10.112763,6.616631 -3.428789,1.040343 -2.698623,2.197829 1.873739,2.970325 2.735601,0.462176 4.364709,0.306802 4.83959,-0.461571 0.498217,-0.806132 4.33687,0.499411 12.626261,4.294248 6.55073,2.998886 11.91041,5.844648 11.91041,6.323916 0,0.479267 0.9,2.001557 2,3.382867 4.2211,5.300583 10.5,7.835844 10.5,4.239634 0,-1.033609 0.34605,-1.327605 0.88278,-0.75 1.50987,1.62483 2.26928,21.21857 0.84474,21.79521 -0.93184,0.3772 -0.91794,0.51591 0.0577,0.57584 0.94235,0.0579 1.01843,0.5774 0.28519,1.94747 -0.55,1.02768 -0.75229,2.11622 -0.44954,2.41898 0.58525,0.58525 -3.27221,2.97401 -5.37083,3.32592 -0.6875,0.11529 -1.25,-0.68632 -1.25,-1.78136 0,-1.68455 -0.45412,-1.89123 -2.95066,-1.3429 -1.97195,0.43312 -4.45965,-0.0194 -7.5,-1.36431 C 112.58155,107.36971 112,106.72177 112,104.05623 c 0,-3.5751 -0.45332,-3.64097 -8.5,-1.23519 l -6,1.79387 -0.284034,10.10658 -0.284034,10.10659 -3.115189,1.08596 C 92.103389,126.51132 90.318704,127 89.850777,127 89.38285,127 89,116.47508 89,103.61129 Z M 116.46985,88.048789 C 117.29342,86.716223 110.21113,84.767074 106,85.167333 c -4.94387,0.469904 -4.34716,2.219749 1,2.932473 7.24263,0.965373 8.84703,0.95673 9.46985,-0.05102 z M 138,92.034406 V 66.068812 l 11.25,-3.472149 c 6.1875,-1.909683 20.925,-6.435036 32.75,-10.05634 11.825,-3.621305 22.2875,-6.829645 23.25,-7.129644 1.63631,-0.510018 1.75,1.172983 1.75,25.905356 v 26.450811 l -2.25,0.488449 C 203.5125,98.523942 188.37637,103.0764 171.11416,108.37187 153.85195,113.66734 139.33945,118 138.86416,118 138.38887,118 138,106.31548 138,92.034406 Z M 150,70.5 c 0,-3.742657 -1.4914,-3.696286 -1.57292,0.04891 -0.0401,1.842638 0.29739,3.121383 0.75,2.841655 C 149.62968,73.110834 150,71.810081 150,70.5 Z M 189.89764,57.627555 189.79528,54.5 l -0.73806,3.08729 c -0.40594,1.69801 -1.12126,3.72301 -1.5896,4.5 -0.7261,1.204615 -0.60231,1.210546 0.84042,0.04026 0.99146,-0.804231 1.64958,-2.6673 1.5896,-4.5 z M 82.510081,115.98369 c 0.345464,-0.55897 1.047021,-0.75742 1.559017,-0.44098 1.387044,0.85723 1.128411,1.45729 -0.628115,1.45729 -0.857459,0 -1.276365,-0.45734 -0.930902,-1.01631 z m 0,-33.000002 c 0.345464,-0.558971 1.047021,-0.757414 1.559017,-0.440983 C 85.456142,83.399945 85.197509,84 83.440983,84 82.583524,84 82.164618,83.54266 82.510081,82.983688 Z M 7,81.440983 C 7,80.583524 7.45,80.160081 8,80.5 8.55,80.839919 9,81.541476 9,82.059017 9,82.576558 8.55,83 8,83 7.45,83 7,82.298442 7,81.440983 Z M 130.54271,58.069098 c -1.08983,-1.76337 1.41557,-2.154726 4.18358,-0.653497 l 2.77371,1.504324 -3.19098,0.04004 c -1.75504,0.02202 -3.44988,-0.378868 -3.76631,-0.890864 z m -21.97065,-2.974303 c 1.63184,-1.733608 68.87541,-22.011228 69.29044,-20.894865 0.19937,0.536289 -0.0256,1.355108 -0.5,1.819598 -0.47438,0.464491 -14.1375,4.896628 -30.3625,9.849194 -28.84235,8.803925 -40.71335,11.654004 -38.42794,9.226073 z M 107,52.059899 C 108.58823,51.128896 174.11264,31 175.55505,31 c 3.63516,0 -5.65168,3.23787 -34.188,11.9197 C 110.17675,52.408971 103.27158,54.245459 107,52.059899 Z M 7,48.440983 C 7,47.583524 7.45,47.160081 8,47.5 8.55,47.839919 9,48.541476 9,49.059017 9,49.576558 8.55,50 8,50 7.45,50 7,49.298442 7,48.440983 Z M 183.02896,43.03906 c -2.7528,-1.740927 -0.0233,-2.399589 3.23106,-0.779697 3.08188,1.534033 3.11799,1.615102 0.73998,1.66137 -1.375,0.02675 -3.16197,-0.37 -3.97104,-0.881673 z M 65.192502,36.756432 65.5,32.512864 l 14,-4.320076 c 7.7,-2.376042 23.3375,-7.158593 34.75,-10.627891 L 135,11.257083 v 4.645121 4.645121 L 101.21583,30.773662 C 82.634533,36.398148 66.858659,41 66.15833,41 65.278961,41 64.980142,39.687073 65.192502,36.756432 Z"
         id="path983" />
      <path
         style="fill:#762426"
         d="m 82.510081,115.98369 c 0.345464,-0.55897 1.047021,-0.75742 1.559017,-0.44098 1.387044,0.85723 1.128411,1.45729 -0.628115,1.45729 -0.857459,0 -1.276365,-0.45734 -0.930902,-1.01631 z M 121,109.036 c 0,-2.18964 -0.8626,-2.77637 -4.94896,-3.36622 -2.84941,-0.4113 -5.01636,-3.16282 -3.52856,-4.48045 0.53763,-0.47614 3.90252,-1.890033 7.47752,-3.14198 8.19576,-2.870115 12.74232,-6.22348 13.28377,-9.797597 0.40956,-2.703493 0.41909,-2.698074 0.5664,0.322108 0.0976,2.001513 -0.86245,4.429504 -2.75539,6.968252 -2.58684,3.469391 -2.84607,4.469507 -2.36547,9.126127 0.48244,4.67441 0.33965,5.21705 -1.34478,5.11033 -1.03649,-0.0657 -2.89703,0.21305 -4.13453,0.6194 -1.85331,0.60855 -2.25,0.36878 -2.25,-1.35997 z M 97,86.993693 V 77.22268 L 79.25,69.187474 C 69.4875,64.76811 56.55,58.804087 50.5,55.93409 l -11,-5.218178 4,-0.916919 c 2.2,-0.504305 5.8,-0.686565 8,-0.405021 10.722221,1.37217 15.370705,2.408939 19.5,4.349156 2.475,1.16292 7.827552,3.663684 11.894559,5.557254 l 7.39456,3.442855 -5.39456,1.813064 C 80.025605,66.192713 79.743581,66.439091 82,67.085002 c 4.448836,1.273502 10.787733,0.984408 12.334681,-0.56254 1.303384,-1.303385 2.922221,-0.795235 13.734359,4.311189 l 12.25683,5.788728 -3.13192,1.297286 c -2.27893,0.943961 -3.07229,1.880546 -2.91294,3.438811 0.19456,1.90261 -0.47828,2.240764 -6.03101,3.031071 -4.16805,0.593229 -6.25,1.34273 -6.25,2.25 C 102,87.387796 102.675,88 103.5,88 c 2.12505,0 1.97089,0.293814 -2.5,4.764706 l -4,4 z M 82.510081,82.983688 c 0.345464,-0.558971 1.047021,-0.757414 1.559017,-0.440983 C 85.456142,83.399945 85.197509,84 83.440983,84 82.583524,84 82.164618,83.54266 82.510081,82.983688 Z M 7,81.440983 C 7,80.583524 7.45,80.160081 8,80.5 8.55,80.839919 9,81.541476 9,82.059017 9,82.576558 8.55,83 8,83 7.45,83 7,82.298442 7,81.440983 Z m 134.66667,-6.10765 C 139.38266,73.049325 142.48868,66 145.77905,66 c 2.79072,0 3.40345,5.619447 0.95407,8.75 -1.04873,1.340394 -3.97273,1.677053 -5.06645,0.583333 z m 40.04218,-11.957817 c -1.37177,-1.371767 -0.68821,-6.084222 1.11989,-7.720528 4.10248,-3.712696 7.51163,-0.231762 4.97417,5.078918 -1.27177,2.66172 -4.6218,4.113867 -6.09406,2.64161 z M 131.5,58 c -0.78917,-1.276897 2.52414,-1.276897 4.5,0 1.17323,0.758201 0.91378,0.97271 -1.19098,0.984687 C 133.32898,58.993109 131.83992,58.55 131.5,58 Z M 109,54.897659 c 0,-0.442008 1.4625,-1.2141 3.25,-1.715759 1.7875,-0.501659 16.90497,-5.070345 33.59437,-10.152636 20.34904,-6.196731 30.67572,-8.909175 31.35031,-8.234587 1.01922,1.019221 -4.5064,2.908975 -41.57,14.216892 C 118.43924,54.254761 109,56.341554 109,54.897659 Z m -2,-2.810665 c 1.18711,-0.674427 59.29317,-18.555304 67.5,-20.771659 1.3399,-0.361857 1.66995,-0.207678 1,0.467139 -0.95411,0.961035 -67.08054,21.250393 -69.05238,21.187117 C 105.92643,52.952867 106.175,52.555698 107,52.086994 Z M 7,48.440983 C 7,47.583524 7.45,47.160081 8,47.5 8.55,47.839919 9,48.541476 9,49.059017 9,49.576558 8.55,50 8,50 7.45,50 7,49.298442 7,48.440983 Z m 176.75,-5.130309 c -1.99584,-0.521566 -2.39301,-2.328902 -0.5,-2.275239 0.6875,0.01949 2.375,0.678544 3.75,1.464565 2.17371,1.242605 2.23897,1.418614 0.5,1.348563 -1.1,-0.04431 -2.7875,-0.286361 -3.75,-0.537889 z M 65.332851,37.336307 c 0.326994,-2.015031 0.948373,-4.016413 1.380842,-4.447514 0.762086,-0.759677 8.195221,-3.115136 43.676067,-13.840349 15.28616,-4.620729 17.05034,-4.960135 18.58115,-3.574773 0.93026,0.841881 2.01684,1.205243 2.41461,0.807471 0.78596,-0.785954 2.57442,1.520686 2.59917,3.352227 0.008,0.623352 -0.77219,1.358513 -1.73469,1.633689 -0.9625,0.275176 -15.925,4.826194 -33.25,10.113372 -17.325,5.287178 -32.121379,9.614518 -32.880842,9.616311 -1.031659,0.0024 -1.230498,-0.923206 -0.786307,-3.660434 z"
         id="path981" />
      <path
         style="fill:#781e20"
         d="m 82.510081,115.98369 c 0.345464,-0.55897 1.047021,-0.75742 1.559017,-0.44098 1.387044,0.85723 1.128411,1.45729 -0.628115,1.45729 -0.857459,0 -1.276365,-0.45734 -0.930902,-1.01631 z M 127,109.31133 c 0,-0.56211 -1.4625,-1.43888 -3.25,-1.94839 -2.82636,-0.80564 -3.29046,-1.41107 -3.56037,-4.64467 C 120.01893,100.67322 120.12233,99 120.4194,99 c 0.29707,0 2.35967,0.728038 4.58357,1.61786 3.91268,1.56555 4.02222,1.73532 3.38757,5.25 C 127.74266,109.45579 127,111.29488 127,109.31133 Z M 129.73972,93.25 c 1.7403,-1.5125 3.34952,-3.875 3.57605,-5.25 0.33688,-2.044841 0.43666,-1.908294 0.54805,0.75 0.14922,3.561184 -2.68788,7.25 -5.57605,7.25 -1.26431,0 -0.88449,-0.71939 1.45195,-2.75 z M 82.510081,82.983688 c 0.345464,-0.558971 1.047021,-0.757414 1.559017,-0.440983 C 85.456142,83.399945 85.197509,84 83.440983,84 82.583524,84 82.164618,83.54266 82.510081,82.983688 Z M 7,81.440983 C 7,80.583524 7.45,80.160081 8,80.5 8.55,80.839919 9,81.541476 9,82.059017 9,82.576558 8.55,83 8,83 7.45,83 7,82.298442 7,81.440983 Z m 90.703268,-1.174645 c -0.460338,-2.301687 -1.845043,-3.43231 -7.632813,-6.232254 -8.652968,-4.186038 -9.559177,-6.706601 -2.228408,-6.198181 3.480001,0.241352 5.300271,-0.121078 6.466781,-1.287588 1.497988,-1.497988 1.935325,-1.464405 5.657331,0.434421 4.525111,2.30854 4.758161,2.982186 2.319321,6.704326 -0.94299,1.439182 -1.73049,3.973002 -1.75,5.630712 -0.046,3.905586 -2.103019,4.594532 -2.832212,0.948564 z M 141.35473,74.48204 c -0.78853,-2.05489 1.4427,-7.190329 3.46045,-7.964611 2.50525,-0.961355 4.27508,2.114964 3.05817,5.315696 -1.56581,4.118373 -5.36267,5.661271 -6.51862,2.648915 z M 62.94711,61.616323 c -2.995911,-1.230846 -6.703138,-2.907829 -8.238283,-3.72663 l -2.791173,-1.488728 2.020416,-2.32956 c 1.111229,-1.281257 1.819925,-2.65396 1.574881,-3.05045 -0.79521,-1.286677 9.887465,0.196946 13.404015,1.861565 4.15173,1.965294 4.589539,4.042392 1.682559,7.982582 l -2.205305,2.989122 z m 118.75413,1.75158 c -1.2034,-1.203392 -0.76981,-4.824998 0.85546,-7.145397 1.97131,-2.814427 5.10365,-2.868017 5.98144,-0.102333 1.12601,3.547744 -4.53535,9.549288 -6.8369,7.24773 z M 131.5,58 c -0.78917,-1.276897 2.52414,-1.276897 4.5,0 1.17323,0.758201 0.91378,0.97271 -1.19098,0.984687 C 133.32898,58.993109 131.83992,58.55 131.5,58 Z M 109,54.925056 c 0,-0.457076 1.4625,-1.241497 3.25,-1.743156 1.7875,-0.501659 16.89346,-5.066848 33.56881,-10.144864 16.67534,-5.078016 30.5582,-8.993362 30.85079,-8.700768 0.55793,0.557933 -8.33401,3.431229 -45.30498,14.639617 C 119.06408,52.705006 109,55.382133 109,54.925056 Z m -2,-2.839195 c 0.825,-0.469327 13.65,-4.560309 28.5,-9.091071 C 171.25264,32.086596 175.53086,30.872736 174.43125,31.948839 173.91906,32.450075 165.175,35.389103 155,38.480013 144.825,41.570922 129.91431,46.102382 121.86514,48.549924 107.366,52.958731 104.10003,53.735599 107,52.085861 Z M 7,48.440983 C 7,47.583524 7.45,47.160081 8,47.5 8.55,47.839919 9,48.541476 9,49.059017 9,49.576558 8.55,50 8,50 7.45,50 7,49.298442 7,48.440983 Z M 183,42 c 0,-1.252922 1.06124,-1.252922 3,0 1.21296,0.783874 1.06944,0.972305 -0.75,0.984687 C 184.0125,42.993109 183,42.55 183,42 Z M 65.332851,37.336307 c 0.326994,-2.015031 0.961273,-4.030431 1.409507,-4.478665 1.302048,-1.302048 53.467242,-16.849849 56.547482,-16.853938 1.53441,-0.002 4.68441,0.963194 7,2.144957 l 4.21016,2.148662 -4,1.393721 C 122.56296,24.45655 67.353839,41 66.061779,41 65.096467,41 64.899207,40.008542 65.332851,37.336307 Z"
         id="path979" />
      <path
         style="fill:#781c1c"
         d="m 82.510081,115.98369 c 0.345464,-0.55897 1.047021,-0.75742 1.559017,-0.44098 1.387044,0.85723 1.128411,1.45729 -0.628115,1.45729 -0.857459,0 -1.276365,-0.45734 -0.930902,-1.01631 z m 43.756579,-8.11703 c -0.62333,-0.62333 -2.17583,-1.18583 -3.45,-1.25 -1.93999,-0.0977 -2.36798,-0.74073 -2.63228,-3.95488 -0.29594,-3.598781 -0.17118,-3.795023 2,-3.145871 4.93441,1.475321 6.5178,3.153221 6.04104,6.401601 -0.51651,3.51918 -0.45246,3.45545 -1.95876,1.94915 z M 82.510081,82.983688 c 0.345464,-0.558971 1.047021,-0.757414 1.559017,-0.440983 C 85.456142,83.399945 85.197509,84 83.440983,84 82.583524,84 82.164618,83.54266 82.510081,82.983688 Z M 7,81.440983 C 7,80.583524 7.45,80.160081 8,80.5 8.55,80.839919 9,81.541476 9,82.059017 9,82.576558 8.55,83 8,83 7.45,83 7,82.298442 7,81.440983 Z m 90.693677,-1.2226 C 97.267558,78.087792 96.086325,76.891739 93.060864,75.527446 90.827389,74.520289 89,73.326151 89,72.873806 c 0,-0.452345 1.327634,-1.508992 2.950298,-2.348104 1.622663,-0.839112 3.366856,-2.270008 3.875984,-3.179769 1.649395,-2.947305 4.557948,2.996185 4.620208,9.441194 0.0576,5.96214 -1.786835,8.261147 -2.752813,3.431256 z M 141.35473,74.48204 c -0.32037,-0.834879 -0.04,-2.827544 0.62295,-4.428145 C 143.93115,65.337803 148,64.853118 148,69.336511 c 0,4.736731 -5.24398,8.797223 -6.64527,5.145529 z M 61.470943,60.662026 c -6.326029,-3.021191 -6.723005,-3.381946 -4.371064,-3.972246 1.422784,-0.357096 3.7518,-1.814186 5.175593,-3.237979 l 2.588713,-2.588714 1.495439,2.318457 c 2.893431,4.485836 3.884263,7.560237 2.965598,9.2018 -0.789955,1.411571 -1.722127,1.20728 -7.854279,-1.721318 z m 119.889827,1.835738 c -0.91877,-2.394265 0.48587,-6.345321 2.6717,-7.515144 2.5301,-1.354063 3.96753,-0.501249 3.96753,2.353891 0,4.723675 -5.24308,8.799575 -6.63923,5.161253 z M 131.5,58 c -0.78687,-1.273187 1.52988,-1.273187 3.5,0 1.21948,0.788086 1.09025,0.972238 -0.69098,0.984687 C 133.10398,58.993109 131.83992,58.55 131.5,58 Z m -22.41667,-3.409948 c 0.79745,-0.784593 64.06375,-19.7763 64.48309,-19.356969 0.51358,0.513584 -29.74412,10.178814 -49.2453,15.730447 -13.79643,3.927593 -16.10134,4.476151 -15.23779,3.626522 z m -0.27083,-3.273166 c 0.72187,-0.288871 1.58437,-0.253344 1.91667,0.07895 0.33229,0.332292 -0.25834,0.568641 -1.3125,0.52522 -1.16495,-0.04798 -1.4019,-0.284941 -0.60417,-0.604167 z m 3.27869,-0.741408 c 0.78026,-0.78026 47.22078,-14.596843 47.64322,-14.174401 0.22897,0.228971 -0.4051,0.656645 -1.40905,0.950386 -1.00395,0.293742 -11.55784,3.484829 -23.45309,7.091306 -20.65388,6.261975 -23.74155,7.093181 -22.78108,6.132709 z M 7,48.440983 C 7,47.583524 7.45,47.160081 8,47.5 8.55,47.839919 9,48.541476 9,49.059017 9,49.576558 8.55,50 8,50 7.45,50 7,49.298442 7,48.440983 Z M 183,42 c 0,-1.252922 1.06124,-1.252922 3,0 1.21296,0.783874 1.06944,0.972305 -0.75,0.984687 C 184.0125,42.993109 183,42.55 183,42 Z M 66,40.675083 c 0,-0.824313 5.891938,-4.836191 7.435187,-5.062691 0.749677,-0.11003 1.970946,-0.701413 2.713931,-1.314185 C 77.272734,33.371511 82.131521,31.813778 91,29.536996 c 0.825,-0.2118 3.525,-1.118846 6,-2.015656 2.475,-0.896811 6.3,-1.881704 8.5,-2.188651 2.2,-0.306947 4.8711,-1.017948 5.93579,-1.580001 1.9328,-1.020342 16.49218,-2.344938 15.5576,-1.415414 -0.50966,0.506906 -46.150504,14.61909 -53.805936,16.636837 -2.3719,0.625164 -4.9594,1.384882 -5.75,1.688264 C 66.646854,40.965756 66,40.971475 66,40.675083 Z M 164,34.5 c 1.925,-0.741314 4.175,-1.347844 5,-1.347844 0.825,0 -0.075,0.60653 -2,1.347844 -1.925,0.741314 -4.175,1.347844 -5,1.347844 -0.825,0 0.075,-0.60653 2,-1.347844 z"
         id="path977" />
      <path
         style="fill:#681a1a"
         d="m 126.26666,107.86666 c -0.62333,-0.62333 -2.17583,-1.18583 -3.45,-1.25 -1.93999,-0.0977 -2.36798,-0.74073 -2.63228,-3.95488 -0.29594,-3.598781 -0.17118,-3.795023 2,-3.145871 4.93441,1.475321 6.5178,3.153221 6.04104,6.401601 -0.51651,3.51918 -0.45246,3.45545 -1.95876,1.94915 z M 97.686526,80.182632 c -0.401124,-2.005623 -1.517595,-3.284231 -3.632812,-4.160383 -3.53925,-1.466005 -3.884188,-2.623891 -1.049671,-3.523532 1.102224,-0.349832 2.594272,-1.762552 3.315664,-3.139376 l 1.31162,-2.503317 1.626288,3.821988 c 1.797165,4.22356 1.872345,11.447158 0.125197,12.028429 -0.614453,0.204426 -1.377781,-0.931288 -1.696286,-2.523809 z m 43.778344,-5.239467 c -1.63754,-2.649608 2.28314,-9.36083 4.88524,-8.362308 1.45015,0.556474 1.04345,6.110529 -0.59819,8.169143 -1.21737,1.526577 -3.40211,1.625017 -4.28705,0.193165 z M 64.026589,61.900542 c -2.449198,-1.096539 -4.636274,-2.176894 -4.86017,-2.400789 -0.223895,-0.223896 1.201379,-1.924057 3.167275,-3.778136 l 3.574357,-3.371052 2.197614,4.142543 c 1.524831,2.874334 1.918473,4.641342 1.285813,5.771842 -0.831898,1.48652 -1.302033,1.454587 -5.364889,-0.364408 z m 117.334181,0.597222 c -1.4185,-3.696546 2.82679,-9.735945 5.62714,-8.005235 1.08363,0.669722 0.21729,6.387867 -1.25107,8.257471 -1.34124,1.707757 -3.67558,1.573206 -4.37607,-0.252236 z M 131.5,58 c -0.78687,-1.273187 1.52988,-1.273187 3.5,0 1.21948,0.788086 1.09025,0.972238 -0.69098,0.984687 C 133.10398,58.993109 131.83992,58.55 131.5,58 Z m -8.41667,-7.354447 c 0.92287,-0.785055 38.10572,-11.789832 38.50074,-11.39482 0.23396,0.23396 -8.01425,2.980238 -18.32935,6.102838 -17.12336,5.183607 -21.34639,6.291522 -20.17139,5.291982 z M 125.5,46.463885 c 1.65,-0.755522 3.675,-1.359739 4.5,-1.342703 0.825,0.01704 -0.075,0.637504 -2,1.378818 -4.5657,1.758243 -6.36206,1.732293 -2.5,-0.03612 z M 133.5,44 c 1.1,-0.472686 2.675,-0.859429 3.5,-0.859429 0.94548,0 0.76064,0.317714 -0.5,0.859429 -1.1,0.472686 -2.675,0.859429 -3.5,0.859429 -0.94548,0 -0.76064,-0.317714 0.5,-0.859429 z M 183,42.09362 c 0,-0.49851 0.9,-0.671025 2,-0.383369 1.1,0.287656 2,0.695528 2,0.90638 C 187,42.827484 186.1,43 185,43 c -1.1,0 -2,-0.407871 -2,-0.90638 z M 150,39 c 0.825,-0.533156 2.175,-0.944637 3,-0.914402 0.98906,0.03625 0.81874,0.34772 -0.5,0.914402 -2.74909,1.181322 -4.32797,1.181322 -2.5,0 z m 6.5,-2 c 2.74909,-1.181322 4.32797,-1.181322 2.5,0 -0.825,0.533156 -2.175,0.944637 -3,0.914402 -0.98906,-0.03625 -0.81874,-0.34772 0.5,-0.914402 z"
         id="path975" />
      <path
         style="fill:#561414"
         d="M 122.40329,103.55424 C 125.32974,101.16148 128,101.131 128,103.49036 c 0,1.33324 -3.07809,2.49819 -6.5,2.46002 -1.75253,-0.0195 -1.64076,-0.31604 0.90329,-2.39614 z m 19.04732,-28.634157 c -0.36709,-0.593955 0.28136,-1.744471 1.44098,-2.556704 1.15963,-0.812233 2.10841,-2.42627 2.10841,-3.58675 0,-1.160479 0.23992,-1.870038 0.53317,-1.576797 0.29324,0.293241 0.23572,2.393241 -0.12781,4.666667 -0.63688,3.982829 -2.49415,5.416884 -3.95475,3.053584 z m 40.75785,-12.168905 c -0.83974,-1.01182 -0.65333,-1.616768 0.77257,-2.507258 1.03364,-0.645519 2.07614,-2.201977 2.31667,-3.458796 0.24053,-1.256818 0.24892,-0.485124 0.0186,1.714876 -0.48855,4.667257 -1.55354,6.124032 -3.10787,4.251178 z"
         id="path973" />
    </g>
  </g>
</svg>
