<?xml version="1.0" encoding="UTF-8" standalone="no"?>
<!-- Created with Inkscape (http://www.inkscape.org/) -->

<svg
   version="1.1"
   id="svg2"
   width="82.800003"
   height="101.6"
   viewBox="0 0 82.800004 101.6"
   sodipodi:docname="piston_gris.svg"
   inkscape:version="1.1.2 (b8e25be833, 2022-02-05)"
   xmlns:inkscape="http://www.inkscape.org/namespaces/inkscape"
   xmlns:sodipodi="http://sodipodi.sourceforge.net/DTD/sodipodi-0.dtd"
   xmlns="http://www.w3.org/2000/svg"
   xmlns:svg="http://www.w3.org/2000/svg">
  <defs
     id="defs6" />
  <sodipodi:namedview
     id="namedview4"
     pagecolor="#ffffff"
     bordercolor="#666666"
     borderopacity="1.0"
     inkscape:pageshadow="2"
     inkscape:pageopacity="0.0"
     inkscape:pagecheckerboard="0"
     showgrid="false"
     fit-margin-top="0"
     fit-margin-left="0"
     fit-margin-right="0"
     fit-margin-bottom="0"
     inkscape:zoom="1.877434"
     inkscape:cx="219.18214"
     inkscape:cy="58.057966"
     inkscape:window-width="1920"
     inkscape:window-height="1009"
     inkscape:window-x="-8"
     inkscape:window-y="-8"
     inkscape:window-maximized="1"
     inkscape:current-layer="g8" />
  <g
     inkscape:groupmode="layer"
     inkscape:label="Image"
     id="g8"
     transform="translate(155.15338,-43.383437)">
    <g
       id="g863"
       transform="matrix(0.40666428,0,0,0.40918808,-158.30604,66.7521)">
      <path
         style="fill:#cfd1d4"
         d="M 53.777416,106.6594 10.054833,86.5 10.027416,61.457405 10,36.41481 14.531072,35.202933 c 3.971341,-1.062172 4.990477,-0.980112 8.25,0.664284 2.04541,1.031889 4.731428,2.189226 5.968928,2.57186 C 30.878849,39.097316 31,38.861923 31,34.067388 31,31.280324 31.155873,29 31.346384,29 31.536896,29 47.746895,24.086852 67.368604,18.081894 L 103.04444,7.1637879 111.02222,10.751614 119,14.33944 v 4.83028 C 119,21.826374 119.14484,24 119.32186,24 c 0.17702,0 2.44175,-0.722318 5.03272,-1.605152 3.27996,-1.117592 5.83998,-1.366027 8.42814,-0.817899 2.04451,0.432989 5.56113,0.670585 7.81473,0.527992 2.2536,-0.142593 5.6286,0.381334 7.5,1.164283 3.31284,1.386012 14.92983,11.700516 13.24635,11.761185 -0.46409,0.01672 -0.0468,0.494382 0.92723,1.06146 0.97407,0.567079 1.53085,1.419674 1.2373,1.894656 -0.29356,0.474982 -0.0328,1.963095 0.57951,3.306918 1.11249,2.441648 1.1171,2.442312 6.7627,0.973133 L 176.5,40.796394 185.25,44.9463 c 7.61393,3.611093 8.75,4.479664 8.75,6.6897 0,2.41557 0.1987,2.506225 4.06247,1.853446 3.20358,-0.541242 4.50129,-0.295549 6.13802,1.162102 4.64665,4.138244 6.4583,14.580274 3.04951,17.576863 -0.9625,0.846112 -4.32486,2.274752 -7.47191,3.174756 l -5.72191,1.63637 -0.27809,13.637138 -0.27809,13.637135 -25.5,7.8052 c -14.025,4.29286 -30.36462,9.2527 -36.31026,11.02186 l -10.81026,3.21666 -5.43974,-2.6679 C 111.4344,121.72523 110,120.46951 110,118.92753 c 0,-3.55925 -2.47796,-1.53147 -2.8041,2.29468 -0.28154,3.30294 -0.62968,3.64959 -4.69282,4.6727 -2.4138,0.6078 -4.526951,1.06432 -4.6959,1.01449 -0.168949,-0.0498 -19.982343,-9.16233 -44.029764,-20.25 z M 115,85 c 0,-0.55 -0.45,-1 -1,-1 -0.55,0 -1,0.45 -1,1 0,0.55 0.45,1 1,1 0.55,0 1,-0.45 1,-1 z M 14.345077,82.456872 c -0.325685,-0.848721 -0.806623,-1.32866 -1.068751,-1.066531 -0.262128,0.262128 -0.179978,0.956536 0.182555,1.543128 0.98605,1.595461 1.56238,1.28551 0.886196,-0.476597 z m 0,-34 c -0.325685,-0.848721 -0.806623,-1.32866 -1.068751,-1.066531 -0.262128,0.262128 -0.179978,0.956536 0.182555,1.543128 0.98605,1.595461 1.56238,1.28551 0.886196,-0.476597 z"
         id="path901" />
      <path
         style="fill:#b8c5d6"
         d="M 54.232807,106.20524 9.9656134,85.746967 10.232807,61.166953 10.5,36.586939 14.675897,35.37841 c 3.852551,-1.114951 4.646224,-0.9861 10.25,1.664067 L 31,39.915074 v -5.25113 -5.251131 L 66.25,18.674485 c 19.3875,-5.906081 35.9377,-10.7239639 36.77821,-10.7064069 0.84052,0.017557 4.77802,1.5893489 8.75,3.4928709 L 119,14.921898 v 4.539051 C 119,21.957427 119.36984,24 119.82186,24 c 0.45202,0 2.97829,-0.734768 5.61392,-1.632818 3.72075,-1.267788 5.54826,-1.400734 8.17461,-0.594684 1.86041,0.570975 5.11091,0.806315 7.22333,0.522979 2.55044,-0.342086 4.98733,0.06989 7.25353,1.226267 3.86074,1.970024 13.52207,10.584157 13.15402,11.728256 C 161.10857,35.6625 161.45,36 162,36 c 0.55,0 1,1.038992 1,2.30887 0,1.269879 0.5625,3.060317 1.25,3.978752 1.15032,1.536721 1.66581,1.546796 6.4644,0.126345 l 5.2144,-1.543537 8.5356,3.999917 c 8.0794,3.786132 8.5356,4.169444 8.5356,7.171774 0,2.490802 0.34202,3.04061 1.5929,2.560603 6.62298,-2.541476 9.6991,-1.375192 12.47015,4.727958 4.09476,9.018562 2.36524,12.87418 -7.05903,15.736714 l -6.94874,2.110616 -0.27764,13.534227 -0.27764,13.534231 -11,3.39638 c -6.05,1.86801 -22.07695,6.76537 -35.61546,10.88304 l -24.61545,7.48666 -5.63455,-2.57958 C 111.6307,121.59995 110,120.29578 110,118.92669 c 0,-3.69767 -2.86527,-2.09413 -3.18963,1.78507 -0.28337,3.3888 -0.65841,3.80921 -4.31037,4.83175 -3.961455,1.1092 -4.426573,0.92285 -48.267193,-19.33827 z m 37.385489,11.13317 c -1.308086,-2.41375 -1.544211,-2.53171 -1.578258,-0.78841 -0.02202,1.1275 0.492462,2.5825 1.143295,3.23333 1.885891,1.88589 2.107353,0.64106 0.434963,-2.44492 z m 0,-34.000002 c -0.846021,-1.561124 -1.556238,-2.246324 -1.578258,-1.522667 -0.05255,1.726801 1.980236,5.497318 2.619241,4.858313 0.273481,-0.273481 -0.194961,-1.774522 -1.040983,-3.335646 z M 115,85.559017 c 0,-0.792541 -0.45,-1.719098 -1,-2.059017 -0.55,-0.339919 -1,-0.403281 -1,-0.140804 0,0.262476 -0.27314,1.189033 -0.60699,2.059017 C 111.9947,86.456196 112.33849,87 113.39301,87 114.27686,87 115,86.351558 115,85.559017 Z M 14.387595,82.468792 C 13.475413,81.076627 12.52858,80.138086 12.283521,80.383145 11.591019,81.075648 13.949543,85 15.058237,85 c 0.543328,0 0.241539,-1.139044 -0.670642,-2.531208 z M 123,62 c 0,-1.131483 -0.66667,-2 -1.53518,-2 -1.22531,0 -1.31913,0.403701 -0.46482,2 0.5887,1.1 1.27953,2 1.53518,2 C 122.79083,64 123,63.1 123,62 Z M 14.387595,48.468792 C 13.475413,47.076627 12.52858,46.138086 12.283521,46.383145 11.591019,47.075648 13.949543,51 15.058237,51 c 0.543328,0 0.241539,-1.139044 -0.670642,-2.531208 z M 175.98469,44.75 C 175.99311,44.3375 175.325,44 174.5,44 c -1.6934,0 -1.75371,0.175273 -0.86084,2.502058 0.50987,1.32869 0.81021,1.395807 1.48469,0.331788 0.46504,-0.733615 0.85242,-1.671346 0.86084,-2.083846 z"
         id="path899" />
      <path
         style="fill:#b8b9ba"
         d="M 54.25,106.20745 10,85.762831 V 61.421557 37.080283 l 4.090021,-1.2254 C 18.319219,34.587784 18.643033,34.650292 27.25,38.395205 L 31,40.02684 v -5.038171 c 0,-4.509927 0.273524,-5.142164 2.60876,-6.03002 1.434818,-0.545516 17.625025,-5.562194 35.978237,-11.148172 l 33.369473,-10.1563242 7.77177,3.4704792 7.77176,3.47048 0.30479,4.702444 C 118.97243,21.8839 119.46341,24 119.89586,24 c 0.43245,0 2.94825,-0.650659 5.59067,-1.445908 C 130.17812,21.142131 136,21.429468 136,23.07298 c 0,0.45264 1.30683,0.367419 2.90406,-0.189379 2.03052,-0.707844 4.2113,-0.662 7.25,0.152408 5.96457,1.598581 16.2343,11.855341 17.23575,17.213991 0.78626,4.20718 1.39695,4.382729 7.73446,2.223323 4.47783,-1.52575 4.48583,-1.524239 13.17814,2.491621 8.11224,3.747865 8.69759,4.220764 8.69759,7.026677 0,3.337976 0.3498,3.479602 4.7799,1.935262 5.44779,-1.899109 9.20451,1.882645 10.6771,10.748253 1.02988,6.200294 -0.38016,7.919477 -8.4719,10.3293 L 193,77.08469 v 13.375533 13.375537 l -7.75,2.52429 c -4.2625,1.38835 -20.42336,6.36432 -35.91302,11.05769 l -28.16303,8.53341 -5.09917,-2.22558 c -3.39115,-1.48009 -5.29887,-2.97923 -5.69538,-4.47557 -0.95493,-3.60373 -3.3794,-2.77438 -3.3794,1.156 0,3.11764 -0.35981,3.52622 -4.25,4.82603 l -4.25,1.42004 z m 37.95349,11.79781 c -1.178295,-2.07144 -1.806025,-2.51909 -2.036066,-1.45196 -0.350237,1.62471 1.49558,4.4467 2.90851,4.4467 0.457075,0 0.06448,-1.34763 -0.872444,-2.99474 z m 0,-33.982575 C 91.26657,82.385162 90.358316,81.460214 90.185146,81.967246 89.754407,83.228429 91.855385,87 92.988673,87 93.493742,87 93.140409,85.660208 92.20349,84.022685 Z M 115,85.559017 c 0,-0.792541 -0.45,-1.719098 -1,-2.059017 -0.55,-0.339919 -1,-0.403281 -1,-0.140804 0,0.262476 -0.27314,1.189033 -0.60699,2.059017 C 111.9947,86.456196 112.33849,87 113.39301,87 114.27686,87 115,86.351558 115,85.559017 Z M 14.387595,82.468792 C 13.475413,81.076627 12.52858,80.138086 12.283521,80.383145 11.591019,81.075648 13.949543,85 15.058237,85 c 0.543328,0 0.241539,-1.139044 -0.670642,-2.531208 z M 123.375,60.797746 C 123.10383,60.358986 122.21769,60 121.4058,60 c -1.19743,0 -1.2604,0.403168 -0.3335,2.1351 0.88345,1.650742 1.33018,1.831714 1.9692,0.797745 0.4546,-0.735544 0.60467,-1.696339 0.3335,-2.135099 z M 14.387595,48.468792 C 13.475413,47.076627 12.52858,46.138086 12.283521,46.383145 11.591019,47.075648 13.949543,51 15.058237,51 c 0.543328,0 0.241539,-1.139044 -0.670642,-2.531208 z M 176.33602,44.75 C 175.86365,43.969752 173,43.684944 173,44.418213 c 0,0.230016 0.26545,1.10997 0.58989,1.955452 0.46426,1.209843 0.86787,1.280506 1.89504,0.331788 0.71783,-0.662999 1.10082,-1.542953 0.85109,-1.955453 z"
         id="path897" />
      <path
         style="fill:#92aac9"
         d="M 97.767779,101.77641 97.5,77.552817 54.273759,57.642474 C 30.499327,46.691785 11.277612,37.359831 11.558838,36.904797 c 0.281226,-0.455033 2.088406,-1.123196 4.015955,-1.484806 2.643966,-0.496011 4.937675,-0.01436 9.339966,1.961268 C 31.911277,40.521109 32,40.52904 32,38.014592 c 0,-1.952606 0.07848,-1.955895 4.75,-0.199056 4.75673,1.788882 9.25,1.850809 9.25,0.127485 0,-0.504833 -3.2625,-2.564681 -7.25,-4.57744 l -7.25,-3.659563 5,-1.696242 C 39.25,27.076842 55.314417,22.12216 72.198703,16.99937 L 102.89741,7.6852073 110.4487,10.977634 118,14.270061 v 4.396354 c 0,5.321427 0.98996,5.842856 7.41934,3.907896 C 130.16666,21.145578 136,21.420505 136,23.07298 c 0,0.45264 1.30683,0.367419 2.90406,-0.189379 2.03052,-0.707844 4.2113,-0.662 7.25,0.152408 5.96457,1.598581 16.2343,11.855341 17.23575,17.213991 0.78626,4.20718 1.39695,4.382729 7.73446,2.223323 4.47783,-1.52575 4.48583,-1.524239 13.17814,2.491621 8.11224,3.747865 8.69759,4.220764 8.69759,7.026677 0,3.337976 0.3498,3.479602 4.7799,1.935262 5.31173,-1.851678 9.08647,1.783289 10.6123,10.219341 1.09181,6.036449 -0.62575,8.213258 -8.47521,10.741347 L 193,77.115336 v 13.414397 13.414397 l -5.25,1.53617 c -2.8875,0.84489 -18.975,5.74092 -35.75,10.88006 l -30.5,9.34389 -5,-2.16742 c -3.51555,-1.52393 -5.09487,-2.81603 -5.31955,-4.35212 C 110.97839,117.80326 110.15112,117 108.93045,117 107.40146,117 107,117.70752 107,120.40217 c 0,2.91696 -0.44915,3.55875 -3.14922,4.5 -6.080149,2.11955 -5.791811,3.21573 -6.083001,-23.12576 z M 114.81955,85.239784 c 0.39223,-2.749188 -1.3729,-2.942874 -2.78437,-0.305525 -1.44303,2.696332 -1.30225,3.263292 0.71482,2.878849 0.9625,-0.183446 1.8938,-1.341442 2.06955,-2.573324 z m 18.98732,-8.766245 c -0.30789,-0.307888 -0.86705,0.247112 -1.24258,1.233333 -0.54268,1.425198 -0.42782,1.540062 0.5598,0.559795 0.68342,-0.678334 0.99067,-1.485241 0.68278,-1.793128 z M 174.78776,63.86329 c -0.24965,-0.748946 -0.70294,-0.295653 -1.05655,1.056551 -0.43497,1.663345 -0.30483,2.053777 0.43724,1.311709 0.5811,-0.581102 0.85979,-1.646819 0.61931,-2.36826 z m -51.41161,-1.401144 c 0.33982,-0.885558 -0.0572,-1.786278 -0.93614,-2.123539 -1.95661,-0.750822 -2.84947,0.15198 -2.09493,2.118265 0.75909,1.978164 2.27299,1.980798 3.03107,0.0053 z M 80.945277,49.434063 c -1.651054,-1.989398 -6.952105,-4.760568 -7.691748,-4.020926 -0.308335,0.308336 1.052712,1.234699 3.02455,2.058585 1.971837,0.823886 3.867488,1.954793 4.212557,2.513127 C 80.835705,50.543182 81.371576,51 81.681462,51 c 0.309885,0 -0.0214,-0.704671 -0.736185,-1.565937 z m 95.430873,-2.971917 c 0.33982,-0.885558 -0.0572,-1.786278 -0.93614,-2.123539 -1.95661,-0.750822 -2.84947,0.15198 -2.09493,2.118265 0.75909,1.978164 2.27299,1.980798 3.03107,0.0053 z M 91.624431,116.94897 c -1.375297,-2.75684 -1.368416,-3.10998 0.07137,-3.66248 C 93.516507,112.58782 96,115.41776 96,118.19113 c 0,2.8702 -2.707488,2.10159 -4.375569,-1.24216 z M 75,91.916667 c 0,-2.437045 2.336773,-2.09257 2.823324,0.416199 C 78.014697,93.31963 77.504563,94 76.573324,94 75.645689,94 75,93.145004 75,91.916667 Z m 16.670644,-8.875059 c -1.213178,-2.431872 -1.242248,-3.152256 -0.163337,-4.047672 0.991661,-0.823006 1.701202,-0.534335 2.902598,1.180898 C 95.284457,81.423432 96,83.244885 96,84.222506 c 0,2.809036 -2.707308,2.070576 -4.329356,-1.180898 z M 15.193701,83.733395 C 13.297637,81.448778 12.63554,77 14.191592,77 16.278057,77 18,79.098385 18,81.640983 c 0,2.732302 -1.405506,3.780265 -2.806299,2.092412 z M 30.380002,72.547887 C 29.690627,70.751404 30.808045,68.763332 32.069098,69.542705 33.336256,70.325852 33.253428,74 31.968615,74 31.401354,74 30.686478,73.346549 30.380002,72.547887 Z M 15.193701,49.733395 C 13.297637,47.448778 12.63554,43 14.191592,43 16.278057,43 18,45.098385 18,47.640983 c 0,2.732302 -1.405506,3.780265 -2.806299,2.092412 z"
         id="path895" />
      <path
         style="fill:#98a4b5"
         d="M 97.767779,101.77872 97.5,77.557439 54.590819,57.786205 C 30.990769,46.912026 11.484459,37.817792 11.243462,37.576796 c -0.240996,-0.240997 1.434132,-0.999132 3.722507,-1.684746 3.839437,-1.150323 4.582155,-1.03986 9.61951,1.43069 C 31.115184,40.525207 32,40.607769 32,38.014592 32,36.061986 32.07848,36.058697 36.75,37.815536 41.50673,39.604418 46,39.666345 46,37.943021 46,37.438188 42.7375,35.375448 38.75,33.359154 34.7625,31.34286 31.95,29.546459 32.5,29.367151 34.511855,28.71126 96.603764,9.778452 99.895369,8.8172342 c 2.936691,-0.8575751 4.384271,-0.5407058 10.715701,2.3456238 7.13947,3.25469 7.32118,3.427774 7.35463,7.005355 0.0625,6.684186 0.36492,6.882044 7.43066,4.861426 5.01798,-1.435014 6.69052,-1.553508 8.4718,-0.600199 2.01767,1.079824 1.41997,1.433626 -6.57436,3.891622 C 89.226776,38.02544 70.69824,43.916468 71.831709,43.954876 72.564149,43.979694 88.731691,39.275 107.75958,33.5 126.78747,27.725 143.19363,23 144.21771,23 c 3.20923,0 9.13166,3.625736 13.03229,7.978418 2.0625,2.301528 3.75,4.624475 3.75,5.162106 0,0.53763 0.45,0.699395 1,0.359476 0.57494,-0.35533 1.00651,0.57598 1.01531,2.190983 0.0286,5.254627 1.12778,5.876651 7.33254,4.149644 l 5.5002,-1.530901 8.57597,3.993117 c 7.86497,3.662061 8.57598,4.232424 8.57598,6.87958 0,2.874317 0.0204,2.883751 4.85851,2.241959 4.2595,-0.565043 5.12631,-0.357048 7.03067,1.687039 1.19469,1.282349 2.04586,2.969262 1.89149,3.748696 -0.15683,0.791884 -3.25887,2.304151 -7.03067,3.427508 -6.106,1.818552 -8.25167,3.66626 -5.92635,5.103384 0.45301,0.279974 3.6431,-0.368469 7.08909,-1.440983 C 208.41502,64.615056 209,64.579101 209,66.452947 c 0,4.139052 -2.25901,6.236808 -9.08301,8.434624 L 193,77.115336 v 13.414397 13.414397 l -5.25,1.53617 c -2.8875,0.84489 -18.975,5.74092 -35.75,10.88006 l -30.5,9.34389 -5,-2.16742 c -3.51555,-1.52393 -5.09487,-2.81603 -5.31955,-4.35212 C 110.97839,117.80326 110.15112,117 108.93045,117 107.40146,117 107,117.70752 107,120.40217 c 0,2.91696 -0.44915,3.55875 -3.14922,4.5 -6.080125,2.11955 -5.791811,3.21552 -6.083001,-23.12345 z M 112.55887,93.5 c 1.92151,-1.484836 1.92151,-1.515164 0,-3 C 109.27904,87.965522 107,88.580495 107,92 c 0,3.419505 2.27904,4.034478 5.55887,1.5 z m 2.26068,-8.260216 c 0.39223,-2.749188 -1.3729,-2.942874 -2.78437,-0.305525 -1.44303,2.696332 -1.30225,3.263292 0.71482,2.878849 0.9625,-0.183446 1.8938,-1.341442 2.06955,-2.573324 z M 133.96937,76.5 c 0,-0.55 -0.43621,-0.325 -0.96937,0.5 -0.53316,0.825 -0.96937,1.95 -0.96937,2.5 0,0.55 0.43621,0.325 0.96937,-0.5 0.53316,-0.825 0.96937,-1.95 0.96937,-2.5 z m -6.21951,-1.083469 c -0.95295,-0.952958 -2.86349,0.590599 -2.1533,1.7397 0.42212,0.683003 0.98146,0.665748 1.69964,-0.05243 0.58876,-0.588756 0.79291,-1.348027 0.45366,-1.687268 z m 47.0379,-11.553241 c -0.24965,-0.748946 -0.70294,-0.295653 -1.05655,1.056551 -0.43497,1.663345 -0.30483,2.053777 0.43724,1.311709 0.5811,-0.581102 0.85979,-1.646819 0.61931,-2.36826 z M 169,63.5 c 0,-0.825 -0.45,-1.5 -1,-1.5 -0.55,0 -1,0.675 -1,1.5 0,0.825 0.45,1.5 1,1.5 0.55,0 1,-0.675 1,-1.5 z M 123.52381,62.619048 C 125.21752,60.925337 124.43117,60 121.29815,60 c -2.05864,0 -2.22848,0.261664 -1.29815,2 1.26816,2.369579 1.6978,2.445057 3.52381,0.619048 z M 80.945277,49.434063 c -1.651054,-1.989398 -6.952105,-4.760568 -7.691748,-4.020926 -0.308335,0.308336 1.052712,1.234699 3.02455,2.058585 1.971837,0.823886 3.867488,1.954793 4.212557,2.513127 C 80.835705,50.543182 81.371576,51 81.681462,51 c 0.309885,0 -0.0214,-0.704671 -0.736185,-1.565937 z M 176.52381,46.619048 C 178.21752,44.925337 177.43117,44 174.29815,44 c -2.05864,0 -2.22848,0.261664 -1.29815,2 1.26816,2.369579 1.6978,2.445057 3.52381,0.619048 z M 91.624431,116.94897 c -1.375297,-2.75684 -1.368416,-3.10998 0.07137,-3.66248 C 93.516507,112.58782 96,115.41776 96,118.19113 c 0,2.8702 -2.707488,2.10159 -4.375569,-1.24216 z M 75,91.916667 c 0,-2.437045 2.336773,-2.09257 2.823324,0.416199 C 78.014697,93.31963 77.504563,94 76.573324,94 75.645689,94 75,93.145004 75,91.916667 Z m 16.670644,-8.875059 c -1.213178,-2.431872 -1.242248,-3.152256 -0.163337,-4.047672 0.991661,-0.823006 1.701202,-0.534335 2.902598,1.180898 C 95.284457,81.423432 96,83.244885 96,84.222506 c 0,2.809036 -2.707308,2.070576 -4.329356,-1.180898 z M 15.193701,83.733395 C 13.297637,81.448778 12.63554,77 14.191592,77 16.278057,77 18,79.098385 18,81.640983 c 0,2.732302 -1.405506,3.780265 -2.806299,2.092412 z M 30.380002,72.547887 C 29.690627,70.751404 30.808045,68.763332 32.069098,69.542705 33.336256,70.325852 33.253428,74 31.968615,74 31.401354,74 30.686478,73.346549 30.380002,72.547887 Z M 15.193701,49.733395 C 13.297637,47.448778 12.63554,43 14.191592,43 16.278057,43 18,45.098385 18,47.640983 c 0,2.732302 -1.405506,3.780265 -2.806299,2.092412 z"
         id="path893" />
      <path
         style="fill:#909ba9"
         d="M 98.767527,101.69251 98.5,77.606578 54.624196,57.381122 10.748392,37.155667 14.86072,35.923583 C 18.694271,34.775024 19.436954,34.905328 25.81628,37.84575 33.469605,41.373396 35,41.656456 35,39.544359 c 0,-1.274188 0.514293,-1.274188 4.125727,0 C 44.80247,41.547231 46,41.391087 46,38.648038 c 0,-1.944703 -1.249494,-2.92789 -7.215961,-5.678013 -3.968778,-1.829328 -6.781278,-3.461689 -6.25,-3.627469 C 37.061837,27.929704 97.27707,9.5818324 99.895369,8.8172342 102.83206,7.9596591 104.27964,8.2765284 110.61107,11.162858 l 7.32034,3.337142 0.0343,4.583333 c 0.0189,2.520834 0.29292,4.841956 0.60902,5.15805 0.31609,0.316094 3.38705,-0.22954 6.82435,-1.21252 5.04989,-1.444138 6.68073,-1.556522 8.49525,-0.585423 2.07882,1.112554 1.73908,1.354125 -4.57436,3.252602 C 121.80519,27.955763 73.981709,42.661507 70,43.936958 l -2.5,0.800819 3,1.324473 c 1.65,0.72846 3.74803,1.946485 4.66229,2.706722 0.914259,0.760237 2.331362,1.480448 3.149118,1.600469 0.817755,0.120022 2.2181,0.825122 3.111876,1.56689 0.893776,0.741769 1.94495,1.028768 2.335941,0.637777 0.732218,-0.732217 -2.042976,-3.272551 -7.203078,-6.593494 -2.150351,-1.383924 -2.554669,-2.043929 -1.5,-2.448586 C 80.185056,41.564162 142.72527,23 144.22584,23 c 3.2017,0 9.1273,3.629941 13.02416,7.978418 2.0625,2.301528 3.75,4.624475 3.75,5.162106 0,0.53763 0.45,0.699395 1,0.359476 0.57494,-0.35533 1.00651,0.57598 1.01531,2.190983 0.0286,5.254627 1.12778,5.876651 7.33254,4.149644 l 5.5002,-1.530901 8.57597,3.993117 C 192.67359,49.143979 193,49.422599 193,52.623229 c 0,3.158405 0.13018,3.277774 2.5651,2.35202 4.09016,-1.555075 7.1998,-1.143968 9.42662,1.246233 3.18952,3.423556 2.11213,4.875942 -5.24172,7.066143 -5.84919,1.742067 -6.75,2.324104 -6.75,4.361365 0,2.836028 0.73476,2.87256 8.75,0.435044 L 208,66.183346 v 2.285882 c 0,3.032498 -1.79761,4.375449 -8.72267,6.516476 L 193.5,76.77189 l -0.27728,13.46904 -0.27727,13.46904 -14.22273,4.24747 c -7.82249,2.33611 -23.56711,7.12636 -34.98802,10.64501 C 132.31378,122.1211 122.55928,125 122.05802,125 c -0.50125,0 -1.11717,-0.7875 -1.36869,-1.75 -0.43054,-1.64749 -0.46412,-1.64825 -0.57333,-0.013 -0.10613,1.58918 -0.49897,1.55095 -4.616,-0.44926 -2.85795,-1.3885 -4.5,-2.84336 -4.5,-3.98701 C 111,117.66667 110.25956,117 109,117 c -1.60533,0 -2,0.66667 -2,3.37836 0,3.10306 -0.32453,3.46074 -3.98247,4.38922 l -3.982476,1.01086 z m 12.104363,-5.797694 c 3.34163,-1.164899 5.83233,-4.341552 4.19666,-5.352451 -0.51527,-0.318456 -0.68261,-2.145766 -0.37186,-4.060688 0.60566,-3.732238 -0.56778,-4.54686 -2.75439,-1.912154 -0.71642,0.863237 -2.12152,1.355366 -3.12244,1.093619 C 107.21174,85.242611 107,85.874455 107,91.09362 107,94.342129 107.15785,97 107.35078,97 c 0.19292,0 1.77742,-0.497333 3.52111,-1.105184 z m 23.1128,-19.203833 C 133.97224,74.909749 133.78809,74.780524 133,76 c -1.27319,1.970116 -1.27319,4.286873 0,3.5 0.55,-0.339919 0.99311,-1.603976 0.98469,-2.809017 z M 128,75.440983 C 128,73.790908 126.41956,73.512129 125.5,75 c -0.81551,1.319515 0.38021,3.192069 1.5691,2.457295 C 127.58109,77.140864 128,76.233524 128,75.440983 Z m 46.92971,-11.25 C 174.86696,61.788159 174.7674,61.714166 174,63.5 c -1.19384,2.778225 -1.19384,4.737836 0,4 0.55,-0.339919 0.96837,-1.828976 0.92971,-3.309017 z M 169,63.5 c 0,-0.825 -0.675,-1.5 -1.5,-1.5 -1.56157,0 -1.98397,1.1827 -0.83333,2.333333 C 167.8173,65.483967 169,65.061574 169,63.5 Z M 123.52381,62.619048 C 125.21752,60.925337 124.43117,60 121.29815,60 c -2.05864,0 -2.22848,0.261664 -1.29815,2 1.26816,2.369579 1.6978,2.445057 3.52381,0.619048 z m 53,-16 C 178.21752,44.925337 177.43117,44 174.29815,44 c -2.05864,0 -2.22848,0.261664 -1.29815,2 1.26816,2.369579 1.6978,2.445057 3.52381,0.619048 z M 91.975249,117.4349 C 90.63476,113.90915 90.747407,113 92.524751,113 93.89569,113 96,116.6725 96,119.0651 c 0,2.03877 -3.108512,0.77969 -4.024751,-1.6302 z M 75.345077,92.456872 C 75.019392,91.608151 75.003576,90.663091 75.30993,90.356736 76.185641,89.481025 78,90.966387 78,92.559017 c 0,1.918855 -1.907556,1.845464 -2.654923,-0.102145 z M 91.975249,83.4349 C 90.63476,79.909147 90.747407,79 92.524751,79 93.89569,79 96,82.6725 96,85.0651 c 0,2.038773 -3.108512,0.77969 -4.024751,-1.6302 z m -78,-2 C 12.672159,78.007515 12.745936,77 14.3,77 c 2.003277,0 3.7,2.155296 3.7,4.7 0,3.14986 -2.796415,2.965668 -4.024751,-0.2651 z M 30.603744,72.409758 C 29.870589,70.499186 30.769851,68.739726 32.069098,69.542705 33.258855,70.278015 33.290495,74 32.106989,74 31.615833,74 30.939373,73.284391 30.603744,72.409758 Z M 14.160515,47.452947 C 12.623298,44.079124 12.697042,43 14.464816,43 16.070767,43 18,45.965603 18,48.434259 c 0,2.476692 -2.562298,1.821809 -3.839485,-0.981312 z"
         id="path891" />
      <path
         style="fill:#7798c2"
         d="m 117.67657,121.1839 c -1.03933,-0.20453 -1.6024,-0.93479 -1.30944,-1.69825 0.2827,-0.73668 -0.13426,-1.87742 -0.92657,-2.53498 -1.31755,-1.09347 -1.86478,-0.63739 -1.55898,1.29933 0.22378,1.41728 -1.94462,0.7493 -2.53139,-0.7798 -0.37049,-0.96547 -1.28113,-1.30951 -2.46861,-0.93261 C 107.13469,117.09203 107,116.49104 107,108.14231 v -8.992461 l 4.15912,-2.324925 c 5.4729,-3.059324 6.63144,-4.979223 4.92675,-8.16447 -0.72697,-1.358362 -1.01517,-2.965835 -0.64044,-3.572164 0.37474,-0.606329 -0.0676,-1.38981 -0.98297,-1.74107 -0.91537,-0.35126 -2.01271,-0.07493 -2.43854,0.614075 -0.46859,0.758193 -1.61305,0.986498 -2.89907,0.57833 C 107.38398,83.987097 107,83.072843 107,79.480443 v -4.384781 l -4.25,1.268162 -4.25,1.268162 -43.875804,-20.23816 -43.875804,-20.238159 4.047083,-1.212536 c 3.879263,-1.162255 4.516849,-1.003112 15.375804,3.837855 8.571443,3.821185 11.407414,4.705829 11.652045,3.634703 C 42.001152,42.63706 43.013652,42 44.073324,42 45.525184,42 46,41.297154 46,39.148038 c 0,-2.565175 -0.725618,-3.18642 -7.215961,-6.178013 -3.968778,-1.829328 -6.781278,-3.461689 -6.25,-3.627469 C 42.661775,26.182302 97.472437,9.5233762 100.0308,8.8278707 c 3.0799,-0.8372904 4.45632,-0.5163245 10.77825,2.5133803 7.11734,3.410892 7.19757,3.49145 4.4692,4.487051 -1.52804,0.557592 -2.21575,1.04933 -1.52825,1.092751 0.6875,0.04342 1.25,0.693261 1.25,1.444088 0,0.750828 0.90627,2.517273 2.01393,3.925434 l 2.01392,2.560293 6.31043,-1.80462 c 5.10268,-1.459235 6.74021,-1.574606 8.55604,-0.602808 2.07882,1.112554 1.73908,1.354125 -4.57436,3.252602 C 125.56898,26.823977 111.475,31.150532 98,35.31061 84.525,39.470687 71.475,43.402393 69,44.047733 l -4.5,1.173346 10.855086,5.451041 c 5.970297,2.998073 11.067779,5.238348 11.327738,4.978389 0.886578,-0.886578 -6.695257,-8.413018 -9.749256,-9.678026 -1.674661,-0.693667 -2.682302,-1.598819 -2.239203,-2.011448 1.091839,-1.016759 67.340035,-20.975915 69.595475,-20.967618 3.1404,0.01155 9.0932,3.669889 12.91964,7.939868 2.04022,2.276704 3.84022,4.460593 4,4.853088 0.15979,0.392495 0.64938,0.594006 1.08799,0.447804 0.43861,-0.146203 0.6828,0.303797 0.54264,1 C 162.37098,39.564536 164.02302,44 165.36012,44 c 0.72711,0 3.3714,-0.616774 5.8762,-1.370608 4.47994,-1.348262 4.6904,-1.305641 12.90893,2.614171 4.59511,2.191629 7.90475,4.149015 7.35475,4.349748 -0.55,0.200733 -16.525,5.122211 -35.5,10.936619 l -34.5,10.571649 -4.5,-2.139041 -4.5,-2.13904 4.28426,3.695503 4.28427,3.695503 -0.22953,19.142748 c -0.29275,24.414658 -0.7348,28.304368 -3.16243,27.826648 z m 5.84724,-58.564852 C 125.21752,60.925337 124.43117,60 121.29815,60 c -2.05864,0 -2.22848,0.261664 -1.29815,2 1.26816,2.369579 1.6978,2.445057 3.52381,0.619048 z m 53,-16 C 178.21168,44.931175 177.43288,44 174.33333,44 c -2.5749,0 -2.96631,0.967019 -1.13333,2.8 1.50707,1.507072 1.6432,1.499661 3.32381,-0.180952 z M 91.975249,117.4349 C 90.63476,113.90915 90.747407,113 92.524751,113 c 1.647608,0 3.850319,4.58411 2.923386,6.08392 -1.022017,1.65365 -2.480513,0.96112 -3.472888,-1.64902 z M 75.345077,92.456872 C 74.535263,90.346531 75.886926,89.207173 77.03906,91.02896 78.263268,92.964712 78.23872,94 76.968615,94 76.401354,94 75.670761,93.305592 75.345077,92.456872 Z M 92.006153,83.516183 C 90.632928,79.904328 90.738101,79 92.531385,79 c 1.549836,0 2.131588,0.95748 2.671107,4.396256 0.466179,2.971333 -2.075973,3.066714 -3.196339,0.119927 z M 13.938089,81.337161 C 12.569735,77.738119 14.488542,75.624603 16.567321,78.44113 17.355294,79.508751 18,81.196251 18,82.19113 c 0,2.765285 -2.919213,2.151555 -4.061911,-0.853969 z M 125.17965,80.716462 c -0.67529,-0.813677 -0.72572,-1.820364 -0.13776,-2.75 0.51012,-0.806554 0.94869,-1.016462 0.9746,-0.466462 0.0259,0.55 0.70018,0.13692 1.49837,-0.917955 1.06953,-1.413483 1.16306,-2.265205 0.35557,-3.238167 -1.33071,-1.603413 1.2083,-2.911378 3.75472,-1.934228 1.29783,0.498023 1.49187,1.457054 0.96346,4.761606 -0.36393,2.275889 -0.89681,4.518401 -1.18417,4.983362 -0.8032,1.299603 -5.02947,1.002121 -6.22479,-0.438156 z M 193.01531,75.25 c 0.04,-1.956445 1.99525,-3.189431 7.98469,-5.035027 9.91276,-3.054537 9.50805,0.875237 -0.42814,4.157229 -5.38627,1.779122 -7.58015,2.033972 -7.55655,0.877798 z M 30.603744,72.409758 C 29.870589,70.499186 30.769851,68.739726 32.069098,69.542705 33.258855,70.278015 33.290495,74 32.106989,74 31.615833,74 30.939373,73.284391 30.603744,72.409758 Z M 167.25,69.337719 C 166.5625,69.060307 166,67.759956 166,66.448051 c 0,-1.609622 0.44582,-2.214206 1.37096,-1.859196 1.66299,0.638151 3.14159,-2.654045 1.61558,-3.597177 -1.67954,-1.038008 1.44685,-3.146337 3.49829,-2.359126 1.37666,0.528274 1.62979,1.476261 1.21664,4.556471 -0.76858,5.730189 -2.76743,7.635237 -6.45147,6.148696 z M 193,60.475249 c 0,-3.93689 0.33326,-4.651456 2.5651,-5.5 C 196.9759,54.438862 199.20837,54 200.52614,54 c 2.70066,0 6.68177,3.715147 6.25453,5.836681 -0.22873,1.135813 -10.24638,5.093917 -13.03067,5.148591 -0.4125,0.0081 -0.75,-2.02141 -0.75,-4.510023 z M 14.097825,46.850777 C 12.717639,42.891572 12.705618,43 14.524751,43 15.89569,43 18,46.6725 18,49.0651 c 0,2.283492 -2.909845,0.632275 -3.902175,-2.214323 z"
         id="path889" />
      <path
         style="fill:#6d90bc"
         d="m 117.67657,121.1839 c -1.03933,-0.20453 -1.6024,-0.93479 -1.30944,-1.69825 0.2827,-0.73668 -0.13426,-1.87742 -0.92657,-2.53498 -1.31755,-1.09347 -1.86478,-0.63739 -1.55898,1.29933 0.22378,1.41728 -1.94462,0.7493 -2.53139,-0.7798 -0.37049,-0.96547 -1.28113,-1.30951 -2.46861,-0.93261 C 107.13469,117.09203 107,116.49104 107,108.14231 v -8.992461 l 4.15912,-2.324925 c 5.4729,-3.059324 6.63144,-4.979223 4.92675,-8.16447 -0.72697,-1.358362 -1.01517,-2.965835 -0.64044,-3.572164 0.37474,-0.606329 -0.0676,-1.38981 -0.98297,-1.74107 -0.91537,-0.35126 -2.01271,-0.07493 -2.43854,0.614075 -0.46859,0.758193 -1.61305,0.986498 -2.89907,0.57833 C 107.36947,83.98249 107,83.075875 107,79.325624 107,75.410948 106.75909,74.879222 105.25,75.463042 99.54,77.67206 98.515436,77.315796 61.379906,60.208416 41.095958,50.864124 21.575,41.877341 18,40.237788 l -6.5,-2.981006 3,-1.225145 c 3.330351,-1.360054 4.138013,-1.135286 19.25,5.357181 6.305358,2.70893 8.25,3.198695 8.25,2.077788 C 42,42.659973 42.9,42 44,42 c 1.561666,0 2,-0.666667 2,-3.041824 0,-2.784616 -0.57076,-3.302138 -6.75,-6.120383 -3.7125,-1.693208 -6.3,-3.243442 -5.75,-3.444964 1.364984,-0.500135 16.33728,-5.080397 45.413057,-13.892572 l 24.413053,-7.3990159 7.08695,3.3250879 c 6.77141,3.177044 6.97563,3.372322 4.58694,4.385993 -1.375,0.583498 -1.9375,1.089429 -1.25,1.124292 0.6875,0.03486 1.25,0.713292 1.25,1.507622 0,0.79433 1.02507,2.635951 2.27793,4.092492 l 2.27794,2.648255 5.83314,-1.695741 c 3.86579,-1.123814 6.50667,-1.395209 7.8301,-0.804674 1.53927,0.686839 -4.61719,2.916774 -26.86107,9.729376 -15.871924,4.86107 -31.782263,9.734141 -35.356314,10.829047 l -6.498274,1.990737 10.85336,5.444717 c 5.969348,2.994594 11.111385,5.186691 11.42675,4.871326 0.315365,-0.315365 -1.739226,-2.802456 -4.565757,-5.52687 C 79.391274,47.298487 77.39846,44.881523 77.789329,44.651871 78.180198,44.422218 88.4,41.221453 100.5,37.539058 c 12.1,-3.682394 27.48726,-8.403064 34.19391,-10.490377 l 12.19391,-3.795115 3.30609,1.967001 c 4.19155,2.493817 10.49449,9.214239 10.00869,10.671629 C 159.9995,36.501488 160.44768,37 161.19856,37 c 0.75087,0 1.45762,1.116418 1.57055,2.480929 0.1532,1.850992 -0.55316,2.873159 -2.78189,4.02568 -4.12105,2.131078 -3.73792,2.796017 1.13652,1.972485 2.97818,-0.50316 4.39336,-0.319231 5.09433,0.662103 0.76924,1.076906 0.86692,1.029937 0.47089,-0.226399 -0.37951,-1.203876 0.6951,-1.891422 4.46722,-2.858189 4.76154,-1.220344 5.27456,-1.138865 12.40538,1.970232 4.09114,1.783771 7.43844,3.532778 7.43844,3.886681 0,0.512455 -27.16617,9.069682 -65.59984,20.663665 -3.59919,1.085741 -4.63714,0.996358 -8.5,-0.731971 L 112.5,66.876479 l 4.28426,3.669013 4.28427,3.669012 -0.22953,19.142748 c -0.29275,24.414658 -0.7348,28.304368 -3.16243,27.826648 z m 7.16089,-58.703287 c 1.5337,0.578838 1.53684,0.500344 0.0405,-1.012895 -0.89212,-0.902197 -2.59292,-1.489014 -3.77955,-1.304038 -2.10075,0.327471 -2.1111,0.4021 -0.39351,2.83632 1.55054,2.197465 1.80673,2.27934 2.11702,0.676575 0.23833,-1.231128 0.89304,-1.619609 2.01553,-1.195962 z M 177.13234,46 c 0.54213,0 0.70758,-0.45 0.36766,-1 -0.33992,-0.55 -2.01992,-1 -3.73333,-1 h -3.1153 l 2.42432,2.587533 c 1.93965,2.070244 2.48895,2.27016 2.74763,1 C 176.00115,46.71439 176.59021,46 177.13234,46 Z M 91.975249,117.4349 C 90.63476,113.90915 90.747407,113 92.524751,113 c 1.647608,0 3.850319,4.58411 2.923386,6.08392 -1.022017,1.65365 -2.480513,0.96112 -3.472888,-1.64902 z M 75.345077,92.456872 C 74.535263,90.346531 75.886926,89.207173 77.03906,91.02896 78.263268,92.964712 78.23872,94 76.968615,94 76.401354,94 75.670761,93.305592 75.345077,92.456872 Z M 92.006153,83.516183 C 90.632928,79.904328 90.738101,79 92.531385,79 c 1.549836,0 2.131588,0.95748 2.671107,4.396256 0.466179,2.971333 -2.075973,3.066714 -3.196339,0.119927 z M 13.938089,81.337161 C 12.569735,77.738119 14.488542,75.624603 16.567321,78.44113 17.355294,79.508751 18,81.196251 18,82.19113 c 0,2.765285 -2.919213,2.151555 -4.061911,-0.853969 z M 125.23356,80.833564 c -0.88858,-0.888581 -0.55708,-1.73116 1.39161,-3.537153 2.06664,-1.915295 2.32671,-2.649461 1.35382,-3.821731 -0.96076,-1.157642 -0.87819,-1.57613 0.40839,-2.069836 4.15776,-1.595484 5.6009,1.461734 3.51479,7.445933 -1.16163,3.33226 -4.36629,4.285106 -6.66861,1.982787 z M 193.01531,75.25 c 0.04,-1.956445 1.99525,-3.189431 7.98469,-5.035027 9.91276,-3.054537 9.50805,0.875237 -0.42814,4.157229 -5.38627,1.779122 -7.58015,2.033972 -7.55655,0.877798 z M 30.603744,72.409758 C 29.870589,70.499186 30.769851,68.739726 32.069098,69.542705 33.258855,70.278015 33.290495,74 32.106989,74 31.615833,74 30.939373,73.284391 30.603744,72.409758 Z M 167.25,69.337719 C 165.78618,68.747055 165.55146,66 166.96482,66 c 1.67085,0 3.41688,-4.146061 2.09109,-4.965445 -1.7483,-1.080511 1.30282,-3.217864 3.42892,-2.402003 1.37666,0.528274 1.62979,1.476261 1.21664,4.556471 -0.76858,5.730189 -2.76743,7.635237 -6.45147,6.148696 z M 193,59.547004 c 0,-3.13832 0.34174,-3.547903 3.75,-4.494423 2.0625,-0.572785 4.23406,-1.043937 4.82569,-1.047004 1.20783,-0.0063 5.9999,4.786444 5.34492,5.345626 C 205.99083,60.144989 196.52413,63 194.82186,63 193.41112,63 193,62.22079 193,59.547004 Z M 14.097825,46.850777 C 12.717639,42.891572 12.705618,43 14.524751,43 15.89569,43 18,46.6725 18,49.0651 c 0,2.283492 -2.909845,0.632275 -3.902175,-2.214323 z"
         id="path887" />
      <path
         style="fill:#688bb9"
         d="m 117.67657,121.1839 c -1.03933,-0.20453 -1.6024,-0.93479 -1.30944,-1.69825 0.2827,-0.73668 -0.13426,-1.87742 -0.92657,-2.53498 -1.31755,-1.09347 -1.86478,-0.63739 -1.55898,1.29933 0.22378,1.41728 -1.94462,0.7493 -2.53139,-0.7798 -0.37049,-0.96547 -1.28113,-1.30951 -2.46861,-0.93261 C 107.13469,117.09203 107,116.49104 107,108.14231 v -8.992461 l 4.15912,-2.324925 c 5.4729,-3.059324 6.63144,-4.979223 4.92675,-8.16447 -0.72697,-1.358362 -1.01517,-2.965835 -0.64044,-3.572164 0.37474,-0.606329 -0.0676,-1.38981 -0.98297,-1.74107 -0.91537,-0.35126 -2.01271,-0.07493 -2.43854,0.614075 -0.46859,0.758193 -1.61305,0.986498 -2.89907,0.57833 C 107.39299,83.989954 107,83.071064 107,79.57126 v -4.293965 l -7.477182,-3.138648 c -8.257905,-3.466366 -8.953093,-3.643864 -7.956606,-2.031513 0.940553,1.521846 -3.538498,0.06344 -5.341001,-1.739066 C 85.472774,67.615631 84.439286,67 83.928571,67 83.417857,67 83,66.386454 83,65.636564 83,64.886674 80.1875,63.020724 76.75,61.490009 56.210216,52.343666 42,45.016571 42,43.572156 42,42.666667 42.848092,42 44,42 c 1.459054,0 2,-0.666667 2,-2.464816 0,-1.355649 0.7875,-2.885162 1.75,-3.398918 3.022314,-1.613226 58.53796,-18.193562 63,-18.815619 3.43616,-0.479037 4.25,-0.293921 4.25,0.966704 0,0.857559 1.11039,2.878816 2.46752,4.491682 l 2.46753,2.932484 5.66417,-1.912212 c 3.11529,-1.051716 6.3924,-1.616736 7.28247,-1.255599 2.18339,0.885887 1.47367,1.142444 -27.88169,10.079076 -13.475,4.102185 -28.073377,8.63078 -32.440839,10.063545 l -7.940838,2.605028 10.795924,5.415903 c 5.937759,2.978747 11.019201,5.192627 11.292095,4.919733 0.272894,-0.272894 -1.570109,-2.705191 -4.095563,-5.405105 L 78.019046,45.312952 113.17016,34.646717 c 33.97262,-10.308634 35.23792,-10.611506 37.74047,-9.033835 3.7363,2.355451 9.72493,8.980427 9.29197,10.279314 C 159.9995,36.501488 160.56167,37 161.45185,37 c 3.29319,0 -0.26376,3.561962 -6.37376,6.382745 -6.02217,2.780236 -7.24295,4.021882 -4.82809,4.910628 0.6875,0.253023 0.0125,0.789306 -1.5,1.191742 -1.5125,0.402436 -2.75,1.181062 -2.75,1.730282 0,0.549219 -0.69837,0.73059 -1.55194,0.403046 -0.88992,-0.341496 -1.29132,-0.173849 -0.94098,0.393011 0.33602,0.5437 0.4719,1.005542 0.30194,1.026314 -5.84042,0.71382 -8.68833,1.3771 -10.30902,2.40098 -1.1,0.694932 -2.7875,1.145322 -3.75,1.000866 -0.96418,-0.144708 -1.75,0.37118 -1.75,1.14887 0,1.58002 -1.57836,1.902761 -2.44531,0.500012 -0.4462,-0.721975 -5.19271,0.287722 -7.40524,1.575274 -0.1928,0.1122 0.62388,1.246251 1.81486,2.520114 1.87743,2.008102 1.94678,2.36114 0.52145,2.654672 -0.90417,0.186207 -2.75892,0.05872 -4.12167,-0.283311 -1.90895,-0.479117 -2.33443,-1.073326 -1.85352,-2.588557 C 114.85388,60.88501 114.69195,60 114.15072,60 c -0.54123,0 -1.13556,0.454517 -1.32073,1.010039 -0.18518,0.555521 -2.35391,1.354405 -4.81941,1.775298 l -4.48273,0.76526 5.22993,2.249855 c 2.87646,1.23742 6.82304,3.64863 8.77018,5.358245 l 3.54027,3.10839 -0.22939,19.116456 c -0.29263,24.387997 -0.73511,28.277987 -3.16227,27.800357 z m -25.701321,-3.749 C 90.63476,113.90915 90.747407,113 92.524751,113 c 1.647608,0 3.850319,4.58411 2.923386,6.08392 -1.022017,1.65365 -2.480513,0.96112 -3.472888,-1.64902 z M 75.345077,92.456872 C 74.535263,90.346531 75.886926,89.207173 77.03906,91.02896 78.263268,92.964712 78.23872,94 76.968615,94 76.401354,94 75.670761,93.305592 75.345077,92.456872 Z M 92.006153,83.516183 C 90.632928,79.904328 90.738101,79 92.531385,79 c 1.549836,0 2.131588,0.95748 2.671107,4.396256 0.466179,2.971333 -2.075973,3.066714 -3.196339,0.119927 z M 13.938089,81.337161 C 12.569735,77.738119 14.488542,75.624603 16.567321,78.44113 17.355294,79.508751 18,81.196251 18,82.19113 c 0,2.765285 -2.919213,2.151555 -4.061911,-0.853969 z M 125.32273,80.922727 c -0.7697,-0.769697 -0.37354,-1.781006 1.38752,-3.542073 1.98253,-1.982529 2.22998,-2.747747 1.26465,-3.910894 -0.95553,-1.151344 -0.87146,-1.572225 0.41248,-2.064916 4.32336,-1.659031 5.89081,2.222738 3.08694,7.644816 -1.55404,3.005185 -4.21059,3.814065 -6.15159,1.873067 z M 193.01531,75.25 c 0.04,-1.956445 1.99525,-3.189431 7.98469,-5.035027 9.91276,-3.054537 9.50805,0.875237 -0.42814,4.157229 -5.38627,1.779122 -7.58015,2.033972 -7.55655,0.877798 z M 30.603744,72.409758 C 29.870589,70.499186 30.769851,68.739726 32.069098,69.542705 33.258855,70.278015 33.290495,74 32.106989,74 31.615833,74 30.939373,73.284391 30.603744,72.409758 Z M 167.25,69.337719 C 165.78618,68.747055 165.55146,66 166.96482,66 c 1.67085,0 3.41688,-4.146061 2.09109,-4.965445 -1.69369,-1.046757 1.26957,-3.230623 3.31734,-2.444819 2.7612,1.05957 1.5323,8.437976 -1.77295,10.644951 -1.22567,0.8184 -1.55252,0.828452 -3.3503,0.103032 z M 123,63 c 0,-0.55 0.45,-1 1,-1 0.55,0 1,0.45 1,1 0,0.55 -0.45,1 -1,1 -0.55,0 -1,-0.45 -1,-1 z m 70.38404,-1.441587 c -1.15572,-3.01175 0.18621,-4.916089 4.47013,-6.343602 4.11645,-1.371708 4.46919,-1.335893 6.46111,0.656022 2.53792,2.53792 1.87836,3.302158 -4.74342,5.496252 -5.94336,1.969305 -5.51068,1.955927 -6.18782,0.191328 z M 14.097825,46.850777 C 12.717639,42.891572 12.705618,43 14.524751,43 15.89569,43 18,46.6725 18,49.0651 c 0,2.283492 -2.909845,0.632275 -3.902175,-2.214323 z M 168,48.020851 c -1.31141,-0.829269 -1.27916,-1.169417 0.25649,-2.705466 1.67547,-1.675894 1.88201,-1.631432 4.47728,0.963836 L 175.45455,49 172.47727,48.984687 C 170.83977,48.976265 168.825,48.542539 168,48.020851 Z M 176,47 c 0,-0.55 0.45,-1 1,-1 0.55,0 1,0.45 1,1 0,0.55 -0.45,1 -1,1 -0.55,0 -1,-0.45 -1,-1 z"
         id="path885" />
      <path
         style="fill:#8a8d91"
         d="m 117.67657,121.1839 c -1.03933,-0.20453 -1.6024,-0.93479 -1.30944,-1.69825 0.2827,-0.73668 -0.13426,-1.87742 -0.92657,-2.53498 -1.31755,-1.09347 -1.86478,-0.63739 -1.55898,1.29933 0.22378,1.41728 -1.94462,0.7493 -2.53139,-0.7798 -0.37049,-0.96547 -1.28113,-1.30951 -2.46861,-0.93261 C 107.13469,117.09203 107,116.49104 107,108.14231 v -8.992461 l 4.15912,-2.324925 c 5.4729,-3.059324 6.63144,-4.979223 4.92675,-8.16447 -0.72697,-1.358362 -1.01517,-2.965835 -0.64044,-3.572164 0.37474,-0.606329 -0.0676,-1.38981 -0.98297,-1.74107 -0.91537,-0.35126 -2.01271,-0.07493 -2.43854,0.614075 -0.46859,0.758193 -1.61305,0.986498 -2.89907,0.57833 C 107.3934,83.990084 107,83.070984 107,79.575317 V 75.28541 L 81.25,63.480683 C 46.799936,47.687534 42,45.242531 42,43.487428 42,42.669343 42.87011,42 43.933578,42 c 1.365557,0 2.026532,-0.807229 2.25,-2.747857 0.310029,-2.692341 0.929422,-2.934837 30.658037,-12.002832 16.687888,-5.090236 31.987885,-9.50004 33.999995,-9.799563 3.49243,-0.519882 3.74197,-0.360029 5.50075,3.52376 1.01329,2.237591 2.50793,4.733929 3.32142,5.547419 1.30543,1.305431 1.26524,1.496955 -0.34235,1.631387 -3.24564,0.271413 -3.80575,0.390726 -4.82143,1.027052 C 113.39736,29.870174 78.299644,40.770021 75.346931,41.338631 74.331119,41.534248 72.15,42.226433 70.5,42.876819 c -1.65,0.650387 -3.675,1.434289 -4.5,1.742005 -0.922622,0.344128 2.678328,2.665925 9.355086,6.031911 5.970297,3.009835 11.117231,5.210281 11.437632,4.88988 0.3204,-0.3204 -1.308337,-2.509215 -3.619417,-4.864034 L 78.971338,46.395093 113.91124,35.697546 C 133.12818,29.813896 149.27678,25 149.79701,25 c 0.52023,0 3.24573,2.228387 6.05666,4.951971 3.51592,3.406679 4.7294,5.187674 3.88863,5.707295 -0.83105,0.513621 -0.51496,0.928989 0.9878,1.298029 1.31617,0.323219 1.91874,0.99038 1.48992,1.649634 -0.72029,1.107338 -29.36236,10.596266 -55.72002,18.45967 -7.7,2.297177 -14.338717,4.374256 -14.752704,4.615731 -0.413988,0.241476 -0.306875,1.272088 0.238029,2.290249 0.932053,1.741557 1.272961,1.760949 5.75576,0.327407 4.706925,-1.505215 4.843805,-1.485634 11.225735,1.605812 3.55338,1.721285 7.72963,4.345326 9.28056,5.831204 l 2.81986,2.701597 -0.22889,19.0307 c -0.29227,24.301041 -0.73616,28.191931 -3.16178,27.714601 z m -25.701321,-3.749 C 90.63476,113.90915 90.747407,113 92.524751,113 c 1.647608,0 3.850319,4.58411 2.923386,6.08392 -1.022017,1.65365 -2.480513,0.96112 -3.472888,-1.64902 z M 75.345077,92.456872 C 74.535263,90.346531 75.886926,89.207173 77.03906,91.02896 78.263268,92.964712 78.23872,94 76.968615,94 76.401354,94 75.670761,93.305592 75.345077,92.456872 Z M 92.006153,83.516183 C 90.632928,79.904328 90.738101,79 92.531385,79 c 1.549836,0 2.131588,0.95748 2.671107,4.396256 0.466179,2.971333 -2.075973,3.066714 -3.196339,0.119927 z M 13.938089,81.337161 C 12.569735,77.738119 14.488542,75.624603 16.567321,78.44113 17.355294,79.508751 18,81.196251 18,82.19113 c 0,2.765285 -2.919213,2.151555 -4.061911,-0.853969 z M 125.32273,80.922727 c -0.7697,-0.769697 -0.37354,-1.781006 1.38752,-3.542073 1.98253,-1.982529 2.22998,-2.747747 1.26465,-3.910894 -0.95553,-1.151344 -0.87146,-1.572225 0.41248,-2.064916 4.32336,-1.659031 5.89081,2.222738 3.08694,7.644816 -1.55404,3.005185 -4.21059,3.814065 -6.15159,1.873067 z M 193.01531,75.25 c 0.04,-1.956445 1.99525,-3.189431 7.98469,-5.035027 9.91276,-3.054537 9.50805,0.875237 -0.42814,4.157229 -5.38627,1.779122 -7.58015,2.033972 -7.55655,0.877798 z M 30.603744,72.409758 C 29.870589,70.499186 30.769851,68.739726 32.069098,69.542705 33.258855,70.278015 33.290495,74 32.106989,74 31.615833,74 30.939373,73.284391 30.603744,72.409758 Z M 166,67.5 c 0,-0.825 0.43417,-1.5 0.96482,-1.5 1.67085,0 3.41688,-4.146061 2.09109,-4.965445 -1.69369,-1.046757 1.26957,-3.230623 3.31734,-2.444819 1.90351,0.730443 2.11223,4.250645 0.46623,7.863211 C 171.9925,68.311872 170.91184,69 168.83948,69 166.98216,69 166,68.481157 166,67.5 Z m -50.25,-3.189326 c -2.17877,-0.56937 -2.26158,-1.900386 -0.16821,-2.703685 2.66126,-1.021224 3.88344,-0.692945 5.18614,1.393011 1.11429,1.78426 1.0054,1.987487 -1.00946,1.883999 -1.24216,-0.0638 -3.04597,-0.321797 -4.00847,-0.573325 z M 123,63 c 0,-0.55 0.45,-1 1,-1 0.55,0 1,0.45 1,1 0,0.55 -0.45,1 -1,1 -0.55,0 -1,-0.45 -1,-1 z m 71.1703,-3.518238 c 0.2639,-2.235874 1.1112,-3.062658 4.24541,-4.142594 3.45809,-1.191534 4.13008,-1.155213 5.75,0.310797 2.66948,2.415847 2.32422,2.989238 -2.53696,4.213298 -2.40418,0.605381 -5.14005,1.39571 -6.07969,1.756286 -1.39887,0.536795 -1.64871,0.149408 -1.37876,-2.137787 z M 14.097825,46.850777 C 12.717639,42.891572 12.705618,43 14.524751,43 15.89569,43 18,46.6725 18,49.0651 c 0,2.283492 -2.909845,0.632275 -3.902175,-2.214323 z m 154.596835,1.44924 c -2.174,-0.563545 -1.71313,-2.667349 0.68625,-3.132593 1.79963,-0.348952 4.61909,1.454771 4.61909,2.955021 0,0.911354 -2.19163,0.984709 -5.30534,0.177572 z M 176,47 c 0,-0.55 0.47656,-1 1.05902,-1 0.58246,0 0.7809,0.45 0.44098,1 -0.33992,0.55 -0.81648,1 -1.05902,1 C 176.19844,48 176,47.55 176,47 Z M 122.5,26 c -0.33992,-0.55 -0.14148,-1 0.44098,-1 0.58246,0 1.05902,0.45 1.05902,1 0,0.55 -0.19844,1 -0.44098,1 -0.24254,0 -0.7191,-0.45 -1.05902,-1 z m 3.5,-1 c -0.90129,-0.58246 -1.02463,-0.975486 -0.30902,-0.984687 0.65504,-0.0084 1.4691,0.434687 1.80902,0.984687 0.7673,1.241525 0.42112,1.241525 -1.5,0 z m 3,-1 c -0.90129,-0.58246 -1.02463,-0.975486 -0.30902,-0.984687 0.65504,-0.0084 1.4691,0.434687 1.80902,0.984687 0.7673,1.241525 0.42112,1.241525 -1.5,0 z"
         id="path883" />
      <path
         style="fill:#5d81b0"
         d="M 91.968095,117.41608 C 90.981439,114.82098 91.390944,113 92.961192,113 c 1.066585,0 3.076444,5.62903 2.290487,6.41499 -1.198769,1.19877 -2.329548,0.5104 -3.283584,-1.99891 z m 18.698575,-1.07637 c -0.45834,-0.46184 -1.35834,-0.83971 -2,-0.83971 -0.75379,0 -1.27031,-2.54881 -1.45951,-7.20216 -0.28743,-7.06889 -0.23876,-7.23014 2.63012,-8.713692 7.51054,-3.883854 11.51264,-9.745169 7.66272,-11.222522 -0.825,-0.316582 -1.5,-1.625901 -1.5,-2.909598 0,-2.984097 -1.4064,-3.839686 -3.82686,-2.328085 C 109.01994,85.093153 107,83.552128 107,79.177316 V 75.291863 L 75.951434,60.993684 C 50.834475,49.427071 45.026491,46.390267 45.549967,45.097753 c 0.355905,-0.878764 0.879327,-3.227964 1.16316,-5.220444 l 0.51606,-3.622691 30.135406,-9.145099 c 16.574474,-5.029805 30.469017,-9.137094 30.876757,-9.127309 0.82688,0.01984 9.02556,6.141846 11.38484,8.501124 1.35556,1.355555 1.32318,1.532846 -0.30476,1.66898 -3.24564,0.271413 -3.80575,0.390726 -4.82143,1.027052 C 113.39736,29.870174 78.299644,40.770021 75.346931,41.338631 74.331119,41.534248 72.15,42.256955 70.5,42.944646 c -1.65,0.687691 -4.006082,1.318974 -5.235738,1.40285 -4.623373,0.315369 -1.478354,3.211727 9.235738,8.505515 6.05,2.98928 11.814136,5.850327 12.809191,6.357883 3.344974,1.706199 1.467432,-2.41745 -3.499905,-7.686847 -2.579892,-2.736774 -4.604892,-5.049581 -4.5,-5.13957 C 79.777709,45.982608 148.92714,25 149.78311,25 c 0.52788,0 3.25963,2.228387 6.07056,4.951971 3.51592,3.406679 4.7294,5.187674 3.88863,5.707295 -0.83105,0.513621 -0.51496,0.928989 0.9878,1.298029 1.31617,0.323219 1.91874,0.99038 1.48992,1.649634 -0.96104,1.477467 -67.11646,22.676974 -70.883869,22.714738 -0.794422,0.008 -0.695544,0.726389 0.311507,2.263344 1.444573,2.204696 1.572064,2.218726 6.110213,0.672424 3.456509,-1.17775 4.735829,-1.276344 5.032009,-0.387804 0.21843,0.655298 2.59002,2.302666 5.27021,3.660818 2.68018,1.358152 6.46559,4.0619 8.41202,6.00833 l 3.53897,3.538964 0.40522,11.711128 c 0.22288,6.441121 0.1637,14.028809 -0.13151,16.861519 -0.49899,4.78814 -0.80691,5.28049 -4.37793,7 -2.11265,1.01729 -3.96846,2.45248 -4.12402,3.18932 -0.15556,0.73684 -0.65784,0.96184 -1.11617,0.5 z M 75.345077,92.456872 C 74.535263,90.346531 75.886926,89.207173 77.03906,91.02896 78.263268,92.964712 78.23872,94 76.968615,94 76.401354,94 75.670761,93.305592 75.345077,92.456872 Z M 92.15755,83.022105 C 91.463076,81.029933 91.452717,79.83824 92.126256,79.421969 93.440213,78.6099 93.635171,78.887605 94.46264,82.75 c 0.883085,4.121996 -0.890045,4.331306 -2.30509,0.272105 z m -78,-2 C 13.422455,78.913409 13.438181,77.847223 14.211429,77.36933 15.535913,76.550754 18,79.686853 18,82.19113 c 0,2.905736 -2.709327,2.081452 -3.84245,-1.169025 z m 111.2967,-0.09613 c -0.36508,-0.590715 0.31462,-2.115492 1.51045,-3.388394 1.19583,-1.272902 2.03047,-3.152089 1.85477,-4.175972 -0.40243,-2.345058 2.08413,-2.461542 3.53245,-0.165479 C 133.86202,75.590137 130.74825,82 128.0752,82 c -1.07644,0 -2.25587,-0.483312 -2.62095,-1.074028 z M 30.606309,71.41644 C 30.232583,70.442526 30.45607,69.985357 31.18682,70.22894 32.681657,70.727219 33.504714,73 32.190322,73 31.653333,73 30.940527,72.287398 30.606309,71.41644 Z M 166.45061,67.920083 c -0.36709,-0.593955 0.32332,-1.773864 1.53423,-2.62202 1.55444,-1.08877 2.06507,-2.256651 1.73701,-3.972782 -0.38527,-2.015407 -0.10397,-2.378964 1.64653,-2.12798 2.59176,0.371603 3.20398,3.006694 1.59886,6.881797 -1.245,3.005698 -5.1202,4.100462 -6.51663,1.840985 z M 115.75,64.310674 c -2.38437,-0.623099 -2.20251,-2.032277 0.36753,-2.847977 1.46373,-0.464569 2.76737,-0.02224 4.22222,1.432612 L 122.44444,65 119.97222,64.883999 c -1.35972,-0.0638 -3.25972,-0.321797 -4.22222,-0.573325 z m 78.4203,-4.828912 c 0.2639,-2.235874 1.1112,-3.062658 4.24541,-4.142594 3.45809,-1.191534 4.13008,-1.155213 5.75,0.310797 2.66948,2.415847 2.32422,2.989238 -2.53696,4.213298 -2.40418,0.605381 -5.14005,1.39571 -6.07969,1.756286 -1.39887,0.536795 -1.64871,0.149408 -1.37876,-2.137787 z M 14.307734,47.004323 c -0.661895,-1.753559 -0.752799,-3.229258 -0.219238,-3.559017 1.39471,-0.861978 3.113862,0.584974 2.523352,2.12382 -0.288475,0.751753 -0.09415,1.632793 0.431826,1.957866 C 18.429223,48.383309 18.217128,50 16.719238,50 c -0.70442,0 -1.789596,-1.348054 -2.411504,-2.995677 z m 154.386926,1.295694 c -2.27729,-0.590318 -1.67033,-2.707231 0.88367,-3.081999 1.07946,-0.158399 2.47322,0.608568 3.18014,1.75 1.08653,1.754356 1.01822,2.016133 -0.5,1.915981 -0.96716,-0.0638 -2.57087,-0.326593 -3.56381,-0.583982 z M 122.5,26 c -0.33992,-0.55 -0.14148,-1 0.44098,-1 0.58246,0 1.05902,0.45 1.05902,1 0,0.55 -0.19844,1 -0.44098,1 -0.24254,0 -0.7191,-0.45 -1.05902,-1 z m 3.5,-1 c -0.90129,-0.58246 -1.02463,-0.975486 -0.30902,-0.984687 0.65504,-0.0084 1.4691,0.434687 1.80902,0.984687 0.7673,1.241525 0.42112,1.241525 -1.5,0 z m 3,-1 c -0.90129,-0.58246 -1.02463,-0.975486 -0.30902,-0.984687 0.65504,-0.0084 1.4691,0.434687 1.80902,0.984687 0.7673,1.241525 0.42112,1.241525 -1.5,0 z"
         id="path881" />
      <path
         style="fill:#82827e"
         d="M 91.968095,117.41608 C 90.981439,114.82098 91.390944,113 92.961192,113 c 1.066585,0 3.076444,5.62903 2.290487,6.41499 -1.198769,1.19877 -2.329548,0.5104 -3.283584,-1.99891 z m 18.698575,-1.07637 c -0.45834,-0.46184 -1.35834,-0.83971 -2,-0.83971 -0.75379,0 -1.27031,-2.54881 -1.45951,-7.20216 -0.28743,-7.06889 -0.23876,-7.23014 2.63012,-8.713692 7.51054,-3.883854 11.51264,-9.745169 7.66272,-11.222522 -0.825,-0.316582 -1.5,-1.625901 -1.5,-2.909598 0,-2.984097 -1.4064,-3.839686 -3.82686,-2.328085 C 109.01986,85.093202 107,83.552132 107,79.177047 V 75.291324 L 89.75,67.272788 C 80.2625,62.862593 66.307723,56.384545 58.739384,52.877126 48.257609,48.019524 45.123914,46.142584 45.587917,45 c 0.335032,-0.825 0.837242,-3.09938 1.11602,-5.054178 l 0.506871,-3.554178 19.144596,-5.821867 C 76.884932,27.367751 90.769391,23.21878 97.209757,21.349842 l 11.709753,-3.398069 4.79025,3.63839 c 2.63463,2.001114 4.92536,3.992321 5.0905,4.424904 0.16515,0.432583 -3.88485,2.163968 -9,3.847523 C 100.10665,33.053062 64.149458,44 63.363391,44 c -0.248086,0 -0.318838,0.76904 -0.157228,1.708979 0.181815,1.057447 4.48748,3.78104 11.293837,7.144032 6.05,2.98928 11.759601,5.821141 12.688002,6.293025 2.958648,1.50381 1.700841,-3.016006 -1.94786,-6.99946 C 81.93241,48.535375 81.929615,48.523623 84.211698,47.822014 85.470264,47.435078 99.325,43.242077 115,38.504233 c 15.675,-4.737843 30.51185,-9.27104 32.97077,-10.073772 l 4.47077,-1.459512 3.95285,3.952857 c 3.18689,3.186882 3.72374,4.228925 2.77049,5.377525 -0.98564,1.187624 -0.72335,1.344229 1.57638,0.941218 2.48548,-0.435564 2.61016,-0.327125 1.25874,1.094765 -0.825,0.868019 -17.30549,6.425061 -36.62331,12.348983 l -35.123316,10.770767 1.570653,2.521468 c 0.863859,1.386807 1.693946,2.696064 1.844636,2.909458 0.150691,0.213395 2.247187,-0.164473 4.65888,-0.839705 4.046197,-1.132864 4.779637,-1.027665 9.495247,1.361918 2.8107,1.424287 6.70289,4.182146 8.64932,6.128576 l 3.53897,3.538964 0.40522,11.711128 c 0.22288,6.441121 0.1637,14.028809 -0.13151,16.861519 -0.49899,4.78814 -0.80691,5.28049 -4.37793,7 -2.11265,1.01729 -3.96846,2.45248 -4.12402,3.18932 -0.15556,0.73684 -0.65784,0.96184 -1.11617,0.5 z M 75.345077,92.456872 C 74.535263,90.346531 75.886926,89.207173 77.03906,91.02896 78.263268,92.964712 78.23872,94 76.968615,94 76.401354,94 75.670761,93.305592 75.345077,92.456872 Z M 92.15755,83.022105 C 91.463076,81.029933 91.452717,79.83824 92.126256,79.421969 93.440213,78.6099 93.635171,78.887605 94.46264,82.75 c 0.883085,4.121996 -0.890045,4.331306 -2.30509,0.272105 z m -78,-2 C 13.422455,78.913409 13.438181,77.847223 14.211429,77.36933 15.535913,76.550754 18,79.686853 18,82.19113 c 0,2.905736 -2.709327,2.081452 -3.84245,-1.169025 z m 111.2967,-0.09613 c -0.36508,-0.590715 0.31462,-2.115492 1.51045,-3.388394 1.19583,-1.272902 2.03047,-3.152089 1.85477,-4.175972 -0.40243,-2.345058 2.08413,-2.461542 3.53245,-0.165479 C 133.86202,75.590137 130.74825,82 128.0752,82 c -1.07644,0 -2.25587,-0.483312 -2.62095,-1.074028 z M 30.606309,71.41644 C 30.232583,70.442526 30.45607,69.985357 31.18682,70.22894 32.681657,70.727219 33.504714,73 32.190322,73 31.653333,73 30.940527,72.287398 30.606309,71.41644 Z M 166.45061,67.920083 c -0.36709,-0.593955 0.32332,-1.773864 1.53423,-2.62202 1.55444,-1.08877 2.06507,-2.256651 1.73701,-3.972782 -0.3858,-2.018174 -0.10464,-2.379309 1.65675,-2.12798 2.71999,0.388111 3.3126,4.098848 1.17547,7.360515 -1.654,2.524324 -4.93296,3.256174 -6.10346,1.362267 z M 116,63.833248 l -2.5,-1.03998 2.29799,-1.070863 c 1.89783,-0.884386 2.67661,-0.692248 4.47223,1.103366 2.0912,2.091202 2.09891,2.171808 0.202,2.110843 C 119.3875,64.901751 117.375,64.405237 116,63.833248 Z m 78.19905,-4.599935 c 0.33431,-1.704407 7.50893,-4.559351 9.51924,-3.787922 2.50006,0.959366 1.20792,2.07523 -4.27112,3.688428 -4.9328,1.45237 -5.51565,1.46342 -5.24812,0.09949 z M 14.307734,47.004323 c -0.661895,-1.753559 -0.752799,-3.229258 -0.219238,-3.559017 1.39471,-0.861978 3.113862,0.584974 2.523352,2.12382 -0.288475,0.751753 -0.09415,1.632793 0.431826,1.957866 C 18.429223,48.383309 18.217128,50 16.719238,50 c -0.70442,0 -1.789596,-1.348054 -2.411504,-2.995677 z m 154.884636,1.282392 c -2.68996,-0.513973 -2.42044,-2.656892 0.38596,-3.068697 1.07946,-0.158399 2.47322,0.608568 3.18014,1.75 1.35586,2.189213 1.23118,2.235317 -3.5661,1.318697 z"
         id="path879" />
      <path
         style="fill:#577baa"
         d="m 92.468615,118.5 c -0.257738,-0.825 -0.673962,-2.16059 -0.924941,-2.96797 -0.617614,-1.98683 1.460475,-3.13474 2.552817,-1.41015 C 95.30665,116.03249 95.220339,120 93.968615,120 c -0.567261,0 -1.242261,-0.675 -1.5,-1.5 z M 110.5,116 c -0.33992,-0.55 -0.14148,-1 0.44098,-1 0.58246,0 1.05902,0.45 1.05902,1 0,0.55 -0.19844,1 -0.44098,1 -0.24254,0 -0.7191,-0.45 -1.05902,-1 z m -3.5,-7.90498 v -5.90498 l 4.42686,-2.594311 c 2.43478,-1.426874 5.35978,-3.78032 6.5,-5.229881 L 120,91.730283 v 6.103068 c 0,5.948179 -0.12373,6.230769 -4.87544,11.134859 C 108.49228,115.81319 107,115.6528 107,108.09502 Z M 75.650663,92.532025 C 75.34084,91.724639 75.517695,90.798081 76.043674,90.473008 76.569653,90.147935 77,90.808524 77,91.940983 c 0,2.414565 -0.556111,2.658155 -1.349337,0.591042 z m 42.022017,-3.852369 c -1.00502,-1.008862 -1.59427,-2.441599 -1.30944,-3.183862 0.85928,-2.239248 -1.87591,-3.817085 -4.15241,-2.395384 C 109.02186,85.091953 107,83.569645 107,79.177047 V 75.291324 L 89.75,67.272788 C 80.2625,62.862593 66.417249,56.434984 58.982775,52.989211 l -13.517225,-6.26504 0.950738,-5.18989 0.950738,-5.189889 19.066487,-5.798241 C 76.920081,27.357119 90.769391,23.21878 97.209757,21.349842 l 11.709753,-3.398069 4.79025,3.63839 c 2.63463,2.001114 4.92536,3.992321 5.0905,4.424904 0.16515,0.432583 -3.88485,2.163968 -9,3.847523 C 99.845758,33.13893 64.140271,44 63.323894,44 c -0.269808,0 -0.301064,0.5625 -0.06946,1.25 0.231607,0.6875 -0.250233,1.744665 -1.070756,2.349256 -1.197893,0.882652 0.656755,2.127806 9.412229,6.319082 5.997249,2.870904 13.026839,6.137808 15.62131,7.259787 2.655456,1.148351 4.994085,2.912279 5.350671,4.035784 0.657561,2.07179 0.344563,2.06962 9.182112,0.06365 1.73338,-0.393448 2.25,-0.06695 2.25,1.421997 0,1.368577 1.68601,2.738548 5.77626,4.693507 10.01043,4.784547 10.36894,5.237197 10.02416,12.65625 -0.29109,6.263833 -0.35718,6.407661 -2.12774,4.630345 z M 93,85 c 0,-0.55 0.45,-1 1,-1 0.55,0 1,0.45 1,1 0,0.55 -0.45,1 -1,1 -0.55,0 -1,-0.45 -1,-1 z M 14.606989,82.418213 C 13.663255,79.958882 13.891395,77 15.024751,77 15.999574,77 18,81.077904 18,83.0651 c 0,1.565284 -2.744942,1.041953 -3.393011,-0.646887 z M 91.693853,81.36052 C 90.894922,80.561589 91.798039,79 93.059017,79 93.576558,79 94,79.675 94,80.5 c 0,1.54641 -1.179963,1.986704 -2.306147,0.86052 z m 33.760397,-0.434548 c -0.36508,-0.590715 0.31462,-2.115492 1.51045,-3.388394 1.19583,-1.272902 2.03047,-3.152089 1.85477,-4.175972 -0.40243,-2.345058 2.08413,-2.461542 3.53245,-0.165479 C 133.86202,75.590137 130.74825,82 128.0752,82 c -1.07644,0 -2.25587,-0.483312 -2.62095,-1.074028 z M 31,71.5 c 0,-0.825 0.176855,-1.5 0.393011,-1.5 0.216156,0 0.652033,0.675 0.968615,1.5 0.316583,0.825 0.139728,1.5 -0.393011,1.5 C 31.435877,73 31,72.325 31,71.5 Z m 135.45061,-3.579917 c -0.36709,-0.593955 0.32332,-1.773864 1.53423,-2.62202 1.55444,-1.08877 2.06507,-2.256651 1.73701,-3.972782 -0.3858,-2.018174 -0.10464,-2.379309 1.65675,-2.12798 2.71999,0.388111 3.3126,4.098848 1.17547,7.360515 -1.654,2.524324 -4.93296,3.256174 -6.10346,1.362267 z M 117,63 c -0.7624,-1.424553 -0.76049,-2 0.007,-2 0.59235,0 2.04303,0.9 3.22374,2 l 2.14675,2 h -2.15337 C 119.03939,65 117.5887,64.1 117,63 Z M 91,59.940983 C 91,59.358524 90.55,59.160081 90,59.5 c -0.55,0.339919 -1,-0.251962 -1,-1.315291 0,-1.063328 -1.592236,-3.671641 -3.538302,-5.796249 -3.506643,-3.828363 -3.517827,-3.86922 -1.25,-4.566446 C 85.470264,47.435078 99.325,43.242077 115,38.504233 c 15.675,-4.737843 30.51185,-9.27104 32.97077,-10.073772 l 4.47077,-1.459512 3.95285,3.952857 c 3.18689,3.186882 3.72374,4.228925 2.77049,5.377525 -0.98564,1.187624 -0.72335,1.344229 1.57638,0.941218 2.48316,-0.435157 2.6089,-0.326374 1.25874,1.088989 C 160.8875,39.497766 93.946236,61 91.428008,61 91.192604,61 91,60.523442 91,59.940983 Z m 103.19905,-0.70767 c 0.33431,-1.704407 7.50893,-4.559351 9.51924,-3.787922 2.50006,0.959366 1.20792,2.07523 -4.27112,3.688428 -4.9328,1.45237 -5.51565,1.46342 -5.24812,0.09949 z M 15,49 c 0,-0.55 0.701558,-1 1.559017,-1 0.857459,0 1.280902,0.45 0.940983,1 -0.339919,0.55 -1.041476,1 -1.559017,1 C 15.423442,50 15,49.55 15,49 Z m 154.19237,-0.713285 c -2.68996,-0.513973 -2.42044,-2.656892 0.38596,-3.068697 1.07946,-0.158399 2.47322,0.608568 3.18014,1.75 1.35586,2.189213 1.23118,2.235317 -3.5661,1.318697 z M 14,44.416667 C 14,42.65074 16.152759,42.958277 16.770833,44.8125 16.988542,45.465625 16.454167,46 15.583333,46 14.7125,46 14,45.2875 14,44.416667 Z"
         id="path877" />
      <path
         style="fill:#6b788b"
         d="m 92.468615,118.5 c -0.257738,-0.825 -0.673962,-2.16059 -0.924941,-2.96797 -0.617614,-1.98683 1.460475,-3.13474 2.552817,-1.41015 C 95.30665,116.03249 95.220339,120 93.968615,120 c -0.567261,0 -1.242261,-0.675 -1.5,-1.5 z M 110.5,116 c -0.33992,-0.55 -0.14148,-1 0.44098,-1 0.58246,0 1.05902,0.45 1.05902,1 0,0.55 -0.19844,1 -0.44098,1 -0.24254,0 -0.7191,-0.45 -1.05902,-1 z m -3.5,-7.90498 v -5.90498 l 4.42686,-2.594311 c 2.43478,-1.426874 5.35978,-3.78032 6.5,-5.229881 L 120,91.730283 v 6.103068 c 0,5.948179 -0.12373,6.230769 -4.87544,11.134859 C 108.49228,115.81319 107,115.6528 107,108.09502 Z M 75.650663,92.532025 C 75.34084,91.724639 75.517695,90.798081 76.043674,90.473008 76.569653,90.147935 77,90.808524 77,91.940983 c 0,2.414565 -0.556111,2.658155 -1.349337,0.591042 z m 42.022017,-3.852369 c -1.00502,-1.008862 -1.59427,-2.441599 -1.30944,-3.183862 0.85928,-2.239248 -1.87591,-3.817085 -4.15241,-2.395384 -3.1157,1.945784 -5.05476,0.48008 -5.40067,-4.082279 L 106.5,74.927322 81.217284,63.238223 c -18.895581,-8.7361 -24.832351,-11.889961 -23.5,-12.484187 1.380778,-0.615823 1.262701,-0.695508 -0.523703,-0.353427 -1.268531,0.242913 -4.459753,-0.453225 -7.091605,-1.546974 L 45.316791,46.865002 46.478721,41.682501 47.64065,36.5 l 30.598955,-9.297166 30.598955,-9.297165 4.51882,3.297165 c 2.48535,1.813442 4.54668,3.846589 4.58072,4.518107 0.0582,1.147841 -4.84725,2.829472 -41.742977,14.309875 -8.302124,2.583273 -13.157238,4.577832 -12.912229,5.304552 0.215956,0.640548 -0.278689,1.659297 -1.099212,2.263888 -1.197893,0.882652 0.656755,2.127806 9.412229,6.319082 5.997249,2.870904 12.983152,6.119014 15.524229,7.218023 2.679568,1.158906 5.082996,3.014057 5.722114,4.41677 0.903091,1.982068 1.513087,2.267072 3.379861,1.579146 C 102.0594,64.981175 104,64.897542 104,66.797079 c 0,1.2498 1.8425,2.715819 5.77626,4.595982 10.01043,4.784547 10.36894,5.237197 10.02416,12.65625 -0.29109,6.263833 -0.35718,6.407661 -2.12774,4.630345 z M 93,85 c 0,-0.55 0.45,-1 1,-1 0.55,0 1,0.45 1,1 0,0.55 -0.45,1 -1,1 -0.55,0 -1,-0.45 -1,-1 z M 14.606989,82.418213 C 13.663255,79.958882 13.891395,77 15.024751,77 15.999574,77 18,81.077904 18,83.0651 c 0,1.565284 -2.744942,1.041953 -3.393011,-0.646887 z M 91.693853,81.36052 C 90.894922,80.561589 91.798039,79 93.059017,79 93.576558,79 94,79.675 94,80.5 c 0,1.54641 -1.179963,1.986704 -2.306147,0.86052 z m 33.760397,-0.434548 c -0.36508,-0.590715 0.34029,-2.142818 1.5675,-3.449119 1.24784,-1.32827 1.97439,-3.044526 1.64844,-3.893947 -0.84409,-2.199659 1.25727,-3.084013 3.05542,-1.285866 0.99572,0.995723 1.3123,2.415764 0.90254,4.048397 -1.1278,4.493528 -5.50168,7.286247 -7.1739,4.580535 z M 31,71.5 c 0,-0.825 0.176855,-1.5 0.393011,-1.5 0.216156,0 0.652033,0.675 0.968615,1.5 0.316583,0.825 0.139728,1.5 -0.393011,1.5 C 31.435877,73 31,72.325 31,71.5 Z m 135.45061,-3.579917 c -0.36709,-0.593955 0.32332,-1.773864 1.53423,-2.62202 1.55444,-1.08877 2.06507,-2.256651 1.73701,-3.972782 -0.3858,-2.018174 -0.10464,-2.379309 1.65675,-2.12798 2.71999,0.388111 3.3126,4.098848 1.17547,7.360515 -1.654,2.524324 -4.93296,3.256174 -6.10346,1.362267 z M 117,63 c -0.77064,-1.439953 -0.76049,-2 0.0362,-2 C 118.18793,61 121,63.43239 121,64.428571 121,65.873796 117.95623,64.786736 117,63 Z M 91,60.024185 c 0,-0.939315 6.583798,-3.085114 44.5,-14.503492 12.1,-3.643888 23.3496,-7.067393 24.9991,-7.60779 2.59722,-0.850878 2.79823,-0.794129 1.5,0.423496 C 161.1746,39.109719 145.425,44.325502 127,49.927028 108.575,55.528554 92.9375,60.297383 92.25,60.524426 91.5625,60.751468 91,60.52636 91,60.024185 Z m -2,-1.695146 c 0,-1.734437 4.374832,-3.310324 35.15738,-12.664274 19.33656,-5.875837 35.38065,-10.460067 35.65354,-10.187179 C 160.68114,36.347806 154.20855,38.556457 123,48.038632 106.225,53.135424 91.7125,57.981527 90.75,58.807751 89.16672,60.16686 89,60.121254 89,58.329039 Z M 15,49 c 0,-0.55 0.701558,-1 1.559017,-1 0.857459,0 1.280902,0.45 0.940983,1 -0.339919,0.55 -1.041476,1 -1.559017,1 C 15.423442,50 15,49.55 15,49 Z m 152.24499,-2.25 c 0.61576,-1.869718 4.4086,-2.095124 5.09635,-0.302872 C 172.79982,47.641915 172.23347,48 169.88528,48 c -1.99444,0 -2.90931,-0.433126 -2.64029,-1.25 z M 14,44.416667 C 14,42.65074 16.152759,42.958277 16.770833,44.8125 16.988542,45.465625 16.454167,46 15.583333,46 14.7125,46 14,45.2875 14,44.416667 Z"
         id="path875" />
      <path
         style="fill:#6c7076"
         d="m 92.468615,118.5 c -0.257738,-0.825 -0.673962,-2.16059 -0.924941,-2.96797 -0.250979,-0.80739 0.004,-1.75245 0.566531,-2.10014 1.331211,-0.82273 1.523382,-0.55168 2.352435,3.31811 0.706932,3.29977 -1.032852,4.82664 -1.994025,1.75 z m 14.669655,-10.44442 c 0.20745,-5.86141 0.4438,-6.30645 4.43456,-8.350111 1.69006,-0.865478 3.65766,-2.278267 4.37245,-3.139532 C 118.41844,93.585961 120,94.710309 120,99.448478 120,104.23077 116.82202,109 113.63533,109 112.7359,109 112,109.62686 112,110.39301 112,111.70812 109.96818,113 107.89984,113 c -0.51511,0 -0.85782,-2.22499 -0.76157,-4.94442 z M 75.650663,92.532025 C 75.34084,91.724639 75.517695,90.798081 76.043674,90.473008 76.569653,90.147935 77,90.808524 77,91.940983 c 0,2.414565 -0.556111,2.658155 -1.349337,0.591042 z M 93,85 c 0,-0.55 0.45,-1 1,-1 0.55,0 1,0.45 1,1 0,0.55 -0.45,1 -1,1 -0.55,0 -1,-0.45 -1,-1 z m 23.96363,-1.543821 C 116.04706,82.351773 114.7124,82.00752 112.81695,82.38661 108.50666,83.248667 107,82.208722 107,78.371572 c 0,-2.660094 -0.5454,-3.66295 -2.46864,-4.539239 -1.35776,-0.618634 -2.23438,-1.503832 -1.94807,-1.967107 0.28632,-0.463274 -0.0894,-0.608263 -0.83483,-0.322197 -0.74547,0.286066 -7.406345,-2.334635 -14.801934,-5.823781 -7.395589,-3.489146 -17.360432,-8.115855 -22.144094,-10.281575 -6.525211,-2.954176 -8.273574,-4.130124 -7,-4.708198 1.187494,-0.539003 0.977135,-0.63065 -0.700091,-0.305006 -1.318712,0.256035 -4.154008,-0.430504 -6.300658,-1.525643 C 46.94635,46.931982 46.902355,46.844591 47.199342,41.743244 47.495008,36.664574 47.566416,36.559058 51.5,35.388423 53.7,34.733703 65.3583,31.228468 77.407333,27.599011 89.456366,23.969555 99.809946,21 100.41529,21 c 0.60534,0 3.28886,1.16489 5.96338,2.588645 3.68954,1.964095 5.67806,2.435693 8.24204,1.954687 2.03811,-0.38235 3.37929,-0.230623 3.37929,0.382296 0,0.940891 -5.9657,2.953923 -41.75,14.087887 -10.086486,3.138319 -13.253656,4.52419 -13.265313,5.804552 -0.01328,1.45843 -0.151939,1.482606 -1.04347,0.181933 -0.822864,-1.200494 -0.96956,-1.036262 -0.734687,0.822515 0.243285,1.925349 2.75764,3.482927 14.703267,9.108292 12.832372,6.042946 16.315628,8.295571 17.30414,11.190599 0.157335,0.460783 2.412387,0.196856 5.011227,-0.586504 3.097396,-0.933638 4.940456,-1.075934 5.350136,-0.413065 0.34373,0.556174 0.39587,1.240322 0.11587,1.52033 -0.28001,0.280007 3.16243,2.387568 7.64986,4.683469 7.55081,3.863211 8.18303,4.426094 8.48181,7.551522 0.39342,4.115402 -0.98356,5.839038 -2.85921,3.579021 z M 89.306147,31.36052 c 1.064812,-1.064812 -0.269756,-2.311715 -1.832428,-1.712061 -0.804228,0.308611 -1.213259,0.963957 -0.908958,1.456326 0.648201,1.048812 1.837375,1.159746 2.741386,0.255735 z M 14.606989,82.418213 C 13.663255,79.958882 13.891395,77 15.024751,77 15.999574,77 18,81.077904 18,83.0651 c 0,1.565284 -2.744942,1.041953 -3.393011,-0.646887 z M 92,80.559017 C 92,79.701558 92.45,79 93,79 c 0.55,0 1,0.423442 1,0.940983 0,0.517541 -0.45,1.219098 -1,1.559017 -0.55,0.339919 -1,-0.08352 -1,-0.940983 z m 34.13197,0.543704 c -1.10442,-0.699649 -0.95989,-1.274798 0.75,-2.984687 C 128.04688,76.953115 129,74.875 129,73.5 c 0,-2.807079 1.15956,-3.217596 2.96017,-1.047988 1.3698,1.650499 0.5919,5.149892 -1.73344,7.797988 -1.73865,1.97998 -2.17268,2.070365 -4.09476,0.852721 z M 31,71.5 c 0,-0.825 0.176855,-1.5 0.393011,-1.5 0.216156,0 0.652033,0.675 0.968615,1.5 0.316583,0.825 0.139728,1.5 -0.393011,1.5 C 31.435877,73 31,72.325 31,71.5 Z m 135.5826,-3.366353 c -0.29449,-0.476494 0.35395,-1.671239 1.44098,-2.654988 C 169.11061,64.49491 170,62.601773 170,61.271688 c 0,-1.773481 0.46664,-2.322462 1.75,-2.058789 2.05908,0.423048 2.20939,5.926181 0.22711,8.314685 -1.34072,1.615465 -4.54797,1.975794 -5.39451,0.606063 z m -48.7701,-4.816761 c 0.72187,-0.288871 1.58437,-0.253344 1.91667,0.07895 0.33229,0.332292 -0.25834,0.568641 -1.3125,0.52522 -1.16495,-0.04798 -1.4019,-0.284941 -0.60417,-0.604167 z M 91,60.00167 c 0,-0.900608 5.075609,-2.56021 44.12773,-14.428699 20.68514,-6.286505 26.37561,-7.685566 22.84233,-5.616025 -0.84146,0.49287 -13.89146,4.706604 -29,9.363853 C 91.50251,60.870278 91,61.011633 91,60.00167 Z m -2,-2.349057 c 0,-1.26611 69.77978,-23.206168 70.74303,-22.24292 C 160.65222,36.318883 155.47739,38.105646 125,47.40575 107.675,52.692434 92.4875,57.454227 91.25,57.987513 89.571007,58.711054 89,58.626063 89,57.652613 Z M 15,49 c 0,-0.55 0.45,-1 1,-1 0.55,0 1,0.45 1,1 0,0.55 -0.45,1 -1,1 -0.55,0 -1,-0.45 -1,-1 z m 152.61183,-1.819056 c -0.27841,-0.450481 0.82003,-0.624406 2.44098,-0.386501 1.62096,0.237906 2.94719,0.606481 2.94719,0.819056 0,0.761981 -4.89266,0.369205 -5.38817,-0.432555 z M 14,44.416667 C 14,42.65074 16.152759,42.958277 16.770833,44.8125 16.988542,45.465625 16.454167,46 15.583333,46 14.7125,46 14,45.2875 14,44.416667 Z"
         id="path873" />
      <path
         style="fill:#536a87"
         d="m 93,119 c 0,-0.55 0.45,-1 1,-1 0.55,0 1,0.45 1,1 0,0.55 -0.45,1 -1,1 -0.55,0 -1,-0.45 -1,-1 z m -1,-4.55902 c 0,-0.85746 0.45734,-1.27636 1.016312,-0.9309 0.558971,0.34546 0.757414,1.04702 0.440983,1.55902 C 92.600055,116.45614 92,116.19751 92,114.44098 Z m 15,-5.00837 c 0,-2.20073 0.32133,-2.46861 2.25,-1.87577 2.95576,0.90855 3.10163,1.08445 2.40492,2.90003 C 111.32924,111.30559 110.14865,112 109.03138,112 107.51702,112 107,111.34656 107,109.43261 Z M 15.050173,82.09375 c -1.382514,-2.583252 -1.334814,-4.355297 0.104324,-3.875584 1.560154,0.520051 2.983893,4.57827 1.851679,5.278017 -0.498206,0.307908 -1.378407,-0.323187 -1.956003,-1.402433 z M 108.25,82.361097 c -0.6875,-0.29027 -1.25,-2.074911 -1.25,-3.965869 0,-2.685247 -0.54057,-3.684406 -2.46864,-4.562895 -1.35776,-0.618634 -2.23438,-1.503832 -1.94807,-1.967107 0.28632,-0.463274 -0.0894,-0.608263 -0.83483,-0.322197 -0.74547,0.286066 -7.406345,-2.334635 -14.801934,-5.823781 -7.395589,-3.489146 -17.360432,-8.115855 -22.144094,-10.281575 -6.525211,-2.954176 -8.273574,-4.130124 -7,-4.708198 1.187494,-0.539003 0.977135,-0.63065 -0.700091,-0.305006 -1.318712,0.256035 -4.154008,-0.430504 -6.300658,-1.525643 C 46.94635,46.931982 46.902355,46.844591 47.199342,41.743244 47.495008,36.664574 47.566416,36.559058 51.5,35.388423 53.7,34.733703 65.3583,31.228468 77.407333,27.599011 89.456366,23.969555 99.809946,21 100.41529,21 c 0.60534,0 3.28886,1.16489 5.96338,2.588645 3.68954,1.964095 5.67806,2.435693 8.24204,1.954687 2.03811,-0.38235 3.37929,-0.230623 3.37929,0.382296 0,0.940891 -5.9657,2.953923 -41.75,14.087887 -10.086486,3.138319 -13.253656,4.52419 -13.265313,5.804552 C 62.971473,47.269472 62.836511,47.294408 62,46 c -0.766148,-1.18553 -0.972585,-0.968076 -0.984687,1.037238 -0.01385,2.294348 1.4685,3.241943 15.484687,9.898635 8.525,4.048768 15.506891,7.632011 15.515313,7.962762 0.06461,2.537557 1.758477,2.973708 6.272656,1.61514 2.710921,-0.815866 4.765121,-1.013744 4.837031,-0.465944 0.0687,0.523693 0.18125,1.411905 0.25,1.973804 0.0687,0.561899 2.50525,2.124419 5.41444,3.472268 4.04996,1.876376 5.63169,3.269759 6.75,5.946246 1.83152,4.383447 1.82777,4.440605 -0.28944,4.411478 -0.9625,-0.01324 -2.65,0.214719 -3.75,0.506579 -1.1,0.29186 -2.5625,0.293161 -3.25,0.0029 z M 89.306147,31.36052 c 1.064812,-1.064812 -0.269756,-2.311715 -1.832428,-1.712061 -0.804228,0.308611 -1.213259,0.963957 -0.908958,1.456326 0.648201,1.048812 1.837375,1.159746 2.741386,0.255735 z M 126,81.012879 c -1.27334,-0.811961 -1.16001,-1.195988 0.75,-2.541391 C 128.03696,77.564955 129,75.840819 129,74.443296 129,72.938144 129.57595,72 130.5,72 c 2.00896,0 1.97339,4.879136 -0.0567,7.777494 -1.73178,2.472461 -2.26903,2.621835 -4.4433,1.235385 z m 40.61794,-12.822046 c -0.31393,-0.507947 0.31861,-1.728425 1.40564,-2.712174 C 169.11061,64.49491 170,62.597269 170,61.261679 c 0,-2.609261 1.70724,-2.672914 3.3153,-0.123608 1.36509,2.164121 -1.29236,7.284402 -3.98031,7.669115 -1.18045,0.168952 -2.40312,-0.108407 -2.71705,-0.616353 z M 91,60.00167 c 0,-0.900608 5.075609,-2.56021 44.12773,-14.428699 20.68514,-6.286505 26.37561,-7.685566 22.84233,-5.616025 -0.84146,0.49287 -13.89146,4.706604 -29,9.363853 C 91.50251,60.870278 91,61.011633 91,60.00167 Z m -2,-2.349057 c 0,-1.26611 69.77978,-23.206168 70.74303,-22.24292 C 160.65222,36.318883 155.47739,38.105646 125,47.40575 107.675,52.692434 92.4875,57.454227 91.25,57.987513 89.571007,58.711054 89,58.626063 89,57.652613 Z"
         id="path871" />
      <path
         style="fill:#516277"
         d="m 93,119 c 0,-0.55 0.45,-1 1,-1 0.55,0 1,0.45 1,1 0,0.55 -0.45,1 -1,1 -0.55,0 -1,-0.45 -1,-1 z m -1,-4.55902 c 0,-0.85746 0.45734,-1.27636 1.016312,-0.9309 0.558971,0.34546 0.757414,1.04702 0.440983,1.55902 C 92.600055,116.45614 92,116.19751 92,114.44098 Z m 15,-5.00837 c 0,-2.20073 0.32133,-2.46861 2.25,-1.87577 2.95576,0.90855 3.10163,1.08445 2.40492,2.90003 C 111.32924,111.30559 110.14865,112 109.03138,112 107.51702,112 107,111.34656 107,109.43261 Z M 15.050173,82.09375 c -1.382514,-2.583252 -1.334814,-4.355297 0.104324,-3.875584 1.560154,0.520051 2.983893,4.57827 1.851679,5.278017 -0.498206,0.307908 -1.378407,-0.323187 -1.956003,-1.402433 z M 107,78.550305 c 0,-2.775039 -0.56113,-3.790846 -2.75,-4.97833 -1.5125,-0.820545 -2.20162,-1.509917 -1.53138,-1.531937 0.67343,-0.02213 0.9579,-0.71944 0.63585,-1.558685 -0.48441,-1.262361 -0.14045,-1.350482 2.03817,-0.52217 6.10545,2.321288 8.84093,4.355578 10.18614,7.575116 0.78167,1.870805 1.42122,3.569547 1.42122,3.774981 0,0.205435 -2.25,0.453154 -5,0.550487 l -5,0.176969 z m 19,2.462574 c -1.27334,-0.811961 -1.16001,-1.195988 0.75,-2.541391 C 128.03696,77.564955 129,75.840819 129,74.443296 129,72.938144 129.57595,72 130.5,72 c 2.00896,0 1.97339,4.879136 -0.0567,7.777494 -1.73178,2.472461 -2.26903,2.621835 -4.4433,1.235385 z M 77.870196,61.331788 C 67.783171,56.67422 59.369617,52.702951 59.173411,52.506744 c -0.196206,-0.196206 0.02201,-1.01034 0.484925,-1.809187 0.686877,-1.185335 3.685699,-0.08866 16.306304,5.963275 14.330826,6.872028 16.419291,8.172961 17.339776,10.801184 0.205498,0.586749 2.005189,0.462192 4.613612,-0.319311 2.352172,-0.704729 4.532872,-1.025136 4.845992,-0.712015 0.83982,0.839821 -0.12767,1.52642 -3.523088,2.500212 -2.634087,0.755446 -5.430712,-0.238992 -21.370736,-7.599114 z m 88.775394,6.903777 c -0.29873,-0.483344 0.33381,-1.629674 1.40564,-2.547399 C 169.12305,64.770441 170,62.852671 170,61.426454 c 0,-2.762195 1.66358,-2.906902 3.3153,-0.288383 1.36509,2.164121 -1.29236,7.284402 -3.98031,7.669115 -1.18045,0.168952 -2.39068,-0.08828 -2.6894,-0.571621 z M 91.083333,59.619297 C 91.713755,59.043288 150.97507,41 152.23649,41 c 2.5889,0 -1.29744,1.308134 -29.45803,9.915512 -26.80301,8.192432 -32.99711,9.893391 -31.695127,8.703785 z M 89.5,57.237176 c 0.904491,-0.95621 66.24402,-21.278831 68.18216,-21.206767 2.4979,0.09288 -5.37337,2.740841 -34.18216,11.499193 -17.6,5.350692 -32.675,9.961682 -33.5,10.246643 -1.026779,0.354658 -1.184519,0.184592 -0.5,-0.539069 z M 48.25,47.337719 C 47.5625,47.060307 47,45.470752 47,43.805376 c 0,-2.960324 0.08376,-3.011873 3.75,-2.307863 6.386844,1.226436 6.67487,1.233894 9.530385,0.246788 2.528193,-0.873957 6.147238,-5.752816 5.489877,-7.400942 C 65.621618,33.970681 66.4,33.556305 67.5,33.422523 c 2.826843,-0.343799 6.362869,-1.219737 7.32546,-1.814651 0.449867,-0.278034 2.074614,0.146454 3.610547,0.943306 3.664321,1.901073 7.76542,1.83277 12.346112,-0.205622 2.044834,-0.909944 4.055381,-1.584944 4.467881,-1.5 0.4125,0.08494 0.75,-0.547114 0.75,-1.404573 0,-0.857459 0.45734,-1.276365 1.016312,-0.930902 0.558971,0.345464 0.782317,1.006727 0.496323,1.469475 -0.285993,0.462747 1.844166,0.211994 4.733685,-0.55723 2.88953,-0.769223 5.70368,-1.385912 6.25368,-1.370419 2.7269,0.07681 -5.69362,3.246317 -21,7.904447 -9.35,2.84545 -21.5458,6.719318 -27.101778,8.608596 -5.555977,1.889277 -10.280977,3.399524 -10.5,3.356103 C 49.6792,47.877632 48.9375,47.615132 48.25,47.337719 Z"
         id="path869" />
      <path
         style="fill:#4a5a6f"
         d="m 93.5,119 c -0.339919,-0.55 -0.141476,-1 0.440983,-1 C 94.523442,118 95,118.45 95,119 c 0,0.55 -0.198442,1 -0.440983,1 -0.242541,0 -0.719098,-0.45 -1.059017,-1 z M 92,113.94098 c 0,-0.58246 0.45,-0.7809 1,-0.44098 0.55,0.33992 1,0.81648 1,1.05902 C 94,114.80156 93.55,115 93,115 c -0.55,0 -1,-0.47656 -1,-1.05902 z M 107.18689,110.25 C 107.60261,108.06882 112,107.22231 112,109.32346 112,110.71187 110.00029,112 107.84489,112 c -0.54535,0 -0.84145,-0.7875 -0.658,-1.75 z M 15.150545,81.611312 c -1.296028,-3.103039 -0.790252,-4.651019 0.950787,-2.90998 0.587399,0.587399 0.885234,2.132399 0.661856,3.433333 -0.397906,2.317367 -0.430609,2.306754 -1.612643,-0.523353 z M 107.64846,81.315125 C 107.29181,80.958473 107,79.214812 107,77.440322 c 0,-1.945371 -0.59555,-3.45488 -1.5,-3.801948 C 104.16505,73.126103 103.28286,70 104.47325,70 c 1.91731,0 9.55041,4.70816 9.64523,5.949266 0.11834,1.548819 -0.17058,4.453332 -0.46355,4.660058 -0.94008,0.663348 -5.51173,1.200547 -6.00647,0.705801 z M 126,80.122445 C 126,79.639789 126.675,78.684689 127.5,78 128.325,77.315311 129,75.685211 129,74.377555 129,72.930839 129.58727,72 130.5,72 c 1.72069,0 1.94156,2.708412 0.52475,6.4349 C 130.10843,80.844997 126,82.2248 126,80.122445 Z M 95.028818,69.01781 c -0.605043,-0.373936 0.759766,-1.237108 3.032909,-1.918158 2.273143,-0.68105 4.301273,-1.069989 4.506953,-0.864308 0.76338,0.763379 -6.481078,3.436831 -7.539862,2.782466 z m 72.541212,-0.904503 c -0.30141,-0.487681 0.12204,-1.442782 0.94098,-2.122445 C 169.32995,65.311199 170,63.460211 170,61.877555 c 0,-3.266388 1.44783,-3.777815 2.91801,-1.030751 0.68002,1.270632 0.6286,2.206582 -0.16481,3 C 172.11894,64.481062 171.98474,65 172.45499,65 c 0.47024,0 0.0405,0.9 -0.95499,2 -1.96902,2.175747 -3.07901,2.490191 -3.92997,1.113307 z M 89.5,66.260884 c -1.65,-0.912472 -3.45,-1.745471 -4,-1.851109 -1.165521,-0.223859 -25.790359,-11.439061 -26.433333,-12.038868 -0.238334,-0.222332 0.07974,-0.91731 0.706822,-1.544396 0.853541,-0.853541 3.476294,0.03996 10.433334,3.554344 12.39862,6.263231 17.224877,8.965469 17.62651,9.869145 0.183334,0.4125 0.772391,0.75 1.309017,0.75 0.536626,0 0.654598,-0.519529 0.262158,-1.154508 -0.440887,-0.713372 -0.274442,-0.883141 0.435606,-0.444307 1.037506,0.641214 3.630504,4.655007 2.94507,4.558777 C 92.628333,67.937942 91.15,67.173356 89.5,66.260884 Z M 93,59 c 0.825,-0.533156 2.175,-0.944637 3,-0.914402 0.989055,0.03625 0.81874,0.34772 -0.5,0.914402 -2.749085,1.181322 -4.327966,1.181322 -2.5,0 z m -3.5,-1.834199 c 0.955556,-0.910349 66.68245,-21.233844 68.24595,-21.102415 1.61132,0.13545 -5.35745,2.421815 -35.24595,11.563744 -17.05,5.215045 -31.675,9.70903 -32.5,9.986631 -0.974408,0.327875 -1.149605,0.170913 -0.5,-0.44796 z M 101,56.5 c 1.925,-0.741314 4.175,-1.347844 5,-1.347844 0.825,0 -0.075,0.60653 -2,1.347844 -1.925,0.741314 -4.175,1.347844 -5,1.347844 -0.825,0 0.075,-0.60653 2,-1.347844 z m 7.17011,-2.00344 c 0.80864,-0.808645 20.97815,-6.681635 21.42207,-6.237714 C 129.9769,48.643564 110.02362,55 108.43125,55 c -0.42052,0 -0.53804,-0.226548 -0.26114,-0.50344 z M 48.181042,46.485625 C 49.01732,45.649347 83.362613,35.005797 85,35.07549 c 1.783297,0.0759 -10.395491,4.91888 -14,5.567194 -2.669537,0.480147 -4.890544,1.131928 -14.753982,4.329728 -6.118896,1.983792 -9.093714,2.54195 -8.064976,1.513213 z M 137,45.5 c 1.925,-0.741314 4.175,-1.347844 5,-1.347844 0.825,0 -0.075,0.60653 -2,1.347844 -1.925,0.741314 -4.175,1.347844 -5,1.347844 -0.825,0 0.075,-0.60653 2,-1.347844 z"
         id="path867" />
      <path
         style="fill:#3a4c64"
         d="m 107,110.60699 c 0,-1.84928 3.05157,-2.95542 4.40886,-1.59813 0.7659,0.7659 0.64609,1.34522 -0.41722,2.01747 C 108.82068,112.39885 107,112.20758 107,110.60699 Z M 15.5,83 C 15.160081,82.45 15.358524,82 15.940983,82 16.523442,82 17,82.45 17,83 17,83.55 16.801558,84 16.559017,84 16.316476,84 15.839919,83.55 15.5,83 Z m 92.5318,-5.372445 C 108.00445,74.297122 108.20995,73.929353 109.5,75 c 1.8667,1.549221 1.87073,2.12759 0.0318,4.55887 -1.37321,1.815556 -1.47025,1.690618 -1.5,-1.931315 z M 104.5,73 c -0.33992,-0.55 -0.14148,-1 0.44098,-1 0.58246,0 1.05902,0.45 1.05902,1 0,0.55 -0.19844,1 -0.44098,1 -0.24254,0 -0.7191,-0.45 -1.05902,-1 z m 24.5,0 c 0,-0.55 0.47656,-1 1.05902,-1 0.58246,0 0.7809,0.45 0.44098,1 -0.33992,0.55 -0.81648,1 -1.05902,1 C 129.19844,74 129,73.55 129,73 Z m 41,-13.059017 c 0,-0.582459 0.45,-0.780902 1,-0.440983 0.55,0.339919 1,0.816476 1,1.059017 C 172,60.801558 171.55,61 171,61 c -0.55,0 -1,-0.476558 -1,-1.059017 z M 89.522826,57.097936 C 90.060272,56.57191 91.85,55.821378 93.5,55.430086 c 3.869766,-0.917701 3.000558,-0.06529 -1.477174,1.448631 -1.912445,0.646597 -3.037445,0.745245 -2.5,0.219219 z M 101.5,53 c 1.1,-0.472686 2.675,-0.859429 3.5,-0.859429 0.94548,0 0.76064,0.317714 -0.5,0.859429 -1.1,0.472686 -2.675,0.859429 -3.5,0.859429 -0.94548,0 -0.76064,-0.317714 0.5,-0.859429 z M 113,49.5 c 1.925,-0.741314 4.175,-1.347844 5,-1.347844 0.825,0 -0.075,0.60653 -2,1.347844 -1.925,0.741314 -4.175,1.347844 -5,1.347844 -0.825,0 0.075,-0.60653 2,-1.347844 z M 124.5,46 c 1.1,-0.472686 2.675,-0.859429 3.5,-0.859429 0.94548,0 0.76064,0.317714 -0.5,0.859429 -1.1,0.472686 -2.675,0.859429 -3.5,0.859429 -0.94548,0 -0.76064,-0.317714 0.5,-0.859429 z m 12.3125,-3.683114 c 0.72187,-0.288871 1.58437,-0.253344 1.91667,0.07895 0.33229,0.332292 -0.25834,0.568641 -1.3125,0.52522 -1.16495,-0.04798 -1.4019,-0.284941 -0.60417,-0.604167 z M 147.5,39 c 1.1,-0.472686 2.675,-0.859429 3.5,-0.859429 0.94548,0 0.76064,0.317714 -0.5,0.859429 -1.1,0.472686 -2.675,0.859429 -3.5,0.859429 -0.94548,0 -0.76064,-0.317714 0.5,-0.859429 z"
         id="path865" />
    </g>
  </g>
</svg>
