<?xml version="1.0" encoding="utf-8"?>
<!-- Generator: Adobe Illustrator 23.0.3, SVG Export Plug-In . SVG Version: 6.00 Build 0)  -->
<svg version="1.1" xmlns="http://www.w3.org/2000/svg" xmlns:xlink="http://www.w3.org/1999/xlink" x="0px" y="0px"
	 viewBox="0 0 97.3 97.6" style="enable-background:new 0 0 97.3 97.6;" xml:space="preserve">
<style type="text/css">
	.st0{fill:#FFFFFF;}
	.st1{fill:none;stroke:#808080;stroke-width:0.1065;stroke-miterlimit:10;}
	.st2{fill:#751518;}
	.st3{fill:#CC5261;}
	.st4{fill:#BD1622;}
	.st5{enable-background:new    ;}
	.st6{fill:#E7E6E6;}
	.st7{fill:url(#SVGID_1_);}
	.st8{fill:#C6C6C6;}
	.st9{fill:#D1D1D1;}
	.st10{fill:#EDEDED;}
	.st11{fill:none;stroke:#FFEA13;stroke-width:1.0854;stroke-miterlimit:10;}
	.st12{fill:#006E32;}
	.st13{fill:#6ABA82;}
	.st14{fill:#31AA59;}
	.st15{fill:url(#SVGID_2_);}
	.st16{fill:#6F6F6E;}
	.st17{fill:#D9D9D9;}
	.st18{fill:#B1B1B1;}
	.st19{fill:url(#SVGID_3_);}
	.st20{fill:#BFC9E8;}
	.st21{fill:#3458A3;}
	.st22{fill:#A0ADD9;}
	.st23{fill:#264B8C;}
	.st24{fill:#C0CAE9;}
	.st25{fill:url(#SVGID_4_);}
	.st26{fill:#3458A5;}
</style>
<g id="Capa_2">
</g>
<g id="Capa_1">
	<g>
		<g>
			<g>
				<g>
					<g>
						<polygon class="st20" points="35.9,83.4 55.7,94.7 69.7,86.6 50.2,75.5 						"/>
					</g>
					<g>
						<polygon class="st21" points="69.8,86.5 55.7,94.7 55.4,94.6 55.4,97.4 55.7,97.6 69.8,89.3 						"/>
					</g>
				</g>
				<g>
					<g>
						<polygon class="st20" points="16.5,72.1 36.2,83.6 50.3,75.3 30.8,64.3 						"/>
					</g>
					<g>
						<g>
							<polygon class="st21" points="50.3,75.3 36.2,83.6 36,83.4 36.6,85.3 36.7,85.6 50.3,78.2 							"/>
						</g>
						<polygon class="st21" points="55.7,94.7 55.7,97.6 16.4,74.8 16.4,72.1 						"/>
					</g>
				</g>
			</g>
			<g>
				<polygon class="st21" points="54.3,75 40.3,83 40,82.9 40,85.7 40.3,85.9 54.3,77.7 				"/>
				<polygon class="st22" points="40,85.7 33,81.8 33,78.9 40,82.9 				"/>
			</g>
		</g>
		<g>
			<g>
				<g>
					<path class="st22" d="M8.5,41c0-5.8,4.1-13,9.1-15.9c2.7-1.5,5.1-1.7,6.9-0.4l2.3,1.4L13.8,48.5l-2.4-1.5
						C9.6,46.2,8.5,44.1,8.5,41z"/>
					<g>
						<path class="st23" d="M20.2,26.7c-5.1,3-9.2,10-9.1,15.9c0,5.8,4.1,8.2,9.2,5.3c5-3,9.1-10,9.1-15.9
							C29.5,26.1,25.4,23.7,20.2,26.7z"/>
					</g>
				</g>
				<g>
					<path class="st24" d="M13.4,42.3c0-4.9,3.5-10.8,7.7-13.2c2.3-1.3,4.4-1.3,5.8-0.4l13.4,7.4l-10.7,19l-13.7-8.1
						C14.3,46.6,13.4,44.9,13.4,42.3z"/>
					<g>
						<path class="st23" d="M34.9,37.1c-4.2,2.4-7.7,8.3-7.7,13.2s3.5,6.8,7.7,4.4c4.2-2.4,7.7-8.3,7.6-13.2
							C42.6,36.5,39.1,34.6,34.9,37.1z"/>
					</g>
				</g>
			</g>
		</g>
		<g>
			<g class="st5">
				<path class="st24" d="M51.9,68.3C51.2,61,48.2,54,44,48.1c-3.9-5.5-9.2-10.8-15.6-13.1c-3.3-1.2-4.1-3.4-7.3-1.6
					c4.6-2.7,9.2-5.3,13.7-8c1.6-1,3.3-2.1,5.1-2.8c4.5-1.8,9.5-0.1,13.4,2.2c9.6,5.8,16.4,16.8,18.7,27.7
					c1.1,5.1,1.2,11.3-1.8,15.9c-1.4,2.1-3.4,3.2-5.5,4.4c-5,2.9-10.1,5.9-15.1,8.8c-0.1,0.1-0.2,0.1-0.4,0.2
					C54.6,78.8,52.4,73.8,51.9,68.3z"/>
				<g>
					
						<ellipse transform="matrix(0.8646 -0.5025 0.5025 0.8646 -24.2178 25.4923)" class="st22" cx="35.2" cy="57.7" rx="16.2" ry="28"/>
				</g>
			</g>
		</g>
		<g>
			<g>
				<path class="st22" d="M56.7,66.1c0-4.9,3.5-10.8,7.7-13.2c2.3-1.3,4.4-1.3,5.8-0.4l13.4,7.4l-10.7,19l-13.7-8.1
					C57.6,70.2,56.7,68.5,56.7,66.1z"/>
				<g>
					<path class="st23" d="M78.1,60.7c-4.2,2.4-7.7,8.3-7.7,13.2c0,4.9,3.5,6.8,7.7,4.4c4.2-2.4,7.7-8.3,7.6-13.2
						C85.8,60.2,82.4,58.2,78.1,60.7z"/>
				</g>
			</g>
			<g>
				<path class="st24" d="M67.6,73.9c0-5.8,4.1-13,9.1-15.9c2.7-1.5,5.1-1.7,6.9-0.4l2.2,1.3l-13,22.5l-2.4-1.5
					C68.6,78.9,67.6,76.9,67.6,73.9z"/>
				<g>
					<path class="st23" d="M79.3,59.5c-5.1,3-9.2,10-9.1,15.9c0,5.8,4.1,8.2,9.2,5.3c5-3,9.1-10,9.1-15.9
						C88.5,58.9,84.3,56.6,79.3,59.5z"/>
				</g>
				<g>
					<path class="st6" d="M79.3,62.7c-3.5,2.1-6.3,6.9-6.3,10.9s2.8,5.6,6.3,3.6c3.5-2.1,6.3-6.9,6.3-10.9
						C85.6,62.4,82.8,60.8,79.3,62.7z"/>
				</g>
			</g>
		</g>
		<g>
			
				<linearGradient id="SVGID_1_" gradientUnits="userSpaceOnUse" x1="51.4779" y1="58.296" x2="75.5611" y2="58.296" gradientTransform="matrix(-1 0 0 1 97.2849 0)">
				<stop  offset="0" style="stop-color:#31AA59;stop-opacity:0"/>
				<stop  offset="0.1451" style="stop-color:#31AA59;stop-opacity:0.1451"/>
				<stop  offset="1" style="stop-color:#31AA59"/>
			</linearGradient>
			<path class="st7" d="M33.8,44.5c-6.6-3.8-12.1-0.8-12.1,6.9c0,7.6,5.4,16.9,12,20.8c6.6,3.8,12.1,0.8,12.1-6.9
				C45.8,57.6,40.5,48.3,33.8,44.5z"/>
		</g>
		<g>
			
				<ellipse transform="matrix(0.8646 -0.5025 0.5025 0.8646 -23.7612 25.5033)" class="st8" cx="35.4" cy="56.8" rx="7.9" ry="13.6"/>
		</g>
		<g>
			<g>
				<g class="st5">
					<g>
						<polygon class="st22" points="33.9,45.1 33.9,54.6 35,55.2 35,45.7 						"/>
					</g>
					<g>
						<polygon class="st26" points="35,55.2 35.5,54.8 35.5,45.4 35,45.7 						"/>
					</g>
					<g>
						<polygon class="st22" points="35,45.7 35.5,45.4 34.5,44.8 33.9,45.1 						"/>
					</g>
				</g>
				<g class="st5">
					<g>
						<polygon class="st22" points="33.5,61 33.5,69.8 34.6,70.4 34.6,61.6 						"/>
					</g>
					<g>
						<polygon class="st26" points="34.6,70.4 35.1,70 35.1,61.2 34.6,61.6 						"/>
					</g>
					<g>
						<polygon class="st26" points="34.6,61.6 35.1,61.2 34.1,60.6 33.5,61 						"/>
					</g>
				</g>
				<g class="st5">
					<g>
						<polygon class="st22" points="42.2,52.6 37.4,55.3 38.1,56.6 43,53.9 						"/>
					</g>
					<g>
						<polygon class="st26" points="42.2,52.6 42.8,52.3 37.9,55 37.4,55.3 						"/>
					</g>
					<g>
						<polygon class="st22" points="43,53.9 43.5,53.6 42.8,52.3 42.2,52.6 						"/>
					</g>
				</g>
				<g class="st5">
					<g>
						<polygon class="st22" points="31.7,58.6 27.3,61.1 28,62.4 32.4,59.9 						"/>
					</g>
					<g>
						<polygon class="st22" points="31.7,58.6 32.2,58.3 27.8,60.8 27.3,61.1 						"/>
					</g>
					<g>
						<polygon class="st26" points="32.4,59.9 33,59.6 32.2,58.3 31.7,58.6 						"/>
					</g>
				</g>
				<g class="st5">
					<g>
						
							<rect x="28.4" y="46.8" transform="matrix(0.8688 -0.4951 0.4951 0.8688 -21.4848 20.989)" class="st22" width="0.9" height="8.5"/>
					</g>
					<g>
						<polygon class="st22" points="27.1,47.1 27.7,46.8 26.9,47.2 26.4,47.6 						"/>
					</g>
					<g>
						<polygon class="st26" points="31.4,54.5 31.9,54.2 27.7,46.8 27.1,47.1 						"/>
					</g>
				</g>
				<g class="st5">
					<g>
						<polygon class="st22" points="37.9,61.8 37.2,62.3 41.6,69.9 42.3,69.4 						"/>
					</g>
					<g>
						<polygon class="st22" points="37.9,61.8 38.5,61.5 37.8,61.9 37.2,62.3 						"/>
					</g>
					<g>
						<polygon class="st26" points="42.3,69.4 42.9,69.1 38.5,61.5 37.9,61.8 						"/>
					</g>
				</g>
			</g>
			<g>
				<g class="st5">
					<path class="st9" d="M36.1,59.6c0-0.2-0.1-0.3-0.1-0.5c0,0,0,0,0,0c-0.1-0.2-0.1-0.4-0.2-0.6c0,0,0,0,0,0
						c-0.1-0.2-0.2-0.4-0.3-0.6c0,0,0,0,0,0c-0.1-0.2-0.2-0.3-0.3-0.5c0,0,0,0,0,0c-0.1-0.1-0.2-0.3-0.3-0.4c0,0-0.1-0.1-0.1-0.1
						c-0.1-0.1-0.1-0.1-0.2-0.2c-0.2-0.2-0.5-0.4-0.7-0.6c-0.2-0.1-0.3-0.2-0.4-0.2c0,0-0.1,0-0.1,0c-0.1,0-0.3-0.1-0.4-0.1
						c0,0,0,0,0,0c-0.1,0-0.3,0-0.4,0c0,0,0,0,0,0c-0.1,0-0.2,0.1-0.3,0.1l1.1-0.6c0,0,0,0,0,0c0,0,0.1,0,0.1-0.1c0,0,0.1,0,0.1,0
						c0,0,0.1,0,0.1,0c0,0,0,0,0,0c0,0,0,0,0,0c0,0,0.1,0,0.1,0c0.1,0,0.1,0,0.2,0c0,0,0,0,0.1,0c0,0,0,0,0,0c0,0,0.1,0,0.1,0
						c0.1,0,0.1,0,0.2,0c0,0,0.1,0,0.1,0c0,0,0.1,0,0.1,0c0,0,0.1,0,0.1,0c0.1,0,0.2,0.1,0.3,0.2c0.3,0.1,0.5,0.3,0.7,0.6
						c0,0,0,0,0.1,0.1c0,0,0.1,0.1,0.1,0.1c0,0,0.1,0.1,0.1,0.1c0,0,0.1,0.1,0.1,0.1c0.1,0.1,0.1,0.2,0.2,0.2c0,0,0,0.1,0.1,0.1
						c0,0,0,0,0,0c0,0,0,0.1,0.1,0.1c0,0.1,0.1,0.1,0.1,0.2c0,0.1,0.1,0.1,0.1,0.2c0,0,0,0,0,0c0,0,0,0,0,0c0,0.1,0.1,0.1,0.1,0.2
						c0,0.1,0.1,0.1,0.1,0.2c0,0.1,0.1,0.1,0.1,0.2c0,0,0,0,0,0c0,0,0,0,0,0c0,0.1,0.1,0.1,0.1,0.2c0,0.1,0.1,0.1,0.1,0.2
						c0,0,0,0.1,0,0.1c0,0,0,0,0,0c0,0,0,0.1,0,0.1c0,0.1,0,0.2,0.1,0.3c0,0.1,0,0.1,0,0.2c0,0,0,0.1,0,0.1c0,0,0,0.1,0,0.1
						c0,0.2,0,0.3,0,0.5c0,0.7-0.3,1.3-0.7,1.5l-1.1,0.6c0.4-0.2,0.7-0.8,0.7-1.5C36.2,60.1,36.2,59.9,36.1,59.6
						C36.1,59.7,36.1,59.7,36.1,59.6z"/>
					<g>
						<path class="st10" d="M33.8,56.2c-1.3-0.8-2.4-0.2-2.4,1.4c0,1.5,1.1,3.3,2.4,4.1c1.3,0.8,2.4,0.1,2.4-1.4
							C36.2,58.8,35.1,56.9,33.8,56.2z"/>
					</g>
				</g>
			</g>
		</g>
		<g>
			
				<ellipse transform="matrix(0.8646 -0.5025 0.5025 0.8646 -24.6594 24.7835)" class="st11" cx="33.7" cy="58.1" rx="10" ry="17.3"/>
		</g>
		<g>
			<path class="st21" d="M42.7,76.5c-0.7-0.4-1.2-0.1-1.2,0.7c0,0.8,0.5,1.7,1.2,2.1c0.7,0.4,1.2,0.1,1.2-0.7
				C43.9,77.8,43.4,76.8,42.7,76.5z"/>
		</g>
		<g>
			<path class="st21" d="M24.8,66.3c-0.7-0.4-1.2-0.1-1.2,0.7c0,0.8,0.5,1.7,1.2,2.1c0.7,0.4,1.2,0.1,1.2-0.7
				C26,67.7,25.5,66.7,24.8,66.3z"/>
		</g>
		<g>
			<path class="st21" d="M42.7,45.9c-0.7-0.4-1.2-0.1-1.2,0.7c0,0.8,0.5,1.7,1.2,2.1c0.7,0.4,1.2,0.1,1.2-0.7
				C43.9,47.2,43.4,46.3,42.7,45.9z"/>
		</g>
		<g>
			<path class="st21" d="M24.8,35.8c-0.7-0.4-1.2-0.1-1.2,0.7c0,0.8,0.5,1.7,1.2,2.1c0.7,0.4,1.2,0.1,1.2-0.7
				C26,37.1,25.5,36.2,24.8,35.8z"/>
		</g>
		<g>
			<g class="st5">
				<path class="st22" d="M26,19.8c0.3,3.8,5.9,0.6,8.9,0.6c3,0,9,3.1,9-0.9c0,2.1,0,1.8,0,3.8c0,0.8,0,1.6,0,2.4
					c-0.1,2-1.8,3.4-3.6,4.2c-3.5,1.5-7.6,0.5-11.3-0.1c-2-0.3-2.9,0.1-2.9,0.1s0-8,0-10.4C26,19.7,26,19.7,26,19.8z"/>
				<g>
					
						<ellipse transform="matrix(1 -2.834996e-03 2.834996e-03 1 -5.526996e-02 9.912825e-02)" class="st24" cx="34.9" cy="19.5" rx="8.9" ry="5.2"/>
				</g>
			</g>
		</g>
		<g>
			<g class="st5">
				<path class="st22" d="M46.8,34.4c0.3,3.7,5.8,0.6,8.8,0.6c3,0,8.9,3,8.9-0.9c0,2.1,0,1.7,0,3.7c0,0.8,0,3.6,0,4.4
					c-0.1,2-1.8,3.3-3.5,4.1c-7.1,3.4-7.4,2.9-11.2-1.9c-0.9-1.1-2.8-3.6-2.8-3.6s-0.1-1.3-0.1-2c0-2.4,0-2.3,0-4.7
					C46.8,34.2,46.8,34.3,46.8,34.4z"/>
				<g>
					
						<ellipse transform="matrix(1 -2.834996e-03 2.834996e-03 1 -9.655359e-02 0.1578)" class="st24" cx="55.6" cy="34.1" rx="8.8" ry="5.1"/>
				</g>
			</g>
		</g>
		<g>
			<g class="st5">
				<path class="st22" d="M49.1,23.6c0.2,2.8,4.3,0.5,6.5,0.5c2.2,0,6.6,2.3,6.6-0.7c0,1.5,0,6.5,0,8c0,0.6,0,1.2,0,1.8
					c-0.1,1.5-1.3,2.5-2.6,3.1c-2.6,1.1-5.9,1.1-8.4-0.2c-0.9-0.5-1.9-1.3-2.1-2.4c-0.1-0.5,0-1,0-1.5c0-1.8,0-6.9,0-8.7
					C49.1,23.5,49.1,23.6,49.1,23.6z"/>
				<g>
					
						<ellipse transform="matrix(1 -2.834996e-03 2.834996e-03 1 -6.617974e-02 0.1579)" class="st24" cx="55.7" cy="23.4" rx="6.6" ry="3.8"/>
				</g>
			</g>
		</g>
		<g>
			<g>
				<g>
					<g class="st5">
						<path class="st22" d="M28.5,9.5c0.2,2.8,4.3,0.5,6.5,0.5c2.2,0,6.6,2.3,6.6-0.7c0,1.5,0,6.5,0,8c0,0.6,0,1.2,0,1.8
							c-0.1,1.5-1.3,2.5-2.6,3.1c-2.6,1.1-5.9,1.1-8.4-0.2c-0.9-0.5-1.9-1.3-2.1-2.4c-0.1-0.5,0-1,0-1.5c0-1.8,0-6.9,0-8.7
							C28.5,9.4,28.5,9.4,28.5,9.5z"/>
						<g>
							
								<ellipse transform="matrix(1 -2.834996e-03 2.834996e-03 1 -2.621999e-02 9.933789e-02)" class="st24" cx="35" cy="9.3" rx="6.6" ry="3.8"/>
						</g>
					</g>
				</g>
				<g>
					<path class="st24" d="M28.4,8.9c0-3.1,2.2-6.7,4.8-8.3c1.4-0.8,2.7-0.8,3.6-0.2L52.2,9l-6.7,11.9l-15.6-9
						C29,11.5,28.4,10.4,28.4,8.9z"/>
					<g>
						<path class="st23" d="M48.9,9.5C46.2,11,44,14.7,44,17.7s2.2,4.3,4.8,2.7c2.6-1.5,4.8-5.2,4.7-8.3C53.7,9.1,51.5,7.9,48.9,9.5
							z"/>
					</g>
				</g>
			</g>
			<g>
				<g>
					<g>
						<path class="st22" d="M43.2,17.1c0-3.3,2.3-7.4,5.2-9.1c1.5-0.9,2.9-1,4-0.2l2.3,1.4L47.2,22l-2.5-1.5
							C43.7,20,43.2,18.8,43.2,17.1z"/>
						<g>
							<path class="st23" d="M50.9,9.6c-2.9,1.7-5.3,5.7-5.2,9.1c0,3.3,2.3,4.7,5.3,3c2.9-1.7,5.2-5.7,5.2-9.1
								C56.2,9.2,53.8,7.9,50.9,9.6z"/>
						</g>
					</g>
					<g>
						<path class="st24" d="M45.1,19.9c0-4.1,2.9-9.1,6.5-11.2c2-1.1,3.7-1.1,4.9-0.3l11.3,6.3l-9,16.1l-11.6-6.9
							C45.9,23.4,45.1,22,45.1,19.9z"/>
						<g>
							<path class="st23" d="M63.3,15.3c-3.6,2.1-6.5,7.1-6.5,11.2s2.9,5.8,6.5,3.7s6.5-7.1,6.4-11.2C69.8,14.9,66.9,13.3,63.3,15.3
								z"/>
						</g>
					</g>
				</g>
				<g>
					<path class="st22" d="M58.5,26.4c0-3.3,2.3-7.4,5.2-9.1c1.5-0.9,2.9-1,4-0.2l2.3,1.4l-7.4,12.8l-2.5-1.5
						C59.1,29.3,58.5,28.1,58.5,26.4z"/>
					<g>
						<path class="st23" d="M66.2,18.8c-2.9,1.7-5.3,5.7-5.2,9.1c0,3.3,2.3,4.7,5.3,3c2.9-1.7,5.2-5.7,5.2-9.1
							C71.5,18.5,69.1,17.1,66.2,18.8z"/>
					</g>
				</g>
				<g>
					<g class="st5">
						<g>
							<polygon class="st22" points="65.1,27.3 63.5,26.4 65,28.5 66.6,29.4 							"/>
						</g>
						<g>
							<polygon class="st23" points="66.5,23.6 65.1,27.3 66.6,29.4 69.4,27.7 70.9,24 69.4,22 							"/>
						</g>
						<g>
							<polygon class="st22" points="66.5,23.6 65,22.7 63.5,26.4 65.1,27.3 							"/>
						</g>
						<g>
							<polygon class="st24" points="69.4,22 67.8,21.1 65,22.7 66.5,23.6 							"/>
						</g>
					</g>
				</g>
				<g>
					<path class="st22" d="M66.6,26.4c0-0.8,0.6-1.8,1.3-2.2c0.4-0.2,0.7-0.2,1-0.1l2.2,1.2l-1.8,3.2L67,27.2
						C66.7,27.1,66.6,26.8,66.6,26.4z"/>
					<g>
						<path class="st23" d="M70.2,25.5c-0.7,0.4-1.3,1.4-1.3,2.2s0.6,1.1,1.3,0.7c0.7-0.4,1.3-1.4,1.3-2.2
							C71.5,25.4,70.9,25.1,70.2,25.5z"/>
					</g>
				</g>
			</g>
		</g>
	</g>
</g>
</svg>
