<?xml version="1.0" encoding="utf-8"?>
<!-- Generator: Adobe Illustrator 23.0.3, SVG Export Plug-In . SVG Version: 6.00 Build 0)  -->
<svg version="1.1" xmlns="http://www.w3.org/2000/svg" xmlns:xlink="http://www.w3.org/1999/xlink" x="0px" y="0px"
	 viewBox="0 0 47.8 86.1" style="enable-background:new 0 0 47.8 86.1;" xml:space="preserve">
<style type="text/css">
	.st0{enable-background:new    ;}
	.st1{fill:#868686;}
	.st2{fill:#D9D9D9;}
	.st3{fill:#B3B4B3;}
	.st4{clip-path:url(#SVGID_2_);fill:#F2F1F1;}
	.st5{fill:#751518;}
	.st6{fill:#CC5261;}
	.st7{fill:#BD1622;}
	.st8{clip-path:url(#SVGID_4_);fill:#EA6A80;}
	.st9{fill:#3458A3;}
	.st10{fill:#BFC9E8;}
	.st11{fill:#9FABD8;}
	.st12{clip-path:url(#SVGID_6_);fill:#F2F1F1;}
	.st13{fill:#006E32;}
	.st14{fill:#6ABA82;}
	.st15{fill:#31AA59;}
	.st16{clip-path:url(#SVGID_8_);fill:#F2F1F1;}
</style>
<g id="Capa_2">
</g>
<g id="Capa_1">
	<g>
		<g>
			<g class="st0">
				<path class="st1" d="M47.7,66.6c-2.1,6-11.4,8.1-17.8,9.3c-7.8,1.4-14.3,2.2-20.4-2.9c-7.3-6.2-9.3-2.6-9.3-7.3
					c0,6.7,0-0.9-0.2,3.3c0,3.1-0.2,5.9,1.7,8.6c4.1,6,12.8,8.1,19.7,8.5c7.1,0.3,14.8-0.9,20.7-5c2.6-1.7,4.7-4.3,5.2-7.4
					c0.2-0.9,0.2-1.7,0.2-2.6c0-3.6,0.2,2.9,0.2-5c0-0.2,0-0.3,0-0.5C47.7,66.1,47.8,66.4,47.7,66.6z"/>
				<g>
					
						<ellipse transform="matrix(2.835001e-03 -1 1 2.835001e-03 -41.8571 89.6096)" class="st2" cx="24" cy="65.8" rx="13.8" ry="23.8"/>
				</g>
			</g>
		</g>
		<g>
			<g class="st0">
				<path class="st1" d="M6.4,59.9c0,5,0-0.6-0.1,2.4c0,2.3-0.1,4.3,1.3,6.4c3.1,4.5,9.5,6,14.6,6.3c5.2,0.3,11-0.6,15.3-3.7
					c1.9-1.3,3.5-3.2,3.8-5.5c0.1-0.6,0.1-1.3,0.1-1.9c0.2-2.5,0.1-4,0.1-4.1C41.6,60.2,6.4,63.4,6.4,59.9z"/>
			</g>
		</g>
		<g>
			<g class="st0">
				<path class="st1" d="M47.7,46.3c-2.1,6-11.4,8.1-17.8,9.3c-7.8,1.4-14.3,2.2-20.4-2.9c-7.3-6.2-9.3-2.6-9.3-7.3
					c0,6.7,0-0.9-0.2,3.3c0,3.1-0.2,5.9,1.7,8.6c4.1,6,12.8,8.1,19.7,8.5c7.1,0.3,14.8-0.9,20.7-5c2.6-1.7,4.7-4.3,5.2-7.4
					c0.2-0.9,0.2-1.7,0.2-2.6c0-3.6,0.2,2.9,0.2-5c0-0.2,0-0.3,0-0.5C47.7,45.8,47.8,46.2,47.7,46.3z"/>
				<g>
					
						<ellipse transform="matrix(2.835001e-03 -1 1 2.835001e-03 -21.6049 69.4146)" class="st2" cx="24" cy="45.5" rx="13.8" ry="23.8"/>
				</g>
			</g>
		</g>
		<g>
			<g class="st0">
				<path class="st1" d="M4.7,63.4c-0.1,0.4-0.7,0.5-1,0.6c-0.5,0.1-0.8,0.1-1.2-0.2c-0.4-0.4-0.6-0.2-0.6-0.4c0,0.4,0,1.7,0,1.9
					c0,0.2,0,0.3,0.1,0.5c0.2,0.4,0.8,0.5,1.2,0.5c0.4,0,0.9-0.1,1.2-0.3c0.2-0.1,0.3-0.3,0.3-0.4c0-0.1,0-0.1,0-0.2
					C4.7,65.2,4.7,63.8,4.7,63.4C4.7,63.4,4.7,63.3,4.7,63.4C4.7,63.4,4.7,63.4,4.7,63.4z"/>
				<g>
					
						<ellipse transform="matrix(2.835001e-03 -1 1 2.835001e-03 -60.0192 66.5017)" class="st3" cx="3.3" cy="63.3" rx="0.8" ry="1.4"/>
				</g>
			</g>
		</g>
		<g>
			<g class="st0">
				<path class="st1" d="M8.1,70c-0.1,0.4-0.7,0.5-1,0.6c-0.5,0.1-0.8,0.1-1.2-0.2c-0.4-0.4-0.6-0.2-0.6-0.4c0,0.4,0,1.7,0,1.9
					c0,0.2,0,0.3,0.1,0.5c0.2,0.4,0.8,0.5,1.2,0.5c0.4,0,0.9-0.1,1.2-0.3c0.2-0.1,0.3-0.3,0.3-0.4c0-0.1,0-0.1,0-0.2
					C8.1,71.8,8.1,70.4,8.1,70C8.1,69.9,8.1,69.9,8.1,70C8.1,70,8.1,70,8.1,70z"/>
				<g>
					
						<ellipse transform="matrix(2.835001e-03 -1 1 2.835001e-03 -63.2641 76.4381)" class="st3" cx="6.7" cy="69.9" rx="0.8" ry="1.4"/>
				</g>
			</g>
		</g>
		<g>
			<g class="st0">
				<path class="st1" d="M17.2,74.5c-0.1,0.4-0.7,0.5-1,0.6c-0.5,0.1-0.8,0.1-1.2-0.2c-0.4-0.4-0.6-0.2-0.6-0.4c0,0.4,0,1.7,0,1.9
					c0,0.2,0,0.3,0.1,0.5c0.2,0.4,0.8,0.5,1.2,0.5c0.4,0,0.9-0.1,1.2-0.3c0.2-0.1,0.3-0.3,0.3-0.4c0-0.1,0-0.1,0-0.2
					C17.2,76.3,17.2,75,17.2,74.5C17.2,74.5,17.2,74.5,17.2,74.5C17.2,74.5,17.2,74.5,17.2,74.5z"/>
				<g>
					
						<ellipse transform="matrix(2.835001e-03 -1 1 2.835001e-03 -58.7479 90.0512)" class="st3" cx="15.8" cy="74.5" rx="0.8" ry="1.4"/>
				</g>
			</g>
		</g>
		<g>
			<g class="st0">
				<path class="st1" d="M30.3,75.2c-0.1,0.4-0.7,0.5-1,0.6c-0.5,0.1-0.8,0.1-1.2-0.2c-0.4-0.4-0.6-0.2-0.6-0.4c0,0.4,0,1.7,0,1.9
					c0,0.2,0,0.3,0.1,0.5c0.2,0.4,0.8,0.5,1.2,0.5c0.4,0,0.9-0.1,1.2-0.3c0.2-0.1,0.3-0.3,0.3-0.4c0-0.1,0-0.1,0-0.2
					C30.3,76.9,30.3,75.6,30.3,75.2C30.3,75.1,30.3,75.1,30.3,75.2C30.3,75.1,30.3,75.1,30.3,75.2z"/>
				<g>
					
						<ellipse transform="matrix(2.835001e-03 -1 1 2.835001e-03 -46.279 103.7998)" class="st3" cx="28.9" cy="75.1" rx="0.8" ry="1.4"/>
				</g>
			</g>
		</g>
		<g>
			<g class="st0">
				<path class="st1" d="M41.3,71.2c-0.1,0.4-0.7,0.5-1,0.6c-0.5,0.1-0.8,0.1-1.2-0.2c-0.4-0.4-0.6-0.2-0.6-0.4c0,0.4,0,1.7,0,1.9
					c0,0.2,0,0.3,0.1,0.5c0.2,0.4,0.8,0.5,1.2,0.5c0.4,0,0.9-0.1,1.2-0.3c0.2-0.1,0.3-0.3,0.3-0.4c0-0.1,0-0.1,0-0.2
					C41.3,73,41.3,71.6,41.3,71.2C41.3,71.1,41.3,71.1,41.3,71.2C41.3,71.1,41.3,71.2,41.3,71.2z"/>
				<g>
					
						<ellipse transform="matrix(2.835001e-03 -1 1 2.835001e-03 -31.3155 110.8418)" class="st3" cx="39.9" cy="71.1" rx="0.8" ry="1.4"/>
				</g>
			</g>
		</g>
		<g>
			<g class="st0">
				<path class="st1" d="M46.3,63.6c-0.1,0.4-0.7,0.5-1,0.6c-0.5,0.1-0.8,0.1-1.2-0.2c-0.4-0.4-0.6-0.2-0.6-0.4c0,0.4,0,1.7,0,1.9
					c0,0.2,0,0.3,0.1,0.5c0.2,0.4,0.8,0.5,1.2,0.5c0.4,0,0.9-0.1,1.2-0.3c0.2-0.1,0.3-0.3,0.3-0.4c0-0.1,0-0.1,0-0.2
					C46.3,65.4,46.3,64.1,46.3,63.6C46.3,63.6,46.3,63.6,46.3,63.6C46.3,63.6,46.3,63.6,46.3,63.6z"/>
				<g>
					
						<ellipse transform="matrix(2.835001e-03 -1 1 2.835001e-03 -18.8235 108.3121)" class="st3" cx="44.9" cy="63.6" rx="0.8" ry="1.4"/>
				</g>
			</g>
		</g>
		<g>
			<path class="st3" d="M44.5,12.7c-1.8,5.2-9.9,7-15.4,8.1c-6.7,1.2-12.4,1.9-17.7-2.5c-6.3-5.4-8.1-2.2-8.1-6.3
				c0,5.8,0,24.7-0.1,28.3c0,2.7-0.1,5.1,1.5,7.5c3.6,5.2,11.1,7,17.1,7.3c6.1,0.3,12.9-0.7,18-4.3c2.2-1.5,4-3.7,4.5-6.4
				c0.1-0.7,0.1-1.5,0.1-2.2c0-3.1,0.1-22.9,0.1-29.8c0-0.1,0-0.3,0-0.4C44.5,12.2,44.7,12.5,44.5,12.7z"/>
			<g>
				<defs>
					<path id="SVGID_1_" d="M44.5,12.7c-1.8,5.2-9.9,7-15.4,8.1c-6.7,1.2-12.4,1.9-17.7-2.5c-6.3-5.4-8.1-2.2-8.1-6.3
						c0,5.8,0,24.7-0.1,28.3c0,2.7-0.1,5.1,1.5,7.5c3.6,5.2,11.1,7,17.1,7.3c6.1,0.3,12.9-0.7,18-4.3c2.2-1.5,4-3.7,4.5-6.4
						c0.1-0.7,0.1-1.5,0.1-2.2c0-3.1,0.1-22.9,0.1-29.8c0-0.1,0-0.3,0-0.4C44.5,12.2,44.7,12.5,44.5,12.7z"/>
				</defs>
				<clipPath id="SVGID_2_">
					<use xlink:href="#SVGID_1_"  style="overflow:visible;"/>
				</clipPath>
				<path class="st4" d="M43.8,55.6h-1.7V10.1h1.7V55.6z M40.7,11.6H39v45.5h1.7V11.6z M37,13.1h-1.7v45.5H37V13.1z M33.2,13.7h-1.7
					v45.5h1.7V13.7z M29.5,14.2h-1.7v45.5h1.7V14.2z M25.4,14.2h-1.7v45.5h1.7V14.2z M21.4,13.9h-1.7v45.5h1.7V13.9z M17.7,13.7H16
					v45.5h1.7V13.7z M13.7,13h-1.7v45.5h1.7V13z M9.6,11.5H7.9V57h1.7V11.5z M6.3,9.6H4.6v45.5h1.7V9.6z"/>
			</g>
			<g>
				<ellipse transform="matrix(2.835001e-03 -1 1 2.835001e-03 11.9318 35.9496)" class="st3" cx="24" cy="12" rx="12" ry="20.7"/>
			</g>
			<g>
				<ellipse transform="matrix(2.835001e-03 -1 1 2.835001e-03 16.1775 31.716)" class="st2" cx="24" cy="7.7" rx="7.7" ry="13.4"/>
			</g>
		</g>
		<g>
			<g>
				<polygon class="st2" points="10.9,41.9 8.9,43 8.9,30.5 10.9,29.5 				"/>
				<polygon class="st1" points="8.9,43 2.3,39.2 2.3,26.6 8.9,30.6 				"/>
			</g>
			<polygon class="st2" points="8.9,30.6 10.9,29.5 4.2,25.6 2.3,26.7 			"/>
		</g>
	</g>
</g>
</svg>
