<?xml version="1.0" encoding="UTF-8" standalone="no"?>
<svg
   xmlns:dc="http://purl.org/dc/elements/1.1/"
   xmlns:cc="http://creativecommons.org/ns#"
   xmlns:rdf="http://www.w3.org/1999/02/22-rdf-syntax-ns#"
   xmlns:svg="http://www.w3.org/2000/svg"
   xmlns="http://www.w3.org/2000/svg"
   height="82.470596"
   width="68.870087"
   version="1.1"
   viewBox="0 0 68.870084 82.470598"
   data-name="Capa 1"
   id="Capa_1">
  <metadata
     id="metadata69">
    <rdf:RDF>
      <cc:Work
         rdf:about="">
        <dc:format>image/svg+xml</dc:format>
        <dc:type
           rdf:resource="http://purl.org/dc/dcmitype/StillImage" />
      </cc:Work>
    </rdf:RDF>
  </metadata>
  <defs
     id="defs4">
    <style
       id="style2">.cls-1,.cls-3{opacity:0.3;}.cls-2,.cls-3,.cls-4{fill:#014898;}.cls-4{opacity:0.6;}</style>
  </defs>
  <title
     id="title6">formularios</title>
  <g
     transform="translate(4.9663751e-6)"
     style="opacity:0.3"
     id="g14"
     class="cls-1">
    <path
       style="fill:#014898"
       id="path8"
       d="M 10.14,47.51 V 20.74 h 5.12 v 26.77 z"
       class="cls-2" />
    <path
       style="fill:#014898"
       id="path10"
       d="m 32.28,47.51 -4.45,-10.9 h -2.45 v 10.9 H 20.27 V 20.74 h 7.41 c 6.16,0 9.08,3 9.08,8 0,3.34 -1.18,5.75 -4,6.82 L 37.81,47.5 Z M 25.38,32.39 H 28 c 2.27,0 3.64,-1.12 3.64,-3.71 C 31.64,26.09 30.28,25 28,25 h -2.62 z"
       class="cls-2" />
    <path
       style="fill:#014898"
       id="path12"
       d="m 45,39.58 c 0,3 1.3,3.78 3.34,3.78 2.04,0 3.33,-0.82 3.33,-3.78 V 37.8 h 5.12 v 1.11 c 0,6.6 -3.49,9 -8.45,9 -4.96,0 -8.46,-2.37 -8.46,-9 v -9.56 c 0,-6.6 3.49,-9 8.46,-9 4.97,0 8.45,2.38 8.45,9 v 0.07 h -5.16 v -0.74 c 0,-3 -1.29,-3.78 -3.33,-3.78 -2.04,0 -3.3,0.81 -3.3,3.78 z"
       class="cls-2" />
  </g>
  <path
     style="fill:#014898"
     id="path16"
     d="m 4.840005,82.33 1.57,-6.33 h 1.59 l 1.53,6.34 h -1.2 l -0.33,-1.34 h -1.65 l -0.35,1.33 z m 1.73,-2.4 h 1.2 l -0.59,-2.57 v 0 z"
     class="cls-2" />
  <path
     style="fill:#014898"
     id="path18"
     d="m 11.460005,76 v 4.44 c 0,0.6 0.26,0.92 0.85,0.92 0.59,0 0.86,-0.32 0.86,-0.92 V 76 h 1.21 v 4.45 a 1.82,1.82 0 0 1 -2.07,2 1.81,1.81 0 0 1 -2.07,-2 V 76 Z"
     class="cls-2" />
  <path
     style="fill:#014898"
     id="path20"
     d="m 19.240005,76 v 1.08 h -1.42 v 5.26 h -1.21 v -5.27 h -1.41 V 76 Z"
     class="cls-2" />
  <path
     style="fill:#014898"
     id="path22"
     d="m 19.880005,78 c 0,-1.56 0.82,-2.12 2,-2.12 1.18,0 2,0.56 2,2.12 v 2.3 c 0,1.56 -0.82,2.12 -2,2.12 -1.18,0 -2,-0.56 -2,-2.12 z m 1.21,2.42 c 0,0.71 0.31,0.9 0.79,0.9 0.48,0 0.79,-0.19 0.79,-0.9 v -2.55 c 0,-0.7 -0.31,-0.89 -0.79,-0.89 -0.48,0 -0.79,0.19 -0.79,0.89 z"
     class="cls-2" />
  <path
     style="fill:#014898"
     id="path24"
     d="M 25.000005,82.33 V 76 h 1.7 l 1.09,4.17 v 0 l 1.08,-4.17 h 1.69 v 6.34 h -1 v -5 0 l -1.29,5 h -0.91 l -1.3,-5 v 0 5 z"
     class="cls-2" />
  <path
     style="fill:#014898"
     id="path26"
     d="m 31.320005,82.33 1.57,-6.33 h 1.55 l 1.56,6.33 h -1.19 l -0.3,-1.33 h -1.68 l -0.34,1.33 z m 1.73,-2.4 h 1.2 l -0.59,-2.57 v 0 z"
     class="cls-2" />
  <path
     style="fill:#014898"
     id="path28"
     d="m 39.840005,76 v 1.08 h -1.41 v 5.26 h -1.21 v -5.27 h -1.41 V 76 Z"
     class="cls-2" />
  <path
     style="fill:#014898"
     id="path30"
     d="M 40.660005,82.33 V 76 h 1.21 v 6.34 z"
     class="cls-2" />
  <path
     style="fill:#014898"
     id="path32"
     d="m 43.050005,76 h 3.51 v 1 l -2.39,4.25 h 2.44 v 1.07 h -3.81 v -1 l 2.4,-4.24 h -2.15 z"
     class="cls-2" />
  <path
     style="fill:#014898"
     id="path34"
     d="m 47.050005,82.33 1.57,-6.33 h 1.55 l 1.53,6.34 h -1.16 l -0.31,-1.34 h -1.67 l -0.35,1.33 z m 1.72,-2.4 h 1.23 l -0.59,-2.57 v 0 z"
     class="cls-2" />
  <path
     style="fill:#014898"
     id="path36"
     d="m 53.490005,80.45 c 0,0.71 0.31,0.9 0.79,0.9 0.48,0 0.79,-0.19 0.79,-0.9 V 80 h 1.21 v 0.27 c 0,1.56 -0.82,2.12 -2,2.12 -1.18,0 -2,-0.56 -2,-2.12 V 78 c 0,-1.56 0.82,-2.12 2,-2.12 1.18,0 2,0.56 2,2.12 v 0 h -1.21 v -0.18 c 0,-0.7 -0.31,-0.89 -0.79,-0.89 -0.48,0 -0.79,0.19 -0.79,0.89 z"
     class="cls-2" />
  <path
     style="fill:#014898"
     id="path38"
     d="M 57.360005,82.33 V 76 h 1.21 v 6.34 z"
     class="cls-2" />
  <path
     style="fill:#014898"
     id="path40"
     d="m 59.650005,78 c 0,-1.56 0.83,-2.12 2,-2.12 1.17,0 2,0.56 2,2.12 v 2.3 c 0,1.56 -0.83,2.12 -2,2.12 -1.17,0 -2,-0.56 -2,-2.12 z m 1.22,2.42 c 0,0.71 0.3,0.9 0.79,0.9 0.49,0 0.79,-0.19 0.79,-0.9 v -2.55 c 0,-0.7 -0.31,-0.89 -0.79,-0.89 -0.48,0 -0.79,0.19 -0.79,0.89 z m 2.22,-6.1 -1.29,1.31 h -0.89 l 0.82,-1.28 z"
     class="cls-2" />
  <path
     style="fill:#014898"
     id="path42"
     d="M 64.740005,82.33 V 76 h 1.32 l 1.69,3.76 v 0 V 76 h 1.1 v 6.34 h -1.13 l -1.86,-4.09 v 0 4.09 z"
     class="cls-2" />
  <polygon
     transform="translate(4.9663751e-6)"
     style="opacity:0.3;fill:#014898"
     id="polygon44"
     points="44.22,62.24 50.77,68.97 52.78,68.97 46.2,62.24 "
     class="cls-3" />
  <path
     style="fill:#014898"
     id="path46"
     d="m 41.550005,67.56 h -26.38 a 8.8,8.8 0 0 1 -8.8,-8.79 v -43.5 a 8.81,8.81 0 0 1 8.8,-8.8 h 43.5 a 8.8,8.8 0 0 1 8.79,8.8 V 49 l 1.41,1.32 v -35 a 10.22,10.22 0 0 0 -10.2,-10.26 h -43.5 a 10.22,10.22 0 0 0 -10.17,10.21 v 43.5 a 10.21,10.21 0 0 0 10.17,10.23 h 27 z"
     class="cls-2" />
  <polygon
     transform="translate(4.9663751e-6)"
     style="opacity:0.6;fill:#014898"
     id="polygon48"
     points="39.69,62.24 46.24,68.97 48.25,68.97 41.67,62.24 "
     class="cls-4" />
  <polygon
     transform="translate(4.9663751e-6)"
     style="fill:#014898"
     id="polygon50"
     points="34.97,62.24 41.7,68.97 43.71,68.97 36.94,62.24 "
     class="cls-2" />
  <path
     style="opacity:0.3;fill:#014898"
     id="path52"
     d="m 5.110005,60.62 a 8.88,8.88 0 0 0 2.59,2.73 10.17,10.17 0 0 0 2.49,0.3 h 26.81 l -0.26,-1.41 h -26.55 a 8.71,8.71 0 0 1 -5.08,-1.62 z"
     class="cls-3" />
  <path
     style="opacity:0.3;fill:#014898"
     id="path54"
     d="m 53.490005,0 h -43.32 A 10.18,10.18 0 0 0 4.9663751e-6,10.17 V 53.49 A 10.11,10.11 0 0 0 4.060005,61.6 a 10,10 0 0 1 -1.48,-3.74 8.76,8.76 0 0 1 -1.17,-4.37 V 10.17 a 8.77,8.77 0 0 1 8.76,-8.76 h 43.32 a 8.69,8.69 0 0 1 4.91,1.51 9.89,9.89 0 0 1 3.6,1.74 10.16,10.16 0 0 0 -8.51,-4.66 z"
     class="cls-3" />
  <path
     style="opacity:0.3;fill:#014898"
     id="path56"
     d="m 63.490005,8.4 a 8.84,8.84 0 0 0 -2.49,-2.76 8.71,8.71 0 0 1 1.26,4.53 v 34 l 1.42,1.33 V 10.17 a 9.32,9.32 0 0 0 -0.19,-1.77 z"
     class="cls-3" />
  <path
     style="opacity:0.6;fill:#014898"
     id="path58"
     d="m 62.000005,4.67 a 10.34,10.34 0 0 0 -3.63,-1.74 v 0 a 10.09,10.09 0 0 0 -2.48,-0.31 h -43.3 a 10.18,10.18 0 0 0 -10.16,10.17 V 56.1 a 10.17,10.17 0 0 0 0.15,1.75 v 0 a 10,10 0 0 0 1.47,3.74 10.15,10.15 0 0 0 8.52,4.65 h 27.19 l -1.14,-1.41 h -26 a 8.78,8.78 0 0 1 -7.53,-4.23 v 0 a 8.68,8.68 0 0 1 -1.26,-4.5 V 12.79 a 8.77,8.77 0 0 1 8.76,-8.79 h 43.31 a 8.67,8.67 0 0 1 5.1,1.65 v 0 a 9,9 0 0 1 2.52,2.76 8.83,8.83 0 0 1 1.17,4.39 v 33.84 l 1.39,1.36 V 12.81 a 10.18,10.18 0 0 0 -4.08,-8.14 z"
     class="cls-4" />
  <path
     style="fill:#014898"
     id="path60"
     d="M 12.000005,49.47 V 22.7 h 5.12 v 26.77 z"
     class="cls-2" />
  <path
     style="fill:#014898"
     id="path62"
     d="m 34.120005,49.47 -4.44,-10.9 h -2.45 v 10.9 h -5.12 V 22.7 h 7.42 c 6.15,0 9.08,3 9.08,8 0,3.34 -1.19,5.75 -4,6.83 l 5,11.93 z m -6.89,-15.12 h 2.63 c 2.26,0 3.63,-1.12 3.63,-3.71 0,-2.59 -1.37,-3.71 -3.63,-3.71 h -2.63 z"
     class="cls-2" />
  <path
     style="fill:#014898"
     id="path64"
     d="m 46.810005,41.54 c 0,3 1.29,3.78 3.33,3.78 2.04,0 3.34,-0.81 3.34,-3.78 v -1.78 h 5.12 v 1.11 c 0,6.6 -3.49,9 -8.46,9 -4.97,0 -8.45,-2.38 -8.45,-9 v -9.56 c 0,-6.6 3.48,-9 8.45,-9 4.97,0 8.46,2.38 8.46,9 v 0.07 h -5.12 v -0.74 c 0,-3 -1.3,-3.78 -3.34,-3.78 -2.04,0 -3.33,0.81 -3.33,3.78 z"
     class="cls-2" />
</svg>
