<?xml version="1.0" encoding="UTF-8" standalone="no"?>
<svg
   xmlns:dc="http://purl.org/dc/elements/1.1/"
   xmlns:cc="http://creativecommons.org/ns#"
   xmlns:rdf="http://www.w3.org/1999/02/22-rdf-syntax-ns#"
   xmlns:svg="http://www.w3.org/2000/svg"
   xmlns="http://www.w3.org/2000/svg"
   xmlns:sodipodi="http://sodipodi.sourceforge.net/DTD/sodipodi-0.dtd"
   xmlns:inkscape="http://www.inkscape.org/namespaces/inkscape"
   width="400"
   height="100"
   version="1.1"
   id="svg25"
   sodipodi:docname="logo_cliente.svg"
   inkscape:version="0.92.5 (2060ec1f9f, 2020-04-08)">
  <metadata
     id="metadata31">
    <rdf:RDF>
      <cc:Work
         rdf:about="">
        <dc:format>image/svg+xml</dc:format>
        <dc:type
           rdf:resource="http://purl.org/dc/dcmitype/StillImage" />
      </cc:Work>
    </rdf:RDF>
  </metadata>
  <defs
     id="defs29">
    <inkscape:perspective
       sodipodi:type="inkscape:persp3d"
       inkscape:vp_x="16.183562 : 11.071956 : 1"
       inkscape:vp_y="0 : 403.97923 : 0"
       inkscape:vp_z="434.17664 : 11.071956 : 1"
       inkscape:persp3d-origin="225.1801 : 4.3389679 : 1"
       id="perspective4803" />
  </defs>
  <sodipodi:namedview
     pagecolor="#ffffff"
     bordercolor="#666666"
     borderopacity="1"
     objecttolerance="10"
     gridtolerance="10"
     guidetolerance="10"
     inkscape:pageopacity="0"
     inkscape:pageshadow="2"
     inkscape:window-width="1920"
     inkscape:window-height="1017"
     id="namedview27"
     showgrid="false"
     inkscape:zoom="0.915"
     inkscape:cx="-101.0929"
     inkscape:cy="50"
     inkscape:window-x="-8"
     inkscape:window-y="-8"
     inkscape:window-maximized="1"
     inkscape:current-layer="svg25" />
  <style
     type="text/css"
     id="style2">.st0{fill:#EE3224;}</style>
  <g
     id="g7">
    <title
       id="title4">background</title>
    <rect
       fill="none"
       id="canvas_background"
       height="102"
       width="402"
       y="-1"
       x="-1" />
  </g>
  <g
     sodipodi:type="inkscape:box3d"
     id="g4805"
     style="opacity:1;fill:#009600;fill-opacity:1;fill-rule:nonzero;stroke:none;stroke-width:4.01763773;stroke-linecap:butt;stroke-linejoin:round;stroke-miterlimit:4;stroke-dasharray:none;stroke-dashoffset:0;stroke-opacity:1"
     inkscape:perspectiveID="#perspective4803"
     inkscape:corner0="13.076923 : 0.57435897 : 0 : 1"
     inkscape:corner7="2 : -0.0087431691 : 0.25 : 1">
    <path
       sodipodi:type="inkscape:box3dside"
       id="path4807"
       style="fill:#353564;fill-rule:evenodd;stroke:none;stroke-width:2.61038661;stroke-linejoin:round"
       inkscape:box3dsidetype="6"
       d="m 31.030311,72.923402 v 16.733853 l 7.034768,-0.01273 V 73.202678 Z"
       points="31.030311,89.657255 38.065079,89.64453 38.065079,73.202678 31.030311,72.923402 " />
    <path
       sodipodi:type="inkscape:box3dside"
       id="path4815"
       style="fill:#afafde;fill-rule:evenodd;stroke:none;stroke-width:2.61038661;stroke-linejoin:round"
       inkscape:box3dsidetype="13"
       d="M 31.030311,89.657255 85.849075,92.349726 112.6435,92.08652 38.065079,89.64453 Z"
       points="85.849075,92.349726 112.6435,92.08652 38.065079,89.64453 31.030311,89.657255 " />
    <path
       sodipodi:type="inkscape:box3dside"
       id="path4817"
       style="fill:#e9e9ff;fill-rule:evenodd;stroke:none;stroke-width:2.61038661;stroke-linejoin:round"
       inkscape:box3dsidetype="11"
       d="M 38.065079,73.202678 112.6435,19.606165 V 92.08652 L 38.065079,89.64453 Z"
       points="112.6435,19.606165 112.6435,92.08652 38.065079,89.64453 38.065079,73.202678 " />
    <path
       sodipodi:type="inkscape:box3dside"
       id="path4809"
       style="fill:#4d4d9f;fill-rule:evenodd;stroke:none;stroke-width:2.61038661;stroke-linejoin:round"
       inkscape:box3dsidetype="5"
       d="M 31.030311,72.923402 85.849075,13.829342 112.6435,19.606165 38.065079,73.202678 Z"
       points="85.849075,13.829342 112.6435,19.606165 38.065079,73.202678 31.030311,72.923402 " />
    <path
       sodipodi:type="inkscape:box3dside"
       id="path4813"
       style="fill:#d7d7ff;fill-rule:evenodd;stroke:none;stroke-width:2.61038661;stroke-linejoin:round"
       inkscape:box3dsidetype="14"
       d="M 85.849075,13.829342 V 92.349726 L 112.6435,92.08652 V 19.606165 Z"
       points="85.849075,92.349726 112.6435,92.08652 112.6435,19.606165 85.849075,13.829342 " />
    <path
       sodipodi:type="inkscape:box3dside"
       id="path4811"
       style="fill:#8686bf;fill-rule:evenodd;stroke:none;stroke-width:2.61038661;stroke-linejoin:round"
       inkscape:box3dsidetype="3"
       d="M 31.030311,72.923402 85.849075,13.829342 V 92.349726 L 31.030311,89.657255 Z"
       points="85.849075,13.829342 85.849075,92.349726 31.030311,89.657255 31.030311,72.923402 " />
  </g>
  <path
     inkscape:connector-curvature="0"
     id="path4763"
     style="font-style:normal;font-variant:normal;font-weight:normal;font-stretch:normal;font-size:40px;line-height:1.25;font-family:'Trebuchet MS';-inkscape-font-specification:'Trebuchet MS';letter-spacing:0px;word-spacing:0px;fill:#000000;fill-opacity:1;stroke:none"
     d="M 166.07812,40.340869 V 11.727588 h 3.90625 v 25.097656 h 12.92969 v 3.515625 z" />
  <path
     inkscape:connector-curvature="0"
     id="path4765"
     style="font-style:normal;font-variant:normal;font-weight:normal;font-stretch:normal;font-size:40px;line-height:1.25;font-family:'Trebuchet MS';-inkscape-font-specification:'Trebuchet MS';letter-spacing:0px;word-spacing:0px;fill:#000000;fill-opacity:1;stroke:none"
     d="m 184.94531,25.790088 q 0,-6.210938 3.10547,-10.390625 3.125,-4.179688 8.41797,-4.179688 5.95703,0 9.12109,3.847656 3.1836,3.847657 3.1836,10.722657 0,7.050781 -3.1836,11.054687 -3.18359,3.984375 -9.12109,3.984375 -5.41016,0 -8.47656,-4.21875 -3.04688,-4.21875 -3.04688,-10.820312 z m 4.10156,0 q 0,4.921875 1.9336,8.222656 1.95312,3.300781 5.48828,3.300781 4.00391,0 6.09375,-3.027344 2.10937,-3.027343 2.10937,-8.496093 0,-11.054688 -8.20312,-11.054688 -3.63281,0 -5.52734,2.96875 -1.89454,2.96875 -1.89454,8.085938 z" />
  <path
     inkscape:connector-curvature="0"
     id="path4767"
     style="font-style:normal;font-variant:normal;font-weight:normal;font-stretch:normal;font-size:40px;line-height:1.25;font-family:'Trebuchet MS';-inkscape-font-specification:'Trebuchet MS';letter-spacing:0px;word-spacing:0px;fill:#000000;fill-opacity:1;stroke:none"
     d="m 233.08984,13.719775 -1.62109,3.222656 q -2.94922,-2.1875 -5.78125,-2.1875 -4.49219,0 -7.08984,3.164063 Q 216,21.083056 216,26.2979 q 0,4.960938 2.53906,7.988281 2.5586,3.027344 6.95313,3.027344 3.125,0 5.05859,-1.875 v -6.699219 h -3.96484 v -3.320312 h 7.87109 v 12.460937 q -1.5625,1.328125 -4.35547,2.148438 -2.79297,0.800781 -5.42969,0.800781 -5.91796,0 -9.35546,-4.003906 -3.41797,-4.023438 -3.41797,-10.683594 0,-6.640625 3.75,-10.761719 3.76953,-4.140625 10.15625,-4.140625 4.47265,0 7.28515,2.480469 z" />
  <path
     inkscape:connector-curvature="0"
     id="path4769"
     style="font-style:normal;font-variant:normal;font-weight:normal;font-stretch:normal;font-size:40px;line-height:1.25;font-family:'Trebuchet MS';-inkscape-font-specification:'Trebuchet MS';letter-spacing:0px;word-spacing:0px;fill:#000000;fill-opacity:1;stroke:none"
     d="m 238.92969,25.790088 q 0,-6.210938 3.10547,-10.390625 3.125,-4.179688 8.41796,-4.179688 5.95704,0 9.1211,3.847656 3.18359,3.847657 3.18359,10.722657 0,7.050781 -3.18359,11.054687 -3.1836,3.984375 -9.1211,3.984375 -5.41015,0 -8.47656,-4.21875 -3.04687,-4.21875 -3.04687,-10.820312 z m 4.10156,0 q 0,4.921875 1.93359,8.222656 1.95313,3.300781 5.48828,3.300781 4.00391,0 6.09375,-3.027344 2.10938,-3.027343 2.10938,-8.496093 0,-11.054688 -8.20313,-11.054688 -3.63281,0 -5.52734,2.96875 -1.89453,2.96875 -1.89453,8.085938 z" />
  <path
     inkscape:connector-curvature="0"
     id="path4771"
     style="font-style:normal;font-variant:normal;font-weight:normal;font-stretch:normal;font-size:40px;line-height:1.25;font-family:'Trebuchet MS';-inkscape-font-specification:'Trebuchet MS';letter-spacing:0px;word-spacing:0px;fill:#000000;fill-opacity:1;stroke:none"
     d="m 184.33984,62.980151 -1.30859,3.339844 q -1.875,-1.367188 -5.89844,-1.367188 -3.76953,0 -6.05469,3.242188 -2.26562,3.242187 -2.26562,8.359375 0,4.882812 2.32422,7.929687 2.34375,3.027344 6.03515,3.027344 4.02344,0 6.19141,-2.851562 l 2.14844,2.988281 q -3.39844,3.37891 -8.75,3.37891 -5.60547,0 -8.82813,-4.042973 -3.22265,-4.042968 -3.22265,-10.664062 0,-6.40625 3.4375,-10.644531 3.4375,-4.238282 8.88672,-4.238282 4.66796,0 7.30468,1.542969 z" />
  <path
     inkscape:connector-curvature="0"
     id="path4773"
     style="font-style:normal;font-variant:normal;font-weight:normal;font-stretch:normal;font-size:40px;line-height:1.25;font-family:'Trebuchet MS';-inkscape-font-specification:'Trebuchet MS';letter-spacing:0px;word-spacing:0px;fill:#000000;fill-opacity:1;stroke:none"
     d="M 189.98437,90.53874 V 61.925464 h 3.90625 V 87.02312 h 12.92969 v 3.51562 z" />
  <path
     inkscape:connector-curvature="0"
     id="path4775"
     style="font-style:normal;font-variant:normal;font-weight:normal;font-stretch:normal;font-size:40px;line-height:1.25;font-family:'Trebuchet MS';-inkscape-font-specification:'Trebuchet MS';letter-spacing:0px;word-spacing:0px;fill:#000000;fill-opacity:1;stroke:none"
     d="M 210.90234,90.53874 V 61.925464 h 3.90625 V 90.53874 Z" />
  <path
     inkscape:connector-curvature="0"
     id="path4777"
     style="font-style:normal;font-variant:normal;font-weight:normal;font-stretch:normal;font-size:40px;line-height:1.25;font-family:'Trebuchet MS';-inkscape-font-specification:'Trebuchet MS';letter-spacing:0px;word-spacing:0px;fill:#000000;fill-opacity:1;stroke:none"
     d="m 225.29687,65.441089 v 7.949218 H 234.75 v 3.320313 h -9.45313 v 10.3125 h 12.96875 v 3.51562 h -16.875 V 61.925464 h 17.08985 v 3.515625 z" />
  <path
     inkscape:connector-curvature="0"
     id="path4779"
     style="font-style:normal;font-variant:normal;font-weight:normal;font-stretch:normal;font-size:40px;line-height:1.25;font-family:'Trebuchet MS';-inkscape-font-specification:'Trebuchet MS';letter-spacing:0px;word-spacing:0px;fill:#000000;fill-opacity:1;stroke:none"
     d="M 261.29297,90.92937 246.50781,70.011401 V 90.53874 h -3.71094 V 61.925464 h 1.5625 L 258.75391,81.71062 V 61.925464 h 3.71093 V 90.92937 Z" />
  <path
     inkscape:connector-curvature="0"
     id="path4781"
     style="font-style:normal;font-variant:normal;font-weight:normal;font-stretch:normal;font-size:40px;line-height:1.25;font-family:'Trebuchet MS';-inkscape-font-specification:'Trebuchet MS';letter-spacing:0px;word-spacing:0px;fill:#000000;fill-opacity:1;stroke:none"
     d="M 278.77344,65.441089 V 90.53874 h -3.90625 V 65.441089 h -9.10157 v -3.515625 h 22.51954 v 3.515625 z" />
  <path
     inkscape:connector-curvature="0"
     id="path4783"
     style="font-style:normal;font-variant:normal;font-weight:normal;font-stretch:normal;font-size:40px;line-height:1.25;font-family:'Trebuchet MS';-inkscape-font-specification:'Trebuchet MS';letter-spacing:0px;word-spacing:0px;fill:#000000;fill-opacity:1;stroke:none"
     d="m 295.45312,65.441089 v 7.949218 h 9.45313 v 3.320313 h -9.45313 v 10.3125 h 12.96875 v 3.51562 h -16.875 V 61.925464 h 17.08985 v 3.515625 z" />
</svg>
