<?xml version="1.0" encoding="UTF-8" standalone="no"?>
<svg
   xmlns:dc="http://purl.org/dc/elements/1.1/"
   xmlns:cc="http://creativecommons.org/ns#"
   xmlns:rdf="http://www.w3.org/1999/02/22-rdf-syntax-ns#"
   xmlns:svg="http://www.w3.org/2000/svg"
   xmlns="http://www.w3.org/2000/svg"
   xmlns:xlink="http://www.w3.org/1999/xlink"
   xmlns:sodipodi="http://sodipodi.sourceforge.net/DTD/sodipodi-0.dtd"
   xmlns:inkscape="http://www.inkscape.org/namespaces/inkscape"
   id="Capa_1"
   data-name="Capa 1"
   version="1.1"
   width="100"
   height="100"
   sodipodi:docname="logo_deuser_sin_nombre.svg"
   inkscape:version="0.92.5 (2060ec1f9f, 2020-04-08)">
  <metadata
     id="metadata17">
    <rdf:RDF>
      <cc:Work
         rdf:about="">
        <dc:format>image/svg+xml</dc:format>
        <dc:type
           rdf:resource="http://purl.org/dc/dcmitype/StillImage" />
        <dc:title></dc:title>
      </cc:Work>
    </rdf:RDF>
  </metadata>
  <sodipodi:namedview
     pagecolor="#ffffff"
     bordercolor="#ffffff"
     borderopacity="1"
     objecttolerance="10"
     gridtolerance="10"
     guidetolerance="10"
     inkscape:pageopacity="0"
     inkscape:pageshadow="2"
     inkscape:window-width="1920"
     inkscape:window-height="1017"
     id="namedview15"
     showgrid="false"
     fit-margin-top="0"
     fit-margin-left="0"
     fit-margin-right="0"
     fit-margin-bottom="0"
     inkscape:zoom="1.8101934"
     inkscape:cx="51.031084"
     inkscape:cy="69.2007"
     inkscape:window-x="-8"
     inkscape:window-y="-8"
     inkscape:window-maximized="1"
     inkscape:current-layer="Capa_1" />
  <defs
     id="defs20">
    <linearGradient
       id="Degradado_sin_nombre_3"
       x1="195.02"
       y1="383.57999"
       x2="366.39001"
       y2="210.22"
       gradientUnits="userSpaceOnUse">
      <stop
         offset="0"
         stop-color="#20fbe7"
         id="stop4" />
      <stop
         offset=".05"
         stop-color="#1ef2e9"
         id="stop6" />
      <stop
         offset=".13"
         stop-color="#18daed"
         id="stop8" />
      <stop
         offset=".23"
         stop-color="#0eb3f5"
         id="stop10" />
      <stop
         offset=".35"
         stop-color="#017dff"
         id="stop12" />
      <stop
         offset=".36"
         stop-color="#007bff"
         id="stop14" />
      <stop
         offset=".98"
         stop-color="#000041"
         id="stop16" />
    </linearGradient>
    <linearGradient
       id="Degradado_sin_nombre_3-2"
       x1="505.85999"
       y1="337.54001"
       x2="612.20001"
       y2="242.28"
       xlink:href="#Degradado_sin_nombre_3"
       gradientTransform="translate(-514.36888,-247.7969)" />
    <style
       id="style2" />
    <linearGradient
       id="Degradado_sin_nombre_3-2-7"
       x1="505.85999"
       y1="337.54001"
       x2="612.20001"
       y2="242.28"
       xlink:href="#Degradado_sin_nombre_3"
       gradientTransform="translate(-320.57712,-214.28992)" />
    <linearGradient
       id="Degradado_sin_nombre_3-2-9"
       x1="505.85999"
       y1="337.54001"
       x2="612.20001"
       y2="242.28"
       xlink:href="#Degradado_sin_nombre_3"
       gradientTransform="translate(-425.80779,-247.54577)" />
    <linearGradient
       id="Degradado_sin_nombre_3-2-4"
       x1="505.85999"
       y1="337.54001"
       x2="612.20001"
       y2="242.28"
       xlink:href="#Degradado_sin_nombre_3"
       gradientTransform="translate(-758.86995,-249.72506)" />
    <linearGradient
       id="Degradado_sin_nombre_3-2-71"
       x1="505.85999"
       y1="337.54001"
       x2="612.20001"
       y2="242.28"
       xlink:href="#Degradado_sin_nombre_3"
       gradientTransform="translate(-32.263647,-247.65633)" />
  </defs>
  <path
     style="fill:url(#Degradado_sin_nombre_3-2)"
     d="M -239.58203 -1.8554688 C -242.30149 -1.8498687 -244.50286 0.35669884 -244.50195 3.0761719 L -244.50195 13.015625 L -208.71094 48.804688 L -244.50195 84.595703 L -244.50195 92.755859 C -244.5019 95.473043 -242.29921 97.675741 -239.58203 97.675781 L -199.87109 97.675781 C -168.6911 97.675781 -145.41211 79.675932 -145.41211 47.835938 C -145.41211 15.995938 -168.70126 -1.8554698 -200.03125 -1.8554688 L -239.58203 -1.8554688 z M 242.52344 -1.7148438 C 239.80398 -1.7092437 237.60261 0.49732387 237.60352 3.2167969 L 237.60352 13.15625 L 273.39453 48.945312 L 237.60352 84.736328 L 237.60352 92.896484 C 237.60357 95.613664 239.80626 97.816366 242.52344 97.816406 L 282.23438 97.816406 C 313.41436 97.816406 336.69336 79.816555 336.69336 47.976562 C 336.69336 16.136563 313.40421 -1.7148447 282.07422 -1.7148438 L 242.52344 -1.7148438 z M -130.30273 -1.53125 C -133.02219 -1.52565 -135.22357 0.68091744 -135.22266 3.4003906 L -135.22266 13.339844 L -99.431641 49.128906 L -135.22266 84.919922 L -135.22266 93.080078 C -135.22261 95.797253 -133.01991 97.99996 -130.30273 98 L -90.591797 98 C -59.411797 98 -36.132813 80.000152 -36.132812 48.160156 C -36.132812 16.320156 -59.421963 -1.531251 -90.751953 -1.53125 L -130.30273 -1.53125 z M 351.80273 -1.390625 C 349.08327 -1.385025 346.8819 0.82154263 346.88281 3.5410156 L 346.88281 13.480469 L 382.67383 49.269531 L 346.88281 85.060547 L 346.88281 93.220703 C 346.88286 95.937873 349.08555 98.140585 351.80273 98.140625 L 391.51367 98.140625 C 422.69367 98.140625 445.97266 80.140775 445.97266 48.300781 C 445.97266 16.460781 422.68351 -1.390626 391.35352 -1.390625 L 351.80273 -1.390625 z M 4.9199219 0.072265625 C 2.2004619 0.077865625 -0.00091 2.2844333 0 5.0039062 L 0 14.943359 L 35.791016 50.732422 L 0 86.523438 L 0 94.683594 C 5e-05 97.400774 2.2027419 99.603476 4.9199219 99.603516 L 44.630859 99.603516 C 75.810857 99.603516 99.089844 81.603668 99.089844 49.763672 C 99.089844 17.923672 75.800691 0.072264625 44.470703 0.072265625 L 4.9199219 0.072265625 z M 487.02539 0.21289062 C 484.30593 0.21849062 482.10456 2.4250593 482.10547 5.1445312 L 482.10547 15.083984 L 517.89648 50.873047 L 482.10547 86.664062 L 482.10547 94.824219 C 482.10552 97.541399 484.30821 99.744101 487.02539 99.744141 L 526.73633 99.744141 C 557.91633 99.744141 581.19531 81.744295 581.19531 49.904297 C 581.19531 18.064297 557.90616 0.21288962 526.57617 0.21289062 L 487.02539 0.21289062 z M 114.19922 0.39648438 C 111.47976 0.40208436 109.27839 2.6086518 109.2793 5.328125 L 109.2793 15.267578 L 145.07031 51.056641 L 109.2793 86.847656 L 109.2793 95.007812 C 109.27935 97.724992 111.48204 99.927694 114.19922 99.927734 L 153.91016 99.927734 C 185.09016 99.927734 208.36914 81.927887 208.36914 50.087891 C 208.36914 18.247891 185.07999 0.39648336 153.75 0.39648438 L 114.19922 0.39648438 z M 596.30469 0.53710938 C 593.58523 0.54270938 591.38386 2.749277 591.38477 5.46875 L 591.38477 15.408203 L 627.17578 51.197266 L 591.38477 86.988281 L 591.38477 95.148438 C 591.38482 97.865617 593.58751 100.06832 596.30469 100.06836 L 636.01562 100.06836 C 667.19562 100.06836 690.47461 82.068515 690.47461 50.228516 C 690.47461 18.388516 667.18546 0.53710838 635.85547 0.53710938 L 596.30469 0.53710938 z "
     id="path28" />
</svg>
