<?xml version="1.0" encoding="utf-8"?>
<!-- Generator: Adobe Illustrator 23.0.4, SVG Export Plug-In . SVG Version: 6.00 Build 0)  -->
<svg version="1.1" id="Capa_1" xmlns="http://www.w3.org/2000/svg" xmlns:xlink="http://www.w3.org/1999/xlink" x="0px" y="0px"
	 viewBox="0 0 82.8 101.6" style="enable-background:new 0 0 82.8 101.6;" xml:space="preserve">
<style type="text/css">
	.st0{enable-background:new    ;}
	.st1{fill:#9FABD8;}
	.st2{fill:#3458A3;}
	.st3{fill:#264B8C;}
	.st4{fill:#BFC9E8;}
	.st5{fill:#CDCCCC;}
	.st6{fill:#F2F1F1;}
	.st7{clip-path:url(#SVGID_2_);fill:#CDCCCC;}
	.st8{clip-path:url(#SVGID_4_);enable-background:new    ;}
	.st9{fill:#6B6A6A;}
	.st10{fill:#6E6D6D;}
	.st11{fill:#FFFFFF;}
</style>
<g>
	<g>
		<g>
			<g>
				<g class="st0">
					<path class="st1" d="M4.8,71.7c1.8,1.2,3.7,2.2,5.6,3.3C6.5,72.8,30.6,32.4,34,34.4c-1.8-1.1-3.6-2.2-5.5-3.2
						c-7.1-3.9-15.5,2.9-19.8,8.1C3.8,45.1,0.2,52.7,0,60.4C-0.2,64.6,0.9,69.3,4.8,71.7z"/>
					<g>
						<path class="st2" d="M33.4,33.9c3.4,1.6,4.9,5.4,5.3,9c0.9,8.4-3.1,17.2-8.3,23.6c-2.6,3.2-5.8,6.1-9.5,7.9
							c-3,1.5-6.6,2.3-9.8,0.9C3.9,72.1,5,61.8,6.9,55.7c2.5-8,7.8-15.9,15.2-20.2C25.4,33.6,29.7,32.3,33.4,33.9z"/>
					</g>
				</g>
			</g>
			<g>
				
					<ellipse transform="matrix(0.5025 -0.8646 0.8646 0.5025 -18.124 47.9586)" class="st3" cx="32.6" cy="39.7" rx="2.5" ry="1.5"/>
			</g>
			<g>
				
					<ellipse transform="matrix(0.5025 -0.8646 0.8646 0.5025 -36.1594 36.1111)" class="st3" cx="13.3" cy="49.5" rx="2.5" ry="1.5"/>
			</g>
			<g>
				
					<ellipse transform="matrix(0.5025 -0.8646 0.8646 0.5025 -35.9197 57.3666)" class="st3" cx="31.9" cy="59.9" rx="2.5" ry="1.5"/>
			</g>
			<g>
				
					<ellipse transform="matrix(0.5025 -0.8646 0.8646 0.5025 -53.6971 49.5117)" class="st3" cx="16.2" cy="71.4" rx="2.5" ry="1.5"/>
			</g>
		</g>
		<path class="st3" d="M14.8,58.8c0,2.1,0.7,3.7,1.8,4.5l18.2,16.2c0.1,0,0.1,0,0.1,0c0.2,0.1,0.4,0.3,0.6,0.4
			c0.1,0.1,0.2,0.2,0.4,0.3c0,0.1,0.1,0.1,0.1,0.1c0.5,0.3,1,0.5,1.6,0.7c0.1,0,0.1,0.1,0.2,0.1c0.1,0,0.3,0.1,0.4,0.1
			c0.3,0.1,0.5,0.1,0.8,0.2c0.1,0,0.2,0.1,0.3,0.1c0.2,0,0.5,0.1,0.7,0.1c0,0,0.1,0,0.2,0h0.1c0.3,0.1,0.6,0.1,0.9,0.1
			c0.2,0,0.3,0,0.4,0c0.1,0,0.1,0,0.2,0c0,0,0.1,0,0.2,0c0.3,0,0.5,0,0.8,0c0.1,0,0.2,0,0.3,0c0.1,0,0.1,0,0.2,0s0.2,0,0.3,0
			c0.3,0,0.5,0,0.8-0.1c0.1-0.1,0.1-0.1,0.2-0.1c0-0.1,0.1-0.1,0.2-0.1c0.1,0,0.3-0.1,0.4-0.1c0.2,0,0.5-0.1,0.7-0.2
			C46,81,46,81,46.1,81s0.1,0,0.1,0c0.4-0.2,0.8-0.4,1.2-0.6c1.6-0.9,2.4-2.1,2.4-3.3V59.6l0,0c0-1.2-0.8-2.4-2.4-3.3
			c-3.2-1.8-8.3-1.8-11.5,0c-0.4,0.3-0.8,0.5-1.1,0.8l-5.5-8.5c-0.8-3.3-3.7-4.4-7.2-2.4C18.1,48.6,14.8,54.3,14.8,58.8z"/>
		<path class="st3" d="M42.2,72.3L42.2,72.3l17.6,16.3c1.3,2.2,4,2.8,7.1,1c4.3-2.5,7.8-8.5,7.8-13.4c0-2.6-1-4.4-2.6-5.1l0,0H72
			c-0.3-0.2-0.6-0.2-0.9-0.3l-23.5-7.2l0,0c-0.7-0.5-1.7-0.5-2.8,0.1c-2,1.2-3.7,4-3.7,6.3C41.1,71.2,41.5,72,42.2,72.3z"/>
		<g>
			<g>
				<g class="st0">
					<path class="st2" d="M45.1,48.9v5.3l0.5-0.3c0.5-0.4,0.8-0.8,0.8-1.2v-5.3c0,0.5-0.2,0.9-0.8,1.2L45.1,48.9z"/>
					<path class="st1" d="M24.8,56.8c0,1.4,0,2.9,0,4.3c0,0.9,0,1.6,1,2c0.8,0.5,2,0.6,2.9,0.4c0.4-0.1,0.8-0.2,1.1-0.4
						c0.5-0.3,0.4-0.2,0.8,0.3c0.9,1.2,2.3,1.9,3.6,2.6c1.7,1,3.4,1.8,5.3,2.2c0-1.4,0-2.9,0-4.3c0-0.2,0.1-0.7,0-0.9
						c-0.1-0.3,0.5-2.2,0.1-2.3c-1.1-0.3-2-0.2-3-0.8c-1.4-0.8-3.3-2-4.4-3.2c-0.2-0.2-3.5-1-4.1-1c-1,0.1-2.8,2.4-3.2,1.3
						C24.9,56.9,24.8,56.8,24.8,56.8z"/>
					<path class="st2" d="M38,64.5v5.3l0,0c0,0.1,0,0.1,0,0.2v0.1l0,0l0,0c0,0.1,0.1,0.1,0.1,0.2c0.1,0,0.1,0.1,0.1,0.1l0,0l0,0
						c0.1,0.1,0.1,0.1,0.2,0.2l0,0c0.1,0,0.1,0.1,0.2,0.1c0,0,0,0.1,0.1,0.1l0,0c0.2,0.1,0.4,0.2,0.6,0.3c0,0.1,0.1,0.1,0.2,0.1h0.1
						c0.1,0,0.1,0,0.2,0c0.2,0,0.3,0,0.4,0s0.2,0,0.3,0c0.1,0,0.1,0,0.2,0l0,0h0.1c0.1,0,0.2,0,0.3,0s0.2,0,0.3,0s0.2,0,0.3,0h0.1
						l0,0c0.1,0,0.1,0,0.2,0s0.2-0.1,0.3-0.1c0.1-0.1,0.3-0.1,0.4-0.2l16-9.2c0.5-0.4,0.8-0.8,0.8-1.2v-5.3c0,0.2-0.1,0.4-0.2,0.6
						c-0.1,0.2-0.3,0.3-0.6,0.5l-16,9.2c-0.3,0.2-0.6,0.3-0.9,0.4l0,0c-0.3,0.1-0.7,0.1-1,0.1l0,0c-0.3,0-0.6,0-1-0.3h-0.1
						c-0.4,0-0.6-0.2-0.9-0.3c-0.1,0-0.1-0.1-0.2-0.1c-0.1,0-0.1,0-0.2-0.1c-0.1,0-0.1-0.1-0.2-0.2l0,0c0-0.1-0.1-0.2-0.1-0.3l0,0
						C38.1,64.6,38.1,64.5,38,64.5z"/>
					<g>
						<path class="st3" d="M41.7,46.3c1.1-0.6,2.9-0.6,4,0s1.1,1.7,0,2.3l-0.5,0.3c1.4,0.3,2.7,0.8,3.8,1.4l3,1.8
							c1.2,0.7,1.9,1.5,2.4,2.3l0.5-0.3c1.1-0.6,2.9-0.6,4,0c1.1,0.6,1.1,1.7,0,2.3l-16,9.2c-1.1,0.6-2.9,0.6-4,0
							c-1.1-0.6-1.1-1.7,0-2.3l0.5-0.3c-4.5-1-9-4.3-9.3-5.3c0,0-1.9,1.5-4.4,0.2c-1.1-0.6-1.1-1.7,0-2.3L41.7,46.3z"/>
					</g>
				</g>
				<g class="st0">
					<path class="st2" d="M45.1,43.3v5.3l0.5-0.3c0.5-0.4,0.8-0.8,0.8-1.2v-5.3c0,0.5-0.2,0.9-0.8,1.2L45.1,43.3z"/>
					<path class="st1" d="M24.8,51.1c0,1.4,0,2.9,0,4.3c0,0.9,0,1.6,0.7,2.1c0.9,0.5,2.2,0.6,3.1,0.4c0.8-0.1,1.4-0.6,1.4-0.6
						s0.2,0.4,0.4,0.6c0.8,1.3,6,4.3,8.9,4.8c0-1.4,0-2.9,0-4.3c0-0.2,0.1-0.7,0-0.9c-0.1-0.3-0.3-1.2-0.7-1.3
						c-1-0.3-5.7-4.2-6.7-4.8c-1.4-0.8-1.8-0.1-2.4-0.1c-1,0.1-4.2,1.2-4.6,0.1C24.9,51.3,24.8,51.2,24.8,51.1z"/>
					<path class="st2" d="M38,58.7V64l0,0c0,0.1,0,0.1,0,0.2v0.1l0,0l0,0c0,0.1,0.1,0.1,0.1,0.2c0.1,0,0.1,0.1,0.1,0.1l0,0l0,0
						c0.1,0.1,0.1,0.1,0.2,0.2l0,0c0.1,0,0.1,0.1,0.2,0.1c0,0,0,0.1,0.1,0.1l0,0c0.2,0.1,0.4,0.2,0.6,0.3c0,0.1,0.1,0.1,0.2,0.1h0.1
						c0.1,0,0.1,0,0.2,0c0.2,0,0.3,0,0.4,0s0.2,0,0.3,0c0.1,0,0.1,0,0.2,0l0,0h0.1c0.1,0,0.2,0,0.3,0s0.2,0,0.3,0s0.2,0,0.3,0h0.1
						l0,0c0.1,0,0.1,0,0.2,0s0.2-0.1,0.3-0.1c0.1-0.1,0.3-0.1,0.4-0.2l16-9.2c0.5-0.4,0.8-0.8,0.8-1.2v-5.3c0,0.2-0.1,0.4-0.2,0.6
						c-0.1,0.2-0.3,0.3-0.6,0.5l-16,9.2c-0.3,0.2-0.6,0.3-0.9,0.4l0,0c-0.3,0.1-0.7,0.1-1,0.1l0,0c-0.4,0-0.7,0-1-0.1h-0.1
						c-0.4,0-0.6-0.2-0.9-0.3c-0.1,0-0.1-0.1-0.2-0.1c-0.1,0-0.1,0-0.2-0.1c-0.1,0-0.1-0.1-0.2-0.2l0,0c0-0.1-0.1-0.2-0.1-0.3l0,0
						C38.1,59,38.1,58.9,38,58.7z"/>
					<g>
						<path class="st4" d="M41.6,40.7c1.1-0.6,2.9-0.6,4,0s1.1,1.7,0,2.3l-0.5,0.3c1.4,0.3,2.7,0.8,3.8,1.4l3,1.8
							c1.2,0.7,1.9,1.5,2.4,2.3l0.5-0.3c1.1-0.6,2.9-0.6,4,0c1.1,0.6,1.1,1.7,0,2.3l-16,9.2c-1.1,0.6-2.9,0.6-4,0s-1.1-1.7,0-2.3
							l0.5-0.3c-1.4-0.3-2.8-0.7-3.9-1.4l-3-1.8c-1.1-0.6-1.8-1.4-2.3-2.2l-0.4,0.2c-1.1,0.6-2.9,0.6-4,0s-1.1-1.7,0-2.3L41.6,40.7z
							"/>
					</g>
				</g>
				<g>
					<g class="st0">
						<g>
							<polygon class="st5" points="39.8,58.7 39.8,59.3 39.4,58.6 39.4,57.9 							"/>
						</g>
						<g>
							<polygon class="st6" points="40.4,57.4 41.7,57.6 42,58.3 41.1,58.9 39.8,58.7 39.4,57.9 							"/>
						</g>
						<g>
							<polygon class="st5" points="41.1,58.9 41.1,59.5 39.8,59.3 39.8,58.7 							"/>
						</g>
						<g>
							<polygon class="st5" points="42,58.3 42,59 41.1,59.5 41.1,58.9 							"/>
						</g>
					</g>
				</g>
				<g>
					<g class="st0">
						<g>
							<polygon class="st5" points="26.5,51 26.5,51.6 26.2,50.9 26.2,50.2 							"/>
						</g>
						<g>
							<polygon class="st6" points="27.1,49.7 28.4,49.9 28.7,50.6 27.8,51.2 26.5,51 26.2,50.2 							"/>
						</g>
						<g>
							<polygon class="st5" points="27.8,51.2 27.8,51.8 26.5,51.6 26.5,51 							"/>
						</g>
						<g>
							<polygon class="st5" points="28.7,50.6 28.7,51.3 27.8,51.8 27.8,51.2 							"/>
						</g>
					</g>
				</g>
				<g>
					<g class="st0">
						<g>
							<polygon class="st5" points="56.1,49.3 56.1,50 55.8,49.2 55.7,48.5 							"/>
						</g>
						<g>
							<polygon class="st6" points="56.7,48 58,48.2 58.3,48.9 57.4,49.5 56.1,49.3 55.7,48.5 							"/>
						</g>
						<g>
							<polygon class="st5" points="57.4,49.5 57.4,50.2 56.1,50 56.1,49.3 							"/>
						</g>
						<g>
							<polygon class="st5" points="58.3,48.9 58.3,49.6 57.4,50.2 57.4,49.5 							"/>
						</g>
					</g>
				</g>
				<g>
					<g class="st0">
						<g>
							<polygon class="st5" points="42.8,41.6 42.8,42.2 42.5,41.5 42.5,40.8 							"/>
						</g>
						<g>
							<polygon class="st6" points="43.4,40.3 44.7,40.5 45.1,41.2 44.1,41.8 42.8,41.6 42.5,40.8 							"/>
						</g>
						<g>
							<polygon class="st5" points="44.1,41.8 44.1,42.4 42.8,42.2 42.8,41.6 							"/>
						</g>
						<g>
							<polygon class="st5" points="45.1,41.2 45.1,41.9 44.1,42.4 44.1,41.8 							"/>
						</g>
					</g>
				</g>
			</g>
			<g>
				<g class="st0">
					<path class="st2" d="M48.9,26.6c1.2,1.9,3,24.4,0.7,25.8c1.6-0.9,3.3-1.8,4.8-2.8c2-1.3,1.8-3.9,1.8-6c0-4.3,0-8.5,0-12.7
						c0-4.6-2.3-9.2-6.4-11.6c-3.3-1.9-6.6-3.8-9.9-5.7c-1.5-0.8-3.1-1.3-4.7-0.4c-1.5,0.9-3.1,1.8-4.6,2.7
						C31.7,15.3,47,23.7,48.9,26.6z"/>
					<path class="st2" d="M35.4,43c3.2,1.8,6.4,3.7,9.6,5.5c1.1,0.6,2,0.9,3.1,0.3c1.5-0.9,2.9-1.7,4.4-2.6
						c-1.1,0.6-2.3-0.3-3.3-0.8c-1.4-0.8-2.8-1.6-4.2-2.4c-1.3-0.7-2.6-1.5-3.9-2.2c-0.8-0.4-1.6-0.9-2.3-1.5c-2.1-2-2.2-4.4-2.2-7
						c0-3.1,0-6.1,0-9.1c0-1.2,0-2.4,0-3.6c0-1.1-0.1-2.3,0.9-2.9c-1.6,0.9-3.2,1.7-4.7,2.7c-1.2,0.7-1.1,2.1-1.1,3.3
						c0,1.8,0,3.6,0,5.4c0,2.1,0,4.2,0,6.3c0,1.1-0.1,2.3,0,3.4C32,39.9,33.4,41.8,35.4,43z"/>
					<g>
						<path class="st4" d="M45.4,22.3c3.4,2,6.1,6.7,6.1,10.6v15.6c0,3.9-2.7,5.4-6.1,3.5L35,46c-3.4-2-6.1-6.7-6.1-10.6V19.8
							c0-3.9,2.7-5.4,6.1-3.5L45.4,22.3z M31.7,37.2c0,2,1.4,4.5,3.2,5.5l10.4,6c1.7,1.1,3.2,0.2,3.2-1.8V31.3
							c0-2.1-1.4-4.6-3.2-5.6l-10.4-6c-1.7-1-3.2-0.2-3.2,1.9V37.2"/>
					</g>
				</g>
				<g>
					<path class="st1" d="M35.9,51.7c0.6,1,1.8,1.5,2.9,1.8c1.9,0.5,4.1,0.5,5.9-0.2c0.9-0.3,1.8-0.8,2.3-1.7
						c0.7-1.1,0.4-2.7,0.4-3.9c0-1.1,0.1-2.1-0.3-3.2c-0.2-0.7-0.7-1.2-1.2-1.7c-1-1-0.8-2.3-0.8-3.6c0,1.4-1.9,0.4-3.8,0.3
						c-1.7,0-3.4,1.1-3.4-0.3c0,0.9,0.3,2.5-0.4,3.1c-1.4,1.3-1.9,2.8-1.9,4.6C35.6,48.4,35.2,50.5,35.9,51.7z"/>
					<g>
						<path class="st4" d="M44,37.8c1.4,0.8,1.4,2.2,0,3s-3.7,0.8-5.1,0s-1.4-2.2,0-3C40.4,36.9,42.7,36.9,44,37.8z"/>
					</g>
				</g>
				<path class="st2" d="M48.1,46c0.2,1.6,0,2.5-0.4,2.9c-0.7,0.7-2,0.1-2,0.1l-3.2-1.9c4,0,4.5-3,4.5-3S48,44.7,48.1,46z"/>
				<g>
					<g class="st0">
						<path class="st1" d="M38.7,37.2c0,0.7-0.1,1.6,0.1,2.2c0.3,0.8,1.4,1.1,2.2,1.2c0.9,0.1,2.1,0,2.8-0.7
							c0.7-0.6,0.4-1.9,0.4-2.7C44.2,37.6,38.8,37.3,38.7,37.2z"/>
						<g>
							<path class="st4" d="M43.4,36.1c1.1,0.6,1.1,1.6,0,2.2c-1,0.6-2.7,0.6-3.8,0c-1.1-0.6-1.1-1.6,0-2.2
								C40.7,35.5,42.4,35.5,43.4,36.1z"/>
						</g>
					</g>
				</g>
				<path class="st5" d="M39.8,31.3v5.8l0,0v0.1c0,0.1,0,0.1,0,0.1l0,0l0,0v0.1l0,0l0,0l0,0l0.1,0.1l0,0l0.1,0.1
					c0,0.1,0.1,0.1,0.1,0.1l0,0c0.1,0.1,0.2,0.2,0.3,0.2l0,0h0.1c0.1,0,0.1,0,0.2,0s0.1,0,0.1,0c0.1,0,0.1,0,0.2,0s0.1,0,0.1,0l0,0
					c0.1,0,0.1,0,0.2,0h0.1l0,0c0.1,0,0.1,0,0.1,0c0.1,0,0.1,0,0.2,0s0.1,0,0.1,0l0,0c0.1,0,0.1,0,0.1,0c0.1,0,0.1,0,0.2,0l0,0
					c0.1,0,0.1,0,0.1,0h0.1c0.1-0.1,0.1-0.1,0.2-0.1l0,0l0,0c0.1,0,0.2-0.1,0.3-0.1c0.3-0.2,0.5-0.4,0.5-0.7v-5.8l0,0
					c0-0.2-0.2-0.5-0.5-0.7c-0.7-0.4-1.8-0.4-2.5,0C39.9,30.7,39.7,31,39.8,31.3C39.8,31.3,39.8,31.3,39.8,31.3z"/>
				<g>
					<g class="st0">
						<path class="st1" d="M39.5,30.3v1c0,0,0,0.3,0.1,0.4c0.6,0.7,2.7,0.8,3.7,0.1c0.2-0.2,0.3-0.4,0.3-0.6v-0.9
							C43.6,30.6,39.6,30.4,39.5,30.3z"/>
						<g>
							<path class="st4" d="M43,29.5c0.8,0.5,0.8,1.2,0,1.7c-0.8,0.5-2.1,0.5-2.9,0s-0.8-1.2,0-1.7S42.2,29,43,29.5z"/>
						</g>
					</g>
				</g>
				<g>
					<g class="st0">
						<path class="st5" d="M39.6,24.2V30l0,0v0.1c0,0.1,0,0.1,0,0.1l0,0l0,0v0.1l0,0l0,0l0,0l0.1,0.1l0,0l0.1,0.1
							c0,0.1,0.1,0.1,0.1,0.1l0,0c0.1,0.1,0.2,0.2,0.3,0.2l0,0h0.1c0.1,0,0.1,0,0.2,0s0.1,0,0.1,0c0.1,0,0.1,0,0.2,0s0.1,0,0.1,0
							l0,0c0.1,0,0.1,0,0.2,0h0.1l0,0c0.1,0,0.1,0,0.1,0c0.1,0,0.1,0,0.2,0s0.1,0,0.1,0l0,0c0.1,0,0.1,0,0.1,0c0.1,0,0.1,0,0.2,0
							l0,0c0.1,0,0.1,0,0.1,0h0.1c0.1-0.1,0.1-0.1,0.2-0.1l0,0l0,0c0.1,0,0.2-0.1,0.3-0.1c0.3-0.2,0.5-0.4,0.5-0.7v-5.8
							c0,0.2-0.2,0.5-0.5,0.7c-0.1,0-0.2,0.1-0.3,0.1l0,0c0,0.1-0.1,0.1-0.2,0.1S42,25,42,25c-0.1,0-0.2,0-0.3,0l0,0
							c-0.1,0-0.2,0-0.3,0l0,0c-0.1,0-0.2,0-0.3,0S41,25,41,25c-0.1,0-0.1,0-0.2,0c-0.1,0-0.1,0-0.2,0h-0.1
							c-0.1-0.1-0.2-0.1-0.3-0.2l-0.1-0.1L40,24.6c0-0.1-0.1-0.1-0.1-0.2l0,0c0-0.1-0.1-0.1-0.1-0.2l0,0
							C39.8,24.1,39.8,24.1,39.6,24.2z"/>
						<g>
							<path class="st5" d="M42.8,23.3c0.7,0.4,0.7,1,0,1.4s-1.8,0.4-2.5,0s-0.7-1,0-1.4S42.1,22.9,42.8,23.3z"/>
						</g>
					</g>
				</g>
				<g>
					<g class="st0">
						<path class="st1" d="M35.9,16.8v6.8c0,0.1,0,0.1,0,0.1c0,0.1,0,0.2,0,0.3c0.1,0.1,0.1,0.1,0.1,0.2s0,0.1,0,0.1
							c0,0.1,0,0.1,0,0.1c0.1,0.1,0.1,0.2,0.2,0.3c0,0.1,0.1,0.1,0.1,0.2c0.1,0,0.1,0.1,0.1,0.1c0.1,0,0.1,0.1,0.1,0.1
							c0.1,0.1,0.3,0.3,0.4,0.4l0,0c0.1,0.1,0.3,0.2,0.4,0.3s0.2,0.1,0.3,0.2c0.1,0,0.1,0,0.1,0c0.3,0.2,0.7,0.4,1.1,0.5
							c0,0.1,0.1,0.1,0.1,0.1c0.1,0.1,0.2,0.1,0.3,0.1c0.2,0,0.4,0.1,0.6,0.1c0.1,0.1,0.1,0.1,0.2,0.1c0.2,0.1,0.3,0.1,0.5,0.1
							c0.1,0,0.1,0,0.2,0s0.1,0,0.1,0c0.2,0,0.4,0,0.6,0c0.1,0,0.2,0,0.3,0c0.1,0,0.1,0,0.2,0c0.1,0,0.1,0,0.2,0c0.2,0,0.4,0,0.6,0
							c0.1,0,0.1,0,0.2,0H43c0.1,0,0.1,0,0.2,0c0.2,0,0.4-0.1,0.6-0.1c0,0,0,0,0.1,0c0.1,0,0.1,0,0.2,0c0.1-0.1,0.2-0.1,0.3-0.1
							c0.2-0.1,0.3-0.1,0.5-0.2H45l0,0c0.3-0.1,0.5-0.3,0.8-0.4c1.1-0.7,1.7-1.5,1.7-2.4V17C47.5,17.8,36,17.2,35.9,16.8z"/>
						<g>
							<path class="st4" d="M45.8,14.6c2.3,1.3,2.2,3.4,0,4.7c-2.2,1.3-5.9,1.3-8.1,0c-2.3-1.3-2.2-3.4,0-4.7
								C39.9,13.3,43.6,13.3,45.8,14.6z"/>
						</g>
					</g>
				</g>
				<g>
					<g class="st0">
						<path class="st1" d="M37.2,11.6c0,1.6,0,3.1,0,4.6c0,1.3,0.4,2.1,1.6,2.7c1.6,0.7,3.6,0.8,5.2,0.2c1-0.3,2.1-1,2.2-2.2
							c0-0.5,0-0.9,0-1.4c0-1.3,0-2.6,0-3.9c0,2-8.4,2.2-8.9,0.5C37.2,12,37.2,11.8,37.2,11.6z"/>
						<g>
							<path class="st4" d="M44.8,9.8c1.8,1,1.8,2.7,0,3.7c-1.7,1-4.6,1-6.3,0c-1.8-1-1.8-2.7,0-3.7S43.1,8.8,44.8,9.8z"/>
						</g>
					</g>
				</g>
				<g>
					<g>
						<g class="st0">
							<path class="st5" d="M25.4,10.9c-0.2,1.3-0.1,2.7-0.1,4c-0.1-3.4,3-5.9,5.8-7.3C36.1,5.3,42,4.9,47.3,6
								c4.3,0.9,10.6,3.6,10.6,8.8c0-1.5,0.2-3.2-0.2-4.7c-1.3-5-7.9-7-12.5-7.6c-5-0.7-10.6-0.1-15,2.5C28,6.3,25.8,8.3,25.4,10.9z
								"/>
							<g class="st0">
								<g>
									<defs>
										<path id="SVGID_1_" d="M28.3,19.4c5.8,3.2,12.7,4.1,19.2,2.9c3.5-0.6,7.6-1.8,10.6-4.5c1.9-1.6,3.9-3.4,3.9-6
											c0,1.1,0,2.3,0,3.4c-0.1,2.2-1.2,4.2-2.8,5.7c-3.1,3-7.5,4.6-11.7,5.3c-4.3,0.7-8.8,0.6-13.1-0.3c-4.1-1-8.6-2.8-11.2-6.2
											c-1.8-2.4-1.7-5-1.7-7.9C21.5,15.6,25,17.6,28.3,19.4z"/>
									</defs>
									<clipPath id="SVGID_2_">
										<use xlink:href="#SVGID_1_"  style="overflow:visible;"/>
									</clipPath>
									<path class="st7" d="M21.5,11.6c0,1.1,0,2.1,0,3.2c0.1,2.4,1.2,4.4,2.8,6c3.3,3.2,8.1,4.8,12.6,5.4
										c4.5,0.7,9.1,0.4,13.5-0.8c4-1.1,8.5-3.3,10.6-7.1c1.1-2.1,0.9-4.4,0.9-6.7c0,3.1-2.6,5.1-5.1,6.8c-5.7,4-13,4.7-19.7,3.8
										c-3.4-0.4-6.5-1.3-9.5-3.1c-2.9-1.7-6-3.7-6.1-7.2C21.5,11.9,21.5,11.8,21.5,11.6z"/>
								</g>
							</g>
						</g>
					</g>
					<g>
						<g class="st0">
							<g class="st0">
								<g>
									<defs>
										<path id="SVGID_3_" d="M34.8,3.2c0,1,0,2,0,3c0-0.9,0-1.9,0-2.8C34.8,3.3,34.8,3.2,34.8,3.2z"/>
									</defs>
									<clipPath id="SVGID_4_">
										<use xlink:href="#SVGID_3_"  style="overflow:visible;"/>
									</clipPath>
									<g class="st8">
										<path class="st9" d="M34.8,3.4c0-0.1,0-0.2,0-0.2c0,1,0,2,0,3C34.8,5.3,34.8,4.3,34.8,3.4"/>
									</g>
								</g>
							</g>
							<path class="st5" d="M38.6,13.3c0-0.5,0-1.1,0-1.6c0-0.3,0.1-0.7,0-1c-0.1-0.4,0-0.1-0.3-0.4c-0.7-0.6-1.8-1.4-2.6-1.7
								S34,7.9,33.2,7.7c-1.9-0.5-3.8-0.2-5.7-0.1c-0.6,0-0.5,0-0.6,0.3s0,0.7,0,1c0,0.5,0,1.1,0,1.6c3.6-0.4,7.4,0.9,10.6,2.3
								C37.8,13,38.2,13.1,38.6,13.3z"/>
							<g>
								<path class="st10" d="M39.9,9.8c0,0.8,0.1,1.6,0,2.4c-0.1,0.4,0,0.2-0.3,0.5c-0.3,0.2-0.8,0.4-1.1,0.6c0-0.9,0-1.9,0-2.8
									C38.9,10.2,39.4,10,39.9,9.8z"/>
							</g>
						</g>
					</g>
					<g>
						<g class="st0">
							<g>
								<path class="st6" d="M40,8.2c0,0,3.7,0.6,5.1,0.8c1,0.1,1.1,0,1.5,0.9c0.3,0.6,0.6,1.3,0.9,2c0.1,0.2,0.4,0.6,0.3,0.8
									c-0.1,0.2-1,0.6-1.2,0.7c-0.6,0.4-1.2,0.7-1.8,1.1c-0.7,0.4-0.9,1.1-1.7,1c-1.4-0.2-3-0.3-4.3-0.5c-0.4-0.1-1.6-0.2-1.6-0.2
									s-0.5-0.5-0.6-0.8c-0.5-1.1-0.6-2.3-1.1-3.3C36.6,10.1,40,8.2,40,8.2z"/>
							</g>
							<path class="st5" d="M35.4,10.7c0,1,0.1,3.3,0.1,3.3s1.1,2.4,1.6,3.5c0-0.1,4.4,0.7,6.2,1c0-0.9,0.1-3.2,0.1-3.2
								s-4.3-0.6-6.1-0.9C37.1,14,35.9,11.8,35.4,10.7z"/>
							<g>
								<path class="st5" d="M47.9,12.6c0,0.8,0,1.6,0,2.4c0,0.7,0.1,0.8-0.5,1.1c-1.4,0.8-2.7,1.6-4.1,2.4c0-1.1-0.2-2-0.2-3.1
									C44.6,14.5,46.3,13.5,47.9,12.6z"/>
							</g>
						</g>
					</g>
					<g>
						<g class="st0">
							<g>
								<path class="st5" d="M50.7,19.9c-0.6-2.3-3.7-4.4-5.7-5.5c0,0.8,0,3.1,0,3.1s1.1,0.6,1.6,1c0.7,0.5,1.6,1.5,2.2,2.1
									C48.9,20.8,50.4,19.9,50.7,19.9z"/>
							</g>
							<path class="st6" d="M24.9,18.2c5.3,4.7,13.4,5.7,20.1,5.1c3.4-0.3,6.8-1.2,9.9-2.7c2.8-1.4,5.7-3.6,6.7-6.8
								C63.7,7,55.8,2.6,50.4,1.1c-7.4-2-16.3-1.6-23,2.3c-2.7,1.6-5.4,4-5.9,7.2C21.1,13.6,22.6,16.3,24.9,18.2z M25.3,11.8
								c0-1.4,0.5-2.5,1.3-3.6c0.2-0.3,0.4-0.6,0.3-0.4c3-0.3,6.1,0.6,8.8,1.6c0.8,0.3,2.5,1,2.5,1s1.1-0.4,1.6-0.7
								c-2.1-1.2-5.3-3.6-5-6.5l0,0c0.8-0.2,1.5-0.4,2.1-0.6c5.4-1,11.6-0.5,16.4,2.4c2.4,1.4,4.6,3.7,4.6,6.6
								c0,1.9-0.9,3.4-2.2,4.7c-2.6-0.4-5.2-1.2-7.7-2.2c-0.3-0.1-1.8-0.9-1.8-0.9s-1.2,0.7-1.6,0.9c2,1.2,4.2,3,5.3,5.1
								c0.2,0.3,0.2,0.4,0.3,0.5c-4.2,1.6-9.1,1.8-13.5,1C32.2,19.9,25.3,17.2,25.3,11.8z"/>
						</g>
					</g>
				</g>
				<path class="st4" d="M42.5,50.4l2.7,1.6c3.3,1.9,6.1,0.4,6.1-3.5l-2.8-1.7c0,2.1-1.5,2.9-3.3,1.9l-2.7-1.6V50.4z"/>
			</g>
		</g>
		<g>
			<g>
				<g class="st0">
					<path class="st1" d="M48.7,97.1c1.8,1.2,3.7,2.2,5.6,3.3c-3.9-2.2,20.2-42.6,23.6-40.6c-1.8-1.1-3.6-2.2-5.5-3.2
						c-7.1-3.9-15.5,2.9-19.8,8.1c-4.9,5.8-8.5,13.4-8.7,21.1C43.8,90,44.9,94.8,48.7,97.1z"/>
					<g>
						<path class="st2" d="M77.4,59.4c3.4,1.6,4.9,5.4,5.3,9c0.9,8.4-3.1,17.2-8.3,23.6c-2.6,3.2-5.8,6.1-9.5,7.9
							c-3,1.5-6.6,2.3-9.8,0.9c-7.2-3.2-6.1-13.5-4.2-19.6c2.5-8,7.8-15.9,15.2-20.2C69.4,59.1,73.7,57.8,77.4,59.4z"/>
					</g>
				</g>
			</g>
			<g>
				
					<ellipse transform="matrix(0.5025 -0.8646 0.8646 0.5025 -18.3035 98.5616)" class="st3" cx="76.5" cy="65.2" rx="2.5" ry="1.5"/>
			</g>
			<g>
				
					<ellipse transform="matrix(0.5025 -0.8646 0.8646 0.5025 -36.2396 86.8144)" class="st3" cx="57.3" cy="74.9" rx="2.5" ry="1.5"/>
			</g>
			<g>
				
					<ellipse transform="matrix(0.5025 -0.8646 0.8646 0.5025 -35.9999 108.0699)" class="st3" cx="75.9" cy="85.3" rx="2.5" ry="1.5"/>
			</g>
			<g>
				
					<ellipse transform="matrix(0.5025 -0.8646 0.8646 0.5025 -53.777 100.1152)" class="st3" cx="60.1" cy="96.8" rx="2.5" ry="1.5"/>
			</g>
			<g>
				<g class="st0">
					<path class="st11" d="M58.9,92.1c0.3,0.2,1.9,1.5,2.4,0.9c0.1-0.1-0.6-1.4-0.7-1.6c-0.3-0.7-0.4-1.5-0.5-2.2
						c-0.6-5.7,2.4-11.7,6.3-15.7c1.9-2,4.5-3.9,7.4-4.2c0.5,0,1.2,0.2,1.2-0.3c0-0.4-0.3-0.5-0.6-0.7c-0.8-0.6-1.7-0.9-2.7-1
						c-4.1-0.3-7.8,3-10.1,5.9c-2.8,3.4-4.9,7.9-5,12.4C56.6,87.9,57,90.4,58.9,92.1z"/>
					<g>
						
							<ellipse transform="matrix(0.5025 -0.8646 0.8646 0.5025 -36.2051 98.6321)" class="st6" cx="67.6" cy="80.8" rx="14.2" ry="8.2"/>
					</g>
					<g>
						
							<ellipse transform="matrix(0.5025 -0.8646 0.8646 0.5025 -36.2051 98.6319)" class="st5" cx="67.6" cy="80.8" rx="7.2" ry="4.2"/>
					</g>
				</g>
			</g>
		</g>
	</g>
</g>
</svg>
