<?xml version="1.0" encoding="utf-8"?>
<!-- Generator: Adobe Illustrator 23.0.4, SVG Export Plug-In . SVG Version: 6.00 Build 0)  -->
<svg version="1.1" id="Capa_1" xmlns="http://www.w3.org/2000/svg" xmlns:xlink="http://www.w3.org/1999/xlink" x="0px" y="0px"
	 viewBox="0 0 175 268.6" style="enable-background:new 0 0 175 268.6;" xml:space="preserve">
<style type="text/css">
	.st0{fill:#CFD8EE;}
	.st1{fill:#BEC8E7;}
	.st2{enable-background:new    ;}
	.st3{fill:#9FAAD6;}
	.st4{fill:#D8D8D8;}
	.st5{fill:#254B8C;}
	.st6{clip-path:url(#SVGID_2_);}
	.st7{fill:#E7E5E5;}
	.st8{fill:#C6C6C5;}
	.st9{fill:#3359A2;}
	.st10{fill:#F1EFEF;}
	.st11{fill:#CDCBCB;}
	.st12{fill:#EF8F03;}
	.st13{fill:#F8AD31;}
	.st14{clip-path:url(#SVGID_4_);}
	.st15{fill:none;stroke:#F1EFEF;stroke-width:0.9445;stroke-miterlimit:10;}
	.st16{clip-path:url(#SVGID_6_);fill:none;stroke:#F1EFEF;stroke-width:0.9445;stroke-miterlimit:10;}
	.st17{clip-path:url(#SVGID_8_);}
	.st18{clip-path:url(#SVGID_10_);}
</style>
<g>
	<polyline class="st12" points="174.9,8.7 174.9,12.6 169.2,9.5 	"/>
	<polygon class="st13" points="72.2,232.4 13.6,266.6 1.3,257.1 58.1,224.4 	"/>
	<g>
		<defs>
			<polygon id="SVGID_3_" points="72.2,232.4 13.6,266.6 1.3,257.1 58.1,224.4 			"/>
		</defs>
		<clipPath id="SVGID_2_">
			<use xlink:href="#SVGID_3_"  style="overflow:visible;"/>
		</clipPath>
		<g class="st6">
			<polyline class="st15" points="73.5,232.2 51.8,236.2 59.8,222.1 			"/>
			<polyline class="st15" points="58.3,241.1 37.7,244.4 37.7,244.4 43,232.2 			"/>
			<polyline class="st15" points="43.9,249.4 24.5,252.1 29.8,240.2 			"/>
			<polyline class="st15" points="28.6,257.6 10.8,260 16.2,248.2 			"/>
		</g>
	</g>
	<g>
		<g>
			<path class="st12" d="M157.7,0.8l-3.6,2.1l14.3,8.2l6.3-3.4l-11.1-6.4C162,0.5,159.8-0.1,157.7,0.8z"/>
			<g>
				<defs>
					<path id="SVGID_5_" d="M157.7,0.8l-3.6,2.1l14.3,8.2l6.3-3.4l-11.1-6.4C162,0.5,159.8-0.1,157.7,0.8z"/>
				</defs>
				<clipPath id="SVGID_4_">
					<use xlink:href="#SVGID_5_"  style="overflow:visible;"/>
				</clipPath>
				<polyline style="clip-path:url(#SVGID_4_);fill:none;stroke:#F1EFEF;stroke-width:0.9445;stroke-miterlimit:10;" points="
					171,5.2 162.9,6.3 162.9,6.3 164.7,1.3 				"/>
			</g>
		</g>
		<polygon class="st13" points="141.8,26.1 72.2,232.5 58.1,224.5 127.2,19.1 		"/>
		<g>
			<defs>
				<polygon id="SVGID_7_" points="140.5,28.8 72.2,232.5 58.1,224.5 126.7,21 				"/>
			</defs>
			<clipPath id="SVGID_6_">
				<use xlink:href="#SVGID_7_"  style="overflow:visible;"/>
			</clipPath>
			<g style="clip-path:url(#SVGID_6_);">
				<polyline class="st15" points="119.5,39 119.9,62 135.1,47.5 				"/>
				<polyline class="st15" points="126.8,18 127.2,41 142.4,26.5 				"/>
				<polyline class="st15" points="112.8,57.3 113.8,80.1 128.4,66.2 				"/>
				<polyline class="st15" points="106.9,76 107.7,98.2 122.3,84.3 				"/>
				<polyline class="st15" points="100.9,93.2 101.5,116.4 116.3,102.1 				"/>
				<polyline class="st15" points="94.6,112.2 95.4,134.5 109.8,120.6 				"/>
				<polyline class="st15" points="89,133.1 89.3,152.6 102,140.4 				"/>
				<polyline class="st15" points="82.5,149.5 83.2,170.8 97.3,157.5 				"/>
				<polyline class="st15" points="76.3,167.7 77.1,188.9 91.3,175.5 				"/>
				<polyline class="st15" points="70.1,185.8 71,207 86,192.3 				"/>
				<polyline class="st15" points="64.2,203.7 64.8,225.1 80.2,210.3 				"/>
			</g>
		</g>
		<g>
			<polygon class="st13" points="168.3,10.9 142.8,25.9 128.2,17.9 154.2,2.8 			"/>
			<g>
				<path class="st12" d="M129.2,17.6c0,0-0.1,0-0.1,0c-0.7-0.1-1.6,0.7-2,1.8c-0.3,0.9-0.2,1.7,0.3,2c0,0,0,0,0,0l14.1,8.1
					c0,0,0.6-4.1,1.3-4c0.1,0,0.2,0.1,0.3,0.1c0,0,0,0,0,0S129.2,17.5,129.2,17.6z"/>
			</g>
		</g>
		<g>
			<defs>
				<polygon id="SVGID_9_" points="168.4,10.9 140.5,27.4 128.2,17.9 154.2,2.8 				"/>
			</defs>
			<clipPath id="SVGID_8_">
				<use xlink:href="#SVGID_9_"  style="overflow:visible;"/>
			</clipPath>
			<g class="st17">
				<polyline class="st15" points="170.8,10.3 151.2,12.1 155.2,0.1 				"/>
				<polyline class="st15" points="156.3,18.3 137.7,20.8 143.3,8.3 				"/>
			</g>
		</g>
		<path class="st12" d="M142.6,25.3c-0.6,0.3-1.3,0.9-1.6,1.5L72,232.4c0,0,0.7,2.3,0.7,2.3C73.1,233.5,142.3,29,142.3,29
			L142.6,25.3z"/>
		<g>
			<path class="st13" d="M103.6,140c-0.1-0.1-0.2-0.1-0.3-0.1c-0.7,0-1.6,0.8-1.9,1.9c-0.3,0.9-0.1,1.7,0.3,1.9
				c0.1,0.1,0.2,0.1,0.4,0.1c0.7,0,1.6-0.8,1.9-1.9C104.2,141.1,104,140.3,103.6,140z"/>
			<path class="st12" d="M89.6,132.3c0,0-0.1,0-0.1,0c-0.7-0.1-1.6,0.7-2,1.8c-0.3,0.9-0.2,1.7,0.3,2c0,0,0,0,0,0l13.8,7.6
				c0,0,0,0,0,0c-0.4-0.3-0.6-1.1-0.3-2c0.4-1.1,1.3-1.9,2-1.8c0.1,0,0.2,0.1,0.3,0.1c0,0,0,0,0,0S89.6,132.2,89.6,132.3z"/>
		</g>
		<path class="st12" d="M141.8,29.4l31.5-18.1c1.1-0.6,1.7-1.8,1.7-3c0-0.6-0.7-1-1.2-0.7l-31.6,18.2c-0.6,0.3-1.1,0.9-1.4,1.5"/>
		<path class="st13" d="M143.1,25.5c-0.1-0.1-0.2-0.1-0.3-0.1c-0.7,0-1.6,0.8-1.9,1.9c-0.3,0.9-0.1,1.7,0.3,1.9
			c0.1,0.1,0.2,0.1,0.4,0.1c0.7,0,1.6-0.8,1.9-1.9C143.7,26.6,143.6,25.8,143.1,25.5z"/>
	</g>
	<line class="st13" x1="0.1" y1="260.1" x2="13.5" y2="266.9"/>
	<path class="st12" d="M14.9,268.6l56.4-32.3c1.1-0.6,1.7-1.8,1.7-3c0-0.6-0.7-1-1.2-0.7l-56.5,32.4c-0.6,0.3-1.1,0.9-1.4,1.5"/>
	<g>
		<path class="st12" d="M2.3,256.7c0,0-0.1,0-0.1,0c-0.7-0.1-1.6,0.7-2,1.8c-0.3,0.9-0.2,1.7,0.3,2c0,0,0,0,0,0l14.1,8.1
			c0,0,0.6-4.1,1.3-4c0.1,0,0.2,0.1,0.3,0.1c0,0,0,0,0,0S2.3,256.7,2.3,256.7z"/>
		<path class="st13" d="M16.2,264.7c-0.1-0.1-0.2-0.1-0.3-0.1c-0.7,0-1.6,0.8-1.9,1.9c-0.3,0.9-0.1,1.7,0.3,1.9
			c0.1,0.1,0.2,0.1,0.4,0.1c0.7,0,1.6-0.8,1.9-1.9C16.9,265.7,16.7,265,16.2,264.7z"/>
	</g>
</g>
</svg>
