<?xml version="1.0" encoding="utf-8"?>
<!-- Generator: Adobe Illustrator 23.0.4, SVG Export Plug-In . SVG Version: 6.00 Build 0)  -->
<svg version="1.1" id="Capa_1" xmlns="http://www.w3.org/2000/svg" xmlns:xlink="http://www.w3.org/1999/xlink" x="0px" y="0px"
	 viewBox="0 0 156.4 260.9" style="enable-background:new 0 0 156.4 260.9;" xml:space="preserve">
<style type="text/css">
	.st0{fill:#F2F1F1;}
	.st1{fill:#D9D9D9;}
	.st2{enable-background:new    ;}
	.st3{fill:#B3B4B3;}
	.st4{fill:#D8D8D8;}
	.st5{fill:#636363;}
	.st6{clip-path:url(#SVGID_2_);}
	.st7{fill:#E7E5E5;}
	.st8{fill:#C6C6C5;}
	.st9{fill:#868686;}
	.st10{fill:#88D39C;}
	.st11{fill:#6ABA82;}
	.st12{fill:#31AA59;}
	.st13{fill:#035426;}
	.st14{clip-path:url(#SVGID_4_);}
	.st15{fill:#006E32;}
	.st16{fill:#EA6A80;}
	.st17{fill:#CC5261;}
	.st18{fill:#BD1622;}
	.st19{fill:#5B1016;}
	.st20{clip-path:url(#SVGID_6_);}
	.st21{fill:#751518;}
	.st22{fill:#CFD8EE;}
	.st23{fill:#BEC8E7;}
	.st24{fill:#9FAAD6;}
	.st25{fill:#254B8C;}
	.st26{clip-path:url(#SVGID_8_);}
	.st27{fill:#3359A2;}
	.st28{fill:#F1EFEF;}
	.st29{fill:#CDCBCB;}
	.st30{fill:#EF8F03;}
	.st31{fill:#F8AD31;}
	.st32{clip-path:url(#SVGID_10_);}
	.st33{fill:none;stroke:#F1EFEF;stroke-width:0.9445;stroke-miterlimit:10;}
	.st34{clip-path:url(#SVGID_12_);fill:none;stroke:#F1EFEF;stroke-width:0.9445;stroke-miterlimit:10;}
	.st35{clip-path:url(#SVGID_14_);}
	.st36{clip-path:url(#SVGID_16_);}
</style>
<g>
	<g>
		<g>
			<polygon class="st9" points="9.5,78.2 73.5,41.3 73.3,34.8 9.5,71.7 			"/>
			<polygon class="st3" points="9.5,79.4 74.7,41.8 74,35.6 9.5,72.9 			"/>
		</g>
		<g>
			<polygon class="st3" points="147.8,73.3 74.9,31.2 74.9,37.7 147.8,79.8 			"/>
			<polygon class="st9" points="147.8,74.5 74.2,31.9 74.2,38.5 147.8,81 			"/>
		</g>
	</g>
	<g>
		<g>
			<polygon class="st1" points="156.4,67.9 151.1,70.9 145.6,68.3 151.1,64.9 			"/>
			<polygon class="st9" points="151.1,218.7 145.6,216 145.6,68.3 151.1,70.9 			"/>
		</g>
		<polygon class="st3" points="156.4,215.6 151.1,218.7 151.1,70.9 156.4,67.9 		"/>
	</g>
	<g>
		<g>
			<polygon class="st9" points="77.1,106.3 28.6,134.3 28.6,130.3 77,102.3 			"/>
			<polygon class="st3" points="77.8,106.6 29,134.7 29.1,130.8 77.5,102.8 			"/>
		</g>
		<g>
			<polygon class="st3" points="78,104.1 128.3,133.2 128.3,129.2 78,100.1 			"/>
			<polygon class="st9" points="77.5,104.6 127.9,133.6 127.9,129.6 77.5,100.6 			"/>
		</g>
	</g>
	<g>
		<g>
			<polygon class="st1" points="129.2,123.1 125.9,125 122.6,123.3 125.9,121.3 			"/>
			<polygon class="st9" points="125.9,204.5 122.5,202.9 122.6,123.3 125.9,124.9 			"/>
		</g>
		<polygon class="st3" points="129.2,202.7 125.9,204.5 125.9,124.9 129.2,123.1 		"/>
	</g>
	<g>
		<g>
			<polygon class="st1" points="10.9,68.8 5.3,71.9 0,69.1 5.5,65.8 			"/>
			<polygon class="st3" points="10.9,215.2 5.5,218.8 5.3,71.9 10.9,68.8 			"/>
		</g>
		<g>
			<polygon class="st1" points="33.3,122.4 29.9,124.3 26.7,122.6 30,120.6 			"/>
			<polygon class="st3" points="33.3,201.1 30,203.3 29.9,124.3 33.3,122.4 			"/>
		</g>
		<g>
			<polygon class="st1" points="84.7,62.2 79.4,65.2 73.9,62.5 79.3,59.2 			"/>
			<g>
				<polygon class="st3" points="84.7,141.9 79.3,145.3 79.3,65.2 84.7,62.2 				"/>
				<polygon class="st9" points="79.4,145.3 73.8,142.2 73.9,62.5 79.4,65.2 				"/>
			</g>
		</g>
		<g>
			<g>
				<polygon class="st28" points="78.7,140.7 47.3,158.9 45.9,159.6 78.7,178.5 78.7,178.5 78.7,178.5 111.3,159.6 110.1,158.9 				
					"/>
				<polygon class="st7" points="31,122 45.9,159.6 78.7,178.5 78.7,149.3 80.2,147.6 33.8,120.7 				"/>
				<polygon class="st28" points="126.1,122 111.2,159.6 78.5,178.5 78.5,149.3 77,146.6 123.8,121 				"/>
				<polygon class="st28" points="78.7,94.5 31,122 78.7,149.4 78.7,149.4 78.7,149.4 126.2,121.9 				"/>
				<polygon class="st7" points="78.7,101.2 44.2,121.1 42.7,122 78.7,142.7 78.7,142.7 78.7,142.7 114.5,121.9 113.2,121.1 				"/>
				<polygon class="st29" points="114.5,121.9 113.2,121.1 78.7,101.2 78.7,101.2 78.7,142.7 78.7,142.7 78.7,142.7 78.7,142.7 				
					"/>
			</g>
			<g>
				<polygon class="st28" points="78.7,94.9 33.1,121.2 31.1,122.4 78.7,149.7 78.7,149.7 78.7,149.7 126.1,122.2 124.3,121.2 				
					"/>
				<polygon class="st29" points="9.4,67.7 31.1,122.4 78.7,149.7 78.7,107.4 80.9,104.9 13.5,65.7 				"/>
				<polygon class="st7" points="147.7,67.6 126,122.4 78.4,149.7 78.4,107.4 76.2,103.3 144.3,66.2 				"/>
				<polygon class="st28" points="78.8,27.7 9.4,67.7 78.7,107.5 78.7,107.5 78.7,107.5 147.7,67.5 				"/>
				<polygon class="st7" points="78.7,37.5 28.6,66.4 26.4,67.7 78.7,97.7 78.7,97.7 78.7,97.7 130.7,67.5 128.8,66.4 				"/>
				<polygon class="st29" points="130.7,67.5 128.8,66.4 78.7,37.5 78.7,37.5 78.7,97.7 78.7,97.7 78.7,97.7 78.7,97.7 				"/>
				<polygon class="st28" points="78.8,0 9.4,40 78.7,79.9 78.7,79.8 78.7,79.9 147.7,39.9 				"/>
				<polygon class="st7" points="78.7,9.8 28.6,38.8 26.4,40 78.7,70 78.7,70 78.7,70 130.7,39.9 128.8,38.8 				"/>
				<polygon class="st29" points="130.7,39.9 128.8,38.8 78.7,9.8 78.7,9.8 78.7,70 78.7,70 78.7,70 78.7,70 				"/>
			</g>
			<polygon class="st7" points="147.7,39.9 147.7,67.5 78.3,107.7 78.7,79.9 			"/>
			<polygon class="st29" points="9.4,40 9.4,67.7 78.3,107.5 78.7,79.9 			"/>
			<polygon class="st28" points="136.5,95.7 78.3,129.4 78.3,107.5 147.7,67.5 			"/>
			<polygon class="st7" points="20.8,96.4 78.4,129.4 78.4,107.5 9.3,67.8 			"/>
		</g>
		<polygon class="st1" points="81.8,151.5 78.5,153.3 75.2,151.7 78.5,149.7 		"/>
		<g>
			<polygon class="st3" points="28.5,130.4 78.8,159.4 78.8,155.4 28.5,126.4 			"/>
			<polygon class="st9" points="28,130.8 78.4,159.9 78.4,155.9 28,126.8 			"/>
		</g>
		<g>
			<polygon class="st9" points="125.9,129.3 79.8,155.9 79.8,159.9 125.9,133.2 			"/>
			<polygon class="st3" points="125.9,130 80.2,156.3 80.2,160.3 125.9,134 			"/>
		</g>
		<polygon class="st7" points="79.8,247.8 79.9,247.8 79.8,247.8 		"/>
		<polygon class="st29" points="79.8,247.8 79.8,247.8 79.8,247.8 79.8,247.8 		"/>
		<g>
			<polygon class="st3" points="1.5,77.4 76.3,120.6 76.3,114 1.5,70.8 			"/>
			<polygon class="st9" points="1.5,78.5 75.6,121.3 75.5,114.8 1.5,72 			"/>
		</g>
		<g>
			<polygon class="st9" points="151,72.5 79.1,114 79.1,120.6 151,79 			"/>
			<polygon class="st3" points="152.2,73 79.8,114.8 79.8,121.3 152.2,79.5 			"/>
		</g>
		<polygon class="st1" points="83.4,110.2 78,113.2 72.5,110.5 78,107.2 		"/>
		<g>
			<polygon class="st3" points="83.4,257.5 78,260.9 78,113.2 83.4,110.2 			"/>
			<polygon class="st9" points="78,260.9 72.5,257.8 72.5,110.5 78,113.2 			"/>
		</g>
		<polygon class="st9" points="5.5,218.8 0,215.5 0,69.1 5.3,71.9 		"/>
		<polygon class="st9" points="30.1,203.3 26.7,201.3 26.7,122.6 29.9,124.3 		"/>
	</g>
</g>
</svg>
