<?xml version="1.0" encoding="UTF-8" standalone="no"?>
<svg
   xmlns:dc="http://purl.org/dc/elements/1.1/"
   xmlns:cc="http://creativecommons.org/ns#"
   xmlns:rdf="http://www.w3.org/1999/02/22-rdf-syntax-ns#"
   xmlns:svg="http://www.w3.org/2000/svg"
   xmlns="http://www.w3.org/2000/svg"
   xmlns:xlink="http://www.w3.org/1999/xlink"
   xmlns:sodipodi="http://sodipodi.sourceforge.net/DTD/sodipodi-0.dtd"
   xmlns:inkscape="http://www.inkscape.org/namespaces/inkscape"
   version="1.1"
   preserveAspectRatio="xMidYMid meet"
   viewBox="0 0 640 640"
   width="640"
   height="640"
   id="svg36"
   sodipodi:docname="off_inha_blanco_on.svg"
   inkscape:version="0.92.5 (2060ec1f9f, 2020-04-08)">
  <metadata
     id="metadata40">
    <rdf:RDF>
      <cc:Work
         rdf:about="">
        <dc:format>image/svg+xml</dc:format>
        <dc:type
           rdf:resource="http://purl.org/dc/dcmitype/StillImage" />
        <dc:title></dc:title>
      </cc:Work>
    </rdf:RDF>
  </metadata>
  <sodipodi:namedview
     pagecolor="#ffffff"
     bordercolor="#666666"
     borderopacity="1"
     objecttolerance="10"
     gridtolerance="10"
     guidetolerance="10"
     inkscape:pageopacity="0"
     inkscape:pageshadow="2"
     inkscape:window-width="1920"
     inkscape:window-height="1017"
     id="namedview38"
     showgrid="false"
     inkscape:zoom="0.36875"
     inkscape:cx="1584.1125"
     inkscape:cy="320"
     inkscape:window-x="-8"
     inkscape:window-y="-8"
     inkscape:window-maximized="1"
     inkscape:current-layer="svg36" />
  <defs
     id="defs6">
    <path
       d="M0 0L640 0L640 647.32L0 647.32L0 0Z"
       id="a2TDSIHYqh" />
    <path
       d="M525.62 271.72C525.62 254.77 512.06 243.21 498.61 250.67C480.32 260.83 265.76 385.61 249.96 394.09C233.43 402.91 229.19 419.1 247.96 430.52C269.16 443.48 481.37 581.71 494.02 588.89C509.75 597.93 525.62 583.15 525.62 567.77C525.62 538.16 525.62 301.33 525.62 271.72Z"
       id="cFmJ2qnhY" />
    <path
       d="M344.57 21L356.66 22.23L368.6 23.94L380.38 26.11L392.01 28.74L403.46 31.81L414.72 35.32L425.79 39.26L436.66 43.62L447.32 48.38L457.75 53.54L467.95 59.09L477.91 65.02L487.62 71.31L497.06 77.96L506.24 84.97L515.13 92.31L523.73 99.98L532.03 107.97L540.02 116.27L547.7 124.88L555.04 133.77L562.04 142.94L568.7 152.39L574.99 162.1L580.92 172.05L586.46 182.26L591.62 192.69L596.39 203.34L600.74 214.21L604.68 225.28L608.19 236.55L611.27 248L613.89 259.62L616.07 271.41L617.77 283.35L619 295.44L619.75 307.66L620 320.01L619.75 332.35L619 344.58L617.77 356.66L616.07 368.6L613.89 380.39L611.27 392.01L608.19 403.46L604.68 414.73L600.74 425.8L596.39 436.67L591.62 447.32L586.46 457.76L580.92 467.96L574.99 477.92L568.7 487.62L562.04 497.07L555.04 506.24L547.7 515.13L540.02 523.74L532.03 532.04L523.73 540.03L515.13 547.7L506.24 555.04L497.06 562.05L487.62 568.7L477.91 575L467.95 580.92L457.75 586.47L447.32 591.63L436.66 596.39L425.79 600.75L414.72 604.69L403.46 608.2L392.01 611.27L380.38 613.9L368.6 616.07L356.66 617.78L344.57 619.01L332.35 619.75L320 620L307.65 619.75L295.43 619.01L283.34 617.78L271.4 616.07L259.62 613.9L247.99 611.27L236.54 608.2L225.28 604.69L214.21 600.75L203.34 596.39L192.68 591.63L182.25 586.47L172.05 580.92L162.09 575L152.38 568.7L142.94 562.05L133.76 555.04L124.87 547.7L116.27 540.03L107.97 532.04L99.98 523.74L92.3 515.13L84.96 506.24L77.96 497.07L71.3 487.62L65.01 477.92L59.08 467.96L53.54 457.76L48.38 447.32L43.61 436.67L39.26 425.8L35.32 414.73L31.81 403.46L28.73 392.01L26.11 380.39L23.93 368.6L22.23 356.66L21 344.58L20.25 332.35L20 320.01L20.25 307.66L21 295.44L22.23 283.35L23.93 271.41L26.11 259.62L28.73 248L31.81 236.55L35.32 225.28L39.26 214.21L43.61 203.34L48.38 192.69L53.54 182.26L59.08 172.05L65.01 162.1L71.3 152.39L77.96 142.94L84.96 133.77L92.3 124.88L99.98 116.27L107.97 107.97L116.27 99.98L124.87 92.31L133.76 84.97L142.94 77.96L152.38 71.31L162.09 65.02L172.05 59.09L182.25 53.54L192.68 48.38L203.34 43.62L214.21 39.26L225.28 35.32L236.54 31.81L247.99 28.74L259.62 26.11L271.4 23.94L283.34 22.23L295.43 21L307.65 20.26L320 20L332.35 20.26L344.57 21ZM303.22 115.82L294.97 116.66L286.81 117.83L278.76 119.31L270.83 121.11L263.01 123.21L255.32 125.6L247.76 128.29L240.33 131.27L233.06 134.52L225.93 138.04L218.97 141.83L212.17 145.88L205.54 150.18L199.09 154.72L192.82 159.5L186.75 164.52L180.88 169.75L175.21 175.21L169.75 180.88L164.51 186.76L159.5 192.83L154.72 199.09L150.17 205.54L145.87 212.17L141.83 218.97L138.04 225.94L134.51 233.06L131.26 240.34L128.29 247.76L125.6 255.32L123.2 263.01L121.1 270.83L119.31 278.77L117.82 286.82L116.66 294.97L115.82 303.23L115.31 311.57L115.14 320.01L115.31 328.44L115.82 336.78L116.66 345.04L117.82 353.19L119.31 361.24L121.1 369.18L123.2 377L125.6 384.69L128.29 392.25L131.26 399.67L134.51 406.95L138.04 414.07L141.83 421.04L145.87 427.84L150.17 434.47L154.72 440.92L159.5 447.18L164.51 453.25L169.75 459.13L175.21 464.8L180.88 470.26L186.75 475.49L192.82 480.51L199.09 485.29L205.54 489.83L212.17 494.13L218.97 498.18L225.93 501.97L233.06 505.49L240.33 508.74L247.76 511.72L255.32 514.41L263.01 516.8L270.83 518.9L278.76 520.7L286.81 522.18L294.97 523.35L303.22 524.19L311.57 524.7L320 524.87L328.43 524.7L336.78 524.19L345.03 523.35L353.19 522.18L361.24 520.7L369.17 518.9L376.99 516.8L384.68 514.41L392.24 511.72L399.67 508.74L406.94 505.49L414.07 501.97L421.03 498.18L427.83 494.13L434.46 489.83L440.91 485.29L447.18 480.51L453.25 475.49L459.12 470.25L464.79 464.8L470.25 459.13L475.49 453.25L480.5 447.18L485.28 440.92L489.83 434.47L494.13 427.84L498.17 421.04L501.96 414.07L505.49 406.95L508.74 399.67L511.71 392.25L514.4 384.69L516.8 377L518.9 369.18L520.69 361.24L522.18 353.19L523.34 345.04L524.18 336.78L524.69 328.44L524.86 320.01L524.69 311.57L524.18 303.23L523.34 294.97L522.18 286.82L520.69 278.77L518.9 270.83L516.8 263.01L514.4 255.32L511.71 247.76L508.74 240.34L505.49 233.06L501.96 225.94L498.17 218.97L494.13 212.17L489.83 205.54L485.28 199.09L480.5 192.83L475.49 186.76L470.25 180.88L464.79 175.21L459.12 169.75L453.25 164.52L447.18 159.5L440.91 154.72L434.46 150.18L427.83 145.88L421.03 141.83L414.07 138.04L406.94 134.52L399.67 131.27L392.24 128.29L384.68 125.6L376.99 123.21L369.17 121.11L361.24 119.31L353.19 117.83L345.03 116.66L336.78 115.82L328.43 115.31L320 115.14L311.57 115.31L303.22 115.82Z"
       id="e2485tUixj" />
    <path
       d="M468.33 433.93C468.33 411.15 468.33 228.86 468.33 206.08C468.33 188.91 454.43 175 437.26 175C414.48 175 232.19 175 209.4 175C192.24 175 178.33 188.91 178.33 206.08C178.33 228.86 178.33 411.15 178.33 433.93C178.33 451.1 192.24 465 209.4 465C254.98 465 414.48 465 437.26 465C454.43 465 468.33 451.1 468.33 433.93Z"
       id="bfJtKfTg5" />
  </defs>
  <use
     xlink:href="#e2485tUixj"
     id="use18"
     style="opacity:1;fill-opacity:0"
     x="0"
     y="0"
     width="100%"
     height="100%"
     transform="matrix(0.96666667,0,0,0.96666667,10.666667,10.666667)" />
  <use
     height="100%"
     width="100%"
     y="0"
     x="0"
     style="opacity:1;fill:#ff0000;fill-opacity:1"
     id="use24"
     xlink:href="#bfJtKfTg5"
     transform="matrix(0.96666667,0,0,0.96666667,10.666667,10.666667)" />
  <use
     xlink:href="#bfJtKfTg5"
     id="use26"
     style="opacity:1;fill-opacity:0"
     x="0"
     y="0"
     width="100%"
     height="100%"
     transform="matrix(0.96666667,0,0,0.96666667,10.666667,10.666667)" />
  <path
     style="fill:#7d7d7d;fill-opacity:1;stroke-width:0.9666667"
     d="m 343.75098,30.966668 11.687,1.189 11.542,1.653 11.38733,2.097667 11.24233,2.542333 11.06834,2.967667 10.88466,3.393 10.701,3.808666 10.50767,4.214667 10.30467,4.601333 10.08233,4.988001 9.86,5.365 9.628,5.732333 9.38633,6.080333 9.12534,6.428334 8.874,6.776333 8.59366,7.095333 8.31334,7.414332 8.02333,7.72367 7.72367,8.02333 7.424,8.323 7.09533,8.59367 6.76667,8.86433 6.438,9.135 6.08033,9.38634 5.73233,9.61833 5.35534,9.86967 4.988,10.08233 4.611,10.295 4.205,10.50767 3.80866,10.701 3.393,10.89433 2.97734,11.06833 2.53266,11.23267 2.10734,11.397 1.64333,11.542 1.189,11.687 0.725,11.81267 0.24167,11.93833 -0.24167,11.92867 -0.725,11.82233 -1.189,11.67733 -1.64333,11.542 -2.10734,11.397 -2.53266,11.23267 -2.97734,11.06833 -3.393,10.89434 -3.80866,10.701 -4.205,10.50766 -4.611,10.295 -4.988,10.092 -5.35534,9.86 -5.73233,9.628 -6.08033,9.37667 -6.438,9.135 -6.76667,8.86433 -7.09533,8.59367 -7.424,8.323 -7.72367,8.02333 -8.02333,7.72367 -8.31334,7.41433 -8.59366,7.09534 -8.874,6.77633 -9.12534,6.42833 -9.38633,6.09 -9.628,5.72267 -9.86,5.365 -10.08233,4.988 -10.30467,4.60133 -10.50767,4.21467 -10.701,3.80867 -10.88466,3.393 -11.06834,2.96766 -11.24233,2.54234 -11.38733,2.09766 -11.542,1.653 -11.687,1.189 -11.81267,0.71534 -11.93833,0.24166 -11.93834,-0.24166 -11.81266,-0.71534 -11.687,-1.189 -11.542,-1.653 -11.38734,-2.09766 -11.24233,-2.54234 -11.06833,-2.96766 -10.88467,-3.393 -10.701,-3.80867 -10.50767,-4.21467 -10.30466,-4.60133 -10.08234,-4.988 -9.86,-5.365 -9.628,-5.72267 -9.38633,-6.09 -9.12533,-6.42833 -8.874,-6.77633 -8.59367,-7.09534 -8.31333,-7.41433 -8.02334,-7.72367 -7.72366,-8.02333 -7.424004,-8.323 -7.095334,-8.59367 -6.766666,-8.86433 -6.438,-9.135 -6.080334,-9.37667 -5.732333,-9.628 -5.355333,-9.86 -4.988001,-10.092 -4.611,-10.295 -4.205,-10.50766 -3.808666,-10.701 -3.393,-10.89434 -2.977334,-11.06833 -2.532666,-11.23267 -2.107334,-11.397 -1.643333,-11.542 -1.189,-11.67733 -0.725,-11.82233 -0.241667,-11.92867 0.241667,-11.93833 0.725,-11.81267 1.189,-11.687 1.643333,-11.542 2.107334,-11.397 2.532666,-11.23267 2.977334,-11.06833 3.393,-10.89433 3.808666,-10.701 4.205,-10.50767 4.611,-10.295 4.988001,-10.08233 5.355333,-9.86967 5.732333,-9.61833 6.080334,-9.38634 6.438,-9.135 6.766666,-8.86433 7.095334,-8.59367 7.424004,-8.323 7.72366,-8.02333 8.02334,-7.72367 8.31333,-7.414332 8.59367,-7.095333 8.874,-6.776333 9.12533,-6.428334 9.38633,-6.080333 9.628,-5.732333 9.86,-5.365 10.08234,-4.988001 10.30466,-4.601333 10.50767,-4.214667 10.701,-3.808666 10.88467,-3.393 11.06833,-2.967667 11.24233,-2.542333 11.38734,-2.097667 11.542,-1.653 11.687,-1.189 11.81266,-0.715333 11.93834,-0.251334 11.93833,0.251334 z m -39.97167,91.659332 -7.975,0.812 -7.888,1.131 -7.78167,1.43067 -7.66566,1.74 -7.55934,2.03 -7.43366,2.31033 -7.308,2.60034 -7.18234,2.88066 -7.02766,3.14167 -6.89234,3.40267 -6.728,3.66366 -6.57333,3.915 -6.409,4.15667 -6.235,4.38867 -6.061,4.62066 -5.86767,4.85267 -5.67433,5.05567 -5.481,5.278 -5.278,5.481 -5.06533,5.684 -4.843,5.86766 -4.62067,6.05134 -4.39833,6.235 -4.15667,6.409 -3.90533,6.57333 -3.66367,6.73767 -3.41233,6.88266 -3.14167,7.03734 -2.871,7.17266 -2.60033,7.308 -2.32,7.43367 -2.03,7.55933 -1.73034,7.67534 -1.44033,7.78166 -1.12133,7.87834 -0.812,7.98466 -0.493,8.062 -0.16434,8.15867 0.16434,8.149 0.493,8.062 0.812,7.98467 1.12133,7.87833 1.44033,7.78167 1.73034,7.67533 2.03,7.55933 2.32,7.43367 2.60033,7.308 2.871,7.17267 3.14167,7.03733 3.41233,6.88267 3.66367,6.73766 3.90533,6.57334 4.15667,6.409 4.39833,6.235 4.62067,6.05133 4.843,5.86767 5.06533,5.684 5.278,5.481 5.481,5.278 5.67433,5.05566 5.86767,4.85267 6.061,4.62067 6.235,4.38866 6.409,4.15667 6.57333,3.915 6.728,3.66367 6.89234,3.40266 7.02766,3.14167 7.18234,2.88067 7.308,2.60033 7.43366,2.31033 7.55934,2.03 7.66566,1.74 7.78167,1.43067 7.888,1.131 7.975,0.812 8.07167,0.493 8.149,0.16433 8.149,-0.16433 8.07166,-0.493 7.975,-0.812 7.888,-1.131 7.78167,-1.43067 7.66567,-1.74 7.55933,-2.03 7.43367,-2.31033 7.308,-2.60033 7.18233,-2.88067 7.02767,-3.14167 6.89233,-3.40266 6.728,-3.66367 6.57333,-3.915 6.409,-4.15667 6.235,-4.38866 6.061,-4.62067 5.86767,-4.85267 5.67433,-5.06533 5.481,-5.26833 5.278,-5.481 5.06534,-5.684 4.843,-5.86767 4.62066,-6.05133 4.39834,-6.235 4.15666,-6.409 3.90534,-6.57334 3.66366,-6.73766 3.41234,-6.88267 3.14166,-7.03733 2.871,-7.17267 2.60034,-7.308 2.32,-7.43367 2.03,-7.55933 1.73033,-7.67533 1.44033,-7.78167 1.12134,-7.87833 0.812,-7.98467 0.493,-8.062 0.16433,-8.149 -0.16433,-8.15867 -0.493,-8.062 -0.812,-7.98466 -1.12134,-7.87834 -1.44033,-7.78166 -1.73033,-7.67534 -2.03,-7.55933 -2.32,-7.43367 -2.60034,-7.308 -2.871,-7.17266 -3.14166,-7.03734 -3.41234,-6.88266 -3.66366,-6.73767 -3.90534,-6.57333 -4.15666,-6.409 -4.39834,-6.235 -4.62066,-6.05134 -4.843,-5.86766 -5.06534,-5.684 -5.278,-5.481 -5.481,-5.278 -5.67433,-5.05567 -5.86767,-4.85267 -6.061,-4.62066 -6.235,-4.38867 -6.409,-4.15667 -6.57333,-3.915 -6.728,-3.66366 -6.89233,-3.40267 -7.02767,-3.14167 -7.18233,-2.88066 -7.308,-2.60034 -7.43367,-2.31033 -7.55933,-2.03 -7.66567,-1.74 -7.78167,-1.43067 -7.888,-1.131 -7.975,-0.812 -8.07166,-0.493 -8.149,-0.16433 -8.149,0.16433 z"
     id="use7"
     inkscape:connector-curvature="0" />
  <path
     style="fill:#7d7d7d;fill-opacity:1;fill-rule:nonzero;stroke:#7d7d7d;stroke-width:9.01408482;stroke-linecap:round;stroke-linejoin:round;stroke-miterlimit:4;stroke-dasharray:none;stroke-opacity:1"
     d="M 4.5070424,4.5070376 V 635.49296 H 635.49291 V 4.5070376 Z M 18.468342,17.306338 H 621.53158 V 622.6919 H 18.468342 Z"
     id="rect831"
     inkscape:connector-curvature="0" />
</svg>
