<?xml version="1.0" encoding="utf-8"?>
<!-- Generator: Adobe Illustrator 23.0.3, SVG Export Plug-In . SVG Version: 6.00 Build 0)  -->
<svg version="1.1" xmlns="http://www.w3.org/2000/svg" xmlns:xlink="http://www.w3.org/1999/xlink" x="0px" y="0px"
	 viewBox="0 0 95.8 79.9" style="enable-background:new 0 0 95.8 79.9;" xml:space="preserve">
<style type="text/css">
	.st0{fill-rule:evenodd;clip-rule:evenodd;fill:#751518;}
	.st1{fill:#CC5261;}
	.st2{fill:#BD1622;}
	.st3{fill-rule:evenodd;clip-rule:evenodd;fill:#BD1622;}
	.st4{fill:#D6253B;}
	.st5{clip-path:url(#SVGID_2_);fill:#CC5261;}
	.st6{fill:#751518;}
	.st7{fill-rule:evenodd;clip-rule:evenodd;fill:#006E32;}
	.st8{fill:#83C181;}
	.st9{fill:#31AA59;}
	.st10{fill-rule:evenodd;clip-rule:evenodd;fill:#31AA59;}
	.st11{fill:#3DB762;}
	.st12{clip-path:url(#SVGID_4_);fill:#83C181;}
	.st13{fill:#006E32;}
	.st14{fill-rule:evenodd;clip-rule:evenodd;fill:#868686;}
	.st15{fill:#D9D9D9;}
	.st16{fill:#CDCCCC;}
	.st17{fill-rule:evenodd;clip-rule:evenodd;fill:#CDCCCC;}
	.st18{fill:#D3D3D3;}
	.st19{fill-rule:evenodd;clip-rule:evenodd;fill:#3458A3;}
	.st20{fill:#BFC9E8;}
	.st21{fill:#9FABD8;}
	.st22{fill:#B0BCE2;}
	.st23{fill-rule:evenodd;clip-rule:evenodd;fill:#9FABD8;}
	.st24{clip-path:url(#SVGID_6_);}
	.st25{fill:#F2F1F1;}
	.st26{fill:#3458A3;}
	.st27{clip-path:url(#SVGID_8_);fill:#F2F1F1;}
	.st28{fill:#868686;}
</style>
<g id="Capa_2">
</g>
<g id="Capa_1">
	<g>
		<g>
			<path class="st7" d="M1.4,20.1C5.5,6.4,16.9-2.4,26.9,0.6c0.6,0.2,2.4,1,3.6,1.6l4.3,2.5L12.9,51.2l-4.7-2.8
				C1,43.3-2,31.8,1.4,20.1z"/>
		</g>
		
			<ellipse transform="matrix(0.2824 -0.9593 0.9593 0.2824 -9.6791 42.8347)" class="st8" cx="23.8" cy="27.9" rx="25.9" ry="18.9"/>
		<g>
			<g>
				<path class="st7" d="M37.1,19.3c0.4-1.2,1.3-2,2.2-1.7c0,0,0.2,0.1,0.3,0.1l3,1.7l-1.9,4l-3-1.8C37,21.3,36.8,20.3,37.1,19.3z"
					/>
			</g>
			<ellipse transform="matrix(0.2824 -0.9593 0.9593 0.2824 9.2476 55.3259)" class="st9" cx="41.6" cy="21.5" rx="2.3" ry="1.6"/>
		</g>
		<g>
			<g>
				<path class="st7" d="M23.7,5.9c0.4-1.2,1.3-2,2.2-1.7c0,0,0.2,0.1,0.3,0.1l3,1.7l-1.9,4l-3-1.8C23.7,7.9,23.4,6.9,23.7,5.9z"/>
			</g>
			<ellipse transform="matrix(0.2824 -0.9593 0.9593 0.2824 12.5439 32.856)" class="st9" cx="28.2" cy="8" rx="2.3" ry="1.6"/>
		</g>
		<g>
			<g>
				<path class="st7" d="M7.9,40.6c0.4-1.2,1.3-2,2.2-1.7c0,0,0.2,0.1,0.3,0.1l3,1.7l-1.9,4l-3-1.8C7.8,42.7,7.6,41.7,7.9,40.6z"/>
			</g>
			
				<ellipse transform="matrix(0.2824 -0.9593 0.9593 0.2824 -32.1948 42.6382)" class="st9" cx="12.4" cy="42.8" rx="2.3" ry="1.6"/>
		</g>
		<g>
			<g>
				<path class="st7" d="M23,48.5c0.4-1.2,1.3-2,2.2-1.7c0,0,0.2,0.1,0.3,0.1l3,1.7l-1.9,4l-3-1.8C22.9,50.6,22.7,49.6,23,48.5z"/>
			</g>
			
				<ellipse transform="matrix(0.2824 -0.9593 0.9593 0.2824 -28.9426 62.7752)" class="st9" cx="27.5" cy="50.7" rx="2.3" ry="1.6"/>
		</g>
		<g>
			<g>
				<path class="st7" d="M33.6,36.9c0.4-1.2,1.3-2,2.2-1.7c0,0,0.2,0.1,0.3,0.1l3,1.7l-1.9,4l-3-1.8C33.6,38.9,33.3,37.9,33.6,36.9z
					"/>
			</g>
			
				<ellipse transform="matrix(0.2824 -0.9593 0.9593 0.2824 -10.1383 64.6583)" class="st9" cx="38.1" cy="39.1" rx="2.3" ry="1.6"/>
		</g>
		<g>
			<path class="st7" d="M14.2,24.9c2.6-8.7,9.8-14.2,16.1-12.4c0.3,0.1,1.5,0.6,2.3,1l29.7,16L48.4,58.9L18.5,42.7
				C14,39.6,12,32.3,14.2,24.9z"/>
		</g>
		<g>
			<g>
				<path class="st7" d="M22.5,30.5c3.8-13,14.6-21.3,24.1-18.5c0.5,0.2,2.2,0.9,3.4,1.5l4.5,2.6L33.7,60.1l-4.8-2.9
					C22.1,52.5,19.3,41.6,22.5,30.5z"/>
			</g>
			<ellipse transform="matrix(0.2824 -0.9593 0.9593 0.2824 -4.9576 69.5739)" class="st8" cx="44" cy="38.1" rx="24.5" ry="17.9"/>
			<g>
				<path class="st10" d="M31.3,34.6c3.4-11.6,13-19,21.5-16.5c0.5,0.1,2.9,1.3,2.9,1.3c0,0,0.1,0.1,0.1,0.1l32.8,19.4L70,78
					L36.9,58.4C30.9,54.2,28.3,44.5,31.3,34.6z"/>
			</g>
			
				<ellipse transform="matrix(0.2824 -0.9593 0.9593 0.2824 0.8319 117.9246)" class="st11" cx="79.2" cy="58.4" rx="21.9" ry="16"/>
			<ellipse transform="matrix(0.2824 -0.9593 0.9593 0.2824 1.3919 121.8127)" class="st8" cx="82.1" cy="60" rx="13.4" ry="9.7"/>
			<g>
				<defs>
					<path id="SVGID_3_" d="M88.4,38.8L88.4,38.8L88.4,38.8C88.5,38.8,88.5,38.8,88.4,38.8z M63.9,53.9c3.4-11.6,13-19,21.5-16.5
						c1,0.3,1.9,0.7,2.8,1.3L55.8,19.4c0,0-0.1-0.1-0.1-0.1c0,0-2.4-1.1-2.9-1.3c-8.5-2.5-18.1,4.9-21.5,16.5
						c-2.9,9.9-0.4,19.6,5.7,23.8L70,78l0,0C63.7,74,60.9,64,63.9,53.9z"/>
				</defs>
				<clipPath id="SVGID_2_">
					<use xlink:href="#SVGID_3_"  style="overflow:visible;"/>
				</clipPath>
				<path style="clip-path:url(#SVGID_2_);fill:#83C181;" d="M83.4,37.4c-0.1,0.2-0.3,0.3-0.5,0.3c-0.1,0-0.2,0-0.3-0.1L48.5,18
					c-0.3-0.1-0.3-0.5-0.2-0.7c0.1-0.3,0.5-0.3,0.7-0.2l34.1,19.6C83.4,36.8,83.5,37.2,83.4,37.4z M78.3,38L44.2,18.4
					c-0.3-0.1-0.6-0.1-0.7,0.2c-0.1,0.3-0.1,0.6,0.2,0.7l34.1,19.6c0.1,0,0.2,0.1,0.3,0.1c0.2,0,0.4-0.1,0.5-0.3
					C78.6,38.4,78.5,38.1,78.3,38z M73.9,40L39.9,20.4c-0.3-0.1-0.6-0.1-0.7,0.2c-0.1,0.3-0.1,0.6,0.2,0.7L73.4,41
					c0.1,0,0.2,0.1,0.3,0.1c0.2,0,0.4-0.1,0.5-0.3C74.3,40.5,74.2,40.2,73.9,40z M70.9,42.7L36.8,23.1c-0.3-0.1-0.6-0.1-0.7,0.2
					c-0.1,0.3-0.1,0.6,0.2,0.7l34.1,19.6c0.1,0,0.2,0.1,0.3,0.1c0.2,0,0.4-0.1,0.5-0.3C71.2,43.2,71.1,42.9,70.9,42.7z M68.4,45.6
					L34.3,26c-0.3-0.1-0.6-0.1-0.7,0.2c-0.1,0.3-0.1,0.6,0.2,0.7l34.1,19.6c0.1,0,0.2,0.1,0.3,0.1c0.2,0,0.4-0.1,0.5-0.3
					C68.8,46.1,68.7,45.7,68.4,45.6z M31.8,30.4L65.9,50c0.1,0,0.2,0.1,0.3,0.1c0.2,0,0.4-0.1,0.5-0.3c0.1-0.3,0.1-0.6-0.2-0.7
					L32.3,29.5c-0.3-0.1-0.6-0.1-0.7,0.2C31.4,30,31.5,30.3,31.8,30.4z M30.4,34.3l34.1,19.6c0.1,0,0.2,0.1,0.3,0.1
					c0.2,0,0.4-0.1,0.5-0.3c0.1-0.3,0.1-0.6-0.2-0.7L30.9,33.4c-0.3-0.1-0.6-0.1-0.7,0.2C30,33.8,30.1,34.2,30.4,34.3z M29.4,38.7
					l34.1,19.6c0.1,0,0.2,0.1,0.3,0.1c0.2,0,0.4-0.1,0.5-0.3c0.1-0.3,0.1-0.6-0.2-0.7L29.9,37.7c-0.3-0.1-0.6-0.1-0.7,0.2
					C29,38.2,29.1,38.5,29.4,38.7z M63.5,63.3c0.2,0,0.4-0.1,0.5-0.3c0.1-0.3,0.1-0.6-0.2-0.7L29.7,42.6c-0.3-0.1-0.6-0.1-0.7,0.2
					c-0.1,0.3-0.1,0.6,0.2,0.7l34.1,19.6C63.4,63.2,63.4,63.3,63.5,63.3z M64.2,68c0.2,0,0.4-0.1,0.5-0.3c0.1-0.3,0.1-0.6-0.2-0.7
					L30.4,47.4c-0.3-0.1-0.6-0.1-0.7,0.2c-0.1,0.3-0.1,0.6,0.2,0.7L64,67.9C64.1,68,64.1,68,64.2,68z M66.4,72.4L32.3,52.8
					c-0.3-0.1-0.6-0.1-0.7,0.2c-0.1,0.3-0.1,0.6,0.2,0.7l34.1,19.6c0.1,0,0.2,0.1,0.3,0.1c0.2,0,0.4-0.1,0.5-0.3
					C66.8,72.9,66.7,72.5,66.4,72.4z"/>
			</g>
		</g>
		<g>
			<polygon class="st9" points="70,31.5 57.1,24.2 49,28.8 61.9,36.3 70,31.5 			"/>
			<polygon class="st13" points="61.9,39.5 61.9,36.3 49,28.8 49,32 			"/>
			<polygon class="st8" points="61.9,39.5 70,34.7 70,31.5 61.9,36.3 			"/>
		</g>
		<g>
			<g>
				<path class="st7" d="M8.9,21.6c0.4-1.2,1.3-2,2.2-1.7c0,0,0.2,0.1,0.3,0.1l3,1.7l-1.9,4l-3-1.8C8.8,23.6,8.6,22.6,8.9,21.6z"/>
			</g>
			<ellipse transform="matrix(0.2824 -0.9593 0.9593 0.2824 -13.1778 29.936)" class="st9" cx="13.4" cy="23.8" rx="2.3" ry="1.6"/>
		</g>
	</g>
</g>
</svg>
