<?xml version="1.0" encoding="utf-8"?>
<!-- Generator: Adobe Illustrator 23.0.4, SVG Export Plug-In . SVG Version: 6.00 Build 0)  -->
<svg version="1.1" id="Capa_1" xmlns="http://www.w3.org/2000/svg" xmlns:xlink="http://www.w3.org/1999/xlink" x="0px" y="0px"
	 viewBox="0 0 41 56.4" style="enable-background:new 0 0 41 56.4;" xml:space="preserve">
<style type="text/css">
	.st0{fill:#CDCCCC;}
	.st1{fill:#E7E6E6;}
	.st2{fill:#C6C6C5;}
	.st3{fill:#D9D9D9;}
	.st4{fill:#9FABD8;}
	.st5{fill:#3458A3;}
	.st6{fill:#264B8C;}
	.st7{fill:#BFC9E8;}
	.st8{fill:#D0D9EF;}
	.st9{fill:#B3B4B3;}
	.st10{fill:#868686;}
	.st11{fill:#636363;}
	.st12{fill:#EAEAEA;}
	.st13{fill:#BD1622;}
	.st14{fill:#751518;}
	.st15{fill:#5B1016;}
	.st16{fill:#CC5261;}
	.st17{fill:#EA6A80;}
	.st18{fill:#31AA59;}
	.st19{fill:#006E32;}
	.st20{fill:#035426;}
	.st21{fill:#6ABA82;}
	.st22{fill:#88D39C;}
</style>
<g>
	<g>
		<polygon class="st0" points="24.7,4 24.7,33.3 23,32.4 23,2.9 		"/>
		<polygon class="st1" points="23.1,32.4 23.1,3.1 21.4,4 21.4,33.5 		"/>
		<g>
			<polygon class="st2" points="4.3,46.2 4.3,16.5 2.1,17.7 2.1,47.5 			"/>
			<polygon class="st3" points="0,46.2 0,16.5 2.1,17.7 2.2,47.5 			"/>
			<polygon class="st1" points="2.1,15.2 4.3,16.5 2.1,17.7 0,16.5 			"/>
		</g>
	</g>
	<g>
		<g>
			<polygon class="st9" points="23.1,3.2 0.1,16.5 16.2,30.3 20.9,27.6 			"/>
			<polygon class="st10" points="23.1,3.2 20.9,27.6 24.6,29.7 41,13.5 			"/>
			<polygon class="st10" points="41,13.5 24.6,29.7 19.8,32.5 18,26.9 			"/>
			<polygon class="st11" points="0.1,16.5 16.1,30.4 19.8,32.5 18,26.9 			"/>
		</g>
		<g>
			<polygon class="st2" points="20.1,55.1 20.1,25.3 18,26.6 17.9,56.4 			"/>
			<polygon class="st3" points="15.8,55.1 15.8,25.3 18,26.6 18,56.4 			"/>
			<polygon class="st1" points="18,24.1 20.1,25.3 18,26.6 15.8,25.3 			"/>
		</g>
		<g>
			<polygon class="st2" points="41,43.2 41,13.5 38.9,14.7 38.8,44.5 			"/>
			<polygon class="st3" points="36.7,43.2 36.7,13.5 38.9,14.7 38.9,44.5 			"/>
			<polygon class="st1" points="38.9,12.2 41,13.5 38.9,14.7 36.7,13.5 			"/>
		</g>
		<g>
			<g>
				<polygon class="st3" points="41,10.3 41,13.5 23.1,3.2 23.1,-0.1 				"/>
			</g>
			<g>
				<polygon class="st12" points="23.1,-0.1 23.1,3.2 0.1,16.5 0.2,13.3 				"/>
			</g>
			<g>
				<polygon class="st3" points="41,10.3 41,13.5 18,26.9 18,23.6 				"/>
			</g>
			<g>
				<polygon class="st10" points="18,23.6 18,26.9 0.1,16.5 0.1,13.3 				"/>
			</g>
		</g>
	</g>
</g>
</svg>
