<?xml version="1.0" encoding="UTF-8" standalone="no"?>
<!-- Generator: Adobe Illustrator 23.0.3, SVG Export Plug-In . SVG Version: 6.00 Build 0)  -->

<svg
   xmlns:dc="http://purl.org/dc/elements/1.1/"
   xmlns:cc="http://creativecommons.org/ns#"
   xmlns:rdf="http://www.w3.org/1999/02/22-rdf-syntax-ns#"
   xmlns:svg="http://www.w3.org/2000/svg"
   xmlns="http://www.w3.org/2000/svg"
   xmlns:xlink="http://www.w3.org/1999/xlink"
   xmlns:sodipodi="http://sodipodi.sourceforge.net/DTD/sodipodi-0.dtd"
   xmlns:inkscape="http://www.inkscape.org/namespaces/inkscape"
   version="1.1"
   x="0px"
   y="0px"
   viewBox="0 0 6229.9997 6860.0002"
   xml:space="preserve"
   id="svg250"
   sodipodi:docname="bomba_rotativa_derecha_verde.svg"
   width="6230"
   height="6860"
   inkscape:version="0.92.5 (2060ec1f9f, 2020-04-08)"><metadata
   id="metadata256"><rdf:RDF><cc:Work
       rdf:about=""><dc:format>image/svg+xml</dc:format><dc:type
         rdf:resource="http://purl.org/dc/dcmitype/StillImage" /><dc:title></dc:title></cc:Work></rdf:RDF></metadata><defs
   id="defs254">
	

		
		
		
		
		
		
		
		
		
		
	
			
			
			
		
				<defs
   id="defs134">
					<path
   id="SVGID_3_"
   d="m 28.7,23.1 c -3.9,-2.3 -7,-0.6 -7.2,3.9 -0.1,2.8 -0.1,9.4 -0.1,11.6 0,4.8 3.2,10.7 7.1,13.1 1.2,0.7 2.4,1.1 3.7,1.1 2.3,0 3.6,-2.2 3.5,-5.5 0,-2.4 0,-9.8 0,-11.7 0,-4.5 -3.1,-10.1 -7,-12.5 z"
   inkscape:connector-curvature="0" />
				</defs>
				<clipPath
   id="SVGID_2_">
					<use
   xlink:href="#SVGID_3_"
   style="overflow:visible"
   id="use136"
   x="0"
   y="0"
   width="100%"
   height="100%" />
				</clipPath>
				
			<clipPath
   id="SVGID_2_-2"><use
     xlink:href="#SVGID_3_"
     style="overflow:visible"
     id="use136-2"
     x="0"
     y="0"
     width="100%"
     height="100%" /></clipPath></defs><sodipodi:namedview
   pagecolor="#ffffff"
   bordercolor="#666666"
   borderopacity="1"
   objecttolerance="10"
   gridtolerance="10"
   guidetolerance="10"
   inkscape:pageopacity="0"
   inkscape:pageshadow="2"
   inkscape:window-width="2400"
   inkscape:window-height="1316"
   id="namedview252"
   showgrid="false"
   fit-margin-top="0"
   fit-margin-left="0"
   fit-margin-right="0"
   fit-margin-bottom="0"
   inkscape:zoom="0.30407654"
   inkscape:cx="2167.6324"
   inkscape:cy="3105.6287"
   inkscape:window-x="-11"
   inkscape:window-y="-9"
   inkscape:window-maximized="1"
   inkscape:current-layer="svg250" />
<style
   type="text/css"
   id="style2">
	.st0{fill:#BFC9E8;}
	.st1{fill:#3458A3;}
	.st2{fill:#A0ADD9;}
	.st3{fill:#264B8C;}
	.st4{fill:#C0CAE9;}
	.st5{fill:#EDEDED;}
	.st6{fill:#3458A5;}
	.st7{fill:#E7E6E6;}
	.st8{fill:#999999;}
	.st9{clip-path:url(#SVGID_2_);}
	.st10{fill:#C6C6C6;}
	.st11{enable-background:new    ;}
	.st12{fill:#D1D1D1;}
	.st13{fill:#6ABA82;}
	.st14{fill:#006E32;}
	.st15{fill:#31AA59;}
	.st16{fill:#035426;}
	.st17{clip-path:url(#SVGID_4_);}
	.st18{fill:#CC5261;}
	.st19{fill:#751518;}
	.st20{fill:#BD1622;}
	.st21{fill:#5B1016;}
	.st22{clip-path:url(#SVGID_6_);}
	.st23{fill:#D9D9D9;}
	.st24{fill:#868686;}
	.st25{fill:#B3B4B3;}
	.st26{fill:#636363;}
	.st27{clip-path:url(#SVGID_8_);}
</style>
<g
   id="Capa_2"
   transform="translate(-6.6,6791.4)">
</g>
<g
   id="g19"
   transform="matrix(100,0,0,100,-660,0)">
			<g
   id="g7">
				<polygon
   class="st13"
   points="32.4,1.2 58.1,15.8 60.5,14.4 34.9,0 "
   id="polygon5"
   style="fill:#6aba82" />
			</g>
			<g
   id="g17">
				<g
   id="g11">
					<polygon
   class="st14"
   points="58,15.7 58,58.5 58.1,58.6 60.6,57.2 60.6,14.4 58.1,15.8 "
   id="polygon9"
   style="fill:#006e32" />
				</g>
				<g
   id="g15">
					<polygon
   class="st15"
   points="58.1,15.8 32.4,1.2 32.4,43.9 58.1,58.6 "
   id="polygon13"
   style="fill:#31aa59" />
				</g>
			</g>
		</g><g
   id="g37"
   transform="matrix(100,0,0,100,-660,0)">
			<g
   id="g27">
				<path
   class="st15"
   d="m 6.6,23.5 c 0,-4.5 3.2,-10.1 7.1,-12.4 2.1,-1.2 4,-1.3 5.4,-0.3 L 20.9,11.9 10.7,29.3 8.8,28.1 C 7.4,27.5 6.6,25.9 6.6,23.5 Z"
   id="path21"
   inkscape:connector-curvature="0"
   style="fill:#31aa59" />
				<g
   id="g25">
					<path
   class="st14"
   d="m 15.7,12.3 c -4,2.3 -7.2,7.8 -7.1,12.4 0,4.5 3.2,6.4 7.2,4.1 3.9,-2.3 7.1,-7.8 7.1,-12.4 0,-4.5 -3.2,-6.4 -7.2,-4.1 z"
   id="path23"
   inkscape:connector-curvature="0"
   style="fill:#006e32" />
				</g>
			</g>
			<g
   id="g35">
				<path
   class="st13"
   d="m 10.4,24.5 c 0,-3.8 2.7,-8.4 6,-10.3 1.8,-1 3.4,-1 4.5,-0.3 L 31.3,19.7 23,34.5 12.3,28.2 c -1.2,-0.4 -1.9,-1.7 -1.9,-3.7 z"
   id="path29"
   inkscape:connector-curvature="0"
   style="fill:#6aba82" />
				<g
   id="g33">
					<path
   class="st3"
   d="m 27.1,20.4 c -3.3,1.9 -6,6.5 -6,10.3 0,3.8 2.7,5.3 6,3.4 3.3,-1.9 6,-6.5 5.9,-10.3 0.1,-3.8 -2.6,-5.3 -5.9,-3.4 z"
   id="path31"
   inkscape:connector-curvature="0"
   style="fill:#264b8c" />
				</g>
			</g>
		</g><g
   id="g71"
   transform="matrix(100,0,0,100,-660,0)">
			<g
   id="g53">
				<g
   id="g41">
					<polygon
   class="st13"
   points="28.7,57.6 44.1,66.4 55,60.1 39.8,51.4 "
   id="polygon39"
   style="fill:#6aba82" />
				</g>
				<g
   id="g51">
					<g
   id="g45">
						<polygon
   class="st14"
   points="43.9,66.3 43.9,68.5 44.1,68.6 55.1,62.2 55.1,60 44.1,66.4 "
   id="polygon43"
   style="fill:#006e32" />
					</g>
					<g
   id="g49">
						<polygon
   class="st14"
   points="44.1,66.4 28.7,57.5 28.7,59.7 44.1,68.6 "
   id="polygon47"
   style="fill:#006e32" />
					</g>
				</g>
			</g>
			<g
   id="g69">
				<g
   id="g57">
					<polygon
   class="st13"
   points="13.6,48.8 28.9,57.7 39.9,51.3 24.7,42.7 "
   id="polygon55"
   style="fill:#6aba82" />
				</g>
				<g
   id="g67">
					<g
   id="g61">
						<polygon
   class="st14"
   points="28.8,57.6 28.8,59.7 28.9,59.9 39.9,53.5 39.9,51.3 28.9,57.7 "
   id="polygon59"
   style="fill:#006e32" />
					</g>
					<g
   id="g65">
						<polygon
   class="st14"
   points="28.9,57.7 13.5,48.8 13.5,50.9 28.9,59.9 "
   id="polygon63"
   style="fill:#006e32" />
					</g>
				</g>
			</g>
		</g><g
   id="g77"
   transform="matrix(100,0,0,100,-660,0)">
			<polygon
   class="st14"
   points="31.9,57.2 31.9,59.4 32.1,59.5 43,53.1 43,51 32.1,57.3 "
   id="polygon73"
   style="fill:#006e32" />
			<polygon
   class="st15"
   points="31.9,59.4 26.4,56.3 26.4,54.1 31.9,57.2 "
   id="polygon75"
   style="fill:#31aa59" />
		</g><path
   class="st13"
   d="M 1510,1700 2900,890 v 10 c 200,-110 480,-80 780,90 550,320 1010,1030 1110,1690 l -1410,790 v 0 C 3300,2950 2990,2400 2600,2030 l -120,-40 z"
   id="path79"
   inkscape:connector-curvature="0"
   style="fill:#6aba82;stroke-width:100" /><path
   class="st16"
   d="m 4540,4970 -1430,820 290,-540 1400,-800 c 10,-10 -20,350 -260,520 z"
   id="path81"
   inkscape:connector-curvature="0"
   style="fill:#035426;stroke-width:100" /><g
   id="g93"
   transform="matrix(100,0,0,100,-660,0)">
			<g
   id="g85">
				<path
   class="st15"
   d="M 29.5,17.9 C 24,14.7 19.4,16.5 18.4,21.9 17,22 16.1,23.2 16.1,25.2 v 8.6 c 0,1.9 0.9,4.1 2.2,5.8 0.8,6.7 5.5,14.2 11.2,17.4 1.9,1.1 3.9,1.7 5.7,1.7 3.1,0 5.2,-2.4 5.6,-6.2 1.3,-0.2 2.1,-1.4 2.1,-3.2 v -8.5 c 0,-2 -0.9,-4.2 -2.3,-5.9 -1.1,-6.8 -5.7,-13.8 -11.1,-17 z"
   id="path83"
   inkscape:connector-curvature="0"
   style="fill:#31aa59" />
			</g>
			<g
   id="g91">
				<g
   id="g89">
					<path
   class="st5"
   d="M 28.7,20.7 C 23.9,18 20.1,20 19.8,25.3 18.7,24.7 17.7,25.2 17.7,26.6 v 8.6 c 0,1.3 0.9,2.9 2,3.6 0,5.6 3.9,12.5 8.8,15.3 1.5,0.8 3,1.3 4.6,1.3 2.8,0 4.5,-2.6 4.3,-6.4 1.1,0.6 2.1,0 2.1,-1.3 v -8.6 c 0,-1.3 -0.9,-2.9 -2.1,-3.7 C 37.3,30 33.5,23.5 28.7,20.7 Z"
   id="path87"
   inkscape:connector-curvature="0"
   style="fill:#ededed" />
				</g>
			</g>
		</g><g
   id="g97"
   transform="matrix(100,0,0,100,-660,0)">
			<path
   class="st14"
   d="m 42.2,51.7 c 0.4,-0.6 0.6,-1.3 0.6,-2.4 v -8.7 c 0,-2 -0.9,-4.3 -2.3,-6 l 14,-8.1 c 1.4,1.7 2.4,4 2.4,6 v 8.7 c 0,1.9 -0.8,3.1 -2.1,3.3 l -12.6,7.3 z"
   id="path95"
   inkscape:connector-curvature="0"
   style="fill:#006e32" />
		</g><g
   id="g119"
   transform="matrix(100,0,0,100,-660,0)">
			<g
   id="g105">
				<path
   class="st15"
   d="m 44.1,43 c 0,-3.8 2.7,-8.4 6,-10.3 1.8,-1 3.4,-1 4.5,-0.3 L 65,38.2 56.7,53 46,46.7 C 44.8,46.2 44.1,44.9 44.1,43 Z"
   id="path99"
   inkscape:connector-curvature="0"
   style="fill:#31aa59" />
				<g
   id="g103">
					<path
   class="st3"
   d="m 60.8,38.8 c -3.3,1.9 -6,6.5 -6,10.3 0,3.8 2.7,5.3 6,3.4 3.3,-1.9 6,-6.5 5.9,-10.3 0.1,-3.8 -2.6,-5.3 -5.9,-3.4 z"
   id="path101"
   inkscape:connector-curvature="0"
   style="fill:#264b8c" />
				</g>
			</g>
			<g
   id="g117">
				<path
   class="st13"
   d="m 52.6,49.1 c 0,-4.5 3.2,-10.1 7.1,-12.4 2.1,-1.2 4,-1.3 5.4,-0.3 l 1.7,1 -10.1,17.5 -1.9,-1.2 C 53.4,53 52.6,51.4 52.6,49.1 Z"
   id="path107"
   inkscape:connector-curvature="0"
   style="fill:#6aba82" />
				<g
   id="g111">
					<path
   class="st14"
   d="m 61.7,37.9 c -4,2.3 -7.2,7.8 -7.1,12.4 0,4.5 3.2,6.4 7.2,4.1 3.9,-2.3 7.1,-7.8 7.1,-12.4 0,-4.6 -3.3,-6.4 -7.2,-4.1 z"
   id="path109"
   inkscape:connector-curvature="0"
   style="fill:#006e32" />
				</g>
				<g
   id="g115">
					<path
   class="st7"
   d="m 61.7,40.4 c -2.7,1.6 -4.9,5.4 -4.9,8.5 0,3.1 2.2,4.4 4.9,2.8 2.7,-1.6 4.9,-5.4 4.9,-8.5 0,-3.1 -2.2,-4.3 -4.9,-2.8 z"
   id="path113"
   inkscape:connector-curvature="0"
   style="fill:#e7e6e6" />
				</g>
			</g>
		</g><g
   id="g125"
   transform="matrix(100,0,0,100,-660,0)">
				<g
   id="g123">
					<path
   style="fill:#ededed"
   inkscape:connector-curvature="0"
   id="path121"
   d="M 28.7,20.7 C 23.9,18 20.1,20 19.8,25.3 c -0.1,3.3 -0.1,11 -0.1,13.5 0,5.6 3.9,12.5 8.8,15.3 1.5,0.8 3,1.3 4.6,1.3 2.8,0 4.5,-2.6 4.3,-6.4 0.1,-2.8 0.1,-11.4 0,-13.6 C 37.3,30 33.5,23.5 28.7,20.7 Z"
   class="st5" />
				</g>
			</g><g
   id="g131"
   transform="matrix(100,0,0,100,-660,0)">
				<g
   id="g129">
					<path
   style="fill:#999999"
   inkscape:connector-curvature="0"
   id="path127"
   d="m 28.7,23.1 c -3.9,-2.3 -7,-0.6 -7.2,3.9 -0.1,2.8 -0.1,9.4 -0.1,11.6 0,4.8 3.2,10.7 7.1,13.1 1.2,0.7 2.4,1.1 3.7,1.1 2.3,0 3.6,-2.2 3.5,-5.5 0,-2.4 0,-9.8 0,-11.7 0,-4.5 -3.1,-10.1 -7,-12.5 z"
   class="st8" />
				</g>
			</g><g
   class="st9"
   clip-path="url(#SVGID_2_)"
   id="g241"
   transform="matrix(100,0,0,100,-660,0)"
   style="fill:#c6c6c6;fill-opacity:1">
					<g
   id="g1669"><g
     style="fill:#c6c6c6;fill-opacity:1"
     id="g143">
						<g
   style="fill:#c6c6c6;fill-opacity:1"
   id="g141">
							<path
   inkscape:connector-curvature="0"
   id="path139"
   d="m 30.4,23.1 c -1.618423,-1.008627 -3.964981,-1.572347 -5.55614,-0.210191 -1.661118,1.444325 -1.681827,3.819304 -1.687068,5.849074 -0.03504,3.590344 -0.102802,7.183773 -0.0199,10.772885 0.424106,4.224659 2.494933,8.283483 5.638305,11.133154 1.640062,1.430565 3.917331,2.553365 6.128162,1.998141 1.904426,-0.676774 2.470415,-2.917803 2.499084,-4.737472 -0.01709,-4.243252 0.02239,-8.487838 -0.02025,-12.730557 C 37.028184,30.976863 34.947522,26.94578 31.816406,24.141602 31.37159,23.759234 30.899691,23.407579 30.4,23.1 Z"
   style="fill:#c6c6c6;fill-opacity:1" />
						</g>
					</g></g>
					<g
   id="g229"
   style="fill:#c6c6c6;fill-opacity:1">
						<g
   class="st11"
   id="g157"
   style="fill:#c6c6c6;fill-opacity:1;enable-background:new">
							<g
   id="g147"
   style="fill:#c6c6c6;fill-opacity:1">
								<path
   style="fill:#c6c6c6;fill-opacity:1"
   d="m 29.5,22.8 c -0.433333,-0.266667 -0.866667,-0.533333 -1.3,-0.8 0,3.866667 0,7.733333 0,11.6 0.433333,0.233333 0.866667,0.466667 1.3,0.7 0,-3.833333 0,-7.666667 0,-11.5 z"
   id="polygon145"
   inkscape:connector-curvature="0" />
							</g>
							<g
   id="g151"
   style="fill:#c6c6c6;fill-opacity:1">
								<path
   style="fill:#c6c6c6;fill-opacity:1"
   d="m 29.5,22.8 c 0,3.833333 0,7.666667 0,11.5 0.365891,-0.214559 0.869333,-0.349294 0.7,-0.874456 0,-3.675181 0,-7.350363 0,-11.025544 -0.233333,0.133333 -0.466667,0.266667 -0.7,0.4 z"
   id="polygon149"
   inkscape:connector-curvature="0" />
							</g>
							<g
   id="g155"
   style="fill:#c6c6c6;fill-opacity:1">
								<path
   style="fill:#c6c6c6;fill-opacity:1"
   d="m 28.2,22 c 0.433333,0.266667 0.866667,0.533333 1.3,0.8 0.361225,-0.211952 0.994925,-0.419474 0.295926,-0.648661 -0.358068,-0.114628 -0.70899,-0.66889 -1.072473,-0.450455 C 28.548969,21.800589 28.374484,21.900295 28.2,22 Z"
   id="polygon153"
   inkscape:connector-curvature="0" />
							</g>
						</g>
						
						<g
   class="st11"
   id="g185"
   style="fill:#c6c6c6;fill-opacity:1;enable-background:new">
							<g
   id="g175"
   style="fill:#c6c6c6;fill-opacity:1">
								<path
   style="fill:#c6c6c6;fill-opacity:1"
   d="m 37.5,33.7 c -0.3,-0.5 -0.6,-1 -0.9,-1.5 -1.966667,1.1 -3.933333,2.2 -5.9,3.3 0.3,0.533333 0.6,1.066667 0.9,1.6 1.966667,-1.133333 3.933333,-2.266667 5.9,-3.4 z"
   id="polygon173"
   inkscape:connector-curvature="0" />
							</g>
							<g
   id="g179"
   style="fill:#c6c6c6;fill-opacity:1">
								<path
   style="fill:#c6c6c6;fill-opacity:1"
   d="m 30.7,35.5 c 2.199114,-1.234901 4.40683,-2.454586 6.6,-3.7 -2.199102,1.234895 -4.406848,2.454596 -6.6,3.7 z"
   id="polygon177"
   inkscape:connector-curvature="0" />
							</g>
							<g
   id="g183"
   style="fill:#c6c6c6;fill-opacity:1">
								<path
   style="fill:#c6c6c6;fill-opacity:1"
   d="m 36.6,32.2 c 0.3,0.5 0.6,1 0.9,1.5 0.363072,-0.213778 0.945204,-0.370309 0.455895,-0.806842 C 37.737263,32.528772 37.518632,32.164386 37.3,31.8 c -0.233333,0.133333 -0.466667,0.266667 -0.7,0.4 z"
   id="polygon181"
   inkscape:connector-curvature="0" />
							</g>
						</g>
						
						
						<g
   class="st11"
   id="g227"
   style="fill:#c6c6c6;fill-opacity:1;enable-background:new">
							<g
   id="g217"
   style="fill:#c6c6c6;fill-opacity:1">
								<path
   style="fill:#c6c6c6;fill-opacity:1"
   d="m 36.9,50.5 c -1.766667,-3.1 -3.533333,-6.2 -5.3,-9.3 -0.214463,0.2401 -1.034302,0.310794 -0.799321,0.676664 C 32.533786,44.917776 34.266893,47.958888 36,51 c 0.3,-0.166667 0.6,-0.333333 0.9,-0.5 z"
   id="polygon215"
   inkscape:connector-curvature="0" />
							</g>
							<g
   id="g221"
   style="fill:#c6c6c6;fill-opacity:1">
								<path
   style="fill:#c6c6c6;fill-opacity:1"
   d="m 30.7,41.7 c 0.5121,-0.280156 1.025412,-0.558324 1.5,-0.9 -0.486469,0.325572 -0.960015,0.66621 -1.5,0.9 z"
   id="polygon219"
   inkscape:connector-curvature="0" />
							</g>
							<g
   id="g225"
   style="fill:#c6c6c6;fill-opacity:1">
								<path
   style="fill:#c6c6c6;fill-opacity:1"
   d="m 31.6,41.2 c 1.766667,3.1 3.533333,6.2 5.3,9.3 0.36314,-0.213818 0.943381,-0.369233 0.461759,-0.810304 C 35.641173,46.726464 33.920586,43.763232 32.2,40.8 32,40.933333 31.8,41.066667 31.6,41.2 Z"
   id="polygon223"
   inkscape:connector-curvature="0" />
							</g>
						</g>
					</g>
					<g
   id="g239"
   style="fill:#c6c6c6;fill-opacity:1">
						<g
   class="st11"
   id="g237"
   style="fill:#c6c6c6;fill-opacity:1;enable-background:new">
							<path
   style="fill:#c6c6c6;fill-opacity:1"
   d="m 30.2,38.8 c -0.163839,-0.733937 -0.546311,-1.47177 -1.1,-2 -0.413898,-0.505665 -1.111129,-0.802889 -1.75,-0.65 -0.219162,0.11028 0.561289,-0.513388 0.85,-0.45 0.576471,-0.01107 1.254803,-0.08468 1.6,0.5 0.384744,0.05853 0.450056,0.533983 0.595854,0.795854 C 30.659822,37.274927 30.927209,37.512094 31,37.9 c 0.0022,0.766403 0.120247,1.772367 -0.729907,2.143692 -1.018798,0.737828 0.08538,-0.18385 -0.02791,-0.878067 L 30.2375,39.05 Z"
   id="path231"
   inkscape:connector-curvature="0" />
							<g
   id="g235"
   style="fill:#c6c6c6;fill-opacity:1">
								<path
   style="fill:#c6c6c6;fill-opacity:1"
   d="m 28.5,36.3 c -1.346934,-0.984622 -2.180862,1.026118 -1.486987,2.062378 0.400973,1.068188 1.660115,2.780669 2.912768,1.869263 C 30.717599,38.894506 29.765678,36.982067 28.5,36.3 Z"
   id="path233"
   inkscape:connector-curvature="0" />
							</g>
						</g>
					</g>
				</g>
<g
   transform="matrix(1.0592368,0,0,1.3113001,-489.09529,-1867.9314)"
   id="g507"><g
     style="fill:#ededed;enable-background:new"
     class="st5"
     id="svg_47"
     stroke="null"><g
       id="svg_48"
       stroke="null"><polygon
         style="fill:#31aa59"
         class="st14"
         points="2481.1365,4069.5566 2563.0828,4114.2549 2563.0828,3406.5359 2481.1365,3361.8376 "
         id="svg_49"
         stroke="null" /></g><g
       id="svg_50"
       stroke="null"><polygon
         style="fill:#006e32"
         class="st12"
         points="2600.3311,4084.4561 2600.3311,3384.1868 2563.0828,3406.5359 2563.0828,4114.2549 "
         id="svg_51"
         stroke="null" /></g><g
       id="svg_52"
       stroke="null"><polygon
         style="fill:#31aa59"
         class="st14"
         points="2600.3311,3384.1868 2525.8345,3339.4885 2481.1365,3361.8376 2563.0828,3406.5359 "
         id="svg_53"
         stroke="null" /></g></g><g
     style="fill:#ededed;enable-background:new"
     class="st5"
     id="svg_54"
     stroke="null"><g
       id="svg_55"
       stroke="null"><polygon
         style="fill:#31aa59"
         class="st14"
         points="2481,5129.9072 2562.9463,5174.605 2562.9463,4519.0337 2481,4474.3359 "
         id="svg_56"
         stroke="null" /></g><g
       id="svg_57"
       stroke="null"><polygon
         style="fill:#006e32"
         class="st12"
         points="2600.1946,5144.8062 2600.1946,4489.2354 2562.9463,4519.0337 2562.9463,5174.605 "
         id="svg_58"
         stroke="null" /></g><g
       id="svg_59"
       stroke="null"><polygon
         style="fill:#006e32"
         class="st12"
         points="2600.1946,4489.2354 2525.698,4444.5371 2481,4474.3359 2562.9463,4519.0337 "
         id="svg_60"
         stroke="null" /></g></g><g
     style="fill:#ededed;enable-background:new"
     class="st5"
     id="svg_61"
     stroke="null"><g
       id="svg_62"
       stroke="null"><polygon
         style="fill:#31aa59"
         class="st14"
         points="2741.875,4121.7041 2794.0225,4218.5498 3159.0566,4017.4092 3099.4592,3920.563 "
         id="svg_63"
         stroke="null" /></g><g
       id="svg_64"
       stroke="null"><polygon
         style="fill:#006e32"
         class="st12"
         points="3144.1572,3898.2141 2779.1233,4099.3555 2741.875,4121.7041 3099.4592,3920.563 "
         id="svg_65"
         stroke="null" /></g><g
       id="svg_66"
       stroke="null"><polygon
         style="fill:#31aa59"
         class="st14"
         points="3196.3049,3995.0598 3144.1572,3898.2141 3099.4592,3920.563 3159.0566,4017.4092 "
         id="svg_67"
         stroke="null" /></g></g><g
     style="fill:#ededed;enable-background:new"
     class="st5"
     id="svg_68"
     stroke="null"><g
       id="svg_69"
       stroke="null"><polygon
         style="fill:#31aa59"
         class="st14"
         points="1989.4579,4553.7852 2041.6056,4650.6313 2369.3914,4464.3896 2317.2437,4367.5435 "
         id="svg_70"
         stroke="null" /></g><g
       id="svg_71"
       stroke="null"><polygon
         style="fill:#31aa59"
         class="st14"
         points="2354.4919,4345.1943 2026.7062,4531.4365 1989.4579,4553.7852 2317.2437,4367.5435 "
         id="svg_72"
         stroke="null" /></g><g
       id="svg_73"
       stroke="null"><polygon
         style="fill:#006e32"
         class="st12"
         points="2414.0894,4442.04 2354.4919,4345.1943 2317.2437,4367.5435 2369.3914,4464.3896 "
         id="svg_74"
         stroke="null" /></g></g><g
     style="fill:#ededed;enable-background:new"
     class="st5"
     id="svg_75"
     stroke="null"><g
       id="svg_76"
       stroke="null"><rect
         style="fill:#31aa59"
         x="33.998371"
         y="49.990322"
         transform="matrix(64.722763,-36.883333,36.883333,64.722763,-2124.8621,1565.6469)"
         class="st14"
         width="0.89999998"
         height="8.5"
         id="svg_77"
         stroke="null" /></g><g
       id="svg_78"
       stroke="null"><polygon
         style="fill:#31aa59"
         class="st14"
         points="2019.2566,3488.4822 1959.6592,3518.281 1922.4108,3548.0793 1974.5586,3510.8311 "
         id="svg_79"
         stroke="null" /></g><g
       id="svg_80"
       stroke="null"><polygon
         style="fill:#006e32"
         class="st12"
         points="2332.1428,4039.7581 2019.2566,3488.4822 1974.5586,3510.8311 2294.8945,4062.1069 "
         id="svg_81"
         stroke="null" /></g></g><g
     style="fill:#ededed;enable-background:new"
     class="st5"
     id="svg_82"
     stroke="null"><g
       id="svg_83"
       stroke="null"><polygon
         style="fill:#31aa59"
         class="st14"
         points="2726.9756,4643.1816 3054.761,5209.3569 3106.9089,5172.1084 2779.1233,4605.9331 "
         id="svg_84"
         stroke="null" /></g><g
       id="svg_85"
       stroke="null"><polygon
         style="fill:#31aa59"
         class="st14"
         points="2823.8213,4583.584 2771.6736,4613.3828 2726.9756,4643.1816 2779.1233,4605.9331 "
         id="svg_86"
         stroke="null" /></g><g
       id="svg_87"
       stroke="null"><polygon
         style="fill:#006e32"
         class="st12"
         points="3151.6072,5149.7593 2823.8213,4583.584 2779.1233,4605.9331 3106.9089,5172.1084 "
         id="svg_88"
         stroke="null" /></g></g></g><g
   stroke="null"
   id="svg_89"
   transform="matrix(1.0271495,0,0,1.2412016,-413.65586,-1583.5129)"><g
     style="fill:#ededed;enable-background:new"
     stroke="null"
     id="svg_90"
     class="st5"><path
       clip-path="url(#SVGID_2_)"
       style="fill:#d1d1d1"
       inkscape:connector-curvature="0"
       stroke="null"
       id="svg_91"
       d="m 2645.0292,4442.0403 c 0,-14.8993 -7.4497,-22.349 -7.4497,-37.2483 0,0 0,0 0,0 -7.4497,-14.8994 -7.4497,-29.7987 -14.8993,-44.6981 0,0 0,0 0,0 -7.4497,-14.8993 -14.8994,-29.7987 -22.349,-44.698 0,0 0,0 0,0 -7.4497,-14.8994 -14.8994,-22.349 -22.3491,-37.2484 0,0 0,0 0,0 -7.4496,-7.4497 -14.8993,-22.349 -22.349,-29.7987 0,0 -7.4497,-7.4496 -7.4497,-7.4496 -7.4496,-7.4497 -7.4496,-7.4497 -14.8993,-14.8994 -14.8994,-14.8993 -37.2484,-29.7987 -52.1477,-44.698 -14.8994,-7.4497 -22.349,-14.8994 -29.7987,-14.8994 0,0 -7.4497,0 -7.4497,0 -7.4497,0 -22.349,-7.4497 -29.7987,-7.4497 0,0 0,0 0,0 -7.4497,0 -22.349,0 -29.7987,0 0,0 0,0 0,0 -7.4497,0 -14.8993,7.4497 -22.349,7.4497 l 81.9464,-44.698 c 0,0 0,0 0,0 0,0 7.4497,0 7.4497,-7.4497 0,0 7.4497,0 7.4497,0 0,0 7.4496,0 7.4496,0 0,0 0,0 0,0 0,0 0,0 0,0 0,0 7.4497,0 7.4497,0 7.4497,0 7.4497,0 14.8993,0 0,0 0,0 7.4497,0 0,0 0,0 0,0 0,0 7.4497,0 7.4497,0 7.4497,0 7.4497,0 14.8993,0 0,0 7.4497,0 7.4497,0 0,0 7.4497,0 7.4497,0 0,0 7.4497,0 7.4497,0 7.4496,0 14.8993,7.4497 22.349,14.8994 22.349,7.4496 37.2484,22.349 52.1477,44.698 0,0 0,0 7.4497,7.4497 0,0 7.4497,7.4496 7.4497,7.4496 0,0 7.4496,7.4497 7.4496,7.4497 0,0 7.4497,7.4497 7.4497,7.4497 7.4497,7.4497 7.4497,14.8993 14.8993,14.8993 0,0 0,7.4497 7.4497,7.4497 0,0 0,0 0,0 0,0 0,7.4497 7.4497,7.4497 0,7.4497 7.4497,7.4497 7.4497,14.8993 0,7.4497 7.4496,7.4497 7.4496,14.8994 0,0 0,0 0,0 0,0 0,0 0,0 0,7.4496 7.4497,7.4496 7.4497,14.8993 0,7.4497 7.4497,7.4497 7.4497,14.8994 0,7.4496 7.4497,7.4496 7.4497,14.8993 0,0 0,0 0,0 0,0 0,0 0,0 0,7.4497 7.4496,7.4497 7.4496,14.8994 0,7.4496 7.4497,7.4496 7.4497,14.8993 0,0 0,7.4497 0,7.4497 0,0 0,0 0,0 0,0 0,7.4497 0,7.4497 0,7.4496 0,14.8993 7.4497,22.349 0,7.4496 0,7.4496 0,14.8993 0,0 0,7.4497 0,7.4497 0,0 0,7.4497 0,7.4497 0,14.8993 0,22.349 0,37.2483 0,52.1477 -22.349,96.8458 -52.1477,111.7451 l -81.9464,44.6981 c 29.7986,-14.8994 52.1477,-59.5974 52.1477,-111.7451 0,-7.4497 0,-22.349 -7.4497,-44.6981 0,7.4497 0,7.4497 0,0 z"
       class="st9" /><g
       stroke="null"
       id="svg_92"><g
         id="g2049"><g
           style="fill:#999999"
           transform="matrix(1.066961,0,0,1.029437,-113.70232,-151.73901)"
           id="svg_89-0"
           stroke="null"><g
             class="st5"
             id="svg_90-4"
             stroke="null"
             style="fill:#999999;enable-background:new"><path
               class="st9"
               d="m 2645.0292,4442.0403 c 0,-14.8993 -7.4497,-22.349 -7.4497,-37.2483 0,0 0,0 0,0 -7.4497,-14.8994 -7.4497,-29.7987 -14.8993,-44.6981 0,0 0,0 0,0 -7.4497,-14.8993 -14.8994,-29.7987 -22.349,-44.698 0,0 0,0 0,0 -7.4497,-14.8994 -14.8994,-22.349 -22.3491,-37.2484 0,0 0,0 0,0 -7.4496,-7.4497 -14.8993,-22.349 -22.349,-29.7987 0,0 -7.4497,-7.4496 -7.4497,-7.4496 -7.4496,-7.4497 -7.4496,-7.4497 -14.8993,-14.8994 -14.8994,-14.8993 -37.2484,-29.7987 -52.1477,-44.698 -14.8994,-7.4497 -22.349,-14.8994 -29.7987,-14.8994 0,0 -7.4497,0 -7.4497,0 -7.4497,0 -22.349,-7.4497 -29.7987,-7.4497 0,0 0,0 0,0 -7.4497,0 -22.349,0 -29.7987,0 0,0 0,0 0,0 -7.4497,0 -14.8993,7.4497 -22.349,7.4497 l 81.9464,-44.698 c 0,0 0,0 0,0 0,0 7.4497,0 7.4497,-7.4497 0,0 7.4497,0 7.4497,0 0,0 7.4496,0 7.4496,0 0,0 0,0 0,0 0,0 0,0 0,0 0,0 7.4497,0 7.4497,0 7.4497,0 7.4497,0 14.8993,0 0,0 0,0 7.4497,0 0,0 0,0 0,0 0,0 7.4497,0 7.4497,0 7.4497,0 7.4497,0 14.8993,0 0,0 7.4497,0 7.4497,0 0,0 7.4497,0 7.4497,0 0,0 7.4497,0 7.4497,0 7.4496,0 14.8993,7.4497 22.349,14.8994 22.349,7.4496 37.2484,22.349 52.1477,44.698 0,0 0,0 7.4497,7.4497 0,0 7.4497,7.4496 7.4497,7.4496 0,0 7.4496,7.4497 7.4496,7.4497 0,0 7.4497,7.4497 7.4497,7.4497 7.4497,7.4497 7.4497,14.8993 14.8993,14.8993 0,0 0,7.4497 7.4497,7.4497 0,0 0,0 0,0 0,0 0,7.4497 7.4497,7.4497 0,7.4497 7.4497,7.4497 7.4497,14.8993 0,7.4497 7.4496,7.4497 7.4496,14.8994 0,0 0,0 0,0 0,0 0,0 0,0 0,7.4496 7.4497,7.4496 7.4497,14.8993 0,7.4497 7.4497,7.4497 7.4497,14.8994 0,7.4496 7.4497,7.4496 7.4497,14.8993 0,0 0,0 0,0 0,0 0,0 0,0 0,7.4497 7.4496,7.4497 7.4496,14.8994 0,7.4496 7.4497,7.4496 7.4497,14.8993 0,0 0,7.4497 0,7.4497 0,0 0,0 0,0 0,0 0,7.4497 0,7.4497 0,7.4496 0,14.8993 7.4497,22.349 0,7.4496 0,7.4496 0,14.8993 0,0 0,7.4497 0,7.4497 0,0 0,7.4497 0,7.4497 0,14.8993 0,22.349 0,37.2483 0,52.1477 -22.349,96.8458 -52.1477,111.7451 l -81.9464,44.6981 c 29.7986,-14.8994 52.1477,-59.5974 52.1477,-111.7451 0,-7.4497 0,-22.349 -7.4497,-44.6981 0,7.4497 0,7.4497 0,0 z"
               id="svg_91-8"
               stroke="null"
               inkscape:connector-curvature="0"
               style="fill:#999999"
               clip-path="url(#SVGID_2_)" /><g
               style="fill:#999999"
               id="svg_92-4"
               stroke="null"><path
                 class="st10"
                 d="m 2473.6867,4188.7514 c -96.8458,-59.5974 -178.7922,-14.8993 -178.7922,104.2955 0,111.7451 81.9464,245.8392 178.7922,305.4366 96.8458,59.5974 178.7922,7.4497 178.7922,-104.2954 0,-111.7452 -81.9464,-253.2889 -178.7922,-305.4367 z"
                 id="svg_93-9"
                 stroke="null"
                 inkscape:connector-curvature="0"
                 style="fill:#999999" /></g></g></g><path
           class="st10"
           d="m 2473.6867,4188.7514 c -96.8458,-59.5974 -178.7922,-14.8993 -178.7922,104.2955 0,111.7451 81.9464,245.8392 178.7922,305.4366 96.8458,59.5974 178.7922,7.4497 178.7922,-104.2954 0,-111.7452 -81.9464,-253.2889 -178.7922,-305.4367 z"
           id="svg_93"
           stroke="null"
           inkscape:connector-curvature="0"
           style="fill:#ededed" /></g></g></g></g></svg>