<?xml version="1.0" encoding="utf-8"?>
<!-- Generator: Adobe Illustrator 23.0.3, SVG Export Plug-In . SVG Version: 6.00 Build 0)  -->
<svg version="1.1" xmlns="http://www.w3.org/2000/svg" xmlns:xlink="http://www.w3.org/1999/xlink" x="0px" y="0px"
	 viewBox="0 0 75.8 68.6" style="enable-background:new 0 0 75.8 68.6;" xml:space="preserve">
<style type="text/css">
	.st0{fill:#BFC9E8;}
	.st1{fill:#3458A3;}
	.st2{fill:#A0ADD9;}
	.st3{fill:#264B8C;}
	.st4{fill:#C0CAE9;}
	.st5{fill:#EDEDED;}
	.st6{fill:#3458A5;}
	.st7{fill:#E7E6E6;}
	.st8{fill:#999999;}
	.st9{clip-path:url(#SVGID_2_);}
	.st10{fill:#C6C6C6;}
	.st11{enable-background:new    ;}
	.st12{fill:#D1D1D1;}
	.st13{fill:#6ABA82;}
	.st14{fill:#006E32;}
	.st15{fill:#31AA59;}
	.st16{fill:#035426;}
	.st17{clip-path:url(#SVGID_4_);}
	.st18{fill:#CC5261;}
	.st19{fill:#751518;}
	.st20{fill:#BD1622;}
	.st21{fill:#5B1016;}
	.st22{clip-path:url(#SVGID_6_);}
	.st23{fill:#D9D9D9;}
	.st24{fill:#868686;}
	.st25{fill:#B3B4B3;}
	.st26{fill:#636363;}
	.st27{clip-path:url(#SVGID_8_);}
</style>
<g id="Capa_2">
</g>
<g id="Capa_1">
	<g>
		<g>
			<g>
				<polygon class="st23" points="32.4,1.2 58.1,15.8 60.5,14.4 34.9,0 				"/>
			</g>
			<g>
				<g>
					<polygon class="st24" points="60.6,14.4 58.1,15.8 58,15.7 58,58.5 58.1,58.6 60.6,57.2 					"/>
				</g>
				<g>
					<polygon class="st25" points="58.1,15.8 32.4,1.2 32.4,43.9 58.1,58.6 					"/>
				</g>
			</g>
		</g>
		<g>
			<g>
				<path class="st25" d="M6.6,23.5c0-4.5,3.2-10.1,7.1-12.4c2.1-1.2,4-1.3,5.4-0.3l1.8,1.1L10.7,29.3l-1.9-1.2
					C7.4,27.5,6.6,25.9,6.6,23.5z"/>
				<g>
					<path class="st24" d="M15.7,12.3c-4,2.3-7.2,7.8-7.1,12.4c0,4.5,3.2,6.4,7.2,4.1c3.9-2.3,7.1-7.8,7.1-12.4
						C22.9,11.9,19.7,10,15.7,12.3z"/>
				</g>
			</g>
			<g>
				<path class="st23" d="M10.4,24.5c0-3.8,2.7-8.4,6-10.3c1.8-1,3.4-1,4.5-0.3l10.4,5.8L23,34.5l-10.7-6.3
					C11.1,27.8,10.4,26.5,10.4,24.5z"/>
				<g>
					<path class="st3" d="M27.1,20.4c-3.3,1.9-6,6.5-6,10.3s2.7,5.3,6,3.4c3.3-1.9,6-6.5,5.9-10.3C33.1,20,30.4,18.5,27.1,20.4z"/>
				</g>
			</g>
		</g>
		<g>
			<g>
				<g>
					<polygon class="st23" points="28.7,57.6 44.1,66.4 55,60.1 39.8,51.4 					"/>
				</g>
				<g>
					<g>
						<polygon class="st24" points="55.1,60 44.1,66.4 43.9,66.3 43.9,68.5 44.1,68.6 55.1,62.2 						"/>
					</g>
					<g>
						<polygon class="st24" points="44.1,66.4 28.7,57.5 28.7,59.7 44.1,68.6 						"/>
					</g>
				</g>
			</g>
			<g>
				<g>
					<polygon class="st23" points="13.6,48.8 28.9,57.7 39.9,51.3 24.7,42.7 					"/>
				</g>
				<g>
					<g>
						<polygon class="st24" points="39.9,51.3 28.9,57.7 28.8,57.6 28.8,59.7 28.9,59.9 39.9,53.5 						"/>
					</g>
					<g>
						<polygon class="st24" points="28.9,57.7 13.5,48.8 13.5,50.9 28.9,59.9 						"/>
					</g>
				</g>
			</g>
		</g>
		<g>
			<polygon class="st24" points="43,51 32.1,57.3 31.9,57.2 31.9,59.4 32.1,59.5 43,53.1 			"/>
			<polygon class="st25" points="31.9,59.4 26.4,56.3 26.4,54.1 31.9,57.2 			"/>
		</g>
		<path class="st23" d="M21.7,17l13.9-8.1V9c2-1.1,4.8-0.8,7.8,0.9c5.5,3.2,10.1,10.3,11.1,16.9l-14.1,7.9l0,0
			c-0.8-5.2-3.9-10.7-7.8-14.4l-1.2-0.4L21.7,17z"/>
		<path class="st26" d="M52,49.7l-14.3,8.2l2.9-5.4l14-8C54.7,44.4,54.4,48,52,49.7z"/>
		<g>
			<g>
				<path class="st25" d="M29.5,17.9c-5.5-3.2-10.1-1.4-11.1,4c-1.4,0.1-2.3,1.3-2.3,3.3v8.6c0,1.9,0.9,4.1,2.2,5.8
					c0.8,6.7,5.5,14.2,11.2,17.4c1.9,1.1,3.9,1.7,5.7,1.7c3.1,0,5.2-2.4,5.6-6.2c1.3-0.2,2.1-1.4,2.1-3.2v-8.5c0-2-0.9-4.2-2.3-5.9
					C39.5,28.1,34.9,21.1,29.5,17.9z"/>
			</g>
			<g>
				<g>
					<path class="st5" d="M28.7,20.7c-4.8-2.7-8.6-0.7-8.9,4.6c-1.1-0.6-2.1-0.1-2.1,1.3v8.6c0,1.3,0.9,2.9,2,3.6
						c0,5.6,3.9,12.5,8.8,15.3c1.5,0.8,3,1.3,4.6,1.3c2.8,0,4.5-2.6,4.3-6.4c1.1,0.6,2.1,0,2.1-1.3v-8.6c0-1.3-0.9-2.9-2.1-3.7
						C37.3,30,33.5,23.5,28.7,20.7z"/>
				</g>
			</g>
		</g>
		<g>
			<path class="st24" d="M42.2,51.7c0.4-0.6,0.6-1.3,0.6-2.4v-8.7c0-2-0.9-4.3-2.3-6l14-8.1c1.4,1.7,2.4,4,2.4,6v8.7
				c0,1.9-0.8,3.1-2.1,3.3l-12.6,7.3V51.7z"/>
		</g>
		<g>
			<g>
				<path class="st25" d="M44.1,43c0-3.8,2.7-8.4,6-10.3c1.8-1,3.4-1,4.5-0.3L65,38.2L56.7,53L46,46.7C44.8,46.2,44.1,44.9,44.1,43z
					"/>
				<g>
					<path class="st3" d="M60.8,38.8c-3.3,1.9-6,6.5-6,10.3s2.7,5.3,6,3.4c3.3-1.9,6-6.5,5.9-10.3C66.8,38.4,64.1,36.9,60.8,38.8z"
						/>
				</g>
			</g>
			<g>
				<path class="st23" d="M52.6,49.1c0-4.5,3.2-10.1,7.1-12.4c2.1-1.2,4-1.3,5.4-0.3l1.7,1L56.7,54.9l-1.9-1.2
					C53.4,53,52.6,51.4,52.6,49.1z"/>
				<g>
					<path class="st24" d="M61.7,37.9c-4,2.3-7.2,7.8-7.1,12.4c0,4.5,3.2,6.4,7.2,4.1c3.9-2.3,7.1-7.8,7.1-12.4
						C68.9,37.4,65.6,35.6,61.7,37.9z"/>
				</g>
				<g>
					<path class="st7" d="M61.7,40.4c-2.7,1.6-4.9,5.4-4.9,8.5s2.2,4.4,4.9,2.8c2.7-1.6,4.9-5.4,4.9-8.5
						C66.6,40.1,64.4,38.9,61.7,40.4z"/>
				</g>
			</g>
		</g>
		<g>
			<g>
				<g>
					<path class="st5" d="M28.7,20.7c-4.8-2.7-8.6-0.7-8.9,4.6c-0.1,3.3-0.1,11-0.1,13.5c0,5.6,3.9,12.5,8.8,15.3
						c1.5,0.8,3,1.3,4.6,1.3c2.8,0,4.5-2.6,4.3-6.4c0.1-2.8,0.1-11.4,0-13.6C37.3,30,33.5,23.5,28.7,20.7z"/>
				</g>
			</g>
			<g>
				<g>
					<path class="st8" d="M28.7,23.1c-3.9-2.3-7-0.6-7.2,3.9c-0.1,2.8-0.1,9.4-0.1,11.6c0,4.8,3.2,10.7,7.1,13.1
						c1.2,0.7,2.4,1.1,3.7,1.1c2.3,0,3.6-2.2,3.5-5.5c0-2.4,0-9.8,0-11.7C35.7,31.1,32.6,25.5,28.7,23.1z"/>
				</g>
			</g>
			<g>
				<defs>
					<path id="SVGID_7_" d="M28.7,23.1c-3.9-2.3-7-0.6-7.2,3.9c-0.1,2.8-0.1,9.4-0.1,11.6c0,4.8,3.2,10.7,7.1,13.1
						c1.2,0.7,2.4,1.1,3.7,1.1c2.3,0,3.6-2.2,3.5-5.5c0-2.4,0-9.8,0-11.7C35.7,31.1,32.6,25.5,28.7,23.1z"/>
				</defs>
				<clipPath id="SVGID_2_">
					<use xlink:href="#SVGID_7_"  style="overflow:visible;"/>
				</clipPath>
				<g class="st9">
					<g>
						<g>
							<path class="st10" d="M30.4,23.1c-3.9-2.3-7-0.6-7.2,3.9c-0.1,2.8-0.1,9.4-0.1,11.6c0,4.8,3.2,10.7,7.1,13.1
								c1.2,0.7,2.4,1.1,3.7,1.1c2.3,0,3.6-2.2,3.5-5.5c0-2.4,0-9.8,0-11.7C37.3,31.1,34.3,25.5,30.4,23.1z"/>
						</g>
					</g>
					<g>
						<g class="st11">
							<g>
								<polygon class="st25" points="28.2,22 28.2,33.6 29.5,34.3 29.5,22.8 								"/>
							</g>
							<g>
								<polygon class="st24" points="29.5,34.3 30.2,33.9 30.2,22.4 29.5,22.8 								"/>
							</g>
							<g>
								<polygon class="st25" points="29.5,22.8 30.2,22.4 28.9,21.6 28.2,22 								"/>
							</g>
						</g>
						<g class="st11">
							<g>
								<polygon class="st25" points="28.2,41.6 28.2,52.4 29.5,53.1 29.5,42.3 								"/>
							</g>
							<g>
								<polygon class="st24" points="29.5,53.1 30.1,52.7 30.2,41.9 29.5,42.3 								"/>
							</g>
							<g>
								<polygon class="st24" points="29.5,42.3 30.2,41.9 28.9,41.2 28.2,41.6 								"/>
							</g>
						</g>
						<g class="st11">
							<g>
								<polygon class="st25" points="36.6,32.2 30.7,35.5 31.6,37.1 37.5,33.7 								"/>
							</g>
							<g>
								<polygon class="st24" points="36.6,32.2 37.3,31.8 31.4,35.1 30.7,35.5 								"/>
							</g>
							<g>
								<polygon class="st25" points="37.5,33.7 38.2,33.3 37.3,31.8 36.6,32.2 								"/>
							</g>
						</g>
						<g class="st11">
							<g>
								<polygon class="st25" points="25.5,38.5 20.1,41.6 21,43.1 26.4,40.1 								"/>
							</g>
							<g>
								<polygon class="st25" points="25.5,38.5 26.2,38.1 20.8,41.2 20.1,41.6 								"/>
							</g>
							<g>
								<polygon class="st24" points="26.4,40.1 27.1,39.7 26.2,38.1 25.5,38.5 								"/>
							</g>
						</g>
						<g class="st11">
							<g>
								
									<rect x="23.5" y="24" transform="matrix(0.8688 -0.4951 0.4951 0.8688 -11.2972 15.7153)" class="st25" width="1" height="10.5"/>
							</g>
							<g>
								<polygon class="st25" points="21.9,24.4 22.5,24 21.6,24.5 20.9,24.9 								"/>
							</g>
							<g>
								<polygon class="st24" points="27.1,33.4 27.7,33.1 22.5,24 21.9,24.4 								"/>
							</g>
						</g>
						<g class="st11">
							<g>
								<polygon class="st25" points="31.6,41.2 30.7,41.7 36,51 36.9,50.5 								"/>
							</g>
							<g>
								<polygon class="st25" points="31.6,41.2 32.2,40.8 31.3,41.4 30.7,41.7 								"/>
							</g>
							<g>
								<polygon class="st24" points="36.9,50.5 37.6,50.1 32.2,40.8 31.6,41.2 								"/>
							</g>
						</g>
					</g>
					<g>
						<g class="st11">
							<path class="st12" d="M30.2,38.8c0-0.1,0-0.3-0.1-0.4c0,0,0,0,0,0c0-0.1-0.1-0.3-0.2-0.4c0,0,0,0,0,0
								c-0.1-0.1-0.1-0.3-0.2-0.4c0,0,0,0,0,0c-0.1-0.1-0.2-0.3-0.2-0.4c0,0,0,0,0,0c-0.1-0.1-0.2-0.2-0.3-0.3c0,0,0,0-0.1-0.1
								c0,0-0.1-0.1-0.1-0.1c-0.2-0.2-0.3-0.3-0.5-0.4c-0.1-0.1-0.2-0.1-0.3-0.1c0,0,0,0-0.1,0c-0.1,0-0.2-0.1-0.3-0.1c0,0,0,0,0,0
								c-0.1,0-0.2,0-0.3,0c0,0,0,0,0,0c-0.1,0-0.2,0.1-0.3,0.1l0.8-0.5c0,0,0,0,0,0c0,0,0.1,0,0.1,0c0,0,0.1,0,0.1,0c0,0,0,0,0.1,0
								c0,0,0,0,0,0c0,0,0,0,0,0c0,0,0.1,0,0.1,0c0,0,0.1,0,0.1,0c0,0,0,0,0,0c0,0,0,0,0,0c0,0,0,0,0.1,0c0,0,0.1,0,0.2,0
								c0,0,0,0,0.1,0c0,0,0,0,0.1,0c0,0,0.1,0,0.1,0c0.1,0,0.2,0.1,0.2,0.1c0.2,0.1,0.4,0.2,0.5,0.4c0,0,0,0,0.1,0c0,0,0,0,0.1,0.1
								c0,0,0,0,0.1,0.1c0,0,0,0,0.1,0.1c0,0.1,0.1,0.1,0.1,0.2c0,0,0,0,0,0.1c0,0,0,0,0,0c0,0,0,0,0,0.1c0,0,0.1,0.1,0.1,0.1
								c0,0,0.1,0.1,0.1,0.1c0,0,0,0,0,0c0,0,0,0,0,0c0,0,0,0.1,0.1,0.1c0,0,0.1,0.1,0.1,0.1c0,0,0,0.1,0.1,0.1c0,0,0,0,0,0
								c0,0,0,0,0,0c0,0.1,0,0.1,0.1,0.2c0,0.1,0,0.1,0.1,0.2c0,0,0,0.1,0,0.1c0,0,0,0,0,0c0,0,0,0,0,0.1c0,0.1,0,0.1,0,0.2
								c0,0,0,0.1,0,0.1c0,0,0,0,0,0.1c0,0,0,0,0,0.1c0,0.1,0,0.2,0,0.3c0,0.5-0.2,0.9-0.5,1.1l-0.8,0.5c0.3-0.2,0.5-0.6,0.5-1.1
								C30.3,39.1,30.2,39,30.2,38.8C30.2,38.8,30.2,38.8,30.2,38.8z"/>
							<g>
								<path class="st5" d="M28.5,36.3c-1-0.6-1.7-0.1-1.7,1c0,1.1,0.8,2.4,1.7,3c1,0.5,1.7,0.1,1.7-1
									C30.3,38.2,29.5,36.8,28.5,36.3z"/>
							</g>
						</g>
					</g>
				</g>
			</g>
		</g>
	</g>
</g>
</svg>
