<?xml version="1.0" encoding="utf-8"?>
<!-- Generator: Adobe Illustrator 23.0.3, SVG Export Plug-In . SVG Version: 6.00 Build 0)  -->
<svg version="1.1" xmlns="http://www.w3.org/2000/svg" xmlns:xlink="http://www.w3.org/1999/xlink" x="0px" y="0px"
	 viewBox="0 0 82.8 101.6" style="enable-background:new 0 0 82.8 101.6;" xml:space="preserve">
<style type="text/css">
	.st0{fill:#FFFFFF;}
	.st1{fill:none;stroke:#808080;stroke-width:0.1065;stroke-miterlimit:10;}
	.st2{enable-background:new    ;}
	.st3{fill:#9FABD8;}
	.st4{fill:#3458A3;}
	.st5{fill:#264B8C;}
	.st6{fill:#BFC9E8;}
	.st7{fill:#CDCCCC;}
	.st8{fill:#F2F1F1;}
	.st9{clip-path:url(#SVGID_2_);fill:#CDCCCC;}
	.st10{clip-path:url(#SVGID_4_);enable-background:new    ;}
	.st11{fill:#6B6A6A;}
	.st12{fill:#6E6D6D;}
	.st13{fill:#31AA59;}
	.st14{fill:#006E32;}
	.st15{fill:#035426;}
	.st16{fill:#6ABA82;}
	.st17{clip-path:url(#SVGID_6_);fill:#CDCCCC;}
	.st18{clip-path:url(#SVGID_8_);enable-background:new    ;}
	.st19{fill:#BD1622;}
	.st20{fill:#751518;}
	.st21{fill:#5B1016;}
	.st22{fill:#CC5261;}
	.st23{clip-path:url(#SVGID_10_);fill:#CDCCCC;}
	.st24{clip-path:url(#SVGID_12_);enable-background:new    ;}
	.st25{fill:#B1B1B1;}
	.st26{fill:#6F6F6E;}
	.st27{fill:#636363;}
	.st28{fill:#D9D9D9;}
	.st29{clip-path:url(#SVGID_14_);fill:#CDCCCC;}
	.st30{clip-path:url(#SVGID_16_);enable-background:new    ;}
</style>
<g id="Capa_2">
</g>
<g id="Capa_1">
	<g>
		<g>
			<g>
				<g class="st2">
					<path class="st3" d="M82.8,60.4c-0.2-7.7-3.8-15.3-8.7-21.1c-4.3-5.2-12.7-12-19.8-8.1c-1.9,1-3.7,2.1-5.5,3.2
						c3.4-2,27.5,38.4,23.6,40.6c1.9-1.1,3.8-2.1,5.6-3.3C81.9,69.3,83,64.6,82.8,60.4z"/>
					<g>
						<path class="st4" d="M60.7,35.5c7.4,4.3,12.7,12.2,15.2,20.2c1.9,6.1,3,16.4-4.2,19.6c-3.2,1.4-6.8,0.6-9.8-0.9
							c-3.7-1.8-6.9-4.7-9.5-7.9c-5.2-6.4-9.2-15.2-8.3-23.6c0.4-3.6,1.9-7.4,5.3-9C53.1,32.3,57.4,33.6,60.7,35.5z"/>
					</g>
				</g>
			</g>
			<g>
				
					<ellipse transform="matrix(0.8646 -0.5025 0.5025 0.8646 -13.1665 30.6283)" class="st5" cx="50.2" cy="39.7" rx="1.5" ry="2.5"/>
			</g>
			<g>
				
					<ellipse transform="matrix(0.8646 -0.5025 0.5025 0.8646 -15.4656 41.6009)" class="st5" cx="69.5" cy="49.5" rx="1.5" ry="2.5"/>
			</g>
			<g>
				
					<ellipse transform="matrix(0.8646 -0.5025 0.5025 0.8646 -23.1991 33.682)" class="st5" cx="50.9" cy="59.9" rx="1.5" ry="2.5"/>
			</g>
			<g>
				
					<ellipse transform="matrix(0.8646 -0.5025 0.5025 0.8646 -26.8381 43.1479)" class="st5" cx="66.6" cy="71.4" rx="1.5" ry="2.5"/>
			</g>
		</g>
		<path class="st5" d="M60.7,46.2c-3.5-2-6.4-0.9-7.2,2.4L48,57.1c-0.3-0.3-0.7-0.5-1.1-0.8c-3.2-1.8-8.3-1.8-11.5,0
			c-1.6,0.9-2.4,2.1-2.4,3.3c0,0,0,0,0,0l0,17.5c0,1.2,0.8,2.4,2.4,3.3c0.4,0.2,0.8,0.4,1.2,0.6c0,0,0,0,0.1,0c0.1,0,0.1,0,0.2,0.1
			c0.2,0.1,0.5,0.2,0.7,0.2c0.1,0,0.3,0.1,0.4,0.1c0.1,0,0.2,0,0.2,0.1c0.1,0,0.1,0,0.2,0.1c0.3,0.1,0.5,0.1,0.8,0.1
			c0.1,0,0.2,0,0.3,0c0.1,0,0.1,0,0.2,0c0.1,0,0.2,0,0.3,0c0.3,0,0.5,0,0.8,0c0.1,0,0.2,0,0.2,0c0.1,0,0.1,0,0.2,0
			c0.1,0,0.2,0,0.4,0c0.3,0,0.6,0,0.9-0.1c0,0,0.1,0,0.1,0c0.1,0,0.2,0,0.2,0c0.2,0,0.5-0.1,0.7-0.1c0.1,0,0.2-0.1,0.3-0.1
			c0.3-0.1,0.5-0.1,0.8-0.2c0.1,0,0.3-0.1,0.4-0.1c0.1,0,0.1-0.1,0.2-0.1c0.6-0.2,1.1-0.4,1.6-0.7c0,0,0.1,0,0.1-0.1
			c0.2-0.1,0.3-0.2,0.4-0.3c0.2-0.1,0.4-0.3,0.6-0.4c0,0,0,0,0.1,0l18.2-16.2c1.1-0.8,1.8-2.4,1.8-4.5C68,54.3,64.7,48.6,60.7,46.2z
			"/>
		<path class="st5" d="M41.7,70c0-2.3-1.7-5.1-3.7-6.3c-1.1-0.6-2.1-0.6-2.8-0.1l0,0l-23.5,7.2c-0.3,0.1-0.6,0.1-0.9,0.3l-0.1,0l0,0
			c-1.6,0.7-2.6,2.5-2.6,5.1c0,4.9,3.5,10.9,7.8,13.4c3.1,1.8,5.8,1.2,7.1-1l17.6-16.3l0,0C41.3,72,41.7,71.2,41.7,70z"/>
		<g>
			<g>
				<g class="st2">
					<path class="st4" d="M37.2,48.6c-0.6-0.3-0.8-0.7-0.8-1.2l0,5.3c0,0.4,0.3,0.8,0.8,1.2l0.5,0.3l0-5.3L37.2,48.6z"/>
					<path class="st3" d="M57.9,57c-0.4,1.1-2.2-1.2-3.2-1.3c-0.6,0-3.9,0.8-4.1,1c-1.1,1.2-3,2.4-4.4,3.2c-1,0.6-1.9,0.5-3,0.8
						c-0.4,0.1,0.2,2,0.1,2.3c-0.1,0.2,0,0.7,0,0.9c0,1.4,0,2.9,0,4.3c1.9-0.4,3.6-1.2,5.3-2.2c1.3-0.7,2.7-1.4,3.6-2.6
						c0.4-0.5,0.3-0.6,0.8-0.3c0.3,0.2,0.7,0.3,1.1,0.4c0.9,0.2,2.1,0.1,2.9-0.4C58,62.7,58,62,58,61.1c0-1.4,0-2.9,0-4.3
						C58,56.8,57.9,56.9,57.9,57z"/>
					<path class="st4" d="M44.7,64.7C44.7,64.7,44.7,64.7,44.7,64.7c0,0.1-0.1,0.2-0.1,0.3c0,0,0,0,0,0c-0.1,0.1-0.1,0.2-0.2,0.2
						c-0.1,0.1-0.1,0.1-0.2,0.1c-0.1,0-0.1,0.1-0.2,0.1c-0.3,0.1-0.5,0.3-0.9,0.3c0,0-0.1,0-0.1,0C42.6,66,42.3,66,42,66
						c0,0,0,0,0,0c-0.3,0-0.7,0-1-0.1c0,0,0,0,0,0c-0.3-0.1-0.6-0.2-0.9-0.4l-16-9.2c-0.3-0.2-0.5-0.3-0.6-0.5
						c-0.1-0.2-0.2-0.4-0.2-0.6l0,5.3c0,0.4,0.3,0.8,0.8,1.2l16,9.2c0.1,0.1,0.3,0.1,0.4,0.2c0.1,0,0.2,0.1,0.3,0.1
						c0.1,0,0.1,0,0.2,0c0,0,0,0,0,0c0,0,0.1,0,0.1,0c0.1,0,0.2,0,0.3,0c0.1,0,0.2,0,0.3,0c0.1,0,0.2,0,0.3,0c0,0,0.1,0,0.1,0
						c0,0,0,0,0,0c0.1,0,0.1,0,0.2,0c0.1,0,0.2,0,0.3,0c0.1,0,0.2,0,0.4,0c0.1,0,0.1,0,0.2,0c0,0,0.1,0,0.1,0c0.1,0,0.2,0,0.2-0.1
						c0.2-0.1,0.4-0.2,0.6-0.3c0,0,0,0,0,0c0.1,0,0.1-0.1,0.1-0.1c0.1,0,0.1-0.1,0.2-0.1c0,0,0,0,0,0c0.1-0.1,0.1-0.1,0.2-0.2
						c0,0,0,0,0,0c0,0,0,0,0,0c0,0,0-0.1,0.1-0.1c0-0.1,0.1-0.1,0.1-0.2c0,0,0,0,0,0c0,0,0,0,0,0c0,0,0-0.1,0-0.1c0-0.1,0-0.1,0-0.2
						c0,0,0,0,0,0l0-5.3C44.7,64.5,44.7,64.6,44.7,64.7z"/>
					<g>
						<path class="st5" d="M57.1,55.6c1.1,0.6,1.1,1.7,0,2.3c-2.5,1.3-4.4-0.2-4.4-0.2c-0.3,1-4.8,4.3-9.3,5.3l0.5,0.3
							c1.1,0.6,1.1,1.7,0,2.3c-1.1,0.6-2.9,0.6-4,0l-16-9.2c-1.1-0.6-1.1-1.7,0-2.3c1.1-0.6,2.9-0.6,4,0l0.5,0.3
							c0.5-0.8,1.2-1.6,2.4-2.3l3-1.8c1.1-0.6,2.4-1.1,3.8-1.4l-0.5-0.3c-1.1-0.6-1.1-1.7,0-2.3c1.1-0.6,2.9-0.6,4,0L57.1,55.6z"/>
					</g>
				</g>
				<g class="st2">
					<path class="st4" d="M37.2,43c-0.6-0.3-0.8-0.7-0.8-1.2l0,5.3c0,0.4,0.3,0.8,0.8,1.2l0.5,0.3l0-5.3L37.2,43z"/>
					<path class="st3" d="M57.9,51.4c-0.4,1.1-3.6,0-4.6-0.1c-0.6,0-1-0.7-2.4,0.1c-1,0.6-5.7,4.5-6.7,4.8c-0.4,0.1-0.6,1-0.7,1.3
						c-0.1,0.2,0,0.7,0,0.9c0,1.4,0,2.9,0,4.3c2.9-0.5,8.1-3.5,8.9-4.8c0.2-0.2,0.4-0.6,0.4-0.6s0.6,0.5,1.4,0.6
						c0.9,0.2,2.2,0.1,3.1-0.4C58,57,58,56.3,58,55.4c0-1.4,0-2.9,0-4.3C58,51.2,57.9,51.3,57.9,51.4z"/>
					<path class="st4" d="M44.7,59.1C44.7,59.1,44.7,59.1,44.7,59.1c0,0.1-0.1,0.2-0.1,0.3c0,0,0,0,0,0c-0.1,0.1-0.1,0.2-0.2,0.2
						c-0.1,0.1-0.1,0.1-0.2,0.1c-0.1,0-0.1,0.1-0.2,0.1c-0.3,0.1-0.5,0.3-0.9,0.3c0,0-0.1,0-0.1,0c-0.3,0.1-0.6,0.1-1,0.1
						c0,0,0,0,0,0c-0.3,0-0.7,0-1-0.1c0,0,0,0,0,0c-0.3-0.1-0.6-0.2-0.9-0.4l-16-9.2c-0.3-0.2-0.5-0.3-0.6-0.5
						c-0.1-0.2-0.2-0.4-0.2-0.6l0,5.3c0,0.4,0.3,0.8,0.8,1.2l16,9.2c0.1,0.1,0.3,0.1,0.4,0.2c0.1,0,0.2,0.1,0.3,0.1
						c0.1,0,0.1,0,0.2,0c0,0,0,0,0,0c0,0,0.1,0,0.1,0c0.1,0,0.2,0,0.3,0c0.1,0,0.2,0,0.3,0c0.1,0,0.2,0,0.3,0c0,0,0.1,0,0.1,0
						c0,0,0,0,0,0c0.1,0,0.1,0,0.2,0c0.1,0,0.2,0,0.3,0c0.1,0,0.2,0,0.4,0c0.1,0,0.1,0,0.2,0c0,0,0.1,0,0.1,0c0.1,0,0.2,0,0.2-0.1
						c0.2-0.1,0.4-0.2,0.6-0.3c0,0,0,0,0,0c0.1,0,0.1-0.1,0.1-0.1c0.1,0,0.1-0.1,0.2-0.1c0,0,0,0,0,0c0.1-0.1,0.1-0.1,0.2-0.2
						c0,0,0,0,0,0c0,0,0,0,0,0c0,0,0-0.1,0.1-0.1c0-0.1,0.1-0.1,0.1-0.2c0,0,0,0,0,0c0,0,0,0,0,0c0,0,0-0.1,0-0.1c0-0.1,0-0.1,0-0.2
						c0,0,0,0,0,0l0-5.3C44.7,58.9,44.7,59,44.7,59.1z"/>
					<g>
						<path class="st6" d="M57.1,49.9c1.1,0.6,1.1,1.7,0,2.3c-1.1,0.6-2.9,0.6-4,0L52.7,52c-0.5,0.8-1.2,1.6-2.3,2.2l-3,1.8
							c-1.1,0.7-2.5,1.1-3.9,1.4l0.5,0.3c1.1,0.6,1.1,1.7,0,2.3c-1.1,0.6-2.9,0.6-4,0l-16-9.2c-1.1-0.6-1.1-1.7,0-2.3
							c1.1-0.6,2.9-0.6,4,0l0.5,0.3c0.5-0.8,1.2-1.6,2.4-2.3l3-1.8c1.1-0.6,2.4-1.1,3.8-1.4L37.2,43c-1.1-0.6-1.1-1.7,0-2.3
							c1.1-0.6,2.9-0.6,4,0L57.1,49.9z"/>
					</g>
				</g>
				<g>
					<g class="st2">
						<g>
							<polygon class="st7" points="43.4,57.9 43.4,58.6 43,59.3 43,58.7 							"/>
						</g>
						<g>
							<polygon class="st8" points="43.4,57.9 43,58.7 41.7,58.9 40.8,58.3 41.1,57.6 42.4,57.4 							"/>
						</g>
						<g>
							<polygon class="st7" points="43,58.7 43,59.3 41.7,59.5 41.7,58.9 							"/>
						</g>
						<g>
							<polygon class="st7" points="41.7,58.9 41.7,59.5 40.8,59 40.8,58.3 							"/>
						</g>
					</g>
				</g>
				<g>
					<g class="st2">
						<g>
							<polygon class="st7" points="56.6,50.2 56.6,50.9 56.3,51.6 56.3,51 							"/>
						</g>
						<g>
							<polygon class="st8" points="56.6,50.2 56.3,51 55,51.2 54.1,50.6 54.4,49.9 55.7,49.7 							"/>
						</g>
						<g>
							<polygon class="st7" points="56.3,51 56.3,51.6 55,51.8 55,51.2 							"/>
						</g>
						<g>
							<polygon class="st7" points="55,51.2 55,51.8 54.1,51.3 54.1,50.6 							"/>
						</g>
					</g>
				</g>
				<g>
					<g class="st2">
						<g>
							<polygon class="st7" points="27.1,48.5 27,49.2 26.7,50 26.7,49.3 							"/>
						</g>
						<g>
							<polygon class="st8" points="27.1,48.5 26.7,49.3 25.4,49.5 24.5,48.9 24.8,48.2 26.1,48 							"/>
						</g>
						<g>
							<polygon class="st7" points="26.7,49.3 26.7,50 25.4,50.2 25.4,49.5 							"/>
						</g>
						<g>
							<polygon class="st7" points="25.4,49.5 25.4,50.2 24.5,49.6 24.5,48.9 							"/>
						</g>
					</g>
				</g>
				<g>
					<g class="st2">
						<g>
							<polygon class="st7" points="40.3,40.8 40.3,41.5 40,42.2 40,41.6 							"/>
						</g>
						<g>
							<polygon class="st8" points="40.3,40.8 40,41.6 38.7,41.8 37.7,41.2 38.1,40.5 39.4,40.3 							"/>
						</g>
						<g>
							<polygon class="st7" points="40,41.6 40,42.2 38.7,42.4 38.7,41.8 							"/>
						</g>
						<g>
							<polygon class="st7" points="38.7,41.8 38.7,42.4 37.7,41.9 37.7,41.2 							"/>
						</g>
					</g>
				</g>
			</g>
			<g>
				<g class="st2">
					<path class="st4" d="M52.2,15.9c-1.5-0.9-3.1-1.8-4.6-2.7c-1.6-0.9-3.2-0.4-4.7,0.4c-3.3,1.9-6.6,3.8-9.9,5.7
						c-4.1,2.4-6.4,7-6.4,11.6c0,4.2,0,8.4,0,12.7c0,2.1-0.2,4.7,1.8,6c1.5,1,3.2,1.9,4.8,2.8c-2.3-1.4-0.5-23.9,0.7-25.8
						C35.8,23.7,51.1,15.3,52.2,15.9z"/>
					<path class="st4" d="M51.1,37.8c0.1-1.1,0-2.3,0-3.4c0-2.1,0-4.2,0-6.3c0-1.8,0-3.6,0-5.4c0-1.2,0.1-2.6-1.1-3.3
						c-1.5-1-3.1-1.8-4.7-2.7c1,0.6,0.9,1.8,0.9,2.9c0,1.2,0,2.4,0,3.6c0,3,0,6,0,9.1c0,2.6-0.1,5-2.2,7c-0.7,0.6-1.5,1.1-2.3,1.5
						c-1.3,0.7-2.6,1.5-3.9,2.2c-1.4,0.8-2.8,1.6-4.2,2.4c-1,0.5-2.2,1.4-3.3,0.8c1.5,0.9,2.9,1.7,4.4,2.6c1.1,0.6,2,0.3,3.1-0.3
						c3.2-1.8,6.4-3.7,9.6-5.5C49.4,41.8,50.8,39.9,51.1,37.8z"/>
					<g>
						<path class="st6" d="M47.8,16.3c3.4-1.9,6.1-0.4,6.1,3.5l0,15.6c0,3.9-2.7,8.6-6.1,10.6l-10.4,6c-3.4,1.9-6.1,0.4-6.1-3.5
							l0-15.6c0-3.9,2.7-8.6,6.1-10.6L47.8,16.3z M51.1,37.2l0-15.6c0-2.1-1.5-2.9-3.2-1.9l-10.4,6c-1.8,1-3.2,3.5-3.2,5.6l0,15.6
							c0,2,1.5,2.9,3.2,1.8l10.4-6C49.7,41.7,51.1,39.2,51.1,37.2"/>
					</g>
				</g>
				<g>
					<path class="st3" d="M47.2,46.9c0-1.8-0.5-3.3-1.9-4.6c-0.7-0.6-0.4-2.2-0.4-3.1c0,1.4-1.7,0.3-3.4,0.3
						c-1.9,0.1-3.8,1.1-3.8-0.3c0,1.3,0.2,2.6-0.8,3.6c-0.5,0.5-1,1-1.2,1.7c-0.4,1.1-0.3,2.1-0.3,3.2c0,1.2-0.3,2.8,0.4,3.9
						c0.5,0.9,1.4,1.4,2.3,1.7c1.8,0.7,4,0.7,5.9,0.2c1.1-0.3,2.3-0.8,2.9-1.8C47.6,50.5,47.2,48.4,47.2,46.9z"/>
					<g>
						<path class="st6" d="M43.9,37.8c1.4,0.8,1.4,2.2,0,3c-1.4,0.8-3.7,0.8-5.1,0s-1.4-2.2,0-3C40.1,36.9,42.4,36.9,43.9,37.8z"/>
					</g>
				</g>
				<path class="st4" d="M35.8,44.1c0,0,0.5,3,4.5,3l-3.2,1.9c0,0-1.3,0.6-2-0.1c-0.4-0.4-0.6-1.3-0.4-2.9
					C34.8,44.7,35.8,44.1,35.8,44.1z"/>
				<g>
					<g class="st2">
						<path class="st3" d="M38.6,37.2c0,0.8-0.3,2.1,0.4,2.7c0.7,0.7,1.9,0.8,2.8,0.7c0.8-0.1,1.9-0.4,2.2-1.2
							c0.2-0.6,0.1-1.5,0.1-2.2C44,37.3,38.6,37.6,38.6,37.2z"/>
						<g>
							<path class="st6" d="M43.2,36.1c1.1,0.6,1.1,1.6,0,2.2c-1.1,0.6-2.8,0.6-3.8,0c-1.1-0.6-1.1-1.6,0-2.2
								C40.4,35.5,42.1,35.5,43.2,36.1z"/>
						</g>
					</g>
				</g>
				<path class="st7" d="M43,31.3c0.1-0.3-0.1-0.6-0.5-0.8c-0.7-0.4-1.8-0.4-2.5,0c-0.3,0.2-0.5,0.5-0.5,0.7c0,0,0,0,0,0l0,5.8
					c0,0.3,0.2,0.5,0.5,0.7c0.1,0,0.2,0.1,0.3,0.1c0,0,0,0,0,0c0,0,0,0,0,0c0.1,0,0.1,0,0.2,0.1c0,0,0.1,0,0.1,0c0,0,0,0,0.1,0
					c0,0,0,0,0,0c0.1,0,0.1,0,0.2,0c0,0,0,0,0.1,0c0,0,0,0,0,0c0,0,0,0,0.1,0c0.1,0,0.1,0,0.2,0c0,0,0,0,0.1,0c0,0,0,0,0,0
					c0,0,0.1,0,0.1,0c0.1,0,0.1,0,0.2,0c0,0,0,0,0,0c0,0,0,0,0.1,0c0.1,0,0.1,0,0.2,0c0,0,0,0,0.1,0c0.1,0,0.1,0,0.2,0
					c0,0,0.1,0,0.1,0c0,0,0,0,0,0c0.1,0,0.2-0.1,0.3-0.2c0,0,0,0,0,0c0,0,0.1,0,0.1-0.1c0,0,0.1-0.1,0.1-0.1c0,0,0,0,0,0
					c0,0,0.1-0.1,0.1-0.1c0,0,0,0,0,0c0,0,0,0,0,0c0,0,0,0,0,0c0,0,0-0.1,0-0.1c0,0,0,0,0,0c0,0,0,0,0,0c0,0,0,0,0-0.1
					c0,0,0-0.1,0-0.1c0,0,0,0,0,0l0-5.8C43,31.3,43,31.3,43,31.3z"/>
				<g>
					<g class="st2">
						<path class="st3" d="M39.2,30.3l0,0.9c0,0.2,0.1,0.4,0.3,0.6c1,0.7,3.1,0.6,3.7-0.1c0.1-0.1,0.1-0.4,0.1-0.4s0-1,0-1
							C43.2,30.4,39.2,30.6,39.2,30.3z"/>
						<g>
							<path class="st6" d="M42.7,29.5c0.8,0.5,0.8,1.2,0,1.7c-0.8,0.5-2.1,0.5-2.9,0c-0.8-0.5-0.8-1.2,0-1.7
								C40.6,29,41.9,29,42.7,29.5z"/>
						</g>
					</g>
				</g>
				<g>
					<g class="st2">
						<path class="st7" d="M43,24.2C43,24.2,43,24.2,43,24.2c0,0.1-0.1,0.1-0.1,0.2c0,0,0,0,0,0c0,0.1-0.1,0.1-0.1,0.2
							c0,0-0.1,0.1-0.1,0.1c0,0-0.1,0.1-0.1,0.1c-0.1,0.1-0.2,0.1-0.3,0.2c0,0-0.1,0-0.1,0c-0.1,0-0.1,0-0.2,0c-0.1,0-0.1,0-0.2,0
							c0,0,0,0-0.1,0c-0.1,0-0.2,0-0.3,0c0,0,0,0,0,0c-0.1,0-0.2,0-0.3,0c0,0,0,0,0,0c-0.1,0-0.2,0-0.3,0c0,0,0,0-0.1,0
							c-0.1,0-0.2,0-0.2-0.1c0,0,0,0,0,0c-0.1,0-0.2-0.1-0.3-0.1c-0.3-0.2-0.5-0.5-0.5-0.7l0,5.8c0,0.3,0.2,0.5,0.5,0.7
							c0.1,0,0.2,0.1,0.3,0.1c0,0,0,0,0,0c0,0,0,0,0,0c0.1,0,0.1,0,0.2,0.1c0,0,0.1,0,0.1,0c0,0,0,0,0.1,0c0,0,0,0,0,0
							c0.1,0,0.1,0,0.2,0c0,0,0,0,0.1,0c0,0,0,0,0,0c0,0,0,0,0.1,0c0.1,0,0.1,0,0.2,0c0,0,0,0,0.1,0c0,0,0,0,0,0c0,0,0.1,0,0.1,0
							c0.1,0,0.1,0,0.2,0c0,0,0,0,0,0c0,0,0,0,0.1,0c0.1,0,0.1,0,0.2,0c0,0,0,0,0.1,0c0.1,0,0.1,0,0.2,0c0,0,0.1,0,0.1,0
							c0,0,0,0,0,0c0.1,0,0.2-0.1,0.3-0.2c0,0,0,0,0,0c0,0,0.1,0,0.1-0.1c0,0,0.1-0.1,0.1-0.1c0,0,0,0,0,0c0,0,0.1-0.1,0.1-0.1
							c0,0,0,0,0,0c0,0,0,0,0,0c0,0,0,0,0,0c0,0,0-0.1,0-0.1c0,0,0,0,0,0c0,0,0,0,0,0c0,0,0,0,0-0.1c0,0,0-0.1,0-0.1c0,0,0,0,0,0
							l0-5.8C43,24.1,43,24.1,43,24.2z"/>
						<g>
							<path class="st7" d="M42.5,23.3c0.7,0.4,0.7,1,0,1.4c-0.7,0.4-1.8,0.4-2.5,0c-0.7-0.4-0.7-1,0-1.4
								C40.7,22.9,41.8,22.9,42.5,23.3z"/>
						</g>
					</g>
				</g>
				<g>
					<g class="st2">
						<path class="st3" d="M35.3,17l0,6.8c0,0.9,0.6,1.7,1.7,2.4c0.3,0.1,0.5,0.3,0.8,0.4c0,0,0,0,0,0c0,0,0.1,0,0.1,0
							c0.2,0.1,0.3,0.1,0.5,0.2c0.1,0,0.2,0,0.3,0.1c0.1,0,0.1,0,0.2,0c0.1,0,0.1,0,0.1,0c0.2,0,0.4,0.1,0.6,0.1c0.1,0,0.1,0,0.2,0
							c0,0,0.1,0,0.1,0c0.1,0,0.1,0,0.2,0c0.2,0,0.4,0,0.6,0c0.1,0,0.1,0,0.2,0c0.1,0,0.1,0,0.2,0c0.1,0,0.2,0,0.3,0
							c0.2,0,0.4,0,0.6,0c0,0,0,0,0.1,0c0.1,0,0.1,0,0.2,0c0.2,0,0.3,0,0.5-0.1c0.1,0,0.1,0,0.2-0.1c0.2,0,0.4-0.1,0.6-0.1
							c0.1,0,0.2,0,0.3-0.1c0,0,0.1,0,0.1-0.1c0.4-0.1,0.8-0.3,1.1-0.5c0,0,0,0,0.1,0c0.1-0.1,0.2-0.1,0.3-0.2
							c0.1-0.1,0.3-0.2,0.4-0.3c0,0,0,0,0,0c0.1-0.1,0.3-0.3,0.4-0.4c0,0,0-0.1,0.1-0.1c0,0,0-0.1,0.1-0.1c0-0.1,0.1-0.1,0.1-0.2
							c0.1-0.1,0.1-0.2,0.2-0.3c0,0,0,0,0-0.1c0,0,0,0,0-0.1c0-0.1,0-0.1,0.1-0.2c0-0.1,0-0.2,0-0.3c0,0,0,0,0-0.1l0-6.8
							C46.8,17.2,35.3,17.8,35.3,17z"/>
						<g>
							<path class="st6" d="M45.1,14.6c2.2,1.3,2.3,3.4,0,4.7c-2.2,1.3-5.9,1.3-8.1,0c-2.2-1.3-2.3-3.4,0-4.7
								C39.2,13.3,42.9,13.3,45.1,14.6z"/>
						</g>
					</g>
				</g>
				<g>
					<g class="st2">
						<path class="st3" d="M45.5,12.1c-0.5,1.7-8.9,1.5-8.9-0.5c0,1.3,0,2.6,0,3.9c0,0.5,0,0.9,0,1.4c0.1,1.2,1.2,1.9,2.2,2.2
							c1.6,0.6,3.6,0.5,5.2-0.2c1.2-0.6,1.6-1.4,1.6-2.7c0-1.5,0-3,0-4.6C45.6,11.8,45.6,12,45.5,12.1z"/>
						<g>
							<path class="st6" d="M44.3,9.8c1.8,1,1.8,2.7,0,3.7c-1.7,1-4.6,1-6.3,0c-1.8-1-1.8-2.7,0-3.7C39.7,8.8,42.5,8.8,44.3,9.8z"/>
						</g>
					</g>
				</g>
				<g>
					<g>
						<g class="st2">
							<path class="st7" d="M52.6,5c-4.4-2.6-10-3.2-15-2.5C33,3.1,26.4,5.1,25.1,10.1c-0.4,1.5-0.2,3.2-0.2,4.7
								c0-5.2,6.3-7.9,10.6-8.8c5.3-1.1,11.2-0.7,16.2,1.6c2.8,1.4,5.9,3.9,5.8,7.3c0-1.3,0.1-2.7-0.1-4C57,8.3,54.8,6.3,52.6,5z"/>
							<g class="st2">
								<defs>
									<path id="SVGID_1_" class="st2" d="M61.3,11.8c0,2.9,0.1,5.5-1.7,7.9c-2.6,3.4-7.1,5.2-11.2,6.2c-4.3,0.9-8.8,1-13.1,0.3
										c-4.2-0.7-8.6-2.3-11.7-5.3c-1.6-1.5-2.7-3.5-2.8-5.7c0-1.1,0-2.3,0-3.4c0,2.6,2,4.4,3.9,6c3,2.7,7.1,3.9,10.6,4.5
										c6.5,1.2,13.4,0.3,19.2-2.9C57.8,17.6,61.3,15.6,61.3,11.8z"/>
								</defs>
								<clipPath id="SVGID_2_">
									<use xlink:href="#SVGID_1_"  style="overflow:visible;"/>
								</clipPath>
								<path class="st9" d="M61.3,11.9c-0.1,3.5-3.2,5.5-6.1,7.2c-3,1.8-6.1,2.7-9.5,3.1c-6.7,0.9-14,0.2-19.7-3.8
									c-2.5-1.7-5.1-3.7-5.1-6.8c0,2.3-0.2,4.6,0.9,6.7c2.1,3.8,6.6,6,10.6,7.1c4.4,1.2,9,1.5,13.5,0.8c4.5-0.6,9.3-2.2,12.6-5.4
									c1.6-1.6,2.7-3.6,2.8-6c0-1.1,0-2.1,0-3.2C61.3,11.8,61.3,11.9,61.3,11.9z"/>
							</g>
						</g>
					</g>
					<g>
						<g class="st2">
							<g class="st2">
								<defs>
									<path id="SVGID_3_" class="st2" d="M48,3.4c0,0.9,0,1.9,0,2.8c0-1,0-2,0-3C48,3.2,48,3.3,48,3.4z"/>
								</defs>
								<clipPath id="SVGID_4_">
									<use xlink:href="#SVGID_3_"  style="overflow:visible;"/>
								</clipPath>
								<g class="st10">
									<path class="st11" d="M48,3.4c0,0.9,0,1.9,0,2.8c0-1,0-2,0-3C48,3.2,48,3.3,48,3.4"/>
								</g>
							</g>
							<path class="st7" d="M45.3,12.8c3.2-1.4,7-2.7,10.6-2.3c0-0.5,0-1.1,0-1.6c0-0.3,0.1-0.7,0-1c-0.1-0.3,0-0.3-0.6-0.3
								c-1.9-0.1-3.8-0.4-5.7,0.1c-0.8,0.2-1.7,0.6-2.5,0.9c-0.8,0.3-1.9,1.1-2.6,1.7c-0.3,0.3-0.2,0-0.3,0.4c-0.1,0.3,0,0.7,0,1
								c0,0.5,0,1.1,0,1.6C44.6,13.1,45,13,45.3,12.8z"/>
							<g>
								<path class="st12" d="M44.3,10.5c0,0.9,0,1.9,0,2.8c-0.3-0.2-0.8-0.4-1.1-0.6c-0.3-0.3-0.2-0.1-0.3-0.5
									c-0.1-0.8,0-1.6,0-2.4C43.4,10,43.9,10.2,44.3,10.5z"/>
							</g>
						</g>
					</g>
					<g>
						<g class="st2">
							<g>
								<path class="st8" d="M47.3,10.7c-0.5,1-0.6,2.2-1.1,3.3c-0.1,0.3-0.6,0.8-0.6,0.8S44.4,14.9,44,15c-1.3,0.2-2.9,0.3-4.3,0.5
									c-0.8,0.1-1-0.6-1.7-1c-0.6-0.4-1.2-0.7-1.8-1.1c-0.2-0.1-1.1-0.5-1.2-0.7c-0.1-0.2,0.2-0.6,0.3-0.8c0.3-0.7,0.6-1.4,0.9-2
									c0.4-0.9,0.5-0.8,1.5-0.9c1.4-0.2,5.1-0.8,5.1-0.8S46.2,10.1,47.3,10.7z"/>
							</g>
							<path class="st7" d="M45.5,14.4c-1.8,0.3-6.1,0.9-6.1,0.9s0.1,2.3,0.1,3.2c1.8-0.3,6.2-1.1,6.2-1c0.5-1.1,1.6-3.5,1.6-3.5
								s0.1-2.3,0.1-3.3C46.9,11.8,45.7,14,45.5,14.4z"/>
							<g>
								<path class="st7" d="M39.7,15.4c0,1.1-0.2,2-0.2,3.1c-1.4-0.8-2.7-1.6-4.1-2.4c-0.6-0.3-0.5-0.4-0.5-1.1c0-0.8,0-1.6,0-2.4
									C36.5,13.5,38.2,14.5,39.7,15.4z"/>
							</g>
						</g>
					</g>
					<g>
						<g class="st2">
							<g>
								<path class="st7" d="M34,20.6c0.6-0.6,1.5-1.6,2.2-2.1c0.5-0.4,1.6-1,1.6-1s0-2.3,0-3.1c-2,1.1-5.1,3.2-5.7,5.5
									C32.4,19.9,33.9,20.8,34,20.6z"/>
							</g>
							<path class="st8" d="M61.3,10.6c-0.5-3.2-3.2-5.6-5.9-7.2c-6.7-3.9-15.6-4.3-23-2.3C27,2.6,19.1,7,21.2,13.8
								c1,3.2,3.9,5.4,6.7,6.8c3.1,1.5,6.5,2.4,9.9,2.7c6.7,0.6,14.8-0.4,20.1-5.1C60.2,16.3,61.7,13.6,61.3,10.6z M46.1,20.7
								c-4.4,0.8-9.3,0.6-13.5-1c0.1-0.1,0.1-0.2,0.3-0.5c1.1-2.1,3.3-3.9,5.3-5.1c-0.4-0.2-1.6-0.9-1.6-0.9s-1.5,0.8-1.8,0.9
								c-2.5,1-5.1,1.8-7.7,2.2c-1.3-1.3-2.2-2.8-2.2-4.7c0-2.9,2.2-5.2,4.6-6.6c4.8-2.9,11-3.4,16.4-2.4C46.5,2.8,47.2,3,48,3.2
								c0,0,0,0,0,0c0.3,2.9-2.9,5.3-5,6.5c0.5,0.3,1.6,0.7,1.6,0.7s1.7-0.7,2.5-1c2.7-1,5.8-1.9,8.8-1.6c-0.1-0.2,0.1,0.1,0.3,0.4
								c0.8,1.1,1.3,2.2,1.3,3.6C57.5,17.2,50.6,19.9,46.1,20.7z"/>
						</g>
					</g>
				</g>
				<path class="st6" d="M40.3,47.1l-2.7,1.6c-1.8,1-3.3,0.2-3.3-1.9l-2.8,1.7c0,3.9,2.8,5.4,6.1,3.5l2.7-1.6V47.1z"/>
			</g>
		</g>
		<g>
			<g>
				<g class="st2">
					<path class="st3" d="M38.9,85.8c-0.2-7.7-3.8-15.3-8.7-21.1c-4.3-5.2-12.7-12-19.8-8.1c-1.9,1-3.7,2.1-5.5,3.2
						c3.4-2,27.5,38.4,23.6,40.6c1.9-1.1,3.8-2.1,5.6-3.3C37.9,94.8,39,90,38.9,85.8z"/>
					<g>
						<path class="st4" d="M16.7,61c7.4,4.3,12.7,12.2,15.2,20.2c1.9,6.1,3,16.4-4.2,19.6c-3.2,1.4-6.8,0.6-9.8-0.9
							c-3.7-1.8-6.9-4.7-9.5-7.9c-5.2-6.4-9.2-15.2-8.3-23.6c0.4-3.6,1.9-7.4,5.3-9C9.1,57.8,13.4,59.1,16.7,61z"/>
					</g>
				</g>
			</g>
			<g>
				<ellipse transform="matrix(0.8646 -0.5025 0.5025 0.8646 -31.904 11.9788)" class="st5" cx="6.3" cy="65.2" rx="1.5" ry="2.5"/>
			</g>
			<g>
				
					<ellipse transform="matrix(0.8646 -0.5025 0.5025 0.8646 -34.2032 22.9514)" class="st5" cx="25.5" cy="74.9" rx="1.5" ry="2.5"/>
			</g>
			<g>
				
					<ellipse transform="matrix(0.8646 -0.5025 0.5025 0.8646 -41.9367 15.0325)" class="st5" cx="6.9" cy="85.3" rx="1.5" ry="2.5"/>
			</g>
			<g>
				
					<ellipse transform="matrix(0.8646 -0.5025 0.5025 0.8646 -45.5756 24.4985)" class="st5" cx="22.7" cy="96.8" rx="1.5" ry="2.5"/>
			</g>
			<g>
				<g class="st2">
					<path class="st0" d="M26.2,85.6c-0.1-4.5-2.2-9-5-12.4c-2.3-2.9-6-6.2-10.1-5.9c-1,0.1-1.9,0.4-2.7,1c-0.3,0.2-0.6,0.3-0.6,0.7
						c0,0.5,0.7,0.3,1.2,0.3c2.9,0.3,5.5,2.2,7.4,4.2c3.9,4,6.9,10,6.3,15.7c-0.1,0.7-0.2,1.5-0.5,2.2c-0.1,0.2-0.8,1.5-0.7,1.6
						c0.5,0.6,2.1-0.7,2.4-0.9C25.8,90.4,26.2,87.9,26.2,85.6z"/>
					<g>
						
							<ellipse transform="matrix(0.8646 -0.5025 0.5025 0.8646 -38.5484 18.5534)" class="st8" cx="15.2" cy="80.8" rx="8.2" ry="14.2"/>
					</g>
					<g>
						
							<ellipse transform="matrix(0.8646 -0.5025 0.5025 0.8646 -38.5482 18.5533)" class="st7" cx="15.2" cy="80.8" rx="4.2" ry="7.2"/>
					</g>
				</g>
			</g>
		</g>
	</g>
</g>
</svg>
