<?xml version="1.0" encoding="utf-8"?>
<!-- Generator: Adobe Illustrator 23.0.3, SVG Export Plug-In . SVG Version: 6.00 Build 0)  -->
<svg version="1.1" id="Capa_1" xmlns="http://www.w3.org/2000/svg" xmlns:xlink="http://www.w3.org/1999/xlink" x="0px" y="0px"
	 viewBox="0 0 134.8 136.8" style="enable-background:new 0 0 134.8 136.8;" xml:space="preserve">
<style type="text/css">
	.st0{fill:#6ABA82;}
	.st1{fill:#31AA59;}
	.st2{fill:#006E32;}
	.st3{enable-background:new    ;}
	.st4{fill:#F2F1F1;}
	.st5{fill:#E7E6E6;}
	.st6{fill:#FFFFFF;}
	.st7{fill:#4C4C4C;}
	.st8{fill:#676767;}
	.st9{fill:#D94B94;}
	.st10{fill:#E47DAE;}
	.st11{fill:#F39A00;}
	.st12{fill:#FBC165;}
	.st13{fill:#3458A3;}
	.st14{fill:#80A1D4;}
	.st15{fill:#DA6CA6;}
</style>
<g>
	<g>
		<polygon class="st0" points="38.1,119.8 36.5,118.8 30.5,122.2 32.2,123.2 		"/>
		<polygon class="st1" points="6.8,67.9 86.1,22.2 86.1,42 6.8,87.7 		"/>
		<g>
			<polygon class="st0" points="3.7,64.9 83,19.2 86.1,22.2 6.8,67.9 			"/>
		</g>
		<polygon class="st2" points="84.8,23 84.8,43.7 124.9,66.9 124.9,46.1 		"/>
		<g>
			<polygon class="st2" points="130.1,90.3 130.1,49.1 125.3,46.4 125.3,87.5 			"/>
			<polygon class="st0" points="125.3,46.4 130,43.6 134.8,46.4 130.1,49.1 			"/>
		</g>
		<g>
			<polygon class="st1" points="4.7,111 4.7,69.8 9.5,67 9.5,108.2 			"/>
			<polygon class="st2" points="4.8,111 4.8,69.8 0,67 0,108.2 			"/>
			<polygon class="st0" points="0,67.1 4.7,64.3 9.5,67.1 4.8,69.8 			"/>
		</g>
		<polygon class="st0" points="80.6,20.6 130,49.2 134.8,46.4 85.3,17.8 		"/>
		<g>
			<g class="st3">
				<path class="st4" d="M115.5,41.1c-0.2-6.8-2.5-13.6-5.7-19.6c-3.3-6.1-7.7-11.8-13.2-16c-4.5-3.4-10.5-6.4-16.3-5.3
					c-2,0.4-3.7,1.4-5.4,2.4C72,4.3,63,9.4,62.9,9.4c3.9-2.3,8.2-1.1,12.3,0.6c5.2,2.1,9.6,5.9,13.2,10c7,8,12.1,18.6,12.5,29.3
					c0.2,5.8-0.4,12-5.8,15.1c7.6-4.4,13.2-7.5,14-8C114.3,53.2,115.6,46.7,115.5,41.1z"/>
				<g>
					<path class="st5" d="M79.2,10.7c12.5,7.2,22.8,25,22.8,39.4c0,14.3-10.4,20-22.9,12.8s-22.6-24.7-22.5-39
						C56.6,9.5,66.7,3.5,79.2,10.7z"/>
				</g>
			</g>
		</g>
		<g>
			<g class="st3">
				<path class="st6" d="M98.4,48c-0.2-6.1-2.2-12.1-5-17.4c-2.9-5.4-6.8-10.5-11.8-14.2c-4-3.1-9.3-5.7-14.5-4.7
					c-1.8,0.4-3.2,1.3-4.7,2.1c-5.1,3-10.3,6-15.4,9c-6.8,3.9-13.5,7.9-20.3,11.8c-3.9,2.3-7.8,4.5-11.7,6.8c-0.1,0-0.1,0.1-0.2,0.1
					c3.5-2,5.8-0.4,9.3,1.1c4.6,1.9,8.5,5.2,11.8,8.9c6.2,7.1,10.7,16.5,11.1,26c0.2,5.1,1,10.1-3.8,12.9
					c6.7-3.9,13.5-7.8,20.2-11.7c9-5.3,18.1-10.5,27.1-15.8c0.8-0.4,1.6-0.9,2.3-1.4C97.3,58.7,98.5,53,98.4,48z"/>
				<g>
					<path class="st5" d="M29,42.7c11.1,6.4,20.3,22.3,20.2,35c0,12.7-9.2,17.8-20.3,11.4S8.8,67.2,8.9,54.4
						C8.9,41.6,17.9,36.3,29,42.7z"/>
				</g>
			</g>
		</g>
		<g>
			<polygon class="st0" points="131.6,66.8 121.3,60.8 40.8,107.3 51.1,113.3 			"/>
			<polygon class="st1" points="46,92.2 125.3,46.5 125.3,63.3 46,109 			"/>
			<g>
				<polygon class="st0" points="42.9,89.2 122.2,43.5 125.3,46.5 46,92.2 				"/>
			</g>
			<g>
				<g>
					<polygon class="st7" points="64.3,98.1 68.3,95.8 72.3,98.1 68.4,100.4 					"/>
					<polygon class="st8" points="68.3,101.3 68.4,100.4 72.3,98.1 72.3,99 					"/>
					<polygon points="68.3,101.3 64.3,99 64.3,98.1 68.4,100.4 					"/>
				</g>
				<g>
					<g>
						<g class="st3">
							<g>
								<path class="st9" d="M71.2,95c0,0.4-0.3,0.8-0.8,1c-1.1,0.6-2.9,0.7-4.1,0c-0.5-0.3-0.7-0.6-0.8-1l0,0v2.5
									c0,0.1,0,0.2,0,0.3l0,0l0,0c0.1,0.4,0.3,0.7,0.8,1c1.1,0.6,2.9,0.6,4,0c0.5-0.3,0.8-0.7,0.8-1.1l0,0v-0.2L71.2,95L71.2,95z"
									/>
								<path class="st10" d="M70.3,93.7c-1.1-0.6-2.9-0.6-4,0c-0.6,0.4-0.9,0.9-0.8,1.4c0.1,0.4,0.3,0.7,0.8,1
									c1.1,0.6,2.9,0.6,4.1,0c0.5-0.3,0.8-0.7,0.8-1C71.2,94.6,70.9,94.1,70.3,93.7"/>
							</g>
						</g>
					</g>
				</g>
				<g>
					<polygon class="st7" points="58.9,101.2 62.9,99 66.9,101.3 62.9,103.6 					"/>
					<polygon class="st8" points="62.9,104.5 62.9,103.6 66.9,101.3 66.9,102.2 					"/>
					<polygon points="62.9,104.5 58.9,102.1 58.9,101.2 62.9,103.6 					"/>
				</g>
				<g>
					<g>
						<g class="st3">
							<g>
								<path class="st11" d="M65.7,98.2c0,0.4-0.3,0.8-0.8,1c-1.1,0.6-2.9,0.7-4.1,0c-0.5-0.3-0.7-0.6-0.8-1l0,0v2.5
									c0,0.1,0,0.2,0,0.3l0,0l0,0c0.1,0.4,0.3,0.7,0.8,1c1.1,0.6,2.9,0.6,4,0c0.5-0.3,0.8-0.7,0.8-1.1l0,0v-0.2L65.7,98.2
									L65.7,98.2z"/>
								<path class="st12" d="M64.9,96.9c-1.1-0.6-2.9-0.6-4,0c-0.6,0.4-0.9,0.9-0.8,1.4c0.1,0.4,0.3,0.7,0.8,1
									c1.1,0.6,2.9,0.6,4.1,0c0.5-0.3,0.8-0.7,0.8-1C65.8,97.7,65.5,97.2,64.9,96.9"/>
							</g>
						</g>
					</g>
				</g>
				<g>
					<g>
						<polygon class="st7" points="53.3,104.4 57.3,102.2 61.3,104.5 57.3,106.7 						"/>
						<polygon class="st8" points="57.3,107.6 57.3,106.7 61.3,104.5 61.3,105.3 						"/>
						<polygon points="57.3,107.6 53.3,105.3 53.3,104.4 57.3,106.7 						"/>
					</g>
					<g>
						<g>
							<g class="st3">
								<g>
									<path class="st13" d="M60.1,101.4c0,0.4-0.3,0.8-0.8,1c-1.1,0.6-2.9,0.7-4.1,0c-0.5-0.3-0.7-0.6-0.8-1l0,0v2.5
										c0,0.1,0,0.2,0,0.3l0,0l0,0c0.1,0.4,0.3,0.7,0.8,1c1.1,0.6,2.9,0.6,4,0c0.5-0.3,0.8-0.7,0.8-1.1l0,0v-0.2L60.1,101.4
										L60.1,101.4z"/>
									<path class="st14" d="M59.3,100.1c-1.1-0.6-2.9-0.6-4,0c-0.6,0.4-0.9,0.9-0.8,1.4c0.1,0.4,0.3,0.7,0.8,1
										c1.1,0.6,2.9,0.6,4.1,0c0.5-0.3,0.8-0.7,0.8-1C60.2,100.9,59.9,100.4,59.3,100.1"/>
								</g>
							</g>
						</g>
					</g>
				</g>
			</g>
			<polygon class="st1" points="54.1,109.9 130.1,66 130.1,71 54.1,114.9 			"/>
			<g>
				<polygon class="st7" points="94.9,80.5 98.9,78.2 102.9,80.5 98.9,82.8 				"/>
				<polygon class="st8" points="98.9,83.7 98.9,82.8 102.9,80.5 102.9,81.4 				"/>
				<polygon points="98.9,83.7 94.9,81.4 94.9,80.5 98.9,82.8 				"/>
			</g>
			<g>
				<polygon class="st10" points="90,83.2 93.9,81 97.9,83.3 94,85.5 				"/>
				<polygon class="st15" points="94,86.4 94,85.5 97.9,83.3 97.9,84.1 				"/>
				<polygon class="st9" points="94,86.4 90,84.1 90,83.2 94,85.5 				"/>
			</g>
			<g>
				<polygon class="st6" points="85.2,86.1 89.1,83.8 93.1,86.1 89.2,88.4 				"/>
				<polygon class="st4" points="89.2,89.3 89.2,88.4 93.1,86.1 93.1,87 				"/>
				<polygon class="st5" points="89.2,89.3 85.2,86.9 85.2,86.1 89.2,88.4 				"/>
			</g>
		</g>
		<g>
			<polygon class="st2" points="4.7,69.9 4.7,90.6 44.9,113.8 44.9,93 			"/>
			<g>
				<polygon class="st1" points="49.5,136.8 49.5,95.6 54.2,92.9 54.2,134.1 				"/>
				<polygon class="st2" points="49.5,136.8 49.5,95.6 44.7,92.9 44.7,134.1 				"/>
				<polygon class="st0" points="44.7,92.9 49.5,90.2 54.2,92.9 49.5,95.6 				"/>
			</g>
			<polygon class="st0" points="0,67.1 49.5,95.7 54.2,92.9 4.7,64.3 			"/>
		</g>
		<g>
			<g>
				<g class="st3">
					<path class="st0" d="M31.5,93.7c0-1.6-0.6-3.1-1.3-4.5c-0.8-1.4-1.8-2.7-3.1-3.7c-1-0.8-2.4-1.5-3.8-1.2
						c-0.5,0.1-0.8,0.3-1.2,0.6c-1.3,0.8-3.8,2.2-3.8,2.2c0.9-0.5,2-0.4,3,0c1.2,0.5,2.2,1.4,3.1,2.3c1.6,1.8,2.8,4.3,2.9,6.8
						c0.1,1.3-0.3,2.9-1.5,3.6c1.7-1,1.4-0.8,3.7-2.2c0.2-0.1,0.4-0.2,0.6-0.4C31.2,96.5,31.5,95,31.5,93.7z"/>
					<g>
						<path class="st0" d="M22,87.4c2.9,1.7,5.3,5.8,5.3,9.1c0,3.3-2.4,4.6-5.3,3c-2.9-1.7-5.2-5.7-5.2-9
							C16.8,87.1,19.1,85.7,22,87.4z"/>
					</g>
				</g>
			</g>
			<g>
				<g class="st3">
					<path class="st1" d="M29,96.4c-0.1-1.9-0.7-3.8-1.6-5.5s-2.2-3.3-3.7-4.5c-1.3-1-2.9-1.8-4.6-1.5c-0.6,0.1-1,0.4-1.5,0.7
						C16,86.5,13,88.3,13,88.3c1.1-0.6,2.4-0.5,3.6,0c1.4,0.6,2.7,1.6,3.7,2.8c2,2.2,3.4,5.2,3.5,8.2c0.1,1.6-0.3,3.5-1.8,4.4
						c2.1-1.2,1.7-1,4.5-2.6c0.2-0.1,0.5-0.3,0.7-0.4C28.7,99.7,29.1,97.9,29,96.4z"/>
					<g>
						<path class="st1" d="M17.5,88.7c3.5,2,6.4,7,6.4,11s-2.9,5.6-6.4,3.6s-6.3-6.9-6.3-10.9C11.2,88.3,14,86.7,17.5,88.7z"/>
					</g>
				</g>
			</g>
			<g>
				<g class="st3">
					<path class="st0" d="M21.9,99.3c0-1.6-0.6-3.1-1.3-4.5c-0.8-1.4-1.8-2.7-3.1-3.7c-1-0.8-2.4-1.5-3.8-1.2
						c-0.5,0.1-0.8,0.3-1.2,0.6c-1.3,0.8-3.8,2.2-3.8,2.2c0.9-0.5,2-0.4,3,0c1.2,0.5,2.2,1.4,3.1,2.3c1.6,1.8,2.8,4.3,2.9,6.8
						c0.1,1.3-0.3,2.9-1.5,3.6c1.7-1,1.4-0.8,3.7-2.2c0.2-0.1,0.4-0.2,0.6-0.4C21.6,102.1,21.9,100.6,21.9,99.3z"/>
					<g>
						<path class="st2" d="M12.4,93c2.9,1.7,5.3,5.8,5.3,9.1c0,3.3-2.4,4.6-5.3,3c-2.9-1.7-5.2-5.7-5.2-9C7.2,92.7,9.5,91.3,12.4,93
							z"/>
					</g>
				</g>
			</g>
		</g>
		<g>
			<polygon class="st1" points="38,119.8 38,105.9 39.6,105 39.6,118.8 			"/>
			<polygon class="st5" points="38,119.8 38,105.9 36.4,105 36.4,118.8 			"/>
			<polygon class="st0" points="36.4,105 38,104.1 39.6,105 38,105.9 			"/>
		</g>
		<g>
			<polygon class="st1" points="41.4,109.7 41.4,98.7 44.2,97.1 44.2,108.1 			"/>
			<polygon class="st5" points="41.5,109.7 41.5,98.7 33.4,94 33.4,105 			"/>
			<polygon class="st0" points="33.4,94 36.2,92.4 44.2,97.1 41.5,98.7 			"/>
		</g>
		<polygon class="st0" points="26.9,123.8 31.7,121.1 36.4,123.8 31.7,126.6 		"/>
		<polygon class="st1" points="32.2,123.2 39.6,118.8 39.6,120.5 32.2,124.9 		"/>
		<polygon class="st5" points="30.7,122.3 30.7,124 32.2,124.9 32.2,123.2 		"/>
	</g>
	<polygon class="st1" points="130,90.3 130,49.1 134.8,46.4 134.8,87.5 	"/>
</g>
</svg>
