<?xml version="1.0" encoding="utf-8"?>
<!-- Generator: Adobe Illustrator 23.0.4, SVG Export Plug-In . SVG Version: 6.00 Build 0)  -->
<svg version="1.1" id="Capa_1" xmlns="http://www.w3.org/2000/svg" xmlns:xlink="http://www.w3.org/1999/xlink" x="0px" y="0px"
	 viewBox="0 0 91 111.8" style="enable-background:new 0 0 91 111.8;" xml:space="preserve">
<style type="text/css">
	.st0{fill:#D0D9EF;}
	.st1{fill:#BFC9E8;}
	.st2{fill:#C6C6C5;}
	.st3{fill:#D9D9D9;}
	.st4{fill:#E7E6E6;}
	.st5{fill:#3458A3;}
	.st6{enable-background:new    ;}
	.st7{fill:#9FABD8;}
	.st8{fill:#264B8C;}
	.st9{clip-path:url(#SVGID_2_);}
	.st10{fill:#EAEAEA;}
	.st11{fill:#868686;}
	.st12{fill:#B3B4B3;}
	.st13{fill:#636363;}
	.st14{clip-path:url(#SVGID_4_);}
	.st15{fill:#EA6A80;}
	.st16{fill:#CC5261;}
	.st17{fill:#751518;}
	.st18{fill:#BD1622;}
	.st19{fill:#5B1016;}
	.st20{clip-path:url(#SVGID_6_);}
	.st21{fill:#88D39C;}
	.st22{fill:#6ABA82;}
	.st23{fill:#006E32;}
	.st24{fill:#31AA59;}
	.st25{fill:#035426;}
	.st26{clip-path:url(#SVGID_8_);}
</style>
<g>
	<g>
		<g>

			<g>
				<polygon class="st2" points="86.7,99.7 86.7,46.4 88.8,47.7 88.8,101 				"/>
				<polygon class="st3" points="91,99.7 90.9,46.4 88.8,47.7 88.8,101 				"/>
				<polygon class="st4" points="88.8,45.2 86.7,46.4 88.8,47.7 90.9,46.4 				"/>
			</g>
		</g>
		<g>
		
			<g>
				<g>
					<g>
						<g class="st6">

							<g>
								<path class="st1" d="M80.8,45c3.3-1.9,6-0.4,6,3.4c0,3.8-2.7,8.4-5.9,10.3c-3.3,1.9-6,0.4-6-3.4
									C74.9,51.5,77.5,46.9,80.8,45z"/>
							</g>
						</g>
					</g>
					<g>
						<g>
							<polygon class="st1" points="86.8,40.8 86.8,47.6 74.8,54.7 74.8,47.9 							"/>
						</g>
		
					</g>
	
				</g>
				<g>
					<g>
						<g>
							<polygon class="st3" points="87.7,47.6 87.7,54.8 83.5,48.4 83.6,45.2 							"/>
						</g>
		
						<g>
							<polygon class="st3" points="87.7,47.6 87.7,54.8 82,58.1 82,50.9 							"/>
						</g>
						<g>
							<polygon class="st2" points="82,50.9 82,58.1 77.9,55.7 77.9,48.5 							"/>
						</g>
					</g>
					<polygon class="st4" points="83.6,45.2 87.7,47.6 82,50.9 77.9,48.5 					"/>
				</g>
				<g>
					<g class="st6">
						<path class="st2" d="M87.8,52.4l-2.4-1.4c0,0,0,0,0,0c0,0,0,0-0.1,0c-0.2-0.1-0.3-0.1-0.5,0c0,0-0.1,0-0.1,0
							c-0.7,0.3-1.3,1.1-1.4,1.9c0,0.1,0,0.2,0,0.2c0,0.4,0.1,0.6,0.3,0.8l2.4,1.4C85.9,55.1,87.8,52.3,87.8,52.4z"/>
						<g>
							<path class="st3" d="M87,52.4c0.7-0.4,1.2-0.1,1.2,0.7c0,0.8-0.5,1.7-1.2,2c-0.7,0.4-1.2,0.1-1.2-0.7
								C85.8,53.7,86.3,52.8,87,52.4z"/>
						</g>
					</g>
				</g>

			</g>
		</g>
	</g>


</g>
</svg>
