<?xml version="1.0" encoding="utf-8"?>
<!-- Generator: Adobe Illustrator 23.0.4, SVG Export Plug-In . SVG Version: 6.00 Build 0)  -->
<svg version="1.1" id="Capa_1" xmlns="http://www.w3.org/2000/svg" xmlns:xlink="http://www.w3.org/1999/xlink" x="0px" y="0px"
	 viewBox="0 0 91 111.8" style="enable-background:new 0 0 91 111.8;" xml:space="preserve">
<style type="text/css">
	.st0{fill:#D0D9EF;}
	.st1{fill:#BFC9E8;}
	.st2{fill:#C6C6C5;}
	.st3{fill:#D9D9D9;}
	.st4{fill:#E7E6E6;}
	.st5{fill:#3458A3;}
	.st6{enable-background:new    ;}
	.st7{fill:#9FABD8;}
	.st8{fill:#264B8C;}
	.st9{clip-path:url(#SVGID_2_);}
	.st10{fill:#EAEAEA;}
	.st11{fill:#868686;}
	.st12{fill:#B3B4B3;}
	.st13{fill:#636363;}
	.st14{clip-path:url(#SVGID_4_);}
	.st15{fill:#EA6A80;}
	.st16{fill:#CC5261;}
	.st17{fill:#751518;}
	.st18{fill:#BD1622;}
	.st19{fill:#5B1016;}
	.st20{clip-path:url(#SVGID_6_);}
	.st21{fill:#88D39C;}
	.st22{fill:#6ABA82;}
	.st23{fill:#006E32;}
	.st24{fill:#31AA59;}
	.st25{fill:#035426;}
	.st26{clip-path:url(#SVGID_8_);}
</style>
<g>
	<g>
		<polygon class="st0" points="66.2,47.4 68.9,48.9 60.2,54 57.4,52.5 		"/>
		<g>
			<polygon class="st1" points="68.9,48.9 60.2,54 60.2,53.3 68.9,48.1 			"/>
		</g>
	</g>
	<g>
		<polygon class="st0" points="32.3,29 35,30.5 26.2,35.6 23.5,34.1 		"/>
		<g>
			<polygon class="st1" points="35,30.5 26.2,35.6 26.2,34.9 35,29.7 			"/>
		</g>
	</g>
	<g>
		<polygon class="st0" points="48.1,37.6 50.8,39.1 42.1,44.2 39.4,42.7 		"/>
		<g>
			<polygon class="st1" points="50.8,39.1 42.1,44.2 42.1,43.5 50.8,38.4 			"/>
		</g>
	</g>
	<g>
		<g>
			<g>
				<polygon class="st2" points="68,110.5 68,57.2 70.1,58.5 70.2,111.8 				"/>
				<polygon class="st3" points="72.3,110.5 72.3,57.2 70.1,58.5 70.1,111.8 				"/>
				<polygon class="st4" points="70.1,56 68,57.2 70.1,58.5 72.3,57.2 				"/>
			</g>
			<g>
				<polygon class="st2" points="86.7,99.7 86.7,46.4 88.8,47.7 88.8,101 				"/>
				<polygon class="st3" points="91,99.7 90.9,46.4 88.8,47.7 88.8,101 				"/>
				<polygon class="st4" points="88.8,45.2 86.7,46.4 88.8,47.7 90.9,46.4 				"/>
			</g>
			<polygon class="st4" points="70.1,58.5 90.9,46.4 88.8,45.2 68,57.2 			"/>
			<polygon class="st3" points="72.3,57.2 72.3,60.1 88.8,50.6 88.8,47.7 			"/>
		</g>
		<g>
			<polyline class="st5" points="3.6,7 0,21.1 1.8,20 13.8,13 			"/>
			<g>
				<g>
					<g>
						<g class="st6">
							<path class="st7" d="M85,44.6L13.7,3.2c0,0,0,0,0,0C13.6,3.1,13.5,3,13.4,3c-0.8-0.3-1.7-0.3-2.5,0c-0.1,0-0.3,0.1-0.4,0.1
								c-3.7,1.4-6.3,5.8-6.8,9.6c-0.1,0.4-0.1,0.8-0.1,1.2c0,1.9,0.7,3.2,1.7,3.8l71.3,41.4C75.5,58.5,84.9,44.5,85,44.6z"/>
							<g>
								<path class="st1" d="M80.8,45c3.3-1.9,6-0.4,6,3.4c0,3.8-2.7,8.4-5.9,10.3c-3.3,1.9-6,0.4-6-3.4
									C74.9,51.5,77.5,46.9,80.8,45z"/>
							</g>
						</g>
					</g>
					<g>
						<g>
							<polygon class="st7" points="15.6,0 15.6,6.8 3.6,13.8 3.6,7 							"/>
						</g>
						<g>
							<polygon class="st3" points="86.8,40.8 86.8,47.6 15.6,6.8 15.6,0 							"/>
						</g>
						<g>
							<polygon class="st1" points="86.8,40.8 86.8,47.6 74.8,54.7 74.8,47.9 							"/>
						</g>
						<g>
							<polygon class="st7" points="74.8,47.9 74.8,54.7 3.6,13.8 12.4,12.2 							"/>
						</g>
					</g>
					<polygon class="st0" points="15.6,0 86.8,40.8 74.8,47.9 3.6,7.2 					"/>
				</g>
				<g>
					<g>
						<g>
							<polygon class="st3" points="87.7,47.6 87.7,54.8 83.5,48.4 83.6,45.2 							"/>
						</g>
						<g>
							<polygon class="st4" points="83.6,45.2 83.6,52.4 77.9,55.7 77.9,48.5 							"/>
						</g>
						<g>
							<polygon class="st3" points="87.7,47.6 87.7,54.8 82,58.1 82,50.9 							"/>
						</g>
						<g>
							<polygon class="st2" points="82,50.9 82,58.1 77.9,55.7 77.9,48.5 							"/>
						</g>
					</g>
					<polygon class="st4" points="83.6,45.2 87.7,47.6 82,50.9 77.9,48.5 					"/>
				</g>
				<g>
					<g class="st6">
						<path class="st2" d="M87.8,52.4l-2.4-1.4c0,0,0,0,0,0c0,0,0,0-0.1,0c-0.2-0.1-0.3-0.1-0.5,0c0,0-0.1,0-0.1,0
							c-0.7,0.3-1.3,1.1-1.4,1.9c0,0.1,0,0.2,0,0.2c0,0.4,0.1,0.6,0.3,0.8l2.4,1.4C85.9,55.1,87.8,52.3,87.8,52.4z"/>
						<g>
							<path class="st3" d="M87,52.4c0.7-0.4,1.2-0.1,1.2,0.7c0,0.8-0.5,1.7-1.2,2c-0.7,0.4-1.2,0.1-1.2-0.7
								C85.8,53.7,86.3,52.8,87,52.4z"/>
						</g>
					</g>
				</g>
				<g>
					<polygon class="st8" points="68,31.7 59.3,36.8 72.6,44.5 81.3,39.4 					"/>
					<polygon class="st1" points="66.2,19.1 50.6,28.1 59.3,36.8 68,31.7 					"/>
					<polygon class="st7" points="66.2,19.1 68,31.7 81.3,39.4 89.1,32.4 					"/>
					<polygon class="st5" points="89.1,32.4 81.3,39.4 72.6,44.5 73.6,41.4 					"/>
					<polygon class="st5" points="50.6,28.1 59.3,36.8 72.6,44.5 73.6,41.4 					"/>
				</g>
				<g>
					<defs>
						<polygon id="SVGID_1_" points="89.1,32.4 66.2,19.1 50.6,28.1 73.6,41.4 						"/>
					</defs>
					<clipPath id="SVGID_2_">
						<use xlink:href="#SVGID_1_"  style="overflow:visible;"/>
					</clipPath>
					<g class="st9">
						<g>
							<g class="st6">
								<path class="st4" d="M69.1,36.9c0-0.2,0-0.3,0-0.4c0-0.7-0.3-1.4-0.7-1.7l-0.7-0.1c0.4,0.2,0.7,0.7,0.7,1.5
									c0,0.2,0,0.3,0,0.5c0,0,0,0.1,0,0.1c0,0.2-0.1,0.3-0.1,0.5c0,0,0,0,0,0c-0.4,1.2-1.3,2.6-2.6,3c-0.1,0-0.3,0.1-0.4,0.1
									c0,0,0,0,0,0c-0.1,0-0.3,0-0.4,0c0,0,0,0,0,0c-0.1,0-0.2-0.1-0.3-0.1c0,0,0.5,0.5,0.5,0.5c0.1,0.1,0.7,0.2,0.8,0.2
									C67.4,40.9,68.9,38.5,69.1,36.9z"/>
								<path class="st4" d="M68.3,33.5c-1.8-1-3.8,1.3-4.6,2.7c-0.6,1-1,2.1-0.9,3.2c0,1.2,0.5,1.9,1.5,2.4
									c-1.1-0.8-0.6-3.9,0.2-5.2c0.8-1.3,3.1-3.4,4.4-2.8C68.7,33.8,68.5,33.7,68.3,33.5z"/>
								<g>
									<path class="st2" d="M66.6,34.1c1.8-1,3.3-0.2,3.3,1.9c0,2.1-1.4,4.6-3.3,5.6c-1.8,1-3.3,0.2-3.3-1.9
										C63.3,37.7,64.8,35.2,66.6,34.1z M66.6,40.5c1.3-0.7,2.3-2.5,2.3-4c0-1.5-1-2-2.3-1.3c-1.3,0.7-2.3,2.5-2.3,4
										C64.3,40.6,65.4,41.2,66.6,40.5"/>
								</g>
							</g>
						</g>
						<g>
							<g class="st6">
								<path class="st4" d="M74.1,39.9c0-0.2,0-0.3,0-0.4c0-0.7-0.3-1.4-0.7-1.7l-0.7-0.1c0.4,0.2,0.7,0.7,0.7,1.5
									c0,0.2,0,0.3,0,0.5c0,0,0,0.1,0,0.1c0,0.2-0.1,0.3-0.1,0.5c0,0,0,0,0,0c-0.4,1.2-1.3,2.6-2.6,3c-0.1,0-0.3,0.1-0.4,0.1
									c0,0,0,0,0,0c-0.1,0-0.3,0-0.4,0c0,0,0,0,0,0c-0.1,0-0.2-0.1-0.3-0.1c0,0,0.5,0.5,0.5,0.5c0.1,0.1,0.7,0.2,0.8,0.2
									C72.4,43.9,73.9,41.4,74.1,39.9z"/>
								<path class="st4" d="M73.4,36.5c-1.8-1-3.8,1.3-4.6,2.7c-0.6,1-1,2.1-0.9,3.2c0,1.2,0.5,1.9,1.5,2.4
									c-1.1-0.8-0.6-3.9,0.2-5.2c0.8-1.3,3.1-3.4,4.4-2.8C73.8,36.7,73.6,36.6,73.4,36.5z"/>
								<g>
									<path class="st2" d="M71.7,37.1c1.8-1,3.3-0.2,3.3,1.9c0,2.1-1.4,4.6-3.3,5.6c-1.8,1-3.3,0.2-3.3-1.9
										C68.4,40.6,69.9,38.1,71.7,37.1z M71.7,43.4c1.3-0.7,2.3-2.5,2.3-4c0-1.5-1-2-2.3-1.3c-1.3,0.7-2.3,2.5-2.3,4
										C69.4,43.6,70.4,44.2,71.7,43.4"/>
								</g>
							</g>
						</g>
						<g>
							<g class="st6">
								<path class="st4" d="M79.1,42.9c0-0.2,0-0.3,0-0.4c0-0.7-0.3-1.4-0.7-1.7l-0.7-0.1c0.4,0.2,0.7,0.7,0.7,1.5
									c0,0.2,0,0.3,0,0.5c0,0,0,0.1,0,0.1c0,0.2-0.1,0.3-0.1,0.5c0,0,0,0,0,0c-0.4,1.2-1.3,2.6-2.6,3c-0.1,0-0.3,0.1-0.4,0.1
									c0,0,0,0,0,0c-0.1,0-0.3,0-0.4,0c0,0,0,0,0,0c-0.1,0-0.2-0.1-0.3-0.1c0,0,0.5,0.5,0.5,0.5c0.1,0.1,0.7,0.2,0.8,0.2
									C77.4,46.9,79,44.4,79.1,42.9z"/>
								<path class="st4" d="M78.4,39.5c-1.8-1-3.8,1.3-4.6,2.7c-0.6,1-1,2.1-0.9,3.2c0,1.2,0.5,1.9,1.5,2.4
									c-1.1-0.8-0.6-3.9,0.2-5.2c0.8-1.3,3.1-3.4,4.4-2.8C78.8,39.8,78.6,39.6,78.4,39.5z"/>
								<g>
									<path class="st2" d="M76.7,40.1c1.8-1,3.3-0.2,3.3,1.9c0,2.1-1.4,4.6-3.3,5.6c-1.8,1-3.3,0.2-3.3-1.9
										C73.4,43.7,74.9,41.1,76.7,40.1z M76.7,46.5c1.3-0.7,2.3-2.5,2.3-4c0-1.5-1-2-2.3-1.3c-1.3,0.7-2.3,2.5-2.3,4
										C74.4,46.6,75.4,47.2,76.7,46.5"/>
								</g>
							</g>
						</g>
					</g>
				</g>
			</g>
		</g>
	</g>
	<g>
		<polygon class="st5" points="60.1,43.2 60.1,54 57.5,52.6 57.5,41.7 58.9,42.5 		"/>
		<polygon class="st1" points="60.2,43.2 60.8,42.9 60.8,53.7 60.1,54 		"/>
		<polygon class="st0" points="60.8,42.9 59.5,42.1 58.1,41.3 57.5,41.7 60.2,43.2 		"/>
	</g>
	<g>
		<polygon class="st5" points="42.1,33.4 42.1,44.2 39.4,42.8 39.4,31.9 40.8,32.7 		"/>
		<polygon class="st1" points="42.1,33.5 42.7,33.1 42.7,43.9 42.1,44.2 		"/>
		<polygon class="st0" points="42.7,33.1 41.4,32.3 40.1,31.5 39.4,31.9 42.1,33.5 		"/>
	</g>
	<g>
		<polygon class="st5" points="26.2,24.8 26.2,35.6 23.6,34.2 23.6,23.2 24.9,24.1 		"/>
		<polygon class="st1" points="26.2,24.8 26.9,24.4 26.8,35.3 26.2,35.6 		"/>
		<polygon class="st0" points="26.9,24.4 25.6,23.7 24.2,22.9 23.6,23.2 26.2,24.8 		"/>
	</g>
</g>
</svg>
