<?xml version="1.0" encoding="UTF-8" standalone="no"?>
<svg
   xmlns:dc="http://purl.org/dc/elements/1.1/"
   xmlns:cc="http://creativecommons.org/ns#"
   xmlns:rdf="http://www.w3.org/1999/02/22-rdf-syntax-ns#"
   xmlns:svg="http://www.w3.org/2000/svg"
   xmlns="http://www.w3.org/2000/svg"
   xmlns:xlink="http://www.w3.org/1999/xlink"
   xmlns:sodipodi="http://sodipodi.sourceforge.net/DTD/sodipodi-0.dtd"
   xmlns:inkscape="http://www.inkscape.org/namespaces/inkscape"
   width="700"
   height="700"
   preserveAspectRatio="xMidYMid meet"
   version="1.1"
   id="svg23"
   sodipodi:docname="manual_on.svg"
   inkscape:version="0.92.5 (2060ec1f9f, 2020-04-08)">
  <metadata
     id="metadata27">
    <rdf:RDF>
      <cc:Work
         rdf:about="">
        <dc:format>image/svg+xml</dc:format>
        <dc:type
           rdf:resource="http://purl.org/dc/dcmitype/StillImage" />
      </cc:Work>
    </rdf:RDF>
  </metadata>
  <sodipodi:namedview
     pagecolor="#ffffff"
     bordercolor="#666666"
     borderopacity="1"
     objecttolerance="10"
     gridtolerance="10"
     guidetolerance="10"
     inkscape:pageopacity="0"
     inkscape:pageshadow="2"
     inkscape:window-width="760"
     inkscape:window-height="480"
     id="namedview25"
     showgrid="false"
     inkscape:zoom="0.33714286"
     inkscape:cx="-66.211044"
     inkscape:cy="350"
     inkscape:window-x="0"
     inkscape:window-y="0"
     inkscape:window-maximized="0"
     inkscape:current-layer="svg23" />
  <defs
     id="defs4">
    <path
       id="d7WamHSsC"
       d="m494.429993,278.529999l6.390015,0.649994l6.309998,0.899994l6.22998,1.150024l6.150024,1.389984l6.049988,1.630005l5.950012,1.850006l5.849976,2.079987l5.75,2.300018l5.630005,2.519989l5.51001,2.730011l5.390015,2.929993l5.269958,3.130005l5.130005,3.329987l4.990051,3.52002l4.849976,3.699982l4.700012,3.880005l4.539978,4.049988l4.390015,4.230011l4.219971,4.380005l4.059998,4.549988l3.880005,4.700012l3.700012,4.850006l3.52002,4.98999l3.320007,5.130005l3.130005,5.259979l2.940002,5.400024l2.719971,5.509979l2.52002,5.630005l2.299988,5.740021l2.080017,5.859985l1.859985,5.950012l1.619995,6.049988l1.390015,6.140015l1.149963,6.22998l0.900024,6.309998l0.649963,6.390015l0.400024,6.459991l0.130005,6.529999l-0.130005,6.519989l-0.400024,6.460022l-0.649963,6.389984l-0.900024,6.309998l-1.149963,6.230011l-1.390015,6.139984l-1.619995,6.050018l-1.859985,5.959991l-2.080017,5.850006l-2.299988,5.73999l-2.52002,5.630005l-2.719971,5.519989l-2.940002,5.390015l-3.130005,5.26001l-3.320007,5.130005l-3.52002,4.98999l-3.700012,4.849976l-3.880005,4.700012l-4.059998,4.549988l-4.219971,4.390015l-4.390015,4.220032l-4.539978,4.059998l-4.700012,3.880005l-4.849976,3.699951l-4.990051,3.51001l-5.130005,3.330017l-5.269958,3.130005l-5.390015,2.929993l-5.51001,2.72998l-5.630005,2.52002l-5.75,2.299988l-5.849976,2.080017l-5.950012,1.859985l-6.049988,1.619995l-6.150024,1.390015l-6.22998,1.150024l-6.309998,0.899963l-6.390015,0.650024l-6.449982,0.399963l-6.529999,0.130005l-6.529999,-0.130005l-6.460022,-0.399963l-6.380005,-0.650024l-6.309998,-0.899963l-6.22998,-1.150024l-6.149994,-1.390015l-6.050018,-1.619995l-5.949982,-1.859985l-5.850006,-2.080017l-5.75,-2.299988l-5.630005,-2.52002l-5.51001,-2.72998l-5.389984,-2.929993l-5.27002,-3.130005l-5.130005,-3.330017l-4.98999,-3.51001l-4.850006,-3.699951l-4.699982,-3.880005l-4.540009,-4.059998l-4.389984,-4.220032l-4.220001,-4.390015l-4.060028,-4.549988l-3.879974,-4.700012l-3.700012,-4.849976l-3.519989,-4.98999l-3.320007,-5.130005l-3.140015,-5.26001l-2.929993,-5.390015l-2.720001,-5.519989l-2.519989,-5.630005l-2.300018,-5.73999l-2.079987,-5.850006l-1.859985,-5.959991l-1.620026,-6.050018l-1.389984,-6.139984l-1.149994,-6.230011l-0.900024,-6.309998l-0.649994,-6.389984l-0.399994,-6.460022l-0.130005,-6.519989l0.130005,-6.529999l0.399994,-6.459991l0.649994,-6.390015l0.900024,-6.309998l1.149994,-6.22998l1.389984,-6.140015l1.620026,-6.049988l1.859985,-5.950012l2.079987,-5.859985l2.300018,-5.740021l2.519989,-5.630005l2.720001,-5.509979l2.929993,-5.400024l3.140015,-5.259979l3.320007,-5.130005l3.519989,-4.98999l3.700012,-4.850006l3.879974,-4.700012l4.060028,-4.549988l4.220001,-4.380005l4.389984,-4.230011l4.540009,-4.049988l4.699982,-3.880005l4.850006,-3.699982l4.98999,-3.52002l5.130005,-3.329987l5.27002,-3.130005l5.389984,-2.929993l5.51001,-2.730011l5.630005,-2.519989l5.75,-2.300018l5.850006,-2.079987l5.949982,-1.850006l6.050018,-1.630005l6.149994,-1.389984l6.22998,-1.150024l6.309998,-0.899994l6.380005,-0.649994l6.460022,-0.389984l6.529999,-0.140015l6.529999,0.140015l6.449982,0.389984zm-21.850006,50.110016l-4.359985,0.449982l-4.309998,0.610016l-4.25,0.789978l-4.200012,0.950012l-4.130005,1.109985l-4.069977,1.26001l-3.990021,1.429993l-3.919983,1.570007l-3.850006,1.720001l-3.76001,1.860016l-3.690002,2l-3.589996,2.139984l-3.5,2.269989l-3.410004,2.400024l-3.309998,2.529999l-3.209991,2.649994l-3.109985,2.769989l-2.990021,2.880005l-2.889984,3l-2.77002,3.100006l-2.649994,3.209991l-2.519989,3.309998l-2.399994,3.410004l-2.279999,3.51001l-2.140015,3.589996l-2,3.679993l-1.859985,3.769989l-1.720001,3.840027l-1.570007,3.929993l-1.420013,3.98999l-1.269989,4.070007l-1.110016,4.130005l-0.949982,4.190002l-0.779999,4.259979l-0.619995,4.309998l-0.440002,4.360016l-0.27002,4.410004l-0.089996,4.459991l0.089996,4.450012l0.27002,4.410004l0.440002,4.369995l0.619995,4.309998l0.779999,4.25l0.949982,4.190002l1.110016,4.139984l1.269989,4.059998l1.420013,4l1.570007,3.920013l1.720001,3.850006l1.859985,3.759979l2,3.680023l2.140015,3.599976l2.279999,3.5l2.399994,3.410004l2.519989,3.309998l2.649994,3.210022l2.77002,3.099976l2.889984,3.000031l2.990021,2.880005l3.109985,2.769958l3.209991,2.650024l3.309998,2.529968l3.410004,2.400024l3.5,2.27002l3.589996,2.139954l3.690002,2l3.76001,1.870056l3.850006,1.719971l3.919983,1.570007l3.990021,1.419983l4.069977,1.27002l4.130005,1.109985l4.200012,0.940002l4.25,0.789978l4.309998,0.610046l4.359985,0.449951l4.410004,0.27002l4.460022,0.090027l4.459991,-0.090027l4.410004,-0.27002l4.359985,-0.449951l4.309998,-0.610046l4.25,-0.789978l4.200012,-0.950012l4.130005,-1.099976l4.059998,-1.27002l4,-1.419983l3.919983,-1.570007l3.850037,-1.719971l3.759949,-1.870056l3.690002,-2l3.590027,-2.139954l3.5,-2.27002l3.409973,-2.400024l3.309998,-2.529968l3.210022,-2.650024l3.109985,-2.769958l2.98999,-2.880005l2.890015,-3.000031l2.77002,-3.099976l2.650024,-3.210022l2.519958,-3.309998l2.400024,-3.410004l2.279968,-3.5l2.130005,-3.599976l2.01001,-3.680023l1.859985,-3.759979l1.720032,-3.850006l1.570007,-3.920013l1.419983,-4l1.27002,-4.059998l1.109985,-4.139984l0.950012,-4.190002l0.779968,-4.25l0.619995,-4.309998l0.440002,-4.369995l0.27002,-4.410004l0.089966,-4.450012l-0.089966,-4.459991l-0.27002,-4.410004l-0.440002,-4.360016l-0.619995,-4.309998l-0.779968,-4.259979l-0.950012,-4.190002l-1.109985,-4.130005l-1.27002,-4.070007l-1.419983,-3.98999l-1.570007,-3.929993l-1.720032,-3.840027l-1.859985,-3.769989l-2.01001,-3.679993l-2.130005,-3.589996l-2.279968,-3.51001l-2.400024,-3.410004l-2.519958,-3.309998l-2.650024,-3.209991l-2.77002,-3.100006l-2.890015,-3l-2.98999,-2.880005l-3.109985,-2.769989l-3.210022,-2.649994l-3.309998,-2.529999l-3.409973,-2.400024l-3.5,-2.269989l-3.590027,-2.139984l-3.690002,-2l-3.759949,-1.860016l-3.850037,-1.720001l-3.919983,-1.570007l-4,-1.429993l-4.059998,-1.26001l-4.130005,-1.109985l-4.200012,-0.950012l-4.25,-0.789978l-4.309998,-0.610016l-4.359985,-0.449982l-4.410004,-0.26001l-4.459991,-0.089996l-4.460022,0.089996l-4.410004,0.26001z" />
    <path
       id="f3JlBu50C"
       d="m211.369995,266.809998c62.839996,-140.349991 97.76001,-218.319992 104.73999,-233.919998c4,-8.93 -2.539978,-19.030001 -12.329987,-19.030001c-18.809998,0 -169.279999,0 -188.080002,0c-6.169998,0 -11.559998,4.18 -13.089996,10.15c-8.489998,33.089996 -76.389999,297.810009 -84.870003,330.900005c-2.19,8.540009 4.26,16.859985 13.08,16.859985c8.359999,0 50.160006,0 125.390009,0l-20.450012,95.040009c-18.029991,-0.01001 -28.049995,-0.019989 -30.049995,-0.019989c-9.94001,-0.01001 -16.479996,10.359985 -12.199997,19.329987c1.809998,3.790009 10.869995,22.779999 27.18,56.950012l20.429993,42.820007c12.520004,26.23999 19.480011,40.820007 20.87001,43.73999c4.899994,10.25 19.479996,10.26001 24.37999,0.01001c6.87001,-14.340027 61.770004,-129.100006 68.630005,-143.440002c4.290009,-8.960022 -2.240005,-19.340027 -12.179993,-19.340027c-2.200012,0 -13.240005,-0.009979 -33.110001,-0.019989c63.339981,-107.809998 98.529984,-167.699982 105.569992,-179.679993c5.290009,-9 -1.200012,-20.350006 -11.649994,-20.350006c-12.300018,0 -43.059998,0 -92.26001,0z" />
  </defs>
  <g
     id="g7">
    <rect
       fill="none"
       id="canvas_background"
       height="702"
       width="702"
       y="-1"
       x="-1" />
  </g>
  <g
     id="g21">
    <title
       id="title9">Layer 1</title>
    <g
       id="svg_30">
      <g
         id="svg_5">
        <use
           x="27.833984"
           y="50.5"
           id="svg_6"
           fill="#00ff00"
           xlink:href="#d7WamHSsC" />
        <g
           id="svg_7">
          <use
             x="27.833984"
             y="50.5"
             id="svg_8"
             stroke-opacity="0"
             stroke="#014898"
             fill-opacity="0"
             xlink:href="#d7WamHSsC" />
        </g>
      </g>
      <text
         fill="#00ff00"
         x="420.333984"
         y="555.449997"
         id="svg_2"
         font-size="200"
         font-family="Oswald, sans-serif"
         text-anchor="start"
         xml:space="preserve"
         font-weight="bold">M</text>
      <g
         id="svg_29">
        <g
           fill="#014898"
           transform="matrix(1.92612, 0, 0, 1.96424, -26.2708, -22.9282)"
           id="svg_11">
          <path
             id="svg_12"
             d="m47.415169,128.667297c1.367004,0 2.740997,-0.464996 3.867004,-1.415009c2.531982,-2.138 2.852997,-5.923981 0.714996,-8.454987c-6.227993,-7.376984 -9.656979,-16.764984 -9.656979,-26.434998c0,-22.608002 18.392971,-41 40.999973,-41s41,18.391998 41,41c0,6.308014 -1.391968,12.354004 -4.136963,17.973999c-1.455017,2.977997 -0.221008,6.570007 2.756989,8.024017c2.97699,1.458984 6.569977,0.219971 8.023987,-2.757019c3.553986,-7.273987 5.355011,-15.092987 5.355011,-23.240997c0,-29.225006 -23.774994,-53 -53,-53s-53.000004,23.774994 -53.000004,53c0,12.5 4.434998,24.636993 12.487,34.175018c1.187988,1.405975 2.882996,2.129974 4.588985,2.129974z" />
          <path
             id="svg_13"
             d="m196.261185,181.127289c-3.865997,-22.859985 -20.325989,-25.96698 -27.416016,-26.222992c-2.006989,-0.072998 -3.835999,-1.128998 -4.911987,-2.824005c-5.367004,-8.455994 -12.64502,-10.680969 -18.812988,-10.680969c-2.82402,-0.001007 -5.414001,0.464966 -7.485016,1.013c-0.608002,0.159973 -1.22699,0.238983 -1.838989,0.238983c-2.178009,0 -4.277008,-0.993988 -5.587982,-2.811005c-5.280029,-7.315002 -12.171021,-9.292999 -18.078003,-9.292999c-1.580017,0 -3.090027,0.141998 -4.479004,0.360016c-0.371033,0.05899 -0.739014,0.086975 -1.100006,0.086975c-3.779999,0 -6.969025,-3.070007 -6.973999,-6.987l-0.050018,-42.286987c-0.013977,-10.927002 -8.208984,-16.386993 -16.403992,-16.386993c-8.211006,0 -16.422005,5.479004 -16.407997,16.427002c0.022003,18.356995 0.088989,73.492981 0.108002,90.105988c0.003998,2.808014 -1.675018,5.345001 -4.265015,6.428009c-32.540981,13.60202 7.643005,74.618988 14.840004,85.076019c0.701996,1.019958 1.118011,2.203003 1.210999,3.437988l1.759003,23.66098c0.273987,3.649963 3.31601,6.723999 6.97699,6.723999c0.003021,0 0.006012,0 0.009033,0l78.622986,-0.348999c3.509003,-0.005005 6.471008,-2.732056 6.927979,-6.21106l3.202026,-24.452911c0.135986,-1.031006 0.51001,-2.05304 1.073975,-2.927002c21.012024,-32.478027 22.663025,-60.937012 19.080017,-82.126038z" />
        </g>
      </g>
    </g>
  </g>
  <path
     style="fill:#01ff00;fill-opacity:1;fill-rule:nonzero;stroke:#01ff00;stroke-width:9.8591547;stroke-linecap:round;stroke-linejoin:round;stroke-miterlimit:4;stroke-dasharray:none;stroke-opacity:1"
     d="M 4.9295987,4.9295787 V 695.07042 H 695.0704 V 4.9295787 Z M 20.199799,18.928816 H 679.8002 V 681.06927 H 20.199799 Z"
     id="rect831"
     inkscape:connector-curvature="0" />
</svg>
