<?xml version="1.0" encoding="UTF-8" standalone="no"?>
<svg
   xmlns:dc="http://purl.org/dc/elements/1.1/"
   xmlns:cc="http://creativecommons.org/ns#"
   xmlns:rdf="http://www.w3.org/1999/02/22-rdf-syntax-ns#"
   xmlns:svg="http://www.w3.org/2000/svg"
   xmlns="http://www.w3.org/2000/svg"
   xmlns:xlink="http://www.w3.org/1999/xlink"
   xmlns:sodipodi="http://sodipodi.sourceforge.net/DTD/sodipodi-0.dtd"
   xmlns:inkscape="http://www.inkscape.org/namespaces/inkscape"
   width="700"
   height="700"
   preserveAspectRatio="xMidYMid meet"
   version="1.1"
   id="svg23"
   sodipodi:docname="manual_mantenimiento_blanco_off.svg"
   inkscape:version="0.92.5 (2060ec1f9f, 2020-04-08)">
  <metadata
     id="metadata27">
    <rdf:RDF>
      <cc:Work
         rdf:about="">
        <dc:format>image/svg+xml</dc:format>
        <dc:type
           rdf:resource="http://purl.org/dc/dcmitype/StillImage" />
        <dc:title></dc:title>
      </cc:Work>
    </rdf:RDF>
  </metadata>
  <sodipodi:namedview
     pagecolor="#ffffff"
     bordercolor="#666666"
     borderopacity="1"
     objecttolerance="10"
     gridtolerance="10"
     guidetolerance="10"
     inkscape:pageopacity="0"
     inkscape:pageshadow="2"
     inkscape:window-width="1920"
     inkscape:window-height="1017"
     id="namedview25"
     showgrid="false"
     inkscape:zoom="0.67428571"
     inkscape:cx="-237.78848"
     inkscape:cy="407.81961"
     inkscape:window-x="-8"
     inkscape:window-y="-8"
     inkscape:window-maximized="1"
     inkscape:current-layer="svg23"
     inkscape:pagecheckerboard="true" />
  <defs
     id="defs4">
    <path
       id="d7WamHSsC"
       d="m494.429993,278.529999l6.390015,0.649994l6.309998,0.899994l6.22998,1.150024l6.150024,1.389984l6.049988,1.630005l5.950012,1.850006l5.849976,2.079987l5.75,2.300018l5.630005,2.519989l5.51001,2.730011l5.390015,2.929993l5.269958,3.130005l5.130005,3.329987l4.990051,3.52002l4.849976,3.699982l4.700012,3.880005l4.539978,4.049988l4.390015,4.230011l4.219971,4.380005l4.059998,4.549988l3.880005,4.700012l3.700012,4.850006l3.52002,4.98999l3.320007,5.130005l3.130005,5.259979l2.940002,5.400024l2.719971,5.509979l2.52002,5.630005l2.299988,5.740021l2.080017,5.859985l1.859985,5.950012l1.619995,6.049988l1.390015,6.140015l1.149963,6.22998l0.900024,6.309998l0.649963,6.390015l0.400024,6.459991l0.130005,6.529999l-0.130005,6.519989l-0.400024,6.460022l-0.649963,6.389984l-0.900024,6.309998l-1.149963,6.230011l-1.390015,6.139984l-1.619995,6.050018l-1.859985,5.959991l-2.080017,5.850006l-2.299988,5.73999l-2.52002,5.630005l-2.719971,5.519989l-2.940002,5.390015l-3.130005,5.26001l-3.320007,5.130005l-3.52002,4.98999l-3.700012,4.849976l-3.880005,4.700012l-4.059998,4.549988l-4.219971,4.390015l-4.390015,4.220032l-4.539978,4.059998l-4.700012,3.880005l-4.849976,3.699951l-4.990051,3.51001l-5.130005,3.330017l-5.269958,3.130005l-5.390015,2.929993l-5.51001,2.72998l-5.630005,2.52002l-5.75,2.299988l-5.849976,2.080017l-5.950012,1.859985l-6.049988,1.619995l-6.150024,1.390015l-6.22998,1.150024l-6.309998,0.899963l-6.390015,0.650024l-6.449982,0.399963l-6.529999,0.130005l-6.529999,-0.130005l-6.460022,-0.399963l-6.380005,-0.650024l-6.309998,-0.899963l-6.22998,-1.150024l-6.149994,-1.390015l-6.050018,-1.619995l-5.949982,-1.859985l-5.850006,-2.080017l-5.75,-2.299988l-5.630005,-2.52002l-5.51001,-2.72998l-5.389984,-2.929993l-5.27002,-3.130005l-5.130005,-3.330017l-4.98999,-3.51001l-4.850006,-3.699951l-4.699982,-3.880005l-4.540009,-4.059998l-4.389984,-4.220032l-4.220001,-4.390015l-4.060028,-4.549988l-3.879974,-4.700012l-3.700012,-4.849976l-3.519989,-4.98999l-3.320007,-5.130005l-3.140015,-5.26001l-2.929993,-5.390015l-2.720001,-5.519989l-2.519989,-5.630005l-2.300018,-5.73999l-2.079987,-5.850006l-1.859985,-5.959991l-1.620026,-6.050018l-1.389984,-6.139984l-1.149994,-6.230011l-0.900024,-6.309998l-0.649994,-6.389984l-0.399994,-6.460022l-0.130005,-6.519989l0.130005,-6.529999l0.399994,-6.459991l0.649994,-6.390015l0.900024,-6.309998l1.149994,-6.22998l1.389984,-6.140015l1.620026,-6.049988l1.859985,-5.950012l2.079987,-5.859985l2.300018,-5.740021l2.519989,-5.630005l2.720001,-5.509979l2.929993,-5.400024l3.140015,-5.259979l3.320007,-5.130005l3.519989,-4.98999l3.700012,-4.850006l3.879974,-4.700012l4.060028,-4.549988l4.220001,-4.380005l4.389984,-4.230011l4.540009,-4.049988l4.699982,-3.880005l4.850006,-3.699982l4.98999,-3.52002l5.130005,-3.329987l5.27002,-3.130005l5.389984,-2.929993l5.51001,-2.730011l5.630005,-2.519989l5.75,-2.300018l5.850006,-2.079987l5.949982,-1.850006l6.050018,-1.630005l6.149994,-1.389984l6.22998,-1.150024l6.309998,-0.899994l6.380005,-0.649994l6.460022,-0.389984l6.529999,-0.140015l6.529999,0.140015l6.449982,0.389984zm-21.850006,50.110016l-4.359985,0.449982l-4.309998,0.610016l-4.25,0.789978l-4.200012,0.950012l-4.130005,1.109985l-4.069977,1.26001l-3.990021,1.429993l-3.919983,1.570007l-3.850006,1.720001l-3.76001,1.860016l-3.690002,2l-3.589996,2.139984l-3.5,2.269989l-3.410004,2.400024l-3.309998,2.529999l-3.209991,2.649994l-3.109985,2.769989l-2.990021,2.880005l-2.889984,3l-2.77002,3.100006l-2.649994,3.209991l-2.519989,3.309998l-2.399994,3.410004l-2.279999,3.51001l-2.140015,3.589996l-2,3.679993l-1.859985,3.769989l-1.720001,3.840027l-1.570007,3.929993l-1.420013,3.98999l-1.269989,4.070007l-1.110016,4.130005l-0.949982,4.190002l-0.779999,4.259979l-0.619995,4.309998l-0.440002,4.360016l-0.27002,4.410004l-0.089996,4.459991l0.089996,4.450012l0.27002,4.410004l0.440002,4.369995l0.619995,4.309998l0.779999,4.25l0.949982,4.190002l1.110016,4.139984l1.269989,4.059998l1.420013,4l1.570007,3.920013l1.720001,3.850006l1.859985,3.759979l2,3.680023l2.140015,3.599976l2.279999,3.5l2.399994,3.410004l2.519989,3.309998l2.649994,3.210022l2.77002,3.099976l2.889984,3.000031l2.990021,2.880005l3.109985,2.769958l3.209991,2.650024l3.309998,2.529968l3.410004,2.400024l3.5,2.27002l3.589996,2.139954l3.690002,2l3.76001,1.870056l3.850006,1.719971l3.919983,1.570007l3.990021,1.419983l4.069977,1.27002l4.130005,1.109985l4.200012,0.940002l4.25,0.789978l4.309998,0.610046l4.359985,0.449951l4.410004,0.27002l4.460022,0.090027l4.459991,-0.090027l4.410004,-0.27002l4.359985,-0.449951l4.309998,-0.610046l4.25,-0.789978l4.200012,-0.950012l4.130005,-1.099976l4.059998,-1.27002l4,-1.419983l3.919983,-1.570007l3.850037,-1.719971l3.759949,-1.870056l3.690002,-2l3.590027,-2.139954l3.5,-2.27002l3.409973,-2.400024l3.309998,-2.529968l3.210022,-2.650024l3.109985,-2.769958l2.98999,-2.880005l2.890015,-3.000031l2.77002,-3.099976l2.650024,-3.210022l2.519958,-3.309998l2.400024,-3.410004l2.279968,-3.5l2.130005,-3.599976l2.01001,-3.680023l1.859985,-3.759979l1.720032,-3.850006l1.570007,-3.920013l1.419983,-4l1.27002,-4.059998l1.109985,-4.139984l0.950012,-4.190002l0.779968,-4.25l0.619995,-4.309998l0.440002,-4.369995l0.27002,-4.410004l0.089966,-4.450012l-0.089966,-4.459991l-0.27002,-4.410004l-0.440002,-4.360016l-0.619995,-4.309998l-0.779968,-4.259979l-0.950012,-4.190002l-1.109985,-4.130005l-1.27002,-4.070007l-1.419983,-3.98999l-1.570007,-3.929993l-1.720032,-3.840027l-1.859985,-3.769989l-2.01001,-3.679993l-2.130005,-3.589996l-2.279968,-3.51001l-2.400024,-3.410004l-2.519958,-3.309998l-2.650024,-3.209991l-2.77002,-3.100006l-2.890015,-3l-2.98999,-2.880005l-3.109985,-2.769989l-3.210022,-2.649994l-3.309998,-2.529999l-3.409973,-2.400024l-3.5,-2.269989l-3.590027,-2.139984l-3.690002,-2l-3.759949,-1.860016l-3.850037,-1.720001l-3.919983,-1.570007l-4,-1.429993l-4.059998,-1.26001l-4.130005,-1.109985l-4.200012,-0.950012l-4.25,-0.789978l-4.309998,-0.610016l-4.359985,-0.449982l-4.410004,-0.26001l-4.459991,-0.089996l-4.460022,0.089996l-4.410004,0.26001z" />
    <path
       id="f3JlBu50C"
       d="m211.369995,266.809998c62.839996,-140.349991 97.76001,-218.319992 104.73999,-233.919998c4,-8.93 -2.539978,-19.030001 -12.329987,-19.030001c-18.809998,0 -169.279999,0 -188.080002,0c-6.169998,0 -11.559998,4.18 -13.089996,10.15c-8.489998,33.089996 -76.389999,297.810009 -84.870003,330.900005c-2.19,8.540009 4.26,16.859985 13.08,16.859985c8.359999,0 50.160006,0 125.390009,0l-20.450012,95.040009c-18.029991,-0.01001 -28.049995,-0.019989 -30.049995,-0.019989c-9.94001,-0.01001 -16.479996,10.359985 -12.199997,19.329987c1.809998,3.790009 10.869995,22.779999 27.18,56.950012l20.429993,42.820007c12.520004,26.23999 19.480011,40.820007 20.87001,43.73999c4.899994,10.25 19.479996,10.26001 24.37999,0.01001c6.87001,-14.340027 61.770004,-129.100006 68.630005,-143.440002c4.290009,-8.960022 -2.240005,-19.340027 -12.179993,-19.340027c-2.200012,0 -13.240005,-0.009979 -33.110001,-0.019989c63.339981,-107.809998 98.529984,-167.699982 105.569992,-179.679993c5.290009,-9 -1.200012,-20.350006 -11.649994,-20.350006c-12.300018,0 -43.059998,0 -92.26001,0z" />
  </defs>
  <g
     id="g7">
    <rect
       fill="none"
       id="canvas_background"
       height="702"
       width="702"
       y="-1"
       x="-1" />
  </g>
  <g
     id="svg_29"
     style="fill:#ffffff;fill-opacity:1">
    <g
       transform="matrix(1.92612,0,0,1.96424,-26.2708,-22.9282)"
       id="svg_11"
       style="fill:#ffffff;fill-opacity:1">
      <path
         id="svg_12"
         d="m 47.415169,128.6673 c 1.367004,0 2.740997,-0.465 3.867004,-1.41501 2.531982,-2.138 2.852997,-5.92398 0.714996,-8.45499 -6.227993,-7.37698 -9.656979,-16.76498 -9.656979,-26.434997 0,-22.608002 18.392971,-41 40.999973,-41 22.606997,0 40.999997,18.391998 40.999997,41 0,6.308014 -1.39197,12.354007 -4.13696,17.973997 -1.45502,2.978 -0.22101,6.57001 2.75699,8.02402 2.97699,1.45898 6.56998,0.21997 8.02399,-2.75702 3.55398,-7.27399 5.35501,-15.09299 5.35501,-23.240997 0,-29.225006 -23.775,-53 -53.000003,-53 -29.225006,0 -53.000004,23.774994 -53.000004,53 0,12.499997 4.434998,24.636997 12.487,34.175017 1.187988,1.40598 2.882996,2.12997 4.588985,2.12997 z"
         inkscape:connector-curvature="0"
         style="fill:#ffffff;fill-opacity:1" />
      <path
         id="svg_13"
         d="m 196.26118,181.12729 c -3.86599,-22.85999 -20.32598,-25.96698 -27.41601,-26.22299 -2.00699,-0.073 -3.836,-1.129 -4.91199,-2.82401 -5.367,-8.45599 -12.64502,-10.68097 -18.81299,-10.68097 -2.82402,-10e-4 -5.414,0.46497 -7.48501,1.013 -0.608,0.15998 -1.22699,0.23899 -1.83899,0.23899 -2.17801,0 -4.27701,-0.99399 -5.58798,-2.81101 -5.28003,-7.315 -12.17102,-9.293 -18.07801,-9.293 -1.58001,0 -3.09002,0.142 -4.479,0.36002 -0.37103,0.059 -0.73901,0.087 -1.10001,0.087 -3.78,0 -6.969021,-3.07 -6.973995,-6.987 L 99.527177,81.720306 C 99.5132,70.793304 91.318193,65.333313 83.123185,65.333313 c -8.211006,0 -16.422005,5.479004 -16.407997,16.427002 0.022,18.356995 0.08899,73.492985 0.108002,90.105985 0.004,2.80802 -1.675018,5.345 -4.265015,6.42801 -32.540981,13.60202 7.643005,74.61899 14.840004,85.07602 0.701996,1.01996 1.118011,2.203 1.210999,3.43799 l 1.759003,23.66098 c 0.273987,3.64996 3.31601,6.724 6.97699,6.724 0.003,0 0.006,0 0.009,0 l 78.622989,-0.349 c 3.509,-0.005 6.47101,-2.73206 6.92798,-6.21106 l 3.20202,-24.45291 c 0.13599,-1.03101 0.51001,-2.05304 1.07398,-2.927 21.01202,-32.47803 22.66302,-60.93702 19.08002,-82.12604 z"
         inkscape:connector-curvature="0"
         style="fill:#ffffff;fill-opacity:1" />
    </g>
  </g>
  <g
     id="svg_5-4"
     transform="translate(0,-302)">
    <g
       id="svg_7-2">
      <use
         x="27.833984"
         y="50.5"
         id="svg_8-0"
         xlink:href="#d7WamHSsC"
         style="fill-opacity:0;stroke:#000000;stroke-opacity:0"
         width="100%"
         height="100%" />
    </g>
  </g>
  <use
     height="100%"
     width="100%"
     style="fill:#b3c8e0;fill-opacity:1"
     xlink:href="#d7WamHSsC"
     id="svg_6-5"
     y="50.5"
     x="27.833984"
     transform="translate(-14.733983,13.390009)" />
  <path
     style="fill:#ffffff;fill-opacity:1;stroke-width:0.15882489"
     inkscape:connector-curvature="0"
     d="m 559.42004,553.62369 c 0,6.44829 -5.22534,11.67363 -11.67363,11.67363 -6.44829,0 -11.67363,-5.22534 -11.67363,-11.67363 0,-6.44829 5.22534,-11.67363 11.67363,-11.67363 6.44829,0 11.67363,5.22534 11.67363,11.67363 z m -52.01515,-56.85931 7.33771,7.33771 c 1.01648,1.01648 1.01648,2.65238 0,3.66886 L 501.89367,520.604 c -1.01648,1.01648 -2.65238,1.01648 -3.66886,0 -2.03296,-2.03296 -5.30475,-2.03296 -7.33771,0 -2.03296,2.01707 -2.03296,5.30475 0,7.33771 1.01648,1.01648 1.01648,2.65237 0,3.66885 l -40.94505,40.94506 c -7.59183,7.59183 -19.91665,7.59183 -27.50848,0 -7.60771,-7.59183 -7.60771,-19.91664 0,-27.50847 l 40.94506,-40.94506 c 1.01648,-1.01648 2.65238,-1.01648 3.66886,0 2.03295,2.03296 5.30475,2.03296 7.33771,0 2.01707,-2.01708 2.01707,-5.30475 0,-7.33771 -1.01648,-1.01648 -1.01648,-2.65238 0,-3.66885 l 12.83305,-12.83306 c 1.01648,-1.01647 2.65237,-1.01647 3.66885,0 l 7.33771,7.32183 48.8863,-48.8863 2.36649,-8.7036 c 0.49236,-1.79472 1.77884,-3.11297 3.58945,-3.62121 l 12.65834,-3.60533 c 0.96883,-0.36529 2.00119,-0.12706 2.71591,0.60354 l 3.16061,3.16061 c 0.7306,0.7306 0.95295,1.76296 0.60354,2.73179 l -3.58945,12.67423 c -0.50824,1.79472 -1.82648,3.09708 -3.63709,3.58944 l -8.7036,2.36649 z m -2.08061,30.95497 c 0.74648,-0.44471 1.42943,-0.96883 2.06473,-1.60413 l 12.83305,-12.83305 c 0.6353,-0.6353 1.15942,-1.31825 1.60413,-2.06472 l 14.91366,14.92954 c 2.28708,2.28707 5.19357,3.31944 8.41772,2.9859 7.13123,-0.74647 14.53247,1.62002 19.99605,7.08359 9.62479,9.62479 9.62479,25.23728 0,34.86207 -9.62479,9.62479 -25.23727,9.6089 -34.84618,0 -5.46358,-5.46358 -7.83007,-12.86482 -7.08359,-19.99606 0.33353,-3.22414 -0.69883,-6.11476 -2.98591,-8.40183 z M 483.77175,473.163 c -0.7306,0.42883 -1.42943,0.96883 -2.04884,1.58825 l -12.83306,12.83305 c -0.63529,0.6353 -1.1753,1.33413 -1.60413,2.06473 l -5.19357,-5.19358 c -2.5412,-2.55708 -5.92417,-3.55768 -9.45008,-2.82708 -7.76654,1.60413 -16.16838,0.14294 -23.17255,-4.76475 -8.7989,-6.1624 -13.26188,-16.21602 -12.67423,-26.20611 0.0635,-0.96883 0.58765,-1.76295 1.46119,-2.19178 0.87354,-0.41294 1.82649,-0.33353 2.62061,0.20647 l 17.29603,12.10246 c 1.17531,0.81001 2.79532,0.52412 3.60533,-0.6353 l 10.41891,-14.88189 c 0.81001,-1.17531 0.52412,-2.79532 -0.6353,-3.60533 l -17.31191,-12.07069 c -0.79413,-0.55589 -1.19119,-1.42942 -1.0959,-2.38237 0.0953,-0.96883 0.66707,-1.74708 1.55649,-2.11237 9.19596,-3.97062 20.17076,-3.22415 28.96966,2.93826 10.0695,7.05182 14.45306,19.20193 12.10245,30.52614 -0.73059,3.52591 0.27001,6.90888 2.82709,9.45008 z"
     id="path5334" />
  <path
     style="fill:#ffffff;fill-opacity:1;fill-rule:nonzero;stroke:#ffffff;stroke-width:9.8591547;stroke-linecap:round;stroke-linejoin:round;stroke-miterlimit:4;stroke-dasharray:none;stroke-opacity:1"
     d="M 4.9295774,4.9295846 V 695.07042 H 695.07038 V 4.9295846 Z M 20.199782,18.928822 H 679.80018 V 681.06927 H 20.199782 Z"
     id="rect831"
     inkscape:connector-curvature="0" />
</svg>
