<?xml version="1.0" encoding="UTF-8" standalone="no"?>
<!-- Created with Inkscape (http://www.inkscape.org/) -->

<svg
   version="1.1"
   id="svg2"
   width="48"
   height="48"
   viewBox="0 0 48 48"
   sodipodi:docname="icono_menu.svg"
   inkscape:version="1.1 (c68e22c387, 2021-05-23)"
   xmlns:inkscape="http://www.inkscape.org/namespaces/inkscape"
   xmlns:sodipodi="http://sodipodi.sourceforge.net/DTD/sodipodi-0.dtd"
   xmlns="http://www.w3.org/2000/svg"
   xmlns:svg="http://www.w3.org/2000/svg">
  <defs
     id="defs6" />
  <sodipodi:namedview
     id="namedview4"
     pagecolor="#ffffff"
     bordercolor="#666666"
     borderopacity="1.0"
     inkscape:pageshadow="2"
     inkscape:pageopacity="0.0"
     inkscape:pagecheckerboard="0"
     showgrid="false"
     inkscape:zoom="17.875"
     inkscape:cx="26.769231"
     inkscape:cy="14.405594"
     inkscape:window-width="1920"
     inkscape:window-height="1017"
     inkscape:window-x="1912"
     inkscape:window-y="-8"
     inkscape:window-maximized="1"
     inkscape:current-layer="g8" />
  <g
     inkscape:groupmode="layer"
     inkscape:label="Image"
     id="g8"
     transform="translate(2.7972028,-9.6223776)">
    <g
       id="g12"
       transform="translate(-2.7972028,9.6223776)">
      <path
         style="fill:#fefefe;stroke-width:0.16"
         d="M 0,24 V 0 H 24 48 V 24 48 H 24 0 Z"
         id="path28" />
      <path
         style="fill:#a3d1f4;stroke-width:0.16"
         d="M 3.6958134,38.975867 2.0373445,37.311734 2.137855,36.911269 2.2383656,36.510803 2.9006597,35.655402 3.5629536,34.8 4.4564683,33.88 5.3499829,32.96 H 23.99785 42.645717 l 1.637142,1.642731 1.637141,1.642733 -6.4e-4,0.237267 -6.4e-4,0.237269 -0.45763,0.689766 -0.457629,0.689767 -1.152544,1.270233 L 42.698373,40.64 H 24.026373 5.3543722 L 3.695903,38.975867 Z m 0,-12.8 L 2.0373445,24.511734 2.137855,24.111269 2.2383656,23.710803 2.9006597,22.855402 3.5629536,22 4.4564683,21.08 5.3499829,20.16 H 23.99785 42.645717 l 1.637142,1.642731 1.637141,1.642733 -6.4e-4,0.237267 -6.4e-4,0.237269 -0.45763,0.689766 -0.457629,0.689767 -1.152544,1.270233 L 42.698373,27.84 H 24.026373 5.3543722 L 3.695903,26.175867 Z m 0,-12.959999 L 2.0373445,11.551735 2.137855,11.151269 2.2383656,10.750803 2.9006597,9.8954014 3.5629536,9.04 4.4564683,8.12 5.3499829,7.2 H 23.99785 42.645717 L 44.282859,8.842732 45.92,10.485464 45.91936,10.722732 45.91872,10.96 45.46109,11.649767 45.003461,12.339533 43.850917,13.609767 42.698283,14.88 h -18.672 -18.6720004 z"
         id="path26" />
      <path
         style="fill:#6db6ef;stroke-width:0.16"
         d="M 3.6925245,38.972568 2.0307664,37.305134 2.249633,36.776744 2.4684995,36.248354 3.1753915,35.364176 3.8822835,34.48 4.615127,33.72 5.3479706,32.96 H 23.996845 42.645717 l 1.675969,1.681693 1.675968,1.681691 -0.365489,0.688957 -0.36549,0.688955 -1.292411,1.469352 L 42.681851,40.64 H 24.018067 5.3542826 Z m 0,-12.8 -1.6617581,-1.667434 0.2188666,-0.52839 0.2188665,-0.52839 0.706892,-0.884178 L 3.8822835,21.68 4.615127,20.92 5.3479706,20.16 H 23.996845 42.645717 l 1.675969,1.681693 1.675968,1.681691 -0.365489,0.688957 -0.36549,0.688955 -1.292411,1.469352 L 42.681851,27.84 H 24.018067 5.3542826 Z m 0,-12.960001 L 2.0307664,11.545134 2.249633,11.016744 2.4684995,10.488353 3.1753915,9.6041766 3.8822835,8.72 4.615127,7.96 5.3479706,7.2 H 23.996845 42.645717 l 1.675969,1.6816922 1.675968,1.6816918 -0.365489,0.688956 -0.36549,0.688956 -1.292411,1.469352 L 42.681851,14.88 H 24.018067 5.3542826 Z"
         id="path24" />
      <path
         style="fill:#4fa7ec;stroke-width:0.16"
         d="M 3.6783136,38.958307 2.0023448,37.276616 2.372087,36.579645 2.7418293,35.882674 4.0156261,34.421338 5.2894229,32.96 H 23.96757 42.645717 l 1.658891,1.664555 1.658891,1.664557 -0.350512,0.724059 -0.35051,0.724059 -1.366274,1.451386 L 42.529931,40.64 H 23.942107 5.3542826 Z m 0,-12.8 L 2.0023448,24.476616 2.372087,23.779645 2.7418293,23.082674 4.0156261,21.621338 5.2894229,20.16 H 23.96757 42.645717 l 1.658891,1.664555 1.658891,1.664557 -0.350512,0.724059 -0.35051,0.724059 -1.366274,1.451386 L 42.529931,27.84 H 23.942107 5.3542826 Z m 0,-12.959999 L 2.0023448,11.516616 2.372087,10.819645 2.7418293,10.122674 4.0156261,8.661337 5.2894229,7.2 H 23.950046 42.61067 L 44.305334,8.8758522 46,10.551704 45.61421,11.282558 45.228418,12.013411 43.879174,13.446706 42.529931,14.88 H 23.942107 5.3542826 Z"
         id="path22" />
      <path
         style="fill:#2e97e8;stroke-width:0.16"
         d="M 3.6953918,38.975445 2.036501,37.310888 2.3741395,36.615445 2.7117781,35.92 4.0149632,34.44 5.3181483,32.96 H 23.874918 42.43169 l 1.74711,1.624662 1.747109,1.624664 -0.104874,0.335336 L 45.716162,36.88 45.231403,37.587602 44.746646,38.295203 43.632982,39.467602 42.519318,40.64 H 23.9368 5.3542826 Z m 0,-12.8 L 2.036501,24.510888 2.3741395,23.815445 2.7117781,23.12 4.0149632,21.64 5.3181483,20.16 H 23.874918 42.43169 l 1.74711,1.624662 1.747109,1.624664 -0.104874,0.335336 L 45.716162,24.08 45.231403,24.787602 44.746646,25.495203 43.632982,26.667602 42.519318,27.84 H 23.9368 5.3542826 Z m 0,-12.960001 L 2.036501,11.550889 2.373773,10.855444 2.7110448,10.16 4.0240206,8.68 5.3369965,7.2 H 23.882051 42.427104 l 1.748155,1.628591 1.748155,1.628591 -0.103625,0.331409 L 45.716162,11.12 45.231403,11.827601 44.746646,12.535203 43.632982,13.707601 42.519318,14.88 H 23.9368 5.3542826 Z"
         id="path20" />
      <path
         style="fill:#0f88e6;stroke-width:0.16"
         d="M 3.8004093,38.92 2.0862758,37.2 2.5736747,36.347218 3.0610736,35.494435 4.2717661,34.227218 5.4824587,32.96 H 23.978616 42.474774 l 1.712607,1.707296 1.712606,1.707296 -0.249918,0.492704 L 45.40015,37.36 44.834395,38.08 44.26864,38.8 43.37933,39.72 42.490018,40.64 H 24.00228 5.5145427 Z m 0,-12.8 L 2.0862758,24.4 2.5736747,23.547218 3.0610736,22.694435 4.2717661,21.427218 5.4824587,20.16 H 23.978616 42.474774 l 1.712607,1.707296 1.712606,1.707296 -0.249918,0.492704 L 45.40015,24.56 44.834395,25.28 44.26864,26 43.37933,26.92 42.490018,27.84 H 24.00228 5.5145427 Z m 0,-12.96 L 2.0862758,11.44 2.5520766,10.625035 3.0178774,9.8100691 4.2455602,8.5050346 5.473243,7.2 h 18.500765 18.500766 l 1.712607,1.7072958 1.712606,1.7072962 -0.249918,0.492704 L 45.40015,11.6 l -0.565755,0.72 -0.565755,0.72 -0.88931,0.92 -0.889312,0.92 H 24.00228 5.5145427 Z"
         id="path18" />
      <path
         style="fill:#0a85e4;stroke-width:0.16"
         d="M 3.7969981,38.917138 2.24,37.354275 V 37.108462 36.86265 L 2.7084776,36.123938 3.1769552,35.385226 4.3288184,34.172613 5.4806816,32.96 H 23.9832 42.485717 l 1.637142,1.642731 1.637141,1.642733 -6.4e-4,0.237267 -6.4e-4,0.237269 -0.447899,0.675067 -0.447898,0.675069 -1.082689,1.204931 L 42.697544,40.48 H 24.025814 5.3540859 L 3.7970877,38.917138 Z m 0,-12.8 L 2.24,24.554275 V 24.308462 24.06265 L 2.7084776,23.323938 3.1769552,22.585226 4.3288184,21.372613 5.4806816,20.16 H 23.9832 42.485717 l 1.637142,1.642731 1.637141,1.642733 -6.4e-4,0.237267 -6.4e-4,0.237269 -0.447899,0.675067 -0.447898,0.675069 -1.082689,1.204931 L 42.697544,27.68 H 24.025814 5.3540859 L 3.7970877,26.117138 Z M 3.8771413,13.237268 2.24,11.594536 V 11.348593 11.10265 L 2.6939664,10.391325 3.1479328,9.68 4.3097714,8.44 5.4716099,7.2 H 23.978664 42.485717 L 44.122859,8.842732 45.76,10.485464 45.75936,10.722732 45.75872,10.96 45.30109,11.649767 44.843461,12.339533 43.690917,13.609767 42.538283,14.88 h -18.512 -18.5120004 z"
         id="path16" />
      <path
         style="fill:#0081e4;stroke-width:0.16"
         d="M 3.7756981,38.895757 2.1973998,37.311514 2.2978827,36.911158 2.3983656,36.510803 3.0608149,35.655402 3.7232642,34.8 4.5361664,33.96 5.3490688,33.12 H 23.997536 42.646003 l 1.556999,1.562862 1.556998,1.562863 v 0.253131 0.253131 L 45.256342,37.455994 44.752686,38.16 43.72196,39.32 42.691234,40.48 H 24.022614 5.3539963 Z m 0,-12.8 L 2.1973998,24.511514 2.2978827,24.111158 2.3983656,23.710803 3.0608149,22.855402 3.7232642,22 4.5361664,21.16 5.3490688,20.32 H 23.997536 42.646003 l 1.556999,1.562862 1.556998,1.562863 v 0.253131 0.253131 L 45.256342,24.655994 44.752686,25.36 43.72196,26.52 42.691234,27.68 H 24.022614 5.3539963 Z m 0,-12.96 L 2.1973998,11.551514 2.2978827,11.151159 2.3983656,10.750803 3.0608149,9.8954014 3.7232642,9.04 4.5361664,8.2 5.3490688,7.36 H 23.997536 42.646003 L 44.203002,8.9228626 45.76,10.485725 v 0.253131 0.253132 L 45.256342,11.695994 44.752686,12.4 43.72196,13.56 42.691234,14.72 H 24.022614 5.3539963 Z"
         id="path14" />
    </g>
  </g>
</svg>
