<?xml version="1.0" encoding="utf-8"?>
<!-- Generator: Adobe Illustrator 23.0.3, SVG Export Plug-In . SVG Version: 6.00 Build 0)  -->
<svg version="1.1" id="Capa_1" xmlns="http://www.w3.org/2000/svg" xmlns:xlink="http://www.w3.org/1999/xlink" x="0px" y="0px"
	 viewBox="0 0 72.6 136" style="enable-background:new 0 0 72.6 136;" xml:space="preserve">
<style type="text/css">
	.st0{fill:none;stroke:#F2F1F1;stroke-miterlimit:10;}
	.st1{fill:#751518;}
	.st2{fill:#CC5261;}
	.st3{fill:#D9D9D9;}
	.st4{fill:#B3B4B3;}
	.st5{fill:#868686;}
	.st6{fill:#BD1622;}
	.st7{fill-rule:evenodd;clip-rule:evenodd;fill:#CC5261;}
</style>
<g>
	<line class="st0" x1="4.9" y1="109.2" x2="6.4" y2="109.9"/>
	<line class="st0" x1="4.9" y1="107.2" x2="6.4" y2="107.9"/>
	<line class="st0" x1="4.9" y1="105.2" x2="6.4" y2="105.9"/>
	<line class="st0" x1="4.9" y1="103.2" x2="6.4" y2="104"/>
	<line class="st0" x1="4.9" y1="101.3" x2="6.4" y2="102"/>
	<line class="st0" x1="4.9" y1="99.3" x2="6.4" y2="100"/>
	<line class="st0" x1="4.9" y1="97.3" x2="6.4" y2="98.1"/>
	<line class="st0" x1="4.9" y1="95.4" x2="6.4" y2="96.1"/>
	<line class="st0" x1="4.9" y1="93.4" x2="6.4" y2="94.1"/>
	<line class="st0" x1="4.9" y1="91.4" x2="6.4" y2="92.1"/>
	<line class="st0" x1="4.9" y1="89.4" x2="6.4" y2="90.2"/>
	<line class="st0" x1="4.9" y1="87.5" x2="6.4" y2="88.2"/>
	<line class="st0" x1="4.9" y1="85.5" x2="6.4" y2="86.2"/>
	<line class="st0" x1="4.9" y1="83.5" x2="6.4" y2="84.2"/>
	<line class="st0" x1="4.9" y1="81.5" x2="6.4" y2="82.3"/>
	<line class="st0" x1="4.9" y1="79.6" x2="6.4" y2="80.3"/>
	<line class="st0" x1="4.9" y1="77.6" x2="6.4" y2="78.3"/>
	<line class="st0" x1="4.9" y1="75.6" x2="6.4" y2="76.3"/>
	<line class="st0" x1="4.9" y1="73.6" x2="6.4" y2="74.4"/>
	<line class="st0" x1="4.9" y1="71.7" x2="6.4" y2="72.4"/>
	<line class="st0" x1="4.9" y1="69.7" x2="6.4" y2="70.4"/>
	<line class="st0" x1="4.9" y1="67.7" x2="6.4" y2="68.4"/>
	<line class="st0" x1="4.9" y1="65.7" x2="6.4" y2="66.5"/>
	<line class="st0" x1="4.9" y1="63.8" x2="6.4" y2="64.5"/>
	<line class="st0" x1="4.9" y1="61.8" x2="6.4" y2="62.5"/>
	<line class="st0" x1="4.9" y1="59.8" x2="6.4" y2="60.6"/>
	<line class="st0" x1="4.9" y1="57.9" x2="6.4" y2="58.6"/>
	<line class="st0" x1="4.9" y1="55.9" x2="6.4" y2="56.6"/>
	<line class="st0" x1="4.9" y1="53.9" x2="6.4" y2="54.6"/>
	<line class="st0" x1="4.9" y1="51.9" x2="6.4" y2="52.7"/>
	<line class="st0" x1="4.9" y1="50" x2="6.4" y2="50.7"/>
	<line class="st0" x1="4.9" y1="48" x2="6.4" y2="48.7"/>
	<line class="st0" x1="4.9" y1="46" x2="6.4" y2="46.7"/>
	<line class="st0" x1="4.9" y1="44" x2="6.4" y2="44.8"/>
	<line class="st0" x1="4.9" y1="42.1" x2="6.4" y2="42.8"/>
	<line class="st0" x1="4.9" y1="40.1" x2="6.4" y2="40.8"/>
	<line class="st0" x1="4.9" y1="38.1" x2="6.4" y2="38.8"/>
	<line class="st0" x1="4.9" y1="36.1" x2="6.4" y2="36.9"/>
	<line class="st0" x1="4.9" y1="34.2" x2="6.4" y2="34.9"/>
	<line class="st0" x1="4.9" y1="32.2" x2="6.4" y2="32.9"/>
	<line class="st0" x1="4.9" y1="30.2" x2="6.4" y2="31"/>
	<line class="st0" x1="4.9" y1="28.2" x2="6.4" y2="29"/>
	<line class="st0" x1="4.9" y1="26.3" x2="6.4" y2="27"/>
	<line class="st0" x1="4.9" y1="24.3" x2="6.4" y2="25"/>
	<line class="st0" x1="4.9" y1="22.3" x2="6.4" y2="23.1"/>
	<line class="st0" x1="4.9" y1="20.4" x2="6.4" y2="21.1"/>
	<line class="st0" x1="4.9" y1="18.4" x2="6.4" y2="19.1"/>
	<line class="st0" x1="4.9" y1="16.4" x2="6.4" y2="17.1"/>
	<g>
		<path class="st1" d="M67.6,126c-1,0-1.9-0.2-1.9-0.5v4.8c0,0.2,0.8,0.5,1.9,0.5c1,0,1.9-0.2,1.9-0.5v-4.8
			C69.5,125.8,68.6,126,67.6,126z"/>
		<path class="st2" d="M69.5,125.5c0-0.2-0.9-0.4-1.9-0.4c-1,0-1.8,0.2-1.9,0.4c0,0,0,0,0,0c0,0.2,0.8,0.5,1.9,0.5
			C68.6,126,69.5,125.8,69.5,125.5C69.5,125.5,69.5,125.5,69.5,125.5z"/>
	</g>
	<g>
		<polygon class="st3" points="9.2,14.1 7.2,15.3 4.9,14.1 7,12.9 		"/>
		<polygon class="st4" points="9.2,110.7 7.2,111.8 7.2,15.3 9.2,14.1 		"/>
		<polygon class="st5" points="7.2,111.8 4.9,110.7 4.9,14.1 7.2,15.3 		"/>
		<g>
			<path class="st1" d="M39.4,131.2c-1,0-1.9-0.2-1.9-0.5v4.8c0,0.2,0.8,0.5,1.9,0.5c1,0,1.9-0.2,1.9-0.5v-4.8
				C41.3,131,40.4,131.2,39.4,131.2z"/>
			<path class="st2" d="M41.3,130.7c0-0.2-0.9-0.4-1.9-0.4c-1,0-1.8,0.2-1.9,0.4c0,0,0,0,0,0c0,0.2,0.8,0.5,1.9,0.5
				C40.4,131.2,41.3,131,41.3,130.7C41.3,130.7,41.3,130.7,41.3,130.7z"/>
		</g>
		<g>
			<path class="st1" d="M8.7,126c-1,0-1.9-0.2-1.9-0.5v4.8c0,0.2,0.8,0.5,1.9,0.5c1,0,1.9-0.2,1.9-0.5v-4.8
				C10.6,125.8,9.8,126,8.7,126z"/>
			<path class="st2" d="M10.6,125.5c0-0.2-0.9-0.4-1.9-0.4c-1,0-1.8,0.2-1.9,0.4c0,0,0,0,0,0c0,0.2,0.8,0.5,1.9,0.5
				C9.8,126,10.6,125.8,10.6,125.5C10.6,125.5,10.6,125.5,10.6,125.5z"/>
		</g>
		<g>
			<path class="st1" d="M38.1,124.5c-19,0-34.5-3.7-34.5-8.4v7c0,4.6,15.4,8.4,34.5,8.4c19,0,34.5-3.7,34.5-8.4v-7
				C72.6,120.7,57.1,124.5,38.1,124.5z"/>
			<path class="st2" d="M72.5,115.8c-0.7-4.5-15.9-8-34.5-8c-18.6,0-33.7,3.6-34.5,8c0,0.1,0,0.2,0,0.3c0,4.6,15.4,8.4,34.5,8.4
				c19,0,34.5-3.7,34.5-8.4C72.6,116,72.6,115.9,72.5,115.8z"/>
		</g>
		<path class="st6" d="M38.1,21.1c-15.9,0-28.8-3.1-28.8-7V113c0,3.9,12.9,7,28.8,7c15.9,0,28.8-3.1,28.8-7V14.1
			C66.9,18,54,21.1,38.1,21.1z"/>
		<path class="st2" d="M66.9,13.8C66.3,10.1,38.1,0,38.1,0S9.9,10.1,9.3,13.8c0,0.1,0,0.2,0,0.3c0,3.9,12.9,7,28.8,7
			c15.9,0,28.8-3.1,28.8-7C66.9,14,66.9,13.9,66.9,13.8z"/>
		<line class="st0" x1="4.9" y1="109.2" x2="6.4" y2="109.9"/>
		<line class="st0" x1="4.9" y1="107.2" x2="6.4" y2="107.9"/>
		<line class="st0" x1="4.9" y1="105.2" x2="6.4" y2="105.9"/>
		<line class="st0" x1="4.9" y1="103.2" x2="6.4" y2="104"/>
		<line class="st0" x1="4.9" y1="101.3" x2="6.4" y2="102"/>
		<line class="st0" x1="4.9" y1="99.3" x2="6.4" y2="100"/>
		<line class="st0" x1="4.9" y1="97.3" x2="6.4" y2="98.1"/>
		<line class="st0" x1="4.9" y1="95.4" x2="6.4" y2="96.1"/>
		<line class="st0" x1="4.9" y1="93.4" x2="6.4" y2="94.1"/>
		<line class="st0" x1="4.9" y1="91.4" x2="6.4" y2="92.1"/>
		<line class="st0" x1="4.9" y1="89.4" x2="6.4" y2="90.2"/>
		<line class="st0" x1="4.9" y1="87.5" x2="6.4" y2="88.2"/>
		<line class="st0" x1="4.9" y1="85.5" x2="6.4" y2="86.2"/>
		<line class="st0" x1="4.9" y1="83.5" x2="6.4" y2="84.2"/>
		<line class="st0" x1="4.9" y1="81.5" x2="6.4" y2="82.3"/>
		<line class="st0" x1="4.9" y1="79.6" x2="6.4" y2="80.3"/>
		<line class="st0" x1="4.9" y1="77.6" x2="6.4" y2="78.3"/>
		<line class="st0" x1="4.9" y1="75.6" x2="6.4" y2="76.3"/>
		<line class="st0" x1="4.9" y1="73.6" x2="6.4" y2="74.4"/>
		<line class="st0" x1="4.9" y1="71.7" x2="6.4" y2="72.4"/>
		<line class="st0" x1="4.9" y1="69.7" x2="6.4" y2="70.4"/>
		<line class="st0" x1="4.9" y1="67.7" x2="6.4" y2="68.4"/>
		<line class="st0" x1="4.9" y1="65.7" x2="6.4" y2="66.5"/>
		<line class="st0" x1="4.9" y1="63.8" x2="6.4" y2="64.5"/>
		<line class="st0" x1="4.9" y1="61.8" x2="6.4" y2="62.5"/>
		<line class="st0" x1="4.9" y1="59.8" x2="6.4" y2="60.6"/>
		<line class="st0" x1="4.9" y1="57.9" x2="6.4" y2="58.6"/>
		<line class="st0" x1="4.9" y1="55.9" x2="6.4" y2="56.6"/>
		<line class="st0" x1="4.9" y1="53.9" x2="6.4" y2="54.6"/>
		<line class="st0" x1="4.9" y1="51.9" x2="6.4" y2="52.7"/>
		<line class="st0" x1="4.9" y1="50" x2="6.4" y2="50.7"/>
		<line class="st0" x1="4.9" y1="48" x2="6.4" y2="48.7"/>
		<line class="st0" x1="4.9" y1="46" x2="6.4" y2="46.7"/>
		<line class="st0" x1="4.9" y1="44" x2="6.4" y2="44.8"/>
		<line class="st0" x1="4.9" y1="42.1" x2="6.4" y2="42.8"/>
		<line class="st0" x1="4.9" y1="40.1" x2="6.4" y2="40.8"/>
		<line class="st0" x1="4.9" y1="38.1" x2="6.4" y2="38.8"/>
		<line class="st0" x1="4.9" y1="36.1" x2="6.4" y2="36.9"/>
		<line class="st0" x1="4.9" y1="34.2" x2="6.4" y2="34.9"/>
		<line class="st0" x1="4.9" y1="32.2" x2="6.4" y2="32.9"/>
		<line class="st0" x1="4.9" y1="30.2" x2="6.4" y2="31"/>
		<line class="st0" x1="4.9" y1="28.2" x2="6.4" y2="29"/>
		<line class="st0" x1="4.9" y1="26.3" x2="6.4" y2="27"/>
		<line class="st0" x1="4.9" y1="24.3" x2="6.4" y2="25"/>
		<line class="st0" x1="4.9" y1="22.3" x2="6.4" y2="23.1"/>
		<line class="st0" x1="4.9" y1="20.4" x2="6.4" y2="21.1"/>
		<line class="st0" x1="4.9" y1="18.4" x2="6.4" y2="19.1"/>
		<line class="st0" x1="4.9" y1="16.4" x2="6.4" y2="17.1"/>
		<g>
			<g>
				<g>
					<path class="st7" d="M15.2,108.4c-0.8-2.7-3.1-4.4-5.1-3.8c-0.1,0-3.8,2-3.8,2l4.4,9.2l3.1-1.8C15.3,113,15.9,110.8,15.2,108.4
						z"/>
				</g>
				<ellipse transform="matrix(0.9558 -0.294 0.294 0.9558 -32.3374 7.4179)" class="st2" cx="8.5" cy="111.3" rx="3.8" ry="5.2"/>
			</g>
		</g>
		<g>
			<path class="st1" d="M11.5,110.8c-1.2-4.1-4.7-6.8-7.8-5.9s-4.5,4.9-3.3,9.1c1.2,4.1,4.7,6.8,7.8,5.9
				C11.2,119,12.7,114.9,11.5,110.8z M6.5,106.2c0,0,3,1.3,3.9,4.4l-4.1,1.7C6.2,112.3,6.5,106.2,6.5,106.2z M5.4,105.9v6.1
				l-4.2-2.7C2.2,105.6,5.4,105.9,5.4,105.9z M2.5,116.1c0,0-1.9-2.5-1.4-5.9l4.1,2.7L2.5,116.1z M3.1,116.9c0,0,2.7-3.1,2.7-3.2
				l2.2,5.2C5.1,119.5,3.1,116.9,3.1,116.9z M8.9,118.4l-2.4-5.2l4.1-1.5C11.7,115.7,8.9,118.4,8.9,118.4z"/>
		</g>
	</g>
</g>
</svg>
