<?xml version="1.0" encoding="utf-8"?>
<!-- Generator: Adobe Illustrator 23.0.3, SVG Export Plug-In . SVG Version: 6.00 Build 0)  -->
<svg version="1.1" xmlns="http://www.w3.org/2000/svg" xmlns:xlink="http://www.w3.org/1999/xlink" x="0px" y="0px"
	 viewBox="0 0 103.5 126.7" style="enable-background:new 0 0 103.5 126.7;" xml:space="preserve">
<style type="text/css">
	.st0{fill:#BFC9E8;}
	.st1{fill:#9FABD8;}
	.st2{fill:#3458A3;}
	.st3{fill:#264987;}
	.st4{fill-rule:evenodd;clip-rule:evenodd;fill:#9FABD8;}
	.st5{fill-rule:evenodd;clip-rule:evenodd;fill:#BFC9E8;}
	.st6{fill:#E7E6E6;}
	.st7{fill:#F2F1F1;}
	.st8{fill:#FFFFFF;}
	.st9{fill-rule:evenodd;clip-rule:evenodd;}
	.st10{enable-background:new    ;}
	.st11{clip-path:url(#SVGID_2_);fill:#F2F1F1;}
	.st12{fill:#6ABA82;}
	.st13{fill:#31AA59;}
	.st14{fill:#006E32;}
	.st15{fill:#035426;}
	.st16{clip-path:url(#SVGID_4_);fill:#F2F1F1;}
	.st17{fill-rule:evenodd;clip-rule:evenodd;fill:#31AA59;}
	.st18{fill-rule:evenodd;clip-rule:evenodd;fill:#6ABA82;}
	.st19{fill:#CC5261;}
	.st20{fill:#BD1622;}
	.st21{fill:#751518;}
	.st22{fill:#5B0E14;}
	.st23{clip-path:url(#SVGID_6_);fill:#EA6A80;}
	.st24{fill-rule:evenodd;clip-rule:evenodd;fill:#BD1622;}
	.st25{fill-rule:evenodd;clip-rule:evenodd;fill:#CC5261;}
	.st26{fill:#EA6A80;}
	.st27{fill:#D9D9D9;}
	.st28{fill:#B3B4B3;}
	.st29{fill:#868686;}
	.st30{clip-path:url(#SVGID_8_);fill:#F2F1F1;}
	.st31{fill-rule:evenodd;clip-rule:evenodd;fill:#B3B4B3;}
	.st32{fill-rule:evenodd;clip-rule:evenodd;fill:#D9D9D9;}
</style>
<g id="Capa_2">
</g>
<g id="Capa_1">
	<g>
		<g>
			<g>
				<polygon class="st0" points="11.8,79.3 8.7,81.1 5.3,79.3 8.4,77.4 				"/>
				<polygon class="st1" points="11.8,103.3 8.7,105.1 8.7,81 11.8,79.3 				"/>
				<polygon class="st2" points="8.7,105.1 5.2,103.3 5.3,79.3 8.7,81 				"/>
			</g>
			<polygon class="st1" points="100.3,71.2 100.3,60.6 42.8,93.8 42.8,104.7 			"/>
			<polygon class="st0" points="42.9,93.8 100.3,60.6 65.9,40.7 8.7,74 			"/>
			<path class="st2" d="M42.8,104.7V93.8L8.7,74c0,0,0.1,10.8,0,10.8L42.8,104.7"/>
		</g>
		<path class="st2" d="M18.5,95.1c-6.3,0-11.4-1.9-11.4-3.4v2.9c0,1.5,5.1,3.9,11.4,3.9c6.3,0,11.4-2.3,11.4-3.9v-2.9
			C29.9,93.3,24.8,95.1,18.5,95.1z"/>
		<path class="st0" d="M7.1,91.7c0,1.3,2.3,4.6,11.3,4.6c8.6,0,11.3-2.3,11.3-4.5c0-2.5-5.1-5.5-11.3-5.5S7.1,89,7.1,91.7z"/>
		<g>
			<polygon class="st0" points="49.3,101 46.3,102.7 42.8,101 45.9,99.1 			"/>
			<polygon class="st1" points="49.3,125 46.3,126.7 46.3,102.7 49.3,101 			"/>
			<polygon class="st2" points="46.3,126.7 42.8,124.9 42.8,101 46.3,102.7 			"/>
		</g>
		<g>
			<polygon class="st0" points="103.4,69.4 100.4,71.1 96.9,69.4 100,67.5 			"/>
			<polygon class="st1" points="103.4,93.4 100.4,95.1 100.4,71.1 103.5,69.4 			"/>
			<polygon class="st2" points="100.4,95.1 96.9,93.4 96.9,69.4 100.4,71.1 			"/>
		</g>
		<g>
			<g>
				<polygon class="st1" points="92.8,57.1 92.8,55.2 51.7,79.1 51.7,81.1 				"/>
				<polygon class="st3" points="51.7,79.1 92.8,55.2 73.1,43.8 32.1,67.7 				"/>
				<path class="st2" d="M51.7,81.1v-1.9L32.1,67.7c0,0,0,1.9,0,1.9L51.7,81.1"/>
			</g>
			<g>
				<polygon class="st1" points="92.9,54.5 92.9,35.2 70.9,47.2 51.9,67.4 51.9,78.3 				"/>
				<path class="st2" d="M51.9,78.3V67.5L32.1,56.1c0,0,0.1,10.8,0,10.8L51.9,78.3"/>
			</g>
			<g>
				<polygon class="st1" points="92.9,41.5 92.9,35.3 71.7,47.6 71.7,53.9 				"/>
				<polygon class="st0" points="71.7,47.6 92.8,35.3 72.7,23.7 51.7,36 				"/>
				<path class="st0" d="M71.7,47.6L51.7,36c0,0-19.5,20.1-19.5,20.1l19.7,11.4L71.7,47.6z"/>
			</g>
		</g>
		<g>
			<g>
				<g>
					<path class="st4" d="M45.3,67.6c-1-3.3-3.8-5.5-6.2-4.7c-0.1,0-0.6,0.2-0.9,0.4l-1.6,0.9L42,75.4l1.7-1
						C45.4,73.2,46.1,70.4,45.3,67.6z"/>
				</g>
				
					<ellipse transform="matrix(0.9593 -0.2824 0.2824 0.9593 -18.1072 13.9404)" class="st2" cx="39.3" cy="69.8" rx="4.6" ry="6.3"/>
			</g>
		</g>
		<g>
			<g>
				<path class="st4" d="M42.8,68.7c-0.8-2.6-2.9-4.2-4.8-3.7c-0.1,0-0.6,0.3-0.6,0.3c0,0,0,0,0,0l-13.6,8.1l4.1,8.7L41.6,74
					C42.9,73.1,43.5,70.9,42.8,68.7z"/>
			</g>
			<ellipse transform="matrix(0.9593 -0.2824 0.2824 0.9593 -20.91 10.4711)" class="st2" cx="25.9" cy="77.8" rx="3.5" ry="4.9"/>
		</g>
		<g>
			<g>
				<g>
					<path class="st4" d="M29.9,76.1c-1-3.3-3.8-5.5-6.2-4.7c-0.1,0-0.6,0.2-0.9,0.4l-1.6,0.9L26.5,84l1.7-1
						C30,81.7,30.7,79,29.9,76.1z"/>
				</g>
				
					<ellipse transform="matrix(0.9593 -0.2824 0.2824 0.9593 -21.1452 9.9301)" class="st2" cx="23.9" cy="78.3" rx="4.6" ry="6.3"/>
			</g>
		</g>
		<g>
			<path class="st2" d="M18.1,71.6c-4.9,0-8.9-1-8.9-2.2v22.1c0,1.2,4,2.6,8.9,2.6c4.9,0,8.9-1.4,8.9-2.6V69.5
				C27,70.7,23,71.6,18.1,71.6z"/>
			<path class="st2" d="M27,69.4c-0.2-1.2-4.1-2.1-8.9-2.1c-4.8,0-8.7,0.9-8.9,2.1c0,0,0,0.1,0,0.1c0,1.2,4,2.2,8.9,2.2
				C23,71.6,27,70.7,27,69.4C27,69.4,27,69.4,27,69.4z"/>
		</g>
		<g>
			<g>
				<path class="st4" d="M15.4,83.3c-0.8-2.6-2.9-4.2-4.8-3.7c-0.1,0-0.6,0.3-0.6,0.3c0,0,0,0,0,0l-4.1,2.5l4.1,8.7l4.1-2.5
					C15.4,87.6,16,85.5,15.4,83.3z"/>
			</g>
			<ellipse transform="matrix(0.9593 -0.2824 0.2824 0.9593 -24.1617 5.7634)" class="st2" cx="7.9" cy="86.7" rx="3.5" ry="4.9"/>
		</g>
		<g>
			<g>
				<g>
					<path class="st4" d="M12.5,85.2c-1.1-3.9-4.4-6.4-7.2-5.5c-0.2,0-0.7,0.3-1,0.5l-1.9,1.1l6.2,13.1l2-1.2
						C12.7,91.8,13.5,88.5,12.5,85.2z"/>
				</g>
				<ellipse transform="matrix(0.9593 -0.2824 0.2824 0.9593 -24.5614 5.1377)" class="st2" cx="5.5" cy="87.8" rx="5.4" ry="7.3"/>
			</g>
			<g>
				<g>
					<path class="st5" d="M5,82.3c-0.1-0.5-0.5-0.8-0.9-0.7c0,0-0.1,0-0.1,0.1l-0.3,0.2l0.8,1.6l0.3-0.2C5,83.1,5.1,82.7,5,82.3z"/>
				</g>
				<ellipse transform="matrix(0.9593 -0.2824 0.2824 0.9593 -23.1701 4.5046)" class="st1" cx="4" cy="82.6" rx="0.7" ry="0.9"/>
			</g>
			<g>
				<g>
					<path class="st5" d="M8.9,84.8C8.7,84.3,8.3,84,8,84.1c0,0-0.1,0-0.1,0.1l-0.3,0.2L8.3,86l0.3-0.2C8.9,85.6,9,85.2,8.9,84.8z"
						/>
				</g>
				<ellipse transform="matrix(0.9593 -0.2824 0.2824 0.9593 -23.7362 5.6953)" class="st1" cx="7.9" cy="85.2" rx="0.7" ry="0.9"/>
			</g>
			<g>
				<g>
					<path class="st5" d="M9.7,90c-0.1-0.5-0.5-0.8-0.9-0.7c0,0-0.1,0-0.1,0.1l-0.3,0.2l0.8,1.6L9.5,91C9.7,90.9,9.8,90.5,9.7,90z"
						/>
				</g>
				<ellipse transform="matrix(0.9593 -0.2824 0.2824 0.9593 -25.1753 6.1496)" class="st1" cx="8.7" cy="90.4" rx="0.7" ry="0.9"/>
			</g>
			<g>
				<g>
					<path class="st5" d="M6.7,92.8c-0.1-0.5-0.5-0.8-0.9-0.7c0,0-0.1,0-0.1,0.1l-0.3,0.2l0.8,1.6l0.3-0.2
						C6.8,93.7,6.9,93.3,6.7,92.8z"/>
				</g>
				<ellipse transform="matrix(0.9593 -0.2824 0.2824 0.9593 -26.0895 5.4221)" class="st1" cx="5.8" cy="93.2" rx="0.7" ry="0.9"/>
			</g>
			<g>
				<g>
					<path class="st5" d="M3.2,90.2c-0.1-0.5-0.5-0.8-0.9-0.7c0,0-0.1,0-0.1,0.1l-0.3,0.2l0.8,1.6L3,91.2C3.2,91,3.4,90.6,3.2,90.2z
						"/>
				</g>
				<ellipse transform="matrix(0.9593 -0.2824 0.2824 0.9593 -25.4883 4.3265)" class="st1" cx="2.3" cy="90.6" rx="0.7" ry="0.9"/>
			</g>
			<g>
				<g>
					<path class="st5" d="M2.4,85.3c-0.1-0.5-0.5-0.8-0.9-0.7c0,0-0.1,0-0.1,0.1L1,84.8l0.8,1.6l0.3-0.2C2.4,86.1,2.5,85.7,2.4,85.3
						z"/>
				</g>
				<ellipse transform="matrix(0.9593 -0.2824 0.2824 0.9593 -24.1314 3.8811)" class="st1" cx="1.4" cy="85.7" rx="0.7" ry="0.9"/>
			</g>
		</g>
		<g>
			<g>
				<path class="st6" d="M12.9,74.7c-0.4,0-0.7-0.1-0.7-0.2v1.9c0,0.1,0.3,0.2,0.7,0.2c0.4,0,0.7-0.1,0.7-0.2v-1.9
					C13.7,74.6,13.3,74.7,12.9,74.7z"/>
				<path class="st7" d="M13.7,74.5c0-0.1-0.3-0.2-0.7-0.2c-0.4,0-0.7,0.1-0.7,0.2c0,0,0,0,0,0c0,0.1,0.3,0.2,0.7,0.2
					C13.3,74.7,13.7,74.6,13.7,74.5C13.7,74.5,13.7,74.5,13.7,74.5z"/>
			</g>
			<g>
				<path class="st6" d="M6.2,73c-0.4,0-0.7-0.1-0.7-0.2v1.9c0,0.1,0.3,0.2,0.7,0.2c0.4,0,0.7-0.1,0.7-0.2v-1.9
					C6.9,72.9,6.6,73,6.2,73z"/>
				<path class="st7" d="M6.9,72.8c0-0.1-0.3-0.2-0.7-0.2c-0.4,0-0.7,0.1-0.7,0.2c0,0,0,0,0,0c0,0.1,0.3,0.2,0.7,0.2
					C6.6,73,6.9,72.9,6.9,72.8C6.9,72.8,6.9,72.8,6.9,72.8z"/>
			</g>
			<g>
				<path class="st6" d="M22.4,74.8c-0.4,0-0.7-0.1-0.7-0.2v1.9c0,0.1,0.3,0.2,0.7,0.2c0.4,0,0.7-0.1,0.7-0.2v-1.9
					C23.1,74.7,22.8,74.8,22.4,74.8z"/>
				<path class="st7" d="M23.1,74.6c0-0.1-0.3-0.2-0.7-0.2c-0.4,0-0.7,0.1-0.7,0.2c0,0,0,0,0,0c0,0.1,0.3,0.2,0.7,0.2
					C22.8,74.8,23.1,74.7,23.1,74.6C23.1,74.6,23.1,74.6,23.1,74.6z"/>
			</g>
			<g>
				<path class="st6" d="M28.9,72.6c-0.4,0-0.7-0.1-0.7-0.2v1.9c0,0.1,0.3,0.2,0.7,0.2c0.4,0,0.7-0.1,0.7-0.2v-1.9
					C29.6,72.6,29.3,72.6,28.9,72.6z"/>
				<path class="st7" d="M29.6,72.5c0-0.1-0.3-0.2-0.7-0.2c-0.4,0-0.7,0.1-0.7,0.2c0,0,0,0,0,0c0,0.1,0.3,0.2,0.7,0.2
					C29.3,72.6,29.6,72.6,29.6,72.5C29.6,72.5,29.6,72.5,29.6,72.5z"/>
			</g>
			<path class="st2" d="M17.5,71.8c-7.2,0-13.1-2.2-13.1-3.9v3.4c0,1.8,5.9,4.5,13.1,4.5c7.2,0,13.1-2.7,13.1-4.5v-3.4
				C30.7,69.7,24.8,71.8,17.5,71.8z"/>
			<path class="st8" d="M4.4,67.9c0,1.5,2.7,5.3,13.1,5.3c9.9,0,13.1-2.7,13.1-5.2c0-2.9-5.9-6.3-13.1-6.3S4.4,64.8,4.4,67.9z"/>
			<path class="st6" d="M17.5,45.2c-4.7,0-8.5-0.9-8.5-2.1v25.6c0,1.2,4.1,2.7,8.8,2.7c4.7,0,8.3-1.6,8.3-2.7V43.1
				C26,44.2,22.2,45.2,17.5,45.2z"/>
			<g>
				<path class="st8" d="M7.5,66.8c0-0.1-0.3-0.2-0.7-0.2c-0.4,0-0.7,0.1-0.7,0.2c0,0,0,0,0,0c0,0.1,0.3,0.2,0.7,0.2
					C7.2,67,7.5,66.9,7.5,66.8C7.5,66.8,7.5,66.8,7.5,66.8z"/>
				<g>
					<path class="st6" d="M6.8,67c-0.4,0-0.7-0.1-0.7-0.2v1.8c0,0.1,0.3,0.2,0.7,0.2c0.4,0,0.7-0.1,0.7-0.2v-1.8
						C7.5,66.9,7.2,67,6.8,67z"/>
					<path class="st6" d="M13.1,70.1c-0.4,0-0.7-0.1-0.7-0.2v1.8c0,0.1,0.3,0.2,0.7,0.2c0.4,0,0.7-0.1,0.7-0.2v-1.8
						C13.7,70,13.4,70.1,13.1,70.1z"/>
					<path class="st8" d="M13.7,69.9c0-0.1-0.3-0.2-0.7-0.2c-0.4,0-0.7,0.1-0.7,0.2c0,0,0,0,0,0c0,0.1,0.3,0.2,0.7,0.2
						C13.4,70.1,13.7,70,13.7,69.9C13.7,69.9,13.7,69.9,13.7,69.9z"/>
					<path class="st6" d="M22,70.2c-0.4,0-0.7-0.1-0.7-0.2v1.8c0,0.1,0.3,0.2,0.7,0.2s0.7-0.1,0.7-0.2V70
						C22.7,70.1,22.4,70.2,22,70.2z"/>
					<path class="st8" d="M22.7,70c0-0.1-0.3-0.2-0.7-0.2s-0.7,0.1-0.7,0.2c0,0,0,0,0,0c0,0.1,0.3,0.2,0.7,0.2S22.7,70.1,22.7,70
						C22.7,70,22.7,70,22.7,70z"/>
					<path class="st6" d="M28.2,66.9c-0.4,0-0.7-0.1-0.7-0.2v1.8c0,0.1,0.3,0.2,0.7,0.2c0.4,0,0.7-0.1,0.7-0.2v-1.8
						C28.9,66.8,28.6,66.9,28.2,66.9z"/>
				</g>
				<path class="st8" d="M28.9,66.7c0-0.1-0.3-0.2-0.7-0.2s-0.7,0.1-0.7,0.2c0,0,0,0,0,0c0,0.1,0.3,0.2,0.7,0.2
					C28.6,66.9,28.9,66.8,28.9,66.7C28.9,66.7,28.9,66.7,28.9,66.7z"/>
			</g>
			<path class="st6" d="M17.5,44.2c-7.2,0-13.1-2.2-13.1-3.9v3.4c0,1.8,5.9,4.5,13.1,4.5c7.2,0,13.1-2.7,13.1-4.5v-3.4
				C30.7,42.1,24.8,44.2,17.5,44.2z"/>
			<path class="st8" d="M4.4,40.3c0,1.5,2.7,5.3,13.1,5.3c9.9,0,13.1-2.7,13.1-5.2c0-2.9-5.9-6.3-13.1-6.3S4.4,37.2,4.4,40.3z"/>
		</g>
		<g>
			<g>
				<g>
					<path class="st9" d="M50.7,18.3c-0.4-1.4-1.6-2.3-2.7-2c-0.1,0-0.4,0.2-0.4,0.2c0,0,0,0,0,0l-13.5,7.8l2.3,4.8L50,21.2
						C50.8,20.7,51.1,19.5,50.7,18.3z"/>
				</g>
			</g>
			<g>
				<g>
					<g>
						<path class="st9" d="M39.5,25.2c-0.7-2.3-2.6-3.7-4.2-3.3c-0.1,0-0.4,0.2-0.6,0.3l-1.1,0.7l3.6,7.7l1.2-0.7
							C39.5,29,40,27.1,39.5,25.2z"/>
					</g>
					<ellipse transform="matrix(0.9593 -0.2824 0.2824 0.9593 -6.1085 11.0642)" cx="35.3" cy="26.7" rx="3.1" ry="4.3"/>
				</g>
			</g>
			<g>
				<g>
					<g>
						<path class="st4" d="M38,25.9c-0.6-2.1-2.4-3.4-3.9-3c-0.1,0-0.4,0.1-0.5,0.2L32.2,24l3.3,7.1l1.5-0.9
							C38.1,29.5,38.6,27.7,38,25.9z"/>
					</g>
					
						<ellipse transform="matrix(0.9593 -0.2824 0.2824 0.9593 -6.4052 10.6885)" class="st2" cx="33.9" cy="27.6" rx="2.9" ry="3.9"/>
				</g>
			</g>
			<g>
				<g>
					<path class="st4" d="M35.2,27.3c-0.4-1.4-1.5-2.2-2.5-1.9c-0.1,0-0.3,0.1-0.3,0.1c0,0,0,0,0,0L21.5,32l2.2,4.6l10.9-6.5
						C35.3,29.6,35.5,28.5,35.2,27.3z"/>
				</g>
				<ellipse transform="matrix(0.9593 -0.2824 0.2824 0.9593 -8.7594 7.762)" class="st2" cx="22.6" cy="34.3" rx="1.9" ry="2.6"/>
			</g>
		</g>
		<g>
			<path class="st2" d="M7.6,39.4c0,1.3,2,4.4,10,4.4c7.6,0,10-3.1,10-4.4v-4.8c0,0,0-0.1,0-0.1c0-2.9-4.5-2.2-10-2.2
				s-10-0.7-10,2.2c0,0,0,0.1,0,0.1V39.4z"/>
			<path class="st0" d="M7.6,34.4c0,1.3,2,4.4,10,4.4c7.6,0,10-3.1,10-4.4v0.2c0,0,0-0.1,0-0.1c0-2.9-4.5-5.2-10-5.2
				S7.5,31.6,7.6,34.4c0,0.1,0,0.2,0,0.2V34.4z"/>
		</g>
		<g>
			<g>
				<g>
					<path class="st4" d="M10.4,39C10,37.7,8.9,36.9,8,37.2c-0.1,0-0.2,0.1-0.3,0.1l-0.9,0.5l2,4.3l0.9-0.5
						C10.4,41.1,10.7,40.1,10.4,39z"/>
				</g>
				<ellipse transform="matrix(0.9593 -0.2824 0.2824 0.9593 -10.9677 3.8402)" class="st2" cx="7.8" cy="40" rx="1.7" ry="2.4"/>
			</g>
			<g>
				<g>
					<path class="st5" d="M7.7,38.2c0-0.2-0.2-0.3-0.3-0.2c0,0,0,0,0,0L7.2,38l0.3,0.5l0.1-0.1C7.7,38.4,7.7,38.3,7.7,38.2z"/>
				</g>
				<ellipse transform="matrix(0.9593 -0.2824 0.2824 0.9593 -10.5152 3.6343)" class="st1" cx="7.4" cy="38.3" rx="0.2" ry="0.3"/>
			</g>
			<g>
				<g>
					<path class="st5" d="M8.9,39c0-0.2-0.2-0.3-0.3-0.2c0,0,0,0,0,0l-0.1,0.1l0.3,0.5l0.1-0.1C8.9,39.3,9,39.1,8.9,39z"/>
				</g>
				<ellipse transform="matrix(0.9593 -0.2824 0.2824 0.9593 -10.6993 4.0216)" class="st1" cx="8.6" cy="39.1" rx="0.2" ry="0.3"/>
			</g>
			<g>
				<g>
					<path class="st5" d="M9.2,40.7c0-0.2-0.2-0.3-0.3-0.2c0,0,0,0,0,0l-0.1,0.1L9,41.1L9.1,41C9.2,41,9.2,40.8,9.2,40.7z"/>
				</g>
				<ellipse transform="matrix(0.9593 -0.2824 0.2824 0.9593 -11.1674 4.1694)" class="st1" cx="8.9" cy="40.8" rx="0.2" ry="0.3"/>
			</g>
			<g>
				<g>
					<path class="st5" d="M8.2,41.6c0-0.2-0.2-0.3-0.3-0.2c0,0,0,0,0,0l-0.1,0.1L8,42l0.1-0.1C8.2,41.9,8.3,41.8,8.2,41.6z"/>
				</g>
				<ellipse transform="matrix(0.9593 -0.2824 0.2824 0.9593 -11.4648 3.9328)" class="st1" cx="7.9" cy="41.7" rx="0.2" ry="0.3"/>
			</g>
			<g>
				<g>
					<path class="st5" d="M7.1,40.8c0-0.2-0.2-0.3-0.3-0.2c0,0,0,0,0,0l-0.1,0.1l0.3,0.5L7,41.1C7.1,41,7.1,40.9,7.1,40.8z"/>
				</g>
				<ellipse transform="matrix(0.9593 -0.2824 0.2824 0.9593 -11.2692 3.5764)" class="st1" cx="6.8" cy="40.9" rx="0.2" ry="0.3"/>
			</g>
			<g>
				<g>
					<path class="st5" d="M6.8,39.2c0-0.2-0.2-0.3-0.3-0.2c0,0,0,0,0,0L6.4,39l0.3,0.5l0.1-0.1C6.8,39.4,6.8,39.3,6.8,39.2z"/>
				</g>
				<ellipse transform="matrix(0.9593 -0.2824 0.2824 0.9593 -10.8279 3.4315)" class="st1" cx="6.5" cy="39.3" rx="0.2" ry="0.3"/>
			</g>
		</g>
		<g>
			<g>
				<g class="st10">
					<path class="st2" d="M82.7,31.3c-1,2.8-5.4,3.8-8.4,4.4c-3.7,0.6-6.7,1.1-9.6-1.4c-3.4-2.9-4.4-1.2-4.4-3.4
						c0,3.2,0-0.4-0.1,1.5c0,1.5-0.1,2.8,0.8,4.1c1.9,2.8,6,3.8,9.3,4c3.3,0.2,7-0.4,9.7-2.4c1.2-0.8,2.2-2,2.4-3.5
						c0.1-0.4,0.1-0.8,0.1-1.2c0-1.7,0.1,1.4,0.1-2.4c0-0.1,0-0.2,0-0.2C82.7,31.1,82.8,31.2,82.7,31.3z"/>
					<g>
						
							<ellipse transform="matrix(2.835001e-03 -1 1 2.835001e-03 40.4758 102.4452)" class="st0" cx="71.6" cy="30.9" rx="6.5" ry="11.2"/>
					</g>
				</g>
			</g>
			<g>
				<g class="st10">
					<path class="st2" d="M63.3,28.2c0,2.3,0-0.3-0.1,1.1c0,1.1-0.1,2,0.6,3c1.4,2.1,4.4,2.8,6.9,2.9c2.5,0.1,5.2-0.3,7.2-1.7
						c0.9-0.6,1.6-1.5,1.8-2.6c0.1-0.3,0-0.6,0.1-0.9c0.1-1.2,0.1-1.9,0.1-1.9C79.9,28.3,63.3,29.8,63.3,28.2z"/>
				</g>
			</g>
			<g>
				<g class="st10">
					<path class="st2" d="M82.7,21.8c-1,2.8-5.4,3.8-8.4,4.4c-3.7,0.6-6.7,1.1-9.6-1.4c-3.4-2.9-4.4-1.2-4.4-3.4
						c0,3.2,0-0.4-0.1,1.5c0,1.5-0.1,2.8,0.8,4.1c1.9,2.8,6,3.8,9.3,4c3.3,0.2,7-0.4,9.7-2.4c1.2-0.8,2.2-2,2.4-3.5
						c0.1-0.4,0.1-0.8,0.1-1.2c0-1.7,0.1,1.4,0.1-2.4c0-0.1,0-0.2,0-0.2C82.7,21.5,82.8,21.7,82.7,21.8z"/>
					<g>
						
							<ellipse transform="matrix(2.835001e-03 -1 1 2.835001e-03 49.9958 92.9522)" class="st0" cx="71.6" cy="21.4" rx="6.5" ry="11.2"/>
					</g>
				</g>
			</g>
			<g>
				<g class="st10">
					<path class="st2" d="M62.5,29.8c-0.1,0.2-0.3,0.2-0.5,0.3c-0.2,0-0.4,0.1-0.6-0.1c-0.2-0.2-0.3-0.1-0.3-0.2c0,0.2,0,0.8,0,0.9
						c0,0.1,0,0.2,0,0.2c0.1,0.2,0.4,0.2,0.5,0.2c0.2,0,0.4,0,0.6-0.1c0.1,0,0.1-0.1,0.1-0.2c0,0,0,0,0-0.1
						C62.5,30.6,62.5,30,62.5,29.8C62.5,29.8,62.5,29.8,62.5,29.8C62.5,29.8,62.6,29.8,62.5,29.8z"/>
					<g>
						
							<ellipse transform="matrix(2.835001e-03 -1 1 2.835001e-03 31.9384 91.5829)" class="st1" cx="61.9" cy="29.8" rx="0.4" ry="0.7"/>
					</g>
				</g>
			</g>
			<g>
				<g class="st10">
					<path class="st2" d="M64.1,32.9c-0.1,0.2-0.3,0.2-0.5,0.3c-0.2,0-0.4,0.1-0.6-0.1c-0.2-0.2-0.3-0.1-0.3-0.2c0,0.2,0,0.8,0,0.9
						c0,0.1,0,0.2,0,0.2c0.1,0.2,0.4,0.2,0.5,0.2c0.2,0,0.4,0,0.6-0.1c0.1,0,0.1-0.1,0.1-0.2c0,0,0,0,0-0.1
						C64.1,33.7,64.1,33.1,64.1,32.9C64.1,32.9,64.1,32.9,64.1,32.9C64.1,32.9,64.1,32.9,64.1,32.9z"/>
					<g>
						
							<ellipse transform="matrix(2.835001e-03 -1 1 2.835001e-03 30.413 96.2537)" class="st1" cx="63.5" cy="32.9" rx="0.4" ry="0.7"/>
					</g>
				</g>
			</g>
			<g>
				<g class="st10">
					<path class="st2" d="M68.4,35c-0.1,0.2-0.3,0.2-0.5,0.3c-0.2,0-0.4,0.1-0.6-0.1c-0.2-0.2-0.3-0.1-0.3-0.2c0,0.2,0,0.8,0,0.9
						c0,0.1,0,0.2,0,0.2c0.1,0.2,0.4,0.2,0.5,0.2c0.2,0,0.4,0,0.6-0.1c0.1,0,0.1-0.1,0.1-0.2c0,0,0,0,0-0.1
						C68.4,35.9,68.4,35.2,68.4,35C68.4,35,68.4,35,68.4,35C68.4,35,68.4,35,68.4,35z"/>
					<g>
						
							<ellipse transform="matrix(2.835001e-03 -1 1 2.835001e-03 32.536 102.6528)" class="st1" cx="67.7" cy="35" rx="0.4" ry="0.7"/>
					</g>
				</g>
			</g>
			<g>
				<g class="st10">
					<path class="st2" d="M74.6,35.3c-0.1,0.2-0.3,0.2-0.5,0.3c-0.2,0-0.4,0.1-0.6-0.1c-0.2-0.2-0.3-0.1-0.3-0.2c0,0.2,0,0.8,0,0.9
						c0,0.1,0,0.2,0,0.2c0.1,0.2,0.4,0.2,0.5,0.2c0.2,0,0.4,0,0.6-0.1c0.1,0,0.1-0.1,0.1-0.2c0,0,0,0,0-0.1
						C74.6,36.2,74.6,35.5,74.6,35.3C74.6,35.3,74.6,35.3,74.6,35.3C74.6,35.3,74.6,35.3,74.6,35.3z"/>
					<g>
						
							<ellipse transform="matrix(2.835001e-03 -1 1 2.835001e-03 38.3972 109.1156)" class="st1" cx="73.9" cy="35.3" rx="0.4" ry="0.7"/>
					</g>
				</g>
			</g>
			<g>
				<g class="st10">
					<path class="st2" d="M79.7,33.5c-0.1,0.2-0.3,0.2-0.5,0.3c-0.2,0-0.4,0.1-0.6-0.1c-0.2-0.2-0.3-0.1-0.3-0.2c0,0.2,0,0.8,0,0.9
						c0,0.1,0,0.2,0,0.2c0.1,0.2,0.4,0.2,0.5,0.2c0.2,0,0.4,0,0.6-0.1c0.1,0,0.1-0.1,0.1-0.2c0,0,0,0,0-0.1
						C79.7,34.3,79.7,33.7,79.7,33.5C79.7,33.4,79.7,33.4,79.7,33.5C79.7,33.4,79.7,33.4,79.7,33.5z"/>
					<g>
						
							<ellipse transform="matrix(2.835001e-03 -1 1 2.835001e-03 45.4312 112.4259)" class="st1" cx="79.1" cy="33.4" rx="0.4" ry="0.7"/>
					</g>
				</g>
			</g>
			<g>
				<g class="st10">
					<path class="st2" d="M82.1,29.9c-0.1,0.2-0.3,0.2-0.5,0.3c-0.2,0-0.4,0.1-0.6-0.1c-0.2-0.2-0.3-0.1-0.3-0.2c0,0.2,0,0.8,0,0.9
						c0,0.1,0,0.2,0,0.2c0.1,0.2,0.4,0.2,0.5,0.2c0.2,0,0.4,0,0.6-0.1c0.1,0,0.1-0.1,0.1-0.2c0,0,0,0,0-0.1
						C82.1,30.8,82.1,30.1,82.1,29.9C82.1,29.9,82.1,29.9,82.1,29.9C82.1,29.9,82.1,29.9,82.1,29.9z"/>
					<g>
						
							<ellipse transform="matrix(2.835001e-03 -1 1 2.835001e-03 51.3032 111.2367)" class="st1" cx="81.4" cy="29.9" rx="0.4" ry="0.7"/>
					</g>
				</g>
			</g>
			<g>
				<path class="st1" d="M81.3,6c-0.8,2.5-4.7,3.3-7.3,3.8c-3.2,0.6-5.8,0.9-8.3-1.2c-3-2.5-3.8-1.1-3.8-3c0,2.7,0,11.6-0.1,13.3
					c0,1.3-0.1,2.4,0.7,3.5c1.7,2.5,5.2,3.3,8,3.5c2.9,0.1,6.1-0.4,8.5-2c1.1-0.7,1.9-1.8,2.1-3c0.1-0.4,0.1-0.7,0.1-1.1
					c0-1.5,0.1-10.8,0.1-14c0-0.1,0-0.1,0-0.2C81.3,5.7,81.3,5.9,81.3,6z"/>
				<g>
					<defs>
						<path id="SVGID_1_" d="M81.3,6c-0.8,2.5-4.7,3.3-7.3,3.8c-3.2,0.6-5.8,0.9-8.3-1.2c-3-2.5-3.8-1.1-3.8-3
							c0,2.7,0,11.6-0.1,13.3c0,1.3-0.1,2.4,0.7,3.5c1.7,2.5,5.2,3.3,8,3.5c2.9,0.1,6.1-0.4,8.5-2c1.1-0.7,1.9-1.8,2.1-3
							c0.1-0.4,0.1-0.7,0.1-1.1c0-1.5,0.1-10.8,0.1-14c0-0.1,0-0.1,0-0.2C81.3,5.7,81.3,5.9,81.3,6z"/>
					</defs>
					<clipPath id="SVGID_2_">
						<use xlink:href="#SVGID_1_"  style="overflow:visible;"/>
					</clipPath>
					<path class="st11" d="M80.9,26.1h-0.8V4.7h0.8V26.1z M79.5,5.5h-0.8v21.4h0.8V5.5z M77.7,6.2h-0.8v21.4h0.8V6.2z M75.9,6.5
						h-0.8v21.4h0.8V6.5z M74.2,6.7h-0.8v21.4h0.8V6.7z M72.3,6.7h-0.8v21.4h0.8V6.7z M70.4,6.5h-0.8v21.4h0.8V6.5z M68.6,6.5h-0.8
						v21.4h0.8V6.5z M66.7,6.1h-0.8v21.4h0.8V6.1z M64.9,5.4H64v21.4h0.8V5.4z M63.3,4.5h-0.8v21.4h0.8V4.5z"/>
				</g>
				<g>
					
						<ellipse transform="matrix(2.835001e-03 -1 1 2.835001e-03 65.7604 77.2213)" class="st1" cx="71.6" cy="5.6" rx="5.6" ry="9.7"/>
				</g>
				<g>
					
						<ellipse transform="matrix(2.835001e-03 -1 1 2.835001e-03 67.7562 75.2311)" class="st0" cx="71.6" cy="3.6" rx="3.6" ry="6.3"/>
				</g>
			</g>
			<g>
				<g>
					<polygon class="st0" points="65.4,19.7 64.5,20.2 64.5,14.4 65.4,13.9 					"/>
					<polygon class="st2" points="64.5,20.2 61.4,18.4 61.4,12.5 64.5,14.4 					"/>
				</g>
				<polygon class="st0" points="64.5,14.4 65.4,13.9 62.3,12 61.4,12.5 				"/>
			</g>
		</g>
	</g>
</g>
</svg>
