<?xml version="1.0" encoding="utf-8"?>
<!-- Generator: Adobe Illustrator 23.0.3, SVG Export Plug-In . SVG Version: 6.00 Build 0)  -->
<svg version="1.1" xmlns="http://www.w3.org/2000/svg" xmlns:xlink="http://www.w3.org/1999/xlink" x="0px" y="0px"
	 viewBox="0 0 105.3 126" style="enable-background:new 0 0 105.3 126;" xml:space="preserve">
<style type="text/css">
	.st0{fill:#BFC9E8;}
	.st1{fill:#9FABD8;}
	.st2{fill:#3458A3;}
	.st3{fill:#264987;}
	.st4{fill-rule:evenodd;clip-rule:evenodd;fill:#9FABD8;}
	.st5{fill-rule:evenodd;clip-rule:evenodd;fill:#BFC9E8;}
	.st6{fill:#E7E6E6;}
	.st7{fill:#F2F1F1;}
	.st8{fill:#FFFFFF;}
	.st9{fill-rule:evenodd;clip-rule:evenodd;}
	.st10{enable-background:new    ;}
	.st11{clip-path:url(#SVGID_2_);fill:#F2F1F1;}
	.st12{fill:#6ABA82;}
	.st13{fill:#31AA59;}
	.st14{fill:#006E32;}
	.st15{fill:#035426;}
	.st16{clip-path:url(#SVGID_4_);fill:#F2F1F1;}
	.st17{fill-rule:evenodd;clip-rule:evenodd;fill:#31AA59;}
	.st18{fill-rule:evenodd;clip-rule:evenodd;fill:#6ABA82;}
	.st19{fill:#CC5261;}
	.st20{fill:#BD1622;}
	.st21{fill:#751518;}
	.st22{fill:#5B0E14;}
	.st23{clip-path:url(#SVGID_6_);fill:#EA6A80;}
	.st24{fill-rule:evenodd;clip-rule:evenodd;fill:#BD1622;}
	.st25{fill-rule:evenodd;clip-rule:evenodd;fill:#CC5261;}
	.st26{fill:#EA6A80;}
	.st27{fill:#D9D9D9;}
	.st28{fill:#B3B4B3;}
	.st29{fill:#868686;}
	.st30{clip-path:url(#SVGID_8_);fill:#F2F1F1;}
	.st31{fill-rule:evenodd;clip-rule:evenodd;fill:#B3B4B3;}
	.st32{fill-rule:evenodd;clip-rule:evenodd;fill:#D9D9D9;}
</style>
<g id="Capa_2">
</g>
<g id="Capa_1">
	<g>
		<g>
			<g>
				<polygon class="st19" points="13.6,78.7 10.6,80.4 7.1,78.7 10.2,76.8 				"/>
				<polygon class="st20" points="13.6,102.7 10.6,104.4 10.6,80.4 13.6,78.7 				"/>
				<polygon class="st21" points="10.6,104.4 7.1,102.6 7.1,78.7 10.6,80.4 				"/>
			</g>
			<polygon class="st20" points="102.1,70.5 102.1,59.9 44.6,93.1 44.6,104 			"/>
			<polygon class="st19" points="44.7,93.2 102.1,59.9 67.7,40.1 10.5,73.3 			"/>
			<path class="st21" d="M44.6,104V93.2L10.5,73.3c0,0,0.1,10.8,0,10.8L44.6,104"/>
		</g>
		<g>
			<g>
				<polygon class="st20" points="93.5,56.1 93.5,54.2 52.4,78.1 52.4,80.1 				"/>
				<polygon class="st22" points="52.4,78.1 93.5,54.2 73.8,42.8 32.8,66.7 				"/>
				<path class="st21" d="M52.4,80.1v-1.9L32.8,66.7c0,0,0,1.9,0,1.9L52.4,80.1"/>
			</g>
			<g>
				<polygon class="st20" points="93.6,53.5 93.6,34.2 71.6,46.2 52.6,66.5 52.6,77.3 				"/>
				<path class="st21" d="M52.6,77.3V66.5L32.8,55.1c0,0,0.1,10.8,0,10.8L52.6,77.3"/>
			</g>
			<g>
				<polygon class="st20" points="93.6,40.5 93.6,34.3 72.4,46.6 72.4,52.9 				"/>
				<polygon class="st19" points="72.4,46.6 93.6,34.3 73.4,22.7 52.4,35 				"/>
				<path class="st19" d="M72.4,46.6L52.4,35c0,0-19.5,20.1-19.5,20.1l19.7,11.4L72.4,46.6z"/>
			</g>
		</g>
		<g>
			<g>
				<g class="st10">
					<path class="st21" d="M82.3,31.3c-1,2.8-5.4,3.8-8.4,4.4c-3.7,0.6-6.7,1.1-9.6-1.4c-3.4-2.9-4.4-1.2-4.4-3.4
						c0,3.2,0-0.4-0.1,1.5c0,1.5-0.1,2.8,0.8,4.1c1.9,2.8,6,3.8,9.3,4c3.3,0.2,7-0.4,9.7-2.4c1.2-0.8,2.2-2,2.4-3.5
						c0.1-0.4,0.1-0.8,0.1-1.2c0-1.7,0.1,1.4,0.1-2.4c0-0.1,0-0.2,0-0.2C82.3,31.1,82.4,31.2,82.3,31.3z"/>
					<g>
						
							<ellipse transform="matrix(2.835001e-03 -1 1 2.835001e-03 40.026 101.9942)" class="st19" cx="71.2" cy="30.9" rx="6.5" ry="11.2"/>
					</g>
				</g>
			</g>
			<g>
				<g class="st10">
					<path class="st21" d="M62.9,28.2c0,2.3,0-0.3-0.1,1.1c0,1.1-0.1,2,0.6,3c1.4,2.1,4.4,2.8,6.9,2.9c2.5,0.1,5.2-0.3,7.2-1.7
						c0.9-0.6,1.6-1.5,1.8-2.6c0.1-0.3,0-0.6,0.1-0.9c0.1-1.2,0.1-1.9,0.1-1.9C79.4,28.3,62.9,29.8,62.9,28.2z"/>
				</g>
			</g>
			<g>
				<g class="st10">
					<path class="st21" d="M82.3,21.8c-1,2.8-5.4,3.8-8.4,4.4c-3.7,0.6-6.7,1.1-9.6-1.4c-3.4-2.9-4.4-1.2-4.4-3.4
						c0,3.2,0-0.4-0.1,1.5c0,1.5-0.1,2.8,0.8,4.1c1.9,2.8,6,3.8,9.3,4c3.3,0.2,7-0.4,9.7-2.4c1.2-0.8,2.2-2,2.4-3.5
						c0.1-0.4,0.1-0.8,0.1-1.2c0-1.7,0.1,1.4,0.1-2.4c0-0.1,0-0.2,0-0.2C82.3,21.5,82.4,21.7,82.3,21.8z"/>
					<g>
						
							<ellipse transform="matrix(2.835001e-03 -1 1 2.835001e-03 49.546 92.5011)" class="st19" cx="71.2" cy="21.4" rx="6.5" ry="11.2"/>
					</g>
				</g>
			</g>
			<g>
				<g class="st10">
					<path class="st21" d="M62.1,29.8C62,30,61.8,30,61.6,30.1c-0.2,0-0.4,0.1-0.6-0.1c-0.2-0.2-0.3-0.1-0.3-0.2c0,0.2,0,0.8,0,0.9
						c0,0.1,0,0.2,0,0.2c0.1,0.2,0.4,0.2,0.5,0.2c0.2,0,0.4,0,0.6-0.1c0.1,0,0.1-0.1,0.1-0.2c0,0,0,0,0-0.1
						C62.1,30.6,62.1,30,62.1,29.8C62.1,29.8,62.1,29.8,62.1,29.8C62.1,29.8,62.1,29.8,62.1,29.8z"/>
					<g>
						
							<ellipse transform="matrix(2.835001e-03 -1 1 2.835001e-03 31.4886 91.1319)" class="st20" cx="61.4" cy="29.8" rx="0.4" ry="0.7"/>
					</g>
				</g>
			</g>
			<g>
				<g class="st10">
					<path class="st21" d="M63.7,32.9c-0.1,0.2-0.3,0.2-0.5,0.3c-0.2,0-0.4,0.1-0.6-0.1c-0.2-0.2-0.3-0.1-0.3-0.2c0,0.2,0,0.8,0,0.9
						c0,0.1,0,0.2,0,0.2c0.1,0.2,0.4,0.2,0.5,0.2c0.2,0,0.4,0,0.6-0.1c0.1,0,0.1-0.1,0.1-0.2c0,0,0,0,0-0.1
						C63.7,33.7,63.7,33.1,63.7,32.9C63.7,32.9,63.7,32.9,63.7,32.9C63.7,32.9,63.7,32.9,63.7,32.9z"/>
					<g>
						
							<ellipse transform="matrix(2.835001e-03 -1 1 2.835001e-03 29.9633 95.8026)" class="st20" cx="63" cy="32.9" rx="0.4" ry="0.7"/>
					</g>
				</g>
			</g>
			<g>
				<g class="st10">
					<path class="st21" d="M67.9,35c-0.1,0.2-0.3,0.2-0.5,0.3c-0.2,0-0.4,0.1-0.6-0.1c-0.2-0.2-0.3-0.1-0.3-0.2c0,0.2,0,0.8,0,0.9
						c0,0.1,0,0.2,0,0.2c0.1,0.2,0.4,0.2,0.5,0.2c0.2,0,0.4,0,0.6-0.1c0.1,0,0.1-0.1,0.1-0.2c0,0,0,0,0-0.1
						C67.9,35.9,67.9,35.2,67.9,35C67.9,35,67.9,35,67.9,35C67.9,35,68,35,67.9,35z"/>
					<g>
						
							<ellipse transform="matrix(2.835001e-03 -1 1 2.835001e-03 32.0862 102.2017)" class="st20" cx="67.3" cy="35" rx="0.4" ry="0.7"/>
					</g>
				</g>
			</g>
			<g>
				<g class="st10">
					<path class="st21" d="M74.1,35.3c-0.1,0.2-0.3,0.2-0.5,0.3c-0.2,0-0.4,0.1-0.6-0.1c-0.2-0.2-0.3-0.1-0.3-0.2c0,0.2,0,0.8,0,0.9
						c0,0.1,0,0.2,0,0.2c0.1,0.2,0.4,0.2,0.5,0.2c0.2,0,0.4,0,0.6-0.1c0.1,0,0.1-0.1,0.1-0.2c0,0,0,0,0-0.1
						C74.1,36.2,74.1,35.5,74.1,35.3C74.1,35.3,74.1,35.3,74.1,35.3C74.1,35.3,74.1,35.3,74.1,35.3z"/>
					<g>
						
							<ellipse transform="matrix(2.835001e-03 -1 1 2.835001e-03 37.9474 108.6646)" class="st20" cx="73.5" cy="35.3" rx="0.4" ry="0.7"/>
					</g>
				</g>
			</g>
			<g>
				<g class="st10">
					<path class="st21" d="M79.3,33.5c-0.1,0.2-0.3,0.2-0.5,0.3c-0.2,0-0.4,0.1-0.6-0.1C78,33.5,78,33.6,78,33.4c0,0.2,0,0.8,0,0.9
						c0,0.1,0,0.2,0,0.2c0.1,0.2,0.4,0.2,0.5,0.2c0.2,0,0.4,0,0.6-0.1c0.1,0,0.1-0.1,0.1-0.2c0,0,0,0,0-0.1
						C79.3,34.3,79.3,33.7,79.3,33.5C79.3,33.4,79.3,33.4,79.3,33.5C79.3,33.4,79.3,33.4,79.3,33.5z"/>
					<g>
						
							<ellipse transform="matrix(2.835001e-03 -1 1 2.835001e-03 44.9814 111.9748)" class="st20" cx="78.6" cy="33.4" rx="0.4" ry="0.7"/>
					</g>
				</g>
			</g>
			<g>
				<g class="st10">
					<path class="st21" d="M81.6,29.9c-0.1,0.2-0.3,0.2-0.5,0.3c-0.2,0-0.4,0.1-0.6-0.1c-0.2-0.2-0.3-0.1-0.3-0.2c0,0.2,0,0.8,0,0.9
						c0,0.1,0,0.2,0,0.2c0.1,0.2,0.4,0.2,0.5,0.2c0.2,0,0.4,0,0.6-0.1c0.1,0,0.1-0.1,0.1-0.2c0,0,0,0,0-0.1
						C81.6,30.8,81.6,30.1,81.6,29.9C81.6,29.9,81.6,29.9,81.6,29.9C81.6,29.9,81.6,29.9,81.6,29.9z"/>
					<g>
						
							<ellipse transform="matrix(2.835001e-03 -1 1 2.835001e-03 50.8535 110.7857)" class="st20" cx="81" cy="29.9" rx="0.4" ry="0.7"/>
					</g>
				</g>
			</g>
			<g>
				<path class="st20" d="M80.8,6c-0.8,2.5-4.7,3.3-7.3,3.8c-3.2,0.6-5.8,0.9-8.3-1.2c-3-2.5-3.8-1.1-3.8-3c0,2.7,0,11.6-0.1,13.3
					c0,1.3-0.1,2.4,0.7,3.5c1.7,2.5,5.2,3.3,8,3.5c2.9,0.1,6.1-0.4,8.5-2c1.1-0.7,1.9-1.8,2.1-3c0.1-0.4,0.1-0.7,0.1-1.1
					c0-1.5,0.1-10.8,0.1-14c0-0.1,0-0.1,0-0.2C80.8,5.7,80.9,5.9,80.8,6z"/>
				<g>
					<defs>
						<path id="SVGID_5_" d="M80.8,6c-0.8,2.5-4.7,3.3-7.3,3.8c-3.2,0.6-5.8,0.9-8.3-1.2c-3-2.5-3.8-1.1-3.8-3
							c0,2.7,0,11.6-0.1,13.3c0,1.3-0.1,2.4,0.7,3.5c1.7,2.5,5.2,3.3,8,3.5c2.9,0.1,6.1-0.4,8.5-2c1.1-0.7,1.9-1.8,2.1-3
							c0.1-0.4,0.1-0.7,0.1-1.1c0-1.5,0.1-10.8,0.1-14c0-0.1,0-0.1,0-0.2C80.8,5.7,80.9,5.9,80.8,6z"/>
					</defs>
					<clipPath id="SVGID_2_">
						<use xlink:href="#SVGID_5_"  style="overflow:visible;"/>
					</clipPath>
					<path style="clip-path:url(#SVGID_2_);fill:#EA6A80;" d="M80.5,26.1h-0.8V4.7h0.8V26.1z M79,5.5h-0.8v21.4H79V5.5z M77.2,6.2
						h-0.8v21.4h0.8V6.2z M75.5,6.5h-0.8v21.4h0.8V6.5z M73.8,6.7h-0.8v21.4h0.8V6.7z M71.8,6.7H71v21.4h0.8V6.7z M69.9,6.5h-0.8
						v21.4h0.8V6.5z M68.2,6.5h-0.8v21.4h0.8V6.5z M66.3,6.1h-0.8v21.4h0.8V6.1z M64.4,5.4h-0.8v21.4h0.8V5.4z M62.8,4.5H62v21.4
						h0.8V4.5z"/>
				</g>
				<g>
					
						<ellipse transform="matrix(2.835001e-03 -1 1 2.835001e-03 65.3106 76.7702)" class="st20" cx="71.1" cy="5.6" rx="5.6" ry="9.7"/>
				</g>
				<g>
					
						<ellipse transform="matrix(2.835001e-03 -1 1 2.835001e-03 67.3064 74.7801)" class="st19" cx="71.1" cy="3.6" rx="3.6" ry="6.3"/>
				</g>
			</g>
			<g>
				<g>
					<polygon class="st19" points="65,19.7 64.1,20.2 64.1,14.4 65,13.9 					"/>
					<polygon class="st21" points="64.1,20.2 61,18.4 61,12.5 64.1,14.4 					"/>
				</g>
				<polygon class="st19" points="64.1,14.4 65,13.9 61.8,12 61,12.5 				"/>
			</g>
		</g>
		<path class="st21" d="M18.5,93.5c-6.3,0-11.4-1.9-11.4-3.4V93c0,1.5,5.1,3.9,11.4,3.9c6.3,0,11.4-2.3,11.4-3.9V90
			C29.9,91.6,24.8,93.5,18.5,93.5z"/>
		<path class="st19" d="M7.1,90c0,1.3,2.3,4.6,11.3,4.6c8.6,0,11.3-2.3,11.3-4.5c0-2.5-5.1-5.5-11.3-5.5S7.1,87.4,7.1,90z"/>
		<g>
			<polygon class="st19" points="51.1,100.3 48.1,102 44.6,100.3 47.7,98.4 			"/>
			<polygon class="st20" points="51.1,124.3 48.1,126 48.1,102 51.1,100.3 			"/>
			<polygon class="st21" points="48.1,126 44.6,124.3 44.6,100.3 48.1,102 			"/>
		</g>
		<g>
			<polygon class="st19" points="105.3,68.7 102.3,70.4 98.8,68.7 101.9,66.8 			"/>
			<polygon class="st20" points="105.3,92.7 102.2,94.5 102.2,70.4 105.3,68.7 			"/>
			<polygon class="st21" points="102.3,94.5 98.8,92.7 98.8,68.7 102.2,70.4 			"/>
		</g>
		<g>
			<g>
				<g>
					<path class="st24" d="M45.3,65.9c-1-3.3-3.8-5.5-6.2-4.7c-0.1,0-0.6,0.2-0.9,0.4l-1.6,0.9L42,73.8l1.7-1
						C45.4,71.5,46.1,68.7,45.3,65.9z"/>
				</g>
				
					<ellipse transform="matrix(0.9593 -0.2824 0.2824 0.9593 -17.6359 13.8724)" class="st21" cx="39.3" cy="68.1" rx="4.6" ry="6.3"/>
			</g>
		</g>
		<g>
			<g>
				<path class="st24" d="M42.8,67.1c-0.8-2.6-2.9-4.2-4.8-3.7c-0.1,0-0.6,0.3-0.6,0.3c0,0,0,0,0,0l-13.6,8.1l4.1,8.7l13.6-8.1
					C42.9,71.4,43.5,69.2,42.8,67.1z"/>
			</g>
			
				<ellipse transform="matrix(0.9593 -0.2824 0.2824 0.9593 -20.4387 10.4032)" class="st21" cx="25.9" cy="76.1" rx="3.5" ry="4.9"/>
		</g>
		<g>
			<g>
				<g>
					<path class="st24" d="M29.9,74.4c-1-3.3-3.8-5.5-6.2-4.7c-0.1,0-0.6,0.2-0.9,0.4L21.2,71l5.3,11.3l1.7-1
						C30,80.1,30.7,77.3,29.9,74.4z"/>
				</g>
				
					<ellipse transform="matrix(0.9593 -0.2824 0.2824 0.9593 -20.6739 9.8621)" class="st21" cx="23.9" cy="76.7" rx="4.6" ry="6.3"/>
			</g>
		</g>
		<g>
			<path class="st21" d="M18.1,70c-4.9,0-8.9-1-8.9-2.2v22.1c0,1.2,4,2.6,8.9,2.6c4.9,0,8.9-1.4,8.9-2.6V67.8C27,69,23,70,18.1,70z"
				/>
			<path class="st21" d="M27,67.7c-0.2-1.2-4.1-2.1-8.9-2.1c-4.8,0-8.7,0.9-8.9,2.1c0,0,0,0.1,0,0.1c0,1.2,4,2.2,8.9,2.2
				C23,70,27,69,27,67.7C27,67.8,27,67.7,27,67.7z"/>
		</g>
		<g>
			<g>
				<path class="st24" d="M15.4,81.6c-0.8-2.6-2.9-4.2-4.8-3.7c-0.1,0-0.6,0.3-0.6,0.3c0,0,0,0,0,0l-4.1,2.5l4.1,8.7l4.1-2.5
					C15.4,85.9,16,83.8,15.4,81.6z"/>
			</g>
			<ellipse transform="matrix(0.9593 -0.2824 0.2824 0.9593 -23.6904 5.6955)" class="st21" cx="7.9" cy="85" rx="3.5" ry="4.9"/>
		</g>
		<g>
			<g>
				<g>
					<path class="st24" d="M12.5,83.5c-1.1-3.9-4.4-6.4-7.2-5.5c-0.2,0-0.7,0.3-1,0.5l-1.9,1.1l6.2,13.1l2-1.2
						C12.7,90.1,13.5,86.8,12.5,83.5z"/>
				</g>
				
					<ellipse transform="matrix(0.9593 -0.2824 0.2824 0.9593 -24.0901 5.0698)" class="st21" cx="5.5" cy="86.1" rx="5.4" ry="7.3"/>
			</g>
			<g>
				<g>
					<path class="st25" d="M5,80.6c-0.1-0.5-0.5-0.8-0.9-0.7c0,0-0.1,0-0.1,0.1l-0.3,0.2l0.8,1.6l0.3-0.2C5,81.4,5.1,81,5,80.6z"/>
				</g>
				<ellipse transform="matrix(0.9593 -0.2824 0.2824 0.9593 -22.6988 4.4367)" class="st20" cx="4" cy="81" rx="0.7" ry="0.9"/>
			</g>
			<g>
				<g>
					<path class="st25" d="M8.9,83.2c-0.1-0.5-0.5-0.8-0.9-0.7c0,0-0.1,0-0.1,0.1l-0.3,0.2l0.8,1.6l0.3-0.2C8.9,84,9,83.6,8.9,83.2z
						"/>
				</g>
				
					<ellipse transform="matrix(0.9593 -0.2824 0.2824 0.9593 -23.2648 5.6273)" class="st20" cx="7.9" cy="83.5" rx="0.7" ry="0.9"/>
			</g>
			<g>
				<g>
					<path class="st25" d="M9.7,88.4c-0.1-0.5-0.5-0.8-0.9-0.7c0,0-0.1,0-0.1,0.1l-0.3,0.2l0.8,1.6l0.3-0.2
						C9.7,89.2,9.8,88.8,9.7,88.4z"/>
				</g>
				<ellipse transform="matrix(0.9593 -0.2824 0.2824 0.9593 -24.704 6.0817)" class="st20" cx="8.7" cy="88.7" rx="0.7" ry="0.9"/>
			</g>
			<g>
				<g>
					<path class="st25" d="M6.7,91.2c-0.1-0.5-0.5-0.8-0.9-0.7c0,0-0.1,0-0.1,0.1l-0.3,0.2l0.8,1.6l0.3-0.2
						C6.8,92,6.9,91.6,6.7,91.2z"/>
				</g>
				
					<ellipse transform="matrix(0.9593 -0.2824 0.2824 0.9593 -25.6182 5.3542)" class="st20" cx="5.8" cy="91.6" rx="0.7" ry="0.9"/>
			</g>
			<g>
				<g>
					<path class="st25" d="M3.2,88.5c-0.1-0.5-0.5-0.8-0.9-0.7c0,0-0.1,0-0.1,0.1l-0.3,0.2l0.8,1.6L3,89.5C3.2,89.4,3.4,89,3.2,88.5
						z"/>
				</g>
				<ellipse transform="matrix(0.9593 -0.2824 0.2824 0.9593 -25.017 4.2585)" class="st20" cx="2.3" cy="88.9" rx="0.7" ry="0.9"/>
			</g>
			<g>
				<g>
					<path class="st25" d="M2.4,83.6c-0.1-0.5-0.5-0.8-0.9-0.7c0,0-0.1,0-0.1,0.1L1,83.2l0.8,1.6l0.3-0.2C2.4,84.4,2.5,84,2.4,83.6z
						"/>
				</g>
				<ellipse transform="matrix(0.9593 -0.2824 0.2824 0.9593 -23.6601 3.8132)" class="st20" cx="1.4" cy="84" rx="0.7" ry="0.9"/>
			</g>
		</g>
		<g>
			<g>
				<path class="st6" d="M12.9,73c-0.4,0-0.7-0.1-0.7-0.2v1.9c0,0.1,0.3,0.2,0.7,0.2c0.4,0,0.7-0.1,0.7-0.2v-1.9
					C13.7,72.9,13.3,73,12.9,73z"/>
				<path class="st26" d="M13.7,72.8c0-0.1-0.3-0.2-0.7-0.2c-0.4,0-0.7,0.1-0.7,0.2c0,0,0,0,0,0c0,0.1,0.3,0.2,0.7,0.2
					C13.3,73,13.7,72.9,13.7,72.8C13.7,72.8,13.7,72.8,13.7,72.8z"/>
			</g>
			<g>
				<path class="st6" d="M6.2,71.3c-0.4,0-0.7-0.1-0.7-0.2V73c0,0.1,0.3,0.2,0.7,0.2c0.4,0,0.7-0.1,0.7-0.2v-1.9
					C6.9,71.2,6.6,71.3,6.2,71.3z"/>
				<path class="st26" d="M6.9,71.1C6.9,71,6.6,71,6.2,71c-0.4,0-0.7,0.1-0.7,0.2c0,0,0,0,0,0c0,0.1,0.3,0.2,0.7,0.2
					C6.6,71.3,6.9,71.2,6.9,71.1C6.9,71.1,6.9,71.1,6.9,71.1z"/>
			</g>
			<g>
				<path class="st6" d="M22.4,73.1c-0.4,0-0.7-0.1-0.7-0.2v1.9c0,0.1,0.3,0.2,0.7,0.2c0.4,0,0.7-0.1,0.7-0.2v-1.9
					C23.1,73,22.8,73.1,22.4,73.1z"/>
				<path class="st26" d="M23.1,72.9c0-0.1-0.3-0.2-0.7-0.2c-0.4,0-0.7,0.1-0.7,0.2c0,0,0,0,0,0c0,0.1,0.3,0.2,0.7,0.2
					C22.8,73.1,23.1,73,23.1,72.9C23.1,72.9,23.1,72.9,23.1,72.9z"/>
			</g>
			<g>
				<path class="st6" d="M28.9,71c-0.4,0-0.7-0.1-0.7-0.2v1.9c0,0.1,0.3,0.2,0.7,0.2c0.4,0,0.7-0.1,0.7-0.2v-1.9
					C29.6,70.9,29.3,71,28.9,71z"/>
				<path class="st26" d="M29.6,70.8c0-0.1-0.3-0.2-0.7-0.2c-0.4,0-0.7,0.1-0.7,0.2c0,0,0,0,0,0c0,0.1,0.3,0.2,0.7,0.2
					C29.3,71,29.6,70.9,29.6,70.8C29.6,70.8,29.6,70.8,29.6,70.8z"/>
			</g>
			<path class="st21" d="M17.5,70.2c-7.2,0-13.1-2.2-13.1-3.9v3.4c0,1.8,5.9,4.5,13.1,4.5c7.2,0,13.1-2.7,13.1-4.5v-3.4
				C30.7,68,24.8,70.2,17.5,70.2z"/>
			<path class="st8" d="M4.4,66.2c0,1.5,2.7,5.3,13.1,5.3c9.9,0,13.1-2.7,13.1-5.2c0-2.9-5.9-6.3-13.1-6.3S4.4,63.2,4.4,66.2z"/>
			<path class="st6" d="M17.5,43.5c-4.7,0-8.5-0.9-8.5-2.1V67c0,1.2,4.1,2.7,8.8,2.7c4.7,0,8.3-1.6,8.3-2.7V41.4
				C26,42.5,22.2,43.5,17.5,43.5z"/>
			<g>
				<path class="st8" d="M7.5,65.1C7.5,65,7.2,65,6.8,65c-0.4,0-0.7,0.1-0.7,0.2c0,0,0,0,0,0c0,0.1,0.3,0.2,0.7,0.2
					C7.2,65.3,7.5,65.2,7.5,65.1C7.5,65.1,7.5,65.1,7.5,65.1z"/>
				<g>
					<path class="st6" d="M6.8,65.3c-0.4,0-0.7-0.1-0.7-0.2v1.8c0,0.1,0.3,0.2,0.7,0.2c0.4,0,0.7-0.1,0.7-0.2v-1.8
						C7.5,65.2,7.2,65.3,6.8,65.3z"/>
					<path class="st6" d="M13.1,68.4c-0.4,0-0.7-0.1-0.7-0.2V70c0,0.1,0.3,0.2,0.7,0.2c0.4,0,0.7-0.1,0.7-0.2v-1.8
						C13.7,68.3,13.4,68.4,13.1,68.4z"/>
					<path class="st8" d="M13.7,68.2c0-0.1-0.3-0.2-0.7-0.2c-0.4,0-0.7,0.1-0.7,0.2c0,0,0,0,0,0c0,0.1,0.3,0.2,0.7,0.2
						C13.4,68.4,13.7,68.3,13.7,68.2C13.7,68.2,13.7,68.2,13.7,68.2z"/>
					<path class="st6" d="M22,68.5c-0.4,0-0.7-0.1-0.7-0.2v1.8c0,0.1,0.3,0.2,0.7,0.2s0.7-0.1,0.7-0.2v-1.8
						C22.7,68.4,22.4,68.5,22,68.5z"/>
					<path class="st8" d="M22.7,68.3c0-0.1-0.3-0.2-0.7-0.2s-0.7,0.1-0.7,0.2c0,0,0,0,0,0c0,0.1,0.3,0.2,0.7,0.2
						S22.7,68.4,22.7,68.3C22.7,68.3,22.7,68.3,22.7,68.3z"/>
					<path class="st6" d="M28.2,65.2c-0.4,0-0.7-0.1-0.7-0.2v1.8c0,0.1,0.3,0.2,0.7,0.2c0.4,0,0.7-0.1,0.7-0.2v-1.8
						C28.9,65.1,28.6,65.2,28.2,65.2z"/>
				</g>
				<path class="st8" d="M28.9,65c0-0.1-0.3-0.2-0.7-0.2S27.6,65,27.6,65c0,0,0,0,0,0c0,0.1,0.3,0.2,0.7,0.2
					C28.6,65.2,28.9,65.1,28.9,65C28.9,65.1,28.9,65.1,28.9,65z"/>
			</g>
			<path class="st6" d="M17.5,42.6c-7.2,0-13.1-2.2-13.1-3.9V42c0,1.8,5.9,4.5,13.1,4.5c7.2,0,13.1-2.7,13.1-4.5v-3.4
				C30.7,40.4,24.8,42.6,17.5,42.6z"/>
			<path class="st8" d="M4.4,38.6c0,1.5,2.7,5.3,13.1,5.3c9.9,0,13.1-2.7,13.1-5.2c0-2.9-5.9-6.3-13.1-6.3S4.4,35.5,4.4,38.6z"/>
		</g>
		<g>
			<g>
				<g>
					<path class="st9" d="M50.7,16.6c-0.4-1.4-1.6-2.3-2.7-2c-0.1,0-0.4,0.2-0.4,0.2c0,0,0,0,0,0l-13.5,7.8l2.3,4.8L50,19.6
						C50.8,19.1,51.1,17.9,50.7,16.6z"/>
				</g>
			</g>
			<g>
				<g>
					<g>
						<path class="st9" d="M39.5,23.5c-0.7-2.3-2.6-3.7-4.2-3.3c-0.1,0-0.4,0.2-0.6,0.3l-1.1,0.7l3.6,7.7l1.2-0.7
							C39.5,27.4,40,25.5,39.5,23.5z"/>
					</g>
					<ellipse transform="matrix(0.9593 -0.2824 0.2824 0.9593 -5.6371 10.9963)" cx="35.3" cy="25.1" rx="3.1" ry="4.3"/>
				</g>
			</g>
			<g>
				<g>
					<g>
						<path class="st24" d="M38,24.3c-0.6-2.1-2.4-3.4-3.9-3c-0.1,0-0.4,0.1-0.5,0.2l-1.4,0.8l3.3,7.1l1.5-0.9
							C38.1,27.8,38.6,26.1,38,24.3z"/>
					</g>
					
						<ellipse transform="matrix(0.9593 -0.2824 0.2824 0.9593 -5.9339 10.6206)" class="st21" cx="33.9" cy="25.9" rx="2.9" ry="3.9"/>
				</g>
			</g>
			<g>
				<g>
					<path class="st24" d="M35.2,25.7c-0.4-1.4-1.5-2.2-2.5-1.9c-0.1,0-0.3,0.1-0.3,0.1c0,0,0,0,0,0l-10.9,6.4l2.2,4.6l10.9-6.5
						C35.3,27.9,35.5,26.8,35.2,25.7z"/>
				</g>
				
					<ellipse transform="matrix(0.9593 -0.2824 0.2824 0.9593 -8.2881 7.6941)" class="st21" cx="22.6" cy="32.6" rx="1.9" ry="2.6"/>
			</g>
		</g>
		<g>
			<path class="st21" d="M7.6,37.7c0,1.3,2,4.4,10,4.4c7.6,0,10-3.1,10-4.4v-4.8c0,0,0-0.1,0-0.1c0-2.9-4.5-2.2-10-2.2
				s-10-0.7-10,2.2c0,0,0,0.1,0,0.1V37.7z"/>
			<path class="st19" d="M7.6,32.7c0,1.3,2,4.4,10,4.4c7.6,0,10-3.1,10-4.4v0.2c0,0,0-0.1,0-0.1c0-2.9-4.5-5.2-10-5.2
				S7.5,29.9,7.6,32.7c0,0.1,0,0.2,0,0.2V32.7z"/>
		</g>
		<g>
			<g>
				<g>
					<path class="st24" d="M10.4,37.3C10,36.1,8.9,35.2,8,35.5c-0.1,0-0.2,0.1-0.3,0.1l-0.9,0.5l2,4.3l0.9-0.5
						C10.4,39.5,10.7,38.4,10.4,37.3z"/>
				</g>
				
					<ellipse transform="matrix(0.9593 -0.2824 0.2824 0.9593 -10.4964 3.7723)" class="st21" cx="7.8" cy="38.3" rx="1.7" ry="2.4"/>
			</g>
			<g>
				<g>
					<path class="st25" d="M7.7,36.5c0-0.2-0.2-0.3-0.3-0.2c0,0,0,0,0,0l-0.1,0.1l0.3,0.5l0.1-0.1C7.7,36.8,7.7,36.6,7.7,36.5z"/>
				</g>
				
					<ellipse transform="matrix(0.9593 -0.2824 0.2824 0.9593 -10.0438 3.5664)" class="st20" cx="7.4" cy="36.6" rx="0.2" ry="0.3"/>
			</g>
			<g>
				<g>
					<path class="st25" d="M8.9,37.3c0-0.2-0.2-0.3-0.3-0.2c0,0,0,0,0,0l-0.1,0.1l0.3,0.5l0.1-0.1C8.9,37.6,9,37.5,8.9,37.3z"/>
				</g>
				<ellipse transform="matrix(0.9593 -0.2824 0.2824 0.9593 -10.228 3.9537)" class="st20" cx="8.6" cy="37.5" rx="0.2" ry="0.3"/>
			</g>
			<g>
				<g>
					<path class="st25" d="M9.2,39c0-0.2-0.2-0.3-0.3-0.2c0,0,0,0,0,0l-0.1,0.1L9,39.4l0.1-0.1C9.2,39.3,9.2,39.2,9.2,39z"/>
				</g>
				
					<ellipse transform="matrix(0.9593 -0.2824 0.2824 0.9593 -10.6961 4.1015)" class="st20" cx="8.9" cy="39.2" rx="0.2" ry="0.3"/>
			</g>
			<g>
				<g>
					<path class="st25" d="M8.2,40c0-0.2-0.2-0.3-0.3-0.2c0,0,0,0,0,0l-0.1,0.1L8,40.3l0.1-0.1C8.2,40.2,8.3,40.1,8.2,40z"/>
				</g>
				
					<ellipse transform="matrix(0.9593 -0.2824 0.2824 0.9593 -10.9935 3.8648)" class="st20" cx="7.9" cy="40.1" rx="0.2" ry="0.3"/>
			</g>
			<g>
				<g>
					<path class="st25" d="M7.1,39.1c0-0.2-0.2-0.3-0.3-0.2c0,0,0,0,0,0l-0.1,0.1l0.3,0.5L7,39.4C7.1,39.4,7.1,39.2,7.1,39.1z"/>
				</g>
				
					<ellipse transform="matrix(0.9593 -0.2824 0.2824 0.9593 -10.7979 3.5084)" class="st20" cx="6.8" cy="39.2" rx="0.2" ry="0.3"/>
			</g>
			<g>
				<g>
					<path class="st25" d="M6.8,37.5c0-0.2-0.2-0.3-0.3-0.2c0,0,0,0,0,0l-0.1,0.1l0.3,0.5l0.1-0.1C6.8,37.8,6.8,37.6,6.8,37.5z"/>
				</g>
				
					<ellipse transform="matrix(0.9593 -0.2824 0.2824 0.9593 -10.3565 3.3636)" class="st20" cx="6.5" cy="37.6" rx="0.2" ry="0.3"/>
			</g>
		</g>
	</g>
</g>
</svg>
