<?xml version="1.0" encoding="utf-8"?>
<!-- Generator: Adobe Illustrator 23.0.3, SVG Export Plug-In . SVG Version: 6.00 Build 0)  -->
<svg version="1.1" xmlns="http://www.w3.org/2000/svg" xmlns:xlink="http://www.w3.org/1999/xlink" x="0px" y="0px"
	 viewBox="0 0 103.5 125.7" style="enable-background:new 0 0 103.5 125.7;" xml:space="preserve">
<style type="text/css">
	.st0{fill:#BFC9E8;}
	.st1{fill:#9FABD8;}
	.st2{fill:#3458A3;}
	.st3{fill:#264987;}
	.st4{fill-rule:evenodd;clip-rule:evenodd;fill:#9FABD8;}
	.st5{fill-rule:evenodd;clip-rule:evenodd;fill:#BFC9E8;}
	.st6{fill:#E7E6E6;}
	.st7{fill:#F2F1F1;}
	.st8{fill:#FFFFFF;}
	.st9{fill-rule:evenodd;clip-rule:evenodd;}
	.st10{enable-background:new    ;}
	.st11{clip-path:url(#SVGID_2_);fill:#F2F1F1;}
	.st12{fill:#6ABA82;}
	.st13{fill:#31AA59;}
	.st14{fill:#006E32;}
	.st15{fill:#035426;}
	.st16{clip-path:url(#SVGID_4_);fill:#F2F1F1;}
	.st17{fill-rule:evenodd;clip-rule:evenodd;fill:#31AA59;}
	.st18{fill-rule:evenodd;clip-rule:evenodd;fill:#6ABA82;}
	.st19{fill:#CC5261;}
	.st20{fill:#BD1622;}
	.st21{fill:#751518;}
	.st22{fill:#5B0E14;}
	.st23{clip-path:url(#SVGID_6_);fill:#EA6A80;}
	.st24{fill-rule:evenodd;clip-rule:evenodd;fill:#BD1622;}
	.st25{fill-rule:evenodd;clip-rule:evenodd;fill:#CC5261;}
	.st26{fill:#EA6A80;}
	.st27{fill:#D9D9D9;}
	.st28{fill:#B3B4B3;}
	.st29{fill:#868686;}
	.st30{clip-path:url(#SVGID_8_);fill:#F2F1F1;}
	.st31{fill-rule:evenodd;clip-rule:evenodd;fill:#B3B4B3;}
	.st32{fill-rule:evenodd;clip-rule:evenodd;fill:#D9D9D9;}
</style>
<g id="Capa_2">
</g>
<g id="Capa_1">
	<g>
		<g>
			<g>
				<polygon class="st27" points="11.8,78.3 8.7,80.1 5.3,78.3 8.4,76.4 				"/>
				<polygon class="st28" points="11.8,102.3 8.7,104.1 8.7,80 11.8,78.3 				"/>
				<polygon class="st29" points="8.7,104.1 5.2,102.3 5.3,78.3 8.7,80 				"/>
			</g>
			<polygon class="st28" points="100.3,70.2 100.3,59.6 42.8,92.8 42.8,103.6 			"/>
			<polygon class="st27" points="42.9,92.8 100.3,59.6 65.9,39.7 8.7,73 			"/>
			<path class="st29" d="M42.8,103.6V92.8L8.7,73c0,0,0.1,10.8,0,10.8L42.8,103.6"/>
		</g>
		<g>
			<g>
				<polygon class="st28" points="92.7,56.1 92.7,54.2 51.6,78.1 51.6,80.1 				"/>
				<polygon class="st29" points="51.6,78.1 92.7,54.2 73,42.8 32,66.7 				"/>
				<path class="st29" d="M51.6,80.1v-1.9L32,66.7c0,0,0,1.9,0,1.9L51.6,80.1"/>
			</g>
			<g>
				<polygon class="st28" points="92.8,53.5 92.8,34.2 70.8,46.2 51.8,66.5 51.8,77.3 				"/>
				<path class="st29" d="M51.8,77.3V66.5L32.1,55.1c0,0,0.1,10.8,0,10.8L51.8,77.3"/>
			</g>
			<g>
				<polygon class="st28" points="92.8,40.5 92.8,34.3 71.6,46.6 71.6,52.9 				"/>
				<polygon class="st27" points="71.7,46.6 92.8,34.3 72.6,22.7 51.6,35 				"/>
				<path class="st27" d="M71.6,46.6L51.6,35c0,0-19.5,20.1-19.5,20.1l19.7,11.4L71.6,46.6z"/>
			</g>
		</g>
		<g>
			<g>
				<g class="st10">
					<path class="st29" d="M81.5,31.3c-1,2.8-5.4,3.8-8.4,4.4c-3.7,0.6-6.7,1.1-9.6-1.4c-3.4-2.9-4.4-1.2-4.4-3.4
						c0,3.2,0-0.4-0.1,1.5c0,1.5-0.1,2.8,0.8,4.1c1.9,2.8,6,3.8,9.3,4c3.3,0.2,7-0.4,9.7-2.4c1.2-0.8,2.2-2,2.4-3.5
						c0.1-0.4,0.1-0.8,0.1-1.2c0-1.7,0.1,1.4,0.1-2.4c0-0.1,0-0.2,0-0.2C81.5,31.1,81.6,31.2,81.5,31.3z"/>
					<g>
						
							<ellipse transform="matrix(2.835001e-03 -1 1 2.835001e-03 39.2454 101.2113)" class="st27" cx="70.4" cy="30.9" rx="6.5" ry="11.2"/>
					</g>
				</g>
			</g>
			<g>
				<g class="st10">
					<path class="st29" d="M62.1,28.2c0,2.3,0-0.3-0.1,1.1c0,1.1-0.1,2,0.6,3c1.4,2.1,4.4,2.8,6.9,2.9c2.5,0.1,5.2-0.3,7.2-1.7
						c0.9-0.6,1.6-1.5,1.8-2.6c0.1-0.3,0-0.6,0.1-0.9c0.1-1.2,0.1-1.9,0.1-1.9C78.6,28.3,62.1,29.8,62.1,28.2z"/>
				</g>
			</g>
			<g>
				<g class="st10">
					<path class="st29" d="M81.5,21.8c-1,2.8-5.4,3.8-8.4,4.4c-3.7,0.6-6.7,1.1-9.6-1.4c-3.4-2.9-4.4-1.2-4.4-3.4
						c0,3.2,0-0.4-0.1,1.5c0,1.5-0.1,2.8,0.8,4.1c1.9,2.8,6,3.8,9.3,4c3.3,0.2,7-0.4,9.7-2.4c1.2-0.8,2.2-2,2.4-3.5
						c0.1-0.4,0.1-0.8,0.1-1.2c0-1.7,0.1,1.4,0.1-2.4c0-0.1,0-0.2,0-0.2C81.5,21.5,81.6,21.7,81.5,21.8z"/>
					<g>
						
							<ellipse transform="matrix(2.835001e-03 -1 1 2.835001e-03 48.7654 91.7183)" class="st27" cx="70.4" cy="21.4" rx="6.5" ry="11.2"/>
					</g>
				</g>
			</g>
			<g>
				<g class="st10">
					<path class="st29" d="M61.3,29.8C61.3,30,61,30,60.8,30.1c-0.2,0-0.4,0.1-0.6-0.1c-0.2-0.2-0.3-0.1-0.3-0.2c0,0.2,0,0.8,0,0.9
						c0,0.1,0,0.2,0,0.2c0.1,0.2,0.4,0.2,0.5,0.2c0.2,0,0.4,0,0.6-0.1c0.1,0,0.1-0.1,0.1-0.2c0,0,0,0,0-0.1
						C61.3,30.6,61.3,30,61.3,29.8C61.3,29.8,61.3,29.8,61.3,29.8C61.3,29.8,61.3,29.8,61.3,29.8z"/>
					<g>
						
							<ellipse transform="matrix(2.835001e-03 -1 1 2.835001e-03 30.7079 90.349)" class="st28" cx="60.7" cy="29.8" rx="0.4" ry="0.7"/>
					</g>
				</g>
			</g>
			<g>
				<g class="st10">
					<path class="st29" d="M62.9,32.9c-0.1,0.2-0.3,0.2-0.5,0.3c-0.2,0-0.4,0.1-0.6-0.1c-0.2-0.2-0.3-0.1-0.3-0.2c0,0.2,0,0.8,0,0.9
						c0,0.1,0,0.2,0,0.2c0.1,0.2,0.4,0.2,0.5,0.2c0.2,0,0.4,0,0.6-0.1c0.1,0,0.1-0.1,0.1-0.2c0,0,0,0,0-0.1
						C62.9,33.7,62.9,33.1,62.9,32.9C62.9,32.9,62.9,32.9,62.9,32.9C62.9,32.9,62.9,32.9,62.9,32.9z"/>
					<g>
						
							<ellipse transform="matrix(2.835001e-03 -1 1 2.835001e-03 29.1826 95.0198)" class="st28" cx="62.2" cy="32.9" rx="0.4" ry="0.7"/>
					</g>
				</g>
			</g>
			<g>
				<g class="st10">
					<path class="st29" d="M67.2,35c-0.1,0.2-0.3,0.2-0.5,0.3c-0.2,0-0.4,0.1-0.6-0.1c-0.2-0.2-0.3-0.1-0.3-0.2c0,0.2,0,0.8,0,0.9
						c0,0.1,0,0.2,0,0.2c0.1,0.2,0.4,0.2,0.5,0.2c0.2,0,0.4,0,0.6-0.1c0.1,0,0.1-0.1,0.1-0.2c0,0,0,0,0-0.1
						C67.2,35.9,67.2,35.2,67.2,35C67.2,35,67.2,35,67.2,35C67.2,35,67.2,35,67.2,35z"/>
					<g>
						
							<ellipse transform="matrix(2.835001e-03 -1 1 2.835001e-03 31.3056 101.4189)" class="st28" cx="66.5" cy="35" rx="0.4" ry="0.7"/>
					</g>
				</g>
			</g>
			<g>
				<g class="st10">
					<path class="st29" d="M73.3,35.3c-0.1,0.2-0.3,0.2-0.5,0.3c-0.2,0-0.4,0.1-0.6-0.1c-0.2-0.2-0.3-0.1-0.3-0.2c0,0.2,0,0.8,0,0.9
						c0,0.1,0,0.2,0,0.2c0.1,0.2,0.4,0.2,0.5,0.2c0.2,0,0.4,0,0.6-0.1c0.1,0,0.1-0.1,0.1-0.2c0,0,0,0,0-0.1
						C73.3,36.2,73.3,35.5,73.3,35.3C73.3,35.3,73.3,35.3,73.3,35.3C73.3,35.3,73.3,35.3,73.3,35.3z"/>
					<g>
						
							<ellipse transform="matrix(2.835001e-03 -1 1 2.835001e-03 37.1668 107.8817)" class="st28" cx="72.7" cy="35.3" rx="0.4" ry="0.7"/>
					</g>
				</g>
			</g>
			<g>
				<g class="st10">
					<path class="st29" d="M78.5,33.5c-0.1,0.2-0.3,0.2-0.5,0.3c-0.2,0-0.4,0.1-0.6-0.1c-0.2-0.2-0.3-0.1-0.3-0.2c0,0.2,0,0.8,0,0.9
						c0,0.1,0,0.2,0,0.2c0.1,0.2,0.4,0.2,0.5,0.2c0.2,0,0.4,0,0.6-0.1c0.1,0,0.1-0.1,0.1-0.2c0,0,0,0,0-0.1
						C78.5,34.3,78.5,33.7,78.5,33.5C78.5,33.4,78.5,33.4,78.5,33.5C78.5,33.4,78.5,33.4,78.5,33.5z"/>
					<g>
						
							<ellipse transform="matrix(2.835001e-03 -1 1 2.835001e-03 44.2007 111.1919)" class="st28" cx="77.9" cy="33.4" rx="0.4" ry="0.7"/>
					</g>
				</g>
			</g>
			<g>
				<g class="st10">
					<path class="st29" d="M80.9,29.9c-0.1,0.2-0.3,0.2-0.5,0.3c-0.2,0-0.4,0.1-0.6-0.1c-0.2-0.2-0.3-0.1-0.3-0.2c0,0.2,0,0.8,0,0.9
						c0,0.1,0,0.2,0,0.2c0.1,0.2,0.4,0.2,0.5,0.2c0.2,0,0.4,0,0.6-0.1c0.1,0,0.1-0.1,0.1-0.2c0,0,0,0,0-0.1
						C80.8,30.8,80.9,30.1,80.9,29.9C80.9,29.9,80.9,29.9,80.9,29.9C80.9,29.9,80.9,29.9,80.9,29.9z"/>
					<g>
						
							<ellipse transform="matrix(2.835001e-03 -1 1 2.835001e-03 50.0728 110.0028)" class="st28" cx="80.2" cy="29.9" rx="0.4" ry="0.7"/>
					</g>
				</g>
			</g>
			<g>
				<path class="st28" d="M80,6c-0.8,2.5-4.7,3.3-7.3,3.8c-3.2,0.6-5.8,0.9-8.3-1.2c-3-2.5-3.8-1.1-3.8-3c0,2.7,0,11.6-0.1,13.3
					c0,1.3-0.1,2.4,0.7,3.5c1.7,2.5,5.2,3.3,8,3.5c2.9,0.1,6.1-0.4,8.5-2c1.1-0.7,1.9-1.8,2.1-3c0.1-0.4,0.1-0.7,0.1-1.1
					c0-1.5,0.1-10.8,0.1-14c0-0.1,0-0.1,0-0.2C80,5.7,80.1,5.9,80,6z"/>
				<g>
					<defs>
						<path id="SVGID_7_" d="M80,6c-0.8,2.5-4.7,3.3-7.3,3.8c-3.2,0.6-5.8,0.9-8.3-1.2c-3-2.5-3.8-1.1-3.8-3c0,2.7,0,11.6-0.1,13.3
							c0,1.3-0.1,2.4,0.7,3.5c1.7,2.5,5.2,3.3,8,3.5c2.9,0.1,6.1-0.4,8.5-2c1.1-0.7,1.9-1.8,2.1-3c0.1-0.4,0.1-0.7,0.1-1.1
							c0-1.5,0.1-10.8,0.1-14c0-0.1,0-0.1,0-0.2C80,5.7,80.1,5.9,80,6z"/>
					</defs>
					<clipPath id="SVGID_2_">
						<use xlink:href="#SVGID_7_"  style="overflow:visible;"/>
					</clipPath>
					<path class="st11" d="M79.7,26.1h-0.8V4.7h0.8V26.1z M78.2,5.5h-0.8v21.4h0.8V5.5z M76.5,6.2h-0.8v21.4h0.8V6.2z M74.7,6.5
						h-0.8v21.4h0.8V6.5z M73,6.7h-0.8v21.4H73V6.7z M71,6.7h-0.8v21.4H71V6.7z M69.1,6.5h-0.8v21.4h0.8V6.5z M67.4,6.5h-0.8v21.4
						h0.8V6.5z M65.5,6.1h-0.8v21.4h0.8V6.1z M63.6,5.4h-0.8v21.4h0.8V5.4z M62.1,4.5h-0.8v21.4h0.8V4.5z"/>
				</g>
				<g>
					
						<ellipse transform="matrix(2.835001e-03 -1 1 2.835001e-03 64.53 75.9874)" class="st28" cx="70.4" cy="5.6" rx="5.6" ry="9.7"/>
				</g>
				<g>
					
						<ellipse transform="matrix(2.835001e-03 -1 1 2.835001e-03 66.5258 73.9972)" class="st27" cx="70.4" cy="3.6" rx="3.6" ry="6.3"/>
				</g>
			</g>
			<g>
				<g>
					<polygon class="st27" points="64.2,19.7 63.3,20.2 63.3,14.4 64.2,13.9 					"/>
					<polygon class="st29" points="63.3,20.2 60.2,18.4 60.2,12.5 63.3,14.4 					"/>
				</g>
				<polygon class="st27" points="63.3,14.4 64.2,13.9 61.1,12 60.2,12.5 				"/>
			</g>
		</g>
		<path class="st29" d="M18.5,94.1c-6.3,0-11.4-1.9-11.4-3.4v2.9c0,1.5,5.1,3.9,11.4,3.9c6.3,0,11.4-2.3,11.4-3.9v-2.9
			C29.9,92.3,24.8,94.1,18.5,94.1z"/>
		<path class="st27" d="M7.1,90.7c0,1.3,2.3,4.6,11.3,4.6c8.6,0,11.3-2.3,11.3-4.5c0-2.5-5.1-5.5-11.3-5.5S7.1,88,7.1,90.7z"/>
		<g>
			<polygon class="st27" points="49.3,100 46.3,101.7 42.8,99.9 45.9,98.1 			"/>
			<polygon class="st28" points="49.3,124 46.3,125.7 46.3,101.7 49.3,99.9 			"/>
			<polygon class="st29" points="46.3,125.7 42.8,123.9 42.8,99.9 46.3,101.7 			"/>
		</g>
		<g>
			<polygon class="st27" points="103.4,68.4 100.4,70.1 96.9,68.4 100,66.5 			"/>
			<polygon class="st28" points="103.4,92.4 100.4,94.1 100.4,70.1 103.5,68.4 			"/>
			<polygon class="st29" points="100.4,94.1 96.9,92.4 96.9,68.4 100.4,70.1 			"/>
		</g>
		<g>
			<g>
				<g>
					<path class="st31" d="M45.3,66.6c-1-3.3-3.8-5.5-6.2-4.7c-0.1,0-0.6,0.2-0.9,0.4l-1.6,0.9L42,74.4l1.7-1
						C45.4,72.2,46.1,69.4,45.3,66.6z"/>
				</g>
				
					<ellipse transform="matrix(0.9593 -0.2824 0.2824 0.9593 -17.8233 13.8994)" class="st29" cx="39.3" cy="68.8" rx="4.6" ry="6.3"/>
			</g>
		</g>
		<g>
			<g>
				<path class="st31" d="M42.8,67.7c-0.8-2.6-2.9-4.2-4.8-3.7c-0.1,0-0.6,0.3-0.6,0.3c0,0,0,0,0,0l-13.6,8.1l4.1,8.7L41.6,73
					C42.9,72.1,43.5,69.9,42.8,67.7z"/>
			</g>
			
				<ellipse transform="matrix(0.9593 -0.2824 0.2824 0.9593 -20.6261 10.4302)" class="st29" cx="25.9" cy="76.8" rx="3.5" ry="4.9"/>
		</g>
		<g>
			<g>
				<g>
					<path class="st31" d="M29.9,75.1c-1-3.3-3.8-5.5-6.2-4.7c-0.1,0-0.6,0.2-0.9,0.4l-1.6,0.9L26.5,83l1.7-1
						C30,80.7,30.7,77.9,29.9,75.1z"/>
				</g>
				
					<ellipse transform="matrix(0.9593 -0.2824 0.2824 0.9593 -20.8613 9.8892)" class="st29" cx="23.9" cy="77.3" rx="4.6" ry="6.3"/>
			</g>
		</g>
		<g>
			<path class="st29" d="M18.1,70.6c-4.9,0-8.9-1-8.9-2.2v22.1c0,1.2,4,2.6,8.9,2.6c4.9,0,8.9-1.4,8.9-2.6V68.4
				C27,69.7,23,70.6,18.1,70.6z"/>
			<path class="st29" d="M27,68.4c-0.2-1.2-4.1-2.1-8.9-2.1c-4.8,0-8.7,0.9-8.9,2.1c0,0,0,0.1,0,0.1c0,1.2,4,2.2,8.9,2.2
				C23,70.6,27,69.7,27,68.4C27,68.4,27,68.4,27,68.4z"/>
		</g>
		<g>
			<g>
				<path class="st31" d="M15.4,82.3c-0.8-2.6-2.9-4.2-4.8-3.7c-0.1,0-0.6,0.3-0.6,0.3c0,0,0,0,0,0l-4.1,2.5l4.1,8.7l4.1-2.5
					C15.4,86.6,16,84.4,15.4,82.3z"/>
			</g>
			<ellipse transform="matrix(0.9593 -0.2824 0.2824 0.9593 -23.8778 5.7225)" class="st29" cx="7.9" cy="85.7" rx="3.5" ry="4.9"/>
		</g>
		<g>
			<g>
				<g>
					<path class="st31" d="M12.5,84.2c-1.1-3.9-4.4-6.4-7.2-5.5c-0.2,0-0.7,0.3-1,0.5l-1.9,1.1l6.2,13.1l2-1.2
						C12.7,90.8,13.5,87.5,12.5,84.2z"/>
				</g>
				
					<ellipse transform="matrix(0.9593 -0.2824 0.2824 0.9593 -24.2774 5.0968)" class="st29" cx="5.5" cy="86.8" rx="5.4" ry="7.3"/>
			</g>
			<g>
				<g>
					<path class="st32" d="M5,81.3c-0.1-0.5-0.5-0.8-0.9-0.7c0,0-0.1,0-0.1,0.1l-0.3,0.2l0.8,1.6l0.3-0.2C5,82.1,5.1,81.7,5,81.3z"
						/>
				</g>
				<ellipse transform="matrix(0.9593 -0.2824 0.2824 0.9593 -22.8861 4.4637)" class="st28" cx="4" cy="81.6" rx="0.7" ry="0.9"/>
			</g>
			<g>
				<g>
					<path class="st32" d="M8.9,83.8C8.7,83.3,8.3,83,8,83.1c0,0-0.1,0-0.1,0.1l-0.3,0.2L8.3,85l0.3-0.2C8.9,84.6,9,84.2,8.9,83.8z"
						/>
				</g>
				
					<ellipse transform="matrix(0.9593 -0.2824 0.2824 0.9593 -23.4522 5.6543)" class="st28" cx="7.9" cy="84.2" rx="0.7" ry="0.9"/>
			</g>
			<g>
				<g>
					<path class="st32" d="M9.7,89c-0.1-0.5-0.5-0.8-0.9-0.7c0,0-0.1,0-0.1,0.1l-0.3,0.2l0.8,1.6L9.5,90C9.7,89.9,9.8,89.4,9.7,89z"
						/>
				</g>
				
					<ellipse transform="matrix(0.9593 -0.2824 0.2824 0.9593 -24.8913 6.1087)" class="st28" cx="8.7" cy="89.4" rx="0.7" ry="0.9"/>
			</g>
			<g>
				<g>
					<path class="st32" d="M6.7,91.8c-0.1-0.5-0.5-0.8-0.9-0.7c0,0-0.1,0-0.1,0.1l-0.3,0.2L6.2,93l0.3-0.2
						C6.8,92.7,6.9,92.3,6.7,91.8z"/>
				</g>
				
					<ellipse transform="matrix(0.9593 -0.2824 0.2824 0.9593 -25.8056 5.3812)" class="st28" cx="5.8" cy="92.2" rx="0.7" ry="0.9"/>
			</g>
			<g>
				<g>
					<path class="st32" d="M3.2,89.2c-0.1-0.5-0.5-0.8-0.9-0.7c0,0-0.1,0-0.1,0.1l-0.3,0.2l0.8,1.6L3,90.2C3.2,90,3.4,89.6,3.2,89.2
						z"/>
				</g>
				
					<ellipse transform="matrix(0.9593 -0.2824 0.2824 0.9593 -25.2044 4.2855)" class="st28" cx="2.3" cy="89.6" rx="0.7" ry="0.9"/>
			</g>
			<g>
				<g>
					<path class="st32" d="M2.4,84.3c-0.1-0.5-0.5-0.8-0.9-0.7c0,0-0.1,0-0.1,0.1L1,83.8l0.8,1.6l0.3-0.2
						C2.4,85.1,2.5,84.7,2.4,84.3z"/>
				</g>
				
					<ellipse transform="matrix(0.9593 -0.2824 0.2824 0.9593 -23.8475 3.8402)" class="st28" cx="1.4" cy="84.7" rx="0.7" ry="0.9"/>
			</g>
		</g>
		<g>
			<g>
				<path class="st6" d="M12.9,73.7c-0.4,0-0.7-0.1-0.7-0.2v1.9c0,0.1,0.3,0.2,0.7,0.2c0.4,0,0.7-0.1,0.7-0.2v-1.9
					C13.7,73.6,13.3,73.7,12.9,73.7z"/>
				<path class="st7" d="M13.7,73.5c0-0.1-0.3-0.2-0.7-0.2c-0.4,0-0.7,0.1-0.7,0.2c0,0,0,0,0,0c0,0.1,0.3,0.2,0.7,0.2
					C13.3,73.7,13.7,73.6,13.7,73.5C13.7,73.5,13.7,73.5,13.7,73.5z"/>
			</g>
			<g>
				<path class="st6" d="M6.2,72c-0.4,0-0.7-0.1-0.7-0.2v1.9c0,0.1,0.3,0.2,0.7,0.2c0.4,0,0.7-0.1,0.7-0.2v-1.9
					C6.9,71.9,6.6,72,6.2,72z"/>
				<path class="st7" d="M6.9,71.8c0-0.1-0.3-0.2-0.7-0.2c-0.4,0-0.7,0.1-0.7,0.2c0,0,0,0,0,0c0,0.1,0.3,0.2,0.7,0.2
					C6.6,72,6.9,71.9,6.9,71.8C6.9,71.8,6.9,71.8,6.9,71.8z"/>
			</g>
			<g>
				<path class="st6" d="M22.4,73.8c-0.4,0-0.7-0.1-0.7-0.2v1.9c0,0.1,0.3,0.2,0.7,0.2c0.4,0,0.7-0.1,0.7-0.2v-1.9
					C23.1,73.7,22.8,73.8,22.4,73.8z"/>
				<path class="st7" d="M23.1,73.6c0-0.1-0.3-0.2-0.7-0.2c-0.4,0-0.7,0.1-0.7,0.2c0,0,0,0,0,0c0,0.1,0.3,0.2,0.7,0.2
					C22.8,73.8,23.1,73.7,23.1,73.6C23.1,73.6,23.1,73.6,23.1,73.6z"/>
			</g>
			<g>
				<path class="st6" d="M28.9,71.6c-0.4,0-0.7-0.1-0.7-0.2v1.9c0,0.1,0.3,0.2,0.7,0.2c0.4,0,0.7-0.1,0.7-0.2v-1.9
					C29.6,71.6,29.3,71.6,28.9,71.6z"/>
				<path class="st7" d="M29.6,71.4c0-0.1-0.3-0.2-0.7-0.2c-0.4,0-0.7,0.1-0.7,0.2c0,0,0,0,0,0c0,0.1,0.3,0.2,0.7,0.2
					C29.3,71.6,29.6,71.6,29.6,71.4C29.6,71.5,29.6,71.5,29.6,71.4z"/>
			</g>
			<path class="st29" d="M17.5,70.8c-7.2,0-13.1-2.2-13.1-3.9v3.4c0,1.8,5.9,4.5,13.1,4.5c7.2,0,13.1-2.7,13.1-4.5v-3.4
				C30.7,68.7,24.8,70.8,17.5,70.8z"/>
			<path class="st8" d="M4.4,66.9c0,1.5,2.7,5.3,13.1,5.3c9.9,0,13.1-2.7,13.1-5.2c0-2.9-5.9-6.3-13.1-6.3S4.4,63.8,4.4,66.9z"/>
			<path class="st6" d="M17.5,44.1c-4.7,0-8.5-0.9-8.5-2.1v25.6c0,1.2,4.1,2.7,8.8,2.7c4.7,0,8.3-1.6,8.3-2.7V42.1
				C26,43.2,22.2,44.1,17.5,44.1z"/>
			<g>
				<path class="st8" d="M7.5,65.8c0-0.1-0.3-0.2-0.7-0.2c-0.4,0-0.7,0.1-0.7,0.2c0,0,0,0,0,0c0,0.1,0.3,0.2,0.7,0.2
					C7.2,66,7.5,65.9,7.5,65.8C7.5,65.8,7.5,65.8,7.5,65.8z"/>
				<g>
					<path class="st6" d="M6.8,66c-0.4,0-0.7-0.1-0.7-0.2v1.8c0,0.1,0.3,0.2,0.7,0.2c0.4,0,0.7-0.1,0.7-0.2v-1.8
						C7.5,65.9,7.2,66,6.8,66z"/>
					<path class="st6" d="M13.1,69.1c-0.4,0-0.7-0.1-0.7-0.2v1.8c0,0.1,0.3,0.2,0.7,0.2c0.4,0,0.7-0.1,0.7-0.2v-1.8
						C13.7,69,13.4,69.1,13.1,69.1z"/>
					<path class="st8" d="M13.7,68.9c0-0.1-0.3-0.2-0.7-0.2c-0.4,0-0.7,0.1-0.7,0.2c0,0,0,0,0,0c0,0.1,0.3,0.2,0.7,0.2
						C13.4,69.1,13.7,69,13.7,68.9C13.7,68.9,13.7,68.9,13.7,68.9z"/>
					<path class="st6" d="M22,69.2c-0.4,0-0.7-0.1-0.7-0.2v1.8c0,0.1,0.3,0.2,0.7,0.2s0.7-0.1,0.7-0.2V69
						C22.7,69.1,22.4,69.2,22,69.2z"/>
					<path class="st8" d="M22.7,69c0-0.1-0.3-0.2-0.7-0.2s-0.7,0.1-0.7,0.2c0,0,0,0,0,0c0,0.1,0.3,0.2,0.7,0.2S22.7,69.1,22.7,69
						C22.7,69,22.7,69,22.7,69z"/>
					<path class="st6" d="M28.2,65.9c-0.4,0-0.7-0.1-0.7-0.2v1.8c0,0.1,0.3,0.2,0.7,0.2c0.4,0,0.7-0.1,0.7-0.2v-1.8
						C28.9,65.8,28.6,65.9,28.2,65.9z"/>
				</g>
				<path class="st8" d="M28.9,65.7c0-0.1-0.3-0.2-0.7-0.2s-0.7,0.1-0.7,0.2c0,0,0,0,0,0c0,0.1,0.3,0.2,0.7,0.2
					C28.6,65.9,28.9,65.8,28.9,65.7C28.9,65.7,28.9,65.7,28.9,65.7z"/>
			</g>
			<path class="st6" d="M17.5,43.2c-7.2,0-13.1-2.2-13.1-3.9v3.4c0,1.8,5.9,4.5,13.1,4.5c7.2,0,13.1-2.7,13.1-4.5v-3.4
				C30.7,41.1,24.8,43.2,17.5,43.2z"/>
			<path class="st8" d="M4.4,39.3c0,1.5,2.7,5.3,13.1,5.3c9.9,0,13.1-2.7,13.1-5.2c0-2.9-5.9-6.3-13.1-6.3S4.4,36.2,4.4,39.3z"/>
		</g>
		<g>
			<g>
				<g>
					<path class="st9" d="M50.7,17.3c-0.4-1.4-1.6-2.3-2.7-2c-0.1,0-0.4,0.2-0.4,0.2c0,0,0,0,0,0l-13.5,7.8l2.3,4.8L50,20.2
						C50.8,19.7,51.1,18.5,50.7,17.3z"/>
				</g>
			</g>
			<g>
				<g>
					<g>
						<path class="st9" d="M39.5,24.2c-0.7-2.3-2.6-3.7-4.2-3.3c-0.1,0-0.4,0.2-0.6,0.3l-1.1,0.7l3.6,7.7l1.2-0.7
							C39.5,28,40,26.1,39.5,24.2z"/>
					</g>
					<ellipse transform="matrix(0.9593 -0.2824 0.2824 0.9593 -5.8245 11.0233)" cx="35.3" cy="25.7" rx="3.1" ry="4.3"/>
				</g>
			</g>
			<g>
				<g>
					<g>
						<path class="st31" d="M38,24.9c-0.6-2.1-2.4-3.4-3.9-3c-0.1,0-0.4,0.1-0.5,0.2L32.2,23l3.3,7.1l1.5-0.9
							C38.1,28.5,38.6,26.7,38,24.9z"/>
					</g>
					
						<ellipse transform="matrix(0.9593 -0.2824 0.2824 0.9593 -6.1213 10.6476)" class="st29" cx="33.9" cy="26.6" rx="2.9" ry="3.9"/>
				</g>
			</g>
			<g>
				<g>
					<path class="st31" d="M35.2,26.3c-0.4-1.4-1.5-2.2-2.5-1.9c-0.1,0-0.3,0.1-0.3,0.1c0,0,0,0,0,0L21.5,31l2.2,4.6l10.9-6.5
						C35.3,28.6,35.5,27.5,35.2,26.3z"/>
				</g>
				
					<ellipse transform="matrix(0.9593 -0.2824 0.2824 0.9593 -8.4755 7.7211)" class="st29" cx="22.6" cy="33.3" rx="1.9" ry="2.6"/>
			</g>
		</g>
		<g>
			<path class="st29" d="M7.6,38.4c0,1.3,2,4.4,10,4.4c7.6,0,10-3.1,10-4.4v-4.8c0,0,0-0.1,0-0.1c0-2.9-4.5-2.2-10-2.2
				s-10-0.7-10,2.2c0,0,0,0.1,0,0.1V38.4z"/>
			<path class="st27" d="M7.6,33.4c0,1.3,2,4.4,10,4.4c7.6,0,10-3.1,10-4.4v0.2c0,0,0-0.1,0-0.1c0-2.9-4.5-5.2-10-5.2
				S7.5,30.6,7.6,33.4c0,0.1,0,0.2,0,0.2V33.4z"/>
		</g>
		<g>
			<g>
				<g>
					<path class="st31" d="M10.4,38C10,36.7,8.9,35.9,8,36.2c-0.1,0-0.2,0.1-0.3,0.1l-0.9,0.5l2,4.3l0.9-0.5
						C10.4,40.1,10.7,39.1,10.4,38z"/>
				</g>
				<ellipse transform="matrix(0.9593 -0.2824 0.2824 0.9593 -10.6838 3.7993)" class="st29" cx="7.8" cy="39" rx="1.7" ry="2.4"/>
			</g>
			<g>
				<g>
					<path class="st32" d="M7.7,37.2c0-0.2-0.2-0.3-0.3-0.2c0,0,0,0,0,0L7.2,37l0.3,0.5l0.1-0.1C7.7,37.4,7.7,37.3,7.7,37.2z"/>
				</g>
				
					<ellipse transform="matrix(0.9593 -0.2824 0.2824 0.9593 -10.2312 3.5934)" class="st28" cx="7.4" cy="37.3" rx="0.2" ry="0.3"/>
			</g>
			<g>
				<g>
					<path class="st32" d="M8.9,38c0-0.2-0.2-0.3-0.3-0.2c0,0,0,0,0,0l-0.1,0.1l0.3,0.5l0.1-0.1C8.9,38.3,9,38.1,8.9,38z"/>
				</g>
				
					<ellipse transform="matrix(0.9593 -0.2824 0.2824 0.9593 -10.4153 3.9807)" class="st28" cx="8.6" cy="38.1" rx="0.2" ry="0.3"/>
			</g>
			<g>
				<g>
					<path class="st32" d="M9.2,39.7c0-0.2-0.2-0.3-0.3-0.2c0,0,0,0,0,0l-0.1,0.1L9,40.1L9.1,40C9.2,40,9.2,39.8,9.2,39.7z"/>
				</g>
				
					<ellipse transform="matrix(0.9593 -0.2824 0.2824 0.9593 -10.8834 4.1285)" class="st28" cx="8.9" cy="39.8" rx="0.2" ry="0.3"/>
			</g>
			<g>
				<g>
					<path class="st32" d="M8.2,40.6c0-0.2-0.2-0.3-0.3-0.2c0,0,0,0,0,0l-0.1,0.1L8,41l0.1-0.1C8.2,40.9,8.3,40.7,8.2,40.6z"/>
				</g>
				
					<ellipse transform="matrix(0.9593 -0.2824 0.2824 0.9593 -11.1808 3.8918)" class="st28" cx="7.9" cy="40.7" rx="0.2" ry="0.3"/>
			</g>
			<g>
				<g>
					<path class="st32" d="M7.1,39.8c0-0.2-0.2-0.3-0.3-0.2c0,0,0,0,0,0l-0.1,0.1l0.3,0.5L7,40.1C7.1,40,7.1,39.9,7.1,39.8z"/>
				</g>
				
					<ellipse transform="matrix(0.9593 -0.2824 0.2824 0.9593 -10.9853 3.5354)" class="st28" cx="6.8" cy="39.9" rx="0.2" ry="0.3"/>
			</g>
			<g>
				<g>
					<path class="st32" d="M6.8,38.2c0-0.2-0.2-0.3-0.3-0.2c0,0,0,0,0,0L6.4,38l0.3,0.5l0.1-0.1C6.8,38.4,6.8,38.3,6.8,38.2z"/>
				</g>
				
					<ellipse transform="matrix(0.9593 -0.2824 0.2824 0.9593 -10.5439 3.3906)" class="st28" cx="6.5" cy="38.3" rx="0.2" ry="0.3"/>
			</g>
		</g>
	</g>
</g>
</svg>
