<?xml version="1.0" encoding="UTF-8" standalone="no"?>
<svg
   xmlns:dc="http://purl.org/dc/elements/1.1/"
   xmlns:cc="http://creativecommons.org/ns#"
   xmlns:rdf="http://www.w3.org/1999/02/22-rdf-syntax-ns#"
   xmlns:svg="http://www.w3.org/2000/svg"
   xmlns="http://www.w3.org/2000/svg"
   xmlns:sodipodi="http://sodipodi.sourceforge.net/DTD/sodipodi-0.dtd"
   xmlns:inkscape="http://www.inkscape.org/namespaces/inkscape"
   width="1450"
   height="640"
   preserveAspectRatio="xMidYMid meet"
   version="1.1"
   id="svg47"
   sodipodi:docname="pupitre_off.svg"
   inkscape:version="0.92.5 (2060ec1f9f, 2020-04-08)">
  <metadata
     id="metadata51">
    <rdf:RDF>
      <cc:Work
         rdf:about="">
        <dc:format>image/svg+xml</dc:format>
        <dc:type
           rdf:resource="http://purl.org/dc/dcmitype/StillImage" />
        <dc:title></dc:title>
      </cc:Work>
    </rdf:RDF>
  </metadata>
  <sodipodi:namedview
     pagecolor="#ffffff"
     bordercolor="#666666"
     borderopacity="1"
     objecttolerance="10"
     gridtolerance="10"
     guidetolerance="10"
     inkscape:pageopacity="0"
     inkscape:pageshadow="2"
     inkscape:window-width="1920"
     inkscape:window-height="1057"
     id="namedview49"
     showgrid="false"
     inkscape:pagecheckerboard="true"
     inkscape:zoom="0.24068966"
     inkscape:cx="-808.09454"
     inkscape:cy="320.00002"
     inkscape:window-x="1592"
     inkscape:window-y="-8"
     inkscape:window-maximized="1"
     inkscape:current-layer="svg47" />
  <defs
     id="defs8">
    <path
       id="cGE5BQ3og"
       d="m595,45c0,0 0,0 0,0c0,55 0,495 0,550c0,0 0,0 0,0c-55,0 -495,0 -550,0c0,0 0,0 0,0c0,-55 0,-495 0,-550c0,0 0,0 0,0c110,0 495,0 550,0z" />
    <path
       id="a8QAvTO65x"
       d="m409.48999,358.48999c-0.099976,-0.160004 -0.199982,-0.319977 -0.349976,-0.549988c-4.580017,-6.890015 -6.300018,-24.080017 -7.320007,-34.339996c-0.160004,-1.540009 -0.300018,-3.02002 -0.450012,-4.399994c-0.019989,-0.140015 -0.029999,-0.279999 -0.059998,-0.490021c-2.359985,-15.459991 -8.200012,-37.759979 -22.679993,-56.169983c-10.02002,-12.740005 -22.459991,-21.340012 -37.040009,-25.62001c-1.5,-9.929993 -10.609985,-17.589996 -21.589996,-17.589996c-10.980011,0 -20.089996,7.660004 -21.589996,17.599991c-14.580017,4.270004 -27.019989,12.87001 -37.040009,25.610016c-14.479996,18.410004 -20.319992,40.709991 -22.679993,56.169983c0,0.01001 -0.01001,0.110016 -0.01001,0.130005c-0.019989,0.130005 -0.039993,0.26001 -0.049988,0.350006c-0.139999,1.389984 -0.290009,2.859985 -0.450012,4.399994c-1.019989,10.269989 -2.73999,27.459991 -7.369995,34.410004c-0.080002,0.130005 -0.149994,0.26001 -0.270004,0.450012c-1.219986,2.069977 -3.699997,4.109985 -6.319992,6.259979c-6.440002,5.309998 -19.850006,16.350006 -8.800003,35.610016c2.130005,3.72998 6.259995,6.039978 10.770004,6.039978c18.759995,0 168.859985,0 187.619995,0c4.51001,0 8.630005,-2.309998 10.769989,-6.039978c11.040009,-19.26001 -2.349976,-30.300018 -8.799988,-35.610016c-2.619995,-2.160004 -5.089996,-4.190002 -6.290009,-6.220001z" />
    <path
       id="f3t383B2u4"
       d="m297.910004,425.609985c-1.779999,0 -3.459991,0.740021 -4.600006,2.01001c-2.139984,2.399994 -1.540009,5.589996 -1.179993,7.48999c0,0.02002 0.019989,0.140015 0.019989,0.160004c2.369995,12.710022 14.070007,21.940002 27.820007,21.940002c14.019989,0 26.040009,-9.819977 27.970001,-22.819977c0,-0.02002 0.040009,-0.190002 0.040009,-0.210022c0.23999,-1.190002 0.799988,-3.949982 -1.279999,-6.309998c-0.740021,-0.839996 -2.430023,-2.26001 -5.390015,-2.26001c0,0 -39.059998,0 -43.399994,0z" />
    <path
       id="e2clZgaVrP"
       d="m233.339996,225.229996c6.270004,-6.569992 14.470001,-10.789993 23.730011,-12.220001c8.829987,-1.360001 14.809998,-9.179993 13.359985,-17.470001c-1.440002,-8.279999 -9.759979,-13.909988 -18.589996,-12.549988c-16.389999,2.519989 -31.519989,10.309998 -42.610001,21.919998c-10.970001,11.5 -17.559998,26.309998 -18.550003,41.720001c-0.539993,8.389999 6.26001,15.600006 15.180008,16.100006c0.339996,0.019989 0.669998,0.029999 0.990005,0.029999c8.5,0 15.62999,-6.220001 16.149994,-14.290009c0.559998,-8.710007 4.139999,-16.75 10.339996,-23.240005z" />
    <path
       id="akJohsaaQ"
       d="m388.160004,182.990005c-8.830017,-1.360001 -17.149994,4.269989 -18.589996,12.559998c-1.450012,8.289993 4.529999,16.110001 13.359985,17.459991c9.26001,1.430008 17.470001,5.650009 23.730011,12.220001c6.209991,6.490005 9.779999,14.529999 10.339996,23.240005c0.519989,8.070007 7.649994,14.290009 16.140015,14.290009c0.329987,0 0.659973,-0.01001 0.98999,-0.02002c8.929993,-0.509979 15.72998,-7.719986 15.190002,-16.099991c-0.990021,-15.410004 -7.580017,-30.229996 -18.550018,-41.729996c-11.089996,-11.610001 -26.22998,-19.400009 -42.609985,-21.919998z" />
    <path
       id="e3yUpQzNK"
       d="m275.149994,501.700012c-18.619995,-7.150024 -35.919998,-17.540009 -51.449997,-30.880005c-31.069992,-26.710022 -53.270004,-64.179993 -62.509995,-105.51001c-4.050003,-18.130005 -20.970001,-29.290009 -37.810005,-24.919983c-16.829994,4.359985 -27.189995,22.589996 -23.139999,40.709991c6.300003,28.209991 16.900002,54.919983 31.489998,79.399994c14.330002,24.029999 32.12001,45.25 52.87001,63.080017c20.949997,18.01001 44.329987,32.039978 69.48999,41.700012c26.029999,10 53.360016,15.069946 81.220001,15.069946c32.630005,0 64.290009,-6.889954 94.119995,-20.47998c28.790009,-13.109985 54.640015,-31.880005 76.839996,-55.779999c22.190033,-23.889984 39.620026,-51.730011 51.800018,-82.73999c12.609985,-32.119995 19.01001,-66.220001 19.01001,-101.350006c0,-35.130005 -6.400024,-69.229996 -19.01001,-101.350006c-12.179993,-31.009995 -29.609985,-58.839996 -51.800018,-82.73999c-22.199982,-23.900002 -48.049988,-42.670006 -76.839996,-55.780006c-29.829987,-13.589996 -61.5,-20.479996 -94.119995,-20.479996c-47.709991,0 -93.869995,14.959999 -133.479996,43.25c-31.550003,22.529999 -57.550003,52.43 -76.220001,87.43c0,-5.419998 0,-48.790009 0,-54.210007c0,-18.649994 -14.029999,-33.759995 -31.349998,-33.759995c-17.310005,0 -31.340004,15.110001 -31.340004,33.759995c0,12.779999 0,115.080002 0,127.869995c0,18.640015 14.029999,33.75 31.340004,33.75c11.720001,0 105.439995,0 117.159996,0c17.309998,0 31.339996,-15.109985 31.339996,-33.75c0,-18.649994 -14.029999,-33.759995 -31.339996,-33.759995c-3.470001,0 -31.190002,0 -34.649994,0c14,-28.62999 34.459991,-53.039993 59.709991,-71.069992c29.310013,-20.930008 63.479996,-32 98.830002,-32c47.830017,0 92.799988,20.059998 126.630005,56.479996c33.820007,36.430008 52.450012,84.849991 52.450012,136.360001c0,51.51001 -18.630005,99.940002 -52.450012,136.359985c-33.830017,36.420013 -78.799988,56.480042 -126.630005,56.480042c-20.669983,0 -40.910004,-3.750031 -60.160004,-11.140015z" />
  </defs>
  <g
     id="g13">
    <title
       id="title10">background</title>
    <rect
       fill="none"
       id="canvas_background"
       height="642"
       width="1452"
       y="-1"
       x="-1" />
  </g>
  <text
     style="font-weight:bold;font-size:180px;font-family:'Trebuchet MS', Gadget, sans-serif;text-anchor:start;fill:#b3c8e0;fill-opacity:1;"
     x="628"
     y="384"
     id="svg_29"
     font-size="180"
     xml:space="preserve"
     font-weight="bold"><tspan
       id="tspan902"
       style="font-style:normal;font-variant:normal;font-weight:bold;font-stretch:normal;font-size:160px;font-family:Tahoma;-inkscape-font-specification:'Tahoma Bold';fill:#b3c8e0;fill-opacity:1;">PUPITRE</tspan></text>
  <path
     style="fill:#b3c8e0;fill-opacity:1;stroke-width:0.5082159"
     inkscape:connector-curvature="0"
     d="m 315.75931,338.33092 c -42.33438,0 -73.03062,34.05046 -73.03062,72.21748 0,40.65727 32.37335,73.03062 73.03062,73.03062 39.84413,0 73.03062,-32.37335 73.03062,-72.21748 0,-38.98016 -30.69624,-73.03062 -73.03062,-73.03062 z m 0,114.55186 c -23.22547,0 -42.33438,-19.10892 -42.33438,-42.33438 0,-24.08944 19.10891,-43.14753 42.33438,-43.14753 23.22547,0 42.33438,19.10891 42.33438,42.33438 0,24.90258 -18.24495,43.14753 -42.33438,43.14753 z"
     id="path845" />
  <path
     style="fill:#b3c8e0;fill-opacity:1;stroke-width:0.5082159"
     inkscape:connector-curvature="0"
     d="m 315.75931,71.060174 c -137.77733,0 -249.025791,111.248456 -249.025791,249.025786 0,137.77734 111.248461,249.0258 249.025791,249.0258 137.77733,0 249.02579,-111.24846 249.02579,-249.0258 0,-137.77733 -111.24846,-249.025786 -249.02579,-249.025786 z m 14.94155,439.098536 c -54.78568,8.28392 -106.26795,-29.88309 -113.73872,-84.66877 -6.65763,-46.50175 19.92206,-91.32639 63.93356,-107.89423 3.3034,-1.67712 4.98052,-3.30341 6.65763,-6.65763 9.14788,-22.41232 18.24495,-44.0115 26.57969,-66.42382 0.81314,-1.67711 0.81314,-2.49026 2.49026,-4.16737 0.81314,1.67711 1.67711,3.3034 2.49025,4.16737 9.14789,22.41232 18.24496,44.0115 26.5797,66.42382 1.67711,3.3034 3.3034,4.98051 6.65762,6.65763 37.35387,15.75469 59.76619,43.14753 63.93357,83.85562 5.74283,52.29542 -32.475,100.42346 -85.58356,108.70738 z M 461.87138,251.17189 c -17.4318,0.81314 -30.69624,-11.63815 -29.88309,-29.8831 1.67711,-4.16737 -1.67712,-6.65762 -4.98052,-8.28392 -24.90258,-16.61866 -53.10856,-26.57969 -82.17851,-31.5602 -3.3034,-0.81315 -5.79366,0 -7.47077,2.49026 -11.63815,13.26443 -30.69624,13.26443 -42.33439,0 -2.49026,-2.49026 -4.98051,-3.30341 -7.47077,-2.49026 -30.69624,4.98051 -58.08908,14.94154 -83.85563,32.37335 -3.3034,1.67711 -4.16737,3.3034 -4.16737,6.65763 1.67712,15.75469 -10.77417,29.88309 -25.71572,30.69624 -16.61866,0.81314 -30.69624,-10.77418 -30.69624,-27.39284 0,-19.10892 16.61866,-30.69624 32.37335,-28.20598 2.49026,0.81314 4.98052,0 7.47078,-1.67711 29.88309,-20.73521 63.06959,-34.05047 98.79717,-39.84413 5.79366,-0.81314 9.14788,-2.49026 12.45129,-7.47077 11.63814,-14.12841 33.18649,-13.26444 44.01149,1.67711 2.49026,3.3034 4.16737,4.16737 7.47078,4.98052 28.20598,3.3034 53.97253,12.45128 78.8751,25.71572 8.28392,4.16737 15.7547,9.96103 23.22547,14.1284 1.67711,0.81315 4.98052,1.67711 7.47077,1.67711 14.94155,-2.49025 30.69624,8.28392 32.37336,23.22547 2.43943,18.24495 -9.19871,32.37335 -25.76655,33.1865 z"
     id="path847" />
</svg>
