<?xml version="1.0" encoding="UTF-8" standalone="no"?>
<svg
   xmlns:dc="http://purl.org/dc/elements/1.1/"
   xmlns:cc="http://creativecommons.org/ns#"
   xmlns:rdf="http://www.w3.org/1999/02/22-rdf-syntax-ns#"
   xmlns:svg="http://www.w3.org/2000/svg"
   xmlns="http://www.w3.org/2000/svg"
   xmlns:sodipodi="http://sodipodi.sourceforge.net/DTD/sodipodi-0.dtd"
   xmlns:inkscape="http://www.inkscape.org/namespaces/inkscape"
   width="1450"
   height="640"
   preserveAspectRatio="xMidYMid meet"
   version="1.1"
   id="svg47"
   sodipodi:docname="usuarios_off.svg"
   inkscape:version="0.92.5 (2060ec1f9f, 2020-04-08)">
  <metadata
     id="metadata51">
    <rdf:RDF>
      <cc:Work
         rdf:about="">
        <dc:format>image/svg+xml</dc:format>
        <dc:type
           rdf:resource="http://purl.org/dc/dcmitype/StillImage" />
        <dc:title></dc:title>
      </cc:Work>
    </rdf:RDF>
  </metadata>
  <sodipodi:namedview
     pagecolor="#ffffff"
     bordercolor="#666666"
     borderopacity="1"
     objecttolerance="10"
     gridtolerance="10"
     guidetolerance="10"
     inkscape:pageopacity="0"
     inkscape:pageshadow="2"
     inkscape:window-width="1920"
     inkscape:window-height="1057"
     id="namedview49"
     showgrid="false"
     inkscape:pagecheckerboard="true"
     inkscape:zoom="0.24068966"
     inkscape:cx="-41.547263"
     inkscape:cy="320.00001"
     inkscape:window-x="1592"
     inkscape:window-y="-8"
     inkscape:window-maximized="1"
     inkscape:current-layer="svg47" />
  <defs
     id="defs8">
    <path
       id="cGE5BQ3og"
       d="m595,45c0,0 0,0 0,0c0,55 0,495 0,550c0,0 0,0 0,0c-55,0 -495,0 -550,0c0,0 0,0 0,0c0,-55 0,-495 0,-550c0,0 0,0 0,0c110,0 495,0 550,0z" />
    <path
       id="a8QAvTO65x"
       d="m409.48999,358.48999c-0.099976,-0.160004 -0.199982,-0.319977 -0.349976,-0.549988c-4.580017,-6.890015 -6.300018,-24.080017 -7.320007,-34.339996c-0.160004,-1.540009 -0.300018,-3.02002 -0.450012,-4.399994c-0.019989,-0.140015 -0.029999,-0.279999 -0.059998,-0.490021c-2.359985,-15.459991 -8.200012,-37.759979 -22.679993,-56.169983c-10.02002,-12.740005 -22.459991,-21.340012 -37.040009,-25.62001c-1.5,-9.929993 -10.609985,-17.589996 -21.589996,-17.589996c-10.980011,0 -20.089996,7.660004 -21.589996,17.599991c-14.580017,4.270004 -27.019989,12.87001 -37.040009,25.610016c-14.479996,18.410004 -20.319992,40.709991 -22.679993,56.169983c0,0.01001 -0.01001,0.110016 -0.01001,0.130005c-0.019989,0.130005 -0.039993,0.26001 -0.049988,0.350006c-0.139999,1.389984 -0.290009,2.859985 -0.450012,4.399994c-1.019989,10.269989 -2.73999,27.459991 -7.369995,34.410004c-0.080002,0.130005 -0.149994,0.26001 -0.270004,0.450012c-1.219986,2.069977 -3.699997,4.109985 -6.319992,6.259979c-6.440002,5.309998 -19.850006,16.350006 -8.800003,35.610016c2.130005,3.72998 6.259995,6.039978 10.770004,6.039978c18.759995,0 168.859985,0 187.619995,0c4.51001,0 8.630005,-2.309998 10.769989,-6.039978c11.040009,-19.26001 -2.349976,-30.300018 -8.799988,-35.610016c-2.619995,-2.160004 -5.089996,-4.190002 -6.290009,-6.220001z" />
    <path
       id="f3t383B2u4"
       d="m297.910004,425.609985c-1.779999,0 -3.459991,0.740021 -4.600006,2.01001c-2.139984,2.399994 -1.540009,5.589996 -1.179993,7.48999c0,0.02002 0.019989,0.140015 0.019989,0.160004c2.369995,12.710022 14.070007,21.940002 27.820007,21.940002c14.019989,0 26.040009,-9.819977 27.970001,-22.819977c0,-0.02002 0.040009,-0.190002 0.040009,-0.210022c0.23999,-1.190002 0.799988,-3.949982 -1.279999,-6.309998c-0.740021,-0.839996 -2.430023,-2.26001 -5.390015,-2.26001c0,0 -39.059998,0 -43.399994,0z" />
    <path
       id="e2clZgaVrP"
       d="m233.339996,225.229996c6.270004,-6.569992 14.470001,-10.789993 23.730011,-12.220001c8.829987,-1.360001 14.809998,-9.179993 13.359985,-17.470001c-1.440002,-8.279999 -9.759979,-13.909988 -18.589996,-12.549988c-16.389999,2.519989 -31.519989,10.309998 -42.610001,21.919998c-10.970001,11.5 -17.559998,26.309998 -18.550003,41.720001c-0.539993,8.389999 6.26001,15.600006 15.180008,16.100006c0.339996,0.019989 0.669998,0.029999 0.990005,0.029999c8.5,0 15.62999,-6.220001 16.149994,-14.290009c0.559998,-8.710007 4.139999,-16.75 10.339996,-23.240005z" />
    <path
       id="akJohsaaQ"
       d="m388.160004,182.990005c-8.830017,-1.360001 -17.149994,4.269989 -18.589996,12.559998c-1.450012,8.289993 4.529999,16.110001 13.359985,17.459991c9.26001,1.430008 17.470001,5.650009 23.730011,12.220001c6.209991,6.490005 9.779999,14.529999 10.339996,23.240005c0.519989,8.070007 7.649994,14.290009 16.140015,14.290009c0.329987,0 0.659973,-0.01001 0.98999,-0.02002c8.929993,-0.509979 15.72998,-7.719986 15.190002,-16.099991c-0.990021,-15.410004 -7.580017,-30.229996 -18.550018,-41.729996c-11.089996,-11.610001 -26.22998,-19.400009 -42.609985,-21.919998z" />
    <path
       id="e3yUpQzNK"
       d="m275.149994,501.700012c-18.619995,-7.150024 -35.919998,-17.540009 -51.449997,-30.880005c-31.069992,-26.710022 -53.270004,-64.179993 -62.509995,-105.51001c-4.050003,-18.130005 -20.970001,-29.290009 -37.810005,-24.919983c-16.829994,4.359985 -27.189995,22.589996 -23.139999,40.709991c6.300003,28.209991 16.900002,54.919983 31.489998,79.399994c14.330002,24.029999 32.12001,45.25 52.87001,63.080017c20.949997,18.01001 44.329987,32.039978 69.48999,41.700012c26.029999,10 53.360016,15.069946 81.220001,15.069946c32.630005,0 64.290009,-6.889954 94.119995,-20.47998c28.790009,-13.109985 54.640015,-31.880005 76.839996,-55.779999c22.190033,-23.889984 39.620026,-51.730011 51.800018,-82.73999c12.609985,-32.119995 19.01001,-66.220001 19.01001,-101.350006c0,-35.130005 -6.400024,-69.229996 -19.01001,-101.350006c-12.179993,-31.009995 -29.609985,-58.839996 -51.800018,-82.73999c-22.199982,-23.900002 -48.049988,-42.670006 -76.839996,-55.780006c-29.829987,-13.589996 -61.5,-20.479996 -94.119995,-20.479996c-47.709991,0 -93.869995,14.959999 -133.479996,43.25c-31.550003,22.529999 -57.550003,52.43 -76.220001,87.43c0,-5.419998 0,-48.790009 0,-54.210007c0,-18.649994 -14.029999,-33.759995 -31.349998,-33.759995c-17.310005,0 -31.340004,15.110001 -31.340004,33.759995c0,12.779999 0,115.080002 0,127.869995c0,18.640015 14.029999,33.75 31.340004,33.75c11.720001,0 105.439995,0 117.159996,0c17.309998,0 31.339996,-15.109985 31.339996,-33.75c0,-18.649994 -14.029999,-33.759995 -31.339996,-33.759995c-3.470001,0 -31.190002,0 -34.649994,0c14,-28.62999 34.459991,-53.039993 59.709991,-71.069992c29.310013,-20.930008 63.479996,-32 98.830002,-32c47.830017,0 92.799988,20.059998 126.630005,56.479996c33.820007,36.430008 52.450012,84.849991 52.450012,136.360001c0,51.51001 -18.630005,99.940002 -52.450012,136.359985c-33.830017,36.420013 -78.799988,56.480042 -126.630005,56.480042c-20.669983,0 -40.910004,-3.750031 -60.160004,-11.140015z" />
  </defs>
  <g
     id="g13">
    <title
       id="title10">background</title>
    <rect
       fill="none"
       id="canvas_background"
       height="642"
       width="1452"
       y="-1"
       x="-1" />
  </g>
  <text
     style="font-weight:bold;font-size:180px;font-family:'Trebuchet MS', Gadget, sans-serif;text-anchor:start;fill:#b3c8e0;fill-opacity:1"
     x="639.60938"
     y="384"
     id="svg_29"
     font-size="180"
     xml:space="preserve"
     font-weight="bold"><tspan
       id="tspan902"
       style="font-style:normal;font-variant:normal;font-weight:bold;font-stretch:normal;font-size:160px;font-family:Tahoma;-inkscape-font-specification:'Tahoma Bold';fill:#b3c8e0;fill-opacity:1">USAGERS</tspan></text>
  <g
     id="g860"
     transform="matrix(0.51713109,0,0,0.51713109,17.018768,58.116587)"
     style="fill:#b3c8e0;fill-opacity:1">
    <g
       id="g828"
       style="fill:#b3c8e0;fill-opacity:1">
      <path
         id="path826"
         d="m 207,403.8 c 0,-87.4 70.8,-158.2 158.2,-158.2 87.4,0 158.2,70.8 158.2,158.2 C 523.4,491.2 452.6,562 365.2,562 277.8,562 207,491.2 207,403.8 Z m 225.3,169 H 298.1 c -111.7,0 -202.5,90.9 -202.5,202.5 v 164.2 l 0.4,2.6 11.3,3.5 c 106.5,33.3 199.1,44.4 275.4,44.4 148.9,0 235.1,-42.5 240.5,-45.1 l 10.6,-5.4 h 1.1 V 775.3 C 634.8,663.6 544,572.8 432.3,572.8 Z M 634.8,326.4 C 722.2,326.4 793,255.6 793,168.2 793,80.8 722.2,10 634.8,10 547.4,10 476.6,80.8 476.6,168.2 c 0,87.4 70.9,158.2 158.2,158.2 z M 702,337.2 H 567.7 c -3.2,0 -6.3,0.3 -9.5,0.5 12.1,25.5 19.1,53.9 19.1,83.9 0,55.5 -23.3,105.5 -60.5,141.2 87,25.9 153.5,99.8 168.7,190.8 128.3,-5.6 202.3,-41.9 207.2,-44.3 l 10.6,-5.4 h 1.1 V 539.7 C 904.5,428 813.6,337.2 702,337.2 Z"
         inkscape:connector-curvature="0"
         style="fill:#b3c8e0;fill-opacity:1" />
    </g>
    <g
       id="g830"
       style="fill:#b3c8e0;fill-opacity:1" />
    <g
       id="g832"
       style="fill:#b3c8e0;fill-opacity:1" />
    <g
       id="g834"
       style="fill:#b3c8e0;fill-opacity:1" />
    <g
       id="g836"
       style="fill:#b3c8e0;fill-opacity:1" />
    <g
       id="g838"
       style="fill:#b3c8e0;fill-opacity:1" />
    <g
       id="g840"
       style="fill:#b3c8e0;fill-opacity:1" />
    <g
       id="g842"
       style="fill:#b3c8e0;fill-opacity:1" />
    <g
       id="g844"
       style="fill:#b3c8e0;fill-opacity:1" />
    <g
       id="g846"
       style="fill:#b3c8e0;fill-opacity:1" />
    <g
       id="g848"
       style="fill:#b3c8e0;fill-opacity:1" />
    <g
       id="g850"
       style="fill:#b3c8e0;fill-opacity:1" />
    <g
       id="g852"
       style="fill:#b3c8e0;fill-opacity:1" />
    <g
       id="g854"
       style="fill:#b3c8e0;fill-opacity:1" />
    <g
       id="g856"
       style="fill:#b3c8e0;fill-opacity:1" />
    <g
       id="g858"
       style="fill:#b3c8e0;fill-opacity:1" />
  </g>
</svg>
