<?xml version="1.0" encoding="utf-8"?>
<!-- Generator: Adobe Illustrator 23.0.3, SVG Export Plug-In . SVG Version: 6.00 Build 0)  -->
<svg version="1.1" xmlns="http://www.w3.org/2000/svg" xmlns:xlink="http://www.w3.org/1999/xlink" x="0px" y="0px"
	 viewBox="0 0 116.4 126.7" style="enable-background:new 0 0 116.4 126.7;" xml:space="preserve">
<style type="text/css">
	.st0{fill:none;stroke:#808080;stroke-width:0.1065;stroke-miterlimit:10;}
	.st1{fill:#BFC9E8;}
	.st2{fill:#9FABD8;}
	.st3{fill:#3458A3;}
	.st4{fill-rule:evenodd;clip-rule:evenodd;fill:#BFC9E8;}
	.st5{fill-rule:evenodd;clip-rule:evenodd;fill:#9FABD8;}
	.st6{fill:#E7E6E6;}
	.st7{fill:#CDCCCC;}
	.st8{fill:#F2F1F1;}
	.st9{fill:#4C4C4C;}
	.st10{fill:#676767;}
	.st11{fill:#D94B94;}
	.st12{fill:#E47DAE;}
	.st13{fill:#F39A00;}
	.st14{fill:#FBC165;}
	.st15{fill:#D9D9D9;}
	.st16{fill:#B3B4B3;}
	.st17{fill:#868686;}
	.st18{fill-rule:evenodd;clip-rule:evenodd;fill:#D9D9D9;}
	.st19{fill-rule:evenodd;clip-rule:evenodd;fill:#B3B4B3;}
	.st20{fill:#CC5261;}
	.st21{fill:#BD1622;}
	.st22{fill:#751518;}
	.st23{fill-rule:evenodd;clip-rule:evenodd;fill:#CC5261;}
	.st24{fill-rule:evenodd;clip-rule:evenodd;fill:#BD1622;}
	.st25{fill:#6ABA82;}
	.st26{fill:#31AA59;}
	.st27{fill:#006E32;}
	.st28{fill-rule:evenodd;clip-rule:evenodd;fill:#6ABA82;}
	.st29{fill-rule:evenodd;clip-rule:evenodd;fill:#31AA59;}
</style>
<g id="Capa_2">
</g>
<g id="Capa_1">
	<g>
		<g>
			<polygon class="st15" points="24.6,79.3 21.6,81 18.1,79.3 21.2,77.4 			"/>
			<polygon class="st16" points="24.6,103.2 21.6,105 21.6,81 24.6,79.3 			"/>
			<polygon class="st17" points="21.6,105 18.1,103 18.1,82.9 17.5,82.1 17.5,79.9 18.1,79.3 21.6,81 			"/>
		</g>
		<g>
			<g>
				<polygon class="st16" points="113.2,71.2 113.1,60.6 111.3,60.4 55.6,92.6 55.6,93.8 54.4,93.5 54.5,102.8 55.6,104.7 				"/>
				<polygon class="st15" points="55.7,93.8 113.1,60.6 78.7,40.7 21.5,74 				"/>
				<path class="st17" d="M55.6,104.7V93.8L21.5,74c0,0,0.1,10.8,0,10.8L55.6,104.7"/>
			</g>
			<g>
				<g>
					<path class="st17" d="M102.4,50.4c2.8-4.6,2.3-11.1,0.1-15.9c-1.9-4.3-6.2-8.5-11.2-8.5c-2.6,0-5,1.5-6.6,3.6
						c1.1-0.7,2.2-1.2,3.4-1.7c2.1-0.8,4.1-0.5,6,0.4c5.2,2.6,8.1,8.8,8.2,14.3c0,3.5-1.3,7.1-3.7,9.6c0.3,0.1,0.9,0.7,1.2,0.7
						C100.1,52.9,102.1,51,102.4,50.4z"/>
					<g>
						<path class="st18" d="M106.9,35.3c-2.3-7.7-8.6-12.6-14.2-10.9c-0.3,0.1-1.3,0.5-2,0.9l-3.1,1.8c0.4-0.2,0.9-0.4,1.4-0.6
							c5.6-1.6,12,3.2,14.2,10.9c0.5,1.7,0.8,3.4,0.8,5c0,0,0,0,0,0c0,0,0,0,0,0c0,0,0,0,0,0c0,0.2,0,0.4,0,0.6c0,0.2,0,0.4,0,0.6
							c0,0,0,0,0,0c0,0.3,0,0.6-0.1,0.9c0,0,0,0.1,0,0.1c0,0.1,0,0.2,0,0.3c0,0.3-0.1,0.6-0.1,0.9c0,0,0,0,0,0.1
							c0,0.1,0,0.2-0.1,0.3c-0.1,0.2-0.1,0.5-0.2,0.7c0,0.1,0,0.1,0,0.2c0,0.1-0.1,0.2-0.1,0.3c0,0.1-0.1,0.2-0.1,0.3
							c-0.1,0.3-0.2,0.6-0.3,0.8c0,0,0,0.1-0.1,0.1c-0.1,0.3-0.3,0.6-0.4,0.9c-0.1,0.2-0.2,0.3-0.3,0.5c0,0.1-0.1,0.2-0.1,0.2
							c-0.1,0.2-0.2,0.4-0.4,0.6c-0.5,0.8-1.2,1.4-1.9,2l0.1,0l3.2-1.9C107.1,48.3,108.8,41.9,106.9,35.3z"/>
					</g>
					<g>
						<path class="st19" d="M99.8,51.1c0.3-0.4,0.6-0.7,0.8-1.2c0.2-0.3,0.4-0.7,0.6-1.1c0.3-0.5,0.5-1.1,0.7-1.7
							c0.1-0.3,0.2-0.6,0.2-0.9c0.1-0.4,0.1-0.7,0.2-1.1c0.3-2.3,0.2-4.8-0.6-7.3c-0.1-0.2-0.1-0.4-0.2-0.7
							c-0.1-0.4-0.3-0.8-0.4-1.2c-2.5-6.1-7.9-9.7-12.6-8.4c0,0,0,0,0,0c-0.2,0.1-0.8,0.3-1.3,0.6c-0.3,0.1-0.5,0.2-0.5,0.2l0,0
							c0,0-25.6,15.1-25.6,15.2c0.2-0.1,0.5-0.3,0.7-0.4c0.3-0.1,0.5-0.2,0.8-0.3c0.7-0.2,1.5-0.3,2.2-0.3c1.2,0,2.5,0.3,3.7,0.9
							c0.2,0.1,0.5,0.2,0.7,0.4c0.7,0.4,1.4,0.9,2,1.5c0.2,0.2,0.4,0.4,0.6,0.6c0.3,0.3,0.6,0.6,0.9,1c0.3,0.4,0.6,0.7,0.9,1.1
							c0.4,0.6,0.8,1.2,1.1,1.9c0.3,0.7,0.6,1.3,0.9,2.1c0.1,0.3,0.2,0.7,0.3,1c0.2,0.8,0.4,1.6,0.5,2.3c0.2,1.5,0.3,3.1,0.1,4.5
							c-0.1,0.7-0.2,1.4-0.4,2.1c-0.2,0.7-0.4,1.3-0.6,1.9c-0.3,0.7-0.6,1.3-1,1.9c-0.5,0.8-1.1,1.4-1.8,1.9
							c-0.2,0.1-0.4,0.3-0.5,0.4l0,0c0,0,26.4-15.7,26.5-15.8C99,51.9,99.4,51.5,99.8,51.1z"/>
					</g>
				</g>
				<g>
					<path class="st19" d="M88.5,27.6c-0.7,0.2-1.8,0.8-1.8,0.8c0,0,0.2-0.1,0.5-0.2C87.7,28,88.3,27.7,88.5,27.6z"/>
				</g>
				<g>
					<polygon class="st16" points="94.1,30.9 83.4,37 83.2,36.4 83.1,33.2 83.4,32.9 83.6,32.5 93.5,26.8 94.1,26.9 					"/>
					<polygon class="st16" points="88.3,25 79.7,30 83.5,31.8 88.3,29.1 88.3,25 					"/>
					<polygon class="st17" points="88.3,25 88.3,29.1 92.2,26.9 					"/>
					<polygon class="st17" points="83.4,37 77.6,34 77.6,30 78,30 83.3,32.5 83.4,32.9 					"/>
					<path class="st15" d="M88.1,23.8L77.6,30l5.9,2.9l10.6-6.1L88.1,23.8z M79.7,30l8.6-5l3.9,1.9l-8.7,4.9L79.7,30z"/>
				</g>
			</g>
			<g>
				<g>
					<path class="st17" d="M78.2,11c0-1-0.1-2.1-0.4-3.1c-1.3-4.6-5.2-7.6-8.5-6.6c-0.3,0.1-0.4,0.2-0.7,0.3L67.9,2c0,0,0,0,0,0
						c0,0,0,0,0,0c-0.5,0.3-0.9,0.8-1.3,1.3c0,0,2.1-1.1,2.2-1.1c3.1-0.9,6.5,1.7,7.8,6c1,3.5,0.1,7.1-2,8.7l0.5,0.8
						c1-0.6,2-1.7,2.5-2.9C78.1,13.6,78.2,12.3,78.2,11z"/>
					<g>
						<path class="st18" d="M79.8,6.7c-1.3-4.6-5.1-7.5-8.5-6.5c-0.2,0.1-0.8,0.3-1.2,0.5l-1.8,1.1c0.3-0.1,0.5-0.3,0.8-0.3
							c3.3-1,7.1,1.9,8.5,6.5c0.3,1,0.5,2,0.5,3c0,1.3-0.2,2.6-0.7,3.7c-0.2,0.5-0.4,0.9-0.7,1.3c-0.4,0.6-1,1.2-1.6,1.6l2.4-1.5
							C80,14.4,81,10.6,79.8,6.7z"/>
					</g>
				</g>
				<g>
					<path class="st19" d="M67.8,2.6c0,0,0.6-0.3,1.1-0.5c3.1-0.9,6.7,1.8,7.9,6.1c1,3.5,0.2,7-1.9,8.6c-0.1,0.1-15.8,9.4-15.8,9.4
						l0,0c2.3-1.5,3.4-5.2,2.3-8.9c-0.1-0.2-0.1-0.4-0.2-0.6c-0.3-0.9-0.7-1.7-1.2-2.3c-1.7-2.5-4.2-3.8-6.5-3.1
						c-0.3,0.1-0.6,0.2-0.9,0.4C52.5,11.6,67.8,2.6,67.8,2.6z"/>
				</g>
				<path class="st6" d="M61.3,17.3c-0.1-0.2-0.1-0.4-0.2-0.6c-0.3-0.9-0.7-1.7-1.2-2.3c-1.7-2.5-4.2-3.8-6.5-3.1
					c-0.3,0.1-0.6,0.2-0.9,0.4l-0.2,0.1c0,0,0,0,0,0c-2.2,1.4-3.2,4.9-2.3,8.4c0,0.1,0.1,0.3,0.1,0.4c0.2,0.7,0.5,1.4,0.8,2
					c0.2,0.4,0.4,0.7,0.6,1l6.2,3.1c0.1,0,0.2,0,0.3-0.1c0.4-0.1,0.8-0.3,1.1-0.5C61.4,24.7,62.4,21,61.3,17.3z"/>
			</g>
			<g>
				<path class="st17" d="M58.3,9.4C69.8,16.1,79,45.2,79.1,60.5l-0.4,20L36.9,56.4c0,0,0-19.2,0-19.6C37,21.6,46.8,2.8,58.3,9.4z"
					/>
				<path class="st16" d="M85.8,55.5c-0.3-9.4-2.8-18.9-6.1-27.7c-1.5-4.1-3.3-8.2-5.6-12c-1.9-3.3-4.2-6.5-7.2-8.9
					c-3-2.4-6.7-3.6-10.3-1.9c-0.3,0.1-8,4.6-8,4.6c4.1-2.1,7.7-0.7,8.1-0.5c5.8,2.5,9.5,9,12.3,14.4c3.1,6.1,5.4,12.6,7.1,19.1
					c1.4,5.5,2.5,11.2,2.7,16.8c0,0.4,0,0.8,0,1.2l0,20l7-4.1l0-20C85.9,56.1,85.8,55.8,85.8,55.5z"/>
			</g>
			<g>
				<polygon class="st15" points="62.2,101 59.1,102.7 55.6,101 58.7,99.1 				"/>
				<polygon class="st16" points="62.2,124.9 59.1,126.7 59.1,102.7 62.2,101 				"/>
				<polygon class="st17" points="59.1,126.7 55.7,124.7 55.6,104.6 55.1,103.8 55,101.6 55.6,101 59.1,102.7 				"/>
			</g>
			<g>
				<polygon class="st15" points="116.6,69.5 113.6,71.3 110.1,69.5 113.2,67.6 				"/>
				<polygon class="st16" points="116.6,93.5 113.5,95.3 113.5,71.2 116.6,69.5 				"/>
				<polygon class="st17" points="113.6,95.3 110.1,93.3 110.1,69.5 113.5,71.2 				"/>
			</g>
			<g>
				<path class="st7" d="M54.3,40.5c8.3,4.8,16,15.9,17.6,25.8c0.1,0.4-0.2,1-0.7,1.2l1.3,0.5l0.3,15.7l-1.6,1.1L37.1,65l0.1-17.1
					c0.6-3.8,2.2-6.6,4.6-8.1C44.9,37.8,49.4,37.6,54.3,40.5z"/>
				<path class="st8" d="M49.5,35.2c0,0,5.6-3.7,13.9,2.2s12,14.3,12.6,15.9c0.6,1.6,2.6,6.7,2.8,9.8l0,17.4l-7.5,4.4V67.5
					c-0.2-3-2.1-8.2-2.8-9.8c-0.6-1.6-4.3-10-12.6-15.9S42,39.6,42,39.6L49.5,35.2z"/>
			</g>
			<g>
				<g>
					<polygon class="st9" points="50.7,88.2 55.3,85.7 59.8,88.3 55.3,91 50.7,88.2 					"/>
					<polygon class="st10" points="55.2,92 55.3,91 59.8,88.3 59.8,89.3 					"/>
					<polygon points="55.2,92 50.6,89.3 50.7,88.2 55.3,91 					"/>
				</g>
				<g>
					<polygon class="st9" points="56.5,84.8 61.1,82.2 65.7,84.8 61.1,87.5 56.5,84.8 					"/>
					<polygon class="st10" points="61.1,88.5 61.1,87.5 65.7,84.8 65.7,85.8 					"/>
					<polygon points="61.1,88.5 56.5,85.8 56.5,84.8 61.1,87.5 					"/>
				</g>
				<g>
					<path class="st11" d="M64,81.7c0,0.4-0.3,0.8-0.8,1.1c-1.1,0.7-3,0.7-4.2,0c-0.5-0.3-0.9-1-0.9-1l0,2.9l0,0
						c0.1,0.4,0.3,0.8,0.9,1.1c1.1,0.7,3,0.7,4.2,0c0.5-0.3,0.8-0.7,0.8-1.1L64,81.7L64,81.7z"/>
					<path class="st12" d="M63.1,80.5c-1.2-0.7-3-0.7-4.2,0c-0.7,0.4-0.9,0.9-0.8,1.4c0.1,0.4,0.4,0.7,0.9,1c1.2,0.7,3,0.7,4.2,0
						c0.5-0.3,0.8-0.7,0.8-1.1C64,81.4,63.8,80.9,63.1,80.5"/>
				</g>
				<g>
					<path class="st13" d="M58.2,85.2c0,0.4-0.3,0.8-0.8,1.1c-1.1,0.7-3,0.7-4.2,0c-0.5-0.3-0.8-0.6-0.9-1l0,2.9l0,0
						c0.1,0.4,0.3,0.8,0.9,1.1c1.1,0.7,3,0.7,4.2,0c0.5-0.3,0.8-0.7,0.8-1.1l0,0L58.2,85.2L58.2,85.2z"/>
					<path class="st14" d="M57.4,83.9c-1.2-0.7-3-0.7-4.2,0c-0.7,0.4-0.9,0.9-0.8,1.4c0.1,0.4,0.4,0.7,0.9,1c1.2,0.7,3,0.7,4.2,0
						c0.5-0.3,0.8-0.7,0.8-1.1C58.3,84.8,58,84.3,57.4,83.9"/>
				</g>
			</g>
			<g>
				<g>
					<g>
						<polygon class="st8" points="56.1,57.2 45.4,63.2 33.5,57 44.7,51.4 						"/>
						<path class="st6" d="M45.4,63.1l0,0.2l0,6.9c0,1.8-1.3,3.2-2.8,3.6l0,0l13.6-7.3l0-9.3L45.4,63.1z"/>
						<path class="st7" d="M45.4,63.3l0-0.2l-11.9-6l0,13l6.6,3.4c0.8,0.4,1.7,0.5,2.5,0.3c1.6-0.4,2.8-1.8,2.8-3.6L45.4,63.3z"/>
					</g>
					<g>
						<g>
							<g>
								<g>
									<g>
										<path class="st19" d="M41.9,64.3C41,61,38.3,59,36,59.7c-0.1,0-0.6,0.2-0.8,0.4L33.6,61l5.1,10.9l1.7-1
											C42,69.7,42.7,67,41.9,64.3z"/>
									</g>
									
										<ellipse transform="matrix(0.9593 -0.2824 0.2824 0.9593 -17.281 12.9068)" class="st17" cx="36.1" cy="66.4" rx="4.4" ry="6.1"/>
								</g>
							</g>
							<g>
								<g>
									<g>
										<path class="st19" d="M38.8,65.6c-0.7-2.4-2.6-3.9-4.4-3.3c-0.1,0-0.4,0.2-0.6,0.3l-1.1,0.7l3.8,8l1.2-0.7
											C38.9,69.6,39.4,67.6,38.8,65.6z"/>
									</g>
									
										<ellipse transform="matrix(0.9593 -0.2824 0.2824 0.9593 -17.5632 12.4962)" class="st16" cx="34.6" cy="67.2" rx="3.2" ry="4.4"/>
								</g>
							</g>
							<g>
								<g>
									<path class="st18" d="M38.1,66.1c-0.8-2.9-3.2-4.7-5.3-4.1c-0.1,0-0.7,0.3-0.7,0.3c0,0,0,0,0,0L1.7,80.3L6.2,90l30.4-18
										C38.2,71,38.8,68.6,38.1,66.1z"/>
								</g>
								
									<ellipse transform="matrix(0.9593 -0.2824 0.2824 0.9593 -23.8881 4.5825)" class="st15" cx="4" cy="85.2" rx="4" ry="5.4"/>
							</g>
						</g>
					</g>
				</g>
			</g>
			<g>
				<polygon class="st8" points="43,44 24,55 23.2,55.5 43,66.9 43,66.9 43,66.9 62.7,55.4 62,55 				"/>
				<polygon class="st7" points="14.1,32.7 23.2,55.5 43,66.9 44.3,66 43.9,49.6 43.9,48.2 15.8,31.9 				"/>
				<polygon class="st6" points="71.8,32.7 62.7,55.5 43,66.9 43,49.3 42,47.6 70.3,32.1 				"/>
				<polygon class="st8" points="43,16 14.1,32.7 43,49.3 43,49.3 43,49.3 71.8,32.6 				"/>
				<polygon class="st6" points="43,20.1 21.2,32.7 43,45.2 43,45.2 43,45.2 64.7,32.6 63.9,32.2 				"/>
				<polygon class="st7" points="64.7,32.6 63.9,32.2 43,20.1 43,20.1 43,45.2 43,45.2 43,45.2 43,45.2 				"/>
			</g>
		</g>
	</g>
</g>
</svg>
