<?xml version="1.0" encoding="utf-8"?>
<!-- Generator: Adobe Illustrator 23.0.3, SVG Export Plug-In . SVG Version: 6.00 Build 0)  -->
<svg version="1.2" baseProfile="tiny" id="Capa_1" xmlns="http://www.w3.org/2000/svg" xmlns:xlink="http://www.w3.org/1999/xlink"
	 x="0px" y="0px" viewBox="0 0 59.54 80.42" xml:space="preserve">
<g>
	<rect x="16.7" y="39.56" fill="#706F6F" width="24.2" height="9.05"/>
	<polygon fill="#706F6F" points="31.37,71.89 52.11,63.67 52.11,48.61 31.37,56.83 	"/>
	<path fill="#706F6F" d="M8.23,52.65c0.46-0.35,9.66-5.04,9.66-5.04l0.2,9.1L8.23,52.65z"/>
	<path fill="#B2B2B2" d="M2.87,38.13h2.12v6.93v28.43v6.93H2.87C1.28,80.42,0,70.96,0,59.28C0,47.6,1.28,38.13,2.87,38.13z"/>
	<ellipse fill-rule="evenodd" fill="#706F6F" cx="4.98" cy="59.28" rx="1.99" ry="21.15"/>
	<path fill="#B2B2B2" d="M56.68,38.13h-2.12v6.93v28.43v6.93h2.12c1.58,0,2.87-9.47,2.87-21.15C59.54,47.6,58.26,38.13,56.68,38.13z
		"/>
	<ellipse fill-rule="evenodd" fill="#706F6F" cx="54.56" cy="59.28" rx="1.99" ry="21.15"/>
	<path fill="#B2B2B2" d="M28.51,63.09c-5.59-0.15-10.42-6.38-10.42-6.38L6.9,52.11l-0.42-0.17c-1.1,0-1.99,3.36-1.99,7.51
		c0,3.61,0.68,6.63,1.58,7.35l0.41,0.16l17.67,7c0,0,8.02,1.8,11-3.57v-8.37C35.15,62.02,32.83,63.21,28.51,63.09z"/>
	<path fill="#706F6F" d="M55,58.56c0-0.75-0.02-1.47-0.05-2.16v4.32C54.99,60.04,55,59.32,55,58.56z"/>
	<polygon fill="#706F6F" points="53.79,51 53.79,51 53.79,51 	"/>
	<path fill="#B2B2B2" d="M53.79,51L53.79,51l-19.57-5.13l0.12,0.81l-16.45,1.94v8.1c3.69,9.67,18.9,6.14,18.9,6.14l17,3.28
		c0.55,0,1.02-2.28,1.17-5.41v-4.32C54.8,53.28,54.34,51,53.79,51z"/>
	<path fill="#B2B2B2" d="M16.7,45.15v2.51c0,0.53,0.43,0.95,0.95,0.95h3.63c0.53,0,0.95-0.43,0.95-0.95v-2.51
		c0-0.53-0.43-0.95-0.95-0.95h-3.63C17.13,44.2,16.7,44.62,16.7,45.15z"/>
	<path fill="#B2B2B2" d="M36.49,48.61h3.47c0.52,0,0.94-0.42,0.94-0.94v-2.53c0-0.52-0.42-0.94-0.94-0.94h-3.47
		c-0.52,0-0.94,0.42-0.94,0.94v2.53C35.54,48.19,35.97,48.61,36.49,48.61z"/>
	<path fill="#DADADA" d="M22.23,45.28v2.24c0,0.6,0.49,1.09,1.09,1.09h11.13c0.6,0,1.09-0.49,1.09-1.09v-2.24
		c0-0.6-0.49-1.09-1.09-1.09H23.32C22.72,44.2,22.23,44.68,22.23,45.28z"/>
	<path fill="#706F6F" d="M6.48,51.93L6.48,51.93l0.42,0.17C6.77,51.99,6.62,51.93,6.48,51.93z"/>
	<path fill="#706F6F" d="M6.48,66.96l-0.41-0.16C6.2,66.9,6.34,66.96,6.48,66.96L6.48,66.96z"/>
	<rect x="20.61" y="20.8" fill="#DADADA" width="15.85" height="1.38"/>
	<path fill="#B2B2B2" d="M22.54,26.14h-1.14V15.98h2.69v8.61C24.09,25.44,23.4,26.14,22.54,26.14z"/>
	<path fill="#B2B2B2" d="M35.36,26.14h1.14V15.98h-2.69v8.61C33.81,25.44,34.5,26.14,35.36,26.14z"/>
	<g>
		<path fill="#706F6F" d="M18.14,37.8v1.76h3.25v-1.82c0,0,0.27-0.23,0.68-0.41v-0.22H16.7v0.01C17.55,37.19,18.14,37.8,18.14,37.8z
			"/>
		<path fill-rule="evenodd" fill="#DADADA" d="M18.14,39.56v-1.82c0,0,0.72-0.63,1.66-0.63c0.94,0,1.59,0.69,1.59,0.69v1.76H18.14z"
			/>
		<path fill="#B2B2B2" d="M16.7,37.12v2.44h1.44V37.8C18.14,37.8,17.55,37.19,16.7,37.12z"/>
		<path fill="#B2B2B2" d="M21.38,39.56h0.68v-2.23c-0.42,0.18-0.68,0.41-0.68,0.41V39.56z"/>
	</g>
	<g>
		<path fill="#706F6F" d="M26.77,1.21v3.08h5.68V1.1c0,0,0.46-0.4,1.19-0.72V0h-9.38v0.02C25.75,0.15,26.77,1.21,26.77,1.21z"/>
		<path fill-rule="evenodd" fill="#DADADA" d="M26.77,4.28V1.1c0,0,1.26-1.1,2.9-1.1c1.64,0,2.78,1.21,2.78,1.21v3.08H26.77z"/>
		<path fill="#B2B2B2" d="M24.26,0.02v4.26h2.51V1.21C26.77,1.21,25.75,0.15,24.26,0.02z"/>
		<path fill="#B2B2B2" d="M32.45,4.28h1.19v-3.9C32.91,0.7,32.45,1.1,32.45,1.1V4.28z"/>
	</g>
	<g>
		<path fill="#706F6F" d="M37.03,37.83v1.73h3.19v-1.79c0,0,0.26-0.23,0.67-0.4v-0.21h-5.27v0.01
			C36.46,37.23,37.03,37.83,37.03,37.83z"/>
		<path fill-rule="evenodd" fill="#DADADA" d="M37.03,39.56v-1.79c0,0,0.71-0.62,1.63-0.62c0.92,0,1.56,0.68,1.56,0.68v1.73H37.03z"
			/>
		<path fill="#B2B2B2" d="M35.62,37.16v2.4h1.41v-1.73C37.03,37.83,36.46,37.23,35.62,37.16z"/>
		<path fill="#B2B2B2" d="M40.23,39.56h0.67v-2.19c-0.41,0.18-0.67,0.4-0.67,0.4V39.56z"/>
	</g>
	<path fill="#DADADA" d="M32.89,34.88h-7.87c-4.11,0-7.45-3.34-7.45-7.45v-7.87c0-4.11,3.34-7.45,7.45-7.45h7.87
		c4.11,0,7.45,3.34,7.45,7.45v7.87C40.34,31.53,37,34.88,32.89,34.88z M25.01,15.98c-1.97,0-3.57,1.6-3.57,3.57v7.87
		c0,1.97,1.6,3.57,3.57,3.57h7.87c1.97,0,3.57-1.6,3.57-3.57v-7.87c0-1.97-1.6-3.57-3.57-3.57H25.01z"/>
	<rect x="27.61" y="15.98" fill="#B2B2B2" width="2.69" height="15.02"/>
	<path fill="#706F6F" d="M33.44,12.39h-8.99V8.42c0-1.05,0.85-1.91,1.91-1.91h5.17c1.05,0,1.91,0.85,1.91,1.91V12.39z"/>
	<path fill="#706F6F" d="M52.36,8.74H6.15c-0.67,0-1.21-0.54-1.21-1.21V5.49c0-0.67,0.54-1.21,1.21-1.21h46.21
		c0.67,0,1.21,0.54,1.21,1.21v2.04C53.57,8.2,53.03,8.74,52.36,8.74z"/>
	<path fill="#B2B2B2" d="M21.26,39.56h-3.58c-0.54,0-0.98,0.44-0.98,0.98v2.46c0,0.54,0.44,0.98,0.98,0.98h3.58
		c0.54,0,0.98-0.44,0.98-0.98v-2.46C22.23,40,21.8,39.56,21.26,39.56z"/>
	<path fill="#DADADA" d="M35.54,42.84v-2.15c0-0.63-0.51-1.13-1.13-1.13H23.37c-0.63,0-1.13,0.51-1.13,1.13v2.15
		c0,0.63,0.51,1.13,1.13,1.13h11.04C35.04,43.97,35.54,43.46,35.54,42.84z"/>
	<path fill="#B2B2B2" d="M35.54,40.55v2.44c0,0.55,0.44,0.99,0.99,0.99h3.38c0.55,0,0.99-0.44,0.99-0.99v-2.44
		c0-0.55-0.44-0.99-0.99-0.99h-3.38C35.99,39.56,35.54,40,35.54,40.55z"/>
	<path fill="#B2B2B2" d="M35.71,39.56H22.06v-4.4c0-0.56,0.46-1.02,1.02-1.02h11.61c0.56,0,1.02,0.46,1.02,1.02V39.56z"/>
	<path fill="#B2B2B2" d="M32.48,34.14h-7.19v-4.4c0-0.56,0.46-1.02,1.02-1.02h5.15c0.56,0,1.02,0.46,1.02,1.02V34.14z"/>
	<path fill="#B2B2B2" d="M33.19,16.77h-8.48c-0.82,0-1.48-0.66-1.48-1.48V13.1c0-0.82,0.66-1.48,1.48-1.48h8.48
		c0.82,0,1.48,0.66,1.48,1.48v2.18C34.67,16.1,34.01,16.77,33.19,16.77z"/>
	<path fill="#B2B2B2" d="M32.02,18.32h-6.14c-0.5,0-0.9-0.4-0.9-0.9v-1.32c0-0.5,0.4-0.9,0.9-0.9h6.14c0.5,0,0.9,0.4,0.9,0.9v1.32
		C32.92,17.92,32.52,18.32,32.02,18.32z"/>
	<path fill="#B2B2B2" d="M31.31,24.49h-4.72c-0.46,0-0.83-0.37-0.83-0.83v-1.21c0-0.46,0.37-0.83,0.83-0.83h4.72
		c0.46,0,0.83,0.37,0.83,0.83v1.21C32.14,24.12,31.77,24.49,31.31,24.49z"/>
	<path fill="#B2B2B2" d="M30.66,25.35h-3.42c-0.28,0-0.5-0.22-0.5-0.5v-0.73c0-0.28,0.22-0.5,0.5-0.5h3.42c0.28,0,0.5,0.22,0.5,0.5
		v0.73C31.16,25.13,30.94,25.35,30.66,25.35z"/>
	<path fill="#B2B2B2" d="M31.5,33.43h-5.1c-4.08,0-7.4-3.32-7.4-7.4v-5.09c0-4.08,3.32-7.4,7.4-7.4h5.1c4.08,0,7.4,3.32,7.4,7.4
		v5.09C38.9,30.11,35.58,33.43,31.5,33.43z M26.4,14.84c-3.36,0-6.1,2.73-6.1,6.1v5.09c0,3.36,2.73,6.1,6.1,6.1h5.1
		c3.36,0,6.1-2.73,6.1-6.1v-5.09c0-3.36-2.73-6.1-6.1-6.1H26.4z"/>
</g>
</svg>
