<?xml version="1.0" encoding="UTF-8" standalone="no"?>
<!-- Svg Vector Icons : http://www.onlinewebfonts.com/icon -->

<svg
   xmlns:dc="http://purl.org/dc/elements/1.1/"
   xmlns:cc="http://creativecommons.org/ns#"
   xmlns:rdf="http://www.w3.org/1999/02/22-rdf-syntax-ns#"
   xmlns:svg="http://www.w3.org/2000/svg"
   xmlns="http://www.w3.org/2000/svg"
   xmlns:sodipodi="http://sodipodi.sourceforge.net/DTD/sodipodi-0.dtd"
   xmlns:inkscape="http://www.inkscape.org/namespaces/inkscape"
   version="1.1"
   x="0px"
   y="0px"
   viewBox="0 0 1109.4126 1180.1"
   enable-background="new 0 0 1000 1000"
   xml:space="preserve"
   id="svg26"
   sodipodi:docname="tab_albaranes_1.svg"
   width="1109.4126"
   height="1180.1"
   inkscape:version="0.92.5 (2060ec1f9f, 2020-04-08)"><defs
   id="defs30" /><sodipodi:namedview
   pagecolor="#ffffff"
   bordercolor="#666666"
   borderopacity="1"
   objecttolerance="10"
   gridtolerance="10"
   guidetolerance="10"
   inkscape:pageopacity="0"
   inkscape:pageshadow="2"
   inkscape:window-width="1920"
   inkscape:window-height="1057"
   id="namedview28"
   showgrid="false"
   inkscape:zoom="0.25"
   inkscape:cx="-482.64589"
   inkscape:cy="574.92294"
   inkscape:window-x="1592"
   inkscape:window-y="-8"
   inkscape:window-maximized="1"
   inkscape:current-layer="svg26"
   fit-margin-top="100"
   fit-margin-right="100"
   fit-margin-bottom="100"
   fit-margin-left="100" />
<metadata
   id="metadata2"> Svg Vector Icons : http://www.onlinewebfonts.com/icon <rdf:RDF><cc:Work
     rdf:about=""><dc:format>image/svg+xml</dc:format><dc:type
       rdf:resource="http://purl.org/dc/dcmitype/StillImage" /><dc:title></dc:title></cc:Work></rdf:RDF></metadata>
<g
   id="g24"
   style="fill:#014898;fill-opacity:0.94117647"
   transform="translate(64.7,90)"><path
     d="M 726.8,921.8 H 113.5 V 129.7 h 47 V 61.6 H 45.3 v 860.3 c 0,37.7 30.5,68.2 68.2,68.2 H 794.9 V 715.9 l -68.1,68.2 z m 0,-860.2 h -47.1 v 68.2 h 47.1 V 527.2 L 791,463 c 1.2,-1.2 2.7,-2.1 4,-3.2 v -330 C 794.9,92 764.3,61.6 726.8,61.6 Z"
     id="path4"
     style="fill:#014898;fill-opacity:0.94117647"
     inkscape:connector-curvature="0" /><path
     d="m 605.5,163.4 c -12.5,0 -22.7,-10.9 -22.7,-24.2 V 34.2 C 582.8,20.8 592.9,10 605.5,10 v 0 c 12.6,0 22.8,10.8 22.8,24.2 v 105 c 0,13.3 -10.2,24.2 -22.8,24.2 z"
     id="path6"
     style="fill:#014898;fill-opacity:0.94117647"
     inkscape:connector-curvature="0" /><path
     d="M 512.8,163.4 C 500.1,163.4 490,152.5 490,139.2 V 34.2 C 490,20.8 500.1,10 512.8,10 v 0 c 12.5,0 22.7,10.8 22.7,24.2 v 105 c 0,13.3 -10.1,24.2 -22.7,24.2 z"
     id="path8"
     style="fill:#014898;fill-opacity:0.94117647"
     inkscape:connector-curvature="0" /><path
     d="m 420.1,163.4 c -12.5,0 -22.7,-10.9 -22.7,-24.2 V 34.2 C 397.4,20.8 407.6,10 420.1,10 v 0 c 12.6,0 22.8,10.8 22.8,24.2 v 105 c 0,13.3 -10.2,24.2 -22.8,24.2 z"
     id="path10"
     style="fill:#014898;fill-opacity:0.94117647"
     inkscape:connector-curvature="0" /><path
     d="m 327.4,163.4 c -12.5,0 -22.7,-10.9 -22.7,-24.2 V 34.2 C 304.7,20.8 314.8,10 327.4,10 v 0 c 12.5,0 22.7,10.8 22.7,24.2 v 105 c 0,13.3 -10.2,24.2 -22.7,24.2 z"
     id="path12"
     style="fill:#014898;fill-opacity:0.94117647"
     inkscape:connector-curvature="0" /><path
     d="M 234.7,163.4 C 222.1,163.4 212,152.5 212,139.2 V 34.2 C 212,20.8 222.1,10 234.7,10 v 0 c 12.5,0 22.7,10.8 22.7,24.2 v 105 c 0,13.3 -10.2,24.2 -22.7,24.2 z"
     id="path14"
     style="fill:#014898;fill-opacity:0.94117647"
     inkscape:connector-curvature="0" /><path
     d="M 240.4,357.3 H 600 v 56.8 H 240.4 Z"
     id="path16"
     style="fill:#014898;fill-opacity:0.94117647"
     inkscape:connector-curvature="0" /><path
     d="M 240.4,470.8 H 600 v 56.8 H 240.4 Z"
     id="path18"
     style="fill:#014898;fill-opacity:0.94117647"
     inkscape:connector-curvature="0" /><path
     d="m 947,463.4 -27.7,-27.8 c -10,-10.1 -26.4,-10.1 -36.4,0 l -27.7,27.7 64.2,64.3 27.5,-27.7 c 10.4,-10.1 10.4,-26.4 0.1,-36.5 z"
     id="path20"
     style="fill:#014898;fill-opacity:0.94117647"
     inkscape:connector-curvature="0" /><path
     d="M 611.5,706.6 571,811.3 675.8,770.8 887.4,559.2 823.2,495 Z"
     id="path22"
     style="fill:#014898;fill-opacity:0.94117647"
     inkscape:connector-curvature="0" /></g>
</svg>