<?xml version="1.0" encoding="UTF-8" standalone="no"?>
<!-- Svg Vector Icons : http://www.onlinewebfonts.com/icon -->

<svg
   xmlns:dc="http://purl.org/dc/elements/1.1/"
   xmlns:cc="http://creativecommons.org/ns#"
   xmlns:rdf="http://www.w3.org/1999/02/22-rdf-syntax-ns#"
   xmlns:svg="http://www.w3.org/2000/svg"
   xmlns="http://www.w3.org/2000/svg"
   xmlns:sodipodi="http://sodipodi.sourceforge.net/DTD/sodipodi-0.dtd"
   xmlns:inkscape="http://www.inkscape.org/namespaces/inkscape"
   version="1.1"
   x="0px"
   y="0px"
   viewBox="0 0 1000 1000"
   enable-background="new 0 0 1000 1000"
   xml:space="preserve"
   id="svg8"
   sodipodi:docname="tab_materiales_1.svg"
   inkscape:version="0.92.5 (2060ec1f9f, 2020-04-08)"><defs
   id="defs12" /><sodipodi:namedview
   pagecolor="#ffffff"
   bordercolor="#666666"
   borderopacity="1"
   objecttolerance="10"
   gridtolerance="10"
   guidetolerance="10"
   inkscape:pageopacity="0"
   inkscape:pageshadow="2"
   inkscape:window-width="1920"
   inkscape:window-height="1057"
   id="namedview10"
   showgrid="false"
   inkscape:zoom="0.6675088"
   inkscape:cx="661.4884"
   inkscape:cy="501.814"
   inkscape:window-x="-8"
   inkscape:window-y="-8"
   inkscape:window-maximized="1"
   inkscape:current-layer="svg8" />
<metadata
   id="metadata2"> Svg Vector Icons : http://www.onlinewebfonts.com/icon <rdf:RDF><cc:Work
     rdf:about=""><dc:format>image/svg+xml</dc:format><dc:type
       rdf:resource="http://purl.org/dc/dcmitype/StillImage" /><dc:title></dc:title></cc:Work></rdf:RDF></metadata>
<path
   inkscape:connector-curvature="0"
   id="path4"
   d="m 983.95169,796.37373 -87.09406,-31.45 C 844.15378,750.92392 724.49918,645.57531 715.85401,585.18241 699.73698,472.59304 586.72748,355.17221 501.45424,351.01525 c -19.7,0 -176.33051,100.78306 -183.93051,117.58306 C 252.92079,685.58274 206.90042,457.96409 30.2,790.1 h -0.8 v 1.3 L 13,819.8 c -1.9,2.5 -3.1,5.6 -3.1,8.9 0,8.2 6.6,14.9 14.8,14.9 1.6,0 3.2,-0.3 4.6,-0.8 v 1 H 211.9 427 964.1 v -0.5 c 14.5,-1.2 25.9,-13.1 25.9,-27.9 0,-4.8 -3.94831,-15.12627 -6.04831,-19.02627 z"
   sodipodi:nodetypes="ccsccccccssccccccsc"
   style="fill:#014898;fill-opacity:0.94117647" />
</svg>