<?xml version="1.0" encoding="UTF-8" standalone="no"?>
<!-- Svg Vector Icons : http://www.onlinewebfonts.com/icon -->

<svg
   xmlns:dc="http://purl.org/dc/elements/1.1/"
   xmlns:cc="http://creativecommons.org/ns#"
   xmlns:rdf="http://www.w3.org/1999/02/22-rdf-syntax-ns#"
   xmlns:svg="http://www.w3.org/2000/svg"
   xmlns="http://www.w3.org/2000/svg"
   xmlns:sodipodi="http://sodipodi.sourceforge.net/DTD/sodipodi-0.dtd"
   xmlns:inkscape="http://www.inkscape.org/namespaces/inkscape"
   version="1.1"
   x="0px"
   y="0px"
   viewBox="0 0 986.40002 1180"
   enable-background="new 0 0 1000 1000"
   xml:space="preserve"
   id="svg8"
   sodipodi:docname="tab_registro_1.svg"
   width="986.40002"
   height="1180"
   inkscape:version="0.92.5 (2060ec1f9f, 2020-04-08)"><defs
   id="defs12" /><sodipodi:namedview
   pagecolor="#ffffff"
   bordercolor="#666666"
   borderopacity="1"
   objecttolerance="10"
   gridtolerance="10"
   guidetolerance="10"
   inkscape:pageopacity="0"
   inkscape:pageshadow="2"
   inkscape:window-width="1920"
   inkscape:window-height="1057"
   id="namedview10"
   showgrid="false"
   fit-margin-top="100"
   fit-margin-left="100"
   fit-margin-right="100"
   fit-margin-bottom="100"
   inkscape:zoom="0.236"
   inkscape:cx="493.2"
   inkscape:cy="590"
   inkscape:window-x="1592"
   inkscape:window-y="-8"
   inkscape:window-maximized="1"
   inkscape:current-layer="svg8" />
<metadata
   id="metadata2"> Svg Vector Icons : http://www.onlinewebfonts.com/icon <rdf:RDF><cc:Work
     rdf:about=""><dc:format>image/svg+xml</dc:format><dc:type
       rdf:resource="http://purl.org/dc/dcmitype/StillImage" /><dc:title></dc:title></cc:Work></rdf:RDF></metadata>
<g
   id="g6"
   transform="translate(-6.8,90)"
   style="fill:#014898;fill-opacity:1"><path
     d="m 219,78.8 c -9.5,0 -17.3,7.7 -17.3,17.2 0,9.5 7.7,17.2 17.3,17.2 h 656 c 9.5,0 17.2,-7.7 17.2,-17.2 0,-9.5 -7.7,-17.2 -17.2,-17.2 z m 656,68.7 H 219 c -9.5,0 -17.3,7.7 -17.3,17.2 0,9.5 7.7,17.2 17.3,17.2 h 656 c 9.5,0 17.2,-7.7 17.2,-17.2 0.1,-9.5 -7.7,-17.2 -17.2,-17.2 z m -647.4,68.8 c -47.6,0 -86.3,-33.7 -86.3,-77.9 v -16 c 0,-44.2 38.7,-78 86.3,-78 h 656 V 10 h -656 C 161,10 106.8,60.4 106.8,122.3 v 16 c 0,4 0.2,8 0.7,11.9 V 869.6 C 107.4,936 161,990 227.6,990 h 535.2 c 66.6,0 130.4,-54 130.4,-120.4 V 216.3 Z m 631.5,670.5 h -1.7 c -2.5,12.5 -8,23.9 -15.3,33.8 v 0.6 h -0.4 C 826.1,942 791,955.6 762.9,955.6 H 227.6 c -28.1,0 -52.9,-13.6 -68.7,-34.4 h -0.4 v -0.6 c -7.4,-9.9 -12.9,-21.3 -15.5,-33.8 h -1.8 v -670 c 22,20.9 52.5,33.8 86.3,33.8 H 859 V 886.8 Z M 324,594.5 h 352.5 c 25.2,0 45.7,-20.6 45.7,-46.1 V 399.9 c 0,-25.4 -20.5,-46.1 -45.7,-46.1 H 324 c -25.2,0 -45.8,20.7 -45.8,46.1 v 148.6 c 0,25.4 20.6,46 45.8,46 z M 312.4,399.9 c 0,-6.4 5.2,-11.7 11.6,-11.7 h 352.5 c 6.4,0 11.6,5.3 11.6,11.7 v 148.6 c 0,6.4 -5.2,11.7 -11.6,11.7 H 324 c -6.4,0 -11.6,-5.2 -11.6,-11.7 z M 564.3,749.3 H 426.1 c -9.5,0 -17.3,7.7 -17.3,17.2 0,9.5 7.7,17.2 17.3,17.2 h 138.1 c 9.5,0 17.2,-7.7 17.2,-17.2 0.1,-9.5 -7.6,-17.2 -17.1,-17.2 z m -34.6,68.8 h -69.1 c -9.5,0 -17.2,7.7 -17.2,17.2 0,9.5 7.7,17.2 17.2,17.2 h 69.1 c 9.5,0 17.2,-7.7 17.2,-17.2 0.1,-9.6 -7.6,-17.2 -17.2,-17.2 z"
     id="path4"
     inkscape:connector-curvature="0"
     style="fill:#014898;fill-opacity:1" /></g>
</svg>