<svg width="55" height="55" xmlns="http://www.w3.org/2000/svg" xmlns:xlink="http://www.w3.org/1999/xlink" preserveAspectRatio="xMidYMid meet">
 <defs>
  <path id="bgA8nIq4P" d="m42.130001,39.009998c-0.010002,-0.019997 -0.030003,-0.049999 -0.049999,-0.079998c-0.610001,-0.98 -0.84,-3.43 -0.980003,-4.889999c-0.019997,-0.220001 -0.039997,-0.43 -0.059998,-0.630001c0,-0.02 0,-0.040001 -0.010002,-0.07c-0.309998,-2.200001 -1.09,-5.380001 -3.029999,-8c-1.34,-1.82 -3.009998,-3.040001 -4.959999,-3.65c-0.200001,-1.42 -1.42,-2.51 -2.890001,-2.51c-1.469999,0 -2.690001,1.09 -2.889999,2.51c-1.950001,0.609999 -3.620001,1.83 -4.960001,3.65c-1.939999,2.619999 -2.719999,5.799999 -3.039999,8c0,0 0,0.02 0,0.02c0,0.02 -0.01,0.040001 -0.01,0.049999c-0.02,0.200001 -0.040001,0.41 -0.059999,0.630001c-0.130001,1.459999 -0.360001,3.91 -0.980001,4.899998c-0.009998,0.02 -0.019999,0.040001 -0.039999,0.060001c-0.16,0.299999 -0.5,0.59 -0.85,0.900002c-0.860001,0.75 -2.65,2.329998 -1.17,5.07c0.280001,0.529999 0.83,0.860001 1.440001,0.860001c2.51,0 22.610001,0 25.119999,0c0.600002,0 1.150002,-0.330002 1.440002,-0.860001c1.48,-2.740002 -0.32,-4.32 -1.18,-5.07c-0.350002,-0.310001 -0.68,-0.600002 -0.84,-0.890003z"/>
  <path id="leKnJOfiz" d="m27.190001,48.580002c-0.24,0 -0.460001,0.099998 -0.620001,0.279999c-0.279999,0.34 -0.199999,0.799999 -0.15,1.07c0,0 0,0.02 0,0.02c0.32,1.809998 1.879999,3.130001 3.719999,3.130001c1.880001,0 3.490002,-1.400002 3.75,-3.25c0,-0.010002 0,-0.030003 0,-0.030003c0.040001,-0.169998 0.110001,-0.57 -0.169998,-0.899998c-0.100002,-0.120003 -0.32,-0.32 -0.720001,-0.32c-1.16,0 -5.23,0 -5.809999,0z"/>
  <path id="c5CsDfkYG" d="m17.34,6.54c-3.26,0.53 -6.28,2.19 -8.49,4.65c-2.22,2.47 -3.5,5.54 -3.7,8.850001c-0.07,1.199999 0.84,2.23 2.03,2.299999c0.05,0 0.09,0 0.14,0c1.13,0 2.09,-0.880001 2.159999,-2.030001c0.14,-2.34 1.040001,-4.49 2.6,-6.219999c1.57,-1.76 3.64,-2.89 5.960001,-3.27c1.189999,-0.2 1.99,-1.309999 1.789999,-2.49c-0.190001,-1.18 -1.299999,-1.99 -2.49,-1.79z"/>
  <path id="irF4QWUcy" d="m18.540001,20.02c0.839998,-0.940001 1.939999,-1.540001 3.179998,-1.74c1.18,-0.200001 1.980001,-1.310001 1.790001,-2.490001c-0.190001,-1.18 -1.309999,-1.98 -2.49,-1.79c-2.190001,0.36 -4.220001,1.47 -5.700001,3.120001c-1.469999,1.639999 -2.349999,3.75 -2.49,5.949999c-0.07,1.190001 0.84,2.220001 2.04,2.290001c0.04,0.01 0.08,0.01 0.13,0.01c1.139999,0 2.09,-0.890001 2.16,-2.040001c0.08,-1.24 0.549999,-2.389999 1.380001,-3.309999z"/>
  <path id="iKs3a2wK6" d="m51.439999,11.19c-2.209999,-2.46 -5.219997,-4.119999 -8.489998,-4.65c-1.18,-0.2 -2.299999,0.61 -2.490002,1.79c-0.189999,1.18 0.610001,2.29 1.790001,2.49c2.330002,0.38 4.389999,1.51 5.970001,3.27c1.559998,1.73 2.459999,3.879999 2.599998,6.219999c0.07,1.15 1.02,2.030001 2.16,2.030001c0.040001,0 0.09,0 0.130001,0c1.200001,-0.07 2.110001,-1.1 2.029999,-2.299999c-0.200001,-3.310001 -1.48,-6.380001 -3.700001,-8.850001z"/>
  <path id="l73f9GogRe" d="m39.27,14c-1.18,-0.19 -2.290001,0.61 -2.490002,1.79c-0.189999,1.179999 0.610001,2.3 1.790001,2.490001c1.240002,0.199999 2.34,0.799999 3.18,1.74c0.830002,0.92 1.310001,2.07 1.380001,3.309999c0.07,1.15 1.029999,2.040001 2.169998,2.040001c0.040001,0 0.080002,0 0.130001,-0.01c1.189999,-0.07 2.099998,-1.09 2.029999,-2.290001c-0.129997,-2.199999 -1.009998,-4.309999 -2.48,-5.949999c-1.489998,-1.650001 -3.509998,-2.760001 -5.709999,-3.120001z"/>
 </defs>
 <g>
  <g id="svg_4">
   <use x="-2.644705" y="-2.294745" id="svg_5" fill="#014898" xlink:href="#bgA8nIq4P"/>
   <g id="svg_6">
    <use x="-2.644705" y="-2.294745" id="svg_7" fill-opacity="0" xlink:href="#bgA8nIq4P"/>
   </g>
  </g>
  <g id="svg_8">
   <use x="-2.644705" y="-2.294745" id="svg_9" fill="#014898" xlink:href="#leKnJOfiz"/>
   <g id="svg_10">
    <use x="-2.644705" y="-2.294745" id="svg_11" fill-opacity="0" xlink:href="#leKnJOfiz"/>
   </g>
  </g>
  <g id="svg_12">
   <use x="-2.644705" y="-2.294745" id="svg_13" fill="#014898" xlink:href="#c5CsDfkYG"/>
   <g id="svg_14">
    <use x="-2.644705" y="-2.294745" id="svg_15" fill-opacity="0" xlink:href="#c5CsDfkYG"/>
   </g>
  </g>
  <g id="svg_16">
   <use x="-2.644705" y="-2.294745" id="svg_17" fill="#014898" xlink:href="#irF4QWUcy"/>
   <g id="svg_18">
    <use x="-2.644705" y="-2.294745" id="svg_19" stroke-opacity="0" fill-opacity="0" xlink:href="#irF4QWUcy"/>
   </g>
  </g>
  <g id="svg_20">
   <use x="-2.644705" y="-2.294745" id="svg_21" fill="#014898" xlink:href="#iKs3a2wK6"/>
   <g id="svg_22">
    <use x="-2.644705" y="-2.294745" id="svg_23" fill-opacity="0" xlink:href="#iKs3a2wK6"/>
   </g>
  </g>
  <g id="svg_24">
   <use x="-2.644705" y="-2.294745" id="svg_25" fill="#014898" xlink:href="#l73f9GogRe"/>
   <g id="svg_26">
    <use x="-2.644705" y="-2.294745" id="svg_27" fill-opacity="0" xlink:href="#l73f9GogRe"/>
   </g>
  </g>
 </g>
</svg>