<?xml version="1.0" encoding="UTF-8" standalone="no"?>
<svg
   xmlns:dc="http://purl.org/dc/elements/1.1/"
   xmlns:cc="http://creativecommons.org/ns#"
   xmlns:rdf="http://www.w3.org/1999/02/22-rdf-syntax-ns#"
   xmlns:svg="http://www.w3.org/2000/svg"
   xmlns="http://www.w3.org/2000/svg"
   xmlns:sodipodi="http://sodipodi.sourceforge.net/DTD/sodipodi-0.dtd"
   xmlns:inkscape="http://www.inkscape.org/namespaces/inkscape"
   width="500"
   height="500"
   version="1.1"
   id="svg16"
   sodipodi:docname="tab_codigos_2.svg"
   inkscape:version="0.92.5 (2060ec1f9f, 2020-04-08)">
  <defs
     id="defs20" />
  <sodipodi:namedview
     pagecolor="#ffffff"
     bordercolor="#666666"
     borderopacity="1"
     objecttolerance="10"
     gridtolerance="10"
     guidetolerance="10"
     inkscape:pageopacity="0"
     inkscape:pageshadow="2"
     inkscape:window-width="1920"
     inkscape:window-height="1057"
     id="namedview18"
     showgrid="false"
     inkscape:zoom="0.24928571"
     inkscape:cx="700"
     inkscape:cy="250"
     inkscape:window-x="1592"
     inkscape:window-y="-8"
     inkscape:window-maximized="1"
     inkscape:current-layer="svg16" />
  <metadata
     id="metadata2">Svg Vector Icons : http://www.onlinewebfonts.com/icon<rdf:RDF>
  <cc:Work
     rdf:about="">
    <dc:format>image/svg+xml</dc:format>
    <dc:type
       rdf:resource="http://purl.org/dc/dcmitype/StillImage" />
    <dc:title></dc:title>
  </cc:Work>
</rdf:RDF>
</metadata>
  <g
     id="g7">
    <title
       id="title4">background</title>
    <rect
       id="canvas_background"
       height="502"
       width="1402"
       y="-1"
       x="-1"
       style="fill:none" />
  </g>
  <g
     id="svg_1"
     stroke="null"
     style="fill:#ffffff;fill-opacity:1">
    <path
       style="fill:#ffffff;fill-opacity:1;stroke:#ffffff"
       inkscape:connector-curvature="0"
       d="m 391.04001,178.18856 v -47.82857 c 0,-13.2 -10.69714,-23.93143 -23.93143,-23.93143 H 127.86286 c -13.2,0 -23.93143,10.69714 -23.93143,23.93143 v 47.86286 H 80 v -47.86286 c 0,-26.43429 21.42857,-47.862858 47.86286,-47.862858 h 239.28001 c 26.4,0 47.82857,21.428568 47.82857,47.862858 v 47.86286 h -23.93143 v -0.0343 z m 24.96,83.76 H 80 V 238.01714 H 416.00001 Z M 103.93143,369.60571 c 0,13.2 10.69714,23.93143 23.93143,23.93143 h 239.28001 c 13.2,0 23.93142,-10.69714 23.93142,-23.93143 v -47.82857 h 23.89715 V 369.64 c 0,26.43428 -21.42857,47.86285 -47.86286,47.86285 H 127.86286 C 101.42857,417.46857 80.000001,396.04 80.000001,369.60571 v -47.82857 h 23.931429 z"
       id="svg_2" />
  </g>
</svg>
