<svg width="717" height="983" xmlns="http://www.w3.org/2000/svg">
  <g id="svg_1" transform="translate(0, 512) scale(0.1, -0.1)">
   <path id="svg_2" d="m4473.817383,5069.300293c-505.600342,-70.899902 -1218.100342,-436.700195 -1884.600098,-971c-316,-250.899658 -898.200195,-834.999756 -1158.699951,-1160.599854c-1005.5,-1258.299561 -1509.200195,-2644.899689 -1411.499998,-3889.699646c145.599852,-1840.500061 1120.3999,-3198.400208 2602.799803,-3625.500305c1177.799805,-339 2478.300049,-63.200195 3395.700439,722.100342c639.599609,547.699951 1062.899414,1367.399902 1137.599609,2200.5c28.700195,329.400024 -76.599609,777.599915 -262.400391,1103.099915c-205,358.200027 -486.5,685.700043 -1076.399414,1254.500061c-371.5,358.200073 -375.400391,362 -471.100586,555.400146c-170.399414,344.699951 -231.699219,710.5 -191.5,1154.89978c19.100586,218.300049 70.900391,528.600098 124.5,741.199951c13.400391,49.800049 11.5,51.700195 -61.299805,51.700195c-185.799805,0 -463.5,-111.100098 -729.700195,-293c-86.199219,-61.300049 -160.899414,-109.199951 -164.699219,-109.199951c-5.700195,0 -19.200195,61.299805 -30.600586,137.899902c-34.5,197.300049 -13.399414,704.800049 36.400391,919.300049c65.099609,283.399902 168.599609,566.899902 327.5,894.399902c84.299805,172.399902 153.200195,316 153.200195,319.799805c-0.100586,9.600098 -258.600586,3.799805 -335.200195,-5.800293zm-517.100342,-3926.099487c-120.600098,-293.000061 -185.799805,-586.000061 -185.799805,-848.400116c1.899902,-323.700003 91.899902,-576.5 304.5,-842.699982c137.900146,-174.299988 283.499756,-302.600037 685.599365,-612.900024c520.900391,-400.299927 685.600586,-566.899902 812.100586,-823.5c86.200195,-170.400146 107.200195,-277.699951 105.299805,-507.5c-5.799805,-697.100098 -434.799805,-1338.699951 -1105.099609,-1656.600098c-86.200195,-42.100098 -180,-80.400391 -208.800781,-88.100098l-51.699219,-11.5l55.5,103.399902c109.199219,199.200195 139.799805,452.000244 86.199219,681.800293c-63.199219,266.199951 -218.299805,471.099854 -595.599365,779.5c-348.5,289.100098 -438.5,421.300049 -436.600098,656.800171l1.899902,139.800049l-113,-111.100098c-283.399902,-277.700073 -475,-660.700073 -561.199707,-1128.000122c-24.900391,-126.399902 -30.600098,-239.399902 -24.900391,-448.199951c9.600098,-279.600098 17.200195,-317.899902 120.700195,-561.100342c13.399902,-32.600098 7.700195,-32.600098 -69,5.700195c-137.899902,70.900146 -249,153.200195 -398.399902,294.900146c-327.5,316 -522.900146,664.600098 -658.800049,1179.800049c-55.5,206.899902 -57.5,241.300049 -59.400146,593.699951c-1.899902,323.700195 3.800049,400.300171 42.100098,572.700195c122.600098,543.899963 381.100098,1085.899933 756.5,1581.899956c162.800049,212.600014 488.399902,543.900032 691.399902,702.900032c300.700195,233.600037 526.700195,339.000061 804.400391,377.30011c7.799805,-0.000122 9.699707,-13.400146 2.099609,-30.60022z" fill="#014898"/>
  </g>
</svg>