<svg width="121.981" height="114" xmlns="http://www.w3.org/2000/svg">
  <g id="svg_1">
   <path id="svg_2" d="m112.091003,43.40472c9.099998,1.600002 9.599998,-11.799999 1.400002,-11.899998c-9.900002,0 -18.801003,0.5 -27.200005,-5.100002c-5,-3.299999 -10.100998,-5.799999 -15.699997,-6.9c1.699997,-2.1 2.699997,-4.700001 2.699997,-7.6c0,-6.599999 -5.399994,-12.1 -12.399998,-11.9c-6.799999,-0.2 -12.299999,5.2 -12.299999,12c0,2.900002 1,5.5 2.700001,7.6c-5.600002,1.1 -10.700001,3.5 -15.700001,6.9c-8.4,5.6 -17.4,5.1 -27.200001,5.1c-8.2,0 -7.7,13.5 1.400001,11.900002c0.099999,0.099998 0,0 0.099999,0.099998c-6.1,10 -13.2,25.199997 -8.2,35.299995c2.1,4.200005 7,9.200005 18.899999,9.200005c11.9,0 16.800001,-5 18.9,-9.200005c5.299999,-10.599998 -2.799999,-26.799995 -9,-36.699997c1.300001,-0.299999 2.5,-0.799999 3.799999,-1.299999c4.300003,-1.799999 8,-4.5 11.900002,-6.900002c2.799999,-1.700001 5.700001,-2.5 8.799999,-2.799999l0,70.800003l-14.899998,0c-3.100002,0 -5.800003,2.199997 -6.200001,5.199997c-0.400002,3.599998 2.399998,6.800003 6,6.800003l42.101002,0c3.599998,0 6.399002,-3.100998 6,-6.800003c-0.400002,-3 -3.100998,-5.199997 -6.199997,-5.199997l-14.900002,0l0,-70.900002c3,0.299999 6.100998,1.099998 8.900002,2.799999c3.898994,2.400002 7.599998,5.100002 11.898994,6.900002c1.200005,0.5 2.5,0.899998 3.801003,1.299999c-6.199997,9.900002 -14.301003,26.100998 -9,36.699997c2.099998,4.200005 7.099998,9.200005 18.899002,9.200005s16.799995,-5 18.899994,-9.200005c5,-10.099998 -2.100998,-25.299995 -8.199997,-35.299995c0,-0.000004 0,-0.000004 0,-0.100002zm-100.901004,24.601002c1.1,-5.900002 5.099999,-14 9.399999,-20.799999c4.300001,6.799999 8.300001,14.899998 9.300001,20.799999l-18.7,0zm80.700999,0c1.100998,-6 5.100998,-14 9.400002,-20.799999c4.299995,6.799999 8.299995,14.799999 9.399002,20.799999l-18.799004,0z" fill="#FFFFFF"/>
  </g>
</svg>