<?xml version="1.0" encoding="UTF-8" standalone="no"?>
<!-- Svg Vector Icons : http://www.onlinewebfonts.com/icon -->

<svg
   xmlns:dc="http://purl.org/dc/elements/1.1/"
   xmlns:cc="http://creativecommons.org/ns#"
   xmlns:rdf="http://www.w3.org/1999/02/22-rdf-syntax-ns#"
   xmlns:svg="http://www.w3.org/2000/svg"
   xmlns="http://www.w3.org/2000/svg"
   xmlns:sodipodi="http://sodipodi.sourceforge.net/DTD/sodipodi-0.dtd"
   xmlns:inkscape="http://www.inkscape.org/namespaces/inkscape"
   version="1.1"
   x="0px"
   y="0px"
   viewBox="0 0 1180 1162.7"
   enable-background="new 0 0 1000 1000"
   xml:space="preserve"
   id="svg67"
   sodipodi:docname="tab_historico_1.svg"
   width="1180"
   height="1162.7"
   inkscape:version="0.92.5 (2060ec1f9f, 2020-04-08)"><defs
   id="defs71" /><sodipodi:namedview
   pagecolor="#ffffff"
   bordercolor="#666666"
   borderopacity="1"
   objecttolerance="10"
   gridtolerance="10"
   guidetolerance="10"
   inkscape:pageopacity="0"
   inkscape:pageshadow="2"
   inkscape:window-width="1920"
   inkscape:window-height="1057"
   id="namedview69"
   showgrid="false"
   fit-margin-top="100"
   fit-margin-left="100"
   fit-margin-right="100"
   fit-margin-bottom="100"
   inkscape:zoom="0.236"
   inkscape:cx="590"
   inkscape:cy="581.3"
   inkscape:window-x="1592"
   inkscape:window-y="-8"
   inkscape:window-maximized="1"
   inkscape:current-layer="svg67" />
<metadata
   id="metadata2"> Svg Vector Icons : http://www.onlinewebfonts.com/icon <rdf:RDF><cc:Work
     rdf:about=""><dc:format>image/svg+xml</dc:format><dc:type
       rdf:resource="http://purl.org/dc/dcmitype/StillImage" /><dc:title></dc:title></cc:Work></rdf:RDF></metadata>
<g
   id="g65"
   transform="translate(90,81.4)"
   style="fill:#014898;fill-opacity:1"><g
     id="g33"
     style="fill:#014898;fill-opacity:1"><g
       id="_x31_5_38_"
       style="fill:#014898;fill-opacity:1"><g
         id="g30"
         style="fill:#014898;fill-opacity:1"><path
           d="m 249.5,243.1 h 14 c 21.3,0 38.6,-17.3 38.6,-38.6 V 98 58.2 c 0,-21.3 -17.3,-38.6 -38.6,-38.6 h -14 c -21.3,0 -38.6,17.3 -38.6,38.6 V 98 204.5 c 0,21.3 17.3,38.6 38.6,38.6 z"
           id="path4"
           inkscape:connector-curvature="0"
           style="fill:#014898;fill-opacity:1" /><path
           d="m 744.3,242.1 h 14 c 21.3,0 38.6,-17.3 38.6,-38.6 V 87.9 57.2 c 0,-21.3 -17.3,-38.6 -38.6,-38.6 h -14 c -21.3,0 -38.6,17.3 -38.6,38.6 v 30.7 115.6 c 0,21.3 17.3,38.6 38.6,38.6 z"
           id="path6"
           inkscape:connector-curvature="0"
           style="fill:#014898;fill-opacity:1" /><path
           d="m 927.3,98 h -99 v 115.6 c 0,38.6 -31.4,59.8 -69.9,59.8 h -14 c -38.6,0 -69.9,-31.4 -69.9,-69.9 V 98 H 333.4 v 106.5 c 0,38.6 -31.4,69.9 -69.9,69.9 h -14 c -38.6,0 -69.9,-31.4 -69.9,-69.9 V 98 H 72.7 C 38.1,98 10,126.2 10,160.7 v 757.9 c 0,34.6 28.1,62.7 62.7,62.7 h 854.6 c 34.6,0 62.7,-28.1 62.7,-62.7 V 160.7 C 990,126.2 961.9,98 927.3,98 Z m 0,820.6 H 72.7 V 346.3 h 854.6 v 572.3 c 0,0 0,0 0,0 z"
           id="path8"
           inkscape:connector-curvature="0"
           style="fill:#014898;fill-opacity:1" /><path
           d="M 532.4,538.3 H 645 c 4.5,0 8.1,-3.6 8.1,-8.1 v -97.5 c 0,-4.5 -3.6,-8.1 -8.1,-8.1 H 532.4 c -4.5,0 -8.1,3.6 -8.1,8.1 v 97.5 c 0,4.4 3.6,8.1 8.1,8.1 z"
           id="path10"
           inkscape:connector-curvature="0"
           style="fill:#014898;fill-opacity:1" /><path
           d="m 716.2,538.3 h 112.6 c 4.5,0 8.1,-3.6 8.1,-8.1 v -97.5 c 0,-4.5 -3.6,-8.1 -8.1,-8.1 H 716.2 c -4.5,0 -8.1,3.6 -8.1,8.1 v 97.5 c 0,4.4 3.6,8.1 8.1,8.1 z"
           id="path12"
           inkscape:connector-curvature="0"
           style="fill:#014898;fill-opacity:1" /><path
           d="m 164.8,697.9 h 112.6 c 4.5,0 8.1,-3.6 8.1,-8.1 v -97.5 c 0,-4.5 -3.6,-8.1 -8.1,-8.1 H 164.8 c -4.5,0 -8.1,3.6 -8.1,8.1 v 97.5 c 0,4.5 3.7,8.1 8.1,8.1 z"
           id="path14"
           inkscape:connector-curvature="0"
           style="fill:#014898;fill-opacity:1" /><path
           d="m 348.6,697.9 h 112.6 c 4.5,0 8.1,-3.6 8.1,-8.1 v -97.5 c 0,-4.5 -3.6,-8.1 -8.1,-8.1 H 348.6 c -4.5,0 -8.1,3.6 -8.1,8.1 v 97.5 c 0,4.5 3.6,8.1 8.1,8.1 z"
           id="path16"
           inkscape:connector-curvature="0"
           style="fill:#014898;fill-opacity:1" /><path
           d="M 532.4,697.9 H 645 c 4.5,0 8.1,-3.6 8.1,-8.1 v -97.5 c 0,-4.5 -3.6,-8.1 -8.1,-8.1 H 532.4 c -4.5,0 -8.1,3.6 -8.1,8.1 v 97.5 c 0,4.5 3.6,8.1 8.1,8.1 z"
           id="path18"
           inkscape:connector-curvature="0"
           style="fill:#014898;fill-opacity:1" /><path
           d="m 716.2,697.9 h 112.6 c 4.5,0 8.1,-3.6 8.1,-8.1 v -97.5 c 0,-4.5 -3.6,-8.1 -8.1,-8.1 H 716.2 c -4.5,0 -8.1,3.6 -8.1,8.1 v 97.5 c 0,4.5 3.6,8.1 8.1,8.1 z"
           id="path20"
           inkscape:connector-curvature="0"
           style="fill:#014898;fill-opacity:1" /><path
           d="M 277.4,743.9 H 164.8 c -4.5,0 -8.1,3.6 -8.1,8.1 v 97.5 c 0,4.5 3.6,8.1 8.1,8.1 h 112.6 c 4.5,0 8.1,-3.6 8.1,-8.1 V 752 c 0,-4.5 -3.6,-8.1 -8.1,-8.1 z"
           id="path22"
           inkscape:connector-curvature="0"
           style="fill:#014898;fill-opacity:1" /><path
           d="M 461.2,743.9 H 348.6 c -4.5,0 -8.1,3.6 -8.1,8.1 v 97.5 c 0,4.5 3.6,8.1 8.1,8.1 h 112.6 c 4.5,0 8.1,-3.6 8.1,-8.1 V 752 c 0,-4.5 -3.6,-8.1 -8.1,-8.1 z"
           id="path24"
           inkscape:connector-curvature="0"
           style="fill:#014898;fill-opacity:1" /><path
           d="M 645,743.9 H 532.4 c -4.5,0 -8.1,3.6 -8.1,8.1 v 97.5 c 0,4.5 3.6,8.1 8.1,8.1 H 645 c 4.5,0 8.1,-3.6 8.1,-8.1 V 752 c 0,-4.5 -3.6,-8.1 -8.1,-8.1 z"
           id="path26"
           inkscape:connector-curvature="0"
           style="fill:#014898;fill-opacity:1" /><path
           d="M 828.8,743.9 H 716.2 c -4.5,0 -8.1,3.6 -8.1,8.1 v 97.5 c 0,4.5 3.6,8.1 8.1,8.1 h 112.6 c 4.5,0 8.1,-3.6 8.1,-8.1 V 752 c 0,-4.5 -3.7,-8.1 -8.1,-8.1 z"
           id="path28"
           inkscape:connector-curvature="0"
           style="fill:#014898;fill-opacity:1" /></g></g></g><g
     id="g35"
     style="fill:#014898;fill-opacity:1" /><g
     id="g37"
     style="fill:#014898;fill-opacity:1" /><g
     id="g39"
     style="fill:#014898;fill-opacity:1" /><g
     id="g41"
     style="fill:#014898;fill-opacity:1" /><g
     id="g43"
     style="fill:#014898;fill-opacity:1" /><g
     id="g45"
     style="fill:#014898;fill-opacity:1" /><g
     id="g47"
     style="fill:#014898;fill-opacity:1" /><g
     id="g49"
     style="fill:#014898;fill-opacity:1" /><g
     id="g51"
     style="fill:#014898;fill-opacity:1" /><g
     id="g53"
     style="fill:#014898;fill-opacity:1" /><g
     id="g55"
     style="fill:#014898;fill-opacity:1" /><g
     id="g57"
     style="fill:#014898;fill-opacity:1" /><g
     id="g59"
     style="fill:#014898;fill-opacity:1" /><g
     id="g61"
     style="fill:#014898;fill-opacity:1" /><g
     id="g63"
     style="fill:#014898;fill-opacity:1" /></g>
</svg>