<?xml version="1.0" encoding="UTF-8" standalone="no"?>
<svg
   xmlns:dc="http://purl.org/dc/elements/1.1/"
   xmlns:cc="http://creativecommons.org/ns#"
   xmlns:rdf="http://www.w3.org/1999/02/22-rdf-syntax-ns#"
   xmlns:svg="http://www.w3.org/2000/svg"
   xmlns="http://www.w3.org/2000/svg"
   xmlns:xlink="http://www.w3.org/1999/xlink"
   xmlns:sodipodi="http://sodipodi.sourceforge.net/DTD/sodipodi-0.dtd"
   xmlns:inkscape="http://www.inkscape.org/namespaces/inkscape"
   width="500"
   height="500"
   preserveAspectRatio="xMidYMid meet"
   version="1.1"
   id="svg30"
   sodipodi:docname="tab_analisis_1.svg"
   inkscape:version="0.92.5 (2060ec1f9f, 2020-04-08)">
  <metadata
     id="metadata34">
    <rdf:RDF>
      <cc:Work
         rdf:about="">
        <dc:format>image/svg+xml</dc:format>
        <dc:type
           rdf:resource="http://purl.org/dc/dcmitype/StillImage" />
        <dc:title></dc:title>
      </cc:Work>
    </rdf:RDF>
  </metadata>
  <sodipodi:namedview
     pagecolor="#ffffff"
     bordercolor="#666666"
     borderopacity="1"
     objecttolerance="10"
     gridtolerance="10"
     guidetolerance="10"
     inkscape:pageopacity="0"
     inkscape:pageshadow="2"
     inkscape:window-width="1920"
     inkscape:window-height="1057"
     id="namedview32"
     showgrid="false"
     inkscape:zoom="0.24928571"
     inkscape:cx="700"
     inkscape:cy="250"
     inkscape:window-x="1592"
     inkscape:window-y="-8"
     inkscape:window-maximized="1"
     inkscape:current-layer="svg30" />
  <defs
     id="defs5">
    <path
       d="M 441,66.150002 C 441,54.5 450.85998,45 463,45 c 11,0 99,0 110,0 12.12,0 22,9.5 22,21.150002 0,50.769998 0,456.930018 0,507.699978 C 595,585.5 585.12,595 573,595 c -7.33002,0 -44,0 -110,0 -14.67001,-6.33002 -22,-13.38 -22,-21.15002 0,-50.76996 0,-456.92998 0,-507.699978 z"
       id="ebhoJeEao"
       inkscape:connector-curvature="0" />
    <path
       d="m 256,191.83 c 0,-11.66 9.85998,-21.16 22,-21.16 11,0 99,0 110,0 12.12,0 22,9.5 22,21.16 0,38.06999 0,342.69002 0,380.76998 0,11.65002 -9.88,21.15002 -22,21.15002 -7.32999,0 -44,0 -110,0 -14.67001,-6.33002 -22,-13.38 -22,-21.15002 0,-38.07996 0,-342.69999 0,-380.76998 z"
       id="awQeqoTxE"
       inkscape:connector-curvature="0" />
    <path
       d="m 45,320 c 0,-11.66 9.860001,-21.14999 22,-21.14999 11,0 99,0 110,0 12.11999,0 22,9.48999 22,21.14999 0,25.38 0,228.46002 0,253.84998 C 199,585.5 189.11999,595 177,595 c -7.33,0 -44,0 -110,0 C 52.330002,588.66998 45,581.62 45,573.84998 45,548.46002 45,345.38 45,320 Z"
       id="a20riFUTuB"
       inkscape:connector-curvature="0" />
  </defs>
  <g
     id="g10">
    <title
       id="title7">background</title>
    <rect
       x="-1"
       y="-1"
       width="1402"
       height="502"
       id="canvas_background"
       style="fill:none" />
  </g>
  <g
     id="svg_1"
     stroke="null"
     style="fill:#014898;fill-opacity:1">
    <g
       id="svg_3"
       stroke="null"
       style="fill:#014898;fill-opacity:1">
      <use
         height="100%"
         width="100%"
         style="fill:#014898;stroke:#ffffff;fill-opacity:1"
         id="svg_4"
         xlink:href="#ebhoJeEao"
         transform="matrix(0.5933897,0,0,0.68264562,22.873713,14.280947)"
         y="25.302265"
         x="51.271118" />
      <g
         id="svg_5"
         stroke="null"
         style="fill:#014898;fill-opacity:1">
        <use
           height="100%"
           width="100%"
           style="fill:#014898;fill-opacity:1;stroke:#ffffff;stroke-opacity:0"
           id="svg_6"
           xlink:href="#ebhoJeEao"
           transform="matrix(0.5933897,0,0,0.68264562,22.873713,14.280947)"
           y="25.302265"
           x="51.271118" />
      </g>
    </g>
    <g
       id="svg_11"
       stroke="null"
       style="fill:#014898;fill-opacity:1">
      <use
         height="100%"
         width="100%"
         style="fill:#014898;stroke:#ffffff;fill-opacity:1"
         id="svg_12"
         xlink:href="#awQeqoTxE"
         transform="matrix(0.5933897,0,0,0.68264562,22.873713,14.280947)"
         y="25.302265"
         x="51.271118" />
      <g
         id="svg_13"
         stroke="null"
         style="fill:#014898;fill-opacity:1">
        <use
           height="100%"
           width="100%"
           style="fill:#014898;fill-opacity:1;stroke:#ffffff;stroke-opacity:0"
           id="svg_14"
           xlink:href="#awQeqoTxE"
           transform="matrix(0.5933897,0,0,0.68264562,22.873713,14.280947)"
           y="25.302265"
           x="51.271118" />
      </g>
    </g>
    <g
       id="svg_19"
       stroke="null"
       style="fill:#014898;fill-opacity:1">
      <use
         height="100%"
         width="100%"
         style="fill:#014898;stroke:#ffffff;fill-opacity:1"
         id="svg_20"
         xlink:href="#a20riFUTuB"
         transform="matrix(0.5933897,0,0,0.68264562,22.873713,14.280947)"
         y="25.302265"
         x="51.271118" />
      <g
         id="svg_21"
         stroke="null"
         style="fill:#014898;fill-opacity:1">
        <use
           height="100%"
           width="100%"
           style="fill:#014898;fill-opacity:1;stroke:#ffffff;stroke-opacity:0"
           id="svg_22"
           xlink:href="#a20riFUTuB"
           transform="matrix(0.5933897,0,0,0.68264562,22.873713,14.280947)"
           y="25.302265"
           x="51.271118" />
      </g>
    </g>
  </g>
</svg>
