<?xml version="1.0" encoding="UTF-8" standalone="no"?>
<!-- Svg Vector Icons : http://www.onlinewebfonts.com/icon -->

<svg
   xmlns:dc="http://purl.org/dc/elements/1.1/"
   xmlns:cc="http://creativecommons.org/ns#"
   xmlns:rdf="http://www.w3.org/1999/02/22-rdf-syntax-ns#"
   xmlns:svg="http://www.w3.org/2000/svg"
   xmlns="http://www.w3.org/2000/svg"
   xmlns:sodipodi="http://sodipodi.sourceforge.net/DTD/sodipodi-0.dtd"
   xmlns:inkscape="http://www.inkscape.org/namespaces/inkscape"
   version="1.1"
   x="0px"
   y="0px"
   viewBox="0 0 1180 1181.2"
   enable-background="new 0 0 1000 1000"
   xml:space="preserve"
   id="svg50"
   sodipodi:docname="tab_diario_2.svg"
   width="1180"
   height="1181.2"
   inkscape:version="0.92.5 (2060ec1f9f, 2020-04-08)"><defs
   id="defs54" /><sodipodi:namedview
   pagecolor="#ffffff"
   bordercolor="#666666"
   borderopacity="1"
   objecttolerance="10"
   gridtolerance="10"
   guidetolerance="10"
   inkscape:pageopacity="0"
   inkscape:pageshadow="2"
   inkscape:window-width="1920"
   inkscape:window-height="1057"
   id="namedview52"
   showgrid="false"
   fit-margin-top="100"
   fit-margin-left="100"
   fit-margin-right="100"
   fit-margin-bottom="100"
   inkscape:zoom="0.236"
   inkscape:cx="590"
   inkscape:cy="590.6"
   inkscape:window-x="1592"
   inkscape:window-y="-8"
   inkscape:window-maximized="1"
   inkscape:current-layer="svg50" />
<metadata
   id="metadata2"> Svg Vector Icons : http://www.onlinewebfonts.com/icon <rdf:RDF><cc:Work
     rdf:about=""><dc:format>image/svg+xml</dc:format><dc:type
       rdf:resource="http://purl.org/dc/dcmitype/StillImage" /><dc:title></dc:title></cc:Work></rdf:RDF></metadata>
<g
   id="g48"
   transform="translate(90,90.6)"
   style="fill:#ffffff;fill-opacity:1"><g
     id="g16"
     style="fill:#ffffff;fill-opacity:1"><g
       id="g14"
       style="fill:#ffffff;fill-opacity:1"><path
         d="m 439.5,533.1 15.5,-13 c 24.3,-21.7 44.7,-44.2 44.7,-72.4 0,-30.5 -20.9,-52.8 -59,-52.8 -22.7,0 -42.4,7.8 -55.1,17.4 l 11.1,28.2 c 8.8,-6.8 21.5,-13.9 36,-13.9 19.4,0 27.7,10.8 27.7,24.6 -0.5,19.6 -18.3,38.5 -55.1,71.4 l -21.7,19.7 V 566 h 118.7 v -32.1 h -62.9 z"
         id="path4"
         inkscape:connector-curvature="0"
         style="fill:#ffffff;fill-opacity:1" /><path
         d="M 634.1,397.4 H 586 l -63.5,102.9 v 25.3 h 74.7 v 40.3 H 634 v -40.3 h 20.2 V 495.9 H 634 v -98.5 z m -36.8,61.7 v 36.8 h -38 v 0 l 22.4,-36.5 c 5.7,-10.6 10,-20.4 15.4,-31.1 h 1 c -0.7,10.6 -0.8,20.7 -0.8,30.8 z"
         id="path6"
         inkscape:connector-curvature="0"
         style="fill:#ffffff;fill-opacity:1" /><path
         d="m 751.4,436.6 c -7.3,0 -14.6,1.7 -20.3,4.8 -6.2,3.4 -11.2,8.1 -15.4,12.9 h -0.9 v -72.4 h -39.1 v 183.9 h 39.1 v -74.9 c 0,-2.9 0.5,-6.2 1.5,-8.8 2.9,-7 9.3,-13.7 19.6,-13.7 14.7,0 20.4,11.4 20.4,28 v 69.5 h 39.1 V 492 c 0,-38.1 -18.9,-55.4 -44,-55.4 z"
         id="path8"
         inkscape:connector-curvature="0"
         style="fill:#ffffff;fill-opacity:1" /><path
         d="M 462.7,686.2 354,623.1 c -4.1,-19.5 -14.8,-36.7 -29.7,-49 l 0.5,-285.5 c 0.1,-30.4 -24.6,-55 -55,-55 0,0 -0.1,0 -0.1,0 -30.4,0 -55,24.4 -55.1,54.8 l -0.5,285.7 c -19.4,15.9 -31.8,40 -31.8,67.1 0,47.9 38.8,86.8 86.8,86.8 12.1,0 23.5,-2.5 34,-6.9 l 104.3,60.5 c 8.7,5.1 18.2,7.5 27.6,7.5 19,0 37.5,-9.8 47.7,-27.4 15.4,-26.5 6.4,-60.2 -20,-75.5 z"
         id="path10"
         inkscape:connector-curvature="0"
         style="fill:#ffffff;fill-opacity:1" /><path
         d="M 813.3,9.4 H 186.9 C 89.2,9.4 10,89.4 10,187 v 626.4 c 0,97.7 79.2,177.2 176.8,177.2 H 813.3 C 910.9,990.6 990,911.1 990,813.4 V 187 C 990,89.4 910.9,9.4 813.3,9.4 Z m 66.3,804 c 0,36.9 -29.5,66.8 -66.4,66.8 H 186.9 c -36.9,0 -66.5,-30 -66.5,-66.8 V 187 c 0,-36.9 29.6,-67.3 66.5,-67.3 h 626.4 c 36.8,0 66.4,30.4 66.4,67.3 z"
         id="path12"
         inkscape:connector-curvature="0"
         style="fill:#ffffff;fill-opacity:1" /></g></g><g
     id="g18"
     style="fill:#ffffff;fill-opacity:1" /><g
     id="g20"
     style="fill:#ffffff;fill-opacity:1" /><g
     id="g22"
     style="fill:#ffffff;fill-opacity:1" /><g
     id="g24"
     style="fill:#ffffff;fill-opacity:1" /><g
     id="g26"
     style="fill:#ffffff;fill-opacity:1" /><g
     id="g28"
     style="fill:#ffffff;fill-opacity:1" /><g
     id="g30"
     style="fill:#ffffff;fill-opacity:1" /><g
     id="g32"
     style="fill:#ffffff;fill-opacity:1" /><g
     id="g34"
     style="fill:#ffffff;fill-opacity:1" /><g
     id="g36"
     style="fill:#ffffff;fill-opacity:1" /><g
     id="g38"
     style="fill:#ffffff;fill-opacity:1" /><g
     id="g40"
     style="fill:#ffffff;fill-opacity:1" /><g
     id="g42"
     style="fill:#ffffff;fill-opacity:1" /><g
     id="g44"
     style="fill:#ffffff;fill-opacity:1" /><g
     id="g46"
     style="fill:#ffffff;fill-opacity:1" /></g>
</svg>