<?xml version="1.0" encoding="UTF-8" standalone="no"?>
<svg
   xmlns:dc="http://purl.org/dc/elements/1.1/"
   xmlns:cc="http://creativecommons.org/ns#"
   xmlns:rdf="http://www.w3.org/1999/02/22-rdf-syntax-ns#"
   xmlns:svg="http://www.w3.org/2000/svg"
   xmlns="http://www.w3.org/2000/svg"
   xmlns:sodipodi="http://sodipodi.sourceforge.net/DTD/sodipodi-0.dtd"
   xmlns:inkscape="http://www.inkscape.org/namespaces/inkscape"
   width="1000"
   height="1000"
   version="1.1"
   id="svg42"
   sodipodi:docname="tab_listados_1.svg"
   inkscape:version="0.92.5 (2060ec1f9f, 2020-04-08)">
  <defs
     id="defs46" />
  <sodipodi:namedview
     pagecolor="#ffffff"
     bordercolor="#666666"
     borderopacity="1"
     objecttolerance="10"
     gridtolerance="10"
     guidetolerance="10"
     inkscape:pageopacity="0"
     inkscape:pageshadow="2"
     inkscape:window-width="1920"
     inkscape:window-height="1057"
     id="namedview44"
     showgrid="false"
     inkscape:zoom="0.11633333"
     inkscape:cx="1500"
     inkscape:cy="500"
     inkscape:window-x="1592"
     inkscape:window-y="-8"
     inkscape:window-maximized="1"
     inkscape:current-layer="svg42" />
  <metadata
     id="metadata2">Svg Vector Icons : http://www.onlinewebfonts.com/icon<rdf:RDF>
  <cc:Work
     rdf:about="">
    <dc:format>image/svg+xml</dc:format>
    <dc:type
       rdf:resource="http://purl.org/dc/dcmitype/StillImage" />
    <dc:title></dc:title>
  </cc:Work>
</rdf:RDF>
</metadata>
  <g
     id="g7">
    <title
       id="title4">background</title>
    <rect
       id="canvas_background"
       height="1002"
       width="3002"
       y="-1"
       x="-1"
       style="fill:none" />
  </g>
  <g
     id="svg_1"
     stroke="null"
     style="fill:#014898;fill-opacity:1"
     transform="translate(52)">
    <g
       id="svg_2"
       stroke="null"
       style="fill:#014898;fill-opacity:1">
      <path
         style="fill:#014898;fill-opacity:1"
         inkscape:connector-curvature="0"
         d="m 677.05312,231.65325 h -60.40949 c -6.0829,0 -11.0471,4.96421 -11.0471,11.04711 0,6.0829 4.9642,11.0471 11.0471,11.0471 h 49.36238 V 820.50587 H 222.0942 V 253.74746 h 49.36238 c 6.0829,0 11.04711,-4.9642 11.04711,-11.0471 0,-6.0829 -4.96421,-11.0471 -11.04711,-11.0471 H 211.0471 c -6.0829,0 -11.0471,4.9642 -11.0471,11.0471 v 588.85261 c 0,6.0829 4.9642,11.04711 11.0471,11.04711 h 466.00602 c 6.0829,0 11.0471,-4.96421 11.0471,-11.04711 V 242.70036 c 0,-6.0829 -4.9642,-11.0471 -11.0471,-11.04711 z"
         id="svg_3" />
      <path
         style="fill:#014898;fill-opacity:1"
         inkscape:connector-curvature="0"
         d="m 315.645,287.65788 h 184.02518 c 6.0829,0 11.0471,-4.96421 11.0471,-11.04711 0,-6.08289 -4.9642,-11.0471 -11.0471,-11.0471 H 326.6921 v -37.40633 c 0,-4.61462 3.77559,-8.39021 8.39021,-8.39021 h 68.65985 c 6.0829,0 11.0471,-4.9642 11.0471,-11.0471 0,-16.15115 13.14466,-29.22589 29.22589,-29.22589 16.08122,0 29.22588,13.14466 29.22588,29.22589 0,6.0829 4.96421,11.0471 11.0471,11.0471 h 68.65986 c 4.61461,0 8.3902,3.77559 8.3902,8.39021 v 37.40633 H 543.8586 c -6.0829,0 -11.04711,4.96421 -11.04711,11.0471 0,6.0829 4.96421,11.04711 11.04711,11.04711 h 28.5267 c 6.08289,0 11.0471,-4.96421 11.0471,-11.04711 v -48.45343 c 0,-16.78042 -13.63409,-30.48442 -30.48442,-30.48442 h -58.80135 c -5.03413,-23.00315 -25.59013,-40.27299 -50.13148,-40.27299 -24.54136,0 -45.09736,17.26984 -50.13148,40.27299 h -58.80136 c -16.78042,0 -30.48442,13.63409 -30.48442,30.48442 v 48.45343 c 0,6.15282 4.89429,11.04711 11.04711,11.04711 z"
         id="svg_4" />
      <path
         style="fill:#014898;fill-opacity:1"
         inkscape:connector-curvature="0"
         d="m 315.645,774.08006 h 53.06805 c 6.0829,0 11.0471,-4.9642 11.0471,-11.0471 v -53.06805 c 0,-6.0829 -4.9642,-11.04711 -11.0471,-11.04711 H 315.645 c -6.0829,0 -11.04711,4.96421 -11.04711,11.04711 v 53.06805 c 0,6.0829 4.89429,11.0471 11.04711,11.0471 z m 11.0471,-53.06805 h 30.97384 v 30.97385 H 326.6921 Z"
         id="svg_5" />
      <path
         style="fill:#014898;fill-opacity:1"
         inkscape:connector-curvature="0"
         d="M 572.3853,725.41687 H 412.90147 c -6.0829,0 -11.04711,4.9642 -11.04711,11.0471 0,6.0829 4.96421,11.04711 11.04711,11.04711 h 159.55375 c 6.08289,0 11.0471,-4.96421 11.0471,-11.04711 -0.0699,-6.0829 -4.96421,-11.0471 -11.11702,-11.0471 z"
         id="svg_6" />
      <path
         style="fill:#014898;fill-opacity:1"
         inkscape:connector-curvature="0"
         d="m 315.645,652.492 h 53.06805 c 6.0829,0 11.0471,-4.96421 11.0471,-11.04711 v -53.06805 c 0,-6.0829 -4.9642,-11.0471 -11.0471,-11.0471 H 315.645 c -6.0829,0 -11.04711,4.9642 -11.04711,11.0471 v 53.06805 c 0,6.0829 4.89429,11.04711 11.04711,11.04711 z m 11.0471,-53.06806 h 30.97384 v 30.97385 H 326.6921 Z"
         id="svg_7" />
      <path
         style="fill:#014898;fill-opacity:1"
         inkscape:connector-curvature="0"
         d="M 572.3853,603.8288 H 412.90147 c -6.0829,0 -11.04711,4.96421 -11.04711,11.04711 0,6.0829 4.96421,11.0471 11.04711,11.0471 h 159.55375 c 6.08289,0 11.0471,-4.9642 11.0471,-11.0471 -0.0699,-6.0829 -4.96421,-11.04711 -11.11702,-11.04711 z"
         id="svg_8" />
      <path
         style="fill:#014898;fill-opacity:1"
         inkscape:connector-curvature="0"
         d="m 315.645,530.83401 h 53.06805 c 6.0829,0 11.0471,-4.9642 11.0471,-11.0471 v -53.06805 c 0,-6.0829 -4.9642,-11.04711 -11.0471,-11.04711 H 315.645 c -6.0829,0 -11.04711,4.96421 -11.04711,11.04711 v 53.06805 c 0,6.15282 4.89429,11.0471 11.04711,11.0471 z m 11.0471,-52.99813 h 30.97384 v 30.97384 H 326.6921 Z"
         id="svg_9" />
      <path
         style="fill:#014898;fill-opacity:1"
         inkscape:connector-curvature="0"
         d="M 572.3853,482.24074 H 412.90147 c -6.0829,0 -11.04711,4.9642 -11.04711,11.0471 0,6.0829 4.96421,11.0471 11.04711,11.0471 h 159.55375 c 6.08289,0 11.0471,-4.9642 11.0471,-11.0471 -0.0699,-6.0829 -4.96421,-11.0471 -11.11702,-11.0471 z"
         id="svg_10" />
      <path
         style="fill:#014898;fill-opacity:1"
         inkscape:connector-curvature="0"
         d="m 315.645,409.24594 h 53.06805 c 6.0829,0 11.0471,-4.9642 11.0471,-11.0471 v -53.06805 c 0,-6.0829 -4.9642,-11.04711 -11.0471,-11.04711 H 315.645 c -6.0829,0 -11.04711,4.96421 -11.04711,11.04711 v 53.06805 c 0,6.15282 4.89429,11.0471 11.04711,11.0471 z m 11.0471,-52.99813 h 30.97384 v 30.97384 H 326.6921 Z"
         id="svg_11" />
      <path
         style="fill:#014898;fill-opacity:1"
         inkscape:connector-curvature="0"
         d="M 572.3853,360.65267 H 412.90147 c -6.0829,0 -11.04711,4.9642 -11.04711,11.0471 0,6.0829 4.96421,11.04711 11.04711,11.04711 h 159.55375 c 6.08289,0 11.0471,-4.96421 11.0471,-11.04711 -0.0699,-6.0829 -4.96421,-11.0471 -11.11702,-11.0471 z"
         id="svg_12" />
    </g>
    <g
       id="svg_13"
       stroke="null"
       style="fill:#014898;fill-opacity:1" />
    <g
       id="svg_14"
       stroke="null"
       style="fill:#014898;fill-opacity:1" />
    <g
       id="svg_15"
       stroke="null"
       style="fill:#014898;fill-opacity:1" />
    <g
       id="svg_16"
       stroke="null"
       style="fill:#014898;fill-opacity:1" />
    <g
       id="svg_17"
       stroke="null"
       style="fill:#014898;fill-opacity:1" />
    <g
       id="svg_18"
       stroke="null"
       style="fill:#014898;fill-opacity:1" />
    <g
       id="svg_19"
       stroke="null"
       style="fill:#014898;fill-opacity:1" />
    <g
       id="svg_20"
       stroke="null"
       style="fill:#014898;fill-opacity:1" />
    <g
       id="svg_21"
       stroke="null"
       style="fill:#014898;fill-opacity:1" />
    <g
       id="svg_22"
       stroke="null"
       style="fill:#014898;fill-opacity:1" />
    <g
       id="svg_23"
       stroke="null"
       style="fill:#014898;fill-opacity:1" />
    <g
       id="svg_24"
       stroke="null"
       style="fill:#014898;fill-opacity:1" />
    <g
       id="svg_25"
       stroke="null"
       style="fill:#014898;fill-opacity:1" />
    <g
       id="svg_26"
       stroke="null"
       style="fill:#014898;fill-opacity:1" />
    <g
       id="svg_27"
       stroke="null"
       style="fill:#014898;fill-opacity:1" />
  </g>
</svg>
