<?xml version="1.0" encoding="UTF-8" standalone="no"?>
<svg
   xmlns:dc="http://purl.org/dc/elements/1.1/"
   xmlns:cc="http://creativecommons.org/ns#"
   xmlns:rdf="http://www.w3.org/1999/02/22-rdf-syntax-ns#"
   xmlns:svg="http://www.w3.org/2000/svg"
   xmlns="http://www.w3.org/2000/svg"
   xmlns:sodipodi="http://sodipodi.sourceforge.net/DTD/sodipodi-0.dtd"
   xmlns:inkscape="http://www.inkscape.org/namespaces/inkscape"
   width="500"
   height="500"
   version="1.1"
   id="svg17"
   sodipodi:docname="tab_formulas_1.svg"
   inkscape:version="0.92.5 (2060ec1f9f, 2020-04-08)">
  <defs
     id="defs21" />
  <sodipodi:namedview
     pagecolor="#ffffff"
     bordercolor="#666666"
     borderopacity="1"
     objecttolerance="10"
     gridtolerance="10"
     guidetolerance="10"
     inkscape:pageopacity="0"
     inkscape:pageshadow="2"
     inkscape:window-width="1600"
     inkscape:window-height="877"
     id="namedview19"
     showgrid="false"
     inkscape:zoom="0.24928571"
     inkscape:cx="700"
     inkscape:cy="250"
     inkscape:window-x="-8"
     inkscape:window-y="-8"
     inkscape:window-maximized="1"
     inkscape:current-layer="svg17" />
  <metadata
     id="metadata2">Svg Vector Icons : http://www.onlinewebfonts.com/icon<rdf:RDF>
  <cc:Work
     rdf:about="">
    <dc:format>image/svg+xml</dc:format>
    <dc:type
       rdf:resource="http://purl.org/dc/dcmitype/StillImage" />
    <dc:title></dc:title>
  </cc:Work>
</rdf:RDF>
</metadata>
  <g
     id="g7">
    <title
       id="title4">background</title>
    <rect
       id="canvas_background"
       height="502"
       width="1402"
       y="-1"
       x="-1"
       style="fill:none" />
  </g>
  <g
     id="svg_1"
     stroke="null"
     style="fill:#014898;fill-opacity:1">
    <g
       id="svg_2"
       stroke="null"
       style="fill:#014898;fill-opacity:1">
      <path
         style="fill:#014898;stroke:#ffffff;fill-opacity:1"
         inkscape:connector-curvature="0"
         d="m 398.08075,143.9743 c -1.90376,-8.97748 -11.3168,-16.29246 -20.90613,-16.29246 H 259.35289 c -9.58932,0 -22.98616,-6.48373 -29.75509,-14.42215 l -10.32968,-11.92841 c -6.76893,-7.938424 -20.16577,-14.380597 -29.7551,-14.380597 h -56.26675 c -9.58932,0 -18.29727,9.102167 -19.35491,20.240887 l -5.0767,61.26299 h 292.72107 l -3.45497,-24.48026 z m 17.4159,44.8874 H 90.023819 c -5.922816,0 -10.541202,5.98499 -9.977124,12.92591 l 15.97045,197.08893 c 0.634587,8.02155 6.381125,14.17278 13.255825,14.17278 H 396.2475 c 6.8747,0 12.58599,-6.15123 13.25583,-14.17278 l 15.97045,-197.08893 c 0.56408,-6.94092 -4.08956,-12.92591 -9.97712,-12.92591 z"
         id="svg_3" />
    </g>
  </g>
</svg>
