<svg width="980.9999999999999" height="980.9999999999999" xmlns="http://www.w3.org/2000/svg">
 <g fill="#FFFFFF">
   <path d="m490.001312,-0.001302c-270.600021,0 -490.00001,219.399999 -490.00001,489.99999s219.399989,490.000031 490.00001,490.000031c270.600006,0 489.999969,-219.399963 489.999969,-490.000031s-219.400024,-489.99999 -489.999969,-489.99999zm-367.500008,489.99999c0,-203 164.500008,-367.499985 367.500008,-367.499985c84.099945,0 161.399933,28.600006 223.299957,76.100006l-518.899979,509.100021c-45,-61 -71.899986,-136.100037 -71.899986,-217.700043zm367.500008,367.500031c-77.100006,0 -148.600006,-23.799988 -207.700012,-64.400024l514.599945,-505c38.299988,58 60.600037,127.299988 60.600037,201.899994c0,203.000031 -164.5,367.500031 -367.499969,367.500031z"/>
 </g>
</svg>