<svg width="409" height="317" xmlns="http://www.w3.org/2000/svg">
  <g id="svg_1" fill="#FFFFFF">
   <path d="m306,89l-241,0c-8.291,0 -15,6.709 -15,15l0,45l271,0l0,-45c0,-8.291 -6.709015,-15 -15,-15z" id="svg_3"/>
   <path d="m50,148l0,75c0,3.984009 1.582001,7.792999 4.394997,10.605011l60.000008,60c2.811996,2.812988 6.621002,4.394989 10.604996,4.394989l181,0c8.290985,0 15,-6.709015 15,-15l0,-135l-271,0zm45,60c-8.283997,0 -15,-6.716003 -15,-15c0,-8.286011 6.716003,-15 15,-15s15,6.713989 15,15c0,8.283997 -6.716003,15 -15,15zm90,0c-8.283997,0 -15,-6.716003 -15,-15c0,-8.286011 6.716003,-15 15,-15s15,6.713989 15,15c0,8.283997 -6.716003,15 -15,15zm91,0c-8.283997,0 -15,-6.716003 -15,-15c0,-8.286011 6.716003,-15 15,-15s15,6.713989 15,15c0,8.283997 -6.716003,15 -15,15z" id="svg_6"/>
   <path d="m30,89l0,-15c0,-8.291 -6.709,-15 -15,-15s-15,6.709 -15,15l0,180c0,8.290985 6.709,15 15,15s15,-6.709015 15,-15l0,-15l31,0l0,-150l-31,0z" id="svg_9"/>
   <path d="m306,0l-241,0c-8.291,0 -15,6.709 -15,15s6.709,15 15,15l15,0l0,15c0,8.291 6.709,15 15,15l15,0l0,30l151,0l0,-30l15,0c8.290985,0 15,-6.709 15,-15l0,-15l15,0c8.290985,0 15,-6.709 15,-15s-6.709015,-15 -15,-15z" id="svg_12"/>
   <rect x="320" y="107" width="30" height="180" id="svg_15"/>
   <path d="m394,77l-15,0c-3.984009,0 -7.792999,1.582001 -10.605011,4.395004l-19.394989,19.393997l0,192.421997l19.394989,19.394989c2.812012,2.812012 6.621002,4.394012 10.605011,4.394012l15,0c8.290985,0 15,-6.709015 15,-15l0,-210c0,-8.291 -6.709015,-15 -15,-15z" id="svg_18"/>
  </g>
</svg>