<svg width="486" height="633" xmlns="http://www.w3.org/2000/svg" xmlns:xlink="http://www.w3.org/1999/xlink" preserveAspectRatio="xMidYMid meet">
 <defs>
  <path id="azoQTLddL" d="m42.279999,40.700001l0,168.41l0,168.409988l206.119995,0l206.119995,0l0,-129.999985l0,-129.810005l0.870026,-38.07l-0.52002,-19.470001l-0.519989,-19.469997c8,0 12.449982,0 13.329987,0c12.460022,0 13.860016,-0.350002 18.600006,-5.09c5.610016,-5.620001 6.660004,-13.860001 2.980011,-22.110001c-4.559998,-10.17 8.25,-9.65 -241.910004,-9.65c-15.340012,0 -91.990005,0 -229.980005,0l13.509998,36.850001l11.4,0z"/>
  <path id="cTAAMgrER" d="m13.9,383.899994c-4.21,8.25 -3.15,15.089996 3.51,21.75c5.43,5.440002 6.84,5.970001 16.66,5.970001c6.139999,0 10.709999,0.700012 10.709999,1.75c0,1.050018 -7.549999,46.830017 -16.669998,101.73999c-9.120001,54.920044 -16.660001,101.929993 -16.660001,104.559998c0,6.660034 10.349999,16.480042 17.54,16.480042c7.019999,0 14.92,-4.559998 17.370001,-9.990051c1.579998,-3.329956 19.479996,-105.259949 19.479996,-110.349976c0,-0.880005 3.68,5.090027 8.420006,12.97998c12.279999,21.230042 21.93,33.679993 38.769997,50c36.490005,34.910034 80,53.850037 131.040009,56.830017c78.410004,4.570007 155.429993,-39.119995 192.269989,-108.940002c5.610016,-10.880005 6.48999,-11.919983 7.369995,-8.059998c0.52002,2.450012 4.910004,27.539978 9.649994,55.960022c8.420013,51.399963 8.590027,51.75 14.030029,56.659973c11.919983,10.52002 30,2.280029 30,-13.679993c0,-2.460022 -7.550018,-49.469971 -16.660004,-104.549988c-9.120026,-55.089996 -16.670013,-100.350006 -16.670013,-100.700012c0,-0.339996 4.390015,-0.700012 9.830017,-0.700012c15.789978,0 23.509979,-6.669983 23.509979,-20.179993c0,-3.679993 -1.579987,-7.709991 -4.209991,-10.869995c-3.860016,-4.570007 -5.619995,-4.919983 -20.700012,-6.149994c-15.819977,-1.040009 -408.419991,-1.209991 -434.729992,-0.160004c-15.089998,0.709991 -20.349998,2.799988 -23.859999,9.649994z"/>
 </defs>
 <g>
    <use x="-11.398438" y="-3.847656" id="svg_5" fill="#FFFFFF" xlink:href="#azoQTLddL"/>
    <use x="-11.398438" y="-3.847656" id="svg_7" stroke-opacity="0" fill-opacity="0" xlink:href="#azoQTLddL"/>
    <use x="-11.398438" y="-3.847656" id="svg_9" fill="#FFFFFF" xlink:href="#cTAAMgrER"/>
    <use x="-11.398438" y="-3.847656" id="svg_11" stroke-opacity="0" fill-opacity="0" xlink:href="#cTAAMgrER"/>
 </g>
</svg>