<svg width="420" height="514" xmlns="http://www.w3.org/2000/svg">
  <g id="svg_49" transform="rotate(-90, 210, 257)" fill="#014898">
   <path d="m149,257c-8.276001,0 -15,6.723999 -15,15s6.723999,15 15,15s15,-6.723999 15,-15s-6.723999,-15 -15,-15z" id="svg_3"/>
   <path d="m164,198.518005l0,31.24501c1.464996,0.521988 2.891006,1.082001 4.281006,1.746994l22.019989,-22.011002c-7.867996,-5.21701 -16.740997,-9.033005 -26.300995,-10.981003z" id="svg_6"/>
   <path d="m107.699005,209.498993l22.020004,22.011002c1.389999,-0.665009 2.815994,-1.225006 4.281006,-1.747009l0,-31.244995c-9.560013,1.948013 -18.433014,5.764008 -26.30101,10.981003z" id="svg_9"/>
   <path d="m129.718994,312.48999l-22.020004,22.010986c7.867996,5.21701 16.740997,9.03302 26.300995,10.981018l0,-31.244995c-1.464981,-0.522003 -2.890991,-1.082001 -4.280991,-1.747009z" id="svg_12"/>
   <path d="m168.281006,312.48999c-1.389999,0.665009 -2.815994,1.225006 -4.280991,1.747009l0,31.244995c9.559998,-1.947998 18.432999,-5.764008 26.300995,-10.981018l-22.020004,-22.010986z" id="svg_15"/>
   <path d="m211.509003,230.712997l-22.016998,22.008987c0.662994,1.390015 1.222992,2.814026 1.744995,4.277008l31.244995,0c-1.945984,-9.553009 -5.761993,-18.42099 -10.972992,-26.285995z" id="svg_18"/>
   <path d="m191.237,287c-0.522003,1.463013 -1.082001,2.888 -1.744995,4.277008l22.016998,22.009003c5.210999,-7.864014 9.027008,-16.732025 10.972992,-26.286011l-31.244995,0z" id="svg_21"/>
   <path d="m86.490997,230.714005c-5.210999,7.863998 -9.027008,16.731979 -10.973999,26.287003l31.244995,0c0.52301,-1.46402 1.083008,-2.889008 1.746002,-4.277985l-22.016998,-22.009018z" id="svg_24"/>
   <path d="m106.763,287.001007l-31.244995,0c1.945984,9.553009 5.761993,18.42099 10.972992,26.286011l22.016998,-22.009003c-0.662994,-1.390015 -1.222992,-2.814026 -1.744995,-4.277008z" id="svg_27"/>
   <path d="m329.044006,197l-15.044006,0l-91.748993,0c0.277985,0.272995 0.622986,0.468994 0.897003,0.742004c0.022003,0.022003 0.052979,0.026993 0.074982,0.048996c0.027008,0.026993 0.03302,0.063995 0.059998,0.091995c18.964996,19.006012 30.71701,45.213989 30.71701,74.117004c0,57.692993 -46.940979,105 -105,105c-57.695007,0 -105,-46.937012 -105,-105c0,-57.695007 46.940994,-105 105,-105l165,0l0,-90l-165,0c-107.519997,0 -195,87.479996 -195,195s87.480003,195 195,195s195,-87.480011 195,-195c0,-25.854004 -5.127014,-51.371994 -14.955994,-75z" id="svg_30"/>
   <path d="m451,77l-47,0l0,-15c0,-8.291 -6.709015,-15 -15,-15c-8.290985,0 -15,6.709 -15,15l0,15l-30,0l0,90l30,0l0,15c0,8.291 6.709015,15 15,15c8.290985,0 15,-6.709 15,-15l0,-15l47,0c8.283997,0 15,-6.716003 15,-15l0,-60c0,-8.286003 -6.716003,-15 -15,-15z" id="svg_33"/>
  </g>
</svg>