<svg width="982" height="790" xmlns="http://www.w3.org/2000/svg">
  <path id="svg_1" d="m123.900002,880" fill="#014898"/>
  <path id="svg_2" d="m980,458.399994c0,-0.299988 0,-0.5 -0.099976,-0.799988c0,-0.299988 0,-0.700012 -0.100037,-1c0,-0.299988 -0.099976,-0.700012 -0.099976,-1c0,-0.299988 -0.100037,-0.5 -0.100037,-0.799988c-0.099976,-0.400024 -0.099976,-0.700012 -0.199951,-1.100037c0,-0.200012 -0.100037,-0.399963 -0.100037,-0.700012c-0.099976,-0.399963 -0.200012,-0.699951 -0.200012,-1.099976c-0.099976,-0.200012 -0.099976,-0.400024 -0.199951,-0.700012c-0.100037,-0.299988 -0.200012,-0.700012 -0.300049,-1c-0.099976,-0.200012 -0.099976,-0.5 -0.199951,-0.700012c-0.100037,-0.299988 -0.200012,-0.599976 -0.300049,-0.899963c-0.099976,-0.299988 -0.199951,-0.5 -0.299988,-0.799988c-0.099976,-0.300049 -0.200012,-0.5 -0.299988,-0.800049c-0.099976,-0.299988 -0.200012,-0.599976 -0.400024,-0.899963c-0.099976,-0.200012 -0.199951,-0.400024 -0.299988,-0.700012c-0.099976,-0.299988 -0.299988,-0.700012 -0.5,-1c-0.099976,-0.200012 -0.200012,-0.400024 -0.299988,-0.5c-0.200012,-0.400024 -0.400024,-0.700012 -0.599976,-1.099976c-0.100037,-0.100037 -0.200012,-0.300049 -0.200012,-0.400024c-0.200012,-0.400024 -0.400024,-0.799988 -0.700012,-1.200012c-0.099976,-0.099976 -0.099976,-0.200012 -0.200012,-0.299988c-0.200012,-0.400024 -0.5,-0.799988 -0.799988,-1.200012c-0.099976,-0.099976 -0.099976,-0.200012 -0.200012,-0.299988c-0.299988,-0.400024 -0.599976,-0.799988 -0.799988,-1.200012c-0.099976,-0.099976 -0.099976,-0.200012 -0.200012,-0.200012c-0.299988,-0.399963 -0.599976,-0.799988 -0.899963,-1.199951c-0.100037,-0.100037 -0.100037,-0.100037 -0.200012,-0.200012c-0.700012,-0.799988 -1.400024,-1.600037 -2.200012,-2.400024l-129.299988,-129.600006c-14.400024,-14.399994 -37.599976,-14.399994 -52,0c-14.400024,14.399994 -14.400024,37.600006 0,52l66.799988,66.800018l-817.800003,0c-20.299999,0 -36.7,16.5 -36.7,36.700012c0,20.299988 16.499999,36.799988 36.7,36.799988l906.500015,0c0,0 0,0 0,0c0.599976,0 1.200012,0 1.799988,0c0.299988,0 0.599976,0 0.900024,-0.100037c0.299988,0 0.599976,0 0.899963,-0.099976c0.400024,0 0.700012,-0.099976 1.100037,-0.099976c0.199951,0 0.399963,-0.100037 0.699951,-0.100037c0.400024,-0.099976 0.800049,-0.099976 1.200012,-0.200012c0.200012,0 0.400024,-0.099976 0.5,-0.099976c0.400024,-0.099976 0.799988,-0.200012 1.200012,-0.299988c0.200012,0 0.299988,-0.100037 0.5,-0.100037c0.400024,-0.099976 0.799988,-0.199951 1.200012,-0.299988c0.200012,-0.099976 0.399963,-0.099976 0.599976,-0.200012c0.400024,-0.099976 0.700012,-0.199951 1.100037,-0.399963c0.199951,-0.100037 0.399963,-0.100037 0.599976,-0.200012c0.299988,-0.099976 0.700012,-0.200012 1,-0.400024c0.200012,-0.099976 0.5,-0.199951 0.700012,-0.299988c0.299988,-0.099976 0.599976,-0.200012 0.899963,-0.399963c0.300049,-0.100037 0.5,-0.200012 0.800049,-0.400024c0.299988,-0.099976 0.5,-0.200012 0.699951,-0.400024c0.300049,-0.099976 0.600037,-0.299988 0.900024,-0.399963c0.200012,-0.100037 0.400024,-0.200012 0.700012,-0.400024c0.299988,-0.200012 0.599976,-0.299988 0.899963,-0.5c0.200012,-0.099976 0.400024,-0.299988 0.600037,-0.399963c0.299988,-0.200012 0.599976,-0.400024 0.899963,-0.600037c0.200012,-0.099976 0.400024,-0.299988 0.600037,-0.399963c0.299988,-0.200012 0.599976,-0.400024 0.799988,-0.600037c0.200012,-0.200012 0.5,-0.399963 0.700012,-0.5c0.200012,-0.200012 0.5,-0.399963 0.700012,-0.599976c0.299988,-0.299988 0.599976,-0.5 0.899963,-0.799988c0.100037,-0.100037 0.299988,-0.200012 0.400024,-0.400024c0.899963,-0.799988 1.799988,-1.700012 2.599976,-2.599976c0.100037,-0.100037 0.200012,-0.300049 0.400024,-0.400024c0.299988,-0.299988 0.5,-0.599976 0.799988,-0.900024c0.200012,-0.199951 0.400024,-0.5 0.599976,-0.699951c0.200012,-0.200012 0.400024,-0.5 0.5,-0.700012c0.200012,-0.299988 0.400024,-0.600037 0.600037,-0.799988c0.099976,-0.200012 0.299988,-0.400024 0.399963,-0.600037c0.200012,-0.299988 0.400024,-0.599976 0.600037,-0.899963c0.099976,-0.200012 0.299988,-0.400024 0.399963,-0.600037c0.200012,-0.299988 0.400024,-0.599976 0.5,-0.899963c0.100037,-0.200012 0.300049,-0.400024 0.400024,-0.700012c0.200012,-0.299988 0.299988,-0.600037 0.400024,-0.900024c0.099976,-0.299988 0.299988,-0.5 0.399963,-0.799988c0.100037,-0.299988 0.200012,-0.5 0.400024,-0.799988c0.099976,-0.299988 0.299988,-0.600037 0.399963,-0.900024c0.100037,-0.200012 0.200012,-0.5 0.300049,-0.700012c0.099976,-0.299988 0.299988,-0.699951 0.399963,-1c0.100037,-0.199951 0.100037,-0.399963 0.200012,-0.599976c0.099976,-0.400024 0.200012,-0.700012 0.400024,-1.099976c0.099976,-0.200012 0.099976,-0.400024 0.199951,-0.600037c0.100037,-0.399963 0.200012,-0.799988 0.300049,-1.200012c0,-0.199951 0.099976,-0.299988 0.099976,-0.5c0.099976,-0.399963 0.200012,-0.799988 0.299988,-1.199951c0,-0.200012 0.100037,-0.400024 0.100037,-0.5c0.099976,-0.400024 0.099976,-0.800049 0.199951,-1.200012c0,-0.200012 0.100037,-0.400024 0.100037,-0.600037c0,-0.399963 0.099976,-0.799988 0.099976,-1.099976c0,-0.299988 0,-0.599976 0.100037,-0.900024c0,-0.299988 0,-0.599976 0.099976,-0.899963c0,-0.600037 0,-1.200012 0,-1.799988c0,0 0,0 0,0l0,0c0,-0.500061 0,-1.100037 0,-1.700012z" fill="#014898"/>
  <path id="svg_3" d="m114.699997,204.799957l704.800003,0c0.099976,0 0.199951,0 0.299988,0c9.5,0.100006 19.099976,-3.5 26.299988,-10.799988c14.400024,-14.400024 14.400024,-37.600006 0,-52.000015l-129.399963,-129.499985c-14.400024,-14.400002 -37.599976,-14.400002 -52,0c-14.400024,14.399994 -14.400024,37.600006 0,52l66.799988,66.800003l-616.800003,0c-20.299995,0 -36.699997,16.5 -36.699997,36.800003c0,20.199982 16.400002,36.699982 36.699997,36.699982z" fill="#014898"/>
  <path id="svg_4" d="m848,774.900024c0.200012,-0.300049 0.400024,-0.599976 0.700012,-0.900024c0.099976,-0.199951 0.299988,-0.400024 0.399963,-0.599976c0.200012,-0.300049 0.5,-0.599976 0.700012,-1c0.100037,-0.200073 0.200012,-0.300049 0.299988,-0.5c0.200012,-0.300049 0.400024,-0.700073 0.600037,-1c0.099976,-0.200073 0.200012,-0.300049 0.299988,-0.5c0.200012,-0.300049 0.400024,-0.700073 0.599976,-1c0.100037,-0.200073 0.200012,-0.400024 0.300049,-0.599976c0.199951,-0.300049 0.299988,-0.600098 0.5,-1c0.099976,-0.200073 0.199951,-0.400024 0.299988,-0.700073c0.099976,-0.299927 0.299988,-0.599976 0.399963,-0.900024c0.100037,-0.299927 0.200012,-0.5 0.300049,-0.799927c0.099976,-0.300049 0.199951,-0.5 0.299988,-0.800049c0.099976,-0.299927 0.200012,-0.599976 0.299988,-0.900024c0.099976,-0.199951 0.200012,-0.5 0.200012,-0.699951c0.099976,-0.300049 0.200012,-0.699951 0.299988,-1c0.099976,-0.199951 0.099976,-0.400024 0.200012,-0.599976c0.099976,-0.400024 0.200012,-0.700073 0.299988,-1.099976c0,-0.200073 0.099976,-0.400024 0.099976,-0.600098c0.100037,-0.399902 0.200012,-0.799927 0.300049,-1.199951c0,-0.199951 0.099976,-0.400024 0.099976,-0.599976c0.099976,-0.400024 0.099976,-0.800049 0.200012,-1.200073c0,-0.199951 0.099976,-0.5 0.099976,-0.699951c0,-0.400024 0.100037,-0.699951 0.100037,-1.099976c0,-0.300049 0,-0.599976 0.099976,-0.900024c0,-0.300049 0,-0.599976 0.099976,-0.900024c0.100037,-1.199951 0.100037,-2.400024 0,-3.599976c0,-0.300049 0,-0.599976 -0.099976,-0.900024c0,-0.299927 0,-0.599976 -0.099976,-0.900024c0,-0.399902 -0.100037,-0.699951 -0.100037,-1.099976c0,-0.199951 -0.099976,-0.5 -0.099976,-0.699951c-0.100037,-0.400024 -0.100037,-0.800049 -0.200012,-1.200073c0,-0.199951 -0.099976,-0.399902 -0.099976,-0.599976c-0.100037,-0.400024 -0.200012,-0.799927 -0.300049,-1.199951c0,-0.200073 -0.099976,-0.400024 -0.099976,-0.599976c-0.099976,-0.400024 -0.200012,-0.800049 -0.299988,-1.100098c-0.100037,-0.199951 -0.100037,-0.399902 -0.200012,-0.599976c-0.099976,-0.299927 -0.200012,-0.699951 -0.299988,-1c-0.100037,-0.199951 -0.200012,-0.5 -0.200012,-0.699951c-0.099976,-0.300049 -0.200012,-0.599976 -0.299988,-0.900024c-0.100037,-0.300049 -0.200012,-0.5 -0.299988,-0.800049c-0.100037,-0.299927 -0.200012,-0.5 -0.300049,-0.799927c-0.099976,-0.300049 -0.299988,-0.599976 -0.399963,-0.900024c-0.100037,-0.199951 -0.200012,-0.400024 -0.299988,-0.699951c-0.200012,-0.300049 -0.300049,-0.600098 -0.5,-1c-0.100037,-0.200073 -0.200012,-0.400024 -0.300049,-0.600098c-0.199951,-0.299927 -0.399963,-0.699951 -0.599976,-1c-0.099976,-0.199951 -0.200012,-0.299927 -0.299988,-0.5c-0.200012,-0.299927 -0.400024,-0.699951 -0.600037,-1c-0.099976,-0.199951 -0.199951,-0.299927 -0.399963,-0.5c-0.200012,-0.299927 -0.400024,-0.599976 -0.700012,-1c-0.099976,-0.199951 -0.299988,-0.399902 -0.400024,-0.599976c-0.199951,-0.299927 -0.399963,-0.599976 -0.699951,-0.799927c-0.200012,-0.200073 -0.400024,-0.5 -0.600037,-0.700073c-0.200012,-0.199951 -0.399963,-0.400024 -0.599976,-0.599976c-0.400024,-0.400024 -0.799988,-0.900024 -1.299988,-1.300049l-129.400024,-129.199951c-14.400024,-14.400024 -37.599976,-14.400024 -52,0c-14.400024,14.400024 -14.400024,37.599976 0,52l66.799988,66.799927l-616.099991,0c-20.299995,0 -36.699997,16.5 -36.699997,36.800049c0,20.300049 16.5,36.800049 36.699997,36.800049l704.800003,0c0,0 0,0 0.099976,0c0.599976,0 1.200012,0 1.799988,0c0.299988,0 0.600037,0 0.900024,-0.100098c0.299988,0 0.599976,0 0.899963,-0.099976c0.400024,0 0.700012,-0.099976 1.100037,-0.099976c0.200012,0 0.5,-0.099976 0.700012,-0.099976c0.399963,-0.099976 0.799988,-0.099976 1.199951,-0.200073c0.200012,0 0.400024,-0.099976 0.600037,-0.099976c0.399963,-0.099976 0.799988,-0.199951 1.200012,-0.299927c0.199951,0 0.399963,-0.100098 0.599976,-0.100098c0.400024,-0.099976 0.799988,-0.199951 1.099976,-0.299927c0.200012,-0.099976 0.400024,-0.099976 0.600037,-0.200073c0.299988,-0.099976 0.700012,-0.199951 1,-0.299927c0.200012,-0.099976 0.5,-0.200073 0.700012,-0.200073c0.299988,-0.099976 0.599976,-0.199951 0.899963,-0.299927c0.299988,-0.099976 0.5,-0.200073 0.799988,-0.300049c0.300049,-0.099976 0.5,-0.199951 0.800049,-0.299927c0.299988,-0.100098 0.599976,-0.300049 0.899963,-0.400024c0.200012,-0.099976 0.400024,-0.200073 0.700012,-0.300049c0.299988,-0.199951 0.599976,-0.299927 1,-0.5c0.200012,-0.099976 0.400024,-0.199951 0.599976,-0.299927c0.300049,-0.200073 0.700012,-0.400024 1,-0.600098c0.200012,-0.099976 0.300049,-0.199951 0.5,-0.299927c0.300049,-0.200073 0.700012,-0.400024 1,-0.599976c0.200012,-0.100098 0.300049,-0.200073 0.5,-0.400024c0.300049,-0.200073 0.600037,-0.400024 1,-0.700073c0.200012,-0.099976 0.400024,-0.299927 0.600037,-0.399902c0.299988,-0.200073 0.599976,-0.400024 0.899963,-0.700073c0.200012,-0.199951 0.5,-0.400024 0.700012,-0.599976c0.200012,-0.199951 0.400024,-0.400024 0.600037,-0.599976c0.899963,-0.800049 1.799988,-1.700073 2.599976,-2.599976c0.200012,-0.200073 0.400024,-0.400024 0.599976,-0.600098c-0.199951,-0.5 0.100037,-0.699951 0.300049,-0.899902z" fill="#014898"/>
</svg>