<svg width="416" height="480" xmlns="http://www.w3.org/2000/svg">
  <g id="svg_7">
   <path stroke-width="0" id="svg_2" d="m376,0l-336,0c-22.055,0 -40,17.945 -40,40l0,400c0,22.054993 17.945,40 40,40l336,0c22.054993,0 40,-17.945007 40,-40l0,-400c0,-22.055 -17.945007,-40 -40,-40zm24,440c0,13.234009 -10.765991,24 -24,24l-336,0c-13.234001,0 -24,-10.765991 -24,-24l0,-400c0,-13.233999 10.765999,-24 24,-24l336,0c13.234009,0 24,10.766001 24,24l0,400z" fill="#014898"/>
   <path id="svg_3" d="m376,40l-336,0c-4.417999,0 -8,3.582001 -8,8l0,384c0,4.417999 3.582001,8 8,8l336,0c4.417999,0 8,-3.582001 8,-8l0,-384c0,-4.417999 -3.582001,-8 -8,-8zm-176,384l-152,0l0,-16l152,0l0,16zm0,-32l-152,0l0,-16l152,0l0,16zm0,-32l-152,0l0,-16l152,0l0,16zm0,-32l-152,0l0,-16l152,0l0,16zm0,-32l-152,0l0,-16l152,0l0,16zm0,-32l-152,0l0,-16l152,0l0,16zm0,-32l-152,0l0,-16l152,0l0,16zm0,-32l-152,0l0,-16l152,0l0,16zm0,-32l-152,0l0,-16l152,0l0,16zm0,-32l-152,0l0,-16l152,0l0,16zm0,-32l-152,0l0,-16l152,0l0,16zm0,-32l-152,0l0,-16l152,0l0,16zm168,352l-152,0l0,-16l152,0l0,16zm0,-32l-152,0l0,-16l152,0l0,16zm0,-32l-152,0l0,-16l152,0l0,16zm0,-32l-152,0l0,-16l152,0l0,16zm0,-32l-152,0l0,-16l152,0l0,16zm0,-32l-152,0l0,-16l152,0l0,16zm0,-32l-152,0l0,-16l152,0l0,16zm0,-32l-152,0l0,-16l152,0l0,16zm0,-32l-152,0l0,-16l152,0l0,16zm0,-32l-152,0l0,-16l152,0l0,16zm0,-32l-152,0l0,-16l152,0l0,16zm0,-32l-152,0l0,-16l152,0l0,16z" fill="#014898"/>
   <path stroke-width="0" id="svg_4" d="m368.634613,12l-322.269226,0c-21.153717,0 -38.365387,16.972979 -38.365387,37.833336l0,378.333351c0,20.860321 17.21167,37.833313 38.365387,37.833313l322.269226,0c21.153717,0 38.365387,-16.972992 38.365387,-37.833313l0,-378.333351c0,-20.860357 -17.21167,-37.833336 -38.365387,-37.833336zm23.019257,416.166687c0,12.517151 -10.32605,22.699982 -23.019257,22.699982l-322.269226,0c-12.693192,0 -23.019234,-10.182831 -23.019234,-22.699982l0,-378.333351c0,-12.517159 10.326042,-22.700001 23.019234,-22.700001l322.269226,0c12.693207,0 23.019257,10.182842 23.019257,22.700001l0,378.333351z" fill="#014898"/>
   <path stroke-width="0" id="svg_5" d="m361.461548,26.000004l-306.92308,0c-20.146393,0 -36.53846,15.963573 -36.53846,35.583332l0,355.833321c0,19.619751 16.392067,35.583344 36.53846,35.583344l306.92308,0c20.146362,0 36.538452,-15.963593 36.538452,-35.583344l0,-355.833321c0,-19.619759 -16.39209,-35.583332 -36.538452,-35.583332zm21.923096,391.416653c0,11.772766 -9.83432,21.350006 -21.923096,21.350006l-306.92308,0c-12.088745,0 -21.923073,-9.57724 -21.923073,-21.350006l0,-355.833321c0,-11.772743 9.834328,-21.349998 21.923073,-21.349998l306.92308,0c12.088776,0 21.923096,9.577255 21.923096,21.349998l0,355.833321z" fill="#014898"/>
   <path stroke-width="0" id="svg_6" d="m376,20.999994l-336,0c-22.055,0 -40,16.374811 -40,36.500002l0,364.999973c0,20.125214 17.945,36.500031 40,36.500031l336,0c22.054993,0 40,-16.374817 40,-36.500031l0,-364.999973c0,-20.125191 -17.945007,-36.500002 -40,-36.500002zm24,401.499975c0,12.07608 -10.765991,21.900055 -24,21.900055l-336,0c-13.234001,0 -24,-9.823975 -24,-21.900055l0,-364.999973c0,-12.076027 10.765999,-21.900002 24,-21.900002l336,0c13.234009,0 24,9.823975 24,21.900002l0,364.999973z" fill="#014898"/>
  </g>
</svg>