<?xml version="1.0" encoding="utf-8"?>
<!-- Generator: Adobe Illustrator 23.0.4, SVG Export Plug-In . SVG Version: 6.00 Build 0)  -->
<svg version="1.2" baseProfile="tiny" xmlns="http://www.w3.org/2000/svg" xmlns:xlink="http://www.w3.org/1999/xlink" x="0px"
	 y="0px" viewBox="0 0 101.73 124.18" xml:space="preserve">
<g id="Capa_2">
</g>
<g id="Capa_1">
	<g>
		<g>
			<polygon fill="#CC5261" points="41.25,95.41 37.9,97.32 34.02,95.4 37.47,93.3 			"/>
			<polygon fill="#BD1622" points="41.24,122.06 37.88,124.17 37.88,97.3 49.06,94.32 			"/>
			<polygon fill="#751518" points="37.9,124.18 34.01,122.02 26.56,93.86 37.89,97.3 			"/>
		</g>
		<g>
			<polygon fill="#CC5261" points="101.71,60.41 98.37,62.32 94.49,60.4 97.93,58.31 			"/>
			<polygon fill="#751518" points="98.37,88.99 94.48,87.03 86.48,68.69 98.36,62.31 			"/>
			<polygon fill="#BD1622" points="101.71,87.06 98.34,88.97 94.58,80.17 98.35,62.31 101.72,60.4 			"/>
		</g>
		<g>
			<polygon fill="#CC5261" points="7.3,75.73 3.95,77.64 0.08,75.72 3.52,73.63 			"/>
			<polygon fill="#BD1622" points="7.3,102.38 3.93,104.56 3.93,77.63 15.82,80.79 			"/>
			<polygon fill="#751518" points="3.95,104.57 0.06,102.34 0.08,75.72 12.6,81.06 			"/>
		</g>
		<g>
			<polygon fill="#BD1622" points="101.73,75.98 101.71,44.2 37.89,81.05 37.89,113.11 			"/>
			<polygon fill="#CC5261" points="37.96,81.11 101.68,44.21 63.53,22.17 0,59.1 			"/>
			<path fill="#751518" d="M37.89,113.11v-32L0,59.1c0,0,0.07,31.95,0,31.95l37.96,22.01"/>
		</g>
		<g>
			<g>
				<g>
					<path fill="#751518" d="M79.06,40.64c-1.26,3.69-6.96,4.95-10.85,5.69c-4.74,0.84-8.75,1.37-12.43-1.79
						c-4.43-3.79-5.69-1.58-5.69-4.43c0,4.11,0-0.53-0.11,2c0,1.9-0.11,3.58,1.05,5.27c2.53,3.69,7.8,4.95,12.01,5.16
						c4.32,0.21,9.06-0.53,12.65-3.06c1.58-1.05,2.85-2.63,3.16-4.53c0.11-0.53,0.11-1.05,0.11-1.58c0-2.21,0.11,1.79,0.11-3.06
						c0-0.11,0-0.21,0-0.32C79.06,40.32,79.16,40.53,79.06,40.64z"/>
					<g>
						
							<ellipse transform="matrix(2.835001e-03 -1 1 2.835001e-03 24.2794 104.6642)" fill="#CC5261" cx="64.62" cy="40.16" rx="8.43" ry="14.54"/>
					</g>
				</g>
			</g>
			<g>
				<g>
					<path fill="#751518" d="M53.88,36.56c0,3.04,0-0.39-0.08,1.48c0,1.4-0.08,2.65,0.78,3.9c1.87,2.73,5.77,3.67,8.9,3.82
						c3.2,0.16,6.71-0.39,9.36-2.26c1.17-0.78,2.11-1.95,2.34-3.36c0.08-0.39,0.05-0.78,0.08-1.17c0.09-1.51,0.08-2.42,0.08-2.5
						C75.33,36.72,53.88,38.67,53.88,36.56z"/>
				</g>
			</g>
			<g>
				<g>
					<path fill="#751518" d="M79.06,28.28c-1.26,3.69-6.96,4.95-10.85,5.69c-4.74,0.84-8.75,1.37-12.43-1.79
						c-4.43-3.79-5.69-1.58-5.69-4.43c0,4.11,0-0.53-0.11,2c0,1.9-0.11,3.58,1.05,5.27c2.53,3.69,7.8,4.95,12.01,5.16
						c4.32,0.21,9.06-0.53,12.65-3.06c1.58-1.05,2.85-2.63,3.16-4.53c0.11-0.53,0.11-1.05,0.11-1.58c0-2.21,0.11,1.79,0.11-3.06
						c0-0.11,0-0.21,0-0.32C79.06,27.96,79.16,28.17,79.06,28.28z"/>
					<g>
						
							<ellipse transform="matrix(2.835001e-03 -1 1 2.835001e-03 36.6408 92.3378)" fill="#CC5261" cx="64.62" cy="27.8" rx="8.43" ry="14.54"/>
					</g>
				</g>
			</g>
			<g>
				<g>
					<path fill="#751518" d="M52.86,38.69c-0.07,0.22-0.41,0.29-0.64,0.34c-0.28,0.05-0.52,0.08-0.73-0.11
						c-0.26-0.22-0.34-0.09-0.34-0.26c0,0.24,0,1.03-0.01,1.18c0,0.11-0.01,0.21,0.06,0.31c0.15,0.22,0.46,0.29,0.71,0.3
						c0.26,0.01,0.54-0.03,0.75-0.18c0.09-0.06,0.17-0.16,0.19-0.27c0.01-0.03,0.01-0.06,0.01-0.09c0-0.13,0.01-0.95,0.01-1.24
						c0-0.01,0-0.01,0-0.02C52.86,38.67,52.86,38.69,52.86,38.69z"/>
					<g>
						
							<ellipse transform="matrix(2.835001e-03 -1 1 2.835001e-03 13.1938 90.5599)" fill="#BD1622" cx="52.01" cy="38.66" rx="0.5" ry="0.86"/>
					</g>
				</g>
			</g>
			<g>
				<g>
					<path fill="#751518" d="M54.91,42.72c-0.07,0.22-0.41,0.29-0.64,0.34c-0.28,0.05-0.52,0.08-0.73-0.11
						c-0.26-0.22-0.34-0.09-0.34-0.26c0,0.24,0,1.03-0.01,1.18c0,0.11-0.01,0.21,0.06,0.31c0.15,0.22,0.46,0.29,0.71,0.3
						c0.26,0.01,0.54-0.03,0.75-0.18c0.09-0.06,0.17-0.16,0.19-0.27c0.01-0.03,0.01-0.06,0.01-0.09c0-0.13,0.01-0.95,0.01-1.24
						c0-0.01,0-0.01,0-0.02C54.91,42.7,54.91,42.71,54.91,42.72z"/>
					<g>
						
							<ellipse transform="matrix(2.835001e-03 -1 1 2.835001e-03 11.2132 96.6247)" fill="#BD1622" cx="54.06" cy="42.69" rx="0.5" ry="0.86"/>
					</g>
				</g>
			</g>
			<g>
				<g>
					<path fill="#751518" d="M60.45,45.49c-0.07,0.22-0.41,0.29-0.64,0.34c-0.28,0.05-0.52,0.08-0.73-0.11
						c-0.26-0.22-0.34-0.09-0.34-0.26c0,0.24,0,1.03-0.01,1.18c0,0.11-0.01,0.21,0.06,0.31c0.15,0.22,0.46,0.29,0.71,0.3
						c0.26,0.01,0.54-0.03,0.75-0.18c0.09-0.06,0.17-0.16,0.19-0.27c0.01-0.03,0.01-0.06,0.01-0.09c0-0.13,0.01-0.95,0.01-1.24
						c0-0.01,0-0.01,0-0.02C60.45,45.47,60.46,45.48,60.45,45.49z"/>
					<g>
						
							<ellipse transform="matrix(2.835001e-03 -1 1 2.835001e-03 13.9698 104.9337)" fill="#BD1622" cx="59.6" cy="45.46" rx="0.5" ry="0.86"/>
					</g>
				</g>
			</g>
			<g>
				<g>
					<path fill="#751518" d="M68.47,45.87c-0.07,0.22-0.41,0.29-0.64,0.34c-0.28,0.05-0.52,0.08-0.73-0.11
						c-0.26-0.22-0.34-0.09-0.34-0.26c0,0.24,0,1.03-0.01,1.18c0,0.11-0.01,0.21,0.06,0.31c0.15,0.22,0.46,0.29,0.71,0.3
						c0.26,0.01,0.54-0.03,0.75-0.18c0.09-0.06,0.17-0.16,0.19-0.27c0.01-0.03,0.01-0.06,0.01-0.09c0-0.13,0.01-0.95,0.01-1.24
						c0-0.01,0-0.01,0-0.02C68.47,45.85,68.47,45.86,68.47,45.87z"/>
					<g>
						
							<ellipse transform="matrix(2.835001e-03 -1 1 2.835001e-03 21.5804 113.3255)" fill="#BD1622" cx="67.61" cy="45.84" rx="0.5" ry="0.86"/>
					</g>
				</g>
			</g>
			<g>
				<g>
					<path fill="#751518" d="M75.19,43.44c-0.07,0.22-0.41,0.29-0.64,0.34c-0.28,0.05-0.52,0.08-0.73-0.11
						c-0.26-0.22-0.34-0.09-0.34-0.26c0,0.24,0,1.03-0.01,1.18c0,0.11-0.01,0.21,0.06,0.31c0.15,0.22,0.46,0.29,0.71,0.3
						c0.26,0.01,0.54-0.03,0.75-0.18c0.09-0.06,0.17-0.16,0.19-0.27c0.01-0.03,0.01-0.06,0.01-0.09c0-0.13,0.01-0.95,0.01-1.24
						c0-0.01,0-0.01,0-0.02C75.19,43.42,75.19,43.43,75.19,43.44z"/>
					<g>
						
							<ellipse transform="matrix(2.835001e-03 -1 1 2.835001e-03 30.7137 117.6237)" fill="#BD1622" cx="74.34" cy="43.41" rx="0.5" ry="0.86"/>
					</g>
				</g>
			</g>
			<g>
				<g>
					<path fill="#751518" d="M78.23,38.84c-0.07,0.22-0.41,0.29-0.64,0.34c-0.28,0.05-0.52,0.08-0.73-0.11
						c-0.26-0.22-0.34-0.09-0.34-0.26c0,0.24,0,1.03-0.01,1.18c0,0.11-0.01,0.21,0.06,0.31c0.15,0.22,0.46,0.29,0.71,0.3
						c0.26,0.01,0.54-0.03,0.75-0.18c0.09-0.06,0.17-0.16,0.19-0.27c0.01-0.03,0.01-0.06,0.01-0.09c0-0.13,0.01-0.95,0.01-1.24
						c0-0.01,0-0.01,0-0.02C78.23,38.83,78.23,38.84,78.23,38.84z"/>
					<g>
						
							<ellipse transform="matrix(2.835001e-03 -1 1 2.835001e-03 38.3384 116.0797)" fill="#BD1622" cx="77.37" cy="38.82" rx="0.5" ry="0.86"/>
					</g>
				</g>
			</g>
			<g>
				<path fill="#BD1622" d="M77.15,7.74c-1.1,3.2-6.04,4.3-9.42,4.94c-4.12,0.73-7.59,1.19-10.8-1.56
					c-3.84-3.29-4.94-1.37-4.94-3.84c0,3.57,0,15.1-0.09,17.29c0,1.65-0.09,3.11,0.91,4.57c2.2,3.2,6.77,4.3,10.43,4.48
					c3.75,0.18,7.87-0.46,10.98-2.65c1.37-0.91,2.47-2.29,2.74-3.93c0.09-0.46,0.09-0.91,0.09-1.37c0-1.92,0.09-14,0.09-18.21
					c0-0.09,0-0.18,0-0.27C77.15,7.46,77.24,7.64,77.15,7.74z"/>
				<g>
					<path fill="#EA6A80" d="M64.42,33.65c0.35,0,0.7-0.01,1.05-0.03V13.04c-0.36,0.05-0.7,0.09-1.05,0.12V33.65z"/>
					<path fill="#EA6A80" d="M70.24,12.14c-0.35,0.09-0.71,0.17-1.05,0.24v20.75c0.35-0.08,0.7-0.17,1.05-0.28V12.14z"/>
					<path fill="#EA6A80" d="M68,12.62c-0.09,0.02-0.18,0.04-0.27,0.05c-0.26,0.05-0.52,0.09-0.78,0.14v20.7
						c0.35-0.04,0.7-0.09,1.05-0.14V12.62z"/>
					<path fill="#EA6A80" d="M75.68,29.69c0.45-0.53,0.82-1.13,1.05-1.78V8.58c-0.28,0.44-0.63,0.84-1.05,1.19V29.69z"/>
					<path fill="#EA6A80" d="M72.53,11.46c-0.35,0.12-0.7,0.24-1.05,0.34v20.62c0.36-0.14,0.71-0.3,1.05-0.47V11.46z"/>
					<path fill="#EA6A80" d="M74.83,30.52V10.38c-0.33,0.21-0.68,0.4-1.05,0.57v20.3c0.15-0.09,0.3-0.17,0.44-0.28
						C74.43,30.83,74.63,30.68,74.83,30.52z"/>
					<path fill="#EA6A80" d="M53.83,9.17C53.39,9,53.04,8.91,52.78,8.81v20.28c0.01,0.02,0.02,0.04,0.03,0.06
						c0.3,0.43,0.64,0.82,1.02,1.18V9.17z"/>
					<path fill="#EA6A80" d="M55.86,10.29c-0.38-0.27-0.73-0.49-1.05-0.66v21.51c0.33,0.24,0.69,0.44,1.05,0.64V10.29z"/>
					<path fill="#EA6A80" d="M57.25,32.42c0.34,0.13,0.7,0.25,1.05,0.36V12.09c-0.35-0.2-0.7-0.44-1.05-0.72V32.42z"/>
					<path fill="#EA6A80" d="M60.77,13.03c-0.35-0.07-0.7-0.17-1.05-0.29v20.41c0.35,0.08,0.7,0.15,1.05,0.2V13.03z"/>
					<path fill="#EA6A80" d="M63.01,13.23c-0.35,0-0.71,0-1.05-0.03v20.32c0.36,0.04,0.71,0.06,1.05,0.08V13.23z"/>
				</g>
				<g>
					
						<ellipse transform="matrix(2.835001e-03 -1 1 2.835001e-03 57.1105 71.9118)" fill="#BD1622" cx="64.61" cy="7.32" rx="7.32" ry="12.63"/>
				</g>
				<g>
					
						<ellipse transform="matrix(2.835001e-03 -1 1 2.835001e-03 59.702 69.3277)" fill="#CC5261" cx="64.61" cy="4.73" rx="4.73" ry="8.16"/>
				</g>
			</g>
			<g>
				<g>
					<polygon fill="#CC5261" points="56.61,25.6 55.41,26.22 55.41,18.64 56.61,18.02 					"/>
					<polygon fill="#751518" points="55.42,26.23 51.4,23.92 51.4,16.26 55.42,18.66 					"/>
				</g>
				<polygon fill="#CC5261" points="55.42,18.66 56.62,18.01 52.53,15.62 51.4,16.27 				"/>
			</g>
		</g>
		<g>
			<g>
				<g>
					<path fill="#751518" d="M30.4,59.37c-0.18,0.52-0.97,0.69-1.52,0.8c-0.66,0.12-1.22,0.19-1.74-0.25
						c-0.62-0.53-0.8-0.22-0.8-0.62c0,0.58,0,5.08-0.01,5.43c0,0.27-0.01,0.5,0.15,0.74c0.35,0.52,1.09,0.69,1.68,0.72
						c0.6,0.03,1.27-0.07,1.77-0.43c0.22-0.15,0.4-0.37,0.44-0.63c0.01-0.07,0.01-0.15,0.01-0.22c0-0.31,0.01-4.9,0.01-5.58
						c0-0.01,0-0.03,0-0.04C30.4,59.32,30.42,59.35,30.4,59.37z"/>
					<g>
						
							<ellipse transform="matrix(2.835001e-03 -1 1 2.835001e-03 -31.0003 87.5141)" fill="#BD1622" cx="28.38" cy="59.3" rx="1.18" ry="2.03"/>
					</g>
				</g>
			</g>
			<g>
				<g>
					<path fill="#CC3082" d="M22,58.76c0-0.51,0.07-2.31,0.07-2.31s3.67-1.38,6.31-1.37c2.2,0.01,6.33,1.18,6.33,1.18
						s0.03,1.76,0.02,2.53c-0.01,2.04-2.86,3.68-6.38,3.67S22,60.8,22,58.76z"/>
				</g>
				<g>
					
						<ellipse transform="matrix(2.835001e-03 -1 1 2.835001e-03 -28.2619 84.7682)" fill="#DA659E" cx="28.37" cy="56.56" rx="3.69" ry="6.37"/>
				</g>
			</g>
		</g>
	</g>
</g>
</svg>
