<?xml version="1.0" encoding="UTF-8" standalone="no"?>
<!-- Generator: Adobe Illustrator 23.0.4, SVG Export Plug-In . SVG Version: 6.00 Build 0)  -->

<svg
   xmlns:dc="http://purl.org/dc/elements/1.1/"
   xmlns:cc="http://creativecommons.org/ns#"
   xmlns:rdf="http://www.w3.org/1999/02/22-rdf-syntax-ns#"
   xmlns:svg="http://www.w3.org/2000/svg"
   xmlns="http://www.w3.org/2000/svg"
   xmlns:sodipodi="http://sodipodi.sourceforge.net/DTD/sodipodi-0.dtd"
   xmlns:inkscape="http://www.inkscape.org/namespaces/inkscape"
   version="1.2"
   x="0px"
   y="0px"
   viewBox="0 0 101.73 124.18"
   xml:space="preserve"
   id="svg194"
   sodipodi:docname="bomba_orujo_verde.svg"
   inkscape:version="0.92.5 (2060ec1f9f, 2020-04-08)"><metadata
   id="metadata200"><rdf:RDF><cc:Work
       rdf:about=""><dc:format>image/svg+xml</dc:format><dc:type
         rdf:resource="http://purl.org/dc/dcmitype/StillImage" /></cc:Work></rdf:RDF></metadata><defs
   id="defs198">
	

		
		
		
		
		
		
	
			
			
		</defs><sodipodi:namedview
   pagecolor="#ffffff"
   bordercolor="#666666"
   borderopacity="1"
   objecttolerance="10"
   gridtolerance="10"
   guidetolerance="10"
   inkscape:pageopacity="0"
   inkscape:pageshadow="2"
   inkscape:window-width="2400"
   inkscape:window-height="1316"
   id="namedview196"
   showgrid="false"
   inkscape:zoom="21.50133"
   inkscape:cx="44.171798"
   inkscape:cy="59.356232"
   inkscape:window-x="-11"
   inkscape:window-y="-9"
   inkscape:window-maximized="1"
   inkscape:current-layer="svg194" />
<g
   id="Capa_2">
</g>
<g
   id="g9">
			<polygon
   points="41.25,95.41 37.9,97.32 34.02,95.4 37.47,93.3 "
   id="polygon3"
   style="fill:#6aba82" />
			<polygon
   points="41.24,122.06 37.88,124.17 37.88,97.3 49.06,94.32 "
   id="polygon5"
   style="fill:#31aa59" />
			<polygon
   points="37.9,124.18 34.01,122.02 26.56,93.86 37.89,97.3 "
   id="polygon7"
   style="fill:#006e32" />
		</g><g
   id="g17">
			<polygon
   points="101.71,60.41 98.37,62.32 94.49,60.4 97.93,58.31 "
   id="polygon11"
   style="fill:#6aba82" />
			<polygon
   points="98.37,88.99 94.48,87.03 86.48,68.69 98.36,62.31 "
   id="polygon13"
   style="fill:#006e32" />
			<polygon
   points="101.72,60.4 101.71,87.06 98.34,88.97 94.58,80.17 98.35,62.31 "
   id="polygon15"
   style="fill:#31aa59" />
		</g><g
   id="g25">
			<polygon
   points="7.3,75.73 3.95,77.64 0.08,75.72 3.52,73.63 "
   id="polygon19"
   style="fill:#6aba82" />
			<polygon
   points="7.3,102.38 3.93,104.56 3.93,77.63 15.82,80.79 "
   id="polygon21"
   style="fill:#31aa59" />
			<polygon
   points="3.95,104.57 0.06,102.34 0.08,75.72 12.6,81.06 "
   id="polygon23"
   style="fill:#006e32" />
		</g><g
   id="g33">
			<polygon
   points="101.73,75.98 101.71,44.2 37.89,81.05 37.89,113.11 "
   id="polygon27"
   style="fill:#31aa59" />
			<polygon
   points="37.96,81.11 101.68,44.21 63.53,22.17 0,59.1 "
   id="polygon29"
   style="fill:#6aba82" />
			<path
   d="m 37.89,113.11 v -32 L 0,59.1 c 0,0 0.07,31.95 0,31.95 l 37.96,22.01"
   id="path31"
   inkscape:connector-curvature="0"
   style="fill:#006e32" />
		</g><g
   id="g167">
			<g
   id="g43">
				<g
   id="g41">
					<path
   d="m 79.06,40.64 c -1.26,3.69 -6.96,4.95 -10.85,5.69 -4.74,0.84 -8.75,1.37 -12.43,-1.79 -4.43,-3.79 -5.69,-1.58 -5.69,-4.43 0,4.11 0,-0.53 -0.11,2 0,1.9 -0.11,3.58 1.05,5.27 2.53,3.69 7.8,4.95 12.01,5.16 4.32,0.21 9.06,-0.53 12.65,-3.06 1.58,-1.05 2.85,-2.63 3.16,-4.53 0.11,-0.53 0.11,-1.05 0.11,-1.58 0,-2.21 0.11,1.79 0.11,-3.06 0,-0.11 0,-0.21 0,-0.32 -0.01,0.33 0.09,0.54 -0.01,0.65 z"
   id="path35"
   inkscape:connector-curvature="0"
   style="fill:#006e32" />
					<g
   id="g39">
						
							<ellipse
   transform="matrix(0.002835,-1,1,0.002835,24.2794,104.6642)"
   cx="64.620003"
   cy="40.16"
   rx="8.4300003"
   ry="14.54"
   id="ellipse37"
   style="fill:#6aba82" />
					</g>
				</g>
			</g>
			<g
   id="g49">
				<g
   id="g47">
					<path
   d="m 53.88,36.56 c 0,3.04 0,-0.39 -0.08,1.48 0,1.4 -0.08,2.65 0.78,3.9 1.87,2.73 5.77,3.67 8.9,3.82 3.2,0.16 6.71,-0.39 9.36,-2.26 1.17,-0.78 2.11,-1.95 2.34,-3.36 0.08,-0.39 0.05,-0.78 0.08,-1.17 0.09,-1.51 0.08,-2.42 0.08,-2.5 -0.01,0.25 -21.46,2.2 -21.46,0.09 z"
   id="path45"
   inkscape:connector-curvature="0"
   style="fill:#006e32" />
				</g>
			</g>
			<g
   id="g59">
				<g
   id="g57">
					<path
   d="m 79.06,28.28 c -1.26,3.69 -6.96,4.95 -10.85,5.69 -4.74,0.84 -8.75,1.37 -12.43,-1.79 -4.43,-3.79 -5.69,-1.58 -5.69,-4.43 0,4.11 0,-0.53 -0.11,2 0,1.9 -0.11,3.58 1.05,5.27 2.53,3.69 7.8,4.95 12.01,5.16 4.32,0.21 9.06,-0.53 12.65,-3.06 1.58,-1.05 2.85,-2.63 3.16,-4.53 0.11,-0.53 0.11,-1.05 0.11,-1.58 0,-2.21 0.11,1.79 0.11,-3.06 0,-0.11 0,-0.21 0,-0.32 -0.01,0.33 0.09,0.54 -0.01,0.65 z"
   id="path51"
   inkscape:connector-curvature="0"
   style="fill:#006e32" />
					<g
   id="g55">
						
							<ellipse
   transform="matrix(0.002835,-1,1,0.002835,36.6408,92.3378)"
   cx="64.620003"
   cy="27.799999"
   rx="8.4300003"
   ry="14.54"
   id="ellipse53"
   style="fill:#6aba82" />
					</g>
				</g>
			</g>
			<g
   id="g69">
				<g
   id="g67">
					<path
   d="m 52.86,38.69 c -0.07,0.22 -0.41,0.29 -0.64,0.34 -0.28,0.05 -0.52,0.08 -0.73,-0.11 -0.26,-0.22 -0.34,-0.09 -0.34,-0.26 0,0.24 0,1.03 -0.01,1.18 0,0.11 -0.01,0.21 0.06,0.31 0.15,0.22 0.46,0.29 0.71,0.3 0.26,0.01 0.54,-0.03 0.75,-0.18 0.09,-0.06 0.17,-0.16 0.19,-0.27 0.01,-0.03 0.01,-0.06 0.01,-0.09 0,-0.13 0.01,-0.95 0.01,-1.24 0,-0.01 0,-0.01 0,-0.02 -0.01,0.02 -0.01,0.04 -0.01,0.04 z"
   id="path61"
   inkscape:connector-curvature="0"
   style="fill:#006e32" />
					<g
   id="g65">
						
							<ellipse
   transform="matrix(0.002835,-1,1,0.002835,13.1938,90.5599)"
   cx="52.009998"
   cy="38.66"
   rx="0.5"
   ry="0.86000001"
   id="ellipse63"
   style="fill:#31aa59" />
					</g>
				</g>
			</g>
			<g
   id="g79">
				<g
   id="g77">
					<path
   d="m 54.91,42.72 c -0.07,0.22 -0.41,0.29 -0.64,0.34 -0.28,0.05 -0.52,0.08 -0.73,-0.11 -0.26,-0.22 -0.34,-0.09 -0.34,-0.26 0,0.24 0,1.03 -0.01,1.18 0,0.11 -0.01,0.21 0.06,0.31 0.15,0.22 0.46,0.29 0.71,0.3 0.26,0.01 0.54,-0.03 0.75,-0.18 0.09,-0.06 0.17,-0.16 0.19,-0.27 0.01,-0.03 0.01,-0.06 0.01,-0.09 0,-0.13 0.01,-0.95 0.01,-1.24 0,-0.01 0,-0.01 0,-0.02 -0.01,0.02 -0.01,0.03 -0.01,0.04 z"
   id="path71"
   inkscape:connector-curvature="0"
   style="fill:#006e32" />
					<g
   id="g75">
						
							<ellipse
   transform="matrix(0.002835,-1,1,0.002835,11.2132,96.6247)"
   cx="54.060001"
   cy="42.689999"
   rx="0.5"
   ry="0.86000001"
   id="ellipse73"
   style="fill:#31aa59" />
					</g>
				</g>
			</g>
			<g
   id="g89">
				<g
   id="g87">
					<path
   d="m 60.45,45.49 c -0.07,0.22 -0.41,0.29 -0.64,0.34 -0.28,0.05 -0.52,0.08 -0.73,-0.11 -0.26,-0.22 -0.34,-0.09 -0.34,-0.26 0,0.24 0,1.03 -0.01,1.18 0,0.11 -0.01,0.21 0.06,0.31 0.15,0.22 0.46,0.29 0.71,0.3 0.26,0.01 0.54,-0.03 0.75,-0.18 0.09,-0.06 0.17,-0.16 0.19,-0.27 0.01,-0.03 0.01,-0.06 0.01,-0.09 0,-0.13 0.01,-0.95 0.01,-1.24 0,-0.01 0,-0.01 0,-0.02 -0.01,0.02 0,0.03 -0.01,0.04 z"
   id="path81"
   inkscape:connector-curvature="0"
   style="fill:#006e32" />
					<g
   id="g85">
						
							<ellipse
   transform="matrix(0.002835,-1,1,0.002835,13.9698,104.9337)"
   cx="59.599998"
   cy="45.459999"
   rx="0.5"
   ry="0.86000001"
   id="ellipse83"
   style="fill:#31aa59" />
					</g>
				</g>
			</g>
			<g
   id="g99">
				<g
   id="g97">
					<path
   d="m 68.47,45.87 c -0.07,0.22 -0.41,0.29 -0.64,0.34 -0.28,0.05 -0.52,0.08 -0.73,-0.11 -0.26,-0.22 -0.34,-0.09 -0.34,-0.26 0,0.24 0,1.03 -0.01,1.18 0,0.11 -0.01,0.21 0.06,0.31 0.15,0.22 0.46,0.29 0.71,0.3 0.26,0.01 0.54,-0.03 0.75,-0.18 0.09,-0.06 0.17,-0.16 0.19,-0.27 0.01,-0.03 0.01,-0.06 0.01,-0.09 0,-0.13 0.01,-0.95 0.01,-1.24 0,-0.01 0,-0.01 0,-0.02 -0.01,0.02 -0.01,0.03 -0.01,0.04 z"
   id="path91"
   inkscape:connector-curvature="0"
   style="fill:#006e32" />
					<g
   id="g95">
						
							<ellipse
   transform="matrix(0.002835,-1,1,0.002835,21.5804,113.3255)"
   cx="67.610001"
   cy="45.84"
   rx="0.5"
   ry="0.86000001"
   id="ellipse93"
   style="fill:#31aa59" />
					</g>
				</g>
			</g>
			<g
   id="g109">
				<g
   id="g107">
					<path
   d="m 75.19,43.44 c -0.07,0.22 -0.41,0.29 -0.64,0.34 -0.28,0.05 -0.52,0.08 -0.73,-0.11 -0.26,-0.22 -0.34,-0.09 -0.34,-0.26 0,0.24 0,1.03 -0.01,1.18 0,0.11 -0.01,0.21 0.06,0.31 0.15,0.22 0.46,0.29 0.71,0.3 0.26,0.01 0.54,-0.03 0.75,-0.18 0.09,-0.06 0.17,-0.16 0.19,-0.27 0.01,-0.03 0.01,-0.06 0.01,-0.09 0,-0.13 0.01,-0.95 0.01,-1.24 0,-0.01 0,-0.01 0,-0.02 -0.01,0.02 -0.01,0.03 -0.01,0.04 z"
   id="path101"
   inkscape:connector-curvature="0"
   style="fill:#006e32" />
					<g
   id="g105">
						
							<ellipse
   transform="matrix(0.002835,-1,1,0.002835,30.7137,117.6237)"
   cx="74.339996"
   cy="43.41"
   rx="0.5"
   ry="0.86000001"
   id="ellipse103"
   style="fill:#31aa59" />
					</g>
				</g>
			</g>
			<g
   id="g119">
				<g
   id="g117">
					<path
   d="m 78.23,38.84 c -0.07,0.22 -0.41,0.29 -0.64,0.34 -0.28,0.05 -0.52,0.08 -0.73,-0.11 -0.26,-0.22 -0.34,-0.09 -0.34,-0.26 0,0.24 0,1.03 -0.01,1.18 0,0.11 -0.01,0.21 0.06,0.31 0.15,0.22 0.46,0.29 0.71,0.3 0.26,0.01 0.54,-0.03 0.75,-0.18 0.09,-0.06 0.17,-0.16 0.19,-0.27 0.01,-0.03 0.01,-0.06 0.01,-0.09 0,-0.13 0.01,-0.95 0.01,-1.24 0,-0.01 0,-0.01 0,-0.02 -0.01,0.03 -0.01,0.04 -0.01,0.04 z"
   id="path111"
   inkscape:connector-curvature="0"
   style="fill:#006e32" />
					<g
   id="g115">
						
							<ellipse
   transform="matrix(0.002835,-1,1,0.002835,38.3384,116.0797)"
   cx="77.370003"
   cy="38.82"
   rx="0.5"
   ry="0.86000001"
   id="ellipse113"
   style="fill:#31aa59" />
					</g>
				</g>
			</g>
			<g
   id="g155">
				<path
   d="m 77.15,7.74 c -1.1,3.2 -6.04,4.3 -9.42,4.94 -4.12,0.73 -7.59,1.19 -10.8,-1.56 -3.84,-3.29 -4.94,-1.37 -4.94,-3.84 0,3.57 0,15.1 -0.09,17.29 0,1.65 -0.09,3.11 0.91,4.57 2.2,3.2 6.77,4.3 10.43,4.48 3.75,0.18 7.87,-0.46 10.98,-2.65 1.37,-0.91 2.47,-2.29 2.74,-3.93 0.09,-0.46 0.09,-0.91 0.09,-1.37 0,-1.92 0.09,-14 0.09,-18.21 0,-0.09 0,-0.18 0,-0.27 0.01,0.27 0.1,0.45 0.01,0.55 z"
   id="path121"
   inkscape:connector-curvature="0"
   style="fill:#31aa59" />
				<g
   id="g145">
					<path
   d="M 74.83,30.52 V 10.38 c -0.33,0.21 -0.68,0.4 -1.05,0.57 v 20.3 c 0.15,-0.09 0.3,-0.17 0.44,-0.28 0.21,-0.14 0.41,-0.29 0.61,-0.45 z"
   id="path123"
   inkscape:connector-curvature="0"
   style="fill:#f2f1f1" />
					<path
   d="m 72.53,11.46 c -0.35,0.12 -0.7,0.24 -1.05,0.34 v 20.62 c 0.36,-0.14 0.71,-0.3 1.05,-0.47 z"
   id="path125"
   inkscape:connector-curvature="0"
   style="fill:#f2f1f1" />
					<path
   d="m 75.68,29.69 c 0.45,-0.53 0.82,-1.13 1.05,-1.78 V 8.58 C 76.45,9.02 76.1,9.42 75.68,9.77 Z"
   id="path127"
   inkscape:connector-curvature="0"
   style="fill:#f2f1f1" />
					<path
   d="m 70.24,12.14 c -0.35,0.09 -0.71,0.17 -1.05,0.24 v 20.75 c 0.35,-0.08 0.7,-0.17 1.05,-0.28 z"
   id="path129"
   inkscape:connector-curvature="0"
   style="fill:#f2f1f1" />
					<path
   d="m 60.77,13.03 c -0.35,-0.07 -0.7,-0.17 -1.05,-0.29 v 20.41 c 0.35,0.08 0.7,0.15 1.05,0.2 z"
   id="path131"
   inkscape:connector-curvature="0"
   style="fill:#f2f1f1" />
					<path
   d="M 55.86,10.29 C 55.48,10.02 55.13,9.8 54.81,9.63 v 21.51 c 0.33,0.24 0.69,0.44 1.05,0.64 z"
   id="path133"
   inkscape:connector-curvature="0"
   style="fill:#f2f1f1" />
					<path
   d="M 53.83,9.17 C 53.39,9 53.04,8.91 52.78,8.81 v 20.28 c 0.01,0.02 0.02,0.04 0.03,0.06 0.3,0.43 0.64,0.82 1.02,1.18 V 9.17 Z"
   id="path135"
   inkscape:connector-curvature="0"
   style="fill:#f2f1f1" />
					<path
   d="m 68,12.62 c -0.09,0.02 -0.18,0.04 -0.27,0.05 -0.26,0.05 -0.52,0.09 -0.78,0.14 v 20.7 c 0.35,-0.04 0.7,-0.09 1.05,-0.14 z"
   id="path137"
   inkscape:connector-curvature="0"
   style="fill:#f2f1f1" />
					<path
   d="m 64.42,33.65 c 0.35,0 0.7,-0.01 1.05,-0.03 V 13.04 c -0.36,0.05 -0.7,0.09 -1.05,0.12 z"
   id="path139"
   inkscape:connector-curvature="0"
   style="fill:#f2f1f1" />
					<path
   d="m 63.01,13.23 c -0.35,0 -0.71,0 -1.05,-0.03 v 20.32 c 0.36,0.04 0.71,0.06 1.05,0.08 z"
   id="path141"
   inkscape:connector-curvature="0"
   style="fill:#f2f1f1" />
					<path
   d="m 57.25,32.42 c 0.34,0.13 0.7,0.25 1.05,0.36 V 12.09 c -0.35,-0.2 -0.7,-0.44 -1.05,-0.72 z"
   id="path143"
   inkscape:connector-curvature="0"
   style="fill:#f2f1f1" />
				</g>
				<g
   id="g149">
					
						<ellipse
   transform="matrix(0.002835,-1,1,0.002835,57.1105,71.9118)"
   cx="64.610001"
   cy="7.3200002"
   rx="7.3200002"
   ry="12.63"
   id="ellipse147"
   style="fill:#31aa59" />
				</g>
				<g
   id="g153">
					
						<ellipse
   transform="matrix(0.002835,-1,1,0.002835,59.702,69.3277)"
   cx="64.610001"
   cy="4.73"
   rx="4.73"
   ry="8.1599998"
   id="ellipse151"
   style="fill:#6aba82" />
				</g>
			</g>
			<g
   id="g165">
				<g
   id="g161">
					<polygon
   points="56.61,25.6 55.41,26.22 55.41,18.64 56.61,18.02 "
   id="polygon157"
   style="fill:#6aba82" />
					<polygon
   points="55.42,26.23 51.4,23.92 51.4,16.26 55.42,18.66 "
   id="polygon159"
   style="fill:#006e32" />
				</g>
				<polygon
   points="55.42,18.66 56.62,18.01 52.53,15.62 51.4,16.27 "
   id="polygon163"
   style="fill:#6aba82" />
			</g>
		</g><g
   id="g177">
				<g
   id="g175">
					<path
   style="fill:#006e32"
   inkscape:connector-curvature="0"
   id="path169"
   d="m 30.4,59.37 c -0.18,0.52 -0.97,0.69 -1.52,0.8 -0.66,0.12 -1.22,0.19 -1.74,-0.25 -0.62,-0.53 -0.8,-0.22 -0.8,-0.62 0,0.58 0,5.08 -0.01,5.43 0,0.27 -0.01,0.5 0.15,0.74 0.35,0.52 1.09,0.69 1.68,0.72 0.6,0.03 1.27,-0.07 1.77,-0.43 0.22,-0.15 0.4,-0.37 0.44,-0.63 0.01,-0.07 0.01,-0.15 0.01,-0.22 0,-0.31 0.01,-4.9 0.01,-5.58 0,-0.01 0,-0.03 0,-0.04 0.01,0.03 0.03,0.06 0.01,0.08 z" />
					<g
   id="g173">
						
							<ellipse
   style="fill:#31aa59"
   id="ellipse171"
   ry="2.03"
   rx="1.1799999"
   cy="59.299999"
   cx="28.379999"
   transform="matrix(0.002835,-1,1,0.002835,-31.0003,87.5141)" />
					</g>
				</g>
			</g><g
   id="g187"
   transform="translate(0,2.9999548)">
				<g
   id="g181">
					<path
   style="fill:#cc3082"
   inkscape:connector-curvature="0"
   id="path179"
   d="m 22,58.76 c 0,-0.51 0.07,-2.31 0.07,-2.31 0,0 3.67,-1.38 6.31,-1.37 2.2,0.01 6.33,1.18 6.33,1.18 0,0 0.03,1.76 0.02,2.53 -0.01,2.04 -2.86,3.68 -6.38,3.67 C 24.83,62.45 22,60.8 22,58.76 Z" />
				</g>
				<g
   id="g185">
					
						<ellipse
   style="fill:#da659e"
   id="ellipse183"
   ry="6.3699999"
   rx="3.6900001"
   cy="56.560001"
   cx="28.370001"
   transform="matrix(0.002835,-1,1,0.002835,-28.2619,84.7682)" />
				</g>
			</g>
</svg>