<svg width="100.00000000000001" height="100.00000000000001" xmlns="http://www.w3.org/2000/svg">
 <!-- Created with Method Draw - http://github.com/duopixel/Method-Draw/ -->

 <g>
  <title>background</title>
  <rect fill="none" id="canvas_background" height="102" width="102" y="-1" x="-1"/>
  <g display="none" overflow="visible" y="0" x="0" height="100%" width="100%" id="canvasGrid">
   <rect fill="url(#gridpattern)" stroke-width="0" y="0" x="0" height="100%" width="100%"/>
  </g>
 </g>
 <g>
  <title>Layer 1</title>
  <!-- Created with Method Draw - http://github.com/duopixel/Method-Draw/ -->
  <g transform="matrix(0.4444444709353981,0,0,0.4444444709353981,0,0) " id="svg_82">
   <title transform="translate(2.109374761581421,-3.515624761581421) translate(22.499998092651367,2.5) translate(-573.7499389648438,-344.2499694824219) translate(552.5,0) translate(0,349.9999694824219) ">background</title>
   <rect x="2.359434" y="3.734375" width="202" height="202" id="svg_80" fill="none"/>
   <g id="svg_79" display="none">
    <rect id="svg_83" width="580" height="400" x="3.359434" y="4.734375" stroke-width="0" fill="url(#gridpattern)"/>
   </g>
  </g>
  <metadata transform="translate(2.109374761581421,-3.515624761581421) translate(22.499998092651367,2.5) translate(-573.7499389648438,-344.2499694824219) translate(552.5,0) translate(0,349.9999694824219) matrix(0.4444444709353981,0,0,0.4444444709353981,-1.8663520717770805,-2.6302083403699847) ">Etiquette IconshashactioncomputericonsAndy FitzsimonAndy FitzsimonAndy Fitzsimonimage/svg+xmlen</metadata>
  <metadata transform="translate(2.109374761581421,-3.515624761581421) translate(22.499998092651367,2.5) translate(-573.7499389648438,-344.2499694824219) translate(552.5,0) translate(0,349.9999694824219) matrix(0.4444444709353981,0,0,0.4444444709353981,-1.8663520717770805,-2.6302083403699847) ">Svg Vector Icons : http://www.onlinewebfonts.com/icon</metadata>
  <metadata transform="translate(2.109374761581421,-3.515624761581421) translate(22.499998092651367,2.5) translate(-573.7499389648438,-344.2499694824219) translate(552.5,0) translate(0,349.9999694824219) matrix(0.4444444709353981,0,0,0.4444444709353981,-1.8663520717770805,-2.6302083403699847) ">Svg Vector Icons : http://www.onlinewebfonts.com/icon</metadata>
  <path d="m46.382009,6.481749c-21.399023,0 -38.720522,17.526405 -38.720522,39.1785c0,21.636099 17.321499,39.170478 38.720522,39.17846c21.383246,-0.007982 38.712647,-17.542361 38.720553,-39.17846c-0.007907,-21.652095 -17.337308,-39.1785 -38.720553,-39.1785zm0,69.138035c-16.349539,-0.031987 -29.585637,-13.424627 -29.617251,-29.959535c0.039511,-16.542912 13.267712,-29.935553 29.625162,-29.967526c16.34165,0.031973 29.577753,13.424614 29.609371,29.967526c-0.039511,16.534908 -13.27561,29.927548 -29.617282,29.959535z" fill="#014898" id="svg_78"/>
  <g transform="matrix(0.4444444709353981,0,0,0.4444444709353981,0,0) " id="svg_60" stroke="null">
   <g id="svg_76" transform="matrix(5.190007188348716,0,0,5.228468262718782,-0.018686470115625298,1.7736719768666518) " stroke="null">
    <path d="m33.111363,19.214175c0,7.18 -5.818,13 -13,13c-7.18,0 -13,-5.82 -13,-13c0,-7.18 5.82,-13 13,-13c7.182,0 13,5.82 13,13z" id="svg_77" stroke="null" fill="#b3c8e0"/>
   </g>
   <g id="svg_75" transform="matrix(5.190007188348716,0,0,5.228468262718782,-0.018686470115625298,1.7736719768666518) " stroke="null"/>
   <g id="svg_74" transform="matrix(5.190007188348716,0,0,5.228468262718782,-0.018686470115625298,1.7736719768666518) " stroke="null"/>
   <g id="svg_73" transform="matrix(5.190007188348716,0,0,5.228468262718782,-0.018686470115625298,1.7736719768666518) " stroke="null"/>
   <g id="svg_72" transform="matrix(5.190007188348716,0,0,5.228468262718782,-0.018686470115625298,1.7736719768666518) " stroke="null"/>
   <g id="svg_71" transform="matrix(5.190007188348716,0,0,5.228468262718782,-0.018686470115625298,1.7736719768666518) " stroke="null"/>
   <g id="svg_70" transform="matrix(5.190007188348716,0,0,5.228468262718782,-0.018686470115625298,1.7736719768666518) " stroke="null"/>
   <g id="svg_69" transform="matrix(5.190007188348716,0,0,5.228468262718782,-0.018686470115625298,1.7736719768666518) " stroke="null"/>
   <g id="svg_68" transform="matrix(5.190007188348716,0,0,5.228468262718782,-0.018686470115625298,1.7736719768666518) " stroke="null"/>
   <g id="svg_67" transform="matrix(5.190007188348716,0,0,5.228468262718782,-0.018686470115625298,1.7736719768666518) " stroke="null"/>
   <g id="svg_66" transform="matrix(5.190007188348716,0,0,5.228468262718782,-0.018686470115625298,1.7736719768666518) " stroke="null"/>
   <g id="svg_65" transform="matrix(5.190007188348716,0,0,5.228468262718782,-0.018686470115625298,1.7736719768666518) " stroke="null"/>
   <g id="svg_64" transform="matrix(5.190007188348716,0,0,5.228468262718782,-0.018686470115625298,1.7736719768666518) " stroke="null"/>
   <g id="svg_63" transform="matrix(5.190007188348716,0,0,5.228468262718782,-0.018686470115625298,1.7736719768666518) " stroke="null"/>
   <g id="svg_62" transform="matrix(5.190007188348716,0,0,5.228468262718782,-0.018686470115625298,1.7736719768666518) " stroke="null"/>
   <g id="svg_61" transform="matrix(5.190007188348716,0,0,5.228468262718782,-0.018686470115625298,1.7736719768666518) " stroke="null"/>
  </g>
 </g>
</svg>