<svg width="128" height="120" xmlns="http://www.w3.org/2000/svg">
 <!-- Created with Method Draw - http://github.com/duopixel/Method-Draw/ -->

 <g>
  <title>background</title>
  <rect fill="none" id="canvas_background" height="122" width="130" y="-1" x="-1"/>
  <g display="none" overflow="visible" y="0" x="0" height="100%" width="100%" id="canvasGrid">
   <rect fill="url(#gridpattern)" stroke-width="0" y="0" x="0" height="100%" width="100%"/>
  </g>
 </g>
 <g>
  <title>Layer 1</title>
  <!-- Created with Method Draw - http://github.com/duopixel/Method-Draw/ -->
  <g transform="matrix(1.0359405670858592,0,0,1.0359405670858592,0,0) " id="svg_90">
   <title transform="translate(-185.63592529296875,-100.24340057373047) translate(-26.063270568847656,-30.889802932739258) translate(214.4388427734375,0) translate(0,134.06126403808594) ">background</title>
   <rect x="1.739647" y="1.928061" width="133" height="120" id="svg_88" fill="none"/>
   <g id="svg_87" display="none">
    <rect id="svg_91" width="580" height="400" x="2.739647" y="2.928061" stroke-width="0" fill="url(#gridpattern)"/>
   </g>
  </g>
  <!-- Created with Method Draw - http://github.com/duopixel/Method-Draw/ -->
  <g id="svg_83" transform="matrix(0.7867368258457418,0,0,0.7867368258457418,0,0) ">
   <title fill="none" transform="translate(-244.437255859375,-131.99612426757812) translate(-34.318973541259766,-40.674339294433594) translate(282.3636779785156,0) translate(0,176.5260009765625) ">background</title>
   <rect fill="none" id="svg_86" height="155" width="150" y="5.133934" x="11.182309"/>
   <g display="none" id="svg_84">
    <rect fill="none" stroke-width="0" y="6.133934" x="12.182309" height="400" width="580" id="svg_85"/>
   </g>
  </g>
  <!-- Created with Method Draw - http://github.com/duopixel/Method-Draw/ -->
  <!-- Created with Method Draw - http://github.com/duopixel/Method-Draw/ -->
  <!-- Created with Method Draw - http://github.com/duopixel/Method-Draw/ -->
  <metadata transform="translate(-26.063270568847656,-30.889802932739258) translate(214.4388427734375,0) translate(0,134.06126403808594) matrix(1.0359405670858592,0,0,1.0359405670858592,6.770324890156189,3.708040819202836) ">Etiquette IconshashactioncomputericonsAndy FitzsimonAndy FitzsimonAndy Fitzsimonimage/svg+xmlen</metadata>
  <metadata transform="translate(-26.063270568847656,-30.889802932739258) translate(214.4388427734375,0) translate(0,134.06126403808594) matrix(1.0359405670858592,0,0,1.0359405670858592,6.770324890156189,3.708040819202836) ">Svg Vector Icons : http://www.onlinewebfonts.com/icon</metadata>
  <metadata transform="translate(-26.063270568847656,-30.889802932739258) translate(214.4388427734375,0) translate(0,134.06126403808594) matrix(1.0359405670858592,0,0,1.0359405670858592,6.770324890156189,3.708040819202836) ">Svg Vector Icons : http://www.onlinewebfonts.com/icon</metadata>
  <path stroke="null" id="svg_82" fill="#014898" d="m66.827291,10.578558c-27.793622,0 -50.291247,23.002314 -50.291247,51.419356c0,28.396053 22.497625,51.408841 50.291247,51.419314c27.773121,-0.010473 50.281033,-23.023261 50.291289,-51.419314c-0.010256,-28.417041 -22.518157,-51.419356 -50.291289,-51.419356zm0,90.739381c-21.235217,-0.041956 -38.42662,-17.618977 -38.467674,-39.320025c0.05131,-21.711543 17.232457,-39.288554 38.47794,-39.33053c21.224982,0.041976 38.416375,17.618987 38.45745,39.33053c-0.05131,21.701049 -17.242723,39.27807 -38.467716,39.320025z"/>
  <g stroke="null" id="svg_64" transform="matrix(0.5772563968663793,0,0,0.5833058896472336,-0.01100776826239893,0.004757777534517679) ">
   <g stroke="null" transform="matrix(5.190007188348716,0,0,5.228468262718782,-0.018686470115625298,1.7736719768666518) " id="svg_80">
    <path stroke="null" fill="none" id="svg_81" d="m35.313016,19.891902c0,7.18 -5.818,12.99999 -13,12.99999c-7.18,0 -13,-5.82 -13,-13c0,-7.18 5.82,-13 13,-13c7.182,0 13,5.82 13,13l0,0.00001z"/>
   </g>
   <g stroke="null" transform="matrix(5.190007188348716,0,0,5.228468262718782,-0.018686470115625298,1.7736719768666518) " id="svg_79"/>
   <g stroke="null" transform="matrix(5.190007188348716,0,0,5.228468262718782,-0.018686470115625298,1.7736719768666518) " id="svg_78"/>
   <g stroke="null" transform="matrix(5.190007188348716,0,0,5.228468262718782,-0.018686470115625298,1.7736719768666518) " id="svg_77"/>
   <g stroke="null" transform="matrix(5.190007188348716,0,0,5.228468262718782,-0.018686470115625298,1.7736719768666518) " id="svg_76"/>
   <g stroke="null" transform="matrix(5.190007188348716,0,0,5.228468262718782,-0.018686470115625298,1.7736719768666518) " id="svg_75"/>
   <g stroke="null" transform="matrix(5.190007188348716,0,0,5.228468262718782,-0.018686470115625298,1.7736719768666518) " id="svg_74"/>
   <g stroke="null" transform="matrix(5.190007188348716,0,0,5.228468262718782,-0.018686470115625298,1.7736719768666518) " id="svg_73"/>
   <g stroke="null" transform="matrix(5.190007188348716,0,0,5.228468262718782,-0.018686470115625298,1.7736719768666518) " id="svg_72"/>
   <g stroke="null" transform="matrix(5.190007188348716,0,0,5.228468262718782,-0.018686470115625298,1.7736719768666518) " id="svg_71"/>
   <g stroke="null" transform="matrix(5.190007188348716,0,0,5.228468262718782,-0.018686470115625298,1.7736719768666518) " id="svg_70"/>
   <g stroke="null" transform="matrix(5.190007188348716,0,0,5.228468262718782,-0.018686470115625298,1.7736719768666518) " id="svg_69"/>
   <g stroke="null" transform="matrix(5.190007188348716,0,0,5.228468262718782,-0.018686470115625298,1.7736719768666518) " id="svg_68"/>
   <g stroke="null" transform="matrix(5.190007188348716,0,0,5.228468262718782,-0.018686470115625298,1.7736719768666518) " id="svg_67"/>
   <g stroke="null" transform="matrix(5.190007188348716,0,0,5.228468262718782,-0.018686470115625298,1.7736719768666518) " id="svg_66"/>
   <g stroke="null" transform="matrix(5.190007188348716,0,0,5.228468262718782,-0.018686470115625298,1.7736719768666518) " id="svg_65"/>
  </g>
  <g stroke="null" id="svg_46" transform="matrix(0.4594940984922726,0,0,0.45387327600292954,7.439795569630977,12.208359948240645) ">
   <g stroke="null" transform="matrix(4.574622400120335,0,0,4.4592372905414654,4.223923451072331,15.222713033655193) " id="svg_62">
    <path stroke="null" fill="#014898" id="svg_63" d="m40.227107,21.149526c0,7.18 -5.818,13 -13,13c-7.18,0 -13,-5.82 -13,-13c0,-7.18 5.82,-13 13,-13c7.182,0 13,5.82 13,13z"/>
   </g>
   <g stroke="null" transform="matrix(4.574622400120335,0,0,4.4592372905414654,4.223923451072331,15.222713033655193) " id="svg_61"/>
   <g stroke="null" transform="matrix(4.574622400120335,0,0,4.4592372905414654,4.223923451072331,15.222713033655193) " id="svg_60"/>
   <g stroke="null" transform="matrix(4.574622400120335,0,0,4.4592372905414654,4.223923451072331,15.222713033655193) " id="svg_59"/>
   <g stroke="null" transform="matrix(4.574622400120335,0,0,4.4592372905414654,4.223923451072331,15.222713033655193) " id="svg_58"/>
   <g stroke="null" transform="matrix(4.574622400120335,0,0,4.4592372905414654,4.223923451072331,15.222713033655193) " id="svg_57"/>
   <g stroke="null" transform="matrix(4.574622400120335,0,0,4.4592372905414654,4.223923451072331,15.222713033655193) " id="svg_56"/>
   <g stroke="null" transform="matrix(4.574622400120335,0,0,4.4592372905414654,4.223923451072331,15.222713033655193) " id="svg_55"/>
   <g stroke="null" transform="matrix(4.574622400120335,0,0,4.4592372905414654,4.223923451072331,15.222713033655193) " id="svg_54"/>
   <g stroke="null" transform="matrix(4.574622400120335,0,0,4.4592372905414654,4.223923451072331,15.222713033655193) " id="svg_53"/>
   <g stroke="null" transform="matrix(4.574622400120335,0,0,4.4592372905414654,4.223923451072331,15.222713033655193) " id="svg_52"/>
   <g stroke="null" transform="matrix(4.574622400120335,0,0,4.4592372905414654,4.223923451072331,15.222713033655193) " id="svg_51"/>
   <g stroke="null" transform="matrix(4.574622400120335,0,0,4.4592372905414654,4.223923451072331,15.222713033655193) " id="svg_50"/>
   <g stroke="null" transform="matrix(4.574622400120335,0,0,4.4592372905414654,4.223923451072331,15.222713033655193) " id="svg_49"/>
   <g stroke="null" transform="matrix(4.574622400120335,0,0,4.4592372905414654,4.223923451072331,15.222713033655193) " id="svg_48"/>
   <g stroke="null" transform="matrix(4.574622400120335,0,0,4.4592372905414654,4.223923451072331,15.222713033655193) " id="svg_47"/>
  </g>
 </g>
</svg>