<svg width="131" height="118" xmlns="http://www.w3.org/2000/svg">
 <!-- Created with Method Draw - http://github.com/duopixel/Method-Draw/ -->

 <g>
  <title>background</title>
  <rect fill="none" id="canvas_background" height="120" width="133" y="-1" x="-1"/>
  <g display="none" overflow="visible" y="0" x="0" height="100%" width="100%" id="canvasGrid">
   <rect fill="url(#gridpattern)" stroke-width="0" y="0" x="0" height="100%" width="100%"/>
  </g>
 </g>
 <g>
  <title>Layer 1</title>
  <!-- Created with Method Draw - http://github.com/duopixel/Method-Draw/ -->
  <g transform="matrix(0.7594420479727546,0,0,0.7594420479727546,0,0) " id="svg_100">
   <title fill="none" transform="translate(-289.6863708496094,-176.44532775878906) translate(298.26123046875,0) translate(0,178.72372436523438) ">background</title>
   <rect x="7.57486" y="1.278397" width="150" height="155" id="svg_98" fill="none"/>
   <g id="svg_97" display="none">
    <rect id="svg_101" width="580" height="400" x="8.57486" y="2.278397" stroke-width="0" fill="none"/>
   </g>
  </g>
  <!-- Created with Method Draw - http://github.com/duopixel/Method-Draw/ -->
  <!-- Created with Method Draw - http://github.com/duopixel/Method-Draw/ -->
  <!-- Created with Method Draw - http://github.com/duopixel/Method-Draw/ -->
  <metadata transform="translate(-289.6863708496094,-176.44532775878906) translate(298.26123046875,0) translate(0,178.72372436523438) matrix(0.7594420479727546,0,0,0.7594420479727546,-2.062750668901594,-0.5480864215523102) ">Etiquette IconshashactioncomputericonsAndy FitzsimonAndy FitzsimonAndy Fitzsimonimage/svg+xmlen</metadata>
  <metadata transform="translate(-289.6863708496094,-176.44532775878906) translate(298.26123046875,0) translate(0,178.72372436523438) matrix(0.7594420479727546,0,0,0.7594420479727546,-2.062750668901594,-0.5480864215523102) ">Svg Vector Icons : http://www.onlinewebfonts.com/icon</metadata>
  <metadata transform="translate(-289.6863708496094,-176.44532775878906) translate(298.26123046875,0) translate(0,178.72372436523438) matrix(0.7594420479727546,0,0,0.7594420479727546,-2.062750668901594,-0.5480864215523102) ">Svg Vector Icons : http://www.onlinewebfonts.com/icon</metadata>
  <path d="m61.769162,7.283491c-26.829364,0 -48.546467,22.204278 -48.546467,49.635431c0,27.410884 21.717104,49.625277 48.546467,49.635386c26.809573,-0.010108 48.536594,-22.224502 48.546498,-49.635386c-0.009903,-27.431153 -21.736925,-49.635431 -48.546498,-49.635431zm0,87.591304c-20.498495,-0.040509 -37.093466,-17.007712 -37.133094,-37.955873c0.049531,-20.958292 16.634598,-37.925495 37.143004,-37.966012c20.488607,0.040516 37.08357,17.00772 37.123221,37.966012c-0.049538,20.948161 -16.644509,37.915364 -37.133132,37.955873z" fill="#014898" id="svg_88" stroke="null"/>
  <g transform="matrix(0.557229261221253,0,0,0.5630688749723314,-0.010625868521940604,0.004592712830912192) " id="svg_70" stroke="null">
   <g id="svg_86" transform="matrix(5.190007188348716,0,0,5.228468262718782,-0.018686470115625298,1.7736719768666518) " stroke="null">
    <path d="m34.365713,18.897314c0,7.18 -5.818,12.99999 -13,12.99999c-7.18,0 -13,-5.82 -13,-13c0,-7.18 5.82,-13 13,-13c7.182,0 13,5.82 13,13l0,0.00001z" id="svg_87" fill="#b3c8e0" stroke="null"/>
   </g>
   <g id="svg_85" transform="matrix(5.190007188348716,0,0,5.228468262718782,-0.018686470115625298,1.7736719768666518) " stroke="null"/>
   <g id="svg_84" transform="matrix(5.190007188348716,0,0,5.228468262718782,-0.018686470115625298,1.7736719768666518) " stroke="null"/>
   <g id="svg_83" transform="matrix(5.190007188348716,0,0,5.228468262718782,-0.018686470115625298,1.7736719768666518) " stroke="null"/>
   <g id="svg_82" transform="matrix(5.190007188348716,0,0,5.228468262718782,-0.018686470115625298,1.7736719768666518) " stroke="null"/>
   <g id="svg_81" transform="matrix(5.190007188348716,0,0,5.228468262718782,-0.018686470115625298,1.7736719768666518) " stroke="null"/>
   <g id="svg_80" transform="matrix(5.190007188348716,0,0,5.228468262718782,-0.018686470115625298,1.7736719768666518) " stroke="null"/>
   <g id="svg_79" transform="matrix(5.190007188348716,0,0,5.228468262718782,-0.018686470115625298,1.7736719768666518) " stroke="null"/>
   <g id="svg_78" transform="matrix(5.190007188348716,0,0,5.228468262718782,-0.018686470115625298,1.7736719768666518) " stroke="null"/>
   <g id="svg_77" transform="matrix(5.190007188348716,0,0,5.228468262718782,-0.018686470115625298,1.7736719768666518) " stroke="null"/>
   <g id="svg_76" transform="matrix(5.190007188348716,0,0,5.228468262718782,-0.018686470115625298,1.7736719768666518) " stroke="null"/>
   <g id="svg_75" transform="matrix(5.190007188348716,0,0,5.228468262718782,-0.018686470115625298,1.7736719768666518) " stroke="null"/>
   <g id="svg_74" transform="matrix(5.190007188348716,0,0,5.228468262718782,-0.018686470115625298,1.7736719768666518) " stroke="null"/>
   <g id="svg_73" transform="matrix(5.190007188348716,0,0,5.228468262718782,-0.018686470115625298,1.7736719768666518) " stroke="null"/>
   <g id="svg_72" transform="matrix(5.190007188348716,0,0,5.228468262718782,-0.018686470115625298,1.7736719768666518) " stroke="null"/>
   <g id="svg_71" transform="matrix(5.190007188348716,0,0,5.228468262718782,-0.018686470115625298,1.7736719768666518) " stroke="null"/>
  </g>
  <g transform="matrix(0.44355256767755236,0,0,0.43812675207776886,7.181681851266244,11.78480729119744) " id="svg_52" stroke="null">
   <g id="svg_68" transform="matrix(4.574622400120335,0,0,4.4592372905414654,4.223923451072331,15.222713033655193) " stroke="null">
    <path d="m38.87692,19.650805c0,7.18 -5.818,13 -13,13c-7.18,0 -13,-5.82 -13,-13c0,-7.18 5.82,-13 13,-13c7.182,0 13,5.82 13,13z" id="svg_69" fill="#014898" stroke="null"/>
   </g>
   <g id="svg_67" transform="matrix(4.574622400120335,0,0,4.4592372905414654,4.223923451072331,15.222713033655193) " stroke="null"/>
   <g id="svg_66" transform="matrix(4.574622400120335,0,0,4.4592372905414654,4.223923451072331,15.222713033655193) " stroke="null"/>
   <g id="svg_65" transform="matrix(4.574622400120335,0,0,4.4592372905414654,4.223923451072331,15.222713033655193) " stroke="null"/>
   <g id="svg_64" transform="matrix(4.574622400120335,0,0,4.4592372905414654,4.223923451072331,15.222713033655193) " stroke="null"/>
   <g id="svg_63" transform="matrix(4.574622400120335,0,0,4.4592372905414654,4.223923451072331,15.222713033655193) " stroke="null"/>
   <g id="svg_62" transform="matrix(4.574622400120335,0,0,4.4592372905414654,4.223923451072331,15.222713033655193) " stroke="null"/>
   <g id="svg_61" transform="matrix(4.574622400120335,0,0,4.4592372905414654,4.223923451072331,15.222713033655193) " stroke="null"/>
   <g id="svg_60" transform="matrix(4.574622400120335,0,0,4.4592372905414654,4.223923451072331,15.222713033655193) " stroke="null"/>
   <g id="svg_59" transform="matrix(4.574622400120335,0,0,4.4592372905414654,4.223923451072331,15.222713033655193) " stroke="null"/>
   <g id="svg_58" transform="matrix(4.574622400120335,0,0,4.4592372905414654,4.223923451072331,15.222713033655193) " stroke="null"/>
   <g id="svg_57" transform="matrix(4.574622400120335,0,0,4.4592372905414654,4.223923451072331,15.222713033655193) " stroke="null"/>
   <g id="svg_56" transform="matrix(4.574622400120335,0,0,4.4592372905414654,4.223923451072331,15.222713033655193) " stroke="null"/>
   <g id="svg_55" transform="matrix(4.574622400120335,0,0,4.4592372905414654,4.223923451072331,15.222713033655193) " stroke="null"/>
   <g id="svg_54" transform="matrix(4.574622400120335,0,0,4.4592372905414654,4.223923451072331,15.222713033655193) " stroke="null"/>
   <g id="svg_53" transform="matrix(4.574622400120335,0,0,4.4592372905414654,4.223923451072331,15.222713033655193) " stroke="null"/>
  </g>
 </g>
</svg>