<svg width="103" height="105" xmlns="http://www.w3.org/2000/svg">
 <g>
  <path d="m51.499531,1.079625c-27.793625,0 -50.291252,23.002311 -50.291252,51.419364c0,28.396053 22.497627,51.408848 50.291252,51.419315c27.773037,-0.010468 50.280956,-23.023262 50.29121,-51.419315c-0.010254,-28.417053 -22.51815,-51.419364 -50.29121,-51.419364zm0,90.73939c-21.235214,-0.041962 -38.426624,-17.61898 -38.467674,-39.320042c0.051311,-21.71154 17.23246,-39.288549 38.477943,-39.33053c21.224895,0.041981 38.416286,17.61899 38.457371,39.33053c-0.051315,21.701061 -17.242722,39.27808 -38.46764,39.320042z" fill="#014898" id="svg_82" stroke="null"/>
  <g transform="matrix(0.577256, 0, 0, 0.583306, -0.0110078, 0.00475778)" id="svg_64">
   <g id="svg_80" transform="matrix(5.19001, 0, 0, 5.22847, -0.0186865, 1.77367)">
    <path d="m30.196857,16.777288c0,7.180004 -5.817993,12.999996 -13.000004,12.999996c-7.179965,0 -12.999984,-5.820004 -12.999984,-13.000008c0,-7.18 5.820019,-13 12.999984,-13c7.182011,0 13.000004,5.819999 13.000004,13l0,0.000011z" id="svg_81" fill="none" stroke="null"/>
   </g>
  </g>
  <g id="svg_62" transform="matrix(2.10201, 0, 0, 2.02393, 9.38066, 19.1175)">
   <path d="m32.935192,16.456213c0,7.18 -5.818037,12.999998 -13.000038,12.999998c-7.18,0 -13,-5.819998 -13,-12.999998c0,-7.179999 5.819999,-12.999999 13,-12.999999c7.182001,0 13.000038,5.82 13.000038,12.999999z" id="svg_63" fill="#014898" stroke="null"/>
  </g>
 </g>
</svg>