<svg width="103" height="105" xmlns="http://www.w3.org/2000/svg">
 <g>
  <path id="svg_88" fill="#014898" d="m51.49963,2.863567c-26.829361,0 -48.546471,22.204281 -48.546471,49.635429c0,27.410892 21.71711,49.625278 48.546471,49.635395c26.809566,-0.010117 48.536602,-22.224503 48.546497,-49.635395c-0.009895,-27.431149 -21.736931,-49.635429 -48.546497,-49.635429zm0,87.591297c-20.498489,-0.040504 -37.093472,-17.007706 -37.133091,-37.955868c0.04953,-20.95829 16.63459,-37.925489 37.143002,-37.966009c20.488605,0.04052 37.083569,17.007719 37.123219,37.966009c-0.04953,20.948162 -16.644501,37.915363 -37.133129,37.955868z"/>
  <path fill="#b3c8e0" id="svg_87" d="m89.095894,52.216824c0,21.137829 -16.825798,38.271809 -37.596317,38.271809c-20.764732,0 -37.596312,-17.13401 -37.596312,-38.271839c0,-21.137833 16.831579,-38.271843 37.596312,-38.271843c20.770519,0 37.596317,17.13401 37.596317,38.271843l0,0.000031z"/>
  <path fill="#014898" id="svg_69" d="m77.67028,52.42635c0,14.027645 -11.805214,25.398235 -26.378109,25.398235c-14.568836,0 -26.378117,-11.37059 -26.378117,-25.398235c0,-14.027645 11.80928,-25.398245 26.378117,-25.398245c14.572895,0 26.378109,11.3706 26.378109,25.398245z"/>
 </g>
</svg>