<?xml version="1.0" encoding="utf-8"?>
<!-- Generator: Adobe Illustrator 23.0.3, SVG Export Plug-In . SVG Version: 6.00 Build 0)  -->
<svg version="1.1" id="Capa_1" xmlns="http://www.w3.org/2000/svg" xmlns:xlink="http://www.w3.org/1999/xlink" x="0px" y="0px"
	 viewBox="0 0 126.9 171.8" style="enable-background:new 0 0 126.9 171.8;" xml:space="preserve">
<style type="text/css">
	.st0{fill:#3458A3;}
	.st1{fill:#9FABD8;}
	.st2{fill:#BFC9E8;}
	.st3{fill:#F2F1F1;}
	.st4{fill:#E7E6E6;}
	.st5{fill:#CDCCCC;}
	.st6{fill:#878787;}
	.st7{fill:#B5B5B5;}
	.st8{fill:#DADADA;}
	.st9{fill:#BD1622;}
	.st10{fill:#CC5261;}
	.st11{fill:#751518;}
	.st12{fill:#31AA59;}
	.st13{fill:#6ABA82;}
	.st14{fill:#006E32;}
</style>
<g>
	<g>
		<g>
			<polygon class="st6" points="12.3,58.2 59.9,30.7 59.8,25.9 12.3,53.3 			"/>
			<polygon class="st7" points="12.3,59.1 60.8,31.1 60.3,26.5 12.3,54.2 			"/>
		</g>
		<g>
			<polygon class="st7" points="115.2,54.5 61,23.2 61,28.1 115.2,59.4 			"/>
			<polygon class="st6" points="115.2,55.4 60.4,23.8 60.4,28.6 115.2,60.2 			"/>
		</g>
	</g>
	<g>
		<polygon class="st8" points="13.3,51.2 9.2,53.5 5.3,51.4 9.3,49 		"/>
		<polygon class="st7" points="13.3,137.7 9.3,140.4 9.2,53.5 13.3,51.1 		"/>
	</g>
	<g>
		<polygon class="st8" points="121.6,50.5 117.6,52.8 113.5,50.8 117.6,48.3 		"/>
		<polygon class="st6" points="117.6,140.3 113.5,138.3 113.5,50.8 117.6,52.7 		"/>
	</g>
	<g>
		<g>
			<polygon class="st6" points="62.6,79 26.5,99.9 26.5,96.9 62.5,76.1 			"/>
			<polygon class="st7" points="63.2,79.3 26.9,100.2 26.9,97.3 62.9,76.5 			"/>
		</g>
		<g>
			<polygon class="st7" points="63.3,77.4 100.7,99.1 100.7,96.1 63.3,74.5 			"/>
			<polygon class="st6" points="62.9,77.8 100.4,99.4 100.4,96.4 62.9,74.8 			"/>
		</g>
	</g>
	<g>
		<polygon class="st8" points="30,91 27.5,92.4 25.1,91.2 27.6,89.7 		"/>
		<polygon class="st7" points="30,127.3 27.6,128.9 27.5,92.4 30,91 		"/>
	</g>
	<g>
		<polygon class="st8" points="101.3,91.6 98.9,92.9 96.4,91.7 98.9,90.2 		"/>
		<polygon class="st6" points="98.9,129.8 96.4,128.6 96.4,91.7 98.9,92.9 		"/>
	</g>
	<g>
		<polygon class="st8" points="68.3,46.2 64.3,48.5 60.2,46.5 64.3,44 		"/>
		<g>
			<polygon class="st7" points="68.2,105.5 64.3,108 64.3,48.5 68.3,46.2 			"/>
			<polygon class="st6" points="64.3,108.1 60.2,105.8 60.2,46.5 64.3,48.5 			"/>
		</g>
	</g>
	<g>
		<g>
			<polygon class="st3" points="63.8,104.7 40.4,118.2 39.4,118.7 63.8,132.7 63.8,132.7 63.8,132.7 88,118.7 87.1,118.2 			"/>
			<polygon class="st4" points="28.3,90.8 39.4,118.7 63.8,132.7 63.8,111.1 64.9,109.8 30.4,89.8 			"/>
			<polygon class="st3" points="99.1,90.7 88,118.7 63.6,132.7 63.6,111.1 62.5,109 97.3,90 			"/>
			<polygon class="st3" points="63.8,70.3 28.3,90.8 63.8,111.1 63.8,111.1 63.8,111.1 99.1,90.7 			"/>
			<polygon class="st4" points="63.8,75.3 38.1,90.1 37,90.8 63.8,106.1 63.8,106.1 63.8,106.1 90.4,90.7 89.4,90.1 			"/>
			<polygon class="st5" points="90.4,90.7 89.4,90.1 63.8,75.3 63.8,75.3 63.8,106.1 63.8,106.1 63.8,106.1 63.8,106.1 			"/>
		</g>
		<g>
			<polygon class="st3" points="63.8,70.6 29.8,90.2 28.4,91 63.8,111.3 63.8,111.3 63.8,111.3 99,90.9 97.7,90.2 			"/>
			<polygon class="st5" points="12.3,50.4 28.4,91 63.8,111.3 63.8,79.9 65.4,78 15.3,48.9 			"/>
			<polygon class="st4" points="115.1,50.3 99,91 63.6,111.3 63.6,79.9 62,76.9 112.6,49.2 			"/>
			<polygon class="st3" points="63.8,20.6 12.3,50.4 63.8,80 63.8,80 63.8,80 115.1,50.2 			"/>
			<polygon class="st4" points="63.8,27.9 26.5,49.4 24.9,50.3 63.8,72.7 63.8,72.7 63.8,72.7 102.5,50.2 101.1,49.4 			"/>
			<polygon class="st5" points="102.5,50.2 101.1,49.4 63.8,27.9 63.8,27.9 63.8,72.7 63.8,72.7 63.8,72.7 63.8,72.7 			"/>
			<polygon class="st3" points="63.8,0 12.3,29.8 63.8,59.4 63.8,59.4 63.8,59.4 115.1,29.7 			"/>
			<polygon class="st4" points="63.8,7.3 26.5,28.8 24.9,29.8 63.8,52.1 63.8,52.1 63.8,52.1 102.5,29.7 101.1,28.8 			"/>
			<polygon class="st5" points="102.5,29.7 101.1,28.8 63.8,7.3 63.8,7.3 63.8,52.1 63.8,52.1 63.8,52.1 63.8,52.1 			"/>
		</g>
		<polygon class="st4" points="115.1,29.7 115.1,50.2 63.5,80.1 63.8,59.4 		"/>
		<polygon class="st5" points="12.3,29.8 12.3,50.4 63.5,80 63.8,59.4 		"/>
		<polygon class="st3" points="106.8,71.2 63.5,96.3 63.5,80 115.1,50.2 		"/>
		<polygon class="st4" points="20.7,71.7 63.6,96.3 63.6,80 12.2,50.4 		"/>
	</g>
	<polygon class="st8" points="66.1,112.7 63.7,114 61.2,112.8 63.7,111.3 	"/>
	<g>
		<polygon class="st7" points="26.4,97 63.9,118.6 63.9,115.6 26.4,94 		"/>
		<polygon class="st6" points="26.1,97.3 63.6,118.9 63.5,116 26.1,94.3 		"/>
	</g>
	<g>
		<polygon class="st6" points="100.7,98.1 64.6,118.9 64.6,116 100.6,95.1 		"/>
		<polygon class="st7" points="101.2,98.3 64.9,119.3 64.9,116.3 100.9,95.5 		"/>
	</g>
	<polygon class="st4" points="64.6,162 64.7,162 64.6,162 	"/>
	<polygon class="st5" points="64.6,162 64.6,162 64.6,162 64.6,162 	"/>
	<g>
		<polygon class="st7" points="6.3,57.5 62,89.7 62,84.8 6.3,52.7 		"/>
		<polygon class="st6" points="6.3,58.4 61.5,90.2 61.4,85.4 6.3,53.5 		"/>
	</g>
	<g>
		<polygon class="st6" points="119.5,52.8 64.1,84.8 64.1,89.7 119.5,57.7 		"/>
		<polygon class="st7" points="119.5,53.7 64.6,85.4 64.6,90.2 119.5,58.5 		"/>
	</g>
	<polygon class="st8" points="67.3,82 63.3,84.2 59.2,82.2 63.3,79.7 	"/>
	<g>
		<polygon class="st7" points="67.2,169.2 63.3,171.7 63.3,84.2 67.3,81.9 		"/>
		<polygon class="st6" points="63.3,171.8 59.2,169.5 59.2,82.2 63.3,84.2 		"/>
	</g>
	<polygon class="st6" points="9.4,140.4 5.3,138 5.3,51.4 9.2,53.5 	"/>
	<polygon class="st7" points="121.6,138.1 117.6,140.3 117.6,52.8 121.6,50.5 	"/>
	<polygon class="st6" points="27.6,128.9 25.1,127.4 25.1,91.2 27.5,92.4 	"/>
	<polygon class="st7" points="101.3,128.4 98.9,129.8 98.9,92.9 101.3,91.6 	"/>
</g>
</svg>
