<?xml version="1.0" encoding="utf-8"?>
<!-- Generator: Adobe Illustrator 23.0.3, SVG Export Plug-In . SVG Version: 6.00 Build 0)  -->
<svg version="1.1" id="Capa_1" xmlns="http://www.w3.org/2000/svg" xmlns:xlink="http://www.w3.org/1999/xlink" x="0px" y="0px"
	 viewBox="0 0 116.4 171.8" style="enable-background:new 0 0 116.4 171.8;" xml:space="preserve">
<style type="text/css">
	.st0{fill:#3458A3;}
	.st1{fill:#9FABD8;}
	.st2{fill:#BFC9E8;}
	.st3{fill:#F2F1F1;}
	.st4{fill:#E7E6E6;}
	.st5{fill:#CDCCCC;}
	.st6{fill:#878787;}
	.st7{fill:#B5B5B5;}
	.st8{fill:#DADADA;}
	.st9{fill:#BD1622;}
	.st10{fill:#CC5261;}
	.st11{fill:#751518;}
	.st12{fill:#31AA59;}
	.st13{fill:#6ABA82;}
	.st14{fill:#006E32;}
</style>
<g>
	<g>
		<g>
			<polygon class="st0" points="7.1,58.2 54.7,30.7 54.5,25.9 7.1,53.3 			"/>
			<polygon class="st1" points="7,59.1 55.5,31.1 55.1,26.5 7,54.2 			"/>
		</g>
		<g>
			<polygon class="st1" points="109.9,54.5 55.7,23.2 55.7,28.1 109.9,59.4 			"/>
			<polygon class="st0" points="109.9,55.4 55.2,23.8 55.2,28.6 109.9,60.2 			"/>
		</g>
	</g>
	<g>
		<polygon class="st2" points="8.1,51.2 4,53.5 0,51.4 4.1,49 		"/>
		<polygon class="st1" points="8.1,137.7 4.1,140.4 4,53.5 8.1,51.1 		"/>
	</g>
	<g>
		<polygon class="st2" points="116.3,50.5 112.4,52.8 108.3,50.8 112.4,48.3 		"/>
		<polygon class="st0" points="112.4,140.3 108.3,138.3 108.3,50.8 112.4,52.7 		"/>
	</g>
	<g>
		<g>
			<polygon class="st0" points="57.4,79 21.3,99.9 21.3,96.9 57.3,76.1 			"/>
			<polygon class="st1" points="57.9,79.3 21.6,100.2 21.6,97.3 57.6,76.5 			"/>
		</g>
		<g>
			<polygon class="st1" points="58,77.4 95.5,99.1 95.5,96.1 58,74.5 			"/>
			<polygon class="st0" points="57.7,77.8 95.1,99.4 95.1,96.4 57.7,74.8 			"/>
		</g>
	</g>
	<g>
		<polygon class="st2" points="24.8,91 22.3,92.4 19.9,91.2 22.3,89.7 		"/>
		<polygon class="st1" points="24.8,127.3 22.3,128.9 22.3,92.4 24.8,91 		"/>
	</g>
	<g>
		<polygon class="st2" points="96.1,91.6 93.7,92.9 91.2,91.7 93.6,90.2 		"/>
		<polygon class="st0" points="93.7,129.8 91.1,128.6 91.2,91.7 93.6,92.9 		"/>
	</g>
	<g>
		<polygon class="st2" points="63,46.2 59,48.5 54.9,46.5 59,44 		"/>
		<g>
			<polygon class="st1" points="63,105.5 59,108 59,48.5 63,46.2 			"/>
			<polygon class="st0" points="59,108.1 54.9,105.8 54.9,46.5 59,48.5 			"/>
		</g>
	</g>
	<g>
		<g>
			<polygon class="st3" points="58.5,104.7 35.1,118.2 34.1,118.7 58.5,132.7 58.5,132.7 58.5,132.7 82.7,118.7 81.9,118.2 			"/>
			<polygon class="st4" points="23,90.8 34.1,118.7 58.5,132.7 58.5,111.1 59.6,109.8 25.1,89.8 			"/>
			<polygon class="st3" points="93.8,90.7 82.7,118.7 58.4,132.7 58.4,111.1 57.3,109 92.1,90 			"/>
			<polygon class="st3" points="58.5,70.3 23,90.8 58.5,111.1 58.5,111.1 58.5,111.1 93.8,90.7 			"/>
			<polygon class="st4" points="58.5,75.3 32.8,90.1 31.7,90.8 58.5,106.1 58.5,106.1 58.5,106.1 85.1,90.7 84.2,90.1 			"/>
			<polygon class="st5" points="85.1,90.7 84.2,90.1 58.5,75.3 58.5,75.3 58.5,106.1 58.5,106.1 58.5,106.1 58.5,106.1 			"/>
		</g>
		<g>
			<polygon class="st3" points="58.5,70.6 24.6,90.2 23.1,91 58.5,111.3 58.5,111.3 58.5,111.3 93.8,90.9 92.5,90.2 			"/>
			<polygon class="st5" points="7,50.4 23.1,91 58.5,111.3 58.5,79.9 60.2,78 10,48.9 			"/>
			<polygon class="st4" points="109.9,50.3 93.7,91 58.3,111.3 58.3,79.9 56.7,76.9 107.3,49.2 			"/>
			<polygon class="st3" points="58.6,20.6 7,50.4 58.6,80 58.6,80 58.6,80 109.9,50.2 			"/>
			<polygon class="st4" points="58.6,27.9 21.3,49.4 19.6,50.3 58.5,72.7 58.5,72.7 58.5,72.7 97.2,50.2 95.8,49.4 			"/>
			<polygon class="st5" points="97.2,50.2 95.8,49.4 58.6,27.9 58.5,27.9 58.5,72.7 58.5,72.7 58.5,72.7 58.5,72.7 			"/>
			<polygon class="st3" points="58.6,0 7,29.8 58.6,59.4 58.6,59.4 58.6,59.4 109.9,29.7 			"/>
			<polygon class="st4" points="58.6,7.3 21.3,28.8 19.6,29.8 58.5,52.1 58.5,52.1 58.5,52.1 97.2,29.7 95.8,28.8 			"/>
			<polygon class="st5" points="97.2,29.7 95.8,28.8 58.6,7.3 58.5,7.3 58.5,52.1 58.5,52.1 58.5,52.1 58.5,52.1 			"/>
		</g>
		<polygon class="st4" points="109.9,29.7 109.9,50.2 58.3,80.1 58.6,59.4 		"/>
		<polygon class="st5" points="7,29.8 7,50.4 58.3,80 58.6,59.4 		"/>
		<polygon class="st3" points="101.5,71.2 58.2,96.3 58.2,80 109.9,50.2 		"/>
		<polygon class="st4" points="15.4,71.7 58.3,96.3 58.3,80 6.9,50.4 		"/>
	</g>
	<polygon class="st2" points="60.8,112.7 58.4,114 55.9,112.8 58.4,111.3 	"/>
	<g>
		<polygon class="st1" points="21.2,97 58.6,118.6 58.6,115.6 21.2,94 		"/>
		<polygon class="st0" points="20.9,97.3 58.3,118.9 58.3,116 20.8,94.3 		"/>
	</g>
	<g>
		<polygon class="st0" points="95.4,98.1 59.3,118.9 59.3,116 95.4,95.1 		"/>
		<polygon class="st1" points="96,98.3 59.7,119.3 59.7,116.3 95.7,95.5 		"/>
	</g>
	<polygon class="st4" points="59.3,162 59.4,162 59.4,162 	"/>
	<polygon class="st5" points="59.3,162 59.3,162 59.3,162 59.4,162 	"/>
	<g>
		<polygon class="st1" points="1.1,57.5 56.8,89.7 56.7,84.8 1.1,52.7 		"/>
		<polygon class="st0" points="1.1,58.4 56.2,90.2 56.2,85.4 1.1,53.5 		"/>
	</g>
	<g>
		<polygon class="st0" points="114.2,52.8 58.8,84.8 58.8,89.7 114.2,57.7 		"/>
		<polygon class="st1" points="114.2,53.7 59.4,85.4 59.4,90.2 114.2,58.5 		"/>
	</g>
	<polygon class="st2" points="62,82 58,84.2 53.9,82.2 58,79.7 	"/>
	<g>
		<polygon class="st1" points="62,169.2 58,171.7 58,84.2 62,81.9 		"/>
		<polygon class="st0" points="58,171.8 53.9,169.5 53.9,82.2 58,84.2 		"/>
	</g>
	<polygon class="st0" points="4.1,140.4 0,138 0,51.4 4,53.5 	"/>
	<polygon class="st1" points="116.3,138.1 112.4,140.3 112.4,52.8 116.4,50.5 	"/>
	<polygon class="st0" points="22.4,128.9 19.9,127.4 19.9,91.2 22.3,92.4 	"/>
	<polygon class="st1" points="96.1,128.4 93.6,129.8 93.6,92.9 96.1,91.6 	"/>
</g>
</svg>
