<?xml version="1.0" encoding="utf-8"?>
<!-- Generator: Adobe Illustrator 23.0.3, SVG Export Plug-In . SVG Version: 6.00 Build 0)  -->
<svg version="1.2" baseProfile="tiny" id="Capa_1" xmlns="http://www.w3.org/2000/svg" xmlns:xlink="http://www.w3.org/1999/xlink"
	 x="0px" y="0px" viewBox="0 0 72.57 136.01" xml:space="preserve">
<g>
	<polygon fill="#DADADA" points="9.25,14.14 7.23,15.27 4.9,14.13 6.97,12.89 	"/>
	<polygon fill="#B5B5B5" points="9.25,110.69 7.22,111.82 7.22,15.26 9.25,14.13 	"/>
	<polygon fill="#878787" points="7.23,111.83 4.9,110.67 4.9,14.13 7.23,15.26 	"/>
	<line fill="none" stroke="#F3F2F2" stroke-miterlimit="10" x1="4.9" y1="109.17" x2="6.38" y2="109.9"/>
	<line fill="none" stroke="#F3F2F2" stroke-miterlimit="10" x1="4.9" y1="107.19" x2="6.38" y2="107.92"/>
	<line fill="none" stroke="#F3F2F2" stroke-miterlimit="10" x1="4.9" y1="105.22" x2="6.38" y2="105.95"/>
	<line fill="none" stroke="#F3F2F2" stroke-miterlimit="10" x1="4.9" y1="103.24" x2="6.38" y2="103.97"/>
	<line fill="none" stroke="#F3F2F2" stroke-miterlimit="10" x1="4.9" y1="101.27" x2="6.38" y2="102"/>
	<line fill="none" stroke="#F3F2F2" stroke-miterlimit="10" x1="4.9" y1="99.3" x2="6.38" y2="100.03"/>
	<line fill="none" stroke="#F3F2F2" stroke-miterlimit="10" x1="4.9" y1="97.32" x2="6.38" y2="98.05"/>
	<line fill="none" stroke="#F3F2F2" stroke-miterlimit="10" x1="4.9" y1="95.35" x2="6.38" y2="96.08"/>
	<line fill="none" stroke="#F3F2F2" stroke-miterlimit="10" x1="4.9" y1="93.38" x2="6.38" y2="94.11"/>
	<line fill="none" stroke="#F3F2F2" stroke-miterlimit="10" x1="4.9" y1="91.4" x2="6.38" y2="92.13"/>
	<line fill="none" stroke="#F3F2F2" stroke-miterlimit="10" x1="4.9" y1="89.43" x2="6.38" y2="90.16"/>
	<line fill="none" stroke="#F3F2F2" stroke-miterlimit="10" x1="4.9" y1="87.45" x2="6.38" y2="88.19"/>
	<line fill="none" stroke="#F3F2F2" stroke-miterlimit="10" x1="4.9" y1="85.48" x2="6.38" y2="86.21"/>
	<line fill="none" stroke="#F3F2F2" stroke-miterlimit="10" x1="4.9" y1="83.51" x2="6.38" y2="84.24"/>
	<line fill="none" stroke="#F3F2F2" stroke-miterlimit="10" x1="4.9" y1="81.53" x2="6.38" y2="82.26"/>
	<line fill="none" stroke="#F3F2F2" stroke-miterlimit="10" x1="4.9" y1="79.56" x2="6.38" y2="80.29"/>
	<line fill="none" stroke="#F3F2F2" stroke-miterlimit="10" x1="4.9" y1="77.59" x2="6.38" y2="78.32"/>
	<line fill="none" stroke="#F3F2F2" stroke-miterlimit="10" x1="4.9" y1="75.61" x2="6.38" y2="76.34"/>
	<line fill="none" stroke="#F3F2F2" stroke-miterlimit="10" x1="4.9" y1="73.64" x2="6.38" y2="74.37"/>
	<line fill="none" stroke="#F3F2F2" stroke-miterlimit="10" x1="4.9" y1="71.67" x2="6.38" y2="72.4"/>
	<line fill="none" stroke="#F3F2F2" stroke-miterlimit="10" x1="4.9" y1="69.69" x2="6.38" y2="70.42"/>
	<line fill="none" stroke="#F3F2F2" stroke-miterlimit="10" x1="4.9" y1="67.72" x2="6.38" y2="68.45"/>
	<line fill="none" stroke="#F3F2F2" stroke-miterlimit="10" x1="4.9" y1="65.74" x2="6.38" y2="66.48"/>
	<line fill="none" stroke="#F3F2F2" stroke-miterlimit="10" x1="4.9" y1="63.77" x2="6.38" y2="64.5"/>
	<line fill="none" stroke="#F3F2F2" stroke-miterlimit="10" x1="4.9" y1="61.8" x2="6.38" y2="62.53"/>
	<line fill="none" stroke="#F3F2F2" stroke-miterlimit="10" x1="4.9" y1="59.82" x2="6.38" y2="60.55"/>
	<line fill="none" stroke="#F3F2F2" stroke-miterlimit="10" x1="4.9" y1="57.85" x2="6.38" y2="58.58"/>
	<line fill="none" stroke="#F3F2F2" stroke-miterlimit="10" x1="4.9" y1="55.88" x2="6.38" y2="56.61"/>
	<line fill="none" stroke="#F3F2F2" stroke-miterlimit="10" x1="4.9" y1="53.9" x2="6.38" y2="54.63"/>
	<line fill="none" stroke="#F3F2F2" stroke-miterlimit="10" x1="4.9" y1="51.93" x2="6.38" y2="52.66"/>
	<line fill="none" stroke="#F3F2F2" stroke-miterlimit="10" x1="4.9" y1="49.96" x2="6.38" y2="50.69"/>
	<line fill="none" stroke="#F3F2F2" stroke-miterlimit="10" x1="4.9" y1="47.98" x2="6.38" y2="48.71"/>
	<line fill="none" stroke="#F3F2F2" stroke-miterlimit="10" x1="4.9" y1="46.01" x2="6.38" y2="46.74"/>
	<line fill="none" stroke="#F3F2F2" stroke-miterlimit="10" x1="4.9" y1="44.03" x2="6.38" y2="44.77"/>
	<line fill="none" stroke="#F3F2F2" stroke-miterlimit="10" x1="4.9" y1="42.06" x2="6.38" y2="42.79"/>
	<line fill="none" stroke="#F3F2F2" stroke-miterlimit="10" x1="4.9" y1="40.09" x2="6.38" y2="40.82"/>
	<line fill="none" stroke="#F3F2F2" stroke-miterlimit="10" x1="4.9" y1="38.11" x2="6.38" y2="38.84"/>
	<line fill="none" stroke="#F3F2F2" stroke-miterlimit="10" x1="4.9" y1="36.14" x2="6.38" y2="36.87"/>
	<line fill="none" stroke="#F3F2F2" stroke-miterlimit="10" x1="4.9" y1="34.17" x2="6.38" y2="34.9"/>
	<line fill="none" stroke="#F3F2F2" stroke-miterlimit="10" x1="4.9" y1="32.19" x2="6.38" y2="32.92"/>
	<line fill="none" stroke="#F3F2F2" stroke-miterlimit="10" x1="4.9" y1="30.22" x2="6.38" y2="30.95"/>
	<line fill="none" stroke="#F3F2F2" stroke-miterlimit="10" x1="4.9" y1="28.25" x2="6.38" y2="28.98"/>
	<line fill="none" stroke="#F3F2F2" stroke-miterlimit="10" x1="4.9" y1="26.27" x2="6.38" y2="27"/>
	<line fill="none" stroke="#F3F2F2" stroke-miterlimit="10" x1="4.9" y1="24.3" x2="6.38" y2="25.03"/>
	<line fill="none" stroke="#F3F2F2" stroke-miterlimit="10" x1="4.9" y1="22.32" x2="6.38" y2="23.05"/>
	<line fill="none" stroke="#F3F2F2" stroke-miterlimit="10" x1="4.9" y1="20.35" x2="6.38" y2="21.08"/>
	<line fill="none" stroke="#F3F2F2" stroke-miterlimit="10" x1="4.9" y1="18.38" x2="6.38" y2="19.11"/>
	<line fill="none" stroke="#F3F2F2" stroke-miterlimit="10" x1="4.9" y1="16.4" x2="6.38" y2="17.13"/>
	<g>
		<path fill="#878787" d="M39.39,131.2c-1.03,0-1.86-0.2-1.86-0.45v4.81c0,0.25,0.83,0.45,1.86,0.45c1.03,0,1.86-0.2,1.86-0.45
			v-4.81C41.26,131,40.42,131.2,39.39,131.2z"/>
		<path fill="#DADADA" d="M41.25,130.73c-0.04-0.24-0.86-0.43-1.86-0.43c-1,0-1.82,0.19-1.86,0.43c0,0.01,0,0.01,0,0.02
			c0,0.25,0.83,0.45,1.86,0.45c1.03,0,1.86-0.2,1.86-0.45C41.26,130.74,41.25,130.73,41.25,130.73z"/>
	</g>
	<g>
		<path fill="#878787" d="M8.73,125.96c-1.03,0-1.86-0.2-1.86-0.45v4.81c0,0.25,0.83,0.45,1.86,0.45c1.03,0,1.86-0.2,1.86-0.45
			v-4.81C10.59,125.75,9.76,125.96,8.73,125.96z"/>
		<path fill="#DADADA" d="M10.59,125.49c-0.04-0.24-0.86-0.43-1.86-0.43c-1,0-1.82,0.19-1.86,0.43c0,0.01,0,0.01,0,0.02
			c0,0.25,0.83,0.45,1.86,0.45c1.03,0,1.86-0.2,1.86-0.45C10.59,125.5,10.59,125.49,10.59,125.49z"/>
	</g>
	<g>
		<path fill="#878787" d="M67.59,125.96c-1.03,0-1.86-0.2-1.86-0.45v4.81c0,0.25,0.83,0.45,1.86,0.45s1.86-0.2,1.86-0.45v-4.81
			C69.45,125.75,68.62,125.96,67.59,125.96z"/>
		<path fill="#DADADA" d="M69.45,125.49c-0.04-0.24-0.86-0.43-1.86-0.43c-1,0-1.82,0.19-1.86,0.43c0,0.01,0,0.01,0,0.02
			c0,0.25,0.83,0.45,1.86,0.45s1.86-0.2,1.86-0.45C69.45,125.5,69.45,125.49,69.45,125.49z"/>
	</g>
	<g>
		<path fill="#878787" d="M38.08,124.49c-19.05,0-34.49-3.75-34.49-8.37v6.96c0,4.62,15.44,8.37,34.49,8.37
			c19.05,0,34.49-3.75,34.49-8.37v-6.96C72.57,120.75,57.13,124.49,38.08,124.49z"/>
		<path fill="#DADADA" d="M72.54,115.79c-0.72-4.47-15.87-8.04-34.46-8.04c-18.59,0-33.74,3.57-34.46,8.04
			c-0.02,0.11-0.03,0.22-0.03,0.33c0,4.62,15.44,8.37,34.49,8.37c19.05,0,34.49-3.75,34.49-8.37
			C72.57,116.01,72.55,115.9,72.54,115.79z"/>
	</g>
	<path fill="#B5B5B5" d="M38.08,21.1c-15.92,0-28.83-3.13-28.83-7v98.93c0,3.86,12.91,7,28.83,7c15.92,0,28.83-3.13,28.83-7V14.11
		C66.91,17.97,54,21.1,38.08,21.1z"/>
	<g>
		<g>
			<path fill-rule="evenodd" fill="#DADADA" d="M15.17,108.43c-0.81-2.73-3.09-4.41-5.11-3.82c-0.11,0.03-3.77,2.05-3.77,2.05
				l4.41,9.23l3.11-1.85C15.25,113.04,15.86,110.75,15.17,108.43z"/>
			
				<ellipse transform="matrix(0.9558 -0.294 0.294 0.9558 -32.3372 7.4179)" fill="#DADADA" cx="8.5" cy="111.26" rx="3.81" ry="5.16"/>
		</g>
		<g>
			<path fill="#878787" d="M11.48,110.8c-1.23-4.12-4.7-6.75-7.75-5.86s-4.53,4.95-3.29,9.07c1.23,4.12,4.7,6.75,7.75,5.86
				C11.23,118.98,12.71,114.92,11.48,110.8z M6.48,106.17c0,0,3.03,1.3,3.88,4.43l-4.07,1.7C6.25,112.26,6.48,106.17,6.48,106.17z
				 M5.35,105.9v6.07l-4.15-2.74C2.19,105.57,5.35,105.9,5.35,105.9z M2.49,116.05c0,0-1.88-2.54-1.43-5.85l4.07,2.75L2.49,116.05z
				 M3.1,116.87c0,0,2.67-3.14,2.7-3.22l2.2,5.23C5.13,119.45,3.1,116.87,3.1,116.87z M8.92,118.39l-2.43-5.22l4.12-1.53
				C11.69,115.66,8.92,118.39,8.92,118.39z"/>
		</g>
	</g>
	<path fill="#DADADA" d="M66.88,13.83C66.27,10.09,38.08,0,38.08,0S9.88,10.09,9.28,13.83c-0.01,0.09-0.03,0.19-0.03,0.28
		c0,3.86,12.91,7,28.83,7c15.92,0,28.83-3.13,28.83-7C66.91,14.01,66.89,13.92,66.88,13.83z"/>
</g>
</svg>
