<svg width="60" height="60" xmlns="http://www.w3.org/2000/svg">

 <g>
  <title>background</title>
  <rect fill="none" id="canvas_background" height="402" width="582" y="-1" x="-1"/>
 </g>
 <g>
  <title>Layer 1</title>
  <path id="svg_2" fill="#FFFFFF" d="m59,56l-55,0l0,-55c0,-0.553 -0.447,-1 -1,-1s-1,0.447 -1,1l0,55l-1,0c-0.553,0 -1,0.446999 -1,1s0.447,1 1,1l1,0l0,1c0,0.553001 0.447,1 1,1s1,-0.446999 1,-1l0,-1l55,0c0.553001,0 1,-0.446999 1,-1s-0.446999,-1 -1,-1z"/>
  <path id="svg_3" fill="#FFFFFF" d="m7,29l2,0c0.553,0 1,-0.447001 1,-1s-0.447,-1 -1,-1l-2,0c-0.553,0 -1,0.447001 -1,1s0.447,1 1,1z"/>
  <path id="svg_4" fill="#FFFFFF" d="m7,25l2,0c0.553,0 1,-0.447001 1,-1s-0.447,-1 -1,-1l-2,0c-0.553,0 -1,0.447001 -1,1s0.447,1 1,1z"/>
  <path id="svg_5" fill="#FFFFFF" d="m7,21l2,0c0.553,0 1,-0.447001 1,-1s-0.447,-1 -1,-1l-2,0c-0.553,0 -1,0.447001 -1,1s0.447,1 1,1z"/>
  <path id="svg_6" fill="#FFFFFF" d="m7,17l2,0c0.553,0 1,-0.447001 1,-1s-0.447,-1 -1,-1l-2,0c-0.553,0 -1,0.447 -1,1s0.447,1 1,1z"/>
  <path id="svg_7" fill="#FFFFFF" d="m7,13l2,0c0.553,0 1,-0.447 1,-1s-0.447,-1 -1,-1l-2,0c-0.553,0 -1,0.447 -1,1s0.447,1 1,1z"/>
  <path id="svg_8" fill="#FFFFFF" d="m7,9l2,0c0.553,0 1,-0.447 1,-1s-0.447,-1 -1,-1l-2,0c-0.553,0 -1,0.447 -1,1s0.447,1 1,1z"/>
  <path id="svg_9" fill="#FFFFFF" d="m7,5l2,0c0.553,0 1,-0.447 1,-1s-0.447,-1 -1,-1l-2,0c-0.553,0 -1,0.447 -1,1s0.447,1 1,1z"/>
  <path id="svg_10" fill="#FFFFFF" d="m11.013,48.987c3.309,0 6.000001,-2.690998 6.000001,-6c0,-1.549 -0.595001,-2.958 -1.562001,-4.024002l3.526,-3.525997c1.065001,0.967999 2.474001,1.563 4.023001,1.563s2.958,-0.595001 4.024,-1.562l4.538,4.538002c-0.967001,1.065998 -1.562,2.474998 -1.562,4.023998c0,3.308998 2.691002,6 6,6s6,-2.691002 6,-6c0,-1.035 -0.263,-2.008999 -0.726002,-2.860001l8.703003,-8.702999c1.064999,0.967999 2.473999,1.563 4.022999,1.563c3.308998,0 6,-2.691 6,-6s-2.691002,-6 -6,-6s-6,2.691 -6,6c0,1.035 0.263,2.009001 0.726002,2.860001l-8.703003,8.702999c-1.064999,-0.967999 -2.473999,-1.563 -4.022999,-1.563c-1.035,0 -2.008999,0.263 -2.860001,0.726002l-4.866999,-4.867001c0.463999,-0.850002 0.726999,-1.824001 0.726999,-2.859001c0,-3.309 -2.691,-6 -6,-6s-6,2.691 -6,6c0,1.035 0.263,2.008999 0.726,2.860001l-3.854,3.854c-0.851,-0.463001 -1.825,-0.726002 -2.86,-0.726002c-3.309,0 -6,2.691002 -6,6s2.692,5.999001 6.000999,5.999001z"/>
 </g>
</svg>